%TF.GenerationSoftware,KiCad,Pcbnew,8.0.2*%
%TF.CreationDate,2024-10-24T08:37:16-07:00*%
%TF.ProjectId,UGC_Main_S1,5547435f-4d61-4696-9e5f-53312e6b6963,rev?*%
%TF.SameCoordinates,Original*%
%TF.FileFunction,Legend,Bot*%
%TF.FilePolarity,Positive*%
%FSLAX46Y46*%
G04 Gerber Fmt 4.6, Leading zero omitted, Abs format (unit mm)*
G04 Created by KiCad (PCBNEW 8.0.2) date 2024-10-24 08:37:16*
%MOMM*%
%LPD*%
G01*
G04 APERTURE LIST*
%ADD10C,0.120000*%
%ADD11C,0.150000*%
%ADD12C,0.100000*%
%ADD13C,0.254000*%
%ADD14C,0.125000*%
%ADD15C,0.127000*%
%ADD16C,0.200000*%
G04 APERTURE END LIST*
D10*
X237850033Y-111226193D02*
X236897653Y-111226193D01*
X237373843Y-111702383D02*
X237373843Y-110750002D01*
D11*
X165193504Y-136547219D02*
X164622076Y-136547219D01*
X164907790Y-137547219D02*
X164907790Y-136547219D01*
X164288742Y-137547219D02*
X164288742Y-136547219D01*
X164288742Y-136547219D02*
X163907790Y-136547219D01*
X163907790Y-136547219D02*
X163812552Y-136594838D01*
X163812552Y-136594838D02*
X163764933Y-136642457D01*
X163764933Y-136642457D02*
X163717314Y-136737695D01*
X163717314Y-136737695D02*
X163717314Y-136880552D01*
X163717314Y-136880552D02*
X163764933Y-136975790D01*
X163764933Y-136975790D02*
X163812552Y-137023409D01*
X163812552Y-137023409D02*
X163907790Y-137071028D01*
X163907790Y-137071028D02*
X164288742Y-137071028D01*
X163383980Y-136547219D02*
X162717314Y-136547219D01*
X162717314Y-136547219D02*
X163145885Y-137547219D01*
X161413723Y-137275219D02*
X161413723Y-137989504D01*
X161413723Y-137989504D02*
X161461342Y-138132361D01*
X161461342Y-138132361D02*
X161556580Y-138227600D01*
X161556580Y-138227600D02*
X161699437Y-138275219D01*
X161699437Y-138275219D02*
X161794675Y-138275219D01*
X160413723Y-138275219D02*
X160985151Y-138275219D01*
X160699437Y-138275219D02*
X160699437Y-137275219D01*
X160699437Y-137275219D02*
X160794675Y-137418076D01*
X160794675Y-137418076D02*
X160889913Y-137513314D01*
X160889913Y-137513314D02*
X160985151Y-137560933D01*
X159794675Y-137275219D02*
X159699437Y-137275219D01*
X159699437Y-137275219D02*
X159604199Y-137322838D01*
X159604199Y-137322838D02*
X159556580Y-137370457D01*
X159556580Y-137370457D02*
X159508961Y-137465695D01*
X159508961Y-137465695D02*
X159461342Y-137656171D01*
X159461342Y-137656171D02*
X159461342Y-137894266D01*
X159461342Y-137894266D02*
X159508961Y-138084742D01*
X159508961Y-138084742D02*
X159556580Y-138179980D01*
X159556580Y-138179980D02*
X159604199Y-138227600D01*
X159604199Y-138227600D02*
X159699437Y-138275219D01*
X159699437Y-138275219D02*
X159794675Y-138275219D01*
X159794675Y-138275219D02*
X159889913Y-138227600D01*
X159889913Y-138227600D02*
X159937532Y-138179980D01*
X159937532Y-138179980D02*
X159985151Y-138084742D01*
X159985151Y-138084742D02*
X160032770Y-137894266D01*
X160032770Y-137894266D02*
X160032770Y-137656171D01*
X160032770Y-137656171D02*
X159985151Y-137465695D01*
X159985151Y-137465695D02*
X159937532Y-137370457D01*
X159937532Y-137370457D02*
X159889913Y-137322838D01*
X159889913Y-137322838D02*
X159794675Y-137275219D01*
D12*
X225480076Y-132035200D02*
X225622933Y-131987580D01*
X225622933Y-131987580D02*
X225861028Y-131987580D01*
X225861028Y-131987580D02*
X225956266Y-132035200D01*
X225956266Y-132035200D02*
X226003885Y-132082819D01*
X226003885Y-132082819D02*
X226051504Y-132178057D01*
X226051504Y-132178057D02*
X226051504Y-132273295D01*
X226051504Y-132273295D02*
X226003885Y-132368533D01*
X226003885Y-132368533D02*
X225956266Y-132416152D01*
X225956266Y-132416152D02*
X225861028Y-132463771D01*
X225861028Y-132463771D02*
X225670552Y-132511390D01*
X225670552Y-132511390D02*
X225575314Y-132559009D01*
X225575314Y-132559009D02*
X225527695Y-132606628D01*
X225527695Y-132606628D02*
X225480076Y-132701866D01*
X225480076Y-132701866D02*
X225480076Y-132797104D01*
X225480076Y-132797104D02*
X225527695Y-132892342D01*
X225527695Y-132892342D02*
X225575314Y-132939961D01*
X225575314Y-132939961D02*
X225670552Y-132987580D01*
X225670552Y-132987580D02*
X225908647Y-132987580D01*
X225908647Y-132987580D02*
X226051504Y-132939961D01*
X226384838Y-132987580D02*
X226622933Y-131987580D01*
X226622933Y-131987580D02*
X226813409Y-132701866D01*
X226813409Y-132701866D02*
X227003885Y-131987580D01*
X227003885Y-131987580D02*
X227241981Y-132987580D01*
X228146742Y-131987580D02*
X227575314Y-131987580D01*
X227861028Y-131987580D02*
X227861028Y-132987580D01*
X227861028Y-132987580D02*
X227765790Y-132844723D01*
X227765790Y-132844723D02*
X227670552Y-132749485D01*
X227670552Y-132749485D02*
X227575314Y-132701866D01*
X229051504Y-132987580D02*
X228575314Y-132987580D01*
X228575314Y-132987580D02*
X228527695Y-132511390D01*
X228527695Y-132511390D02*
X228575314Y-132559009D01*
X228575314Y-132559009D02*
X228670552Y-132606628D01*
X228670552Y-132606628D02*
X228908647Y-132606628D01*
X228908647Y-132606628D02*
X229003885Y-132559009D01*
X229003885Y-132559009D02*
X229051504Y-132511390D01*
X229051504Y-132511390D02*
X229099123Y-132416152D01*
X229099123Y-132416152D02*
X229099123Y-132178057D01*
X229099123Y-132178057D02*
X229051504Y-132082819D01*
X229051504Y-132082819D02*
X229003885Y-132035200D01*
X229003885Y-132035200D02*
X228908647Y-131987580D01*
X228908647Y-131987580D02*
X228670552Y-131987580D01*
X228670552Y-131987580D02*
X228575314Y-132035200D01*
X228575314Y-132035200D02*
X228527695Y-132082819D01*
D11*
X169257504Y-136521819D02*
X168686076Y-136521819D01*
X168971790Y-137521819D02*
X168971790Y-136521819D01*
X168352742Y-137521819D02*
X168352742Y-136521819D01*
X168352742Y-136521819D02*
X167971790Y-136521819D01*
X167971790Y-136521819D02*
X167876552Y-136569438D01*
X167876552Y-136569438D02*
X167828933Y-136617057D01*
X167828933Y-136617057D02*
X167781314Y-136712295D01*
X167781314Y-136712295D02*
X167781314Y-136855152D01*
X167781314Y-136855152D02*
X167828933Y-136950390D01*
X167828933Y-136950390D02*
X167876552Y-136998009D01*
X167876552Y-136998009D02*
X167971790Y-137045628D01*
X167971790Y-137045628D02*
X168352742Y-137045628D01*
X166924171Y-136521819D02*
X167114647Y-136521819D01*
X167114647Y-136521819D02*
X167209885Y-136569438D01*
X167209885Y-136569438D02*
X167257504Y-136617057D01*
X167257504Y-136617057D02*
X167352742Y-136759914D01*
X167352742Y-136759914D02*
X167400361Y-136950390D01*
X167400361Y-136950390D02*
X167400361Y-137331342D01*
X167400361Y-137331342D02*
X167352742Y-137426580D01*
X167352742Y-137426580D02*
X167305123Y-137474200D01*
X167305123Y-137474200D02*
X167209885Y-137521819D01*
X167209885Y-137521819D02*
X167019409Y-137521819D01*
X167019409Y-137521819D02*
X166924171Y-137474200D01*
X166924171Y-137474200D02*
X166876552Y-137426580D01*
X166876552Y-137426580D02*
X166828933Y-137331342D01*
X166828933Y-137331342D02*
X166828933Y-137093247D01*
X166828933Y-137093247D02*
X166876552Y-136998009D01*
X166876552Y-136998009D02*
X166924171Y-136950390D01*
X166924171Y-136950390D02*
X167019409Y-136902771D01*
X167019409Y-136902771D02*
X167209885Y-136902771D01*
X167209885Y-136902771D02*
X167305123Y-136950390D01*
X167305123Y-136950390D02*
X167352742Y-136998009D01*
X167352742Y-136998009D02*
X167400361Y-137093247D01*
X274206619Y-123974266D02*
X274920904Y-123974266D01*
X274920904Y-123974266D02*
X275063761Y-123926647D01*
X275063761Y-123926647D02*
X275159000Y-123831409D01*
X275159000Y-123831409D02*
X275206619Y-123688552D01*
X275206619Y-123688552D02*
X275206619Y-123593314D01*
X274206619Y-124355219D02*
X274206619Y-125021885D01*
X274206619Y-125021885D02*
X275206619Y-124593314D01*
D13*
X270318894Y-139080518D02*
X270318894Y-139987661D01*
X270318894Y-139987661D02*
X270379371Y-140169089D01*
X270379371Y-140169089D02*
X270500323Y-140290042D01*
X270500323Y-140290042D02*
X270681752Y-140350518D01*
X270681752Y-140350518D02*
X270802704Y-140350518D01*
X269048894Y-140350518D02*
X269774609Y-140350518D01*
X269411752Y-140350518D02*
X269411752Y-139080518D01*
X269411752Y-139080518D02*
X269532704Y-139261946D01*
X269532704Y-139261946D02*
X269653656Y-139382899D01*
X269653656Y-139382899D02*
X269774609Y-139443375D01*
X268625561Y-139080518D02*
X267839370Y-139080518D01*
X267839370Y-139080518D02*
X268262704Y-139564327D01*
X268262704Y-139564327D02*
X268081275Y-139564327D01*
X268081275Y-139564327D02*
X267960323Y-139624803D01*
X267960323Y-139624803D02*
X267899847Y-139685280D01*
X267899847Y-139685280D02*
X267839370Y-139806232D01*
X267839370Y-139806232D02*
X267839370Y-140108613D01*
X267839370Y-140108613D02*
X267899847Y-140229565D01*
X267899847Y-140229565D02*
X267960323Y-140290042D01*
X267960323Y-140290042D02*
X268081275Y-140350518D01*
X268081275Y-140350518D02*
X268444132Y-140350518D01*
X268444132Y-140350518D02*
X268565085Y-140290042D01*
X268565085Y-140290042D02*
X268625561Y-140229565D01*
D14*
X277229866Y-138383409D02*
X277229866Y-138740552D01*
X277229866Y-138740552D02*
X277253675Y-138811980D01*
X277253675Y-138811980D02*
X277301294Y-138859600D01*
X277301294Y-138859600D02*
X277372723Y-138883409D01*
X277372723Y-138883409D02*
X277420342Y-138883409D01*
X276729866Y-138883409D02*
X277015580Y-138883409D01*
X276872723Y-138883409D02*
X276872723Y-138383409D01*
X276872723Y-138383409D02*
X276920342Y-138454838D01*
X276920342Y-138454838D02*
X276967961Y-138502457D01*
X276967961Y-138502457D02*
X277015580Y-138526266D01*
D11*
X160977819Y-126301666D02*
X161692104Y-126301666D01*
X161692104Y-126301666D02*
X161834961Y-126254047D01*
X161834961Y-126254047D02*
X161930200Y-126158809D01*
X161930200Y-126158809D02*
X161977819Y-126015952D01*
X161977819Y-126015952D02*
X161977819Y-125920714D01*
X160977819Y-127206428D02*
X160977819Y-127015952D01*
X160977819Y-127015952D02*
X161025438Y-126920714D01*
X161025438Y-126920714D02*
X161073057Y-126873095D01*
X161073057Y-126873095D02*
X161215914Y-126777857D01*
X161215914Y-126777857D02*
X161406390Y-126730238D01*
X161406390Y-126730238D02*
X161787342Y-126730238D01*
X161787342Y-126730238D02*
X161882580Y-126777857D01*
X161882580Y-126777857D02*
X161930200Y-126825476D01*
X161930200Y-126825476D02*
X161977819Y-126920714D01*
X161977819Y-126920714D02*
X161977819Y-127111190D01*
X161977819Y-127111190D02*
X161930200Y-127206428D01*
X161930200Y-127206428D02*
X161882580Y-127254047D01*
X161882580Y-127254047D02*
X161787342Y-127301666D01*
X161787342Y-127301666D02*
X161549247Y-127301666D01*
X161549247Y-127301666D02*
X161454009Y-127254047D01*
X161454009Y-127254047D02*
X161406390Y-127206428D01*
X161406390Y-127206428D02*
X161358771Y-127111190D01*
X161358771Y-127111190D02*
X161358771Y-126920714D01*
X161358771Y-126920714D02*
X161406390Y-126825476D01*
X161406390Y-126825476D02*
X161454009Y-126777857D01*
X161454009Y-126777857D02*
X161549247Y-126730238D01*
X217590563Y-92552798D02*
X217590563Y-93268467D01*
X217590563Y-93268467D02*
X217638275Y-93411601D01*
X217638275Y-93411601D02*
X217733697Y-93507024D01*
X217733697Y-93507024D02*
X217876831Y-93554735D01*
X217876831Y-93554735D02*
X217972254Y-93554735D01*
X216636337Y-92552798D02*
X217113450Y-92552798D01*
X217113450Y-92552798D02*
X217161161Y-93029911D01*
X217161161Y-93029911D02*
X217113450Y-92982199D01*
X217113450Y-92982199D02*
X217018028Y-92934488D01*
X217018028Y-92934488D02*
X216779471Y-92934488D01*
X216779471Y-92934488D02*
X216684049Y-92982199D01*
X216684049Y-92982199D02*
X216636337Y-93029911D01*
X216636337Y-93029911D02*
X216588626Y-93125333D01*
X216588626Y-93125333D02*
X216588626Y-93363890D01*
X216588626Y-93363890D02*
X216636337Y-93459312D01*
X216636337Y-93459312D02*
X216684049Y-93507024D01*
X216684049Y-93507024D02*
X216779471Y-93554735D01*
X216779471Y-93554735D02*
X217018028Y-93554735D01*
X217018028Y-93554735D02*
X217113450Y-93507024D01*
X217113450Y-93507024D02*
X217161161Y-93459312D01*
D10*
X272046647Y-132325400D02*
X272046647Y-132770638D01*
X272046647Y-132770638D02*
X272020457Y-132823019D01*
X272020457Y-132823019D02*
X271994266Y-132849210D01*
X271994266Y-132849210D02*
X271941885Y-132875400D01*
X271941885Y-132875400D02*
X271837123Y-132875400D01*
X271837123Y-132875400D02*
X271784742Y-132849210D01*
X271784742Y-132849210D02*
X271758552Y-132823019D01*
X271758552Y-132823019D02*
X271732361Y-132770638D01*
X271732361Y-132770638D02*
X271732361Y-132325400D01*
X271522838Y-132325400D02*
X271156171Y-132325400D01*
X271156171Y-132325400D02*
X271391886Y-132875400D01*
D15*
%TO.C,SW14*%
X215933657Y-134304400D02*
X215933657Y-136664400D01*
X220733657Y-132934400D02*
X216233657Y-132934400D01*
X220733657Y-138034400D02*
X216233657Y-138034400D01*
X221033657Y-136664400D02*
X221033657Y-134304400D01*
D16*
X222833657Y-133609400D02*
G75*
G02*
X222633657Y-133609400I-100000J0D01*
G01*
X222633657Y-133609400D02*
G75*
G02*
X222833657Y-133609400I100000J0D01*
G01*
D10*
%TO.C,TP7*%
X162731600Y-137890400D02*
X165131600Y-137890400D01*
X162731600Y-140290400D02*
X162731600Y-137890400D01*
X165131600Y-137890400D02*
X165131600Y-140290400D01*
X165131600Y-140290400D02*
X162731600Y-140290400D01*
D15*
%TO.C,J10*%
X164063600Y-139614800D02*
X164863600Y-139614800D01*
X164063600Y-140351800D02*
X164063600Y-139614800D01*
X164863600Y-139614800D02*
X164863600Y-139314800D01*
X165000600Y-139314800D02*
X164863600Y-139314800D01*
X165177600Y-142014800D02*
X166749600Y-142014800D01*
X166926600Y-139314800D02*
X167063600Y-139314800D01*
X167063600Y-139314800D02*
X167063600Y-139614800D01*
X167063600Y-139614800D02*
X167863600Y-139614800D01*
X167863600Y-140351800D02*
X167863600Y-139614800D01*
D16*
X167188600Y-138839800D02*
G75*
G02*
X166988600Y-138839800I-100000J0D01*
G01*
X166988600Y-138839800D02*
G75*
G02*
X167188600Y-138839800I100000J0D01*
G01*
D10*
%TO.C,TP1*%
X275355200Y-137890400D02*
X277755200Y-137890400D01*
X275355200Y-140290400D02*
X275355200Y-137890400D01*
X277755200Y-137890400D02*
X277755200Y-140290400D01*
X277755200Y-140290400D02*
X275355200Y-140290400D01*
%TO.C,SW15*%
D12*
X227676000Y-133971400D02*
X225574400Y-133971400D01*
X225574400Y-135869800D01*
X227676000Y-135869800D01*
X227676000Y-133971400D01*
D10*
%TO.C,TP6*%
X166795600Y-137865000D02*
X169195600Y-137865000D01*
X166795600Y-140265000D02*
X166795600Y-137865000D01*
X169195600Y-137865000D02*
X169195600Y-140265000D01*
X169195600Y-140265000D02*
X166795600Y-140265000D01*
%TO.C,J7*%
X276591600Y-123575000D02*
X276591600Y-129695000D01*
X276591600Y-129695000D02*
X281311600Y-129695000D01*
X277201600Y-124185000D02*
X277201600Y-129085000D01*
X277201600Y-126535000D02*
X277701600Y-126535000D01*
X277201600Y-129085000D02*
X280701600Y-129085000D01*
X277701600Y-126535000D02*
X277701600Y-126735000D01*
X277701600Y-126635000D02*
X277201600Y-126635000D01*
X277701600Y-126735000D02*
X277201600Y-126735000D01*
X278701600Y-124185000D02*
X278701600Y-123575000D01*
X278701600Y-129085000D02*
X278701600Y-129695000D01*
X280001600Y-124185000D02*
X280001600Y-123575000D01*
X280001600Y-129085000D02*
X280001600Y-129695000D01*
X280361600Y-129995000D02*
X281611600Y-129995000D01*
X280701600Y-124185000D02*
X277201600Y-124185000D01*
X280701600Y-126135000D02*
X280701600Y-124185000D01*
X280701600Y-127135000D02*
X281311600Y-127135000D01*
X280701600Y-129085000D02*
X280701600Y-127135000D01*
X281311600Y-123575000D02*
X276591600Y-123575000D01*
X281311600Y-126135000D02*
X280701600Y-126135000D01*
X281311600Y-128235000D02*
X281511600Y-128235000D01*
X281311600Y-129695000D02*
X281311600Y-123575000D01*
X281411600Y-128235000D02*
X281411600Y-127935000D01*
X281511600Y-127935000D02*
X281311600Y-127935000D01*
X281511600Y-128235000D02*
X281511600Y-127935000D01*
X281611600Y-129995000D02*
X281611600Y-128745000D01*
D16*
%TO.C,J13*%
X266940800Y-137976200D02*
X267690800Y-137976200D01*
X266940800Y-140176200D02*
X266940800Y-137976200D01*
X267690800Y-141576200D02*
X270890800Y-141576200D01*
D12*
X270490800Y-137376200D02*
X270490800Y-137376200D01*
X270490800Y-137476200D02*
X270490800Y-137476200D01*
D16*
X271640800Y-137976200D02*
X271090800Y-137976200D01*
X271640800Y-140176200D02*
X271640800Y-137976200D01*
D12*
X270490800Y-137376200D02*
G75*
G02*
X270490800Y-137476200I0J-50000D01*
G01*
X270490800Y-137476200D02*
G75*
G02*
X270490800Y-137376200I0J50000D01*
G01*
%TO.C,RV2*%
X238483657Y-97934400D02*
X240893657Y-97934400D01*
X238483657Y-111874400D02*
X238483657Y-97934400D01*
X238483657Y-114054400D02*
X238483657Y-114684400D01*
X238483657Y-114684400D02*
X248483657Y-114684400D01*
X246073657Y-97934400D02*
X248483657Y-97934400D01*
X248483657Y-111874400D02*
X248483657Y-97934400D01*
X248483657Y-114059400D02*
X248483657Y-114684400D01*
D10*
%TO.C,TP2*%
X278999742Y-137896669D02*
X281399742Y-137896669D01*
X278999742Y-140296669D02*
X278999742Y-137896669D01*
X281399742Y-137896669D02*
X281399742Y-140296669D01*
X281399742Y-140296669D02*
X278999742Y-140296669D01*
D15*
%TO.C,J1*%
X276484000Y-139614800D02*
X277284000Y-139614800D01*
X276484000Y-140351800D02*
X276484000Y-139614800D01*
X277284000Y-139614800D02*
X277284000Y-139314800D01*
X277421000Y-139314800D02*
X277284000Y-139314800D01*
X277598000Y-142014800D02*
X279170000Y-142014800D01*
X279347000Y-139314800D02*
X279484000Y-139314800D01*
X279484000Y-139314800D02*
X279484000Y-139614800D01*
X279484000Y-139614800D02*
X280284000Y-139614800D01*
X280284000Y-140351800D02*
X280284000Y-139614800D01*
D16*
X279609000Y-138839800D02*
G75*
G02*
X279409000Y-138839800I-100000J0D01*
G01*
X279409000Y-138839800D02*
G75*
G02*
X279609000Y-138839800I100000J0D01*
G01*
D10*
%TO.C,J6*%
X155713000Y-123575000D02*
X155713000Y-129695000D01*
X155713000Y-129695000D02*
X160433000Y-129695000D01*
X156323000Y-124185000D02*
X156323000Y-129085000D01*
X156323000Y-126535000D02*
X156823000Y-126535000D01*
X156323000Y-129085000D02*
X159823000Y-129085000D01*
X156823000Y-126535000D02*
X156823000Y-126735000D01*
X156823000Y-126635000D02*
X156323000Y-126635000D01*
X156823000Y-126735000D02*
X156323000Y-126735000D01*
X157823000Y-124185000D02*
X157823000Y-123575000D01*
X157823000Y-129085000D02*
X157823000Y-129695000D01*
X159123000Y-124185000D02*
X159123000Y-123575000D01*
X159123000Y-129085000D02*
X159123000Y-129695000D01*
X159483000Y-129995000D02*
X160733000Y-129995000D01*
X159823000Y-124185000D02*
X156323000Y-124185000D01*
X159823000Y-126135000D02*
X159823000Y-124185000D01*
X159823000Y-127135000D02*
X160433000Y-127135000D01*
X159823000Y-129085000D02*
X159823000Y-127135000D01*
X160433000Y-123575000D02*
X155713000Y-123575000D01*
X160433000Y-126135000D02*
X159823000Y-126135000D01*
X160433000Y-128235000D02*
X160633000Y-128235000D01*
X160433000Y-129695000D02*
X160433000Y-123575000D01*
X160533000Y-128235000D02*
X160533000Y-127935000D01*
X160633000Y-127935000D02*
X160433000Y-127935000D01*
X160633000Y-128235000D02*
X160633000Y-127935000D01*
X160733000Y-129995000D02*
X160733000Y-128745000D01*
D15*
%TO.C,J5*%
X213658635Y-81054400D02*
X223308635Y-81054400D01*
X213658635Y-83304400D02*
X213658635Y-81054400D01*
X213658635Y-89054400D02*
X213658635Y-86054400D01*
X215233635Y-91054400D02*
X214733635Y-91054400D01*
X222233635Y-91054400D02*
X221733635Y-91054400D01*
X223308635Y-81054400D02*
X223308635Y-83304400D01*
X223308635Y-86054400D02*
X223308635Y-89054400D01*
D16*
X215833635Y-91554400D02*
G75*
G02*
X215633635Y-91554400I-100000J0D01*
G01*
X215633635Y-91554400D02*
G75*
G02*
X215833635Y-91554400I100000J0D01*
G01*
D10*
%TO.C,U7*%
X270127600Y-133467200D02*
X271627600Y-133467200D01*
X270127600Y-136687200D02*
X271627600Y-136687200D01*
X273127600Y-133467200D02*
X271627600Y-133467200D01*
X273127600Y-136687200D02*
X271627600Y-136687200D01*
X273840100Y-133642200D02*
X273600100Y-133312200D01*
X274080100Y-133312200D01*
X273840100Y-133642200D01*
G36*
X273840100Y-133642200D02*
G01*
X273600100Y-133312200D01*
X274080100Y-133312200D01*
X273840100Y-133642200D01*
G37*
D12*
%TO.C,RV1*%
X188483657Y-97934400D02*
X190893657Y-97934400D01*
X188483657Y-111874400D02*
X188483657Y-97934400D01*
X188483657Y-114054400D02*
X188483657Y-114684400D01*
X188483657Y-114684400D02*
X198483657Y-114684400D01*
X196073657Y-97934400D02*
X198483657Y-97934400D01*
X198483657Y-111874400D02*
X198483657Y-97934400D01*
X198483657Y-114059400D02*
X198483657Y-114684400D01*
%TD*%
M02*
