%TF.GenerationSoftware,KiCad,Pcbnew,9.0.3*%
%TF.CreationDate,2025-07-21T15:48:26-07:00*%
%TF.ProjectId,UGC_Main_S1,5547435f-4d61-4696-9e5f-53312e6b6963,rev?*%
%TF.SameCoordinates,Original*%
%TF.FileFunction,Soldermask,Top*%
%TF.FilePolarity,Negative*%
%FSLAX46Y46*%
G04 Gerber Fmt 4.6, Leading zero omitted, Abs format (unit mm)*
G04 Created by KiCad (PCBNEW 9.0.3) date 2025-07-21 15:48:26*
%MOMM*%
%LPD*%
G01*
G04 APERTURE LIST*
G04 Aperture macros list*
%AMRoundRect*
0 Rectangle with rounded corners*
0 $1 Rounding radius*
0 $2 $3 $4 $5 $6 $7 $8 $9 X,Y pos of 4 corners*
0 Add a 4 corners polygon primitive as box body*
4,1,4,$2,$3,$4,$5,$6,$7,$8,$9,$2,$3,0*
0 Add four circle primitives for the rounded corners*
1,1,$1+$1,$2,$3*
1,1,$1+$1,$4,$5*
1,1,$1+$1,$6,$7*
1,1,$1+$1,$8,$9*
0 Add four rect primitives between the rounded corners*
20,1,$1+$1,$2,$3,$4,$5,0*
20,1,$1+$1,$4,$5,$6,$7,0*
20,1,$1+$1,$6,$7,$8,$9,0*
20,1,$1+$1,$8,$9,$2,$3,0*%
%AMHorizOval*
0 Thick line with rounded ends*
0 $1 width*
0 $2 $3 position (X,Y) of the first rounded end (center of the circle)*
0 $4 $5 position (X,Y) of the second rounded end (center of the circle)*
0 Add line between two ends*
20,1,$1,$2,$3,$4,$5,0*
0 Add two circle primitives to create the rounded ends*
1,1,$1,$2,$3*
1,1,$1,$4,$5*%
%AMRotRect*
0 Rectangle, with rotation*
0 The origin of the aperture is its center*
0 $1 length*
0 $2 width*
0 $3 Rotation angle, in degrees counterclockwise*
0 Add horizontal line*
21,1,$1,$2,0,0,$3*%
G04 Aperture macros list end*
%ADD10C,0.000000*%
%ADD11C,0.250000*%
%ADD12C,3.356250*%
%ADD13C,2.400000*%
%ADD14C,0.025000*%
%ADD15C,0.010000*%
%ADD16RoundRect,0.150000X-0.150000X0.587500X-0.150000X-0.587500X0.150000X-0.587500X0.150000X0.587500X0*%
%ADD17R,0.370000X0.370000*%
%ADD18C,0.650000*%
%ADD19O,0.950000X0.650000*%
%ADD20C,0.600000*%
%ADD21O,0.800000X1.400000*%
%ADD22RoundRect,0.140000X-0.140000X-0.170000X0.140000X-0.170000X0.140000X0.170000X-0.140000X0.170000X0*%
%ADD23RoundRect,0.135000X0.135000X0.185000X-0.135000X0.185000X-0.135000X-0.185000X0.135000X-0.185000X0*%
%ADD24RoundRect,0.250000X0.475000X-0.250000X0.475000X0.250000X-0.475000X0.250000X-0.475000X-0.250000X0*%
%ADD25RoundRect,0.135000X0.185000X-0.135000X0.185000X0.135000X-0.185000X0.135000X-0.185000X-0.135000X0*%
%ADD26RoundRect,0.135000X-0.135000X-0.185000X0.135000X-0.185000X0.135000X0.185000X-0.135000X0.185000X0*%
%ADD27R,0.565000X0.200000*%
%ADD28R,0.565000X0.400000*%
%ADD29RoundRect,0.140000X0.140000X0.170000X-0.140000X0.170000X-0.140000X-0.170000X0.140000X-0.170000X0*%
%ADD30RoundRect,0.135000X-0.185000X0.135000X-0.185000X-0.135000X0.185000X-0.135000X0.185000X0.135000X0*%
%ADD31RoundRect,0.093750X-0.093750X0.156250X-0.093750X-0.156250X0.093750X-0.156250X0.093750X0.156250X0*%
%ADD32RoundRect,0.075000X-0.075000X0.250000X-0.075000X-0.250000X0.075000X-0.250000X0.075000X0.250000X0*%
%ADD33R,1.350000X1.350000*%
%ADD34O,1.350000X1.350000*%
%ADD35RoundRect,0.250000X0.375000X0.850000X-0.375000X0.850000X-0.375000X-0.850000X0.375000X-0.850000X0*%
%ADD36R,0.745000X0.280000*%
%ADD37R,0.280000X0.745000*%
%ADD38RoundRect,0.100000X-0.130000X-0.100000X0.130000X-0.100000X0.130000X0.100000X-0.130000X0.100000X0*%
%ADD39RoundRect,0.140000X0.170000X-0.140000X0.170000X0.140000X-0.170000X0.140000X-0.170000X-0.140000X0*%
%ADD40RoundRect,0.150000X0.150000X0.200000X-0.150000X0.200000X-0.150000X-0.200000X0.150000X-0.200000X0*%
%ADD41RoundRect,0.150000X0.587500X0.150000X-0.587500X0.150000X-0.587500X-0.150000X0.587500X-0.150000X0*%
%ADD42RoundRect,0.250000X-0.425000X0.450000X-0.425000X-0.450000X0.425000X-0.450000X0.425000X0.450000X0*%
%ADD43RotRect,0.370000X0.370000X357.000000*%
%ADD44C,2.450000*%
%ADD45C,1.600000*%
%ADD46C,1.250000*%
%ADD47C,2.000000*%
%ADD48RoundRect,0.140000X-0.170000X0.140000X-0.170000X-0.140000X0.170000X-0.140000X0.170000X0.140000X0*%
%ADD49RoundRect,0.250000X-0.475000X0.250000X-0.475000X-0.250000X0.475000X-0.250000X0.475000X0.250000X0*%
%ADD50HorizOval,2.250000X-0.250000X0.433013X0.250000X-0.433013X0*%
%ADD51HorizOval,1.700000X0.259808X0.150000X-0.259808X-0.150000X0*%
%ADD52RoundRect,0.150000X-0.200000X0.150000X-0.200000X-0.150000X0.200000X-0.150000X0.200000X0.150000X0*%
%ADD53HorizOval,2.250000X-0.250000X-0.433013X0.250000X0.433013X0*%
%ADD54HorizOval,1.700000X0.259808X-0.150000X-0.259808X0.150000X0*%
%ADD55RoundRect,0.150000X-0.150000X-0.200000X0.150000X-0.200000X0.150000X0.200000X-0.150000X0.200000X0*%
%ADD56R,0.750000X1.000000*%
%ADD57C,1.500000*%
%ADD58RoundRect,0.100000X-0.225000X-0.100000X0.225000X-0.100000X0.225000X0.100000X-0.225000X0.100000X0*%
%ADD59RoundRect,0.050000X0.050000X-0.387500X0.050000X0.387500X-0.050000X0.387500X-0.050000X-0.387500X0*%
%ADD60RoundRect,0.050000X0.387500X-0.050000X0.387500X0.050000X-0.387500X0.050000X-0.387500X-0.050000X0*%
%ADD61R,3.200000X3.200000*%
%ADD62RoundRect,0.100000X0.100000X-0.225000X0.100000X0.225000X-0.100000X0.225000X-0.100000X-0.225000X0*%
%ADD63RoundRect,0.100000X0.225000X0.100000X-0.225000X0.100000X-0.225000X-0.100000X0.225000X-0.100000X0*%
%ADD64R,1.000000X0.750000*%
%ADD65R,1.200000X1.400000*%
%ADD66RoundRect,0.237500X-0.300000X-0.237500X0.300000X-0.237500X0.300000X0.237500X-0.300000X0.237500X0*%
%ADD67RoundRect,0.250000X-0.250000X0.250000X-0.250000X-0.250000X0.250000X-0.250000X0.250000X0.250000X0*%
%ADD68RoundRect,0.093750X0.093750X-0.156250X0.093750X0.156250X-0.093750X0.156250X-0.093750X-0.156250X0*%
%ADD69RoundRect,0.075000X0.075000X-0.250000X0.075000X0.250000X-0.075000X0.250000X-0.075000X-0.250000X0*%
%ADD70RoundRect,0.237500X0.237500X-0.300000X0.237500X0.300000X-0.237500X0.300000X-0.237500X-0.300000X0*%
%ADD71R,0.700000X0.300000*%
%ADD72R,1.000000X0.300000*%
%ADD73RoundRect,0.250000X0.250000X-0.250000X0.250000X0.250000X-0.250000X0.250000X-0.250000X-0.250000X0*%
%ADD74R,0.300000X0.400000*%
%ADD75R,1.600000X0.200000*%
%ADD76O,1.772000X3.250000*%
%ADD77RoundRect,0.250000X0.625000X-0.350000X0.625000X0.350000X-0.625000X0.350000X-0.625000X-0.350000X0*%
%ADD78O,1.750000X1.200000*%
%ADD79O,1.600000X2.500000*%
G04 APERTURE END LIST*
D10*
G36*
X177287240Y-95818628D02*
G01*
X177410546Y-95902220D01*
X177524581Y-95987170D01*
X177629594Y-96073306D01*
X177725834Y-96160454D01*
X177813548Y-96248442D01*
X177892985Y-96337096D01*
X177964393Y-96426243D01*
X178028020Y-96515710D01*
X178084116Y-96605323D01*
X178132927Y-96694909D01*
X178174703Y-96784296D01*
X178209691Y-96873310D01*
X178238141Y-96961777D01*
X178260299Y-97049525D01*
X178276415Y-97136380D01*
X178286737Y-97222170D01*
X178291513Y-97306720D01*
X178290991Y-97389859D01*
X178285420Y-97471412D01*
X178275047Y-97551206D01*
X178260122Y-97629068D01*
X178240893Y-97704826D01*
X178217607Y-97778305D01*
X178190514Y-97849333D01*
X178159860Y-97917736D01*
X178125896Y-97983341D01*
X178088868Y-98045976D01*
X178049026Y-98105466D01*
X178006617Y-98161639D01*
X177961890Y-98214321D01*
X177915093Y-98263340D01*
X177893449Y-98285890D01*
X177873169Y-98308862D01*
X177854263Y-98332215D01*
X177836739Y-98355905D01*
X177820605Y-98379891D01*
X177805870Y-98404131D01*
X177792543Y-98428581D01*
X177780631Y-98453199D01*
X177770144Y-98477943D01*
X177761090Y-98502771D01*
X177753476Y-98527640D01*
X177747313Y-98552508D01*
X177742608Y-98577333D01*
X177739369Y-98602071D01*
X177737606Y-98626681D01*
X177737326Y-98651120D01*
X177738539Y-98675346D01*
X177741252Y-98699316D01*
X177745475Y-98722989D01*
X177751215Y-98746321D01*
X177758481Y-98769270D01*
X177767281Y-98791794D01*
X177777625Y-98813851D01*
X177789520Y-98835398D01*
X177802975Y-98856393D01*
X177817998Y-98876792D01*
X177834599Y-98896555D01*
X177852785Y-98915639D01*
X177872564Y-98934000D01*
X177893946Y-98951597D01*
X177916939Y-98968388D01*
X177941552Y-98984330D01*
X177973508Y-99001491D01*
X178006049Y-99015810D01*
X178039062Y-99027354D01*
X178072435Y-99036187D01*
X178106055Y-99042375D01*
X178139810Y-99045983D01*
X178173586Y-99047077D01*
X178207272Y-99045721D01*
X178240754Y-99041982D01*
X178273920Y-99035925D01*
X178306657Y-99027616D01*
X178338853Y-99017118D01*
X178370395Y-99004499D01*
X178401170Y-98989823D01*
X178431066Y-98973157D01*
X178459970Y-98954564D01*
X178487769Y-98934111D01*
X178514351Y-98911863D01*
X178539603Y-98887886D01*
X178563413Y-98862244D01*
X178585668Y-98835004D01*
X178606254Y-98806230D01*
X178625061Y-98775988D01*
X178641974Y-98744344D01*
X178656882Y-98711363D01*
X178669671Y-98677110D01*
X178680229Y-98641651D01*
X178688444Y-98605050D01*
X178694203Y-98567375D01*
X178697392Y-98528689D01*
X178697900Y-98489058D01*
X178695614Y-98448548D01*
X178687663Y-98327571D01*
X178686261Y-98212775D01*
X178688077Y-98157737D01*
X178691603Y-98104296D01*
X178696863Y-98052468D01*
X178703883Y-98002271D01*
X178712684Y-97953720D01*
X178723293Y-97906834D01*
X178735734Y-97861629D01*
X178750030Y-97818122D01*
X178766205Y-97776330D01*
X178784285Y-97736269D01*
X178804292Y-97697958D01*
X178826252Y-97661413D01*
X178850189Y-97626650D01*
X178876127Y-97593688D01*
X178904089Y-97562542D01*
X178934101Y-97533230D01*
X178966186Y-97505768D01*
X179000370Y-97480174D01*
X179036675Y-97456465D01*
X179075126Y-97434657D01*
X179115748Y-97414767D01*
X179158564Y-97396813D01*
X179203599Y-97380812D01*
X179250878Y-97366780D01*
X179300423Y-97354734D01*
X179352260Y-97344691D01*
X179406413Y-97336669D01*
X179462906Y-97330684D01*
X179418974Y-97418912D01*
X179383602Y-97502740D01*
X179356321Y-97582500D01*
X179336660Y-97658519D01*
X179324151Y-97731128D01*
X179318322Y-97800655D01*
X179318704Y-97867431D01*
X179324827Y-97931784D01*
X179336220Y-97994044D01*
X179352415Y-98054541D01*
X179372941Y-98113604D01*
X179397329Y-98171563D01*
X179425107Y-98228746D01*
X179455807Y-98285483D01*
X179524091Y-98398939D01*
X179675038Y-98634997D01*
X179750182Y-98762870D01*
X179786026Y-98830421D01*
X179820093Y-98900820D01*
X179851912Y-98974398D01*
X179881013Y-99051483D01*
X179906927Y-99132405D01*
X179929182Y-99217493D01*
X179947310Y-99307078D01*
X179960841Y-99401487D01*
X179969303Y-99501052D01*
X179972229Y-99606100D01*
X179965651Y-99772703D01*
X179945654Y-99943948D01*
X179911840Y-100118118D01*
X179863812Y-100293500D01*
X179801172Y-100468378D01*
X179723523Y-100641037D01*
X179678946Y-100725999D01*
X179630468Y-100809762D01*
X179578040Y-100892114D01*
X179521610Y-100972838D01*
X179461131Y-101051722D01*
X179396552Y-101128551D01*
X179327823Y-101203110D01*
X179254895Y-101275184D01*
X179177719Y-101344561D01*
X179096244Y-101411024D01*
X179010421Y-101474360D01*
X178920200Y-101534355D01*
X178825532Y-101590793D01*
X178726367Y-101643461D01*
X178622655Y-101692145D01*
X178514346Y-101736629D01*
X178401392Y-101776700D01*
X178283742Y-101812143D01*
X178161347Y-101842744D01*
X178034156Y-101868288D01*
X178092622Y-101838385D01*
X178146552Y-101805798D01*
X178196065Y-101770634D01*
X178241275Y-101732999D01*
X178282300Y-101693000D01*
X178319255Y-101650743D01*
X178352257Y-101606335D01*
X178381421Y-101559883D01*
X178406866Y-101511493D01*
X178428705Y-101461271D01*
X178447057Y-101409325D01*
X178462037Y-101355761D01*
X178473761Y-101300685D01*
X178482346Y-101244204D01*
X178487907Y-101186425D01*
X178490562Y-101127454D01*
X178490684Y-101084237D01*
X178488594Y-101041466D01*
X178484325Y-100999241D01*
X178477914Y-100957659D01*
X178469396Y-100916817D01*
X178458805Y-100876816D01*
X178446178Y-100837751D01*
X178431548Y-100799723D01*
X178414951Y-100762827D01*
X178396422Y-100727164D01*
X178375997Y-100692830D01*
X178353710Y-100659925D01*
X178329597Y-100628545D01*
X178303692Y-100598790D01*
X178276031Y-100570757D01*
X178246650Y-100544544D01*
X178215582Y-100520250D01*
X178182863Y-100497973D01*
X178148529Y-100477810D01*
X178112614Y-100459860D01*
X178075153Y-100444220D01*
X178036183Y-100430990D01*
X177995737Y-100420267D01*
X177953851Y-100412149D01*
X177910560Y-100406735D01*
X177865899Y-100404122D01*
X177819904Y-100404408D01*
X177772609Y-100407692D01*
X177724049Y-100414072D01*
X177674260Y-100423646D01*
X177623277Y-100436511D01*
X177571135Y-100452767D01*
X177517533Y-100468651D01*
X177464699Y-100480388D01*
X177412745Y-100488055D01*
X177361781Y-100491731D01*
X177311916Y-100491492D01*
X177263261Y-100487416D01*
X177215927Y-100479580D01*
X177170023Y-100468063D01*
X177125659Y-100452941D01*
X177082946Y-100434292D01*
X177041995Y-100412194D01*
X177002914Y-100386724D01*
X176965815Y-100357960D01*
X176930808Y-100325979D01*
X176898002Y-100290858D01*
X176867509Y-100252676D01*
X176839438Y-100211509D01*
X176813899Y-100167435D01*
X176791004Y-100120533D01*
X176770861Y-100070878D01*
X176753582Y-100018549D01*
X176739275Y-99963624D01*
X176728053Y-99906179D01*
X176720024Y-99846292D01*
X176715300Y-99784042D01*
X176713990Y-99719504D01*
X176716204Y-99652758D01*
X176722053Y-99583879D01*
X176731647Y-99512947D01*
X176745095Y-99440038D01*
X176762510Y-99365230D01*
X176784000Y-99288600D01*
X176696840Y-99370045D01*
X176616379Y-99454217D01*
X176542534Y-99540860D01*
X176475220Y-99629716D01*
X176414355Y-99720530D01*
X176359854Y-99813045D01*
X176311635Y-99907003D01*
X176269613Y-100002148D01*
X176233705Y-100098224D01*
X176203827Y-100194973D01*
X176179896Y-100292138D01*
X176161829Y-100389463D01*
X176149541Y-100486692D01*
X176142949Y-100583566D01*
X176141970Y-100679831D01*
X176146519Y-100775228D01*
X176156515Y-100869501D01*
X176171872Y-100962393D01*
X176192507Y-101053648D01*
X176218337Y-101143009D01*
X176249278Y-101230219D01*
X176285246Y-101315021D01*
X176326159Y-101397158D01*
X176371932Y-101476374D01*
X176422482Y-101552412D01*
X176477725Y-101625015D01*
X176537578Y-101693926D01*
X176601957Y-101758889D01*
X176670778Y-101819647D01*
X176743959Y-101875942D01*
X176821415Y-101927519D01*
X176903062Y-101974121D01*
X176710463Y-101925610D01*
X176530569Y-101869659D01*
X176363063Y-101806695D01*
X176207627Y-101737146D01*
X176063944Y-101661439D01*
X175931697Y-101580003D01*
X175810569Y-101493264D01*
X175700242Y-101401650D01*
X175600398Y-101305588D01*
X175510722Y-101205507D01*
X175430894Y-101101833D01*
X175360598Y-100994995D01*
X175299517Y-100885419D01*
X175247333Y-100773534D01*
X175203729Y-100659766D01*
X175168388Y-100544544D01*
X175140992Y-100428295D01*
X175121223Y-100311446D01*
X175108766Y-100194426D01*
X175103301Y-100077661D01*
X175104513Y-99961579D01*
X175112083Y-99846607D01*
X175125695Y-99733174D01*
X175145030Y-99621707D01*
X175169772Y-99512632D01*
X175199604Y-99406379D01*
X175234207Y-99303374D01*
X175273265Y-99204045D01*
X175316461Y-99108819D01*
X175363476Y-99018124D01*
X175413994Y-98932388D01*
X175467698Y-98852038D01*
X175552864Y-98738921D01*
X175641770Y-98632335D01*
X175733815Y-98531679D01*
X175828399Y-98436353D01*
X175924921Y-98345754D01*
X176022780Y-98259283D01*
X176121376Y-98176339D01*
X176220107Y-98096322D01*
X176604372Y-97793498D01*
X176694771Y-97719100D01*
X176781700Y-97644024D01*
X176864560Y-97567669D01*
X176942750Y-97489434D01*
X177009803Y-97416263D01*
X177071760Y-97340321D01*
X177128174Y-97261163D01*
X177178601Y-97178342D01*
X177222594Y-97091412D01*
X177259707Y-96999929D01*
X177289495Y-96903446D01*
X177311513Y-96801517D01*
X177325314Y-96693697D01*
X177330452Y-96579541D01*
X177326483Y-96458602D01*
X177312960Y-96330435D01*
X177289437Y-96194594D01*
X177255470Y-96050633D01*
X177210611Y-95898107D01*
X177154416Y-95736569D01*
X177287240Y-95818628D01*
G37*
D11*
G36*
X204566200Y-102200900D02*
G01*
X204566200Y-101597059D01*
X204096155Y-101597059D01*
X204096155Y-101788228D01*
X204343084Y-101788228D01*
X204334067Y-101852448D01*
X204307332Y-101912700D01*
X204263833Y-101965412D01*
X204236445Y-101987594D01*
X204205904Y-102006243D01*
X204172839Y-102020877D01*
X204137340Y-102031298D01*
X204073293Y-102038308D01*
X204034923Y-102036017D01*
X203999323Y-102029358D01*
X203935654Y-102003889D01*
X203880866Y-101962754D01*
X203834676Y-101905586D01*
X203798309Y-101831904D01*
X203774456Y-101742989D01*
X203766500Y-101649815D01*
X203768814Y-101588808D01*
X203775633Y-101532503D01*
X203786297Y-101482739D01*
X203800811Y-101437463D01*
X203818264Y-101398175D01*
X203838982Y-101363152D01*
X203862009Y-101333362D01*
X203887825Y-101307665D01*
X203915750Y-101286466D01*
X203946107Y-101269302D01*
X204013716Y-101247238D01*
X204074979Y-101241612D01*
X204146406Y-101250548D01*
X204212939Y-101276846D01*
X204242311Y-101295806D01*
X204268117Y-101318059D01*
X204289301Y-101342509D01*
X204306117Y-101369359D01*
X204317550Y-101396610D01*
X204324234Y-101425386D01*
X204324839Y-101430143D01*
X204564661Y-101430143D01*
X204549295Y-101347052D01*
X204516641Y-101270675D01*
X204467296Y-101202101D01*
X204401838Y-101142997D01*
X204321260Y-101095565D01*
X204227295Y-101062268D01*
X204176014Y-101051653D01*
X204122452Y-101045417D01*
X204074979Y-101043702D01*
X204017525Y-101046015D01*
X203963143Y-101052825D01*
X203912231Y-101063839D01*
X203864374Y-101078905D01*
X203819572Y-101097842D01*
X203777859Y-101120457D01*
X203703063Y-101176610D01*
X203639923Y-101247002D01*
X203588996Y-101331526D01*
X203551479Y-101429949D01*
X203529053Y-101541480D01*
X203523234Y-101639777D01*
X203532444Y-101755553D01*
X203543911Y-101812243D01*
X203559780Y-101867167D01*
X203579800Y-101919641D01*
X203603917Y-101969559D01*
X203631361Y-102015550D01*
X203662484Y-102058327D01*
X203695938Y-102096255D01*
X203732607Y-102130489D01*
X203770740Y-102159568D01*
X203811639Y-102184624D01*
X203853474Y-102204638D01*
X203897690Y-102220387D01*
X203942699Y-102231321D01*
X203989783Y-102237759D01*
X204031308Y-102239515D01*
X204084590Y-102237210D01*
X204135280Y-102230455D01*
X204182781Y-102219505D01*
X204226622Y-102204592D01*
X204265007Y-102186639D01*
X204298987Y-102165423D01*
X204326420Y-102142751D01*
X204349153Y-102117576D01*
X204363600Y-102095900D01*
X204368363Y-102202000D01*
X204566200Y-102200900D01*
G37*
G36*
X205390886Y-101813214D02*
G01*
X205378261Y-101857718D01*
X205361863Y-101897451D01*
X205343471Y-101929608D01*
X205321855Y-101957547D01*
X205298557Y-101979895D01*
X205272368Y-101998345D01*
X205212740Y-102022853D01*
X205139047Y-102031567D01*
X205100761Y-102029239D01*
X205065410Y-102022324D01*
X205034255Y-102011474D01*
X205005797Y-101996586D01*
X204957361Y-101955504D01*
X204918579Y-101897822D01*
X204889672Y-101820468D01*
X204872540Y-101719443D01*
X204869183Y-101640803D01*
X204871538Y-101575288D01*
X204878644Y-101515007D01*
X204889314Y-101464825D01*
X204904030Y-101419402D01*
X204921062Y-101382208D01*
X204941548Y-101349302D01*
X204963719Y-101322692D01*
X204988933Y-101300034D01*
X205015996Y-101282128D01*
X205045909Y-101268071D01*
X205114116Y-101251954D01*
X205150771Y-101250039D01*
X205216375Y-101259227D01*
X205276496Y-101286240D01*
X205303493Y-101306085D01*
X205327961Y-101329955D01*
X205349456Y-101357569D01*
X205367751Y-101388884D01*
X205390886Y-101451612D01*
X205628803Y-101451612D01*
X205621890Y-101404418D01*
X205610516Y-101358933D01*
X205594882Y-101315644D01*
X205575051Y-101274576D01*
X205551377Y-101236346D01*
X205523796Y-101200809D01*
X205492814Y-101168595D01*
X205458224Y-101139508D01*
X205420608Y-101114084D01*
X205379668Y-101092190D01*
X205335957Y-101074227D01*
X205289178Y-101060189D01*
X205239758Y-101050357D01*
X205187497Y-101044856D01*
X205149085Y-101043702D01*
X205094492Y-101046030D01*
X205042407Y-101052949D01*
X204993887Y-101064087D01*
X204947960Y-101079446D01*
X204905287Y-101098637D01*
X204865313Y-101121754D01*
X204794108Y-101179102D01*
X204734328Y-101251387D01*
X204686492Y-101339010D01*
X204651733Y-101442607D01*
X204631733Y-101562759D01*
X204627603Y-101654212D01*
X204629915Y-101720223D01*
X204636725Y-101782399D01*
X204647650Y-101839910D01*
X204662573Y-101893652D01*
X204681073Y-101943052D01*
X204703123Y-101988727D01*
X204728372Y-102030405D01*
X204756775Y-102068362D01*
X204788188Y-102102610D01*
X204822410Y-102133090D01*
X204899336Y-102183053D01*
X204987101Y-102217858D01*
X205085217Y-102236565D01*
X205145715Y-102239515D01*
X205197501Y-102237196D01*
X205246883Y-102230340D01*
X205293395Y-102219212D01*
X205337376Y-102203922D01*
X205378699Y-102184644D01*
X205417335Y-102161511D01*
X205486682Y-102103799D01*
X205544913Y-102031040D01*
X205590984Y-101943308D01*
X205623341Y-101840822D01*
X205629023Y-101813214D01*
X205390886Y-101813214D01*
G37*
G36*
X206330610Y-101827429D02*
G01*
X206328261Y-101870162D01*
X206321198Y-101908037D01*
X206310820Y-101937940D01*
X206296604Y-101963993D01*
X206279761Y-101984963D01*
X206259509Y-102002598D01*
X206208721Y-102027969D01*
X206139741Y-102040651D01*
X206109546Y-102041678D01*
X206075237Y-102039364D01*
X206043890Y-102032542D01*
X206016529Y-102021847D01*
X205992124Y-102007281D01*
X205952921Y-101967694D01*
X205926001Y-101913656D01*
X205912843Y-101843971D01*
X205912002Y-101819002D01*
X205912002Y-101081218D01*
X205670422Y-101081218D01*
X205670422Y-101840838D01*
X205672745Y-101893605D01*
X205679625Y-101942533D01*
X205690417Y-101985981D01*
X205705184Y-102025919D01*
X205723297Y-102061497D01*
X205744968Y-102093776D01*
X205798277Y-102148294D01*
X205865816Y-102190648D01*
X205949352Y-102220728D01*
X206051163Y-102237147D01*
X206112917Y-102239515D01*
X206176363Y-102237175D01*
X206235525Y-102230169D01*
X206287226Y-102219330D01*
X206334946Y-102204397D01*
X206376365Y-102186511D01*
X206414064Y-102164994D01*
X206446656Y-102140963D01*
X206475692Y-102113625D01*
X206500609Y-102083673D01*
X206521994Y-102050581D01*
X206553981Y-101974835D01*
X206571249Y-101884370D01*
X206573876Y-101827429D01*
X206573876Y-101081218D01*
X206330610Y-101081218D01*
X206330610Y-101827429D01*
G37*
G36*
X207916674Y-101414683D02*
G01*
X207912537Y-101369201D01*
X207903841Y-101325836D01*
X207891037Y-101285805D01*
X207874013Y-101248161D01*
X207853291Y-101213770D01*
X207828620Y-101182024D01*
X207800372Y-101153388D01*
X207768358Y-101127682D01*
X207732600Y-101105061D01*
X207693169Y-101085714D01*
X207602461Y-101057303D01*
X207495443Y-101044284D01*
X207465680Y-101043702D01*
X207407557Y-101046012D01*
X207353854Y-101052802D01*
X207305902Y-101063494D01*
X207262132Y-101078026D01*
X207223461Y-101095723D01*
X207188776Y-101116713D01*
X207158504Y-101140442D01*
X207132107Y-101167025D01*
X207090942Y-101228094D01*
X207065015Y-101299864D01*
X207055176Y-101382620D01*
X207055132Y-101388817D01*
X207057457Y-101432426D01*
X207064350Y-101472117D01*
X207075032Y-101506444D01*
X207089631Y-101537654D01*
X207129881Y-101591269D01*
X207187346Y-101636903D01*
X207243004Y-101666448D01*
X207350236Y-101704666D01*
X207549211Y-101752251D01*
X207603721Y-101766468D01*
X207645872Y-101782623D01*
X207672943Y-101797914D01*
X207693007Y-101814765D01*
X207705965Y-101831642D01*
X207714410Y-101849955D01*
X207720376Y-101891103D01*
X207718050Y-101919402D01*
X207711142Y-101945152D01*
X207700341Y-101967314D01*
X207685538Y-101986951D01*
X207644093Y-102018397D01*
X207584431Y-102039235D01*
X207506053Y-102046734D01*
X207460603Y-102044418D01*
X207419093Y-102037580D01*
X207383495Y-102027032D01*
X207351922Y-102012689D01*
X207325971Y-101995765D01*
X207304008Y-101975701D01*
X207286895Y-101953665D01*
X207273776Y-101928971D01*
X207260255Y-101872922D01*
X207259637Y-101861867D01*
X207029853Y-101861867D01*
X207033123Y-101909057D01*
X207040854Y-101953049D01*
X207052564Y-101992977D01*
X207068223Y-102029870D01*
X207110483Y-102094248D01*
X207167485Y-102147455D01*
X207240177Y-102189755D01*
X207330076Y-102220260D01*
X207438571Y-102237050D01*
X207504368Y-102239515D01*
X207568673Y-102237155D01*
X207629402Y-102230011D01*
X207682179Y-102219029D01*
X207731217Y-102203778D01*
X207772961Y-102185808D01*
X207810980Y-102164064D01*
X207842870Y-102140321D01*
X207871091Y-102113192D01*
X207894358Y-102084181D01*
X207913939Y-102052017D01*
X207929350Y-102017479D01*
X207940901Y-101979849D01*
X207951768Y-101894806D01*
X207951919Y-101882750D01*
X207949633Y-101837708D01*
X207943009Y-101797626D01*
X207932684Y-101762892D01*
X207918882Y-101732180D01*
X207881322Y-101680544D01*
X207829015Y-101638328D01*
X207775771Y-101610101D01*
X207668830Y-101571222D01*
X207444431Y-101512502D01*
X207387779Y-101496269D01*
X207343508Y-101477809D01*
X207317177Y-101461581D01*
X207297375Y-101443363D01*
X207285099Y-101425572D01*
X207277250Y-101405850D01*
X207273192Y-101373650D01*
X207275532Y-101348192D01*
X207282529Y-101325367D01*
X207293310Y-101306393D01*
X207308143Y-101289859D01*
X207350596Y-101264037D01*
X207414740Y-101248257D01*
X207470736Y-101244983D01*
X207518126Y-101247339D01*
X207559404Y-101254456D01*
X207590660Y-101264648D01*
X207617489Y-101278589D01*
X207638398Y-101294797D01*
X207655741Y-101314266D01*
X207679994Y-101362773D01*
X207690408Y-101414683D01*
X207916674Y-101414683D01*
G37*
G36*
X208423063Y-102202000D02*
G01*
X208423063Y-101081218D01*
X208240540Y-101081218D01*
X208233501Y-101124582D01*
X208221531Y-101162297D01*
X208208005Y-101188208D01*
X208190464Y-101210633D01*
X208170525Y-101228141D01*
X208146565Y-101242764D01*
X208083941Y-101263736D01*
X207991735Y-101273245D01*
X207971483Y-101273486D01*
X207971483Y-101429411D01*
X208199947Y-101429411D01*
X208199947Y-102202000D01*
X208423063Y-102202000D01*
G37*
G36*
X200065774Y-103098884D02*
G01*
X200167568Y-103115318D01*
X200258812Y-103148173D01*
X200338813Y-103196267D01*
X200406907Y-103258773D01*
X200436263Y-103295298D01*
X200462267Y-103335203D01*
X200484873Y-103378642D01*
X200503772Y-103425313D01*
X200518920Y-103475578D01*
X200529970Y-103528944D01*
X200536808Y-103585929D01*
X200539124Y-103645885D01*
X200537728Y-103695267D01*
X200522000Y-103813009D01*
X200490358Y-103916985D01*
X200444755Y-104006300D01*
X200386939Y-104080464D01*
X200318276Y-104139203D01*
X200239685Y-104182193D01*
X200196824Y-104197611D01*
X200151702Y-104208813D01*
X200104198Y-104215679D01*
X200054644Y-104218000D01*
X199585258Y-104218000D01*
X199585258Y-104023533D01*
X199816727Y-104023533D01*
X200007603Y-104023533D01*
X200048015Y-104021709D01*
X200120531Y-104006607D01*
X200178337Y-103977272D01*
X200203156Y-103956735D01*
X200224887Y-103932441D01*
X200244807Y-103902261D01*
X200261333Y-103867777D01*
X200275793Y-103824480D01*
X200286276Y-103775890D01*
X200293488Y-103714297D01*
X200295858Y-103645885D01*
X200293467Y-103578093D01*
X200278896Y-103484910D01*
X200253113Y-103417119D01*
X200216216Y-103366839D01*
X200192421Y-103346482D01*
X200165197Y-103329683D01*
X200131353Y-103315247D01*
X200093143Y-103304799D01*
X200043405Y-103297509D01*
X199987453Y-103295128D01*
X199816727Y-103295128D01*
X199816727Y-104023533D01*
X199585258Y-104023533D01*
X199585258Y-103097218D01*
X200019327Y-103097218D01*
X200065774Y-103098884D01*
G37*
G36*
X201047331Y-103367244D02*
G01*
X201131470Y-103384536D01*
X201202092Y-103416658D01*
X201233176Y-103438376D01*
X201261407Y-103463861D01*
X201287438Y-103493995D01*
X201310402Y-103528108D01*
X201331206Y-103568257D01*
X201348563Y-103612798D01*
X201363225Y-103665068D01*
X201373907Y-103722314D01*
X201380890Y-103789109D01*
X201383228Y-103861600D01*
X200813824Y-103861600D01*
X200825665Y-103931499D01*
X200851763Y-103987975D01*
X200889450Y-104029020D01*
X200912237Y-104043812D01*
X200937574Y-104054674D01*
X200965691Y-104061452D01*
X200996127Y-104063760D01*
X201036639Y-104059690D01*
X201087204Y-104040608D01*
X201122660Y-104010162D01*
X201142160Y-103971363D01*
X201372237Y-103971363D01*
X201347772Y-104035346D01*
X201327382Y-104072704D01*
X201303690Y-104106532D01*
X201276808Y-104136818D01*
X201246953Y-104163412D01*
X201213897Y-104186489D01*
X201178153Y-104205636D01*
X201139139Y-104221030D01*
X201097706Y-104232182D01*
X201053038Y-104239116D01*
X201006239Y-104241447D01*
X200946337Y-104238874D01*
X200853215Y-104222160D01*
X200776967Y-104191482D01*
X200714542Y-104147264D01*
X200687696Y-104119518D01*
X200664117Y-104088210D01*
X200642997Y-104051749D01*
X200625438Y-104011422D01*
X200610667Y-103964262D01*
X200599936Y-103912735D01*
X200592906Y-103852427D01*
X200590562Y-103787082D01*
X200592174Y-103741522D01*
X200595807Y-103719158D01*
X200820565Y-103719158D01*
X201153297Y-103719158D01*
X201148387Y-103676083D01*
X201139786Y-103646458D01*
X201127491Y-103620584D01*
X201111247Y-103597618D01*
X201091974Y-103578664D01*
X201068873Y-103562974D01*
X201043529Y-103551702D01*
X201015379Y-103544628D01*
X200986089Y-103542277D01*
X200952742Y-103545685D01*
X200903329Y-103565451D01*
X200881816Y-103581600D01*
X200862913Y-103601711D01*
X200846946Y-103625688D01*
X200834327Y-103653323D01*
X200825395Y-103684563D01*
X200820565Y-103719158D01*
X200595807Y-103719158D01*
X200607865Y-103644939D01*
X200638568Y-103562885D01*
X200682791Y-103494819D01*
X200739905Y-103440335D01*
X200773432Y-103418149D01*
X200810095Y-103399613D01*
X200850541Y-103384633D01*
X200894089Y-103373701D01*
X200941870Y-103366838D01*
X200992757Y-103364517D01*
X201047331Y-103367244D01*
G37*
G36*
X202165269Y-103641415D02*
G01*
X202159897Y-103595822D01*
X202149952Y-103554211D01*
X202136846Y-103519905D01*
X202119757Y-103488940D01*
X202099877Y-103462796D01*
X202076274Y-103439679D01*
X202018248Y-103402937D01*
X201941948Y-103377716D01*
X201841671Y-103365307D01*
X201804986Y-103364517D01*
X201743572Y-103366816D01*
X201688757Y-103373527D01*
X201642404Y-103383788D01*
X201601666Y-103397574D01*
X201567653Y-103413904D01*
X201538473Y-103433049D01*
X201514433Y-103454303D01*
X201494699Y-103477848D01*
X201467309Y-103531624D01*
X201455360Y-103595461D01*
X201454888Y-103612180D01*
X201457347Y-103649239D01*
X201465178Y-103684504D01*
X201476695Y-103713175D01*
X201493098Y-103740260D01*
X201513351Y-103764157D01*
X201538659Y-103786443D01*
X201560108Y-103801370D01*
X201638609Y-103839580D01*
X201765081Y-103878340D01*
X201836347Y-103896185D01*
X201883676Y-103908751D01*
X201923774Y-103924674D01*
X201952727Y-103946901D01*
X201961801Y-103961299D01*
X201966622Y-103978378D01*
X201967286Y-103988436D01*
X201965013Y-104006819D01*
X201958482Y-104022672D01*
X201933818Y-104047592D01*
X201890707Y-104065036D01*
X201823451Y-104072187D01*
X201783770Y-104069866D01*
X201748780Y-104062997D01*
X201721119Y-104052839D01*
X201697905Y-104039095D01*
X201680749Y-104023449D01*
X201667719Y-104004968D01*
X201659278Y-103984676D01*
X201654966Y-103961932D01*
X201654410Y-103949528D01*
X201424553Y-103949528D01*
X201427642Y-103987059D01*
X201435318Y-104022710D01*
X201447186Y-104055564D01*
X201463307Y-104086295D01*
X201507630Y-104140345D01*
X201568564Y-104184481D01*
X201647168Y-104217455D01*
X201744696Y-104237106D01*
X201825136Y-104241447D01*
X201884144Y-104239125D01*
X201938168Y-104232251D01*
X201984671Y-104221667D01*
X202026575Y-104207239D01*
X202061980Y-104190126D01*
X202093145Y-104169766D01*
X202118993Y-104147287D01*
X202140846Y-104122001D01*
X202171949Y-104064527D01*
X202187187Y-103996455D01*
X202188643Y-103965281D01*
X202186321Y-103926659D01*
X202179445Y-103892462D01*
X202169023Y-103864213D01*
X202154854Y-103839278D01*
X202115880Y-103798412D01*
X202058834Y-103765555D01*
X202051110Y-103762316D01*
X201952017Y-103730976D01*
X201899939Y-103717224D01*
X201803960Y-103691314D01*
X201729637Y-103666573D01*
X201703807Y-103653253D01*
X201685482Y-103638043D01*
X201676266Y-103624025D01*
X201671719Y-103607758D01*
X201671190Y-103599064D01*
X201673515Y-103581792D01*
X201680413Y-103567302D01*
X201705749Y-103546996D01*
X201752991Y-103534647D01*
X201798245Y-103532166D01*
X201843255Y-103534636D01*
X201879463Y-103542549D01*
X201901144Y-103552422D01*
X201918660Y-103566041D01*
X201940941Y-103601705D01*
X201950726Y-103641415D01*
X202165269Y-103641415D01*
G37*
G36*
X202473821Y-104218000D02*
G01*
X202473821Y-103387965D01*
X202250705Y-103387965D01*
X202250705Y-104218000D01*
X202473821Y-104218000D01*
G37*
G36*
X202473821Y-103291171D02*
G01*
X202473821Y-103083150D01*
X202250705Y-103083150D01*
X202250705Y-103291171D01*
X202473821Y-103291171D01*
G37*
G36*
X202980803Y-103370612D02*
G01*
X203045857Y-103392330D01*
X203074294Y-103409039D01*
X203099948Y-103429591D01*
X203123658Y-103454992D01*
X203144341Y-103484465D01*
X203144341Y-103387965D01*
X203367383Y-103387965D01*
X203367383Y-104222030D01*
X203367010Y-104241381D01*
X203362937Y-104287351D01*
X203354553Y-104330390D01*
X203341986Y-104370715D01*
X203325502Y-104408001D01*
X203304879Y-104442873D01*
X203280652Y-104474505D01*
X203252115Y-104503719D01*
X203220256Y-104529398D01*
X203183944Y-104552273D01*
X203144629Y-104571244D01*
X203101050Y-104586729D01*
X203054894Y-104597921D01*
X203005187Y-104604890D01*
X202953465Y-104607225D01*
X202941707Y-104607108D01*
X202843160Y-104596239D01*
X202757228Y-104569296D01*
X202685399Y-104528592D01*
X202628362Y-104476067D01*
X202586484Y-104412965D01*
X202571406Y-104377655D01*
X202560374Y-104339807D01*
X202553581Y-104299392D01*
X202551270Y-104256614D01*
X202759292Y-104256614D01*
X202763114Y-104295062D01*
X202770782Y-104320590D01*
X202782335Y-104343256D01*
X202798004Y-104363432D01*
X202817321Y-104380401D01*
X202841434Y-104394729D01*
X202869105Y-104405252D01*
X202902041Y-104412123D01*
X202938371Y-104414444D01*
X202944809Y-104414373D01*
X203013116Y-104404040D01*
X203068862Y-104378587D01*
X203109876Y-104341365D01*
X203135387Y-104294543D01*
X203142049Y-104267780D01*
X203144341Y-104238809D01*
X203144341Y-104114685D01*
X203119978Y-104151858D01*
X203097739Y-104171601D01*
X203070689Y-104188590D01*
X203037975Y-104203038D01*
X203001343Y-104213778D01*
X202919906Y-104222689D01*
X202915828Y-104222673D01*
X202868639Y-104220069D01*
X202825220Y-104213189D01*
X202785164Y-104202198D01*
X202748713Y-104187407D01*
X202714615Y-104168357D01*
X202684143Y-104145821D01*
X202655434Y-104118214D01*
X202630572Y-104087340D01*
X202607534Y-104050138D01*
X202588743Y-104009938D01*
X202572583Y-103962289D01*
X202561151Y-103912211D01*
X202553678Y-103854807D01*
X202551785Y-103808697D01*
X202782812Y-103808697D01*
X202783606Y-103833843D01*
X202797136Y-103909148D01*
X202824798Y-103968387D01*
X202863555Y-104011205D01*
X202911320Y-104037547D01*
X202938285Y-104044373D01*
X202966947Y-104046688D01*
X202976390Y-104046450D01*
X203004925Y-104042685D01*
X203031730Y-104034488D01*
X203056754Y-104021904D01*
X203079453Y-104005181D01*
X203099829Y-103984167D01*
X203117222Y-103959282D01*
X203131512Y-103930295D01*
X203142125Y-103897739D01*
X203148790Y-103861491D01*
X203151082Y-103822033D01*
X203149677Y-103777478D01*
X203136566Y-103694093D01*
X203112365Y-103635651D01*
X203078072Y-103595457D01*
X203056189Y-103580776D01*
X203031430Y-103570126D01*
X203000928Y-103563023D01*
X202966947Y-103560669D01*
X202952269Y-103561076D01*
X202895322Y-103572407D01*
X202850788Y-103598653D01*
X202831955Y-103618355D01*
X202816144Y-103642229D01*
X202802312Y-103673207D01*
X202792149Y-103709274D01*
X202785152Y-103755739D01*
X202782812Y-103808697D01*
X202551785Y-103808697D01*
X202551270Y-103796168D01*
X202551845Y-103769868D01*
X202556447Y-103718413D01*
X202565441Y-103669668D01*
X202578617Y-103623689D01*
X202595698Y-103580814D01*
X202616374Y-103541322D01*
X202640424Y-103505299D01*
X202697133Y-103444832D01*
X202763270Y-103400673D01*
X202836497Y-103373676D01*
X202914850Y-103364517D01*
X202980803Y-103370612D01*
G37*
G36*
X204211853Y-104218000D02*
G01*
X204211853Y-103642441D01*
X204209549Y-103599838D01*
X204202804Y-103560629D01*
X204192111Y-103525507D01*
X204177616Y-103493733D01*
X204159683Y-103465522D01*
X204138458Y-103440695D01*
X204086397Y-103400979D01*
X204021735Y-103375076D01*
X203944796Y-103364625D01*
X203935687Y-103364517D01*
X203888392Y-103366829D01*
X203845417Y-103373634D01*
X203808176Y-103384195D01*
X203774717Y-103398532D01*
X203745519Y-103416070D01*
X203719773Y-103436902D01*
X203677887Y-103488444D01*
X203670953Y-103500438D01*
X203670953Y-103387965D01*
X203457948Y-103387965D01*
X203457948Y-104218000D01*
X203680991Y-104218000D01*
X203680991Y-103742825D01*
X203683344Y-103700536D01*
X203690435Y-103663662D01*
X203700630Y-103635695D01*
X203714563Y-103611913D01*
X203730758Y-103593685D01*
X203750189Y-103579013D01*
X203798595Y-103560388D01*
X203848346Y-103555613D01*
X203890766Y-103558163D01*
X203924518Y-103566632D01*
X203943315Y-103576718D01*
X203958436Y-103590715D01*
X203977571Y-103628602D01*
X203986641Y-103691943D01*
X203987125Y-103716007D01*
X203987125Y-104218000D01*
X204211853Y-104218000D01*
G37*
G36*
X204740283Y-103367244D02*
G01*
X204824422Y-103384536D01*
X204895044Y-103416658D01*
X204926128Y-103438376D01*
X204954359Y-103463861D01*
X204980390Y-103493995D01*
X205003353Y-103528108D01*
X205024158Y-103568257D01*
X205041515Y-103612798D01*
X205056177Y-103665068D01*
X205066859Y-103722314D01*
X205073842Y-103789109D01*
X205076179Y-103861600D01*
X204506776Y-103861600D01*
X204518617Y-103931499D01*
X204544714Y-103987975D01*
X204582402Y-104029020D01*
X204605189Y-104043812D01*
X204630526Y-104054674D01*
X204658643Y-104061452D01*
X204689079Y-104063760D01*
X204729591Y-104059690D01*
X204780156Y-104040608D01*
X204815612Y-104010162D01*
X204835112Y-103971363D01*
X205065189Y-103971363D01*
X205040724Y-104035346D01*
X205020334Y-104072704D01*
X204996642Y-104106532D01*
X204969760Y-104136818D01*
X204939905Y-104163412D01*
X204906849Y-104186489D01*
X204871105Y-104205636D01*
X204832091Y-104221030D01*
X204790658Y-104232182D01*
X204745989Y-104239116D01*
X204699191Y-104241447D01*
X204639288Y-104238874D01*
X204546167Y-104222160D01*
X204469919Y-104191482D01*
X204407494Y-104147264D01*
X204380648Y-104119518D01*
X204357069Y-104088210D01*
X204335948Y-104051749D01*
X204318390Y-104011422D01*
X204303618Y-103964262D01*
X204292887Y-103912735D01*
X204285858Y-103852427D01*
X204283514Y-103787082D01*
X204285126Y-103741522D01*
X204288759Y-103719158D01*
X204513517Y-103719158D01*
X204846249Y-103719158D01*
X204841339Y-103676083D01*
X204832738Y-103646458D01*
X204820443Y-103620584D01*
X204804199Y-103597618D01*
X204784925Y-103578664D01*
X204761825Y-103562974D01*
X204736480Y-103551702D01*
X204708331Y-103544628D01*
X204679041Y-103542277D01*
X204645694Y-103545685D01*
X204596280Y-103565451D01*
X204574767Y-103581600D01*
X204555865Y-103601711D01*
X204539898Y-103625688D01*
X204527279Y-103653323D01*
X204518347Y-103684563D01*
X204513517Y-103719158D01*
X204288759Y-103719158D01*
X204300817Y-103644939D01*
X204331519Y-103562885D01*
X204375743Y-103494819D01*
X204432856Y-103440335D01*
X204466384Y-103418149D01*
X204503047Y-103399613D01*
X204543493Y-103384633D01*
X204587041Y-103373701D01*
X204634822Y-103366838D01*
X204685708Y-103364517D01*
X204740283Y-103367244D01*
G37*
G36*
X205933692Y-104218000D02*
G01*
X205719075Y-104218000D01*
X205717463Y-104124503D01*
X205686194Y-104165244D01*
X205661757Y-104187599D01*
X205634556Y-104206090D01*
X205603566Y-104221162D01*
X205569803Y-104232078D01*
X205531102Y-104239103D01*
X205489512Y-104241447D01*
X205467507Y-104240825D01*
X205388151Y-104227264D01*
X205317231Y-104196733D01*
X205285052Y-104175217D01*
X205255401Y-104149691D01*
X205228116Y-104119840D01*
X205203775Y-104086066D01*
X205182202Y-104047755D01*
X205164047Y-104005580D01*
X205149257Y-103958737D01*
X205138406Y-103908094D01*
X205131613Y-103852811D01*
X205129893Y-103808917D01*
X205355789Y-103808917D01*
X205357054Y-103841228D01*
X205371897Y-103917993D01*
X205400480Y-103978416D01*
X205439320Y-104021692D01*
X205486103Y-104048012D01*
X205512180Y-104054785D01*
X205539923Y-104057092D01*
X205549493Y-104056814D01*
X205576908Y-104052798D01*
X205602765Y-104044208D01*
X205627558Y-104030801D01*
X205650116Y-104013062D01*
X205670686Y-103990581D01*
X205688267Y-103964112D01*
X205702711Y-103933525D01*
X205713430Y-103899466D01*
X205720083Y-103862346D01*
X205722373Y-103822399D01*
X205720864Y-103775848D01*
X205707449Y-103691066D01*
X205682980Y-103631429D01*
X205648782Y-103590578D01*
X205627334Y-103575810D01*
X205603176Y-103565092D01*
X205573970Y-103558034D01*
X205541609Y-103555686D01*
X205526175Y-103556123D01*
X205468753Y-103567559D01*
X205424109Y-103593877D01*
X205405201Y-103613730D01*
X205389404Y-103637730D01*
X205375457Y-103669265D01*
X205365261Y-103705928D01*
X205358145Y-103754074D01*
X205355789Y-103808917D01*
X205129893Y-103808917D01*
X205129302Y-103793823D01*
X205129654Y-103771122D01*
X205141708Y-103664517D01*
X205168976Y-103573854D01*
X205208930Y-103499717D01*
X205259658Y-103441839D01*
X205320182Y-103399787D01*
X205354085Y-103384684D01*
X205390454Y-103373652D01*
X205429566Y-103366832D01*
X205471047Y-103364517D01*
X205531924Y-103369898D01*
X205600632Y-103391764D01*
X205632018Y-103409157D01*
X205661068Y-103430738D01*
X205688806Y-103457615D01*
X205713946Y-103488935D01*
X205713946Y-103083150D01*
X205933692Y-103083150D01*
X205933692Y-104218000D01*
G37*
G36*
X206648395Y-103488935D02*
G01*
X206687888Y-103442867D01*
X206745259Y-103400214D01*
X206777651Y-103384909D01*
X206812322Y-103373831D01*
X206850648Y-103366854D01*
X206891368Y-103364517D01*
X206893967Y-103364526D01*
X206934948Y-103367078D01*
X206973595Y-103374048D01*
X207010097Y-103385358D01*
X207044094Y-103400790D01*
X207076259Y-103420690D01*
X207105647Y-103444534D01*
X207133138Y-103473252D01*
X207157475Y-103505792D01*
X207179409Y-103543574D01*
X207197727Y-103585033D01*
X207212826Y-103631736D01*
X207223813Y-103681864D01*
X207230714Y-103736696D01*
X207233039Y-103794556D01*
X207232190Y-103830575D01*
X207218232Y-103937902D01*
X207189021Y-104028881D01*
X207146730Y-104103661D01*
X207093048Y-104162516D01*
X207062285Y-104186024D01*
X207029093Y-104205515D01*
X206993375Y-104220990D01*
X206955534Y-104232200D01*
X206915135Y-104239119D01*
X206872903Y-104241447D01*
X206806472Y-104235184D01*
X206741784Y-104213397D01*
X206688250Y-104176482D01*
X206665130Y-104151734D01*
X206644951Y-104122965D01*
X206643339Y-104218000D01*
X206428723Y-104218000D01*
X206428723Y-103823279D01*
X206640042Y-103823279D01*
X206640728Y-103845446D01*
X206645433Y-103884037D01*
X206654322Y-103919613D01*
X206682705Y-103979502D01*
X206722128Y-104023089D01*
X206769397Y-104049638D01*
X206795244Y-104056399D01*
X206822491Y-104058704D01*
X206835650Y-104058194D01*
X206862962Y-104053672D01*
X206888481Y-104044664D01*
X206912874Y-104030822D01*
X206934923Y-104012660D01*
X206955235Y-103989345D01*
X206972518Y-103961896D01*
X206986946Y-103929492D01*
X206997615Y-103893319D01*
X207004327Y-103853119D01*
X207006626Y-103809723D01*
X207005300Y-103767819D01*
X206992361Y-103686851D01*
X206968199Y-103629734D01*
X206933664Y-103590158D01*
X206911527Y-103575641D01*
X206886368Y-103565069D01*
X206855426Y-103558031D01*
X206820806Y-103555686D01*
X206804786Y-103556235D01*
X206750748Y-103568314D01*
X206727851Y-103580222D01*
X206707583Y-103596071D01*
X206688983Y-103617186D01*
X206673355Y-103642763D01*
X206659541Y-103676285D01*
X206649394Y-103715316D01*
X206642383Y-103765785D01*
X206640042Y-103823279D01*
X206428723Y-103823279D01*
X206428723Y-103083150D01*
X206648395Y-103083150D01*
X206648395Y-103488935D01*
G37*
G36*
X207833803Y-104241593D02*
G01*
X207831532Y-104273763D01*
X207825015Y-104303106D01*
X207814464Y-104329907D01*
X207800433Y-104353386D01*
X207762930Y-104390197D01*
X207740442Y-104402703D01*
X207716279Y-104410814D01*
X207684986Y-104414444D01*
X207647890Y-104412129D01*
X207615420Y-104405302D01*
X207589473Y-104395116D01*
X207567463Y-104381358D01*
X207550063Y-104364965D01*
X207536249Y-104345550D01*
X207519177Y-104297304D01*
X207515946Y-104259106D01*
X207307997Y-104259106D01*
X207310340Y-104308562D01*
X207317357Y-104354830D01*
X207328275Y-104395486D01*
X207343344Y-104433011D01*
X207361596Y-104465791D01*
X207383610Y-104495471D01*
X207408657Y-104521283D01*
X207437253Y-104543930D01*
X207504912Y-104579237D01*
X207588414Y-104600901D01*
X207674874Y-104607225D01*
X207722181Y-104604899D01*
X207767695Y-104597994D01*
X207810587Y-104586782D01*
X207851096Y-104571316D01*
X207888157Y-104552146D01*
X207922335Y-104529097D01*
X207952600Y-104502985D01*
X207979568Y-104473374D01*
X208002460Y-104441170D01*
X208021691Y-104405804D01*
X208036783Y-104368034D01*
X208047846Y-104327374D01*
X208054604Y-104284251D01*
X208056919Y-104238444D01*
X208056919Y-104238296D01*
X208056919Y-103387965D01*
X207833803Y-103387965D01*
X207833803Y-103894133D01*
X207831504Y-103921667D01*
X207824791Y-103947244D01*
X207799117Y-103991442D01*
X207758638Y-104024314D01*
X207733382Y-104035658D01*
X207705265Y-104043070D01*
X207668133Y-104046321D01*
X207636169Y-104043975D01*
X207608439Y-104036934D01*
X207587243Y-104026664D01*
X207569430Y-104012636D01*
X207544655Y-103975004D01*
X207532151Y-103920333D01*
X207531040Y-103894133D01*
X207531040Y-103387965D01*
X207307997Y-103387965D01*
X207307997Y-103926080D01*
X207310302Y-103967226D01*
X207317052Y-104005939D01*
X207328009Y-104042071D01*
X207342929Y-104075463D01*
X207383940Y-104133691D01*
X207438628Y-104179364D01*
X207505500Y-104210831D01*
X207582748Y-104226175D01*
X207612739Y-104227378D01*
X207691478Y-104218464D01*
X207727873Y-104207588D01*
X207760626Y-104192925D01*
X207787799Y-104175689D01*
X207810161Y-104155649D01*
X207833803Y-104119374D01*
X207833803Y-104241593D01*
G37*
G36*
X209636902Y-104218000D02*
G01*
X209636902Y-103097218D01*
X209296769Y-103097218D01*
X209096954Y-103908348D01*
X208897212Y-103097218D01*
X208550339Y-103097218D01*
X208550339Y-104218000D01*
X208771769Y-104218000D01*
X208769424Y-103454277D01*
X208974295Y-104218000D01*
X209209648Y-104218000D01*
X209416204Y-103450906D01*
X209413859Y-104218000D01*
X209636902Y-104218000D01*
G37*
G36*
X209949997Y-104218000D02*
G01*
X209949997Y-103387965D01*
X209726881Y-103387965D01*
X209726881Y-104218000D01*
X209949997Y-104218000D01*
G37*
G36*
X209949997Y-103291171D02*
G01*
X209949997Y-103083150D01*
X209726881Y-103083150D01*
X209726881Y-103291171D01*
X209949997Y-103291171D01*
G37*
G36*
X210512952Y-103887905D02*
G01*
X210510586Y-103928344D01*
X210503400Y-103963233D01*
X210493322Y-103988526D01*
X210479536Y-104009463D01*
X210463889Y-104024472D01*
X210445113Y-104035746D01*
X210398638Y-104046656D01*
X210387655Y-104046981D01*
X210359367Y-104044657D01*
X210335056Y-104037774D01*
X210316096Y-104027536D01*
X210300261Y-104013654D01*
X210277387Y-103974998D01*
X210265252Y-103916543D01*
X210263971Y-103884535D01*
X210263971Y-103547260D01*
X210720974Y-103547260D01*
X210720974Y-103387965D01*
X210263971Y-103387965D01*
X210263971Y-103162870D01*
X210044299Y-103162870D01*
X210044299Y-103906370D01*
X210046679Y-103953941D01*
X210053966Y-103999834D01*
X210065254Y-104040266D01*
X210081090Y-104078308D01*
X210099911Y-104110929D01*
X210122894Y-104140755D01*
X210148406Y-104165911D01*
X210177824Y-104187978D01*
X210210032Y-104206066D01*
X210246083Y-104220724D01*
X210285729Y-104231606D01*
X210329351Y-104238586D01*
X210384285Y-104241447D01*
X210431873Y-104239151D01*
X210475581Y-104232459D01*
X210515029Y-104221812D01*
X210550812Y-104207441D01*
X210583106Y-104189555D01*
X210611832Y-104168488D01*
X210659815Y-104116596D01*
X210694847Y-104052016D01*
X210715767Y-103975114D01*
X210720974Y-103908055D01*
X210720974Y-103670358D01*
X210512952Y-103670358D01*
X210512952Y-103887905D01*
G37*
G36*
X211329505Y-103915896D02*
G01*
X211324470Y-103944833D01*
X211315364Y-103970475D01*
X211302680Y-103992541D01*
X211286660Y-104011289D01*
X211245007Y-104039037D01*
X211190913Y-104052681D01*
X211170356Y-104053648D01*
X211146539Y-104051298D01*
X211123609Y-104044221D01*
X211102272Y-104032634D01*
X211082426Y-104016418D01*
X211048170Y-103969408D01*
X211023378Y-103901033D01*
X211015629Y-103857808D01*
X211011785Y-103809065D01*
X211011427Y-103787815D01*
X211013711Y-103736340D01*
X211020316Y-103692142D01*
X211030151Y-103656818D01*
X211043183Y-103627229D01*
X211058387Y-103603935D01*
X211075974Y-103585286D01*
X211117379Y-103560649D01*
X211168781Y-103550866D01*
X211177097Y-103550704D01*
X211206832Y-103553025D01*
X211234263Y-103559893D01*
X211258248Y-103570709D01*
X211279465Y-103585504D01*
X211297206Y-103603654D01*
X211311737Y-103625352D01*
X211322755Y-103650419D01*
X211330014Y-103678783D01*
X211331263Y-103686771D01*
X211555918Y-103686771D01*
X211550596Y-103643367D01*
X211540915Y-103602609D01*
X211527245Y-103565096D01*
X211509650Y-103530404D01*
X211488404Y-103498804D01*
X211463587Y-103470234D01*
X211403531Y-103422450D01*
X211329817Y-103387962D01*
X211242694Y-103368337D01*
X211178782Y-103364517D01*
X211126196Y-103366879D01*
X211076581Y-103374030D01*
X211033289Y-103385069D01*
X210992937Y-103400421D01*
X210957777Y-103418895D01*
X210925532Y-103441334D01*
X210897383Y-103466740D01*
X210872204Y-103495941D01*
X210850369Y-103528585D01*
X210831690Y-103565050D01*
X210804064Y-103650814D01*
X210790801Y-103756269D01*
X210789997Y-103792504D01*
X210792311Y-103853599D01*
X210799132Y-103910257D01*
X210809871Y-103960932D01*
X210824506Y-104007426D01*
X210842321Y-104048634D01*
X210863512Y-104085872D01*
X210887451Y-104118563D01*
X210914351Y-104147416D01*
X210976194Y-104193440D01*
X211049096Y-104224469D01*
X211133619Y-104239941D01*
X211172041Y-104241447D01*
X211217848Y-104239133D01*
X211261852Y-104232312D01*
X211303959Y-104221116D01*
X211343739Y-104205748D01*
X211380914Y-104186407D01*
X211415257Y-104163270D01*
X211446345Y-104136683D01*
X211474132Y-104106706D01*
X211498153Y-104073853D01*
X211518448Y-104038030D01*
X211534616Y-103999856D01*
X211546667Y-103959120D01*
X211554379Y-103915896D01*
X211329505Y-103915896D01*
G37*
G36*
X212366828Y-104218000D02*
G01*
X212366828Y-103630718D01*
X212364520Y-103591722D01*
X212357737Y-103555414D01*
X212346875Y-103522343D01*
X212332076Y-103492104D01*
X212291552Y-103440597D01*
X212236950Y-103401216D01*
X212168562Y-103375187D01*
X212086918Y-103364626D01*
X212077254Y-103364517D01*
X212000766Y-103373265D01*
X211928318Y-103399049D01*
X211897100Y-103417226D01*
X211870747Y-103438018D01*
X211851191Y-103459344D01*
X211837304Y-103481937D01*
X211835967Y-103484905D01*
X211835967Y-103083150D01*
X211612924Y-103083150D01*
X211612924Y-104218000D01*
X211835967Y-104218000D01*
X211835967Y-103741653D01*
X211838295Y-103704670D01*
X211845214Y-103669963D01*
X211856070Y-103639387D01*
X211870971Y-103612017D01*
X211888478Y-103589813D01*
X211909371Y-103571328D01*
X211932011Y-103557752D01*
X211957516Y-103548216D01*
X212003322Y-103542277D01*
X212042382Y-103544769D01*
X212074508Y-103552832D01*
X212094165Y-103563013D01*
X212110259Y-103577161D01*
X212131139Y-103615199D01*
X212141389Y-103676284D01*
X212142101Y-103702965D01*
X212142101Y-104218000D01*
X212366828Y-104218000D01*
G37*
G36*
X203526239Y-106234000D02*
G01*
X203543849Y-106070589D01*
X203559700Y-105989224D01*
X203580225Y-105908443D01*
X203605399Y-105828463D01*
X203635219Y-105749433D01*
X203669567Y-105671752D01*
X203708509Y-105595379D01*
X203751809Y-105520857D01*
X203799633Y-105447990D01*
X203851614Y-105377413D01*
X203908035Y-105308822D01*
X203929606Y-105284457D01*
X203929606Y-105113218D01*
X203143681Y-105113218D01*
X203143681Y-105311128D01*
X203685241Y-105311128D01*
X203580187Y-105446010D01*
X203489473Y-105592423D01*
X203414437Y-105748528D01*
X203356387Y-105911922D01*
X203316435Y-106079667D01*
X203296382Y-106234000D01*
X203526239Y-106234000D01*
G37*
G36*
X203985953Y-106234000D02*
G01*
X203985953Y-106002531D01*
X203747743Y-106002531D01*
X203747743Y-106234000D01*
X203985953Y-106234000D01*
G37*
G36*
X204794079Y-106234000D02*
G01*
X204794079Y-106039533D01*
X204313776Y-106039533D01*
X204326477Y-105997446D01*
X204363853Y-105939984D01*
X204430651Y-105872267D01*
X204467209Y-105843528D01*
X204569532Y-105767376D01*
X204650240Y-105698594D01*
X204692382Y-105655658D01*
X204726348Y-105613433D01*
X204749230Y-105577209D01*
X204766793Y-105540171D01*
X204786566Y-105465357D01*
X204790709Y-105404184D01*
X204788394Y-105358661D01*
X204781569Y-105316597D01*
X204770801Y-105279059D01*
X204756118Y-105244750D01*
X204737917Y-105213996D01*
X204716209Y-105186368D01*
X204662133Y-105139916D01*
X204592879Y-105105080D01*
X204506800Y-105082936D01*
X204410349Y-105075702D01*
X204361481Y-105078028D01*
X204315726Y-105084931D01*
X204274565Y-105095842D01*
X204236493Y-105110819D01*
X204202434Y-105129237D01*
X204171477Y-105151329D01*
X204119659Y-105205531D01*
X204080708Y-105273619D01*
X204055317Y-105356563D01*
X204045232Y-105455584D01*
X204045157Y-105465441D01*
X204259847Y-105465441D01*
X204262155Y-105418525D01*
X204268931Y-105378919D01*
X204278690Y-105349079D01*
X204291741Y-105324457D01*
X204306878Y-105305751D01*
X204324649Y-105291071D01*
X204368559Y-105272396D01*
X204420461Y-105266871D01*
X204458442Y-105269385D01*
X204492750Y-105277601D01*
X204515968Y-105288441D01*
X204535876Y-105303720D01*
X204550155Y-105321033D01*
X204561212Y-105342381D01*
X204572279Y-105396972D01*
X204572649Y-105410926D01*
X204570157Y-105445664D01*
X204562099Y-105477892D01*
X204533152Y-105530436D01*
X204477601Y-105588776D01*
X204366972Y-105674854D01*
X204292365Y-105731349D01*
X204229393Y-105785210D01*
X204181744Y-105832102D01*
X204142110Y-105877829D01*
X204111530Y-105920181D01*
X204086841Y-105962300D01*
X204053072Y-106046534D01*
X204035012Y-106139832D01*
X204029990Y-106234000D01*
X204794079Y-106234000D01*
G37*
G36*
X205262366Y-106234000D02*
G01*
X205262366Y-105113218D01*
X205079843Y-105113218D01*
X205072804Y-105156582D01*
X205060834Y-105194297D01*
X205047307Y-105220208D01*
X205029767Y-105242633D01*
X205009828Y-105260141D01*
X204985867Y-105274764D01*
X204923244Y-105295736D01*
X204831038Y-105305245D01*
X204810785Y-105305486D01*
X204810785Y-105461411D01*
X205039250Y-105461411D01*
X205039250Y-106234000D01*
X205262366Y-106234000D01*
G37*
G36*
X205578025Y-106234000D02*
G01*
X205578025Y-106002531D01*
X205339815Y-106002531D01*
X205339815Y-106234000D01*
X205578025Y-106234000D01*
G37*
G36*
X206386152Y-106234000D02*
G01*
X206386152Y-106039533D01*
X205905848Y-106039533D01*
X205918550Y-105997446D01*
X205955926Y-105939984D01*
X206022724Y-105872267D01*
X206059281Y-105843528D01*
X206161604Y-105767376D01*
X206242312Y-105698594D01*
X206284455Y-105655658D01*
X206318420Y-105613433D01*
X206341303Y-105577209D01*
X206358866Y-105540171D01*
X206378639Y-105465357D01*
X206382781Y-105404184D01*
X206380466Y-105358661D01*
X206373642Y-105316597D01*
X206362874Y-105279059D01*
X206348191Y-105244750D01*
X206329989Y-105213996D01*
X206308281Y-105186368D01*
X206254205Y-105139916D01*
X206184951Y-105105080D01*
X206098872Y-105082936D01*
X206002422Y-105075702D01*
X205953553Y-105078028D01*
X205907798Y-105084931D01*
X205866638Y-105095842D01*
X205828566Y-105110819D01*
X205794507Y-105129237D01*
X205763549Y-105151329D01*
X205711732Y-105205531D01*
X205672780Y-105273619D01*
X205647390Y-105356563D01*
X205637304Y-105455584D01*
X205637230Y-105465441D01*
X205851919Y-105465441D01*
X205854227Y-105418525D01*
X205861003Y-105378919D01*
X205870763Y-105349079D01*
X205883814Y-105324457D01*
X205898950Y-105305751D01*
X205916721Y-105291071D01*
X205960632Y-105272396D01*
X206012533Y-105266871D01*
X206050515Y-105269385D01*
X206084823Y-105277601D01*
X206108041Y-105288441D01*
X206127949Y-105303720D01*
X206142228Y-105321033D01*
X206153285Y-105342381D01*
X206164352Y-105396972D01*
X206164721Y-105410926D01*
X206162230Y-105445664D01*
X206154171Y-105477892D01*
X206125224Y-105530436D01*
X206069673Y-105588776D01*
X205959044Y-105674854D01*
X205884438Y-105731349D01*
X205821465Y-105785210D01*
X205773816Y-105832102D01*
X205734182Y-105877829D01*
X205703602Y-105920181D01*
X205678914Y-105962300D01*
X205645144Y-106046534D01*
X205627085Y-106139832D01*
X205622062Y-106234000D01*
X206386152Y-106234000D01*
G37*
G36*
X206881685Y-105081857D02*
G01*
X206956913Y-105103650D01*
X207021543Y-105140874D01*
X207050595Y-105165816D01*
X207077200Y-105195018D01*
X207102069Y-105229794D01*
X207124174Y-105269318D01*
X207144362Y-105316125D01*
X207161325Y-105368408D01*
X207175695Y-105429975D01*
X207186236Y-105497965D01*
X207193126Y-105577421D01*
X207195450Y-105664450D01*
X207186789Y-105827249D01*
X207163795Y-105954694D01*
X207129220Y-106055375D01*
X207084915Y-106133579D01*
X207031598Y-106192826D01*
X207001306Y-106216215D01*
X206968727Y-106235433D01*
X206932810Y-106250924D01*
X206894600Y-106262067D01*
X206851865Y-106269162D01*
X206806738Y-106271515D01*
X206735373Y-106265630D01*
X206661553Y-106243979D01*
X206597870Y-106206577D01*
X206569081Y-106181303D01*
X206542752Y-106151709D01*
X206517989Y-106116203D01*
X206496009Y-106075854D01*
X206475827Y-106027762D01*
X206458895Y-105974059D01*
X206444490Y-105910482D01*
X206433940Y-105840304D01*
X206427021Y-105757923D01*
X206424780Y-105671117D01*
X206656235Y-105671117D01*
X206660496Y-105808011D01*
X206676160Y-105929657D01*
X206699580Y-106006413D01*
X206728795Y-106053569D01*
X206745936Y-106069388D01*
X206764880Y-106080631D01*
X206788068Y-106088057D01*
X206813479Y-106090458D01*
X206830377Y-106089402D01*
X206871301Y-106075391D01*
X206889913Y-106061098D01*
X206906547Y-106041722D01*
X206922985Y-106013388D01*
X206936906Y-105977912D01*
X206949968Y-105927088D01*
X206959633Y-105865557D01*
X206966689Y-105778317D01*
X206969037Y-105674488D01*
X206964898Y-105538252D01*
X206949437Y-105415988D01*
X206926255Y-105339075D01*
X206897320Y-105291938D01*
X206880362Y-105276163D01*
X206861588Y-105264940D01*
X206838655Y-105257544D01*
X206813479Y-105255147D01*
X206794851Y-105256398D01*
X206753833Y-105270821D01*
X206735224Y-105285263D01*
X206718573Y-105304789D01*
X206702170Y-105333190D01*
X206688257Y-105368751D01*
X206675243Y-105419490D01*
X206665596Y-105480971D01*
X206658578Y-105567740D01*
X206656235Y-105671117D01*
X206424780Y-105671117D01*
X206424693Y-105667747D01*
X206431561Y-105518381D01*
X206452597Y-105389154D01*
X206485019Y-105288840D01*
X206527093Y-105211819D01*
X206578424Y-105153719D01*
X206608087Y-105130669D01*
X206640152Y-105111777D01*
X206676281Y-105096339D01*
X206714937Y-105085259D01*
X206759436Y-105078069D01*
X206806738Y-105075702D01*
X206881685Y-105081857D01*
G37*
G36*
X207989948Y-106234000D02*
G01*
X207989948Y-106039533D01*
X207509644Y-106039533D01*
X207522346Y-105997446D01*
X207559722Y-105939984D01*
X207626520Y-105872267D01*
X207663078Y-105843528D01*
X207765400Y-105767376D01*
X207846108Y-105698594D01*
X207888251Y-105655658D01*
X207922217Y-105613433D01*
X207945099Y-105577209D01*
X207962662Y-105540171D01*
X207982435Y-105465357D01*
X207986577Y-105404184D01*
X207984263Y-105358661D01*
X207977438Y-105316597D01*
X207966670Y-105279059D01*
X207951987Y-105244750D01*
X207933785Y-105213996D01*
X207912077Y-105186368D01*
X207858001Y-105139916D01*
X207788747Y-105105080D01*
X207702668Y-105082936D01*
X207606218Y-105075702D01*
X207557349Y-105078028D01*
X207511594Y-105084931D01*
X207470434Y-105095842D01*
X207432362Y-105110819D01*
X207398303Y-105129237D01*
X207367346Y-105151329D01*
X207315528Y-105205531D01*
X207276577Y-105273619D01*
X207251186Y-105356563D01*
X207241101Y-105455584D01*
X207241026Y-105465441D01*
X207455716Y-105465441D01*
X207458023Y-105418525D01*
X207464799Y-105378919D01*
X207474559Y-105349079D01*
X207487610Y-105324457D01*
X207502747Y-105305751D01*
X207520517Y-105291071D01*
X207564428Y-105272396D01*
X207616330Y-105266871D01*
X207654311Y-105269385D01*
X207688619Y-105277601D01*
X207711837Y-105288441D01*
X207731745Y-105303720D01*
X207746024Y-105321033D01*
X207757081Y-105342381D01*
X207768148Y-105396972D01*
X207768517Y-105410926D01*
X207766026Y-105445664D01*
X207757968Y-105477892D01*
X207729021Y-105530436D01*
X207673469Y-105588776D01*
X207562840Y-105674854D01*
X207488234Y-105731349D01*
X207425261Y-105785210D01*
X207377613Y-105832102D01*
X207337978Y-105877829D01*
X207307398Y-105920181D01*
X207282710Y-105962300D01*
X207248941Y-106046534D01*
X207230881Y-106139832D01*
X207225859Y-106234000D01*
X207989948Y-106234000D01*
G37*
G36*
X208275932Y-105795022D02*
G01*
X208292946Y-105765563D01*
X208313132Y-105741412D01*
X208333280Y-105725033D01*
X208356424Y-105712639D01*
X208410944Y-105700146D01*
X208430684Y-105699401D01*
X208461655Y-105701721D01*
X208489008Y-105708585D01*
X208511361Y-105719002D01*
X208530580Y-105733154D01*
X208559488Y-105771789D01*
X208576892Y-105827063D01*
X208581187Y-105881557D01*
X208578770Y-105929003D01*
X208571234Y-105971352D01*
X208560763Y-106002286D01*
X208546208Y-106029008D01*
X208529933Y-106048683D01*
X208510177Y-106064683D01*
X208488151Y-106076239D01*
X208462728Y-106084145D01*
X208417275Y-106088773D01*
X208387470Y-106086453D01*
X208360496Y-106079597D01*
X208337525Y-106068948D01*
X208317444Y-106054430D01*
X208286867Y-106014925D01*
X208269006Y-105960281D01*
X208266480Y-105940981D01*
X208043584Y-105940981D01*
X208047663Y-105981589D01*
X208056124Y-106020237D01*
X208085745Y-106091892D01*
X208131396Y-106154490D01*
X208191894Y-106206039D01*
X208265517Y-106244151D01*
X208306544Y-106257414D01*
X208349816Y-106266423D01*
X208417275Y-106271515D01*
X208464092Y-106269197D01*
X208508707Y-106262350D01*
X208550606Y-106251239D01*
X208589972Y-106235985D01*
X208626379Y-106216888D01*
X208659927Y-106194011D01*
X208690318Y-106167622D01*
X208717519Y-106137786D01*
X208741346Y-106104664D01*
X208761629Y-106068399D01*
X208778243Y-106028997D01*
X208790932Y-105986736D01*
X208799555Y-105941475D01*
X208803839Y-105893629D01*
X208804302Y-105871299D01*
X208801999Y-105823138D01*
X208795257Y-105778181D01*
X208784427Y-105736822D01*
X208769718Y-105698780D01*
X208751432Y-105664230D01*
X208729775Y-105633141D01*
X208677078Y-105581480D01*
X208612944Y-105544417D01*
X208538662Y-105523091D01*
X208479411Y-105518344D01*
X208426712Y-105520927D01*
X208375778Y-105529635D01*
X208339200Y-105541225D01*
X208305184Y-105557807D01*
X208260251Y-105593595D01*
X208269997Y-105302775D01*
X208762317Y-105302775D01*
X208762317Y-105113218D01*
X208070548Y-105113218D01*
X208046881Y-105794875D01*
X208275932Y-105795022D01*
G37*
%TO.C,SW2*%
D12*
X246135438Y-124142540D02*
G75*
G02*
X242779188Y-124142540I-1678125J0D01*
G01*
X242779188Y-124142540D02*
G75*
G02*
X246135438Y-124142540I1678125J0D01*
G01*
%TO.C,SW1*%
X261311782Y-116584400D02*
G75*
G02*
X257955532Y-116584400I-1678125J0D01*
G01*
X257955532Y-116584400D02*
G75*
G02*
X261311782Y-116584400I1678125J0D01*
G01*
%TO.C,SW3*%
X275824742Y-113094002D02*
G75*
G02*
X272468492Y-113094002I-1678125J0D01*
G01*
X272468492Y-113094002D02*
G75*
G02*
X275824742Y-113094002I1678125J0D01*
G01*
%TO.C,SW4*%
X257569657Y-102212626D02*
G75*
G02*
X254213407Y-102212626I-1678125J0D01*
G01*
X254213407Y-102212626D02*
G75*
G02*
X257569657Y-102212626I1678125J0D01*
G01*
%TO.C,SW13*%
D13*
X205283657Y-146494400D02*
G75*
G02*
X202883657Y-146494400I-1200000J0D01*
G01*
X202883657Y-146494400D02*
G75*
G02*
X205283657Y-146494400I1200000J0D01*
G01*
%TO.C,SW12*%
X189583657Y-146494400D02*
G75*
G02*
X187183657Y-146494400I-1200000J0D01*
G01*
X187183657Y-146494400D02*
G75*
G02*
X189583657Y-146494400I1200000J0D01*
G01*
%TO.C,SW11*%
X197433657Y-154344400D02*
G75*
G02*
X195033657Y-154344400I-1200000J0D01*
G01*
X195033657Y-154344400D02*
G75*
G02*
X197433657Y-154344400I1200000J0D01*
G01*
%TO.C,SW10*%
X197433657Y-138644400D02*
G75*
G02*
X195033657Y-138644400I-1200000J0D01*
G01*
X195033657Y-138644400D02*
G75*
G02*
X197433657Y-138644400I1200000J0D01*
G01*
D14*
%TO.C,REF\u002A\u002A*%
X206457200Y-97631298D02*
X207411155Y-97631298D01*
X207411155Y-98300667D01*
X205824541Y-98300667D01*
X205824541Y-95747495D01*
X206457200Y-95747495D01*
X206457200Y-97631298D01*
G36*
X206457200Y-97631298D02*
G01*
X207411155Y-97631298D01*
X207411155Y-98300667D01*
X205824541Y-98300667D01*
X205824541Y-95747495D01*
X206457200Y-95747495D01*
X206457200Y-97631298D01*
G37*
X203691066Y-98300667D02*
X203010205Y-98300667D01*
X203010205Y-97332545D01*
X202770549Y-97332545D01*
X202770549Y-98300667D01*
X202085249Y-98300667D01*
X202085249Y-95748015D01*
X202768263Y-95747495D01*
X202768263Y-96670297D01*
X203010205Y-96670297D01*
X203010205Y-95747495D01*
X203691066Y-95747495D01*
X203691066Y-98300667D01*
G36*
X203691066Y-98300667D02*
G01*
X203010205Y-98300667D01*
X203010205Y-97332545D01*
X202770549Y-97332545D01*
X202770549Y-98300667D01*
X202085249Y-98300667D01*
X202085249Y-95748015D01*
X202768263Y-95747495D01*
X202768263Y-96670297D01*
X203010205Y-96670297D01*
X203010205Y-95747495D01*
X203691066Y-95747495D01*
X203691066Y-98300667D01*
G37*
X205541066Y-98300667D02*
X204860205Y-98300667D01*
X204860205Y-97332545D01*
X204620549Y-97332545D01*
X204620549Y-98300667D01*
X203935249Y-98300667D01*
X203935249Y-95748015D01*
X204618263Y-95747495D01*
X204618263Y-96670297D01*
X204860205Y-96670297D01*
X204860205Y-95747495D01*
X205541066Y-95747495D01*
X205541066Y-98300667D01*
G36*
X205541066Y-98300667D02*
G01*
X204860205Y-98300667D01*
X204860205Y-97332545D01*
X204620549Y-97332545D01*
X204620549Y-98300667D01*
X203935249Y-98300667D01*
X203935249Y-95748015D01*
X204618263Y-95747495D01*
X204618263Y-96670297D01*
X204860205Y-96670297D01*
X204860205Y-95747495D01*
X205541066Y-95747495D01*
X205541066Y-98300667D01*
G37*
D15*
%TO.C,U4*%
X227815400Y-117943600D02*
X227435400Y-117943600D01*
X227435400Y-117203600D01*
X227815400Y-117203600D01*
X227815400Y-117943600D01*
G36*
X227815400Y-117943600D02*
G01*
X227435400Y-117943600D01*
X227435400Y-117203600D01*
X227815400Y-117203600D01*
X227815400Y-117943600D01*
G37*
X227815400Y-120743600D02*
X227435400Y-120743600D01*
X227435400Y-120003600D01*
X227815400Y-120003600D01*
X227815400Y-120743600D01*
G36*
X227815400Y-120743600D02*
G01*
X227435400Y-120743600D01*
X227435400Y-120003600D01*
X227815400Y-120003600D01*
X227815400Y-120743600D01*
G37*
X228315400Y-117943600D02*
X227935400Y-117943600D01*
X227935400Y-117203600D01*
X228315400Y-117203600D01*
X228315400Y-117943600D01*
G36*
X228315400Y-117943600D02*
G01*
X227935400Y-117943600D01*
X227935400Y-117203600D01*
X228315400Y-117203600D01*
X228315400Y-117943600D01*
G37*
X228315400Y-120743600D02*
X227935400Y-120743600D01*
X227935400Y-120003600D01*
X228315400Y-120003600D01*
X228315400Y-120743600D01*
G36*
X228315400Y-120743600D02*
G01*
X227935400Y-120743600D01*
X227935400Y-120003600D01*
X228315400Y-120003600D01*
X228315400Y-120743600D01*
G37*
X228815400Y-117943600D02*
X228435400Y-117943600D01*
X228435400Y-117203600D01*
X228815400Y-117203600D01*
X228815400Y-117943600D01*
G36*
X228815400Y-117943600D02*
G01*
X228435400Y-117943600D01*
X228435400Y-117203600D01*
X228815400Y-117203600D01*
X228815400Y-117943600D01*
G37*
X228815400Y-120743600D02*
X228435400Y-120743600D01*
X228435400Y-120003600D01*
X228815400Y-120003600D01*
X228815400Y-120743600D01*
G36*
X228815400Y-120743600D02*
G01*
X228435400Y-120743600D01*
X228435400Y-120003600D01*
X228815400Y-120003600D01*
X228815400Y-120743600D01*
G37*
X229315400Y-117943600D02*
X228935400Y-117943600D01*
X228935400Y-117203600D01*
X229315400Y-117203600D01*
X229315400Y-117943600D01*
G36*
X229315400Y-117943600D02*
G01*
X228935400Y-117943600D01*
X228935400Y-117203600D01*
X229315400Y-117203600D01*
X229315400Y-117943600D01*
G37*
X229315400Y-120743600D02*
X228935400Y-120743600D01*
X228935400Y-120003600D01*
X229315400Y-120003600D01*
X229315400Y-120743600D01*
G36*
X229315400Y-120743600D02*
G01*
X228935400Y-120743600D01*
X228935400Y-120003600D01*
X229315400Y-120003600D01*
X229315400Y-120743600D01*
G37*
X229815400Y-117943600D02*
X229435400Y-117943600D01*
X229435400Y-117203600D01*
X229815400Y-117203600D01*
X229815400Y-117943600D01*
G36*
X229815400Y-117943600D02*
G01*
X229435400Y-117943600D01*
X229435400Y-117203600D01*
X229815400Y-117203600D01*
X229815400Y-117943600D01*
G37*
X229815400Y-120743600D02*
X229435400Y-120743600D01*
X229435400Y-120003600D01*
X229815400Y-120003600D01*
X229815400Y-120743600D01*
G36*
X229815400Y-120743600D02*
G01*
X229435400Y-120743600D01*
X229435400Y-120003600D01*
X229815400Y-120003600D01*
X229815400Y-120743600D01*
G37*
X229895400Y-118528600D02*
X230395400Y-118528600D01*
X230395400Y-118918600D01*
X229895400Y-118918600D01*
X229895400Y-119028600D01*
X230395400Y-119028600D01*
X230395400Y-119418600D01*
X229895400Y-119418600D01*
X229895400Y-119868600D01*
X227355400Y-119868600D01*
X227355400Y-119418600D01*
X226855400Y-119418600D01*
X226855400Y-119028600D01*
X227355400Y-119028600D01*
X227355400Y-118918600D01*
X226855400Y-118918600D01*
X226855400Y-118528600D01*
X227355400Y-118528600D01*
X227355400Y-118078600D01*
X229895400Y-118078600D01*
X229895400Y-118528600D01*
G36*
X229895400Y-118528600D02*
G01*
X230395400Y-118528600D01*
X230395400Y-118918600D01*
X229895400Y-118918600D01*
X229895400Y-119028600D01*
X230395400Y-119028600D01*
X230395400Y-119418600D01*
X229895400Y-119418600D01*
X229895400Y-119868600D01*
X227355400Y-119868600D01*
X227355400Y-119418600D01*
X226855400Y-119418600D01*
X226855400Y-119028600D01*
X227355400Y-119028600D01*
X227355400Y-118918600D01*
X226855400Y-118918600D01*
X226855400Y-118528600D01*
X227355400Y-118528600D01*
X227355400Y-118078600D01*
X229895400Y-118078600D01*
X229895400Y-118528600D01*
G37*
%TD*%
D16*
%TO.C,Q6*%
X269838300Y-138704800D03*
X268888300Y-136829800D03*
X270788300Y-136829800D03*
%TD*%
D17*
%TO.C,L18*%
X195898657Y-143479400D03*
X196568657Y-143479400D03*
X196568657Y-142809400D03*
X195898657Y-142809400D03*
%TD*%
%TO.C,L17*%
X199248657Y-146829400D03*
X199918657Y-146829400D03*
X199918657Y-146159400D03*
X199248657Y-146159400D03*
%TD*%
%TO.C,L16*%
X195898657Y-150179400D03*
X196568657Y-150179400D03*
X196568657Y-149509400D03*
X195898657Y-149509400D03*
%TD*%
%TO.C,L15*%
X192548657Y-146829400D03*
X193218657Y-146829400D03*
X193218657Y-146159400D03*
X192548657Y-146159400D03*
%TD*%
%TO.C,L14*%
X273811617Y-109029002D03*
X274481617Y-109029002D03*
X274481617Y-108359002D03*
X273811617Y-108359002D03*
%TD*%
%TO.C,L9*%
X259298657Y-112519400D03*
X259968657Y-112519400D03*
X259968657Y-111849400D03*
X259298657Y-111849400D03*
%TD*%
%TO.C,L8*%
X251156532Y-102547626D03*
X251826532Y-102547626D03*
X251826532Y-101877626D03*
X251156532Y-101877626D03*
%TD*%
%TO.C,L7*%
X244122313Y-120077540D03*
X244792313Y-120077540D03*
X244792313Y-119407540D03*
X244122313Y-119407540D03*
%TD*%
D18*
%TO.C,J11*%
X214883657Y-90171200D03*
D19*
X222083657Y-90171200D03*
D20*
X221283657Y-89521200D03*
X220883657Y-88821200D03*
X220083657Y-88821200D03*
X219683657Y-89521200D03*
X219283657Y-88821200D03*
X218883657Y-89521200D03*
X218083657Y-89521200D03*
X217683657Y-88821200D03*
X217283657Y-89521200D03*
X216883657Y-88821200D03*
X216083657Y-88821200D03*
X215683657Y-89521200D03*
D21*
X214353657Y-88931200D03*
X222613657Y-88931200D03*
X222973657Y-84531200D03*
X213993657Y-84531200D03*
%TD*%
D22*
%TO.C,C17*%
X217452000Y-104876600D03*
X218412000Y-104876600D03*
%TD*%
D23*
%TO.C,R39*%
X271670702Y-134936789D03*
X270650702Y-134936789D03*
%TD*%
D24*
%TO.C,C4*%
X232714800Y-123251000D03*
X232714800Y-121351000D03*
%TD*%
D25*
%TO.C,R35*%
X268122400Y-128373600D03*
X268122400Y-127353600D03*
%TD*%
D26*
%TO.C,R1*%
X177594800Y-127203200D03*
X178614800Y-127203200D03*
%TD*%
D27*
%TO.C,S7*%
X209600000Y-109500000D03*
X209600000Y-110000000D03*
D28*
X209600000Y-110500000D03*
D27*
X209600000Y-111000000D03*
X209600000Y-111500000D03*
X210434000Y-111500000D03*
X210434000Y-111000000D03*
D28*
X210434000Y-110500000D03*
D27*
X210434000Y-110000000D03*
X210434000Y-109500000D03*
%TD*%
D29*
%TO.C,C26*%
X280385157Y-137847794D03*
X279425157Y-137847794D03*
%TD*%
D23*
%TO.C,R5*%
X231091200Y-102108000D03*
X230071200Y-102108000D03*
%TD*%
D30*
%TO.C,R22*%
X225430000Y-87300000D03*
X225430000Y-88320000D03*
%TD*%
D29*
%TO.C,C27*%
X277644800Y-137922000D03*
X276684800Y-137922000D03*
%TD*%
D31*
%TO.C,U2*%
X216937500Y-97050000D03*
D32*
X216400000Y-96975000D03*
D31*
X215862500Y-97050000D03*
X215862500Y-98750000D03*
D32*
X216400000Y-98825000D03*
D31*
X216937500Y-98750000D03*
%TD*%
D25*
%TO.C,R38*%
X240817400Y-98604800D03*
X240817400Y-97584800D03*
%TD*%
D22*
%TO.C,C33*%
X164490000Y-137170000D03*
X165450000Y-137170000D03*
%TD*%
D33*
%TO.C,J8*%
X253457200Y-131775200D03*
D34*
X255457200Y-131775200D03*
%TD*%
D35*
%TO.C,L5*%
X230767200Y-122783600D03*
X228617200Y-122783600D03*
%TD*%
D36*
%TO.C,U1*%
X208150000Y-115500000D03*
X208150000Y-115000000D03*
X208150000Y-114500000D03*
X208150000Y-114000000D03*
D37*
X207252000Y-113602000D03*
X206752000Y-113602000D03*
X206252000Y-113602000D03*
D36*
X205354000Y-114000000D03*
X205354000Y-114500000D03*
X205354000Y-115000000D03*
X205354000Y-115500000D03*
D37*
X206252000Y-115898000D03*
X206752000Y-115898000D03*
X207252000Y-115898000D03*
%TD*%
D38*
%TO.C,R6*%
X217813900Y-106654600D03*
X218453900Y-106654600D03*
%TD*%
D39*
%TO.C,C15*%
X230606600Y-105689400D03*
X230606600Y-104729400D03*
%TD*%
D40*
%TO.C,D7*%
X166686000Y-135940800D03*
X168086000Y-135940800D03*
%TD*%
D26*
%TO.C,R12*%
X228140800Y-107289600D03*
X229160800Y-107289600D03*
%TD*%
D36*
%TO.C,U10*%
X203487600Y-116777200D03*
X203487600Y-116277200D03*
X203487600Y-115777200D03*
X203487600Y-115277200D03*
D37*
X202589600Y-114879200D03*
X202089600Y-114879200D03*
X201589600Y-114879200D03*
D36*
X200691600Y-115277200D03*
X200691600Y-115777200D03*
X200691600Y-116277200D03*
X200691600Y-116777200D03*
D37*
X201589600Y-117175200D03*
X202089600Y-117175200D03*
X202589600Y-117175200D03*
%TD*%
D26*
%TO.C,R41*%
X279677400Y-135382000D03*
X280697400Y-135382000D03*
%TD*%
D22*
%TO.C,C12*%
X200789600Y-113233200D03*
X201749600Y-113233200D03*
%TD*%
D29*
%TO.C,C16*%
X207496394Y-111761623D03*
X206536394Y-111761623D03*
%TD*%
%TO.C,C11*%
X216126000Y-108550000D03*
X215166000Y-108550000D03*
%TD*%
D41*
%TO.C,Q5*%
X169011600Y-134391400D03*
X169011600Y-132491400D03*
X167136600Y-133441400D03*
%TD*%
D42*
%TO.C,C3*%
X232664000Y-96541600D03*
X232664000Y-99241600D03*
%TD*%
D30*
%TO.C,R21*%
X211140000Y-87280000D03*
X211140000Y-88300000D03*
%TD*%
%TO.C,R34*%
X267106400Y-127353600D03*
X267106400Y-128373600D03*
%TD*%
D23*
%TO.C,R3*%
X230400951Y-116488984D03*
X229380951Y-116488984D03*
%TD*%
D43*
%TO.C,L2*%
X167981589Y-110401408D03*
X168650670Y-110436473D03*
X168685735Y-109767392D03*
X168016654Y-109732327D03*
%TD*%
D30*
%TO.C,R37*%
X239813091Y-97574045D03*
X239813091Y-98594045D03*
%TD*%
D22*
%TO.C,C32*%
X170500000Y-136350000D03*
X171460000Y-136350000D03*
%TD*%
D31*
%TO.C,U5*%
X214635000Y-94550000D03*
D32*
X214097500Y-94475000D03*
D31*
X213560000Y-94550000D03*
X213560000Y-96250000D03*
D32*
X214097500Y-96325000D03*
D31*
X214635000Y-96250000D03*
%TD*%
D44*
%TO.C,SW6*%
X172671539Y-110006388D03*
X172009489Y-122639052D03*
D45*
X177558707Y-112290293D03*
X177108617Y-120878507D03*
D44*
X182657835Y-110529748D03*
X181995785Y-123162412D03*
D46*
X171861497Y-113043156D03*
X171521313Y-119534248D03*
X167367664Y-112807644D03*
X167027480Y-119298736D03*
D47*
X174381765Y-125141637D03*
X176878339Y-125272477D03*
X179374913Y-125403317D03*
X185890899Y-119536297D03*
X186021739Y-117039723D03*
X186152579Y-114543149D03*
%TD*%
D29*
%TO.C,C8*%
X218818400Y-103149400D03*
X217858400Y-103149400D03*
%TD*%
D43*
%TO.C,L1*%
X185981589Y-110401408D03*
X186650670Y-110436473D03*
X186685735Y-109767392D03*
X186016654Y-109732327D03*
%TD*%
D17*
%TO.C,L12*%
X259298657Y-121319400D03*
X259968657Y-121319400D03*
X259968657Y-120649400D03*
X259298657Y-120649400D03*
%TD*%
D40*
%TO.C,D14*%
X279165200Y-136626257D03*
X280565200Y-136626257D03*
%TD*%
D23*
%TO.C,R25*%
X222600478Y-99819463D03*
X221580478Y-99819463D03*
%TD*%
D48*
%TO.C,C5*%
X227914200Y-101094600D03*
X227914200Y-102054600D03*
%TD*%
D25*
%TO.C,R36*%
X189204600Y-98477800D03*
X189204600Y-97457800D03*
%TD*%
D49*
%TO.C,C23*%
X226720400Y-122087600D03*
X226720400Y-123987600D03*
%TD*%
D26*
%TO.C,R11*%
X191107600Y-108356400D03*
X192127600Y-108356400D03*
%TD*%
D30*
%TO.C,R4*%
X190233710Y-97459816D03*
X190233710Y-98479816D03*
%TD*%
D50*
%TO.C,SW7*%
X163618112Y-100644336D03*
X170546316Y-96644336D03*
D51*
X166643465Y-101784400D03*
X170020963Y-99834400D03*
%TD*%
D23*
%TO.C,R33*%
X164136800Y-134594600D03*
X163116800Y-134594600D03*
%TD*%
D52*
%TO.C,D6*%
X165354000Y-134583400D03*
X165354000Y-133183400D03*
%TD*%
D53*
%TO.C,SW8*%
X266420998Y-96644336D03*
X273349202Y-100644336D03*
D54*
X266946351Y-99834400D03*
X270323849Y-101784400D03*
%TD*%
D55*
%TO.C,D16*%
X276098722Y-139152065D03*
X274698722Y-139152065D03*
%TD*%
D56*
%TO.C,SW17*%
X215921157Y-115516400D03*
X215921157Y-121516400D03*
X212171157Y-115516400D03*
X212171157Y-121516400D03*
%TD*%
D29*
%TO.C,C6*%
X218818400Y-102158800D03*
X217858400Y-102158800D03*
%TD*%
D22*
%TO.C,C13*%
X197233600Y-116840000D03*
X198193600Y-116840000D03*
%TD*%
D26*
%TO.C,R23*%
X223536064Y-99820075D03*
X224556064Y-99820075D03*
%TD*%
D30*
%TO.C,R28*%
X221527956Y-94574509D03*
X221527956Y-95594509D03*
%TD*%
D25*
%TO.C,R10*%
X215595200Y-112244600D03*
X215595200Y-111224600D03*
%TD*%
D57*
%TO.C,X3*%
X261035800Y-109601000D03*
%TD*%
D58*
%TO.C,D13*%
X211038400Y-137080900D03*
X211038400Y-137730900D03*
X211038400Y-138380900D03*
X212938400Y-138380900D03*
X212938400Y-137730900D03*
X212938400Y-137080900D03*
%TD*%
D59*
%TO.C,U8*%
X220884800Y-110845600D03*
X221284800Y-110845600D03*
X221684800Y-110845600D03*
X222084800Y-110845600D03*
X222484800Y-110845600D03*
X222884800Y-110845600D03*
X223284800Y-110845600D03*
X223684800Y-110845600D03*
X224084800Y-110845600D03*
X224484800Y-110845600D03*
X224884800Y-110845600D03*
X225284800Y-110845600D03*
X225684800Y-110845600D03*
X226084800Y-110845600D03*
D60*
X226922300Y-110008100D03*
X226922300Y-109608100D03*
X226922300Y-109208100D03*
X226922300Y-108808100D03*
X226922300Y-108408100D03*
X226922300Y-108008100D03*
X226922300Y-107608100D03*
X226922300Y-107208100D03*
X226922300Y-106808100D03*
X226922300Y-106408100D03*
X226922300Y-106008100D03*
X226922300Y-105608100D03*
X226922300Y-105208100D03*
X226922300Y-104808100D03*
D59*
X226084800Y-103970600D03*
X225684800Y-103970600D03*
X225284800Y-103970600D03*
X224884800Y-103970600D03*
X224484800Y-103970600D03*
X224084800Y-103970600D03*
X223684800Y-103970600D03*
X223284800Y-103970600D03*
X222884800Y-103970600D03*
X222484800Y-103970600D03*
X222084800Y-103970600D03*
X221684800Y-103970600D03*
X221284800Y-103970600D03*
X220884800Y-103970600D03*
D60*
X220047300Y-104808100D03*
X220047300Y-105208100D03*
X220047300Y-105608100D03*
X220047300Y-106008100D03*
X220047300Y-106408100D03*
X220047300Y-106808100D03*
X220047300Y-107208100D03*
X220047300Y-107608100D03*
X220047300Y-108008100D03*
X220047300Y-108408100D03*
X220047300Y-108808100D03*
X220047300Y-109208100D03*
X220047300Y-109608100D03*
X220047300Y-110008100D03*
D61*
X223484800Y-107408100D03*
%TD*%
D17*
%TO.C,L13*%
X273811617Y-117829002D03*
X274481617Y-117829002D03*
X274481617Y-117159002D03*
X273811617Y-117159002D03*
%TD*%
D57*
%TO.C,X2*%
X255422400Y-111302800D03*
%TD*%
D38*
%TO.C,R7*%
X217815261Y-105750000D03*
X218455261Y-105750000D03*
%TD*%
D26*
%TO.C,R26*%
X222793180Y-95558282D03*
X223813180Y-95558282D03*
%TD*%
D57*
%TO.C,X5*%
X238302800Y-121996200D03*
%TD*%
D30*
%TO.C,R40*%
X269671800Y-133983000D03*
X269671800Y-135003000D03*
%TD*%
D43*
%TO.C,L4*%
X185981589Y-123401408D03*
X186650670Y-123436473D03*
X186685735Y-122767392D03*
X186016654Y-122732327D03*
%TD*%
D55*
%TO.C,D3*%
X165393600Y-135940800D03*
X163993600Y-135940800D03*
%TD*%
D62*
%TO.C,D8*%
X184414400Y-132842000D03*
X185064400Y-132842000D03*
X185714400Y-132842000D03*
X185714400Y-130942000D03*
X185064400Y-130942000D03*
X184414400Y-130942000D03*
%TD*%
D48*
%TO.C,C10*%
X219811600Y-101424800D03*
X219811600Y-102384800D03*
%TD*%
D33*
%TO.C,J9*%
X173955200Y-136347200D03*
D34*
X175955200Y-136347200D03*
%TD*%
D23*
%TO.C,R24*%
X220675642Y-99815351D03*
X219655642Y-99815351D03*
%TD*%
D63*
%TO.C,D5*%
X240527800Y-106745800D03*
X240527800Y-106095800D03*
X240527800Y-105445800D03*
X238627800Y-105445800D03*
X238627800Y-106095800D03*
X238627800Y-106745800D03*
%TD*%
D64*
%TO.C,SW5*%
X221483657Y-138353800D03*
X215483657Y-138353800D03*
X221483657Y-134603800D03*
X215483657Y-134603800D03*
%TD*%
D25*
%TO.C,R2*%
X188112400Y-116283200D03*
X188112400Y-115263200D03*
%TD*%
D55*
%TO.C,D15*%
X278678790Y-139140649D03*
X277278790Y-139140649D03*
%TD*%
D65*
%TO.C,Y1*%
X234479200Y-108008600D03*
X234479200Y-105808600D03*
X232779200Y-105808600D03*
X232779200Y-108008600D03*
%TD*%
D58*
%TO.C,D12*%
X211038400Y-134221000D03*
X211038400Y-134871000D03*
X211038400Y-135521000D03*
X212938400Y-135521000D03*
X212938400Y-134871000D03*
X212938400Y-134221000D03*
%TD*%
D66*
%TO.C,C1*%
X176734300Y-128473200D03*
X178459300Y-128473200D03*
%TD*%
D57*
%TO.C,X4*%
X249351800Y-106248200D03*
%TD*%
D56*
%TO.C,SW18*%
X221046157Y-130391400D03*
X221046157Y-124391400D03*
X224796157Y-130391400D03*
X224796157Y-124391400D03*
%TD*%
D39*
%TO.C,C7*%
X220802200Y-102384800D03*
X220802200Y-101424800D03*
%TD*%
D17*
%TO.C,L10*%
X244122313Y-128877540D03*
X244792313Y-128877540D03*
X244792313Y-128207540D03*
X244122313Y-128207540D03*
%TD*%
D30*
%TO.C,R27*%
X219949740Y-94584022D03*
X219949740Y-95604022D03*
%TD*%
D22*
%TO.C,C25*%
X270657870Y-133937869D03*
X271617870Y-133937869D03*
%TD*%
D67*
%TO.C,D10*%
X226212400Y-96844800D03*
X226212400Y-99344800D03*
%TD*%
D68*
%TO.C,U3*%
X211275000Y-96250000D03*
D69*
X211812500Y-96325000D03*
D68*
X212350000Y-96250000D03*
X212350000Y-94550000D03*
D69*
X211812500Y-94475000D03*
D68*
X211275000Y-94550000D03*
%TD*%
D57*
%TO.C,TP5*%
X184658000Y-97891600D03*
%TD*%
D70*
%TO.C,C2*%
X189382400Y-117296100D03*
X189382400Y-115571100D03*
%TD*%
D22*
%TO.C,C34*%
X166680000Y-137170000D03*
X167640000Y-137170000D03*
%TD*%
D56*
%TO.C,SW19*%
X215921157Y-124391400D03*
X215921157Y-130391400D03*
X212171157Y-124391400D03*
X212171157Y-130391400D03*
%TD*%
D62*
%TO.C,D11*%
X187310000Y-131455200D03*
X187960000Y-131455200D03*
X188610000Y-131455200D03*
X188610000Y-129555200D03*
X187960000Y-129555200D03*
X187310000Y-129555200D03*
%TD*%
D22*
%TO.C,C24*%
X228265523Y-115499577D03*
X229225523Y-115499577D03*
%TD*%
D48*
%TO.C,C14*%
X230581200Y-107266800D03*
X230581200Y-108226800D03*
%TD*%
D17*
%TO.C,L11*%
X259956532Y-102547626D03*
X260626532Y-102547626D03*
X260626532Y-101877626D03*
X259956532Y-101877626D03*
%TD*%
D71*
%TO.C,J2*%
X229157400Y-128834200D03*
X229157400Y-128334200D03*
X229157400Y-127834200D03*
X229157400Y-127334200D03*
X229157400Y-126834200D03*
X229157400Y-126334200D03*
D72*
X231807400Y-129624200D03*
X231807400Y-125544200D03*
%TD*%
D22*
%TO.C,C9*%
X216236499Y-107556162D03*
X217196499Y-107556162D03*
%TD*%
D23*
%TO.C,R31*%
X171510000Y-137340000D03*
X170490000Y-137340000D03*
%TD*%
D25*
%TO.C,R32*%
X170535600Y-135409400D03*
X170535600Y-134389400D03*
%TD*%
D57*
%TO.C,X1*%
X256108200Y-126263400D03*
%TD*%
D62*
%TO.C,Q4*%
X220228400Y-98638400D03*
X220878400Y-98638400D03*
X221528400Y-98638400D03*
X221528400Y-96738400D03*
X220878400Y-96738400D03*
X220228400Y-96738400D03*
%TD*%
D56*
%TO.C,SW9*%
X221046157Y-121516400D03*
X221046157Y-115516400D03*
X224796157Y-121516400D03*
X224796157Y-115516400D03*
%TD*%
D43*
%TO.C,L3*%
X167981589Y-123401408D03*
X168650670Y-123436473D03*
X168685735Y-122767392D03*
X168016654Y-122732327D03*
%TD*%
D73*
%TO.C,D9*%
X230581200Y-98836800D03*
X230581200Y-96336800D03*
%TD*%
D62*
%TO.C,Q3*%
X223124000Y-98638400D03*
X223774000Y-98638400D03*
X224424000Y-98638400D03*
X224424000Y-96738400D03*
X223774000Y-96738400D03*
X223124000Y-96738400D03*
%TD*%
D63*
%TO.C,D4*%
X239710000Y-109605600D03*
X239710000Y-108955600D03*
X239710000Y-108305600D03*
X237810000Y-108305600D03*
X237810000Y-108955600D03*
X237810000Y-109605600D03*
%TD*%
D17*
%TO.C,L6*%
X218148657Y-142898600D03*
X218818657Y-142898600D03*
X218818657Y-142228600D03*
X218148657Y-142228600D03*
%TD*%
D57*
%TO.C,X6*%
X247421400Y-117881400D03*
%TD*%
D74*
%TO.C,U9*%
X216939993Y-111424008D03*
X217439993Y-111424008D03*
X217939993Y-111424008D03*
X218439993Y-111424008D03*
X218439993Y-109024008D03*
X217939993Y-109024008D03*
X217439993Y-109024008D03*
X216939993Y-109024008D03*
D75*
X217689993Y-110224008D03*
%TD*%
D76*
%TO.C,S6*%
X245983657Y-101434400D03*
%TD*%
%TO.C,S4*%
X243483657Y-101434400D03*
%TD*%
%TO.C,S3*%
X195983657Y-101434400D03*
%TD*%
D77*
%TO.C,J7*%
X279501600Y-127635000D03*
D78*
X279501600Y-125635000D03*
%TD*%
D76*
%TO.C,S5*%
X240983657Y-101434400D03*
%TD*%
D79*
%TO.C,RV2*%
X247833657Y-112934400D03*
X239133657Y-112934400D03*
%TD*%
D77*
%TO.C,J6*%
X158623000Y-127635000D03*
D78*
X158623000Y-125635000D03*
%TD*%
D79*
%TO.C,RV1*%
X197833657Y-112934400D03*
X189133657Y-112934400D03*
%TD*%
D76*
%TO.C,S1*%
X193483657Y-101434400D03*
%TD*%
%TO.C,S2*%
X190983657Y-101434400D03*
%TD*%
M02*
