%TF.GenerationSoftware,KiCad,Pcbnew,9.0.6-rc2*%
%TF.CreationDate,2025-12-11T22:21:32-08:00*%
%TF.ProjectId,UGC_Main_S1,5547435f-4d61-4696-9e5f-53312e6b6963,rev?*%
%TF.SameCoordinates,Original*%
%TF.FileFunction,Legend,Bot*%
%TF.FilePolarity,Positive*%
%FSLAX46Y46*%
G04 Gerber Fmt 4.6, Leading zero omitted, Abs format (unit mm)*
G04 Created by KiCad (PCBNEW 9.0.6-rc2) date 2025-12-11 22:21:32*
%MOMM*%
%LPD*%
G01*
G04 APERTURE LIST*
%ADD10C,0.120000*%
%ADD11C,0.100000*%
%ADD12C,0.200000*%
%ADD13C,0.127000*%
%ADD14C,0.152400*%
G04 APERTURE END LIST*
D10*
X237850033Y-111226193D02*
X236897653Y-111226193D01*
X237373843Y-111702383D02*
X237373843Y-110750002D01*
D11*
X191836666Y-99576109D02*
X191836666Y-99933252D01*
X191836666Y-99933252D02*
X191860475Y-100004680D01*
X191860475Y-100004680D02*
X191908094Y-100052300D01*
X191908094Y-100052300D02*
X191979523Y-100076109D01*
X191979523Y-100076109D02*
X192027142Y-100076109D01*
X191384285Y-99576109D02*
X191479523Y-99576109D01*
X191479523Y-99576109D02*
X191527142Y-99599919D01*
X191527142Y-99599919D02*
X191550952Y-99623728D01*
X191550952Y-99623728D02*
X191598571Y-99695157D01*
X191598571Y-99695157D02*
X191622380Y-99790395D01*
X191622380Y-99790395D02*
X191622380Y-99980871D01*
X191622380Y-99980871D02*
X191598571Y-100028490D01*
X191598571Y-100028490D02*
X191574761Y-100052300D01*
X191574761Y-100052300D02*
X191527142Y-100076109D01*
X191527142Y-100076109D02*
X191431904Y-100076109D01*
X191431904Y-100076109D02*
X191384285Y-100052300D01*
X191384285Y-100052300D02*
X191360476Y-100028490D01*
X191360476Y-100028490D02*
X191336666Y-99980871D01*
X191336666Y-99980871D02*
X191336666Y-99861823D01*
X191336666Y-99861823D02*
X191360476Y-99814204D01*
X191360476Y-99814204D02*
X191384285Y-99790395D01*
X191384285Y-99790395D02*
X191431904Y-99766585D01*
X191431904Y-99766585D02*
X191527142Y-99766585D01*
X191527142Y-99766585D02*
X191574761Y-99790395D01*
X191574761Y-99790395D02*
X191598571Y-99814204D01*
X191598571Y-99814204D02*
X191622380Y-99861823D01*
X241816666Y-99566109D02*
X241816666Y-99923252D01*
X241816666Y-99923252D02*
X241840475Y-99994680D01*
X241840475Y-99994680D02*
X241888094Y-100042300D01*
X241888094Y-100042300D02*
X241959523Y-100066109D01*
X241959523Y-100066109D02*
X242007142Y-100066109D01*
X241554761Y-100066109D02*
X241459523Y-100066109D01*
X241459523Y-100066109D02*
X241411904Y-100042300D01*
X241411904Y-100042300D02*
X241388095Y-100018490D01*
X241388095Y-100018490D02*
X241340476Y-99947061D01*
X241340476Y-99947061D02*
X241316666Y-99851823D01*
X241316666Y-99851823D02*
X241316666Y-99661347D01*
X241316666Y-99661347D02*
X241340476Y-99613728D01*
X241340476Y-99613728D02*
X241364285Y-99589919D01*
X241364285Y-99589919D02*
X241411904Y-99566109D01*
X241411904Y-99566109D02*
X241507142Y-99566109D01*
X241507142Y-99566109D02*
X241554761Y-99589919D01*
X241554761Y-99589919D02*
X241578571Y-99613728D01*
X241578571Y-99613728D02*
X241602380Y-99661347D01*
X241602380Y-99661347D02*
X241602380Y-99780395D01*
X241602380Y-99780395D02*
X241578571Y-99828014D01*
X241578571Y-99828014D02*
X241554761Y-99851823D01*
X241554761Y-99851823D02*
X241507142Y-99875633D01*
X241507142Y-99875633D02*
X241411904Y-99875633D01*
X241411904Y-99875633D02*
X241364285Y-99851823D01*
X241364285Y-99851823D02*
X241340476Y-99828014D01*
X241340476Y-99828014D02*
X241316666Y-99780395D01*
X164562551Y-136818509D02*
X164276837Y-136818509D01*
X164419694Y-137318509D02*
X164419694Y-136818509D01*
X164110171Y-137318509D02*
X164110171Y-136818509D01*
X164110171Y-136818509D02*
X163919695Y-136818509D01*
X163919695Y-136818509D02*
X163872076Y-136842319D01*
X163872076Y-136842319D02*
X163848266Y-136866128D01*
X163848266Y-136866128D02*
X163824457Y-136913747D01*
X163824457Y-136913747D02*
X163824457Y-136985176D01*
X163824457Y-136985176D02*
X163848266Y-137032795D01*
X163848266Y-137032795D02*
X163872076Y-137056604D01*
X163872076Y-137056604D02*
X163919695Y-137080414D01*
X163919695Y-137080414D02*
X164110171Y-137080414D01*
X163657790Y-136818509D02*
X163348266Y-136818509D01*
X163348266Y-136818509D02*
X163514933Y-137008985D01*
X163514933Y-137008985D02*
X163443504Y-137008985D01*
X163443504Y-137008985D02*
X163395885Y-137032795D01*
X163395885Y-137032795D02*
X163372076Y-137056604D01*
X163372076Y-137056604D02*
X163348266Y-137104223D01*
X163348266Y-137104223D02*
X163348266Y-137223271D01*
X163348266Y-137223271D02*
X163372076Y-137270890D01*
X163372076Y-137270890D02*
X163395885Y-137294700D01*
X163395885Y-137294700D02*
X163443504Y-137318509D01*
X163443504Y-137318509D02*
X163586361Y-137318509D01*
X163586361Y-137318509D02*
X163633980Y-137294700D01*
X163633980Y-137294700D02*
X163657790Y-137270890D01*
X160770866Y-137546509D02*
X160770866Y-137903652D01*
X160770866Y-137903652D02*
X160794675Y-137975080D01*
X160794675Y-137975080D02*
X160842294Y-138022700D01*
X160842294Y-138022700D02*
X160913723Y-138046509D01*
X160913723Y-138046509D02*
X160961342Y-138046509D01*
X160294676Y-137546509D02*
X160532771Y-137546509D01*
X160532771Y-137546509D02*
X160556580Y-137784604D01*
X160556580Y-137784604D02*
X160532771Y-137760795D01*
X160532771Y-137760795D02*
X160485152Y-137736985D01*
X160485152Y-137736985D02*
X160366104Y-137736985D01*
X160366104Y-137736985D02*
X160318485Y-137760795D01*
X160318485Y-137760795D02*
X160294676Y-137784604D01*
X160294676Y-137784604D02*
X160270866Y-137832223D01*
X160270866Y-137832223D02*
X160270866Y-137951271D01*
X160270866Y-137951271D02*
X160294676Y-137998890D01*
X160294676Y-137998890D02*
X160318485Y-138022700D01*
X160318485Y-138022700D02*
X160366104Y-138046509D01*
X160366104Y-138046509D02*
X160485152Y-138046509D01*
X160485152Y-138046509D02*
X160532771Y-138022700D01*
X160532771Y-138022700D02*
X160556580Y-137998890D01*
X223349323Y-92512309D02*
X223349323Y-92869452D01*
X223349323Y-92869452D02*
X223373132Y-92940880D01*
X223373132Y-92940880D02*
X223420751Y-92988500D01*
X223420751Y-92988500D02*
X223492180Y-93012309D01*
X223492180Y-93012309D02*
X223539799Y-93012309D01*
X222849323Y-93012309D02*
X223135037Y-93012309D01*
X222992180Y-93012309D02*
X222992180Y-92512309D01*
X222992180Y-92512309D02*
X223039799Y-92583738D01*
X223039799Y-92583738D02*
X223087418Y-92631357D01*
X223087418Y-92631357D02*
X223135037Y-92655166D01*
X270724226Y-130338388D02*
X270686894Y-130693574D01*
X270686894Y-130693574D02*
X270703107Y-130767100D01*
X270703107Y-130767100D02*
X270745488Y-130819436D01*
X270745488Y-130819436D02*
X270814036Y-130850581D01*
X270814036Y-130850581D02*
X270861395Y-130855559D01*
X270506137Y-130363347D02*
X270484947Y-130337179D01*
X270484947Y-130337179D02*
X270440077Y-130308523D01*
X270440077Y-130308523D02*
X270321682Y-130296079D01*
X270321682Y-130296079D02*
X270271835Y-130314780D01*
X270271835Y-130314780D02*
X270245667Y-130335971D01*
X270245667Y-130335971D02*
X270217010Y-130380840D01*
X270217010Y-130380840D02*
X270212033Y-130428198D01*
X270212033Y-130428198D02*
X270228246Y-130501724D01*
X270228246Y-130501724D02*
X270482529Y-130815739D01*
X270482529Y-130815739D02*
X270174701Y-130783385D01*
X168626551Y-136793109D02*
X168340837Y-136793109D01*
X168483694Y-137293109D02*
X168483694Y-136793109D01*
X168174171Y-137293109D02*
X168174171Y-136793109D01*
X168174171Y-136793109D02*
X167983695Y-136793109D01*
X167983695Y-136793109D02*
X167936076Y-136816919D01*
X167936076Y-136816919D02*
X167912266Y-136840728D01*
X167912266Y-136840728D02*
X167888457Y-136888347D01*
X167888457Y-136888347D02*
X167888457Y-136959776D01*
X167888457Y-136959776D02*
X167912266Y-137007395D01*
X167912266Y-137007395D02*
X167936076Y-137031204D01*
X167936076Y-137031204D02*
X167983695Y-137055014D01*
X167983695Y-137055014D02*
X168174171Y-137055014D01*
X167412266Y-137293109D02*
X167697980Y-137293109D01*
X167555123Y-137293109D02*
X167555123Y-136793109D01*
X167555123Y-136793109D02*
X167602742Y-136864538D01*
X167602742Y-136864538D02*
X167650361Y-136912157D01*
X167650361Y-136912157D02*
X167697980Y-136935966D01*
X277229866Y-138384709D02*
X277229866Y-138741852D01*
X277229866Y-138741852D02*
X277253675Y-138813280D01*
X277253675Y-138813280D02*
X277301294Y-138860900D01*
X277301294Y-138860900D02*
X277372723Y-138884709D01*
X277372723Y-138884709D02*
X277420342Y-138884709D01*
X276777485Y-138551376D02*
X276777485Y-138884709D01*
X276896533Y-138360900D02*
X277015580Y-138718042D01*
X277015580Y-138718042D02*
X276706057Y-138718042D01*
%TO.C,J6*%
X196913657Y-100359400D02*
X196913657Y-100359400D01*
X196913657Y-100359400D02*
X196913657Y-100359400D01*
X196913657Y-100359400D02*
X196913657Y-101634400D01*
X196913657Y-100359400D02*
X195063657Y-100359400D01*
X196913657Y-101634400D02*
X196913657Y-100359400D01*
X196913657Y-101634400D02*
X196913657Y-101634400D01*
X196913657Y-104134400D02*
X196913657Y-104134400D01*
X196913657Y-104134400D02*
X196913657Y-104384400D01*
X196913657Y-104384400D02*
X196913657Y-104134400D01*
X196913657Y-104384400D02*
X196913657Y-104384400D01*
X196913657Y-104409400D02*
X196913657Y-104409400D01*
X196913657Y-104409400D02*
X190213657Y-104409400D01*
X195063657Y-100359400D02*
X196913657Y-100359400D01*
X195063657Y-100359400D02*
X195063657Y-100359400D01*
D12*
X194363656Y-98984400D02*
X194363656Y-98984400D01*
X194363657Y-99084400D02*
X194363657Y-99084400D01*
X194363657Y-99084400D02*
X194363657Y-99084400D01*
D11*
X192063657Y-100359400D02*
X192063657Y-100359400D01*
X192063657Y-100359400D02*
X190213657Y-100359400D01*
X190213657Y-100359400D02*
X192063657Y-100359400D01*
X190213657Y-100359400D02*
X190213657Y-100359400D01*
X190213657Y-100359400D02*
X190213657Y-100359400D01*
X190213657Y-100359400D02*
X190213657Y-101634400D01*
X190213657Y-101634400D02*
X190213657Y-100359400D01*
X190213657Y-101634400D02*
X190213657Y-101634400D01*
X190213657Y-104134400D02*
X190213657Y-104134400D01*
X190213657Y-104134400D02*
X190213657Y-104409400D01*
X190213657Y-104409400D02*
X196913657Y-104409400D01*
X190213657Y-104409400D02*
X190213657Y-104134400D01*
X190213657Y-104409400D02*
X190213657Y-104409400D01*
X190213657Y-104409400D02*
X190213657Y-104409400D01*
D12*
X194363657Y-99084400D02*
G75*
G02*
X194363656Y-98984400I0J50000D01*
G01*
X194363657Y-99084400D02*
G75*
G02*
X194363656Y-98984400I0J50000D01*
G01*
X194363656Y-98984400D02*
G75*
G02*
X194363657Y-99084400I1J-50000D01*
G01*
D11*
%TO.C,J9*%
X246753657Y-100359400D02*
X246753657Y-100359400D01*
X246753657Y-100359400D02*
X246753657Y-100359400D01*
X246753657Y-100359400D02*
X246753657Y-101634400D01*
X246753657Y-100359400D02*
X244903657Y-100359400D01*
X246753657Y-101634400D02*
X246753657Y-100359400D01*
X246753657Y-101634400D02*
X246753657Y-101634400D01*
X246753657Y-104134400D02*
X246753657Y-104134400D01*
X246753657Y-104134400D02*
X246753657Y-104384400D01*
X246753657Y-104384400D02*
X246753657Y-104134400D01*
X246753657Y-104384400D02*
X246753657Y-104384400D01*
X246753657Y-104409400D02*
X246753657Y-104409400D01*
X246753657Y-104409400D02*
X240053657Y-104409400D01*
X244903657Y-100359400D02*
X246753657Y-100359400D01*
X244903657Y-100359400D02*
X244903657Y-100359400D01*
D12*
X244203656Y-98984400D02*
X244203656Y-98984400D01*
X244203657Y-99084400D02*
X244203657Y-99084400D01*
X244203657Y-99084400D02*
X244203657Y-99084400D01*
D11*
X241903657Y-100359400D02*
X241903657Y-100359400D01*
X241903657Y-100359400D02*
X240053657Y-100359400D01*
X240053657Y-100359400D02*
X241903657Y-100359400D01*
X240053657Y-100359400D02*
X240053657Y-100359400D01*
X240053657Y-100359400D02*
X240053657Y-100359400D01*
X240053657Y-100359400D02*
X240053657Y-101634400D01*
X240053657Y-101634400D02*
X240053657Y-100359400D01*
X240053657Y-101634400D02*
X240053657Y-101634400D01*
X240053657Y-104134400D02*
X240053657Y-104134400D01*
X240053657Y-104134400D02*
X240053657Y-104409400D01*
X240053657Y-104409400D02*
X246753657Y-104409400D01*
X240053657Y-104409400D02*
X240053657Y-104134400D01*
X240053657Y-104409400D02*
X240053657Y-104409400D01*
X240053657Y-104409400D02*
X240053657Y-104409400D01*
D12*
X244203657Y-99084400D02*
G75*
G02*
X244203656Y-98984400I0J50000D01*
G01*
X244203657Y-99084400D02*
G75*
G02*
X244203656Y-98984400I0J50000D01*
G01*
X244203656Y-98984400D02*
G75*
G02*
X244203657Y-99084400I1J-50000D01*
G01*
D13*
%TO.C,SW17*%
X215933657Y-134304400D02*
X215933657Y-136664400D01*
X220733657Y-132934400D02*
X216233657Y-132934400D01*
X220733657Y-138034400D02*
X216233657Y-138034400D01*
X221033657Y-136664400D02*
X221033657Y-134304400D01*
D12*
X222833657Y-133609400D02*
G75*
G02*
X222633657Y-133609400I-100000J0D01*
G01*
X222633657Y-133609400D02*
G75*
G02*
X222833657Y-133609400I100000J0D01*
G01*
D10*
%TO.C,TP3*%
X162731600Y-137890400D02*
X165131600Y-137890400D01*
X162731600Y-140290400D02*
X162731600Y-137890400D01*
X165131600Y-137890400D02*
X165131600Y-140290400D01*
X165131600Y-140290400D02*
X162731600Y-140290400D01*
D13*
%TO.C,J5*%
X164063600Y-139614800D02*
X164863600Y-139614800D01*
X164063600Y-140351800D02*
X164063600Y-139614800D01*
X164863600Y-139614800D02*
X164863600Y-139314800D01*
X165000600Y-139314800D02*
X164863600Y-139314800D01*
X165177600Y-142014800D02*
X166749600Y-142014800D01*
X166926600Y-139314800D02*
X167063600Y-139314800D01*
X167063600Y-139314800D02*
X167063600Y-139614800D01*
X167063600Y-139614800D02*
X167863600Y-139614800D01*
X167863600Y-140351800D02*
X167863600Y-139614800D01*
D12*
X167188600Y-138839800D02*
G75*
G02*
X166988600Y-138839800I-100000J0D01*
G01*
X166988600Y-138839800D02*
G75*
G02*
X167188600Y-138839800I100000J0D01*
G01*
%TO.C,J1*%
X213558657Y-82001200D02*
X223408657Y-82001200D01*
X213558657Y-83336200D02*
X213558657Y-82001200D01*
X213558657Y-88136200D02*
X213558657Y-85736200D01*
X213558657Y-89936200D02*
X213558657Y-91871200D01*
X213558657Y-91871200D02*
X223408657Y-91871200D01*
D11*
X215683657Y-92336200D02*
X215683657Y-92336200D01*
X215683657Y-92436200D02*
X215683657Y-92436200D01*
D12*
X223408657Y-82001200D02*
X223408657Y-83336200D01*
X223408657Y-85736200D02*
X223408657Y-88136200D01*
X223408657Y-91871200D02*
X223408657Y-89936200D01*
D11*
X215683657Y-92336200D02*
G75*
G02*
X215683657Y-92436200I0J-50000D01*
G01*
X215683657Y-92436200D02*
G75*
G02*
X215683657Y-92336200I0J50000D01*
G01*
D14*
%TO.C,J2*%
X265113748Y-139073677D02*
X265263220Y-137651549D01*
X265466013Y-135722098D02*
X265667749Y-133802711D01*
X265667749Y-133802711D02*
X268183843Y-134067163D01*
X271299955Y-132297189D02*
X271825275Y-133373999D01*
X272102336Y-134479013D02*
X274618428Y-134743465D01*
X272689302Y-132443215D02*
X271299955Y-132297189D01*
X272689302Y-132443215D02*
X271825275Y-133373999D01*
X274064427Y-140014431D02*
X265113748Y-139073677D01*
X274213899Y-138592304D02*
X274064427Y-140014431D01*
X274618428Y-134743465D02*
X274416692Y-136662853D01*
D10*
%TO.C,TP2*%
X275355200Y-137890400D02*
X277755200Y-137890400D01*
X275355200Y-140290400D02*
X275355200Y-137890400D01*
X277755200Y-137890400D02*
X277755200Y-140290400D01*
X277755200Y-140290400D02*
X275355200Y-140290400D01*
%TO.C,TP1*%
X166795600Y-137865000D02*
X169195600Y-137865000D01*
X166795600Y-140265000D02*
X166795600Y-137865000D01*
X169195600Y-137865000D02*
X169195600Y-140265000D01*
X169195600Y-140265000D02*
X166795600Y-140265000D01*
%TO.C,TP4*%
X278999742Y-137896669D02*
X281399742Y-137896669D01*
X278999742Y-140296669D02*
X278999742Y-137896669D01*
X281399742Y-137896669D02*
X281399742Y-140296669D01*
X281399742Y-140296669D02*
X278999742Y-140296669D01*
D13*
%TO.C,J4*%
X276484000Y-139614800D02*
X277284000Y-139614800D01*
X276484000Y-140351800D02*
X276484000Y-139614800D01*
X277284000Y-139614800D02*
X277284000Y-139314800D01*
X277421000Y-139314800D02*
X277284000Y-139314800D01*
X277598000Y-142014800D02*
X279170000Y-142014800D01*
X279347000Y-139314800D02*
X279484000Y-139314800D01*
X279484000Y-139314800D02*
X279484000Y-139614800D01*
X279484000Y-139614800D02*
X280284000Y-139614800D01*
X280284000Y-140351800D02*
X280284000Y-139614800D01*
D12*
X279609000Y-138839800D02*
G75*
G02*
X279409000Y-138839800I-100000J0D01*
G01*
X279409000Y-138839800D02*
G75*
G02*
X279609000Y-138839800I100000J0D01*
G01*
%TD*%
M02*
