M48
; DRILL file {KiCad 8.0.2} date 2024-10-29T10:05:39-0700
; FORMAT={-:-/ absolute / inch / decimal}
; #@! TF.CreationDate,2024-10-29T10:05:39-07:00
; #@! TF.GenerationSoftware,Kicad,Pcbnew,8.0.2
; #@! TF.FileFunction,Plated,1,4,PTH
FMAT,2
INCH
; #@! TA.AperFunction,Plated,PTH,ViaDrill
T1C0.0118
; #@! TA.AperFunction,Plated,PTH,ComponentDrill
T2C0.0157
; #@! TA.AperFunction,Plated,PTH,ComponentDrill
T3C0.0197
; #@! TA.AperFunction,Plated,PTH,ComponentDrill
T4C0.0236
; #@! TA.AperFunction,Plated,PTH,ComponentDrill
T5C0.0295
; #@! TA.AperFunction,Plated,PTH,ComponentDrill
T6C0.0315
; #@! TA.AperFunction,Plated,PTH,ComponentDrill
T7C0.0354
; #@! TA.AperFunction,Plated,PTH,ComponentDrill
T8C0.0394
; #@! TA.AperFunction,Plated,PTH,ComponentDrill
T9C0.0433
; #@! TA.AperFunction,Plated,PTH,ComponentDrill
T10C0.0472
; #@! TA.AperFunction,Plated,PTH,ComponentDrill
T11C0.0560
; #@! TA.AperFunction,Plated,PTH,ComponentDrill
T12C0.0591
%
G90
G05
T1
X6.295Y-5.182
X6.308Y-5.576
X6.313Y-5.613
X6.335Y-5.406
X6.337Y-5.202
X6.376Y-5.404
X6.382Y-4.168
X6.388Y-5.308
X6.5122Y-5.4326
X6.549Y-4.87
X6.5578Y-5.433
X6.559Y-5.123
X6.584Y-5.141
X6.591Y-4.065
X6.622Y-4.932
X6.668Y-5.592
X6.671Y-5.556
X6.687Y-4.3537
X6.691Y-5.497
X6.693Y-4.308
X6.717Y-4.008
X6.754Y-5.309
X6.842Y-5.24
X6.947Y-4.277
X6.959Y-4.06
X6.98Y-4.269
X6.988Y-4.033
X7.003Y-4.289
X7.017Y-4.06
X7.02Y-5.44
X7.077Y-5.057
X7.25Y-5.118
X7.276Y-5.102
X7.288Y-5.405
X7.31Y-5.114
X7.315Y-4.407
X7.322Y-5.372
X7.345Y-5.351
X7.352Y-3.849
X7.364Y-5.136
X7.369Y-4.404
X7.3964Y-5.1369
X7.406Y-4.879
X7.4083Y-5.2994
X7.428Y-5.2807
X7.4301Y-5.2525
X7.4312Y-5.3653
X7.488Y-4.234
X7.507Y-4.547
X7.527Y-5.637
X7.531Y-5.412
X7.543Y-5.136
X7.576Y-4.702
X7.6Y-4.266
X7.614Y-5.58
X7.621Y-5.949
X7.631Y-4.3
X7.702Y-4.664
X7.717Y-4.732
X7.7224Y-4.5886
X7.831Y-5.932
X7.836Y-5.617
X7.8385Y-4.5545
X7.8661Y-4.4547
X7.913Y-5.653
X7.9278Y-4.6892
X7.932Y-4.736
X7.937Y-4.572
X7.939Y-5.905
X7.95Y-4.271
X7.955Y-4.422
X7.986Y-4.662
X8.0402Y-4.4909
X8.0943Y-4.6313
X8.1215Y-4.5254
X8.1459Y-4.7249
X8.152Y-5.676
X8.1924Y-4.668
X8.225Y-4.303
X8.231Y-4.674
X8.2362Y-4.5079
X8.2587Y-5.2922
X8.264Y-5.383
X8.264Y-5.463
X8.267Y-5.425
X8.312Y-4.753
X8.347Y-5.291
X8.348Y-5.339
X8.351Y-5.427
X8.369Y-5.091
X8.379Y-4.747
X8.391Y-5.224
X8.409Y-5.245
X8.426Y-5.446
X8.427Y-5.388
X8.429Y-5.311
X8.436Y-4.3612
X8.4567Y-4.3465
X8.457Y-4.416
X8.4979Y-4.3256
X8.5104Y-3.7027
X8.5315Y-5.3622
X8.5571Y-3.6429
X8.569Y-5.243
X8.57Y-4.874
X8.5835Y-3.6598
X8.5956Y-4.4109
X8.601Y-3.958
X8.61Y-3.882
X8.6147Y-3.6598
X8.615Y-4.229
X8.626Y-3.747
X8.6376Y-3.7094
X8.648Y-3.6606
X8.6616Y-4.0635
X8.681Y-5.638
X8.6873Y-4.4094
X8.7Y-4.438
X8.704Y-4.135
X8.706Y-4.195
X8.7097Y-3.7009
X8.711Y-4.467
X8.7134Y-3.654
X8.729Y-4.053
X8.7378Y-4.1417
X8.741Y-3.847
X8.741Y-5.066
X8.7448Y-4.795
X8.7453Y-4.461
X8.7476Y-3.683
X8.748Y-4.586
X8.762Y-5.312
X8.767Y-5.234
X8.768Y-5.285
X8.771Y-4.606
X8.778Y-3.698
X8.788Y-5.424
X8.7919Y-4.4883
X8.793Y-5.3164
X8.801Y-4.229
X8.801Y-5.253
X8.8106Y-4.6496
X8.812Y-4.417
X8.83Y-4.459
X8.853Y-4.136
X8.878Y-3.6854
X8.888Y-3.767
X8.89Y-4.232
X8.893Y-4.186
X8.906Y-3.948
X8.914Y-4.028
X8.9259Y-4.7947
X8.929Y-4.572
X8.9372Y-4.4657
X8.948Y-4.591
X8.95Y-5.093
X8.9567Y-4.563
X8.966Y-4.09
X8.9665Y-4.6847
X8.973Y-4.041
X8.973Y-5.036
X8.9737Y-4.4036
X8.9843Y-4.1325
X8.992Y-4.424
X8.9941Y-4.5953
X8.9975Y-4.3553
X9.0179Y-4.303
X9.02Y-4.334
X9.0356Y-4.6838
X9.044Y-4.298
X9.08Y-4.701
X9.083Y-3.961
X9.106Y-4.117
X9.106Y-4.338
X9.1313Y-4.008
X9.1715Y-4.9675
X9.175Y-4.321
X9.196Y-4.746
X9.206Y-4.97
X9.217Y-4.852
X9.222Y-5.026
X9.2397Y-4.9693
X9.244Y-4.115
X9.284Y-4.206
X9.304Y-4.178
X9.31Y-4.2934
X9.314Y-4.644
X9.3243Y-4.1513
X9.325Y-4.3157
X9.3276Y-4.2734
X9.334Y-4.935
X9.334Y-5.027
X9.347Y-5.051
X9.353Y-4.911
X9.368Y-4.694
X9.368Y-5.031
X9.3713Y-4.9358
X9.406Y-5.025
X9.407Y-4.954
X9.465Y-4.765
X9.4664Y-3.8063
X9.4856Y-4.0733
X9.521Y-4.121
X9.523Y-4.151
X9.525Y-4.249
X9.528Y-4.183
X9.529Y-4.276
X9.532Y-4.304
X9.685Y-5.105
X9.857Y-5.03
X9.869Y-4.949
X9.895Y-4.174
X9.9615Y-4.1988
X9.994Y-5.025
X10.023Y-5.082
X10.1017Y-4.7536
X10.127Y-4.362
X10.135Y-4.246
X10.192Y-4.204
X10.2181Y-4.2323
X10.2283Y-4.1941
X10.283Y-4.329
X10.287Y-4.807
X10.335Y-5.093
X10.378Y-4.143
X10.383Y-4.303
X10.385Y-5.035
X10.39Y-4.736
X10.394Y-4.912
X10.428Y-4.798
X10.457Y-4.797
X10.478Y-4.987
X10.4795Y-4.0045
X10.482Y-5.096
X10.483Y-4.798
X10.487Y-5.441
X10.507Y-4.738
X10.511Y-5.331
X10.517Y-4.791
X10.524Y-5.416
X10.526Y-5.357
X10.536Y-4.673
X10.538Y-4.529
X10.551Y-4.781
X10.56Y-5.306
X10.561Y-4.423
X10.611Y-4.088
X10.613Y-5.1
X10.614Y-5.176
X10.64Y-4.324
X10.649Y-4.695
X10.649Y-5.193
X10.681Y-5.644
X10.747Y-5.384
X10.748Y-5.176
X10.758Y-5.549
X10.775Y-5.101
X10.777Y-5.224
X10.794Y-5.402
X10.855Y-4.672
X10.859Y-5.046
X10.877Y-5.151
X10.884Y-4.912
X10.896Y-5.385
X10.933Y-5.378
X10.938Y-4.642
X10.96Y-5.588
X10.961Y-5.559
X11.038Y-5.243
T2
X8.4816Y-3.5238
X8.5072Y-3.4962
X8.5387Y-3.4962
X8.5545Y-3.5238
X8.5702Y-3.4962
X8.586Y-3.5238
X8.6175Y-3.5238
X8.6332Y-3.4962
X8.649Y-3.5238
X8.6647Y-3.4962
X8.6962Y-3.4962
X8.7218Y-3.5238
T3
X8.4423Y-3.5395
X8.7612Y-3.5395
T4
X8.4246Y-3.5612
X8.7789Y-3.5612
T5
X6.245Y-4.9463
X6.245Y-5.025
X11.004Y-4.9463
X11.004Y-5.025
T6
X6.8486Y-5.368
X6.9274Y-5.368
X9.9786Y-5.188
X10.0574Y-5.188
X10.5661Y-5.677
X10.6449Y-5.677
X10.7236Y-5.677
X10.8024Y-5.677
X10.8811Y-5.677
X10.9599Y-5.677
T7
X6.5759Y-4.6968
X6.5893Y-4.4412
X6.7528Y-4.7061
X6.7662Y-4.4505
T8
X6.8654Y-4.9268
X6.9637Y-4.932
X7.062Y-4.9371
X7.3185Y-4.7062
X7.3237Y-4.6079
X7.3288Y-4.5096
T9
X6.5505Y-4.0132
X6.704Y-3.9246
X10.4995Y-3.9246
X10.6529Y-4.0132
T10
X6.772Y-4.8283
X6.7981Y-4.331
X7.1652Y-4.8489
X7.1913Y-4.3516
T11
X7.519Y-3.9935
X7.6175Y-3.9935
X7.7159Y-3.9935
X9.4875Y-3.9935
X9.586Y-3.9935
X9.6844Y-3.9935
T4
G00X8.4246Y-3.3171
M15
G01X8.4246Y-3.3525
M16
G05
G00X8.7789Y-3.3171
M15
G01X8.7789Y-3.3525
M16
G05
T6
G00X7.4462Y-4.4325
M15
G01X7.4462Y-4.46
M16
G05
G00X7.7887Y-4.4325
M15
G01X7.7887Y-4.46
M16
G05
G00X9.4147Y-4.4325
M15
G01X9.4147Y-4.46
M16
G05
G00X9.7572Y-4.4325
M15
G01X9.7572Y-4.46
M16
G05
T12
G00X6.4318Y-3.9453
M15
G01X6.4515Y-3.9794
M16
G05
G00X6.7046Y-3.7878
M15
G01X6.7243Y-3.8219
M16
G05
G00X10.4989Y-3.7878
M15
G01X10.4792Y-3.8219
M16
G05
G00X10.7716Y-3.9453
M15
G01X10.7519Y-3.9794
M16
G05
M30
