%TF.GenerationSoftware,KiCad,Pcbnew,9.0.6-rc2*%
%TF.CreationDate,2025-12-11T22:21:31-08:00*%
%TF.ProjectId,UGC_Main_S1,5547435f-4d61-4696-9e5f-53312e6b6963,rev?*%
%TF.SameCoordinates,Original*%
%TF.FileFunction,Paste,Bot*%
%TF.FilePolarity,Positive*%
%FSLAX46Y46*%
G04 Gerber Fmt 4.6, Leading zero omitted, Abs format (unit mm)*
G04 Created by KiCad (PCBNEW 9.0.6-rc2) date 2025-12-11 22:21:31*
%MOMM*%
%LPD*%
G01*
G04 APERTURE LIST*
G04 Aperture macros list*
%AMRotRect*
0 Rectangle, with rotation*
0 The origin of the aperture is its center*
0 $1 length*
0 $2 width*
0 $3 Rotation angle, in degrees counterclockwise*
0 Add horizontal line*
21,1,$1,$2,0,0,$3*%
G04 Aperture macros list end*
%ADD10R,0.300000X1.000000*%
%ADD11R,2.000000X1.300000*%
%ADD12R,1.000000X0.750000*%
%ADD13R,0.500000X1.000000*%
%ADD14R,1.200000X1.700000*%
%ADD15R,0.300000X0.900000*%
%ADD16RotRect,0.300000X1.000000X174.000000*%
%ADD17RotRect,2.000000X1.300000X174.000000*%
G04 APERTURE END LIST*
D10*
%TO.C,J6*%
X194313657Y-100159399D03*
X193813657Y-100159400D03*
X193313657Y-100159400D03*
X192813657Y-100159399D03*
D11*
X196613657Y-102859400D03*
X190513657Y-102859400D03*
%TD*%
D10*
%TO.C,J9*%
X244153657Y-100159399D03*
X243653657Y-100159400D03*
X243153657Y-100159400D03*
X242653657Y-100159399D03*
D11*
X246453657Y-102859400D03*
X240353657Y-102859400D03*
%TD*%
D12*
%TO.C,SW17*%
X221483657Y-133609400D03*
X215483657Y-133609400D03*
X221483657Y-137359400D03*
X215483657Y-137359400D03*
%TD*%
D13*
%TO.C,J5*%
X166363600Y-139564800D03*
X165563600Y-139564800D03*
D14*
X167663600Y-141514800D03*
X164263600Y-141514800D03*
%TD*%
D15*
%TO.C,J1*%
X215733657Y-90731200D03*
X216233657Y-90731200D03*
X216733657Y-90731200D03*
X217233657Y-90731200D03*
X217733657Y-90731200D03*
X218233657Y-90731200D03*
X218733657Y-90731200D03*
X219233657Y-90731200D03*
X219733657Y-90731200D03*
X220233657Y-90731200D03*
X220733657Y-90731200D03*
X221233657Y-90731200D03*
%TD*%
D16*
%TO.C,J2*%
X271613966Y-134628785D03*
X271116706Y-134576521D03*
X270619443Y-134524253D03*
X270122183Y-134471992D03*
X269624923Y-134419728D03*
X269127660Y-134367464D03*
X268630400Y-134315200D03*
D17*
X273619136Y-137554408D03*
X266060776Y-136759993D03*
%TD*%
D13*
%TO.C,J4*%
X278784000Y-139564800D03*
X277984000Y-139564800D03*
D14*
X280084000Y-141514800D03*
X276684000Y-141514800D03*
%TD*%
M02*
