%TF.GenerationSoftware,KiCad,Pcbnew,8.0.2*%
%TF.CreationDate,2024-10-24T08:37:16-07:00*%
%TF.ProjectId,UGC_Main_S1,5547435f-4d61-4696-9e5f-53312e6b6963,rev?*%
%TF.SameCoordinates,Original*%
%TF.FileFunction,Soldermask,Top*%
%TF.FilePolarity,Negative*%
%FSLAX46Y46*%
G04 Gerber Fmt 4.6, Leading zero omitted, Abs format (unit mm)*
G04 Created by KiCad (PCBNEW 8.0.2) date 2024-10-24 08:37:16*
%MOMM*%
%LPD*%
G01*
G04 APERTURE LIST*
G04 Aperture macros list*
%AMRoundRect*
0 Rectangle with rounded corners*
0 $1 Rounding radius*
0 $2 $3 $4 $5 $6 $7 $8 $9 X,Y pos of 4 corners*
0 Add a 4 corners polygon primitive as box body*
4,1,4,$2,$3,$4,$5,$6,$7,$8,$9,$2,$3,0*
0 Add four circle primitives for the rounded corners*
1,1,$1+$1,$2,$3*
1,1,$1+$1,$4,$5*
1,1,$1+$1,$6,$7*
1,1,$1+$1,$8,$9*
0 Add four rect primitives between the rounded corners*
20,1,$1+$1,$2,$3,$4,$5,0*
20,1,$1+$1,$4,$5,$6,$7,0*
20,1,$1+$1,$6,$7,$8,$9,0*
20,1,$1+$1,$8,$9,$2,$3,0*%
%AMHorizOval*
0 Thick line with rounded ends*
0 $1 width*
0 $2 $3 position (X,Y) of the first rounded end (center of the circle)*
0 $4 $5 position (X,Y) of the second rounded end (center of the circle)*
0 Add line between two ends*
20,1,$1,$2,$3,$4,$5,0*
0 Add two circle primitives to create the rounded ends*
1,1,$1,$2,$3*
1,1,$1,$4,$5*%
%AMRotRect*
0 Rectangle, with rotation*
0 The origin of the aperture is its center*
0 $1 length*
0 $2 width*
0 $3 Rotation angle, in degrees counterclockwise*
0 Add horizontal line*
21,1,$1,$2,0,0,$3*%
%AMFreePoly0*
4,1,493,1.979705,0.664447,1.999168,0.662594,2.006714,0.659095,2.034586,0.631890,2.038349,0.623329,2.039544,0.584399,2.036313,0.575621,2.010160,0.546760,2.002838,0.542806,1.983525,0.539771,1.982582,0.539659,1.789093,0.524161,1.406440,0.459306,1.032280,0.356518,0.670266,0.216810,0.324043,0.041587,-0.002900,-0.167384,-0.307310,-0.408026,-0.586108,-0.677901,-0.836520,-0.974327,
-1.056016,-1.294307,-1.242404,-1.634651,-1.393806,-1.991922,-1.508705,-2.362544,-1.585955,-2.742819,-1.624780,-3.128972,-1.627154,-3.322905,-1.624829,-3.501046,-1.586284,-3.855466,-1.509662,-4.203559,-1.395856,-4.541327,-1.246193,-4.864816,-1.062438,-5.170219,-0.846737,-5.453970,-0.601623,-5.712733,-0.329970,-5.943477,-0.034959,-6.143500,0.279949,-6.310454,0.611062,-6.442382,0.954494,-6.537735,
1.306219,-6.595398,1.662130,-6.614695,2.018040,-6.595398,2.369765,-6.537735,2.713197,-6.442382,3.044310,-6.310454,3.359219,-6.143500,3.654230,-5.943477,3.925883,-5.712733,4.170997,-5.453970,4.386698,-5.170219,4.570453,-4.864816,4.720116,-4.541327,4.833922,-4.203559,4.910544,-3.855466,4.949089,-3.501046,4.951414,-3.322933,4.949045,-3.159397,4.909593,-2.834477,4.831285,-2.516773,
4.715251,-2.210813,4.563188,-1.921083,4.377307,-1.651788,4.160325,-1.406864,3.915401,-1.189881,3.646106,-1.004000,3.356376,-0.851938,3.050416,-0.735903,2.732712,-0.657595,2.407880,-0.618155,2.080668,-0.618155,1.755835,-0.657595,1.438131,-0.735903,1.132171,-0.851938,0.842441,-1.004000,0.573146,-1.189881,0.328222,-1.406864,0.111240,-1.651788,-0.074640,-1.921083,-0.226703,-2.210813,
-0.342737,-2.516773,-0.421045,-2.834477,-0.460497,-3.159397,-0.462867,-3.322915,-0.460392,-3.467988,-0.420837,-3.755768,-0.342500,-4.035359,-0.226816,-4.301689,-0.075947,-4.549784,0.107301,-4.775027,0.319511,-4.973217,0.556727,-5.140662,0.814550,-5.274256,1.088142,-5.371491,1.372442,-5.430568,1.662131,-5.450384,1.951819,-5.430568,2.236119,-5.371491,2.509711,-5.274256,2.767534,-5.140662,
3.004750,-4.973217,3.216960,-4.775027,3.400209,-4.549784,3.551078,-4.301689,3.666762,-4.035359,3.745099,-3.755768,3.784654,-3.467988,3.787128,-3.322948,3.784750,-3.201796,3.746801,-2.962191,3.671873,-2.731587,3.561790,-2.515537,3.419270,-2.319375,3.247813,-2.147918,3.051651,-2.005398,2.835601,-1.895315,2.604997,-1.820387,2.365511,-1.782457,2.123035,-1.782457,1.883548,-1.820387,
1.652944,-1.895315,1.436894,-2.005398,1.240732,-2.147918,1.069275,-2.319375,0.926755,-2.515537,0.816672,-2.731587,0.741744,-2.962191,0.703795,-3.201796,0.701419,-3.322878,0.704046,-3.423450,0.745952,-3.620602,0.827863,-3.804577,0.946239,-3.967509,1.095900,-4.102263,1.270309,-4.202958,1.461840,-4.265190,1.662130,-4.286242,1.862419,-4.265190,2.053950,-4.202958,2.228359,-4.102263,
2.378020,-3.967509,2.496396,-3.804577,2.578307,-3.620602,2.620212,-3.423450,2.622838,-3.322985,2.620516,-3.263576,2.583616,-3.150013,2.513577,-3.053612,2.417176,-2.983573,2.303853,-2.946752,2.184695,-2.946752,2.071371,-2.983573,1.974970,-3.053612,1.904931,-3.150013,1.868031,-3.263576,1.865692,-3.323404,1.865683,-3.323610,1.863287,-3.366674,1.862068,-3.371404,1.824698,-3.449003,
1.821230,-3.453352,1.753893,-3.507052,1.748880,-3.509466,1.664911,-3.528631,1.659349,-3.528631,1.575380,-3.509466,1.570367,-3.507052,1.503030,-3.453352,1.499562,-3.449003,1.462192,-3.371404,1.460973,-3.366674,1.458578,-3.323610,1.458564,-3.322566,1.460994,-3.235720,1.461302,-3.233288,1.499953,-3.063950,1.500878,-3.061308,1.576240,-2.904816,1.577729,-2.902446,1.686025,-2.766648,
1.688004,-2.764669,1.823803,-2.656373,1.826173,-2.654884,1.982665,-2.579522,1.985308,-2.578597,2.154646,-2.539947,2.157427,-2.539634,2.331119,-2.539634,2.333900,-2.539947,2.503238,-2.578597,2.505881,-2.579522,2.662373,-2.654884,2.664743,-2.656373,2.800542,-2.764669,2.802521,-2.766648,2.910817,-2.902446,2.912306,-2.904816,2.987668,-3.061308,2.988593,-3.063950,3.027244,-3.233288,
3.027552,-3.235720,3.029983,-3.322566,3.029985,-3.323188,3.027405,-3.441541,3.027218,-3.443440,2.986115,-3.676549,2.985551,-3.678653,2.904593,-3.901084,2.903672,-3.903059,2.785319,-4.108052,2.784070,-4.109837,2.631918,-4.291163,2.630377,-4.292704,2.449051,-4.444856,2.447266,-4.446105,2.242273,-4.564458,2.240298,-4.565379,2.017867,-4.646337,2.015763,-4.646901,1.782654,-4.688004,
1.780483,-4.688194,1.543777,-4.688194,1.541606,-4.688004,1.308497,-4.646901,1.306393,-4.646337,1.083962,-4.565379,1.081987,-4.564458,0.876994,-4.446105,0.875209,-4.444856,0.693883,-4.292704,0.692342,-4.291163,0.540190,-4.109837,0.538941,-4.108052,0.420588,-3.903059,0.419667,-3.901084,0.338709,-3.678653,0.338145,-3.676549,0.297042,-3.443440,0.296855,-3.441541,0.294276,-3.323188,
0.294275,-3.322693,0.296743,-3.184297,0.296868,-3.182741,0.336260,-2.908766,0.336639,-2.907023,0.414620,-2.641442,0.415244,-2.639771,0.530228,-2.387992,0.531082,-2.386427,0.680727,-2.153575,0.681796,-2.152147,0.863057,-1.942961,0.864318,-1.941700,1.073504,-1.760439,1.074932,-1.759370,1.307784,-1.609725,1.309349,-1.608871,1.561128,-1.493887,1.562799,-1.493263,1.828380,-1.415282,
1.830123,-1.414903,2.104098,-1.375511,2.105877,-1.375384,2.382669,-1.375384,2.384448,-1.375511,2.658423,-1.414903,2.660166,-1.415282,2.925747,-1.493263,2.927418,-1.493887,3.179197,-1.608871,3.180762,-1.609725,3.413614,-1.759370,3.415042,-1.760439,3.624228,-1.941700,3.625489,-1.942961,3.806750,-2.152147,3.807819,-2.153575,3.957464,-2.386427,3.958318,-2.387992,4.073302,-2.639771,
4.073926,-2.641442,4.151907,-2.907023,4.152286,-2.908766,4.191678,-3.182741,4.191803,-3.184297,4.194271,-3.322693,4.194272,-3.323104,4.191890,-3.481477,4.191792,-3.482856,4.152093,-3.797103,4.151799,-3.798645,4.073028,-4.105439,4.072543,-4.106932,3.955942,-4.401435,3.955274,-4.402855,3.802680,-4.680421,3.801839,-4.681746,3.615661,-4.937998,3.614660,-4.939208,3.397833,-5.170105,
3.396689,-5.171179,3.152633,-5.373080,3.151363,-5.374003,2.883926,-5.543724,2.882550,-5.544480,2.595951,-5.679344,2.594492,-5.679922,2.293249,-5.777801,2.291728,-5.778192,1.980593,-5.837544,1.979036,-5.837740,1.662916,-5.857629,1.661346,-5.857629,1.345226,-5.837740,1.343669,-5.837544,1.032534,-5.778192,1.031013,-5.777801,0.729770,-5.679922,0.728311,-5.679344,0.441712,-5.544480,
0.440336,-5.543724,0.172899,-5.374003,0.171629,-5.373080,-0.072427,-5.171179,-0.073571,-5.170105,-0.290398,-4.939208,-0.291399,-4.937998,-0.477577,-4.681746,-0.478418,-4.680421,-0.631012,-4.402855,-0.631680,-4.401435,-0.748281,-4.106932,-0.748766,-4.105439,-0.827537,-3.798645,-0.827831,-3.797103,-0.867530,-3.482856,-0.867628,-3.481477,-0.870011,-3.323104,-0.870011,-3.322747,-0.867660,-3.148686,
-0.867582,-3.147455,-0.828605,-2.801523,-0.828371,-2.800141,-0.750907,-2.460748,-0.750519,-2.459402,-0.635542,-2.130816,-0.635005,-2.129520,-0.483961,-1.815874,-0.483283,-1.814648,-0.298071,-1.519885,-0.297260,-1.518741,-0.080210,-1.246569,-0.079276,-1.245524,0.166883,-0.999366,0.167928,-0.998432,0.440100,-0.781382,0.441244,-0.780571,0.736006,-0.595359,0.737232,-0.594681,1.050879,-0.443637,
1.052175,-0.443100,1.380760,-0.328123,1.382106,-0.327735,1.721499,-0.250270,1.722881,-0.250036,2.068813,-0.211059,2.070213,-0.210980,2.418335,-0.210980,2.419735,-0.211059,2.765667,-0.250036,2.767049,-0.250270,3.106442,-0.327735,3.107788,-0.328123,3.436373,-0.443100,3.437669,-0.443637,3.751316,-0.594681,3.752542,-0.595359,4.047304,-0.780571,4.048448,-0.781382,4.320620,-0.998432,
4.321665,-0.999366,4.567824,-1.245524,4.568758,-1.246569,4.785808,-1.518741,4.786619,-1.519885,4.971831,-1.814648,4.972509,-1.815874,5.123553,-2.129520,5.124090,-2.130816,5.239067,-2.459402,5.239455,-2.460748,5.316919,-2.800141,5.317153,-2.801523,5.356130,-3.147455,5.356208,-3.148686,5.358558,-3.322747,5.358558,-3.323074,5.356121,-3.516013,5.356054,-3.517162,5.315719,-3.900926,
5.315514,-3.902218,5.235286,-4.279663,5.234947,-4.280927,5.115704,-4.647918,5.115235,-4.649139,4.958285,-5.001656,4.957691,-5.002822,4.764752,-5.337002,4.764040,-5.338099,4.537227,-5.650281,4.536403,-5.651298,4.278200,-5.938061,4.277275,-5.938986,3.990512,-6.197188,3.989495,-6.198012,3.677314,-6.424825,3.676217,-6.425537,3.342037,-6.618476,3.340871,-6.619070,2.988354,-6.776021,
2.987133,-6.776490,2.620142,-6.895733,2.618878,-6.896072,2.241433,-6.976300,2.240141,-6.976505,1.856377,-7.016840,1.855070,-7.016908,1.469192,-7.016908,1.467885,-7.016840,1.084121,-6.976505,1.082829,-6.976300,0.705384,-6.896072,0.704120,-6.895733,0.337129,-6.776490,0.335908,-6.776021,-0.016609,-6.619070,-0.017775,-6.618476,-0.351955,-6.425537,-0.353052,-6.424825,-0.665233,-6.198012,
-0.666250,-6.197188,-0.953013,-5.938986,-0.953938,-5.938061,-1.212141,-5.651298,-1.212965,-5.650281,-1.439778,-5.338099,-1.440490,-5.337002,-1.633429,-5.002822,-1.634023,-5.001656,-1.790973,-4.649139,-1.791442,-4.647918,-1.910685,-4.280927,-1.911024,-4.279663,-1.991252,-3.902218,-1.991457,-3.900926,-2.031792,-3.517162,-2.031859,-3.516013,-2.034297,-3.323074,-2.034297,-3.322766,-2.031940,-3.126810,
-2.031880,-3.125730,-1.993311,-2.735720,-1.993130,-2.734502,-1.916366,-2.350182,-1.916065,-2.348987,-1.801851,-1.974086,-1.801435,-1.972927,-1.650880,-1.611087,-1.650351,-1.609975,-1.464917,-1.264707,-1.464282,-1.263652,-1.245770,-0.938310,-1.245033,-0.937322,-0.995563,-0.635064,-0.994734,-0.634154,-0.716729,-0.357914,-0.715813,-0.357090,-0.411972,-0.109551,-0.410980,-0.108821,-0.084253,0.107615,
-0.083194,0.108244,0.263247,0.291475,0.264363,0.291996,0.627155,0.440243,0.628316,0.440652,1.003937,0.552475,1.005134,0.552768,1.389935,0.627083,1.391154,0.627257,1.781402,0.663342,1.782482,0.663395,1.978449,0.664503,1.979705,0.664447,1.979705,0.664447,$1*%
%AMFreePoly1*
4,1,493,-1.315191,7.101891,-0.931427,7.061556,-0.930135,7.061351,-0.552690,6.981123,-0.551426,6.980784,-0.184435,6.861541,-0.183214,6.861072,0.169303,6.704121,0.170469,6.703527,0.504649,6.510588,0.505746,6.509876,0.817927,6.283063,0.818944,6.282239,1.105707,6.024037,1.106632,6.023112,1.364835,5.736349,1.365659,5.735332,1.592472,5.423150,1.593184,5.422053,1.786123,5.087873,
1.786717,5.086707,1.943667,4.734190,1.944136,4.732969,2.063379,4.365978,2.063718,4.364714,2.143946,3.987269,2.144151,3.985977,2.184486,3.602213,2.184553,3.601064,2.186991,3.408125,2.186991,3.407817,2.184634,3.211861,2.184574,3.210781,2.146005,2.820771,2.145824,2.819553,2.069060,2.435233,2.068759,2.434038,1.954545,2.059137,1.954129,2.057978,1.803574,1.696138,
1.803045,1.695026,1.617611,1.349758,1.616976,1.348703,1.398464,1.023361,1.397727,1.022373,1.148257,0.720115,1.147428,0.719205,0.869423,0.442965,0.868507,0.442141,0.564666,0.194602,0.563674,0.193872,0.236947,-0.022564,0.235888,-0.023193,-0.110553,-0.206424,-0.111669,-0.206945,-0.474461,-0.355192,-0.475622,-0.355601,-0.851243,-0.467424,-0.852440,-0.467717,-1.237241,-0.542032,
-1.238460,-0.542206,-1.628708,-0.578291,-1.629788,-0.578344,-1.825755,-0.579452,-1.827006,-0.579396,-1.846471,-0.577551,-1.854022,-0.574053,-1.881899,-0.546847,-1.885662,-0.538284,-1.886856,-0.499349,-1.883625,-0.490572,-1.857469,-0.461708,-1.850146,-0.457753,-1.830830,-0.454719,-1.829888,-0.454608,-1.636399,-0.439110,-1.253746,-0.374256,-0.879585,-0.271467,-0.517572,-0.131760,-0.171349,0.043463,
0.155595,0.252435,0.460004,0.493076,0.738803,0.762951,0.989215,1.059378,1.208710,1.379358,1.395098,1.719701,1.546501,2.076973,1.661399,2.447595,1.738649,2.827870,1.777474,3.214023,1.779848,3.407967,1.777523,3.586097,1.738978,3.940517,1.662356,4.288610,1.548550,4.626378,1.398887,4.949867,1.215132,5.255270,0.999431,5.539021,0.754317,5.797784,0.482664,6.028528,
0.187653,6.228551,-0.127255,6.395505,-0.458368,6.527433,-0.801800,6.622786,-1.153525,6.680449,-1.509436,6.699746,-1.865346,6.680449,-2.217071,6.622786,-2.560503,6.527433,-2.891616,6.395505,-3.206525,6.228551,-3.501536,6.028528,-3.773189,5.797784,-4.018303,5.539021,-4.234004,5.255270,-4.417759,4.949867,-4.567422,4.626378,-4.681228,4.288610,-4.757850,3.940517,-4.796395,3.586097,
-4.798720,3.407984,-4.796351,3.244448,-4.756899,2.919528,-4.678591,2.601824,-4.562557,2.295864,-4.410494,2.006134,-4.224613,1.736839,-4.007631,1.491915,-3.762707,1.274932,-3.493412,1.089051,-3.203682,0.936989,-2.897722,0.820954,-2.580018,0.742646,-2.255186,0.703206,-1.927974,0.703206,-1.603141,0.742646,-1.285437,0.820954,-0.979477,0.936989,-0.689747,1.089051,-0.420452,1.274932,
-0.175528,1.491915,0.041453,1.736839,0.227334,2.006134,0.379397,2.295864,0.495431,2.601824,0.573739,2.919528,0.613191,3.244448,0.615561,3.407967,0.613086,3.553039,0.573531,3.840819,0.495194,4.120410,0.379510,4.386740,0.228641,4.634835,0.045392,4.860078,-0.166817,5.058268,-0.404033,5.225713,-0.661856,5.359307,-0.935448,5.456542,-1.219748,5.515619,-1.509437,5.535435,
-1.799125,5.515619,-2.083425,5.456542,-2.357017,5.359307,-2.614840,5.225713,-2.852056,5.058268,-3.064266,4.860078,-3.247515,4.634835,-3.398384,4.386740,-3.514068,4.120410,-3.592405,3.840819,-3.631960,3.553039,-3.634434,3.407999,-3.632056,3.286847,-3.594107,3.047242,-3.519179,2.816639,-3.409096,2.600588,-3.266576,2.404426,-3.095119,2.232970,-2.898957,2.090450,-2.682906,1.980367,
-2.452303,1.905439,-2.212817,1.867509,-1.970341,1.867509,-1.730854,1.905439,-1.500251,1.980367,-1.284200,2.090450,-1.088038,2.232970,-0.916581,2.404426,-0.774061,2.600588,-0.663978,2.816639,-0.589050,3.047242,-0.551101,3.286847,-0.548725,3.407929,-0.551352,3.508501,-0.593258,3.705653,-0.675169,3.889628,-0.793545,4.052560,-0.943206,4.187314,-1.117615,4.288009,-1.309146,4.350241,
-1.509436,4.371293,-1.709725,4.350241,-1.901256,4.288009,-2.075665,4.187314,-2.225326,4.052560,-2.343702,3.889628,-2.425613,3.705653,-2.467518,3.508501,-2.470144,3.408036,-2.467822,3.348627,-2.430922,3.235064,-2.360883,3.138663,-2.264482,3.068624,-2.151159,3.031803,-2.032001,3.031803,-1.918677,3.068624,-1.822276,3.138663,-1.752237,3.235064,-1.715337,3.348627,-1.712998,3.408455,
-1.712989,3.408661,-1.710595,3.451725,-1.709376,3.456455,-1.672006,3.534054,-1.668538,3.538403,-1.601200,3.592104,-1.596187,3.594518,-1.512218,3.613683,-1.506656,3.613683,-1.422687,3.594518,-1.417674,3.592104,-1.350336,3.538403,-1.346868,3.534054,-1.309498,3.456455,-1.308279,3.451725,-1.305884,3.408661,-1.305870,3.407617,-1.308300,3.320771,-1.308608,3.318339,-1.347259,3.149001,
-1.348184,3.146359,-1.423546,2.989867,-1.425035,2.987497,-1.533331,2.851699,-1.535310,2.849720,-1.671109,2.741424,-1.673479,2.739935,-1.829971,2.664573,-1.832614,2.663648,-2.001952,2.624998,-2.004733,2.624685,-2.178425,2.624685,-2.181206,2.624998,-2.350544,2.663648,-2.353187,2.664573,-2.509679,2.739935,-2.512049,2.741424,-2.647848,2.849720,-2.649827,2.851699,-2.758123,2.987497,
-2.759612,2.989867,-2.834974,3.146359,-2.835899,3.149001,-2.874550,3.318339,-2.874858,3.320771,-2.877289,3.407617,-2.877291,3.408239,-2.874711,3.526592,-2.874524,3.528491,-2.833421,3.761600,-2.832857,3.763704,-2.751899,3.986135,-2.750978,3.988110,-2.632625,4.193103,-2.631376,4.194888,-2.479224,4.376214,-2.477683,4.377755,-2.296357,4.529907,-2.294572,4.531156,-2.089579,4.649509,
-2.087604,4.650430,-1.865173,4.731388,-1.863069,4.731952,-1.629960,4.773055,-1.627789,4.773245,-1.391083,4.773245,-1.388912,4.773055,-1.155803,4.731952,-1.153699,4.731388,-0.931268,4.650430,-0.929293,4.649509,-0.724300,4.531156,-0.722515,4.529907,-0.541189,4.377755,-0.539648,4.376214,-0.387496,4.194888,-0.386247,4.193103,-0.267894,3.988110,-0.266973,3.986135,-0.186015,3.763704,
-0.185451,3.761600,-0.144348,3.528491,-0.144161,3.526592,-0.141582,3.408239,-0.141581,3.407744,-0.144049,3.269348,-0.144174,3.267792,-0.183566,2.993817,-0.183945,2.992074,-0.261926,2.726493,-0.262550,2.724822,-0.377534,2.473043,-0.378388,2.471478,-0.528033,2.238626,-0.529102,2.237198,-0.710363,2.028012,-0.711624,2.026751,-0.920810,1.845490,-0.922238,1.844421,-1.155090,1.694776,
-1.156655,1.693922,-1.408434,1.578938,-1.410105,1.578314,-1.675686,1.500333,-1.677429,1.499954,-1.951404,1.460562,-1.953183,1.460435,-2.229975,1.460435,-2.231754,1.460562,-2.505729,1.499954,-2.507472,1.500333,-2.773053,1.578314,-2.774724,1.578938,-3.026503,1.693922,-3.028068,1.694776,-3.260920,1.844421,-3.262348,1.845490,-3.471534,2.026751,-3.472795,2.028012,-3.654056,2.237198,
-3.655125,2.238626,-3.804770,2.471478,-3.805624,2.473043,-3.920608,2.724822,-3.921232,2.726493,-3.999213,2.992074,-3.999592,2.993817,-4.038984,3.267792,-4.039109,3.269348,-4.041577,3.407744,-4.041578,3.408155,-4.039196,3.566528,-4.039098,3.567907,-3.999399,3.882154,-3.999105,3.883696,-3.920334,4.190490,-3.919849,4.191983,-3.803248,4.486486,-3.802580,4.487906,-3.649986,4.765472,
-3.649145,4.766797,-3.462967,5.023049,-3.461966,5.024259,-3.245139,5.255156,-3.243995,5.256230,-2.999939,5.458131,-2.998669,5.459054,-2.731232,5.628775,-2.729856,5.629531,-2.443257,5.764395,-2.441798,5.764973,-2.140555,5.862852,-2.139034,5.863243,-1.827899,5.922595,-1.826342,5.922791,-1.510222,5.942680,-1.508652,5.942680,-1.192532,5.922791,-1.190975,5.922595,-0.879840,5.863243,
-0.878319,5.862852,-0.577076,5.764973,-0.575617,5.764395,-0.289018,5.629531,-0.287642,5.628775,-0.020205,5.459054,-0.018935,5.458131,0.225121,5.256230,0.226265,5.255156,0.443092,5.024259,0.444093,5.023049,0.630271,4.766797,0.631112,4.765472,0.783706,4.487906,0.784374,4.486486,0.900975,4.191983,0.901460,4.190490,0.980231,3.883696,0.980525,3.882154,1.020224,3.567907,
1.020322,3.566528,1.022705,3.408155,1.022705,3.407798,1.020354,3.233737,1.020276,3.232506,0.981299,2.886574,0.981065,2.885192,0.903601,2.545799,0.903213,2.544453,0.788236,2.215867,0.787699,2.214571,0.636655,1.900925,0.635977,1.899699,0.450765,1.604936,0.449954,1.603792,0.232904,1.331620,0.231970,1.330575,-0.014189,1.084417,-0.015234,1.083483,-0.287406,0.866433,
-0.288550,0.865622,-0.583312,0.680410,-0.584538,0.679732,-0.898185,0.528688,-0.899481,0.528151,-1.228066,0.413174,-1.229412,0.412786,-1.568805,0.335321,-1.570187,0.335087,-1.916119,0.296110,-1.917519,0.296031,-2.265641,0.296031,-2.267041,0.296110,-2.612973,0.335087,-2.614355,0.335321,-2.953748,0.412786,-2.955094,0.413174,-3.283679,0.528151,-3.284975,0.528688,-3.598622,0.679732,
-3.599848,0.680410,-3.894610,0.865622,-3.895754,0.866433,-4.167926,1.083483,-4.168971,1.084417,-4.415130,1.330575,-4.416064,1.331620,-4.633114,1.603792,-4.633925,1.604936,-4.819137,1.899699,-4.819815,1.900925,-4.970859,2.214571,-4.971396,2.215867,-5.086373,2.544453,-5.086761,2.545799,-5.164225,2.885192,-5.164459,2.886574,-5.203436,3.232506,-5.203514,3.233737,-5.205864,3.407798,
-5.205864,3.408125,-5.203427,3.601064,-5.203360,3.602213,-5.163025,3.985977,-5.162820,3.987269,-5.082592,4.364714,-5.082253,4.365978,-4.963010,4.732969,-4.962541,4.734190,-4.805591,5.086707,-4.804997,5.087873,-4.612058,5.422053,-4.611346,5.423150,-4.384533,5.735332,-4.383709,5.736349,-4.125506,6.023112,-4.124581,6.024037,-3.837818,6.282239,-3.836801,6.283063,-3.524620,6.509876,
-3.523523,6.510588,-3.189343,6.703527,-3.188177,6.704121,-2.835660,6.861072,-2.834439,6.861541,-2.467448,6.980784,-2.466184,6.981123,-2.088739,7.061351,-2.087447,7.061556,-1.703683,7.101891,-1.702376,7.101959,-1.316498,7.101959,-1.315191,7.101891,-1.315191,7.101891,$1*%
G04 Aperture macros list end*
%ADD10C,0.000000*%
%ADD11C,0.250000*%
%ADD12C,4.012500*%
%ADD13C,3.150000*%
%ADD14C,0.010000*%
%ADD15RoundRect,0.135000X0.135000X0.185000X-0.135000X0.185000X-0.135000X-0.185000X0.135000X-0.185000X0*%
%ADD16RoundRect,0.250000X0.475000X-0.250000X0.475000X0.250000X-0.475000X0.250000X-0.475000X-0.250000X0*%
%ADD17RoundRect,0.135000X0.185000X-0.135000X0.185000X0.135000X-0.185000X0.135000X-0.185000X-0.135000X0*%
%ADD18RoundRect,0.100000X-0.130000X-0.100000X0.130000X-0.100000X0.130000X0.100000X-0.130000X0.100000X0*%
%ADD19RoundRect,0.100000X0.130000X0.100000X-0.130000X0.100000X-0.130000X-0.100000X0.130000X-0.100000X0*%
%ADD20RoundRect,0.200000X-0.275000X0.200000X-0.275000X-0.200000X0.275000X-0.200000X0.275000X0.200000X0*%
%ADD21RoundRect,0.200000X0.275000X-0.200000X0.275000X0.200000X-0.275000X0.200000X-0.275000X-0.200000X0*%
%ADD22R,1.350000X1.350000*%
%ADD23O,1.350000X1.350000*%
%ADD24RoundRect,0.250000X0.375000X0.850000X-0.375000X0.850000X-0.375000X-0.850000X0.375000X-0.850000X0*%
%ADD25FreePoly0,180.000000*%
%ADD26FreePoly1,180.000000*%
%ADD27RoundRect,0.140000X0.170000X-0.140000X0.170000X0.140000X-0.170000X0.140000X-0.170000X-0.140000X0*%
%ADD28RoundRect,0.150000X0.150000X0.200000X-0.150000X0.200000X-0.150000X-0.200000X0.150000X-0.200000X0*%
%ADD29RoundRect,0.135000X-0.135000X-0.185000X0.135000X-0.185000X0.135000X0.185000X-0.135000X0.185000X0*%
%ADD30R,0.745000X0.280000*%
%ADD31R,0.280000X0.745000*%
%ADD32RoundRect,0.225000X-0.225000X-0.250000X0.225000X-0.250000X0.225000X0.250000X-0.225000X0.250000X0*%
%ADD33RoundRect,0.150000X0.587500X0.150000X-0.587500X0.150000X-0.587500X-0.150000X0.587500X-0.150000X0*%
%ADD34RoundRect,0.250000X-0.425000X0.450000X-0.425000X-0.450000X0.425000X-0.450000X0.425000X0.450000X0*%
%ADD35RoundRect,0.135000X-0.185000X0.135000X-0.185000X-0.135000X0.185000X-0.135000X0.185000X0.135000X0*%
%ADD36RotRect,0.550000X0.550000X357.000000*%
%ADD37C,2.450000*%
%ADD38C,1.600000*%
%ADD39C,1.250000*%
%ADD40C,2.000000*%
%ADD41RoundRect,0.140000X0.140000X0.170000X-0.140000X0.170000X-0.140000X-0.170000X0.140000X-0.170000X0*%
%ADD42R,0.550000X0.550000*%
%ADD43RoundRect,0.140000X-0.170000X0.140000X-0.170000X-0.140000X0.170000X-0.140000X0.170000X0.140000X0*%
%ADD44RoundRect,0.250000X-0.475000X0.250000X-0.475000X-0.250000X0.475000X-0.250000X0.475000X0.250000X0*%
%ADD45HorizOval,2.250000X-0.250000X0.433013X0.250000X-0.433013X0*%
%ADD46HorizOval,1.700000X0.259808X0.150000X-0.259808X-0.150000X0*%
%ADD47RoundRect,0.150000X-0.200000X0.150000X-0.200000X-0.150000X0.200000X-0.150000X0.200000X0.150000X0*%
%ADD48HorizOval,2.250000X-0.250000X-0.433013X0.250000X0.433013X0*%
%ADD49HorizOval,1.700000X0.259808X-0.150000X-0.259808X0.150000X0*%
%ADD50RoundRect,0.150000X-0.150000X-0.200000X0.150000X-0.200000X0.150000X0.200000X-0.150000X0.200000X0*%
%ADD51R,0.750000X1.000000*%
%ADD52RoundRect,0.150000X-0.150000X0.587500X-0.150000X-0.587500X0.150000X-0.587500X0.150000X0.587500X0*%
%ADD53RoundRect,0.100000X-0.100000X0.130000X-0.100000X-0.130000X0.100000X-0.130000X0.100000X0.130000X0*%
%ADD54RoundRect,0.100000X0.100000X-0.130000X0.100000X0.130000X-0.100000X0.130000X-0.100000X-0.130000X0*%
%ADD55C,1.500000*%
%ADD56RoundRect,0.100000X-0.225000X-0.100000X0.225000X-0.100000X0.225000X0.100000X-0.225000X0.100000X0*%
%ADD57RoundRect,0.050000X0.050000X-0.387500X0.050000X0.387500X-0.050000X0.387500X-0.050000X-0.387500X0*%
%ADD58RoundRect,0.050000X0.387500X-0.050000X0.387500X0.050000X-0.387500X0.050000X-0.387500X-0.050000X0*%
%ADD59R,3.200000X3.200000*%
%ADD60RoundRect,0.100000X0.100000X-0.225000X0.100000X0.225000X-0.100000X0.225000X-0.100000X-0.225000X0*%
%ADD61RoundRect,0.140000X-0.140000X-0.170000X0.140000X-0.170000X0.140000X0.170000X-0.140000X0.170000X0*%
%ADD62RoundRect,0.100000X-0.712500X-0.100000X0.712500X-0.100000X0.712500X0.100000X-0.712500X0.100000X0*%
%ADD63RoundRect,0.100000X0.225000X0.100000X-0.225000X0.100000X-0.225000X-0.100000X0.225000X-0.100000X0*%
%ADD64R,1.000000X0.750000*%
%ADD65R,1.200000X1.400000*%
%ADD66RoundRect,0.237500X-0.300000X-0.237500X0.300000X-0.237500X0.300000X0.237500X-0.300000X0.237500X0*%
%ADD67RoundRect,0.250000X-0.250000X0.250000X-0.250000X-0.250000X0.250000X-0.250000X0.250000X0.250000X0*%
%ADD68RoundRect,0.237500X0.237500X-0.300000X0.237500X0.300000X-0.237500X0.300000X-0.237500X-0.300000X0*%
%ADD69R,0.700000X0.300000*%
%ADD70R,1.000000X0.300000*%
%ADD71RoundRect,0.250000X0.250000X-0.250000X0.250000X0.250000X-0.250000X0.250000X-0.250000X-0.250000X0*%
%ADD72R,0.300000X0.400000*%
%ADD73R,1.600000X0.200000*%
%ADD74O,1.947800X3.250000*%
%ADD75RoundRect,0.250000X0.625000X-0.350000X0.625000X0.350000X-0.625000X0.350000X-0.625000X-0.350000X0*%
%ADD76O,1.750000X1.200000*%
%ADD77O,1.600000X2.500000*%
%ADD78C,0.700000*%
%ADD79C,0.804000*%
%ADD80O,1.204000X2.204000*%
%ADD81C,1.104000*%
G04 APERTURE END LIST*
D10*
G36*
X196138800Y-143103600D02*
G01*
X196262106Y-143187192D01*
X196376141Y-143272142D01*
X196481154Y-143358278D01*
X196577394Y-143445426D01*
X196665108Y-143533414D01*
X196744545Y-143622068D01*
X196815953Y-143711215D01*
X196879580Y-143800682D01*
X196935676Y-143890295D01*
X196984487Y-143979881D01*
X197026263Y-144069268D01*
X197061251Y-144158282D01*
X197089701Y-144246749D01*
X197111859Y-144334497D01*
X197127975Y-144421352D01*
X197138297Y-144507142D01*
X197143073Y-144591692D01*
X197142551Y-144674831D01*
X197136980Y-144756384D01*
X197126607Y-144836178D01*
X197111682Y-144914040D01*
X197092453Y-144989798D01*
X197069167Y-145063277D01*
X197042074Y-145134305D01*
X197011420Y-145202708D01*
X196977456Y-145268313D01*
X196940428Y-145330948D01*
X196900586Y-145390438D01*
X196858177Y-145446611D01*
X196813450Y-145499293D01*
X196766653Y-145548312D01*
X196745009Y-145570862D01*
X196724729Y-145593834D01*
X196705823Y-145617187D01*
X196688299Y-145640877D01*
X196672165Y-145664863D01*
X196657430Y-145689103D01*
X196644103Y-145713553D01*
X196632191Y-145738171D01*
X196621704Y-145762915D01*
X196612650Y-145787743D01*
X196605036Y-145812612D01*
X196598873Y-145837480D01*
X196594168Y-145862305D01*
X196590929Y-145887043D01*
X196589166Y-145911653D01*
X196588886Y-145936092D01*
X196590099Y-145960318D01*
X196592812Y-145984288D01*
X196597035Y-146007961D01*
X196602775Y-146031293D01*
X196610041Y-146054242D01*
X196618841Y-146076766D01*
X196629185Y-146098823D01*
X196641080Y-146120370D01*
X196654535Y-146141365D01*
X196669558Y-146161764D01*
X196686159Y-146181527D01*
X196704345Y-146200611D01*
X196724124Y-146218972D01*
X196745506Y-146236569D01*
X196768499Y-146253360D01*
X196793112Y-146269302D01*
X196825068Y-146286463D01*
X196857609Y-146300782D01*
X196890622Y-146312326D01*
X196923995Y-146321159D01*
X196957615Y-146327347D01*
X196991370Y-146330955D01*
X197025146Y-146332049D01*
X197058832Y-146330693D01*
X197092314Y-146326954D01*
X197125480Y-146320897D01*
X197158217Y-146312588D01*
X197190413Y-146302090D01*
X197221955Y-146289471D01*
X197252730Y-146274795D01*
X197282626Y-146258129D01*
X197311530Y-146239536D01*
X197339329Y-146219083D01*
X197365911Y-146196835D01*
X197391163Y-146172858D01*
X197414973Y-146147216D01*
X197437228Y-146119976D01*
X197457814Y-146091202D01*
X197476621Y-146060960D01*
X197493534Y-146029316D01*
X197508442Y-145996335D01*
X197521231Y-145962082D01*
X197531789Y-145926623D01*
X197540004Y-145890022D01*
X197545763Y-145852347D01*
X197548952Y-145813661D01*
X197549460Y-145774030D01*
X197547174Y-145733520D01*
X197539223Y-145612543D01*
X197537821Y-145497747D01*
X197539637Y-145442709D01*
X197543163Y-145389268D01*
X197548423Y-145337440D01*
X197555443Y-145287243D01*
X197564244Y-145238692D01*
X197574853Y-145191806D01*
X197587294Y-145146601D01*
X197601590Y-145103094D01*
X197617765Y-145061302D01*
X197635845Y-145021241D01*
X197655852Y-144982930D01*
X197677812Y-144946385D01*
X197701749Y-144911622D01*
X197727687Y-144878660D01*
X197755649Y-144847514D01*
X197785661Y-144818202D01*
X197817746Y-144790740D01*
X197851930Y-144765146D01*
X197888235Y-144741437D01*
X197926686Y-144719629D01*
X197967308Y-144699739D01*
X198010124Y-144681785D01*
X198055159Y-144665784D01*
X198102438Y-144651752D01*
X198151983Y-144639706D01*
X198203820Y-144629663D01*
X198257973Y-144621641D01*
X198314466Y-144615656D01*
X198270534Y-144703884D01*
X198235162Y-144787712D01*
X198207881Y-144867472D01*
X198188220Y-144943491D01*
X198175711Y-145016100D01*
X198169882Y-145085627D01*
X198170264Y-145152403D01*
X198176387Y-145216756D01*
X198187780Y-145279016D01*
X198203975Y-145339513D01*
X198224501Y-145398576D01*
X198248889Y-145456535D01*
X198276667Y-145513718D01*
X198307367Y-145570455D01*
X198375651Y-145683911D01*
X198526598Y-145919969D01*
X198601742Y-146047842D01*
X198637586Y-146115393D01*
X198671653Y-146185792D01*
X198703472Y-146259370D01*
X198732573Y-146336455D01*
X198758487Y-146417377D01*
X198780742Y-146502465D01*
X198798870Y-146592050D01*
X198812401Y-146686459D01*
X198820863Y-146786024D01*
X198823789Y-146891072D01*
X198817211Y-147057675D01*
X198797214Y-147228920D01*
X198763400Y-147403090D01*
X198715372Y-147578472D01*
X198652732Y-147753350D01*
X198575083Y-147926009D01*
X198530506Y-148010971D01*
X198482028Y-148094734D01*
X198429600Y-148177086D01*
X198373170Y-148257810D01*
X198312691Y-148336694D01*
X198248112Y-148413523D01*
X198179383Y-148488082D01*
X198106455Y-148560156D01*
X198029279Y-148629533D01*
X197947804Y-148695996D01*
X197861981Y-148759332D01*
X197771760Y-148819327D01*
X197677092Y-148875765D01*
X197577927Y-148928433D01*
X197474215Y-148977117D01*
X197365906Y-149021601D01*
X197252952Y-149061672D01*
X197135302Y-149097115D01*
X197012907Y-149127716D01*
X196885716Y-149153260D01*
X196944182Y-149123357D01*
X196998112Y-149090770D01*
X197047625Y-149055606D01*
X197092835Y-149017971D01*
X197133860Y-148977972D01*
X197170815Y-148935715D01*
X197203817Y-148891307D01*
X197232981Y-148844855D01*
X197258426Y-148796465D01*
X197280265Y-148746243D01*
X197298617Y-148694297D01*
X197313597Y-148640733D01*
X197325321Y-148585657D01*
X197333906Y-148529176D01*
X197339467Y-148471397D01*
X197342122Y-148412426D01*
X197342244Y-148369209D01*
X197340154Y-148326438D01*
X197335885Y-148284213D01*
X197329474Y-148242631D01*
X197320956Y-148201789D01*
X197310365Y-148161788D01*
X197297738Y-148122723D01*
X197283108Y-148084695D01*
X197266511Y-148047799D01*
X197247982Y-148012136D01*
X197227557Y-147977802D01*
X197205270Y-147944897D01*
X197181157Y-147913517D01*
X197155252Y-147883762D01*
X197127591Y-147855729D01*
X197098210Y-147829516D01*
X197067142Y-147805222D01*
X197034423Y-147782945D01*
X197000089Y-147762782D01*
X196964174Y-147744832D01*
X196926713Y-147729192D01*
X196887743Y-147715962D01*
X196847297Y-147705239D01*
X196805411Y-147697121D01*
X196762120Y-147691707D01*
X196717459Y-147689094D01*
X196671464Y-147689380D01*
X196624169Y-147692664D01*
X196575609Y-147699044D01*
X196525820Y-147708618D01*
X196474837Y-147721483D01*
X196422695Y-147737739D01*
X196369093Y-147753623D01*
X196316259Y-147765360D01*
X196264305Y-147773027D01*
X196213341Y-147776703D01*
X196163476Y-147776464D01*
X196114821Y-147772388D01*
X196067487Y-147764552D01*
X196021583Y-147753035D01*
X195977219Y-147737913D01*
X195934506Y-147719264D01*
X195893555Y-147697166D01*
X195854474Y-147671696D01*
X195817375Y-147642932D01*
X195782368Y-147610951D01*
X195749562Y-147575830D01*
X195719069Y-147537648D01*
X195690998Y-147496481D01*
X195665459Y-147452407D01*
X195642564Y-147405505D01*
X195622421Y-147355850D01*
X195605142Y-147303521D01*
X195590835Y-147248596D01*
X195579613Y-147191151D01*
X195571584Y-147131264D01*
X195566860Y-147069014D01*
X195565550Y-147004476D01*
X195567764Y-146937730D01*
X195573613Y-146868851D01*
X195583207Y-146797919D01*
X195596655Y-146725010D01*
X195614070Y-146650202D01*
X195635560Y-146573572D01*
X195548400Y-146655017D01*
X195467939Y-146739189D01*
X195394094Y-146825832D01*
X195326780Y-146914688D01*
X195265915Y-147005502D01*
X195211414Y-147098017D01*
X195163195Y-147191975D01*
X195121173Y-147287120D01*
X195085265Y-147383196D01*
X195055387Y-147479945D01*
X195031456Y-147577110D01*
X195013389Y-147674435D01*
X195001101Y-147771664D01*
X194994509Y-147868538D01*
X194993530Y-147964803D01*
X194998079Y-148060200D01*
X195008075Y-148154473D01*
X195023432Y-148247365D01*
X195044067Y-148338620D01*
X195069897Y-148427981D01*
X195100838Y-148515191D01*
X195136806Y-148599993D01*
X195177719Y-148682130D01*
X195223492Y-148761346D01*
X195274042Y-148837384D01*
X195329285Y-148909987D01*
X195389138Y-148978898D01*
X195453517Y-149043861D01*
X195522338Y-149104619D01*
X195595519Y-149160914D01*
X195672975Y-149212491D01*
X195754622Y-149259093D01*
X195562023Y-149210582D01*
X195382129Y-149154631D01*
X195214623Y-149091667D01*
X195059187Y-149022118D01*
X194915504Y-148946411D01*
X194783257Y-148864975D01*
X194662129Y-148778236D01*
X194551802Y-148686622D01*
X194451958Y-148590560D01*
X194362282Y-148490479D01*
X194282454Y-148386805D01*
X194212158Y-148279967D01*
X194151077Y-148170391D01*
X194098893Y-148058506D01*
X194055289Y-147944738D01*
X194019948Y-147829516D01*
X193992552Y-147713267D01*
X193972783Y-147596418D01*
X193960326Y-147479398D01*
X193954861Y-147362633D01*
X193956073Y-147246551D01*
X193963643Y-147131579D01*
X193977255Y-147018146D01*
X193996590Y-146906679D01*
X194021332Y-146797604D01*
X194051164Y-146691351D01*
X194085767Y-146588346D01*
X194124825Y-146489017D01*
X194168021Y-146393791D01*
X194215036Y-146303096D01*
X194265554Y-146217360D01*
X194319258Y-146137010D01*
X194404424Y-146023893D01*
X194493330Y-145917307D01*
X194585375Y-145816651D01*
X194679959Y-145721325D01*
X194776481Y-145630726D01*
X194874340Y-145544255D01*
X194972936Y-145461311D01*
X195071667Y-145381294D01*
X195455932Y-145078470D01*
X195546331Y-145004072D01*
X195633260Y-144928996D01*
X195716120Y-144852641D01*
X195794310Y-144774406D01*
X195861363Y-144701235D01*
X195923320Y-144625293D01*
X195979734Y-144546135D01*
X196030161Y-144463314D01*
X196074154Y-144376384D01*
X196111267Y-144284901D01*
X196141055Y-144188418D01*
X196163073Y-144086489D01*
X196176874Y-143978669D01*
X196182012Y-143864513D01*
X196178043Y-143743574D01*
X196164520Y-143615407D01*
X196140997Y-143479566D01*
X196107030Y-143335605D01*
X196062171Y-143183079D01*
X196005976Y-143021541D01*
X196138800Y-143103600D01*
G37*
D11*
G36*
X200751493Y-96415520D02*
G01*
X200751493Y-95798563D01*
X200267306Y-95798563D01*
X200267306Y-96003727D01*
X200514382Y-96003727D01*
X200502904Y-96071892D01*
X200470533Y-96133099D01*
X200429831Y-96176087D01*
X200378561Y-96209475D01*
X200318513Y-96231097D01*
X200251479Y-96238786D01*
X200178176Y-96229857D01*
X200115851Y-96204774D01*
X200064132Y-96166097D01*
X200022648Y-96116384D01*
X199991028Y-96058194D01*
X199968902Y-95994087D01*
X199955899Y-95926620D01*
X199951647Y-95858353D01*
X199954745Y-95789204D01*
X199963857Y-95726551D01*
X199984877Y-95653235D01*
X200015432Y-95591743D01*
X200054862Y-95542236D01*
X200102507Y-95504870D01*
X200157709Y-95479803D01*
X200219808Y-95467194D01*
X200253238Y-95465611D01*
X200321049Y-95473505D01*
X200382001Y-95495874D01*
X200433070Y-95530746D01*
X200471229Y-95576152D01*
X200495395Y-95639810D01*
X200496797Y-95649672D01*
X200750614Y-95649672D01*
X200740611Y-95585852D01*
X200721106Y-95526252D01*
X200692763Y-95471322D01*
X200656250Y-95421511D01*
X200612233Y-95377268D01*
X200561378Y-95339042D01*
X200504353Y-95307282D01*
X200441824Y-95282438D01*
X200374456Y-95264959D01*
X200302918Y-95255293D01*
X200253238Y-95253413D01*
X200186682Y-95256511D01*
X200124203Y-95265598D01*
X200065830Y-95280366D01*
X199986035Y-95312491D01*
X199915648Y-95355654D01*
X199854770Y-95408812D01*
X199803503Y-95470919D01*
X199761948Y-95540931D01*
X199730207Y-95617803D01*
X199708381Y-95700491D01*
X199696571Y-95787949D01*
X199694312Y-95848388D01*
X199699541Y-95935525D01*
X199714938Y-96020289D01*
X199740069Y-96101325D01*
X199774498Y-96177282D01*
X199817791Y-96246804D01*
X199869514Y-96308540D01*
X199929231Y-96361136D01*
X199996508Y-96403238D01*
X200070910Y-96433493D01*
X200152003Y-96450547D01*
X200209567Y-96453915D01*
X200280285Y-96449884D01*
X200346028Y-96438499D01*
X200405212Y-96420818D01*
X200465349Y-96392783D01*
X200517040Y-96352992D01*
X200536071Y-96327886D01*
X200539881Y-96416400D01*
X200751493Y-96415520D01*
G37*
G36*
X201564822Y-96016330D02*
G01*
X201545874Y-96077920D01*
X201513918Y-96138407D01*
X201471599Y-96184065D01*
X201418592Y-96214698D01*
X201354573Y-96230109D01*
X201318332Y-96232045D01*
X201256474Y-96225655D01*
X201190918Y-96200118D01*
X201138367Y-96155816D01*
X201098747Y-96093533D01*
X201076311Y-96031288D01*
X201062067Y-95958438D01*
X201056736Y-95897085D01*
X201055722Y-95853078D01*
X201058014Y-95788730D01*
X201064941Y-95729703D01*
X201081518Y-95659657D01*
X201106646Y-95599985D01*
X201140506Y-95551207D01*
X201195380Y-95506350D01*
X201264524Y-95480353D01*
X201330349Y-95473818D01*
X201389117Y-95481209D01*
X201451564Y-95508031D01*
X201497689Y-95546010D01*
X201534986Y-95597262D01*
X201561566Y-95661253D01*
X201564822Y-95673120D01*
X201816001Y-95673120D01*
X201805356Y-95608178D01*
X201786634Y-95546665D01*
X201760122Y-95489227D01*
X201726104Y-95436509D01*
X201684866Y-95389158D01*
X201636694Y-95347821D01*
X201581873Y-95313144D01*
X201520689Y-95285772D01*
X201453426Y-95266352D01*
X201380371Y-95255531D01*
X201328590Y-95253413D01*
X201269329Y-95256154D01*
X201185919Y-95270331D01*
X201109468Y-95296167D01*
X201040404Y-95333194D01*
X200979158Y-95380941D01*
X200926158Y-95438939D01*
X200881832Y-95506719D01*
X200846609Y-95583812D01*
X200828397Y-95640148D01*
X200814549Y-95700275D01*
X200805191Y-95764055D01*
X200800452Y-95831347D01*
X200799853Y-95866267D01*
X200802503Y-95935898D01*
X200810292Y-96001332D01*
X200822981Y-96062529D01*
X200840332Y-96119448D01*
X200874575Y-96196714D01*
X200917960Y-96264125D01*
X200969681Y-96321543D01*
X201028931Y-96368830D01*
X201094902Y-96405848D01*
X201166787Y-96432460D01*
X201243780Y-96448529D01*
X201325073Y-96453915D01*
X201396706Y-96449430D01*
X201463734Y-96436237D01*
X201525924Y-96414736D01*
X201583044Y-96385322D01*
X201634863Y-96348392D01*
X201681148Y-96304344D01*
X201721669Y-96253574D01*
X201756192Y-96196480D01*
X201784487Y-96133459D01*
X201806321Y-96064907D01*
X201817173Y-96016330D01*
X201564822Y-96016330D01*
G37*
G36*
X202503007Y-96036846D02*
G01*
X202497971Y-96097255D01*
X202478430Y-96155389D01*
X202436568Y-96204003D01*
X202373632Y-96232631D01*
X202315459Y-96241252D01*
X202289051Y-96242010D01*
X202226302Y-96233697D01*
X202168012Y-96204010D01*
X202126748Y-96154498D01*
X202105699Y-96097633D01*
X202098541Y-96028640D01*
X202098541Y-95290928D01*
X201842672Y-95290928D01*
X201842672Y-96050328D01*
X201847245Y-96122995D01*
X201860706Y-96188355D01*
X201882669Y-96246444D01*
X201912750Y-96297294D01*
X201964818Y-96353898D01*
X202029718Y-96397779D01*
X202086265Y-96422391D01*
X202149130Y-96439928D01*
X202217929Y-96450424D01*
X202292275Y-96453915D01*
X202372222Y-96450126D01*
X202445395Y-96438809D01*
X202511554Y-96420041D01*
X202570462Y-96393900D01*
X202621882Y-96360461D01*
X202665575Y-96319802D01*
X202701306Y-96271999D01*
X202728834Y-96217129D01*
X202747924Y-96155270D01*
X202758337Y-96086497D01*
X202760342Y-96036846D01*
X202760342Y-95290928D01*
X202503007Y-95290928D01*
X202503007Y-96036846D01*
G37*
G36*
X204103286Y-95636483D02*
G01*
X204096767Y-95575088D01*
X204082259Y-95517654D01*
X204050758Y-95448024D01*
X204005703Y-95387318D01*
X203947467Y-95336612D01*
X203895362Y-95305792D01*
X203836207Y-95281655D01*
X203770159Y-95264655D01*
X203697373Y-95255245D01*
X203645185Y-95253413D01*
X203571019Y-95257252D01*
X203504009Y-95268457D01*
X203444185Y-95286556D01*
X203375651Y-95320599D01*
X203320018Y-95364945D01*
X203277358Y-95418478D01*
X203247745Y-95480082D01*
X203231249Y-95548639D01*
X203227529Y-95603950D01*
X203232627Y-95666770D01*
X203251759Y-95731651D01*
X203284346Y-95786169D01*
X203329600Y-95831483D01*
X203386731Y-95868752D01*
X203419504Y-95884732D01*
X203481928Y-95908816D01*
X203542354Y-95926990D01*
X203600379Y-95941689D01*
X203665759Y-95956640D01*
X203726957Y-95970021D01*
X203792875Y-95987667D01*
X203851029Y-96015362D01*
X203887790Y-96063088D01*
X203892847Y-96100447D01*
X203879383Y-96162665D01*
X203839651Y-96208671D01*
X203784114Y-96234634D01*
X203721610Y-96245597D01*
X203685338Y-96246993D01*
X203620940Y-96242275D01*
X203555640Y-96224439D01*
X203504478Y-96193792D01*
X203464173Y-96142510D01*
X203447541Y-96085816D01*
X203445882Y-96064397D01*
X203202030Y-96064397D01*
X203208513Y-96134753D01*
X203224621Y-96197969D01*
X203249793Y-96254095D01*
X203283468Y-96303176D01*
X203325085Y-96345262D01*
X203374085Y-96380400D01*
X203429905Y-96408638D01*
X203491985Y-96430024D01*
X203559764Y-96444605D01*
X203632683Y-96452429D01*
X203683873Y-96453915D01*
X203755837Y-96450914D01*
X203823450Y-96441836D01*
X203886116Y-96426573D01*
X203943240Y-96405012D01*
X204009754Y-96366281D01*
X204063944Y-96315899D01*
X204104399Y-96253606D01*
X204129708Y-96179140D01*
X204137900Y-96115145D01*
X204138457Y-96092240D01*
X204132716Y-96023343D01*
X204116486Y-95966029D01*
X204085261Y-95910597D01*
X204043650Y-95867468D01*
X203994226Y-95834255D01*
X203958206Y-95816441D01*
X203898174Y-95793107D01*
X203839289Y-95774339D01*
X203775137Y-95756440D01*
X203707226Y-95739156D01*
X203648848Y-95725038D01*
X203625254Y-95719428D01*
X203564696Y-95702109D01*
X203507266Y-95675318D01*
X203466289Y-95627887D01*
X203459658Y-95589002D01*
X203474544Y-95531851D01*
X203519490Y-95492530D01*
X203575505Y-95474826D01*
X203638352Y-95468958D01*
X203650167Y-95468835D01*
X203709492Y-95472590D01*
X203766985Y-95487372D01*
X203816350Y-95519608D01*
X203848043Y-95568968D01*
X203863538Y-95636483D01*
X204103286Y-95636483D01*
G37*
G36*
X204609455Y-96416400D02*
G01*
X204609455Y-95290928D01*
X204413670Y-95290928D01*
X204400438Y-95356780D01*
X204368159Y-95414813D01*
X204312116Y-95453623D01*
X204254262Y-95470167D01*
X204195632Y-95476994D01*
X204143733Y-95478507D01*
X204143733Y-95648500D01*
X204372344Y-95648500D01*
X204372344Y-96416400D01*
X204609455Y-96416400D01*
G37*
G36*
X200177622Y-97307547D02*
G01*
X200259673Y-97316697D01*
X200336333Y-97336465D01*
X200406934Y-97366434D01*
X200470805Y-97406187D01*
X200527278Y-97455306D01*
X200575683Y-97513374D01*
X200615350Y-97579974D01*
X200645611Y-97654688D01*
X200665795Y-97737100D01*
X200673322Y-97796111D01*
X200675875Y-97858233D01*
X200675298Y-97889690D01*
X200670736Y-97950688D01*
X200661756Y-98008971D01*
X200640334Y-98090884D01*
X200609819Y-98165602D01*
X200570720Y-98232472D01*
X200523547Y-98290844D01*
X200468808Y-98340065D01*
X200407011Y-98379483D01*
X200338665Y-98408447D01*
X200264279Y-98426303D01*
X200184361Y-98432400D01*
X199707794Y-98432400D01*
X199707794Y-98224012D01*
X199953405Y-98224012D01*
X200137173Y-98224012D01*
X200206232Y-98218380D01*
X200264847Y-98201439D01*
X200324007Y-98164247D01*
X200368188Y-98109129D01*
X200393248Y-98052033D01*
X200409579Y-97983303D01*
X200416327Y-97924076D01*
X200418541Y-97858233D01*
X200417566Y-97813950D01*
X200412320Y-97754021D01*
X200397841Y-97685793D01*
X200366803Y-97618308D01*
X200320213Y-97569348D01*
X200256810Y-97537573D01*
X200193133Y-97523624D01*
X200117243Y-97519127D01*
X199953405Y-97519127D01*
X199953405Y-98224012D01*
X199707794Y-98224012D01*
X199707794Y-97306928D01*
X200149190Y-97306928D01*
X200177622Y-97307547D01*
G37*
G36*
X201191947Y-97574039D02*
G01*
X201254999Y-97587519D01*
X201311599Y-97609950D01*
X201361641Y-97641301D01*
X201405021Y-97681540D01*
X201441636Y-97730638D01*
X201471380Y-97788565D01*
X201494150Y-97855289D01*
X201509841Y-97930780D01*
X201518349Y-98015009D01*
X201519979Y-98076000D01*
X200951088Y-98076000D01*
X200954288Y-98105856D01*
X200973362Y-98167127D01*
X201007598Y-98214714D01*
X201063568Y-98249272D01*
X201125771Y-98259476D01*
X201185473Y-98250282D01*
X201236870Y-98219325D01*
X201266455Y-98167152D01*
X201511479Y-98167152D01*
X201486968Y-98232453D01*
X201454917Y-98289549D01*
X201415894Y-98338286D01*
X201370465Y-98378507D01*
X201319198Y-98410060D01*
X201262658Y-98432789D01*
X201201413Y-98446539D01*
X201136029Y-98451157D01*
X201110215Y-98450698D01*
X201037578Y-98443834D01*
X200972174Y-98428792D01*
X200914038Y-98405639D01*
X200863205Y-98374445D01*
X200806848Y-98320460D01*
X200773191Y-98270766D01*
X200746952Y-98213257D01*
X200728168Y-98148001D01*
X200716871Y-98075066D01*
X200713098Y-97994521D01*
X200717056Y-97925252D01*
X200718105Y-97919490D01*
X200957829Y-97919490D01*
X201275834Y-97919490D01*
X201264189Y-97858091D01*
X201230975Y-97806253D01*
X201175225Y-97771442D01*
X201115806Y-97761513D01*
X201056789Y-97772472D01*
X201002976Y-97809162D01*
X200970734Y-97861026D01*
X200957829Y-97919490D01*
X200718105Y-97919490D01*
X200728782Y-97860832D01*
X200748052Y-97801690D01*
X200774644Y-97748255D01*
X200821102Y-97686628D01*
X200879651Y-97636926D01*
X200931178Y-97608088D01*
X200988985Y-97586957D01*
X201052849Y-97573965D01*
X201122547Y-97569538D01*
X201191947Y-97574039D01*
G37*
G36*
X202302533Y-97859113D02*
G01*
X202293039Y-97792057D01*
X202273787Y-97733619D01*
X202235493Y-97672842D01*
X202180780Y-97625880D01*
X202124752Y-97598388D01*
X202057467Y-97579962D01*
X201978591Y-97570701D01*
X201934703Y-97569538D01*
X201866701Y-97572423D01*
X201806609Y-97580806D01*
X201738329Y-97599835D01*
X201683005Y-97626956D01*
X201631105Y-97670772D01*
X201597227Y-97723851D01*
X201580135Y-97784314D01*
X201577425Y-97823356D01*
X201584793Y-97884442D01*
X201608827Y-97940643D01*
X201652423Y-97990550D01*
X201686162Y-98015037D01*
X201742063Y-98043753D01*
X201803867Y-98066373D01*
X201860173Y-98082892D01*
X201926851Y-98100033D01*
X201964598Y-98109120D01*
X202024862Y-98125553D01*
X202077853Y-98157243D01*
X202090042Y-98192651D01*
X202058889Y-98246049D01*
X202000357Y-98264886D01*
X201953168Y-98267975D01*
X201892088Y-98262088D01*
X201833550Y-98237237D01*
X201797230Y-98186868D01*
X201791088Y-98145170D01*
X201546943Y-98145170D01*
X201555013Y-98210490D01*
X201576110Y-98269642D01*
X201609854Y-98321842D01*
X201655863Y-98366307D01*
X201713756Y-98402255D01*
X201783152Y-98428901D01*
X201842518Y-98442310D01*
X201907979Y-98449717D01*
X201954926Y-98451157D01*
X202019125Y-98448361D01*
X202077599Y-98440099D01*
X202146437Y-98420911D01*
X202204565Y-98392800D01*
X202251676Y-98356219D01*
X202294606Y-98299273D01*
X202319249Y-98230686D01*
X202325394Y-98168031D01*
X202318025Y-98103027D01*
X202292411Y-98043952D01*
X202249854Y-97999000D01*
X202191810Y-97965973D01*
X202183538Y-97962574D01*
X202123493Y-97942821D01*
X202062493Y-97926336D01*
X202004784Y-97911590D01*
X201944362Y-97895561D01*
X201935582Y-97893111D01*
X201878320Y-97875567D01*
X201825089Y-97847937D01*
X201808088Y-97809580D01*
X201845733Y-97761709D01*
X201906381Y-97751988D01*
X201927962Y-97751548D01*
X201989763Y-97756714D01*
X202044472Y-97784948D01*
X202070060Y-97838385D01*
X202074215Y-97860578D01*
X202302533Y-97859113D01*
G37*
G36*
X202610572Y-98432400D02*
G01*
X202610572Y-97588296D01*
X202373461Y-97588296D01*
X202373461Y-98432400D01*
X202610572Y-98432400D01*
G37*
G36*
X202610572Y-97510334D02*
G01*
X202610572Y-97288171D01*
X202373461Y-97288171D01*
X202373461Y-97510334D01*
X202610572Y-97510334D01*
G37*
G36*
X203110456Y-97575371D02*
G01*
X203174952Y-97594697D01*
X203226510Y-97624865D01*
X203267097Y-97668310D01*
X203267097Y-97588296D01*
X203504208Y-97588296D01*
X203504208Y-98424779D01*
X203502044Y-98472565D01*
X203491010Y-98538760D01*
X203471253Y-98598308D01*
X203443475Y-98651131D01*
X203395170Y-98710974D01*
X203335515Y-98758552D01*
X203266170Y-98793686D01*
X203208803Y-98811763D01*
X203147622Y-98822664D01*
X203083328Y-98826314D01*
X203019250Y-98822730D01*
X202958800Y-98812106D01*
X202884854Y-98787327D01*
X202819782Y-98750839D01*
X202764968Y-98703103D01*
X202721795Y-98644578D01*
X202691648Y-98575726D01*
X202678419Y-98517585D01*
X202673880Y-98454088D01*
X202896043Y-98454088D01*
X202896813Y-98473864D01*
X202911168Y-98533357D01*
X202948127Y-98582557D01*
X203004612Y-98611317D01*
X203068088Y-98619392D01*
X203108952Y-98616281D01*
X203172452Y-98596519D01*
X203222505Y-98559890D01*
X203255317Y-98507978D01*
X203267097Y-98442365D01*
X203267097Y-98353265D01*
X203227184Y-98389468D01*
X203171270Y-98413480D01*
X203109242Y-98427910D01*
X203049623Y-98432400D01*
X203024047Y-98431778D01*
X202953536Y-98422763D01*
X202892023Y-98403853D01*
X202839096Y-98376110D01*
X202781164Y-98327220D01*
X202736774Y-98267040D01*
X202704945Y-98198091D01*
X202684695Y-98122894D01*
X202676514Y-98063913D01*
X202674317Y-98013865D01*
X202919490Y-98013865D01*
X202924748Y-98076204D01*
X202943931Y-98139336D01*
X202981791Y-98195311D01*
X203033605Y-98230354D01*
X203096517Y-98242476D01*
X203159114Y-98231050D01*
X203210998Y-98198024D01*
X203249112Y-98145276D01*
X203268506Y-98085789D01*
X203273838Y-98027054D01*
X203273669Y-98011040D01*
X203267746Y-97939280D01*
X203249340Y-97871016D01*
X203212039Y-97815088D01*
X203157395Y-97783629D01*
X203096517Y-97775289D01*
X203075113Y-97776168D01*
X203011028Y-97793344D01*
X202963820Y-97833137D01*
X202936817Y-97885932D01*
X202923824Y-97943537D01*
X202919490Y-98013865D01*
X202674317Y-98013865D01*
X202673880Y-98003900D01*
X202678170Y-97934128D01*
X202690615Y-97868910D01*
X202710573Y-97808750D01*
X202737404Y-97754152D01*
X202782763Y-97690878D01*
X202837685Y-97639585D01*
X202900650Y-97601467D01*
X202970141Y-97577720D01*
X203044640Y-97569538D01*
X203110456Y-97575371D01*
G37*
G36*
X204348604Y-98432400D02*
G01*
X204348604Y-97854130D01*
X204343062Y-97789140D01*
X204327075Y-97732135D01*
X204293864Y-97672429D01*
X204247701Y-97625936D01*
X204190459Y-97593066D01*
X204124010Y-97574230D01*
X204065478Y-97569538D01*
X204005469Y-97573257D01*
X203942771Y-97586570D01*
X203882846Y-97612122D01*
X203832381Y-97651177D01*
X203807557Y-97685016D01*
X203807557Y-97588296D01*
X203580704Y-97588296D01*
X203580704Y-98432400D01*
X203817815Y-98432400D01*
X203817815Y-97950264D01*
X203823192Y-97888272D01*
X203843384Y-97832783D01*
X203885515Y-97791048D01*
X203948786Y-97771834D01*
X203978136Y-97770306D01*
X204040986Y-97776901D01*
X204091692Y-97815175D01*
X204107294Y-97872182D01*
X204109734Y-97923300D01*
X204109734Y-98432400D01*
X204348604Y-98432400D01*
G37*
G36*
X204884899Y-97574039D02*
G01*
X204947951Y-97587519D01*
X205004550Y-97609950D01*
X205054592Y-97641301D01*
X205097973Y-97681540D01*
X205134588Y-97730638D01*
X205164332Y-97788565D01*
X205187102Y-97855289D01*
X205202793Y-97930780D01*
X205211301Y-98015009D01*
X205212931Y-98076000D01*
X204644040Y-98076000D01*
X204647240Y-98105856D01*
X204666314Y-98167127D01*
X204700550Y-98214714D01*
X204756520Y-98249272D01*
X204818723Y-98259476D01*
X204878425Y-98250282D01*
X204929822Y-98219325D01*
X204959406Y-98167152D01*
X205204431Y-98167152D01*
X205179919Y-98232453D01*
X205147869Y-98289549D01*
X205108846Y-98338286D01*
X205063417Y-98378507D01*
X205012150Y-98410060D01*
X204955610Y-98432789D01*
X204894365Y-98446539D01*
X204828981Y-98451157D01*
X204803167Y-98450698D01*
X204730530Y-98443834D01*
X204665126Y-98428792D01*
X204606990Y-98405639D01*
X204556157Y-98374445D01*
X204499800Y-98320460D01*
X204466143Y-98270766D01*
X204439904Y-98213257D01*
X204421119Y-98148001D01*
X204409823Y-98075066D01*
X204406050Y-97994521D01*
X204410008Y-97925252D01*
X204411057Y-97919490D01*
X204650781Y-97919490D01*
X204968785Y-97919490D01*
X204957141Y-97858091D01*
X204923927Y-97806253D01*
X204868177Y-97771442D01*
X204808757Y-97761513D01*
X204749741Y-97772472D01*
X204695928Y-97809162D01*
X204663686Y-97861026D01*
X204650781Y-97919490D01*
X204411057Y-97919490D01*
X204421734Y-97860832D01*
X204441004Y-97801690D01*
X204467596Y-97748255D01*
X204514054Y-97686628D01*
X204572603Y-97636926D01*
X204624130Y-97608088D01*
X204681937Y-97586957D01*
X204745801Y-97573965D01*
X204815499Y-97569538D01*
X204884899Y-97574039D01*
G37*
G36*
X206070516Y-98432400D02*
G01*
X205841612Y-98432400D01*
X205840732Y-98351506D01*
X205837140Y-98357001D01*
X205793757Y-98400853D01*
X205740195Y-98429748D01*
X205683507Y-98445578D01*
X205619155Y-98451157D01*
X205599406Y-98450660D01*
X205524149Y-98438928D01*
X205455726Y-98412163D01*
X205395274Y-98371110D01*
X205343929Y-98316515D01*
X205312082Y-98267131D01*
X205286477Y-98210863D01*
X205267594Y-98148025D01*
X205255912Y-98078933D01*
X205252615Y-98017089D01*
X205492540Y-98017089D01*
X205492751Y-98030302D01*
X205499935Y-98091892D01*
X205521041Y-98154802D01*
X205554232Y-98203940D01*
X205606067Y-98241358D01*
X205669567Y-98254493D01*
X205731126Y-98242022D01*
X205782480Y-98206559D01*
X205820406Y-98151033D01*
X205839786Y-98089687D01*
X205845129Y-98030278D01*
X205844960Y-98014228D01*
X205839035Y-97942071D01*
X205820739Y-97872998D01*
X205783940Y-97815978D01*
X205730464Y-97783635D01*
X205671326Y-97774995D01*
X205649032Y-97775911D01*
X205583197Y-97793679D01*
X205535771Y-97834493D01*
X205509212Y-97888210D01*
X205496663Y-97946432D01*
X205492540Y-98017089D01*
X205252615Y-98017089D01*
X205251912Y-98003900D01*
X205255323Y-97935076D01*
X205265413Y-97870433D01*
X205281967Y-97810538D01*
X205313724Y-97739038D01*
X205356085Y-97678322D01*
X205408540Y-97629728D01*
X205470581Y-97594596D01*
X205541700Y-97574266D01*
X205600690Y-97569538D01*
X205620123Y-97570051D01*
X205684019Y-97579526D01*
X205740642Y-97599837D01*
X205794983Y-97634454D01*
X205836629Y-97679155D01*
X205836629Y-97288171D01*
X206070516Y-97288171D01*
X206070516Y-98432400D01*
G37*
G36*
X206785073Y-97679155D02*
G01*
X206794204Y-97667153D01*
X206839240Y-97624769D01*
X206896551Y-97593013D01*
X206955364Y-97575649D01*
X207021012Y-97569538D01*
X207098605Y-97577885D01*
X207167502Y-97602017D01*
X207227194Y-97640574D01*
X207277173Y-97692197D01*
X207316931Y-97755525D01*
X207339735Y-97809885D01*
X207356289Y-97869490D01*
X207366379Y-97933767D01*
X207369790Y-98002141D01*
X207365790Y-98077624D01*
X207354108Y-98147082D01*
X207335225Y-98210210D01*
X207309620Y-98266702D01*
X207265853Y-98331173D01*
X207212125Y-98382579D01*
X207149573Y-98420195D01*
X207079335Y-98443296D01*
X207002547Y-98451157D01*
X206938231Y-98445603D01*
X206874251Y-98426971D01*
X206822429Y-98397397D01*
X206781263Y-98353851D01*
X206779797Y-98432400D01*
X206551479Y-98432400D01*
X206551479Y-98030278D01*
X206776866Y-98030278D01*
X206782208Y-98089687D01*
X206801577Y-98151033D01*
X206839463Y-98206559D01*
X206890729Y-98242022D01*
X206952135Y-98254493D01*
X206961849Y-98254216D01*
X207023938Y-98237430D01*
X207073888Y-98196787D01*
X207105130Y-98145223D01*
X207124013Y-98080200D01*
X207129162Y-98017089D01*
X207128999Y-98001954D01*
X207123212Y-97933799D01*
X207105051Y-97868361D01*
X207067812Y-97814146D01*
X207012587Y-97783272D01*
X206950376Y-97774995D01*
X206919346Y-97777146D01*
X206858834Y-97799138D01*
X206814957Y-97845492D01*
X206790575Y-97905171D01*
X206779573Y-97969324D01*
X206776866Y-98030278D01*
X206551479Y-98030278D01*
X206551479Y-97288171D01*
X206785073Y-97288171D01*
X206785073Y-97679155D01*
G37*
G36*
X207957732Y-98440899D02*
G01*
X207948752Y-98507396D01*
X207919720Y-98565992D01*
X207869694Y-98607164D01*
X207815875Y-98619392D01*
X207751860Y-98611174D01*
X207698686Y-98582026D01*
X207666250Y-98532411D01*
X207654405Y-98472705D01*
X207653796Y-98452916D01*
X207431926Y-98452916D01*
X207435287Y-98516510D01*
X207445340Y-98574770D01*
X207469068Y-98643808D01*
X207504494Y-98702529D01*
X207551503Y-98750457D01*
X207609982Y-98787114D01*
X207679818Y-98812023D01*
X207739579Y-98822708D01*
X207805617Y-98826314D01*
X207864931Y-98822625D01*
X207939512Y-98806432D01*
X208007518Y-98777720D01*
X208067389Y-98736887D01*
X208117566Y-98684331D01*
X208156489Y-98620452D01*
X208177358Y-98565350D01*
X208190362Y-98504271D01*
X208194843Y-98437382D01*
X208194843Y-97588296D01*
X207957732Y-97588296D01*
X207957732Y-98094465D01*
X207946351Y-98152053D01*
X207908832Y-98201927D01*
X207856766Y-98229324D01*
X207799169Y-98237494D01*
X207735497Y-98226513D01*
X207689997Y-98187910D01*
X207670998Y-98128548D01*
X207669037Y-98094465D01*
X207669037Y-97588296D01*
X207431926Y-97588296D01*
X207431926Y-98125826D01*
X207438076Y-98191761D01*
X207455794Y-98251255D01*
X207483981Y-98303585D01*
X207532263Y-98357818D01*
X207593038Y-98398309D01*
X207649211Y-98419855D01*
X207710906Y-98430975D01*
X207743482Y-98432400D01*
X207810151Y-98426410D01*
X207869723Y-98410910D01*
X207923141Y-98386294D01*
X207957732Y-98353265D01*
X207957732Y-98440899D01*
G37*
G36*
X209774898Y-98432400D02*
G01*
X209774898Y-97306928D01*
X209422309Y-97306928D01*
X209227990Y-98089189D01*
X209033670Y-97306928D01*
X208674047Y-97306928D01*
X208674047Y-98432400D01*
X208909693Y-98432400D01*
X208900314Y-97668310D01*
X209099909Y-98432400D01*
X209345813Y-98432400D01*
X209547166Y-97664793D01*
X209537787Y-98432400D01*
X209774898Y-98432400D01*
G37*
G36*
X210089092Y-98432400D02*
G01*
X210089092Y-97588296D01*
X209851981Y-97588296D01*
X209851981Y-98432400D01*
X210089092Y-98432400D01*
G37*
G36*
X210089092Y-97510334D02*
G01*
X210089092Y-97288171D01*
X209851981Y-97288171D01*
X209851981Y-97510334D01*
X210089092Y-97510334D01*
G37*
G36*
X210638053Y-98092120D02*
G01*
X210631133Y-98157329D01*
X210602007Y-98213398D01*
X210548378Y-98240347D01*
X210519644Y-98242769D01*
X210460615Y-98230248D01*
X210417800Y-98181761D01*
X210404568Y-98124371D01*
X210402993Y-98088896D01*
X210402993Y-97761806D01*
X210860216Y-97761806D01*
X210860216Y-97588296D01*
X210402993Y-97588296D01*
X210402993Y-97363202D01*
X210169400Y-97363202D01*
X210169400Y-98110585D01*
X210174165Y-98176718D01*
X210188835Y-98239472D01*
X210213975Y-98297170D01*
X210250146Y-98348136D01*
X210297913Y-98390694D01*
X210357839Y-98423167D01*
X210430487Y-98443880D01*
X210493660Y-98450689D01*
X210516420Y-98451157D01*
X210580026Y-98446984D01*
X210654136Y-98429332D01*
X210716321Y-98399473D01*
X210766910Y-98359164D01*
X210806233Y-98310159D01*
X210834621Y-98254214D01*
X210852402Y-98193083D01*
X210859907Y-98128521D01*
X210860216Y-98112051D01*
X210860216Y-97869664D01*
X210638053Y-97869664D01*
X210638053Y-98092120D01*
G37*
G36*
X211455192Y-98111757D02*
G01*
X211439246Y-98172849D01*
X211401417Y-98219927D01*
X211346521Y-98244835D01*
X211302491Y-98249510D01*
X211244225Y-98234251D01*
X211195769Y-98187668D01*
X211169187Y-98131447D01*
X211155304Y-98070249D01*
X211150581Y-98011687D01*
X211150376Y-97995693D01*
X211153536Y-97936432D01*
X211165758Y-97876933D01*
X211196282Y-97818117D01*
X211246698Y-97780999D01*
X211309232Y-97770013D01*
X211370164Y-97780887D01*
X211421782Y-97818250D01*
X211450595Y-97874330D01*
X211457243Y-97906007D01*
X211695527Y-97906007D01*
X211683835Y-97831551D01*
X211660085Y-97765273D01*
X211625104Y-97707712D01*
X211579719Y-97659408D01*
X211524758Y-97620899D01*
X211461049Y-97592725D01*
X211389419Y-97575425D01*
X211330998Y-97569910D01*
X211310697Y-97569538D01*
X211246553Y-97573108D01*
X211186787Y-97583909D01*
X211114639Y-97609792D01*
X211052024Y-97649095D01*
X210999941Y-97702139D01*
X210959390Y-97769249D01*
X210937146Y-97829005D01*
X210922373Y-97896991D01*
X210915491Y-97973343D01*
X210915024Y-98000676D01*
X210919168Y-98080121D01*
X210931301Y-98152064D01*
X210950972Y-98216436D01*
X210977729Y-98273170D01*
X211011123Y-98322197D01*
X211065193Y-98375460D01*
X211129191Y-98414740D01*
X211202050Y-98439876D01*
X211261866Y-98449347D01*
X211303956Y-98451157D01*
X211378181Y-98445013D01*
X211447347Y-98427060D01*
X211510351Y-98398020D01*
X211566090Y-98358614D01*
X211613463Y-98309563D01*
X211651366Y-98251590D01*
X211678697Y-98185414D01*
X211694354Y-98111757D01*
X211455192Y-98111757D01*
G37*
G36*
X212505924Y-98432400D02*
G01*
X212505924Y-97842406D01*
X212500284Y-97782296D01*
X212478280Y-97716337D01*
X212441231Y-97661434D01*
X212390822Y-97618507D01*
X212328737Y-97588475D01*
X212271793Y-97574351D01*
X212209316Y-97569538D01*
X212147000Y-97575153D01*
X212089522Y-97589848D01*
X212032970Y-97614169D01*
X211984934Y-97648919D01*
X211975136Y-97663035D01*
X211975136Y-97288171D01*
X211738025Y-97288171D01*
X211738025Y-98432400D01*
X211975136Y-98432400D01*
X211975136Y-97952316D01*
X211983092Y-97886070D01*
X212006643Y-97830283D01*
X212052038Y-97784220D01*
X212107392Y-97763673D01*
X212135457Y-97761513D01*
X212196328Y-97768552D01*
X212244391Y-97802392D01*
X212264325Y-97864113D01*
X212267055Y-97913921D01*
X212267055Y-98432400D01*
X212505924Y-98432400D01*
G37*
%TO.C,SW2*%
D12*
X246463563Y-124142540D02*
G75*
G02*
X242451063Y-124142540I-2006250J0D01*
G01*
X242451063Y-124142540D02*
G75*
G02*
X246463563Y-124142540I2006250J0D01*
G01*
%TO.C,SW1*%
X261639907Y-116584400D02*
G75*
G02*
X257627407Y-116584400I-2006250J0D01*
G01*
X257627407Y-116584400D02*
G75*
G02*
X261639907Y-116584400I2006250J0D01*
G01*
%TO.C,SW11*%
D13*
X197808657Y-154344400D02*
G75*
G02*
X194658657Y-154344400I-1575000J0D01*
G01*
X194658657Y-154344400D02*
G75*
G02*
X197808657Y-154344400I1575000J0D01*
G01*
%TO.C,SW3*%
D12*
X276152867Y-113094002D02*
G75*
G02*
X272140367Y-113094002I-2006250J0D01*
G01*
X272140367Y-113094002D02*
G75*
G02*
X276152867Y-113094002I2006250J0D01*
G01*
%TO.C,SW13*%
D13*
X205658657Y-146494400D02*
G75*
G02*
X202508657Y-146494400I-1575000J0D01*
G01*
X202508657Y-146494400D02*
G75*
G02*
X205658657Y-146494400I1575000J0D01*
G01*
%TO.C,SW12*%
X189958657Y-146494400D02*
G75*
G02*
X186808657Y-146494400I-1575000J0D01*
G01*
X186808657Y-146494400D02*
G75*
G02*
X189958657Y-146494400I1575000J0D01*
G01*
%TO.C,SW4*%
D12*
X257897782Y-102212626D02*
G75*
G02*
X253885282Y-102212626I-2006250J0D01*
G01*
X253885282Y-102212626D02*
G75*
G02*
X257897782Y-102212626I2006250J0D01*
G01*
%TO.C,SW10*%
D13*
X197808657Y-138644400D02*
G75*
G02*
X194658657Y-138644400I-1575000J0D01*
G01*
X194658657Y-138644400D02*
G75*
G02*
X197808657Y-138644400I1575000J0D01*
G01*
D14*
%TO.C,U4*%
X227815400Y-117943600D02*
X227435400Y-117943600D01*
X227435400Y-117203600D01*
X227815400Y-117203600D01*
X227815400Y-117943600D01*
G36*
X227815400Y-117943600D02*
G01*
X227435400Y-117943600D01*
X227435400Y-117203600D01*
X227815400Y-117203600D01*
X227815400Y-117943600D01*
G37*
X227815400Y-120743600D02*
X227435400Y-120743600D01*
X227435400Y-120003600D01*
X227815400Y-120003600D01*
X227815400Y-120743600D01*
G36*
X227815400Y-120743600D02*
G01*
X227435400Y-120743600D01*
X227435400Y-120003600D01*
X227815400Y-120003600D01*
X227815400Y-120743600D01*
G37*
X228315400Y-117943600D02*
X227935400Y-117943600D01*
X227935400Y-117203600D01*
X228315400Y-117203600D01*
X228315400Y-117943600D01*
G36*
X228315400Y-117943600D02*
G01*
X227935400Y-117943600D01*
X227935400Y-117203600D01*
X228315400Y-117203600D01*
X228315400Y-117943600D01*
G37*
X228315400Y-120743600D02*
X227935400Y-120743600D01*
X227935400Y-120003600D01*
X228315400Y-120003600D01*
X228315400Y-120743600D01*
G36*
X228315400Y-120743600D02*
G01*
X227935400Y-120743600D01*
X227935400Y-120003600D01*
X228315400Y-120003600D01*
X228315400Y-120743600D01*
G37*
X228815400Y-117943600D02*
X228435400Y-117943600D01*
X228435400Y-117203600D01*
X228815400Y-117203600D01*
X228815400Y-117943600D01*
G36*
X228815400Y-117943600D02*
G01*
X228435400Y-117943600D01*
X228435400Y-117203600D01*
X228815400Y-117203600D01*
X228815400Y-117943600D01*
G37*
X228815400Y-120743600D02*
X228435400Y-120743600D01*
X228435400Y-120003600D01*
X228815400Y-120003600D01*
X228815400Y-120743600D01*
G36*
X228815400Y-120743600D02*
G01*
X228435400Y-120743600D01*
X228435400Y-120003600D01*
X228815400Y-120003600D01*
X228815400Y-120743600D01*
G37*
X229315400Y-117943600D02*
X228935400Y-117943600D01*
X228935400Y-117203600D01*
X229315400Y-117203600D01*
X229315400Y-117943600D01*
G36*
X229315400Y-117943600D02*
G01*
X228935400Y-117943600D01*
X228935400Y-117203600D01*
X229315400Y-117203600D01*
X229315400Y-117943600D01*
G37*
X229315400Y-120743600D02*
X228935400Y-120743600D01*
X228935400Y-120003600D01*
X229315400Y-120003600D01*
X229315400Y-120743600D01*
G36*
X229315400Y-120743600D02*
G01*
X228935400Y-120743600D01*
X228935400Y-120003600D01*
X229315400Y-120003600D01*
X229315400Y-120743600D01*
G37*
X229815400Y-117943600D02*
X229435400Y-117943600D01*
X229435400Y-117203600D01*
X229815400Y-117203600D01*
X229815400Y-117943600D01*
G36*
X229815400Y-117943600D02*
G01*
X229435400Y-117943600D01*
X229435400Y-117203600D01*
X229815400Y-117203600D01*
X229815400Y-117943600D01*
G37*
X229815400Y-120743600D02*
X229435400Y-120743600D01*
X229435400Y-120003600D01*
X229815400Y-120003600D01*
X229815400Y-120743600D01*
G36*
X229815400Y-120743600D02*
G01*
X229435400Y-120743600D01*
X229435400Y-120003600D01*
X229815400Y-120003600D01*
X229815400Y-120743600D01*
G37*
X229895400Y-118528600D02*
X230395400Y-118528600D01*
X230395400Y-118918600D01*
X229895400Y-118918600D01*
X229895400Y-119028600D01*
X230395400Y-119028600D01*
X230395400Y-119418600D01*
X229895400Y-119418600D01*
X229895400Y-119868600D01*
X227355400Y-119868600D01*
X227355400Y-119418600D01*
X226855400Y-119418600D01*
X226855400Y-119028600D01*
X227355400Y-119028600D01*
X227355400Y-118918600D01*
X226855400Y-118918600D01*
X226855400Y-118528600D01*
X227355400Y-118528600D01*
X227355400Y-118078600D01*
X229895400Y-118078600D01*
X229895400Y-118528600D01*
G36*
X229895400Y-118528600D02*
G01*
X230395400Y-118528600D01*
X230395400Y-118918600D01*
X229895400Y-118918600D01*
X229895400Y-119028600D01*
X230395400Y-119028600D01*
X230395400Y-119418600D01*
X229895400Y-119418600D01*
X229895400Y-119868600D01*
X227355400Y-119868600D01*
X227355400Y-119418600D01*
X226855400Y-119418600D01*
X226855400Y-119028600D01*
X227355400Y-119028600D01*
X227355400Y-118918600D01*
X226855400Y-118918600D01*
X226855400Y-118528600D01*
X227355400Y-118528600D01*
X227355400Y-118078600D01*
X229895400Y-118078600D01*
X229895400Y-118528600D01*
G37*
%TD*%
D15*
%TO.C,R39*%
X271731200Y-134899400D03*
X270711200Y-134899400D03*
%TD*%
D16*
%TO.C,C4*%
X232714800Y-123251000D03*
X232714800Y-121351000D03*
%TD*%
D17*
%TO.C,R35*%
X268122400Y-128373600D03*
X268122400Y-127353600D03*
%TD*%
D18*
%TO.C,R1*%
X177784800Y-127203200D03*
X178424800Y-127203200D03*
%TD*%
D19*
%TO.C,C26*%
X280050200Y-137922000D03*
X279410200Y-137922000D03*
%TD*%
%TO.C,R5*%
X230901200Y-102108000D03*
X230261200Y-102108000D03*
%TD*%
D20*
%TO.C,R22*%
X225430000Y-86985000D03*
X225430000Y-88635000D03*
%TD*%
D19*
%TO.C,C27*%
X277484800Y-137922000D03*
X276844800Y-137922000D03*
%TD*%
D21*
%TO.C,R38*%
X240817400Y-98919800D03*
X240817400Y-97269800D03*
%TD*%
D18*
%TO.C,C33*%
X164932400Y-137083800D03*
X165572400Y-137083800D03*
%TD*%
D22*
%TO.C,J8*%
X253457200Y-131775200D03*
D23*
X255457200Y-131775200D03*
%TD*%
D24*
%TO.C,L5*%
X230767200Y-122783600D03*
X228617200Y-122783600D03*
%TD*%
D18*
%TO.C,R6*%
X217813900Y-106566900D03*
X218453900Y-106566900D03*
%TD*%
D25*
%TO.C,SW2*%
X246410517Y-127465457D03*
D26*
X242656807Y-120734574D03*
%TD*%
D27*
%TO.C,C15*%
X230606600Y-105689400D03*
X230606600Y-104729400D03*
%TD*%
D28*
%TO.C,D7*%
X166686000Y-135940800D03*
X168086000Y-135940800D03*
%TD*%
D29*
%TO.C,R12*%
X228140800Y-107289600D03*
X229160800Y-107289600D03*
%TD*%
D30*
%TO.C,U10*%
X203487600Y-116777200D03*
X203487600Y-116277200D03*
X203487600Y-115777200D03*
X203487600Y-115277200D03*
D31*
X202589600Y-114879200D03*
X202089600Y-114879200D03*
X201589600Y-114879200D03*
D30*
X200691600Y-115277200D03*
X200691600Y-115777200D03*
X200691600Y-116277200D03*
X200691600Y-116777200D03*
D31*
X201589600Y-117175200D03*
X202089600Y-117175200D03*
X202589600Y-117175200D03*
%TD*%
D29*
%TO.C,R41*%
X279677400Y-135509000D03*
X280697400Y-135509000D03*
%TD*%
D25*
%TO.C,SW1*%
X261586861Y-119907317D03*
D26*
X257833151Y-113176434D03*
%TD*%
D32*
%TO.C,C12*%
X200494600Y-113233200D03*
X202044600Y-113233200D03*
%TD*%
D25*
%TO.C,SW3*%
X276099821Y-116416919D03*
D26*
X272346111Y-109686036D03*
%TD*%
D19*
%TO.C,C11*%
X216145000Y-108550000D03*
X215505000Y-108550000D03*
%TD*%
D33*
%TO.C,Q5*%
X169011600Y-134391400D03*
X169011600Y-132491400D03*
X167136600Y-133441400D03*
%TD*%
D34*
%TO.C,C3*%
X232664000Y-96541600D03*
X232664000Y-99241600D03*
%TD*%
D20*
%TO.C,R21*%
X211140000Y-86965000D03*
X211140000Y-88615000D03*
%TD*%
D35*
%TO.C,R34*%
X267106400Y-127353600D03*
X267106400Y-128373600D03*
%TD*%
D19*
%TO.C,R3*%
X230194870Y-116613394D03*
X229554870Y-116613394D03*
%TD*%
D36*
%TO.C,L2*%
X167834453Y-110533889D03*
X168783151Y-110583609D03*
X168832871Y-109634911D03*
X167884173Y-109585191D03*
%TD*%
D20*
%TO.C,R37*%
X239268000Y-97727000D03*
X239268000Y-99377000D03*
%TD*%
D18*
%TO.C,C32*%
X170545800Y-136271000D03*
X171185800Y-136271000D03*
%TD*%
D37*
%TO.C,SW6*%
X172671539Y-110006388D03*
X172009489Y-122639052D03*
D38*
X177558707Y-112290293D03*
X177108617Y-120878507D03*
D37*
X182657835Y-110529748D03*
X181995785Y-123162412D03*
D39*
X171861497Y-113043156D03*
X171521313Y-119534248D03*
X167367664Y-112807644D03*
X167027480Y-119298736D03*
D40*
X174381765Y-125141637D03*
X176878339Y-125272477D03*
X179374913Y-125403317D03*
X185890899Y-119536297D03*
X186021739Y-117039723D03*
X186152579Y-114543149D03*
%TD*%
D41*
%TO.C,C8*%
X218818400Y-102666800D03*
X217858400Y-102666800D03*
%TD*%
D36*
%TO.C,L1*%
X185834453Y-110533889D03*
X186783151Y-110583609D03*
X186832871Y-109634911D03*
X185884173Y-109585191D03*
%TD*%
D42*
%TO.C,L12*%
X259158657Y-122059400D03*
X260108657Y-122059400D03*
X260108657Y-121109400D03*
X259158657Y-121109400D03*
%TD*%
D28*
%TO.C,D14*%
X278928600Y-136779000D03*
X280328600Y-136779000D03*
%TD*%
D19*
%TO.C,R25*%
X222163600Y-99720400D03*
X221523600Y-99720400D03*
%TD*%
D43*
%TO.C,C5*%
X227914200Y-101094600D03*
X227914200Y-102054600D03*
%TD*%
D21*
%TO.C,R36*%
X189204600Y-98792800D03*
X189204600Y-97142800D03*
%TD*%
D44*
%TO.C,C23*%
X226720400Y-122087600D03*
X226720400Y-123987600D03*
%TD*%
D29*
%TO.C,R11*%
X191107600Y-108356400D03*
X192127600Y-108356400D03*
%TD*%
D20*
%TO.C,R4*%
X190754000Y-97142800D03*
X190754000Y-98792800D03*
%TD*%
D45*
%TO.C,SW7*%
X163618112Y-100644336D03*
X170546316Y-96644336D03*
D46*
X166643465Y-101784400D03*
X170020963Y-99834400D03*
%TD*%
D15*
%TO.C,R33*%
X164136800Y-134594600D03*
X163116800Y-134594600D03*
%TD*%
D47*
%TO.C,D6*%
X165354000Y-134583400D03*
X165354000Y-133183400D03*
%TD*%
D48*
%TO.C,SW8*%
X266420998Y-96644336D03*
X273349202Y-100644336D03*
D49*
X266946351Y-99834400D03*
X270323849Y-101784400D03*
%TD*%
D50*
%TO.C,D16*%
X276112200Y-139039600D03*
X274712200Y-139039600D03*
%TD*%
D51*
%TO.C,SW17*%
X215921157Y-115516400D03*
X215921157Y-121516400D03*
X212171157Y-115516400D03*
X212171157Y-121516400D03*
%TD*%
D19*
%TO.C,C6*%
X218810800Y-103581200D03*
X218170800Y-103581200D03*
%TD*%
D32*
%TO.C,C13*%
X196938600Y-116840000D03*
X198488600Y-116840000D03*
%TD*%
D52*
%TO.C,Q6*%
X270788300Y-136829800D03*
X268888300Y-136829800D03*
X269838300Y-138704800D03*
%TD*%
D18*
%TO.C,R23*%
X223809600Y-99720400D03*
X224449600Y-99720400D03*
%TD*%
D53*
%TO.C,R28*%
X221538800Y-94980800D03*
X221538800Y-95620800D03*
%TD*%
D54*
%TO.C,R10*%
X215595200Y-112054600D03*
X215595200Y-111414600D03*
%TD*%
D55*
%TO.C,X3*%
X261035800Y-109601000D03*
%TD*%
D56*
%TO.C,D13*%
X211038400Y-137080900D03*
X211038400Y-137730900D03*
X211038400Y-138380900D03*
X212938400Y-138380900D03*
X212938400Y-137730900D03*
X212938400Y-137080900D03*
%TD*%
D57*
%TO.C,U8*%
X220884800Y-110845600D03*
X221284800Y-110845600D03*
X221684800Y-110845600D03*
X222084800Y-110845600D03*
X222484800Y-110845600D03*
X222884800Y-110845600D03*
X223284800Y-110845600D03*
X223684800Y-110845600D03*
X224084800Y-110845600D03*
X224484800Y-110845600D03*
X224884800Y-110845600D03*
X225284800Y-110845600D03*
X225684800Y-110845600D03*
X226084800Y-110845600D03*
D58*
X226922300Y-110008100D03*
X226922300Y-109608100D03*
X226922300Y-109208100D03*
X226922300Y-108808100D03*
X226922300Y-108408100D03*
X226922300Y-108008100D03*
X226922300Y-107608100D03*
X226922300Y-107208100D03*
X226922300Y-106808100D03*
X226922300Y-106408100D03*
X226922300Y-106008100D03*
X226922300Y-105608100D03*
X226922300Y-105208100D03*
X226922300Y-104808100D03*
D57*
X226084800Y-103970600D03*
X225684800Y-103970600D03*
X225284800Y-103970600D03*
X224884800Y-103970600D03*
X224484800Y-103970600D03*
X224084800Y-103970600D03*
X223684800Y-103970600D03*
X223284800Y-103970600D03*
X222884800Y-103970600D03*
X222484800Y-103970600D03*
X222084800Y-103970600D03*
X221684800Y-103970600D03*
X221284800Y-103970600D03*
X220884800Y-103970600D03*
D58*
X220047300Y-104808100D03*
X220047300Y-105208100D03*
X220047300Y-105608100D03*
X220047300Y-106008100D03*
X220047300Y-106408100D03*
X220047300Y-106808100D03*
X220047300Y-107208100D03*
X220047300Y-107608100D03*
X220047300Y-108008100D03*
X220047300Y-108408100D03*
X220047300Y-108808100D03*
X220047300Y-109208100D03*
X220047300Y-109608100D03*
X220047300Y-110008100D03*
D59*
X223484800Y-107408100D03*
%TD*%
D42*
%TO.C,L13*%
X273671617Y-118569002D03*
X274621617Y-118569002D03*
X274621617Y-117619002D03*
X273671617Y-117619002D03*
%TD*%
D55*
%TO.C,X2*%
X255422400Y-111302800D03*
%TD*%
D18*
%TO.C,R7*%
X217813900Y-105855700D03*
X218453900Y-105855700D03*
%TD*%
%TO.C,R26*%
X222996800Y-95656400D03*
X223636800Y-95656400D03*
%TD*%
D55*
%TO.C,X5*%
X238302800Y-121996200D03*
%TD*%
D35*
%TO.C,R40*%
X269671800Y-133983000D03*
X269671800Y-135003000D03*
%TD*%
D36*
%TO.C,L4*%
X185834453Y-123533889D03*
X186783151Y-123583609D03*
X186832871Y-122634911D03*
X185884173Y-122585191D03*
%TD*%
D22*
%TO.C,J4*%
X278380200Y-144195800D03*
D23*
X276380200Y-144195800D03*
X274380200Y-144195800D03*
X272380200Y-144195800D03*
X270380200Y-144195800D03*
X268380200Y-144195800D03*
%TD*%
D50*
%TO.C,D3*%
X165393600Y-135940800D03*
X163993600Y-135940800D03*
%TD*%
D60*
%TO.C,D8*%
X184414400Y-132842000D03*
X185064400Y-132842000D03*
X185714400Y-132842000D03*
X185714400Y-130942000D03*
X185064400Y-130942000D03*
X184414400Y-130942000D03*
%TD*%
D61*
%TO.C,C10*%
X217779600Y-104495600D03*
X218739600Y-104495600D03*
%TD*%
D22*
%TO.C,J9*%
X173955200Y-136347200D03*
D23*
X175955200Y-136347200D03*
%TD*%
D62*
%TO.C,U6*%
X193924700Y-118455800D03*
X193924700Y-119105800D03*
X193924700Y-119755800D03*
X193924700Y-120405800D03*
X198149700Y-120405800D03*
X198149700Y-119755800D03*
X198149700Y-119105800D03*
X198149700Y-118455800D03*
%TD*%
D19*
%TO.C,R24*%
X220690400Y-99720400D03*
X220050400Y-99720400D03*
%TD*%
D63*
%TO.C,D5*%
X240527800Y-106745800D03*
X240527800Y-106095800D03*
X240527800Y-105445800D03*
X238627800Y-105445800D03*
X238627800Y-106095800D03*
X238627800Y-106745800D03*
%TD*%
D64*
%TO.C,SW5*%
X221483657Y-138353800D03*
X215483657Y-138353800D03*
X221483657Y-134603800D03*
X215483657Y-134603800D03*
%TD*%
D54*
%TO.C,R2*%
X188112400Y-116093200D03*
X188112400Y-115453200D03*
%TD*%
D50*
%TO.C,D15*%
X278703000Y-139039600D03*
X277303000Y-139039600D03*
%TD*%
D65*
%TO.C,Y1*%
X234479200Y-108008600D03*
X234479200Y-105808600D03*
X232779200Y-105808600D03*
X232779200Y-108008600D03*
%TD*%
D56*
%TO.C,D12*%
X211038400Y-134221000D03*
X211038400Y-134871000D03*
X211038400Y-135521000D03*
X212938400Y-135521000D03*
X212938400Y-134871000D03*
X212938400Y-134221000D03*
%TD*%
D66*
%TO.C,C1*%
X176734300Y-128473200D03*
X178459300Y-128473200D03*
%TD*%
D55*
%TO.C,X4*%
X249351800Y-106248200D03*
%TD*%
D51*
%TO.C,SW18*%
X221046157Y-130391400D03*
X221046157Y-124391400D03*
X224796157Y-130391400D03*
X224796157Y-124391400D03*
%TD*%
D41*
%TO.C,C7*%
X219021600Y-101650800D03*
X218061600Y-101650800D03*
%TD*%
D25*
%TO.C,SW4*%
X257844736Y-105535543D03*
D26*
X254091026Y-98804660D03*
%TD*%
D42*
%TO.C,L10*%
X243982313Y-129617540D03*
X244932313Y-129617540D03*
X244932313Y-128667540D03*
X243982313Y-128667540D03*
%TD*%
D53*
%TO.C,R27*%
X219862400Y-94930000D03*
X219862400Y-95570000D03*
%TD*%
D18*
%TO.C,C25*%
X270672600Y-133934200D03*
X271312600Y-133934200D03*
%TD*%
D67*
%TO.C,D10*%
X226212400Y-96844800D03*
X226212400Y-99344800D03*
%TD*%
D55*
%TO.C,TP5*%
X184658000Y-97891600D03*
%TD*%
D68*
%TO.C,C2*%
X189382400Y-117296100D03*
X189382400Y-115571100D03*
%TD*%
D18*
%TO.C,C34*%
X166558000Y-137083800D03*
X167198000Y-137083800D03*
%TD*%
D51*
%TO.C,SW19*%
X215921157Y-124391400D03*
X215921157Y-130391400D03*
X212171157Y-124391400D03*
X212171157Y-130391400D03*
%TD*%
D60*
%TO.C,D11*%
X187310000Y-131455200D03*
X187960000Y-131455200D03*
X188610000Y-131455200D03*
X188610000Y-129555200D03*
X187960000Y-129555200D03*
X187310000Y-129555200D03*
%TD*%
D18*
%TO.C,C24*%
X228431576Y-115848352D03*
X229071576Y-115848352D03*
%TD*%
D43*
%TO.C,C14*%
X230581200Y-107266800D03*
X230581200Y-108226800D03*
%TD*%
D42*
%TO.C,L11*%
X255416532Y-107687626D03*
X256366532Y-107687626D03*
X256366532Y-106737626D03*
X255416532Y-106737626D03*
%TD*%
D69*
%TO.C,J2*%
X229157400Y-128834200D03*
X229157400Y-128334200D03*
X229157400Y-127834200D03*
X229157400Y-127334200D03*
X229157400Y-126834200D03*
X229157400Y-126334200D03*
D70*
X231807400Y-129624200D03*
X231807400Y-125544200D03*
%TD*%
D61*
%TO.C,C9*%
X216390000Y-107450000D03*
X217350000Y-107450000D03*
%TD*%
D15*
%TO.C,R31*%
X171553600Y-137210800D03*
X170533600Y-137210800D03*
%TD*%
D17*
%TO.C,R32*%
X170535600Y-135409400D03*
X170535600Y-134389400D03*
%TD*%
D55*
%TO.C,X1*%
X256108200Y-126263400D03*
%TD*%
D60*
%TO.C,Q4*%
X220228400Y-98638400D03*
X220878400Y-98638400D03*
X221528400Y-98638400D03*
X221528400Y-96738400D03*
X220878400Y-96738400D03*
X220228400Y-96738400D03*
%TD*%
D51*
%TO.C,SW9*%
X221046157Y-121516400D03*
X221046157Y-115516400D03*
X224796157Y-121516400D03*
X224796157Y-115516400D03*
%TD*%
D36*
%TO.C,L3*%
X167834453Y-123533889D03*
X168783151Y-123583609D03*
X168832871Y-122634911D03*
X167884173Y-122585191D03*
%TD*%
D71*
%TO.C,D9*%
X230581200Y-98836800D03*
X230581200Y-96336800D03*
%TD*%
D60*
%TO.C,Q3*%
X223124000Y-98638400D03*
X223774000Y-98638400D03*
X224424000Y-98638400D03*
X224424000Y-96738400D03*
X223774000Y-96738400D03*
X223124000Y-96738400D03*
%TD*%
D63*
%TO.C,D4*%
X239710000Y-109605600D03*
X239710000Y-108955600D03*
X239710000Y-108305600D03*
X237810000Y-108305600D03*
X237810000Y-108955600D03*
X237810000Y-109605600D03*
%TD*%
D42*
%TO.C,L6*%
X218008657Y-143038600D03*
X218958657Y-143038600D03*
X218958657Y-142088600D03*
X218008657Y-142088600D03*
%TD*%
D55*
%TO.C,X6*%
X247421400Y-117881400D03*
%TD*%
D72*
%TO.C,U9*%
X216939993Y-111424008D03*
X217439993Y-111424008D03*
X217939993Y-111424008D03*
X218439993Y-111424008D03*
X218439993Y-109024008D03*
X217939993Y-109024008D03*
X217439993Y-109024008D03*
X216939993Y-109024008D03*
D73*
X217689993Y-110224008D03*
%TD*%
D74*
%TO.C,S6*%
X245983657Y-101434400D03*
%TD*%
%TO.C,S4*%
X243483657Y-101434400D03*
%TD*%
%TO.C,S3*%
X195983657Y-101434400D03*
%TD*%
D75*
%TO.C,J7*%
X279501600Y-127635000D03*
D76*
X279501600Y-125635000D03*
%TD*%
D74*
%TO.C,S5*%
X240983657Y-101434400D03*
%TD*%
D77*
%TO.C,RV2*%
X247833657Y-112934400D03*
X239133657Y-112934400D03*
%TD*%
D75*
%TO.C,J6*%
X158623000Y-127635000D03*
D76*
X158623000Y-125635000D03*
%TD*%
D78*
%TO.C,J5*%
X214758635Y-88804400D03*
X222208635Y-88804400D03*
D79*
X221533635Y-89504400D03*
X220883635Y-88804400D03*
X220083635Y-88804400D03*
X219683635Y-89504400D03*
X219283635Y-88804400D03*
X218883635Y-89504400D03*
X218083635Y-89504400D03*
X217683635Y-88804400D03*
X217283635Y-89504400D03*
X216883635Y-88804400D03*
X216083635Y-88804400D03*
X215433635Y-89504400D03*
D80*
X213983635Y-84704400D03*
D81*
X214433635Y-89904400D03*
D80*
X213983635Y-90454400D03*
X222983635Y-84704400D03*
D81*
X222533635Y-89904400D03*
D80*
X222983635Y-90454400D03*
%TD*%
D77*
%TO.C,RV1*%
X197833657Y-112934400D03*
X189133657Y-112934400D03*
%TD*%
D74*
%TO.C,S1*%
X193483657Y-101434400D03*
%TD*%
%TO.C,S2*%
X190983657Y-101434400D03*
%TD*%
M02*
