%TF.GenerationSoftware,KiCad,Pcbnew,9.0.6-rc2*%
%TF.CreationDate,2025-12-11T22:21:31-08:00*%
%TF.ProjectId,UGC_Main_S1,5547435f-4d61-4696-9e5f-53312e6b6963,rev?*%
%TF.SameCoordinates,Original*%
%TF.FileFunction,Legend,Top*%
%TF.FilePolarity,Positive*%
%FSLAX46Y46*%
G04 Gerber Fmt 4.6, Leading zero omitted, Abs format (unit mm)*
G04 Created by KiCad (PCBNEW 9.0.6-rc2) date 2025-12-11 22:21:31*
%MOMM*%
%LPD*%
G01*
G04 APERTURE LIST*
%ADD10C,0.120000*%
%ADD11C,0.100000*%
%ADD12C,0.350000*%
%ADD13C,0.160000*%
%ADD14C,0.127000*%
%ADD15C,0.200000*%
G04 APERTURE END LIST*
D10*
X218973400Y-100863400D02*
X219252800Y-101168200D01*
X224600000Y-95350000D02*
X224400000Y-96200000D01*
D11*
X272744273Y-135188298D02*
X272577607Y-134950203D01*
X272458559Y-135188298D02*
X272458559Y-134688298D01*
X272458559Y-134688298D02*
X272649035Y-134688298D01*
X272649035Y-134688298D02*
X272696654Y-134712108D01*
X272696654Y-134712108D02*
X272720464Y-134735917D01*
X272720464Y-134735917D02*
X272744273Y-134783536D01*
X272744273Y-134783536D02*
X272744273Y-134854965D01*
X272744273Y-134854965D02*
X272720464Y-134902584D01*
X272720464Y-134902584D02*
X272696654Y-134926393D01*
X272696654Y-134926393D02*
X272649035Y-134950203D01*
X272649035Y-134950203D02*
X272458559Y-134950203D01*
X273220464Y-135188298D02*
X272934750Y-135188298D01*
X273077607Y-135188298D02*
X273077607Y-134688298D01*
X273077607Y-134688298D02*
X273029988Y-134759727D01*
X273029988Y-134759727D02*
X272982369Y-134807346D01*
X272982369Y-134807346D02*
X272934750Y-134831155D01*
X273410940Y-134735917D02*
X273434749Y-134712108D01*
X273434749Y-134712108D02*
X273482368Y-134688298D01*
X273482368Y-134688298D02*
X273601416Y-134688298D01*
X273601416Y-134688298D02*
X273649035Y-134712108D01*
X273649035Y-134712108D02*
X273672844Y-134735917D01*
X273672844Y-134735917D02*
X273696654Y-134783536D01*
X273696654Y-134783536D02*
X273696654Y-134831155D01*
X273696654Y-134831155D02*
X273672844Y-134902584D01*
X273672844Y-134902584D02*
X273387130Y-135188298D01*
X273387130Y-135188298D02*
X273696654Y-135188298D01*
X275776571Y-107820509D02*
X275538476Y-107820509D01*
X275538476Y-107820509D02*
X275538476Y-107320509D01*
X276205143Y-107820509D02*
X275919429Y-107820509D01*
X276062286Y-107820509D02*
X276062286Y-107320509D01*
X276062286Y-107320509D02*
X276014667Y-107391938D01*
X276014667Y-107391938D02*
X275967048Y-107439557D01*
X275967048Y-107439557D02*
X275919429Y-107463366D01*
X276490857Y-107534795D02*
X276443238Y-107510985D01*
X276443238Y-107510985D02*
X276419428Y-107487176D01*
X276419428Y-107487176D02*
X276395619Y-107439557D01*
X276395619Y-107439557D02*
X276395619Y-107415747D01*
X276395619Y-107415747D02*
X276419428Y-107368128D01*
X276419428Y-107368128D02*
X276443238Y-107344319D01*
X276443238Y-107344319D02*
X276490857Y-107320509D01*
X276490857Y-107320509D02*
X276586095Y-107320509D01*
X276586095Y-107320509D02*
X276633714Y-107344319D01*
X276633714Y-107344319D02*
X276657523Y-107368128D01*
X276657523Y-107368128D02*
X276681333Y-107415747D01*
X276681333Y-107415747D02*
X276681333Y-107439557D01*
X276681333Y-107439557D02*
X276657523Y-107487176D01*
X276657523Y-107487176D02*
X276633714Y-107510985D01*
X276633714Y-107510985D02*
X276586095Y-107534795D01*
X276586095Y-107534795D02*
X276490857Y-107534795D01*
X276490857Y-107534795D02*
X276443238Y-107558604D01*
X276443238Y-107558604D02*
X276419428Y-107582414D01*
X276419428Y-107582414D02*
X276395619Y-107630033D01*
X276395619Y-107630033D02*
X276395619Y-107725271D01*
X276395619Y-107725271D02*
X276419428Y-107772890D01*
X276419428Y-107772890D02*
X276443238Y-107796700D01*
X276443238Y-107796700D02*
X276490857Y-107820509D01*
X276490857Y-107820509D02*
X276586095Y-107820509D01*
X276586095Y-107820509D02*
X276633714Y-107796700D01*
X276633714Y-107796700D02*
X276657523Y-107772890D01*
X276657523Y-107772890D02*
X276681333Y-107725271D01*
X276681333Y-107725271D02*
X276681333Y-107630033D01*
X276681333Y-107630033D02*
X276657523Y-107582414D01*
X276657523Y-107582414D02*
X276633714Y-107558604D01*
X276633714Y-107558604D02*
X276586095Y-107534795D01*
X233071090Y-124857628D02*
X233094900Y-124881437D01*
X233094900Y-124881437D02*
X233118709Y-124952866D01*
X233118709Y-124952866D02*
X233118709Y-125000485D01*
X233118709Y-125000485D02*
X233094900Y-125071913D01*
X233094900Y-125071913D02*
X233047280Y-125119532D01*
X233047280Y-125119532D02*
X232999661Y-125143342D01*
X232999661Y-125143342D02*
X232904423Y-125167151D01*
X232904423Y-125167151D02*
X232832995Y-125167151D01*
X232832995Y-125167151D02*
X232737757Y-125143342D01*
X232737757Y-125143342D02*
X232690138Y-125119532D01*
X232690138Y-125119532D02*
X232642519Y-125071913D01*
X232642519Y-125071913D02*
X232618709Y-125000485D01*
X232618709Y-125000485D02*
X232618709Y-124952866D01*
X232618709Y-124952866D02*
X232642519Y-124881437D01*
X232642519Y-124881437D02*
X232666328Y-124857628D01*
X233118709Y-124381437D02*
X233118709Y-124667151D01*
X233118709Y-124524294D02*
X232618709Y-124524294D01*
X232618709Y-124524294D02*
X232690138Y-124571913D01*
X232690138Y-124571913D02*
X232737757Y-124619532D01*
X232737757Y-124619532D02*
X232761566Y-124667151D01*
X232618709Y-124214771D02*
X232618709Y-123905247D01*
X232618709Y-123905247D02*
X232809185Y-124071914D01*
X232809185Y-124071914D02*
X232809185Y-124000485D01*
X232809185Y-124000485D02*
X232832995Y-123952866D01*
X232832995Y-123952866D02*
X232856804Y-123929057D01*
X232856804Y-123929057D02*
X232904423Y-123905247D01*
X232904423Y-123905247D02*
X233023471Y-123905247D01*
X233023471Y-123905247D02*
X233071090Y-123929057D01*
X233071090Y-123929057D02*
X233094900Y-123952866D01*
X233094900Y-123952866D02*
X233118709Y-124000485D01*
X233118709Y-124000485D02*
X233118709Y-124143342D01*
X233118709Y-124143342D02*
X233094900Y-124190961D01*
X233094900Y-124190961D02*
X233071090Y-124214771D01*
X268577109Y-126508628D02*
X268339014Y-126675294D01*
X268577109Y-126794342D02*
X268077109Y-126794342D01*
X268077109Y-126794342D02*
X268077109Y-126603866D01*
X268077109Y-126603866D02*
X268100919Y-126556247D01*
X268100919Y-126556247D02*
X268124728Y-126532437D01*
X268124728Y-126532437D02*
X268172347Y-126508628D01*
X268172347Y-126508628D02*
X268243776Y-126508628D01*
X268243776Y-126508628D02*
X268291395Y-126532437D01*
X268291395Y-126532437D02*
X268315204Y-126556247D01*
X268315204Y-126556247D02*
X268339014Y-126603866D01*
X268339014Y-126603866D02*
X268339014Y-126794342D01*
X268124728Y-126318151D02*
X268100919Y-126294342D01*
X268100919Y-126294342D02*
X268077109Y-126246723D01*
X268077109Y-126246723D02*
X268077109Y-126127675D01*
X268077109Y-126127675D02*
X268100919Y-126080056D01*
X268100919Y-126080056D02*
X268124728Y-126056247D01*
X268124728Y-126056247D02*
X268172347Y-126032437D01*
X268172347Y-126032437D02*
X268219966Y-126032437D01*
X268219966Y-126032437D02*
X268291395Y-126056247D01*
X268291395Y-126056247D02*
X268577109Y-126341961D01*
X268577109Y-126341961D02*
X268577109Y-126032437D01*
X268577109Y-125794342D02*
X268577109Y-125699104D01*
X268577109Y-125699104D02*
X268553300Y-125651485D01*
X268553300Y-125651485D02*
X268529490Y-125627676D01*
X268529490Y-125627676D02*
X268458061Y-125580057D01*
X268458061Y-125580057D02*
X268362823Y-125556247D01*
X268362823Y-125556247D02*
X268172347Y-125556247D01*
X268172347Y-125556247D02*
X268124728Y-125580057D01*
X268124728Y-125580057D02*
X268100919Y-125603866D01*
X268100919Y-125603866D02*
X268077109Y-125651485D01*
X268077109Y-125651485D02*
X268077109Y-125746723D01*
X268077109Y-125746723D02*
X268100919Y-125794342D01*
X268100919Y-125794342D02*
X268124728Y-125818152D01*
X268124728Y-125818152D02*
X268172347Y-125841961D01*
X268172347Y-125841961D02*
X268291395Y-125841961D01*
X268291395Y-125841961D02*
X268339014Y-125818152D01*
X268339014Y-125818152D02*
X268362823Y-125794342D01*
X268362823Y-125794342D02*
X268386633Y-125746723D01*
X268386633Y-125746723D02*
X268386633Y-125651485D01*
X268386633Y-125651485D02*
X268362823Y-125603866D01*
X268362823Y-125603866D02*
X268339014Y-125580057D01*
X268339014Y-125580057D02*
X268291395Y-125556247D01*
X179318571Y-127466109D02*
X179151905Y-127228014D01*
X179032857Y-127466109D02*
X179032857Y-126966109D01*
X179032857Y-126966109D02*
X179223333Y-126966109D01*
X179223333Y-126966109D02*
X179270952Y-126989919D01*
X179270952Y-126989919D02*
X179294762Y-127013728D01*
X179294762Y-127013728D02*
X179318571Y-127061347D01*
X179318571Y-127061347D02*
X179318571Y-127132776D01*
X179318571Y-127132776D02*
X179294762Y-127180395D01*
X179294762Y-127180395D02*
X179270952Y-127204204D01*
X179270952Y-127204204D02*
X179223333Y-127228014D01*
X179223333Y-127228014D02*
X179032857Y-127228014D01*
X179794762Y-127466109D02*
X179509048Y-127466109D01*
X179651905Y-127466109D02*
X179651905Y-126966109D01*
X179651905Y-126966109D02*
X179604286Y-127037538D01*
X179604286Y-127037538D02*
X179556667Y-127085157D01*
X179556667Y-127085157D02*
X179509048Y-127108966D01*
X180104285Y-126966109D02*
X180151904Y-126966109D01*
X180151904Y-126966109D02*
X180199523Y-126989919D01*
X180199523Y-126989919D02*
X180223333Y-127013728D01*
X180223333Y-127013728D02*
X180247142Y-127061347D01*
X180247142Y-127061347D02*
X180270952Y-127156585D01*
X180270952Y-127156585D02*
X180270952Y-127275633D01*
X180270952Y-127275633D02*
X180247142Y-127370871D01*
X180247142Y-127370871D02*
X180223333Y-127418490D01*
X180223333Y-127418490D02*
X180199523Y-127442300D01*
X180199523Y-127442300D02*
X180151904Y-127466109D01*
X180151904Y-127466109D02*
X180104285Y-127466109D01*
X180104285Y-127466109D02*
X180056666Y-127442300D01*
X180056666Y-127442300D02*
X180032857Y-127418490D01*
X180032857Y-127418490D02*
X180009047Y-127370871D01*
X180009047Y-127370871D02*
X179985238Y-127275633D01*
X179985238Y-127275633D02*
X179985238Y-127156585D01*
X179985238Y-127156585D02*
X180009047Y-127061347D01*
X180009047Y-127061347D02*
X180032857Y-127013728D01*
X180032857Y-127013728D02*
X180056666Y-126989919D01*
X180056666Y-126989919D02*
X180104285Y-126966109D01*
X208969048Y-108002300D02*
X209040476Y-108026109D01*
X209040476Y-108026109D02*
X209159524Y-108026109D01*
X209159524Y-108026109D02*
X209207143Y-108002300D01*
X209207143Y-108002300D02*
X209230952Y-107978490D01*
X209230952Y-107978490D02*
X209254762Y-107930871D01*
X209254762Y-107930871D02*
X209254762Y-107883252D01*
X209254762Y-107883252D02*
X209230952Y-107835633D01*
X209230952Y-107835633D02*
X209207143Y-107811823D01*
X209207143Y-107811823D02*
X209159524Y-107788014D01*
X209159524Y-107788014D02*
X209064286Y-107764204D01*
X209064286Y-107764204D02*
X209016667Y-107740395D01*
X209016667Y-107740395D02*
X208992857Y-107716585D01*
X208992857Y-107716585D02*
X208969048Y-107668966D01*
X208969048Y-107668966D02*
X208969048Y-107621347D01*
X208969048Y-107621347D02*
X208992857Y-107573728D01*
X208992857Y-107573728D02*
X209016667Y-107549919D01*
X209016667Y-107549919D02*
X209064286Y-107526109D01*
X209064286Y-107526109D02*
X209183333Y-107526109D01*
X209183333Y-107526109D02*
X209254762Y-107549919D01*
X209730952Y-108026109D02*
X209445238Y-108026109D01*
X209588095Y-108026109D02*
X209588095Y-107526109D01*
X209588095Y-107526109D02*
X209540476Y-107597538D01*
X209540476Y-107597538D02*
X209492857Y-107645157D01*
X209492857Y-107645157D02*
X209445238Y-107668966D01*
X280104014Y-138968122D02*
X280080205Y-138991932D01*
X280080205Y-138991932D02*
X280008776Y-139015741D01*
X280008776Y-139015741D02*
X279961157Y-139015741D01*
X279961157Y-139015741D02*
X279889729Y-138991932D01*
X279889729Y-138991932D02*
X279842110Y-138944312D01*
X279842110Y-138944312D02*
X279818300Y-138896693D01*
X279818300Y-138896693D02*
X279794491Y-138801455D01*
X279794491Y-138801455D02*
X279794491Y-138730027D01*
X279794491Y-138730027D02*
X279818300Y-138634789D01*
X279818300Y-138634789D02*
X279842110Y-138587170D01*
X279842110Y-138587170D02*
X279889729Y-138539551D01*
X279889729Y-138539551D02*
X279961157Y-138515741D01*
X279961157Y-138515741D02*
X280008776Y-138515741D01*
X280008776Y-138515741D02*
X280080205Y-138539551D01*
X280080205Y-138539551D02*
X280104014Y-138563360D01*
X280580205Y-139015741D02*
X280294491Y-139015741D01*
X280437348Y-139015741D02*
X280437348Y-138515741D01*
X280437348Y-138515741D02*
X280389729Y-138587170D01*
X280389729Y-138587170D02*
X280342110Y-138634789D01*
X280342110Y-138634789D02*
X280294491Y-138658598D01*
X280889728Y-138515741D02*
X280937347Y-138515741D01*
X280937347Y-138515741D02*
X280984966Y-138539551D01*
X280984966Y-138539551D02*
X281008776Y-138563360D01*
X281008776Y-138563360D02*
X281032585Y-138610979D01*
X281032585Y-138610979D02*
X281056395Y-138706217D01*
X281056395Y-138706217D02*
X281056395Y-138825265D01*
X281056395Y-138825265D02*
X281032585Y-138920503D01*
X281032585Y-138920503D02*
X281008776Y-138968122D01*
X281008776Y-138968122D02*
X280984966Y-138991932D01*
X280984966Y-138991932D02*
X280937347Y-139015741D01*
X280937347Y-139015741D02*
X280889728Y-139015741D01*
X280889728Y-139015741D02*
X280842109Y-138991932D01*
X280842109Y-138991932D02*
X280818300Y-138968122D01*
X280818300Y-138968122D02*
X280794490Y-138920503D01*
X280794490Y-138920503D02*
X280770681Y-138825265D01*
X280770681Y-138825265D02*
X280770681Y-138706217D01*
X280770681Y-138706217D02*
X280794490Y-138610979D01*
X280794490Y-138610979D02*
X280818300Y-138563360D01*
X280818300Y-138563360D02*
X280842109Y-138539551D01*
X280842109Y-138539551D02*
X280889728Y-138515741D01*
X230259771Y-103504109D02*
X230093105Y-103266014D01*
X229974057Y-103504109D02*
X229974057Y-103004109D01*
X229974057Y-103004109D02*
X230164533Y-103004109D01*
X230164533Y-103004109D02*
X230212152Y-103027919D01*
X230212152Y-103027919D02*
X230235962Y-103051728D01*
X230235962Y-103051728D02*
X230259771Y-103099347D01*
X230259771Y-103099347D02*
X230259771Y-103170776D01*
X230259771Y-103170776D02*
X230235962Y-103218395D01*
X230235962Y-103218395D02*
X230212152Y-103242204D01*
X230212152Y-103242204D02*
X230164533Y-103266014D01*
X230164533Y-103266014D02*
X229974057Y-103266014D01*
X230735962Y-103504109D02*
X230450248Y-103504109D01*
X230593105Y-103504109D02*
X230593105Y-103004109D01*
X230593105Y-103004109D02*
X230545486Y-103075538D01*
X230545486Y-103075538D02*
X230497867Y-103123157D01*
X230497867Y-103123157D02*
X230450248Y-103146966D01*
X230902628Y-103004109D02*
X231235961Y-103004109D01*
X231235961Y-103004109D02*
X231021676Y-103504109D01*
X198138266Y-151356109D02*
X197900171Y-151356109D01*
X197900171Y-151356109D02*
X197900171Y-150856109D01*
X198257314Y-150856109D02*
X198566838Y-150856109D01*
X198566838Y-150856109D02*
X198400171Y-151046585D01*
X198400171Y-151046585D02*
X198471600Y-151046585D01*
X198471600Y-151046585D02*
X198519219Y-151070395D01*
X198519219Y-151070395D02*
X198543028Y-151094204D01*
X198543028Y-151094204D02*
X198566838Y-151141823D01*
X198566838Y-151141823D02*
X198566838Y-151260871D01*
X198566838Y-151260871D02*
X198543028Y-151308490D01*
X198543028Y-151308490D02*
X198519219Y-151332300D01*
X198519219Y-151332300D02*
X198471600Y-151356109D01*
X198471600Y-151356109D02*
X198328743Y-151356109D01*
X198328743Y-151356109D02*
X198281124Y-151332300D01*
X198281124Y-151332300D02*
X198257314Y-151308490D01*
X226826109Y-87893333D02*
X226588014Y-88059999D01*
X226826109Y-88179047D02*
X226326109Y-88179047D01*
X226326109Y-88179047D02*
X226326109Y-87988571D01*
X226326109Y-87988571D02*
X226349919Y-87940952D01*
X226349919Y-87940952D02*
X226373728Y-87917142D01*
X226373728Y-87917142D02*
X226421347Y-87893333D01*
X226421347Y-87893333D02*
X226492776Y-87893333D01*
X226492776Y-87893333D02*
X226540395Y-87917142D01*
X226540395Y-87917142D02*
X226564204Y-87940952D01*
X226564204Y-87940952D02*
X226588014Y-87988571D01*
X226588014Y-87988571D02*
X226588014Y-88179047D01*
X226826109Y-87655237D02*
X226826109Y-87559999D01*
X226826109Y-87559999D02*
X226802300Y-87512380D01*
X226802300Y-87512380D02*
X226778490Y-87488571D01*
X226778490Y-87488571D02*
X226707061Y-87440952D01*
X226707061Y-87440952D02*
X226611823Y-87417142D01*
X226611823Y-87417142D02*
X226421347Y-87417142D01*
X226421347Y-87417142D02*
X226373728Y-87440952D01*
X226373728Y-87440952D02*
X226349919Y-87464761D01*
X226349919Y-87464761D02*
X226326109Y-87512380D01*
X226326109Y-87512380D02*
X226326109Y-87607618D01*
X226326109Y-87607618D02*
X226349919Y-87655237D01*
X226349919Y-87655237D02*
X226373728Y-87679047D01*
X226373728Y-87679047D02*
X226421347Y-87702856D01*
X226421347Y-87702856D02*
X226540395Y-87702856D01*
X226540395Y-87702856D02*
X226588014Y-87679047D01*
X226588014Y-87679047D02*
X226611823Y-87655237D01*
X226611823Y-87655237D02*
X226635633Y-87607618D01*
X226635633Y-87607618D02*
X226635633Y-87512380D01*
X226635633Y-87512380D02*
X226611823Y-87464761D01*
X226611823Y-87464761D02*
X226588014Y-87440952D01*
X226588014Y-87440952D02*
X226540395Y-87417142D01*
X210577133Y-106234109D02*
X210577133Y-106591252D01*
X210577133Y-106591252D02*
X210553324Y-106662680D01*
X210553324Y-106662680D02*
X210505705Y-106710300D01*
X210505705Y-106710300D02*
X210434276Y-106734109D01*
X210434276Y-106734109D02*
X210386657Y-106734109D01*
X210767609Y-106234109D02*
X211077133Y-106234109D01*
X211077133Y-106234109D02*
X210910466Y-106424585D01*
X210910466Y-106424585D02*
X210981895Y-106424585D01*
X210981895Y-106424585D02*
X211029514Y-106448395D01*
X211029514Y-106448395D02*
X211053323Y-106472204D01*
X211053323Y-106472204D02*
X211077133Y-106519823D01*
X211077133Y-106519823D02*
X211077133Y-106638871D01*
X211077133Y-106638871D02*
X211053323Y-106686490D01*
X211053323Y-106686490D02*
X211029514Y-106710300D01*
X211029514Y-106710300D02*
X210981895Y-106734109D01*
X210981895Y-106734109D02*
X210839038Y-106734109D01*
X210839038Y-106734109D02*
X210791419Y-106710300D01*
X210791419Y-106710300D02*
X210767609Y-106686490D01*
X275138571Y-137628490D02*
X275114762Y-137652300D01*
X275114762Y-137652300D02*
X275043333Y-137676109D01*
X275043333Y-137676109D02*
X274995714Y-137676109D01*
X274995714Y-137676109D02*
X274924286Y-137652300D01*
X274924286Y-137652300D02*
X274876667Y-137604680D01*
X274876667Y-137604680D02*
X274852857Y-137557061D01*
X274852857Y-137557061D02*
X274829048Y-137461823D01*
X274829048Y-137461823D02*
X274829048Y-137390395D01*
X274829048Y-137390395D02*
X274852857Y-137295157D01*
X274852857Y-137295157D02*
X274876667Y-137247538D01*
X274876667Y-137247538D02*
X274924286Y-137199919D01*
X274924286Y-137199919D02*
X274995714Y-137176109D01*
X274995714Y-137176109D02*
X275043333Y-137176109D01*
X275043333Y-137176109D02*
X275114762Y-137199919D01*
X275114762Y-137199919D02*
X275138571Y-137223728D01*
X275614762Y-137676109D02*
X275329048Y-137676109D01*
X275471905Y-137676109D02*
X275471905Y-137176109D01*
X275471905Y-137176109D02*
X275424286Y-137247538D01*
X275424286Y-137247538D02*
X275376667Y-137295157D01*
X275376667Y-137295157D02*
X275329048Y-137318966D01*
X276090952Y-137676109D02*
X275805238Y-137676109D01*
X275948095Y-137676109D02*
X275948095Y-137176109D01*
X275948095Y-137176109D02*
X275900476Y-137247538D01*
X275900476Y-137247538D02*
X275852857Y-137295157D01*
X275852857Y-137295157D02*
X275805238Y-137318966D01*
X217500809Y-94410552D02*
X217905571Y-94410552D01*
X217905571Y-94410552D02*
X217953190Y-94386742D01*
X217953190Y-94386742D02*
X217977000Y-94362933D01*
X217977000Y-94362933D02*
X218000809Y-94315314D01*
X218000809Y-94315314D02*
X218000809Y-94220076D01*
X218000809Y-94220076D02*
X217977000Y-94172457D01*
X217977000Y-94172457D02*
X217953190Y-94148647D01*
X217953190Y-94148647D02*
X217905571Y-94124838D01*
X217905571Y-94124838D02*
X217500809Y-94124838D01*
X217500809Y-93934361D02*
X217500809Y-93624837D01*
X217500809Y-93624837D02*
X217691285Y-93791504D01*
X217691285Y-93791504D02*
X217691285Y-93720075D01*
X217691285Y-93720075D02*
X217715095Y-93672456D01*
X217715095Y-93672456D02*
X217738904Y-93648647D01*
X217738904Y-93648647D02*
X217786523Y-93624837D01*
X217786523Y-93624837D02*
X217905571Y-93624837D01*
X217905571Y-93624837D02*
X217953190Y-93648647D01*
X217953190Y-93648647D02*
X217977000Y-93672456D01*
X217977000Y-93672456D02*
X218000809Y-93720075D01*
X218000809Y-93720075D02*
X218000809Y-93862932D01*
X218000809Y-93862932D02*
X217977000Y-93910551D01*
X217977000Y-93910551D02*
X217953190Y-93934361D01*
X245204466Y-118336109D02*
X244966371Y-118336109D01*
X244966371Y-118336109D02*
X244966371Y-117836109D01*
X245442562Y-118050395D02*
X245394943Y-118026585D01*
X245394943Y-118026585D02*
X245371133Y-118002776D01*
X245371133Y-118002776D02*
X245347324Y-117955157D01*
X245347324Y-117955157D02*
X245347324Y-117931347D01*
X245347324Y-117931347D02*
X245371133Y-117883728D01*
X245371133Y-117883728D02*
X245394943Y-117859919D01*
X245394943Y-117859919D02*
X245442562Y-117836109D01*
X245442562Y-117836109D02*
X245537800Y-117836109D01*
X245537800Y-117836109D02*
X245585419Y-117859919D01*
X245585419Y-117859919D02*
X245609228Y-117883728D01*
X245609228Y-117883728D02*
X245633038Y-117931347D01*
X245633038Y-117931347D02*
X245633038Y-117955157D01*
X245633038Y-117955157D02*
X245609228Y-118002776D01*
X245609228Y-118002776D02*
X245585419Y-118026585D01*
X245585419Y-118026585D02*
X245537800Y-118050395D01*
X245537800Y-118050395D02*
X245442562Y-118050395D01*
X245442562Y-118050395D02*
X245394943Y-118074204D01*
X245394943Y-118074204D02*
X245371133Y-118098014D01*
X245371133Y-118098014D02*
X245347324Y-118145633D01*
X245347324Y-118145633D02*
X245347324Y-118240871D01*
X245347324Y-118240871D02*
X245371133Y-118288490D01*
X245371133Y-118288490D02*
X245394943Y-118312300D01*
X245394943Y-118312300D02*
X245442562Y-118336109D01*
X245442562Y-118336109D02*
X245537800Y-118336109D01*
X245537800Y-118336109D02*
X245585419Y-118312300D01*
X245585419Y-118312300D02*
X245609228Y-118288490D01*
X245609228Y-118288490D02*
X245633038Y-118240871D01*
X245633038Y-118240871D02*
X245633038Y-118145633D01*
X245633038Y-118145633D02*
X245609228Y-118098014D01*
X245609228Y-118098014D02*
X245585419Y-118074204D01*
X245585419Y-118074204D02*
X245537800Y-118050395D01*
X163086666Y-137338490D02*
X163062857Y-137362300D01*
X163062857Y-137362300D02*
X162991428Y-137386109D01*
X162991428Y-137386109D02*
X162943809Y-137386109D01*
X162943809Y-137386109D02*
X162872381Y-137362300D01*
X162872381Y-137362300D02*
X162824762Y-137314680D01*
X162824762Y-137314680D02*
X162800952Y-137267061D01*
X162800952Y-137267061D02*
X162777143Y-137171823D01*
X162777143Y-137171823D02*
X162777143Y-137100395D01*
X162777143Y-137100395D02*
X162800952Y-137005157D01*
X162800952Y-137005157D02*
X162824762Y-136957538D01*
X162824762Y-136957538D02*
X162872381Y-136909919D01*
X162872381Y-136909919D02*
X162943809Y-136886109D01*
X162943809Y-136886109D02*
X162991428Y-136886109D01*
X162991428Y-136886109D02*
X163062857Y-136909919D01*
X163062857Y-136909919D02*
X163086666Y-136933728D01*
X163372381Y-137100395D02*
X163324762Y-137076585D01*
X163324762Y-137076585D02*
X163300952Y-137052776D01*
X163300952Y-137052776D02*
X163277143Y-137005157D01*
X163277143Y-137005157D02*
X163277143Y-136981347D01*
X163277143Y-136981347D02*
X163300952Y-136933728D01*
X163300952Y-136933728D02*
X163324762Y-136909919D01*
X163324762Y-136909919D02*
X163372381Y-136886109D01*
X163372381Y-136886109D02*
X163467619Y-136886109D01*
X163467619Y-136886109D02*
X163515238Y-136909919D01*
X163515238Y-136909919D02*
X163539047Y-136933728D01*
X163539047Y-136933728D02*
X163562857Y-136981347D01*
X163562857Y-136981347D02*
X163562857Y-137005157D01*
X163562857Y-137005157D02*
X163539047Y-137052776D01*
X163539047Y-137052776D02*
X163515238Y-137076585D01*
X163515238Y-137076585D02*
X163467619Y-137100395D01*
X163467619Y-137100395D02*
X163372381Y-137100395D01*
X163372381Y-137100395D02*
X163324762Y-137124204D01*
X163324762Y-137124204D02*
X163300952Y-137148014D01*
X163300952Y-137148014D02*
X163277143Y-137195633D01*
X163277143Y-137195633D02*
X163277143Y-137290871D01*
X163277143Y-137290871D02*
X163300952Y-137338490D01*
X163300952Y-137338490D02*
X163324762Y-137362300D01*
X163324762Y-137362300D02*
X163372381Y-137386109D01*
X163372381Y-137386109D02*
X163467619Y-137386109D01*
X163467619Y-137386109D02*
X163515238Y-137362300D01*
X163515238Y-137362300D02*
X163539047Y-137338490D01*
X163539047Y-137338490D02*
X163562857Y-137290871D01*
X163562857Y-137290871D02*
X163562857Y-137195633D01*
X163562857Y-137195633D02*
X163539047Y-137148014D01*
X163539047Y-137148014D02*
X163515238Y-137124204D01*
X163515238Y-137124204D02*
X163467619Y-137100395D01*
X251123309Y-131941866D02*
X251480452Y-131941866D01*
X251480452Y-131941866D02*
X251551880Y-131965675D01*
X251551880Y-131965675D02*
X251599500Y-132013294D01*
X251599500Y-132013294D02*
X251623309Y-132084723D01*
X251623309Y-132084723D02*
X251623309Y-132132342D01*
X251337595Y-131632342D02*
X251313785Y-131679961D01*
X251313785Y-131679961D02*
X251289976Y-131703771D01*
X251289976Y-131703771D02*
X251242357Y-131727580D01*
X251242357Y-131727580D02*
X251218547Y-131727580D01*
X251218547Y-131727580D02*
X251170928Y-131703771D01*
X251170928Y-131703771D02*
X251147119Y-131679961D01*
X251147119Y-131679961D02*
X251123309Y-131632342D01*
X251123309Y-131632342D02*
X251123309Y-131537104D01*
X251123309Y-131537104D02*
X251147119Y-131489485D01*
X251147119Y-131489485D02*
X251170928Y-131465676D01*
X251170928Y-131465676D02*
X251218547Y-131441866D01*
X251218547Y-131441866D02*
X251242357Y-131441866D01*
X251242357Y-131441866D02*
X251289976Y-131465676D01*
X251289976Y-131465676D02*
X251313785Y-131489485D01*
X251313785Y-131489485D02*
X251337595Y-131537104D01*
X251337595Y-131537104D02*
X251337595Y-131632342D01*
X251337595Y-131632342D02*
X251361404Y-131679961D01*
X251361404Y-131679961D02*
X251385214Y-131703771D01*
X251385214Y-131703771D02*
X251432833Y-131727580D01*
X251432833Y-131727580D02*
X251528071Y-131727580D01*
X251528071Y-131727580D02*
X251575690Y-131703771D01*
X251575690Y-131703771D02*
X251599500Y-131679961D01*
X251599500Y-131679961D02*
X251623309Y-131632342D01*
X251623309Y-131632342D02*
X251623309Y-131537104D01*
X251623309Y-131537104D02*
X251599500Y-131489485D01*
X251599500Y-131489485D02*
X251575690Y-131465676D01*
X251575690Y-131465676D02*
X251528071Y-131441866D01*
X251528071Y-131441866D02*
X251432833Y-131441866D01*
X251432833Y-131441866D02*
X251385214Y-131465676D01*
X251385214Y-131465676D02*
X251361404Y-131489485D01*
X251361404Y-131489485D02*
X251337595Y-131537104D01*
X226768709Y-101819828D02*
X226530614Y-101986494D01*
X226768709Y-102105542D02*
X226268709Y-102105542D01*
X226268709Y-102105542D02*
X226268709Y-101915066D01*
X226268709Y-101915066D02*
X226292519Y-101867447D01*
X226292519Y-101867447D02*
X226316328Y-101843637D01*
X226316328Y-101843637D02*
X226363947Y-101819828D01*
X226363947Y-101819828D02*
X226435376Y-101819828D01*
X226435376Y-101819828D02*
X226482995Y-101843637D01*
X226482995Y-101843637D02*
X226506804Y-101867447D01*
X226506804Y-101867447D02*
X226530614Y-101915066D01*
X226530614Y-101915066D02*
X226530614Y-102105542D01*
X226316328Y-101629351D02*
X226292519Y-101605542D01*
X226292519Y-101605542D02*
X226268709Y-101557923D01*
X226268709Y-101557923D02*
X226268709Y-101438875D01*
X226268709Y-101438875D02*
X226292519Y-101391256D01*
X226292519Y-101391256D02*
X226316328Y-101367447D01*
X226316328Y-101367447D02*
X226363947Y-101343637D01*
X226363947Y-101343637D02*
X226411566Y-101343637D01*
X226411566Y-101343637D02*
X226482995Y-101367447D01*
X226482995Y-101367447D02*
X226768709Y-101653161D01*
X226768709Y-101653161D02*
X226768709Y-101343637D01*
X226268709Y-100915066D02*
X226268709Y-101010304D01*
X226268709Y-101010304D02*
X226292519Y-101057923D01*
X226292519Y-101057923D02*
X226316328Y-101081733D01*
X226316328Y-101081733D02*
X226387757Y-101129352D01*
X226387757Y-101129352D02*
X226482995Y-101153161D01*
X226482995Y-101153161D02*
X226673471Y-101153161D01*
X226673471Y-101153161D02*
X226721090Y-101129352D01*
X226721090Y-101129352D02*
X226744900Y-101105542D01*
X226744900Y-101105542D02*
X226768709Y-101057923D01*
X226768709Y-101057923D02*
X226768709Y-100962685D01*
X226768709Y-100962685D02*
X226744900Y-100915066D01*
X226744900Y-100915066D02*
X226721090Y-100891257D01*
X226721090Y-100891257D02*
X226673471Y-100867447D01*
X226673471Y-100867447D02*
X226554423Y-100867447D01*
X226554423Y-100867447D02*
X226506804Y-100891257D01*
X226506804Y-100891257D02*
X226482995Y-100915066D01*
X226482995Y-100915066D02*
X226459185Y-100962685D01*
X226459185Y-100962685D02*
X226459185Y-101057923D01*
X226459185Y-101057923D02*
X226482995Y-101105542D01*
X226482995Y-101105542D02*
X226506804Y-101129352D01*
X226506804Y-101129352D02*
X226554423Y-101153161D01*
X230666171Y-124813109D02*
X230428076Y-124813109D01*
X230428076Y-124813109D02*
X230428076Y-124313109D01*
X231094743Y-124813109D02*
X230809029Y-124813109D01*
X230951886Y-124813109D02*
X230951886Y-124313109D01*
X230951886Y-124313109D02*
X230904267Y-124384538D01*
X230904267Y-124384538D02*
X230856648Y-124432157D01*
X230856648Y-124432157D02*
X230809029Y-124455966D01*
X231285219Y-124360728D02*
X231309028Y-124336919D01*
X231309028Y-124336919D02*
X231356647Y-124313109D01*
X231356647Y-124313109D02*
X231475695Y-124313109D01*
X231475695Y-124313109D02*
X231523314Y-124336919D01*
X231523314Y-124336919D02*
X231547123Y-124360728D01*
X231547123Y-124360728D02*
X231570933Y-124408347D01*
X231570933Y-124408347D02*
X231570933Y-124455966D01*
X231570933Y-124455966D02*
X231547123Y-124527395D01*
X231547123Y-124527395D02*
X231261409Y-124813109D01*
X231261409Y-124813109D02*
X231570933Y-124813109D01*
X208819047Y-113076109D02*
X208819047Y-113480871D01*
X208819047Y-113480871D02*
X208842857Y-113528490D01*
X208842857Y-113528490D02*
X208866666Y-113552300D01*
X208866666Y-113552300D02*
X208914285Y-113576109D01*
X208914285Y-113576109D02*
X209009523Y-113576109D01*
X209009523Y-113576109D02*
X209057142Y-113552300D01*
X209057142Y-113552300D02*
X209080952Y-113528490D01*
X209080952Y-113528490D02*
X209104761Y-113480871D01*
X209104761Y-113480871D02*
X209104761Y-113076109D01*
X209604762Y-113576109D02*
X209319048Y-113576109D01*
X209461905Y-113576109D02*
X209461905Y-113076109D01*
X209461905Y-113076109D02*
X209414286Y-113147538D01*
X209414286Y-113147538D02*
X209366667Y-113195157D01*
X209366667Y-113195157D02*
X209319048Y-113218966D01*
X216518571Y-106923809D02*
X216351905Y-106685714D01*
X216232857Y-106923809D02*
X216232857Y-106423809D01*
X216232857Y-106423809D02*
X216423333Y-106423809D01*
X216423333Y-106423809D02*
X216470952Y-106447619D01*
X216470952Y-106447619D02*
X216494762Y-106471428D01*
X216494762Y-106471428D02*
X216518571Y-106519047D01*
X216518571Y-106519047D02*
X216518571Y-106590476D01*
X216518571Y-106590476D02*
X216494762Y-106638095D01*
X216494762Y-106638095D02*
X216470952Y-106661904D01*
X216470952Y-106661904D02*
X216423333Y-106685714D01*
X216423333Y-106685714D02*
X216232857Y-106685714D01*
X216994762Y-106923809D02*
X216709048Y-106923809D01*
X216851905Y-106923809D02*
X216851905Y-106423809D01*
X216851905Y-106423809D02*
X216804286Y-106495238D01*
X216804286Y-106495238D02*
X216756667Y-106542857D01*
X216756667Y-106542857D02*
X216709048Y-106566666D01*
X217232857Y-106923809D02*
X217328095Y-106923809D01*
X217328095Y-106923809D02*
X217375714Y-106900000D01*
X217375714Y-106900000D02*
X217399523Y-106876190D01*
X217399523Y-106876190D02*
X217447142Y-106804761D01*
X217447142Y-106804761D02*
X217470952Y-106709523D01*
X217470952Y-106709523D02*
X217470952Y-106519047D01*
X217470952Y-106519047D02*
X217447142Y-106471428D01*
X217447142Y-106471428D02*
X217423333Y-106447619D01*
X217423333Y-106447619D02*
X217375714Y-106423809D01*
X217375714Y-106423809D02*
X217280476Y-106423809D01*
X217280476Y-106423809D02*
X217232857Y-106447619D01*
X217232857Y-106447619D02*
X217209047Y-106471428D01*
X217209047Y-106471428D02*
X217185238Y-106519047D01*
X217185238Y-106519047D02*
X217185238Y-106638095D01*
X217185238Y-106638095D02*
X217209047Y-106685714D01*
X217209047Y-106685714D02*
X217232857Y-106709523D01*
X217232857Y-106709523D02*
X217280476Y-106733333D01*
X217280476Y-106733333D02*
X217375714Y-106733333D01*
X217375714Y-106733333D02*
X217423333Y-106709523D01*
X217423333Y-106709523D02*
X217447142Y-106685714D01*
X217447142Y-106685714D02*
X217470952Y-106638095D01*
X229898490Y-105101428D02*
X229922300Y-105125237D01*
X229922300Y-105125237D02*
X229946109Y-105196666D01*
X229946109Y-105196666D02*
X229946109Y-105244285D01*
X229946109Y-105244285D02*
X229922300Y-105315713D01*
X229922300Y-105315713D02*
X229874680Y-105363332D01*
X229874680Y-105363332D02*
X229827061Y-105387142D01*
X229827061Y-105387142D02*
X229731823Y-105410951D01*
X229731823Y-105410951D02*
X229660395Y-105410951D01*
X229660395Y-105410951D02*
X229565157Y-105387142D01*
X229565157Y-105387142D02*
X229517538Y-105363332D01*
X229517538Y-105363332D02*
X229469919Y-105315713D01*
X229469919Y-105315713D02*
X229446109Y-105244285D01*
X229446109Y-105244285D02*
X229446109Y-105196666D01*
X229446109Y-105196666D02*
X229469919Y-105125237D01*
X229469919Y-105125237D02*
X229493728Y-105101428D01*
X229946109Y-104625237D02*
X229946109Y-104910951D01*
X229946109Y-104768094D02*
X229446109Y-104768094D01*
X229446109Y-104768094D02*
X229517538Y-104815713D01*
X229517538Y-104815713D02*
X229565157Y-104863332D01*
X229565157Y-104863332D02*
X229588966Y-104910951D01*
X229660395Y-104339523D02*
X229636585Y-104387142D01*
X229636585Y-104387142D02*
X229612776Y-104410952D01*
X229612776Y-104410952D02*
X229565157Y-104434761D01*
X229565157Y-104434761D02*
X229541347Y-104434761D01*
X229541347Y-104434761D02*
X229493728Y-104410952D01*
X229493728Y-104410952D02*
X229469919Y-104387142D01*
X229469919Y-104387142D02*
X229446109Y-104339523D01*
X229446109Y-104339523D02*
X229446109Y-104244285D01*
X229446109Y-104244285D02*
X229469919Y-104196666D01*
X229469919Y-104196666D02*
X229493728Y-104172857D01*
X229493728Y-104172857D02*
X229541347Y-104149047D01*
X229541347Y-104149047D02*
X229565157Y-104149047D01*
X229565157Y-104149047D02*
X229612776Y-104172857D01*
X229612776Y-104172857D02*
X229636585Y-104196666D01*
X229636585Y-104196666D02*
X229660395Y-104244285D01*
X229660395Y-104244285D02*
X229660395Y-104339523D01*
X229660395Y-104339523D02*
X229684204Y-104387142D01*
X229684204Y-104387142D02*
X229708014Y-104410952D01*
X229708014Y-104410952D02*
X229755633Y-104434761D01*
X229755633Y-104434761D02*
X229850871Y-104434761D01*
X229850871Y-104434761D02*
X229898490Y-104410952D01*
X229898490Y-104410952D02*
X229922300Y-104387142D01*
X229922300Y-104387142D02*
X229946109Y-104339523D01*
X229946109Y-104339523D02*
X229946109Y-104244285D01*
X229946109Y-104244285D02*
X229922300Y-104196666D01*
X229922300Y-104196666D02*
X229898490Y-104172857D01*
X229898490Y-104172857D02*
X229850871Y-104149047D01*
X229850871Y-104149047D02*
X229755633Y-104149047D01*
X229755633Y-104149047D02*
X229708014Y-104172857D01*
X229708014Y-104172857D02*
X229684204Y-104196666D01*
X229684204Y-104196666D02*
X229660395Y-104244285D01*
X168830952Y-136166109D02*
X168830952Y-135666109D01*
X168830952Y-135666109D02*
X168950000Y-135666109D01*
X168950000Y-135666109D02*
X169021428Y-135689919D01*
X169021428Y-135689919D02*
X169069047Y-135737538D01*
X169069047Y-135737538D02*
X169092857Y-135785157D01*
X169092857Y-135785157D02*
X169116666Y-135880395D01*
X169116666Y-135880395D02*
X169116666Y-135951823D01*
X169116666Y-135951823D02*
X169092857Y-136047061D01*
X169092857Y-136047061D02*
X169069047Y-136094680D01*
X169069047Y-136094680D02*
X169021428Y-136142300D01*
X169021428Y-136142300D02*
X168950000Y-136166109D01*
X168950000Y-136166109D02*
X168830952Y-136166109D01*
X169545238Y-135832776D02*
X169545238Y-136166109D01*
X169426190Y-135642300D02*
X169307143Y-135999442D01*
X169307143Y-135999442D02*
X169616666Y-135999442D01*
X226032109Y-114138828D02*
X225794014Y-114305494D01*
X226032109Y-114424542D02*
X225532109Y-114424542D01*
X225532109Y-114424542D02*
X225532109Y-114234066D01*
X225532109Y-114234066D02*
X225555919Y-114186447D01*
X225555919Y-114186447D02*
X225579728Y-114162637D01*
X225579728Y-114162637D02*
X225627347Y-114138828D01*
X225627347Y-114138828D02*
X225698776Y-114138828D01*
X225698776Y-114138828D02*
X225746395Y-114162637D01*
X225746395Y-114162637D02*
X225770204Y-114186447D01*
X225770204Y-114186447D02*
X225794014Y-114234066D01*
X225794014Y-114234066D02*
X225794014Y-114424542D01*
X225579728Y-113948351D02*
X225555919Y-113924542D01*
X225555919Y-113924542D02*
X225532109Y-113876923D01*
X225532109Y-113876923D02*
X225532109Y-113757875D01*
X225532109Y-113757875D02*
X225555919Y-113710256D01*
X225555919Y-113710256D02*
X225579728Y-113686447D01*
X225579728Y-113686447D02*
X225627347Y-113662637D01*
X225627347Y-113662637D02*
X225674966Y-113662637D01*
X225674966Y-113662637D02*
X225746395Y-113686447D01*
X225746395Y-113686447D02*
X226032109Y-113972161D01*
X226032109Y-113972161D02*
X226032109Y-113662637D01*
X225532109Y-113495971D02*
X225532109Y-113186447D01*
X225532109Y-113186447D02*
X225722585Y-113353114D01*
X225722585Y-113353114D02*
X225722585Y-113281685D01*
X225722585Y-113281685D02*
X225746395Y-113234066D01*
X225746395Y-113234066D02*
X225770204Y-113210257D01*
X225770204Y-113210257D02*
X225817823Y-113186447D01*
X225817823Y-113186447D02*
X225936871Y-113186447D01*
X225936871Y-113186447D02*
X225984490Y-113210257D01*
X225984490Y-113210257D02*
X226008300Y-113234066D01*
X226008300Y-113234066D02*
X226032109Y-113281685D01*
X226032109Y-113281685D02*
X226032109Y-113424542D01*
X226032109Y-113424542D02*
X226008300Y-113472161D01*
X226008300Y-113472161D02*
X225984490Y-113495971D01*
X228318571Y-106626109D02*
X228151905Y-106388014D01*
X228032857Y-106626109D02*
X228032857Y-106126109D01*
X228032857Y-106126109D02*
X228223333Y-106126109D01*
X228223333Y-106126109D02*
X228270952Y-106149919D01*
X228270952Y-106149919D02*
X228294762Y-106173728D01*
X228294762Y-106173728D02*
X228318571Y-106221347D01*
X228318571Y-106221347D02*
X228318571Y-106292776D01*
X228318571Y-106292776D02*
X228294762Y-106340395D01*
X228294762Y-106340395D02*
X228270952Y-106364204D01*
X228270952Y-106364204D02*
X228223333Y-106388014D01*
X228223333Y-106388014D02*
X228032857Y-106388014D01*
X228509048Y-106173728D02*
X228532857Y-106149919D01*
X228532857Y-106149919D02*
X228580476Y-106126109D01*
X228580476Y-106126109D02*
X228699524Y-106126109D01*
X228699524Y-106126109D02*
X228747143Y-106149919D01*
X228747143Y-106149919D02*
X228770952Y-106173728D01*
X228770952Y-106173728D02*
X228794762Y-106221347D01*
X228794762Y-106221347D02*
X228794762Y-106268966D01*
X228794762Y-106268966D02*
X228770952Y-106340395D01*
X228770952Y-106340395D02*
X228485238Y-106626109D01*
X228485238Y-106626109D02*
X228794762Y-106626109D01*
X228985238Y-106173728D02*
X229009047Y-106149919D01*
X229009047Y-106149919D02*
X229056666Y-106126109D01*
X229056666Y-106126109D02*
X229175714Y-106126109D01*
X229175714Y-106126109D02*
X229223333Y-106149919D01*
X229223333Y-106149919D02*
X229247142Y-106173728D01*
X229247142Y-106173728D02*
X229270952Y-106221347D01*
X229270952Y-106221347D02*
X229270952Y-106268966D01*
X229270952Y-106268966D02*
X229247142Y-106340395D01*
X229247142Y-106340395D02*
X228961428Y-106626109D01*
X228961428Y-106626109D02*
X229270952Y-106626109D01*
X200126647Y-117785309D02*
X200126647Y-118190071D01*
X200126647Y-118190071D02*
X200150457Y-118237690D01*
X200150457Y-118237690D02*
X200174266Y-118261500D01*
X200174266Y-118261500D02*
X200221885Y-118285309D01*
X200221885Y-118285309D02*
X200317123Y-118285309D01*
X200317123Y-118285309D02*
X200364742Y-118261500D01*
X200364742Y-118261500D02*
X200388552Y-118237690D01*
X200388552Y-118237690D02*
X200412361Y-118190071D01*
X200412361Y-118190071D02*
X200412361Y-117785309D01*
X200626648Y-117832928D02*
X200650457Y-117809119D01*
X200650457Y-117809119D02*
X200698076Y-117785309D01*
X200698076Y-117785309D02*
X200817124Y-117785309D01*
X200817124Y-117785309D02*
X200864743Y-117809119D01*
X200864743Y-117809119D02*
X200888552Y-117832928D01*
X200888552Y-117832928D02*
X200912362Y-117880547D01*
X200912362Y-117880547D02*
X200912362Y-117928166D01*
X200912362Y-117928166D02*
X200888552Y-117999595D01*
X200888552Y-117999595D02*
X200602838Y-118285309D01*
X200602838Y-118285309D02*
X200912362Y-118285309D01*
X279383371Y-134693709D02*
X279216705Y-134455614D01*
X279097657Y-134693709D02*
X279097657Y-134193709D01*
X279097657Y-134193709D02*
X279288133Y-134193709D01*
X279288133Y-134193709D02*
X279335752Y-134217519D01*
X279335752Y-134217519D02*
X279359562Y-134241328D01*
X279359562Y-134241328D02*
X279383371Y-134288947D01*
X279383371Y-134288947D02*
X279383371Y-134360376D01*
X279383371Y-134360376D02*
X279359562Y-134407995D01*
X279359562Y-134407995D02*
X279335752Y-134431804D01*
X279335752Y-134431804D02*
X279288133Y-134455614D01*
X279288133Y-134455614D02*
X279097657Y-134455614D01*
X279859562Y-134693709D02*
X279573848Y-134693709D01*
X279716705Y-134693709D02*
X279716705Y-134193709D01*
X279716705Y-134193709D02*
X279669086Y-134265138D01*
X279669086Y-134265138D02*
X279621467Y-134312757D01*
X279621467Y-134312757D02*
X279573848Y-134336566D01*
X280288133Y-134193709D02*
X280192895Y-134193709D01*
X280192895Y-134193709D02*
X280145276Y-134217519D01*
X280145276Y-134217519D02*
X280121466Y-134241328D01*
X280121466Y-134241328D02*
X280073847Y-134312757D01*
X280073847Y-134312757D02*
X280050038Y-134407995D01*
X280050038Y-134407995D02*
X280050038Y-134598471D01*
X280050038Y-134598471D02*
X280073847Y-134646090D01*
X280073847Y-134646090D02*
X280097657Y-134669900D01*
X280097657Y-134669900D02*
X280145276Y-134693709D01*
X280145276Y-134693709D02*
X280240514Y-134693709D01*
X280240514Y-134693709D02*
X280288133Y-134669900D01*
X280288133Y-134669900D02*
X280311942Y-134646090D01*
X280311942Y-134646090D02*
X280335752Y-134598471D01*
X280335752Y-134598471D02*
X280335752Y-134479423D01*
X280335752Y-134479423D02*
X280311942Y-134431804D01*
X280311942Y-134431804D02*
X280288133Y-134407995D01*
X280288133Y-134407995D02*
X280240514Y-134384185D01*
X280240514Y-134384185D02*
X280145276Y-134384185D01*
X280145276Y-134384185D02*
X280097657Y-134407995D01*
X280097657Y-134407995D02*
X280073847Y-134431804D01*
X280073847Y-134431804D02*
X280050038Y-134479423D01*
X200616666Y-112378490D02*
X200592857Y-112402300D01*
X200592857Y-112402300D02*
X200521428Y-112426109D01*
X200521428Y-112426109D02*
X200473809Y-112426109D01*
X200473809Y-112426109D02*
X200402381Y-112402300D01*
X200402381Y-112402300D02*
X200354762Y-112354680D01*
X200354762Y-112354680D02*
X200330952Y-112307061D01*
X200330952Y-112307061D02*
X200307143Y-112211823D01*
X200307143Y-112211823D02*
X200307143Y-112140395D01*
X200307143Y-112140395D02*
X200330952Y-112045157D01*
X200330952Y-112045157D02*
X200354762Y-111997538D01*
X200354762Y-111997538D02*
X200402381Y-111949919D01*
X200402381Y-111949919D02*
X200473809Y-111926109D01*
X200473809Y-111926109D02*
X200521428Y-111926109D01*
X200521428Y-111926109D02*
X200592857Y-111949919D01*
X200592857Y-111949919D02*
X200616666Y-111973728D01*
X201092857Y-112426109D02*
X200807143Y-112426109D01*
X200950000Y-112426109D02*
X200950000Y-111926109D01*
X200950000Y-111926109D02*
X200902381Y-111997538D01*
X200902381Y-111997538D02*
X200854762Y-112045157D01*
X200854762Y-112045157D02*
X200807143Y-112068966D01*
X205016666Y-111978490D02*
X204992857Y-112002300D01*
X204992857Y-112002300D02*
X204921428Y-112026109D01*
X204921428Y-112026109D02*
X204873809Y-112026109D01*
X204873809Y-112026109D02*
X204802381Y-112002300D01*
X204802381Y-112002300D02*
X204754762Y-111954680D01*
X204754762Y-111954680D02*
X204730952Y-111907061D01*
X204730952Y-111907061D02*
X204707143Y-111811823D01*
X204707143Y-111811823D02*
X204707143Y-111740395D01*
X204707143Y-111740395D02*
X204730952Y-111645157D01*
X204730952Y-111645157D02*
X204754762Y-111597538D01*
X204754762Y-111597538D02*
X204802381Y-111549919D01*
X204802381Y-111549919D02*
X204873809Y-111526109D01*
X204873809Y-111526109D02*
X204921428Y-111526109D01*
X204921428Y-111526109D02*
X204992857Y-111549919D01*
X204992857Y-111549919D02*
X205016666Y-111573728D01*
X205469047Y-111526109D02*
X205230952Y-111526109D01*
X205230952Y-111526109D02*
X205207143Y-111764204D01*
X205207143Y-111764204D02*
X205230952Y-111740395D01*
X205230952Y-111740395D02*
X205278571Y-111716585D01*
X205278571Y-111716585D02*
X205397619Y-111716585D01*
X205397619Y-111716585D02*
X205445238Y-111740395D01*
X205445238Y-111740395D02*
X205469047Y-111764204D01*
X205469047Y-111764204D02*
X205492857Y-111811823D01*
X205492857Y-111811823D02*
X205492857Y-111930871D01*
X205492857Y-111930871D02*
X205469047Y-111978490D01*
X205469047Y-111978490D02*
X205445238Y-112002300D01*
X205445238Y-112002300D02*
X205397619Y-112026109D01*
X205397619Y-112026109D02*
X205278571Y-112026109D01*
X205278571Y-112026109D02*
X205230952Y-112002300D01*
X205230952Y-112002300D02*
X205207143Y-111978490D01*
X213552267Y-108730640D02*
X213528458Y-108754450D01*
X213528458Y-108754450D02*
X213457029Y-108778259D01*
X213457029Y-108778259D02*
X213409410Y-108778259D01*
X213409410Y-108778259D02*
X213337982Y-108754450D01*
X213337982Y-108754450D02*
X213290363Y-108706830D01*
X213290363Y-108706830D02*
X213266553Y-108659211D01*
X213266553Y-108659211D02*
X213242744Y-108563973D01*
X213242744Y-108563973D02*
X213242744Y-108492545D01*
X213242744Y-108492545D02*
X213266553Y-108397307D01*
X213266553Y-108397307D02*
X213290363Y-108349688D01*
X213290363Y-108349688D02*
X213337982Y-108302069D01*
X213337982Y-108302069D02*
X213409410Y-108278259D01*
X213409410Y-108278259D02*
X213457029Y-108278259D01*
X213457029Y-108278259D02*
X213528458Y-108302069D01*
X213528458Y-108302069D02*
X213552267Y-108325878D01*
X213742744Y-108325878D02*
X213766553Y-108302069D01*
X213766553Y-108302069D02*
X213814172Y-108278259D01*
X213814172Y-108278259D02*
X213933220Y-108278259D01*
X213933220Y-108278259D02*
X213980839Y-108302069D01*
X213980839Y-108302069D02*
X214004648Y-108325878D01*
X214004648Y-108325878D02*
X214028458Y-108373497D01*
X214028458Y-108373497D02*
X214028458Y-108421116D01*
X214028458Y-108421116D02*
X214004648Y-108492545D01*
X214004648Y-108492545D02*
X213718934Y-108778259D01*
X213718934Y-108778259D02*
X214028458Y-108778259D01*
X214480838Y-108278259D02*
X214242743Y-108278259D01*
X214242743Y-108278259D02*
X214218934Y-108516354D01*
X214218934Y-108516354D02*
X214242743Y-108492545D01*
X214242743Y-108492545D02*
X214290362Y-108468735D01*
X214290362Y-108468735D02*
X214409410Y-108468735D01*
X214409410Y-108468735D02*
X214457029Y-108492545D01*
X214457029Y-108492545D02*
X214480838Y-108516354D01*
X214480838Y-108516354D02*
X214504648Y-108563973D01*
X214504648Y-108563973D02*
X214504648Y-108683021D01*
X214504648Y-108683021D02*
X214480838Y-108730640D01*
X214480838Y-108730640D02*
X214457029Y-108754450D01*
X214457029Y-108754450D02*
X214409410Y-108778259D01*
X214409410Y-108778259D02*
X214290362Y-108778259D01*
X214290362Y-108778259D02*
X214242743Y-108754450D01*
X214242743Y-108754450D02*
X214218934Y-108730640D01*
X166728780Y-132531528D02*
X166681161Y-132507719D01*
X166681161Y-132507719D02*
X166633542Y-132460100D01*
X166633542Y-132460100D02*
X166562114Y-132388671D01*
X166562114Y-132388671D02*
X166514495Y-132364861D01*
X166514495Y-132364861D02*
X166466876Y-132364861D01*
X166490685Y-132483909D02*
X166443066Y-132460100D01*
X166443066Y-132460100D02*
X166395447Y-132412480D01*
X166395447Y-132412480D02*
X166371638Y-132317242D01*
X166371638Y-132317242D02*
X166371638Y-132150576D01*
X166371638Y-132150576D02*
X166395447Y-132055338D01*
X166395447Y-132055338D02*
X166443066Y-132007719D01*
X166443066Y-132007719D02*
X166490685Y-131983909D01*
X166490685Y-131983909D02*
X166585923Y-131983909D01*
X166585923Y-131983909D02*
X166633542Y-132007719D01*
X166633542Y-132007719D02*
X166681161Y-132055338D01*
X166681161Y-132055338D02*
X166704971Y-132150576D01*
X166704971Y-132150576D02*
X166704971Y-132317242D01*
X166704971Y-132317242D02*
X166681161Y-132412480D01*
X166681161Y-132412480D02*
X166633542Y-132460100D01*
X166633542Y-132460100D02*
X166585923Y-132483909D01*
X166585923Y-132483909D02*
X166490685Y-132483909D01*
X166871638Y-131983909D02*
X167181162Y-131983909D01*
X167181162Y-131983909D02*
X167014495Y-132174385D01*
X167014495Y-132174385D02*
X167085924Y-132174385D01*
X167085924Y-132174385D02*
X167133543Y-132198195D01*
X167133543Y-132198195D02*
X167157352Y-132222004D01*
X167157352Y-132222004D02*
X167181162Y-132269623D01*
X167181162Y-132269623D02*
X167181162Y-132388671D01*
X167181162Y-132388671D02*
X167157352Y-132436290D01*
X167157352Y-132436290D02*
X167133543Y-132460100D01*
X167133543Y-132460100D02*
X167085924Y-132483909D01*
X167085924Y-132483909D02*
X166943067Y-132483909D01*
X166943067Y-132483909D02*
X166895448Y-132460100D01*
X166895448Y-132460100D02*
X166871638Y-132436290D01*
X234034909Y-97316171D02*
X234011100Y-97292362D01*
X234011100Y-97292362D02*
X233987290Y-97220933D01*
X233987290Y-97220933D02*
X233987290Y-97173314D01*
X233987290Y-97173314D02*
X234011100Y-97101886D01*
X234011100Y-97101886D02*
X234058719Y-97054267D01*
X234058719Y-97054267D02*
X234106338Y-97030457D01*
X234106338Y-97030457D02*
X234201576Y-97006648D01*
X234201576Y-97006648D02*
X234273004Y-97006648D01*
X234273004Y-97006648D02*
X234368242Y-97030457D01*
X234368242Y-97030457D02*
X234415861Y-97054267D01*
X234415861Y-97054267D02*
X234463480Y-97101886D01*
X234463480Y-97101886D02*
X234487290Y-97173314D01*
X234487290Y-97173314D02*
X234487290Y-97220933D01*
X234487290Y-97220933D02*
X234463480Y-97292362D01*
X234463480Y-97292362D02*
X234439671Y-97316171D01*
X233987290Y-97792362D02*
X233987290Y-97506648D01*
X233987290Y-97649505D02*
X234487290Y-97649505D01*
X234487290Y-97649505D02*
X234415861Y-97601886D01*
X234415861Y-97601886D02*
X234368242Y-97554267D01*
X234368242Y-97554267D02*
X234344433Y-97506648D01*
X234439671Y-97982838D02*
X234463480Y-98006647D01*
X234463480Y-98006647D02*
X234487290Y-98054266D01*
X234487290Y-98054266D02*
X234487290Y-98173314D01*
X234487290Y-98173314D02*
X234463480Y-98220933D01*
X234463480Y-98220933D02*
X234439671Y-98244742D01*
X234439671Y-98244742D02*
X234392052Y-98268552D01*
X234392052Y-98268552D02*
X234344433Y-98268552D01*
X234344433Y-98268552D02*
X234273004Y-98244742D01*
X234273004Y-98244742D02*
X233987290Y-97959028D01*
X233987290Y-97959028D02*
X233987290Y-98268552D01*
X212536109Y-87873333D02*
X212298014Y-88039999D01*
X212536109Y-88159047D02*
X212036109Y-88159047D01*
X212036109Y-88159047D02*
X212036109Y-87968571D01*
X212036109Y-87968571D02*
X212059919Y-87920952D01*
X212059919Y-87920952D02*
X212083728Y-87897142D01*
X212083728Y-87897142D02*
X212131347Y-87873333D01*
X212131347Y-87873333D02*
X212202776Y-87873333D01*
X212202776Y-87873333D02*
X212250395Y-87897142D01*
X212250395Y-87897142D02*
X212274204Y-87920952D01*
X212274204Y-87920952D02*
X212298014Y-87968571D01*
X212298014Y-87968571D02*
X212298014Y-88159047D01*
X212250395Y-87587618D02*
X212226585Y-87635237D01*
X212226585Y-87635237D02*
X212202776Y-87659047D01*
X212202776Y-87659047D02*
X212155157Y-87682856D01*
X212155157Y-87682856D02*
X212131347Y-87682856D01*
X212131347Y-87682856D02*
X212083728Y-87659047D01*
X212083728Y-87659047D02*
X212059919Y-87635237D01*
X212059919Y-87635237D02*
X212036109Y-87587618D01*
X212036109Y-87587618D02*
X212036109Y-87492380D01*
X212036109Y-87492380D02*
X212059919Y-87444761D01*
X212059919Y-87444761D02*
X212083728Y-87420952D01*
X212083728Y-87420952D02*
X212131347Y-87397142D01*
X212131347Y-87397142D02*
X212155157Y-87397142D01*
X212155157Y-87397142D02*
X212202776Y-87420952D01*
X212202776Y-87420952D02*
X212226585Y-87444761D01*
X212226585Y-87444761D02*
X212250395Y-87492380D01*
X212250395Y-87492380D02*
X212250395Y-87587618D01*
X212250395Y-87587618D02*
X212274204Y-87635237D01*
X212274204Y-87635237D02*
X212298014Y-87659047D01*
X212298014Y-87659047D02*
X212345633Y-87682856D01*
X212345633Y-87682856D02*
X212440871Y-87682856D01*
X212440871Y-87682856D02*
X212488490Y-87659047D01*
X212488490Y-87659047D02*
X212512300Y-87635237D01*
X212512300Y-87635237D02*
X212536109Y-87587618D01*
X212536109Y-87587618D02*
X212536109Y-87492380D01*
X212536109Y-87492380D02*
X212512300Y-87444761D01*
X212512300Y-87444761D02*
X212488490Y-87420952D01*
X212488490Y-87420952D02*
X212440871Y-87397142D01*
X212440871Y-87397142D02*
X212345633Y-87397142D01*
X212345633Y-87397142D02*
X212298014Y-87420952D01*
X212298014Y-87420952D02*
X212274204Y-87444761D01*
X212274204Y-87444761D02*
X212250395Y-87492380D01*
X260948658Y-111910759D02*
X260710563Y-111910759D01*
X260710563Y-111910759D02*
X260710563Y-111410759D01*
X261377230Y-111910759D02*
X261091516Y-111910759D01*
X261234373Y-111910759D02*
X261234373Y-111410759D01*
X261234373Y-111410759D02*
X261186754Y-111482188D01*
X261186754Y-111482188D02*
X261139135Y-111529807D01*
X261139135Y-111529807D02*
X261091516Y-111553616D01*
X261829610Y-111410759D02*
X261591515Y-111410759D01*
X261591515Y-111410759D02*
X261567706Y-111648854D01*
X261567706Y-111648854D02*
X261591515Y-111625045D01*
X261591515Y-111625045D02*
X261639134Y-111601235D01*
X261639134Y-111601235D02*
X261758182Y-111601235D01*
X261758182Y-111601235D02*
X261805801Y-111625045D01*
X261805801Y-111625045D02*
X261829610Y-111648854D01*
X261829610Y-111648854D02*
X261853420Y-111696473D01*
X261853420Y-111696473D02*
X261853420Y-111815521D01*
X261853420Y-111815521D02*
X261829610Y-111863140D01*
X261829610Y-111863140D02*
X261805801Y-111886950D01*
X261805801Y-111886950D02*
X261758182Y-111910759D01*
X261758182Y-111910759D02*
X261639134Y-111910759D01*
X261639134Y-111910759D02*
X261591515Y-111886950D01*
X261591515Y-111886950D02*
X261567706Y-111863140D01*
X267154709Y-126483228D02*
X266916614Y-126649894D01*
X267154709Y-126768942D02*
X266654709Y-126768942D01*
X266654709Y-126768942D02*
X266654709Y-126578466D01*
X266654709Y-126578466D02*
X266678519Y-126530847D01*
X266678519Y-126530847D02*
X266702328Y-126507037D01*
X266702328Y-126507037D02*
X266749947Y-126483228D01*
X266749947Y-126483228D02*
X266821376Y-126483228D01*
X266821376Y-126483228D02*
X266868995Y-126507037D01*
X266868995Y-126507037D02*
X266892804Y-126530847D01*
X266892804Y-126530847D02*
X266916614Y-126578466D01*
X266916614Y-126578466D02*
X266916614Y-126768942D01*
X266654709Y-126316561D02*
X266654709Y-126007037D01*
X266654709Y-126007037D02*
X266845185Y-126173704D01*
X266845185Y-126173704D02*
X266845185Y-126102275D01*
X266845185Y-126102275D02*
X266868995Y-126054656D01*
X266868995Y-126054656D02*
X266892804Y-126030847D01*
X266892804Y-126030847D02*
X266940423Y-126007037D01*
X266940423Y-126007037D02*
X267059471Y-126007037D01*
X267059471Y-126007037D02*
X267107090Y-126030847D01*
X267107090Y-126030847D02*
X267130900Y-126054656D01*
X267130900Y-126054656D02*
X267154709Y-126102275D01*
X267154709Y-126102275D02*
X267154709Y-126245132D01*
X267154709Y-126245132D02*
X267130900Y-126292751D01*
X267130900Y-126292751D02*
X267107090Y-126316561D01*
X266654709Y-125697514D02*
X266654709Y-125649895D01*
X266654709Y-125649895D02*
X266678519Y-125602276D01*
X266678519Y-125602276D02*
X266702328Y-125578466D01*
X266702328Y-125578466D02*
X266749947Y-125554657D01*
X266749947Y-125554657D02*
X266845185Y-125530847D01*
X266845185Y-125530847D02*
X266964233Y-125530847D01*
X266964233Y-125530847D02*
X267059471Y-125554657D01*
X267059471Y-125554657D02*
X267107090Y-125578466D01*
X267107090Y-125578466D02*
X267130900Y-125602276D01*
X267130900Y-125602276D02*
X267154709Y-125649895D01*
X267154709Y-125649895D02*
X267154709Y-125697514D01*
X267154709Y-125697514D02*
X267130900Y-125745133D01*
X267130900Y-125745133D02*
X267107090Y-125768942D01*
X267107090Y-125768942D02*
X267059471Y-125792752D01*
X267059471Y-125792752D02*
X266964233Y-125816561D01*
X266964233Y-125816561D02*
X266845185Y-125816561D01*
X266845185Y-125816561D02*
X266749947Y-125792752D01*
X266749947Y-125792752D02*
X266702328Y-125768942D01*
X266702328Y-125768942D02*
X266678519Y-125745133D01*
X266678519Y-125745133D02*
X266654709Y-125697514D01*
X230920171Y-116786709D02*
X230753505Y-116548614D01*
X230634457Y-116786709D02*
X230634457Y-116286709D01*
X230634457Y-116286709D02*
X230824933Y-116286709D01*
X230824933Y-116286709D02*
X230872552Y-116310519D01*
X230872552Y-116310519D02*
X230896362Y-116334328D01*
X230896362Y-116334328D02*
X230920171Y-116381947D01*
X230920171Y-116381947D02*
X230920171Y-116453376D01*
X230920171Y-116453376D02*
X230896362Y-116500995D01*
X230896362Y-116500995D02*
X230872552Y-116524804D01*
X230872552Y-116524804D02*
X230824933Y-116548614D01*
X230824933Y-116548614D02*
X230634457Y-116548614D01*
X231396362Y-116786709D02*
X231110648Y-116786709D01*
X231253505Y-116786709D02*
X231253505Y-116286709D01*
X231253505Y-116286709D02*
X231205886Y-116358138D01*
X231205886Y-116358138D02*
X231158267Y-116405757D01*
X231158267Y-116405757D02*
X231110648Y-116429566D01*
X231682076Y-116500995D02*
X231634457Y-116477185D01*
X231634457Y-116477185D02*
X231610647Y-116453376D01*
X231610647Y-116453376D02*
X231586838Y-116405757D01*
X231586838Y-116405757D02*
X231586838Y-116381947D01*
X231586838Y-116381947D02*
X231610647Y-116334328D01*
X231610647Y-116334328D02*
X231634457Y-116310519D01*
X231634457Y-116310519D02*
X231682076Y-116286709D01*
X231682076Y-116286709D02*
X231777314Y-116286709D01*
X231777314Y-116286709D02*
X231824933Y-116310519D01*
X231824933Y-116310519D02*
X231848742Y-116334328D01*
X231848742Y-116334328D02*
X231872552Y-116381947D01*
X231872552Y-116381947D02*
X231872552Y-116405757D01*
X231872552Y-116405757D02*
X231848742Y-116453376D01*
X231848742Y-116453376D02*
X231824933Y-116477185D01*
X231824933Y-116477185D02*
X231777314Y-116500995D01*
X231777314Y-116500995D02*
X231682076Y-116500995D01*
X231682076Y-116500995D02*
X231634457Y-116524804D01*
X231634457Y-116524804D02*
X231610647Y-116548614D01*
X231610647Y-116548614D02*
X231586838Y-116596233D01*
X231586838Y-116596233D02*
X231586838Y-116691471D01*
X231586838Y-116691471D02*
X231610647Y-116739090D01*
X231610647Y-116739090D02*
X231634457Y-116762900D01*
X231634457Y-116762900D02*
X231682076Y-116786709D01*
X231682076Y-116786709D02*
X231777314Y-116786709D01*
X231777314Y-116786709D02*
X231824933Y-116762900D01*
X231824933Y-116762900D02*
X231848742Y-116739090D01*
X231848742Y-116739090D02*
X231872552Y-116691471D01*
X231872552Y-116691471D02*
X231872552Y-116596233D01*
X231872552Y-116596233D02*
X231848742Y-116548614D01*
X231848742Y-116548614D02*
X231824933Y-116524804D01*
X231824933Y-116524804D02*
X231777314Y-116500995D01*
X169104947Y-112021438D02*
X168867178Y-112008977D01*
X168867178Y-112008977D02*
X168893346Y-111509662D01*
X169295162Y-112031407D02*
X169390270Y-112036391D01*
X169390270Y-112036391D02*
X169439070Y-112015106D01*
X169439070Y-112015106D02*
X169464093Y-111992575D01*
X169464093Y-111992575D02*
X169515385Y-111923737D01*
X169515385Y-111923737D02*
X169544146Y-111829875D01*
X169544146Y-111829875D02*
X169554115Y-111639660D01*
X169554115Y-111639660D02*
X169532830Y-111590860D01*
X169532830Y-111590860D02*
X169510299Y-111565837D01*
X169510299Y-111565837D02*
X169463991Y-111539568D01*
X169463991Y-111539568D02*
X169368884Y-111534584D01*
X169368884Y-111534584D02*
X169320084Y-111555869D01*
X169320084Y-111555869D02*
X169295061Y-111578400D01*
X169295061Y-111578400D02*
X169268792Y-111624707D01*
X169268792Y-111624707D02*
X169262561Y-111743592D01*
X169262561Y-111743592D02*
X169283846Y-111792392D01*
X169283846Y-111792392D02*
X169306377Y-111817415D01*
X169306377Y-111817415D02*
X169352685Y-111843684D01*
X169352685Y-111843684D02*
X169447792Y-111848668D01*
X169447792Y-111848668D02*
X169496592Y-111827383D01*
X169496592Y-111827383D02*
X169521615Y-111804852D01*
X169521615Y-111804852D02*
X169547884Y-111758545D01*
X215756371Y-105080490D02*
X215732562Y-105104300D01*
X215732562Y-105104300D02*
X215661133Y-105128109D01*
X215661133Y-105128109D02*
X215613514Y-105128109D01*
X215613514Y-105128109D02*
X215542086Y-105104300D01*
X215542086Y-105104300D02*
X215494467Y-105056680D01*
X215494467Y-105056680D02*
X215470657Y-105009061D01*
X215470657Y-105009061D02*
X215446848Y-104913823D01*
X215446848Y-104913823D02*
X215446848Y-104842395D01*
X215446848Y-104842395D02*
X215470657Y-104747157D01*
X215470657Y-104747157D02*
X215494467Y-104699538D01*
X215494467Y-104699538D02*
X215542086Y-104651919D01*
X215542086Y-104651919D02*
X215613514Y-104628109D01*
X215613514Y-104628109D02*
X215661133Y-104628109D01*
X215661133Y-104628109D02*
X215732562Y-104651919D01*
X215732562Y-104651919D02*
X215756371Y-104675728D01*
X216232562Y-105128109D02*
X215946848Y-105128109D01*
X216089705Y-105128109D02*
X216089705Y-104628109D01*
X216089705Y-104628109D02*
X216042086Y-104699538D01*
X216042086Y-104699538D02*
X215994467Y-104747157D01*
X215994467Y-104747157D02*
X215946848Y-104770966D01*
X216661133Y-104628109D02*
X216565895Y-104628109D01*
X216565895Y-104628109D02*
X216518276Y-104651919D01*
X216518276Y-104651919D02*
X216494466Y-104675728D01*
X216494466Y-104675728D02*
X216446847Y-104747157D01*
X216446847Y-104747157D02*
X216423038Y-104842395D01*
X216423038Y-104842395D02*
X216423038Y-105032871D01*
X216423038Y-105032871D02*
X216446847Y-105080490D01*
X216446847Y-105080490D02*
X216470657Y-105104300D01*
X216470657Y-105104300D02*
X216518276Y-105128109D01*
X216518276Y-105128109D02*
X216613514Y-105128109D01*
X216613514Y-105128109D02*
X216661133Y-105104300D01*
X216661133Y-105104300D02*
X216684942Y-105080490D01*
X216684942Y-105080490D02*
X216708752Y-105032871D01*
X216708752Y-105032871D02*
X216708752Y-104913823D01*
X216708752Y-104913823D02*
X216684942Y-104866204D01*
X216684942Y-104866204D02*
X216661133Y-104842395D01*
X216661133Y-104842395D02*
X216613514Y-104818585D01*
X216613514Y-104818585D02*
X216518276Y-104818585D01*
X216518276Y-104818585D02*
X216470657Y-104842395D01*
X216470657Y-104842395D02*
X216446847Y-104866204D01*
X216446847Y-104866204D02*
X216423038Y-104913823D01*
X171826666Y-135688490D02*
X171802857Y-135712300D01*
X171802857Y-135712300D02*
X171731428Y-135736109D01*
X171731428Y-135736109D02*
X171683809Y-135736109D01*
X171683809Y-135736109D02*
X171612381Y-135712300D01*
X171612381Y-135712300D02*
X171564762Y-135664680D01*
X171564762Y-135664680D02*
X171540952Y-135617061D01*
X171540952Y-135617061D02*
X171517143Y-135521823D01*
X171517143Y-135521823D02*
X171517143Y-135450395D01*
X171517143Y-135450395D02*
X171540952Y-135355157D01*
X171540952Y-135355157D02*
X171564762Y-135307538D01*
X171564762Y-135307538D02*
X171612381Y-135259919D01*
X171612381Y-135259919D02*
X171683809Y-135236109D01*
X171683809Y-135236109D02*
X171731428Y-135236109D01*
X171731428Y-135236109D02*
X171802857Y-135259919D01*
X171802857Y-135259919D02*
X171826666Y-135283728D01*
X172255238Y-135236109D02*
X172160000Y-135236109D01*
X172160000Y-135236109D02*
X172112381Y-135259919D01*
X172112381Y-135259919D02*
X172088571Y-135283728D01*
X172088571Y-135283728D02*
X172040952Y-135355157D01*
X172040952Y-135355157D02*
X172017143Y-135450395D01*
X172017143Y-135450395D02*
X172017143Y-135640871D01*
X172017143Y-135640871D02*
X172040952Y-135688490D01*
X172040952Y-135688490D02*
X172064762Y-135712300D01*
X172064762Y-135712300D02*
X172112381Y-135736109D01*
X172112381Y-135736109D02*
X172207619Y-135736109D01*
X172207619Y-135736109D02*
X172255238Y-135712300D01*
X172255238Y-135712300D02*
X172279047Y-135688490D01*
X172279047Y-135688490D02*
X172302857Y-135640871D01*
X172302857Y-135640871D02*
X172302857Y-135521823D01*
X172302857Y-135521823D02*
X172279047Y-135474204D01*
X172279047Y-135474204D02*
X172255238Y-135450395D01*
X172255238Y-135450395D02*
X172207619Y-135426585D01*
X172207619Y-135426585D02*
X172112381Y-135426585D01*
X172112381Y-135426585D02*
X172064762Y-135450395D01*
X172064762Y-135450395D02*
X172040952Y-135474204D01*
X172040952Y-135474204D02*
X172017143Y-135521823D01*
X214226109Y-97980952D02*
X214630871Y-97980952D01*
X214630871Y-97980952D02*
X214678490Y-97957142D01*
X214678490Y-97957142D02*
X214702300Y-97933333D01*
X214702300Y-97933333D02*
X214726109Y-97885714D01*
X214726109Y-97885714D02*
X214726109Y-97790476D01*
X214726109Y-97790476D02*
X214702300Y-97742857D01*
X214702300Y-97742857D02*
X214678490Y-97719047D01*
X214678490Y-97719047D02*
X214630871Y-97695238D01*
X214630871Y-97695238D02*
X214226109Y-97695238D01*
X214226109Y-97219047D02*
X214226109Y-97457142D01*
X214226109Y-97457142D02*
X214464204Y-97480951D01*
X214464204Y-97480951D02*
X214440395Y-97457142D01*
X214440395Y-97457142D02*
X214416585Y-97409523D01*
X214416585Y-97409523D02*
X214416585Y-97290475D01*
X214416585Y-97290475D02*
X214440395Y-97242856D01*
X214440395Y-97242856D02*
X214464204Y-97219047D01*
X214464204Y-97219047D02*
X214511823Y-97195237D01*
X214511823Y-97195237D02*
X214630871Y-97195237D01*
X214630871Y-97195237D02*
X214678490Y-97219047D01*
X214678490Y-97219047D02*
X214702300Y-97242856D01*
X214702300Y-97242856D02*
X214726109Y-97290475D01*
X214726109Y-97290475D02*
X214726109Y-97409523D01*
X214726109Y-97409523D02*
X214702300Y-97457142D01*
X214702300Y-97457142D02*
X214678490Y-97480951D01*
X228876909Y-96152447D02*
X228376909Y-96152447D01*
X228376909Y-96152447D02*
X228376909Y-96033399D01*
X228376909Y-96033399D02*
X228400719Y-95961971D01*
X228400719Y-95961971D02*
X228448338Y-95914352D01*
X228448338Y-95914352D02*
X228495957Y-95890542D01*
X228495957Y-95890542D02*
X228591195Y-95866733D01*
X228591195Y-95866733D02*
X228662623Y-95866733D01*
X228662623Y-95866733D02*
X228757861Y-95890542D01*
X228757861Y-95890542D02*
X228805480Y-95914352D01*
X228805480Y-95914352D02*
X228853100Y-95961971D01*
X228853100Y-95961971D02*
X228876909Y-96033399D01*
X228876909Y-96033399D02*
X228876909Y-96152447D01*
X228876909Y-95628637D02*
X228876909Y-95533399D01*
X228876909Y-95533399D02*
X228853100Y-95485780D01*
X228853100Y-95485780D02*
X228829290Y-95461971D01*
X228829290Y-95461971D02*
X228757861Y-95414352D01*
X228757861Y-95414352D02*
X228662623Y-95390542D01*
X228662623Y-95390542D02*
X228472147Y-95390542D01*
X228472147Y-95390542D02*
X228424528Y-95414352D01*
X228424528Y-95414352D02*
X228400719Y-95438161D01*
X228400719Y-95438161D02*
X228376909Y-95485780D01*
X228376909Y-95485780D02*
X228376909Y-95581018D01*
X228376909Y-95581018D02*
X228400719Y-95628637D01*
X228400719Y-95628637D02*
X228424528Y-95652447D01*
X228424528Y-95652447D02*
X228472147Y-95676256D01*
X228472147Y-95676256D02*
X228591195Y-95676256D01*
X228591195Y-95676256D02*
X228638814Y-95652447D01*
X228638814Y-95652447D02*
X228662623Y-95628637D01*
X228662623Y-95628637D02*
X228686433Y-95581018D01*
X228686433Y-95581018D02*
X228686433Y-95485780D01*
X228686433Y-95485780D02*
X228662623Y-95438161D01*
X228662623Y-95438161D02*
X228638814Y-95414352D01*
X228638814Y-95414352D02*
X228591195Y-95390542D01*
X170883660Y-126747132D02*
X170953744Y-126774647D01*
X170953744Y-126774647D02*
X171072629Y-126780877D01*
X171072629Y-126780877D02*
X171121429Y-126759593D01*
X171121429Y-126759593D02*
X171146452Y-126737062D01*
X171146452Y-126737062D02*
X171172721Y-126690754D01*
X171172721Y-126690754D02*
X171175213Y-126643200D01*
X171175213Y-126643200D02*
X171153928Y-126594400D01*
X171153928Y-126594400D02*
X171131397Y-126569377D01*
X171131397Y-126569377D02*
X171085090Y-126543108D01*
X171085090Y-126543108D02*
X170991228Y-126514347D01*
X170991228Y-126514347D02*
X170944920Y-126488078D01*
X170944920Y-126488078D02*
X170922390Y-126463055D01*
X170922390Y-126463055D02*
X170901105Y-126414255D01*
X170901105Y-126414255D02*
X170903597Y-126366701D01*
X170903597Y-126366701D02*
X170929866Y-126320394D01*
X170929866Y-126320394D02*
X170954889Y-126297863D01*
X170954889Y-126297863D02*
X171003689Y-126276578D01*
X171003689Y-126276578D02*
X171122574Y-126282809D01*
X171122574Y-126282809D02*
X171192658Y-126310324D01*
X171360342Y-126295270D02*
X171453059Y-126800815D01*
X171453059Y-126800815D02*
X171566858Y-126449146D01*
X171566858Y-126449146D02*
X171643274Y-126810784D01*
X171643274Y-126810784D02*
X171788326Y-126317699D01*
X172213920Y-126840690D02*
X171928597Y-126825737D01*
X172071258Y-126833213D02*
X172097426Y-126333898D01*
X172097426Y-126333898D02*
X172046134Y-126402737D01*
X172046134Y-126402737D02*
X171996088Y-126447799D01*
X171996088Y-126447799D02*
X171947288Y-126469083D01*
X216442171Y-104089890D02*
X216418362Y-104113700D01*
X216418362Y-104113700D02*
X216346933Y-104137509D01*
X216346933Y-104137509D02*
X216299314Y-104137509D01*
X216299314Y-104137509D02*
X216227886Y-104113700D01*
X216227886Y-104113700D02*
X216180267Y-104066080D01*
X216180267Y-104066080D02*
X216156457Y-104018461D01*
X216156457Y-104018461D02*
X216132648Y-103923223D01*
X216132648Y-103923223D02*
X216132648Y-103851795D01*
X216132648Y-103851795D02*
X216156457Y-103756557D01*
X216156457Y-103756557D02*
X216180267Y-103708938D01*
X216180267Y-103708938D02*
X216227886Y-103661319D01*
X216227886Y-103661319D02*
X216299314Y-103637509D01*
X216299314Y-103637509D02*
X216346933Y-103637509D01*
X216346933Y-103637509D02*
X216418362Y-103661319D01*
X216418362Y-103661319D02*
X216442171Y-103685128D01*
X216632648Y-103685128D02*
X216656457Y-103661319D01*
X216656457Y-103661319D02*
X216704076Y-103637509D01*
X216704076Y-103637509D02*
X216823124Y-103637509D01*
X216823124Y-103637509D02*
X216870743Y-103661319D01*
X216870743Y-103661319D02*
X216894552Y-103685128D01*
X216894552Y-103685128D02*
X216918362Y-103732747D01*
X216918362Y-103732747D02*
X216918362Y-103780366D01*
X216918362Y-103780366D02*
X216894552Y-103851795D01*
X216894552Y-103851795D02*
X216608838Y-104137509D01*
X216608838Y-104137509D02*
X216918362Y-104137509D01*
X217394552Y-104137509D02*
X217108838Y-104137509D01*
X217251695Y-104137509D02*
X217251695Y-103637509D01*
X217251695Y-103637509D02*
X217204076Y-103708938D01*
X217204076Y-103708938D02*
X217156457Y-103756557D01*
X217156457Y-103756557D02*
X217108838Y-103780366D01*
X187954947Y-111171438D02*
X187717178Y-111158977D01*
X187717178Y-111158977D02*
X187743346Y-110659662D01*
X188385322Y-110693307D02*
X188147553Y-110680846D01*
X188147553Y-110680846D02*
X188111315Y-110917369D01*
X188111315Y-110917369D02*
X188136338Y-110894838D01*
X188136338Y-110894838D02*
X188185138Y-110873553D01*
X188185138Y-110873553D02*
X188304023Y-110879784D01*
X188304023Y-110879784D02*
X188350330Y-110906053D01*
X188350330Y-110906053D02*
X188372861Y-110931076D01*
X188372861Y-110931076D02*
X188394146Y-110979875D01*
X188394146Y-110979875D02*
X188387915Y-111098760D01*
X188387915Y-111098760D02*
X188361646Y-111145068D01*
X188361646Y-111145068D02*
X188336623Y-111167598D01*
X188336623Y-111167598D02*
X188287824Y-111188883D01*
X188287824Y-111188883D02*
X188168939Y-111182653D01*
X188168939Y-111182653D02*
X188122631Y-111156384D01*
X188122631Y-111156384D02*
X188100101Y-111131361D01*
X260328228Y-122876109D02*
X260090133Y-122876109D01*
X260090133Y-122876109D02*
X260090133Y-122376109D01*
X260756800Y-122876109D02*
X260471086Y-122876109D01*
X260613943Y-122876109D02*
X260613943Y-122376109D01*
X260613943Y-122376109D02*
X260566324Y-122447538D01*
X260566324Y-122447538D02*
X260518705Y-122495157D01*
X260518705Y-122495157D02*
X260471086Y-122518966D01*
X261185371Y-122542776D02*
X261185371Y-122876109D01*
X261066323Y-122352300D02*
X260947276Y-122709442D01*
X260947276Y-122709442D02*
X261256799Y-122709442D01*
X277260952Y-136286109D02*
X277260952Y-135786109D01*
X277260952Y-135786109D02*
X277380000Y-135786109D01*
X277380000Y-135786109D02*
X277451428Y-135809919D01*
X277451428Y-135809919D02*
X277499047Y-135857538D01*
X277499047Y-135857538D02*
X277522857Y-135905157D01*
X277522857Y-135905157D02*
X277546666Y-136000395D01*
X277546666Y-136000395D02*
X277546666Y-136071823D01*
X277546666Y-136071823D02*
X277522857Y-136167061D01*
X277522857Y-136167061D02*
X277499047Y-136214680D01*
X277499047Y-136214680D02*
X277451428Y-136262300D01*
X277451428Y-136262300D02*
X277380000Y-136286109D01*
X277380000Y-136286109D02*
X277260952Y-136286109D01*
X277737143Y-135833728D02*
X277760952Y-135809919D01*
X277760952Y-135809919D02*
X277808571Y-135786109D01*
X277808571Y-135786109D02*
X277927619Y-135786109D01*
X277927619Y-135786109D02*
X277975238Y-135809919D01*
X277975238Y-135809919D02*
X277999047Y-135833728D01*
X277999047Y-135833728D02*
X278022857Y-135881347D01*
X278022857Y-135881347D02*
X278022857Y-135928966D01*
X278022857Y-135928966D02*
X277999047Y-136000395D01*
X277999047Y-136000395D02*
X277713333Y-136286109D01*
X277713333Y-136286109D02*
X278022857Y-136286109D01*
X221912666Y-100962509D02*
X221746000Y-100724414D01*
X221626952Y-100962509D02*
X221626952Y-100462509D01*
X221626952Y-100462509D02*
X221817428Y-100462509D01*
X221817428Y-100462509D02*
X221865047Y-100486319D01*
X221865047Y-100486319D02*
X221888857Y-100510128D01*
X221888857Y-100510128D02*
X221912666Y-100557747D01*
X221912666Y-100557747D02*
X221912666Y-100629176D01*
X221912666Y-100629176D02*
X221888857Y-100676795D01*
X221888857Y-100676795D02*
X221865047Y-100700604D01*
X221865047Y-100700604D02*
X221817428Y-100724414D01*
X221817428Y-100724414D02*
X221626952Y-100724414D01*
X222079333Y-100462509D02*
X222388857Y-100462509D01*
X222388857Y-100462509D02*
X222222190Y-100652985D01*
X222222190Y-100652985D02*
X222293619Y-100652985D01*
X222293619Y-100652985D02*
X222341238Y-100676795D01*
X222341238Y-100676795D02*
X222365047Y-100700604D01*
X222365047Y-100700604D02*
X222388857Y-100748223D01*
X222388857Y-100748223D02*
X222388857Y-100867271D01*
X222388857Y-100867271D02*
X222365047Y-100914890D01*
X222365047Y-100914890D02*
X222341238Y-100938700D01*
X222341238Y-100938700D02*
X222293619Y-100962509D01*
X222293619Y-100962509D02*
X222150762Y-100962509D01*
X222150762Y-100962509D02*
X222103143Y-100938700D01*
X222103143Y-100938700D02*
X222079333Y-100914890D01*
X229057890Y-102734228D02*
X229081700Y-102758037D01*
X229081700Y-102758037D02*
X229105509Y-102829466D01*
X229105509Y-102829466D02*
X229105509Y-102877085D01*
X229105509Y-102877085D02*
X229081700Y-102948513D01*
X229081700Y-102948513D02*
X229034080Y-102996132D01*
X229034080Y-102996132D02*
X228986461Y-103019942D01*
X228986461Y-103019942D02*
X228891223Y-103043751D01*
X228891223Y-103043751D02*
X228819795Y-103043751D01*
X228819795Y-103043751D02*
X228724557Y-103019942D01*
X228724557Y-103019942D02*
X228676938Y-102996132D01*
X228676938Y-102996132D02*
X228629319Y-102948513D01*
X228629319Y-102948513D02*
X228605509Y-102877085D01*
X228605509Y-102877085D02*
X228605509Y-102829466D01*
X228605509Y-102829466D02*
X228629319Y-102758037D01*
X228629319Y-102758037D02*
X228653128Y-102734228D01*
X229105509Y-102258037D02*
X229105509Y-102543751D01*
X229105509Y-102400894D02*
X228605509Y-102400894D01*
X228605509Y-102400894D02*
X228676938Y-102448513D01*
X228676938Y-102448513D02*
X228724557Y-102496132D01*
X228724557Y-102496132D02*
X228748366Y-102543751D01*
X228605509Y-101805657D02*
X228605509Y-102043752D01*
X228605509Y-102043752D02*
X228843604Y-102067561D01*
X228843604Y-102067561D02*
X228819795Y-102043752D01*
X228819795Y-102043752D02*
X228795985Y-101996133D01*
X228795985Y-101996133D02*
X228795985Y-101877085D01*
X228795985Y-101877085D02*
X228819795Y-101829466D01*
X228819795Y-101829466D02*
X228843604Y-101805657D01*
X228843604Y-101805657D02*
X228891223Y-101781847D01*
X228891223Y-101781847D02*
X229010271Y-101781847D01*
X229010271Y-101781847D02*
X229057890Y-101805657D01*
X229057890Y-101805657D02*
X229081700Y-101829466D01*
X229081700Y-101829466D02*
X229105509Y-101877085D01*
X229105509Y-101877085D02*
X229105509Y-101996133D01*
X229105509Y-101996133D02*
X229081700Y-102043752D01*
X229081700Y-102043752D02*
X229057890Y-102067561D01*
X226870309Y-114138828D02*
X226632214Y-114305494D01*
X226870309Y-114424542D02*
X226370309Y-114424542D01*
X226370309Y-114424542D02*
X226370309Y-114234066D01*
X226370309Y-114234066D02*
X226394119Y-114186447D01*
X226394119Y-114186447D02*
X226417928Y-114162637D01*
X226417928Y-114162637D02*
X226465547Y-114138828D01*
X226465547Y-114138828D02*
X226536976Y-114138828D01*
X226536976Y-114138828D02*
X226584595Y-114162637D01*
X226584595Y-114162637D02*
X226608404Y-114186447D01*
X226608404Y-114186447D02*
X226632214Y-114234066D01*
X226632214Y-114234066D02*
X226632214Y-114424542D01*
X226417928Y-113948351D02*
X226394119Y-113924542D01*
X226394119Y-113924542D02*
X226370309Y-113876923D01*
X226370309Y-113876923D02*
X226370309Y-113757875D01*
X226370309Y-113757875D02*
X226394119Y-113710256D01*
X226394119Y-113710256D02*
X226417928Y-113686447D01*
X226417928Y-113686447D02*
X226465547Y-113662637D01*
X226465547Y-113662637D02*
X226513166Y-113662637D01*
X226513166Y-113662637D02*
X226584595Y-113686447D01*
X226584595Y-113686447D02*
X226870309Y-113972161D01*
X226870309Y-113972161D02*
X226870309Y-113662637D01*
X226536976Y-113234066D02*
X226870309Y-113234066D01*
X226346500Y-113353114D02*
X226703642Y-113472161D01*
X226703642Y-113472161D02*
X226703642Y-113162638D01*
X227533890Y-125924428D02*
X227557700Y-125948237D01*
X227557700Y-125948237D02*
X227581509Y-126019666D01*
X227581509Y-126019666D02*
X227581509Y-126067285D01*
X227581509Y-126067285D02*
X227557700Y-126138713D01*
X227557700Y-126138713D02*
X227510080Y-126186332D01*
X227510080Y-126186332D02*
X227462461Y-126210142D01*
X227462461Y-126210142D02*
X227367223Y-126233951D01*
X227367223Y-126233951D02*
X227295795Y-126233951D01*
X227295795Y-126233951D02*
X227200557Y-126210142D01*
X227200557Y-126210142D02*
X227152938Y-126186332D01*
X227152938Y-126186332D02*
X227105319Y-126138713D01*
X227105319Y-126138713D02*
X227081509Y-126067285D01*
X227081509Y-126067285D02*
X227081509Y-126019666D01*
X227081509Y-126019666D02*
X227105319Y-125948237D01*
X227105319Y-125948237D02*
X227129128Y-125924428D01*
X227129128Y-125733951D02*
X227105319Y-125710142D01*
X227105319Y-125710142D02*
X227081509Y-125662523D01*
X227081509Y-125662523D02*
X227081509Y-125543475D01*
X227081509Y-125543475D02*
X227105319Y-125495856D01*
X227105319Y-125495856D02*
X227129128Y-125472047D01*
X227129128Y-125472047D02*
X227176747Y-125448237D01*
X227176747Y-125448237D02*
X227224366Y-125448237D01*
X227224366Y-125448237D02*
X227295795Y-125472047D01*
X227295795Y-125472047D02*
X227581509Y-125757761D01*
X227581509Y-125757761D02*
X227581509Y-125448237D01*
X227129128Y-125257761D02*
X227105319Y-125233952D01*
X227105319Y-125233952D02*
X227081509Y-125186333D01*
X227081509Y-125186333D02*
X227081509Y-125067285D01*
X227081509Y-125067285D02*
X227105319Y-125019666D01*
X227105319Y-125019666D02*
X227129128Y-124995857D01*
X227129128Y-124995857D02*
X227176747Y-124972047D01*
X227176747Y-124972047D02*
X227224366Y-124972047D01*
X227224366Y-124972047D02*
X227295795Y-124995857D01*
X227295795Y-124995857D02*
X227581509Y-125281571D01*
X227581509Y-125281571D02*
X227581509Y-124972047D01*
X191296171Y-107412509D02*
X191129505Y-107174414D01*
X191010457Y-107412509D02*
X191010457Y-106912509D01*
X191010457Y-106912509D02*
X191200933Y-106912509D01*
X191200933Y-106912509D02*
X191248552Y-106936319D01*
X191248552Y-106936319D02*
X191272362Y-106960128D01*
X191272362Y-106960128D02*
X191296171Y-107007747D01*
X191296171Y-107007747D02*
X191296171Y-107079176D01*
X191296171Y-107079176D02*
X191272362Y-107126795D01*
X191272362Y-107126795D02*
X191248552Y-107150604D01*
X191248552Y-107150604D02*
X191200933Y-107174414D01*
X191200933Y-107174414D02*
X191010457Y-107174414D01*
X191486648Y-106960128D02*
X191510457Y-106936319D01*
X191510457Y-106936319D02*
X191558076Y-106912509D01*
X191558076Y-106912509D02*
X191677124Y-106912509D01*
X191677124Y-106912509D02*
X191724743Y-106936319D01*
X191724743Y-106936319D02*
X191748552Y-106960128D01*
X191748552Y-106960128D02*
X191772362Y-107007747D01*
X191772362Y-107007747D02*
X191772362Y-107055366D01*
X191772362Y-107055366D02*
X191748552Y-107126795D01*
X191748552Y-107126795D02*
X191462838Y-107412509D01*
X191462838Y-107412509D02*
X191772362Y-107412509D01*
X192248552Y-107412509D02*
X191962838Y-107412509D01*
X192105695Y-107412509D02*
X192105695Y-106912509D01*
X192105695Y-106912509D02*
X192058076Y-106983938D01*
X192058076Y-106983938D02*
X192010457Y-107031557D01*
X192010457Y-107031557D02*
X191962838Y-107055366D01*
X162365571Y-133931709D02*
X162198905Y-133693614D01*
X162079857Y-133931709D02*
X162079857Y-133431709D01*
X162079857Y-133431709D02*
X162270333Y-133431709D01*
X162270333Y-133431709D02*
X162317952Y-133455519D01*
X162317952Y-133455519D02*
X162341762Y-133479328D01*
X162341762Y-133479328D02*
X162365571Y-133526947D01*
X162365571Y-133526947D02*
X162365571Y-133598376D01*
X162365571Y-133598376D02*
X162341762Y-133645995D01*
X162341762Y-133645995D02*
X162317952Y-133669804D01*
X162317952Y-133669804D02*
X162270333Y-133693614D01*
X162270333Y-133693614D02*
X162079857Y-133693614D01*
X162841762Y-133931709D02*
X162556048Y-133931709D01*
X162698905Y-133931709D02*
X162698905Y-133431709D01*
X162698905Y-133431709D02*
X162651286Y-133503138D01*
X162651286Y-133503138D02*
X162603667Y-133550757D01*
X162603667Y-133550757D02*
X162556048Y-133574566D01*
X163294142Y-133431709D02*
X163056047Y-133431709D01*
X163056047Y-133431709D02*
X163032238Y-133669804D01*
X163032238Y-133669804D02*
X163056047Y-133645995D01*
X163056047Y-133645995D02*
X163103666Y-133622185D01*
X163103666Y-133622185D02*
X163222714Y-133622185D01*
X163222714Y-133622185D02*
X163270333Y-133645995D01*
X163270333Y-133645995D02*
X163294142Y-133669804D01*
X163294142Y-133669804D02*
X163317952Y-133717423D01*
X163317952Y-133717423D02*
X163317952Y-133836471D01*
X163317952Y-133836471D02*
X163294142Y-133884090D01*
X163294142Y-133884090D02*
X163270333Y-133907900D01*
X163270333Y-133907900D02*
X163222714Y-133931709D01*
X163222714Y-133931709D02*
X163103666Y-133931709D01*
X163103666Y-133931709D02*
X163056047Y-133907900D01*
X163056047Y-133907900D02*
X163032238Y-133884090D01*
X164437109Y-133617447D02*
X163937109Y-133617447D01*
X163937109Y-133617447D02*
X163937109Y-133498399D01*
X163937109Y-133498399D02*
X163960919Y-133426971D01*
X163960919Y-133426971D02*
X164008538Y-133379352D01*
X164008538Y-133379352D02*
X164056157Y-133355542D01*
X164056157Y-133355542D02*
X164151395Y-133331733D01*
X164151395Y-133331733D02*
X164222823Y-133331733D01*
X164222823Y-133331733D02*
X164318061Y-133355542D01*
X164318061Y-133355542D02*
X164365680Y-133379352D01*
X164365680Y-133379352D02*
X164413300Y-133426971D01*
X164413300Y-133426971D02*
X164437109Y-133498399D01*
X164437109Y-133498399D02*
X164437109Y-133617447D01*
X163937109Y-133165066D02*
X163937109Y-132855542D01*
X163937109Y-132855542D02*
X164127585Y-133022209D01*
X164127585Y-133022209D02*
X164127585Y-132950780D01*
X164127585Y-132950780D02*
X164151395Y-132903161D01*
X164151395Y-132903161D02*
X164175204Y-132879352D01*
X164175204Y-132879352D02*
X164222823Y-132855542D01*
X164222823Y-132855542D02*
X164341871Y-132855542D01*
X164341871Y-132855542D02*
X164389490Y-132879352D01*
X164389490Y-132879352D02*
X164413300Y-132903161D01*
X164413300Y-132903161D02*
X164437109Y-132950780D01*
X164437109Y-132950780D02*
X164437109Y-133093637D01*
X164437109Y-133093637D02*
X164413300Y-133141256D01*
X164413300Y-133141256D02*
X164389490Y-133165066D01*
X275029674Y-140678174D02*
X275029674Y-140178174D01*
X275029674Y-140178174D02*
X275148722Y-140178174D01*
X275148722Y-140178174D02*
X275220150Y-140201984D01*
X275220150Y-140201984D02*
X275267769Y-140249603D01*
X275267769Y-140249603D02*
X275291579Y-140297222D01*
X275291579Y-140297222D02*
X275315388Y-140392460D01*
X275315388Y-140392460D02*
X275315388Y-140463888D01*
X275315388Y-140463888D02*
X275291579Y-140559126D01*
X275291579Y-140559126D02*
X275267769Y-140606745D01*
X275267769Y-140606745D02*
X275220150Y-140654365D01*
X275220150Y-140654365D02*
X275148722Y-140678174D01*
X275148722Y-140678174D02*
X275029674Y-140678174D01*
X275743960Y-140178174D02*
X275648722Y-140178174D01*
X275648722Y-140178174D02*
X275601103Y-140201984D01*
X275601103Y-140201984D02*
X275577293Y-140225793D01*
X275577293Y-140225793D02*
X275529674Y-140297222D01*
X275529674Y-140297222D02*
X275505865Y-140392460D01*
X275505865Y-140392460D02*
X275505865Y-140582936D01*
X275505865Y-140582936D02*
X275529674Y-140630555D01*
X275529674Y-140630555D02*
X275553484Y-140654365D01*
X275553484Y-140654365D02*
X275601103Y-140678174D01*
X275601103Y-140678174D02*
X275696341Y-140678174D01*
X275696341Y-140678174D02*
X275743960Y-140654365D01*
X275743960Y-140654365D02*
X275767769Y-140630555D01*
X275767769Y-140630555D02*
X275791579Y-140582936D01*
X275791579Y-140582936D02*
X275791579Y-140463888D01*
X275791579Y-140463888D02*
X275767769Y-140416269D01*
X275767769Y-140416269D02*
X275743960Y-140392460D01*
X275743960Y-140392460D02*
X275696341Y-140368650D01*
X275696341Y-140368650D02*
X275601103Y-140368650D01*
X275601103Y-140368650D02*
X275553484Y-140392460D01*
X275553484Y-140392460D02*
X275529674Y-140416269D01*
X275529674Y-140416269D02*
X275505865Y-140463888D01*
X217321500Y-120376865D02*
X217345309Y-120305437D01*
X217345309Y-120305437D02*
X217345309Y-120186389D01*
X217345309Y-120186389D02*
X217321500Y-120138770D01*
X217321500Y-120138770D02*
X217297690Y-120114961D01*
X217297690Y-120114961D02*
X217250071Y-120091151D01*
X217250071Y-120091151D02*
X217202452Y-120091151D01*
X217202452Y-120091151D02*
X217154833Y-120114961D01*
X217154833Y-120114961D02*
X217131023Y-120138770D01*
X217131023Y-120138770D02*
X217107214Y-120186389D01*
X217107214Y-120186389D02*
X217083404Y-120281627D01*
X217083404Y-120281627D02*
X217059595Y-120329246D01*
X217059595Y-120329246D02*
X217035785Y-120353056D01*
X217035785Y-120353056D02*
X216988166Y-120376865D01*
X216988166Y-120376865D02*
X216940547Y-120376865D01*
X216940547Y-120376865D02*
X216892928Y-120353056D01*
X216892928Y-120353056D02*
X216869119Y-120329246D01*
X216869119Y-120329246D02*
X216845309Y-120281627D01*
X216845309Y-120281627D02*
X216845309Y-120162580D01*
X216845309Y-120162580D02*
X216869119Y-120091151D01*
X216845309Y-119924485D02*
X217345309Y-119805437D01*
X217345309Y-119805437D02*
X216988166Y-119710199D01*
X216988166Y-119710199D02*
X217345309Y-119614961D01*
X217345309Y-119614961D02*
X216845309Y-119495914D01*
X216845309Y-119353056D02*
X216845309Y-119043532D01*
X216845309Y-119043532D02*
X217035785Y-119210199D01*
X217035785Y-119210199D02*
X217035785Y-119138770D01*
X217035785Y-119138770D02*
X217059595Y-119091151D01*
X217059595Y-119091151D02*
X217083404Y-119067342D01*
X217083404Y-119067342D02*
X217131023Y-119043532D01*
X217131023Y-119043532D02*
X217250071Y-119043532D01*
X217250071Y-119043532D02*
X217297690Y-119067342D01*
X217297690Y-119067342D02*
X217321500Y-119091151D01*
X217321500Y-119091151D02*
X217345309Y-119138770D01*
X217345309Y-119138770D02*
X217345309Y-119281627D01*
X217345309Y-119281627D02*
X217321500Y-119329246D01*
X217321500Y-119329246D02*
X217297690Y-119353056D01*
X217228571Y-101518490D02*
X217204762Y-101542300D01*
X217204762Y-101542300D02*
X217133333Y-101566109D01*
X217133333Y-101566109D02*
X217085714Y-101566109D01*
X217085714Y-101566109D02*
X217014286Y-101542300D01*
X217014286Y-101542300D02*
X216966667Y-101494680D01*
X216966667Y-101494680D02*
X216942857Y-101447061D01*
X216942857Y-101447061D02*
X216919048Y-101351823D01*
X216919048Y-101351823D02*
X216919048Y-101280395D01*
X216919048Y-101280395D02*
X216942857Y-101185157D01*
X216942857Y-101185157D02*
X216966667Y-101137538D01*
X216966667Y-101137538D02*
X217014286Y-101089919D01*
X217014286Y-101089919D02*
X217085714Y-101066109D01*
X217085714Y-101066109D02*
X217133333Y-101066109D01*
X217133333Y-101066109D02*
X217204762Y-101089919D01*
X217204762Y-101089919D02*
X217228571Y-101113728D01*
X217704762Y-101566109D02*
X217419048Y-101566109D01*
X217561905Y-101566109D02*
X217561905Y-101066109D01*
X217561905Y-101066109D02*
X217514286Y-101137538D01*
X217514286Y-101137538D02*
X217466667Y-101185157D01*
X217466667Y-101185157D02*
X217419048Y-101208966D01*
X217942857Y-101566109D02*
X218038095Y-101566109D01*
X218038095Y-101566109D02*
X218085714Y-101542300D01*
X218085714Y-101542300D02*
X218109523Y-101518490D01*
X218109523Y-101518490D02*
X218157142Y-101447061D01*
X218157142Y-101447061D02*
X218180952Y-101351823D01*
X218180952Y-101351823D02*
X218180952Y-101161347D01*
X218180952Y-101161347D02*
X218157142Y-101113728D01*
X218157142Y-101113728D02*
X218133333Y-101089919D01*
X218133333Y-101089919D02*
X218085714Y-101066109D01*
X218085714Y-101066109D02*
X217990476Y-101066109D01*
X217990476Y-101066109D02*
X217942857Y-101089919D01*
X217942857Y-101089919D02*
X217919047Y-101113728D01*
X217919047Y-101113728D02*
X217895238Y-101161347D01*
X217895238Y-101161347D02*
X217895238Y-101280395D01*
X217895238Y-101280395D02*
X217919047Y-101328014D01*
X217919047Y-101328014D02*
X217942857Y-101351823D01*
X217942857Y-101351823D02*
X217990476Y-101375633D01*
X217990476Y-101375633D02*
X218085714Y-101375633D01*
X218085714Y-101375633D02*
X218133333Y-101351823D01*
X218133333Y-101351823D02*
X218157142Y-101328014D01*
X218157142Y-101328014D02*
X218180952Y-101280395D01*
X197630266Y-115858490D02*
X197606457Y-115882300D01*
X197606457Y-115882300D02*
X197535028Y-115906109D01*
X197535028Y-115906109D02*
X197487409Y-115906109D01*
X197487409Y-115906109D02*
X197415981Y-115882300D01*
X197415981Y-115882300D02*
X197368362Y-115834680D01*
X197368362Y-115834680D02*
X197344552Y-115787061D01*
X197344552Y-115787061D02*
X197320743Y-115691823D01*
X197320743Y-115691823D02*
X197320743Y-115620395D01*
X197320743Y-115620395D02*
X197344552Y-115525157D01*
X197344552Y-115525157D02*
X197368362Y-115477538D01*
X197368362Y-115477538D02*
X197415981Y-115429919D01*
X197415981Y-115429919D02*
X197487409Y-115406109D01*
X197487409Y-115406109D02*
X197535028Y-115406109D01*
X197535028Y-115406109D02*
X197606457Y-115429919D01*
X197606457Y-115429919D02*
X197630266Y-115453728D01*
X197820743Y-115453728D02*
X197844552Y-115429919D01*
X197844552Y-115429919D02*
X197892171Y-115406109D01*
X197892171Y-115406109D02*
X198011219Y-115406109D01*
X198011219Y-115406109D02*
X198058838Y-115429919D01*
X198058838Y-115429919D02*
X198082647Y-115453728D01*
X198082647Y-115453728D02*
X198106457Y-115501347D01*
X198106457Y-115501347D02*
X198106457Y-115548966D01*
X198106457Y-115548966D02*
X198082647Y-115620395D01*
X198082647Y-115620395D02*
X197796933Y-115906109D01*
X197796933Y-115906109D02*
X198106457Y-115906109D01*
X272282328Y-139061819D02*
X272258519Y-139109438D01*
X272258519Y-139109438D02*
X272210900Y-139157057D01*
X272210900Y-139157057D02*
X272139471Y-139228485D01*
X272139471Y-139228485D02*
X272115661Y-139276104D01*
X272115661Y-139276104D02*
X272115661Y-139323723D01*
X272234709Y-139299914D02*
X272210900Y-139347533D01*
X272210900Y-139347533D02*
X272163280Y-139395152D01*
X272163280Y-139395152D02*
X272068042Y-139418961D01*
X272068042Y-139418961D02*
X271901376Y-139418961D01*
X271901376Y-139418961D02*
X271806138Y-139395152D01*
X271806138Y-139395152D02*
X271758519Y-139347533D01*
X271758519Y-139347533D02*
X271734709Y-139299914D01*
X271734709Y-139299914D02*
X271734709Y-139204676D01*
X271734709Y-139204676D02*
X271758519Y-139157057D01*
X271758519Y-139157057D02*
X271806138Y-139109438D01*
X271806138Y-139109438D02*
X271901376Y-139085628D01*
X271901376Y-139085628D02*
X272068042Y-139085628D01*
X272068042Y-139085628D02*
X272163280Y-139109438D01*
X272163280Y-139109438D02*
X272210900Y-139157057D01*
X272210900Y-139157057D02*
X272234709Y-139204676D01*
X272234709Y-139204676D02*
X272234709Y-139299914D01*
X271901376Y-138657056D02*
X272234709Y-138657056D01*
X271710900Y-138776104D02*
X272068042Y-138895151D01*
X272068042Y-138895151D02*
X272068042Y-138585628D01*
X223766866Y-100987909D02*
X223600200Y-100749814D01*
X223481152Y-100987909D02*
X223481152Y-100487909D01*
X223481152Y-100487909D02*
X223671628Y-100487909D01*
X223671628Y-100487909D02*
X223719247Y-100511719D01*
X223719247Y-100511719D02*
X223743057Y-100535528D01*
X223743057Y-100535528D02*
X223766866Y-100583147D01*
X223766866Y-100583147D02*
X223766866Y-100654576D01*
X223766866Y-100654576D02*
X223743057Y-100702195D01*
X223743057Y-100702195D02*
X223719247Y-100726004D01*
X223719247Y-100726004D02*
X223671628Y-100749814D01*
X223671628Y-100749814D02*
X223481152Y-100749814D01*
X224243057Y-100987909D02*
X223957343Y-100987909D01*
X224100200Y-100987909D02*
X224100200Y-100487909D01*
X224100200Y-100487909D02*
X224052581Y-100559338D01*
X224052581Y-100559338D02*
X224004962Y-100606957D01*
X224004962Y-100606957D02*
X223957343Y-100630766D01*
X221826109Y-93283333D02*
X221588014Y-93449999D01*
X221826109Y-93569047D02*
X221326109Y-93569047D01*
X221326109Y-93569047D02*
X221326109Y-93378571D01*
X221326109Y-93378571D02*
X221349919Y-93330952D01*
X221349919Y-93330952D02*
X221373728Y-93307142D01*
X221373728Y-93307142D02*
X221421347Y-93283333D01*
X221421347Y-93283333D02*
X221492776Y-93283333D01*
X221492776Y-93283333D02*
X221540395Y-93307142D01*
X221540395Y-93307142D02*
X221564204Y-93330952D01*
X221564204Y-93330952D02*
X221588014Y-93378571D01*
X221588014Y-93378571D02*
X221588014Y-93569047D01*
X221326109Y-92854761D02*
X221326109Y-92949999D01*
X221326109Y-92949999D02*
X221349919Y-92997618D01*
X221349919Y-92997618D02*
X221373728Y-93021428D01*
X221373728Y-93021428D02*
X221445157Y-93069047D01*
X221445157Y-93069047D02*
X221540395Y-93092856D01*
X221540395Y-93092856D02*
X221730871Y-93092856D01*
X221730871Y-93092856D02*
X221778490Y-93069047D01*
X221778490Y-93069047D02*
X221802300Y-93045237D01*
X221802300Y-93045237D02*
X221826109Y-92997618D01*
X221826109Y-92997618D02*
X221826109Y-92902380D01*
X221826109Y-92902380D02*
X221802300Y-92854761D01*
X221802300Y-92854761D02*
X221778490Y-92830952D01*
X221778490Y-92830952D02*
X221730871Y-92807142D01*
X221730871Y-92807142D02*
X221611823Y-92807142D01*
X221611823Y-92807142D02*
X221564204Y-92830952D01*
X221564204Y-92830952D02*
X221540395Y-92854761D01*
X221540395Y-92854761D02*
X221516585Y-92902380D01*
X221516585Y-92902380D02*
X221516585Y-92997618D01*
X221516585Y-92997618D02*
X221540395Y-93045237D01*
X221540395Y-93045237D02*
X221564204Y-93069047D01*
X221564204Y-93069047D02*
X221611823Y-93092856D01*
X215820802Y-113873887D02*
X215582707Y-114040553D01*
X215820802Y-114159601D02*
X215320802Y-114159601D01*
X215320802Y-114159601D02*
X215320802Y-113969125D01*
X215320802Y-113969125D02*
X215344612Y-113921506D01*
X215344612Y-113921506D02*
X215368421Y-113897696D01*
X215368421Y-113897696D02*
X215416040Y-113873887D01*
X215416040Y-113873887D02*
X215487469Y-113873887D01*
X215487469Y-113873887D02*
X215535088Y-113897696D01*
X215535088Y-113897696D02*
X215558897Y-113921506D01*
X215558897Y-113921506D02*
X215582707Y-113969125D01*
X215582707Y-113969125D02*
X215582707Y-114159601D01*
X215320802Y-113707220D02*
X215320802Y-113397696D01*
X215320802Y-113397696D02*
X215511278Y-113564363D01*
X215511278Y-113564363D02*
X215511278Y-113492934D01*
X215511278Y-113492934D02*
X215535088Y-113445315D01*
X215535088Y-113445315D02*
X215558897Y-113421506D01*
X215558897Y-113421506D02*
X215606516Y-113397696D01*
X215606516Y-113397696D02*
X215725564Y-113397696D01*
X215725564Y-113397696D02*
X215773183Y-113421506D01*
X215773183Y-113421506D02*
X215796993Y-113445315D01*
X215796993Y-113445315D02*
X215820802Y-113492934D01*
X215820802Y-113492934D02*
X215820802Y-113635791D01*
X215820802Y-113635791D02*
X215796993Y-113683410D01*
X215796993Y-113683410D02*
X215773183Y-113707220D01*
X215820802Y-112921506D02*
X215820802Y-113207220D01*
X215820802Y-113064363D02*
X215320802Y-113064363D01*
X215320802Y-113064363D02*
X215392231Y-113111982D01*
X215392231Y-113111982D02*
X215439850Y-113159601D01*
X215439850Y-113159601D02*
X215463659Y-113207220D01*
X260631038Y-107679109D02*
X260964371Y-108179109D01*
X260964371Y-107679109D02*
X260631038Y-108179109D01*
X261392942Y-107679109D02*
X261154847Y-107679109D01*
X261154847Y-107679109D02*
X261131038Y-107917204D01*
X261131038Y-107917204D02*
X261154847Y-107893395D01*
X261154847Y-107893395D02*
X261202466Y-107869585D01*
X261202466Y-107869585D02*
X261321514Y-107869585D01*
X261321514Y-107869585D02*
X261369133Y-107893395D01*
X261369133Y-107893395D02*
X261392942Y-107917204D01*
X261392942Y-107917204D02*
X261416752Y-107964823D01*
X261416752Y-107964823D02*
X261416752Y-108083871D01*
X261416752Y-108083871D02*
X261392942Y-108131490D01*
X261392942Y-108131490D02*
X261369133Y-108155300D01*
X261369133Y-108155300D02*
X261321514Y-108179109D01*
X261321514Y-108179109D02*
X261202466Y-108179109D01*
X261202466Y-108179109D02*
X261154847Y-108155300D01*
X261154847Y-108155300D02*
X261131038Y-108131490D01*
X211381257Y-139799109D02*
X211381257Y-139299109D01*
X211381257Y-139299109D02*
X211500305Y-139299109D01*
X211500305Y-139299109D02*
X211571733Y-139322919D01*
X211571733Y-139322919D02*
X211619352Y-139370538D01*
X211619352Y-139370538D02*
X211643162Y-139418157D01*
X211643162Y-139418157D02*
X211666971Y-139513395D01*
X211666971Y-139513395D02*
X211666971Y-139584823D01*
X211666971Y-139584823D02*
X211643162Y-139680061D01*
X211643162Y-139680061D02*
X211619352Y-139727680D01*
X211619352Y-139727680D02*
X211571733Y-139775300D01*
X211571733Y-139775300D02*
X211500305Y-139799109D01*
X211500305Y-139799109D02*
X211381257Y-139799109D01*
X212143162Y-139799109D02*
X211857448Y-139799109D01*
X212000305Y-139799109D02*
X212000305Y-139299109D01*
X212000305Y-139299109D02*
X211952686Y-139370538D01*
X211952686Y-139370538D02*
X211905067Y-139418157D01*
X211905067Y-139418157D02*
X211857448Y-139441966D01*
X212619352Y-139799109D02*
X212333638Y-139799109D01*
X212476495Y-139799109D02*
X212476495Y-139299109D01*
X212476495Y-139299109D02*
X212428876Y-139370538D01*
X212428876Y-139370538D02*
X212381257Y-139418157D01*
X212381257Y-139418157D02*
X212333638Y-139441966D01*
X219182109Y-104470152D02*
X219586871Y-104470152D01*
X219586871Y-104470152D02*
X219634490Y-104446342D01*
X219634490Y-104446342D02*
X219658300Y-104422533D01*
X219658300Y-104422533D02*
X219682109Y-104374914D01*
X219682109Y-104374914D02*
X219682109Y-104279676D01*
X219682109Y-104279676D02*
X219658300Y-104232057D01*
X219658300Y-104232057D02*
X219634490Y-104208247D01*
X219634490Y-104208247D02*
X219586871Y-104184438D01*
X219586871Y-104184438D02*
X219182109Y-104184438D01*
X219182109Y-103993961D02*
X219182109Y-103660628D01*
X219182109Y-103660628D02*
X219682109Y-103874913D01*
X274878571Y-119426109D02*
X274640476Y-119426109D01*
X274640476Y-119426109D02*
X274640476Y-118926109D01*
X275307143Y-119426109D02*
X275021429Y-119426109D01*
X275164286Y-119426109D02*
X275164286Y-118926109D01*
X275164286Y-118926109D02*
X275116667Y-118997538D01*
X275116667Y-118997538D02*
X275069048Y-119045157D01*
X275069048Y-119045157D02*
X275021429Y-119068966D01*
X275473809Y-118926109D02*
X275807142Y-118926109D01*
X275807142Y-118926109D02*
X275592857Y-119426109D01*
X223720709Y-102683428D02*
X223482614Y-102850094D01*
X223720709Y-102969142D02*
X223220709Y-102969142D01*
X223220709Y-102969142D02*
X223220709Y-102778666D01*
X223220709Y-102778666D02*
X223244519Y-102731047D01*
X223244519Y-102731047D02*
X223268328Y-102707237D01*
X223268328Y-102707237D02*
X223315947Y-102683428D01*
X223315947Y-102683428D02*
X223387376Y-102683428D01*
X223387376Y-102683428D02*
X223434995Y-102707237D01*
X223434995Y-102707237D02*
X223458804Y-102731047D01*
X223458804Y-102731047D02*
X223482614Y-102778666D01*
X223482614Y-102778666D02*
X223482614Y-102969142D01*
X223268328Y-102492951D02*
X223244519Y-102469142D01*
X223244519Y-102469142D02*
X223220709Y-102421523D01*
X223220709Y-102421523D02*
X223220709Y-102302475D01*
X223220709Y-102302475D02*
X223244519Y-102254856D01*
X223244519Y-102254856D02*
X223268328Y-102231047D01*
X223268328Y-102231047D02*
X223315947Y-102207237D01*
X223315947Y-102207237D02*
X223363566Y-102207237D01*
X223363566Y-102207237D02*
X223434995Y-102231047D01*
X223434995Y-102231047D02*
X223720709Y-102516761D01*
X223720709Y-102516761D02*
X223720709Y-102207237D01*
X223434995Y-101921523D02*
X223411185Y-101969142D01*
X223411185Y-101969142D02*
X223387376Y-101992952D01*
X223387376Y-101992952D02*
X223339757Y-102016761D01*
X223339757Y-102016761D02*
X223315947Y-102016761D01*
X223315947Y-102016761D02*
X223268328Y-101992952D01*
X223268328Y-101992952D02*
X223244519Y-101969142D01*
X223244519Y-101969142D02*
X223220709Y-101921523D01*
X223220709Y-101921523D02*
X223220709Y-101826285D01*
X223220709Y-101826285D02*
X223244519Y-101778666D01*
X223244519Y-101778666D02*
X223268328Y-101754857D01*
X223268328Y-101754857D02*
X223315947Y-101731047D01*
X223315947Y-101731047D02*
X223339757Y-101731047D01*
X223339757Y-101731047D02*
X223387376Y-101754857D01*
X223387376Y-101754857D02*
X223411185Y-101778666D01*
X223411185Y-101778666D02*
X223434995Y-101826285D01*
X223434995Y-101826285D02*
X223434995Y-101921523D01*
X223434995Y-101921523D02*
X223458804Y-101969142D01*
X223458804Y-101969142D02*
X223482614Y-101992952D01*
X223482614Y-101992952D02*
X223530233Y-102016761D01*
X223530233Y-102016761D02*
X223625471Y-102016761D01*
X223625471Y-102016761D02*
X223673090Y-101992952D01*
X223673090Y-101992952D02*
X223696900Y-101969142D01*
X223696900Y-101969142D02*
X223720709Y-101921523D01*
X223720709Y-101921523D02*
X223720709Y-101826285D01*
X223720709Y-101826285D02*
X223696900Y-101778666D01*
X223696900Y-101778666D02*
X223673090Y-101754857D01*
X223673090Y-101754857D02*
X223625471Y-101731047D01*
X223625471Y-101731047D02*
X223530233Y-101731047D01*
X223530233Y-101731047D02*
X223482614Y-101754857D01*
X223482614Y-101754857D02*
X223458804Y-101778666D01*
X223458804Y-101778666D02*
X223434995Y-101826285D01*
X253442838Y-109327109D02*
X253776171Y-109827109D01*
X253776171Y-109327109D02*
X253442838Y-109827109D01*
X254180933Y-109493776D02*
X254180933Y-109827109D01*
X254061885Y-109303300D02*
X253942838Y-109660442D01*
X253942838Y-109660442D02*
X254252361Y-109660442D01*
X216478571Y-106020902D02*
X216311905Y-105782807D01*
X216192857Y-106020902D02*
X216192857Y-105520902D01*
X216192857Y-105520902D02*
X216383333Y-105520902D01*
X216383333Y-105520902D02*
X216430952Y-105544712D01*
X216430952Y-105544712D02*
X216454762Y-105568521D01*
X216454762Y-105568521D02*
X216478571Y-105616140D01*
X216478571Y-105616140D02*
X216478571Y-105687569D01*
X216478571Y-105687569D02*
X216454762Y-105735188D01*
X216454762Y-105735188D02*
X216430952Y-105758997D01*
X216430952Y-105758997D02*
X216383333Y-105782807D01*
X216383333Y-105782807D02*
X216192857Y-105782807D01*
X216669048Y-105568521D02*
X216692857Y-105544712D01*
X216692857Y-105544712D02*
X216740476Y-105520902D01*
X216740476Y-105520902D02*
X216859524Y-105520902D01*
X216859524Y-105520902D02*
X216907143Y-105544712D01*
X216907143Y-105544712D02*
X216930952Y-105568521D01*
X216930952Y-105568521D02*
X216954762Y-105616140D01*
X216954762Y-105616140D02*
X216954762Y-105663759D01*
X216954762Y-105663759D02*
X216930952Y-105735188D01*
X216930952Y-105735188D02*
X216645238Y-106020902D01*
X216645238Y-106020902D02*
X216954762Y-106020902D01*
X217264285Y-105520902D02*
X217311904Y-105520902D01*
X217311904Y-105520902D02*
X217359523Y-105544712D01*
X217359523Y-105544712D02*
X217383333Y-105568521D01*
X217383333Y-105568521D02*
X217407142Y-105616140D01*
X217407142Y-105616140D02*
X217430952Y-105711378D01*
X217430952Y-105711378D02*
X217430952Y-105830426D01*
X217430952Y-105830426D02*
X217407142Y-105925664D01*
X217407142Y-105925664D02*
X217383333Y-105973283D01*
X217383333Y-105973283D02*
X217359523Y-105997093D01*
X217359523Y-105997093D02*
X217311904Y-106020902D01*
X217311904Y-106020902D02*
X217264285Y-106020902D01*
X217264285Y-106020902D02*
X217216666Y-105997093D01*
X217216666Y-105997093D02*
X217192857Y-105973283D01*
X217192857Y-105973283D02*
X217169047Y-105925664D01*
X217169047Y-105925664D02*
X217145238Y-105830426D01*
X217145238Y-105830426D02*
X217145238Y-105711378D01*
X217145238Y-105711378D02*
X217169047Y-105616140D01*
X217169047Y-105616140D02*
X217192857Y-105568521D01*
X217192857Y-105568521D02*
X217216666Y-105544712D01*
X217216666Y-105544712D02*
X217264285Y-105520902D01*
X222816666Y-94876109D02*
X222650000Y-94638014D01*
X222530952Y-94876109D02*
X222530952Y-94376109D01*
X222530952Y-94376109D02*
X222721428Y-94376109D01*
X222721428Y-94376109D02*
X222769047Y-94399919D01*
X222769047Y-94399919D02*
X222792857Y-94423728D01*
X222792857Y-94423728D02*
X222816666Y-94471347D01*
X222816666Y-94471347D02*
X222816666Y-94542776D01*
X222816666Y-94542776D02*
X222792857Y-94590395D01*
X222792857Y-94590395D02*
X222769047Y-94614204D01*
X222769047Y-94614204D02*
X222721428Y-94638014D01*
X222721428Y-94638014D02*
X222530952Y-94638014D01*
X223245238Y-94542776D02*
X223245238Y-94876109D01*
X223126190Y-94352300D02*
X223007143Y-94709442D01*
X223007143Y-94709442D02*
X223316666Y-94709442D01*
X237898038Y-120074309D02*
X238231371Y-120574309D01*
X238231371Y-120074309D02*
X237898038Y-120574309D01*
X238374228Y-120074309D02*
X238683752Y-120074309D01*
X238683752Y-120074309D02*
X238517085Y-120264785D01*
X238517085Y-120264785D02*
X238588514Y-120264785D01*
X238588514Y-120264785D02*
X238636133Y-120288595D01*
X238636133Y-120288595D02*
X238659942Y-120312404D01*
X238659942Y-120312404D02*
X238683752Y-120360023D01*
X238683752Y-120360023D02*
X238683752Y-120479071D01*
X238683752Y-120479071D02*
X238659942Y-120526690D01*
X238659942Y-120526690D02*
X238636133Y-120550500D01*
X238636133Y-120550500D02*
X238588514Y-120574309D01*
X238588514Y-120574309D02*
X238445657Y-120574309D01*
X238445657Y-120574309D02*
X238398038Y-120550500D01*
X238398038Y-120550500D02*
X238374228Y-120526690D01*
X269085109Y-134789028D02*
X268847014Y-134955694D01*
X269085109Y-135074742D02*
X268585109Y-135074742D01*
X268585109Y-135074742D02*
X268585109Y-134884266D01*
X268585109Y-134884266D02*
X268608919Y-134836647D01*
X268608919Y-134836647D02*
X268632728Y-134812837D01*
X268632728Y-134812837D02*
X268680347Y-134789028D01*
X268680347Y-134789028D02*
X268751776Y-134789028D01*
X268751776Y-134789028D02*
X268799395Y-134812837D01*
X268799395Y-134812837D02*
X268823204Y-134836647D01*
X268823204Y-134836647D02*
X268847014Y-134884266D01*
X268847014Y-134884266D02*
X268847014Y-135074742D01*
X269085109Y-134312837D02*
X269085109Y-134598551D01*
X269085109Y-134455694D02*
X268585109Y-134455694D01*
X268585109Y-134455694D02*
X268656538Y-134503313D01*
X268656538Y-134503313D02*
X268704157Y-134550932D01*
X268704157Y-134550932D02*
X268727966Y-134598551D01*
X268751776Y-133884266D02*
X269085109Y-133884266D01*
X268561300Y-134003314D02*
X268918442Y-134122361D01*
X268918442Y-134122361D02*
X268918442Y-133812838D01*
X186867178Y-124908977D02*
X186629409Y-124896516D01*
X186629409Y-124896516D02*
X186655577Y-124397201D01*
X187295162Y-124931407D02*
X187009840Y-124916453D01*
X187152501Y-124923930D02*
X187178669Y-124424615D01*
X187178669Y-124424615D02*
X187127377Y-124493454D01*
X187127377Y-124493454D02*
X187077331Y-124538515D01*
X187077331Y-124538515D02*
X187028531Y-124559800D01*
X187749314Y-124454522D02*
X187654206Y-124449537D01*
X187654206Y-124449537D02*
X187605407Y-124470822D01*
X187605407Y-124470822D02*
X187580384Y-124493353D01*
X187580384Y-124493353D02*
X187529091Y-124562191D01*
X187529091Y-124562191D02*
X187500330Y-124656053D01*
X187500330Y-124656053D02*
X187490361Y-124846268D01*
X187490361Y-124846268D02*
X187511646Y-124895068D01*
X187511646Y-124895068D02*
X187534177Y-124920091D01*
X187534177Y-124920091D02*
X187580485Y-124946360D01*
X187580485Y-124946360D02*
X187675592Y-124951344D01*
X187675592Y-124951344D02*
X187724392Y-124930059D01*
X187724392Y-124930059D02*
X187749415Y-124907529D01*
X187749415Y-124907529D02*
X187775684Y-124861221D01*
X187775684Y-124861221D02*
X187781915Y-124742336D01*
X187781915Y-124742336D02*
X187760630Y-124693537D01*
X187760630Y-124693537D02*
X187738099Y-124668514D01*
X187738099Y-124668514D02*
X187691791Y-124642244D01*
X187691791Y-124642244D02*
X187596684Y-124637260D01*
X187596684Y-124637260D02*
X187547884Y-124658545D01*
X187547884Y-124658545D02*
X187522861Y-124681076D01*
X187522861Y-124681076D02*
X187496592Y-124727383D01*
X196919066Y-145056909D02*
X196680971Y-145056909D01*
X196680971Y-145056909D02*
X196680971Y-144556909D01*
X197347638Y-145056909D02*
X197061924Y-145056909D01*
X197204781Y-145056909D02*
X197204781Y-144556909D01*
X197204781Y-144556909D02*
X197157162Y-144628338D01*
X197157162Y-144628338D02*
X197109543Y-144675957D01*
X197109543Y-144675957D02*
X197061924Y-144699766D01*
X162394152Y-136217709D02*
X162394152Y-135717709D01*
X162394152Y-135717709D02*
X162513200Y-135717709D01*
X162513200Y-135717709D02*
X162584628Y-135741519D01*
X162584628Y-135741519D02*
X162632247Y-135789138D01*
X162632247Y-135789138D02*
X162656057Y-135836757D01*
X162656057Y-135836757D02*
X162679866Y-135931995D01*
X162679866Y-135931995D02*
X162679866Y-136003423D01*
X162679866Y-136003423D02*
X162656057Y-136098661D01*
X162656057Y-136098661D02*
X162632247Y-136146280D01*
X162632247Y-136146280D02*
X162584628Y-136193900D01*
X162584628Y-136193900D02*
X162513200Y-136217709D01*
X162513200Y-136217709D02*
X162394152Y-136217709D01*
X163156057Y-136217709D02*
X162870343Y-136217709D01*
X163013200Y-136217709D02*
X163013200Y-135717709D01*
X163013200Y-135717709D02*
X162965581Y-135789138D01*
X162965581Y-135789138D02*
X162917962Y-135836757D01*
X162917962Y-135836757D02*
X162870343Y-135860566D01*
X183040509Y-132499142D02*
X182540509Y-132499142D01*
X182540509Y-132499142D02*
X182540509Y-132380094D01*
X182540509Y-132380094D02*
X182564319Y-132308666D01*
X182564319Y-132308666D02*
X182611938Y-132261047D01*
X182611938Y-132261047D02*
X182659557Y-132237237D01*
X182659557Y-132237237D02*
X182754795Y-132213428D01*
X182754795Y-132213428D02*
X182826223Y-132213428D01*
X182826223Y-132213428D02*
X182921461Y-132237237D01*
X182921461Y-132237237D02*
X182969080Y-132261047D01*
X182969080Y-132261047D02*
X183016700Y-132308666D01*
X183016700Y-132308666D02*
X183040509Y-132380094D01*
X183040509Y-132380094D02*
X183040509Y-132499142D01*
X183040509Y-131737237D02*
X183040509Y-132022951D01*
X183040509Y-131880094D02*
X182540509Y-131880094D01*
X182540509Y-131880094D02*
X182611938Y-131927713D01*
X182611938Y-131927713D02*
X182659557Y-131975332D01*
X182659557Y-131975332D02*
X182683366Y-132022951D01*
X182540509Y-131570571D02*
X182540509Y-131261047D01*
X182540509Y-131261047D02*
X182730985Y-131427714D01*
X182730985Y-131427714D02*
X182730985Y-131356285D01*
X182730985Y-131356285D02*
X182754795Y-131308666D01*
X182754795Y-131308666D02*
X182778604Y-131284857D01*
X182778604Y-131284857D02*
X182826223Y-131261047D01*
X182826223Y-131261047D02*
X182945271Y-131261047D01*
X182945271Y-131261047D02*
X182992890Y-131284857D01*
X182992890Y-131284857D02*
X183016700Y-131308666D01*
X183016700Y-131308666D02*
X183040509Y-131356285D01*
X183040509Y-131356285D02*
X183040509Y-131499142D01*
X183040509Y-131499142D02*
X183016700Y-131546761D01*
X183016700Y-131546761D02*
X182992890Y-131570571D01*
X218788490Y-101041428D02*
X218812300Y-101065237D01*
X218812300Y-101065237D02*
X218836109Y-101136666D01*
X218836109Y-101136666D02*
X218836109Y-101184285D01*
X218836109Y-101184285D02*
X218812300Y-101255713D01*
X218812300Y-101255713D02*
X218764680Y-101303332D01*
X218764680Y-101303332D02*
X218717061Y-101327142D01*
X218717061Y-101327142D02*
X218621823Y-101350951D01*
X218621823Y-101350951D02*
X218550395Y-101350951D01*
X218550395Y-101350951D02*
X218455157Y-101327142D01*
X218455157Y-101327142D02*
X218407538Y-101303332D01*
X218407538Y-101303332D02*
X218359919Y-101255713D01*
X218359919Y-101255713D02*
X218336109Y-101184285D01*
X218336109Y-101184285D02*
X218336109Y-101136666D01*
X218336109Y-101136666D02*
X218359919Y-101065237D01*
X218359919Y-101065237D02*
X218383728Y-101041428D01*
X218383728Y-100850951D02*
X218359919Y-100827142D01*
X218359919Y-100827142D02*
X218336109Y-100779523D01*
X218336109Y-100779523D02*
X218336109Y-100660475D01*
X218336109Y-100660475D02*
X218359919Y-100612856D01*
X218359919Y-100612856D02*
X218383728Y-100589047D01*
X218383728Y-100589047D02*
X218431347Y-100565237D01*
X218431347Y-100565237D02*
X218478966Y-100565237D01*
X218478966Y-100565237D02*
X218550395Y-100589047D01*
X218550395Y-100589047D02*
X218836109Y-100874761D01*
X218836109Y-100874761D02*
X218836109Y-100565237D01*
X218502776Y-100136666D02*
X218836109Y-100136666D01*
X218312300Y-100255714D02*
X218669442Y-100374761D01*
X218669442Y-100374761D02*
X218669442Y-100065238D01*
X177463333Y-136806109D02*
X177463333Y-137163252D01*
X177463333Y-137163252D02*
X177439524Y-137234680D01*
X177439524Y-137234680D02*
X177391905Y-137282300D01*
X177391905Y-137282300D02*
X177320476Y-137306109D01*
X177320476Y-137306109D02*
X177272857Y-137306109D01*
X177653809Y-136806109D02*
X177987142Y-136806109D01*
X177987142Y-136806109D02*
X177772857Y-137306109D01*
X218229666Y-99768709D02*
X218063000Y-99530614D01*
X217943952Y-99768709D02*
X217943952Y-99268709D01*
X217943952Y-99268709D02*
X218134428Y-99268709D01*
X218134428Y-99268709D02*
X218182047Y-99292519D01*
X218182047Y-99292519D02*
X218205857Y-99316328D01*
X218205857Y-99316328D02*
X218229666Y-99363947D01*
X218229666Y-99363947D02*
X218229666Y-99435376D01*
X218229666Y-99435376D02*
X218205857Y-99482995D01*
X218205857Y-99482995D02*
X218182047Y-99506804D01*
X218182047Y-99506804D02*
X218134428Y-99530614D01*
X218134428Y-99530614D02*
X217943952Y-99530614D01*
X218420143Y-99316328D02*
X218443952Y-99292519D01*
X218443952Y-99292519D02*
X218491571Y-99268709D01*
X218491571Y-99268709D02*
X218610619Y-99268709D01*
X218610619Y-99268709D02*
X218658238Y-99292519D01*
X218658238Y-99292519D02*
X218682047Y-99316328D01*
X218682047Y-99316328D02*
X218705857Y-99363947D01*
X218705857Y-99363947D02*
X218705857Y-99411566D01*
X218705857Y-99411566D02*
X218682047Y-99482995D01*
X218682047Y-99482995D02*
X218396333Y-99768709D01*
X218396333Y-99768709D02*
X218705857Y-99768709D01*
X238914942Y-103990090D02*
X238914942Y-104490090D01*
X238914942Y-104490090D02*
X238795894Y-104490090D01*
X238795894Y-104490090D02*
X238724466Y-104466280D01*
X238724466Y-104466280D02*
X238676847Y-104418661D01*
X238676847Y-104418661D02*
X238653037Y-104371042D01*
X238653037Y-104371042D02*
X238629228Y-104275804D01*
X238629228Y-104275804D02*
X238629228Y-104204376D01*
X238629228Y-104204376D02*
X238653037Y-104109138D01*
X238653037Y-104109138D02*
X238676847Y-104061519D01*
X238676847Y-104061519D02*
X238724466Y-104013900D01*
X238724466Y-104013900D02*
X238795894Y-103990090D01*
X238795894Y-103990090D02*
X238914942Y-103990090D01*
X238153037Y-103990090D02*
X238438751Y-103990090D01*
X238295894Y-103990090D02*
X238295894Y-104490090D01*
X238295894Y-104490090D02*
X238343513Y-104418661D01*
X238343513Y-104418661D02*
X238391132Y-104371042D01*
X238391132Y-104371042D02*
X238438751Y-104347233D01*
X237700657Y-104490090D02*
X237938752Y-104490090D01*
X237938752Y-104490090D02*
X237962561Y-104251995D01*
X237962561Y-104251995D02*
X237938752Y-104275804D01*
X237938752Y-104275804D02*
X237891133Y-104299614D01*
X237891133Y-104299614D02*
X237772085Y-104299614D01*
X237772085Y-104299614D02*
X237724466Y-104275804D01*
X237724466Y-104275804D02*
X237700657Y-104251995D01*
X237700657Y-104251995D02*
X237676847Y-104204376D01*
X237676847Y-104204376D02*
X237676847Y-104085328D01*
X237676847Y-104085328D02*
X237700657Y-104037709D01*
X237700657Y-104037709D02*
X237724466Y-104013900D01*
X237724466Y-104013900D02*
X237772085Y-103990090D01*
X237772085Y-103990090D02*
X237891133Y-103990090D01*
X237891133Y-103990090D02*
X237938752Y-104013900D01*
X237938752Y-104013900D02*
X237962561Y-104037709D01*
X197577286Y-147483039D02*
X197339191Y-147483039D01*
X197339191Y-147483039D02*
X197339191Y-146983039D01*
X197720144Y-147030658D02*
X197743953Y-147006849D01*
X197743953Y-147006849D02*
X197791572Y-146983039D01*
X197791572Y-146983039D02*
X197910620Y-146983039D01*
X197910620Y-146983039D02*
X197958239Y-147006849D01*
X197958239Y-147006849D02*
X197982048Y-147030658D01*
X197982048Y-147030658D02*
X198005858Y-147078277D01*
X198005858Y-147078277D02*
X198005858Y-147125896D01*
X198005858Y-147125896D02*
X197982048Y-147197325D01*
X197982048Y-147197325D02*
X197696334Y-147483039D01*
X197696334Y-147483039D02*
X198005858Y-147483039D01*
X218348039Y-140080100D02*
X218419467Y-140103909D01*
X218419467Y-140103909D02*
X218538515Y-140103909D01*
X218538515Y-140103909D02*
X218586134Y-140080100D01*
X218586134Y-140080100D02*
X218609943Y-140056290D01*
X218609943Y-140056290D02*
X218633753Y-140008671D01*
X218633753Y-140008671D02*
X218633753Y-139961052D01*
X218633753Y-139961052D02*
X218609943Y-139913433D01*
X218609943Y-139913433D02*
X218586134Y-139889623D01*
X218586134Y-139889623D02*
X218538515Y-139865814D01*
X218538515Y-139865814D02*
X218443277Y-139842004D01*
X218443277Y-139842004D02*
X218395658Y-139818195D01*
X218395658Y-139818195D02*
X218371848Y-139794385D01*
X218371848Y-139794385D02*
X218348039Y-139746766D01*
X218348039Y-139746766D02*
X218348039Y-139699147D01*
X218348039Y-139699147D02*
X218371848Y-139651528D01*
X218371848Y-139651528D02*
X218395658Y-139627719D01*
X218395658Y-139627719D02*
X218443277Y-139603909D01*
X218443277Y-139603909D02*
X218562324Y-139603909D01*
X218562324Y-139603909D02*
X218633753Y-139627719D01*
X218800419Y-139603909D02*
X218919467Y-140103909D01*
X218919467Y-140103909D02*
X219014705Y-139746766D01*
X219014705Y-139746766D02*
X219109943Y-140103909D01*
X219109943Y-140103909D02*
X219228991Y-139603909D01*
X219681372Y-140103909D02*
X219395658Y-140103909D01*
X219538515Y-140103909D02*
X219538515Y-139603909D01*
X219538515Y-139603909D02*
X219490896Y-139675338D01*
X219490896Y-139675338D02*
X219443277Y-139722957D01*
X219443277Y-139722957D02*
X219395658Y-139746766D01*
X220109943Y-139603909D02*
X220014705Y-139603909D01*
X220014705Y-139603909D02*
X219967086Y-139627719D01*
X219967086Y-139627719D02*
X219943276Y-139651528D01*
X219943276Y-139651528D02*
X219895657Y-139722957D01*
X219895657Y-139722957D02*
X219871848Y-139818195D01*
X219871848Y-139818195D02*
X219871848Y-140008671D01*
X219871848Y-140008671D02*
X219895657Y-140056290D01*
X219895657Y-140056290D02*
X219919467Y-140080100D01*
X219919467Y-140080100D02*
X219967086Y-140103909D01*
X219967086Y-140103909D02*
X220062324Y-140103909D01*
X220062324Y-140103909D02*
X220109943Y-140080100D01*
X220109943Y-140080100D02*
X220133752Y-140056290D01*
X220133752Y-140056290D02*
X220157562Y-140008671D01*
X220157562Y-140008671D02*
X220157562Y-139889623D01*
X220157562Y-139889623D02*
X220133752Y-139842004D01*
X220133752Y-139842004D02*
X220109943Y-139818195D01*
X220109943Y-139818195D02*
X220062324Y-139794385D01*
X220062324Y-139794385D02*
X219967086Y-139794385D01*
X219967086Y-139794385D02*
X219919467Y-139818195D01*
X219919467Y-139818195D02*
X219895657Y-139842004D01*
X219895657Y-139842004D02*
X219871848Y-139889623D01*
X188440109Y-117431333D02*
X188202014Y-117597999D01*
X188440109Y-117717047D02*
X187940109Y-117717047D01*
X187940109Y-117717047D02*
X187940109Y-117526571D01*
X187940109Y-117526571D02*
X187963919Y-117478952D01*
X187963919Y-117478952D02*
X187987728Y-117455142D01*
X187987728Y-117455142D02*
X188035347Y-117431333D01*
X188035347Y-117431333D02*
X188106776Y-117431333D01*
X188106776Y-117431333D02*
X188154395Y-117455142D01*
X188154395Y-117455142D02*
X188178204Y-117478952D01*
X188178204Y-117478952D02*
X188202014Y-117526571D01*
X188202014Y-117526571D02*
X188202014Y-117717047D01*
X187940109Y-117264666D02*
X187940109Y-116931333D01*
X187940109Y-116931333D02*
X188440109Y-117145618D01*
X278727342Y-140509758D02*
X278727342Y-140009758D01*
X278727342Y-140009758D02*
X278846390Y-140009758D01*
X278846390Y-140009758D02*
X278917818Y-140033568D01*
X278917818Y-140033568D02*
X278965437Y-140081187D01*
X278965437Y-140081187D02*
X278989247Y-140128806D01*
X278989247Y-140128806D02*
X279013056Y-140224044D01*
X279013056Y-140224044D02*
X279013056Y-140295472D01*
X279013056Y-140295472D02*
X278989247Y-140390710D01*
X278989247Y-140390710D02*
X278965437Y-140438329D01*
X278965437Y-140438329D02*
X278917818Y-140485949D01*
X278917818Y-140485949D02*
X278846390Y-140509758D01*
X278846390Y-140509758D02*
X278727342Y-140509758D01*
X279465437Y-140009758D02*
X279227342Y-140009758D01*
X279227342Y-140009758D02*
X279203533Y-140247853D01*
X279203533Y-140247853D02*
X279227342Y-140224044D01*
X279227342Y-140224044D02*
X279274961Y-140200234D01*
X279274961Y-140200234D02*
X279394009Y-140200234D01*
X279394009Y-140200234D02*
X279441628Y-140224044D01*
X279441628Y-140224044D02*
X279465437Y-140247853D01*
X279465437Y-140247853D02*
X279489247Y-140295472D01*
X279489247Y-140295472D02*
X279489247Y-140414520D01*
X279489247Y-140414520D02*
X279465437Y-140462139D01*
X279465437Y-140462139D02*
X279441628Y-140485949D01*
X279441628Y-140485949D02*
X279394009Y-140509758D01*
X279394009Y-140509758D02*
X279274961Y-140509758D01*
X279274961Y-140509758D02*
X279227342Y-140485949D01*
X279227342Y-140485949D02*
X279203533Y-140462139D01*
X233048014Y-104398094D02*
X233286109Y-104398094D01*
X232786109Y-104564760D02*
X233048014Y-104398094D01*
X233048014Y-104398094D02*
X232786109Y-104231427D01*
X233286109Y-103802856D02*
X233286109Y-104088570D01*
X233286109Y-103945713D02*
X232786109Y-103945713D01*
X232786109Y-103945713D02*
X232857538Y-103993332D01*
X232857538Y-103993332D02*
X232905157Y-104040951D01*
X232905157Y-104040951D02*
X232928966Y-104088570D01*
X211355857Y-133271309D02*
X211355857Y-132771309D01*
X211355857Y-132771309D02*
X211474905Y-132771309D01*
X211474905Y-132771309D02*
X211546333Y-132795119D01*
X211546333Y-132795119D02*
X211593952Y-132842738D01*
X211593952Y-132842738D02*
X211617762Y-132890357D01*
X211617762Y-132890357D02*
X211641571Y-132985595D01*
X211641571Y-132985595D02*
X211641571Y-133057023D01*
X211641571Y-133057023D02*
X211617762Y-133152261D01*
X211617762Y-133152261D02*
X211593952Y-133199880D01*
X211593952Y-133199880D02*
X211546333Y-133247500D01*
X211546333Y-133247500D02*
X211474905Y-133271309D01*
X211474905Y-133271309D02*
X211355857Y-133271309D01*
X212117762Y-133271309D02*
X211832048Y-133271309D01*
X211974905Y-133271309D02*
X211974905Y-132771309D01*
X211974905Y-132771309D02*
X211927286Y-132842738D01*
X211927286Y-132842738D02*
X211879667Y-132890357D01*
X211879667Y-132890357D02*
X211832048Y-132914166D01*
X212427285Y-132771309D02*
X212474904Y-132771309D01*
X212474904Y-132771309D02*
X212522523Y-132795119D01*
X212522523Y-132795119D02*
X212546333Y-132818928D01*
X212546333Y-132818928D02*
X212570142Y-132866547D01*
X212570142Y-132866547D02*
X212593952Y-132961785D01*
X212593952Y-132961785D02*
X212593952Y-133080833D01*
X212593952Y-133080833D02*
X212570142Y-133176071D01*
X212570142Y-133176071D02*
X212546333Y-133223690D01*
X212546333Y-133223690D02*
X212522523Y-133247500D01*
X212522523Y-133247500D02*
X212474904Y-133271309D01*
X212474904Y-133271309D02*
X212427285Y-133271309D01*
X212427285Y-133271309D02*
X212379666Y-133247500D01*
X212379666Y-133247500D02*
X212355857Y-133223690D01*
X212355857Y-133223690D02*
X212332047Y-133176071D01*
X212332047Y-133176071D02*
X212308238Y-133080833D01*
X212308238Y-133080833D02*
X212308238Y-132961785D01*
X212308238Y-132961785D02*
X212332047Y-132866547D01*
X212332047Y-132866547D02*
X212355857Y-132818928D01*
X212355857Y-132818928D02*
X212379666Y-132795119D01*
X212379666Y-132795119D02*
X212427285Y-132771309D01*
X177513466Y-130074090D02*
X177489657Y-130097900D01*
X177489657Y-130097900D02*
X177418228Y-130121709D01*
X177418228Y-130121709D02*
X177370609Y-130121709D01*
X177370609Y-130121709D02*
X177299181Y-130097900D01*
X177299181Y-130097900D02*
X177251562Y-130050280D01*
X177251562Y-130050280D02*
X177227752Y-130002661D01*
X177227752Y-130002661D02*
X177203943Y-129907423D01*
X177203943Y-129907423D02*
X177203943Y-129835995D01*
X177203943Y-129835995D02*
X177227752Y-129740757D01*
X177227752Y-129740757D02*
X177251562Y-129693138D01*
X177251562Y-129693138D02*
X177299181Y-129645519D01*
X177299181Y-129645519D02*
X177370609Y-129621709D01*
X177370609Y-129621709D02*
X177418228Y-129621709D01*
X177418228Y-129621709D02*
X177489657Y-129645519D01*
X177489657Y-129645519D02*
X177513466Y-129669328D01*
X177942038Y-129788376D02*
X177942038Y-130121709D01*
X177822990Y-129597900D02*
X177703943Y-129955042D01*
X177703943Y-129955042D02*
X178013466Y-129955042D01*
X248947038Y-104326309D02*
X249280371Y-104826309D01*
X249280371Y-104326309D02*
X248947038Y-104826309D01*
X249685133Y-104326309D02*
X249589895Y-104326309D01*
X249589895Y-104326309D02*
X249542276Y-104350119D01*
X249542276Y-104350119D02*
X249518466Y-104373928D01*
X249518466Y-104373928D02*
X249470847Y-104445357D01*
X249470847Y-104445357D02*
X249447038Y-104540595D01*
X249447038Y-104540595D02*
X249447038Y-104731071D01*
X249447038Y-104731071D02*
X249470847Y-104778690D01*
X249470847Y-104778690D02*
X249494657Y-104802500D01*
X249494657Y-104802500D02*
X249542276Y-104826309D01*
X249542276Y-104826309D02*
X249637514Y-104826309D01*
X249637514Y-104826309D02*
X249685133Y-104802500D01*
X249685133Y-104802500D02*
X249708942Y-104778690D01*
X249708942Y-104778690D02*
X249732752Y-104731071D01*
X249732752Y-104731071D02*
X249732752Y-104612023D01*
X249732752Y-104612023D02*
X249708942Y-104564404D01*
X249708942Y-104564404D02*
X249685133Y-104540595D01*
X249685133Y-104540595D02*
X249637514Y-104516785D01*
X249637514Y-104516785D02*
X249542276Y-104516785D01*
X249542276Y-104516785D02*
X249494657Y-104540595D01*
X249494657Y-104540595D02*
X249470847Y-104564404D01*
X249470847Y-104564404D02*
X249447038Y-104612023D01*
X223265100Y-128022265D02*
X223288909Y-127950837D01*
X223288909Y-127950837D02*
X223288909Y-127831789D01*
X223288909Y-127831789D02*
X223265100Y-127784170D01*
X223265100Y-127784170D02*
X223241290Y-127760361D01*
X223241290Y-127760361D02*
X223193671Y-127736551D01*
X223193671Y-127736551D02*
X223146052Y-127736551D01*
X223146052Y-127736551D02*
X223098433Y-127760361D01*
X223098433Y-127760361D02*
X223074623Y-127784170D01*
X223074623Y-127784170D02*
X223050814Y-127831789D01*
X223050814Y-127831789D02*
X223027004Y-127927027D01*
X223027004Y-127927027D02*
X223003195Y-127974646D01*
X223003195Y-127974646D02*
X222979385Y-127998456D01*
X222979385Y-127998456D02*
X222931766Y-128022265D01*
X222931766Y-128022265D02*
X222884147Y-128022265D01*
X222884147Y-128022265D02*
X222836528Y-127998456D01*
X222836528Y-127998456D02*
X222812719Y-127974646D01*
X222812719Y-127974646D02*
X222788909Y-127927027D01*
X222788909Y-127927027D02*
X222788909Y-127807980D01*
X222788909Y-127807980D02*
X222812719Y-127736551D01*
X222788909Y-127569885D02*
X223288909Y-127450837D01*
X223288909Y-127450837D02*
X222931766Y-127355599D01*
X222931766Y-127355599D02*
X223288909Y-127260361D01*
X223288909Y-127260361D02*
X222788909Y-127141314D01*
X222955576Y-126736551D02*
X223288909Y-126736551D01*
X222765100Y-126855599D02*
X223122242Y-126974646D01*
X223122242Y-126974646D02*
X223122242Y-126665123D01*
X221487309Y-101532571D02*
X221463500Y-101508762D01*
X221463500Y-101508762D02*
X221439690Y-101437333D01*
X221439690Y-101437333D02*
X221439690Y-101389714D01*
X221439690Y-101389714D02*
X221463500Y-101318286D01*
X221463500Y-101318286D02*
X221511119Y-101270667D01*
X221511119Y-101270667D02*
X221558738Y-101246857D01*
X221558738Y-101246857D02*
X221653976Y-101223048D01*
X221653976Y-101223048D02*
X221725404Y-101223048D01*
X221725404Y-101223048D02*
X221820642Y-101246857D01*
X221820642Y-101246857D02*
X221868261Y-101270667D01*
X221868261Y-101270667D02*
X221915880Y-101318286D01*
X221915880Y-101318286D02*
X221939690Y-101389714D01*
X221939690Y-101389714D02*
X221939690Y-101437333D01*
X221939690Y-101437333D02*
X221915880Y-101508762D01*
X221915880Y-101508762D02*
X221892071Y-101532571D01*
X221892071Y-101723048D02*
X221915880Y-101746857D01*
X221915880Y-101746857D02*
X221939690Y-101794476D01*
X221939690Y-101794476D02*
X221939690Y-101913524D01*
X221939690Y-101913524D02*
X221915880Y-101961143D01*
X221915880Y-101961143D02*
X221892071Y-101984952D01*
X221892071Y-101984952D02*
X221844452Y-102008762D01*
X221844452Y-102008762D02*
X221796833Y-102008762D01*
X221796833Y-102008762D02*
X221725404Y-101984952D01*
X221725404Y-101984952D02*
X221439690Y-101699238D01*
X221439690Y-101699238D02*
X221439690Y-102008762D01*
X221939690Y-102318285D02*
X221939690Y-102365904D01*
X221939690Y-102365904D02*
X221915880Y-102413523D01*
X221915880Y-102413523D02*
X221892071Y-102437333D01*
X221892071Y-102437333D02*
X221844452Y-102461142D01*
X221844452Y-102461142D02*
X221749214Y-102484952D01*
X221749214Y-102484952D02*
X221630166Y-102484952D01*
X221630166Y-102484952D02*
X221534928Y-102461142D01*
X221534928Y-102461142D02*
X221487309Y-102437333D01*
X221487309Y-102437333D02*
X221463500Y-102413523D01*
X221463500Y-102413523D02*
X221439690Y-102365904D01*
X221439690Y-102365904D02*
X221439690Y-102318285D01*
X221439690Y-102318285D02*
X221463500Y-102270666D01*
X221463500Y-102270666D02*
X221487309Y-102246857D01*
X221487309Y-102246857D02*
X221534928Y-102223047D01*
X221534928Y-102223047D02*
X221630166Y-102199238D01*
X221630166Y-102199238D02*
X221749214Y-102199238D01*
X221749214Y-102199238D02*
X221844452Y-102223047D01*
X221844452Y-102223047D02*
X221892071Y-102246857D01*
X221892071Y-102246857D02*
X221915880Y-102270666D01*
X221915880Y-102270666D02*
X221939690Y-102318285D01*
X225524109Y-101007028D02*
X225286014Y-101173694D01*
X225524109Y-101292742D02*
X225024109Y-101292742D01*
X225024109Y-101292742D02*
X225024109Y-101102266D01*
X225024109Y-101102266D02*
X225047919Y-101054647D01*
X225047919Y-101054647D02*
X225071728Y-101030837D01*
X225071728Y-101030837D02*
X225119347Y-101007028D01*
X225119347Y-101007028D02*
X225190776Y-101007028D01*
X225190776Y-101007028D02*
X225238395Y-101030837D01*
X225238395Y-101030837D02*
X225262204Y-101054647D01*
X225262204Y-101054647D02*
X225286014Y-101102266D01*
X225286014Y-101102266D02*
X225286014Y-101292742D01*
X225071728Y-100816551D02*
X225047919Y-100792742D01*
X225047919Y-100792742D02*
X225024109Y-100745123D01*
X225024109Y-100745123D02*
X225024109Y-100626075D01*
X225024109Y-100626075D02*
X225047919Y-100578456D01*
X225047919Y-100578456D02*
X225071728Y-100554647D01*
X225071728Y-100554647D02*
X225119347Y-100530837D01*
X225119347Y-100530837D02*
X225166966Y-100530837D01*
X225166966Y-100530837D02*
X225238395Y-100554647D01*
X225238395Y-100554647D02*
X225524109Y-100840361D01*
X225524109Y-100840361D02*
X225524109Y-100530837D01*
X225024109Y-100364171D02*
X225024109Y-100030838D01*
X225024109Y-100030838D02*
X225524109Y-100245123D01*
X242385066Y-129106516D02*
X242146971Y-129106516D01*
X242146971Y-129106516D02*
X242146971Y-128606516D01*
X242504114Y-128606516D02*
X242837447Y-128606516D01*
X242837447Y-128606516D02*
X242623162Y-129106516D01*
X220669523Y-93324120D02*
X220431428Y-93490786D01*
X220669523Y-93609834D02*
X220169523Y-93609834D01*
X220169523Y-93609834D02*
X220169523Y-93419358D01*
X220169523Y-93419358D02*
X220193333Y-93371739D01*
X220193333Y-93371739D02*
X220217142Y-93347929D01*
X220217142Y-93347929D02*
X220264761Y-93324120D01*
X220264761Y-93324120D02*
X220336190Y-93324120D01*
X220336190Y-93324120D02*
X220383809Y-93347929D01*
X220383809Y-93347929D02*
X220407618Y-93371739D01*
X220407618Y-93371739D02*
X220431428Y-93419358D01*
X220431428Y-93419358D02*
X220431428Y-93609834D01*
X220169523Y-92871739D02*
X220169523Y-93109834D01*
X220169523Y-93109834D02*
X220407618Y-93133643D01*
X220407618Y-93133643D02*
X220383809Y-93109834D01*
X220383809Y-93109834D02*
X220359999Y-93062215D01*
X220359999Y-93062215D02*
X220359999Y-92943167D01*
X220359999Y-92943167D02*
X220383809Y-92895548D01*
X220383809Y-92895548D02*
X220407618Y-92871739D01*
X220407618Y-92871739D02*
X220455237Y-92847929D01*
X220455237Y-92847929D02*
X220574285Y-92847929D01*
X220574285Y-92847929D02*
X220621904Y-92871739D01*
X220621904Y-92871739D02*
X220645714Y-92895548D01*
X220645714Y-92895548D02*
X220669523Y-92943167D01*
X220669523Y-92943167D02*
X220669523Y-93062215D01*
X220669523Y-93062215D02*
X220645714Y-93109834D01*
X220645714Y-93109834D02*
X220621904Y-93133643D01*
X271493466Y-133172890D02*
X271469657Y-133196700D01*
X271469657Y-133196700D02*
X271398228Y-133220509D01*
X271398228Y-133220509D02*
X271350609Y-133220509D01*
X271350609Y-133220509D02*
X271279181Y-133196700D01*
X271279181Y-133196700D02*
X271231562Y-133149080D01*
X271231562Y-133149080D02*
X271207752Y-133101461D01*
X271207752Y-133101461D02*
X271183943Y-133006223D01*
X271183943Y-133006223D02*
X271183943Y-132934795D01*
X271183943Y-132934795D02*
X271207752Y-132839557D01*
X271207752Y-132839557D02*
X271231562Y-132791938D01*
X271231562Y-132791938D02*
X271279181Y-132744319D01*
X271279181Y-132744319D02*
X271350609Y-132720509D01*
X271350609Y-132720509D02*
X271398228Y-132720509D01*
X271398228Y-132720509D02*
X271469657Y-132744319D01*
X271469657Y-132744319D02*
X271493466Y-132768128D01*
X271660133Y-132720509D02*
X271993466Y-132720509D01*
X271993466Y-132720509D02*
X271779181Y-133220509D01*
X226773690Y-94703152D02*
X227273690Y-94703152D01*
X227273690Y-94703152D02*
X227273690Y-94822200D01*
X227273690Y-94822200D02*
X227249880Y-94893628D01*
X227249880Y-94893628D02*
X227202261Y-94941247D01*
X227202261Y-94941247D02*
X227154642Y-94965057D01*
X227154642Y-94965057D02*
X227059404Y-94988866D01*
X227059404Y-94988866D02*
X226987976Y-94988866D01*
X226987976Y-94988866D02*
X226892738Y-94965057D01*
X226892738Y-94965057D02*
X226845119Y-94941247D01*
X226845119Y-94941247D02*
X226797500Y-94893628D01*
X226797500Y-94893628D02*
X226773690Y-94822200D01*
X226773690Y-94822200D02*
X226773690Y-94703152D01*
X227059404Y-95274581D02*
X227083214Y-95226962D01*
X227083214Y-95226962D02*
X227107023Y-95203152D01*
X227107023Y-95203152D02*
X227154642Y-95179343D01*
X227154642Y-95179343D02*
X227178452Y-95179343D01*
X227178452Y-95179343D02*
X227226071Y-95203152D01*
X227226071Y-95203152D02*
X227249880Y-95226962D01*
X227249880Y-95226962D02*
X227273690Y-95274581D01*
X227273690Y-95274581D02*
X227273690Y-95369819D01*
X227273690Y-95369819D02*
X227249880Y-95417438D01*
X227249880Y-95417438D02*
X227226071Y-95441247D01*
X227226071Y-95441247D02*
X227178452Y-95465057D01*
X227178452Y-95465057D02*
X227154642Y-95465057D01*
X227154642Y-95465057D02*
X227107023Y-95441247D01*
X227107023Y-95441247D02*
X227083214Y-95417438D01*
X227083214Y-95417438D02*
X227059404Y-95369819D01*
X227059404Y-95369819D02*
X227059404Y-95274581D01*
X227059404Y-95274581D02*
X227035595Y-95226962D01*
X227035595Y-95226962D02*
X227011785Y-95203152D01*
X227011785Y-95203152D02*
X226964166Y-95179343D01*
X226964166Y-95179343D02*
X226868928Y-95179343D01*
X226868928Y-95179343D02*
X226821309Y-95203152D01*
X226821309Y-95203152D02*
X226797500Y-95226962D01*
X226797500Y-95226962D02*
X226773690Y-95274581D01*
X226773690Y-95274581D02*
X226773690Y-95369819D01*
X226773690Y-95369819D02*
X226797500Y-95417438D01*
X226797500Y-95417438D02*
X226821309Y-95441247D01*
X226821309Y-95441247D02*
X226868928Y-95465057D01*
X226868928Y-95465057D02*
X226964166Y-95465057D01*
X226964166Y-95465057D02*
X227011785Y-95441247D01*
X227011785Y-95441247D02*
X227035595Y-95417438D01*
X227035595Y-95417438D02*
X227059404Y-95369819D01*
X209926109Y-95680952D02*
X210330871Y-95680952D01*
X210330871Y-95680952D02*
X210378490Y-95657142D01*
X210378490Y-95657142D02*
X210402300Y-95633333D01*
X210402300Y-95633333D02*
X210426109Y-95585714D01*
X210426109Y-95585714D02*
X210426109Y-95490476D01*
X210426109Y-95490476D02*
X210402300Y-95442857D01*
X210402300Y-95442857D02*
X210378490Y-95419047D01*
X210378490Y-95419047D02*
X210330871Y-95395238D01*
X210330871Y-95395238D02*
X209926109Y-95395238D01*
X210092776Y-94942856D02*
X210426109Y-94942856D01*
X209902300Y-95061904D02*
X210259442Y-95180951D01*
X210259442Y-95180951D02*
X210259442Y-94871428D01*
X184027048Y-95969709D02*
X184312762Y-95969709D01*
X184169905Y-96469709D02*
X184169905Y-95969709D01*
X184479428Y-96469709D02*
X184479428Y-95969709D01*
X184479428Y-95969709D02*
X184669904Y-95969709D01*
X184669904Y-95969709D02*
X184717523Y-95993519D01*
X184717523Y-95993519D02*
X184741333Y-96017328D01*
X184741333Y-96017328D02*
X184765142Y-96064947D01*
X184765142Y-96064947D02*
X184765142Y-96136376D01*
X184765142Y-96136376D02*
X184741333Y-96183995D01*
X184741333Y-96183995D02*
X184717523Y-96207804D01*
X184717523Y-96207804D02*
X184669904Y-96231614D01*
X184669904Y-96231614D02*
X184479428Y-96231614D01*
X185217523Y-95969709D02*
X184979428Y-95969709D01*
X184979428Y-95969709D02*
X184955619Y-96207804D01*
X184955619Y-96207804D02*
X184979428Y-96183995D01*
X184979428Y-96183995D02*
X185027047Y-96160185D01*
X185027047Y-96160185D02*
X185146095Y-96160185D01*
X185146095Y-96160185D02*
X185193714Y-96183995D01*
X185193714Y-96183995D02*
X185217523Y-96207804D01*
X185217523Y-96207804D02*
X185241333Y-96255423D01*
X185241333Y-96255423D02*
X185241333Y-96374471D01*
X185241333Y-96374471D02*
X185217523Y-96422090D01*
X185217523Y-96422090D02*
X185193714Y-96445900D01*
X185193714Y-96445900D02*
X185146095Y-96469709D01*
X185146095Y-96469709D02*
X185027047Y-96469709D01*
X185027047Y-96469709D02*
X184979428Y-96445900D01*
X184979428Y-96445900D02*
X184955619Y-96422090D01*
X189609734Y-118831248D02*
X189633544Y-118855057D01*
X189633544Y-118855057D02*
X189657353Y-118926486D01*
X189657353Y-118926486D02*
X189657353Y-118974105D01*
X189657353Y-118974105D02*
X189633544Y-119045533D01*
X189633544Y-119045533D02*
X189585924Y-119093152D01*
X189585924Y-119093152D02*
X189538305Y-119116962D01*
X189538305Y-119116962D02*
X189443067Y-119140771D01*
X189443067Y-119140771D02*
X189371639Y-119140771D01*
X189371639Y-119140771D02*
X189276401Y-119116962D01*
X189276401Y-119116962D02*
X189228782Y-119093152D01*
X189228782Y-119093152D02*
X189181163Y-119045533D01*
X189181163Y-119045533D02*
X189157353Y-118974105D01*
X189157353Y-118974105D02*
X189157353Y-118926486D01*
X189157353Y-118926486D02*
X189181163Y-118855057D01*
X189181163Y-118855057D02*
X189204972Y-118831248D01*
X189157353Y-118664581D02*
X189157353Y-118355057D01*
X189157353Y-118355057D02*
X189347829Y-118521724D01*
X189347829Y-118521724D02*
X189347829Y-118450295D01*
X189347829Y-118450295D02*
X189371639Y-118402676D01*
X189371639Y-118402676D02*
X189395448Y-118378867D01*
X189395448Y-118378867D02*
X189443067Y-118355057D01*
X189443067Y-118355057D02*
X189562115Y-118355057D01*
X189562115Y-118355057D02*
X189609734Y-118378867D01*
X189609734Y-118378867D02*
X189633544Y-118402676D01*
X189633544Y-118402676D02*
X189657353Y-118450295D01*
X189657353Y-118450295D02*
X189657353Y-118593152D01*
X189657353Y-118593152D02*
X189633544Y-118640771D01*
X189633544Y-118640771D02*
X189609734Y-118664581D01*
X168886666Y-137428490D02*
X168862857Y-137452300D01*
X168862857Y-137452300D02*
X168791428Y-137476109D01*
X168791428Y-137476109D02*
X168743809Y-137476109D01*
X168743809Y-137476109D02*
X168672381Y-137452300D01*
X168672381Y-137452300D02*
X168624762Y-137404680D01*
X168624762Y-137404680D02*
X168600952Y-137357061D01*
X168600952Y-137357061D02*
X168577143Y-137261823D01*
X168577143Y-137261823D02*
X168577143Y-137190395D01*
X168577143Y-137190395D02*
X168600952Y-137095157D01*
X168600952Y-137095157D02*
X168624762Y-137047538D01*
X168624762Y-137047538D02*
X168672381Y-136999919D01*
X168672381Y-136999919D02*
X168743809Y-136976109D01*
X168743809Y-136976109D02*
X168791428Y-136976109D01*
X168791428Y-136976109D02*
X168862857Y-136999919D01*
X168862857Y-136999919D02*
X168886666Y-137023728D01*
X169124762Y-137476109D02*
X169220000Y-137476109D01*
X169220000Y-137476109D02*
X169267619Y-137452300D01*
X169267619Y-137452300D02*
X169291428Y-137428490D01*
X169291428Y-137428490D02*
X169339047Y-137357061D01*
X169339047Y-137357061D02*
X169362857Y-137261823D01*
X169362857Y-137261823D02*
X169362857Y-137071347D01*
X169362857Y-137071347D02*
X169339047Y-137023728D01*
X169339047Y-137023728D02*
X169315238Y-136999919D01*
X169315238Y-136999919D02*
X169267619Y-136976109D01*
X169267619Y-136976109D02*
X169172381Y-136976109D01*
X169172381Y-136976109D02*
X169124762Y-136999919D01*
X169124762Y-136999919D02*
X169100952Y-137023728D01*
X169100952Y-137023728D02*
X169077143Y-137071347D01*
X169077143Y-137071347D02*
X169077143Y-137190395D01*
X169077143Y-137190395D02*
X169100952Y-137238014D01*
X169100952Y-137238014D02*
X169124762Y-137261823D01*
X169124762Y-137261823D02*
X169172381Y-137285633D01*
X169172381Y-137285633D02*
X169267619Y-137285633D01*
X169267619Y-137285633D02*
X169315238Y-137261823D01*
X169315238Y-137261823D02*
X169339047Y-137238014D01*
X169339047Y-137238014D02*
X169362857Y-137190395D01*
X214375100Y-127514265D02*
X214398909Y-127442837D01*
X214398909Y-127442837D02*
X214398909Y-127323789D01*
X214398909Y-127323789D02*
X214375100Y-127276170D01*
X214375100Y-127276170D02*
X214351290Y-127252361D01*
X214351290Y-127252361D02*
X214303671Y-127228551D01*
X214303671Y-127228551D02*
X214256052Y-127228551D01*
X214256052Y-127228551D02*
X214208433Y-127252361D01*
X214208433Y-127252361D02*
X214184623Y-127276170D01*
X214184623Y-127276170D02*
X214160814Y-127323789D01*
X214160814Y-127323789D02*
X214137004Y-127419027D01*
X214137004Y-127419027D02*
X214113195Y-127466646D01*
X214113195Y-127466646D02*
X214089385Y-127490456D01*
X214089385Y-127490456D02*
X214041766Y-127514265D01*
X214041766Y-127514265D02*
X213994147Y-127514265D01*
X213994147Y-127514265D02*
X213946528Y-127490456D01*
X213946528Y-127490456D02*
X213922719Y-127466646D01*
X213922719Y-127466646D02*
X213898909Y-127419027D01*
X213898909Y-127419027D02*
X213898909Y-127299980D01*
X213898909Y-127299980D02*
X213922719Y-127228551D01*
X213898909Y-127061885D02*
X214398909Y-126942837D01*
X214398909Y-126942837D02*
X214041766Y-126847599D01*
X214041766Y-126847599D02*
X214398909Y-126752361D01*
X214398909Y-126752361D02*
X213898909Y-126633314D01*
X213898909Y-126204742D02*
X213898909Y-126442837D01*
X213898909Y-126442837D02*
X214137004Y-126466646D01*
X214137004Y-126466646D02*
X214113195Y-126442837D01*
X214113195Y-126442837D02*
X214089385Y-126395218D01*
X214089385Y-126395218D02*
X214089385Y-126276170D01*
X214089385Y-126276170D02*
X214113195Y-126228551D01*
X214113195Y-126228551D02*
X214137004Y-126204742D01*
X214137004Y-126204742D02*
X214184623Y-126180932D01*
X214184623Y-126180932D02*
X214303671Y-126180932D01*
X214303671Y-126180932D02*
X214351290Y-126204742D01*
X214351290Y-126204742D02*
X214375100Y-126228551D01*
X214375100Y-126228551D02*
X214398909Y-126276170D01*
X214398909Y-126276170D02*
X214398909Y-126395218D01*
X214398909Y-126395218D02*
X214375100Y-126442837D01*
X214375100Y-126442837D02*
X214351290Y-126466646D01*
X190040309Y-131112342D02*
X189540309Y-131112342D01*
X189540309Y-131112342D02*
X189540309Y-130993294D01*
X189540309Y-130993294D02*
X189564119Y-130921866D01*
X189564119Y-130921866D02*
X189611738Y-130874247D01*
X189611738Y-130874247D02*
X189659357Y-130850437D01*
X189659357Y-130850437D02*
X189754595Y-130826628D01*
X189754595Y-130826628D02*
X189826023Y-130826628D01*
X189826023Y-130826628D02*
X189921261Y-130850437D01*
X189921261Y-130850437D02*
X189968880Y-130874247D01*
X189968880Y-130874247D02*
X190016500Y-130921866D01*
X190016500Y-130921866D02*
X190040309Y-130993294D01*
X190040309Y-130993294D02*
X190040309Y-131112342D01*
X190040309Y-130350437D02*
X190040309Y-130636151D01*
X190040309Y-130493294D02*
X189540309Y-130493294D01*
X189540309Y-130493294D02*
X189611738Y-130540913D01*
X189611738Y-130540913D02*
X189659357Y-130588532D01*
X189659357Y-130588532D02*
X189683166Y-130636151D01*
X189587928Y-130159961D02*
X189564119Y-130136152D01*
X189564119Y-130136152D02*
X189540309Y-130088533D01*
X189540309Y-130088533D02*
X189540309Y-129969485D01*
X189540309Y-129969485D02*
X189564119Y-129921866D01*
X189564119Y-129921866D02*
X189587928Y-129898057D01*
X189587928Y-129898057D02*
X189635547Y-129874247D01*
X189635547Y-129874247D02*
X189683166Y-129874247D01*
X189683166Y-129874247D02*
X189754595Y-129898057D01*
X189754595Y-129898057D02*
X190040309Y-130183771D01*
X190040309Y-130183771D02*
X190040309Y-129874247D01*
X228811971Y-111757509D02*
X228645305Y-111519414D01*
X228526257Y-111757509D02*
X228526257Y-111257509D01*
X228526257Y-111257509D02*
X228716733Y-111257509D01*
X228716733Y-111257509D02*
X228764352Y-111281319D01*
X228764352Y-111281319D02*
X228788162Y-111305128D01*
X228788162Y-111305128D02*
X228811971Y-111352747D01*
X228811971Y-111352747D02*
X228811971Y-111424176D01*
X228811971Y-111424176D02*
X228788162Y-111471795D01*
X228788162Y-111471795D02*
X228764352Y-111495604D01*
X228764352Y-111495604D02*
X228716733Y-111519414D01*
X228716733Y-111519414D02*
X228526257Y-111519414D01*
X229002448Y-111305128D02*
X229026257Y-111281319D01*
X229026257Y-111281319D02*
X229073876Y-111257509D01*
X229073876Y-111257509D02*
X229192924Y-111257509D01*
X229192924Y-111257509D02*
X229240543Y-111281319D01*
X229240543Y-111281319D02*
X229264352Y-111305128D01*
X229264352Y-111305128D02*
X229288162Y-111352747D01*
X229288162Y-111352747D02*
X229288162Y-111400366D01*
X229288162Y-111400366D02*
X229264352Y-111471795D01*
X229264352Y-111471795D02*
X228978638Y-111757509D01*
X228978638Y-111757509D02*
X229288162Y-111757509D01*
X229740542Y-111257509D02*
X229502447Y-111257509D01*
X229502447Y-111257509D02*
X229478638Y-111495604D01*
X229478638Y-111495604D02*
X229502447Y-111471795D01*
X229502447Y-111471795D02*
X229550066Y-111447985D01*
X229550066Y-111447985D02*
X229669114Y-111447985D01*
X229669114Y-111447985D02*
X229716733Y-111471795D01*
X229716733Y-111471795D02*
X229740542Y-111495604D01*
X229740542Y-111495604D02*
X229764352Y-111543223D01*
X229764352Y-111543223D02*
X229764352Y-111662271D01*
X229764352Y-111662271D02*
X229740542Y-111709890D01*
X229740542Y-111709890D02*
X229716733Y-111733700D01*
X229716733Y-111733700D02*
X229669114Y-111757509D01*
X229669114Y-111757509D02*
X229550066Y-111757509D01*
X229550066Y-111757509D02*
X229502447Y-111733700D01*
X229502447Y-111733700D02*
X229478638Y-111709890D01*
X228424094Y-114518067D02*
X228400285Y-114541877D01*
X228400285Y-114541877D02*
X228328856Y-114565686D01*
X228328856Y-114565686D02*
X228281237Y-114565686D01*
X228281237Y-114565686D02*
X228209809Y-114541877D01*
X228209809Y-114541877D02*
X228162190Y-114494257D01*
X228162190Y-114494257D02*
X228138380Y-114446638D01*
X228138380Y-114446638D02*
X228114571Y-114351400D01*
X228114571Y-114351400D02*
X228114571Y-114279972D01*
X228114571Y-114279972D02*
X228138380Y-114184734D01*
X228138380Y-114184734D02*
X228162190Y-114137115D01*
X228162190Y-114137115D02*
X228209809Y-114089496D01*
X228209809Y-114089496D02*
X228281237Y-114065686D01*
X228281237Y-114065686D02*
X228328856Y-114065686D01*
X228328856Y-114065686D02*
X228400285Y-114089496D01*
X228400285Y-114089496D02*
X228424094Y-114113305D01*
X228900285Y-114565686D02*
X228614571Y-114565686D01*
X228757428Y-114565686D02*
X228757428Y-114065686D01*
X228757428Y-114065686D02*
X228709809Y-114137115D01*
X228709809Y-114137115D02*
X228662190Y-114184734D01*
X228662190Y-114184734D02*
X228614571Y-114208543D01*
X229328856Y-114232353D02*
X229328856Y-114565686D01*
X229209808Y-114041877D02*
X229090761Y-114399019D01*
X229090761Y-114399019D02*
X229400284Y-114399019D01*
X230738490Y-109941428D02*
X230762300Y-109965237D01*
X230762300Y-109965237D02*
X230786109Y-110036666D01*
X230786109Y-110036666D02*
X230786109Y-110084285D01*
X230786109Y-110084285D02*
X230762300Y-110155713D01*
X230762300Y-110155713D02*
X230714680Y-110203332D01*
X230714680Y-110203332D02*
X230667061Y-110227142D01*
X230667061Y-110227142D02*
X230571823Y-110250951D01*
X230571823Y-110250951D02*
X230500395Y-110250951D01*
X230500395Y-110250951D02*
X230405157Y-110227142D01*
X230405157Y-110227142D02*
X230357538Y-110203332D01*
X230357538Y-110203332D02*
X230309919Y-110155713D01*
X230309919Y-110155713D02*
X230286109Y-110084285D01*
X230286109Y-110084285D02*
X230286109Y-110036666D01*
X230286109Y-110036666D02*
X230309919Y-109965237D01*
X230309919Y-109965237D02*
X230333728Y-109941428D01*
X230786109Y-109465237D02*
X230786109Y-109750951D01*
X230786109Y-109608094D02*
X230286109Y-109608094D01*
X230286109Y-109608094D02*
X230357538Y-109655713D01*
X230357538Y-109655713D02*
X230405157Y-109703332D01*
X230405157Y-109703332D02*
X230428966Y-109750951D01*
X230286109Y-109298571D02*
X230286109Y-108965238D01*
X230286109Y-108965238D02*
X230786109Y-109179523D01*
X261323971Y-100835509D02*
X261085876Y-100835509D01*
X261085876Y-100835509D02*
X261085876Y-100335509D01*
X261752543Y-100835509D02*
X261466829Y-100835509D01*
X261609686Y-100835509D02*
X261609686Y-100335509D01*
X261609686Y-100335509D02*
X261562067Y-100406938D01*
X261562067Y-100406938D02*
X261514448Y-100454557D01*
X261514448Y-100454557D02*
X261466829Y-100478366D01*
X262062066Y-100335509D02*
X262109685Y-100335509D01*
X262109685Y-100335509D02*
X262157304Y-100359319D01*
X262157304Y-100359319D02*
X262181114Y-100383128D01*
X262181114Y-100383128D02*
X262204923Y-100430747D01*
X262204923Y-100430747D02*
X262228733Y-100525985D01*
X262228733Y-100525985D02*
X262228733Y-100645033D01*
X262228733Y-100645033D02*
X262204923Y-100740271D01*
X262204923Y-100740271D02*
X262181114Y-100787890D01*
X262181114Y-100787890D02*
X262157304Y-100811700D01*
X262157304Y-100811700D02*
X262109685Y-100835509D01*
X262109685Y-100835509D02*
X262062066Y-100835509D01*
X262062066Y-100835509D02*
X262014447Y-100811700D01*
X262014447Y-100811700D02*
X261990638Y-100787890D01*
X261990638Y-100787890D02*
X261966828Y-100740271D01*
X261966828Y-100740271D02*
X261943019Y-100645033D01*
X261943019Y-100645033D02*
X261943019Y-100525985D01*
X261943019Y-100525985D02*
X261966828Y-100430747D01*
X261966828Y-100430747D02*
X261990638Y-100383128D01*
X261990638Y-100383128D02*
X262014447Y-100359319D01*
X262014447Y-100359319D02*
X262062066Y-100335509D01*
X232847309Y-130274961D02*
X233204452Y-130274961D01*
X233204452Y-130274961D02*
X233275880Y-130298770D01*
X233275880Y-130298770D02*
X233323500Y-130346389D01*
X233323500Y-130346389D02*
X233347309Y-130417818D01*
X233347309Y-130417818D02*
X233347309Y-130465437D01*
X233347309Y-129774961D02*
X233347309Y-130060675D01*
X233347309Y-129917818D02*
X232847309Y-129917818D01*
X232847309Y-129917818D02*
X232918738Y-129965437D01*
X232918738Y-129965437D02*
X232966357Y-130013056D01*
X232966357Y-130013056D02*
X232990166Y-130060675D01*
X232847309Y-129465438D02*
X232847309Y-129417819D01*
X232847309Y-129417819D02*
X232871119Y-129370200D01*
X232871119Y-129370200D02*
X232894928Y-129346390D01*
X232894928Y-129346390D02*
X232942547Y-129322581D01*
X232942547Y-129322581D02*
X233037785Y-129298771D01*
X233037785Y-129298771D02*
X233156833Y-129298771D01*
X233156833Y-129298771D02*
X233252071Y-129322581D01*
X233252071Y-129322581D02*
X233299690Y-129346390D01*
X233299690Y-129346390D02*
X233323500Y-129370200D01*
X233323500Y-129370200D02*
X233347309Y-129417819D01*
X233347309Y-129417819D02*
X233347309Y-129465438D01*
X233347309Y-129465438D02*
X233323500Y-129513057D01*
X233323500Y-129513057D02*
X233299690Y-129536866D01*
X233299690Y-129536866D02*
X233252071Y-129560676D01*
X233252071Y-129560676D02*
X233156833Y-129584485D01*
X233156833Y-129584485D02*
X233037785Y-129584485D01*
X233037785Y-129584485D02*
X232942547Y-129560676D01*
X232942547Y-129560676D02*
X232894928Y-129536866D01*
X232894928Y-129536866D02*
X232871119Y-129513057D01*
X232871119Y-129513057D02*
X232847309Y-129465438D01*
X214900070Y-107559652D02*
X214876261Y-107583462D01*
X214876261Y-107583462D02*
X214804832Y-107607271D01*
X214804832Y-107607271D02*
X214757213Y-107607271D01*
X214757213Y-107607271D02*
X214685785Y-107583462D01*
X214685785Y-107583462D02*
X214638166Y-107535842D01*
X214638166Y-107535842D02*
X214614356Y-107488223D01*
X214614356Y-107488223D02*
X214590547Y-107392985D01*
X214590547Y-107392985D02*
X214590547Y-107321557D01*
X214590547Y-107321557D02*
X214614356Y-107226319D01*
X214614356Y-107226319D02*
X214638166Y-107178700D01*
X214638166Y-107178700D02*
X214685785Y-107131081D01*
X214685785Y-107131081D02*
X214757213Y-107107271D01*
X214757213Y-107107271D02*
X214804832Y-107107271D01*
X214804832Y-107107271D02*
X214876261Y-107131081D01*
X214876261Y-107131081D02*
X214900070Y-107154890D01*
X215090547Y-107154890D02*
X215114356Y-107131081D01*
X215114356Y-107131081D02*
X215161975Y-107107271D01*
X215161975Y-107107271D02*
X215281023Y-107107271D01*
X215281023Y-107107271D02*
X215328642Y-107131081D01*
X215328642Y-107131081D02*
X215352451Y-107154890D01*
X215352451Y-107154890D02*
X215376261Y-107202509D01*
X215376261Y-107202509D02*
X215376261Y-107250128D01*
X215376261Y-107250128D02*
X215352451Y-107321557D01*
X215352451Y-107321557D02*
X215066737Y-107607271D01*
X215066737Y-107607271D02*
X215376261Y-107607271D01*
X215542927Y-107107271D02*
X215852451Y-107107271D01*
X215852451Y-107107271D02*
X215685784Y-107297747D01*
X215685784Y-107297747D02*
X215757213Y-107297747D01*
X215757213Y-107297747D02*
X215804832Y-107321557D01*
X215804832Y-107321557D02*
X215828641Y-107345366D01*
X215828641Y-107345366D02*
X215852451Y-107392985D01*
X215852451Y-107392985D02*
X215852451Y-107512033D01*
X215852451Y-107512033D02*
X215828641Y-107559652D01*
X215828641Y-107559652D02*
X215804832Y-107583462D01*
X215804832Y-107583462D02*
X215757213Y-107607271D01*
X215757213Y-107607271D02*
X215614356Y-107607271D01*
X215614356Y-107607271D02*
X215566737Y-107583462D01*
X215566737Y-107583462D02*
X215542927Y-107559652D01*
X170653171Y-138582109D02*
X170486505Y-138344014D01*
X170367457Y-138582109D02*
X170367457Y-138082109D01*
X170367457Y-138082109D02*
X170557933Y-138082109D01*
X170557933Y-138082109D02*
X170605552Y-138105919D01*
X170605552Y-138105919D02*
X170629362Y-138129728D01*
X170629362Y-138129728D02*
X170653171Y-138177347D01*
X170653171Y-138177347D02*
X170653171Y-138248776D01*
X170653171Y-138248776D02*
X170629362Y-138296395D01*
X170629362Y-138296395D02*
X170605552Y-138320204D01*
X170605552Y-138320204D02*
X170557933Y-138344014D01*
X170557933Y-138344014D02*
X170367457Y-138344014D01*
X171129362Y-138582109D02*
X170843648Y-138582109D01*
X170986505Y-138582109D02*
X170986505Y-138082109D01*
X170986505Y-138082109D02*
X170938886Y-138153538D01*
X170938886Y-138153538D02*
X170891267Y-138201157D01*
X170891267Y-138201157D02*
X170843648Y-138224966D01*
X171605552Y-138582109D02*
X171319838Y-138582109D01*
X171462695Y-138582109D02*
X171462695Y-138082109D01*
X171462695Y-138082109D02*
X171415076Y-138153538D01*
X171415076Y-138153538D02*
X171367457Y-138201157D01*
X171367457Y-138201157D02*
X171319838Y-138224966D01*
X225918109Y-119432552D02*
X226322871Y-119432552D01*
X226322871Y-119432552D02*
X226370490Y-119408742D01*
X226370490Y-119408742D02*
X226394300Y-119384933D01*
X226394300Y-119384933D02*
X226418109Y-119337314D01*
X226418109Y-119337314D02*
X226418109Y-119242076D01*
X226418109Y-119242076D02*
X226394300Y-119194457D01*
X226394300Y-119194457D02*
X226370490Y-119170647D01*
X226370490Y-119170647D02*
X226322871Y-119146838D01*
X226322871Y-119146838D02*
X225918109Y-119146838D01*
X225918109Y-118694456D02*
X225918109Y-118789694D01*
X225918109Y-118789694D02*
X225941919Y-118837313D01*
X225941919Y-118837313D02*
X225965728Y-118861123D01*
X225965728Y-118861123D02*
X226037157Y-118908742D01*
X226037157Y-118908742D02*
X226132395Y-118932551D01*
X226132395Y-118932551D02*
X226322871Y-118932551D01*
X226322871Y-118932551D02*
X226370490Y-118908742D01*
X226370490Y-118908742D02*
X226394300Y-118884932D01*
X226394300Y-118884932D02*
X226418109Y-118837313D01*
X226418109Y-118837313D02*
X226418109Y-118742075D01*
X226418109Y-118742075D02*
X226394300Y-118694456D01*
X226394300Y-118694456D02*
X226370490Y-118670647D01*
X226370490Y-118670647D02*
X226322871Y-118646837D01*
X226322871Y-118646837D02*
X226203823Y-118646837D01*
X226203823Y-118646837D02*
X226156204Y-118670647D01*
X226156204Y-118670647D02*
X226132395Y-118694456D01*
X226132395Y-118694456D02*
X226108585Y-118742075D01*
X226108585Y-118742075D02*
X226108585Y-118837313D01*
X226108585Y-118837313D02*
X226132395Y-118884932D01*
X226132395Y-118884932D02*
X226156204Y-118908742D01*
X226156204Y-118908742D02*
X226203823Y-118932551D01*
X170863309Y-133646028D02*
X170625214Y-133812694D01*
X170863309Y-133931742D02*
X170363309Y-133931742D01*
X170363309Y-133931742D02*
X170363309Y-133741266D01*
X170363309Y-133741266D02*
X170387119Y-133693647D01*
X170387119Y-133693647D02*
X170410928Y-133669837D01*
X170410928Y-133669837D02*
X170458547Y-133646028D01*
X170458547Y-133646028D02*
X170529976Y-133646028D01*
X170529976Y-133646028D02*
X170577595Y-133669837D01*
X170577595Y-133669837D02*
X170601404Y-133693647D01*
X170601404Y-133693647D02*
X170625214Y-133741266D01*
X170625214Y-133741266D02*
X170625214Y-133931742D01*
X170863309Y-133169837D02*
X170863309Y-133455551D01*
X170863309Y-133312694D02*
X170363309Y-133312694D01*
X170363309Y-133312694D02*
X170434738Y-133360313D01*
X170434738Y-133360313D02*
X170482357Y-133407932D01*
X170482357Y-133407932D02*
X170506166Y-133455551D01*
X170363309Y-133003171D02*
X170363309Y-132693647D01*
X170363309Y-132693647D02*
X170553785Y-132860314D01*
X170553785Y-132860314D02*
X170553785Y-132788885D01*
X170553785Y-132788885D02*
X170577595Y-132741266D01*
X170577595Y-132741266D02*
X170601404Y-132717457D01*
X170601404Y-132717457D02*
X170649023Y-132693647D01*
X170649023Y-132693647D02*
X170768071Y-132693647D01*
X170768071Y-132693647D02*
X170815690Y-132717457D01*
X170815690Y-132717457D02*
X170839500Y-132741266D01*
X170839500Y-132741266D02*
X170863309Y-132788885D01*
X170863309Y-132788885D02*
X170863309Y-132931742D01*
X170863309Y-132931742D02*
X170839500Y-132979361D01*
X170839500Y-132979361D02*
X170815690Y-133003171D01*
X255703438Y-124341509D02*
X256036771Y-124841509D01*
X256036771Y-124341509D02*
X255703438Y-124841509D01*
X256489152Y-124841509D02*
X256203438Y-124841509D01*
X256346295Y-124841509D02*
X256346295Y-124341509D01*
X256346295Y-124341509D02*
X256298676Y-124412938D01*
X256298676Y-124412938D02*
X256251057Y-124460557D01*
X256251057Y-124460557D02*
X256203438Y-124484366D01*
X218824180Y-98368528D02*
X218776561Y-98344719D01*
X218776561Y-98344719D02*
X218728942Y-98297100D01*
X218728942Y-98297100D02*
X218657514Y-98225671D01*
X218657514Y-98225671D02*
X218609895Y-98201861D01*
X218609895Y-98201861D02*
X218562276Y-98201861D01*
X218586085Y-98320909D02*
X218538466Y-98297100D01*
X218538466Y-98297100D02*
X218490847Y-98249480D01*
X218490847Y-98249480D02*
X218467038Y-98154242D01*
X218467038Y-98154242D02*
X218467038Y-97987576D01*
X218467038Y-97987576D02*
X218490847Y-97892338D01*
X218490847Y-97892338D02*
X218538466Y-97844719D01*
X218538466Y-97844719D02*
X218586085Y-97820909D01*
X218586085Y-97820909D02*
X218681323Y-97820909D01*
X218681323Y-97820909D02*
X218728942Y-97844719D01*
X218728942Y-97844719D02*
X218776561Y-97892338D01*
X218776561Y-97892338D02*
X218800371Y-97987576D01*
X218800371Y-97987576D02*
X218800371Y-98154242D01*
X218800371Y-98154242D02*
X218776561Y-98249480D01*
X218776561Y-98249480D02*
X218728942Y-98297100D01*
X218728942Y-98297100D02*
X218681323Y-98320909D01*
X218681323Y-98320909D02*
X218586085Y-98320909D01*
X218990848Y-97868528D02*
X219014657Y-97844719D01*
X219014657Y-97844719D02*
X219062276Y-97820909D01*
X219062276Y-97820909D02*
X219181324Y-97820909D01*
X219181324Y-97820909D02*
X219228943Y-97844719D01*
X219228943Y-97844719D02*
X219252752Y-97868528D01*
X219252752Y-97868528D02*
X219276562Y-97916147D01*
X219276562Y-97916147D02*
X219276562Y-97963766D01*
X219276562Y-97963766D02*
X219252752Y-98035195D01*
X219252752Y-98035195D02*
X218967038Y-98320909D01*
X218967038Y-98320909D02*
X219276562Y-98320909D01*
X220140900Y-119894265D02*
X220164709Y-119822837D01*
X220164709Y-119822837D02*
X220164709Y-119703789D01*
X220164709Y-119703789D02*
X220140900Y-119656170D01*
X220140900Y-119656170D02*
X220117090Y-119632361D01*
X220117090Y-119632361D02*
X220069471Y-119608551D01*
X220069471Y-119608551D02*
X220021852Y-119608551D01*
X220021852Y-119608551D02*
X219974233Y-119632361D01*
X219974233Y-119632361D02*
X219950423Y-119656170D01*
X219950423Y-119656170D02*
X219926614Y-119703789D01*
X219926614Y-119703789D02*
X219902804Y-119799027D01*
X219902804Y-119799027D02*
X219878995Y-119846646D01*
X219878995Y-119846646D02*
X219855185Y-119870456D01*
X219855185Y-119870456D02*
X219807566Y-119894265D01*
X219807566Y-119894265D02*
X219759947Y-119894265D01*
X219759947Y-119894265D02*
X219712328Y-119870456D01*
X219712328Y-119870456D02*
X219688519Y-119846646D01*
X219688519Y-119846646D02*
X219664709Y-119799027D01*
X219664709Y-119799027D02*
X219664709Y-119679980D01*
X219664709Y-119679980D02*
X219688519Y-119608551D01*
X219664709Y-119441885D02*
X220164709Y-119322837D01*
X220164709Y-119322837D02*
X219807566Y-119227599D01*
X219807566Y-119227599D02*
X220164709Y-119132361D01*
X220164709Y-119132361D02*
X219664709Y-119013314D01*
X219712328Y-118846646D02*
X219688519Y-118822837D01*
X219688519Y-118822837D02*
X219664709Y-118775218D01*
X219664709Y-118775218D02*
X219664709Y-118656170D01*
X219664709Y-118656170D02*
X219688519Y-118608551D01*
X219688519Y-118608551D02*
X219712328Y-118584742D01*
X219712328Y-118584742D02*
X219759947Y-118560932D01*
X219759947Y-118560932D02*
X219807566Y-118560932D01*
X219807566Y-118560932D02*
X219878995Y-118584742D01*
X219878995Y-118584742D02*
X220164709Y-118870456D01*
X220164709Y-118870456D02*
X220164709Y-118560932D01*
X250300371Y-100886309D02*
X250062276Y-100886309D01*
X250062276Y-100886309D02*
X250062276Y-100386309D01*
X250728943Y-100886309D02*
X250443229Y-100886309D01*
X250586086Y-100886309D02*
X250586086Y-100386309D01*
X250586086Y-100386309D02*
X250538467Y-100457738D01*
X250538467Y-100457738D02*
X250490848Y-100505357D01*
X250490848Y-100505357D02*
X250443229Y-100529166D01*
X251205133Y-100886309D02*
X250919419Y-100886309D01*
X251062276Y-100886309D02*
X251062276Y-100386309D01*
X251062276Y-100386309D02*
X251014657Y-100457738D01*
X251014657Y-100457738D02*
X250967038Y-100505357D01*
X250967038Y-100505357D02*
X250919419Y-100529166D01*
X191788266Y-149095509D02*
X191550171Y-149095509D01*
X191550171Y-149095509D02*
X191550171Y-148595509D01*
X192169219Y-148762176D02*
X192169219Y-149095509D01*
X192050171Y-148571700D02*
X191931124Y-148928842D01*
X191931124Y-148928842D02*
X192240647Y-148928842D01*
X169117178Y-125108977D02*
X168879409Y-125096516D01*
X168879409Y-125096516D02*
X168905577Y-124597201D01*
X169545162Y-125131407D02*
X169259840Y-125116453D01*
X169402501Y-125123930D02*
X169428669Y-124624615D01*
X169428669Y-124624615D02*
X169377377Y-124693454D01*
X169377377Y-124693454D02*
X169327331Y-124738515D01*
X169327331Y-124738515D02*
X169278531Y-124759800D01*
X169737768Y-124640814D02*
X170046868Y-124657014D01*
X170046868Y-124657014D02*
X169870461Y-124838506D01*
X169870461Y-124838506D02*
X169941791Y-124842244D01*
X169941791Y-124842244D02*
X169988099Y-124868514D01*
X169988099Y-124868514D02*
X170010630Y-124893537D01*
X170010630Y-124893537D02*
X170031915Y-124942336D01*
X170031915Y-124942336D02*
X170025684Y-125061221D01*
X170025684Y-125061221D02*
X169999415Y-125107529D01*
X169999415Y-125107529D02*
X169974392Y-125130059D01*
X169974392Y-125130059D02*
X169925592Y-125151344D01*
X169925592Y-125151344D02*
X169782931Y-125143868D01*
X169782931Y-125143868D02*
X169736623Y-125117598D01*
X169736623Y-125117598D02*
X169714092Y-125092575D01*
X231213709Y-95542847D02*
X230713709Y-95542847D01*
X230713709Y-95542847D02*
X230713709Y-95423799D01*
X230713709Y-95423799D02*
X230737519Y-95352371D01*
X230737519Y-95352371D02*
X230785138Y-95304752D01*
X230785138Y-95304752D02*
X230832757Y-95280942D01*
X230832757Y-95280942D02*
X230927995Y-95257133D01*
X230927995Y-95257133D02*
X230999423Y-95257133D01*
X230999423Y-95257133D02*
X231094661Y-95280942D01*
X231094661Y-95280942D02*
X231142280Y-95304752D01*
X231142280Y-95304752D02*
X231189900Y-95352371D01*
X231189900Y-95352371D02*
X231213709Y-95423799D01*
X231213709Y-95423799D02*
X231213709Y-95542847D01*
X230713709Y-95090466D02*
X230713709Y-94757133D01*
X230713709Y-94757133D02*
X231213709Y-94971418D01*
X225073728Y-94647619D02*
X225049919Y-94695238D01*
X225049919Y-94695238D02*
X225002300Y-94742857D01*
X225002300Y-94742857D02*
X224930871Y-94814285D01*
X224930871Y-94814285D02*
X224907061Y-94861904D01*
X224907061Y-94861904D02*
X224907061Y-94909523D01*
X225026109Y-94885714D02*
X225002300Y-94933333D01*
X225002300Y-94933333D02*
X224954680Y-94980952D01*
X224954680Y-94980952D02*
X224859442Y-95004761D01*
X224859442Y-95004761D02*
X224692776Y-95004761D01*
X224692776Y-95004761D02*
X224597538Y-94980952D01*
X224597538Y-94980952D02*
X224549919Y-94933333D01*
X224549919Y-94933333D02*
X224526109Y-94885714D01*
X224526109Y-94885714D02*
X224526109Y-94790476D01*
X224526109Y-94790476D02*
X224549919Y-94742857D01*
X224549919Y-94742857D02*
X224597538Y-94695238D01*
X224597538Y-94695238D02*
X224692776Y-94671428D01*
X224692776Y-94671428D02*
X224859442Y-94671428D01*
X224859442Y-94671428D02*
X224954680Y-94695238D01*
X224954680Y-94695238D02*
X225002300Y-94742857D01*
X225002300Y-94742857D02*
X225026109Y-94790476D01*
X225026109Y-94790476D02*
X225026109Y-94885714D01*
X225026109Y-94195237D02*
X225026109Y-94480951D01*
X225026109Y-94338094D02*
X224526109Y-94338094D01*
X224526109Y-94338094D02*
X224597538Y-94385713D01*
X224597538Y-94385713D02*
X224645157Y-94433332D01*
X224645157Y-94433332D02*
X224668966Y-94480951D01*
X239519542Y-110365490D02*
X239519542Y-110865490D01*
X239519542Y-110865490D02*
X239400494Y-110865490D01*
X239400494Y-110865490D02*
X239329066Y-110841680D01*
X239329066Y-110841680D02*
X239281447Y-110794061D01*
X239281447Y-110794061D02*
X239257637Y-110746442D01*
X239257637Y-110746442D02*
X239233828Y-110651204D01*
X239233828Y-110651204D02*
X239233828Y-110579776D01*
X239233828Y-110579776D02*
X239257637Y-110484538D01*
X239257637Y-110484538D02*
X239281447Y-110436919D01*
X239281447Y-110436919D02*
X239329066Y-110389300D01*
X239329066Y-110389300D02*
X239400494Y-110365490D01*
X239400494Y-110365490D02*
X239519542Y-110365490D01*
X238757637Y-110365490D02*
X239043351Y-110365490D01*
X238900494Y-110365490D02*
X238900494Y-110865490D01*
X238900494Y-110865490D02*
X238948113Y-110794061D01*
X238948113Y-110794061D02*
X238995732Y-110746442D01*
X238995732Y-110746442D02*
X239043351Y-110722633D01*
X238329066Y-110698823D02*
X238329066Y-110365490D01*
X238448114Y-110889300D02*
X238567161Y-110532157D01*
X238567161Y-110532157D02*
X238257638Y-110532157D01*
X220016666Y-141526109D02*
X219778571Y-141526109D01*
X219778571Y-141526109D02*
X219778571Y-141026109D01*
X220397619Y-141026109D02*
X220302381Y-141026109D01*
X220302381Y-141026109D02*
X220254762Y-141049919D01*
X220254762Y-141049919D02*
X220230952Y-141073728D01*
X220230952Y-141073728D02*
X220183333Y-141145157D01*
X220183333Y-141145157D02*
X220159524Y-141240395D01*
X220159524Y-141240395D02*
X220159524Y-141430871D01*
X220159524Y-141430871D02*
X220183333Y-141478490D01*
X220183333Y-141478490D02*
X220207143Y-141502300D01*
X220207143Y-141502300D02*
X220254762Y-141526109D01*
X220254762Y-141526109D02*
X220350000Y-141526109D01*
X220350000Y-141526109D02*
X220397619Y-141502300D01*
X220397619Y-141502300D02*
X220421428Y-141478490D01*
X220421428Y-141478490D02*
X220445238Y-141430871D01*
X220445238Y-141430871D02*
X220445238Y-141311823D01*
X220445238Y-141311823D02*
X220421428Y-141264204D01*
X220421428Y-141264204D02*
X220397619Y-141240395D01*
X220397619Y-141240395D02*
X220350000Y-141216585D01*
X220350000Y-141216585D02*
X220254762Y-141216585D01*
X220254762Y-141216585D02*
X220207143Y-141240395D01*
X220207143Y-141240395D02*
X220183333Y-141264204D01*
X220183333Y-141264204D02*
X220159524Y-141311823D01*
X247016638Y-115959509D02*
X247349971Y-116459509D01*
X247349971Y-115959509D02*
X247016638Y-116459509D01*
X247516638Y-116007128D02*
X247540447Y-115983319D01*
X247540447Y-115983319D02*
X247588066Y-115959509D01*
X247588066Y-115959509D02*
X247707114Y-115959509D01*
X247707114Y-115959509D02*
X247754733Y-115983319D01*
X247754733Y-115983319D02*
X247778542Y-116007128D01*
X247778542Y-116007128D02*
X247802352Y-116054747D01*
X247802352Y-116054747D02*
X247802352Y-116102366D01*
X247802352Y-116102366D02*
X247778542Y-116173795D01*
X247778542Y-116173795D02*
X247492828Y-116459509D01*
X247492828Y-116459509D02*
X247802352Y-116459509D01*
X217861309Y-108381752D02*
X218266071Y-108381752D01*
X218266071Y-108381752D02*
X218313690Y-108357942D01*
X218313690Y-108357942D02*
X218337500Y-108334133D01*
X218337500Y-108334133D02*
X218361309Y-108286514D01*
X218361309Y-108286514D02*
X218361309Y-108191276D01*
X218361309Y-108191276D02*
X218337500Y-108143657D01*
X218337500Y-108143657D02*
X218313690Y-108119847D01*
X218313690Y-108119847D02*
X218266071Y-108096038D01*
X218266071Y-108096038D02*
X217861309Y-108096038D01*
X218075595Y-107786513D02*
X218051785Y-107834132D01*
X218051785Y-107834132D02*
X218027976Y-107857942D01*
X218027976Y-107857942D02*
X217980357Y-107881751D01*
X217980357Y-107881751D02*
X217956547Y-107881751D01*
X217956547Y-107881751D02*
X217908928Y-107857942D01*
X217908928Y-107857942D02*
X217885119Y-107834132D01*
X217885119Y-107834132D02*
X217861309Y-107786513D01*
X217861309Y-107786513D02*
X217861309Y-107691275D01*
X217861309Y-107691275D02*
X217885119Y-107643656D01*
X217885119Y-107643656D02*
X217908928Y-107619847D01*
X217908928Y-107619847D02*
X217956547Y-107596037D01*
X217956547Y-107596037D02*
X217980357Y-107596037D01*
X217980357Y-107596037D02*
X218027976Y-107619847D01*
X218027976Y-107619847D02*
X218051785Y-107643656D01*
X218051785Y-107643656D02*
X218075595Y-107691275D01*
X218075595Y-107691275D02*
X218075595Y-107786513D01*
X218075595Y-107786513D02*
X218099404Y-107834132D01*
X218099404Y-107834132D02*
X218123214Y-107857942D01*
X218123214Y-107857942D02*
X218170833Y-107881751D01*
X218170833Y-107881751D02*
X218266071Y-107881751D01*
X218266071Y-107881751D02*
X218313690Y-107857942D01*
X218313690Y-107857942D02*
X218337500Y-107834132D01*
X218337500Y-107834132D02*
X218361309Y-107786513D01*
X218361309Y-107786513D02*
X218361309Y-107691275D01*
X218361309Y-107691275D02*
X218337500Y-107643656D01*
X218337500Y-107643656D02*
X218313690Y-107619847D01*
X218313690Y-107619847D02*
X218266071Y-107596037D01*
X218266071Y-107596037D02*
X218170833Y-107596037D01*
X218170833Y-107596037D02*
X218123214Y-107619847D01*
X218123214Y-107619847D02*
X218099404Y-107643656D01*
X218099404Y-107643656D02*
X218075595Y-107691275D01*
D10*
%TO.C,R12*%
X271314343Y-134556789D02*
X271007061Y-134556789D01*
X271314343Y-135316789D02*
X271007061Y-135316789D01*
%TO.C,L18*%
X273146617Y-107694002D02*
X275146617Y-107694002D01*
X273146617Y-109694002D02*
X273146617Y-107694002D01*
X275146617Y-107694002D02*
X275146617Y-109694002D01*
X275146617Y-109694002D02*
X273146617Y-109694002D01*
X272774351Y-110218002D02*
G75*
G02*
X272470883Y-110218002I-151734J0D01*
G01*
X272470883Y-110218002D02*
G75*
G02*
X272774351Y-110218002I151734J0D01*
G01*
D12*
%TO.C,REF\u002A\u002A*%
X203719260Y-97687070D02*
X203719260Y-100389521D01*
X198319885Y-100389521D01*
X196469000Y-98564248D01*
X196469000Y-95377000D01*
X201436822Y-95377000D01*
X203719260Y-97687070D01*
D10*
%TO.C,C13*%
X231979800Y-122562252D02*
X231979800Y-122039748D01*
X233449800Y-122562252D02*
X233449800Y-122039748D01*
%TO.C,R29*%
X267742400Y-128017241D02*
X267742400Y-127709959D01*
X268502400Y-128017241D02*
X268502400Y-127709959D01*
%TO.C,R10*%
X177951159Y-126823200D02*
X178258441Y-126823200D01*
X177951159Y-127583200D02*
X178258441Y-127583200D01*
D11*
%TO.C,S1*%
X209017000Y-109500000D02*
X209017000Y-109500000D01*
X209117000Y-109500000D02*
X209117000Y-109500000D01*
X209017000Y-109500000D02*
G75*
G02*
X209117000Y-109500000I50000J0D01*
G01*
X209117000Y-109500000D02*
G75*
G02*
X209017000Y-109500000I-50000J0D01*
G01*
D10*
%TO.C,C10*%
X280012993Y-137487794D02*
X279797321Y-137487794D01*
X280012993Y-138207794D02*
X279797321Y-138207794D01*
%TO.C,R17*%
X230734841Y-101728000D02*
X230427559Y-101728000D01*
X230734841Y-102488000D02*
X230427559Y-102488000D01*
%TO.C,L3*%
X195233657Y-148844400D02*
X197233657Y-148844400D01*
X195233657Y-150844400D02*
X195233657Y-148844400D01*
X197233657Y-148844400D02*
X197233657Y-150844400D01*
X197233657Y-150844400D02*
X195233657Y-150844400D01*
X194861391Y-151368400D02*
G75*
G02*
X194557923Y-151368400I-151734J0D01*
G01*
X194557923Y-151368400D02*
G75*
G02*
X194861391Y-151368400I151734J0D01*
G01*
%TO.C,R9*%
X225050000Y-87656359D02*
X225050000Y-87963641D01*
X225810000Y-87656359D02*
X225810000Y-87963641D01*
%TO.C,J3*%
X206633800Y-99398000D02*
X206633800Y-99848000D01*
X206633800Y-103368000D02*
X206633800Y-103818000D01*
X206633800Y-103818000D02*
X207583800Y-103818000D01*
X213903800Y-103818000D02*
X213903800Y-105308000D01*
X214853800Y-99398000D02*
X206633800Y-99398000D01*
X214853800Y-99848000D02*
X214853800Y-99398000D01*
X214853800Y-103368000D02*
X214853800Y-103818000D01*
X214853800Y-103818000D02*
X213903800Y-103818000D01*
%TO.C,C11*%
X277272636Y-137562000D02*
X277056964Y-137562000D01*
X277272636Y-138282000D02*
X277056964Y-138282000D01*
%TO.C,U3*%
X216734700Y-96929600D02*
X216734700Y-95629600D01*
X218714700Y-96929600D02*
X218714700Y-95879600D01*
X218994700Y-95509600D02*
X218714700Y-95509600D01*
X218714700Y-95229600D01*
X218994700Y-95509600D01*
G36*
X218994700Y-95509600D02*
G01*
X218714700Y-95509600D01*
X218714700Y-95229600D01*
X218994700Y-95509600D01*
G37*
%TO.C,L8*%
X243457313Y-118742540D02*
X245457313Y-118742540D01*
X243457313Y-120742540D02*
X243457313Y-118742540D01*
X245457313Y-118742540D02*
X245457313Y-120742540D01*
X245457313Y-120742540D02*
X243457313Y-120742540D01*
X243085047Y-121266540D02*
G75*
G02*
X242781579Y-121266540I-151734J0D01*
G01*
X242781579Y-121266540D02*
G75*
G02*
X243085047Y-121266540I151734J0D01*
G01*
%TO.C,C8*%
X164862164Y-136810000D02*
X165077836Y-136810000D01*
X164862164Y-137530000D02*
X165077836Y-137530000D01*
%TO.C,J8*%
X252397200Y-132835200D02*
X252397200Y-131775200D01*
X253457200Y-132835200D02*
X252397200Y-132835200D01*
X254457200Y-130715200D02*
X256517200Y-130715200D01*
X254457200Y-132835200D02*
X254457200Y-130715200D01*
X254457200Y-132835200D02*
X256517200Y-132835200D01*
X256517200Y-132835200D02*
X256517200Y-130715200D01*
%TO.C,L12*%
X229953452Y-121673600D02*
X229430948Y-121673600D01*
X229953452Y-123893600D02*
X229430948Y-123893600D01*
D13*
%TO.C,U1*%
X205052000Y-113300000D02*
X205052000Y-113600000D01*
X205052000Y-113300000D02*
X205852000Y-113300000D01*
X205052000Y-115900000D02*
X205052000Y-116200000D01*
X205052000Y-116200000D02*
X205852000Y-116200000D01*
X208452000Y-113300000D02*
X207652000Y-113300000D01*
X208452000Y-113600000D02*
X208452000Y-113300000D01*
X208452000Y-116200000D02*
X207652000Y-116200000D01*
X208452000Y-116200000D02*
X208452000Y-115900000D01*
X209352000Y-115500000D02*
G75*
G02*
X208952000Y-115500000I-200000J0D01*
G01*
X208952000Y-115500000D02*
G75*
G02*
X209352000Y-115500000I200000J0D01*
G01*
D10*
%TO.C,C18*%
X230246600Y-105317236D02*
X230246600Y-105101564D01*
X230966600Y-105317236D02*
X230966600Y-105101564D01*
%TO.C,D4*%
X166126000Y-135340800D02*
X166126000Y-136540800D01*
X168086000Y-135340800D02*
X166126000Y-135340800D01*
X168086000Y-136540800D02*
X166126000Y-136540800D01*
%TO.C,R22*%
X228497159Y-106909600D02*
X228804441Y-106909600D01*
X228497159Y-107669600D02*
X228804441Y-107669600D01*
D13*
%TO.C,U2*%
X200389600Y-114577200D02*
X200389600Y-114877200D01*
X200389600Y-114577200D02*
X201189600Y-114577200D01*
X200389600Y-117177200D02*
X200389600Y-117477200D01*
X200389600Y-117477200D02*
X201189600Y-117477200D01*
X203789600Y-114577200D02*
X202989600Y-114577200D01*
X203789600Y-114877200D02*
X203789600Y-114577200D01*
X203789600Y-117477200D02*
X202989600Y-117477200D01*
X203789600Y-117477200D02*
X203789600Y-117177200D01*
X204689600Y-116777200D02*
G75*
G02*
X204289600Y-116777200I-200000J0D01*
G01*
X204289600Y-116777200D02*
G75*
G02*
X204689600Y-116777200I200000J0D01*
G01*
D10*
%TO.C,R16*%
X280033759Y-135002000D02*
X280341041Y-135002000D01*
X280033759Y-135762000D02*
X280341041Y-135762000D01*
%TO.C,C1*%
X201161764Y-112873200D02*
X201377436Y-112873200D01*
X201161764Y-113593200D02*
X201377436Y-113593200D01*
%TO.C,C5*%
X207124230Y-111401623D02*
X206908558Y-111401623D01*
X207124230Y-112121623D02*
X206908558Y-112121623D01*
%TO.C,C25*%
X215753836Y-108190000D02*
X215538164Y-108190000D01*
X215753836Y-108910000D02*
X215538164Y-108910000D01*
%TO.C,Q3*%
X168074100Y-131881400D02*
X167424100Y-131881400D01*
X168074100Y-131881400D02*
X168724100Y-131881400D01*
X168074100Y-135001400D02*
X167424100Y-135001400D01*
X168074100Y-135001400D02*
X168724100Y-135001400D01*
X169476600Y-135281400D02*
X168996600Y-135281400D01*
X169236600Y-134951400D01*
X169476600Y-135281400D01*
G36*
X169476600Y-135281400D02*
G01*
X168996600Y-135281400D01*
X169236600Y-134951400D01*
X169476600Y-135281400D01*
G37*
%TO.C,C12*%
X231729000Y-95581600D02*
X231729000Y-99491600D01*
X233599000Y-95581600D02*
X231729000Y-95581600D01*
X233599000Y-99491600D02*
X233599000Y-95581600D01*
%TO.C,R8*%
X210760000Y-87636359D02*
X210760000Y-87943641D01*
X211520000Y-87636359D02*
X211520000Y-87943641D01*
%TO.C,L15*%
X258633657Y-111184400D02*
X260633657Y-111184400D01*
X258633657Y-113184400D02*
X258633657Y-111184400D01*
X260633657Y-111184400D02*
X260633657Y-113184400D01*
X260633657Y-113184400D02*
X258633657Y-113184400D01*
X258261391Y-113708400D02*
G75*
G02*
X257957923Y-113708400I-151734J0D01*
G01*
X257957923Y-113708400D02*
G75*
G02*
X258261391Y-113708400I151734J0D01*
G01*
%TO.C,R30*%
X266726400Y-127709959D02*
X266726400Y-128017241D01*
X267486400Y-127709959D02*
X267486400Y-128017241D01*
%TO.C,L9*%
X167282703Y-111030694D02*
X167387368Y-109033441D01*
X167387368Y-109033441D02*
X169384621Y-109138106D01*
X169279956Y-111135359D02*
X167282703Y-111030694D01*
X169384621Y-109138106D02*
X169279956Y-111135359D01*
X166883725Y-111526551D02*
G75*
G02*
X166580257Y-111526551I-151734J0D01*
G01*
X166580257Y-111526551D02*
G75*
G02*
X166883725Y-111526551I151734J0D01*
G01*
%TO.C,C16*%
X217824164Y-104516600D02*
X218039836Y-104516600D01*
X217824164Y-105236600D02*
X218039836Y-105236600D01*
%TO.C,C6*%
X170872164Y-135990000D02*
X171087836Y-135990000D01*
X170872164Y-136710000D02*
X171087836Y-136710000D01*
%TO.C,U5*%
X213107500Y-96050000D02*
X213107500Y-94750000D01*
X215087500Y-96050000D02*
X215087500Y-95000000D01*
X215367500Y-94630000D02*
X215087500Y-94630000D01*
X215087500Y-94350000D01*
X215367500Y-94630000D01*
G36*
X215367500Y-94630000D02*
G01*
X215087500Y-94630000D01*
X215087500Y-94350000D01*
X215367500Y-94630000D01*
G37*
%TO.C,D9*%
X227775400Y-100511200D02*
X227775400Y-97251200D01*
X227775400Y-100511200D02*
X229475400Y-100511200D01*
X229475400Y-100511200D02*
X229475400Y-97251200D01*
%TO.C,C21*%
X218446236Y-102789400D02*
X218230564Y-102789400D01*
X218446236Y-103509400D02*
X218230564Y-103509400D01*
%TO.C,L5*%
X185282703Y-111030694D02*
X185387368Y-109033441D01*
X185387368Y-109033441D02*
X187384621Y-109138106D01*
X187279956Y-111135359D02*
X185282703Y-111030694D01*
X187384621Y-109138106D02*
X187279956Y-111135359D01*
X184883725Y-111526551D02*
G75*
G02*
X184580257Y-111526551I-151734J0D01*
G01*
X184580257Y-111526551D02*
G75*
G02*
X184883725Y-111526551I151734J0D01*
G01*
%TO.C,L14*%
X258633657Y-119984400D02*
X260633657Y-119984400D01*
X258633657Y-121984400D02*
X258633657Y-119984400D01*
X260633657Y-119984400D02*
X260633657Y-121984400D01*
X260633657Y-121984400D02*
X258633657Y-121984400D01*
X258261391Y-122508400D02*
G75*
G02*
X257957923Y-122508400I-151734J0D01*
G01*
X257957923Y-122508400D02*
G75*
G02*
X258261391Y-122508400I151734J0D01*
G01*
%TO.C,D2*%
X278605200Y-136026257D02*
X278605200Y-137226257D01*
X280565200Y-136026257D02*
X278605200Y-136026257D01*
X280565200Y-137226257D02*
X278605200Y-137226257D01*
%TO.C,R3*%
X222244119Y-99439463D02*
X221936837Y-99439463D01*
X222244119Y-100199463D02*
X221936837Y-100199463D01*
%TO.C,C15*%
X227554200Y-101466764D02*
X227554200Y-101682436D01*
X228274200Y-101466764D02*
X228274200Y-101682436D01*
%TO.C,C22*%
X225985400Y-122776348D02*
X225985400Y-123298852D01*
X227455400Y-122776348D02*
X227455400Y-123298852D01*
%TO.C,R21*%
X191463959Y-107976400D02*
X191771241Y-107976400D01*
X191463959Y-108736400D02*
X191771241Y-108736400D01*
D14*
%TO.C,SW11*%
X164618494Y-101487048D02*
X165819994Y-103568107D01*
X165823360Y-103571937D02*
X171980800Y-100016937D01*
X171980800Y-100016937D02*
X170775934Y-97932048D01*
D10*
%TO.C,R15*%
X163780441Y-134214600D02*
X163473159Y-134214600D01*
X163780441Y-134974600D02*
X163473159Y-134974600D01*
%TO.C,D3*%
X164754000Y-133183400D02*
X164754000Y-135143400D01*
X164754000Y-135143400D02*
X165954000Y-135143400D01*
X165954000Y-133183400D02*
X165954000Y-135143400D01*
D14*
%TO.C,SW15*%
X264988246Y-100017937D02*
X271145686Y-103572937D01*
X266191380Y-97932048D02*
X264989880Y-100013107D01*
X271145686Y-103572937D02*
X272348820Y-101487048D01*
D10*
%TO.C,D6*%
X274698722Y-138552065D02*
X276658722Y-138552065D01*
X274698722Y-139752065D02*
X276658722Y-139752065D01*
X276658722Y-139752065D02*
X276658722Y-138552065D01*
D14*
%TO.C,SW3*%
X211496157Y-120766400D02*
X211496157Y-116266400D01*
X212866157Y-121066400D02*
X215226157Y-121066400D01*
X215226157Y-115966400D02*
X212866157Y-115966400D01*
X216596157Y-120766400D02*
X216596157Y-116266400D01*
D15*
X216021157Y-114266400D02*
G75*
G02*
X215821157Y-114266400I-100000J0D01*
G01*
X215821157Y-114266400D02*
G75*
G02*
X216021157Y-114266400I100000J0D01*
G01*
D10*
%TO.C,C19*%
X218446236Y-101798800D02*
X218230564Y-101798800D01*
X218446236Y-102518800D02*
X218230564Y-102518800D01*
%TO.C,C2*%
X197605764Y-116480000D02*
X197821436Y-116480000D01*
X197605764Y-117200000D02*
X197821436Y-117200000D01*
%TO.C,Q4*%
X268278300Y-137767300D02*
X268278300Y-137117300D01*
X268278300Y-137767300D02*
X268278300Y-138417300D01*
X271398300Y-137767300D02*
X271398300Y-137117300D01*
X271398300Y-137767300D02*
X271398300Y-138417300D01*
X271678300Y-136844800D02*
X271348300Y-136604800D01*
X271678300Y-136364800D01*
X271678300Y-136844800D01*
G36*
X271678300Y-136844800D02*
G01*
X271348300Y-136604800D01*
X271678300Y-136364800D01*
X271678300Y-136844800D01*
G37*
%TO.C,R1*%
X223892423Y-99440075D02*
X224199705Y-99440075D01*
X223892423Y-100200075D02*
X224199705Y-100200075D01*
%TO.C,R6*%
X221147956Y-94930868D02*
X221147956Y-95238150D01*
X221907956Y-94930868D02*
X221907956Y-95238150D01*
%TO.C,R31*%
X215215200Y-111888241D02*
X215215200Y-111580959D01*
X215975200Y-111888241D02*
X215975200Y-111580959D01*
%TO.C,X5*%
X261985800Y-109601000D02*
G75*
G02*
X260085800Y-109601000I-950000J0D01*
G01*
X260085800Y-109601000D02*
G75*
G02*
X261985800Y-109601000I950000J0D01*
G01*
%TO.C,D11*%
X211278400Y-136570900D02*
X212688400Y-136570900D01*
X211288400Y-138890900D02*
X212688400Y-138890900D01*
X210908400Y-136620900D02*
X210668400Y-136290900D01*
X211148400Y-136290900D01*
X210908400Y-136620900D01*
G36*
X210908400Y-136620900D02*
G01*
X210668400Y-136290900D01*
X211148400Y-136290900D01*
X210908400Y-136620900D01*
G37*
%TO.C,U7*%
X219874800Y-103798100D02*
X220524800Y-103798100D01*
X219874800Y-104448100D02*
X219874800Y-103798100D01*
X219874800Y-110368100D02*
X219874800Y-110718100D01*
X220524800Y-111018100D02*
X220114800Y-111018100D01*
X227094800Y-103798100D02*
X226444800Y-103798100D01*
X227094800Y-104448100D02*
X227094800Y-103798100D01*
X227094800Y-110368100D02*
X227094800Y-111018100D01*
X227094800Y-111018100D02*
X226444800Y-111018100D01*
X219874800Y-111018100D02*
X219544800Y-111258100D01*
X219544800Y-110778100D01*
X219874800Y-111018100D01*
G36*
X219874800Y-111018100D02*
G01*
X219544800Y-111258100D01*
X219544800Y-110778100D01*
X219874800Y-111018100D01*
G37*
%TO.C,L17*%
X273146617Y-116494002D02*
X275146617Y-116494002D01*
X273146617Y-118494002D02*
X273146617Y-116494002D01*
X275146617Y-116494002D02*
X275146617Y-118494002D01*
X275146617Y-118494002D02*
X273146617Y-118494002D01*
X272774351Y-119018002D02*
G75*
G02*
X272470883Y-119018002I-151734J0D01*
G01*
X272470883Y-119018002D02*
G75*
G02*
X272774351Y-119018002I151734J0D01*
G01*
%TO.C,X4*%
X256372400Y-111302800D02*
G75*
G02*
X254472400Y-111302800I-950000J0D01*
G01*
X254472400Y-111302800D02*
G75*
G02*
X256372400Y-111302800I950000J0D01*
G01*
%TO.C,R4*%
X223149539Y-95178282D02*
X223456821Y-95178282D01*
X223149539Y-95938282D02*
X223456821Y-95938282D01*
%TO.C,X3*%
X239252800Y-121996200D02*
G75*
G02*
X237352800Y-121996200I-950000J0D01*
G01*
X237352800Y-121996200D02*
G75*
G02*
X239252800Y-121996200I950000J0D01*
G01*
%TO.C,L16*%
X185282703Y-124030694D02*
X185387368Y-122033441D01*
X185387368Y-122033441D02*
X187384621Y-122138106D01*
X187279956Y-124135359D02*
X185282703Y-124030694D01*
X187384621Y-122138106D02*
X187279956Y-124135359D01*
X184883725Y-124526551D02*
G75*
G02*
X184580257Y-124526551I-151734J0D01*
G01*
X184580257Y-124526551D02*
G75*
G02*
X184883725Y-124526551I151734J0D01*
G01*
%TO.C,L1*%
X195233657Y-142144400D02*
X197233657Y-142144400D01*
X195233657Y-144144400D02*
X195233657Y-142144400D01*
X197233657Y-142144400D02*
X197233657Y-144144400D01*
X197233657Y-144144400D02*
X195233657Y-144144400D01*
X194861391Y-144668400D02*
G75*
G02*
X194557923Y-144668400I-151734J0D01*
G01*
X194557923Y-144668400D02*
G75*
G02*
X194861391Y-144668400I151734J0D01*
G01*
%TO.C,D1*%
X163993600Y-135340800D02*
X165953600Y-135340800D01*
X163993600Y-136540800D02*
X165953600Y-136540800D01*
X165953600Y-136540800D02*
X165953600Y-135340800D01*
%TO.C,D13*%
X183904400Y-132602000D02*
X183904400Y-131192000D01*
X186224400Y-132592000D02*
X186224400Y-131192000D01*
X183954400Y-132972000D02*
X183624400Y-133212000D01*
X183624400Y-132732000D01*
X183954400Y-132972000D01*
G36*
X183954400Y-132972000D02*
G01*
X183624400Y-133212000D01*
X183624400Y-132732000D01*
X183954400Y-132972000D01*
G37*
%TO.C,C24*%
X219451600Y-101796964D02*
X219451600Y-102012636D01*
X220171600Y-101796964D02*
X220171600Y-102012636D01*
%TO.C,J7*%
X172895200Y-137407200D02*
X172895200Y-136347200D01*
X173955200Y-137407200D02*
X172895200Y-137407200D01*
X174955200Y-135287200D02*
X177015200Y-135287200D01*
X174955200Y-137407200D02*
X174955200Y-135287200D01*
X174955200Y-137407200D02*
X177015200Y-137407200D01*
X177015200Y-137407200D02*
X177015200Y-135287200D01*
%TO.C,R2*%
X220319283Y-99435351D02*
X220012001Y-99435351D01*
X220319283Y-100195351D02*
X220012001Y-100195351D01*
%TO.C,D15*%
X240277800Y-104935800D02*
X238877800Y-104935800D01*
X240287800Y-107255800D02*
X238877800Y-107255800D01*
X240897800Y-107535800D02*
X240417800Y-107535800D01*
X240657800Y-107205800D01*
X240897800Y-107535800D01*
G36*
X240897800Y-107535800D02*
G01*
X240417800Y-107535800D01*
X240657800Y-107205800D01*
X240897800Y-107535800D01*
G37*
%TO.C,L2*%
X198583657Y-145494400D02*
X200583657Y-145494400D01*
X198583657Y-147494400D02*
X198583657Y-145494400D01*
X200583657Y-145494400D02*
X200583657Y-147494400D01*
X200583657Y-147494400D02*
X198583657Y-147494400D01*
X198211391Y-148018400D02*
G75*
G02*
X197907923Y-148018400I-151734J0D01*
G01*
X197907923Y-148018400D02*
G75*
G02*
X198211391Y-148018400I151734J0D01*
G01*
D14*
%TO.C,SW16*%
X215933657Y-135298800D02*
X215933657Y-137658800D01*
X216233657Y-133928800D02*
X220733657Y-133928800D01*
X216233657Y-139028800D02*
X220733657Y-139028800D01*
X221033657Y-137658800D02*
X221033657Y-135298800D01*
D15*
X222833657Y-138353800D02*
G75*
G02*
X222633657Y-138353800I-100000J0D01*
G01*
X222633657Y-138353800D02*
G75*
G02*
X222833657Y-138353800I100000J0D01*
G01*
D10*
%TO.C,R7*%
X187732400Y-115926841D02*
X187732400Y-115619559D01*
X188492400Y-115926841D02*
X188492400Y-115619559D01*
%TO.C,D5*%
X277278790Y-138540649D02*
X279238790Y-138540649D01*
X277278790Y-139740649D02*
X279238790Y-139740649D01*
X279238790Y-139740649D02*
X279238790Y-138540649D01*
%TO.C,Y1*%
X231979200Y-108908600D02*
X235279200Y-108908600D01*
X235279200Y-108908600D02*
X235279200Y-104908600D01*
%TO.C,D10*%
X211278400Y-133711000D02*
X212688400Y-133711000D01*
X211288400Y-136031000D02*
X212688400Y-136031000D01*
X210908400Y-133761000D02*
X210668400Y-133431000D01*
X211148400Y-133431000D01*
X210908400Y-133761000D01*
G36*
X210908400Y-133761000D02*
G01*
X210668400Y-133431000D01*
X211148400Y-133431000D01*
X210908400Y-133761000D01*
G37*
%TO.C,C4*%
X177450533Y-127963200D02*
X177743067Y-127963200D01*
X177450533Y-128983200D02*
X177743067Y-128983200D01*
%TO.C,X6*%
X250301800Y-106248200D02*
G75*
G02*
X248401800Y-106248200I-950000J0D01*
G01*
X248401800Y-106248200D02*
G75*
G02*
X250301800Y-106248200I950000J0D01*
G01*
D14*
%TO.C,SW4*%
X220371157Y-125141400D02*
X220371157Y-129641400D01*
X221741157Y-129941400D02*
X224101157Y-129941400D01*
X224101157Y-124841400D02*
X221741157Y-124841400D01*
X225471157Y-125141400D02*
X225471157Y-129641400D01*
D15*
X221146157Y-131641400D02*
G75*
G02*
X220946157Y-131641400I-100000J0D01*
G01*
X220946157Y-131641400D02*
G75*
G02*
X221146157Y-131641400I100000J0D01*
G01*
D10*
%TO.C,C20*%
X220442200Y-102012636D02*
X220442200Y-101796964D01*
X221162200Y-102012636D02*
X221162200Y-101796964D01*
%TO.C,L7*%
X243457313Y-127542540D02*
X245457313Y-127542540D01*
X243457313Y-129542540D02*
X243457313Y-127542540D01*
X245457313Y-127542540D02*
X245457313Y-129542540D01*
X245457313Y-129542540D02*
X243457313Y-129542540D01*
X243085047Y-130066540D02*
G75*
G02*
X242781579Y-130066540I-151734J0D01*
G01*
X242781579Y-130066540D02*
G75*
G02*
X243085047Y-130066540I151734J0D01*
G01*
%TO.C,R5*%
X219569740Y-94940381D02*
X219569740Y-95247663D01*
X220329740Y-94940381D02*
X220329740Y-95247663D01*
%TO.C,C7*%
X271030034Y-133577869D02*
X271245706Y-133577869D01*
X271030034Y-134297869D02*
X271245706Y-134297869D01*
%TO.C,D8*%
X225362400Y-96084800D02*
X225362400Y-99344800D01*
X227062400Y-96084800D02*
X225362400Y-96084800D01*
X227062400Y-96084800D02*
X227062400Y-99344800D01*
%TO.C,U4*%
X210822500Y-94750000D02*
X210822500Y-95800000D01*
X212802500Y-94750000D02*
X212802500Y-96050000D01*
X210822500Y-96450000D02*
X210542500Y-96170000D01*
X210822500Y-96170000D01*
X210822500Y-96450000D01*
G36*
X210822500Y-96450000D02*
G01*
X210542500Y-96170000D01*
X210822500Y-96170000D01*
X210822500Y-96450000D01*
G37*
%TO.C,TP5*%
X185608000Y-97891600D02*
G75*
G02*
X183708000Y-97891600I-950000J0D01*
G01*
X183708000Y-97891600D02*
G75*
G02*
X185608000Y-97891600I950000J0D01*
G01*
%TO.C,C3*%
X188872400Y-116579867D02*
X188872400Y-116287333D01*
X189892400Y-116579867D02*
X189892400Y-116287333D01*
%TO.C,C9*%
X167052164Y-136810000D02*
X167267836Y-136810000D01*
X167052164Y-137530000D02*
X167267836Y-137530000D01*
D14*
%TO.C,SW5*%
X211496157Y-129641400D02*
X211496157Y-125141400D01*
X212866157Y-129941400D02*
X215226157Y-129941400D01*
X215226157Y-124841400D02*
X212866157Y-124841400D01*
X216596157Y-129641400D02*
X216596157Y-125141400D01*
D15*
X216021157Y-123141400D02*
G75*
G02*
X215821157Y-123141400I-100000J0D01*
G01*
X215821157Y-123141400D02*
G75*
G02*
X216021157Y-123141400I100000J0D01*
G01*
D10*
%TO.C,D12*%
X186800000Y-131215200D02*
X186800000Y-129805200D01*
X189120000Y-131205200D02*
X189120000Y-129805200D01*
X186850000Y-131585200D02*
X186520000Y-131825200D01*
X186520000Y-131345200D01*
X186850000Y-131585200D01*
G36*
X186850000Y-131585200D02*
G01*
X186520000Y-131825200D01*
X186520000Y-131345200D01*
X186850000Y-131585200D01*
G37*
%TO.C,C14*%
X228637687Y-115139577D02*
X228853359Y-115139577D01*
X228637687Y-115859577D02*
X228853359Y-115859577D01*
%TO.C,C17*%
X230221200Y-107638964D02*
X230221200Y-107854636D01*
X230941200Y-107638964D02*
X230941200Y-107854636D01*
%TO.C,L10*%
X259291532Y-101212626D02*
X261291532Y-101212626D01*
X259291532Y-103212626D02*
X259291532Y-101212626D01*
X261291532Y-101212626D02*
X261291532Y-103212626D01*
X261291532Y-103212626D02*
X259291532Y-103212626D01*
X258919266Y-103736626D02*
G75*
G02*
X258615798Y-103736626I-151734J0D01*
G01*
X258615798Y-103736626D02*
G75*
G02*
X258919266Y-103736626I151734J0D01*
G01*
D11*
%TO.C,J10*%
X228257400Y-128784200D02*
X228257400Y-128784200D01*
X228357400Y-128784200D02*
X228357400Y-128784200D01*
D15*
X228857400Y-125234200D02*
X231057400Y-125234200D01*
X228857400Y-125984200D02*
X228857400Y-125234200D01*
X228857400Y-129384200D02*
X228857400Y-129934200D01*
X228857400Y-129934200D02*
X231057400Y-129934200D01*
X232457400Y-129184200D02*
X232457400Y-125984200D01*
D11*
X228257400Y-128784200D02*
G75*
G02*
X228357400Y-128784200I50000J0D01*
G01*
X228357400Y-128784200D02*
G75*
G02*
X228257400Y-128784200I-50000J0D01*
G01*
D10*
%TO.C,C23*%
X216608663Y-107196162D02*
X216824335Y-107196162D01*
X216608663Y-107916162D02*
X216824335Y-107916162D01*
%TO.C,R11*%
X171153641Y-136960000D02*
X170846359Y-136960000D01*
X171153641Y-137720000D02*
X170846359Y-137720000D01*
D14*
%TO.C,U6*%
X227125400Y-118278600D02*
X227125400Y-117473600D01*
X227125400Y-120473600D02*
X227125400Y-119668600D01*
X230125400Y-118278600D02*
X230125400Y-117473600D01*
X230125400Y-120473600D02*
X230125400Y-119668600D01*
D15*
X227525400Y-121368600D02*
G75*
G02*
X227325400Y-121368600I-100000J0D01*
G01*
X227325400Y-121368600D02*
G75*
G02*
X227525400Y-121368600I100000J0D01*
G01*
D10*
%TO.C,X1*%
X257058200Y-126263400D02*
G75*
G02*
X255158200Y-126263400I-950000J0D01*
G01*
X255158200Y-126263400D02*
G75*
G02*
X257058200Y-126263400I950000J0D01*
G01*
%TO.C,Q2*%
X219718400Y-98398400D02*
X219718400Y-96988400D01*
X222038400Y-98388400D02*
X222038400Y-96988400D01*
X219768400Y-98768400D02*
X219438400Y-99008400D01*
X219438400Y-98528400D01*
X219768400Y-98768400D01*
G36*
X219768400Y-98768400D02*
G01*
X219438400Y-99008400D01*
X219438400Y-98528400D01*
X219768400Y-98768400D01*
G37*
D14*
%TO.C,SW2*%
X220371157Y-116266400D02*
X220371157Y-120766400D01*
X221741157Y-121066400D02*
X224101157Y-121066400D01*
X224101157Y-115966400D02*
X221741157Y-115966400D01*
X225471157Y-116266400D02*
X225471157Y-120766400D01*
D15*
X221146157Y-122766400D02*
G75*
G02*
X220946157Y-122766400I-100000J0D01*
G01*
X220946157Y-122766400D02*
G75*
G02*
X221146157Y-122766400I100000J0D01*
G01*
D10*
%TO.C,L11*%
X250491532Y-101212626D02*
X252491532Y-101212626D01*
X250491532Y-103212626D02*
X250491532Y-101212626D01*
X252491532Y-101212626D02*
X252491532Y-103212626D01*
X252491532Y-103212626D02*
X250491532Y-103212626D01*
X250119266Y-103736626D02*
G75*
G02*
X249815798Y-103736626I-151734J0D01*
G01*
X249815798Y-103736626D02*
G75*
G02*
X250119266Y-103736626I151734J0D01*
G01*
%TO.C,L4*%
X191883657Y-145494400D02*
X193883657Y-145494400D01*
X191883657Y-147494400D02*
X191883657Y-145494400D01*
X193883657Y-145494400D02*
X193883657Y-147494400D01*
X193883657Y-147494400D02*
X191883657Y-147494400D01*
X191511391Y-148018400D02*
G75*
G02*
X191207923Y-148018400I-151734J0D01*
G01*
X191207923Y-148018400D02*
G75*
G02*
X191511391Y-148018400I151734J0D01*
G01*
%TO.C,L13*%
X167282703Y-124030694D02*
X167387368Y-122033441D01*
X167387368Y-122033441D02*
X169384621Y-122138106D01*
X169279956Y-124135359D02*
X167282703Y-124030694D01*
X169384621Y-122138106D02*
X169279956Y-124135359D01*
X166883725Y-124526551D02*
G75*
G02*
X166580257Y-124526551I-151734J0D01*
G01*
X166580257Y-124526551D02*
G75*
G02*
X166883725Y-124526551I151734J0D01*
G01*
%TO.C,D7*%
X229731200Y-99596800D02*
X229731200Y-96336800D01*
X229731200Y-99596800D02*
X231431200Y-99596800D01*
X231431200Y-99596800D02*
X231431200Y-96336800D01*
%TO.C,Q1*%
X222614000Y-98398400D02*
X222614000Y-96988400D01*
X224934000Y-98388400D02*
X224934000Y-96988400D01*
X222664000Y-98768400D02*
X222334000Y-99008400D01*
X222334000Y-98528400D01*
X222664000Y-98768400D01*
G36*
X222664000Y-98768400D02*
G01*
X222334000Y-99008400D01*
X222334000Y-98528400D01*
X222664000Y-98768400D01*
G37*
%TO.C,D14*%
X239460000Y-107795600D02*
X238060000Y-107795600D01*
X239470000Y-110115600D02*
X238060000Y-110115600D01*
X240080000Y-110395600D02*
X239600000Y-110395600D01*
X239840000Y-110065600D01*
X240080000Y-110395600D01*
G36*
X240080000Y-110395600D02*
G01*
X239600000Y-110395600D01*
X239840000Y-110065600D01*
X240080000Y-110395600D01*
G37*
%TO.C,L6*%
X217483657Y-141563600D02*
X219483657Y-141563600D01*
X217483657Y-143563600D02*
X217483657Y-141563600D01*
X219483657Y-141563600D02*
X219483657Y-143563600D01*
X219483657Y-143563600D02*
X217483657Y-143563600D01*
X217111391Y-144087600D02*
G75*
G02*
X216807923Y-144087600I-151734J0D01*
G01*
X216807923Y-144087600D02*
G75*
G02*
X217111391Y-144087600I151734J0D01*
G01*
%TO.C,X2*%
X248371400Y-117881400D02*
G75*
G02*
X246471400Y-117881400I-950000J0D01*
G01*
X246471400Y-117881400D02*
G75*
G02*
X248371400Y-117881400I950000J0D01*
G01*
%TO.C,U8*%
D11*
X216673993Y-111748008D02*
X218705993Y-111748008D01*
X218705993Y-108700008D01*
X216673993Y-108700008D01*
X216673993Y-111748008D01*
X216596378Y-112052808D02*
G75*
G02*
X216142008Y-112052808I-227185J0D01*
G01*
X216142008Y-112052808D02*
G75*
G02*
X216596378Y-112052808I227185J0D01*
G01*
%TD*%
M02*
