M48
; DRILL file {KiCad 9.0.6-rc2} date 2025-12-11T22:21:37-0800
; FORMAT={-:-/ absolute / metric / decimal}
; #@! TF.CreationDate,2025-12-11T22:21:37-08:00
; #@! TF.GenerationSoftware,Kicad,Pcbnew,9.0.6-rc2
; #@! TF.FileFunction,Plated,1,4,PTH
FMAT,2
METRIC
; #@! TA.AperFunction,Plated,PTH,ViaDrill
T1C0.300
; #@! TA.AperFunction,Plated,PTH,ComponentDrill
T2C0.400
; #@! TA.AperFunction,Plated,PTH,ComponentDrill
T3C0.500
; #@! TA.AperFunction,Plated,PTH,ComponentDrill
T4C0.800
; #@! TA.AperFunction,Plated,PTH,ComponentDrill
T5C0.900
; #@! TA.AperFunction,Plated,PTH,ComponentDrill
T6C1.000
; #@! TA.AperFunction,Plated,PTH,ComponentDrill
T7C1.100
; #@! TA.AperFunction,Plated,PTH,ComponentDrill
T8C1.200
; #@! TA.AperFunction,Plated,PTH,ComponentDrill
T9C1.500
%
G90
G05
T1
X159.893Y-131.623
X160.223Y-141.63
X160.35Y-142.57
X160.909Y-137.312
X160.96Y-132.131
X161.95Y-137.262
X162.103Y-105.867
X162.255Y-134.823
X165.41Y-137.989
X166.345Y-123.698
X166.569Y-137.997
X166.599Y-130.124
X167.411Y-103.251
X168.199Y-125.273
X169.367Y-142.037
X169.443Y-141.122
X169.85Y-110.584
X169.951Y-139.624
X170.002Y-109.423
X170.612Y-101.803
X171.552Y-134.849
X175.09Y-132.85
X176.454Y-108.636
X176.759Y-103.124
X177.292Y-108.433
X177.495Y-102.438
X177.876Y-108.941
X178.232Y-103.124
X178.308Y-138.176
X179.756Y-128.448
X184.15Y-129.997
X184.81Y-129.591
X185.115Y-137.287
X185.674Y-129.896
X185.801Y-111.938
X185.979Y-136.449
X186.563Y-135.915
X186.741Y-97.765
X187.046Y-130.454
X187.173Y-111.862
X187.868Y-130.477
X188.112Y-123.927
X188.172Y-134.604
X188.672Y-134.129
X188.724Y-133.414
X189.865Y-143.764
X190.195Y-107.544
X190.678Y-115.494
X190.728Y-119.49
X190.95Y-120.3
X190.979Y-121.142
X191.592Y-130.454
X192.253Y-144.831
X192.459Y-112.847
X192.473Y-120.186
X192.634Y-139.065
X192.682Y-114.118
X192.8Y-119.45
X193.04Y-101.53
X193.04Y-108.356
X193.192Y-148.082
X193.342Y-118.779
X193.675Y-152.375
X193.827Y-109.22
X193.93Y-102.49
X193.989Y-111.317
X194.62Y-101.42
X194.628Y-113.752
X194.767Y-149.073
X195.3Y-109.85
X196.014Y-112.38
X196.15Y-116.55
X196.359Y-110.498
X197.714Y-150.089
X198.749Y-109.485
X198.984Y-144.983
X199.009Y-141.808
X199.098Y-115.684
X199.187Y-156.108
X199.4Y-111.6
X199.771Y-143.789
X199.8Y-113.15
X200.0Y-148.107
X200.616Y-109.478
X200.99Y-143.586
X201.366Y-119.106
X201.485Y-111.568
X201.6Y-116.129
X201.651Y-149.987
X202.057Y-112.319
X202.844Y-118.415
X203.331Y-109.478
X203.783Y-111.554
X204.22Y-114.07
X205.35Y-109.45
X205.596Y-117.634
X206.285Y-114.946
X206.905Y-120.011
X207.061Y-144.17
X207.231Y-110.498
X208.088Y-118.566
X208.178Y-102.743
X208.5Y-108.85
X208.65Y-111.75
X208.749Y-110.506
X209.067Y-118.72
X209.2Y-114.5
X209.499Y-102.743
X209.77Y-134.423
X209.906Y-136.728
X209.906Y-138.76
X209.982Y-137.795
X211.125Y-120.726
X211.27Y-93.547
X211.3Y-97.5
X211.5Y-108.3
X211.8Y-109.8
X212.014Y-134.391
X212.039Y-135.611
X212.115Y-137.846
X212.167Y-111.423
X212.354Y-93.547
X212.452Y-97.416
X212.5Y-107.85
X212.573Y-129.311
X212.827Y-120.574
X213.051Y-111.344
X213.101Y-109.936
X213.131Y-132.69
X213.233Y-102.972
X213.559Y-93.53
X213.577Y-97.084
X213.589Y-133.223
X214.02Y-138.328
X214.046Y-136.855
X214.097Y-134.899
X214.214Y-111.351
X214.423Y-109.871
X214.808Y-112.166
X215.847Y-109.871
X215.9Y-95.758
X215.904Y-93.082
X216.7Y-136.2
X217.393Y-92.424
X217.653Y-100.457
X217.653Y-133.172
X217.678Y-123.8
X217.728Y-96.462
X218.02Y-92.96
X218.329Y-112.036
X218.814Y-92.958
X218.821Y-107.417
X219.507Y-96.57
X219.66Y-92.98
X220.005Y-103.214
X220.497Y-143.205
X220.659Y-111.999
X220.71Y-94.427
X220.98Y-112.725
X221.082Y-105.029
X221.132Y-106.553
X221.259Y-113.462
X221.717Y-102.946
X221.793Y-102.235
X221.94Y-105.2
X222.021Y-97.714
X222.021Y-128.676
X222.118Y-121.794
X222.13Y-113.31
X222.199Y-116.484
X222.25Y-96.6
X222.428Y-101.676
X222.555Y-134.925
X222.682Y-132.944
X222.707Y-134.239
X222.783Y-116.992
X223.215Y-101.448
X223.215Y-137.77
X223.314Y-114.002
X223.343Y-135.037
X223.545Y-107.417
X223.545Y-133.426
X223.789Y-118.099
X223.825Y-112.192
X224.27Y-93.9
X224.282Y-113.259
X224.866Y-105.054
X224.999Y-95.858
X225.5Y-93.61
X225.755Y-95.682
X225.806Y-107.493
X225.882Y-106.324
X226.212Y-100.279
X226.416Y-102.311
X226.72Y-121.183
X226.797Y-116.129
X227.279Y-116.611
X227.33Y-129.362
X227.5Y-115.9
X227.736Y-103.886
X227.749Y-118.991
X227.893Y-113.305
X227.914Y-102.641
X227.914Y-127.914
X227.953Y-112.658
X228.2Y-104.967
X228.449Y-116.721
X229.056Y-109.296
X229.108Y-110.084
X229.438Y-110.786
X229.505Y-118.968
X229.718Y-109.169
X230.632Y-119.405
X230.708Y-100.609
X231.292Y-104.572
X231.292Y-110.185
X231.934Y-101.803
X232.956Y-126.174
X233.045Y-109.753
X233.578Y-120.548
X233.832Y-126.238
X234.112Y-123.241
X234.239Y-127.66
X234.688Y-126.219
X234.798Y-104.521
X235.814Y-106.832
X236.322Y-106.121
X236.474Y-109.052
X236.576Y-117.958
X236.838Y-105.443
X236.854Y-109.62
X236.921Y-108.544
X237.084Y-125.349
X237.084Y-127.686
X237.414Y-128.295
X237.566Y-124.739
X237.947Y-119.228
X237.947Y-127.787
X238.031Y-125.368
X238.912Y-127.635
X238.938Y-125.832
X240.411Y-121.031
X241.884Y-105.435
X241.935Y-107.925
X242.011Y-106.248
X242.037Y-108.61
X242.062Y-115.965
X242.062Y-117.475
X242.113Y-109.322
X242.87Y-101.35
X244.44Y-101.48
X245.643Y-117.475
X245.669Y-115.965
X245.999Y-129.667
X246.812Y-120.853
X249.34Y-129.85
X249.809Y-101.676
X250.292Y-115.965
X250.292Y-117.475
X250.368Y-127.762
X250.673Y-125.705
X251.333Y-106.02
X252.07Y-103.708
X252.69Y-125.83
X252.917Y-115.965
X252.917Y-117.475
X253.022Y-106.65
X254.473Y-115.965
X254.473Y-117.475
X256.583Y-120.743
X256.946Y-106.02
X257.226Y-110.795
X258.877Y-106.782
X259.539Y-107.5
X259.798Y-106.53
X259.944Y-100.559
X260.731Y-103.683
X261.188Y-109.957
X261.29Y-112.751
X261.29Y-122.098
X261.696Y-105.782
X263.601Y-105.232
X263.728Y-109.296
X263.906Y-117.475
X263.906Y-120.294
X264.008Y-124.765
X264.525Y-127.686
X264.525Y-129.972
X264.589Y-116.049
X264.897Y-123.825
X265.375Y-119.766
X265.524Y-131.616
X265.607Y-122.497
X266.025Y-127.686
X266.179Y-101.714
X266.3Y-122.55
X266.649Y-129.438
X266.875Y-119.38
X266.878Y-120.345
X266.903Y-130.759
X267.132Y-121.691
X267.564Y-133.528
X267.614Y-118.694
X267.665Y-115.037
X267.741Y-135.382
X267.995Y-121.437
X268.249Y-112.344
X268.453Y-132.944
X268.961Y-132.359
X269.088Y-123.647
X269.519Y-103.835
X269.672Y-131.013
X270.316Y-132.31
X270.713Y-131.674
X270.866Y-109.83
X271.475Y-116.815
X275.717Y-118.669
X276.758Y-136.779
X276.784Y-108.382
X277.698Y-136.601
X277.825Y-117.907
X278.384Y-141.935
X278.409Y-141.199
X280.365Y-133.172
T2
X215.684Y-89.521
X216.084Y-88.821
X216.884Y-88.821
X217.284Y-89.521
X217.684Y-88.821
X218.084Y-89.521
X218.884Y-89.521
X219.284Y-88.821
X219.684Y-89.521
X220.084Y-88.821
X220.884Y-88.821
X221.284Y-89.521
T4
X173.955Y-136.347
X175.955Y-136.347
X253.457Y-131.775
X255.457Y-131.775
T5
X167.027Y-119.299
X167.368Y-112.808
X171.521Y-119.534
X171.861Y-113.043
T6
X174.382Y-125.142
X176.878Y-125.272
X179.375Y-125.403
X185.891Y-119.536
X186.022Y-117.04
X186.153Y-114.543
X244.457Y-121.643
X244.457Y-126.643
X255.892Y-99.713
X255.892Y-104.713
X259.634Y-114.084
X259.634Y-119.084
X274.147Y-110.594
X274.147Y-115.594
T7
X166.384Y-101.934
X170.281Y-99.684
X266.687Y-99.684
X270.584Y-101.934
T8
X172.009Y-122.639
X172.672Y-110.006
X181.996Y-123.162
X182.658Y-110.53
T3
G00X213.994Y-84.231
M15
G01X213.994Y-84.831
M16
G05
G00X214.354Y-88.631
M15
G01X214.354Y-89.231
M16
G05
G00X222.614Y-88.631
M15
G01X222.614Y-89.231
M16
G05
G00X222.974Y-84.231
M15
G01X222.974Y-84.831
M16
G05
T9
G00X163.368Y-100.211
M15
G01X163.868Y-101.077
M16
G05
G00X170.296Y-96.211
M15
G01X170.796Y-97.077
M16
G05
G00X266.671Y-96.211
M15
G01X266.171Y-97.077
M16
G05
G00X273.599Y-100.211
M15
G01X273.099Y-101.077
M16
G05
M30
