%TF.GenerationSoftware,KiCad,Pcbnew,8.0.2*%
%TF.CreationDate,2024-08-23T14:06:52-07:00*%
%TF.ProjectId,UGC_MechTrigger,5547435f-4d65-4636-9854-726967676572,rev?*%
%TF.SameCoordinates,Original*%
%TF.FileFunction,Copper,L2,Bot*%
%TF.FilePolarity,Positive*%
%FSLAX46Y46*%
G04 Gerber Fmt 4.6, Leading zero omitted, Abs format (unit mm)*
G04 Created by KiCad (PCBNEW 8.0.2) date 2024-08-23 14:06:52*
%MOMM*%
%LPD*%
G01*
G04 APERTURE LIST*
%TA.AperFunction,ComponentPad*%
%ADD10R,1.700000X1.700000*%
%TD*%
%TA.AperFunction,ComponentPad*%
%ADD11O,1.700000X1.700000*%
%TD*%
%TA.AperFunction,WasherPad*%
%ADD12C,2.000000*%
%TD*%
%TA.AperFunction,ComponentPad*%
%ADD13C,2.400000*%
%TD*%
G04 APERTURE END LIST*
D10*
%TO.P,J1,1,Pin_1*%
%TO.N,Net-(J1-Pin_1)*%
X228422200Y-146862800D03*
D11*
%TO.P,J1,2,Pin_2*%
%TO.N,Net-(J1-Pin_2)*%
X228422200Y-149402800D03*
%TD*%
D10*
%TO.P,J2,1,Pin_1*%
%TO.N,Net-(J1-Pin_1)*%
X210388200Y-146456400D03*
D11*
%TO.P,J2,2,Pin_2*%
%TO.N,Net-(J1-Pin_2)*%
X210388200Y-148996400D03*
%TD*%
D12*
%TO.P,SW1,*%
%TO.N,*%
X224768198Y-156464200D03*
D13*
%TO.P,SW1,1,1*%
%TO.N,Net-(J1-Pin_1)*%
X215818198Y-146464200D03*
%TO.P,SW1,2,2*%
%TO.N,Net-(J1-Pin_2)*%
X213718198Y-151464200D03*
%TD*%
%TA.AperFunction,NonConductor*%
G36*
X214205278Y-145646388D02*
G01*
X214251033Y-145699192D01*
X214260977Y-145768350D01*
X214253667Y-145796006D01*
X214188690Y-145961562D01*
X214188688Y-145961569D01*
X214131975Y-146210045D01*
X214112930Y-146464195D01*
X214112930Y-146464204D01*
X214131975Y-146718354D01*
X214131976Y-146718357D01*
X214188690Y-146966837D01*
X214281805Y-147204088D01*
X214409239Y-147424812D01*
X214568148Y-147624077D01*
X214754981Y-147797432D01*
X214965564Y-147941005D01*
X214965569Y-147941007D01*
X214965570Y-147941008D01*
X214965571Y-147941009D01*
X215087526Y-147999738D01*
X215195190Y-148051587D01*
X215195191Y-148051587D01*
X215195194Y-148051589D01*
X215438740Y-148126713D01*
X215690763Y-148164700D01*
X215945633Y-148164700D01*
X216197656Y-148126713D01*
X216441202Y-148051589D01*
X216670832Y-147941005D01*
X216881415Y-147797432D01*
X217068248Y-147624077D01*
X217227157Y-147424812D01*
X217354591Y-147204088D01*
X217447706Y-146966837D01*
X217504420Y-146718357D01*
X217523466Y-146464200D01*
X217504420Y-146210043D01*
X217447706Y-145961563D01*
X217382728Y-145796005D01*
X217376560Y-145726409D01*
X217408998Y-145664525D01*
X217469743Y-145630002D01*
X217498157Y-145626703D01*
X227003432Y-145626703D01*
X227070471Y-145646388D01*
X227116226Y-145699192D01*
X227126170Y-145768350D01*
X227119614Y-145794036D01*
X227078108Y-145905317D01*
X227071701Y-145964916D01*
X227071700Y-145964935D01*
X227071700Y-147760670D01*
X227071701Y-147760676D01*
X227078108Y-147820283D01*
X227128402Y-147955128D01*
X227128406Y-147955135D01*
X227214652Y-148070344D01*
X227214655Y-148070347D01*
X227329864Y-148156593D01*
X227329871Y-148156597D01*
X227461281Y-148205610D01*
X227517215Y-148247481D01*
X227541632Y-148312945D01*
X227526780Y-148381218D01*
X227505630Y-148409473D01*
X227383703Y-148531400D01*
X227248165Y-148724969D01*
X227248164Y-148724971D01*
X227148298Y-148939135D01*
X227148294Y-148939144D01*
X227087138Y-149167386D01*
X227087136Y-149167396D01*
X227066541Y-149402799D01*
X227066541Y-149402800D01*
X227087136Y-149638203D01*
X227087138Y-149638213D01*
X227148294Y-149866455D01*
X227148296Y-149866459D01*
X227148297Y-149866463D01*
X227226838Y-150034895D01*
X227248165Y-150080630D01*
X227248167Y-150080634D01*
X227311045Y-150170432D01*
X227383705Y-150274201D01*
X227550799Y-150441295D01*
X227639763Y-150503588D01*
X227744365Y-150576832D01*
X227744367Y-150576833D01*
X227744370Y-150576835D01*
X227958537Y-150676703D01*
X228186792Y-150737863D01*
X228375118Y-150754339D01*
X228422199Y-150758459D01*
X228422200Y-150758459D01*
X228422201Y-150758459D01*
X228461434Y-150755026D01*
X228657608Y-150737863D01*
X228885863Y-150676703D01*
X229100030Y-150576835D01*
X229293601Y-150441295D01*
X229406020Y-150328876D01*
X229467343Y-150295391D01*
X229537035Y-150300375D01*
X229592968Y-150342247D01*
X229617385Y-150407711D01*
X229617701Y-150416557D01*
X229617701Y-153719238D01*
X229616921Y-153733123D01*
X229606741Y-153823465D01*
X229600563Y-153850533D01*
X229572849Y-153929738D01*
X229560800Y-153954758D01*
X229516157Y-154025805D01*
X229498845Y-154047513D01*
X229439513Y-154106845D01*
X229417804Y-154124158D01*
X229346752Y-154168803D01*
X229321735Y-154180850D01*
X229242537Y-154208563D01*
X229215465Y-154214742D01*
X229125102Y-154224923D01*
X229111219Y-154225703D01*
X226402309Y-154225703D01*
X226275013Y-154259811D01*
X226160887Y-154325703D01*
X226160884Y-154325705D01*
X226067703Y-154418886D01*
X226067701Y-154418889D01*
X226001809Y-154533015D01*
X225967701Y-154660311D01*
X225967701Y-155242728D01*
X225948016Y-155309767D01*
X225895212Y-155355522D01*
X225826054Y-155365466D01*
X225767539Y-155340582D01*
X225727948Y-155309767D01*
X225591707Y-155203726D01*
X225591705Y-155203725D01*
X225591704Y-155203724D01*
X225373009Y-155085372D01*
X225373000Y-155085369D01*
X225137814Y-155004629D01*
X224892533Y-154963700D01*
X224643863Y-154963700D01*
X224398581Y-155004629D01*
X224163395Y-155085369D01*
X224163386Y-155085372D01*
X223944691Y-155203724D01*
X223748455Y-155356461D01*
X223580031Y-155539417D01*
X223444024Y-155747593D01*
X223344134Y-155975318D01*
X223283090Y-156216375D01*
X223283088Y-156216387D01*
X223262555Y-156464194D01*
X223262555Y-156464205D01*
X223283088Y-156712012D01*
X223283090Y-156712024D01*
X223344134Y-156953081D01*
X223444024Y-157180806D01*
X223580031Y-157388982D01*
X223580034Y-157388985D01*
X223748454Y-157571938D01*
X223748457Y-157571940D01*
X223748460Y-157571943D01*
X223838272Y-157641847D01*
X223879085Y-157698557D01*
X223882760Y-157768330D01*
X223848128Y-157829013D01*
X223786187Y-157861340D01*
X223762110Y-157863700D01*
X222044710Y-157863700D01*
X222044694Y-157863701D01*
X222030661Y-157863701D01*
X221858264Y-157894099D01*
X221693751Y-157953977D01*
X221542144Y-158041509D01*
X221408036Y-158154039D01*
X221408030Y-158154045D01*
X221295509Y-158288143D01*
X221207978Y-158439752D01*
X221207975Y-158439759D01*
X221148099Y-158604263D01*
X221117701Y-158776665D01*
X221117701Y-159239700D01*
X221098016Y-159306739D01*
X221045212Y-159352494D01*
X220993701Y-159363700D01*
X218242701Y-159363700D01*
X218175662Y-159344015D01*
X218129907Y-159291211D01*
X218118701Y-159239700D01*
X218118701Y-158790713D01*
X218118700Y-158790695D01*
X218118700Y-158776669D01*
X218118700Y-158776667D01*
X218088300Y-158604262D01*
X218028424Y-158439754D01*
X218028418Y-158439743D01*
X217940897Y-158288150D01*
X217940893Y-158288145D01*
X217940892Y-158288143D01*
X217828361Y-158154036D01*
X217694253Y-158041506D01*
X217694252Y-158041505D01*
X217542645Y-157953976D01*
X217542646Y-157953976D01*
X217542642Y-157953974D01*
X217432970Y-157914057D01*
X217378135Y-157894099D01*
X217291931Y-157878899D01*
X217205729Y-157863699D01*
X217205728Y-157863699D01*
X217118196Y-157863700D01*
X213775161Y-157863700D01*
X213761277Y-157862920D01*
X213747254Y-157861340D01*
X213670934Y-157852740D01*
X213643866Y-157846562D01*
X213564661Y-157818848D01*
X213539641Y-157806799D01*
X213468594Y-157762156D01*
X213446886Y-157744844D01*
X213387555Y-157685513D01*
X213370242Y-157663804D01*
X213325595Y-157592749D01*
X213313554Y-157567746D01*
X213285833Y-157488524D01*
X213279658Y-157461463D01*
X213269480Y-157371121D01*
X213268700Y-157357239D01*
X213268700Y-154660313D01*
X213268700Y-154660311D01*
X213234592Y-154533017D01*
X213168700Y-154418889D01*
X213075514Y-154325703D01*
X213018450Y-154292757D01*
X212961387Y-154259811D01*
X212897739Y-154242757D01*
X212834092Y-154225703D01*
X212834091Y-154225703D01*
X210125161Y-154225703D01*
X210111277Y-154224923D01*
X210020932Y-154214743D01*
X209993866Y-154208566D01*
X209914654Y-154180848D01*
X209889645Y-154168804D01*
X209818593Y-154124159D01*
X209796884Y-154106846D01*
X209737553Y-154047515D01*
X209720240Y-154025806D01*
X209675594Y-153954753D01*
X209663548Y-153929738D01*
X209644413Y-153875053D01*
X209635833Y-153850532D01*
X209629656Y-153823463D01*
X209619480Y-153733147D01*
X209618700Y-153719264D01*
X209618700Y-151464195D01*
X212012930Y-151464195D01*
X212012930Y-151464204D01*
X212031975Y-151718354D01*
X212053606Y-151813127D01*
X212088690Y-151966837D01*
X212181805Y-152204088D01*
X212309239Y-152424812D01*
X212468148Y-152624077D01*
X212654981Y-152797432D01*
X212865564Y-152941005D01*
X212865569Y-152941007D01*
X212865570Y-152941008D01*
X212865571Y-152941009D01*
X212987526Y-152999738D01*
X213095190Y-153051587D01*
X213095191Y-153051587D01*
X213095194Y-153051589D01*
X213338740Y-153126713D01*
X213590763Y-153164700D01*
X213845633Y-153164700D01*
X214097656Y-153126713D01*
X214341202Y-153051589D01*
X214570832Y-152941005D01*
X214781415Y-152797432D01*
X214968248Y-152624077D01*
X215127157Y-152424812D01*
X215254591Y-152204088D01*
X215347706Y-151966837D01*
X215404420Y-151718357D01*
X215423466Y-151464200D01*
X215423466Y-151464196D01*
X216612613Y-151464196D01*
X216612613Y-151464203D01*
X216632936Y-151813127D01*
X216632937Y-151813138D01*
X216693626Y-152157327D01*
X216693628Y-152157334D01*
X216793872Y-152492172D01*
X216932305Y-152813095D01*
X216932311Y-152813108D01*
X217107068Y-153115797D01*
X217315782Y-153396149D01*
X217315787Y-153396155D01*
X217360312Y-153443348D01*
X217555640Y-153650383D01*
X217732101Y-153798451D01*
X217823384Y-153875047D01*
X217823392Y-153875053D01*
X218115401Y-154067111D01*
X218115405Y-154067113D01*
X218427747Y-154223977D01*
X218756187Y-154343519D01*
X219096284Y-154424123D01*
X219443439Y-154464700D01*
X219443446Y-154464700D01*
X219792950Y-154464700D01*
X219792957Y-154464700D01*
X220140112Y-154424123D01*
X220480209Y-154343519D01*
X220808649Y-154223977D01*
X221120991Y-154067113D01*
X221413009Y-153875049D01*
X221680756Y-153650383D01*
X221920610Y-153396153D01*
X222129328Y-153115796D01*
X222304087Y-152813104D01*
X222442524Y-152492171D01*
X222542767Y-152157336D01*
X222603460Y-151813127D01*
X222623783Y-151464200D01*
X222603460Y-151115273D01*
X222576357Y-150961562D01*
X222542769Y-150771072D01*
X222542767Y-150771065D01*
X222532827Y-150737863D01*
X222442524Y-150436229D01*
X222304087Y-150115296D01*
X222210431Y-149953079D01*
X222129327Y-149812602D01*
X221920613Y-149532250D01*
X221920608Y-149532244D01*
X221798482Y-149402799D01*
X221680756Y-149278017D01*
X221532686Y-149153772D01*
X221413011Y-149053352D01*
X221413003Y-149053346D01*
X221120994Y-148861288D01*
X220808656Y-148704426D01*
X220808650Y-148704423D01*
X220480210Y-148584881D01*
X220480207Y-148584880D01*
X220140113Y-148504277D01*
X220096717Y-148499204D01*
X219792957Y-148463700D01*
X219443439Y-148463700D01*
X219139678Y-148499204D01*
X219096283Y-148504277D01*
X219096281Y-148504277D01*
X218756188Y-148584880D01*
X218756185Y-148584881D01*
X218427745Y-148704423D01*
X218427739Y-148704426D01*
X218115401Y-148861288D01*
X217823392Y-149053346D01*
X217823384Y-149053352D01*
X217555640Y-149278017D01*
X217555638Y-149278019D01*
X217315787Y-149532244D01*
X217315782Y-149532250D01*
X217107068Y-149812602D01*
X216932311Y-150115291D01*
X216932305Y-150115304D01*
X216793872Y-150436227D01*
X216693628Y-150771065D01*
X216693626Y-150771072D01*
X216632937Y-151115261D01*
X216632936Y-151115272D01*
X216612613Y-151464196D01*
X215423466Y-151464196D01*
X215404420Y-151210043D01*
X215347706Y-150961563D01*
X215254591Y-150724312D01*
X215127157Y-150503588D01*
X214968248Y-150304323D01*
X214781415Y-150130968D01*
X214570832Y-149987395D01*
X214570828Y-149987393D01*
X214570825Y-149987391D01*
X214570824Y-149987390D01*
X214341204Y-149876812D01*
X214341206Y-149876812D01*
X214097664Y-149801689D01*
X214097660Y-149801688D01*
X214097656Y-149801687D01*
X213967800Y-149782114D01*
X213845638Y-149763700D01*
X213845633Y-149763700D01*
X213590763Y-149763700D01*
X213590757Y-149763700D01*
X213433807Y-149787357D01*
X213338740Y-149801687D01*
X213338737Y-149801688D01*
X213338731Y-149801689D01*
X213095190Y-149876812D01*
X212865571Y-149987390D01*
X212865570Y-149987391D01*
X212654980Y-150130968D01*
X212468150Y-150304321D01*
X212468148Y-150304323D01*
X212309239Y-150503588D01*
X212181806Y-150724309D01*
X212088690Y-150961562D01*
X212088688Y-150961569D01*
X212031975Y-151210045D01*
X212012930Y-151464195D01*
X209618700Y-151464195D01*
X209618700Y-150322329D01*
X209638385Y-150255290D01*
X209691189Y-150209535D01*
X209760347Y-150199591D01*
X209795100Y-150209945D01*
X209924537Y-150270303D01*
X209924542Y-150270304D01*
X209924544Y-150270305D01*
X209939088Y-150274202D01*
X210152792Y-150331463D01*
X210341118Y-150347939D01*
X210388199Y-150352059D01*
X210388200Y-150352059D01*
X210388201Y-150352059D01*
X210427434Y-150348626D01*
X210623608Y-150331463D01*
X210851863Y-150270303D01*
X211066030Y-150170435D01*
X211259601Y-150034895D01*
X211426695Y-149867801D01*
X211562235Y-149674230D01*
X211662103Y-149460063D01*
X211723263Y-149231808D01*
X211743859Y-148996400D01*
X211723263Y-148760992D01*
X211662103Y-148532737D01*
X211562235Y-148318571D01*
X211512457Y-148247481D01*
X211426696Y-148125000D01*
X211372040Y-148070344D01*
X211304767Y-148003071D01*
X211271284Y-147941751D01*
X211276268Y-147872059D01*
X211318139Y-147816125D01*
X211349115Y-147799210D01*
X211480531Y-147750196D01*
X211595746Y-147663946D01*
X211681996Y-147548731D01*
X211732291Y-147413883D01*
X211738700Y-147354273D01*
X211738699Y-145750702D01*
X211758384Y-145683664D01*
X211811187Y-145637909D01*
X211862699Y-145626703D01*
X214138239Y-145626703D01*
X214205278Y-145646388D01*
G37*
%TD.AperFunction*%
M02*
