%TF.GenerationSoftware,KiCad,Pcbnew,8.0.2*%
%TF.CreationDate,2024-08-12T19:30:09-07:00*%
%TF.ProjectId,socket_test,736f636b-6574-45f7-9465-73742e6b6963,rev?*%
%TF.SameCoordinates,Original*%
%TF.FileFunction,Drillmap*%
%TF.FilePolarity,Positive*%
%FSLAX45Y45*%
G04 Gerber Fmt 4.5, Leading zero omitted, Abs format (unit mm)*
G04 Created by KiCad (PCBNEW 8.0.2) date 2024-08-12 19:30:09*
%MOMM*%
%LPD*%
G01*
G04 APERTURE LIST*
%ADD10C,0.050000*%
%ADD11C,0.200000*%
%ADD12C,0.100000*%
%ADD13C,0.175000*%
G04 APERTURE END LIST*
D10*
X23505160Y-12506960D02*
X26492200Y-12506960D01*
X26492200Y-15105380D01*
X23505160Y-15105380D01*
X23505160Y-12506960D01*
D11*
D12*
X23768640Y-14750420D02*
X23848640Y-14830420D01*
X23848640Y-14750420D02*
X23768640Y-14830420D01*
X23848640Y-14825420D02*
X23848640Y-14755420D01*
X23768640Y-14755420D02*
G75*
G02*
X23848640Y-14755420I40000J0D01*
G01*
X23768640Y-14755420D02*
X23768640Y-14825420D01*
X23768640Y-14825420D02*
G75*
G03*
X23848640Y-14825420I40000J0D01*
G01*
X24638640Y-14750420D02*
X24718640Y-14830420D01*
X24718640Y-14750420D02*
X24638640Y-14830420D01*
X24718640Y-14825420D02*
X24718640Y-14755420D01*
X24638640Y-14755420D02*
G75*
G02*
X24718640Y-14755420I40000J0D01*
G01*
X24638640Y-14755420D02*
X24638640Y-14825420D01*
X24638640Y-14825420D02*
G75*
G03*
X24718640Y-14825420I40000J0D01*
G01*
X25268640Y-14750420D02*
X25348640Y-14830420D01*
X25348640Y-14750420D02*
X25268640Y-14830420D01*
X25348640Y-14825420D02*
X25348640Y-14755420D01*
X25268640Y-14755420D02*
G75*
G02*
X25348640Y-14755420I40000J0D01*
G01*
X25268640Y-14755420D02*
X25268640Y-14825420D01*
X25268640Y-14825420D02*
G75*
G03*
X25348640Y-14825420I40000J0D01*
G01*
X26138640Y-14750420D02*
X26218640Y-14830420D01*
X26218640Y-14750420D02*
X26138640Y-14830420D01*
X26218640Y-14825420D02*
X26218640Y-14755420D01*
X26138640Y-14755420D02*
G75*
G02*
X26218640Y-14755420I40000J0D01*
G01*
X26138640Y-14755420D02*
X26138640Y-14825420D01*
X26138640Y-14825420D02*
G75*
G03*
X26218640Y-14825420I40000J0D01*
G01*
X24652480Y-12931140D02*
G75*
G02*
X24557480Y-12931140I-47500J0D01*
G01*
X24557480Y-12931140D02*
G75*
G02*
X24652480Y-12931140I47500J0D01*
G01*
X24902480Y-12931140D02*
G75*
G02*
X24807480Y-12931140I-47500J0D01*
G01*
X24807480Y-12931140D02*
G75*
G02*
X24902480Y-12931140I47500J0D01*
G01*
X25152480Y-12931140D02*
G75*
G02*
X25057480Y-12931140I-47500J0D01*
G01*
X25057480Y-12931140D02*
G75*
G02*
X25152480Y-12931140I47500J0D01*
G01*
X25402480Y-12931140D02*
G75*
G02*
X25307480Y-12931140I-47500J0D01*
G01*
X25307480Y-12931140D02*
G75*
G02*
X25402480Y-12931140I47500J0D01*
G01*
D13*
X23993640Y-13552920D02*
X23993640Y-13727920D01*
X23906140Y-13640420D02*
X24081140Y-13640420D01*
X24243640Y-13552920D02*
X24243640Y-13727920D01*
X24156140Y-13640420D02*
X24331140Y-13640420D01*
X24493640Y-13552920D02*
X24493640Y-13727920D01*
X24406140Y-13640420D02*
X24581140Y-13640420D01*
X25493640Y-13552920D02*
X25493640Y-13727920D01*
X25406140Y-13640420D02*
X25581140Y-13640420D01*
X25743640Y-13552920D02*
X25743640Y-13727920D01*
X25656140Y-13640420D02*
X25831140Y-13640420D01*
X25993640Y-13552920D02*
X25993640Y-13727920D01*
X25906140Y-13640420D02*
X26081140Y-13640420D01*
D11*
X23763437Y-15419364D02*
X23763437Y-15219364D01*
X23763437Y-15219364D02*
X23811056Y-15219364D01*
X23811056Y-15219364D02*
X23839627Y-15228888D01*
X23839627Y-15228888D02*
X23858675Y-15247935D01*
X23858675Y-15247935D02*
X23868199Y-15266983D01*
X23868199Y-15266983D02*
X23877722Y-15305078D01*
X23877722Y-15305078D02*
X23877722Y-15333649D01*
X23877722Y-15333649D02*
X23868199Y-15371745D01*
X23868199Y-15371745D02*
X23858675Y-15390792D01*
X23858675Y-15390792D02*
X23839627Y-15409840D01*
X23839627Y-15409840D02*
X23811056Y-15419364D01*
X23811056Y-15419364D02*
X23763437Y-15419364D01*
X23963437Y-15419364D02*
X23963437Y-15286030D01*
X23963437Y-15324126D02*
X23972961Y-15305078D01*
X23972961Y-15305078D02*
X23982484Y-15295554D01*
X23982484Y-15295554D02*
X24001532Y-15286030D01*
X24001532Y-15286030D02*
X24020580Y-15286030D01*
X24087246Y-15419364D02*
X24087246Y-15286030D01*
X24087246Y-15219364D02*
X24077722Y-15228888D01*
X24077722Y-15228888D02*
X24087246Y-15238411D01*
X24087246Y-15238411D02*
X24096770Y-15228888D01*
X24096770Y-15228888D02*
X24087246Y-15219364D01*
X24087246Y-15219364D02*
X24087246Y-15238411D01*
X24211056Y-15419364D02*
X24192008Y-15409840D01*
X24192008Y-15409840D02*
X24182484Y-15390792D01*
X24182484Y-15390792D02*
X24182484Y-15219364D01*
X24315818Y-15419364D02*
X24296770Y-15409840D01*
X24296770Y-15409840D02*
X24287246Y-15390792D01*
X24287246Y-15390792D02*
X24287246Y-15219364D01*
X24544389Y-15419364D02*
X24544389Y-15219364D01*
X24544389Y-15219364D02*
X24611056Y-15362221D01*
X24611056Y-15362221D02*
X24677722Y-15219364D01*
X24677722Y-15219364D02*
X24677722Y-15419364D01*
X24858675Y-15419364D02*
X24858675Y-15314602D01*
X24858675Y-15314602D02*
X24849151Y-15295554D01*
X24849151Y-15295554D02*
X24830103Y-15286030D01*
X24830103Y-15286030D02*
X24792008Y-15286030D01*
X24792008Y-15286030D02*
X24772961Y-15295554D01*
X24858675Y-15409840D02*
X24839627Y-15419364D01*
X24839627Y-15419364D02*
X24792008Y-15419364D01*
X24792008Y-15419364D02*
X24772961Y-15409840D01*
X24772961Y-15409840D02*
X24763437Y-15390792D01*
X24763437Y-15390792D02*
X24763437Y-15371745D01*
X24763437Y-15371745D02*
X24772961Y-15352697D01*
X24772961Y-15352697D02*
X24792008Y-15343173D01*
X24792008Y-15343173D02*
X24839627Y-15343173D01*
X24839627Y-15343173D02*
X24858675Y-15333649D01*
X24953913Y-15286030D02*
X24953913Y-15486030D01*
X24953913Y-15295554D02*
X24972961Y-15286030D01*
X24972961Y-15286030D02*
X25011056Y-15286030D01*
X25011056Y-15286030D02*
X25030103Y-15295554D01*
X25030103Y-15295554D02*
X25039627Y-15305078D01*
X25039627Y-15305078D02*
X25049151Y-15324126D01*
X25049151Y-15324126D02*
X25049151Y-15381268D01*
X25049151Y-15381268D02*
X25039627Y-15400316D01*
X25039627Y-15400316D02*
X25030103Y-15409840D01*
X25030103Y-15409840D02*
X25011056Y-15419364D01*
X25011056Y-15419364D02*
X24972961Y-15419364D01*
X24972961Y-15419364D02*
X24953913Y-15409840D01*
X25134865Y-15400316D02*
X25144389Y-15409840D01*
X25144389Y-15409840D02*
X25134865Y-15419364D01*
X25134865Y-15419364D02*
X25125342Y-15409840D01*
X25125342Y-15409840D02*
X25134865Y-15400316D01*
X25134865Y-15400316D02*
X25134865Y-15419364D01*
X25134865Y-15295554D02*
X25144389Y-15305078D01*
X25144389Y-15305078D02*
X25134865Y-15314602D01*
X25134865Y-15314602D02*
X25125342Y-15305078D01*
X25125342Y-15305078D02*
X25134865Y-15295554D01*
X25134865Y-15295554D02*
X25134865Y-15314602D01*
D12*
X23422660Y-15707880D02*
X23502660Y-15787880D01*
X23502660Y-15707880D02*
X23422660Y-15787880D01*
D11*
X23801532Y-15639364D02*
X23820580Y-15639364D01*
X23820580Y-15639364D02*
X23839627Y-15648888D01*
X23839627Y-15648888D02*
X23849151Y-15658411D01*
X23849151Y-15658411D02*
X23858675Y-15677459D01*
X23858675Y-15677459D02*
X23868199Y-15715554D01*
X23868199Y-15715554D02*
X23868199Y-15763173D01*
X23868199Y-15763173D02*
X23858675Y-15801268D01*
X23858675Y-15801268D02*
X23849151Y-15820316D01*
X23849151Y-15820316D02*
X23839627Y-15829840D01*
X23839627Y-15829840D02*
X23820580Y-15839364D01*
X23820580Y-15839364D02*
X23801532Y-15839364D01*
X23801532Y-15839364D02*
X23782484Y-15829840D01*
X23782484Y-15829840D02*
X23772961Y-15820316D01*
X23772961Y-15820316D02*
X23763437Y-15801268D01*
X23763437Y-15801268D02*
X23753913Y-15763173D01*
X23753913Y-15763173D02*
X23753913Y-15715554D01*
X23753913Y-15715554D02*
X23763437Y-15677459D01*
X23763437Y-15677459D02*
X23772961Y-15658411D01*
X23772961Y-15658411D02*
X23782484Y-15648888D01*
X23782484Y-15648888D02*
X23801532Y-15639364D01*
X23953913Y-15820316D02*
X23963437Y-15829840D01*
X23963437Y-15829840D02*
X23953913Y-15839364D01*
X23953913Y-15839364D02*
X23944389Y-15829840D01*
X23944389Y-15829840D02*
X23953913Y-15820316D01*
X23953913Y-15820316D02*
X23953913Y-15839364D01*
X24077722Y-15725078D02*
X24058675Y-15715554D01*
X24058675Y-15715554D02*
X24049151Y-15706030D01*
X24049151Y-15706030D02*
X24039627Y-15686983D01*
X24039627Y-15686983D02*
X24039627Y-15677459D01*
X24039627Y-15677459D02*
X24049151Y-15658411D01*
X24049151Y-15658411D02*
X24058675Y-15648888D01*
X24058675Y-15648888D02*
X24077722Y-15639364D01*
X24077722Y-15639364D02*
X24115818Y-15639364D01*
X24115818Y-15639364D02*
X24134865Y-15648888D01*
X24134865Y-15648888D02*
X24144389Y-15658411D01*
X24144389Y-15658411D02*
X24153913Y-15677459D01*
X24153913Y-15677459D02*
X24153913Y-15686983D01*
X24153913Y-15686983D02*
X24144389Y-15706030D01*
X24144389Y-15706030D02*
X24134865Y-15715554D01*
X24134865Y-15715554D02*
X24115818Y-15725078D01*
X24115818Y-15725078D02*
X24077722Y-15725078D01*
X24077722Y-15725078D02*
X24058675Y-15734602D01*
X24058675Y-15734602D02*
X24049151Y-15744126D01*
X24049151Y-15744126D02*
X24039627Y-15763173D01*
X24039627Y-15763173D02*
X24039627Y-15801268D01*
X24039627Y-15801268D02*
X24049151Y-15820316D01*
X24049151Y-15820316D02*
X24058675Y-15829840D01*
X24058675Y-15829840D02*
X24077722Y-15839364D01*
X24077722Y-15839364D02*
X24115818Y-15839364D01*
X24115818Y-15839364D02*
X24134865Y-15829840D01*
X24134865Y-15829840D02*
X24144389Y-15820316D01*
X24144389Y-15820316D02*
X24153913Y-15801268D01*
X24153913Y-15801268D02*
X24153913Y-15763173D01*
X24153913Y-15763173D02*
X24144389Y-15744126D01*
X24144389Y-15744126D02*
X24134865Y-15734602D01*
X24134865Y-15734602D02*
X24115818Y-15725078D01*
X24277722Y-15639364D02*
X24296770Y-15639364D01*
X24296770Y-15639364D02*
X24315818Y-15648888D01*
X24315818Y-15648888D02*
X24325342Y-15658411D01*
X24325342Y-15658411D02*
X24334865Y-15677459D01*
X24334865Y-15677459D02*
X24344389Y-15715554D01*
X24344389Y-15715554D02*
X24344389Y-15763173D01*
X24344389Y-15763173D02*
X24334865Y-15801268D01*
X24334865Y-15801268D02*
X24325342Y-15820316D01*
X24325342Y-15820316D02*
X24315818Y-15829840D01*
X24315818Y-15829840D02*
X24296770Y-15839364D01*
X24296770Y-15839364D02*
X24277722Y-15839364D01*
X24277722Y-15839364D02*
X24258675Y-15829840D01*
X24258675Y-15829840D02*
X24249151Y-15820316D01*
X24249151Y-15820316D02*
X24239627Y-15801268D01*
X24239627Y-15801268D02*
X24230103Y-15763173D01*
X24230103Y-15763173D02*
X24230103Y-15715554D01*
X24230103Y-15715554D02*
X24239627Y-15677459D01*
X24239627Y-15677459D02*
X24249151Y-15658411D01*
X24249151Y-15658411D02*
X24258675Y-15648888D01*
X24258675Y-15648888D02*
X24277722Y-15639364D01*
X24468199Y-15639364D02*
X24487246Y-15639364D01*
X24487246Y-15639364D02*
X24506294Y-15648888D01*
X24506294Y-15648888D02*
X24515818Y-15658411D01*
X24515818Y-15658411D02*
X24525342Y-15677459D01*
X24525342Y-15677459D02*
X24534865Y-15715554D01*
X24534865Y-15715554D02*
X24534865Y-15763173D01*
X24534865Y-15763173D02*
X24525342Y-15801268D01*
X24525342Y-15801268D02*
X24515818Y-15820316D01*
X24515818Y-15820316D02*
X24506294Y-15829840D01*
X24506294Y-15829840D02*
X24487246Y-15839364D01*
X24487246Y-15839364D02*
X24468199Y-15839364D01*
X24468199Y-15839364D02*
X24449151Y-15829840D01*
X24449151Y-15829840D02*
X24439627Y-15820316D01*
X24439627Y-15820316D02*
X24430103Y-15801268D01*
X24430103Y-15801268D02*
X24420580Y-15763173D01*
X24420580Y-15763173D02*
X24420580Y-15715554D01*
X24420580Y-15715554D02*
X24430103Y-15677459D01*
X24430103Y-15677459D02*
X24439627Y-15658411D01*
X24439627Y-15658411D02*
X24449151Y-15648888D01*
X24449151Y-15648888D02*
X24468199Y-15639364D01*
X24620580Y-15839364D02*
X24620580Y-15706030D01*
X24620580Y-15725078D02*
X24630103Y-15715554D01*
X24630103Y-15715554D02*
X24649151Y-15706030D01*
X24649151Y-15706030D02*
X24677723Y-15706030D01*
X24677723Y-15706030D02*
X24696770Y-15715554D01*
X24696770Y-15715554D02*
X24706294Y-15734602D01*
X24706294Y-15734602D02*
X24706294Y-15839364D01*
X24706294Y-15734602D02*
X24715818Y-15715554D01*
X24715818Y-15715554D02*
X24734865Y-15706030D01*
X24734865Y-15706030D02*
X24763437Y-15706030D01*
X24763437Y-15706030D02*
X24782484Y-15715554D01*
X24782484Y-15715554D02*
X24792008Y-15734602D01*
X24792008Y-15734602D02*
X24792008Y-15839364D01*
X24887246Y-15839364D02*
X24887246Y-15706030D01*
X24887246Y-15725078D02*
X24896770Y-15715554D01*
X24896770Y-15715554D02*
X24915818Y-15706030D01*
X24915818Y-15706030D02*
X24944389Y-15706030D01*
X24944389Y-15706030D02*
X24963437Y-15715554D01*
X24963437Y-15715554D02*
X24972961Y-15734602D01*
X24972961Y-15734602D02*
X24972961Y-15839364D01*
X24972961Y-15734602D02*
X24982484Y-15715554D01*
X24982484Y-15715554D02*
X25001532Y-15706030D01*
X25001532Y-15706030D02*
X25030103Y-15706030D01*
X25030103Y-15706030D02*
X25049151Y-15715554D01*
X25049151Y-15715554D02*
X25058675Y-15734602D01*
X25058675Y-15734602D02*
X25058675Y-15839364D01*
X25449151Y-15629840D02*
X25277723Y-15886983D01*
X25706294Y-15639364D02*
X25725342Y-15639364D01*
X25725342Y-15639364D02*
X25744389Y-15648888D01*
X25744389Y-15648888D02*
X25753913Y-15658411D01*
X25753913Y-15658411D02*
X25763437Y-15677459D01*
X25763437Y-15677459D02*
X25772961Y-15715554D01*
X25772961Y-15715554D02*
X25772961Y-15763173D01*
X25772961Y-15763173D02*
X25763437Y-15801268D01*
X25763437Y-15801268D02*
X25753913Y-15820316D01*
X25753913Y-15820316D02*
X25744389Y-15829840D01*
X25744389Y-15829840D02*
X25725342Y-15839364D01*
X25725342Y-15839364D02*
X25706294Y-15839364D01*
X25706294Y-15839364D02*
X25687246Y-15829840D01*
X25687246Y-15829840D02*
X25677723Y-15820316D01*
X25677723Y-15820316D02*
X25668199Y-15801268D01*
X25668199Y-15801268D02*
X25658675Y-15763173D01*
X25658675Y-15763173D02*
X25658675Y-15715554D01*
X25658675Y-15715554D02*
X25668199Y-15677459D01*
X25668199Y-15677459D02*
X25677723Y-15658411D01*
X25677723Y-15658411D02*
X25687246Y-15648888D01*
X25687246Y-15648888D02*
X25706294Y-15639364D01*
X25858675Y-15820316D02*
X25868199Y-15829840D01*
X25868199Y-15829840D02*
X25858675Y-15839364D01*
X25858675Y-15839364D02*
X25849151Y-15829840D01*
X25849151Y-15829840D02*
X25858675Y-15820316D01*
X25858675Y-15820316D02*
X25858675Y-15839364D01*
X25992008Y-15639364D02*
X26011056Y-15639364D01*
X26011056Y-15639364D02*
X26030104Y-15648888D01*
X26030104Y-15648888D02*
X26039627Y-15658411D01*
X26039627Y-15658411D02*
X26049151Y-15677459D01*
X26049151Y-15677459D02*
X26058675Y-15715554D01*
X26058675Y-15715554D02*
X26058675Y-15763173D01*
X26058675Y-15763173D02*
X26049151Y-15801268D01*
X26049151Y-15801268D02*
X26039627Y-15820316D01*
X26039627Y-15820316D02*
X26030104Y-15829840D01*
X26030104Y-15829840D02*
X26011056Y-15839364D01*
X26011056Y-15839364D02*
X25992008Y-15839364D01*
X25992008Y-15839364D02*
X25972961Y-15829840D01*
X25972961Y-15829840D02*
X25963437Y-15820316D01*
X25963437Y-15820316D02*
X25953913Y-15801268D01*
X25953913Y-15801268D02*
X25944389Y-15763173D01*
X25944389Y-15763173D02*
X25944389Y-15715554D01*
X25944389Y-15715554D02*
X25953913Y-15677459D01*
X25953913Y-15677459D02*
X25963437Y-15658411D01*
X25963437Y-15658411D02*
X25972961Y-15648888D01*
X25972961Y-15648888D02*
X25992008Y-15639364D01*
X26125342Y-15639364D02*
X26249151Y-15639364D01*
X26249151Y-15639364D02*
X26182485Y-15715554D01*
X26182485Y-15715554D02*
X26211056Y-15715554D01*
X26211056Y-15715554D02*
X26230104Y-15725078D01*
X26230104Y-15725078D02*
X26239627Y-15734602D01*
X26239627Y-15734602D02*
X26249151Y-15753649D01*
X26249151Y-15753649D02*
X26249151Y-15801268D01*
X26249151Y-15801268D02*
X26239627Y-15820316D01*
X26239627Y-15820316D02*
X26230104Y-15829840D01*
X26230104Y-15829840D02*
X26211056Y-15839364D01*
X26211056Y-15839364D02*
X26153913Y-15839364D01*
X26153913Y-15839364D02*
X26134866Y-15829840D01*
X26134866Y-15829840D02*
X26125342Y-15820316D01*
X26439627Y-15839364D02*
X26325342Y-15839364D01*
X26382485Y-15839364D02*
X26382485Y-15639364D01*
X26382485Y-15639364D02*
X26363437Y-15667935D01*
X26363437Y-15667935D02*
X26344389Y-15686983D01*
X26344389Y-15686983D02*
X26325342Y-15696507D01*
X26620580Y-15639364D02*
X26525342Y-15639364D01*
X26525342Y-15639364D02*
X26515818Y-15734602D01*
X26515818Y-15734602D02*
X26525342Y-15725078D01*
X26525342Y-15725078D02*
X26544389Y-15715554D01*
X26544389Y-15715554D02*
X26592008Y-15715554D01*
X26592008Y-15715554D02*
X26611056Y-15725078D01*
X26611056Y-15725078D02*
X26620580Y-15734602D01*
X26620580Y-15734602D02*
X26630104Y-15753649D01*
X26630104Y-15753649D02*
X26630104Y-15801268D01*
X26630104Y-15801268D02*
X26620580Y-15820316D01*
X26620580Y-15820316D02*
X26611056Y-15829840D01*
X26611056Y-15829840D02*
X26592008Y-15839364D01*
X26592008Y-15839364D02*
X26544389Y-15839364D01*
X26544389Y-15839364D02*
X26525342Y-15829840D01*
X26525342Y-15829840D02*
X26515818Y-15820316D01*
X26706294Y-15639364D02*
X26706294Y-15677459D01*
X26782485Y-15639364D02*
X26782485Y-15677459D01*
X27077723Y-15915554D02*
X27068199Y-15906030D01*
X27068199Y-15906030D02*
X27049151Y-15877459D01*
X27049151Y-15877459D02*
X27039628Y-15858411D01*
X27039628Y-15858411D02*
X27030104Y-15829840D01*
X27030104Y-15829840D02*
X27020580Y-15782221D01*
X27020580Y-15782221D02*
X27020580Y-15744126D01*
X27020580Y-15744126D02*
X27030104Y-15696507D01*
X27030104Y-15696507D02*
X27039628Y-15667935D01*
X27039628Y-15667935D02*
X27049151Y-15648888D01*
X27049151Y-15648888D02*
X27068199Y-15620316D01*
X27068199Y-15620316D02*
X27077723Y-15610792D01*
X27192008Y-15639364D02*
X27211056Y-15639364D01*
X27211056Y-15639364D02*
X27230104Y-15648888D01*
X27230104Y-15648888D02*
X27239628Y-15658411D01*
X27239628Y-15658411D02*
X27249151Y-15677459D01*
X27249151Y-15677459D02*
X27258675Y-15715554D01*
X27258675Y-15715554D02*
X27258675Y-15763173D01*
X27258675Y-15763173D02*
X27249151Y-15801268D01*
X27249151Y-15801268D02*
X27239628Y-15820316D01*
X27239628Y-15820316D02*
X27230104Y-15829840D01*
X27230104Y-15829840D02*
X27211056Y-15839364D01*
X27211056Y-15839364D02*
X27192008Y-15839364D01*
X27192008Y-15839364D02*
X27172961Y-15829840D01*
X27172961Y-15829840D02*
X27163437Y-15820316D01*
X27163437Y-15820316D02*
X27153913Y-15801268D01*
X27153913Y-15801268D02*
X27144389Y-15763173D01*
X27144389Y-15763173D02*
X27144389Y-15715554D01*
X27144389Y-15715554D02*
X27153913Y-15677459D01*
X27153913Y-15677459D02*
X27163437Y-15658411D01*
X27163437Y-15658411D02*
X27172961Y-15648888D01*
X27172961Y-15648888D02*
X27192008Y-15639364D01*
X27496770Y-15839364D02*
X27496770Y-15639364D01*
X27582485Y-15839364D02*
X27582485Y-15734602D01*
X27582485Y-15734602D02*
X27572961Y-15715554D01*
X27572961Y-15715554D02*
X27553913Y-15706030D01*
X27553913Y-15706030D02*
X27525342Y-15706030D01*
X27525342Y-15706030D02*
X27506294Y-15715554D01*
X27506294Y-15715554D02*
X27496770Y-15725078D01*
X27706294Y-15839364D02*
X27687247Y-15829840D01*
X27687247Y-15829840D02*
X27677723Y-15820316D01*
X27677723Y-15820316D02*
X27668199Y-15801268D01*
X27668199Y-15801268D02*
X27668199Y-15744126D01*
X27668199Y-15744126D02*
X27677723Y-15725078D01*
X27677723Y-15725078D02*
X27687247Y-15715554D01*
X27687247Y-15715554D02*
X27706294Y-15706030D01*
X27706294Y-15706030D02*
X27734866Y-15706030D01*
X27734866Y-15706030D02*
X27753913Y-15715554D01*
X27753913Y-15715554D02*
X27763437Y-15725078D01*
X27763437Y-15725078D02*
X27772961Y-15744126D01*
X27772961Y-15744126D02*
X27772961Y-15801268D01*
X27772961Y-15801268D02*
X27763437Y-15820316D01*
X27763437Y-15820316D02*
X27753913Y-15829840D01*
X27753913Y-15829840D02*
X27734866Y-15839364D01*
X27734866Y-15839364D02*
X27706294Y-15839364D01*
X27887247Y-15839364D02*
X27868199Y-15829840D01*
X27868199Y-15829840D02*
X27858675Y-15810792D01*
X27858675Y-15810792D02*
X27858675Y-15639364D01*
X28039628Y-15829840D02*
X28020580Y-15839364D01*
X28020580Y-15839364D02*
X27982485Y-15839364D01*
X27982485Y-15839364D02*
X27963437Y-15829840D01*
X27963437Y-15829840D02*
X27953913Y-15810792D01*
X27953913Y-15810792D02*
X27953913Y-15734602D01*
X27953913Y-15734602D02*
X27963437Y-15715554D01*
X27963437Y-15715554D02*
X27982485Y-15706030D01*
X27982485Y-15706030D02*
X28020580Y-15706030D01*
X28020580Y-15706030D02*
X28039628Y-15715554D01*
X28039628Y-15715554D02*
X28049151Y-15734602D01*
X28049151Y-15734602D02*
X28049151Y-15753649D01*
X28049151Y-15753649D02*
X27953913Y-15772697D01*
X28125342Y-15829840D02*
X28144390Y-15839364D01*
X28144390Y-15839364D02*
X28182485Y-15839364D01*
X28182485Y-15839364D02*
X28201532Y-15829840D01*
X28201532Y-15829840D02*
X28211056Y-15810792D01*
X28211056Y-15810792D02*
X28211056Y-15801268D01*
X28211056Y-15801268D02*
X28201532Y-15782221D01*
X28201532Y-15782221D02*
X28182485Y-15772697D01*
X28182485Y-15772697D02*
X28153913Y-15772697D01*
X28153913Y-15772697D02*
X28134866Y-15763173D01*
X28134866Y-15763173D02*
X28125342Y-15744126D01*
X28125342Y-15744126D02*
X28125342Y-15734602D01*
X28125342Y-15734602D02*
X28134866Y-15715554D01*
X28134866Y-15715554D02*
X28153913Y-15706030D01*
X28153913Y-15706030D02*
X28182485Y-15706030D01*
X28182485Y-15706030D02*
X28201532Y-15715554D01*
X28449152Y-15763173D02*
X28601533Y-15763173D01*
X28525342Y-15839364D02*
X28525342Y-15686983D01*
X28934866Y-15706030D02*
X28934866Y-15839364D01*
X28887247Y-15629840D02*
X28839628Y-15772697D01*
X28839628Y-15772697D02*
X28963437Y-15772697D01*
X29182485Y-15829840D02*
X29201533Y-15839364D01*
X29201533Y-15839364D02*
X29239628Y-15839364D01*
X29239628Y-15839364D02*
X29258675Y-15829840D01*
X29258675Y-15829840D02*
X29268199Y-15810792D01*
X29268199Y-15810792D02*
X29268199Y-15801268D01*
X29268199Y-15801268D02*
X29258675Y-15782221D01*
X29258675Y-15782221D02*
X29239628Y-15772697D01*
X29239628Y-15772697D02*
X29211056Y-15772697D01*
X29211056Y-15772697D02*
X29192009Y-15763173D01*
X29192009Y-15763173D02*
X29182485Y-15744126D01*
X29182485Y-15744126D02*
X29182485Y-15734602D01*
X29182485Y-15734602D02*
X29192009Y-15715554D01*
X29192009Y-15715554D02*
X29211056Y-15706030D01*
X29211056Y-15706030D02*
X29239628Y-15706030D01*
X29239628Y-15706030D02*
X29258675Y-15715554D01*
X29382485Y-15839364D02*
X29363437Y-15829840D01*
X29363437Y-15829840D02*
X29353914Y-15810792D01*
X29353914Y-15810792D02*
X29353914Y-15639364D01*
X29487247Y-15839364D02*
X29468199Y-15829840D01*
X29468199Y-15829840D02*
X29458675Y-15820316D01*
X29458675Y-15820316D02*
X29449152Y-15801268D01*
X29449152Y-15801268D02*
X29449152Y-15744126D01*
X29449152Y-15744126D02*
X29458675Y-15725078D01*
X29458675Y-15725078D02*
X29468199Y-15715554D01*
X29468199Y-15715554D02*
X29487247Y-15706030D01*
X29487247Y-15706030D02*
X29515818Y-15706030D01*
X29515818Y-15706030D02*
X29534866Y-15715554D01*
X29534866Y-15715554D02*
X29544390Y-15725078D01*
X29544390Y-15725078D02*
X29553914Y-15744126D01*
X29553914Y-15744126D02*
X29553914Y-15801268D01*
X29553914Y-15801268D02*
X29544390Y-15820316D01*
X29544390Y-15820316D02*
X29534866Y-15829840D01*
X29534866Y-15829840D02*
X29515818Y-15839364D01*
X29515818Y-15839364D02*
X29487247Y-15839364D01*
X29611056Y-15706030D02*
X29687247Y-15706030D01*
X29639628Y-15639364D02*
X29639628Y-15810792D01*
X29639628Y-15810792D02*
X29649152Y-15829840D01*
X29649152Y-15829840D02*
X29668199Y-15839364D01*
X29668199Y-15839364D02*
X29687247Y-15839364D01*
X29744390Y-15829840D02*
X29763437Y-15839364D01*
X29763437Y-15839364D02*
X29801533Y-15839364D01*
X29801533Y-15839364D02*
X29820580Y-15829840D01*
X29820580Y-15829840D02*
X29830104Y-15810792D01*
X29830104Y-15810792D02*
X29830104Y-15801268D01*
X29830104Y-15801268D02*
X29820580Y-15782221D01*
X29820580Y-15782221D02*
X29801533Y-15772697D01*
X29801533Y-15772697D02*
X29772961Y-15772697D01*
X29772961Y-15772697D02*
X29753914Y-15763173D01*
X29753914Y-15763173D02*
X29744390Y-15744126D01*
X29744390Y-15744126D02*
X29744390Y-15734602D01*
X29744390Y-15734602D02*
X29753914Y-15715554D01*
X29753914Y-15715554D02*
X29772961Y-15706030D01*
X29772961Y-15706030D02*
X29801533Y-15706030D01*
X29801533Y-15706030D02*
X29820580Y-15715554D01*
X29896771Y-15915554D02*
X29906295Y-15906030D01*
X29906295Y-15906030D02*
X29925342Y-15877459D01*
X29925342Y-15877459D02*
X29934866Y-15858411D01*
X29934866Y-15858411D02*
X29944390Y-15829840D01*
X29944390Y-15829840D02*
X29953914Y-15782221D01*
X29953914Y-15782221D02*
X29953914Y-15744126D01*
X29953914Y-15744126D02*
X29944390Y-15696507D01*
X29944390Y-15696507D02*
X29934866Y-15667935D01*
X29934866Y-15667935D02*
X29925342Y-15648888D01*
X29925342Y-15648888D02*
X29906295Y-15620316D01*
X29906295Y-15620316D02*
X29896771Y-15610792D01*
D12*
X23502660Y-16011880D02*
G75*
G02*
X23407660Y-16011880I-47500J0D01*
G01*
X23407660Y-16011880D02*
G75*
G02*
X23502660Y-16011880I47500J0D01*
G01*
D11*
X23801532Y-15903364D02*
X23820580Y-15903364D01*
X23820580Y-15903364D02*
X23839627Y-15912888D01*
X23839627Y-15912888D02*
X23849151Y-15922411D01*
X23849151Y-15922411D02*
X23858675Y-15941459D01*
X23858675Y-15941459D02*
X23868199Y-15979554D01*
X23868199Y-15979554D02*
X23868199Y-16027173D01*
X23868199Y-16027173D02*
X23858675Y-16065268D01*
X23858675Y-16065268D02*
X23849151Y-16084316D01*
X23849151Y-16084316D02*
X23839627Y-16093840D01*
X23839627Y-16093840D02*
X23820580Y-16103364D01*
X23820580Y-16103364D02*
X23801532Y-16103364D01*
X23801532Y-16103364D02*
X23782484Y-16093840D01*
X23782484Y-16093840D02*
X23772961Y-16084316D01*
X23772961Y-16084316D02*
X23763437Y-16065268D01*
X23763437Y-16065268D02*
X23753913Y-16027173D01*
X23753913Y-16027173D02*
X23753913Y-15979554D01*
X23753913Y-15979554D02*
X23763437Y-15941459D01*
X23763437Y-15941459D02*
X23772961Y-15922411D01*
X23772961Y-15922411D02*
X23782484Y-15912888D01*
X23782484Y-15912888D02*
X23801532Y-15903364D01*
X23953913Y-16084316D02*
X23963437Y-16093840D01*
X23963437Y-16093840D02*
X23953913Y-16103364D01*
X23953913Y-16103364D02*
X23944389Y-16093840D01*
X23944389Y-16093840D02*
X23953913Y-16084316D01*
X23953913Y-16084316D02*
X23953913Y-16103364D01*
X24058675Y-16103364D02*
X24096770Y-16103364D01*
X24096770Y-16103364D02*
X24115818Y-16093840D01*
X24115818Y-16093840D02*
X24125342Y-16084316D01*
X24125342Y-16084316D02*
X24144389Y-16055745D01*
X24144389Y-16055745D02*
X24153913Y-16017649D01*
X24153913Y-16017649D02*
X24153913Y-15941459D01*
X24153913Y-15941459D02*
X24144389Y-15922411D01*
X24144389Y-15922411D02*
X24134865Y-15912888D01*
X24134865Y-15912888D02*
X24115818Y-15903364D01*
X24115818Y-15903364D02*
X24077722Y-15903364D01*
X24077722Y-15903364D02*
X24058675Y-15912888D01*
X24058675Y-15912888D02*
X24049151Y-15922411D01*
X24049151Y-15922411D02*
X24039627Y-15941459D01*
X24039627Y-15941459D02*
X24039627Y-15989078D01*
X24039627Y-15989078D02*
X24049151Y-16008126D01*
X24049151Y-16008126D02*
X24058675Y-16017649D01*
X24058675Y-16017649D02*
X24077722Y-16027173D01*
X24077722Y-16027173D02*
X24115818Y-16027173D01*
X24115818Y-16027173D02*
X24134865Y-16017649D01*
X24134865Y-16017649D02*
X24144389Y-16008126D01*
X24144389Y-16008126D02*
X24153913Y-15989078D01*
X24334865Y-15903364D02*
X24239627Y-15903364D01*
X24239627Y-15903364D02*
X24230103Y-15998602D01*
X24230103Y-15998602D02*
X24239627Y-15989078D01*
X24239627Y-15989078D02*
X24258675Y-15979554D01*
X24258675Y-15979554D02*
X24306294Y-15979554D01*
X24306294Y-15979554D02*
X24325342Y-15989078D01*
X24325342Y-15989078D02*
X24334865Y-15998602D01*
X24334865Y-15998602D02*
X24344389Y-16017649D01*
X24344389Y-16017649D02*
X24344389Y-16065268D01*
X24344389Y-16065268D02*
X24334865Y-16084316D01*
X24334865Y-16084316D02*
X24325342Y-16093840D01*
X24325342Y-16093840D02*
X24306294Y-16103364D01*
X24306294Y-16103364D02*
X24258675Y-16103364D01*
X24258675Y-16103364D02*
X24239627Y-16093840D01*
X24239627Y-16093840D02*
X24230103Y-16084316D01*
X24468199Y-15903364D02*
X24487246Y-15903364D01*
X24487246Y-15903364D02*
X24506294Y-15912888D01*
X24506294Y-15912888D02*
X24515818Y-15922411D01*
X24515818Y-15922411D02*
X24525342Y-15941459D01*
X24525342Y-15941459D02*
X24534865Y-15979554D01*
X24534865Y-15979554D02*
X24534865Y-16027173D01*
X24534865Y-16027173D02*
X24525342Y-16065268D01*
X24525342Y-16065268D02*
X24515818Y-16084316D01*
X24515818Y-16084316D02*
X24506294Y-16093840D01*
X24506294Y-16093840D02*
X24487246Y-16103364D01*
X24487246Y-16103364D02*
X24468199Y-16103364D01*
X24468199Y-16103364D02*
X24449151Y-16093840D01*
X24449151Y-16093840D02*
X24439627Y-16084316D01*
X24439627Y-16084316D02*
X24430103Y-16065268D01*
X24430103Y-16065268D02*
X24420580Y-16027173D01*
X24420580Y-16027173D02*
X24420580Y-15979554D01*
X24420580Y-15979554D02*
X24430103Y-15941459D01*
X24430103Y-15941459D02*
X24439627Y-15922411D01*
X24439627Y-15922411D02*
X24449151Y-15912888D01*
X24449151Y-15912888D02*
X24468199Y-15903364D01*
X24620580Y-16103364D02*
X24620580Y-15970030D01*
X24620580Y-15989078D02*
X24630103Y-15979554D01*
X24630103Y-15979554D02*
X24649151Y-15970030D01*
X24649151Y-15970030D02*
X24677723Y-15970030D01*
X24677723Y-15970030D02*
X24696770Y-15979554D01*
X24696770Y-15979554D02*
X24706294Y-15998602D01*
X24706294Y-15998602D02*
X24706294Y-16103364D01*
X24706294Y-15998602D02*
X24715818Y-15979554D01*
X24715818Y-15979554D02*
X24734865Y-15970030D01*
X24734865Y-15970030D02*
X24763437Y-15970030D01*
X24763437Y-15970030D02*
X24782484Y-15979554D01*
X24782484Y-15979554D02*
X24792008Y-15998602D01*
X24792008Y-15998602D02*
X24792008Y-16103364D01*
X24887246Y-16103364D02*
X24887246Y-15970030D01*
X24887246Y-15989078D02*
X24896770Y-15979554D01*
X24896770Y-15979554D02*
X24915818Y-15970030D01*
X24915818Y-15970030D02*
X24944389Y-15970030D01*
X24944389Y-15970030D02*
X24963437Y-15979554D01*
X24963437Y-15979554D02*
X24972961Y-15998602D01*
X24972961Y-15998602D02*
X24972961Y-16103364D01*
X24972961Y-15998602D02*
X24982484Y-15979554D01*
X24982484Y-15979554D02*
X25001532Y-15970030D01*
X25001532Y-15970030D02*
X25030103Y-15970030D01*
X25030103Y-15970030D02*
X25049151Y-15979554D01*
X25049151Y-15979554D02*
X25058675Y-15998602D01*
X25058675Y-15998602D02*
X25058675Y-16103364D01*
X25449151Y-15893840D02*
X25277723Y-16150983D01*
X25706294Y-15903364D02*
X25725342Y-15903364D01*
X25725342Y-15903364D02*
X25744389Y-15912888D01*
X25744389Y-15912888D02*
X25753913Y-15922411D01*
X25753913Y-15922411D02*
X25763437Y-15941459D01*
X25763437Y-15941459D02*
X25772961Y-15979554D01*
X25772961Y-15979554D02*
X25772961Y-16027173D01*
X25772961Y-16027173D02*
X25763437Y-16065268D01*
X25763437Y-16065268D02*
X25753913Y-16084316D01*
X25753913Y-16084316D02*
X25744389Y-16093840D01*
X25744389Y-16093840D02*
X25725342Y-16103364D01*
X25725342Y-16103364D02*
X25706294Y-16103364D01*
X25706294Y-16103364D02*
X25687246Y-16093840D01*
X25687246Y-16093840D02*
X25677723Y-16084316D01*
X25677723Y-16084316D02*
X25668199Y-16065268D01*
X25668199Y-16065268D02*
X25658675Y-16027173D01*
X25658675Y-16027173D02*
X25658675Y-15979554D01*
X25658675Y-15979554D02*
X25668199Y-15941459D01*
X25668199Y-15941459D02*
X25677723Y-15922411D01*
X25677723Y-15922411D02*
X25687246Y-15912888D01*
X25687246Y-15912888D02*
X25706294Y-15903364D01*
X25858675Y-16084316D02*
X25868199Y-16093840D01*
X25868199Y-16093840D02*
X25858675Y-16103364D01*
X25858675Y-16103364D02*
X25849151Y-16093840D01*
X25849151Y-16093840D02*
X25858675Y-16084316D01*
X25858675Y-16084316D02*
X25858675Y-16103364D01*
X25992008Y-15903364D02*
X26011056Y-15903364D01*
X26011056Y-15903364D02*
X26030104Y-15912888D01*
X26030104Y-15912888D02*
X26039627Y-15922411D01*
X26039627Y-15922411D02*
X26049151Y-15941459D01*
X26049151Y-15941459D02*
X26058675Y-15979554D01*
X26058675Y-15979554D02*
X26058675Y-16027173D01*
X26058675Y-16027173D02*
X26049151Y-16065268D01*
X26049151Y-16065268D02*
X26039627Y-16084316D01*
X26039627Y-16084316D02*
X26030104Y-16093840D01*
X26030104Y-16093840D02*
X26011056Y-16103364D01*
X26011056Y-16103364D02*
X25992008Y-16103364D01*
X25992008Y-16103364D02*
X25972961Y-16093840D01*
X25972961Y-16093840D02*
X25963437Y-16084316D01*
X25963437Y-16084316D02*
X25953913Y-16065268D01*
X25953913Y-16065268D02*
X25944389Y-16027173D01*
X25944389Y-16027173D02*
X25944389Y-15979554D01*
X25944389Y-15979554D02*
X25953913Y-15941459D01*
X25953913Y-15941459D02*
X25963437Y-15922411D01*
X25963437Y-15922411D02*
X25972961Y-15912888D01*
X25972961Y-15912888D02*
X25992008Y-15903364D01*
X26125342Y-15903364D02*
X26249151Y-15903364D01*
X26249151Y-15903364D02*
X26182485Y-15979554D01*
X26182485Y-15979554D02*
X26211056Y-15979554D01*
X26211056Y-15979554D02*
X26230104Y-15989078D01*
X26230104Y-15989078D02*
X26239627Y-15998602D01*
X26239627Y-15998602D02*
X26249151Y-16017649D01*
X26249151Y-16017649D02*
X26249151Y-16065268D01*
X26249151Y-16065268D02*
X26239627Y-16084316D01*
X26239627Y-16084316D02*
X26230104Y-16093840D01*
X26230104Y-16093840D02*
X26211056Y-16103364D01*
X26211056Y-16103364D02*
X26153913Y-16103364D01*
X26153913Y-16103364D02*
X26134866Y-16093840D01*
X26134866Y-16093840D02*
X26125342Y-16084316D01*
X26315818Y-15903364D02*
X26449151Y-15903364D01*
X26449151Y-15903364D02*
X26363437Y-16103364D01*
X26611056Y-15970030D02*
X26611056Y-16103364D01*
X26563437Y-15893840D02*
X26515818Y-16036697D01*
X26515818Y-16036697D02*
X26639627Y-16036697D01*
X26706294Y-15903364D02*
X26706294Y-15941459D01*
X26782485Y-15903364D02*
X26782485Y-15941459D01*
X27077723Y-16179554D02*
X27068199Y-16170030D01*
X27068199Y-16170030D02*
X27049151Y-16141459D01*
X27049151Y-16141459D02*
X27039628Y-16122411D01*
X27039628Y-16122411D02*
X27030104Y-16093840D01*
X27030104Y-16093840D02*
X27020580Y-16046221D01*
X27020580Y-16046221D02*
X27020580Y-16008126D01*
X27020580Y-16008126D02*
X27030104Y-15960507D01*
X27030104Y-15960507D02*
X27039628Y-15931935D01*
X27039628Y-15931935D02*
X27049151Y-15912888D01*
X27049151Y-15912888D02*
X27068199Y-15884316D01*
X27068199Y-15884316D02*
X27077723Y-15874792D01*
X27239628Y-15970030D02*
X27239628Y-16103364D01*
X27192008Y-15893840D02*
X27144389Y-16036697D01*
X27144389Y-16036697D02*
X27268199Y-16036697D01*
X27496770Y-16103364D02*
X27496770Y-15903364D01*
X27582485Y-16103364D02*
X27582485Y-15998602D01*
X27582485Y-15998602D02*
X27572961Y-15979554D01*
X27572961Y-15979554D02*
X27553913Y-15970030D01*
X27553913Y-15970030D02*
X27525342Y-15970030D01*
X27525342Y-15970030D02*
X27506294Y-15979554D01*
X27506294Y-15979554D02*
X27496770Y-15989078D01*
X27706294Y-16103364D02*
X27687247Y-16093840D01*
X27687247Y-16093840D02*
X27677723Y-16084316D01*
X27677723Y-16084316D02*
X27668199Y-16065268D01*
X27668199Y-16065268D02*
X27668199Y-16008126D01*
X27668199Y-16008126D02*
X27677723Y-15989078D01*
X27677723Y-15989078D02*
X27687247Y-15979554D01*
X27687247Y-15979554D02*
X27706294Y-15970030D01*
X27706294Y-15970030D02*
X27734866Y-15970030D01*
X27734866Y-15970030D02*
X27753913Y-15979554D01*
X27753913Y-15979554D02*
X27763437Y-15989078D01*
X27763437Y-15989078D02*
X27772961Y-16008126D01*
X27772961Y-16008126D02*
X27772961Y-16065268D01*
X27772961Y-16065268D02*
X27763437Y-16084316D01*
X27763437Y-16084316D02*
X27753913Y-16093840D01*
X27753913Y-16093840D02*
X27734866Y-16103364D01*
X27734866Y-16103364D02*
X27706294Y-16103364D01*
X27887247Y-16103364D02*
X27868199Y-16093840D01*
X27868199Y-16093840D02*
X27858675Y-16074792D01*
X27858675Y-16074792D02*
X27858675Y-15903364D01*
X28039628Y-16093840D02*
X28020580Y-16103364D01*
X28020580Y-16103364D02*
X27982485Y-16103364D01*
X27982485Y-16103364D02*
X27963437Y-16093840D01*
X27963437Y-16093840D02*
X27953913Y-16074792D01*
X27953913Y-16074792D02*
X27953913Y-15998602D01*
X27953913Y-15998602D02*
X27963437Y-15979554D01*
X27963437Y-15979554D02*
X27982485Y-15970030D01*
X27982485Y-15970030D02*
X28020580Y-15970030D01*
X28020580Y-15970030D02*
X28039628Y-15979554D01*
X28039628Y-15979554D02*
X28049151Y-15998602D01*
X28049151Y-15998602D02*
X28049151Y-16017649D01*
X28049151Y-16017649D02*
X27953913Y-16036697D01*
X28125342Y-16093840D02*
X28144390Y-16103364D01*
X28144390Y-16103364D02*
X28182485Y-16103364D01*
X28182485Y-16103364D02*
X28201532Y-16093840D01*
X28201532Y-16093840D02*
X28211056Y-16074792D01*
X28211056Y-16074792D02*
X28211056Y-16065268D01*
X28211056Y-16065268D02*
X28201532Y-16046221D01*
X28201532Y-16046221D02*
X28182485Y-16036697D01*
X28182485Y-16036697D02*
X28153913Y-16036697D01*
X28153913Y-16036697D02*
X28134866Y-16027173D01*
X28134866Y-16027173D02*
X28125342Y-16008126D01*
X28125342Y-16008126D02*
X28125342Y-15998602D01*
X28125342Y-15998602D02*
X28134866Y-15979554D01*
X28134866Y-15979554D02*
X28153913Y-15970030D01*
X28153913Y-15970030D02*
X28182485Y-15970030D01*
X28182485Y-15970030D02*
X28201532Y-15979554D01*
X28277723Y-16179554D02*
X28287247Y-16170030D01*
X28287247Y-16170030D02*
X28306294Y-16141459D01*
X28306294Y-16141459D02*
X28315818Y-16122411D01*
X28315818Y-16122411D02*
X28325342Y-16093840D01*
X28325342Y-16093840D02*
X28334866Y-16046221D01*
X28334866Y-16046221D02*
X28334866Y-16008126D01*
X28334866Y-16008126D02*
X28325342Y-15960507D01*
X28325342Y-15960507D02*
X28315818Y-15931935D01*
X28315818Y-15931935D02*
X28306294Y-15912888D01*
X28306294Y-15912888D02*
X28287247Y-15884316D01*
X28287247Y-15884316D02*
X28277723Y-15874792D01*
D13*
X23415160Y-16188380D02*
X23415160Y-16363380D01*
X23327660Y-16275880D02*
X23502660Y-16275880D01*
D11*
X23868199Y-16367364D02*
X23753913Y-16367364D01*
X23811056Y-16367364D02*
X23811056Y-16167364D01*
X23811056Y-16167364D02*
X23792008Y-16195935D01*
X23792008Y-16195935D02*
X23772961Y-16214983D01*
X23772961Y-16214983D02*
X23753913Y-16224507D01*
X23953913Y-16348316D02*
X23963437Y-16357840D01*
X23963437Y-16357840D02*
X23953913Y-16367364D01*
X23953913Y-16367364D02*
X23944389Y-16357840D01*
X23944389Y-16357840D02*
X23953913Y-16348316D01*
X23953913Y-16348316D02*
X23953913Y-16367364D01*
X24030103Y-16167364D02*
X24163437Y-16167364D01*
X24163437Y-16167364D02*
X24077722Y-16367364D01*
X24334865Y-16167364D02*
X24239627Y-16167364D01*
X24239627Y-16167364D02*
X24230103Y-16262602D01*
X24230103Y-16262602D02*
X24239627Y-16253078D01*
X24239627Y-16253078D02*
X24258675Y-16243554D01*
X24258675Y-16243554D02*
X24306294Y-16243554D01*
X24306294Y-16243554D02*
X24325342Y-16253078D01*
X24325342Y-16253078D02*
X24334865Y-16262602D01*
X24334865Y-16262602D02*
X24344389Y-16281649D01*
X24344389Y-16281649D02*
X24344389Y-16329268D01*
X24344389Y-16329268D02*
X24334865Y-16348316D01*
X24334865Y-16348316D02*
X24325342Y-16357840D01*
X24325342Y-16357840D02*
X24306294Y-16367364D01*
X24306294Y-16367364D02*
X24258675Y-16367364D01*
X24258675Y-16367364D02*
X24239627Y-16357840D01*
X24239627Y-16357840D02*
X24230103Y-16348316D01*
X24468199Y-16167364D02*
X24487246Y-16167364D01*
X24487246Y-16167364D02*
X24506294Y-16176888D01*
X24506294Y-16176888D02*
X24515818Y-16186411D01*
X24515818Y-16186411D02*
X24525342Y-16205459D01*
X24525342Y-16205459D02*
X24534865Y-16243554D01*
X24534865Y-16243554D02*
X24534865Y-16291173D01*
X24534865Y-16291173D02*
X24525342Y-16329268D01*
X24525342Y-16329268D02*
X24515818Y-16348316D01*
X24515818Y-16348316D02*
X24506294Y-16357840D01*
X24506294Y-16357840D02*
X24487246Y-16367364D01*
X24487246Y-16367364D02*
X24468199Y-16367364D01*
X24468199Y-16367364D02*
X24449151Y-16357840D01*
X24449151Y-16357840D02*
X24439627Y-16348316D01*
X24439627Y-16348316D02*
X24430103Y-16329268D01*
X24430103Y-16329268D02*
X24420580Y-16291173D01*
X24420580Y-16291173D02*
X24420580Y-16243554D01*
X24420580Y-16243554D02*
X24430103Y-16205459D01*
X24430103Y-16205459D02*
X24439627Y-16186411D01*
X24439627Y-16186411D02*
X24449151Y-16176888D01*
X24449151Y-16176888D02*
X24468199Y-16167364D01*
X24620580Y-16367364D02*
X24620580Y-16234030D01*
X24620580Y-16253078D02*
X24630103Y-16243554D01*
X24630103Y-16243554D02*
X24649151Y-16234030D01*
X24649151Y-16234030D02*
X24677723Y-16234030D01*
X24677723Y-16234030D02*
X24696770Y-16243554D01*
X24696770Y-16243554D02*
X24706294Y-16262602D01*
X24706294Y-16262602D02*
X24706294Y-16367364D01*
X24706294Y-16262602D02*
X24715818Y-16243554D01*
X24715818Y-16243554D02*
X24734865Y-16234030D01*
X24734865Y-16234030D02*
X24763437Y-16234030D01*
X24763437Y-16234030D02*
X24782484Y-16243554D01*
X24782484Y-16243554D02*
X24792008Y-16262602D01*
X24792008Y-16262602D02*
X24792008Y-16367364D01*
X24887246Y-16367364D02*
X24887246Y-16234030D01*
X24887246Y-16253078D02*
X24896770Y-16243554D01*
X24896770Y-16243554D02*
X24915818Y-16234030D01*
X24915818Y-16234030D02*
X24944389Y-16234030D01*
X24944389Y-16234030D02*
X24963437Y-16243554D01*
X24963437Y-16243554D02*
X24972961Y-16262602D01*
X24972961Y-16262602D02*
X24972961Y-16367364D01*
X24972961Y-16262602D02*
X24982484Y-16243554D01*
X24982484Y-16243554D02*
X25001532Y-16234030D01*
X25001532Y-16234030D02*
X25030103Y-16234030D01*
X25030103Y-16234030D02*
X25049151Y-16243554D01*
X25049151Y-16243554D02*
X25058675Y-16262602D01*
X25058675Y-16262602D02*
X25058675Y-16367364D01*
X25449151Y-16157840D02*
X25277723Y-16414983D01*
X25706294Y-16167364D02*
X25725342Y-16167364D01*
X25725342Y-16167364D02*
X25744389Y-16176888D01*
X25744389Y-16176888D02*
X25753913Y-16186411D01*
X25753913Y-16186411D02*
X25763437Y-16205459D01*
X25763437Y-16205459D02*
X25772961Y-16243554D01*
X25772961Y-16243554D02*
X25772961Y-16291173D01*
X25772961Y-16291173D02*
X25763437Y-16329268D01*
X25763437Y-16329268D02*
X25753913Y-16348316D01*
X25753913Y-16348316D02*
X25744389Y-16357840D01*
X25744389Y-16357840D02*
X25725342Y-16367364D01*
X25725342Y-16367364D02*
X25706294Y-16367364D01*
X25706294Y-16367364D02*
X25687246Y-16357840D01*
X25687246Y-16357840D02*
X25677723Y-16348316D01*
X25677723Y-16348316D02*
X25668199Y-16329268D01*
X25668199Y-16329268D02*
X25658675Y-16291173D01*
X25658675Y-16291173D02*
X25658675Y-16243554D01*
X25658675Y-16243554D02*
X25668199Y-16205459D01*
X25668199Y-16205459D02*
X25677723Y-16186411D01*
X25677723Y-16186411D02*
X25687246Y-16176888D01*
X25687246Y-16176888D02*
X25706294Y-16167364D01*
X25858675Y-16348316D02*
X25868199Y-16357840D01*
X25868199Y-16357840D02*
X25858675Y-16367364D01*
X25858675Y-16367364D02*
X25849151Y-16357840D01*
X25849151Y-16357840D02*
X25858675Y-16348316D01*
X25858675Y-16348316D02*
X25858675Y-16367364D01*
X25992008Y-16167364D02*
X26011056Y-16167364D01*
X26011056Y-16167364D02*
X26030104Y-16176888D01*
X26030104Y-16176888D02*
X26039627Y-16186411D01*
X26039627Y-16186411D02*
X26049151Y-16205459D01*
X26049151Y-16205459D02*
X26058675Y-16243554D01*
X26058675Y-16243554D02*
X26058675Y-16291173D01*
X26058675Y-16291173D02*
X26049151Y-16329268D01*
X26049151Y-16329268D02*
X26039627Y-16348316D01*
X26039627Y-16348316D02*
X26030104Y-16357840D01*
X26030104Y-16357840D02*
X26011056Y-16367364D01*
X26011056Y-16367364D02*
X25992008Y-16367364D01*
X25992008Y-16367364D02*
X25972961Y-16357840D01*
X25972961Y-16357840D02*
X25963437Y-16348316D01*
X25963437Y-16348316D02*
X25953913Y-16329268D01*
X25953913Y-16329268D02*
X25944389Y-16291173D01*
X25944389Y-16291173D02*
X25944389Y-16243554D01*
X25944389Y-16243554D02*
X25953913Y-16205459D01*
X25953913Y-16205459D02*
X25963437Y-16186411D01*
X25963437Y-16186411D02*
X25972961Y-16176888D01*
X25972961Y-16176888D02*
X25992008Y-16167364D01*
X26230104Y-16167364D02*
X26192008Y-16167364D01*
X26192008Y-16167364D02*
X26172961Y-16176888D01*
X26172961Y-16176888D02*
X26163437Y-16186411D01*
X26163437Y-16186411D02*
X26144389Y-16214983D01*
X26144389Y-16214983D02*
X26134866Y-16253078D01*
X26134866Y-16253078D02*
X26134866Y-16329268D01*
X26134866Y-16329268D02*
X26144389Y-16348316D01*
X26144389Y-16348316D02*
X26153913Y-16357840D01*
X26153913Y-16357840D02*
X26172961Y-16367364D01*
X26172961Y-16367364D02*
X26211056Y-16367364D01*
X26211056Y-16367364D02*
X26230104Y-16357840D01*
X26230104Y-16357840D02*
X26239627Y-16348316D01*
X26239627Y-16348316D02*
X26249151Y-16329268D01*
X26249151Y-16329268D02*
X26249151Y-16281649D01*
X26249151Y-16281649D02*
X26239627Y-16262602D01*
X26239627Y-16262602D02*
X26230104Y-16253078D01*
X26230104Y-16253078D02*
X26211056Y-16243554D01*
X26211056Y-16243554D02*
X26172961Y-16243554D01*
X26172961Y-16243554D02*
X26153913Y-16253078D01*
X26153913Y-16253078D02*
X26144389Y-16262602D01*
X26144389Y-16262602D02*
X26134866Y-16281649D01*
X26363437Y-16253078D02*
X26344389Y-16243554D01*
X26344389Y-16243554D02*
X26334866Y-16234030D01*
X26334866Y-16234030D02*
X26325342Y-16214983D01*
X26325342Y-16214983D02*
X26325342Y-16205459D01*
X26325342Y-16205459D02*
X26334866Y-16186411D01*
X26334866Y-16186411D02*
X26344389Y-16176888D01*
X26344389Y-16176888D02*
X26363437Y-16167364D01*
X26363437Y-16167364D02*
X26401532Y-16167364D01*
X26401532Y-16167364D02*
X26420580Y-16176888D01*
X26420580Y-16176888D02*
X26430104Y-16186411D01*
X26430104Y-16186411D02*
X26439627Y-16205459D01*
X26439627Y-16205459D02*
X26439627Y-16214983D01*
X26439627Y-16214983D02*
X26430104Y-16234030D01*
X26430104Y-16234030D02*
X26420580Y-16243554D01*
X26420580Y-16243554D02*
X26401532Y-16253078D01*
X26401532Y-16253078D02*
X26363437Y-16253078D01*
X26363437Y-16253078D02*
X26344389Y-16262602D01*
X26344389Y-16262602D02*
X26334866Y-16272126D01*
X26334866Y-16272126D02*
X26325342Y-16291173D01*
X26325342Y-16291173D02*
X26325342Y-16329268D01*
X26325342Y-16329268D02*
X26334866Y-16348316D01*
X26334866Y-16348316D02*
X26344389Y-16357840D01*
X26344389Y-16357840D02*
X26363437Y-16367364D01*
X26363437Y-16367364D02*
X26401532Y-16367364D01*
X26401532Y-16367364D02*
X26420580Y-16357840D01*
X26420580Y-16357840D02*
X26430104Y-16348316D01*
X26430104Y-16348316D02*
X26439627Y-16329268D01*
X26439627Y-16329268D02*
X26439627Y-16291173D01*
X26439627Y-16291173D02*
X26430104Y-16272126D01*
X26430104Y-16272126D02*
X26420580Y-16262602D01*
X26420580Y-16262602D02*
X26401532Y-16253078D01*
X26534866Y-16367364D02*
X26572961Y-16367364D01*
X26572961Y-16367364D02*
X26592008Y-16357840D01*
X26592008Y-16357840D02*
X26601532Y-16348316D01*
X26601532Y-16348316D02*
X26620580Y-16319745D01*
X26620580Y-16319745D02*
X26630104Y-16281649D01*
X26630104Y-16281649D02*
X26630104Y-16205459D01*
X26630104Y-16205459D02*
X26620580Y-16186411D01*
X26620580Y-16186411D02*
X26611056Y-16176888D01*
X26611056Y-16176888D02*
X26592008Y-16167364D01*
X26592008Y-16167364D02*
X26553913Y-16167364D01*
X26553913Y-16167364D02*
X26534866Y-16176888D01*
X26534866Y-16176888D02*
X26525342Y-16186411D01*
X26525342Y-16186411D02*
X26515818Y-16205459D01*
X26515818Y-16205459D02*
X26515818Y-16253078D01*
X26515818Y-16253078D02*
X26525342Y-16272126D01*
X26525342Y-16272126D02*
X26534866Y-16281649D01*
X26534866Y-16281649D02*
X26553913Y-16291173D01*
X26553913Y-16291173D02*
X26592008Y-16291173D01*
X26592008Y-16291173D02*
X26611056Y-16281649D01*
X26611056Y-16281649D02*
X26620580Y-16272126D01*
X26620580Y-16272126D02*
X26630104Y-16253078D01*
X26706294Y-16167364D02*
X26706294Y-16205459D01*
X26782485Y-16167364D02*
X26782485Y-16205459D01*
X27077723Y-16443554D02*
X27068199Y-16434030D01*
X27068199Y-16434030D02*
X27049151Y-16405459D01*
X27049151Y-16405459D02*
X27039628Y-16386411D01*
X27039628Y-16386411D02*
X27030104Y-16357840D01*
X27030104Y-16357840D02*
X27020580Y-16310221D01*
X27020580Y-16310221D02*
X27020580Y-16272126D01*
X27020580Y-16272126D02*
X27030104Y-16224507D01*
X27030104Y-16224507D02*
X27039628Y-16195935D01*
X27039628Y-16195935D02*
X27049151Y-16176888D01*
X27049151Y-16176888D02*
X27068199Y-16148316D01*
X27068199Y-16148316D02*
X27077723Y-16138792D01*
X27239628Y-16167364D02*
X27201532Y-16167364D01*
X27201532Y-16167364D02*
X27182485Y-16176888D01*
X27182485Y-16176888D02*
X27172961Y-16186411D01*
X27172961Y-16186411D02*
X27153913Y-16214983D01*
X27153913Y-16214983D02*
X27144389Y-16253078D01*
X27144389Y-16253078D02*
X27144389Y-16329268D01*
X27144389Y-16329268D02*
X27153913Y-16348316D01*
X27153913Y-16348316D02*
X27163437Y-16357840D01*
X27163437Y-16357840D02*
X27182485Y-16367364D01*
X27182485Y-16367364D02*
X27220580Y-16367364D01*
X27220580Y-16367364D02*
X27239628Y-16357840D01*
X27239628Y-16357840D02*
X27249151Y-16348316D01*
X27249151Y-16348316D02*
X27258675Y-16329268D01*
X27258675Y-16329268D02*
X27258675Y-16281649D01*
X27258675Y-16281649D02*
X27249151Y-16262602D01*
X27249151Y-16262602D02*
X27239628Y-16253078D01*
X27239628Y-16253078D02*
X27220580Y-16243554D01*
X27220580Y-16243554D02*
X27182485Y-16243554D01*
X27182485Y-16243554D02*
X27163437Y-16253078D01*
X27163437Y-16253078D02*
X27153913Y-16262602D01*
X27153913Y-16262602D02*
X27144389Y-16281649D01*
X27496770Y-16367364D02*
X27496770Y-16167364D01*
X27582485Y-16367364D02*
X27582485Y-16262602D01*
X27582485Y-16262602D02*
X27572961Y-16243554D01*
X27572961Y-16243554D02*
X27553913Y-16234030D01*
X27553913Y-16234030D02*
X27525342Y-16234030D01*
X27525342Y-16234030D02*
X27506294Y-16243554D01*
X27506294Y-16243554D02*
X27496770Y-16253078D01*
X27706294Y-16367364D02*
X27687247Y-16357840D01*
X27687247Y-16357840D02*
X27677723Y-16348316D01*
X27677723Y-16348316D02*
X27668199Y-16329268D01*
X27668199Y-16329268D02*
X27668199Y-16272126D01*
X27668199Y-16272126D02*
X27677723Y-16253078D01*
X27677723Y-16253078D02*
X27687247Y-16243554D01*
X27687247Y-16243554D02*
X27706294Y-16234030D01*
X27706294Y-16234030D02*
X27734866Y-16234030D01*
X27734866Y-16234030D02*
X27753913Y-16243554D01*
X27753913Y-16243554D02*
X27763437Y-16253078D01*
X27763437Y-16253078D02*
X27772961Y-16272126D01*
X27772961Y-16272126D02*
X27772961Y-16329268D01*
X27772961Y-16329268D02*
X27763437Y-16348316D01*
X27763437Y-16348316D02*
X27753913Y-16357840D01*
X27753913Y-16357840D02*
X27734866Y-16367364D01*
X27734866Y-16367364D02*
X27706294Y-16367364D01*
X27887247Y-16367364D02*
X27868199Y-16357840D01*
X27868199Y-16357840D02*
X27858675Y-16338792D01*
X27858675Y-16338792D02*
X27858675Y-16167364D01*
X28039628Y-16357840D02*
X28020580Y-16367364D01*
X28020580Y-16367364D02*
X27982485Y-16367364D01*
X27982485Y-16367364D02*
X27963437Y-16357840D01*
X27963437Y-16357840D02*
X27953913Y-16338792D01*
X27953913Y-16338792D02*
X27953913Y-16262602D01*
X27953913Y-16262602D02*
X27963437Y-16243554D01*
X27963437Y-16243554D02*
X27982485Y-16234030D01*
X27982485Y-16234030D02*
X28020580Y-16234030D01*
X28020580Y-16234030D02*
X28039628Y-16243554D01*
X28039628Y-16243554D02*
X28049151Y-16262602D01*
X28049151Y-16262602D02*
X28049151Y-16281649D01*
X28049151Y-16281649D02*
X27953913Y-16300697D01*
X28125342Y-16357840D02*
X28144390Y-16367364D01*
X28144390Y-16367364D02*
X28182485Y-16367364D01*
X28182485Y-16367364D02*
X28201532Y-16357840D01*
X28201532Y-16357840D02*
X28211056Y-16338792D01*
X28211056Y-16338792D02*
X28211056Y-16329268D01*
X28211056Y-16329268D02*
X28201532Y-16310221D01*
X28201532Y-16310221D02*
X28182485Y-16300697D01*
X28182485Y-16300697D02*
X28153913Y-16300697D01*
X28153913Y-16300697D02*
X28134866Y-16291173D01*
X28134866Y-16291173D02*
X28125342Y-16272126D01*
X28125342Y-16272126D02*
X28125342Y-16262602D01*
X28125342Y-16262602D02*
X28134866Y-16243554D01*
X28134866Y-16243554D02*
X28153913Y-16234030D01*
X28153913Y-16234030D02*
X28182485Y-16234030D01*
X28182485Y-16234030D02*
X28201532Y-16243554D01*
X28277723Y-16443554D02*
X28287247Y-16434030D01*
X28287247Y-16434030D02*
X28306294Y-16405459D01*
X28306294Y-16405459D02*
X28315818Y-16386411D01*
X28315818Y-16386411D02*
X28325342Y-16357840D01*
X28325342Y-16357840D02*
X28334866Y-16310221D01*
X28334866Y-16310221D02*
X28334866Y-16272126D01*
X28334866Y-16272126D02*
X28325342Y-16224507D01*
X28325342Y-16224507D02*
X28315818Y-16195935D01*
X28315818Y-16195935D02*
X28306294Y-16176888D01*
X28306294Y-16176888D02*
X28287247Y-16148316D01*
X28287247Y-16148316D02*
X28277723Y-16138792D01*
M02*
