%TF.GenerationSoftware,KiCad,Pcbnew,8.0.2*%
%TF.CreationDate,2024-08-21T00:08:55-07:00*%
%TF.ProjectId,socket_test,736f636b-6574-45f7-9465-73742e6b6963,rev?*%
%TF.SameCoordinates,Original*%
%TF.FileFunction,Copper,L1,Top*%
%TF.FilePolarity,Positive*%
%FSLAX46Y46*%
G04 Gerber Fmt 4.6, Leading zero omitted, Abs format (unit mm)*
G04 Created by KiCad (PCBNEW 8.0.2) date 2024-08-21 00:08:55*
%MOMM*%
%LPD*%
G01*
G04 APERTURE LIST*
G04 Aperture macros list*
%AMRoundRect*
0 Rectangle with rounded corners*
0 $1 Rounding radius*
0 $2 $3 $4 $5 $6 $7 $8 $9 X,Y pos of 4 corners*
0 Add a 4 corners polygon primitive as box body*
4,1,4,$2,$3,$4,$5,$6,$7,$8,$9,$2,$3,0*
0 Add four circle primitives for the rounded corners*
1,1,$1+$1,$2,$3*
1,1,$1+$1,$4,$5*
1,1,$1+$1,$6,$7*
1,1,$1+$1,$8,$9*
0 Add four rect primitives between the rounded corners*
20,1,$1+$1,$2,$3,$4,$5,0*
20,1,$1+$1,$4,$5,$6,$7,0*
20,1,$1+$1,$6,$7,$8,$9,0*
20,1,$1+$1,$8,$9,$2,$3,0*%
G04 Aperture macros list end*
%TA.AperFunction,ComponentPad*%
%ADD10O,2.250000X3.250000*%
%TD*%
%TA.AperFunction,HeatsinkPad*%
%ADD11O,1.600000X2.500000*%
%TD*%
%TA.AperFunction,ComponentPad*%
%ADD12RoundRect,0.250000X-0.600000X-0.725000X0.600000X-0.725000X0.600000X0.725000X-0.600000X0.725000X0*%
%TD*%
%TA.AperFunction,ComponentPad*%
%ADD13O,1.700000X1.950000*%
%TD*%
%TA.AperFunction,Conductor*%
%ADD14C,0.500000*%
%TD*%
G04 APERTURE END LIST*
D10*
%TO.P,RV1,1,GND*%
%TO.N,VCC*%
X242436400Y-136404200D03*
%TO.P,RV1,2,Signal*%
%TO.N,Net-(J1-Pin_2)*%
X244936400Y-136404200D03*
%TO.P,RV1,3,V+*%
%TO.N,GND*%
X239936400Y-136404200D03*
D11*
%TO.P,RV1,MP*%
%TO.N,N/C*%
X238086400Y-147904200D03*
X246786400Y-147904200D03*
%TD*%
D10*
%TO.P,RV2,1,GND*%
%TO.N,VCC*%
X257436400Y-136404200D03*
%TO.P,RV2,2,Signal*%
%TO.N,Net-(J1-Pin_3)*%
X259936400Y-136404200D03*
%TO.P,RV2,3,V+*%
%TO.N,GND*%
X254936400Y-136404200D03*
D11*
%TO.P,RV2,MP*%
%TO.N,N/C*%
X253086400Y-147904200D03*
X261786400Y-147904200D03*
%TD*%
D12*
%TO.P,J1,1,Pin_1*%
%TO.N,VCC*%
X246049800Y-129311400D03*
D13*
%TO.P,J1,2,Pin_2*%
%TO.N,Net-(J1-Pin_2)*%
X248549800Y-129311400D03*
%TO.P,J1,3,Pin_3*%
%TO.N,Net-(J1-Pin_3)*%
X251049800Y-129311400D03*
%TO.P,J1,4,Pin_4*%
%TO.N,GND*%
X253549800Y-129311400D03*
%TD*%
D14*
%TO.N,GND*%
X261340600Y-139573000D02*
X262128000Y-138785600D01*
X262128000Y-132664200D02*
X258775200Y-129311400D01*
X258775200Y-129311400D02*
X253549800Y-129311400D01*
X243154200Y-127050800D02*
X252603000Y-127050800D01*
X239936400Y-136404200D02*
X239936400Y-130268600D01*
X252603000Y-127050800D02*
X253549800Y-127997600D01*
X253549800Y-127997600D02*
X253549800Y-129311400D01*
X255778000Y-139573000D02*
X261340600Y-139573000D01*
X239936400Y-130268600D02*
X243154200Y-127050800D01*
X254936400Y-136404200D02*
X254936400Y-138731400D01*
X262128000Y-138785600D02*
X262128000Y-132664200D01*
X254936400Y-138731400D02*
X255778000Y-139573000D01*
%TO.N,VCC*%
X245465600Y-140741400D02*
X243357400Y-140741400D01*
X242436400Y-136404200D02*
X242436400Y-133763000D01*
X243357400Y-140741400D02*
X242436400Y-139820400D01*
X252425200Y-133807200D02*
X248056400Y-138176000D01*
X257436400Y-134602000D02*
X256641600Y-133807200D01*
X242436400Y-133763000D02*
X243357400Y-132842000D01*
X245084600Y-132842000D02*
X246049800Y-131876800D01*
X243357400Y-132842000D02*
X245084600Y-132842000D01*
X242436400Y-139820400D02*
X242436400Y-136404200D01*
X248031000Y-138176000D02*
X245465600Y-140741400D01*
X246049800Y-131876800D02*
X246049800Y-129311400D01*
X256641600Y-133807200D02*
X252425200Y-133807200D01*
X248056400Y-138176000D02*
X248031000Y-138176000D01*
X257436400Y-136404200D02*
X257436400Y-134602000D01*
%TO.N,Net-(J1-Pin_2)*%
X246399200Y-136404200D02*
X248549800Y-134253600D01*
X248549800Y-134253600D02*
X248549800Y-129311400D01*
X244936400Y-136404200D02*
X246399200Y-136404200D01*
%TO.N,Net-(J1-Pin_3)*%
X259003800Y-132562600D02*
X259936400Y-133495200D01*
X252247400Y-132562600D02*
X259003800Y-132562600D01*
X259936400Y-133495200D02*
X259936400Y-136404200D01*
X251049800Y-131365000D02*
X252247400Y-132562600D01*
X251049800Y-129311400D02*
X251049800Y-131365000D01*
%TD*%
%TA.AperFunction,Conductor*%
%TO.N,GND*%
G36*
X264135939Y-125589785D02*
G01*
X264181694Y-125642589D01*
X264192900Y-125694100D01*
X264192900Y-150429300D01*
X264173215Y-150496339D01*
X264120411Y-150542094D01*
X264068900Y-150553300D01*
X236209500Y-150553300D01*
X236142461Y-150533615D01*
X236096706Y-150480811D01*
X236085500Y-150429300D01*
X236085500Y-147351848D01*
X236785900Y-147351848D01*
X236785900Y-148456551D01*
X236817922Y-148658734D01*
X236881181Y-148853423D01*
X236974115Y-149035813D01*
X237094428Y-149201413D01*
X237239186Y-149346171D01*
X237394149Y-149458756D01*
X237404790Y-149466487D01*
X237521007Y-149525703D01*
X237587176Y-149559418D01*
X237587178Y-149559418D01*
X237587181Y-149559420D01*
X237691537Y-149593327D01*
X237781865Y-149622677D01*
X237882957Y-149638688D01*
X237984048Y-149654700D01*
X237984049Y-149654700D01*
X238188751Y-149654700D01*
X238188752Y-149654700D01*
X238390934Y-149622677D01*
X238585619Y-149559420D01*
X238768010Y-149466487D01*
X238860990Y-149398932D01*
X238933613Y-149346171D01*
X238933615Y-149346168D01*
X238933619Y-149346166D01*
X239078366Y-149201419D01*
X239078368Y-149201415D01*
X239078371Y-149201413D01*
X239131132Y-149128790D01*
X239198687Y-149035810D01*
X239291620Y-148853419D01*
X239354877Y-148658734D01*
X239386900Y-148456552D01*
X239386900Y-147351848D01*
X245485900Y-147351848D01*
X245485900Y-148456551D01*
X245517922Y-148658734D01*
X245581181Y-148853423D01*
X245674115Y-149035813D01*
X245794428Y-149201413D01*
X245939186Y-149346171D01*
X246094149Y-149458756D01*
X246104790Y-149466487D01*
X246221007Y-149525703D01*
X246287176Y-149559418D01*
X246287178Y-149559418D01*
X246287181Y-149559420D01*
X246391537Y-149593327D01*
X246481865Y-149622677D01*
X246582957Y-149638688D01*
X246684048Y-149654700D01*
X246684049Y-149654700D01*
X246888751Y-149654700D01*
X246888752Y-149654700D01*
X247090934Y-149622677D01*
X247285619Y-149559420D01*
X247468010Y-149466487D01*
X247560990Y-149398932D01*
X247633613Y-149346171D01*
X247633615Y-149346168D01*
X247633619Y-149346166D01*
X247778366Y-149201419D01*
X247778368Y-149201415D01*
X247778371Y-149201413D01*
X247831132Y-149128790D01*
X247898687Y-149035810D01*
X247991620Y-148853419D01*
X248054877Y-148658734D01*
X248086900Y-148456552D01*
X248086900Y-147351848D01*
X251785900Y-147351848D01*
X251785900Y-148456551D01*
X251817922Y-148658734D01*
X251881181Y-148853423D01*
X251974115Y-149035813D01*
X252094428Y-149201413D01*
X252239186Y-149346171D01*
X252394149Y-149458756D01*
X252404790Y-149466487D01*
X252521007Y-149525703D01*
X252587176Y-149559418D01*
X252587178Y-149559418D01*
X252587181Y-149559420D01*
X252691537Y-149593327D01*
X252781865Y-149622677D01*
X252882957Y-149638688D01*
X252984048Y-149654700D01*
X252984049Y-149654700D01*
X253188751Y-149654700D01*
X253188752Y-149654700D01*
X253390934Y-149622677D01*
X253585619Y-149559420D01*
X253768010Y-149466487D01*
X253860990Y-149398932D01*
X253933613Y-149346171D01*
X253933615Y-149346168D01*
X253933619Y-149346166D01*
X254078366Y-149201419D01*
X254078368Y-149201415D01*
X254078371Y-149201413D01*
X254131132Y-149128790D01*
X254198687Y-149035810D01*
X254291620Y-148853419D01*
X254354877Y-148658734D01*
X254386900Y-148456552D01*
X254386900Y-147351848D01*
X260485900Y-147351848D01*
X260485900Y-148456551D01*
X260517922Y-148658734D01*
X260581181Y-148853423D01*
X260674115Y-149035813D01*
X260794428Y-149201413D01*
X260939186Y-149346171D01*
X261094149Y-149458756D01*
X261104790Y-149466487D01*
X261221007Y-149525703D01*
X261287176Y-149559418D01*
X261287178Y-149559418D01*
X261287181Y-149559420D01*
X261391537Y-149593327D01*
X261481865Y-149622677D01*
X261582957Y-149638688D01*
X261684048Y-149654700D01*
X261684049Y-149654700D01*
X261888751Y-149654700D01*
X261888752Y-149654700D01*
X262090934Y-149622677D01*
X262285619Y-149559420D01*
X262468010Y-149466487D01*
X262560990Y-149398932D01*
X262633613Y-149346171D01*
X262633615Y-149346168D01*
X262633619Y-149346166D01*
X262778366Y-149201419D01*
X262778368Y-149201415D01*
X262778371Y-149201413D01*
X262831132Y-149128790D01*
X262898687Y-149035810D01*
X262991620Y-148853419D01*
X263054877Y-148658734D01*
X263086900Y-148456552D01*
X263086900Y-147351848D01*
X263054877Y-147149666D01*
X262991620Y-146954981D01*
X262991618Y-146954978D01*
X262991618Y-146954976D01*
X262957903Y-146888807D01*
X262898687Y-146772590D01*
X262890956Y-146761949D01*
X262778371Y-146606986D01*
X262633613Y-146462228D01*
X262468013Y-146341915D01*
X262468012Y-146341914D01*
X262468010Y-146341913D01*
X262411053Y-146312891D01*
X262285623Y-146248981D01*
X262090934Y-146185722D01*
X261916395Y-146158078D01*
X261888752Y-146153700D01*
X261684048Y-146153700D01*
X261659729Y-146157551D01*
X261481865Y-146185722D01*
X261287176Y-146248981D01*
X261104786Y-146341915D01*
X260939186Y-146462228D01*
X260794428Y-146606986D01*
X260674115Y-146772586D01*
X260581181Y-146954976D01*
X260517922Y-147149665D01*
X260485900Y-147351848D01*
X254386900Y-147351848D01*
X254354877Y-147149666D01*
X254291620Y-146954981D01*
X254291618Y-146954978D01*
X254291618Y-146954976D01*
X254257903Y-146888807D01*
X254198687Y-146772590D01*
X254190956Y-146761949D01*
X254078371Y-146606986D01*
X253933613Y-146462228D01*
X253768013Y-146341915D01*
X253768012Y-146341914D01*
X253768010Y-146341913D01*
X253711053Y-146312891D01*
X253585623Y-146248981D01*
X253390934Y-146185722D01*
X253216395Y-146158078D01*
X253188752Y-146153700D01*
X252984048Y-146153700D01*
X252959729Y-146157551D01*
X252781865Y-146185722D01*
X252587176Y-146248981D01*
X252404786Y-146341915D01*
X252239186Y-146462228D01*
X252094428Y-146606986D01*
X251974115Y-146772586D01*
X251881181Y-146954976D01*
X251817922Y-147149665D01*
X251785900Y-147351848D01*
X248086900Y-147351848D01*
X248054877Y-147149666D01*
X247991620Y-146954981D01*
X247991618Y-146954978D01*
X247991618Y-146954976D01*
X247957903Y-146888807D01*
X247898687Y-146772590D01*
X247890956Y-146761949D01*
X247778371Y-146606986D01*
X247633613Y-146462228D01*
X247468013Y-146341915D01*
X247468012Y-146341914D01*
X247468010Y-146341913D01*
X247411053Y-146312891D01*
X247285623Y-146248981D01*
X247090934Y-146185722D01*
X246916395Y-146158078D01*
X246888752Y-146153700D01*
X246684048Y-146153700D01*
X246659729Y-146157551D01*
X246481865Y-146185722D01*
X246287176Y-146248981D01*
X246104786Y-146341915D01*
X245939186Y-146462228D01*
X245794428Y-146606986D01*
X245674115Y-146772586D01*
X245581181Y-146954976D01*
X245517922Y-147149665D01*
X245485900Y-147351848D01*
X239386900Y-147351848D01*
X239354877Y-147149666D01*
X239291620Y-146954981D01*
X239291618Y-146954978D01*
X239291618Y-146954976D01*
X239257903Y-146888807D01*
X239198687Y-146772590D01*
X239190956Y-146761949D01*
X239078371Y-146606986D01*
X238933613Y-146462228D01*
X238768013Y-146341915D01*
X238768012Y-146341914D01*
X238768010Y-146341913D01*
X238711053Y-146312891D01*
X238585623Y-146248981D01*
X238390934Y-146185722D01*
X238216395Y-146158078D01*
X238188752Y-146153700D01*
X237984048Y-146153700D01*
X237959729Y-146157551D01*
X237781865Y-146185722D01*
X237587176Y-146248981D01*
X237404786Y-146341915D01*
X237239186Y-146462228D01*
X237094428Y-146606986D01*
X236974115Y-146772586D01*
X236881181Y-146954976D01*
X236817922Y-147149665D01*
X236785900Y-147351848D01*
X236085500Y-147351848D01*
X236085500Y-135776310D01*
X238311400Y-135776310D01*
X238311400Y-136154200D01*
X239146439Y-136154200D01*
X239142624Y-136163411D01*
X239110900Y-136322895D01*
X239110900Y-136485505D01*
X239142624Y-136644989D01*
X239146439Y-136654200D01*
X238311400Y-136654200D01*
X238311400Y-137032089D01*
X238351413Y-137284723D01*
X238430451Y-137527981D01*
X238430452Y-137527984D01*
X238546575Y-137755886D01*
X238696921Y-137962819D01*
X238877780Y-138143678D01*
X239084713Y-138294024D01*
X239312615Y-138410147D01*
X239312618Y-138410148D01*
X239555875Y-138489186D01*
X239686400Y-138509859D01*
X239686400Y-137194160D01*
X239695611Y-137197976D01*
X239855095Y-137229700D01*
X240017705Y-137229700D01*
X240177189Y-137197976D01*
X240186400Y-137194160D01*
X240186400Y-138509858D01*
X240316922Y-138489186D01*
X240316925Y-138489186D01*
X240560181Y-138410148D01*
X240560184Y-138410147D01*
X240788086Y-138294024D01*
X240995019Y-138143678D01*
X241098366Y-138040332D01*
X241159689Y-138006847D01*
X241229381Y-138011831D01*
X241273728Y-138040332D01*
X241377459Y-138144063D01*
X241377464Y-138144067D01*
X241584451Y-138294451D01*
X241618194Y-138311644D01*
X241668990Y-138359618D01*
X241685900Y-138422129D01*
X241685900Y-139894318D01*
X241685900Y-139894320D01*
X241685899Y-139894320D01*
X241714740Y-140039307D01*
X241714743Y-140039317D01*
X241771314Y-140175892D01*
X241804212Y-140225127D01*
X241804213Y-140225130D01*
X241853446Y-140298814D01*
X241853452Y-140298821D01*
X242878984Y-141324352D01*
X242878986Y-141324354D01*
X242908458Y-141344045D01*
X242952668Y-141373584D01*
X242952670Y-141373587D01*
X242952671Y-141373587D01*
X243001896Y-141406479D01*
X243001911Y-141406487D01*
X243058479Y-141429918D01*
X243058480Y-141429918D01*
X243138488Y-141463059D01*
X243254641Y-141486163D01*
X243273868Y-141489987D01*
X243283481Y-141491900D01*
X243283482Y-141491900D01*
X245539520Y-141491900D01*
X245637062Y-141472496D01*
X245684513Y-141463058D01*
X245821095Y-141406484D01*
X245870329Y-141373586D01*
X245870334Y-141373583D01*
X245894671Y-141357321D01*
X245944016Y-141324352D01*
X248449634Y-138818731D01*
X248468415Y-138803317D01*
X248534816Y-138758952D01*
X252699748Y-134594018D01*
X252761071Y-134560534D01*
X252787429Y-134557700D01*
X253685440Y-134557700D01*
X253752479Y-134577385D01*
X253798234Y-134630189D01*
X253808178Y-134699347D01*
X253779153Y-134762903D01*
X253773121Y-134769381D01*
X253696921Y-134845580D01*
X253546575Y-135052513D01*
X253430452Y-135280415D01*
X253430451Y-135280418D01*
X253351413Y-135523676D01*
X253311400Y-135776310D01*
X253311400Y-136154200D01*
X254146439Y-136154200D01*
X254142624Y-136163411D01*
X254110900Y-136322895D01*
X254110900Y-136485505D01*
X254142624Y-136644989D01*
X254146439Y-136654200D01*
X253311400Y-136654200D01*
X253311400Y-137032089D01*
X253351413Y-137284723D01*
X253430451Y-137527981D01*
X253430452Y-137527984D01*
X253546575Y-137755886D01*
X253696921Y-137962819D01*
X253877780Y-138143678D01*
X254084713Y-138294024D01*
X254312615Y-138410147D01*
X254312618Y-138410148D01*
X254555875Y-138489186D01*
X254686400Y-138509859D01*
X254686400Y-137194160D01*
X254695611Y-137197976D01*
X254855095Y-137229700D01*
X255017705Y-137229700D01*
X255177189Y-137197976D01*
X255186400Y-137194160D01*
X255186400Y-138509858D01*
X255316922Y-138489186D01*
X255316925Y-138489186D01*
X255560181Y-138410148D01*
X255560184Y-138410147D01*
X255788086Y-138294024D01*
X255995019Y-138143678D01*
X256098366Y-138040332D01*
X256159689Y-138006847D01*
X256229381Y-138011831D01*
X256273728Y-138040332D01*
X256377459Y-138144063D01*
X256377464Y-138144067D01*
X256558007Y-138275238D01*
X256584453Y-138294452D01*
X256712348Y-138359618D01*
X256812424Y-138410610D01*
X256812427Y-138410611D01*
X256934093Y-138450142D01*
X257055761Y-138489674D01*
X257308470Y-138529700D01*
X257308471Y-138529700D01*
X257564329Y-138529700D01*
X257564330Y-138529700D01*
X257817039Y-138489674D01*
X258060375Y-138410610D01*
X258288347Y-138294452D01*
X258495342Y-138144062D01*
X258598719Y-138040685D01*
X258660042Y-138007200D01*
X258729734Y-138012184D01*
X258774081Y-138040685D01*
X258877459Y-138144063D01*
X258877464Y-138144067D01*
X259058007Y-138275238D01*
X259084453Y-138294452D01*
X259212348Y-138359618D01*
X259312424Y-138410610D01*
X259312427Y-138410611D01*
X259434093Y-138450142D01*
X259555761Y-138489674D01*
X259808470Y-138529700D01*
X259808471Y-138529700D01*
X260064329Y-138529700D01*
X260064330Y-138529700D01*
X260317039Y-138489674D01*
X260560375Y-138410610D01*
X260788347Y-138294452D01*
X260995342Y-138144062D01*
X261176262Y-137963142D01*
X261326652Y-137756147D01*
X261442810Y-137528175D01*
X261521874Y-137284839D01*
X261561900Y-137032130D01*
X261561900Y-135776270D01*
X261521874Y-135523561D01*
X261442810Y-135280225D01*
X261442810Y-135280224D01*
X261402253Y-135200627D01*
X261326652Y-135052253D01*
X261307438Y-135025807D01*
X261176267Y-134845264D01*
X261176263Y-134845259D01*
X260995340Y-134664336D01*
X260995335Y-134664332D01*
X260788350Y-134513949D01*
X260754603Y-134496754D01*
X260703808Y-134448779D01*
X260686900Y-134386270D01*
X260686900Y-133421279D01*
X260668501Y-133328785D01*
X260668501Y-133328784D01*
X260658059Y-133276288D01*
X260603905Y-133145551D01*
X260601484Y-133139705D01*
X260519351Y-133016784D01*
X260414816Y-132912249D01*
X259734858Y-132232290D01*
X259482221Y-131979652D01*
X259482214Y-131979646D01*
X259408529Y-131930412D01*
X259408529Y-131930413D01*
X259359291Y-131897513D01*
X259222717Y-131840943D01*
X259222707Y-131840940D01*
X259077720Y-131812100D01*
X259077718Y-131812100D01*
X252609629Y-131812100D01*
X252542590Y-131792415D01*
X252521948Y-131775781D01*
X251836619Y-131090451D01*
X251803134Y-131029128D01*
X251800300Y-131002770D01*
X251800300Y-130623620D01*
X251819985Y-130556581D01*
X251851414Y-130523302D01*
X251929592Y-130466504D01*
X252079904Y-130316192D01*
X252199791Y-130151179D01*
X252255120Y-130108515D01*
X252324733Y-130102536D01*
X252386529Y-130135141D01*
X252400427Y-130151181D01*
X252520072Y-130315859D01*
X252520076Y-130315864D01*
X252670335Y-130466123D01*
X252670340Y-130466127D01*
X252842242Y-130591020D01*
X253031582Y-130687495D01*
X253233671Y-130753157D01*
X253299800Y-130763631D01*
X253299800Y-129715545D01*
X253366457Y-129754030D01*
X253487265Y-129786400D01*
X253612335Y-129786400D01*
X253733143Y-129754030D01*
X253799800Y-129715545D01*
X253799800Y-130763630D01*
X253865926Y-130753157D01*
X253865929Y-130753157D01*
X254068017Y-130687495D01*
X254257357Y-130591020D01*
X254429259Y-130466127D01*
X254429264Y-130466123D01*
X254579523Y-130315864D01*
X254579527Y-130315859D01*
X254704420Y-130143957D01*
X254800895Y-129954617D01*
X254866557Y-129752530D01*
X254866557Y-129752527D01*
X254896830Y-129561400D01*
X253953946Y-129561400D01*
X253992430Y-129494743D01*
X254024800Y-129373935D01*
X254024800Y-129248865D01*
X253992430Y-129128057D01*
X253953946Y-129061400D01*
X254896830Y-129061400D01*
X254866557Y-128870272D01*
X254866557Y-128870269D01*
X254800895Y-128668182D01*
X254704420Y-128478842D01*
X254579527Y-128306940D01*
X254579523Y-128306935D01*
X254429264Y-128156676D01*
X254429259Y-128156672D01*
X254257357Y-128031779D01*
X254068015Y-127935303D01*
X253865924Y-127869641D01*
X253799800Y-127859168D01*
X253799800Y-128907254D01*
X253733143Y-128868770D01*
X253612335Y-128836400D01*
X253487265Y-128836400D01*
X253366457Y-128868770D01*
X253299800Y-128907254D01*
X253299800Y-127859168D01*
X253299799Y-127859168D01*
X253233675Y-127869641D01*
X253031584Y-127935303D01*
X252842242Y-128031779D01*
X252670340Y-128156672D01*
X252670335Y-128156676D01*
X252520076Y-128306935D01*
X252520072Y-128306940D01*
X252400427Y-128471618D01*
X252345097Y-128514284D01*
X252275484Y-128520263D01*
X252213689Y-128487657D01*
X252199791Y-128471618D01*
X252079909Y-128306614D01*
X252079905Y-128306609D01*
X251929586Y-128156290D01*
X251757620Y-128031351D01*
X251568214Y-127934844D01*
X251568213Y-127934843D01*
X251568212Y-127934843D01*
X251366043Y-127869154D01*
X251366041Y-127869153D01*
X251366040Y-127869153D01*
X251204757Y-127843608D01*
X251156087Y-127835900D01*
X250943513Y-127835900D01*
X250894842Y-127843608D01*
X250733560Y-127869153D01*
X250531385Y-127934844D01*
X250341979Y-128031351D01*
X250170013Y-128156290D01*
X250019694Y-128306609D01*
X250019690Y-128306614D01*
X249900118Y-128471193D01*
X249844789Y-128513859D01*
X249775175Y-128519838D01*
X249713380Y-128487233D01*
X249699482Y-128471193D01*
X249579909Y-128306614D01*
X249579905Y-128306609D01*
X249429586Y-128156290D01*
X249257620Y-128031351D01*
X249068214Y-127934844D01*
X249068213Y-127934843D01*
X249068212Y-127934843D01*
X248866043Y-127869154D01*
X248866041Y-127869153D01*
X248866040Y-127869153D01*
X248704757Y-127843608D01*
X248656087Y-127835900D01*
X248443513Y-127835900D01*
X248394842Y-127843608D01*
X248233560Y-127869153D01*
X248031385Y-127934844D01*
X247841979Y-128031351D01*
X247670015Y-128156289D01*
X247531198Y-128295106D01*
X247469875Y-128328590D01*
X247400183Y-128323606D01*
X247344250Y-128281734D01*
X247337978Y-128272520D01*
X247242512Y-128117744D01*
X247118457Y-127993689D01*
X247118456Y-127993688D01*
X246969134Y-127901586D01*
X246802597Y-127846401D01*
X246802595Y-127846400D01*
X246699810Y-127835900D01*
X245399798Y-127835900D01*
X245399781Y-127835901D01*
X245297003Y-127846400D01*
X245297000Y-127846401D01*
X245130468Y-127901585D01*
X245130463Y-127901587D01*
X244981142Y-127993689D01*
X244857089Y-128117742D01*
X244764987Y-128267063D01*
X244764985Y-128267068D01*
X244760125Y-128281734D01*
X244709801Y-128433603D01*
X244709801Y-128433604D01*
X244709800Y-128433604D01*
X244699300Y-128536383D01*
X244699300Y-130086401D01*
X244699301Y-130086418D01*
X244709800Y-130189196D01*
X244709801Y-130189199D01*
X244755694Y-130327694D01*
X244764986Y-130355734D01*
X244857088Y-130505056D01*
X244981144Y-130629112D01*
X245130466Y-130721214D01*
X245214305Y-130748995D01*
X245271748Y-130788766D01*
X245298572Y-130853282D01*
X245299300Y-130866700D01*
X245299300Y-131514570D01*
X245279615Y-131581609D01*
X245262981Y-131602251D01*
X244810051Y-132055181D01*
X244748728Y-132088666D01*
X244722370Y-132091500D01*
X243283476Y-132091500D01*
X243254642Y-132097234D01*
X243254643Y-132097235D01*
X243138493Y-132120339D01*
X243138483Y-132120342D01*
X243058481Y-132153479D01*
X243058482Y-132153480D01*
X243001906Y-132176915D01*
X242956724Y-132207105D01*
X242878979Y-132259051D01*
X241853450Y-133284580D01*
X241853444Y-133284588D01*
X241804212Y-133358268D01*
X241804213Y-133358269D01*
X241771321Y-133407496D01*
X241771314Y-133407508D01*
X241714742Y-133544086D01*
X241714740Y-133544092D01*
X241685900Y-133689079D01*
X241685900Y-134386270D01*
X241666215Y-134453309D01*
X241618197Y-134496754D01*
X241584449Y-134513949D01*
X241377464Y-134664332D01*
X241377459Y-134664336D01*
X241273728Y-134768068D01*
X241212405Y-134801553D01*
X241142713Y-134796569D01*
X241098366Y-134768068D01*
X240995019Y-134664721D01*
X240788086Y-134514375D01*
X240560184Y-134398252D01*
X240560181Y-134398251D01*
X240316923Y-134319213D01*
X240186400Y-134298539D01*
X240186400Y-135614239D01*
X240177189Y-135610424D01*
X240017705Y-135578700D01*
X239855095Y-135578700D01*
X239695611Y-135610424D01*
X239686400Y-135614239D01*
X239686400Y-134298539D01*
X239555876Y-134319213D01*
X239312618Y-134398251D01*
X239312615Y-134398252D01*
X239084713Y-134514375D01*
X238877780Y-134664721D01*
X238696921Y-134845580D01*
X238546575Y-135052513D01*
X238430452Y-135280415D01*
X238430451Y-135280418D01*
X238351413Y-135523676D01*
X238311400Y-135776310D01*
X236085500Y-135776310D01*
X236085500Y-125694100D01*
X236105185Y-125627061D01*
X236157989Y-125581306D01*
X236209500Y-125570100D01*
X264068900Y-125570100D01*
X264135939Y-125589785D01*
G37*
%TD.AperFunction*%
%TD*%
M02*
