%TF.GenerationSoftware,KiCad,Pcbnew,8.0.2*%
%TF.CreationDate,2024-08-21T00:08:59-07:00*%
%TF.ProjectId,socket_test,736f636b-6574-45f7-9465-73742e6b6963,rev?*%
%TF.SameCoordinates,Original*%
%TF.FileFunction,Drillmap*%
%TF.FilePolarity,Positive*%
%FSLAX45Y45*%
G04 Gerber Fmt 4.5, Leading zero omitted, Abs format (unit mm)*
G04 Created by KiCad (PCBNEW 8.0.2) date 2024-08-21 00:08:59*
%MOMM*%
%LPD*%
G01*
G04 APERTURE LIST*
%ADD10C,0.050000*%
%ADD11C,0.200000*%
G04 APERTURE END LIST*
D10*
X23558500Y-12506960D02*
X26469340Y-12506960D01*
X26469340Y-15105380D01*
X23558500Y-15105380D01*
X23558500Y-12506960D01*
D11*
X23816777Y-15419364D02*
X23816777Y-15219364D01*
X23816777Y-15219364D02*
X23864396Y-15219364D01*
X23864396Y-15219364D02*
X23892967Y-15228888D01*
X23892967Y-15228888D02*
X23912015Y-15247935D01*
X23912015Y-15247935D02*
X23921539Y-15266983D01*
X23921539Y-15266983D02*
X23931062Y-15305078D01*
X23931062Y-15305078D02*
X23931062Y-15333649D01*
X23931062Y-15333649D02*
X23921539Y-15371745D01*
X23921539Y-15371745D02*
X23912015Y-15390792D01*
X23912015Y-15390792D02*
X23892967Y-15409840D01*
X23892967Y-15409840D02*
X23864396Y-15419364D01*
X23864396Y-15419364D02*
X23816777Y-15419364D01*
X24016777Y-15419364D02*
X24016777Y-15286030D01*
X24016777Y-15324126D02*
X24026301Y-15305078D01*
X24026301Y-15305078D02*
X24035824Y-15295554D01*
X24035824Y-15295554D02*
X24054872Y-15286030D01*
X24054872Y-15286030D02*
X24073920Y-15286030D01*
X24140586Y-15419364D02*
X24140586Y-15286030D01*
X24140586Y-15219364D02*
X24131062Y-15228888D01*
X24131062Y-15228888D02*
X24140586Y-15238411D01*
X24140586Y-15238411D02*
X24150110Y-15228888D01*
X24150110Y-15228888D02*
X24140586Y-15219364D01*
X24140586Y-15219364D02*
X24140586Y-15238411D01*
X24264396Y-15419364D02*
X24245348Y-15409840D01*
X24245348Y-15409840D02*
X24235824Y-15390792D01*
X24235824Y-15390792D02*
X24235824Y-15219364D01*
X24369158Y-15419364D02*
X24350110Y-15409840D01*
X24350110Y-15409840D02*
X24340586Y-15390792D01*
X24340586Y-15390792D02*
X24340586Y-15219364D01*
X24597729Y-15419364D02*
X24597729Y-15219364D01*
X24597729Y-15219364D02*
X24664396Y-15362221D01*
X24664396Y-15362221D02*
X24731062Y-15219364D01*
X24731062Y-15219364D02*
X24731062Y-15419364D01*
X24912015Y-15419364D02*
X24912015Y-15314602D01*
X24912015Y-15314602D02*
X24902491Y-15295554D01*
X24902491Y-15295554D02*
X24883443Y-15286030D01*
X24883443Y-15286030D02*
X24845348Y-15286030D01*
X24845348Y-15286030D02*
X24826301Y-15295554D01*
X24912015Y-15409840D02*
X24892967Y-15419364D01*
X24892967Y-15419364D02*
X24845348Y-15419364D01*
X24845348Y-15419364D02*
X24826301Y-15409840D01*
X24826301Y-15409840D02*
X24816777Y-15390792D01*
X24816777Y-15390792D02*
X24816777Y-15371745D01*
X24816777Y-15371745D02*
X24826301Y-15352697D01*
X24826301Y-15352697D02*
X24845348Y-15343173D01*
X24845348Y-15343173D02*
X24892967Y-15343173D01*
X24892967Y-15343173D02*
X24912015Y-15333649D01*
X25007253Y-15286030D02*
X25007253Y-15486030D01*
X25007253Y-15295554D02*
X25026301Y-15286030D01*
X25026301Y-15286030D02*
X25064396Y-15286030D01*
X25064396Y-15286030D02*
X25083443Y-15295554D01*
X25083443Y-15295554D02*
X25092967Y-15305078D01*
X25092967Y-15305078D02*
X25102491Y-15324126D01*
X25102491Y-15324126D02*
X25102491Y-15381268D01*
X25102491Y-15381268D02*
X25092967Y-15400316D01*
X25092967Y-15400316D02*
X25083443Y-15409840D01*
X25083443Y-15409840D02*
X25064396Y-15419364D01*
X25064396Y-15419364D02*
X25026301Y-15419364D01*
X25026301Y-15419364D02*
X25007253Y-15409840D01*
X25188205Y-15400316D02*
X25197729Y-15409840D01*
X25197729Y-15409840D02*
X25188205Y-15419364D01*
X25188205Y-15419364D02*
X25178682Y-15409840D01*
X25178682Y-15409840D02*
X25188205Y-15400316D01*
X25188205Y-15400316D02*
X25188205Y-15419364D01*
X25188205Y-15295554D02*
X25197729Y-15305078D01*
X25197729Y-15305078D02*
X25188205Y-15314602D01*
X25188205Y-15314602D02*
X25178682Y-15305078D01*
X25178682Y-15305078D02*
X25188205Y-15295554D01*
X25188205Y-15295554D02*
X25188205Y-15314602D01*
M02*
