0
SECTION
2
HEADER
9
$INSUNITS
70
4
9
$ACADVER
1
AC1014
9
$HANDSEED
5
FFFF
0
ENDSEC
0
SECTION
2
TABLES
0
TABLE
2
VPORT
5
8
100
AcDbSymbolTable
0
ENDTAB
0
TABLE
2
LTYPE
5
5
100
AcDbSymbolTable
0
LTYPE
5
14
100
AcDbSymbolTableRecord
100
AcDbLinetypeTableRecord
2
BYBLOCK
70
0
0
LTYPE
5
15
100
AcDbSymbolTableRecord
100
AcDbLinetypeTableRecord
2
BYLAYER
70
0
0
LTYPE
5
16
100
AcDbSymbolTableRecord
100
AcDbLinetypeTableRecord
2
DASHED
70
0
3
Dashed __ __ __ __ __ __ __ __ __ __ __ __ __ _
72
65
73
2
40
0.75
49
0.5
74
0
49
-0.25
74
0
0
ENDTAB
0
TABLE
2
LAYER
5
2
100
AcDbSymbolTable
70
2
0
LAYER
5
50
100
AcDbSymbolTableRecord
100
AcDbLayerTableRecord
2
0
70
0
62
7
6
CONTINUOUS
0
ENDTAB
0
TABLE
2
STYLE
5
3
100
AcDbSymbolTable
70
1
0
STYLE
5
11
100
AcDbSymbolTableRecord
100
AcDbTextStyleTableRecord
2
STANDARD
70
0
0
ENDTAB
0
TABLE
2
VIEW
5
6
100
AcDbSymbolTable
70
0
0
ENDTAB
0
TABLE
2
UCS
5
7
100
AcDbSymbolTable
70
0
0
ENDTAB
0
TABLE
2
APPID
5
9
100
AcDbSymbolTable
70
2
0
APPID
5
12
100
AcDbSymbolTableRecord
100
AcDbRegAppTableRecord
2
ACAD
70
0
0
ENDTAB
0
TABLE
2
DIMSTYLE
5
A
100
AcDbSymbolTable
70
1
0
ENDTAB
0
TABLE
2
BLOCK_RECORD
5
1
100
AcDbSymbolTable
70
1
0
BLOCK_RECORD
5
1F
100
AcDbSymbolTableRecord
100
AcDbBlockTableRecord
2
*MODEL_SPACE
0
BLOCK_RECORD
5
1B
100
AcDbSymbolTableRecord
100
AcDbBlockTableRecord
2
*PAPER_SPACE
0
ENDTAB
0
ENDSEC
0
SECTION
2
BLOCKS
0
BLOCK
5
20
100
AcDbEntity
100
AcDbBlockBegin
2
*MODEL_SPACE
0
ENDBLK
5
21
100
AcDbEntity
100
AcDbBlockEnd
0
BLOCK
5
1C
100
AcDbEntity
100
AcDbBlockBegin
2
*PAPER_SPACE
0
ENDBLK
5
1D
100
AcDbEntity
100
AcDbBlockEnd
0
ENDSEC
0
SECTION
2
ENTITIES
0
SPLINE
5
100
100
AcDbEntity
8
0
100
AcDbSpline
70
0
71
3
72
11
73
7
74
0
42
0.000000001
43
0.0000000001
44
0.0000000001
40
0.052755810086177343
40
0.052755810086177343
40
0.052755810086177343
40
0.052755810086177343
40
0.56587818505271859
40
0.56587818505271859
40
0.56587818505271859
40
0.74104804778434041
40
0.74104804778434041
40
0.74104804778434041
40
0.74104804778434041
10
-18.91270822896551
20
-11.192709240989904
30
-5.5511151231257827e-16
10
-18.917404340094063
20
-12.905313523694895
30
-5.5511151231257827e-16
10
-18.923519308918063
20
-14.621166317378474
30
5.5511151231257827e-16
10
-18.93178934650005
20
-16.332419134423802
30
-5.5511151231257827e-16
10
-18.934612574288774
20
-16.916607109232892
30
0
10
-18.937667940192149
20
-17.500258900456028
30
0
10
-18.940940013769904
20
-18.083056122576352
30
-1.1102230246251565e-15
0
SPLINE
5
101
100
AcDbEntity
8
0
100
AcDbSpline
70
0
71
3
72
17
73
13
74
0
42
0.000000001
43
0.0000000001
44
0.0000000001
40
0.66594466069580183
40
0.66594466069580183
40
0.66594466069580183
40
0.66594466069580183
40
0.68786572903988352
40
0.68786572903988352
40
0.68786572903988352
40
1.1697762696374812
40
1.1697762696374812
40
1.1697762696374812
40
1.5604173354205355
40
1.5604173354205355
40
1.5604173354205355
40
1.6516868102350788
40
1.6516868102350788
40
1.6516868102350788
40
1.6516868102350788
10
-18.940940013769904
20
-18.083056122576348
30
-5.5511151231257827e-16
10
-18.941346531073236
20
-18.155461937878822
30
0
10
-18.940661710608058
20
-18.227850258512209
30
-5.5511151231257827e-16
10
-18.93888963635213
20
-18.300189654687436
30
0
10
-18.89993253584732
20
-19.890491594817078
30
-1.1102230246251565e-15
10
-18.338009855180935
20
-21.474184232595185
30
1.1102230246251565e-15
10
-17.253278843847106
20
-22.64524965603907
30
-1.1102230246251565e-15
10
-16.373986023586497
20
-23.594525935716447
30
0
10
-15.15147377892583
20
-24.21240361535417
30
0
10
-13.878547613615659
20
-24.346715428127009
30
-1.1102230246251565e-15
10
-13.58114083086315
20
-24.378096073140849
30
0
10
-13.281133592403782
20
-24.384831294173029
30
0
10
-12.98362675169691
20
-24.367961569276758
30
0
0
SPLINE
5
102
100
AcDbEntity
8
0
100
AcDbSpline
70
0
71
3
72
26
73
22
74
0
42
0.000000001
43
0.0000000001
44
0.0000000001
40
0.051498620507073746
40
0.051498620507073746
40
0.051498620507073746
40
0.051498620507073746
40
0.17410650773343861
40
0.17410650773343861
40
0.17410650773343861
40
0.56164791970414296
40
0.56164791970414296
40
0.56164791970414296
40
0.95257083949793353
40
0.95257083949793353
40
0.95257083949793353
40
1.5861067170641503
40
1.5861067170641503
40
1.5861067170641503
40
2.5302671188286032
40
2.5302671188286032
40
2.5302671188286032
40
3.3362870301560519
40
3.3362870301560519
40
3.3362870301560519
40
3.5212478219641459
40
3.5212478219641459
40
3.5212478219641459
40
3.5212478219641459
10
-12.983626751696907
20
-24.367961569276758
30
0
10
-12.588526279465754
20
-24.345557928886208
30
1.1102230246251565e-15
10
-12.19955289045579
20
-24.32442564971559
30
-1.1102230246251565e-15
10
-11.814752793850761
20
-24.304417985550018
30
-1.1102230246251565e-15
10
-10.598469109837419
20
-24.241177368682976
30
0
10
-9.4247376123133364
20
-24.188529847070292
30
-1.1102230246251565e-15
10
-8.2290271053718183
20
-24.142637099386633
30
0
10
-7.0228833794026642
20
-24.096343912729171
30
-1.1102230246251565e-15
10
-5.8821775907720788
20
-24.060752888647134
30
0
10
-4.8128056425540127
20
-24.034381514342364
30
0
10
-3.0797645202366066
20
-23.991643647318295
30
1.1102230246251565e-15
10
-1.5119099134503486
20
-23.971938135600208
30
0
10
-0.023033872611386286
20
-23.971938135600208
30
0
10
2.1958425173039675
20
-23.971938135600208
30
0
10
4.2397107302218382
20
-24.012566235819683
30
1.1102230246251565e-15
10
6.3700709628894137
20
-24.079360976968601
30
0
10
8.1887373278643594
20
-24.136382952511511
30
1.1102230246251565e-15
10
10.014859797893635
20
-24.213227918470068
30
0
10
11.768685048627827
20
-24.304417985550014
30
-1.1102230246251565e-15
10
12.171142732997664
20
-24.325343755217865
30
0
10
12.574196130578827
20
-24.347287466668355
30
0
10
12.983745866830871
20
-24.370584724205024
30
0
0
SPLINE
5
103
100
AcDbEntity
8
0
100
AcDbSpline
70
0
71
3
72
17
73
13
74
0
42
0.000000001
43
0.0000000001
44
0.0000000001
40
4.6502886253863842
40
4.6502886253863842
40
4.6502886253863842
40
4.6502886253863842
40
5.0439465474054188
40
5.0439465474054188
40
5.0439465474054188
40
5.5362358064649069
40
5.5362358064649069
40
5.5362358064649069
40
5.6180035398619861
40
5.6180035398619861
40
5.6180035398619861
40
5.6381688199240942
40
5.6381688199240942
40
5.6381688199240942
40
5.6381688199240942
10
12.983745866830873
20
-24.370584724205017
30
0
10
14.265826257042747
20
-24.443515932284427
30
0
10
15.583551452312367
20
-24.046140880828837
30
0
10
16.604599153377745
20
-23.24583088066451
30
0
10
17.881471249952909
20
-22.245002509224435
30
0
10
18.660086226399372
20
-20.690617267124946
30
0
10
18.876149157845006
20
-19.086918207022208
30
-5.5511151231257827e-16
10
18.912036546916205
20
-18.820548720419662
30
-5.5511151231257827e-16
10
18.932991749542595
20
-18.552283912818805
30
0
10
18.938922855906014
20
-18.282903758338453
30
-5.5511151231257827e-16
10
18.940385565167084
20
-18.216470141646507
30
5.5511151231257827e-16
10
18.940932247447076
20
-18.149984801787046
30
5.5511151231257827e-16
10
18.940558666905435
20
-18.083473321183487
30
0
0
SPLINE
5
104
100
AcDbEntity
8
0
100
AcDbSpline
70
0
71
3
72
11
73
7
74
0
42
0.000000001
43
0.0000000001
44
0.0000000001
40
0.055196057761608457
40
0.055196057761608457
40
0.055196057761608457
40
0.055196057761608457
40
0.19757563547138884
40
0.19757563547138884
40
0.19757563547138884
40
0.74993398793018373
40
0.74993398793018373
40
0.74993398793018373
40
0.74993398793018373
10
18.940558666905435
20
-18.08347332118349
30
-5.5511151231257827e-16
10
18.93792133800105
20
-17.61392892388487
30
0
10
18.93542714201401
20
-17.143866273258848
30
0
10
18.933085035800758
20
-16.673446204873777
30
-5.5511151231257827e-16
10
18.923998887702531
20
-14.848462185983248
30
0
10
18.917423044751786
20
-13.018104201790656
30
5.5511151231257827e-16
10
18.912464972691648
20
-11.191560417085704
30
-5.5511151231257827e-16
0
SPLINE
5
105
100
AcDbEntity
8
0
100
AcDbSpline
70
0
71
3
72
14
73
10
74
0
42
0.000000001
43
0.0000000001
44
0.0000000001
40
0.59087181744407702
40
0.59087181744407702
40
0.59087181744407702
40
0.59087181744407702
40
0.69498851143689044
40
0.69498851143689044
40
0.69498851143689044
40
0.70260447641425294
40
0.70260447641425294
40
0.70260447641425294
40
0.71132031712541277
40
0.71132031712541277
40
0.71132031712541277
40
0.71132031712541277
10
18.912464972691648
20
-11.191560417085702
30
-5.5511151231257827e-16
10
18.911522611833181
20
-10.84439657031025
30
-5.5511151231257827e-16
10
18.660458168335783
20
-10.503351353917934
30
-5.5511151231257827e-16
10
18.324582916094304
20
-10.433215642114433
30
-5.5511151231257827e-16
10
18.300014193637455
20
-10.428085330112838
30
0
10
18.27514566851421
20
-10.424264469884472
30
-5.5511151231257827e-16
10
18.250099831678103
20
-10.42178081654502
30
-5.5511151231257827e-16
10
18.221436947199237
20
-10.418938481141334
30
0
10
18.192690606728632
20
-10.417860761526047
30
0
10
18.16400405188211
20
-10.418522217773241
30
-5.5511151231257827e-16
0
SPLINE
5
106
100
AcDbEntity
8
0
100
AcDbSpline
70
0
71
3
72
8
73
4
74
0
42
0.000000001
43
0.0000000001
44
0.0000000001
40
0.050398879499469182
40
0.050398879499469182
40
0.050398879499469182
40
0.050398879499469182
40
0.1168798459754862
40
0.1168798459754862
40
0.1168798459754862
40
0.1168798459754862
10
18.164004051882102
20
-10.418522217773241
30
-5.5511151231257827e-16
10
17.945524124135275
20
-10.423559940632165
30
0
10
17.727334608056406
20
-10.428153973358551
30
0
10
17.508960766166812
20
-10.432344947474288
30
-5.5511151231257827e-16
0
SPLINE
5
107
100
AcDbEntity
8
0
100
AcDbSpline
70
0
71
3
72
11
73
7
74
0
42
0.000000001
43
0.0000000001
44
0.0000000001
40
0.78915652705962569
40
0.78915652705962569
40
0.78915652705962569
40
0.78915652705962569
40
0.98480692528159186
40
0.98480692528159186
40
0.98480692528159186
40
1.0691189043473106
40
1.0691189043473106
40
1.0691189043473106
40
1.0691189043473106
10
17.508960766166815
20
-10.432344947474288
30
-5.5511151231257827e-16
10
16.865230626908772
20
-10.444699249289034
30
5.5511151231257827e-16
10
16.234401549661307
20
-10.037244643239632
30
0
10
15.948106931091084
20
-9.4521996904423489
30
-5.5511151231257827e-16
10
15.824733474625454
20
-9.2000852134925601
30
-2.7755575615628914e-16
10
15.760050418385468
20
-8.9186858710883321
30
0
10
15.758979030082347
20
-8.6383591604424019
30
-2.7755575615628914e-16
0
LINE
5
108
100
AcDbEntity
8
0
100
AcDbLine
10
15.758979030082346
20
-8.6383591604424019
30
-2.7755575615628914e-16
11
15.758215646899096
21
-8.4378550440391926
31
-5.1174342541315809e-16
0
SPLINE
5
109
100
AcDbEntity
8
0
100
AcDbSpline
70
0
71
3
72
8
73
4
74
0
42
0.000000001
43
0.0000000001
44
0.0000000001
40
0
40
0
40
0
40
0
40
0.047157400172003178
40
0.047157400172003178
40
0.047157400172003178
40
0.047157400172003178
10
15.758215646899092
20
-8.4378550440391891
30
-2.7755575615628914e-16
10
15.757618529297297
20
-8.2804175592848512
30
-5.5511151231257827e-16
10
15.62099164874952
20
-8.1334809191396022
30
-2.7755575615628914e-16
10
15.465076662847192
20
-8.1326622145696028
30
-5.5511151231257827e-16
0
SPLINE
5
110
100
AcDbEntity
8
0
100
AcDbSpline
70
0
71
3
72
11
73
7
74
0
42
0.000000001
43
0.0000000001
44
0.0000000001
40
0.050726002576555913
40
0.050726002576555913
40
0.050726002576555913
40
0.050726002576555913
40
0.63882567601644302
40
0.63882567601644302
40
0.63882567601644302
40
1.8931426499408219
40
1.8931426499408219
40
1.8931426499408219
40
1.8931426499408219
10
15.465076662847192
20
-8.1326622145696081
30
2.7755575615628914e-16
10
13.558970880126605
20
-8.1226533144873958
30
-5.5511151231257827e-16
10
11.87956287761792
20
-8.0958125887845931
30
-5.5511151231257827e-16
10
10.290247748162713
20
-8.0584905976507351
30
2.7755575615628914e-16
10
6.9005078217142497
20
-7.9788891132526345
30
0
10
3.9091893115663363
20
-7.8572880006522485
30
0
10
4.9994407125275586e-05
20
-7.7649928175283334
30
0
0
SPLINE
5
111
100
AcDbEntity
8
0
100
AcDbSpline
70
0
71
3
72
14
73
10
74
0
42
0.000000001
43
0.0000000001
44
0.0000000001
40
0.050501956088097821
40
0.050501956088097821
40
0.050501956088097821
40
0.050501956088097821
40
0.052853327935316406
40
0.052853327935316406
40
0.052853327935316406
40
1.2516960000030717
40
1.2516960000030717
40
1.2516960000030717
40
1.8121155169189374
40
1.8121155169189374
40
1.8121155169189374
40
1.8121155169189374
10
4.9994407125038051e-05
20
-7.7649928175283343
30
-2.7755575615628914e-16
10
-0.0076480744256647391
20
-7.7651736195906693
30
-5.5511151231257827e-16
10
-0.015342693576904261
20
-7.7653545768115171
30
-2.7755575615628914e-16
10
-0.023033872610870247
20
-7.7655356899060077
30
-2.7755575615628914e-16
10
-3.9443675550474189
20
-7.8578758726819951
30
0
10
-6.9534963128167115
20
-7.9801474375840975
30
0
10
-10.336386316549257
20
-8.0596011974226709
30
0
10
-11.917776123438076
20
-8.0967432167579361
30
-5.5511151231257827e-16
10
-13.583262081661838
20
-8.1233504018420337
30
-2.7755575615628914e-16
10
-15.46521966754057
20
-8.1335508560998555
30
-2.7755575615628914e-16
0
SPLINE
5
112
100
AcDbEntity
8
0
100
AcDbSpline
70
0
71
3
72
8
73
4
74
0
42
0.000000001
43
0.0000000001
44
0.0000000001
40
0
40
0
40
0
40
0
40
0.047078151258506104
40
0.047078151258506104
40
0.047078151258506104
40
0.047078151258506104
10
-15.465219667540568
20
-8.133550856099852
30
-2.7755575615628914e-16
10
-15.621095844177688
20
-8.1343957251987113
30
-2.7755575615628914e-16
10
-15.757763260664442
20
-8.2814153617602848
30
-2.7755575615628914e-16
10
-15.758362431696042
20
-8.4387346912967924
30
0
0
LINE
5
113
100
AcDbEntity
8
0
100
AcDbLine
10
-15.758362431696042
20
-8.4387346912967924
30
-2.2694975557738199e-33
11
-15.759128810782133
21
-8.6391997187682392
31
5.2041704279304213e-17
0
SPLINE
5
114
100
AcDbEntity
8
0
100
AcDbSpline
70
0
71
3
72
11
73
7
74
0
42
0.000000001
43
0.0000000001
44
0.0000000001
40
0.7504961867491734
40
0.7504961867491734
40
0.7504961867491734
40
0.7504961867491734
40
0.958600498201435
40
0.958600498201435
40
0.958600498201435
40
1.0301867843350803
40
1.0301867843350803
40
1.0301867843350803
40
1.0301867843350803
10
-15.759128810782133
20
-8.6391997187682392
30
2.7755575615628914e-16
10
-15.761788778307489
20
-9.3323692725462788
30
-2.7755575615628914e-16
10
-16.187339008026058
20
-10.01978774922576
30
0
10
-16.81853140327404
20
-10.295270441093749
30
0
10
-17.03565674342812
20
-10.39003437302436
30
-5.5511151231257827e-16
10
-17.272723900440074
20
-10.43769541734202
30
-1.1102230246251565e-15
10
-17.509167653631028
20
-10.433219129238536
30
-5.5511151231257827e-16
0
SPLINE
5
115
100
AcDbEntity
8
0
100
AcDbSpline
70
0
71
3
72
8
73
4
74
0
42
0.000000001
43
0.0000000001
44
0.0000000001
40
0.050203790745645738
40
0.050203790745645738
40
0.050203790745645738
40
0.050203790745645738
40
0.11632603134771417
40
0.11632603134771417
40
0.11632603134771417
40
0.11632603134771417
10
-17.509167653631032
20
-10.433219129238543
30
-5.5511151231257827e-16
10
-17.727524564807624
20
-10.429085256253432
30
-5.5511151231257827e-16
10
-17.945732345144741
20
-10.424549945940612
30
-5.5511151231257827e-16
10
-18.164222080078996
20
-10.419573016232457
30
0
0
SPLINE
5
116
100
AcDbEntity
8
0
100
AcDbSpline
70
0
71
3
72
11
73
7
74
0
42
0.000000001
43
0.0000000001
44
0.0000000001
40
0.17283412599760392
40
0.17283412599760392
40
0.17283412599760392
40
0.17283412599760392
40
0.1862852183183866
40
0.1862852183183866
40
0.1862852183183866
40
0.29327564608845891
40
0.29327564608845891
40
0.29327564608845891
40
0.29327564608845891
10
-18.164222080078996
20
-10.419573016232462
30
0
10
-18.208485377109625
20
-10.41856475230629
30
0
10
-18.253027337817095
20
-10.421727433778011
30
0
10
-18.296776404325172
20
-10.429039227900031
30
-5.5511151231257827e-16
10
-18.644757908623408
20
-10.487197477224726
30
-1.1102230246251565e-15
10
-18.911728628619013
20
-10.835463063712742
30
-5.5511151231257827e-16
10
-18.912708228965506
20
-11.192709240989904
30
-5.5511151231257827e-16
0
ENDSEC
0
SECTION
2
OBJECTS
0
DICTIONARY
5
C
100
AcDbDictionary
3
ACAD_GROUP
350
D
3
ACAD_MLINESTYLE
350
17
0
DICTIONARY
5
D
100
AcDbDictionary
0
DICTIONARY
5
1A
330
C
100
AcDbDictionary
0
DICTIONARY
5
17
100
AcDbDictionary
0
ENDSEC
0
EOF
