%TF.GenerationSoftware,KiCad,Pcbnew,9.0.6-rc2*%
%TF.CreationDate,2025-12-11T22:20:18-08:00*%
%TF.ProjectId,UGC_Main_R5,5547435f-4d61-4696-9e5f-52352e6b6963,rev?*%
%TF.SameCoordinates,Original*%
%TF.FileFunction,Legend,Bot*%
%TF.FilePolarity,Positive*%
%FSLAX46Y46*%
G04 Gerber Fmt 4.6, Leading zero omitted, Abs format (unit mm)*
G04 Created by KiCad (PCBNEW 9.0.6-rc2) date 2025-12-11 22:20:18*
%MOMM*%
%LPD*%
G01*
G04 APERTURE LIST*
%ADD10C,0.120000*%
%ADD11C,0.100000*%
%ADD12C,0.200000*%
%ADD13C,0.127000*%
%ADD14C,0.152400*%
G04 APERTURE END LIST*
D10*
X110916833Y-49676193D02*
X109964453Y-49676193D01*
X110440643Y-50152383D02*
X110440643Y-49200002D01*
D11*
X64756666Y-37836109D02*
X64756666Y-38193252D01*
X64756666Y-38193252D02*
X64780475Y-38264680D01*
X64780475Y-38264680D02*
X64828094Y-38312300D01*
X64828094Y-38312300D02*
X64899523Y-38336109D01*
X64899523Y-38336109D02*
X64947142Y-38336109D01*
X64280476Y-37836109D02*
X64518571Y-37836109D01*
X64518571Y-37836109D02*
X64542380Y-38074204D01*
X64542380Y-38074204D02*
X64518571Y-38050395D01*
X64518571Y-38050395D02*
X64470952Y-38026585D01*
X64470952Y-38026585D02*
X64351904Y-38026585D01*
X64351904Y-38026585D02*
X64304285Y-38050395D01*
X64304285Y-38050395D02*
X64280476Y-38074204D01*
X64280476Y-38074204D02*
X64256666Y-38121823D01*
X64256666Y-38121823D02*
X64256666Y-38240871D01*
X64256666Y-38240871D02*
X64280476Y-38288490D01*
X64280476Y-38288490D02*
X64304285Y-38312300D01*
X64304285Y-38312300D02*
X64351904Y-38336109D01*
X64351904Y-38336109D02*
X64470952Y-38336109D01*
X64470952Y-38336109D02*
X64518571Y-38312300D01*
X64518571Y-38312300D02*
X64542380Y-38288490D01*
X37629351Y-75268509D02*
X37343637Y-75268509D01*
X37486494Y-75768509D02*
X37486494Y-75268509D01*
X37176971Y-75768509D02*
X37176971Y-75268509D01*
X37176971Y-75268509D02*
X36986495Y-75268509D01*
X36986495Y-75268509D02*
X36938876Y-75292319D01*
X36938876Y-75292319D02*
X36915066Y-75316128D01*
X36915066Y-75316128D02*
X36891257Y-75363747D01*
X36891257Y-75363747D02*
X36891257Y-75435176D01*
X36891257Y-75435176D02*
X36915066Y-75482795D01*
X36915066Y-75482795D02*
X36938876Y-75506604D01*
X36938876Y-75506604D02*
X36986495Y-75530414D01*
X36986495Y-75530414D02*
X37176971Y-75530414D01*
X36724590Y-75268509D02*
X36391257Y-75268509D01*
X36391257Y-75268509D02*
X36605542Y-75768509D01*
X34075761Y-75996509D02*
X34075761Y-76353652D01*
X34075761Y-76353652D02*
X34099570Y-76425080D01*
X34099570Y-76425080D02*
X34147189Y-76472700D01*
X34147189Y-76472700D02*
X34218618Y-76496509D01*
X34218618Y-76496509D02*
X34266237Y-76496509D01*
X33575761Y-76496509D02*
X33861475Y-76496509D01*
X33718618Y-76496509D02*
X33718618Y-75996509D01*
X33718618Y-75996509D02*
X33766237Y-76067938D01*
X33766237Y-76067938D02*
X33813856Y-76115557D01*
X33813856Y-76115557D02*
X33861475Y-76139366D01*
X33266238Y-75996509D02*
X33218619Y-75996509D01*
X33218619Y-75996509D02*
X33171000Y-76020319D01*
X33171000Y-76020319D02*
X33147190Y-76044128D01*
X33147190Y-76044128D02*
X33123381Y-76091747D01*
X33123381Y-76091747D02*
X33099571Y-76186985D01*
X33099571Y-76186985D02*
X33099571Y-76306033D01*
X33099571Y-76306033D02*
X33123381Y-76401271D01*
X33123381Y-76401271D02*
X33147190Y-76448890D01*
X33147190Y-76448890D02*
X33171000Y-76472700D01*
X33171000Y-76472700D02*
X33218619Y-76496509D01*
X33218619Y-76496509D02*
X33266238Y-76496509D01*
X33266238Y-76496509D02*
X33313857Y-76472700D01*
X33313857Y-76472700D02*
X33337666Y-76448890D01*
X33337666Y-76448890D02*
X33361476Y-76401271D01*
X33361476Y-76401271D02*
X33385285Y-76306033D01*
X33385285Y-76306033D02*
X33385285Y-76186985D01*
X33385285Y-76186985D02*
X33361476Y-76091747D01*
X33361476Y-76091747D02*
X33337666Y-76044128D01*
X33337666Y-76044128D02*
X33313857Y-76020319D01*
X33313857Y-76020319D02*
X33266238Y-75996509D01*
X99451639Y-70692700D02*
X99523067Y-70668890D01*
X99523067Y-70668890D02*
X99642115Y-70668890D01*
X99642115Y-70668890D02*
X99689734Y-70692700D01*
X99689734Y-70692700D02*
X99713543Y-70716509D01*
X99713543Y-70716509D02*
X99737353Y-70764128D01*
X99737353Y-70764128D02*
X99737353Y-70811747D01*
X99737353Y-70811747D02*
X99713543Y-70859366D01*
X99713543Y-70859366D02*
X99689734Y-70883176D01*
X99689734Y-70883176D02*
X99642115Y-70906985D01*
X99642115Y-70906985D02*
X99546877Y-70930795D01*
X99546877Y-70930795D02*
X99499258Y-70954604D01*
X99499258Y-70954604D02*
X99475448Y-70978414D01*
X99475448Y-70978414D02*
X99451639Y-71026033D01*
X99451639Y-71026033D02*
X99451639Y-71073652D01*
X99451639Y-71073652D02*
X99475448Y-71121271D01*
X99475448Y-71121271D02*
X99499258Y-71145080D01*
X99499258Y-71145080D02*
X99546877Y-71168890D01*
X99546877Y-71168890D02*
X99665924Y-71168890D01*
X99665924Y-71168890D02*
X99737353Y-71145080D01*
X99904019Y-71168890D02*
X100023067Y-70668890D01*
X100023067Y-70668890D02*
X100118305Y-71026033D01*
X100118305Y-71026033D02*
X100213543Y-70668890D01*
X100213543Y-70668890D02*
X100332591Y-71168890D01*
X100784972Y-70668890D02*
X100499258Y-70668890D01*
X100642115Y-70668890D02*
X100642115Y-71168890D01*
X100642115Y-71168890D02*
X100594496Y-71097461D01*
X100594496Y-71097461D02*
X100546877Y-71049842D01*
X100546877Y-71049842D02*
X100499258Y-71026033D01*
X101237352Y-71168890D02*
X100999257Y-71168890D01*
X100999257Y-71168890D02*
X100975448Y-70930795D01*
X100975448Y-70930795D02*
X100999257Y-70954604D01*
X100999257Y-70954604D02*
X101046876Y-70978414D01*
X101046876Y-70978414D02*
X101165924Y-70978414D01*
X101165924Y-70978414D02*
X101213543Y-70954604D01*
X101213543Y-70954604D02*
X101237352Y-70930795D01*
X101237352Y-70930795D02*
X101261162Y-70883176D01*
X101261162Y-70883176D02*
X101261162Y-70764128D01*
X101261162Y-70764128D02*
X101237352Y-70716509D01*
X101237352Y-70716509D02*
X101213543Y-70692700D01*
X101213543Y-70692700D02*
X101165924Y-70668890D01*
X101165924Y-70668890D02*
X101046876Y-70668890D01*
X101046876Y-70668890D02*
X100999257Y-70692700D01*
X100999257Y-70692700D02*
X100975448Y-70716509D01*
X41693351Y-75243109D02*
X41407637Y-75243109D01*
X41550494Y-75743109D02*
X41550494Y-75243109D01*
X41240971Y-75743109D02*
X41240971Y-75243109D01*
X41240971Y-75243109D02*
X41050495Y-75243109D01*
X41050495Y-75243109D02*
X41002876Y-75266919D01*
X41002876Y-75266919D02*
X40979066Y-75290728D01*
X40979066Y-75290728D02*
X40955257Y-75338347D01*
X40955257Y-75338347D02*
X40955257Y-75409776D01*
X40955257Y-75409776D02*
X40979066Y-75457395D01*
X40979066Y-75457395D02*
X41002876Y-75481204D01*
X41002876Y-75481204D02*
X41050495Y-75505014D01*
X41050495Y-75505014D02*
X41240971Y-75505014D01*
X40526685Y-75243109D02*
X40621923Y-75243109D01*
X40621923Y-75243109D02*
X40669542Y-75266919D01*
X40669542Y-75266919D02*
X40693352Y-75290728D01*
X40693352Y-75290728D02*
X40740971Y-75362157D01*
X40740971Y-75362157D02*
X40764780Y-75457395D01*
X40764780Y-75457395D02*
X40764780Y-75647871D01*
X40764780Y-75647871D02*
X40740971Y-75695490D01*
X40740971Y-75695490D02*
X40717161Y-75719300D01*
X40717161Y-75719300D02*
X40669542Y-75743109D01*
X40669542Y-75743109D02*
X40574304Y-75743109D01*
X40574304Y-75743109D02*
X40526685Y-75719300D01*
X40526685Y-75719300D02*
X40502876Y-75695490D01*
X40502876Y-75695490D02*
X40479066Y-75647871D01*
X40479066Y-75647871D02*
X40479066Y-75528823D01*
X40479066Y-75528823D02*
X40502876Y-75481204D01*
X40502876Y-75481204D02*
X40526685Y-75457395D01*
X40526685Y-75457395D02*
X40574304Y-75433585D01*
X40574304Y-75433585D02*
X40669542Y-75433585D01*
X40669542Y-75433585D02*
X40717161Y-75457395D01*
X40717161Y-75457395D02*
X40740971Y-75481204D01*
X40740971Y-75481204D02*
X40764780Y-75528823D01*
X114547123Y-37950509D02*
X114547123Y-38307652D01*
X114547123Y-38307652D02*
X114570932Y-38379080D01*
X114570932Y-38379080D02*
X114618551Y-38426700D01*
X114618551Y-38426700D02*
X114689980Y-38450509D01*
X114689980Y-38450509D02*
X114737599Y-38450509D01*
X114094742Y-38117176D02*
X114094742Y-38450509D01*
X114213790Y-37926700D02*
X114332837Y-38283842D01*
X114332837Y-38283842D02*
X114023314Y-38283842D01*
X140367582Y-78199831D02*
X140330250Y-78555017D01*
X140330250Y-78555017D02*
X140346463Y-78628543D01*
X140346463Y-78628543D02*
X140388844Y-78680879D01*
X140388844Y-78680879D02*
X140457392Y-78712024D01*
X140457392Y-78712024D02*
X140504751Y-78717002D01*
X140178150Y-78179921D02*
X139870322Y-78147567D01*
X139870322Y-78147567D02*
X140016165Y-78354421D01*
X140016165Y-78354421D02*
X139945128Y-78346954D01*
X139945128Y-78346954D02*
X139895281Y-78365656D01*
X139895281Y-78365656D02*
X139869113Y-78386846D01*
X139869113Y-78386846D02*
X139840456Y-78431716D01*
X139840456Y-78431716D02*
X139828012Y-78550111D01*
X139828012Y-78550111D02*
X139846714Y-78599958D01*
X139846714Y-78599958D02*
X139867904Y-78626126D01*
X139867904Y-78626126D02*
X139912774Y-78654783D01*
X139912774Y-78654783D02*
X140054848Y-78669715D01*
X140054848Y-78669715D02*
X140104695Y-78651014D01*
X140104695Y-78651014D02*
X140130863Y-78629823D01*
X150296666Y-76834709D02*
X150296666Y-77191852D01*
X150296666Y-77191852D02*
X150320475Y-77263280D01*
X150320475Y-77263280D02*
X150368094Y-77310900D01*
X150368094Y-77310900D02*
X150439523Y-77334709D01*
X150439523Y-77334709D02*
X150487142Y-77334709D01*
X149796666Y-77334709D02*
X150082380Y-77334709D01*
X149939523Y-77334709D02*
X149939523Y-76834709D01*
X149939523Y-76834709D02*
X149987142Y-76906138D01*
X149987142Y-76906138D02*
X150034761Y-76953757D01*
X150034761Y-76953757D02*
X150082380Y-76977566D01*
X106816776Y-52599675D02*
X106745348Y-52623485D01*
X106745348Y-52623485D02*
X106721538Y-52647294D01*
X106721538Y-52647294D02*
X106697729Y-52694913D01*
X106697729Y-52694913D02*
X106697729Y-52766342D01*
X106697729Y-52766342D02*
X106721538Y-52813961D01*
X106721538Y-52813961D02*
X106745348Y-52837771D01*
X106745348Y-52837771D02*
X106792967Y-52861580D01*
X106792967Y-52861580D02*
X106983443Y-52861580D01*
X106983443Y-52861580D02*
X106983443Y-52361580D01*
X106983443Y-52361580D02*
X106816776Y-52361580D01*
X106816776Y-52361580D02*
X106769157Y-52385390D01*
X106769157Y-52385390D02*
X106745348Y-52409199D01*
X106745348Y-52409199D02*
X106721538Y-52456818D01*
X106721538Y-52456818D02*
X106721538Y-52504437D01*
X106721538Y-52504437D02*
X106745348Y-52552056D01*
X106745348Y-52552056D02*
X106769157Y-52575866D01*
X106769157Y-52575866D02*
X106816776Y-52599675D01*
X106816776Y-52599675D02*
X106983443Y-52599675D01*
X106221538Y-52861580D02*
X106507252Y-52861580D01*
X106364395Y-52861580D02*
X106364395Y-52361580D01*
X106364395Y-52361580D02*
X106412014Y-52433009D01*
X106412014Y-52433009D02*
X106459633Y-52480628D01*
X106459633Y-52480628D02*
X106507252Y-52504437D01*
X98090909Y-29485238D02*
X98448052Y-29485238D01*
X98448052Y-29485238D02*
X98519480Y-29461429D01*
X98519480Y-29461429D02*
X98567100Y-29413810D01*
X98567100Y-29413810D02*
X98590909Y-29342381D01*
X98590909Y-29342381D02*
X98590909Y-29294762D01*
X98590909Y-29985238D02*
X98590909Y-29699524D01*
X98590909Y-29842381D02*
X98090909Y-29842381D01*
X98090909Y-29842381D02*
X98162338Y-29794762D01*
X98162338Y-29794762D02*
X98209957Y-29747143D01*
X98209957Y-29747143D02*
X98233766Y-29699524D01*
X98590909Y-30461428D02*
X98590909Y-30175714D01*
X98590909Y-30318571D02*
X98090909Y-30318571D01*
X98090909Y-30318571D02*
X98162338Y-30270952D01*
X98162338Y-30270952D02*
X98209957Y-30223333D01*
X98209957Y-30223333D02*
X98233766Y-30175714D01*
%TO.C,J5*%
X63260000Y-38715000D02*
X63260000Y-38715000D01*
X63260000Y-38715000D02*
X63260000Y-38715000D01*
X63260000Y-38715000D02*
X63260000Y-39990000D01*
X63260000Y-38715000D02*
X65110000Y-38715000D01*
X63260000Y-39990000D02*
X63260000Y-38715000D01*
X63260000Y-39990000D02*
X63260000Y-39990000D01*
X63260000Y-42490000D02*
X63260000Y-42490000D01*
X63260000Y-42490000D02*
X63260000Y-42765000D01*
X63260000Y-42765000D02*
X63260000Y-42490000D01*
X63260000Y-42765000D02*
X63260000Y-42765000D01*
X63260000Y-42765000D02*
X63260000Y-42765000D01*
X63260000Y-42765000D02*
X69960000Y-42765000D01*
X65110000Y-38715000D02*
X63260000Y-38715000D01*
X65110000Y-38715000D02*
X65110000Y-38715000D01*
D12*
X67410000Y-37340000D02*
X67410000Y-37340000D01*
X67410000Y-37440000D02*
X67410000Y-37440000D01*
X67410000Y-37440000D02*
X67410000Y-37440000D01*
D11*
X68110000Y-38715000D02*
X68110000Y-38715000D01*
X68110000Y-38715000D02*
X69960000Y-38715000D01*
X69960000Y-38715000D02*
X68110000Y-38715000D01*
X69960000Y-38715000D02*
X69960000Y-38715000D01*
X69960000Y-38715000D02*
X69960000Y-38715000D01*
X69960000Y-38715000D02*
X69960000Y-39990000D01*
X69960000Y-39990000D02*
X69960000Y-38715000D01*
X69960000Y-39990000D02*
X69960000Y-39990000D01*
X69960000Y-42490000D02*
X69960000Y-42490000D01*
X69960000Y-42490000D02*
X69960000Y-42740000D01*
X69960000Y-42740000D02*
X69960000Y-42490000D01*
X69960000Y-42740000D02*
X69960000Y-42740000D01*
X69960000Y-42765000D02*
X63260000Y-42765000D01*
X69960000Y-42765000D02*
X69960000Y-42765000D01*
D12*
X67410000Y-37340000D02*
G75*
G02*
X67410000Y-37440000I0J-50000D01*
G01*
X67410000Y-37440000D02*
G75*
G02*
X67410000Y-37340000I0J50000D01*
G01*
X67410000Y-37440000D02*
G75*
G02*
X67410000Y-37340000I0J50000D01*
G01*
D13*
%TO.C,SW14*%
X89000457Y-72754400D02*
X89000457Y-75114400D01*
X93800457Y-71384400D02*
X89300457Y-71384400D01*
X93800457Y-76484400D02*
X89300457Y-76484400D01*
X94100457Y-75114400D02*
X94100457Y-72754400D01*
D12*
X95900457Y-72059400D02*
G75*
G02*
X95700457Y-72059400I-100000J0D01*
G01*
X95700457Y-72059400D02*
G75*
G02*
X95900457Y-72059400I100000J0D01*
G01*
D10*
%TO.C,TP7*%
X35798400Y-76340400D02*
X38198400Y-76340400D01*
X35798400Y-78740400D02*
X35798400Y-76340400D01*
X38198400Y-76340400D02*
X38198400Y-78740400D01*
X38198400Y-78740400D02*
X35798400Y-78740400D01*
D13*
%TO.C,J10*%
X37130400Y-78064800D02*
X37930400Y-78064800D01*
X37130400Y-78801800D02*
X37130400Y-78064800D01*
X37930400Y-78064800D02*
X37930400Y-77764800D01*
X38067400Y-77764800D02*
X37930400Y-77764800D01*
X38244400Y-80464800D02*
X39816400Y-80464800D01*
X39993400Y-77764800D02*
X40130400Y-77764800D01*
X40130400Y-77764800D02*
X40130400Y-78064800D01*
X40130400Y-78064800D02*
X40930400Y-78064800D01*
X40930400Y-78801800D02*
X40930400Y-78064800D01*
D12*
X40255400Y-77289800D02*
G75*
G02*
X40055400Y-77289800I-100000J0D01*
G01*
X40055400Y-77289800D02*
G75*
G02*
X40255400Y-77289800I100000J0D01*
G01*
D10*
%TO.C,TP1*%
X152062654Y-73256448D02*
X154462654Y-73256448D01*
X152062654Y-75656448D02*
X152062654Y-73256448D01*
X154462654Y-73256448D02*
X154462654Y-75656448D01*
X154462654Y-75656448D02*
X152062654Y-75656448D01*
%TO.C,SW15*%
D11*
X100742800Y-72421400D02*
X98641200Y-72421400D01*
X98641200Y-74319800D01*
X100742800Y-74319800D01*
X100742800Y-72421400D01*
D10*
%TO.C,TP6*%
X39862400Y-76315000D02*
X42262400Y-76315000D01*
X39862400Y-78715000D02*
X39862400Y-76315000D01*
X42262400Y-76315000D02*
X42262400Y-78715000D01*
X42262400Y-78715000D02*
X39862400Y-78715000D01*
D11*
%TO.C,J4*%
X113120457Y-38809400D02*
X113120457Y-38809400D01*
X113120457Y-38809400D02*
X113120457Y-38809400D01*
X113120457Y-38809400D02*
X113120457Y-40084400D01*
X113120457Y-38809400D02*
X114970457Y-38809400D01*
X113120457Y-40084400D02*
X113120457Y-38809400D01*
X113120457Y-40084400D02*
X113120457Y-40084400D01*
X113120457Y-42584400D02*
X113120457Y-42584400D01*
X113120457Y-42584400D02*
X113120457Y-42859400D01*
X113120457Y-42859400D02*
X113120457Y-42584400D01*
X113120457Y-42859400D02*
X113120457Y-42859400D01*
X113120457Y-42859400D02*
X113120457Y-42859400D01*
X113120457Y-42859400D02*
X119820457Y-42859400D01*
X114970457Y-38809400D02*
X113120457Y-38809400D01*
X114970457Y-38809400D02*
X114970457Y-38809400D01*
D12*
X117270456Y-37434400D02*
X117270456Y-37434400D01*
X117270457Y-37534400D02*
X117270457Y-37534400D01*
X117270457Y-37534400D02*
X117270457Y-37534400D01*
D11*
X117970457Y-38809400D02*
X117970457Y-38809400D01*
X117970457Y-38809400D02*
X119820457Y-38809400D01*
X119820457Y-38809400D02*
X117970457Y-38809400D01*
X119820457Y-38809400D02*
X119820457Y-38809400D01*
X119820457Y-38809400D02*
X119820457Y-38809400D01*
X119820457Y-38809400D02*
X119820457Y-40084400D01*
X119820457Y-40084400D02*
X119820457Y-38809400D01*
X119820457Y-40084400D02*
X119820457Y-40084400D01*
X119820457Y-42584400D02*
X119820457Y-42584400D01*
X119820457Y-42584400D02*
X119820457Y-42834400D01*
X119820457Y-42834400D02*
X119820457Y-42584400D01*
X119820457Y-42834400D02*
X119820457Y-42834400D01*
X119820457Y-42859400D02*
X113120457Y-42859400D01*
X119820457Y-42859400D02*
X119820457Y-42859400D01*
D12*
X117270456Y-37434400D02*
G75*
G02*
X117270457Y-37534400I1J-50000D01*
G01*
X117270457Y-37534400D02*
G75*
G02*
X117270456Y-37434400I0J50000D01*
G01*
X117270457Y-37534400D02*
G75*
G02*
X117270456Y-37434400I0J50000D01*
G01*
D10*
%TO.C,TP2*%
X152066542Y-76346669D02*
X154466542Y-76346669D01*
X152066542Y-78746669D02*
X152066542Y-76346669D01*
X154466542Y-76346669D02*
X154466542Y-78746669D01*
X154466542Y-78746669D02*
X152066542Y-78746669D01*
D14*
%TO.C,J3*%
X138180548Y-77523677D02*
X138330019Y-76101550D01*
X138532813Y-74172098D02*
X138734549Y-72252710D01*
X138734549Y-72252710D02*
X141250643Y-72517163D01*
X144366754Y-70747189D02*
X144892075Y-71823999D01*
X145169136Y-72929014D02*
X147685228Y-73193465D01*
X145756102Y-70893215D02*
X144366754Y-70747189D01*
X145756102Y-70893215D02*
X144892075Y-71823999D01*
X147131227Y-78464432D02*
X138180548Y-77523677D01*
X147280699Y-77042303D02*
X147131227Y-78464432D01*
X147685228Y-73193465D02*
X147483492Y-75112852D01*
D13*
%TO.C,J1*%
X149550800Y-78064800D02*
X150350800Y-78064800D01*
X149550800Y-78801800D02*
X149550800Y-78064800D01*
X150350800Y-78064800D02*
X150350800Y-77764800D01*
X150487800Y-77764800D02*
X150350800Y-77764800D01*
X150664800Y-80464800D02*
X152236800Y-80464800D01*
X152413800Y-77764800D02*
X152550800Y-77764800D01*
X152550800Y-77764800D02*
X152550800Y-78064800D01*
X152550800Y-78064800D02*
X153350800Y-78064800D01*
X153350800Y-78801800D02*
X153350800Y-78064800D01*
D12*
X152675800Y-77289800D02*
G75*
G02*
X152475800Y-77289800I-100000J0D01*
G01*
X152475800Y-77289800D02*
G75*
G02*
X152675800Y-77289800I100000J0D01*
G01*
D10*
%TO.C,B1*%
X103254396Y-50595471D02*
X103254396Y-51845471D01*
X103254396Y-51845471D02*
X104504396Y-51845471D01*
X103554396Y-46825471D02*
X103554396Y-51545471D01*
X103554396Y-51545471D02*
X109674396Y-51545471D01*
X104164396Y-47435471D02*
X104164396Y-50935471D01*
X104164396Y-48935471D02*
X103554396Y-48935471D01*
X104164396Y-50235471D02*
X103554396Y-50235471D01*
X104164396Y-50935471D02*
X106114396Y-50935471D01*
X105014396Y-51545471D02*
X105014396Y-51745471D01*
X105014396Y-51645471D02*
X105314396Y-51645471D01*
X105014396Y-51745471D02*
X105314396Y-51745471D01*
X105314396Y-51745471D02*
X105314396Y-51545471D01*
X106114396Y-50935471D02*
X106114396Y-51545471D01*
X106514396Y-47935471D02*
X106514396Y-47435471D01*
X106614396Y-47935471D02*
X106614396Y-47435471D01*
X106714396Y-47435471D02*
X106714396Y-47935471D01*
X106714396Y-47935471D02*
X106514396Y-47935471D01*
X107114396Y-50935471D02*
X109064396Y-50935471D01*
X107114396Y-51545471D02*
X107114396Y-50935471D01*
X109064396Y-47435471D02*
X104164396Y-47435471D01*
X109064396Y-48935471D02*
X109674396Y-48935471D01*
X109064396Y-50235471D02*
X109674396Y-50235471D01*
X109064396Y-50935471D02*
X109064396Y-47435471D01*
X109674396Y-46825471D02*
X103554396Y-46825471D01*
X109674396Y-51545471D02*
X109674396Y-46825471D01*
D12*
%TO.C,J11*%
X86625457Y-20451200D02*
X96475457Y-20451200D01*
X86625457Y-21786200D02*
X86625457Y-20451200D01*
X86625457Y-26586200D02*
X86625457Y-24186200D01*
X86625457Y-28386200D02*
X86625457Y-30321200D01*
X86625457Y-30321200D02*
X96475457Y-30321200D01*
D11*
X88750457Y-30786200D02*
X88750457Y-30786200D01*
X88750457Y-30886200D02*
X88750457Y-30886200D01*
D12*
X96475457Y-20451200D02*
X96475457Y-21786200D01*
X96475457Y-24186200D02*
X96475457Y-26586200D01*
X96475457Y-30321200D02*
X96475457Y-28386200D01*
D11*
X88750457Y-30786200D02*
G75*
G02*
X88750457Y-30886200I0J-50000D01*
G01*
X88750457Y-30886200D02*
G75*
G02*
X88750457Y-30786200I0J50000D01*
G01*
%TD*%
M02*
