M48
; DRILL file {KiCad 9.0.3} date 2025-09-02T14:59:49-0700
; FORMAT={-:-/ absolute / metric / decimal}
; #@! TF.CreationDate,2025-09-02T14:59:49-07:00
; #@! TF.GenerationSoftware,Kicad,Pcbnew,9.0.3
; #@! TF.FileFunction,Plated,1,4,PTH
FMAT,2
METRIC
; #@! TA.AperFunction,Plated,PTH,ViaDrill
T1C0.300
; #@! TA.AperFunction,Plated,PTH,ComponentDrill
T2C0.400
; #@! TA.AperFunction,Plated,PTH,ComponentDrill
T3C0.500
; #@! TA.AperFunction,Plated,PTH,ComponentDrill
T4C0.750
; #@! TA.AperFunction,Plated,PTH,ComponentDrill
T5C0.800
; #@! TA.AperFunction,Plated,PTH,ComponentDrill
T6C0.900
; #@! TA.AperFunction,Plated,PTH,ComponentDrill
T7C1.000
; #@! TA.AperFunction,Plated,PTH,ComponentDrill
T8C1.100
; #@! TA.AperFunction,Plated,PTH,ComponentDrill
T9C1.200
; #@! TA.AperFunction,Plated,PTH,ComponentDrill
T10C1.422
; #@! TA.AperFunction,Plated,PTH,ComponentDrill
T11C1.500
%
G90
G05
T1
X29.912Y-78.988
X30.039Y-79.928
X32.96Y-70.073
X33.976Y-75.762
X34.027Y-70.581
X35.017Y-75.712
X35.17Y-44.317
X35.322Y-73.273
X38.477Y-76.439
X39.411Y-62.148
X39.636Y-76.447
X39.665Y-68.574
X40.3Y-69.031
X40.478Y-41.701
X41.266Y-63.723
X42.434Y-80.487
X42.51Y-79.572
X42.917Y-49.034
X43.018Y-78.074
X43.069Y-47.873
X43.679Y-40.253
X44.618Y-73.299
X46.854Y-71.546
X48.952Y-66.412
X49.521Y-47.086
X49.825Y-41.574
X50.359Y-46.883
X50.562Y-40.888
X50.943Y-47.391
X51.299Y-41.574
X51.375Y-76.626
X52.823Y-66.898
X57.217Y-68.447
X57.877Y-68.041
X58.182Y-75.737
X58.741Y-68.346
X58.868Y-50.388
X59.046Y-74.899
X59.63Y-74.365
X59.808Y-36.215
X60.112Y-68.904
X60.239Y-50.312
X60.934Y-68.927
X61.179Y-62.377
X61.239Y-73.054
X61.739Y-72.579
X61.791Y-71.864
X61.82Y-74.727
X63.262Y-45.994
X63.717Y-77.6
X63.745Y-53.944
X64.253Y-81.63
X64.354Y-75.915
X64.659Y-68.904
X65.288Y-43.168
X65.292Y-86.525
X65.417Y-83.3
X65.497Y-57.881
X65.619Y-58.872
X65.7Y-77.8
X65.717Y-87.425
X66.027Y-57.31
X66.107Y-46.806
X66.342Y-86.55
X66.447Y-58.92
X66.64Y-89.555
X66.992Y-81.85
X67.107Y-58.42
X67.437Y-55.93
X67.717Y-80.45
X67.867Y-87.725
X68.477Y-57.02
X68.697Y-67.51
X68.717Y-68.55
X69.427Y-53.95
X70.107Y-55.44
X70.642Y-81.975
X70.717Y-68.54
X70.727Y-67.52
X70.892Y-88.775
X71.974Y-89.123
X72.042Y-83.4
X72.101Y-81.122
X72.297Y-61.4
X72.587Y-53.92
X72.587Y-55.4
X73.017Y-86.55
X73.507Y-54.61
X73.527Y-43.15
X73.722Y-46.396
X73.817Y-67.5
X73.817Y-68.55
X74.071Y-82.286
X74.157Y-39.22
X74.277Y-62.332
X74.717Y-88.437
X74.767Y-64.43
X74.997Y-46.933
X75.307Y-54.6
X75.347Y-53.5
X75.347Y-55.78
X75.467Y-65.05
X76.177Y-60.08
X76.327Y-68.54
X76.337Y-67.53
X76.937Y-51.42
X76.987Y-63.72
X77.101Y-54.634
X77.198Y-61.062
X77.237Y-56.02
X78.037Y-47.19
X78.527Y-53.1
X78.958Y-62.586
X79.447Y-64.532
X79.537Y-67.52
X79.537Y-68.56
X79.927Y-60.0
X80.087Y-65.08
X80.128Y-82.62
X80.447Y-64.53
X80.639Y-51.716
X80.645Y-54.107
X80.817Y-55.38
X80.817Y-57.2
X81.117Y-47.22
X81.457Y-67.53
X81.467Y-51.77
X81.467Y-68.54
X81.837Y-46.56
X82.347Y-50.83
X82.347Y-53.64
X82.837Y-72.873
X82.877Y-54.63
X82.972Y-75.178
X82.972Y-77.21
X83.037Y-55.37
X83.049Y-76.245
X83.247Y-59.9
X83.277Y-67.51
X83.287Y-68.53
X83.307Y-38.82
X83.407Y-50.84
X83.427Y-54.09
X83.587Y-54.91
X84.039Y-55.649
X84.192Y-59.176
X84.497Y-57.39
X84.557Y-55.21
X84.677Y-48.96
X85.081Y-72.841
X85.106Y-74.061
X85.182Y-76.296
X85.639Y-67.761
X85.893Y-59.024
X86.198Y-71.14
X86.655Y-71.673
X87.087Y-76.778
X87.113Y-75.305
X87.163Y-73.349
X87.267Y-41.06
X87.327Y-42.84
X87.337Y-48.93
X87.377Y-57.44
X87.377Y-58.99
X87.437Y-39.65
X87.492Y-32.225
X88.147Y-50.5
X88.657Y-41.1
X88.667Y-42.84
X88.914Y-48.321
X89.232Y-32.5
X89.548Y-35.615
X90.417Y-30.98
X90.557Y-35.47
X90.617Y-57.44
X90.617Y-59.02
X90.719Y-71.622
X90.745Y-62.25
X91.087Y-31.41
X91.407Y-50.231
X91.88Y-31.408
X91.888Y-45.867
X91.964Y-33.598
X92.843Y-31.314
X93.072Y-41.664
X93.142Y-39.37
X93.561Y-40.883
X93.564Y-81.655
X93.725Y-50.449
X94.199Y-45.003
X94.401Y-31.252
X94.457Y-43.53
X94.527Y-37.74
X94.797Y-57.46
X94.797Y-58.96
X94.892Y-33.402
X94.997Y-55.72
X95.088Y-67.126
X95.185Y-60.244
X95.187Y-41.07
X95.462Y-31.667
X95.597Y-43.636
X95.622Y-73.375
X95.707Y-59.6
X95.749Y-71.394
X95.774Y-72.689
X95.952Y-41.255
X96.117Y-55.45
X96.247Y-60.26
X96.282Y-76.22
X96.307Y-32.52
X96.307Y-33.79
X96.367Y-43.49
X96.41Y-73.487
X96.465Y-40.706
X96.612Y-45.867
X96.612Y-71.876
X96.867Y-59.48
X97.097Y-55.42
X97.137Y-52.01
X97.237Y-61.71
X97.257Y-40.8
X97.297Y-57.64
X97.317Y-50.71
X97.51Y-37.558
X97.933Y-43.504
X98.107Y-73.7
X98.347Y-52.43
X98.567Y-32.06
X98.657Y-35.48
X98.816Y-45.827
X98.907Y-63.55
X99.014Y-44.785
X99.482Y-40.761
X99.785Y-60.236
X99.797Y-64.07
X99.797Y-65.63
X99.863Y-54.579
X100.346Y-55.061
X100.397Y-67.812
X100.567Y-54.35
X100.637Y-34.78
X100.674Y-50.45
X100.803Y-42.336
X100.816Y-57.441
X100.981Y-41.091
X100.981Y-66.364
X101.085Y-49.793
X101.267Y-43.417
X101.487Y-37.44
X101.516Y-55.171
X101.602Y-49.074
X102.123Y-47.746
X102.175Y-48.534
X102.369Y-49.765
X102.48Y-40.71
X102.497Y-46.5
X102.571Y-57.418
X102.784Y-47.619
X103.071Y-52.93
X103.649Y-38.141
X103.699Y-57.855
X104.673Y-39.522
X104.768Y-54.432
X104.867Y-48.248
X105.351Y-54.013
X105.907Y-41.03
X106.023Y-64.624
X106.401Y-39.421
X106.507Y-41.05
X106.645Y-58.998
X106.899Y-64.688
X107.179Y-61.691
X107.306Y-66.11
X107.487Y-55.4
X107.755Y-64.669
X108.778Y-40.897
X109.178Y-45.39
X109.388Y-44.571
X109.388Y-56.052
X109.541Y-47.502
X109.796Y-40.925
X109.904Y-43.893
X109.921Y-48.07
X109.988Y-46.994
X110.15Y-63.799
X110.15Y-66.136
X110.481Y-66.745
X110.633Y-63.189
X110.947Y-39.7
X111.014Y-57.678
X111.014Y-66.237
X111.098Y-63.818
X111.979Y-66.085
X112.005Y-64.282
X112.787Y-60.99
X112.787Y-62.53
X113.351Y-66.034
X113.478Y-59.481
X113.833Y-35.101
X114.011Y-41.828
X114.9Y-43.123
X114.951Y-43.885
X115.002Y-46.375
X115.078Y-44.698
X115.103Y-47.06
X115.18Y-47.772
X115.849Y-56.998
X119.329Y-58.166
X119.532Y-67.869
X123.337Y-65.88
X123.546Y-38.913
X124.4Y-44.47
X124.637Y-65.02
X125.07Y-42.469
X126.089Y-45.1
X126.977Y-65.03
X126.977Y-66.57
X127.667Y-67.6
X128.524Y-68.24
X129.65Y-59.193
X130.293Y-49.245
X131.437Y-65.02
X131.437Y-66.59
X131.724Y-44.196
X134.255Y-48.407
X134.357Y-60.548
X134.391Y-45.923
X134.442Y-45.085
X134.567Y-65.03
X134.567Y-66.59
X135.128Y-50.876
X135.204Y-44.105
X135.458Y-41.275
X136.668Y-43.682
X136.687Y-67.23
X136.795Y-47.746
X136.973Y-58.744
X137.074Y-63.215
X137.977Y-67.33
X138.553Y-68.391
X139.246Y-40.164
X139.257Y-66.44
X139.945Y-58.795
X140.003Y-67.527
X140.199Y-60.141
X140.306Y-70.143
X140.681Y-57.144
X140.732Y-53.487
X140.82Y-68.34
X141.062Y-59.887
X141.339Y-71.142
X141.392Y-73.781
X141.781Y-51.259
X141.799Y-69.362
X141.985Y-66.636
X142.586Y-42.285
X143.002Y-70.44
X143.323Y-48.28
X144.339Y-71.343
X144.694Y-69.209
X145.339Y-55.448
X145.66Y-73.832
X146.472Y-73.832
X146.609Y-44.552
X146.625Y-70.682
X147.457Y-72.582
X147.698Y-74.797
X148.784Y-57.119
X148.885Y-66.618
X149.52Y-63.215
X149.825Y-75.229
X150.012Y-46.736
X150.765Y-75.051
X150.892Y-56.357
X151.451Y-80.385
X151.476Y-79.649
X153.432Y-71.622
T2
X88.75Y-27.971
X89.15Y-27.271
X89.95Y-27.271
X90.35Y-27.971
X90.75Y-27.271
X91.15Y-27.971
X91.95Y-27.971
X92.35Y-27.271
X92.75Y-27.971
X93.15Y-27.271
X93.95Y-27.271
X94.35Y-27.971
T4
X31.69Y-64.085
X31.69Y-66.085
X105.614Y-49.735
X107.614Y-49.735
X152.568Y-64.085
X152.568Y-66.085
T5
X47.022Y-74.797
X49.022Y-74.797
X126.524Y-70.225
X128.524Y-70.225
T6
X40.094Y-57.749
X40.434Y-51.258
X44.588Y-57.984
X44.928Y-51.493
T7
X47.449Y-63.592
X49.945Y-63.722
X52.442Y-63.853
X58.958Y-57.986
X59.089Y-55.49
X59.219Y-52.993
X117.524Y-60.093
X117.524Y-65.093
X128.958Y-38.163
X128.958Y-43.163
X132.7Y-52.534
X132.7Y-57.534
X147.213Y-49.044
X147.213Y-54.044
T8
X39.45Y-40.384
X43.348Y-38.134
X139.753Y-38.134
X143.65Y-40.384
T9
X45.076Y-61.089
X45.738Y-48.456
X55.063Y-61.612
X55.725Y-48.98
T10
X64.05Y-39.884
X66.55Y-39.884
X69.05Y-39.884
X114.05Y-39.884
X116.55Y-39.884
X119.05Y-39.884
T3
G00X87.06Y-22.681
M15
G01X87.06Y-23.281
M16
G05
G00X87.42Y-27.081
M15
G01X87.42Y-27.681
M16
G05
G00X95.68Y-27.081
M15
G01X95.68Y-27.681
M16
G05
G00X96.04Y-22.681
M15
G01X96.04Y-23.281
M16
G05
T5
G00X62.2Y-51.034
M15
G01X62.2Y-51.734
M16
G05
G00X70.9Y-51.034
M15
G01X70.9Y-51.734
M16
G05
G00X112.2Y-51.034
M15
G01X112.2Y-51.734
M16
G05
G00X120.9Y-51.034
M15
G01X120.9Y-51.734
M16
G05
T11
G00X36.435Y-38.661
M15
G01X36.935Y-39.527
M16
G05
G00X43.363Y-34.661
M15
G01X43.863Y-35.527
M16
G05
G00X139.738Y-34.661
M15
G01X139.238Y-35.527
M16
G05
G00X146.666Y-38.661
M15
G01X146.166Y-39.527
M16
G05
M30
