%TF.GenerationSoftware,KiCad,Pcbnew,9.0.3*%
%TF.CreationDate,2025-07-18T17:07:59-07:00*%
%TF.ProjectId,UGC_Main_R5,5547435f-4d61-4696-9e5f-52352e6b6963,rev?*%
%TF.SameCoordinates,Original*%
%TF.FileFunction,Soldermask,Top*%
%TF.FilePolarity,Negative*%
%FSLAX46Y46*%
G04 Gerber Fmt 4.6, Leading zero omitted, Abs format (unit mm)*
G04 Created by KiCad (PCBNEW 9.0.3) date 2025-07-18 17:07:59*
%MOMM*%
%LPD*%
G01*
G04 APERTURE LIST*
G04 Aperture macros list*
%AMRoundRect*
0 Rectangle with rounded corners*
0 $1 Rounding radius*
0 $2 $3 $4 $5 $6 $7 $8 $9 X,Y pos of 4 corners*
0 Add a 4 corners polygon primitive as box body*
4,1,4,$2,$3,$4,$5,$6,$7,$8,$9,$2,$3,0*
0 Add four circle primitives for the rounded corners*
1,1,$1+$1,$2,$3*
1,1,$1+$1,$4,$5*
1,1,$1+$1,$6,$7*
1,1,$1+$1,$8,$9*
0 Add four rect primitives between the rounded corners*
20,1,$1+$1,$2,$3,$4,$5,0*
20,1,$1+$1,$4,$5,$6,$7,0*
20,1,$1+$1,$6,$7,$8,$9,0*
20,1,$1+$1,$8,$9,$2,$3,0*%
%AMHorizOval*
0 Thick line with rounded ends*
0 $1 width*
0 $2 $3 position (X,Y) of the first rounded end (center of the circle)*
0 $4 $5 position (X,Y) of the second rounded end (center of the circle)*
0 Add line between two ends*
20,1,$1,$2,$3,$4,$5,0*
0 Add two circle primitives to create the rounded ends*
1,1,$1,$2,$3*
1,1,$1,$4,$5*%
%AMRotRect*
0 Rectangle, with rotation*
0 The origin of the aperture is its center*
0 $1 length*
0 $2 width*
0 $3 Rotation angle, in degrees counterclockwise*
0 Add horizontal line*
21,1,$1,$2,0,0,$3*%
%AMFreePoly0*
4,1,1061,1.978530,0.664503,1.979175,0.664486,1.988792,0.663981,1.992888,0.663060,2.010683,0.655748,2.014663,0.653132,2.028432,0.639694,2.031145,0.635777,2.038886,0.618164,2.039936,0.613518,2.040526,0.594288,2.039762,0.589586,2.033115,0.571531,2.030648,0.567457,2.017729,0.553200,2.013916,0.550344,1.996602,0.541956,1.992562,0.540785,1.982994,0.539699,1.982499,0.539653,
1.894538,0.533194,1.719277,0.513262,1.545141,0.485378,1.372473,0.449596,1.201582,0.405982,1.032895,0.354645,0.866707,0.295674,0.703350,0.229188,0.543227,0.155349,0.386607,0.074283,0.233848,-0.013824,0.085275,-0.108789,-0.058857,-0.210445,-0.198173,-0.318528,-0.332444,-0.432862,-0.461367,-0.553188,-0.584658,-0.679239,-0.702122,-0.810818,-0.813437,-0.947565,-0.918419,-1.089250,
-1.016852,-1.235587,-1.108507,-1.386233,-1.193213,-1.540903,-1.270796,-1.699289,-1.341073,-1.861008,-1.403919,-2.025777,-1.459199,-2.193236,-1.506797,-2.363044,-1.546610,-2.534828,-1.578564,-2.708268,-1.602585,-2.882957,-1.618628,-3.058575,-1.626659,-3.234771,-1.627154,-3.322910,-1.626667,-3.403617,-1.618743,-3.564925,-1.602916,-3.725619,-1.579223,-3.885344,-1.547720,-4.043726,-1.508491,-4.200334,
-1.461613,-4.354870,-1.407225,-4.506875,-1.345419,-4.656087,-1.276386,-4.802045,-1.200275,-4.944439,-1.117255,-5.082949,-1.027548,-5.217205,-0.931369,-5.346888,-0.828918,-5.471724,-0.720495,-5.591351,-0.606314,-5.705532,-0.486668,-5.813973,-0.361842,-5.916415,-0.232159,-6.012595,-0.097903,-6.102301,0.040606,-6.185321,0.183000,-6.261432,0.328958,-6.330466,0.478170,-6.392272,0.630169,-6.446657,
0.784717,-6.493539,0.941319,-6.532766,1.099701,-6.564269,1.259426,-6.587963,1.420120,-6.603790,1.581396,-6.611713,1.742864,-6.611713,1.904139,-6.603790,2.064833,-6.587963,2.224558,-6.564269,2.382940,-6.532766,2.539542,-6.493539,2.694090,-6.446657,2.846089,-6.392272,2.995301,-6.330466,3.141259,-6.261432,3.283653,-6.185321,3.422163,-6.102301,3.556419,-6.012595,3.686102,-5.916415,
3.810928,-5.813973,3.930574,-5.705532,4.044755,-5.591351,4.153178,-5.471724,4.255629,-5.346888,4.351808,-5.217205,4.441515,-5.082949,4.524535,-4.944439,4.600646,-4.802045,4.669679,-4.656087,4.731485,-4.506875,4.785873,-4.354870,4.832751,-4.200334,4.871980,-4.043726,4.903483,-3.885344,4.927176,-3.725619,4.943003,-3.564925,4.950927,-3.403617,4.951415,-3.322923,4.950928,-3.249637,
4.942987,-3.103164,4.927131,-2.957373,4.903411,-2.812682,4.871882,-2.669447,4.832657,-2.528171,4.785828,-2.389188,4.731556,-2.252975,4.669975,-2.119870,4.601290,-1.990316,4.525687,-1.864664,4.443394,-1.743290,4.354646,-1.626543,4.259716,-1.514783,4.158865,-1.408316,4.052406,-1.307473,3.940646,-1.212543,3.823898,-1.123794,3.702525,-1.041501,3.576873,-0.965899,3.447319,-0.897214,
3.314214,-0.835633,3.178001,-0.781360,3.039018,-0.734531,2.897742,-0.695306,2.754507,-0.663778,2.609816,-0.640057,2.464025,-0.624201,2.317589,-0.616262,2.170959,-0.616262,2.024522,-0.624201,1.878731,-0.640057,1.734040,-0.663778,1.590805,-0.695306,1.449529,-0.734531,1.310546,-0.781360,1.174333,-0.835633,1.041228,-0.897214,0.911674,-0.965899,0.786022,-1.041501,0.664649,-1.123794,
0.547901,-1.212543,0.436141,-1.307473,0.329683,-1.408316,0.228831,-1.514783,0.133901,-1.626543,0.045153,-1.743290,-0.037139,-1.864664,-0.112742,-1.990316,-0.181427,-2.119870,-0.243008,-2.252975,-0.297280,-2.389188,-0.344109,-2.528171,-0.383334,-2.669447,-0.414863,-2.812682,-0.438583,-2.957373,-0.454439,-3.103164,-0.462380,-3.249637,-0.462868,-3.322902,-0.462364,-3.388335,-0.454303,-3.519031,
-0.438216,-3.648947,-0.414160,-3.777635,-0.382232,-3.904578,-0.342545,-4.029333,-0.295252,-4.151410,-0.240542,-4.270326,-0.178602,-4.385672,-0.109687,-4.496975,-0.034066,-4.603801,0.048020,-4.705811,0.136206,-4.802547,0.230187,-4.893677,0.329612,-4.978859,0.434068,-5.057740,0.543205,-5.130057,0.656558,-5.195501,0.773770,-5.253866,0.894313,-5.304887,1.017767,-5.348391,1.143690,-5.384220,
1.271578,-5.412227,1.400925,-5.432305,1.531288,-5.444386,1.662131,-5.448417,1.792973,-5.444386,1.923336,-5.432305,2.052683,-5.412227,2.180571,-5.384220,2.306494,-5.348391,2.429948,-5.304887,2.550491,-5.253866,2.667703,-5.195501,2.781056,-5.130057,2.890193,-5.057740,2.994649,-4.978859,3.094074,-4.893677,3.188055,-4.802547,3.276241,-4.705811,3.358328,-4.603801,3.433949,-4.496975,
3.502864,-4.385672,3.564804,-4.270326,3.619514,-4.151410,3.666807,-4.029333,3.706494,-3.904578,3.738422,-3.777635,3.762478,-3.648947,3.778565,-3.519031,3.786626,-3.388335,3.787130,-3.322916,3.786638,-3.267876,3.778775,-3.157945,3.763094,-3.048881,3.739680,-2.941246,3.708637,-2.835522,3.670136,-2.732300,3.624373,-2.632093,3.571572,-2.535394,3.512007,-2.442710,3.445986,-2.354515,
3.373838,-2.271253,3.295935,-2.193350,3.212673,-2.121202,3.124478,-2.055181,3.031794,-1.995616,2.935095,-1.942815,2.834888,-1.897052,2.731666,-1.858551,2.625942,-1.827508,2.518307,-1.804094,2.409243,-1.788413,2.299360,-1.780554,2.189186,-1.780554,2.079302,-1.788413,1.970238,-1.804094,1.862603,-1.827508,1.756879,-1.858551,1.653657,-1.897052,1.553450,-1.942815,1.456751,-1.995616,
1.364067,-2.055181,1.275872,-2.121202,1.192610,-2.193350,1.114707,-2.271253,1.042559,-2.354515,0.976538,-2.442710,0.916973,-2.535394,0.864172,-2.632093,0.818409,-2.732300,0.779908,-2.835522,0.748865,-2.941246,0.725451,-3.048881,0.709770,-3.157945,0.701907,-3.267876,0.701417,-3.322916,0.701898,-3.365962,0.709637,-3.451945,0.725034,-3.536796,0.747982,-3.619944,0.778287,-3.700692,
0.815704,-3.778390,0.859944,-3.852435,0.910642,-3.922213,0.967382,-3.987158,1.029719,-4.046759,1.097159,-4.100540,1.169137,-4.148052,1.245078,-4.188918,1.324391,-4.222818,1.406410,-4.249468,1.490506,-4.268662,1.575975,-4.280240,1.662130,-4.284109,1.748284,-4.280240,1.833753,-4.268662,1.917849,-4.249468,1.999868,-4.222818,2.079181,-4.188918,2.155122,-4.148052,2.227100,-4.100540,
2.294540,-4.046759,2.356877,-3.987158,2.413617,-3.922213,2.464315,-3.852435,2.508555,-3.778390,2.545972,-3.700692,2.576277,-3.619944,2.599225,-3.536796,2.614622,-3.451945,2.622361,-3.365962,2.622843,-3.322963,2.622363,-3.295988,2.614651,-3.242347,2.599413,-3.190451,2.576950,-3.141265,2.547710,-3.095766,2.512295,-3.054895,2.471423,-3.019480,2.425924,-2.990240,2.376738,-2.967777,
2.324842,-2.952539,2.271312,-2.944843,2.217236,-2.944843,2.163705,-2.952539,2.111809,-2.967777,2.062623,-2.990240,2.017124,-3.019480,1.976252,-3.054895,1.940837,-3.095766,1.911597,-3.141265,1.889134,-3.190451,1.873896,-3.242347,1.866184,-3.295988,1.865698,-3.323244,1.865173,-3.343271,1.864904,-3.345542,1.856577,-3.384722,1.855769,-3.387207,1.839477,-3.423799,1.838171,-3.426063,
1.814627,-3.458467,1.812878,-3.460408,1.783112,-3.487210,1.780998,-3.488746,1.746310,-3.508774,1.743922,-3.509837,1.705827,-3.522214,1.703272,-3.522758,1.663437,-3.526945,1.660823,-3.526945,1.620988,-3.522758,1.618433,-3.522214,1.580338,-3.509837,1.577950,-3.508774,1.543262,-3.488746,1.541148,-3.487210,1.511382,-3.460408,1.509633,-3.458467,1.486089,-3.426063,1.484783,-3.423799,
1.468491,-3.387207,1.467683,-3.384722,1.459356,-3.345542,1.459087,-3.343270,1.458563,-3.323243,1.458560,-3.322758,1.459055,-3.283570,1.459118,-3.282463,1.467047,-3.204490,1.467239,-3.203239,1.483017,-3.126468,1.483334,-3.125242,1.506796,-3.050460,1.507236,-3.049273,1.538144,-2.977249,1.538702,-2.976112,1.576738,-2.907585,1.577407,-2.906510,1.622181,-2.842182,1.622957,-2.841181,
1.674009,-2.781713,1.674881,-2.780795,1.731687,-2.726797,1.732648,-2.725972,1.794626,-2.677998,1.795665,-2.677275,1.862178,-2.635817,1.863285,-2.635202,1.933651,-2.600686,1.934815,-2.600187,2.008312,-2.572967,2.009520,-2.572588,2.085393,-2.552943,2.086633,-2.552688,2.164105,-2.540820,2.165365,-2.540692,2.243640,-2.536722,2.244906,-2.536722,2.323181,-2.540692,2.324441,-2.540820,
2.401913,-2.552688,2.403153,-2.552943,2.479026,-2.572588,2.480234,-2.572967,2.553731,-2.600187,2.554895,-2.600686,2.625261,-2.635202,2.626368,-2.635817,2.692881,-2.677275,2.693920,-2.677998,2.755898,-2.725972,2.756859,-2.726797,2.813665,-2.780795,2.814537,-2.781713,2.865589,-2.841181,2.866365,-2.842182,2.911139,-2.906510,2.911808,-2.907585,2.949844,-2.976112,2.950402,-2.977249,
2.981310,-3.049273,2.981750,-3.050460,3.005212,-3.125242,3.005529,-3.126468,3.021307,-3.203239,3.021499,-3.204490,3.029428,-3.282463,3.029491,-3.283570,3.029987,-3.322758,3.029987,-3.323036,3.029489,-3.374969,3.029453,-3.375806,3.021502,-3.479367,3.021393,-3.480318,3.005538,-3.582967,3.005355,-3.583907,2.981688,-3.685040,2.981434,-3.685963,2.950096,-3.784989,2.949773,-3.785891,
2.910946,-3.882227,2.910554,-3.883100,2.864467,-3.976181,2.864010,-3.977023,2.810932,-4.066303,2.810411,-4.067107,2.750655,-4.152061,2.750075,-4.152822,2.683992,-4.232954,2.683354,-4.233669,2.611330,-4.308506,2.610641,-4.309170,2.533099,-4.378275,2.532360,-4.378884,2.449756,-4.441850,2.448973,-4.442401,2.361792,-4.498859,2.360969,-4.499348,2.269722,-4.548967,2.268863,-4.549392,
2.174085,-4.591880,2.173197,-4.592238,2.075444,-4.627347,2.074531,-4.627636,1.974378,-4.655158,1.973446,-4.655376,1.871480,-4.675151,1.870534,-4.675298,1.767354,-4.687210,1.766399,-4.687283,1.662609,-4.691262,1.661651,-4.691262,1.557861,-4.687283,1.556906,-4.687210,1.453726,-4.675298,1.452780,-4.675151,1.350814,-4.655376,1.349882,-4.655158,1.249729,-4.627636,1.248816,-4.627347,
1.151063,-4.592238,1.150175,-4.591880,1.055397,-4.549392,1.054538,-4.548967,0.963291,-4.499348,0.962468,-4.498859,0.875287,-4.442401,0.874504,-4.441850,0.791900,-4.378884,0.791161,-4.378275,0.713619,-4.309170,0.712930,-4.308506,0.640906,-4.233669,0.640268,-4.232954,0.574185,-4.152822,0.573605,-4.152061,0.513849,-4.067107,0.513328,-4.066303,0.460250,-3.977023,0.459793,-3.976181,
0.413706,-3.883100,0.413314,-3.882227,0.374487,-3.785891,0.374164,-3.784989,0.342826,-3.685963,0.342572,-3.685040,0.318905,-3.583907,0.318722,-3.582967,0.302867,-3.480318,0.302758,-3.479367,0.294807,-3.375806,0.294771,-3.374969,0.294274,-3.323036,0.294273,-3.322816,0.294771,-3.260700,0.294797,-3.259999,0.302756,-3.136023,0.302833,-3.135225,0.318720,-3.012013,0.318848,-3.011223,
0.342596,-2.889282,0.342774,-2.888500,0.374286,-2.768331,0.374514,-2.767563,0.413660,-2.649660,0.413937,-2.648908,0.460557,-2.533756,0.460881,-2.533023,0.514783,-2.421094,0.515154,-2.420384,0.576117,-2.312138,0.576532,-2.311453,0.644305,-2.207336,0.644763,-2.206679,0.719067,-2.107118,0.719567,-2.106491,0.800098,-2.011895,0.800637,-2.011302,0.887063,-1.922060,0.887638,-1.921503,
0.979604,-1.837982,0.980214,-1.837462,1.077342,-1.760005,1.077985,-1.759526,1.179876,-1.688451,1.180547,-1.688014,1.286783,-1.623613,1.287481,-1.623220,1.397625,-1.565758,1.398347,-1.565410,1.511946,-1.515123,1.512689,-1.514822,1.629277,-1.471917,1.630037,-1.471665,1.749134,-1.436317,1.749910,-1.436113,1.871027,-1.408469,1.871813,-1.408316,1.994452,-1.388489,1.995247,-1.388387,
2.118905,-1.376458,2.119704,-1.376406,2.243872,-1.372424,2.244674,-1.372424,2.368842,-1.376406,2.369641,-1.376458,2.493299,-1.388387,2.494094,-1.388489,2.616733,-1.408316,2.617519,-1.408469,2.738636,-1.436113,2.739412,-1.436317,2.858509,-1.471665,2.859269,-1.471917,2.975857,-1.514822,2.976600,-1.515123,3.090199,-1.565410,3.090921,-1.565758,3.201065,-1.623220,3.201763,-1.623613,
3.307999,-1.688014,3.308670,-1.688451,3.410561,-1.759526,3.411204,-1.760005,3.508332,-1.837462,3.508942,-1.837982,3.600908,-1.921503,3.601483,-1.922060,3.687909,-2.011302,3.688448,-2.011895,3.768979,-2.106491,3.769479,-2.107118,3.843783,-2.206679,3.844241,-2.207336,3.912014,-2.311453,3.912429,-2.312138,3.973392,-2.420384,3.973763,-2.421094,4.027665,-2.533023,4.027989,-2.533756,
4.074609,-2.648908,4.074886,-2.649660,4.114032,-2.767563,4.114260,-2.768331,4.145772,-2.888500,4.145950,-2.889282,4.169698,-3.011223,4.169826,-3.012013,4.185713,-3.135225,4.185790,-3.136023,4.193749,-3.259999,4.193775,-3.260700,4.194273,-3.322816,4.194273,-3.323002,4.193788,-3.393683,4.193768,-3.394298,4.185842,-3.535437,4.185783,-3.536136,4.169955,-3.676608,4.169857,-3.677302,
4.146178,-3.816667,4.146042,-3.817355,4.114586,-3.955172,4.114410,-3.955850,4.075277,-4.091687,4.075065,-4.092356,4.028376,-4.225784,4.028125,-4.226439,3.974028,-4.357040,3.973742,-4.357679,3.912408,-4.485042,3.912086,-4.485666,3.843707,-4.609388,3.843351,-4.609991,3.768142,-4.729686,3.767753,-4.730269,3.685951,-4.845558,3.685529,-4.846119,3.597392,-4.956639,3.596940,-4.957174,
3.502744,-5.062580,3.502262,-5.063090,3.402304,-5.163047,3.401794,-5.163529,3.296389,-5.257725,3.295854,-5.258177,3.185333,-5.346314,3.184772,-5.346735,3.069484,-5.428537,3.068901,-5.428927,2.949206,-5.504136,2.948602,-5.504492,2.824879,-5.572871,2.824257,-5.573193,2.696895,-5.634528,2.696255,-5.634814,2.565654,-5.688911,2.564998,-5.689162,2.431570,-5.735850,2.430902,-5.736062,
2.295065,-5.775196,2.294387,-5.775372,2.156570,-5.806828,2.155882,-5.806964,2.016517,-5.830643,2.015823,-5.830741,1.875351,-5.846568,1.874652,-5.846627,1.733513,-5.854554,1.732812,-5.854574,1.591450,-5.854574,1.590749,-5.854554,1.449610,-5.846627,1.448911,-5.846568,1.308439,-5.830741,1.307745,-5.830643,1.168380,-5.806964,1.167692,-5.806828,1.029875,-5.775372,1.029197,-5.775196,
0.893360,-5.736062,0.892692,-5.735850,0.759264,-5.689162,0.758608,-5.688911,0.628007,-5.634814,0.627367,-5.634528,0.500005,-5.573193,0.499383,-5.572871,0.375660,-5.504492,0.375056,-5.504136,0.255361,-5.428927,0.254778,-5.428537,0.139490,-5.346735,0.138929,-5.346314,0.028408,-5.258177,0.027873,-5.257725,-0.077532,-5.163529,-0.078042,-5.163047,-0.178000,-5.063090,-0.178482,-5.062580,
-0.272678,-4.957174,-0.273130,-4.956639,-0.361267,-4.846119,-0.361689,-4.845558,-0.443491,-4.730269,-0.443880,-4.729686,-0.519089,-4.609991,-0.519445,-4.609388,-0.587824,-4.485666,-0.588146,-4.485042,-0.649480,-4.357679,-0.649766,-4.357040,-0.703863,-4.226439,-0.704114,-4.225784,-0.750803,-4.092356,-0.751015,-4.091687,-0.790148,-3.955850,-0.790324,-3.955172,-0.821780,-3.817355,-0.821916,-3.816667,
-0.845595,-3.677302,-0.845693,-3.676608,-0.861521,-3.536136,-0.861580,-3.535437,-0.869506,-3.394298,-0.869526,-3.393683,-0.870012,-3.323002,-0.870012,-3.322838,-0.869521,-3.244249,-0.869505,-3.243694,-0.861544,-3.086716,-0.861496,-3.086084,-0.845595,-2.929712,-0.845515,-2.929084,-0.821714,-2.773717,-0.821602,-2.773094,-0.789962,-2.619133,-0.789819,-2.618516,-0.750422,-2.466355,-0.750248,-2.465746,
-0.703194,-2.315775,-0.702989,-2.315176,-0.648400,-2.167781,-0.648165,-2.167193,-0.586181,-2.022752,-0.585917,-2.022176,-0.516696,-1.881060,-0.516402,-1.880499,-0.440123,-1.743070,-0.439802,-1.742524,-0.356660,-1.609135,-0.356312,-1.608606,-0.266521,-1.479600,-0.266146,-1.479090,-0.169935,-1.354796,-0.169534,-1.354305,-0.067152,-1.235045,-0.066728,-1.234575,0.041563,-1.120652,0.042011,-1.120204,
0.155933,-1.011913,0.156403,-1.011489,0.275664,-0.909107,0.276155,-0.908706,0.400448,-0.812496,0.400958,-0.812121,0.529965,-0.722330,0.530494,-0.721982,0.663883,-0.638840,0.664429,-0.638519,0.801857,-0.562239,0.802418,-0.561945,0.943534,-0.492725,0.944110,-0.492461,1.088551,-0.430476,1.089139,-0.430241,1.236534,-0.375652,1.237133,-0.375447,1.387104,-0.328394,1.387713,-0.328220,
1.539874,-0.288822,1.540491,-0.288679,1.694452,-0.257039,1.695075,-0.256927,1.850442,-0.233126,1.851070,-0.233046,2.007442,-0.217145,2.008074,-0.217097,2.165052,-0.209136,2.165685,-0.209120,2.322863,-0.209120,2.323496,-0.209136,2.480474,-0.217097,2.481106,-0.217145,2.637478,-0.233046,2.638106,-0.233126,2.793473,-0.256927,2.794096,-0.257039,2.948057,-0.288679,2.948674,-0.288822,
3.100835,-0.328220,3.101444,-0.328394,3.251415,-0.375447,3.252014,-0.375652,3.399409,-0.430241,3.399997,-0.430476,3.544438,-0.492461,3.545014,-0.492725,3.686130,-0.561945,3.686691,-0.562239,3.824119,-0.638519,3.824665,-0.638840,3.958054,-0.721982,3.958583,-0.722330,4.087590,-0.812121,4.088100,-0.812496,4.212393,-0.908706,4.212884,-0.909107,4.332145,-1.011489,4.332615,-1.011913,
4.446537,-1.120204,4.446985,-1.120652,4.555276,-1.234575,4.555700,-1.235045,4.658082,-1.354305,4.658483,-1.354796,4.754694,-1.479090,4.755069,-1.479600,4.844860,-1.608606,4.845208,-1.609135,4.928350,-1.742524,4.928671,-1.743070,5.004950,-1.880499,5.005244,-1.881060,5.074465,-2.022176,5.074729,-2.022752,5.136713,-2.167193,5.136948,-2.167781,5.191537,-2.315176,5.191742,-2.315775,
5.238796,-2.465746,5.238970,-2.466355,5.278367,-2.618516,5.278510,-2.619133,5.310150,-2.773094,5.310262,-2.773717,5.334063,-2.929084,5.334143,-2.929712,5.350044,-3.086084,5.350092,-3.086716,5.358053,-3.243694,5.358069,-3.244249,5.358559,-3.322838,5.358559,-3.322988,5.358061,-3.409361,5.358047,-3.409875,5.349951,-3.582431,5.349910,-3.583016,5.333733,-3.755002,5.333665,-3.755583,
5.309446,-3.926623,5.309350,-3.927202,5.277140,-4.096918,5.277017,-4.097491,5.236887,-4.265511,5.236738,-4.266077,5.188777,-4.432031,5.188601,-4.432591,5.132914,-4.596115,5.132712,-4.596665,5.069421,-4.757399,5.069193,-4.757939,4.998438,-4.915529,4.998186,-4.916058,4.920122,-5.070159,4.919845,-5.070675,4.834644,-5.220948,4.834343,-5.221451,4.742192,-5.367565,4.741868,-5.368053,
4.642970,-5.509687,4.642623,-5.510160,4.537195,-5.647002,4.536827,-5.647458,4.425100,-5.779209,4.424710,-5.779647,4.306930,-5.906016,4.306521,-5.906435,4.182948,-6.027144,4.182519,-6.027543,4.053424,-6.142328,4.052977,-6.142707,3.918644,-6.251314,3.918180,-6.251672,3.778903,-6.353864,3.778422,-6.354200,3.634509,-6.449751,3.634013,-6.450063,3.485779,-6.538763,3.485270,-6.539052,
3.333041,-6.620707,3.332518,-6.620972,3.176630,-6.695402,3.176095,-6.695642,3.016889,-6.762683,3.016344,-6.762898,2.854170,-6.822403,2.853615,-6.822592,2.688831,-6.874431,2.688268,-6.874594,2.521235,-6.918651,2.520665,-6.918787,2.351751,-6.954967,2.351175,-6.955076,2.180750,-6.983299,2.180170,-6.983381,2.008610,-7.003584,2.008026,-7.003639,1.835707,-7.015779,1.835122,-7.015807,
1.662424,-7.019857,1.661838,-7.019857,1.489140,-7.015807,1.488555,-7.015779,1.316236,-7.003639,1.315652,-7.003584,1.144092,-6.983381,1.143512,-6.983299,0.973087,-6.955076,0.972511,-6.954967,0.803597,-6.918787,0.803027,-6.918651,0.635994,-6.874594,0.635431,-6.874431,0.470647,-6.822592,0.470092,-6.822403,0.307918,-6.762898,0.307373,-6.762683,0.148167,-6.695642,0.147632,-6.695402,
-0.008256,-6.620972,-0.008779,-6.620707,-0.161008,-6.539052,-0.161517,-6.538763,-0.309751,-6.450063,-0.310247,-6.449751,-0.454160,-6.354200,-0.454641,-6.353864,-0.593918,-6.251672,-0.594382,-6.251314,-0.728715,-6.142707,-0.729162,-6.142328,-0.858257,-6.027543,-0.858686,-6.027144,-0.982259,-5.906435,-0.982668,-5.906016,-1.100448,-5.779647,-1.100838,-5.779209,-1.212565,-5.647458,-1.212933,-5.647002,
-1.318361,-5.510160,-1.318708,-5.509687,-1.417606,-5.368053,-1.417930,-5.367565,-1.510081,-5.221451,-1.510382,-5.220948,-1.595583,-5.070675,-1.595860,-5.070159,-1.673924,-4.916058,-1.674176,-4.915529,-1.744931,-4.757939,-1.745159,-4.757399,-1.808450,-4.596665,-1.808652,-4.596115,-1.864339,-4.432591,-1.864515,-4.432031,-1.912476,-4.266077,-1.912625,-4.265511,-1.952755,-4.097491,-1.952878,-4.096918,
-1.985088,-3.927202,-1.985184,-3.926623,-2.009403,-3.755583,-2.009471,-3.755002,-2.025648,-3.583016,-2.025689,-3.582431,-2.033785,-3.409875,-2.033799,-3.409361,-2.034298,-3.322988,-2.034298,-3.322846,-2.033796,-3.233282,-2.033783,-3.232789,-2.025714,-3.053842,-2.025676,-3.053280,-2.009554,-2.874878,-2.009491,-2.874318,-1.985349,-2.696824,-1.985260,-2.696268,-1.953147,-2.520041,-1.953034,-2.519489,
-1.913015,-2.344888,-1.912877,-2.344342,-1.865034,-2.171721,-1.864871,-2.171182,-1.809300,-2.000891,-1.809114,-2.000360,-1.745929,-1.832745,-1.745718,-1.832222,-1.675046,-1.667624,-1.674812,-1.667112,-1.596798,-1.505864,-1.596542,-1.505363,-1.511343,-1.347794,-1.511064,-1.347304,-1.418853,-1.193732,-1.418552,-1.193256,-1.319517,-1.043994,-1.319195,-1.043532,-1.213537,-0.898882,-1.213195,-0.898435,
-1.101128,-0.758692,-1.100765,-0.758260,-0.982517,-0.623707,-0.982136,-0.623293,-0.857947,-0.494204,-0.857548,-0.493807,-0.727670,-0.370442,-0.727253,-0.370063,-0.591950,-0.252675,-0.591516,-0.252316,-0.451062,-0.141141,-0.450613,-0.140801,-0.305293,-0.036067,-0.304828,-0.035748,-0.154939,0.062334,-0.154461,0.062631,-0.000305,0.153862,0.000186,0.154138,0.158295,0.238332,0.158798,0.238586,
0.320540,0.315571,0.321054,0.315801,0.486099,0.385423,0.486622,0.385630,0.654636,0.447747,0.655169,0.447931,0.825810,0.502416,0.826350,0.502575,0.999272,0.549318,0.999819,0.549453,1.174672,0.588359,1.175224,0.588469,1.351651,0.619459,1.352208,0.619543,1.529853,0.642553,1.530413,0.642613,1.708914,0.657599,1.709476,0.657634,1.888470,0.664563,1.888964,0.664572,
1.978530,0.664503,1.978530,0.664503,$1*%
%AMFreePoly1*
4,1,1061,-1.336446,7.100858,-1.335861,7.100830,-1.163542,7.088690,-1.162958,7.088635,-0.991398,7.068432,-0.990818,7.068350,-0.820393,7.040127,-0.819817,7.040018,-0.650903,7.003838,-0.650333,7.003702,-0.483300,6.959645,-0.482737,6.959482,-0.317953,6.907643,-0.317398,6.907454,-0.155224,6.847949,-0.154679,6.847734,0.004527,6.780693,0.005062,6.780453,0.160950,6.706023,0.161473,6.705758,
0.313702,6.624103,0.314211,6.623814,0.462445,6.535114,0.462941,6.534802,0.606854,6.439251,0.607335,6.438915,0.746612,6.336723,0.747076,6.336365,0.881409,6.227758,0.881856,6.227379,1.010951,6.112594,1.011380,6.112195,1.134953,5.991486,1.135362,5.991067,1.253142,5.864698,1.253532,5.864260,1.365259,5.732509,1.365627,5.732053,1.471055,5.595211,1.471402,5.594738,
1.570300,5.453104,1.570624,5.452616,1.662775,5.306502,1.663076,5.305999,1.748277,5.155726,1.748554,5.155210,1.826618,5.001109,1.826870,5.000580,1.897625,4.842990,1.897853,4.842450,1.961144,4.681716,1.961346,4.681166,2.017033,4.517642,2.017209,4.517082,2.065170,4.351128,2.065319,4.350562,2.105449,4.182542,2.105572,4.181969,2.137782,4.012253,2.137878,4.011674,
2.162097,3.840634,2.162165,3.840053,2.178342,3.668067,2.178383,3.667482,2.186479,3.494926,2.186493,3.494412,2.186992,3.408039,2.186992,3.407897,2.186490,3.318333,2.186477,3.317840,2.178408,3.138893,2.178370,3.138331,2.162248,2.959929,2.162185,2.959369,2.138043,2.781875,2.137954,2.781319,2.105841,2.605092,2.105728,2.604540,2.065709,2.429939,2.065571,2.429393,
2.017728,2.256772,2.017565,2.256233,1.961994,2.085942,1.961808,2.085411,1.898623,1.917796,1.898412,1.917273,1.827740,1.752675,1.827506,1.752163,1.749492,1.590915,1.749236,1.590414,1.664037,1.432845,1.663758,1.432355,1.571547,1.278783,1.571246,1.278307,1.472211,1.129045,1.471889,1.128583,1.366231,0.983933,1.365889,0.983486,1.253822,0.843743,1.253459,0.843311,
1.135211,0.708758,1.134830,0.708344,1.010641,0.579255,1.010242,0.578858,0.880364,0.455493,0.879947,0.455114,0.744644,0.337726,0.744210,0.337367,0.603756,0.226192,0.603307,0.225852,0.457987,0.121118,0.457522,0.120799,0.307633,0.022717,0.307155,0.022420,0.152999,-0.068811,0.152508,-0.069087,-0.005601,-0.153281,-0.006104,-0.153535,-0.167846,-0.230520,-0.168360,-0.230750,
-0.333405,-0.300372,-0.333928,-0.300579,-0.501942,-0.362696,-0.502475,-0.362880,-0.673116,-0.417365,-0.673656,-0.417524,-0.846578,-0.464267,-0.847125,-0.464402,-1.021978,-0.503308,-1.022530,-0.503418,-1.198957,-0.534408,-1.199514,-0.534492,-1.377159,-0.557502,-1.377719,-0.557562,-1.556220,-0.572548,-1.556782,-0.572583,-1.735776,-0.579512,-1.736270,-0.579521,-1.825836,-0.579452,-1.826471,-0.579435,
-1.836089,-0.578938,-1.840194,-0.578017,-1.857992,-0.570706,-1.861973,-0.568090,-1.875744,-0.554650,-1.878456,-0.550734,-1.886198,-0.533119,-1.887249,-0.528472,-1.887839,-0.509239,-1.887075,-0.504537,-1.880427,-0.486481,-1.877959,-0.482406,-1.865038,-0.468148,-1.861226,-0.465293,-1.843909,-0.456904,-1.839867,-0.455733,-1.830298,-0.454648,-1.829805,-0.454602,-1.741844,-0.448143,-1.566583,-0.428211,
-1.392447,-0.400327,-1.219779,-0.364545,-1.048888,-0.320932,-0.880201,-0.269594,-0.714013,-0.210624,-0.550656,-0.144138,-0.390533,-0.070299,-0.233912,0.010767,-0.081154,0.098875,0.067419,0.193839,0.211551,0.295495,0.350867,0.403579,0.485138,0.517912,0.614062,0.638239,0.737363,0.764299,0.854807,0.895857,0.966132,1.032616,1.071114,1.174301,1.169546,1.320637,1.261202,1.471283,
1.345908,1.625954,1.423491,1.784340,1.493768,1.946059,1.556614,2.110828,1.611893,2.278286,1.659491,2.448095,1.699304,2.619879,1.731259,2.793319,1.755279,2.968008,1.771322,3.143626,1.779353,3.319822,1.779849,3.407967,1.779361,3.488668,1.771437,3.649976,1.755610,3.810670,1.731917,3.970395,1.700414,4.128777,1.661185,4.285385,1.614307,4.439921,1.559919,4.591926,
1.498113,4.741138,1.429080,4.887096,1.352969,5.029490,1.269949,5.168000,1.180242,5.302256,1.084063,5.431939,0.981612,5.556775,0.873189,5.676402,0.759008,5.790583,0.639362,5.899024,0.514536,6.001466,0.384853,6.097646,0.250597,6.187352,0.112087,6.270372,-0.030306,6.346483,-0.176264,6.415517,-0.325476,6.477323,-0.477475,6.531708,-0.632023,6.578590,-0.788625,6.617817,
-0.947007,6.649320,-1.106732,6.673014,-1.267426,6.688841,-1.428702,6.696764,-1.590170,6.696764,-1.751445,6.688841,-1.912139,6.673014,-2.071864,6.649320,-2.230246,6.617817,-2.386848,6.578590,-2.541396,6.531708,-2.693395,6.477323,-2.842607,6.415517,-2.988565,6.346483,-3.130959,6.270372,-3.269469,6.187352,-3.403725,6.097646,-3.533408,6.001466,-3.658234,5.899024,-3.777880,5.790583,
-3.892061,5.676402,-4.000484,5.556775,-4.102935,5.431939,-4.199114,5.302256,-4.288821,5.168000,-4.371841,5.029490,-4.447952,4.887096,-4.516985,4.741138,-4.578791,4.591926,-4.633179,4.439921,-4.680057,4.285385,-4.719286,4.128777,-4.750789,3.970395,-4.774482,3.810670,-4.790309,3.649976,-4.798233,3.488668,-4.798721,3.407974,-4.798234,3.334688,-4.790293,3.188215,-4.774437,3.042424,
-4.750717,2.897733,-4.719188,2.754498,-4.679963,2.613222,-4.633134,2.474239,-4.578862,2.338026,-4.517281,2.204921,-4.448596,2.075367,-4.372993,1.949715,-4.290700,1.828341,-4.201952,1.711594,-4.107022,1.599834,-4.006175,1.493370,-3.899712,1.392524,-3.787952,1.297594,-3.671204,1.208845,-3.549831,1.126552,-3.424179,1.050950,-3.294625,0.982265,-3.161520,0.920684,-3.025307,0.866411,
-2.886324,0.819582,-2.745048,0.780357,-2.601813,0.748829,-2.457122,0.725108,-2.311331,0.709252,-2.164895,0.701313,-2.018265,0.701313,-1.871828,0.709252,-1.726037,0.725108,-1.581346,0.748829,-1.438111,0.780357,-1.296835,0.819582,-1.157852,0.866411,-1.021639,0.920684,-0.888534,0.982265,-0.758980,1.050950,-0.633328,1.126552,-0.511955,1.208845,-0.395207,1.297594,-0.283447,1.392524,
-0.176984,1.493370,-0.076137,1.599834,0.018792,1.711594,0.107540,1.828341,0.189833,1.949715,0.265436,2.075367,0.334121,2.204921,0.395702,2.338026,0.449974,2.474239,0.496803,2.613222,0.536028,2.754498,0.567557,2.897733,0.591277,3.042424,0.607133,3.188215,0.615074,3.334688,0.615562,3.407967,0.615058,3.473386,0.606997,3.604082,0.590910,3.733998,0.566854,3.862686,
0.534926,3.989629,0.495239,4.114384,0.447946,4.236461,0.393236,4.355377,0.331296,4.470723,0.262381,4.582026,0.186760,4.688852,0.104673,4.790862,0.016487,4.887598,-0.077493,4.978728,-0.176918,5.063910,-0.281374,5.142791,-0.390511,5.215108,-0.503864,5.280552,-0.621076,5.338917,-0.741619,5.389938,-0.865073,5.433442,-0.990996,5.469271,-1.118884,5.497278,-1.248231,5.517356,
-1.378594,5.529437,-1.509437,5.533468,-1.640279,5.529437,-1.770642,5.517356,-1.899989,5.497278,-2.027877,5.469271,-2.153800,5.433442,-2.277254,5.389938,-2.397797,5.338917,-2.515009,5.280552,-2.628362,5.215108,-2.737499,5.142791,-2.841955,5.063910,-2.941380,4.978728,-3.035361,4.887598,-3.123547,4.790862,-3.205634,4.688852,-3.281255,4.582026,-3.350170,4.470723,-3.412110,4.355377,
-3.466820,4.236461,-3.514113,4.114384,-3.553800,3.989629,-3.585728,3.862686,-3.609784,3.733998,-3.625871,3.604082,-3.633932,3.473386,-3.634436,3.407982,-3.633944,3.352927,-3.626081,3.242996,-3.610400,3.133932,-3.586986,3.026298,-3.555942,2.920574,-3.517441,2.817351,-3.471679,2.717145,-3.418877,2.620445,-3.359313,2.527761,-3.293291,2.439567,-3.221144,2.356304,-3.143241,2.278401,
-3.059978,2.206254,-2.971784,2.140233,-2.879100,2.080668,-2.782400,2.027867,-2.682194,1.982104,-2.578972,1.943603,-2.473247,1.912560,-2.365613,1.889146,-2.256549,1.873465,-2.146666,1.865606,-2.036492,1.865606,-1.926608,1.873465,-1.817544,1.889146,-1.709910,1.912560,-1.604185,1.943603,-1.500963,1.982104,-1.400757,2.027867,-1.304057,2.080668,-1.211373,2.140233,-1.123179,2.206254,
-1.039916,2.278401,-0.962013,2.356304,-0.889866,2.439567,-0.823844,2.527761,-0.764280,2.620445,-0.711478,2.717145,-0.665716,2.817351,-0.627215,2.920574,-0.596171,3.026298,-0.572757,3.133932,-0.557076,3.242996,-0.549213,3.352927,-0.548722,3.407988,-0.549204,3.451013,-0.556943,3.536996,-0.572340,3.621847,-0.595288,3.704995,-0.625593,3.785743,-0.663010,3.863441,-0.707250,3.937486,
-0.757948,4.007264,-0.814688,4.072209,-0.877025,4.131810,-0.944465,4.185591,-1.016443,4.233103,-1.092384,4.273969,-1.171697,4.307869,-1.253716,4.334519,-1.337812,4.353713,-1.423281,4.365291,-1.509436,4.369160,-1.595590,4.365291,-1.681059,4.353713,-1.765155,4.334519,-1.847174,4.307869,-1.926487,4.273969,-2.002428,4.233103,-2.074406,4.185591,-2.141846,4.131810,-2.204183,4.072209,
-2.260923,4.007264,-2.311621,3.937486,-2.355861,3.863441,-2.393278,3.785743,-2.423583,3.704995,-2.446531,3.621847,-2.461928,3.536996,-2.469667,3.451013,-2.470150,3.408039,-2.469669,3.381039,-2.461957,3.327398,-2.446719,3.275502,-2.424256,3.226316,-2.395016,3.180817,-2.359601,3.139946,-2.318729,3.104531,-2.273230,3.075291,-2.224044,3.052828,-2.172148,3.037590,-2.118618,3.029894,
-2.064542,3.029894,-2.011011,3.037590,-1.959115,3.052828,-1.909929,3.075291,-1.864430,3.104531,-1.823558,3.139946,-1.788143,3.180817,-1.758903,3.226316,-1.736440,3.275502,-1.721202,3.327398,-1.713490,3.381039,-1.713004,3.408293,-1.712481,3.428320,-1.712212,3.430593,-1.703885,3.469773,-1.703077,3.472258,-1.686785,3.508850,-1.685479,3.511113,-1.661935,3.543518,-1.660186,3.545460,
-1.630419,3.572262,-1.628305,3.573798,-1.593617,3.593825,-1.591230,3.594888,-1.553135,3.607266,-1.550579,3.607810,-1.510744,3.611997,-1.508130,3.611997,-1.468295,3.607810,-1.465739,3.607266,-1.427644,3.594888,-1.425257,3.593825,-1.390569,3.573798,-1.388455,3.572262,-1.358688,3.545460,-1.356939,3.543518,-1.333395,3.511113,-1.332089,3.508850,-1.315797,3.472258,-1.314989,3.469773,
-1.306662,3.430593,-1.306393,3.428321,-1.305869,3.408294,-1.305866,3.407809,-1.306361,3.368621,-1.306424,3.367514,-1.314353,3.289541,-1.314545,3.288290,-1.330323,3.211519,-1.330640,3.210293,-1.354102,3.135511,-1.354542,3.134324,-1.385450,3.062300,-1.386008,3.061163,-1.424044,2.992636,-1.424713,2.991561,-1.469487,2.927233,-1.470263,2.926232,-1.521315,2.866764,-1.522187,2.865846,
-1.578993,2.811848,-1.579954,2.811023,-1.641932,2.763049,-1.642971,2.762326,-1.709484,2.720868,-1.710591,2.720253,-1.780957,2.685737,-1.782121,2.685238,-1.855618,2.658018,-1.856826,2.657639,-1.932699,2.637994,-1.933939,2.637739,-2.011411,2.625871,-2.012671,2.625743,-2.090946,2.621773,-2.092212,2.621773,-2.170487,2.625743,-2.171747,2.625871,-2.249219,2.637739,-2.250459,2.637994,
-2.326332,2.657639,-2.327540,2.658018,-2.401037,2.685238,-2.402201,2.685737,-2.472567,2.720253,-2.473674,2.720868,-2.540187,2.762326,-2.541226,2.763049,-2.603204,2.811023,-2.604165,2.811848,-2.660971,2.865846,-2.661843,2.866764,-2.712895,2.926232,-2.713671,2.927233,-2.758445,2.991561,-2.759114,2.992636,-2.797150,3.061163,-2.797708,3.062300,-2.828616,3.134324,-2.829056,3.135511,
-2.852518,3.210293,-2.852835,3.211519,-2.868613,3.288290,-2.868805,3.289541,-2.876734,3.367514,-2.876797,3.368621,-2.877293,3.407809,-2.877293,3.408087,-2.876795,3.460020,-2.876759,3.460857,-2.868808,3.564418,-2.868699,3.565369,-2.852844,3.668018,-2.852661,3.668958,-2.828994,3.770091,-2.828740,3.771014,-2.797402,3.870040,-2.797079,3.870942,-2.758252,3.967278,-2.757860,3.968151,
-2.711773,4.061232,-2.711316,4.062074,-2.658238,4.151354,-2.657717,4.152158,-2.597961,4.237112,-2.597381,4.237873,-2.531298,4.318005,-2.530660,4.318720,-2.458636,4.393557,-2.457947,4.394221,-2.380405,4.463326,-2.379666,4.463935,-2.297062,4.526901,-2.296279,4.527452,-2.209098,4.583910,-2.208275,4.584399,-2.117028,4.634018,-2.116169,4.634443,-2.021391,4.676931,-2.020503,4.677289,
-1.922750,4.712398,-1.921837,4.712687,-1.821684,4.740209,-1.820752,4.740427,-1.718786,4.760202,-1.717840,4.760349,-1.614660,4.772261,-1.613705,4.772334,-1.509915,4.776313,-1.508957,4.776313,-1.405167,4.772334,-1.404212,4.772261,-1.301032,4.760349,-1.300086,4.760202,-1.198120,4.740427,-1.197188,4.740209,-1.097035,4.712687,-1.096122,4.712398,-0.998369,4.677289,-0.997481,4.676931,
-0.902703,4.634443,-0.901844,4.634018,-0.810597,4.584399,-0.809774,4.583910,-0.722593,4.527452,-0.721810,4.526901,-0.639206,4.463935,-0.638467,4.463326,-0.560925,4.394221,-0.560236,4.393557,-0.488212,4.318720,-0.487574,4.318005,-0.421491,4.237873,-0.420911,4.237112,-0.361155,4.152158,-0.360634,4.151354,-0.307556,4.062074,-0.307099,4.061232,-0.261012,3.968151,-0.260620,3.967278,
-0.221793,3.870942,-0.221470,3.870040,-0.190132,3.771014,-0.189878,3.770091,-0.166211,3.668958,-0.166028,3.668018,-0.150173,3.565369,-0.150064,3.564418,-0.142113,3.460857,-0.142077,3.460020,-0.141580,3.408087,-0.141579,3.407867,-0.142077,3.345751,-0.142103,3.345050,-0.150062,3.221074,-0.150139,3.220276,-0.166026,3.097064,-0.166154,3.096274,-0.189902,2.974333,-0.190080,2.973551,
-0.221592,2.853382,-0.221820,2.852614,-0.260966,2.734711,-0.261243,2.733959,-0.307863,2.618807,-0.308187,2.618074,-0.362089,2.506145,-0.362460,2.505435,-0.423423,2.397189,-0.423838,2.396504,-0.491611,2.292387,-0.492069,2.291730,-0.566373,2.192169,-0.566873,2.191542,-0.647404,2.096946,-0.647943,2.096353,-0.734369,2.007111,-0.734944,2.006554,-0.826910,1.923033,-0.827520,1.922513,
-0.924648,1.845056,-0.925291,1.844577,-1.027182,1.773502,-1.027853,1.773065,-1.134089,1.708664,-1.134787,1.708271,-1.244931,1.650809,-1.245653,1.650461,-1.359252,1.600174,-1.359995,1.599873,-1.476583,1.556968,-1.477343,1.556716,-1.596440,1.521368,-1.597216,1.521164,-1.718333,1.493520,-1.719119,1.493367,-1.841758,1.473540,-1.842553,1.473438,-1.966211,1.461509,-1.967010,1.461457,
-2.091178,1.457475,-2.091980,1.457475,-2.216148,1.461457,-2.216947,1.461509,-2.340605,1.473438,-2.341400,1.473540,-2.464039,1.493367,-2.464825,1.493520,-2.585942,1.521164,-2.586718,1.521368,-2.705815,1.556716,-2.706575,1.556968,-2.823163,1.599873,-2.823906,1.600174,-2.937505,1.650461,-2.938227,1.650809,-3.048371,1.708271,-3.049069,1.708664,-3.155305,1.773065,-3.155976,1.773502,
-3.257867,1.844577,-3.258510,1.845056,-3.355638,1.922513,-3.356248,1.923033,-3.448214,2.006554,-3.448789,2.007111,-3.535215,2.096353,-3.535754,2.096946,-3.616285,2.191542,-3.616785,2.192169,-3.691089,2.291730,-3.691547,2.292387,-3.759320,2.396504,-3.759735,2.397189,-3.820698,2.505435,-3.821069,2.506145,-3.874971,2.618074,-3.875295,2.618807,-3.921915,2.733959,-3.922192,2.734711,
-3.961338,2.852614,-3.961566,2.853382,-3.993078,2.973551,-3.993256,2.974333,-4.017004,3.096274,-4.017132,3.097064,-4.033019,3.220276,-4.033096,3.221074,-4.041055,3.345050,-4.041081,3.345751,-4.041579,3.407867,-4.041579,3.408053,-4.041094,3.478734,-4.041074,3.479349,-4.033148,3.620488,-4.033089,3.621187,-4.017261,3.761659,-4.017163,3.762353,-3.993484,3.901718,-3.993348,3.902406,
-3.961892,4.040223,-3.961716,4.040901,-3.922583,4.176738,-3.922371,4.177407,-3.875682,4.310835,-3.875431,4.311490,-3.821334,4.442091,-3.821048,4.442730,-3.759714,4.570093,-3.759392,4.570717,-3.691013,4.694439,-3.690657,4.695042,-3.615448,4.814737,-3.615059,4.815320,-3.533257,4.930609,-3.532835,4.931170,-3.444698,5.041690,-3.444246,5.042225,-3.350050,5.147631,-3.349568,5.148141,
-3.249610,5.248098,-3.249100,5.248580,-3.143695,5.342776,-3.143160,5.343228,-3.032639,5.431365,-3.032078,5.431786,-2.916790,5.513588,-2.916207,5.513978,-2.796512,5.589187,-2.795908,5.589543,-2.672185,5.657922,-2.671563,5.658244,-2.544201,5.719579,-2.543561,5.719865,-2.412960,5.773962,-2.412304,5.774213,-2.278876,5.820901,-2.278208,5.821113,-2.142371,5.860247,-2.141693,5.860423,
-2.003876,5.891879,-2.003188,5.892015,-1.863823,5.915694,-1.863129,5.915792,-1.722657,5.931619,-1.721958,5.931678,-1.580819,5.939605,-1.580118,5.939625,-1.438756,5.939625,-1.438055,5.939605,-1.296916,5.931678,-1.296217,5.931619,-1.155745,5.915792,-1.155051,5.915694,-1.015686,5.892015,-1.014998,5.891879,-0.877181,5.860423,-0.876503,5.860247,-0.740666,5.821113,-0.739998,5.820901,
-0.606570,5.774213,-0.605914,5.773962,-0.475313,5.719865,-0.474673,5.719579,-0.347311,5.658244,-0.346689,5.657922,-0.222966,5.589543,-0.222362,5.589187,-0.102667,5.513978,-0.102084,5.513588,0.013204,5.431786,0.013765,5.431365,0.124286,5.343228,0.124821,5.342776,0.230226,5.248580,0.230736,5.248098,0.330694,5.148141,0.331176,5.147631,0.425372,5.042225,0.425824,5.041690,
0.513961,4.931170,0.514383,4.930609,0.596185,4.815320,0.596574,4.814737,0.671783,4.695042,0.672139,4.694439,0.740518,4.570717,0.740840,4.570093,0.802174,4.442730,0.802460,4.442091,0.856557,4.311490,0.856808,4.310835,0.903497,4.177407,0.903709,4.176738,0.942842,4.040901,0.943018,4.040223,0.974474,3.902406,0.974610,3.901718,0.998289,3.762353,0.998387,3.761659,
1.014215,3.621187,1.014274,3.620488,1.022200,3.479349,1.022220,3.478734,1.022706,3.408053,1.022706,3.407889,1.022215,3.329300,1.022199,3.328745,1.014238,3.171767,1.014190,3.171135,0.998289,3.014763,0.998209,3.014135,0.974408,2.858768,0.974296,2.858145,0.942656,2.704184,0.942513,2.703567,0.903116,2.551406,0.902942,2.550797,0.855888,2.400826,0.855683,2.400227,
0.801094,2.252832,0.800859,2.252244,0.738875,2.107803,0.738611,2.107227,0.669390,1.966111,0.669096,1.965550,0.592817,1.828121,0.592496,1.827575,0.509354,1.694186,0.509006,1.693657,0.419215,1.564651,0.418840,1.564141,0.322629,1.439847,0.322228,1.439356,0.219846,1.320096,0.219422,1.319626,0.111131,1.205703,0.110683,1.205255,-0.003239,1.096964,-0.003709,1.096540,
-0.122970,0.994158,-0.123461,0.993757,-0.247754,0.897547,-0.248264,0.897172,-0.377271,0.807381,-0.377800,0.807033,-0.511189,0.723891,-0.511735,0.723570,-0.649163,0.647290,-0.649724,0.646996,-0.790840,0.577776,-0.791416,0.577512,-0.935857,0.515527,-0.936445,0.515292,-1.083840,0.460703,-1.084439,0.460498,-1.234410,0.413445,-1.235019,0.413271,-1.387180,0.373873,-1.387797,0.373730,
-1.541758,0.342090,-1.542381,0.341978,-1.697748,0.318177,-1.698376,0.318097,-1.854748,0.302196,-1.855380,0.302148,-2.012358,0.294187,-2.012991,0.294171,-2.170169,0.294171,-2.170802,0.294187,-2.327780,0.302148,-2.328412,0.302196,-2.484784,0.318097,-2.485412,0.318177,-2.640779,0.341978,-2.641402,0.342090,-2.795363,0.373730,-2.795980,0.373873,-2.948141,0.413271,-2.948750,0.413445,
-3.098721,0.460498,-3.099320,0.460703,-3.246715,0.515292,-3.247303,0.515527,-3.391744,0.577512,-3.392320,0.577776,-3.533436,0.646996,-3.533997,0.647290,-3.671425,0.723570,-3.671971,0.723891,-3.805360,0.807033,-3.805889,0.807381,-3.934896,0.897172,-3.935406,0.897547,-4.059699,0.993757,-4.060190,0.994158,-4.179451,1.096540,-4.179921,1.096964,-4.293843,1.205255,-4.294291,1.205703,
-4.402582,1.319626,-4.403006,1.320096,-4.505388,1.439356,-4.505789,1.439847,-4.602000,1.564141,-4.602375,1.564651,-4.692166,1.693657,-4.692514,1.694186,-4.775656,1.827575,-4.775977,1.828121,-4.852256,1.965550,-4.852550,1.966111,-4.921771,2.107227,-4.922035,2.107803,-4.984019,2.252244,-4.984254,2.252832,-5.038843,2.400227,-5.039048,2.400826,-5.086102,2.550797,-5.086276,2.551406,
-5.125673,2.703567,-5.125816,2.704184,-5.157456,2.858145,-5.157568,2.858768,-5.181369,3.014135,-5.181449,3.014763,-5.197350,3.171135,-5.197398,3.171767,-5.205359,3.328745,-5.205375,3.329300,-5.205865,3.407889,-5.205865,3.408039,-5.205367,3.494412,-5.205353,3.494926,-5.197257,3.667482,-5.197216,3.668067,-5.181039,3.840053,-5.180971,3.840634,-5.156752,4.011674,-5.156656,4.012253,
-5.124446,4.181969,-5.124323,4.182542,-5.084193,4.350562,-5.084044,4.351128,-5.036083,4.517082,-5.035907,4.517642,-4.980220,4.681166,-4.980018,4.681716,-4.916727,4.842450,-4.916499,4.842990,-4.845744,5.000580,-4.845492,5.001109,-4.767428,5.155210,-4.767151,5.155726,-4.681950,5.305999,-4.681649,5.306502,-4.589498,5.452616,-4.589174,5.453104,-4.490276,5.594738,-4.489929,5.595211,
-4.384501,5.732053,-4.384133,5.732509,-4.272406,5.864260,-4.272016,5.864698,-4.154236,5.991067,-4.153827,5.991486,-4.030254,6.112195,-4.029825,6.112594,-3.900730,6.227379,-3.900283,6.227758,-3.765950,6.336365,-3.765486,6.336723,-3.626209,6.438915,-3.625728,6.439251,-3.481815,6.534802,-3.481319,6.535114,-3.333085,6.623814,-3.332576,6.624103,-3.180347,6.705758,-3.179824,6.706023,
-3.023936,6.780453,-3.023401,6.780693,-2.864195,6.847734,-2.863650,6.847949,-2.701476,6.907454,-2.700921,6.907643,-2.536137,6.959482,-2.535574,6.959645,-2.368541,7.003702,-2.367971,7.003838,-2.199057,7.040018,-2.198481,7.040127,-2.028056,7.068350,-2.027476,7.068432,-1.855916,7.088635,-1.855332,7.088690,-1.683013,7.100830,-1.682428,7.100858,-1.509730,7.104908,-1.509144,7.104908,
-1.336446,7.100858,-1.336446,7.100858,$1*%
G04 Aperture macros list end*
%ADD10C,0.000000*%
%ADD11C,0.250000*%
%ADD12C,4.012500*%
%ADD13C,3.150000*%
%ADD14C,0.025000*%
%ADD15C,0.010000*%
%ADD16RoundRect,0.100000X0.130000X0.100000X-0.130000X0.100000X-0.130000X-0.100000X0.130000X-0.100000X0*%
%ADD17RoundRect,0.250000X-0.250000X-0.475000X0.250000X-0.475000X0.250000X0.475000X-0.250000X0.475000X0*%
%ADD18RoundRect,0.250000X0.475000X-0.250000X0.475000X0.250000X-0.475000X0.250000X-0.475000X-0.250000X0*%
%ADD19RoundRect,0.100000X0.100000X-0.130000X0.100000X0.130000X-0.100000X0.130000X-0.100000X-0.130000X0*%
%ADD20RoundRect,0.100000X-0.130000X-0.100000X0.130000X-0.100000X0.130000X0.100000X-0.130000X0.100000X0*%
%ADD21RoundRect,0.100000X-0.100000X0.130000X-0.100000X-0.130000X0.100000X-0.130000X0.100000X0.130000X0*%
%ADD22R,1.350000X1.350000*%
%ADD23O,1.350000X1.350000*%
%ADD24RoundRect,0.250000X0.375000X0.850000X-0.375000X0.850000X-0.375000X-0.850000X0.375000X-0.850000X0*%
%ADD25RoundRect,0.100000X-0.162635X0.021213X0.021213X-0.162635X0.162635X-0.021213X-0.021213X0.162635X0*%
%ADD26FreePoly0,180.000000*%
%ADD27FreePoly1,180.000000*%
%ADD28RoundRect,0.150000X0.150000X0.200000X-0.150000X0.200000X-0.150000X-0.200000X0.150000X-0.200000X0*%
%ADD29R,0.745000X0.280000*%
%ADD30R,0.280000X0.745000*%
%ADD31R,0.565000X0.200000*%
%ADD32R,0.565000X0.400000*%
%ADD33RoundRect,0.140000X0.170000X-0.140000X0.170000X0.140000X-0.170000X0.140000X-0.170000X-0.140000X0*%
%ADD34RoundRect,0.150000X0.587500X0.150000X-0.587500X0.150000X-0.587500X-0.150000X0.587500X-0.150000X0*%
%ADD35RoundRect,0.250000X-0.425000X0.450000X-0.425000X-0.450000X0.425000X-0.450000X0.425000X0.450000X0*%
%ADD36RotRect,0.550000X0.550000X357.000000*%
%ADD37RoundRect,0.140000X-0.170000X0.140000X-0.170000X-0.140000X0.170000X-0.140000X0.170000X0.140000X0*%
%ADD38C,2.450000*%
%ADD39C,1.600000*%
%ADD40C,1.250000*%
%ADD41C,2.000000*%
%ADD42RoundRect,0.100000X0.162635X-0.021213X-0.021213X0.162635X-0.162635X0.021213X0.021213X-0.162635X0*%
%ADD43R,0.550000X0.550000*%
%ADD44C,0.230000*%
%ADD45RoundRect,0.250000X-0.475000X0.250000X-0.475000X-0.250000X0.475000X-0.250000X0.475000X0.250000X0*%
%ADD46HorizOval,2.250000X-0.250000X0.433013X0.250000X-0.433013X0*%
%ADD47HorizOval,1.700000X0.259808X0.150000X-0.259808X-0.150000X0*%
%ADD48RoundRect,0.150000X-0.200000X0.150000X-0.200000X-0.150000X0.200000X-0.150000X0.200000X0.150000X0*%
%ADD49HorizOval,2.250000X-0.250000X-0.433013X0.250000X0.433013X0*%
%ADD50HorizOval,1.700000X0.259808X-0.150000X-0.259808X0.150000X0*%
%ADD51RoundRect,0.150000X-0.150000X-0.200000X0.150000X-0.200000X0.150000X0.200000X-0.150000X0.200000X0*%
%ADD52R,0.750000X1.000000*%
%ADD53RoundRect,0.150000X-0.150000X0.587500X-0.150000X-0.587500X0.150000X-0.587500X0.150000X0.587500X0*%
%ADD54RoundRect,0.100000X-0.021213X-0.162635X0.162635X0.021213X0.021213X0.162635X-0.162635X-0.021213X0*%
%ADD55C,1.500000*%
%ADD56RoundRect,0.100000X-0.225000X-0.100000X0.225000X-0.100000X0.225000X0.100000X-0.225000X0.100000X0*%
%ADD57RoundRect,0.050000X0.050000X-0.387500X0.050000X0.387500X-0.050000X0.387500X-0.050000X-0.387500X0*%
%ADD58RoundRect,0.050000X0.387500X-0.050000X0.387500X0.050000X-0.387500X0.050000X-0.387500X-0.050000X0*%
%ADD59R,3.200000X3.200000*%
%ADD60RoundRect,0.250000X0.250000X-0.250000X0.250000X0.250000X-0.250000X0.250000X-0.250000X-0.250000X0*%
%ADD61RoundRect,0.100000X0.100000X-0.225000X0.100000X0.225000X-0.100000X0.225000X-0.100000X-0.225000X0*%
%ADD62R,1.500000X1.000000*%
%ADD63RoundRect,0.140000X-0.140000X-0.170000X0.140000X-0.170000X0.140000X0.170000X-0.140000X0.170000X0*%
%ADD64RoundRect,0.100000X0.225000X0.100000X-0.225000X0.100000X-0.225000X-0.100000X0.225000X-0.100000X0*%
%ADD65R,2.000000X1.000000*%
%ADD66R,1.000000X2.000000*%
%ADD67R,1.000000X0.750000*%
%ADD68R,1.200000X1.400000*%
%ADD69RoundRect,0.093750X0.093750X-0.156250X0.093750X0.156250X-0.093750X0.156250X-0.093750X-0.156250X0*%
%ADD70RoundRect,0.075000X0.075000X-0.250000X0.075000X0.250000X-0.075000X0.250000X-0.075000X-0.250000X0*%
%ADD71RoundRect,0.225000X-0.225000X-0.250000X0.225000X-0.250000X0.225000X0.250000X-0.225000X0.250000X0*%
%ADD72RoundRect,0.218750X0.256250X-0.218750X0.256250X0.218750X-0.256250X0.218750X-0.256250X-0.218750X0*%
%ADD73RoundRect,0.250000X-0.250000X0.250000X-0.250000X-0.250000X0.250000X-0.250000X0.250000X0.250000X0*%
%ADD74RoundRect,0.225000X0.250000X-0.225000X0.250000X0.225000X-0.250000X0.225000X-0.250000X-0.225000X0*%
%ADD75RoundRect,0.093750X-0.093750X0.156250X-0.093750X-0.156250X0.093750X-0.156250X0.093750X0.156250X0*%
%ADD76RoundRect,0.075000X-0.075000X0.250000X-0.075000X-0.250000X0.075000X-0.250000X0.075000X0.250000X0*%
%ADD77R,0.700000X0.300000*%
%ADD78R,1.000000X0.300000*%
%ADD79RoundRect,0.250000X0.250000X0.250000X-0.250000X0.250000X-0.250000X-0.250000X0.250000X-0.250000X0*%
%ADD80R,0.300000X0.400000*%
%ADD81R,1.600000X0.200000*%
%ADD82O,1.772000X3.250000*%
%ADD83RoundRect,0.250000X0.625000X-0.350000X0.625000X0.350000X-0.625000X0.350000X-0.625000X-0.350000X0*%
%ADD84O,1.750000X1.200000*%
%ADD85O,1.600000X2.500000*%
%ADD86RoundRect,0.250000X-0.350000X-0.625000X0.350000X-0.625000X0.350000X0.625000X-0.350000X0.625000X0*%
%ADD87O,1.200000X1.750000*%
%ADD88C,0.650000*%
%ADD89O,0.950000X0.650000*%
%ADD90C,0.600000*%
%ADD91O,0.800000X1.400000*%
G04 APERTURE END LIST*
D10*
G36*
X50367383Y-34141012D02*
G01*
X50490689Y-34224604D01*
X50604724Y-34309554D01*
X50709737Y-34395690D01*
X50805977Y-34482838D01*
X50893691Y-34570826D01*
X50973128Y-34659480D01*
X51044536Y-34748627D01*
X51108163Y-34838094D01*
X51164259Y-34927707D01*
X51213070Y-35017293D01*
X51254846Y-35106680D01*
X51289834Y-35195694D01*
X51318284Y-35284161D01*
X51340442Y-35371909D01*
X51356558Y-35458764D01*
X51366880Y-35544554D01*
X51371656Y-35629104D01*
X51371134Y-35712243D01*
X51365563Y-35793796D01*
X51355190Y-35873590D01*
X51340265Y-35951452D01*
X51321036Y-36027210D01*
X51297750Y-36100689D01*
X51270657Y-36171717D01*
X51240003Y-36240120D01*
X51206039Y-36305725D01*
X51169011Y-36368360D01*
X51129169Y-36427850D01*
X51086760Y-36484023D01*
X51042033Y-36536705D01*
X50995236Y-36585724D01*
X50973592Y-36608274D01*
X50953312Y-36631246D01*
X50934406Y-36654599D01*
X50916882Y-36678289D01*
X50900748Y-36702275D01*
X50886013Y-36726515D01*
X50872686Y-36750965D01*
X50860774Y-36775583D01*
X50850287Y-36800327D01*
X50841233Y-36825155D01*
X50833619Y-36850024D01*
X50827456Y-36874892D01*
X50822751Y-36899717D01*
X50819512Y-36924455D01*
X50817749Y-36949065D01*
X50817469Y-36973504D01*
X50818682Y-36997730D01*
X50821395Y-37021700D01*
X50825618Y-37045373D01*
X50831358Y-37068705D01*
X50838624Y-37091654D01*
X50847424Y-37114178D01*
X50857768Y-37136235D01*
X50869663Y-37157782D01*
X50883118Y-37178777D01*
X50898141Y-37199176D01*
X50914742Y-37218939D01*
X50932928Y-37238023D01*
X50952707Y-37256384D01*
X50974089Y-37273981D01*
X50997082Y-37290772D01*
X51021695Y-37306714D01*
X51053651Y-37323875D01*
X51086192Y-37338194D01*
X51119205Y-37349738D01*
X51152578Y-37358571D01*
X51186198Y-37364759D01*
X51219953Y-37368367D01*
X51253729Y-37369461D01*
X51287415Y-37368105D01*
X51320897Y-37364366D01*
X51354063Y-37358309D01*
X51386800Y-37350000D01*
X51418996Y-37339502D01*
X51450538Y-37326883D01*
X51481313Y-37312207D01*
X51511209Y-37295541D01*
X51540113Y-37276948D01*
X51567912Y-37256495D01*
X51594494Y-37234247D01*
X51619746Y-37210270D01*
X51643556Y-37184628D01*
X51665811Y-37157388D01*
X51686397Y-37128614D01*
X51705204Y-37098372D01*
X51722117Y-37066728D01*
X51737025Y-37033747D01*
X51749814Y-36999494D01*
X51760372Y-36964035D01*
X51768587Y-36927434D01*
X51774346Y-36889759D01*
X51777535Y-36851073D01*
X51778043Y-36811442D01*
X51775757Y-36770932D01*
X51767806Y-36649955D01*
X51766404Y-36535159D01*
X51768220Y-36480121D01*
X51771746Y-36426680D01*
X51777006Y-36374852D01*
X51784026Y-36324655D01*
X51792827Y-36276104D01*
X51803436Y-36229218D01*
X51815877Y-36184013D01*
X51830173Y-36140506D01*
X51846348Y-36098714D01*
X51864428Y-36058653D01*
X51884435Y-36020342D01*
X51906395Y-35983797D01*
X51930332Y-35949034D01*
X51956270Y-35916072D01*
X51984232Y-35884926D01*
X52014244Y-35855614D01*
X52046329Y-35828152D01*
X52080513Y-35802558D01*
X52116818Y-35778849D01*
X52155269Y-35757041D01*
X52195891Y-35737151D01*
X52238707Y-35719197D01*
X52283742Y-35703196D01*
X52331021Y-35689164D01*
X52380566Y-35677118D01*
X52432403Y-35667075D01*
X52486556Y-35659053D01*
X52543049Y-35653068D01*
X52499117Y-35741296D01*
X52463745Y-35825124D01*
X52436464Y-35904884D01*
X52416803Y-35980903D01*
X52404294Y-36053512D01*
X52398465Y-36123039D01*
X52398847Y-36189815D01*
X52404970Y-36254168D01*
X52416363Y-36316428D01*
X52432558Y-36376925D01*
X52453084Y-36435988D01*
X52477472Y-36493947D01*
X52505250Y-36551130D01*
X52535950Y-36607867D01*
X52604234Y-36721323D01*
X52755181Y-36957381D01*
X52830325Y-37085254D01*
X52866169Y-37152805D01*
X52900236Y-37223204D01*
X52932055Y-37296782D01*
X52961156Y-37373867D01*
X52987070Y-37454789D01*
X53009325Y-37539877D01*
X53027453Y-37629462D01*
X53040984Y-37723871D01*
X53049446Y-37823436D01*
X53052372Y-37928484D01*
X53045794Y-38095087D01*
X53025797Y-38266332D01*
X52991983Y-38440502D01*
X52943955Y-38615884D01*
X52881315Y-38790762D01*
X52803666Y-38963421D01*
X52759089Y-39048383D01*
X52710611Y-39132146D01*
X52658183Y-39214498D01*
X52601753Y-39295222D01*
X52541274Y-39374106D01*
X52476695Y-39450935D01*
X52407966Y-39525494D01*
X52335038Y-39597568D01*
X52257862Y-39666945D01*
X52176387Y-39733408D01*
X52090564Y-39796744D01*
X52000343Y-39856739D01*
X51905675Y-39913177D01*
X51806510Y-39965845D01*
X51702798Y-40014529D01*
X51594489Y-40059013D01*
X51481535Y-40099084D01*
X51363885Y-40134527D01*
X51241490Y-40165128D01*
X51114299Y-40190672D01*
X51172765Y-40160769D01*
X51226695Y-40128182D01*
X51276208Y-40093018D01*
X51321418Y-40055383D01*
X51362443Y-40015384D01*
X51399398Y-39973127D01*
X51432400Y-39928719D01*
X51461564Y-39882267D01*
X51487009Y-39833877D01*
X51508848Y-39783655D01*
X51527200Y-39731709D01*
X51542180Y-39678145D01*
X51553904Y-39623069D01*
X51562489Y-39566588D01*
X51568050Y-39508809D01*
X51570705Y-39449838D01*
X51570827Y-39406621D01*
X51568737Y-39363850D01*
X51564468Y-39321625D01*
X51558057Y-39280043D01*
X51549539Y-39239201D01*
X51538948Y-39199200D01*
X51526321Y-39160135D01*
X51511691Y-39122107D01*
X51495094Y-39085211D01*
X51476565Y-39049548D01*
X51456140Y-39015214D01*
X51433853Y-38982309D01*
X51409740Y-38950929D01*
X51383835Y-38921174D01*
X51356174Y-38893141D01*
X51326793Y-38866928D01*
X51295725Y-38842634D01*
X51263006Y-38820357D01*
X51228672Y-38800194D01*
X51192757Y-38782244D01*
X51155296Y-38766604D01*
X51116326Y-38753374D01*
X51075880Y-38742651D01*
X51033994Y-38734533D01*
X50990703Y-38729119D01*
X50946042Y-38726506D01*
X50900047Y-38726792D01*
X50852752Y-38730076D01*
X50804192Y-38736456D01*
X50754403Y-38746030D01*
X50703420Y-38758895D01*
X50651278Y-38775151D01*
X50597676Y-38791035D01*
X50544842Y-38802772D01*
X50492888Y-38810439D01*
X50441924Y-38814115D01*
X50392059Y-38813876D01*
X50343404Y-38809800D01*
X50296070Y-38801964D01*
X50250166Y-38790447D01*
X50205802Y-38775325D01*
X50163089Y-38756676D01*
X50122138Y-38734578D01*
X50083057Y-38709108D01*
X50045958Y-38680344D01*
X50010951Y-38648363D01*
X49978145Y-38613242D01*
X49947652Y-38575060D01*
X49919581Y-38533893D01*
X49894042Y-38489819D01*
X49871147Y-38442917D01*
X49851004Y-38393262D01*
X49833725Y-38340933D01*
X49819418Y-38286008D01*
X49808196Y-38228563D01*
X49800167Y-38168676D01*
X49795443Y-38106426D01*
X49794133Y-38041888D01*
X49796347Y-37975142D01*
X49802196Y-37906263D01*
X49811790Y-37835331D01*
X49825238Y-37762422D01*
X49842653Y-37687614D01*
X49864143Y-37610984D01*
X49776983Y-37692429D01*
X49696522Y-37776601D01*
X49622677Y-37863244D01*
X49555363Y-37952100D01*
X49494498Y-38042914D01*
X49439997Y-38135429D01*
X49391778Y-38229387D01*
X49349756Y-38324532D01*
X49313848Y-38420608D01*
X49283970Y-38517357D01*
X49260039Y-38614522D01*
X49241972Y-38711847D01*
X49229684Y-38809076D01*
X49223092Y-38905950D01*
X49222113Y-39002215D01*
X49226662Y-39097612D01*
X49236658Y-39191885D01*
X49252015Y-39284777D01*
X49272650Y-39376032D01*
X49298480Y-39465393D01*
X49329421Y-39552603D01*
X49365389Y-39637405D01*
X49406302Y-39719542D01*
X49452075Y-39798758D01*
X49502625Y-39874796D01*
X49557868Y-39947399D01*
X49617721Y-40016310D01*
X49682100Y-40081273D01*
X49750921Y-40142031D01*
X49824102Y-40198326D01*
X49901558Y-40249903D01*
X49983205Y-40296505D01*
X49790606Y-40247994D01*
X49610712Y-40192043D01*
X49443206Y-40129079D01*
X49287770Y-40059530D01*
X49144087Y-39983823D01*
X49011840Y-39902387D01*
X48890712Y-39815648D01*
X48780385Y-39724034D01*
X48680541Y-39627972D01*
X48590865Y-39527891D01*
X48511037Y-39424217D01*
X48440741Y-39317379D01*
X48379660Y-39207803D01*
X48327476Y-39095918D01*
X48283872Y-38982150D01*
X48248531Y-38866928D01*
X48221135Y-38750679D01*
X48201366Y-38633830D01*
X48188909Y-38516810D01*
X48183444Y-38400045D01*
X48184656Y-38283963D01*
X48192226Y-38168991D01*
X48205838Y-38055558D01*
X48225173Y-37944091D01*
X48249915Y-37835016D01*
X48279747Y-37728763D01*
X48314350Y-37625758D01*
X48353408Y-37526429D01*
X48396604Y-37431203D01*
X48443619Y-37340508D01*
X48494137Y-37254772D01*
X48547841Y-37174422D01*
X48633007Y-37061305D01*
X48721913Y-36954719D01*
X48813958Y-36854063D01*
X48908542Y-36758737D01*
X49005064Y-36668138D01*
X49102923Y-36581667D01*
X49201519Y-36498723D01*
X49300250Y-36418706D01*
X49684515Y-36115882D01*
X49774914Y-36041484D01*
X49861843Y-35966408D01*
X49944703Y-35890053D01*
X50022893Y-35811818D01*
X50089946Y-35738647D01*
X50151903Y-35662705D01*
X50208317Y-35583547D01*
X50258744Y-35500726D01*
X50302737Y-35413796D01*
X50339850Y-35322313D01*
X50369638Y-35225830D01*
X50391656Y-35123901D01*
X50405457Y-35016081D01*
X50410595Y-34901925D01*
X50406626Y-34780986D01*
X50393103Y-34652819D01*
X50369580Y-34516978D01*
X50335613Y-34373017D01*
X50290754Y-34220491D01*
X50234559Y-34058953D01*
X50367383Y-34141012D01*
G37*
D11*
G36*
X30577700Y-59361901D02*
G01*
X29973859Y-59361901D01*
X29973859Y-59831946D01*
X30165028Y-59831946D01*
X30165028Y-59585017D01*
X30229248Y-59594034D01*
X30289500Y-59620769D01*
X30342212Y-59664268D01*
X30364394Y-59691656D01*
X30383043Y-59722197D01*
X30397677Y-59755262D01*
X30408098Y-59790761D01*
X30415108Y-59854808D01*
X30412817Y-59893178D01*
X30406158Y-59928778D01*
X30380689Y-59992447D01*
X30339554Y-60047235D01*
X30282386Y-60093425D01*
X30208704Y-60129792D01*
X30119789Y-60153645D01*
X30026615Y-60161601D01*
X29965608Y-60159287D01*
X29909303Y-60152468D01*
X29859539Y-60141804D01*
X29814263Y-60127290D01*
X29774975Y-60109837D01*
X29739952Y-60089119D01*
X29710162Y-60066092D01*
X29684465Y-60040276D01*
X29663266Y-60012351D01*
X29646102Y-59981994D01*
X29624038Y-59914385D01*
X29618412Y-59853122D01*
X29627348Y-59781695D01*
X29653646Y-59715162D01*
X29672606Y-59685790D01*
X29694859Y-59659984D01*
X29719309Y-59638800D01*
X29746159Y-59621984D01*
X29773410Y-59610551D01*
X29802186Y-59603867D01*
X29806943Y-59603262D01*
X29806943Y-59363440D01*
X29723852Y-59378806D01*
X29647475Y-59411460D01*
X29578901Y-59460805D01*
X29519797Y-59526263D01*
X29472365Y-59606841D01*
X29439068Y-59700806D01*
X29428453Y-59752087D01*
X29422217Y-59805649D01*
X29420502Y-59853122D01*
X29422815Y-59910576D01*
X29429625Y-59964958D01*
X29440639Y-60015870D01*
X29455705Y-60063727D01*
X29474642Y-60108529D01*
X29497257Y-60150242D01*
X29553410Y-60225038D01*
X29623802Y-60288178D01*
X29708326Y-60339105D01*
X29806749Y-60376622D01*
X29918280Y-60399048D01*
X30016577Y-60404867D01*
X30132353Y-60395657D01*
X30189043Y-60384190D01*
X30243967Y-60368321D01*
X30296441Y-60348301D01*
X30346359Y-60324184D01*
X30392350Y-60296740D01*
X30435127Y-60265617D01*
X30473055Y-60232163D01*
X30507289Y-60195494D01*
X30536368Y-60157361D01*
X30561424Y-60116462D01*
X30581438Y-60074627D01*
X30597187Y-60030411D01*
X30608121Y-59985402D01*
X30614559Y-59938318D01*
X30616315Y-59896793D01*
X30614010Y-59843511D01*
X30607255Y-59792821D01*
X30596305Y-59745320D01*
X30581392Y-59701479D01*
X30563439Y-59663094D01*
X30542223Y-59629114D01*
X30519551Y-59601681D01*
X30494376Y-59578948D01*
X30472700Y-59564501D01*
X30578800Y-59559738D01*
X30577700Y-59361901D01*
G37*
G36*
X30190014Y-58537215D02*
G01*
X30234518Y-58549840D01*
X30274251Y-58566238D01*
X30306408Y-58584630D01*
X30334347Y-58606246D01*
X30356695Y-58629544D01*
X30375145Y-58655733D01*
X30399653Y-58715361D01*
X30408367Y-58789054D01*
X30406039Y-58827340D01*
X30399124Y-58862691D01*
X30388274Y-58893846D01*
X30373386Y-58922304D01*
X30332304Y-58970740D01*
X30274622Y-59009522D01*
X30197268Y-59038429D01*
X30096243Y-59055561D01*
X30017603Y-59058918D01*
X29952088Y-59056563D01*
X29891807Y-59049457D01*
X29841625Y-59038787D01*
X29796202Y-59024071D01*
X29759008Y-59007039D01*
X29726102Y-58986553D01*
X29699492Y-58964382D01*
X29676834Y-58939168D01*
X29658928Y-58912105D01*
X29644871Y-58882192D01*
X29628754Y-58813985D01*
X29626839Y-58777330D01*
X29636027Y-58711726D01*
X29663040Y-58651605D01*
X29682885Y-58624608D01*
X29706755Y-58600140D01*
X29734369Y-58578645D01*
X29765684Y-58560350D01*
X29828412Y-58537215D01*
X29828412Y-58299298D01*
X29781218Y-58306211D01*
X29735733Y-58317585D01*
X29692444Y-58333219D01*
X29651376Y-58353050D01*
X29613146Y-58376724D01*
X29577609Y-58404305D01*
X29545395Y-58435287D01*
X29516308Y-58469877D01*
X29490884Y-58507493D01*
X29468990Y-58548433D01*
X29451027Y-58592144D01*
X29436989Y-58638923D01*
X29427157Y-58688343D01*
X29421656Y-58740604D01*
X29420502Y-58779016D01*
X29422830Y-58833609D01*
X29429749Y-58885694D01*
X29440887Y-58934214D01*
X29456246Y-58980141D01*
X29475437Y-59022814D01*
X29498554Y-59062788D01*
X29555902Y-59133993D01*
X29628187Y-59193773D01*
X29715810Y-59241609D01*
X29819407Y-59276368D01*
X29939559Y-59296368D01*
X30031012Y-59300498D01*
X30097023Y-59298186D01*
X30159199Y-59291376D01*
X30216710Y-59280451D01*
X30270452Y-59265528D01*
X30319852Y-59247028D01*
X30365527Y-59224978D01*
X30407205Y-59199729D01*
X30445162Y-59171326D01*
X30479410Y-59139913D01*
X30509890Y-59105691D01*
X30559853Y-59028765D01*
X30594658Y-58941000D01*
X30613365Y-58842884D01*
X30616315Y-58782386D01*
X30613996Y-58730600D01*
X30607140Y-58681218D01*
X30596012Y-58634706D01*
X30580722Y-58590725D01*
X30561444Y-58549402D01*
X30538311Y-58510766D01*
X30480599Y-58441419D01*
X30407840Y-58383188D01*
X30320108Y-58337117D01*
X30217622Y-58304760D01*
X30190014Y-58299078D01*
X30190014Y-58537215D01*
G37*
G36*
X30204229Y-57597491D02*
G01*
X30246962Y-57599840D01*
X30284837Y-57606903D01*
X30314740Y-57617281D01*
X30340793Y-57631497D01*
X30361763Y-57648340D01*
X30379398Y-57668592D01*
X30404769Y-57719380D01*
X30417451Y-57788360D01*
X30418478Y-57818555D01*
X30416164Y-57852864D01*
X30409342Y-57884211D01*
X30398647Y-57911572D01*
X30384081Y-57935977D01*
X30344494Y-57975180D01*
X30290456Y-58002100D01*
X30220771Y-58015258D01*
X30195802Y-58016099D01*
X29458018Y-58016099D01*
X29458018Y-58257679D01*
X30217638Y-58257679D01*
X30270405Y-58255356D01*
X30319333Y-58248476D01*
X30362781Y-58237684D01*
X30402719Y-58222917D01*
X30438297Y-58204804D01*
X30470576Y-58183133D01*
X30525094Y-58129824D01*
X30567448Y-58062285D01*
X30597528Y-57978749D01*
X30613947Y-57876938D01*
X30616315Y-57815184D01*
X30613975Y-57751738D01*
X30606969Y-57692576D01*
X30596130Y-57640875D01*
X30581197Y-57593155D01*
X30563311Y-57551736D01*
X30541794Y-57514037D01*
X30517763Y-57481445D01*
X30490425Y-57452409D01*
X30460473Y-57427492D01*
X30427381Y-57406107D01*
X30351635Y-57374120D01*
X30261170Y-57356852D01*
X30204229Y-57354225D01*
X29458018Y-57354225D01*
X29458018Y-57597491D01*
X30204229Y-57597491D01*
G37*
G36*
X29836526Y-55960028D02*
G01*
X29908401Y-55980075D01*
X29967721Y-56014523D01*
X30012823Y-56060849D01*
X30042809Y-56117452D01*
X30046104Y-56107740D01*
X30072599Y-56055451D01*
X30089370Y-56035922D01*
X30109266Y-56019837D01*
X30134868Y-56006097D01*
X30165067Y-55996095D01*
X30208900Y-55988691D01*
X30261162Y-55986294D01*
X30578800Y-55986294D01*
X30578800Y-56219448D01*
X30289665Y-56219448D01*
X30256841Y-56220944D01*
X30208056Y-56232727D01*
X30175250Y-56256793D01*
X30162177Y-56276564D01*
X30152597Y-56301409D01*
X30145092Y-56341623D01*
X30142679Y-56391859D01*
X30142679Y-56638129D01*
X30578800Y-56638129D01*
X30578800Y-56869598D01*
X29458018Y-56869598D01*
X29458018Y-56339762D01*
X29655928Y-56339762D01*
X29655928Y-56638129D01*
X29949899Y-56638129D01*
X29949899Y-56348115D01*
X29948082Y-56313235D01*
X29933589Y-56255327D01*
X29921461Y-56233126D01*
X29906391Y-56215052D01*
X29887062Y-56199909D01*
X29864881Y-56189085D01*
X29835791Y-56181563D01*
X29803719Y-56179148D01*
X29770057Y-56181709D01*
X29722963Y-56197299D01*
X29688193Y-56226503D01*
X29674878Y-56247230D01*
X29664901Y-56272103D01*
X29658222Y-56303381D01*
X29655928Y-56339762D01*
X29458018Y-56339762D01*
X29458018Y-56301147D01*
X29462008Y-56241702D01*
X29470134Y-56199652D01*
X29482403Y-56160355D01*
X29498591Y-56123963D01*
X29518461Y-56090665D01*
X29541815Y-56060592D01*
X29568395Y-56033963D01*
X29598027Y-56010907D01*
X29630429Y-55991649D01*
X29665436Y-55976336D01*
X29702753Y-55965181D01*
X29742203Y-55958348D01*
X29783496Y-55956032D01*
X29836526Y-55960028D01*
G37*
G36*
X30139822Y-55661549D02*
G01*
X30110363Y-55644535D01*
X30086212Y-55624348D01*
X30069833Y-55604200D01*
X30057439Y-55581057D01*
X30044946Y-55526536D01*
X30044201Y-55506796D01*
X30046521Y-55475825D01*
X30053385Y-55448472D01*
X30063802Y-55426119D01*
X30077954Y-55406901D01*
X30116589Y-55377992D01*
X30171863Y-55360588D01*
X30226357Y-55356294D01*
X30273803Y-55358710D01*
X30316152Y-55366246D01*
X30347086Y-55376718D01*
X30373808Y-55391272D01*
X30393483Y-55407548D01*
X30409483Y-55427303D01*
X30421039Y-55449329D01*
X30428945Y-55474753D01*
X30433573Y-55520205D01*
X30431253Y-55550010D01*
X30424397Y-55576985D01*
X30413748Y-55599955D01*
X30399230Y-55620036D01*
X30359725Y-55650614D01*
X30305081Y-55668475D01*
X30285781Y-55671001D01*
X30285781Y-55893897D01*
X30326389Y-55889817D01*
X30365037Y-55881356D01*
X30436692Y-55851735D01*
X30499290Y-55806084D01*
X30550839Y-55745587D01*
X30588951Y-55671963D01*
X30602214Y-55630936D01*
X30611223Y-55587665D01*
X30616315Y-55520205D01*
X30613997Y-55473389D01*
X30607150Y-55428774D01*
X30596039Y-55386874D01*
X30580785Y-55347509D01*
X30561688Y-55311101D01*
X30538811Y-55277554D01*
X30512422Y-55247162D01*
X30482586Y-55219962D01*
X30449464Y-55196135D01*
X30413199Y-55175852D01*
X30373797Y-55159237D01*
X30331536Y-55146549D01*
X30286275Y-55137925D01*
X30238429Y-55133641D01*
X30216099Y-55133178D01*
X30167938Y-55135481D01*
X30122981Y-55142223D01*
X30081622Y-55153053D01*
X30043580Y-55167763D01*
X30009030Y-55186049D01*
X29977941Y-55207706D01*
X29926280Y-55260403D01*
X29889217Y-55324536D01*
X29867891Y-55398818D01*
X29863144Y-55458070D01*
X29865727Y-55510768D01*
X29874435Y-55561702D01*
X29886025Y-55598281D01*
X29902607Y-55632296D01*
X29938395Y-55677229D01*
X29647575Y-55667484D01*
X29647575Y-55175163D01*
X29458018Y-55175163D01*
X29458018Y-55866933D01*
X30139675Y-55890600D01*
X30139822Y-55661549D01*
G37*
G36*
X32072067Y-59438915D02*
G01*
X32189809Y-59454643D01*
X32293785Y-59486285D01*
X32383100Y-59531888D01*
X32457264Y-59589704D01*
X32516003Y-59658367D01*
X32558993Y-59736958D01*
X32574411Y-59779819D01*
X32585613Y-59824941D01*
X32592479Y-59872445D01*
X32594800Y-59921999D01*
X32594800Y-60391385D01*
X31474018Y-60391385D01*
X31474018Y-59989190D01*
X31671928Y-59989190D01*
X31671928Y-60159916D01*
X32400333Y-60159916D01*
X32400333Y-59969040D01*
X32398509Y-59928628D01*
X32383407Y-59856112D01*
X32354072Y-59798306D01*
X32333535Y-59773487D01*
X32309241Y-59751756D01*
X32279061Y-59731836D01*
X32244577Y-59715310D01*
X32201280Y-59700850D01*
X32152690Y-59690367D01*
X32091097Y-59683155D01*
X32022685Y-59680785D01*
X31954893Y-59683176D01*
X31861710Y-59697747D01*
X31793919Y-59723530D01*
X31743639Y-59760427D01*
X31723282Y-59784222D01*
X31706483Y-59811446D01*
X31692047Y-59845290D01*
X31681599Y-59883500D01*
X31674309Y-59933238D01*
X31671928Y-59989190D01*
X31474018Y-59989190D01*
X31474018Y-59957316D01*
X31475684Y-59910869D01*
X31492118Y-59809075D01*
X31524973Y-59717831D01*
X31573067Y-59637830D01*
X31635573Y-59569736D01*
X31672098Y-59540380D01*
X31712003Y-59514376D01*
X31755442Y-59491770D01*
X31802113Y-59472871D01*
X31852378Y-59457723D01*
X31905744Y-59446673D01*
X31962729Y-59439835D01*
X32022685Y-59437519D01*
X32072067Y-59438915D01*
G37*
G36*
X32238400Y-59162819D02*
G01*
X32308299Y-59150978D01*
X32364775Y-59124880D01*
X32405820Y-59087193D01*
X32420612Y-59064406D01*
X32431474Y-59039069D01*
X32438252Y-59010952D01*
X32440560Y-58980516D01*
X32436490Y-58940004D01*
X32417408Y-58889439D01*
X32386962Y-58853983D01*
X32348163Y-58834483D01*
X32348163Y-58604406D01*
X32412146Y-58628871D01*
X32449504Y-58649261D01*
X32483332Y-58672953D01*
X32513618Y-58699835D01*
X32540212Y-58729690D01*
X32563289Y-58762746D01*
X32582436Y-58798490D01*
X32597830Y-58837504D01*
X32608982Y-58878937D01*
X32615916Y-58923605D01*
X32618247Y-58970404D01*
X32615674Y-59030306D01*
X32598960Y-59123428D01*
X32568282Y-59199676D01*
X32524064Y-59262101D01*
X32496318Y-59288947D01*
X32465010Y-59312526D01*
X32428549Y-59333646D01*
X32388222Y-59351205D01*
X32341062Y-59365976D01*
X32289535Y-59376707D01*
X32229227Y-59383737D01*
X32163882Y-59386081D01*
X32118322Y-59384469D01*
X32021739Y-59368778D01*
X31939685Y-59338075D01*
X31871619Y-59293852D01*
X31817135Y-59236738D01*
X31794949Y-59203211D01*
X31776413Y-59166548D01*
X31761433Y-59126102D01*
X31750501Y-59082554D01*
X31743638Y-59034773D01*
X31741621Y-58990554D01*
X31919077Y-58990554D01*
X31922485Y-59023901D01*
X31942251Y-59073314D01*
X31958400Y-59094827D01*
X31978511Y-59113730D01*
X32002488Y-59129697D01*
X32030123Y-59142316D01*
X32061363Y-59151248D01*
X32095958Y-59156078D01*
X32095958Y-58823346D01*
X32052883Y-58828256D01*
X32023258Y-58836857D01*
X31997384Y-58849152D01*
X31974418Y-58865396D01*
X31955464Y-58884669D01*
X31939774Y-58907770D01*
X31928502Y-58933114D01*
X31921428Y-58961264D01*
X31919077Y-58990554D01*
X31741621Y-58990554D01*
X31741317Y-58983886D01*
X31744044Y-58929312D01*
X31761336Y-58845173D01*
X31793458Y-58774551D01*
X31815176Y-58743467D01*
X31840661Y-58715236D01*
X31870795Y-58689205D01*
X31904908Y-58666241D01*
X31945057Y-58645437D01*
X31989598Y-58628080D01*
X32041868Y-58613418D01*
X32099114Y-58602736D01*
X32165909Y-58595753D01*
X32238400Y-58593415D01*
X32238400Y-59162819D01*
G37*
G36*
X32018215Y-57811374D02*
G01*
X31972622Y-57816746D01*
X31931011Y-57826691D01*
X31896705Y-57839797D01*
X31865740Y-57856886D01*
X31839596Y-57876766D01*
X31816479Y-57900369D01*
X31779737Y-57958395D01*
X31754516Y-58034695D01*
X31742107Y-58134972D01*
X31741317Y-58171657D01*
X31743616Y-58233071D01*
X31750327Y-58287886D01*
X31760588Y-58334239D01*
X31774374Y-58374977D01*
X31790704Y-58408990D01*
X31809849Y-58438170D01*
X31831103Y-58462210D01*
X31854648Y-58481944D01*
X31908424Y-58509334D01*
X31972261Y-58521283D01*
X31988980Y-58521755D01*
X32026039Y-58519296D01*
X32061304Y-58511465D01*
X32089975Y-58499948D01*
X32117060Y-58483545D01*
X32140957Y-58463292D01*
X32163243Y-58437984D01*
X32178170Y-58416535D01*
X32216380Y-58338034D01*
X32255140Y-58211562D01*
X32272985Y-58140296D01*
X32285551Y-58092967D01*
X32301474Y-58052869D01*
X32323701Y-58023916D01*
X32338099Y-58014842D01*
X32355178Y-58010021D01*
X32365236Y-58009357D01*
X32383619Y-58011630D01*
X32399472Y-58018161D01*
X32424392Y-58042825D01*
X32441836Y-58085936D01*
X32448987Y-58153192D01*
X32446666Y-58192873D01*
X32439797Y-58227863D01*
X32429639Y-58255524D01*
X32415895Y-58278738D01*
X32400249Y-58295894D01*
X32381768Y-58308924D01*
X32361476Y-58317365D01*
X32338732Y-58321677D01*
X32326328Y-58322233D01*
X32326328Y-58552090D01*
X32363859Y-58549001D01*
X32399510Y-58541325D01*
X32432364Y-58529457D01*
X32463095Y-58513336D01*
X32517145Y-58469013D01*
X32561281Y-58408079D01*
X32594255Y-58329475D01*
X32613906Y-58231947D01*
X32618247Y-58151507D01*
X32615925Y-58092499D01*
X32609051Y-58038475D01*
X32598467Y-57991972D01*
X32584039Y-57950068D01*
X32566926Y-57914663D01*
X32546566Y-57883498D01*
X32524087Y-57857650D01*
X32498801Y-57835797D01*
X32441327Y-57804694D01*
X32373255Y-57789456D01*
X32342081Y-57788000D01*
X32303459Y-57790322D01*
X32269262Y-57797198D01*
X32241013Y-57807620D01*
X32216078Y-57821789D01*
X32175212Y-57860763D01*
X32142355Y-57917809D01*
X32139116Y-57925533D01*
X32107776Y-58024626D01*
X32094024Y-58076704D01*
X32068114Y-58172683D01*
X32043373Y-58247006D01*
X32030053Y-58272836D01*
X32014843Y-58291161D01*
X32000825Y-58300377D01*
X31984558Y-58304924D01*
X31975864Y-58305453D01*
X31958592Y-58303128D01*
X31944102Y-58296230D01*
X31923796Y-58270894D01*
X31911447Y-58223652D01*
X31908966Y-58178398D01*
X31911436Y-58133388D01*
X31919349Y-58097180D01*
X31929222Y-58075499D01*
X31942841Y-58057983D01*
X31978505Y-58035702D01*
X32018215Y-58025917D01*
X32018215Y-57811374D01*
G37*
G36*
X32594800Y-57502822D02*
G01*
X31764765Y-57502822D01*
X31764765Y-57725938D01*
X32594800Y-57725938D01*
X32594800Y-57502822D01*
G37*
G36*
X31667971Y-57502822D02*
G01*
X31459950Y-57502822D01*
X31459950Y-57725938D01*
X31667971Y-57725938D01*
X31667971Y-57502822D01*
G37*
G36*
X32618181Y-56609633D02*
G01*
X32664151Y-56613706D01*
X32707190Y-56622090D01*
X32747515Y-56634657D01*
X32784801Y-56651141D01*
X32819673Y-56671764D01*
X32851305Y-56695991D01*
X32880519Y-56724528D01*
X32906198Y-56756387D01*
X32929073Y-56792699D01*
X32948044Y-56832014D01*
X32963529Y-56875593D01*
X32974721Y-56921749D01*
X32981690Y-56971456D01*
X32984025Y-57023178D01*
X32983908Y-57034936D01*
X32973039Y-57133483D01*
X32946096Y-57219415D01*
X32905392Y-57291244D01*
X32852867Y-57348281D01*
X32789765Y-57390159D01*
X32754455Y-57405237D01*
X32716607Y-57416269D01*
X32676192Y-57423062D01*
X32633414Y-57425373D01*
X32633414Y-57217351D01*
X32671862Y-57213529D01*
X32697390Y-57205861D01*
X32720056Y-57194308D01*
X32740232Y-57178639D01*
X32757201Y-57159322D01*
X32771529Y-57135209D01*
X32782052Y-57107538D01*
X32788923Y-57074602D01*
X32791244Y-57038272D01*
X32791173Y-57031834D01*
X32780840Y-56963527D01*
X32755387Y-56907781D01*
X32718165Y-56866767D01*
X32671343Y-56841256D01*
X32644580Y-56834594D01*
X32615609Y-56832302D01*
X32491485Y-56832302D01*
X32528658Y-56856665D01*
X32548401Y-56878904D01*
X32565390Y-56905954D01*
X32579838Y-56938668D01*
X32590578Y-56975300D01*
X32599489Y-57056737D01*
X32599473Y-57060815D01*
X32596869Y-57108004D01*
X32589989Y-57151423D01*
X32578998Y-57191479D01*
X32564207Y-57227930D01*
X32545157Y-57262028D01*
X32522621Y-57292500D01*
X32495014Y-57321209D01*
X32464140Y-57346071D01*
X32426938Y-57369109D01*
X32386738Y-57387900D01*
X32339089Y-57404060D01*
X32289011Y-57415492D01*
X32231607Y-57422965D01*
X32172968Y-57425373D01*
X32146668Y-57424798D01*
X32095213Y-57420196D01*
X32046468Y-57411202D01*
X32000489Y-57398026D01*
X31957614Y-57380945D01*
X31918122Y-57360269D01*
X31882099Y-57336219D01*
X31821632Y-57279510D01*
X31777473Y-57213373D01*
X31750476Y-57140146D01*
X31741317Y-57061793D01*
X31746132Y-57009696D01*
X31937469Y-57009696D01*
X31937876Y-57024374D01*
X31949207Y-57081321D01*
X31975453Y-57125855D01*
X31995155Y-57144688D01*
X32019029Y-57160499D01*
X32050007Y-57174331D01*
X32086074Y-57184494D01*
X32132539Y-57191491D01*
X32185497Y-57193831D01*
X32210643Y-57193037D01*
X32285948Y-57179507D01*
X32345187Y-57151845D01*
X32388005Y-57113088D01*
X32414347Y-57065323D01*
X32421173Y-57038358D01*
X32423488Y-57009696D01*
X32423250Y-57000253D01*
X32419485Y-56971718D01*
X32411288Y-56944913D01*
X32398704Y-56919889D01*
X32381981Y-56897190D01*
X32360967Y-56876814D01*
X32336082Y-56859421D01*
X32307095Y-56845131D01*
X32274539Y-56834518D01*
X32238291Y-56827853D01*
X32198833Y-56825561D01*
X32154278Y-56826966D01*
X32070893Y-56840077D01*
X32012451Y-56864278D01*
X31972257Y-56898571D01*
X31957576Y-56920454D01*
X31946926Y-56945213D01*
X31939823Y-56975715D01*
X31937469Y-57009696D01*
X31746132Y-57009696D01*
X31747412Y-56995840D01*
X31769130Y-56930786D01*
X31785839Y-56902349D01*
X31806391Y-56876695D01*
X31831792Y-56852985D01*
X31861265Y-56832302D01*
X31764765Y-56832302D01*
X31764765Y-56609260D01*
X32598830Y-56609260D01*
X32618181Y-56609633D01*
G37*
G36*
X32594800Y-55764790D02*
G01*
X32019241Y-55764790D01*
X31976638Y-55767094D01*
X31937429Y-55773839D01*
X31902307Y-55784532D01*
X31870533Y-55799027D01*
X31842322Y-55816960D01*
X31817495Y-55838185D01*
X31777779Y-55890246D01*
X31751876Y-55954908D01*
X31741425Y-56031847D01*
X31741317Y-56040956D01*
X31743629Y-56088251D01*
X31750434Y-56131226D01*
X31760995Y-56168467D01*
X31775332Y-56201926D01*
X31792870Y-56231124D01*
X31813702Y-56256870D01*
X31865244Y-56298756D01*
X31877238Y-56305690D01*
X31764765Y-56305690D01*
X31764765Y-56518695D01*
X32594800Y-56518695D01*
X32594800Y-56295652D01*
X32119625Y-56295652D01*
X32077336Y-56293299D01*
X32040462Y-56286208D01*
X32012495Y-56276013D01*
X31988713Y-56262080D01*
X31970485Y-56245885D01*
X31955813Y-56226454D01*
X31937188Y-56178048D01*
X31932413Y-56128297D01*
X31934963Y-56085877D01*
X31943432Y-56052125D01*
X31953518Y-56033328D01*
X31967515Y-56018207D01*
X32005402Y-55999072D01*
X32068743Y-55990002D01*
X32092807Y-55989518D01*
X32594800Y-55989518D01*
X32594800Y-55764790D01*
G37*
G36*
X32238400Y-55469867D02*
G01*
X32308299Y-55458026D01*
X32364775Y-55431929D01*
X32405820Y-55394241D01*
X32420612Y-55371454D01*
X32431474Y-55346117D01*
X32438252Y-55318000D01*
X32440560Y-55287564D01*
X32436490Y-55247052D01*
X32417408Y-55196487D01*
X32386962Y-55161031D01*
X32348163Y-55141531D01*
X32348163Y-54911454D01*
X32412146Y-54935919D01*
X32449504Y-54956309D01*
X32483332Y-54980001D01*
X32513618Y-55006883D01*
X32540212Y-55036738D01*
X32563289Y-55069794D01*
X32582436Y-55105538D01*
X32597830Y-55144552D01*
X32608982Y-55185985D01*
X32615916Y-55230654D01*
X32618247Y-55277452D01*
X32615674Y-55337355D01*
X32598960Y-55430476D01*
X32568282Y-55506724D01*
X32524064Y-55569149D01*
X32496318Y-55595995D01*
X32465010Y-55619574D01*
X32428549Y-55640695D01*
X32388222Y-55658253D01*
X32341062Y-55673025D01*
X32289535Y-55683756D01*
X32229227Y-55690785D01*
X32163882Y-55693129D01*
X32118322Y-55691517D01*
X32021739Y-55675826D01*
X31939685Y-55645124D01*
X31871619Y-55600900D01*
X31817135Y-55543787D01*
X31794949Y-55510259D01*
X31776413Y-55473596D01*
X31761433Y-55433150D01*
X31750501Y-55389602D01*
X31743638Y-55341821D01*
X31741621Y-55297602D01*
X31919077Y-55297602D01*
X31922485Y-55330949D01*
X31942251Y-55380363D01*
X31958400Y-55401876D01*
X31978511Y-55420778D01*
X32002488Y-55436745D01*
X32030123Y-55449364D01*
X32061363Y-55458296D01*
X32095958Y-55463126D01*
X32095958Y-55130394D01*
X32052883Y-55135304D01*
X32023258Y-55143905D01*
X31997384Y-55156200D01*
X31974418Y-55172444D01*
X31955464Y-55191718D01*
X31939774Y-55214818D01*
X31928502Y-55240163D01*
X31921428Y-55268312D01*
X31919077Y-55297602D01*
X31741621Y-55297602D01*
X31741317Y-55290935D01*
X31744044Y-55236360D01*
X31761336Y-55152221D01*
X31793458Y-55081599D01*
X31815176Y-55050515D01*
X31840661Y-55022284D01*
X31870795Y-54996253D01*
X31904908Y-54973290D01*
X31945057Y-54952485D01*
X31989598Y-54935128D01*
X32041868Y-54920466D01*
X32099114Y-54909784D01*
X32165909Y-54902801D01*
X32238400Y-54900464D01*
X32238400Y-55469867D01*
G37*
G36*
X32594800Y-54257568D02*
G01*
X32501303Y-54259180D01*
X32542044Y-54290449D01*
X32564399Y-54314886D01*
X32582890Y-54342087D01*
X32597962Y-54373077D01*
X32608878Y-54406840D01*
X32615903Y-54445541D01*
X32618247Y-54487131D01*
X32617625Y-54509136D01*
X32604064Y-54588492D01*
X32573533Y-54659412D01*
X32552017Y-54691591D01*
X32526491Y-54721242D01*
X32496640Y-54748527D01*
X32462866Y-54772868D01*
X32424555Y-54794441D01*
X32382380Y-54812596D01*
X32335537Y-54827386D01*
X32284894Y-54838237D01*
X32229611Y-54845030D01*
X32170623Y-54847341D01*
X32147922Y-54846989D01*
X32041317Y-54834935D01*
X31950654Y-54807667D01*
X31876517Y-54767713D01*
X31818639Y-54716985D01*
X31776587Y-54656461D01*
X31761484Y-54622558D01*
X31750452Y-54586189D01*
X31743632Y-54547077D01*
X31741317Y-54505596D01*
X31746698Y-54444719D01*
X31749780Y-54435034D01*
X31932486Y-54435034D01*
X31932923Y-54450468D01*
X31944359Y-54507890D01*
X31970677Y-54552534D01*
X31990530Y-54571442D01*
X32014530Y-54587239D01*
X32046065Y-54601186D01*
X32082728Y-54611382D01*
X32130874Y-54618498D01*
X32185717Y-54620854D01*
X32218028Y-54619589D01*
X32294793Y-54604746D01*
X32355216Y-54576163D01*
X32398492Y-54537323D01*
X32424812Y-54490540D01*
X32431585Y-54464463D01*
X32433892Y-54436720D01*
X32433614Y-54427150D01*
X32429598Y-54399735D01*
X32421008Y-54373878D01*
X32407601Y-54349085D01*
X32389862Y-54326527D01*
X32367381Y-54305957D01*
X32340912Y-54288376D01*
X32310325Y-54273932D01*
X32276266Y-54263213D01*
X32239146Y-54256560D01*
X32199199Y-54254270D01*
X32152648Y-54255779D01*
X32067866Y-54269194D01*
X32008229Y-54293663D01*
X31967378Y-54327861D01*
X31952610Y-54349309D01*
X31941892Y-54373467D01*
X31934834Y-54402673D01*
X31932486Y-54435034D01*
X31749780Y-54435034D01*
X31768564Y-54376011D01*
X31785957Y-54344625D01*
X31807538Y-54315575D01*
X31834415Y-54287837D01*
X31865735Y-54262697D01*
X31459950Y-54262697D01*
X31459950Y-54042951D01*
X32594800Y-54042951D01*
X32594800Y-54257568D01*
G37*
G36*
X32207375Y-52744453D02*
G01*
X32314702Y-52758411D01*
X32405681Y-52787622D01*
X32480461Y-52829913D01*
X32539316Y-52883595D01*
X32562824Y-52914358D01*
X32582315Y-52947550D01*
X32597790Y-52983268D01*
X32609000Y-53021109D01*
X32615919Y-53061508D01*
X32618247Y-53103740D01*
X32611984Y-53170171D01*
X32590197Y-53234859D01*
X32553282Y-53288393D01*
X32528534Y-53311513D01*
X32499765Y-53331692D01*
X32594800Y-53333304D01*
X32594800Y-53547920D01*
X31459950Y-53547920D01*
X31459950Y-53328248D01*
X31865735Y-53328248D01*
X31819667Y-53288755D01*
X31777014Y-53231384D01*
X31761709Y-53198992D01*
X31750631Y-53164321D01*
X31749087Y-53155837D01*
X31932486Y-53155837D01*
X31933035Y-53171857D01*
X31945114Y-53225895D01*
X31957022Y-53248792D01*
X31972871Y-53269060D01*
X31993986Y-53287660D01*
X32019563Y-53303288D01*
X32053085Y-53317102D01*
X32092116Y-53327249D01*
X32142585Y-53334260D01*
X32200079Y-53336601D01*
X32222246Y-53335915D01*
X32260837Y-53331210D01*
X32296413Y-53322321D01*
X32356302Y-53293938D01*
X32399889Y-53254515D01*
X32426438Y-53207246D01*
X32433199Y-53181399D01*
X32435504Y-53154152D01*
X32434994Y-53140993D01*
X32430472Y-53113681D01*
X32421464Y-53088162D01*
X32407622Y-53063769D01*
X32389460Y-53041720D01*
X32366145Y-53021408D01*
X32338696Y-53004125D01*
X32306292Y-52989697D01*
X32270119Y-52979028D01*
X32229919Y-52972316D01*
X32186523Y-52970017D01*
X32144619Y-52971343D01*
X32063651Y-52984282D01*
X32006534Y-53008444D01*
X31966958Y-53042979D01*
X31952441Y-53065116D01*
X31941869Y-53090275D01*
X31934831Y-53121217D01*
X31932486Y-53155837D01*
X31749087Y-53155837D01*
X31743654Y-53125995D01*
X31741317Y-53085275D01*
X31741326Y-53082676D01*
X31743878Y-53041695D01*
X31750848Y-53003048D01*
X31762158Y-52966546D01*
X31777590Y-52932549D01*
X31797490Y-52900384D01*
X31821334Y-52870996D01*
X31850052Y-52843505D01*
X31882592Y-52819168D01*
X31920374Y-52797234D01*
X31961833Y-52778916D01*
X32008536Y-52763817D01*
X32058664Y-52752830D01*
X32113496Y-52745929D01*
X32171356Y-52743604D01*
X32207375Y-52744453D01*
G37*
G36*
X32618393Y-52142840D02*
G01*
X32650563Y-52145111D01*
X32679906Y-52151628D01*
X32706707Y-52162179D01*
X32730186Y-52176210D01*
X32766997Y-52213713D01*
X32779503Y-52236201D01*
X32787614Y-52260364D01*
X32791244Y-52291657D01*
X32788929Y-52328753D01*
X32782102Y-52361223D01*
X32771916Y-52387170D01*
X32758158Y-52409180D01*
X32741765Y-52426580D01*
X32722350Y-52440394D01*
X32674104Y-52457466D01*
X32635906Y-52460697D01*
X32635906Y-52668646D01*
X32685362Y-52666303D01*
X32731630Y-52659286D01*
X32772286Y-52648368D01*
X32809811Y-52633299D01*
X32842591Y-52615047D01*
X32872271Y-52593033D01*
X32898083Y-52567986D01*
X32920730Y-52539390D01*
X32956037Y-52471731D01*
X32977701Y-52388229D01*
X32984025Y-52301769D01*
X32981699Y-52254462D01*
X32974794Y-52208948D01*
X32963582Y-52166056D01*
X32948116Y-52125547D01*
X32928946Y-52088486D01*
X32905897Y-52054308D01*
X32879785Y-52024043D01*
X32850174Y-51997075D01*
X32817970Y-51974183D01*
X32782604Y-51954952D01*
X32744834Y-51939860D01*
X32704174Y-51928797D01*
X32661051Y-51922039D01*
X32615244Y-51919724D01*
X32615096Y-51919724D01*
X31764765Y-51919724D01*
X31764765Y-52142840D01*
X32270933Y-52142840D01*
X32298467Y-52145139D01*
X32324044Y-52151852D01*
X32368242Y-52177526D01*
X32401114Y-52218005D01*
X32412458Y-52243261D01*
X32419870Y-52271378D01*
X32423121Y-52308510D01*
X32420775Y-52340474D01*
X32413734Y-52368204D01*
X32403464Y-52389400D01*
X32389436Y-52407213D01*
X32351804Y-52431988D01*
X32297133Y-52444492D01*
X32270933Y-52445603D01*
X31764765Y-52445603D01*
X31764765Y-52668646D01*
X32302880Y-52668646D01*
X32344026Y-52666341D01*
X32382739Y-52659591D01*
X32418871Y-52648634D01*
X32452263Y-52633714D01*
X32510491Y-52592703D01*
X32556164Y-52538015D01*
X32587631Y-52471143D01*
X32602975Y-52393895D01*
X32604178Y-52363904D01*
X32595264Y-52285165D01*
X32584388Y-52248770D01*
X32569725Y-52216017D01*
X32552489Y-52188844D01*
X32532449Y-52166482D01*
X32496174Y-52142840D01*
X32618393Y-52142840D01*
G37*
G36*
X32594800Y-50339741D02*
G01*
X31474018Y-50339741D01*
X31474018Y-50679874D01*
X32285148Y-50879689D01*
X31474018Y-51079431D01*
X31474018Y-51426304D01*
X32594800Y-51426304D01*
X32594800Y-51204874D01*
X31831077Y-51207219D01*
X32594800Y-51002348D01*
X32594800Y-50766995D01*
X31827706Y-50560439D01*
X32594800Y-50562784D01*
X32594800Y-50339741D01*
G37*
G36*
X32594800Y-50026646D02*
G01*
X31764765Y-50026646D01*
X31764765Y-50249762D01*
X32594800Y-50249762D01*
X32594800Y-50026646D01*
G37*
G36*
X31667971Y-50026646D02*
G01*
X31459950Y-50026646D01*
X31459950Y-50249762D01*
X31667971Y-50249762D01*
X31667971Y-50026646D01*
G37*
G36*
X32264705Y-49463691D02*
G01*
X32305144Y-49466057D01*
X32340033Y-49473243D01*
X32365326Y-49483321D01*
X32386263Y-49497107D01*
X32401272Y-49512754D01*
X32412546Y-49531530D01*
X32423456Y-49578005D01*
X32423781Y-49588988D01*
X32421457Y-49617276D01*
X32414574Y-49641587D01*
X32404336Y-49660547D01*
X32390454Y-49676382D01*
X32351798Y-49699256D01*
X32293343Y-49711391D01*
X32261335Y-49712672D01*
X31924060Y-49712672D01*
X31924060Y-49255669D01*
X31764765Y-49255669D01*
X31764765Y-49712672D01*
X31539670Y-49712672D01*
X31539670Y-49932344D01*
X32283170Y-49932344D01*
X32330741Y-49929964D01*
X32376634Y-49922677D01*
X32417066Y-49911389D01*
X32455108Y-49895553D01*
X32487729Y-49876732D01*
X32517555Y-49853749D01*
X32542711Y-49828237D01*
X32564778Y-49798819D01*
X32582866Y-49766611D01*
X32597524Y-49730560D01*
X32608406Y-49690914D01*
X32615386Y-49647292D01*
X32618247Y-49592358D01*
X32615951Y-49544770D01*
X32609259Y-49501062D01*
X32598612Y-49461614D01*
X32584241Y-49425831D01*
X32566355Y-49393537D01*
X32545288Y-49364811D01*
X32493396Y-49316828D01*
X32428816Y-49281796D01*
X32351914Y-49260876D01*
X32284855Y-49255669D01*
X32047158Y-49255669D01*
X32047158Y-49463691D01*
X32264705Y-49463691D01*
G37*
G36*
X32292696Y-48647138D02*
G01*
X32321633Y-48652173D01*
X32347275Y-48661279D01*
X32369341Y-48673963D01*
X32388089Y-48689983D01*
X32415837Y-48731636D01*
X32429481Y-48785730D01*
X32430448Y-48806287D01*
X32428098Y-48830104D01*
X32421021Y-48853034D01*
X32409434Y-48874371D01*
X32393218Y-48894217D01*
X32346208Y-48928473D01*
X32277833Y-48953265D01*
X32234608Y-48961014D01*
X32185865Y-48964858D01*
X32164615Y-48965216D01*
X32113140Y-48962932D01*
X32068942Y-48956327D01*
X32033618Y-48946492D01*
X32004029Y-48933460D01*
X31980735Y-48918256D01*
X31962086Y-48900669D01*
X31937449Y-48859264D01*
X31927666Y-48807862D01*
X31927504Y-48799546D01*
X31929825Y-48769811D01*
X31936693Y-48742380D01*
X31947509Y-48718395D01*
X31962304Y-48697178D01*
X31980454Y-48679437D01*
X32002152Y-48664906D01*
X32027219Y-48653888D01*
X32055583Y-48646629D01*
X32063571Y-48645380D01*
X32063571Y-48420725D01*
X32020167Y-48426047D01*
X31979409Y-48435728D01*
X31941896Y-48449398D01*
X31907204Y-48466993D01*
X31875604Y-48488239D01*
X31847034Y-48513056D01*
X31799250Y-48573112D01*
X31764762Y-48646826D01*
X31745137Y-48733949D01*
X31741317Y-48797861D01*
X31743679Y-48850447D01*
X31750830Y-48900062D01*
X31761869Y-48943354D01*
X31777221Y-48983706D01*
X31795695Y-49018866D01*
X31818134Y-49051111D01*
X31843540Y-49079260D01*
X31872741Y-49104439D01*
X31905385Y-49126274D01*
X31941850Y-49144953D01*
X32027614Y-49172579D01*
X32133069Y-49185842D01*
X32169304Y-49186646D01*
X32230399Y-49184332D01*
X32287057Y-49177511D01*
X32337732Y-49166772D01*
X32384226Y-49152137D01*
X32425434Y-49134322D01*
X32462672Y-49113131D01*
X32495363Y-49089192D01*
X32524216Y-49062292D01*
X32570240Y-49000449D01*
X32601269Y-48927547D01*
X32616741Y-48843024D01*
X32618247Y-48804602D01*
X32615933Y-48758795D01*
X32609112Y-48714791D01*
X32597916Y-48672684D01*
X32582548Y-48632904D01*
X32563207Y-48595729D01*
X32540070Y-48561386D01*
X32513483Y-48530298D01*
X32483506Y-48502511D01*
X32450653Y-48478490D01*
X32414830Y-48458195D01*
X32376656Y-48442027D01*
X32335920Y-48429976D01*
X32292696Y-48422264D01*
X32292696Y-48647138D01*
G37*
G36*
X32594800Y-47609815D02*
G01*
X32007518Y-47609815D01*
X31968522Y-47612123D01*
X31932214Y-47618906D01*
X31899143Y-47629768D01*
X31868904Y-47644567D01*
X31817397Y-47685091D01*
X31778016Y-47739693D01*
X31751987Y-47808081D01*
X31741426Y-47889725D01*
X31741317Y-47899389D01*
X31750065Y-47975877D01*
X31775849Y-48048325D01*
X31794026Y-48079543D01*
X31814818Y-48105896D01*
X31836144Y-48125452D01*
X31858737Y-48139339D01*
X31861705Y-48140676D01*
X31459950Y-48140676D01*
X31459950Y-48363719D01*
X32594800Y-48363719D01*
X32594800Y-48140676D01*
X32118453Y-48140676D01*
X32081470Y-48138348D01*
X32046763Y-48131429D01*
X32016187Y-48120573D01*
X31988817Y-48105672D01*
X31966613Y-48088165D01*
X31948128Y-48067272D01*
X31934552Y-48044632D01*
X31925016Y-48019127D01*
X31919077Y-47973321D01*
X31921569Y-47934261D01*
X31929632Y-47902135D01*
X31939813Y-47882478D01*
X31953961Y-47866384D01*
X31991999Y-47845504D01*
X32053084Y-47835254D01*
X32079765Y-47834542D01*
X32594800Y-47834542D01*
X32594800Y-47609815D01*
G37*
G36*
X34610800Y-60040774D02*
G01*
X34447389Y-60023164D01*
X34366024Y-60007313D01*
X34285243Y-59986788D01*
X34205263Y-59961614D01*
X34126233Y-59931794D01*
X34048552Y-59897446D01*
X33972179Y-59858504D01*
X33897657Y-59815204D01*
X33824790Y-59767380D01*
X33754213Y-59715399D01*
X33685622Y-59658978D01*
X33661257Y-59637407D01*
X33490018Y-59637407D01*
X33490018Y-60423332D01*
X33687928Y-60423332D01*
X33687928Y-59881772D01*
X33822810Y-59986826D01*
X33969223Y-60077540D01*
X34125328Y-60152576D01*
X34288722Y-60210626D01*
X34456467Y-60250578D01*
X34610800Y-60270631D01*
X34610800Y-60040774D01*
G37*
G36*
X34610800Y-59581060D02*
G01*
X34379331Y-59581060D01*
X34379331Y-59819270D01*
X34610800Y-59819270D01*
X34610800Y-59581060D01*
G37*
G36*
X34610800Y-59292951D02*
G01*
X33490018Y-59292951D01*
X33490018Y-59475474D01*
X33533382Y-59482513D01*
X33571097Y-59494483D01*
X33597008Y-59508010D01*
X33619433Y-59525550D01*
X33636941Y-59545490D01*
X33651564Y-59569450D01*
X33672536Y-59632073D01*
X33682045Y-59724280D01*
X33682286Y-59744532D01*
X33838211Y-59744532D01*
X33838211Y-59516067D01*
X34610800Y-59516067D01*
X34610800Y-59292951D01*
G37*
G36*
X34292816Y-58451609D02*
G01*
X34382436Y-58462120D01*
X34459024Y-58488125D01*
X34522996Y-58528248D01*
X34574722Y-58582215D01*
X34595992Y-58614701D01*
X34613901Y-58650825D01*
X34628488Y-58691335D01*
X34639214Y-58735633D01*
X34646005Y-58785065D01*
X34648315Y-58838513D01*
X34639698Y-58937270D01*
X34629197Y-58981595D01*
X34614884Y-59022314D01*
X34596907Y-59059574D01*
X34575561Y-59093170D01*
X34550644Y-59123566D01*
X34522742Y-59150146D01*
X34491216Y-59173477D01*
X34457077Y-59192746D01*
X34419353Y-59208371D01*
X34379436Y-59219629D01*
X34336332Y-59226642D01*
X34291550Y-59228984D01*
X34240881Y-59225792D01*
X34166168Y-59207222D01*
X34102481Y-59173092D01*
X34074531Y-59150163D01*
X34049432Y-59123422D01*
X34026869Y-59092226D01*
X34007544Y-59057159D01*
X33976709Y-59100998D01*
X33951505Y-59123712D01*
X33923012Y-59142272D01*
X33887234Y-59158715D01*
X33849179Y-59170298D01*
X33805724Y-59177840D01*
X33762300Y-59180258D01*
X33721242Y-59177585D01*
X33684005Y-59170261D01*
X33648736Y-59158521D01*
X33615082Y-59142286D01*
X33583926Y-59121982D01*
X33555127Y-59097504D01*
X33529379Y-59069373D01*
X33506799Y-59037658D01*
X33487797Y-59002787D01*
X33472656Y-58965138D01*
X33461564Y-58924889D01*
X33454807Y-58882714D01*
X33452590Y-58840198D01*
X33635318Y-58840198D01*
X33635819Y-58854175D01*
X33647832Y-58903220D01*
X33659678Y-58923190D01*
X33675089Y-58939838D01*
X33695488Y-58954107D01*
X33719494Y-58964520D01*
X33749973Y-58971574D01*
X33784135Y-58973921D01*
X33808316Y-58972702D01*
X33860568Y-58959266D01*
X33898224Y-58933090D01*
X33912056Y-58915280D01*
X33922365Y-58894234D01*
X33929046Y-58868968D01*
X33931340Y-58840198D01*
X34109027Y-58840198D01*
X34111462Y-58874280D01*
X34127536Y-58924272D01*
X34141215Y-58944461D01*
X34158335Y-58961133D01*
X34181028Y-58975600D01*
X34207438Y-58986063D01*
X34242315Y-58993373D01*
X34281438Y-58995757D01*
X34340075Y-58991112D01*
X34393560Y-58974022D01*
X34430715Y-58945531D01*
X34444510Y-58926061D01*
X34454702Y-58903064D01*
X34461567Y-58873883D01*
X34463887Y-58840198D01*
X34460595Y-58800402D01*
X34443401Y-58751587D01*
X34429173Y-58731841D01*
X34411419Y-58715491D01*
X34387822Y-58701252D01*
X34360209Y-58690918D01*
X34323305Y-58683648D01*
X34281438Y-58681270D01*
X34230947Y-58685885D01*
X34179400Y-58704150D01*
X34142143Y-58734763D01*
X34128322Y-58755117D01*
X34118038Y-58778920D01*
X34111326Y-58807596D01*
X34109027Y-58840198D01*
X33931340Y-58840198D01*
X33930896Y-58827187D01*
X33918935Y-58777903D01*
X33906986Y-58757679D01*
X33891472Y-58740827D01*
X33871022Y-58726392D01*
X33847108Y-58715876D01*
X33817252Y-58708823D01*
X33784135Y-58706475D01*
X33759160Y-58707694D01*
X33706250Y-58720956D01*
X33668531Y-58746799D01*
X33654659Y-58764539D01*
X33644356Y-58785525D01*
X33637620Y-58811062D01*
X33635318Y-58840198D01*
X33452590Y-58840198D01*
X33452502Y-58838513D01*
X33454505Y-58792653D01*
X33460758Y-58748059D01*
X33471027Y-58707089D01*
X33484996Y-58669936D01*
X33502467Y-58636421D01*
X33523398Y-58606326D01*
X33547409Y-58579982D01*
X33574905Y-58556942D01*
X33605110Y-58537882D01*
X33638863Y-58522407D01*
X33674941Y-58511233D01*
X33714357Y-58504237D01*
X33755632Y-58501898D01*
X33774493Y-58502281D01*
X33854470Y-58513369D01*
X33918091Y-58537181D01*
X33965244Y-58571145D01*
X33997359Y-58614738D01*
X34015205Y-58582482D01*
X34036872Y-58554472D01*
X34062671Y-58529237D01*
X34093068Y-58506426D01*
X34126808Y-58487156D01*
X34201921Y-58460503D01*
X34281438Y-58451486D01*
X34292816Y-58451609D01*
G37*
G36*
X34610800Y-58180083D02*
G01*
X34379331Y-58180083D01*
X34379331Y-58418293D01*
X34610800Y-58418293D01*
X34610800Y-58180083D01*
G37*
G36*
X34610800Y-57371957D02*
G01*
X34416333Y-57371957D01*
X34416333Y-57852260D01*
X34374246Y-57839559D01*
X34316784Y-57802183D01*
X34249067Y-57735385D01*
X34220328Y-57698827D01*
X34144176Y-57596504D01*
X34075394Y-57515796D01*
X34032458Y-57473654D01*
X33990233Y-57439688D01*
X33954009Y-57416806D01*
X33916971Y-57399243D01*
X33842157Y-57379470D01*
X33780984Y-57375327D01*
X33735461Y-57377642D01*
X33693397Y-57384467D01*
X33655859Y-57395235D01*
X33621550Y-57409918D01*
X33590796Y-57428119D01*
X33563168Y-57449827D01*
X33516716Y-57503903D01*
X33481880Y-57573157D01*
X33459736Y-57659236D01*
X33452502Y-57755687D01*
X33454828Y-57804555D01*
X33461731Y-57850310D01*
X33472642Y-57891471D01*
X33487619Y-57929543D01*
X33506037Y-57963602D01*
X33528129Y-57994559D01*
X33582331Y-58046377D01*
X33650419Y-58085328D01*
X33733363Y-58110719D01*
X33832384Y-58120804D01*
X33842241Y-58120879D01*
X33842241Y-57906189D01*
X33795325Y-57903881D01*
X33755719Y-57897105D01*
X33725879Y-57887346D01*
X33701257Y-57874295D01*
X33682551Y-57859158D01*
X33667871Y-57841387D01*
X33649196Y-57797477D01*
X33643671Y-57745575D01*
X33646185Y-57707594D01*
X33654401Y-57673286D01*
X33665241Y-57650068D01*
X33680520Y-57630160D01*
X33697833Y-57615881D01*
X33719181Y-57604824D01*
X33773772Y-57593757D01*
X33787726Y-57593387D01*
X33822464Y-57595879D01*
X33854692Y-57603937D01*
X33907236Y-57632884D01*
X33965576Y-57688436D01*
X34051654Y-57799064D01*
X34108149Y-57873671D01*
X34162010Y-57936643D01*
X34208902Y-57984292D01*
X34254629Y-58023926D01*
X34296981Y-58054506D01*
X34339100Y-58079195D01*
X34423334Y-58112964D01*
X34516632Y-58131024D01*
X34610800Y-58136046D01*
X34610800Y-57371957D01*
G37*
G36*
X34204049Y-56571320D02*
G01*
X34331494Y-56594314D01*
X34432175Y-56628888D01*
X34510379Y-56673193D01*
X34569626Y-56726511D01*
X34593015Y-56756803D01*
X34612233Y-56789382D01*
X34627724Y-56825299D01*
X34638867Y-56863508D01*
X34645962Y-56906244D01*
X34648315Y-56951371D01*
X34642430Y-57022736D01*
X34620779Y-57096556D01*
X34583377Y-57160239D01*
X34558103Y-57189028D01*
X34528509Y-57215357D01*
X34493003Y-57240119D01*
X34452654Y-57262100D01*
X34404562Y-57282281D01*
X34350859Y-57299213D01*
X34287282Y-57313619D01*
X34217104Y-57324168D01*
X34134723Y-57331087D01*
X34044547Y-57333415D01*
X33895181Y-57326548D01*
X33765954Y-57305512D01*
X33665640Y-57273089D01*
X33588619Y-57231016D01*
X33530519Y-57179684D01*
X33507469Y-57150022D01*
X33488577Y-57117957D01*
X33473139Y-57081827D01*
X33462059Y-57043172D01*
X33454869Y-56998673D01*
X33452502Y-56951371D01*
X33453056Y-56944630D01*
X33631947Y-56944630D01*
X33633198Y-56963257D01*
X33647621Y-57004276D01*
X33662063Y-57022884D01*
X33681589Y-57039536D01*
X33709990Y-57055939D01*
X33745551Y-57069851D01*
X33796290Y-57082866D01*
X33857771Y-57092512D01*
X33944540Y-57099531D01*
X34047917Y-57101873D01*
X34184811Y-57097612D01*
X34306457Y-57081949D01*
X34383213Y-57058529D01*
X34430369Y-57029313D01*
X34446188Y-57012173D01*
X34457431Y-56993229D01*
X34464857Y-56970041D01*
X34467258Y-56944630D01*
X34466202Y-56927731D01*
X34452191Y-56886808D01*
X34437898Y-56868196D01*
X34418522Y-56851561D01*
X34390188Y-56835124D01*
X34354712Y-56821203D01*
X34303888Y-56808140D01*
X34242357Y-56798476D01*
X34155117Y-56791419D01*
X34051288Y-56789071D01*
X33915052Y-56793211D01*
X33792788Y-56808672D01*
X33715875Y-56831854D01*
X33668738Y-56860789D01*
X33652963Y-56877747D01*
X33641740Y-56896521D01*
X33634344Y-56919454D01*
X33631947Y-56944630D01*
X33453056Y-56944630D01*
X33458657Y-56876424D01*
X33480450Y-56801196D01*
X33517674Y-56736565D01*
X33542616Y-56707513D01*
X33571818Y-56680908D01*
X33606594Y-56656040D01*
X33646118Y-56633935D01*
X33692925Y-56613746D01*
X33745208Y-56596783D01*
X33806775Y-56582413D01*
X33874765Y-56571872D01*
X33954221Y-56564982D01*
X34041250Y-56562658D01*
X34204049Y-56571320D01*
G37*
G36*
X34610800Y-55768161D02*
G01*
X34416333Y-55768161D01*
X34416333Y-56248464D01*
X34374246Y-56235763D01*
X34316784Y-56198387D01*
X34249067Y-56131588D01*
X34220328Y-56095031D01*
X34144176Y-55992708D01*
X34075394Y-55912000D01*
X34032458Y-55869858D01*
X33990233Y-55835892D01*
X33954009Y-55813010D01*
X33916971Y-55795446D01*
X33842157Y-55775674D01*
X33780984Y-55771531D01*
X33735461Y-55773846D01*
X33693397Y-55780671D01*
X33655859Y-55791438D01*
X33621550Y-55806122D01*
X33590796Y-55824323D01*
X33563168Y-55846031D01*
X33516716Y-55900107D01*
X33481880Y-55969361D01*
X33459736Y-56055440D01*
X33452502Y-56151891D01*
X33454828Y-56200759D01*
X33461731Y-56246514D01*
X33472642Y-56287674D01*
X33487619Y-56325747D01*
X33506037Y-56359806D01*
X33528129Y-56390763D01*
X33582331Y-56442580D01*
X33650419Y-56481532D01*
X33733363Y-56506923D01*
X33832384Y-56517008D01*
X33842241Y-56517083D01*
X33842241Y-56302393D01*
X33795325Y-56300085D01*
X33755719Y-56293309D01*
X33725879Y-56283550D01*
X33701257Y-56270499D01*
X33682551Y-56255362D01*
X33667871Y-56237591D01*
X33649196Y-56193681D01*
X33643671Y-56141779D01*
X33646185Y-56103797D01*
X33654401Y-56069490D01*
X33665241Y-56046272D01*
X33680520Y-56026363D01*
X33697833Y-56012085D01*
X33719181Y-56001028D01*
X33773772Y-55989961D01*
X33787726Y-55989591D01*
X33822464Y-55992082D01*
X33854692Y-56000141D01*
X33907236Y-56029088D01*
X33965576Y-56084639D01*
X34051654Y-56195268D01*
X34108149Y-56269874D01*
X34162010Y-56332847D01*
X34208902Y-56380496D01*
X34254629Y-56420130D01*
X34296981Y-56450710D01*
X34339100Y-56475398D01*
X34423334Y-56509168D01*
X34516632Y-56527228D01*
X34610800Y-56532250D01*
X34610800Y-55768161D01*
G37*
G36*
X34171822Y-55482177D02*
G01*
X34142363Y-55465163D01*
X34118212Y-55444976D01*
X34101833Y-55424828D01*
X34089439Y-55401685D01*
X34076946Y-55347164D01*
X34076201Y-55327424D01*
X34078521Y-55296453D01*
X34085385Y-55269100D01*
X34095802Y-55246747D01*
X34109954Y-55227529D01*
X34148589Y-55198620D01*
X34203863Y-55181217D01*
X34258357Y-55176922D01*
X34305803Y-55179338D01*
X34348152Y-55186875D01*
X34379086Y-55197346D01*
X34405808Y-55211900D01*
X34425483Y-55228176D01*
X34441483Y-55247932D01*
X34453039Y-55269957D01*
X34460945Y-55295381D01*
X34465573Y-55340833D01*
X34463253Y-55370638D01*
X34456397Y-55397613D01*
X34445748Y-55420584D01*
X34431230Y-55440664D01*
X34391725Y-55471242D01*
X34337081Y-55489103D01*
X34317781Y-55491629D01*
X34317781Y-55714525D01*
X34358389Y-55710445D01*
X34397037Y-55701985D01*
X34468692Y-55672363D01*
X34531290Y-55626712D01*
X34582839Y-55566215D01*
X34620951Y-55492591D01*
X34634214Y-55451564D01*
X34643223Y-55408293D01*
X34648315Y-55340833D01*
X34645997Y-55294017D01*
X34639150Y-55249402D01*
X34628039Y-55207502D01*
X34612785Y-55168137D01*
X34593688Y-55131729D01*
X34570811Y-55098182D01*
X34544422Y-55067790D01*
X34514586Y-55040590D01*
X34481464Y-55016763D01*
X34445199Y-54996480D01*
X34405797Y-54979865D01*
X34363536Y-54967177D01*
X34318275Y-54958553D01*
X34270429Y-54954269D01*
X34248099Y-54953806D01*
X34199938Y-54956109D01*
X34154981Y-54962851D01*
X34113622Y-54973681D01*
X34075580Y-54988391D01*
X34041030Y-55006677D01*
X34009941Y-55028334D01*
X33958280Y-55081031D01*
X33921217Y-55145164D01*
X33899891Y-55219446D01*
X33895144Y-55278698D01*
X33897727Y-55331396D01*
X33906435Y-55382330D01*
X33918025Y-55418909D01*
X33934607Y-55452925D01*
X33970395Y-55497857D01*
X33679575Y-55488112D01*
X33679575Y-54995792D01*
X33490018Y-54995792D01*
X33490018Y-55687561D01*
X34171675Y-55711228D01*
X34171822Y-55482177D01*
G37*
%TO.C,SW2*%
D12*
X119530363Y-62592540D02*
G75*
G02*
X115517863Y-62592540I-2006250J0D01*
G01*
X115517863Y-62592540D02*
G75*
G02*
X119530363Y-62592540I2006250J0D01*
G01*
%TO.C,SW1*%
X134706707Y-55034400D02*
G75*
G02*
X130694207Y-55034400I-2006250J0D01*
G01*
X130694207Y-55034400D02*
G75*
G02*
X134706707Y-55034400I2006250J0D01*
G01*
%TO.C,SW11*%
D13*
X70875457Y-92794400D02*
G75*
G02*
X67725457Y-92794400I-1575000J0D01*
G01*
X67725457Y-92794400D02*
G75*
G02*
X70875457Y-92794400I1575000J0D01*
G01*
%TO.C,SW3*%
D12*
X149219667Y-51544002D02*
G75*
G02*
X145207167Y-51544002I-2006250J0D01*
G01*
X145207167Y-51544002D02*
G75*
G02*
X149219667Y-51544002I2006250J0D01*
G01*
%TO.C,SW13*%
D13*
X78725457Y-84944400D02*
G75*
G02*
X75575457Y-84944400I-1575000J0D01*
G01*
X75575457Y-84944400D02*
G75*
G02*
X78725457Y-84944400I1575000J0D01*
G01*
D14*
%TO.C,REF\u002A\u002A*%
X37354000Y-81475298D02*
X38307955Y-81475298D01*
X38307955Y-82144667D01*
X36721341Y-82144667D01*
X36721341Y-79591495D01*
X37354000Y-79591495D01*
X37354000Y-81475298D01*
G36*
X37354000Y-81475298D02*
G01*
X38307955Y-81475298D01*
X38307955Y-82144667D01*
X36721341Y-82144667D01*
X36721341Y-79591495D01*
X37354000Y-79591495D01*
X37354000Y-81475298D01*
G37*
X34587866Y-82144667D02*
X33907005Y-82144667D01*
X33907005Y-81176545D01*
X33667349Y-81176545D01*
X33667349Y-82144667D01*
X32982049Y-82144667D01*
X32982049Y-79592015D01*
X33665063Y-79591495D01*
X33665063Y-80514297D01*
X33907005Y-80514297D01*
X33907005Y-79591495D01*
X34587866Y-79591495D01*
X34587866Y-82144667D01*
G36*
X34587866Y-82144667D02*
G01*
X33907005Y-82144667D01*
X33907005Y-81176545D01*
X33667349Y-81176545D01*
X33667349Y-82144667D01*
X32982049Y-82144667D01*
X32982049Y-79592015D01*
X33665063Y-79591495D01*
X33665063Y-80514297D01*
X33907005Y-80514297D01*
X33907005Y-79591495D01*
X34587866Y-79591495D01*
X34587866Y-82144667D01*
G37*
X36437866Y-82144667D02*
X35757005Y-82144667D01*
X35757005Y-81176545D01*
X35517349Y-81176545D01*
X35517349Y-82144667D01*
X34832049Y-82144667D01*
X34832049Y-79592015D01*
X35515063Y-79591495D01*
X35515063Y-80514297D01*
X35757005Y-80514297D01*
X35757005Y-79591495D01*
X36437866Y-79591495D01*
X36437866Y-82144667D01*
G36*
X36437866Y-82144667D02*
G01*
X35757005Y-82144667D01*
X35757005Y-81176545D01*
X35517349Y-81176545D01*
X35517349Y-82144667D01*
X34832049Y-82144667D01*
X34832049Y-79592015D01*
X35515063Y-79591495D01*
X35515063Y-80514297D01*
X35757005Y-80514297D01*
X35757005Y-79591495D01*
X36437866Y-79591495D01*
X36437866Y-82144667D01*
G37*
%TO.C,SW12*%
D13*
X63025457Y-84944400D02*
G75*
G02*
X59875457Y-84944400I-1575000J0D01*
G01*
X59875457Y-84944400D02*
G75*
G02*
X63025457Y-84944400I1575000J0D01*
G01*
%TO.C,SW4*%
D12*
X130964582Y-40662626D02*
G75*
G02*
X126952082Y-40662626I-2006250J0D01*
G01*
X126952082Y-40662626D02*
G75*
G02*
X130964582Y-40662626I2006250J0D01*
G01*
%TO.C,SW10*%
D13*
X70875457Y-77094400D02*
G75*
G02*
X67725457Y-77094400I-1575000J0D01*
G01*
X67725457Y-77094400D02*
G75*
G02*
X70875457Y-77094400I1575000J0D01*
G01*
D15*
%TO.C,U4*%
X100882200Y-56393600D02*
X100502200Y-56393600D01*
X100502200Y-55653600D01*
X100882200Y-55653600D01*
X100882200Y-56393600D01*
G36*
X100882200Y-56393600D02*
G01*
X100502200Y-56393600D01*
X100502200Y-55653600D01*
X100882200Y-55653600D01*
X100882200Y-56393600D01*
G37*
X100882200Y-59193600D02*
X100502200Y-59193600D01*
X100502200Y-58453600D01*
X100882200Y-58453600D01*
X100882200Y-59193600D01*
G36*
X100882200Y-59193600D02*
G01*
X100502200Y-59193600D01*
X100502200Y-58453600D01*
X100882200Y-58453600D01*
X100882200Y-59193600D01*
G37*
X101382200Y-56393600D02*
X101002200Y-56393600D01*
X101002200Y-55653600D01*
X101382200Y-55653600D01*
X101382200Y-56393600D01*
G36*
X101382200Y-56393600D02*
G01*
X101002200Y-56393600D01*
X101002200Y-55653600D01*
X101382200Y-55653600D01*
X101382200Y-56393600D01*
G37*
X101382200Y-59193600D02*
X101002200Y-59193600D01*
X101002200Y-58453600D01*
X101382200Y-58453600D01*
X101382200Y-59193600D01*
G36*
X101382200Y-59193600D02*
G01*
X101002200Y-59193600D01*
X101002200Y-58453600D01*
X101382200Y-58453600D01*
X101382200Y-59193600D01*
G37*
X101882200Y-56393600D02*
X101502200Y-56393600D01*
X101502200Y-55653600D01*
X101882200Y-55653600D01*
X101882200Y-56393600D01*
G36*
X101882200Y-56393600D02*
G01*
X101502200Y-56393600D01*
X101502200Y-55653600D01*
X101882200Y-55653600D01*
X101882200Y-56393600D01*
G37*
X101882200Y-59193600D02*
X101502200Y-59193600D01*
X101502200Y-58453600D01*
X101882200Y-58453600D01*
X101882200Y-59193600D01*
G36*
X101882200Y-59193600D02*
G01*
X101502200Y-59193600D01*
X101502200Y-58453600D01*
X101882200Y-58453600D01*
X101882200Y-59193600D01*
G37*
X102382200Y-56393600D02*
X102002200Y-56393600D01*
X102002200Y-55653600D01*
X102382200Y-55653600D01*
X102382200Y-56393600D01*
G36*
X102382200Y-56393600D02*
G01*
X102002200Y-56393600D01*
X102002200Y-55653600D01*
X102382200Y-55653600D01*
X102382200Y-56393600D01*
G37*
X102382200Y-59193600D02*
X102002200Y-59193600D01*
X102002200Y-58453600D01*
X102382200Y-58453600D01*
X102382200Y-59193600D01*
G36*
X102382200Y-59193600D02*
G01*
X102002200Y-59193600D01*
X102002200Y-58453600D01*
X102382200Y-58453600D01*
X102382200Y-59193600D01*
G37*
X102882200Y-56393600D02*
X102502200Y-56393600D01*
X102502200Y-55653600D01*
X102882200Y-55653600D01*
X102882200Y-56393600D01*
G36*
X102882200Y-56393600D02*
G01*
X102502200Y-56393600D01*
X102502200Y-55653600D01*
X102882200Y-55653600D01*
X102882200Y-56393600D01*
G37*
X102882200Y-59193600D02*
X102502200Y-59193600D01*
X102502200Y-58453600D01*
X102882200Y-58453600D01*
X102882200Y-59193600D01*
G36*
X102882200Y-59193600D02*
G01*
X102502200Y-59193600D01*
X102502200Y-58453600D01*
X102882200Y-58453600D01*
X102882200Y-59193600D01*
G37*
X102962200Y-56978600D02*
X103462200Y-56978600D01*
X103462200Y-57368600D01*
X102962200Y-57368600D01*
X102962200Y-57478600D01*
X103462200Y-57478600D01*
X103462200Y-57868600D01*
X102962200Y-57868600D01*
X102962200Y-58318600D01*
X100422200Y-58318600D01*
X100422200Y-57868600D01*
X99922200Y-57868600D01*
X99922200Y-57478600D01*
X100422200Y-57478600D01*
X100422200Y-57368600D01*
X99922200Y-57368600D01*
X99922200Y-56978600D01*
X100422200Y-56978600D01*
X100422200Y-56528600D01*
X102962200Y-56528600D01*
X102962200Y-56978600D01*
G36*
X102962200Y-56978600D02*
G01*
X103462200Y-56978600D01*
X103462200Y-57368600D01*
X102962200Y-57368600D01*
X102962200Y-57478600D01*
X103462200Y-57478600D01*
X103462200Y-57868600D01*
X102962200Y-57868600D01*
X102962200Y-58318600D01*
X100422200Y-58318600D01*
X100422200Y-57868600D01*
X99922200Y-57868600D01*
X99922200Y-57478600D01*
X100422200Y-57478600D01*
X100422200Y-57368600D01*
X99922200Y-57368600D01*
X99922200Y-56978600D01*
X100422200Y-56978600D01*
X100422200Y-56528600D01*
X102962200Y-56528600D01*
X102962200Y-56978600D01*
G37*
%TD*%
D16*
%TO.C,R39*%
X144608000Y-73349400D03*
X143968000Y-73349400D03*
%TD*%
D17*
%TO.C,C17*%
X102075264Y-50946302D03*
X103975264Y-50946302D03*
%TD*%
D18*
%TO.C,C4*%
X105781600Y-61701000D03*
X105781600Y-59801000D03*
%TD*%
D19*
%TO.C,R35*%
X141189200Y-66633600D03*
X141189200Y-65993600D03*
%TD*%
D20*
%TO.C,R1*%
X50851600Y-65653200D03*
X51491600Y-65653200D03*
%TD*%
D16*
%TO.C,C26*%
X153117000Y-76372000D03*
X152477000Y-76372000D03*
%TD*%
%TO.C,R8*%
X107486800Y-54790000D03*
X106846800Y-54790000D03*
%TD*%
%TO.C,R5*%
X103968000Y-40558000D03*
X103328000Y-40558000D03*
%TD*%
D21*
%TO.C,R22*%
X98496800Y-25940000D03*
X98496800Y-26580000D03*
%TD*%
D16*
%TO.C,C27*%
X150551600Y-76372000D03*
X149911600Y-76372000D03*
%TD*%
D19*
%TO.C,R38*%
X113884200Y-36864800D03*
X113884200Y-36224800D03*
%TD*%
D20*
%TO.C,C33*%
X37999200Y-75533800D03*
X38639200Y-75533800D03*
%TD*%
D22*
%TO.C,J8*%
X126524000Y-70225200D03*
D23*
X128524000Y-70225200D03*
%TD*%
D24*
%TO.C,L5*%
X103834000Y-61233600D03*
X101684000Y-61233600D03*
%TD*%
D25*
%TO.C,R6*%
X89670526Y-44173726D03*
X90123074Y-44626274D03*
%TD*%
D26*
%TO.C,SW2*%
X119477317Y-65915457D03*
D27*
X115723607Y-59184574D03*
%TD*%
D19*
%TO.C,C15*%
X108920925Y-43649029D03*
X108920925Y-43009029D03*
%TD*%
D28*
%TO.C,D7*%
X39752800Y-74390800D03*
X41152800Y-74390800D03*
%TD*%
D19*
%TO.C,R12*%
X101240231Y-45621075D03*
X101240231Y-44981075D03*
%TD*%
D29*
%TO.C,U10*%
X76164800Y-62980000D03*
X76164800Y-62480000D03*
X76164800Y-61980000D03*
X76164800Y-61480000D03*
D30*
X75266800Y-61082000D03*
X74766800Y-61082000D03*
X74266800Y-61082000D03*
D29*
X73368800Y-61480000D03*
X73368800Y-61980000D03*
X73368800Y-62480000D03*
X73368800Y-62980000D03*
D30*
X74266800Y-63378000D03*
X74766800Y-63378000D03*
X75266800Y-63378000D03*
%TD*%
D20*
%TO.C,R41*%
X152934200Y-73959000D03*
X153574200Y-73959000D03*
%TD*%
D26*
%TO.C,SW1*%
X134653661Y-58357317D03*
D27*
X130899951Y-51626434D03*
%TD*%
D16*
%TO.C,C12*%
X77736800Y-60090000D03*
X77096800Y-60090000D03*
%TD*%
D31*
%TO.C,S7*%
X78119800Y-53730000D03*
X78119800Y-54230000D03*
D32*
X78119800Y-54730000D03*
D31*
X78119800Y-55230000D03*
X78119800Y-55730000D03*
X78953800Y-55730000D03*
X78953800Y-55230000D03*
D32*
X78953800Y-54730000D03*
D31*
X78953800Y-54230000D03*
X78953800Y-53730000D03*
%TD*%
D26*
%TO.C,SW3*%
X149166621Y-54866919D03*
D27*
X145412911Y-48136036D03*
%TD*%
D33*
%TO.C,C29*%
X102774687Y-43800623D03*
X102774687Y-42840623D03*
%TD*%
D16*
%TO.C,C11*%
X89211800Y-47000000D03*
X88571800Y-47000000D03*
%TD*%
D34*
%TO.C,Q5*%
X42078400Y-72841400D03*
X42078400Y-70941400D03*
X40203400Y-71891400D03*
%TD*%
D35*
%TO.C,C3*%
X105730800Y-34991600D03*
X105730800Y-37691600D03*
%TD*%
D21*
%TO.C,R21*%
X84206800Y-25920000D03*
X84206800Y-26560000D03*
%TD*%
D20*
%TO.C,R9*%
X106846800Y-54030000D03*
X107486800Y-54030000D03*
%TD*%
D21*
%TO.C,R34*%
X140173200Y-65993600D03*
X140173200Y-66633600D03*
%TD*%
D16*
%TO.C,R3*%
X103261670Y-55063394D03*
X102621670Y-55063394D03*
%TD*%
D36*
%TO.C,L2*%
X40901253Y-48983889D03*
X41849951Y-49033609D03*
X41899671Y-48084911D03*
X40950973Y-48035191D03*
%TD*%
D16*
%TO.C,R17*%
X78576800Y-51580000D03*
X77936800Y-51580000D03*
%TD*%
D21*
%TO.C,R37*%
X113086301Y-36232961D03*
X113086301Y-36872961D03*
%TD*%
D20*
%TO.C,C32*%
X43612600Y-74721000D03*
X44252600Y-74721000D03*
%TD*%
D37*
%TO.C,C28*%
X102774687Y-44805388D03*
X102774687Y-45765388D03*
%TD*%
D20*
%TO.C,R16*%
X77936800Y-50820000D03*
X78576800Y-50820000D03*
%TD*%
D38*
%TO.C,SW6*%
X45738339Y-48456388D03*
X45076289Y-61089052D03*
D39*
X50625507Y-50740293D03*
X50175417Y-59328507D03*
D38*
X55724635Y-48979748D03*
X55062585Y-61612412D03*
D40*
X44928297Y-51493156D03*
X44588113Y-57984248D03*
X40434464Y-51257644D03*
X40094280Y-57748736D03*
D41*
X47448565Y-63591637D03*
X49945139Y-63722477D03*
X52441713Y-63853317D03*
X58957699Y-57986297D03*
X59088539Y-55489723D03*
X59219379Y-52993149D03*
%TD*%
D42*
%TO.C,C8*%
X92363074Y-40956274D03*
X91910526Y-40503726D03*
%TD*%
D36*
%TO.C,L1*%
X58901253Y-48983889D03*
X59849951Y-49033609D03*
X59899671Y-48084911D03*
X58950973Y-48035191D03*
%TD*%
D43*
%TO.C,L12*%
X132225457Y-60509400D03*
X133175457Y-60509400D03*
X133175457Y-59559400D03*
X132225457Y-59559400D03*
%TD*%
D28*
%TO.C,D14*%
X151995400Y-75229000D03*
X153395400Y-75229000D03*
%TD*%
D16*
%TO.C,R25*%
X97652000Y-39564300D03*
X97012000Y-39564300D03*
%TD*%
D44*
%TO.C,U11*%
X103810000Y-53051600D03*
X103810000Y-52651600D03*
X104210000Y-53051600D03*
X104210000Y-52651600D03*
X104610000Y-53051600D03*
X104610000Y-52651600D03*
X105010000Y-53051600D03*
X105010000Y-52651600D03*
%TD*%
D21*
%TO.C,C5*%
X100981000Y-39704600D03*
X100981000Y-40344600D03*
%TD*%
D19*
%TO.C,R36*%
X63042660Y-36737891D03*
X63042660Y-36097891D03*
%TD*%
D45*
%TO.C,C23*%
X99787200Y-60537600D03*
X99787200Y-62437600D03*
%TD*%
D20*
%TO.C,R11*%
X64364400Y-46806400D03*
X65004400Y-46806400D03*
%TD*%
D21*
%TO.C,R4*%
X63820800Y-36097800D03*
X63820800Y-36737800D03*
%TD*%
%TO.C,R18*%
X78776800Y-64590000D03*
X78776800Y-65230000D03*
%TD*%
D46*
%TO.C,SW7*%
X36684912Y-39094336D03*
X43613116Y-35094336D03*
D47*
X39710265Y-40234400D03*
X43087763Y-38284400D03*
%TD*%
D16*
%TO.C,R33*%
X37013600Y-73044600D03*
X36373600Y-73044600D03*
%TD*%
D48*
%TO.C,D6*%
X38420800Y-73033400D03*
X38420800Y-71633400D03*
%TD*%
D49*
%TO.C,SW8*%
X139487798Y-35094336D03*
X146416002Y-39094336D03*
D50*
X140013151Y-38284400D03*
X143390649Y-40234400D03*
%TD*%
D51*
%TO.C,D16*%
X149179000Y-77489600D03*
X147779000Y-77489600D03*
%TD*%
D52*
%TO.C,SW17*%
X88987957Y-53966400D03*
X88987957Y-59966400D03*
X85237957Y-53966400D03*
X85237957Y-59966400D03*
%TD*%
D42*
%TO.C,C6*%
X91813074Y-41506274D03*
X91360526Y-41053726D03*
%TD*%
D19*
%TO.C,R19*%
X76196800Y-65230000D03*
X76196800Y-64590000D03*
%TD*%
D21*
%TO.C,C13*%
X75206800Y-59400000D03*
X75206800Y-60040000D03*
%TD*%
D53*
%TO.C,Q6*%
X143855100Y-75279800D03*
X141955100Y-75279800D03*
X142905100Y-77154800D03*
%TD*%
D20*
%TO.C,R23*%
X99298000Y-39564300D03*
X99938000Y-39564300D03*
%TD*%
D43*
%TO.C,L15*%
X68825457Y-82069400D03*
X69775457Y-82069400D03*
X69775457Y-81119400D03*
X68825457Y-81119400D03*
%TD*%
D16*
%TO.C,R28*%
X97706800Y-35500000D03*
X97066800Y-35500000D03*
%TD*%
D54*
%TO.C,R10*%
X88700526Y-49996274D03*
X89153074Y-49543726D03*
%TD*%
D55*
%TO.C,X3*%
X134102600Y-48051000D03*
%TD*%
D56*
%TO.C,D13*%
X84105200Y-75530900D03*
X84105200Y-76180900D03*
X84105200Y-76830900D03*
X86005200Y-76830900D03*
X86005200Y-76180900D03*
X86005200Y-75530900D03*
%TD*%
D57*
%TO.C,U8*%
X93951600Y-49295600D03*
X94351600Y-49295600D03*
X94751600Y-49295600D03*
X95151600Y-49295600D03*
X95551600Y-49295600D03*
X95951600Y-49295600D03*
X96351600Y-49295600D03*
X96751600Y-49295600D03*
X97151600Y-49295600D03*
X97551600Y-49295600D03*
X97951600Y-49295600D03*
X98351600Y-49295600D03*
X98751600Y-49295600D03*
X99151600Y-49295600D03*
D58*
X99989100Y-48458100D03*
X99989100Y-48058100D03*
X99989100Y-47658100D03*
X99989100Y-47258100D03*
X99989100Y-46858100D03*
X99989100Y-46458100D03*
X99989100Y-46058100D03*
X99989100Y-45658100D03*
X99989100Y-45258100D03*
X99989100Y-44858100D03*
X99989100Y-44458100D03*
X99989100Y-44058100D03*
X99989100Y-43658100D03*
X99989100Y-43258100D03*
D57*
X99151600Y-42420600D03*
X98751600Y-42420600D03*
X98351600Y-42420600D03*
X97951600Y-42420600D03*
X97551600Y-42420600D03*
X97151600Y-42420600D03*
X96751600Y-42420600D03*
X96351600Y-42420600D03*
X95951600Y-42420600D03*
X95551600Y-42420600D03*
X95151600Y-42420600D03*
X94751600Y-42420600D03*
X94351600Y-42420600D03*
X93951600Y-42420600D03*
D58*
X93114100Y-43258100D03*
X93114100Y-43658100D03*
X93114100Y-44058100D03*
X93114100Y-44458100D03*
X93114100Y-44858100D03*
X93114100Y-45258100D03*
X93114100Y-45658100D03*
X93114100Y-46058100D03*
X93114100Y-46458100D03*
X93114100Y-46858100D03*
X93114100Y-47258100D03*
X93114100Y-47658100D03*
X93114100Y-48058100D03*
X93114100Y-48458100D03*
D59*
X96551600Y-45858100D03*
%TD*%
D43*
%TO.C,L13*%
X146738417Y-57019002D03*
X147688417Y-57019002D03*
X147688417Y-56069002D03*
X146738417Y-56069002D03*
%TD*%
D55*
%TO.C,X2*%
X128489200Y-49752800D03*
%TD*%
D25*
%TO.C,R7*%
X90173420Y-43670832D03*
X90625968Y-44123380D03*
%TD*%
D16*
%TO.C,R26*%
X100286800Y-35520000D03*
X99646800Y-35520000D03*
%TD*%
D55*
%TO.C,X5*%
X111369600Y-60446200D03*
%TD*%
D21*
%TO.C,R40*%
X142738600Y-72623000D03*
X142738600Y-73263000D03*
%TD*%
D36*
%TO.C,L4*%
X58901253Y-61983889D03*
X59849951Y-62033609D03*
X59899671Y-61084911D03*
X58950973Y-61035191D03*
%TD*%
D51*
%TO.C,D3*%
X38460400Y-74390800D03*
X37060400Y-74390800D03*
%TD*%
D21*
%TO.C,R14*%
X107612641Y-46206253D03*
X107612641Y-46846253D03*
%TD*%
D60*
%TO.C,D2*%
X87416800Y-36175000D03*
X87416800Y-33675000D03*
%TD*%
D61*
%TO.C,D8*%
X57481200Y-71292000D03*
X58131200Y-71292000D03*
X58781200Y-71292000D03*
X58781200Y-69392000D03*
X58131200Y-69392000D03*
X57481200Y-69392000D03*
%TD*%
D62*
%TO.C,JP1*%
X106645200Y-56621200D03*
X106645200Y-57921200D03*
%TD*%
D25*
%TO.C,C10*%
X91370526Y-42163726D03*
X91823074Y-42616274D03*
%TD*%
D22*
%TO.C,J9*%
X47022000Y-74797200D03*
D23*
X49022000Y-74797200D03*
%TD*%
D16*
%TO.C,C16*%
X102342400Y-52648400D03*
X101702400Y-52648400D03*
%TD*%
D63*
%TO.C,C18*%
X80766800Y-56340000D03*
X81726800Y-56340000D03*
%TD*%
D16*
%TO.C,R24*%
X96178800Y-39564300D03*
X95538800Y-39564300D03*
%TD*%
D64*
%TO.C,D5*%
X113594600Y-45195800D03*
X113594600Y-44545800D03*
X113594600Y-43895800D03*
X111694600Y-43895800D03*
X111694600Y-44545800D03*
X111694600Y-45195800D03*
%TD*%
D65*
%TO.C,P1*%
X71616800Y-38650000D03*
X71616800Y-40150000D03*
X71616800Y-41650000D03*
X71616800Y-43150000D03*
X71616800Y-44650000D03*
X71616800Y-46150000D03*
X71616800Y-47650000D03*
D66*
X73866800Y-48950000D03*
X75366800Y-48950000D03*
X76866800Y-48950000D03*
X78366800Y-48950000D03*
X79866800Y-48950000D03*
X81366800Y-48950000D03*
X82866800Y-48950000D03*
D65*
X85116800Y-47650000D03*
X85116800Y-46150000D03*
X85116800Y-44650000D03*
X85116800Y-43150000D03*
X85116800Y-41650000D03*
X85116800Y-40150000D03*
X85116800Y-38650000D03*
%TD*%
D67*
%TO.C,SW5*%
X94550457Y-76803800D03*
X88550457Y-76803800D03*
X94550457Y-73053800D03*
X88550457Y-73053800D03*
%TD*%
D19*
%TO.C,R2*%
X61179200Y-54543200D03*
X61179200Y-53903200D03*
%TD*%
D51*
%TO.C,D15*%
X151769800Y-77489600D03*
X150369800Y-77489600D03*
%TD*%
D68*
%TO.C,Y1*%
X105967465Y-45650656D03*
X105967465Y-43450656D03*
X104267465Y-43450656D03*
X104267465Y-45650656D03*
%TD*%
D69*
%TO.C,U2*%
X92089300Y-34380000D03*
D70*
X92626800Y-34455000D03*
D69*
X93164300Y-34380000D03*
X93164300Y-32680000D03*
D70*
X92626800Y-32605000D03*
D69*
X92089300Y-32680000D03*
%TD*%
D56*
%TO.C,D12*%
X84105200Y-72671000D03*
X84105200Y-73321000D03*
X84105200Y-73971000D03*
X86005200Y-73971000D03*
X86005200Y-73321000D03*
X86005200Y-72671000D03*
%TD*%
D71*
%TO.C,C1*%
X49963356Y-67005405D03*
X51513356Y-67005405D03*
%TD*%
D43*
%TO.C,L14*%
X72175457Y-85419400D03*
X73125457Y-85419400D03*
X73125457Y-84469400D03*
X72175457Y-84469400D03*
%TD*%
D55*
%TO.C,X4*%
X122418600Y-44698200D03*
%TD*%
D43*
%TO.C,L8*%
X65475457Y-85419400D03*
X66425457Y-85419400D03*
X66425457Y-84469400D03*
X65475457Y-84469400D03*
%TD*%
D52*
%TO.C,SW18*%
X94112957Y-68841400D03*
X94112957Y-62841400D03*
X97862957Y-68841400D03*
X97862957Y-62841400D03*
%TD*%
D42*
%TO.C,C7*%
X92913074Y-40406274D03*
X92460526Y-39953726D03*
%TD*%
D26*
%TO.C,SW4*%
X130911536Y-43985543D03*
D27*
X127157826Y-37254660D03*
%TD*%
D72*
%TO.C,L7*%
X87256800Y-47747501D03*
X87256800Y-46172499D03*
%TD*%
D43*
%TO.C,L10*%
X117049113Y-68067540D03*
X117999113Y-68067540D03*
X117999113Y-67117540D03*
X117049113Y-67117540D03*
%TD*%
D19*
%TO.C,R27*%
X94546800Y-36950000D03*
X94546800Y-36310000D03*
%TD*%
D20*
%TO.C,C25*%
X143739400Y-72384200D03*
X144379400Y-72384200D03*
%TD*%
D73*
%TO.C,D10*%
X101676800Y-35890000D03*
X101676800Y-38390000D03*
%TD*%
D55*
%TO.C,TP5*%
X57724800Y-36341600D03*
%TD*%
D74*
%TO.C,C2*%
X62465156Y-55234524D03*
X62465156Y-53684524D03*
%TD*%
D20*
%TO.C,C34*%
X39624800Y-75533800D03*
X40264800Y-75533800D03*
%TD*%
D52*
%TO.C,SW19*%
X88987957Y-62841400D03*
X88987957Y-68841400D03*
X85237957Y-62841400D03*
X85237957Y-68841400D03*
%TD*%
D61*
%TO.C,D11*%
X60376800Y-69905200D03*
X61026800Y-69905200D03*
X61676800Y-69905200D03*
X61676800Y-68005200D03*
X61026800Y-68005200D03*
X60376800Y-68005200D03*
%TD*%
D43*
%TO.C,L9*%
X68825457Y-88769400D03*
X69775457Y-88769400D03*
X69775457Y-87819400D03*
X68825457Y-87819400D03*
%TD*%
D75*
%TO.C,U1*%
X90084300Y-34570000D03*
D76*
X89546800Y-34495000D03*
D75*
X89009300Y-34570000D03*
X89009300Y-36270000D03*
D76*
X89546800Y-36345000D03*
D75*
X90084300Y-36270000D03*
%TD*%
D20*
%TO.C,C24*%
X101498376Y-54298352D03*
X102138376Y-54298352D03*
%TD*%
D21*
%TO.C,R13*%
X107782223Y-42408205D03*
X107782223Y-43048205D03*
%TD*%
%TO.C,C14*%
X108778800Y-46588000D03*
X108778800Y-47228000D03*
%TD*%
D43*
%TO.C,L11*%
X128483332Y-46137626D03*
X129433332Y-46137626D03*
X129433332Y-45187626D03*
X128483332Y-45187626D03*
%TD*%
D77*
%TO.C,J2*%
X102224200Y-67284200D03*
X102224200Y-66784200D03*
X102224200Y-66284200D03*
X102224200Y-65784200D03*
X102224200Y-65284200D03*
X102224200Y-64784200D03*
D78*
X104874200Y-68074200D03*
X104874200Y-63994200D03*
%TD*%
D20*
%TO.C,C9*%
X89616800Y-45900000D03*
X90256800Y-45900000D03*
%TD*%
D19*
%TO.C,R15*%
X105680000Y-53019200D03*
X105680000Y-52379200D03*
%TD*%
D16*
%TO.C,R31*%
X44430400Y-75660800D03*
X43790400Y-75660800D03*
%TD*%
D29*
%TO.C,U5*%
X80855600Y-62966600D03*
X80855600Y-62466600D03*
X80855600Y-61966600D03*
X80855600Y-61466600D03*
D30*
X79957600Y-61068600D03*
X79457600Y-61068600D03*
X78957600Y-61068600D03*
D29*
X78059600Y-61466600D03*
X78059600Y-61966600D03*
X78059600Y-62466600D03*
X78059600Y-62966600D03*
D30*
X78957600Y-63364600D03*
X79457600Y-63364600D03*
X79957600Y-63364600D03*
%TD*%
D19*
%TO.C,R32*%
X43602400Y-73669400D03*
X43602400Y-73029400D03*
%TD*%
D55*
%TO.C,X1*%
X129175000Y-64713400D03*
%TD*%
D61*
%TO.C,Q4*%
X95716800Y-38482300D03*
X96366800Y-38482300D03*
X97016800Y-38482300D03*
X97016800Y-36582300D03*
X96366800Y-36582300D03*
X95716800Y-36582300D03*
%TD*%
D52*
%TO.C,SW9*%
X94112957Y-59966400D03*
X94112957Y-53966400D03*
X97862957Y-59966400D03*
X97862957Y-53966400D03*
%TD*%
D69*
%TO.C,U3*%
X94349300Y-34380000D03*
D70*
X94886800Y-34455000D03*
D69*
X95424300Y-34380000D03*
X95424300Y-32680000D03*
D70*
X94886800Y-32605000D03*
D69*
X94349300Y-32680000D03*
%TD*%
D36*
%TO.C,L3*%
X40901253Y-61983889D03*
X41849951Y-62033609D03*
X41899671Y-61084911D03*
X40950973Y-61035191D03*
%TD*%
D60*
%TO.C,D9*%
X103648000Y-37286800D03*
X103648000Y-34786800D03*
%TD*%
D61*
%TO.C,Q3*%
X98612400Y-38482300D03*
X99262400Y-38482300D03*
X99912400Y-38482300D03*
X99912400Y-36582300D03*
X99262400Y-36582300D03*
X98612400Y-36582300D03*
%TD*%
D64*
%TO.C,D4*%
X112776800Y-48055600D03*
X112776800Y-47405600D03*
X112776800Y-46755600D03*
X110876800Y-46755600D03*
X110876800Y-47405600D03*
X110876800Y-48055600D03*
%TD*%
D43*
%TO.C,L6*%
X91075457Y-81488600D03*
X92025457Y-81488600D03*
X92025457Y-80538600D03*
X91075457Y-80538600D03*
%TD*%
D79*
%TO.C,D1*%
X109536800Y-52660000D03*
X107036800Y-52660000D03*
%TD*%
D55*
%TO.C,X6*%
X120488200Y-56331400D03*
%TD*%
D80*
%TO.C,U9*%
X90005178Y-49600000D03*
X90505178Y-49600000D03*
X91005178Y-49600000D03*
X91505178Y-49600000D03*
X91505178Y-47200000D03*
X91005178Y-47200000D03*
X90505178Y-47200000D03*
X90005178Y-47200000D03*
D81*
X90755178Y-48400000D03*
%TD*%
D82*
%TO.C,S6*%
X119050457Y-39884400D03*
%TD*%
%TO.C,S4*%
X116550457Y-39884400D03*
%TD*%
%TO.C,S3*%
X69050457Y-39884400D03*
%TD*%
D83*
%TO.C,J7*%
X152568400Y-66085000D03*
D84*
X152568400Y-64085000D03*
%TD*%
D82*
%TO.C,S5*%
X114050457Y-39884400D03*
%TD*%
D85*
%TO.C,RV2*%
X120900457Y-51384400D03*
X112200457Y-51384400D03*
%TD*%
D86*
%TO.C,B1*%
X105614396Y-49735471D03*
D87*
X107614396Y-49735471D03*
%TD*%
D83*
%TO.C,J6*%
X31689800Y-66085000D03*
D84*
X31689800Y-64085000D03*
%TD*%
D88*
%TO.C,J11*%
X87950457Y-28621200D03*
D89*
X95150457Y-28621200D03*
D90*
X94350457Y-27971200D03*
X93950457Y-27271200D03*
X93150457Y-27271200D03*
X92750457Y-27971200D03*
X92350457Y-27271200D03*
X91950457Y-27971200D03*
X91150457Y-27971200D03*
X90750457Y-27271200D03*
X90350457Y-27971200D03*
X89950457Y-27271200D03*
X89150457Y-27271200D03*
X88750457Y-27971200D03*
D91*
X87420457Y-27381200D03*
X95680457Y-27381200D03*
X96040457Y-22981200D03*
X87060457Y-22981200D03*
%TD*%
D85*
%TO.C,RV1*%
X70900457Y-51384400D03*
X62200457Y-51384400D03*
%TD*%
D82*
%TO.C,S1*%
X66550457Y-39884400D03*
%TD*%
%TO.C,S2*%
X64050457Y-39884400D03*
%TD*%
M02*
