%TF.GenerationSoftware,KiCad,Pcbnew,9.0.3*%
%TF.CreationDate,2025-09-23T13:43:19-07:00*%
%TF.ProjectId,UGC_Main_R5,5547435f-4d61-4696-9e5f-52352e6b6963,rev?*%
%TF.SameCoordinates,Original*%
%TF.FileFunction,Soldermask,Bot*%
%TF.FilePolarity,Negative*%
%FSLAX46Y46*%
G04 Gerber Fmt 4.6, Leading zero omitted, Abs format (unit mm)*
G04 Created by KiCad (PCBNEW 9.0.3) date 2025-09-23 13:43:19*
%MOMM*%
%LPD*%
G01*
G04 APERTURE LIST*
G04 Aperture macros list*
%AMRoundRect*
0 Rectangle with rounded corners*
0 $1 Rounding radius*
0 $2 $3 $4 $5 $6 $7 $8 $9 X,Y pos of 4 corners*
0 Add a 4 corners polygon primitive as box body*
4,1,4,$2,$3,$4,$5,$6,$7,$8,$9,$2,$3,0*
0 Add four circle primitives for the rounded corners*
1,1,$1+$1,$2,$3*
1,1,$1+$1,$4,$5*
1,1,$1+$1,$6,$7*
1,1,$1+$1,$8,$9*
0 Add four rect primitives between the rounded corners*
20,1,$1+$1,$2,$3,$4,$5,0*
20,1,$1+$1,$4,$5,$6,$7,0*
20,1,$1+$1,$6,$7,$8,$9,0*
20,1,$1+$1,$8,$9,$2,$3,0*%
%AMHorizOval*
0 Thick line with rounded ends*
0 $1 width*
0 $2 $3 position (X,Y) of the first rounded end (center of the circle)*
0 $4 $5 position (X,Y) of the second rounded end (center of the circle)*
0 Add line between two ends*
20,1,$1,$2,$3,$4,$5,0*
0 Add two circle primitives to create the rounded ends*
1,1,$1,$2,$3*
1,1,$1,$4,$5*%
%AMRotRect*
0 Rectangle, with rotation*
0 The origin of the aperture is its center*
0 $1 length*
0 $2 width*
0 $3 Rotation angle, in degrees counterclockwise*
0 Add horizontal line*
21,1,$1,$2,0,0,$3*%
G04 Aperture macros list end*
%ADD10R,1.350000X1.350000*%
%ADD11O,1.350000X1.350000*%
%ADD12C,1.750000*%
%ADD13C,2.450000*%
%ADD14C,1.600000*%
%ADD15C,1.250000*%
%ADD16C,2.000000*%
%ADD17HorizOval,2.250000X-0.250000X0.433013X0.250000X-0.433013X0*%
%ADD18HorizOval,1.700000X0.259808X0.150000X-0.259808X-0.150000X0*%
%ADD19HorizOval,2.250000X-0.250000X-0.433013X0.250000X0.433013X0*%
%ADD20HorizOval,1.700000X0.259808X-0.150000X-0.259808X0.150000X0*%
%ADD21R,1.000000X0.750000*%
%ADD22O,1.772000X3.250000*%
%ADD23R,2.000000X2.000000*%
%ADD24RoundRect,0.102000X0.250000X0.500000X-0.250000X0.500000X-0.250000X-0.500000X0.250000X-0.500000X0*%
%ADD25RoundRect,0.102000X0.600000X0.850000X-0.600000X0.850000X-0.600000X-0.850000X0.600000X-0.850000X0*%
%ADD26R,0.500000X0.550000*%
%ADD27RoundRect,0.250000X0.625000X-0.350000X0.625000X0.350000X-0.625000X0.350000X-0.625000X-0.350000X0*%
%ADD28O,1.750000X1.200000*%
%ADD29O,1.600000X2.500000*%
%ADD30RotRect,0.300000X1.000000X174.000000*%
%ADD31RotRect,2.000000X1.300000X174.000000*%
%ADD32RoundRect,0.250000X-0.350000X-0.625000X0.350000X-0.625000X0.350000X0.625000X-0.350000X0.625000X0*%
%ADD33O,1.200000X1.750000*%
%ADD34C,0.650000*%
%ADD35O,0.950000X0.650000*%
%ADD36R,0.300000X0.900000*%
%ADD37C,0.600000*%
%ADD38O,0.800000X1.400000*%
G04 APERTURE END LIST*
D10*
%TO.C,J8*%
X126524000Y-70225200D03*
D11*
X128524000Y-70225200D03*
%TD*%
D12*
%TO.C,SW2*%
X117524113Y-65092540D03*
X117524113Y-60092540D03*
%TD*%
%TO.C,SW1*%
X132700457Y-57534400D03*
X132700457Y-52534400D03*
%TD*%
%TO.C,SW3*%
X147213417Y-54044002D03*
X147213417Y-49044002D03*
%TD*%
D13*
%TO.C,SW6*%
X45738339Y-48456388D03*
X45076289Y-61089052D03*
D14*
X50625507Y-50740293D03*
X50175417Y-59328507D03*
D13*
X55724635Y-48979748D03*
X55062585Y-61612412D03*
D15*
X44928297Y-51493156D03*
X44588113Y-57984248D03*
X40434464Y-51257644D03*
X40094280Y-57748736D03*
D16*
X47448565Y-63591637D03*
X49945139Y-63722477D03*
X52441713Y-63853317D03*
X58957699Y-57986297D03*
X59088539Y-55489723D03*
X59219379Y-52993149D03*
%TD*%
D17*
%TO.C,SW7*%
X36684912Y-39094336D03*
X43613116Y-35094336D03*
D18*
X39710265Y-40234400D03*
X43087763Y-38284400D03*
%TD*%
D19*
%TO.C,SW8*%
X139487798Y-35094336D03*
X146416002Y-39094336D03*
D20*
X140013151Y-38284400D03*
X143390649Y-40234400D03*
%TD*%
D10*
%TO.C,J9*%
X47022000Y-74797200D03*
D11*
X49022000Y-74797200D03*
%TD*%
D12*
%TO.C,SW4*%
X128958332Y-43162626D03*
X128958332Y-38162626D03*
%TD*%
D21*
%TO.C,SW14*%
X94550457Y-72059400D03*
X88550457Y-72059400D03*
X94550457Y-75809400D03*
X88550457Y-75809400D03*
%TD*%
D22*
%TO.C,S6*%
X119050457Y-39884400D03*
%TD*%
D23*
%TO.C,TP7*%
X36998400Y-77540400D03*
%TD*%
D22*
%TO.C,S4*%
X116550457Y-39884400D03*
%TD*%
%TO.C,S3*%
X69050457Y-39884400D03*
%TD*%
D24*
%TO.C,J10*%
X39430400Y-78014800D03*
X38630400Y-78014800D03*
D25*
X40730400Y-79964800D03*
X37330400Y-79964800D03*
%TD*%
D23*
%TO.C,TP1*%
X153262654Y-74456448D03*
%TD*%
D26*
%TO.C,SW15*%
X100092000Y-74695600D03*
X99292000Y-74695600D03*
X100092000Y-72045600D03*
X99292000Y-72045600D03*
%TD*%
D23*
%TO.C,TP6*%
X41062400Y-77515000D03*
%TD*%
D27*
%TO.C,J7*%
X152568400Y-66085000D03*
D28*
X152568400Y-64085000D03*
%TD*%
D22*
%TO.C,S5*%
X114050457Y-39884400D03*
%TD*%
D29*
%TO.C,RV2*%
X120900457Y-51384400D03*
X112200457Y-51384400D03*
%TD*%
D23*
%TO.C,TP2*%
X153266542Y-77546669D03*
%TD*%
D30*
%TO.C,J3*%
X144680765Y-73078785D03*
X144183506Y-73026521D03*
X143686243Y-72974253D03*
X143188983Y-72921993D03*
X142691722Y-72869728D03*
X142194460Y-72817464D03*
X141697200Y-72765200D03*
D31*
X146685936Y-76004408D03*
X139127576Y-75209993D03*
%TD*%
D24*
%TO.C,J1*%
X151850800Y-78014800D03*
X151050800Y-78014800D03*
D25*
X153150800Y-79964800D03*
X149750800Y-79964800D03*
%TD*%
D32*
%TO.C,B1*%
X105614396Y-49735471D03*
D33*
X107614396Y-49735471D03*
%TD*%
D27*
%TO.C,J6*%
X31689800Y-66085000D03*
D28*
X31689800Y-64085000D03*
%TD*%
D34*
%TO.C,J11*%
X87950457Y-28621200D03*
D35*
X95150457Y-28621200D03*
D36*
X88800457Y-29181200D03*
X89300457Y-29181200D03*
X89800457Y-29181200D03*
X90300457Y-29181200D03*
X90800457Y-29181200D03*
X91300457Y-29181200D03*
X91800457Y-29181200D03*
X92300457Y-29181200D03*
X92800457Y-29181200D03*
X93300457Y-29181200D03*
X93800457Y-29181200D03*
X94300457Y-29181200D03*
D37*
X94350457Y-27971200D03*
X93950457Y-27271200D03*
X93150457Y-27271200D03*
X92750457Y-27971200D03*
X92350457Y-27271200D03*
X91950457Y-27971200D03*
X91150457Y-27971200D03*
X90750457Y-27271200D03*
X90350457Y-27971200D03*
X89950457Y-27271200D03*
X89150457Y-27271200D03*
X88750457Y-27971200D03*
D38*
X87420457Y-27381200D03*
X95680457Y-27381200D03*
X96040457Y-22981200D03*
X87060457Y-22981200D03*
%TD*%
D29*
%TO.C,RV1*%
X70900457Y-51384400D03*
X62200457Y-51384400D03*
%TD*%
D22*
%TO.C,S1*%
X66550457Y-39884400D03*
%TD*%
%TO.C,S2*%
X64050457Y-39884400D03*
%TD*%
M02*
