%TF.GenerationSoftware,KiCad,Pcbnew,9.0.3*%
%TF.CreationDate,2025-09-30T10:08:22-07:00*%
%TF.ProjectId,UGC_Main_R5,5547435f-4d61-4696-9e5f-52352e6b6963,rev?*%
%TF.SameCoordinates,Original*%
%TF.FileFunction,Profile,NP*%
%FSLAX46Y46*%
G04 Gerber Fmt 4.6, Leading zero omitted, Abs format (unit mm)*
G04 Created by KiCad (PCBNEW 9.0.3) date 2025-09-30 10:08:22*
%MOMM*%
%LPD*%
G01*
G04 APERTURE LIST*
%ADD10C,0.100000*%
%TA.AperFunction,Profile*%
%ADD11C,0.100000*%
%TD*%
G04 APERTURE END LIST*
D10*
X84052040Y-22508545D02*
X84009709Y-22510960D01*
X83967433Y-22513393D01*
X83925488Y-22515826D01*
X83883596Y-22518277D01*
X83842024Y-22520729D01*
X83800504Y-22523198D01*
X83759291Y-22525669D01*
X83718129Y-22528157D01*
X83677264Y-22530647D01*
X83636446Y-22533154D01*
X83595917Y-22535664D01*
X83555433Y-22538191D01*
X83515227Y-22540721D01*
X83475066Y-22543268D01*
X83403146Y-22547880D01*
X101517225Y-70391646D02*
X101508132Y-70397751D01*
X101499084Y-70403923D01*
X101490081Y-70410160D01*
X101481124Y-70416463D01*
X101472214Y-70422832D01*
X101463349Y-70429265D01*
X101454533Y-70435763D01*
X101445763Y-70442325D01*
X101437042Y-70448951D01*
X101428369Y-70455641D01*
X101419746Y-70462393D01*
X101411171Y-70469209D01*
X101402647Y-70476087D01*
X101394173Y-70483028D01*
X101385750Y-70490030D01*
X101377378Y-70497093D01*
X101369058Y-70504218D01*
X101360790Y-70511403D01*
X101352574Y-70518648D01*
X101344412Y-70525954D01*
X101336303Y-70533319D01*
X101328248Y-70540742D01*
X101320247Y-70548225D01*
X101312302Y-70555766D01*
X101304411Y-70563365D01*
X101296576Y-70571021D01*
X101288797Y-70578734D01*
X101284929Y-70582612D01*
X101281075Y-70586504D01*
X101277235Y-70590410D01*
X101273409Y-70594330D01*
X101269598Y-70598264D01*
X101265801Y-70602212D01*
X101262018Y-70606174D01*
X101258250Y-70610150D01*
X101254497Y-70614139D01*
X101250758Y-70618142D01*
X101247034Y-70622159D01*
X101243324Y-70626189D01*
X101239629Y-70630233D01*
X101235949Y-70634290D01*
X101232284Y-70638361D01*
X101228633Y-70642445D01*
X101224998Y-70646542D01*
X101221378Y-70650653D01*
X101217772Y-70654776D01*
X101214182Y-70658913D01*
X101210607Y-70663063D01*
X101207047Y-70667227D01*
X101203502Y-70671402D01*
X101199972Y-70675592D01*
X101196458Y-70679793D01*
X101192959Y-70684008D01*
X101189476Y-70688235D01*
X101186008Y-70692475D01*
X101182555Y-70696728D01*
X101179118Y-70700993D01*
X101175697Y-70705271D01*
X101172291Y-70709562D01*
X101168902Y-70713864D01*
X101165527Y-70718179D01*
X101162169Y-70722507D01*
X101158826Y-70726846D01*
X101155499Y-70731198D01*
X101152188Y-70735562D01*
X101148893Y-70739938D01*
X101145614Y-70744326D01*
X101142351Y-70748726D01*
X101139104Y-70753138D01*
X101135874Y-70757561D01*
X101132659Y-70761997D01*
X101129461Y-70766444D01*
X101126279Y-70770904D01*
X101123113Y-70775374D01*
X101119963Y-70779856D01*
X101116830Y-70784349D01*
X101113713Y-70788855D01*
X101110613Y-70793371D01*
X101107529Y-70797899D01*
X101105544Y-70800833D01*
D11*
X154388667Y-80766480D02*
G75*
G02*
X151388667Y-83766467I-2999967J-20D01*
G01*
X141907950Y-83766480D02*
G75*
G02*
X138907920Y-80766480I-50J2999980D01*
G01*
X97935506Y-81928091D02*
G75*
G02*
X95318195Y-83299220I-2250706J1112691D01*
G01*
D10*
X82542467Y-23166150D02*
X82545899Y-23157892D01*
X82549405Y-23149666D01*
X82552984Y-23141471D01*
X82556636Y-23133308D01*
X82560361Y-23125179D01*
X82564159Y-23117083D01*
X82568029Y-23109021D01*
X82571971Y-23100994D01*
X82575984Y-23093002D01*
X82580069Y-23085047D01*
X82584225Y-23077128D01*
X82588452Y-23069246D01*
X82592749Y-23061403D01*
X82597117Y-23053598D01*
X82601554Y-23045833D01*
X82606060Y-23038107D01*
X82610635Y-23030422D01*
X82615279Y-23022778D01*
X82619991Y-23015175D01*
X82624771Y-23007615D01*
X82629618Y-23000098D01*
X82634533Y-22992625D01*
X82637015Y-22988905D01*
X82639514Y-22985196D01*
X82642030Y-22981498D01*
X82644562Y-22977811D01*
X82647110Y-22974136D01*
X82649675Y-22970472D01*
X82652256Y-22966820D01*
X82654854Y-22963179D01*
X82657468Y-22959550D01*
X82660098Y-22955932D01*
X82662744Y-22952327D01*
X82665407Y-22948733D01*
X82668085Y-22945151D01*
X82670779Y-22941581D01*
X82673490Y-22938023D01*
X82676216Y-22934478D01*
X82678958Y-22930944D01*
X82681716Y-22927423D01*
X82684489Y-22923915D01*
X82687279Y-22920418D01*
X82690083Y-22916935D01*
X82692904Y-22913463D01*
X82695740Y-22910005D01*
X82698591Y-22906559D01*
X82701458Y-22903126D01*
X82704340Y-22899705D01*
X82707237Y-22896298D01*
X82710150Y-22892904D01*
X82713078Y-22889522D01*
X82716021Y-22886154D01*
X82718979Y-22882799D01*
X82721952Y-22879457D01*
X82724939Y-22876129D01*
X82727942Y-22872814D01*
X82730959Y-22869512D01*
X82733992Y-22866224D01*
X82737039Y-22862950D01*
X82740101Y-22859689D01*
X82743176Y-22856442D01*
X82746267Y-22853208D01*
X82749372Y-22849989D01*
X82752492Y-22846783D01*
X82755865Y-22843349D01*
X83052338Y-22636097D02*
X83060489Y-22632420D01*
X83068673Y-22628816D01*
X83076889Y-22625285D01*
X83085136Y-22621828D01*
X83093414Y-22618445D01*
X83101722Y-22615136D01*
X83110059Y-22611902D01*
X83118425Y-22608742D01*
X83126819Y-22605657D01*
X83135241Y-22602647D01*
X83143689Y-22599712D01*
X83152163Y-22596853D01*
X83160662Y-22594070D01*
X83169186Y-22591363D01*
X83177734Y-22588732D01*
X83186306Y-22586178D01*
X83194900Y-22583701D01*
X83203516Y-22581300D01*
X83212153Y-22578977D01*
X83220811Y-22576731D01*
X83229488Y-22574562D01*
X83233834Y-22573507D01*
X83238185Y-22572471D01*
X83242540Y-22571455D01*
X83246900Y-22570458D01*
X83251264Y-22569481D01*
X83255633Y-22568523D01*
X83260006Y-22567585D01*
X83264383Y-22566667D01*
X83268764Y-22565768D01*
X83273149Y-22564888D01*
X83277538Y-22564028D01*
X83281931Y-22563188D01*
X83286328Y-22562367D01*
X83290728Y-22561567D01*
X83295132Y-22560785D01*
X83299539Y-22560024D01*
X83303950Y-22559282D01*
X83308364Y-22558560D01*
X83312781Y-22557858D01*
X83317201Y-22557175D01*
X83321624Y-22556512D01*
X83326051Y-22555869D01*
X83330479Y-22555246D01*
X83334911Y-22554643D01*
X83339346Y-22554059D01*
X83343783Y-22553495D01*
X83348222Y-22552952D01*
X83352664Y-22552428D01*
X83357108Y-22551924D01*
X83361555Y-22551439D01*
X83366004Y-22550975D01*
X83370455Y-22550530D01*
X83374907Y-22550106D01*
X83379362Y-22549701D01*
X83383818Y-22549317D01*
X83388276Y-22548952D01*
X83392736Y-22548607D01*
X83397197Y-22548282D01*
X83403146Y-22547880D01*
D11*
X92475457Y-24589125D02*
G75*
G02*
X90625457Y-24589125I-925000J0D01*
G01*
X90625457Y-24589125D02*
G75*
G02*
X92475457Y-24589125I925000J0D01*
G01*
D10*
X91550457Y-22339125D02*
X91630088Y-22339135D01*
X91709750Y-22339166D01*
X91787295Y-22339216D01*
X91864867Y-22339287D01*
X91940529Y-22339376D01*
X92016213Y-22339485D01*
X92090162Y-22339613D01*
X92164128Y-22339761D01*
X92236505Y-22339926D01*
X92308898Y-22340111D01*
X92379826Y-22340313D01*
X92450767Y-22340535D01*
X92520352Y-22340773D01*
X92589947Y-22341032D01*
X92658282Y-22341306D01*
X92726624Y-22341601D01*
X92793789Y-22341910D01*
X92860959Y-22342240D01*
X92927025Y-22342585D01*
X92993096Y-22342950D01*
X93058128Y-22343330D01*
X93123163Y-22343729D01*
X93187217Y-22344143D01*
X93251273Y-22344578D01*
X93314401Y-22345026D01*
X93377529Y-22345494D01*
X93439777Y-22345976D01*
X93502024Y-22346479D01*
X93563435Y-22346994D01*
X93624843Y-22347530D01*
X93685455Y-22348079D01*
X93746062Y-22348649D01*
X93805909Y-22349231D01*
X93865751Y-22349833D01*
X93924866Y-22350449D01*
X93983975Y-22351084D01*
X94042387Y-22351732D01*
X94100792Y-22352400D01*
X94158529Y-22353081D01*
X94216258Y-22353782D01*
X94273344Y-22354495D01*
X94330422Y-22355228D01*
X94386882Y-22355974D01*
X94443332Y-22356739D01*
X94499187Y-22357517D01*
X94555031Y-22358314D01*
X94610301Y-22359124D01*
X94665560Y-22359953D01*
X94720264Y-22360795D01*
X94774957Y-22361656D01*
X94829113Y-22362529D01*
X94883256Y-22363422D01*
X94936881Y-22364326D01*
X94990492Y-22365251D01*
X95043601Y-22366187D01*
X95096696Y-22367143D01*
X95149304Y-22368110D01*
X95201897Y-22369097D01*
X95262168Y-22370253D01*
D11*
X100633317Y-31447189D02*
X100633317Y-23545801D01*
X131008470Y-32947189D02*
X102133317Y-32947189D01*
D10*
X150765133Y-42922377D02*
X150787353Y-42952455D01*
X150809469Y-42982526D01*
X150831480Y-43012589D01*
X150853387Y-43042646D01*
X150875191Y-43072697D01*
X150896892Y-43102741D01*
X150918491Y-43132779D01*
X150939987Y-43162812D01*
X150961381Y-43192840D01*
X150982674Y-43222863D01*
X151003867Y-43252882D01*
X151024959Y-43282897D01*
X151045950Y-43312908D01*
X151066843Y-43342917D01*
X151087636Y-43372922D01*
X151108331Y-43402925D01*
X151128927Y-43432926D01*
X151149426Y-43462926D01*
X151169827Y-43492925D01*
X151190131Y-43522923D01*
X151210340Y-43552922D01*
X151230452Y-43582920D01*
X151250469Y-43612920D01*
X151270391Y-43642921D01*
X151290218Y-43672924D01*
X151309952Y-43702929D01*
X151329591Y-43732937D01*
X151349138Y-43762949D01*
X151368593Y-43792965D01*
X151387955Y-43822985D01*
X151407226Y-43853011D01*
X151426406Y-43883043D01*
X151445496Y-43913081D01*
X151464495Y-43943126D01*
X151483406Y-43973179D01*
X151502227Y-44003241D01*
X151520960Y-44033312D01*
X151539605Y-44063392D01*
X151558163Y-44093484D01*
X151576635Y-44123587D01*
X151595020Y-44153702D01*
X151613320Y-44183830D01*
X151631535Y-44213971D01*
X151649666Y-44244128D01*
X151667713Y-44274300D01*
X151685677Y-44304488D01*
X151703559Y-44334694D01*
X151721359Y-44364918D01*
X151739077Y-44395161D01*
X151756716Y-44425425D01*
X151774274Y-44455710D01*
X151791754Y-44486018D01*
X151809155Y-44516349D01*
X151826478Y-44546705D01*
X151843724Y-44577087D01*
X151860895Y-44607496D01*
X151877990Y-44637934D01*
X151895010Y-44668401D01*
X151911956Y-44698900D01*
X151928830Y-44729431D01*
X151945631Y-44759997D01*
X151962361Y-44790598D01*
X151979021Y-44821237D01*
X151995611Y-44851914D01*
X152012133Y-44882633D01*
X152028587Y-44913394D01*
X152044974Y-44944199D01*
X152061296Y-44975050D01*
X152077554Y-45005950D01*
X152093748Y-45036901D01*
X152109880Y-45067904D01*
X152125951Y-45098963D01*
X152141962Y-45130079D01*
X152157914Y-45161255D01*
X152173809Y-45192494D01*
X152189648Y-45223798D01*
X152205433Y-45255171D01*
X152221164Y-45286615D01*
X152236844Y-45318135D01*
X152252474Y-45349732D01*
X152268056Y-45381412D01*
X152283591Y-45413177D01*
X152299082Y-45445032D01*
X152314530Y-45476980D01*
X152329937Y-45509027D01*
X152345305Y-45541178D01*
X152360637Y-45573436D01*
X152375935Y-45605808D01*
X152391202Y-45638299D01*
X152406440Y-45670916D01*
X152421651Y-45703665D01*
X152436840Y-45736553D01*
X152452008Y-45769587D01*
X152467160Y-45802775D01*
X152482300Y-45836127D01*
X152497430Y-45869651D01*
X152512556Y-45903358D01*
X152527681Y-45937258D01*
X152542811Y-45971363D01*
X152557952Y-46005687D01*
X152571617Y-46036835D01*
X101105544Y-70800833D02*
X101099449Y-70809934D01*
X101093421Y-70819079D01*
X101087460Y-70828268D01*
X101081567Y-70837500D01*
X101075740Y-70846776D01*
X101069982Y-70856093D01*
X101064292Y-70865452D01*
X101058670Y-70874853D01*
X101053117Y-70884295D01*
X101047633Y-70893777D01*
X101042218Y-70903298D01*
X101036873Y-70912860D01*
X101031598Y-70922460D01*
X101026393Y-70932098D01*
X101021259Y-70941774D01*
X101016195Y-70951488D01*
X101011203Y-70961238D01*
X101006281Y-70971025D01*
X101001432Y-70980847D01*
X100996654Y-70990704D01*
X100994292Y-70995646D01*
X100991948Y-71000597D01*
X100989622Y-71005556D01*
X100987314Y-71010523D01*
X100985025Y-71015499D01*
X100982754Y-71020483D01*
X100980500Y-71025476D01*
X100978266Y-71030476D01*
X100976049Y-71035485D01*
X100973851Y-71040502D01*
X100971671Y-71045527D01*
X100969509Y-71050560D01*
X100967366Y-71055600D01*
X100965241Y-71060649D01*
X100963134Y-71065705D01*
X100961046Y-71070769D01*
X100958977Y-71075840D01*
X100956926Y-71080920D01*
X100954894Y-71086006D01*
X100952880Y-71091100D01*
X100950885Y-71096201D01*
X100948908Y-71101310D01*
X100946951Y-71106425D01*
X100945011Y-71111548D01*
X100943091Y-71116678D01*
X100941189Y-71121815D01*
X100939306Y-71126959D01*
X100937442Y-71132109D01*
X100935597Y-71137267D01*
X100933770Y-71142431D01*
X100931963Y-71147602D01*
X100930174Y-71152779D01*
X100928404Y-71157963D01*
X100926653Y-71163153D01*
X100924921Y-71168350D01*
X100923208Y-71173553D01*
X100921515Y-71178762D01*
X100919840Y-71183978D01*
X100918184Y-71189199D01*
X100916547Y-71194427D01*
X100914448Y-71201231D01*
X54246544Y-81150619D02*
X54230841Y-81116527D01*
X54215423Y-81083103D01*
X54200529Y-81050861D01*
X54185902Y-81019247D01*
X54171761Y-80988731D01*
X54157872Y-80958805D01*
X54144434Y-80929899D01*
X54131233Y-80901548D01*
X54118450Y-80874146D01*
X54105890Y-80847267D01*
X54093719Y-80821269D01*
X54081757Y-80795764D01*
X54070158Y-80771079D01*
X54058754Y-80746859D01*
X54047688Y-80723402D01*
X54036807Y-80700383D01*
X54026238Y-80678073D01*
X54015843Y-80656176D01*
X54005740Y-80634940D01*
X53995800Y-80614093D01*
X53986130Y-80593860D01*
X53976614Y-80573996D01*
X53967349Y-80554701D01*
X53958229Y-80535755D01*
X53949341Y-80517337D01*
X53940591Y-80499248D01*
X53932055Y-80481650D01*
X53923648Y-80464363D01*
X53915439Y-80447531D01*
X53907352Y-80430992D01*
X53899448Y-80414874D01*
X53891659Y-80399034D01*
X53884037Y-80383582D01*
X53876524Y-80368392D01*
X53869164Y-80353560D01*
X53861906Y-80338976D01*
X53854789Y-80324720D01*
X53847767Y-80310700D01*
X53840872Y-80296978D01*
X53834067Y-80283480D01*
X53827377Y-80270253D01*
X53820771Y-80257237D01*
X53814268Y-80244467D01*
X53807844Y-80231896D01*
X53801510Y-80219546D01*
X53795250Y-80207383D01*
X53789069Y-80195416D01*
X53782956Y-80183627D01*
X53776910Y-80172008D01*
X53770929Y-80160557D01*
X53765001Y-80149251D01*
X53759134Y-80138104D01*
X53753308Y-80127077D01*
X53747539Y-80116199D01*
X53741797Y-80105417D01*
X53736108Y-80094774D01*
X53724805Y-80073757D01*
X53713594Y-80053076D01*
X53702434Y-80032654D01*
X53691280Y-80012409D01*
X53680085Y-79992250D01*
X53668791Y-79972078D01*
X53657335Y-79951775D01*
X53645637Y-79931203D01*
X53633600Y-79910192D01*
X53621095Y-79888522D01*
X53607949Y-79865897D01*
X53603820Y-79858821D01*
X50642011Y-77077852D02*
X50617598Y-77069018D01*
X50593578Y-77060350D01*
X50571742Y-77052492D01*
X50550225Y-77044771D01*
X50530346Y-77037659D01*
X50510733Y-77030665D01*
X50492408Y-77024152D01*
X50474311Y-77017742D01*
X50457259Y-77011724D01*
X50440406Y-77005798D01*
X50424423Y-77000200D01*
X50408614Y-76994684D01*
X50393541Y-76989447D01*
X50378623Y-76984285D01*
X50364338Y-76979364D01*
X50350191Y-76974512D01*
X50336593Y-76969869D01*
X50323119Y-76965291D01*
X50310127Y-76960897D01*
X50297246Y-76956563D01*
X50284791Y-76952394D01*
X50272436Y-76948279D01*
X50260460Y-76944312D01*
X50248575Y-76940396D01*
X50237028Y-76936613D01*
X50225564Y-76932879D01*
X50214403Y-76929264D01*
X50203317Y-76925695D01*
X50192504Y-76922235D01*
X50181759Y-76918818D01*
X50171260Y-76915501D01*
X50160824Y-76912224D01*
X50150610Y-76909039D01*
X50140453Y-76905892D01*
X50130497Y-76902829D01*
X50120593Y-76899802D01*
X50110871Y-76896853D01*
X50101196Y-76893938D01*
X50091686Y-76891095D01*
X50082219Y-76888285D01*
X50072901Y-76885541D01*
X50063621Y-76882828D01*
X50054477Y-76880177D01*
X50045367Y-76877556D01*
X50036379Y-76874991D01*
X50027422Y-76872456D01*
X50018575Y-76869973D01*
X50009756Y-76867519D01*
X50001035Y-76865112D01*
X49992338Y-76862734D01*
X49983729Y-76860400D01*
X49975141Y-76858093D01*
X49966631Y-76855827D01*
X49958139Y-76853587D01*
X49949716Y-76851386D01*
X49941308Y-76849209D01*
X49932959Y-76847069D01*
X49924623Y-76844953D01*
X49916338Y-76842870D01*
X49908062Y-76840810D01*
X49899829Y-76838782D01*
X49891604Y-76836776D01*
X49883412Y-76834799D01*
X49875226Y-76832843D01*
X49867066Y-76830915D01*
X49858909Y-76829008D01*
X49850770Y-76827126D01*
X49842632Y-76825264D01*
X49834505Y-76823426D01*
X49826375Y-76821607D01*
X49818250Y-76819810D01*
X49810120Y-76818033D01*
X49801986Y-76816275D01*
X49793845Y-76814536D01*
X49777533Y-76811113D01*
X49761162Y-76807759D01*
X49744715Y-76804471D01*
X49728169Y-76801246D01*
X49711506Y-76798079D01*
X49694704Y-76794967D01*
X49677741Y-76791906D01*
X49660596Y-76788895D01*
X49643245Y-76785928D01*
X49625664Y-76783003D01*
X49607828Y-76780117D01*
X49589710Y-76777266D01*
X49571283Y-76774448D01*
X49552515Y-76771658D01*
X49533377Y-76768894D01*
X49513832Y-76766153D01*
X49493845Y-76763430D01*
X49473376Y-76760722D01*
X49452382Y-76758026D01*
X49430815Y-76755336D01*
X49408624Y-76752650D01*
X49385752Y-76749961D01*
X49362137Y-76747266D01*
X49337706Y-76744558D01*
X49312382Y-76741831D01*
X49286075Y-76739079D01*
X49258683Y-76736293D01*
X49230089Y-76733466D01*
X49200156Y-76730586D01*
X49168726Y-76727642D01*
X49135609Y-76724621D01*
X49100576Y-76721504D01*
X49093948Y-76720923D01*
X55766186Y-87723620D02*
X55769489Y-87739775D01*
X55772820Y-87755962D01*
X55776162Y-87772106D01*
X55779531Y-87788281D01*
X55782912Y-87804414D01*
X55786319Y-87820579D01*
X55789739Y-87836703D01*
X55793186Y-87852858D01*
X55796645Y-87868974D01*
X55800132Y-87885120D01*
X55803630Y-87901228D01*
X55807156Y-87917366D01*
X55810694Y-87933467D01*
X55814259Y-87949597D01*
X55817837Y-87965692D01*
X55821441Y-87981816D01*
X55825059Y-87997905D01*
X55828704Y-88014024D01*
X55832361Y-88030108D01*
X55836046Y-88046221D01*
X55839744Y-88062301D01*
X55843469Y-88078410D01*
X55847207Y-88094486D01*
X55850973Y-88110591D01*
X55857385Y-88137817D01*
D11*
X31712247Y-85516480D02*
X41192964Y-85516480D01*
D10*
X99971105Y-76665947D02*
X99980399Y-76650691D01*
X99989711Y-76635445D01*
X99999038Y-76620212D01*
X100008382Y-76604989D01*
X100017741Y-76589779D01*
X100027118Y-76574580D01*
X100036510Y-76559394D01*
X100045919Y-76544218D01*
X100055344Y-76529055D01*
X100064785Y-76513903D01*
X100074242Y-76498764D01*
X100083716Y-76483636D01*
X100084698Y-76482070D01*
X91813643Y-82655999D02*
X91783559Y-82655339D01*
X91753474Y-82654759D01*
X91723390Y-82654259D01*
X91693305Y-82653839D01*
X91663221Y-82653499D01*
X91633137Y-82653239D01*
X91603055Y-82653059D01*
X91572973Y-82652959D01*
X91553420Y-82652937D01*
D11*
X147186367Y-39181685D02*
X140983664Y-35612383D01*
X80967597Y-32947189D02*
X52092444Y-32947189D01*
D10*
X56659274Y-90522652D02*
X56672750Y-90553072D01*
X56686299Y-90583460D01*
X56699922Y-90613815D01*
X56713617Y-90644137D01*
X56727385Y-90674426D01*
X56741226Y-90704683D01*
X56755140Y-90734906D01*
X56769127Y-90765096D01*
X56783187Y-90795253D01*
X56797319Y-90825377D01*
X56811524Y-90855466D01*
X56825801Y-90885522D01*
X56840151Y-90915544D01*
X56854573Y-90945533D01*
X56869067Y-90975486D01*
X56883634Y-91005406D01*
X56898273Y-91035291D01*
X56912984Y-91065142D01*
X56927767Y-91094958D01*
X56942622Y-91124739D01*
X56957550Y-91154485D01*
X56972549Y-91184196D01*
X56987620Y-91213872D01*
X57002762Y-91243512D01*
X57017977Y-91273117D01*
X57033263Y-91302687D01*
X57048620Y-91332220D01*
X57064049Y-91361718D01*
X57079550Y-91391180D01*
X57095122Y-91420605D01*
X57110765Y-91449994D01*
X57126480Y-91479347D01*
X57142265Y-91508663D01*
X57158122Y-91537943D01*
X57174050Y-91567186D01*
X57190049Y-91596392D01*
X57190279Y-91596811D01*
D11*
X82467597Y-31447189D02*
G75*
G02*
X80967597Y-32947197I-1499997J-11D01*
G01*
X64650457Y-37484400D02*
X64650457Y-34884400D01*
X124707899Y-72150615D02*
X128530983Y-72150615D01*
D10*
X87417783Y-83416617D02*
X87389760Y-83427520D01*
X87361767Y-83438498D01*
X87333802Y-83449550D01*
X87305867Y-83460676D01*
X87277962Y-83471877D01*
X87250087Y-83483151D01*
X87222242Y-83494500D01*
X87194427Y-83505923D01*
X87166643Y-83517420D01*
X87138890Y-83528991D01*
X87111167Y-83540635D01*
X87083475Y-83552354D01*
X87055815Y-83564146D01*
X87028186Y-83576011D01*
X87000589Y-83587950D01*
X86973023Y-83599962D01*
X86945490Y-83612048D01*
X86917988Y-83624207D01*
X86890520Y-83636439D01*
X86863083Y-83648744D01*
X86835680Y-83661122D01*
X86808309Y-83673573D01*
X86780972Y-83686096D01*
X86753668Y-83698693D01*
X86726398Y-83711362D01*
X86699161Y-83724103D01*
X86671958Y-83736917D01*
X86644790Y-83749803D01*
X86617655Y-83762762D01*
X86590556Y-83775793D01*
X86563491Y-83788895D01*
X86536461Y-83802070D01*
X86509465Y-83815317D01*
X86482506Y-83828635D01*
X86455581Y-83842026D01*
X86428693Y-83855487D01*
X86401840Y-83869021D01*
X86375023Y-83882625D01*
X86348242Y-83896301D01*
X86321498Y-83910049D01*
X86294791Y-83923867D01*
X86268120Y-83937757D01*
X86241486Y-83951717D01*
X86214889Y-83965748D01*
X86188330Y-83979850D01*
X86161809Y-83994023D01*
X86135325Y-84008266D01*
X86108879Y-84022579D01*
X86082471Y-84036963D01*
X86056101Y-84051417D01*
X86029770Y-84065941D01*
X86003477Y-84080536D01*
X85977224Y-84095200D01*
X85951009Y-84109934D01*
X85924834Y-84124738D01*
X85898698Y-84139611D01*
X85872602Y-84154554D01*
X85846546Y-84169566D01*
X85820529Y-84184647D01*
X85794553Y-84199798D01*
X85768617Y-84215018D01*
X85742722Y-84230306D01*
X85716867Y-84245664D01*
X85691054Y-84261090D01*
X85665281Y-84276585D01*
X85639550Y-84292149D01*
X85613860Y-84307780D01*
X85588212Y-84323481D01*
X85575403Y-84331356D01*
X85562605Y-84339249D01*
X85549818Y-84347159D01*
X85537041Y-84355085D01*
X85524275Y-84363029D01*
X85511519Y-84370990D01*
X85498774Y-84378967D01*
X85486039Y-84386962D01*
X85473316Y-84394973D01*
X85460602Y-84403002D01*
X85447900Y-84411047D01*
X85435208Y-84419109D01*
X85422527Y-84427188D01*
X85409856Y-84435284D01*
X85397197Y-84443397D01*
X85384548Y-84451527D01*
X85371910Y-84459673D01*
X85359283Y-84467837D01*
X85346667Y-84476017D01*
X85334062Y-84484214D01*
X85321467Y-84492427D01*
X85308884Y-84500658D01*
X85296311Y-84508905D01*
X85283750Y-84517168D01*
X85271199Y-84525449D01*
X85258659Y-84533746D01*
X85246131Y-84542060D01*
X85233614Y-84550390D01*
X85221107Y-84558737D01*
X85208612Y-84567101D01*
X85196128Y-84575482D01*
X85183655Y-84583879D01*
X85171194Y-84592292D01*
X85158743Y-84600722D01*
X85146304Y-84609169D01*
X85133876Y-84617632D01*
X85121459Y-84626112D01*
X85109054Y-84634608D01*
X85096659Y-84643121D01*
X85084277Y-84651650D01*
X85071905Y-84660196D01*
X85059545Y-84668758D01*
X85047197Y-84677336D01*
X85034859Y-84685932D01*
X85022534Y-84694543D01*
X85010219Y-84703171D01*
X84997916Y-84711815D01*
X84985625Y-84720475D01*
X84973345Y-84729152D01*
X84961077Y-84737845D01*
X84948821Y-84746555D01*
X84936575Y-84755280D01*
X84924342Y-84764022D01*
X84912120Y-84772781D01*
X84899910Y-84781555D01*
X84887712Y-84790346D01*
X84875525Y-84799153D01*
X84863350Y-84807976D01*
X84851187Y-84816815D01*
X84839035Y-84825671D01*
X84826896Y-84834543D01*
X84814768Y-84843431D01*
X84802652Y-84852334D01*
X84790548Y-84861255D01*
X84778456Y-84870191D01*
X84766375Y-84879143D01*
X84754307Y-84888111D01*
X84742250Y-84897095D01*
X84730206Y-84906096D01*
X84718173Y-84915112D01*
X84706153Y-84924144D01*
X84694144Y-84933193D01*
X84682148Y-84942257D01*
X84670163Y-84951337D01*
X84658191Y-84960433D01*
X84646231Y-84969545D01*
X84634283Y-84978673D01*
X84622347Y-84987817D01*
X84610424Y-84996977D01*
X84598512Y-85006153D01*
X84586613Y-85015344D01*
X84574726Y-85024551D01*
X84562851Y-85033774D01*
X84550989Y-85043013D01*
X84539139Y-85052267D01*
X84527301Y-85061538D01*
X84515475Y-85070824D01*
X84503662Y-85080126D01*
X84491862Y-85089443D01*
X84480073Y-85098776D01*
X84468297Y-85108125D01*
X84456534Y-85117490D01*
X84444783Y-85126870D01*
X84433044Y-85136266D01*
X84421319Y-85145677D01*
X84409605Y-85155104D01*
X84397904Y-85164546D01*
X84386216Y-85174004D01*
X84374540Y-85183478D01*
X84362877Y-85192967D01*
X84351227Y-85202472D01*
X84339589Y-85211992D01*
X84327964Y-85221527D01*
X84316351Y-85231079D01*
X84304752Y-85240645D01*
X84293164Y-85250227D01*
X84281590Y-85259824D01*
X84270029Y-85269437D01*
X84258480Y-85279065D01*
X84246944Y-85288709D01*
X84235421Y-85298367D01*
X84223911Y-85308042D01*
X84212414Y-85317731D01*
X84200929Y-85327436D01*
X84189458Y-85337155D01*
X84177999Y-85346891D01*
X84166554Y-85356641D01*
X84155121Y-85366407D01*
X84143702Y-85376188D01*
X84132295Y-85385984D01*
X84120902Y-85395795D01*
X84109521Y-85405622D01*
X84098154Y-85415463D01*
X84086799Y-85425320D01*
X84075458Y-85435192D01*
X84064130Y-85445079D01*
X84052815Y-85454980D01*
X84041513Y-85464898D01*
X84030225Y-85474829D01*
X84018949Y-85484777D01*
X84007687Y-85494739D01*
X83996438Y-85504716D01*
X83985203Y-85514708D01*
X83973980Y-85524715D01*
X83962771Y-85534736D01*
X83951575Y-85544774D01*
X83940393Y-85554825D01*
X83929224Y-85564892D01*
X83918069Y-85574973D01*
X83906926Y-85585070D01*
X83895798Y-85595180D01*
X83884682Y-85605307D01*
X83879779Y-85609782D01*
X55260910Y-85395036D02*
X55194155Y-85018850D01*
X55165934Y-84859931D01*
X55140720Y-84718061D01*
X55121590Y-84610538D01*
X55104167Y-84512745D01*
X55090706Y-84437304D01*
X55078199Y-84367339D01*
X55067709Y-84308769D01*
X55057811Y-84253627D01*
X55049053Y-84204949D01*
X55040671Y-84158474D01*
X55032914Y-84115582D01*
X55025384Y-84074052D01*
X55018108Y-84034039D01*
X55010938Y-83994720D01*
X55002663Y-83949471D01*
D11*
X131008470Y-32947189D02*
G75*
G02*
X140983672Y-35612369I30J-20000011D01*
G01*
D10*
X91553420Y-82652937D02*
X91523337Y-82652842D01*
X91493254Y-82652828D01*
X91463172Y-82652893D01*
X91433090Y-82653038D01*
X91403010Y-82653264D01*
X91372930Y-82653569D01*
X91342852Y-82653954D01*
X91312775Y-82654420D01*
X91282699Y-82654965D01*
X91252626Y-82655590D01*
X91222555Y-82656295D01*
X91192486Y-82657080D01*
X91162419Y-82657945D01*
X91132355Y-82658891D01*
X91102294Y-82659916D01*
X91072236Y-82661020D01*
X91042182Y-82662205D01*
X91012131Y-82663470D01*
X90982084Y-82664815D01*
X90952040Y-82666239D01*
X90922001Y-82667744D01*
X90891966Y-82669328D01*
X90861936Y-82670992D01*
X90831910Y-82672736D01*
X90801889Y-82674560D01*
X90771874Y-82676464D01*
X90741864Y-82678447D01*
X90711859Y-82680511D01*
X90681861Y-82682654D01*
X90651868Y-82684877D01*
X90621881Y-82687179D01*
X90591901Y-82689562D01*
X90561928Y-82692024D01*
X90531961Y-82694566D01*
X90502002Y-82697187D01*
X90472049Y-82699888D01*
X90442104Y-82702669D01*
X90412167Y-82705530D01*
X90382237Y-82708470D01*
X90352316Y-82711489D01*
X90322403Y-82714588D01*
X90292498Y-82717767D01*
X90262603Y-82721025D01*
X90232716Y-82724363D01*
X90202838Y-82727780D01*
X90172969Y-82731277D01*
X90143110Y-82734853D01*
X90113261Y-82738509D01*
X90083422Y-82742244D01*
X90053592Y-82746058D01*
X90023774Y-82749952D01*
X89993965Y-82753924D01*
X89964168Y-82757977D01*
X89934382Y-82762108D01*
X89904606Y-82766319D01*
X89874842Y-82770608D01*
X89845090Y-82774977D01*
X89815350Y-82779425D01*
X89785621Y-82783952D01*
X89755905Y-82788559D01*
X89726202Y-82793244D01*
X89696511Y-82798008D01*
X89666832Y-82802851D01*
X89637167Y-82807773D01*
X89607515Y-82812774D01*
X89592695Y-82815304D01*
X89577877Y-82817854D01*
X89563063Y-82820424D01*
X89548252Y-82823013D01*
X89533445Y-82825622D01*
X89518642Y-82828250D01*
X89503842Y-82830898D01*
X89489045Y-82833566D01*
X89474252Y-82836254D01*
X89459463Y-82838961D01*
X89444677Y-82841688D01*
X89429895Y-82844435D01*
X89415117Y-82847201D01*
X89400342Y-82849987D01*
X89385571Y-82852793D01*
X89370804Y-82855618D01*
X89356041Y-82858463D01*
X89341281Y-82861327D01*
X89326525Y-82864211D01*
X89311773Y-82867115D01*
X89297025Y-82870038D01*
X89282281Y-82872981D01*
X89267541Y-82875944D01*
X89252805Y-82878926D01*
X89238073Y-82881928D01*
X89223345Y-82884949D01*
X89208621Y-82887990D01*
X89193900Y-82891051D01*
X89179185Y-82894131D01*
X89164473Y-82897231D01*
X89149765Y-82900350D01*
X89135062Y-82903489D01*
X89120362Y-82906647D01*
X89105667Y-82909825D01*
X89090976Y-82913022D01*
X89076290Y-82916239D01*
X89061608Y-82919476D01*
X89046930Y-82922732D01*
X89032256Y-82926008D01*
X89017587Y-82929303D01*
X89002922Y-82932617D01*
X88988262Y-82935951D01*
X88973606Y-82939305D01*
X88958954Y-82942678D01*
X88944308Y-82946071D01*
X88929665Y-82949483D01*
X88915027Y-82952914D01*
X88900394Y-82956365D01*
X88885766Y-82959836D01*
X88871141Y-82963326D01*
X88856522Y-82966835D01*
X88841907Y-82970364D01*
X88827298Y-82973912D01*
X88812692Y-82977480D01*
X88798092Y-82981067D01*
X88783496Y-82984674D01*
X88768905Y-82988299D01*
X88754319Y-82991945D01*
X88739738Y-82995610D01*
X88725162Y-82999294D01*
X88710591Y-83002997D01*
X88696024Y-83006720D01*
X88681463Y-83010463D01*
X88666906Y-83014224D01*
X88652355Y-83018005D01*
X88637808Y-83021806D01*
X88623267Y-83025625D01*
X88608731Y-83029465D01*
X88594200Y-83033323D01*
X88579674Y-83037201D01*
X88565153Y-83041098D01*
X88550637Y-83045014D01*
X88536127Y-83048950D01*
X88521622Y-83052905D01*
X88507122Y-83056879D01*
X88492627Y-83060873D01*
X88478138Y-83064886D01*
X88463654Y-83068918D01*
X88449175Y-83072969D01*
X88434702Y-83077040D01*
X88420234Y-83081130D01*
X88405772Y-83085239D01*
X88391315Y-83089367D01*
X88376864Y-83093515D01*
X88362418Y-83097682D01*
X88347977Y-83101868D01*
X88333543Y-83106073D01*
X88319113Y-83110298D01*
X88304690Y-83114541D01*
X88290272Y-83118804D01*
X88275860Y-83123086D01*
X88261453Y-83127388D01*
X88247053Y-83131708D01*
X88232657Y-83136048D01*
X88218268Y-83140406D01*
X88203884Y-83144784D01*
X88189507Y-83149181D01*
X88175135Y-83153597D01*
X88160769Y-83158033D01*
X88146408Y-83162487D01*
X88132054Y-83166960D01*
X88117706Y-83171453D01*
X88103364Y-83175965D01*
X88089027Y-83180496D01*
X88074697Y-83185045D01*
X88060372Y-83189614D01*
X88046055Y-83194202D01*
X88031742Y-83198809D01*
X88017436Y-83203435D01*
X88003136Y-83208080D01*
X87988843Y-83212745D01*
X87974555Y-83217428D01*
X87960274Y-83222130D01*
X87945998Y-83226851D01*
X87931730Y-83231591D01*
X87917467Y-83236351D01*
X87903211Y-83241129D01*
X87888960Y-83245926D01*
X87874717Y-83250742D01*
X87860479Y-83255577D01*
X87846249Y-83260431D01*
X87832024Y-83265304D01*
X87817806Y-83270196D01*
X87803595Y-83275107D01*
X87789390Y-83280036D01*
X87775191Y-83284985D01*
X87760999Y-83289953D01*
X87746814Y-83294939D01*
X87732635Y-83299944D01*
X87718463Y-83304969D01*
X87704297Y-83310012D01*
X87690138Y-83315074D01*
X87675986Y-83320154D01*
X87661840Y-83325254D01*
X87647702Y-83330372D01*
X87633570Y-83335510D01*
X87619445Y-83340666D01*
X87605326Y-83345841D01*
X87591215Y-83351034D01*
X87577110Y-83356247D01*
X87563012Y-83361478D01*
X87548921Y-83366728D01*
X87534837Y-83371997D01*
X87520760Y-83377285D01*
X87506690Y-83382591D01*
X87492627Y-83387916D01*
X87478571Y-83393260D01*
X87464521Y-83398623D01*
X87450480Y-83404004D01*
X87436444Y-83409404D01*
X87417783Y-83416617D01*
X110466524Y-69046286D02*
X110498078Y-69044453D01*
X110529639Y-69042640D01*
X110561013Y-69040858D01*
X110592394Y-69039096D01*
X110623590Y-69037364D01*
X110654793Y-69035652D01*
X110685815Y-69033970D01*
X110716844Y-69032308D01*
X110747695Y-69030675D01*
X110778551Y-69029062D01*
X110809234Y-69027479D01*
X110839921Y-69025915D01*
X110870438Y-69024380D01*
X110900959Y-69022865D01*
X110931312Y-69021378D01*
X110961669Y-69019912D01*
X110991862Y-69018473D01*
X111022058Y-69017054D01*
X111052092Y-69015663D01*
X111082129Y-69014292D01*
X111112006Y-69012949D01*
X111141887Y-69011625D01*
X111171610Y-69010328D01*
X111201337Y-69009052D01*
X111230908Y-69007802D01*
X111260482Y-69006572D01*
X111289904Y-69005369D01*
X111319328Y-69004185D01*
X111348602Y-69003028D01*
X111377878Y-69001891D01*
X111407005Y-69000779D01*
X111436135Y-68999688D01*
X111465119Y-68998622D01*
X111494104Y-68997576D01*
X111522945Y-68996555D01*
X111551788Y-68995555D01*
X111580489Y-68994579D01*
X111609191Y-68993624D01*
X111637753Y-68992693D01*
X111666316Y-68991783D01*
X111694741Y-68990896D01*
X111723166Y-68990030D01*
X111751456Y-68989188D01*
X111779745Y-68988367D01*
X111807901Y-68987569D01*
X111836056Y-68986791D01*
X111864079Y-68986037D01*
X111892101Y-68985303D01*
X111919993Y-68984593D01*
X111947884Y-68983902D01*
X111975646Y-68983235D01*
X112003408Y-68982588D01*
X112031041Y-68981964D01*
X112058674Y-68981360D01*
X112086181Y-68980779D01*
X112113687Y-68980219D01*
X112141068Y-68979680D01*
X112168448Y-68979162D01*
X112195705Y-68978666D01*
X112222960Y-68978190D01*
X112250094Y-68977737D01*
X112277226Y-68977303D01*
X112304238Y-68976892D01*
X112331248Y-68976501D01*
X112358139Y-68976131D01*
X112385028Y-68975782D01*
X112411800Y-68975454D01*
X112438569Y-68975146D01*
X112465222Y-68974860D01*
X112491872Y-68974593D01*
X112518408Y-68974348D01*
X112544941Y-68974123D01*
X112571361Y-68973919D01*
X112597777Y-68973735D01*
X112624081Y-68973572D01*
X112650382Y-68973429D01*
X112676572Y-68973307D01*
X112702759Y-68973205D01*
X112728835Y-68973123D01*
X112754908Y-68973061D01*
X112780873Y-68973020D01*
X112806834Y-68972999D01*
X112832687Y-68972997D01*
X112858536Y-68973016D01*
X112884278Y-68973055D01*
X112910017Y-68973114D01*
X112935650Y-68973193D01*
X112961279Y-68973292D01*
X112986803Y-68973410D01*
X113012323Y-68973549D01*
X113037740Y-68973707D01*
X113063152Y-68973885D01*
X113088462Y-68974082D01*
X113113767Y-68974300D01*
X113138971Y-68974536D01*
X113164169Y-68974793D01*
X113189268Y-68975068D01*
X113214361Y-68975364D01*
X113239355Y-68975678D01*
X113264344Y-68976013D01*
X113289234Y-68976366D01*
X113314119Y-68976739D01*
X113338907Y-68977131D01*
X113363688Y-68977543D01*
X113388374Y-68977973D01*
X113413053Y-68978423D01*
X113437637Y-68978892D01*
X113462215Y-68979380D01*
X113486698Y-68979887D01*
X113511175Y-68980413D01*
X113535558Y-68980958D01*
X113559935Y-68981522D01*
X113584218Y-68982105D01*
X113608496Y-68982707D01*
X113632681Y-68983327D01*
X113656860Y-68983967D01*
X113680947Y-68984624D01*
X113705027Y-68985302D01*
X113729017Y-68985997D01*
X113753000Y-68986712D01*
X113776893Y-68987444D01*
X113800780Y-68988196D01*
X113824577Y-68988965D01*
X113848367Y-68989754D01*
X113872069Y-68990561D01*
X113895764Y-68991387D01*
X113919371Y-68992230D01*
X113942970Y-68993093D01*
X113966483Y-68993972D01*
X113989989Y-68994872D01*
X114013408Y-68995788D01*
X114036820Y-68996724D01*
X114060146Y-68997677D01*
X114083465Y-68998650D01*
X114106698Y-68999639D01*
X114129925Y-69000647D01*
X114153067Y-69001672D01*
X114176201Y-69002717D01*
X114199251Y-69003778D01*
X114222294Y-69004859D01*
X114245254Y-69005956D01*
X114268206Y-69007073D01*
X114291076Y-69008206D01*
X114313937Y-69009358D01*
X114336717Y-69010527D01*
X114359489Y-69011715D01*
X114382180Y-69012919D01*
X114404863Y-69014143D01*
X114427465Y-69015382D01*
X114450059Y-69016641D01*
X114472573Y-69017915D01*
X114495078Y-69019209D01*
X114517505Y-69020519D01*
X114539923Y-69021848D01*
X114562262Y-69023193D01*
X114584593Y-69024557D01*
X114606845Y-69025937D01*
X114629089Y-69027336D01*
X114651256Y-69028750D01*
X114673414Y-69030184D01*
X114695494Y-69031633D01*
X114717566Y-69033102D01*
X114739562Y-69034585D01*
X114761548Y-69036088D01*
X114783459Y-69037606D01*
X114805361Y-69039143D01*
X114827187Y-69040695D01*
X114849005Y-69042267D01*
X114870747Y-69043853D01*
X114892481Y-69045459D01*
X114914140Y-69047079D01*
X114935790Y-69048719D01*
X114957366Y-69050373D01*
X114978933Y-69052047D01*
X115000427Y-69053735D01*
X115021911Y-69055442D01*
X115043322Y-69057164D01*
X115064724Y-69058905D01*
X115086054Y-69060660D01*
X115107374Y-69062435D01*
X115128623Y-69064223D01*
X115149862Y-69066031D01*
X115171029Y-69067854D01*
X115192187Y-69069695D01*
X115213275Y-69071550D01*
X115234352Y-69073425D01*
X115255359Y-69075313D01*
X115276356Y-69077221D01*
X115297284Y-69079143D01*
X115318201Y-69081083D01*
X115339049Y-69083038D01*
X115359888Y-69085011D01*
X115380657Y-69086998D01*
X115401416Y-69089005D01*
X115422107Y-69091025D01*
X115442788Y-69093064D01*
X115463400Y-69095116D01*
X115484003Y-69097188D01*
X115504537Y-69099272D01*
X115525062Y-69101376D01*
X115545520Y-69103494D01*
X115565967Y-69105630D01*
X115586347Y-69107780D01*
X115606717Y-69109948D01*
X115627021Y-69112130D01*
X115647315Y-69114330D01*
X115667542Y-69116544D01*
X115687759Y-69118777D01*
X115707911Y-69121023D01*
X115728052Y-69123287D01*
X115748128Y-69125565D01*
X115768193Y-69127861D01*
X115788194Y-69130170D01*
X115808184Y-69132499D01*
X115828110Y-69134839D01*
X115848025Y-69137199D01*
X115867876Y-69139572D01*
X115887717Y-69141963D01*
X115907494Y-69144367D01*
X115927260Y-69146789D01*
X115946963Y-69149224D01*
X115966656Y-69151678D01*
X115986286Y-69154145D01*
X116005904Y-69156630D01*
X116025461Y-69159127D01*
X116045006Y-69161644D01*
X116064490Y-69164172D01*
X116083962Y-69166719D01*
X116103373Y-69169279D01*
X116122773Y-69171857D01*
X116142112Y-69174447D01*
X116161440Y-69177056D01*
X116180706Y-69179677D01*
X116199962Y-69182317D01*
X116219157Y-69184969D01*
X116238341Y-69187639D01*
X116257465Y-69190321D01*
X116276578Y-69193022D01*
X116295630Y-69195735D01*
X116314672Y-69198466D01*
X116333654Y-69201209D01*
X116352625Y-69203970D01*
X116371537Y-69206744D01*
X116390437Y-69209535D01*
X116409279Y-69212339D01*
X116428109Y-69215161D01*
X116446881Y-69217994D01*
X116465641Y-69220846D01*
X116484343Y-69223709D01*
X116503034Y-69226591D01*
X116521667Y-69229485D01*
X116540289Y-69232396D01*
X116558853Y-69235319D01*
X116577406Y-69238261D01*
X116595901Y-69241214D01*
X116614386Y-69244185D01*
X116632813Y-69247167D01*
X116651228Y-69250168D01*
X116669587Y-69253180D01*
X116687935Y-69256210D01*
X116706226Y-69259251D01*
X116724506Y-69262311D01*
X116742730Y-69265382D01*
X116760942Y-69268471D01*
X116779098Y-69271570D01*
X116797243Y-69274689D01*
X116815333Y-69277818D01*
X116833411Y-69280965D01*
X116851434Y-69284123D01*
X116869445Y-69287299D01*
X116887401Y-69290486D01*
X116905346Y-69293692D01*
X116923237Y-69296908D01*
X116941115Y-69300142D01*
X116958940Y-69303387D01*
X116976752Y-69306650D01*
X116994511Y-69309923D01*
X117012258Y-69313215D01*
X117029952Y-69316517D01*
X117047634Y-69319837D01*
X117065262Y-69323168D01*
X117082878Y-69326517D01*
X117100442Y-69329876D01*
X117117994Y-69333253D01*
X117135493Y-69336640D01*
X117152980Y-69340046D01*
X117170414Y-69343462D01*
X117187837Y-69346896D01*
X117205208Y-69350340D01*
X117222566Y-69353802D01*
X117239873Y-69357274D01*
X117257168Y-69360764D01*
X117274411Y-69364264D01*
X117291643Y-69367782D01*
X117308822Y-69371311D01*
X117325990Y-69374857D01*
X117343107Y-69378413D01*
X117360212Y-69381987D01*
X117377266Y-69385571D01*
X117394308Y-69389172D01*
X117411299Y-69392784D01*
X117428279Y-69396414D01*
X117445208Y-69400053D01*
X117462125Y-69403710D01*
X117478992Y-69407377D01*
X117495846Y-69411061D01*
X117512651Y-69414756D01*
X117529445Y-69418468D01*
X117546188Y-69422189D01*
X117562919Y-69425929D01*
X117579601Y-69429678D01*
X117596271Y-69433445D01*
X117612892Y-69437221D01*
X117629501Y-69441015D01*
X117652409Y-69446282D01*
X68162796Y-98737545D02*
X68195881Y-98740286D01*
X68228972Y-98742948D01*
X68262069Y-98745529D01*
X68295172Y-98748031D01*
X68328281Y-98750454D01*
X68361395Y-98752796D01*
X68394515Y-98755059D01*
X68427639Y-98757241D01*
X68460769Y-98759344D01*
X68493903Y-98761367D01*
X68527042Y-98763310D01*
X68560186Y-98765174D01*
X68593333Y-98766957D01*
X68626485Y-98768661D01*
X68659640Y-98770284D01*
X68692800Y-98771828D01*
X68725962Y-98773292D01*
X68759128Y-98774676D01*
X68792297Y-98775980D01*
X68825469Y-98777204D01*
X68858643Y-98778348D01*
X68891821Y-98779412D01*
X68925000Y-98780396D01*
X68958182Y-98781300D01*
X68991365Y-98782124D01*
X69024551Y-98782869D01*
X69057738Y-98783533D01*
X69090926Y-98784117D01*
X69124116Y-98784621D01*
X69157306Y-98785046D01*
X69190498Y-98785390D01*
X69223690Y-98785654D01*
X69256883Y-98785839D01*
X69290076Y-98785943D01*
X69323269Y-98785967D01*
X69356461Y-98785912D01*
X69389654Y-98785776D01*
X69422846Y-98785560D01*
X69456038Y-98785265D01*
X69489228Y-98784889D01*
X69522418Y-98784434D01*
X69555606Y-98783898D01*
X69588793Y-98783282D01*
X69621978Y-98782587D01*
X69655161Y-98781811D01*
X69688343Y-98780956D01*
X69721522Y-98780020D01*
X69754699Y-98779005D01*
X69787873Y-98777909D01*
X69821045Y-98776734D01*
X69854213Y-98775479D01*
X69887378Y-98774144D01*
X69920540Y-98772729D01*
X69953699Y-98771233D01*
X69986854Y-98769659D01*
X70020005Y-98768004D01*
X70053151Y-98766269D01*
X70086294Y-98764454D01*
X70119432Y-98762560D01*
X70152565Y-98760585D01*
X70185693Y-98758531D01*
X70218817Y-98756397D01*
X70251935Y-98754183D01*
X70285047Y-98751890D01*
X70318154Y-98749516D01*
X70351255Y-98747063D01*
X70384350Y-98744530D01*
X70417439Y-98741917D01*
X70450522Y-98739224D01*
X70483598Y-98736452D01*
X70516667Y-98733600D01*
X70549729Y-98730668D01*
X70582784Y-98727657D01*
X70615831Y-98724566D01*
X70648871Y-98721395D01*
X70681903Y-98718145D01*
X70714928Y-98714815D01*
X70747944Y-98711406D01*
X70780952Y-98707917D01*
X70813951Y-98704348D01*
X70830447Y-98702534D01*
X70846941Y-98700700D01*
X70863433Y-98698846D01*
X70879923Y-98696973D01*
X70896410Y-98695079D01*
X70912896Y-98693165D01*
X70929378Y-98691232D01*
X70945859Y-98689279D01*
X70962337Y-98687306D01*
X70978813Y-98685313D01*
X70995286Y-98683300D01*
X71011757Y-98681268D01*
X71028225Y-98679215D01*
X71044691Y-98677143D01*
X71061154Y-98675051D01*
X71077615Y-98672939D01*
X71094073Y-98670807D01*
X71110529Y-98668655D01*
X71126982Y-98666484D01*
X71143433Y-98664292D01*
X71159880Y-98662081D01*
X71176326Y-98659850D01*
X71192768Y-98657599D01*
X71209208Y-98655329D01*
X71225645Y-98653038D01*
X71242079Y-98650728D01*
X71258510Y-98648398D01*
X71274939Y-98646048D01*
X71291364Y-98643679D01*
X71307787Y-98641289D01*
X71324207Y-98638880D01*
X71340624Y-98636451D01*
X71357038Y-98634003D01*
X71373449Y-98631534D01*
X71389857Y-98629046D01*
X71406262Y-98626538D01*
X71422664Y-98624010D01*
X71439063Y-98621462D01*
X71455459Y-98618895D01*
X71471852Y-98616308D01*
X71488241Y-98613701D01*
X71504628Y-98611074D01*
X71521011Y-98608428D01*
X71537391Y-98605762D01*
X71553768Y-98603076D01*
X71570142Y-98600370D01*
X71586512Y-98597645D01*
X71602879Y-98594900D01*
X71619243Y-98592135D01*
X71635603Y-98589350D01*
X71651960Y-98586546D01*
X71668314Y-98583722D01*
X71684664Y-98580879D01*
X71701011Y-98578015D01*
X71717354Y-98575132D01*
X71733694Y-98572230D01*
X71750030Y-98569307D01*
X71766363Y-98566365D01*
X71782692Y-98563403D01*
X71799018Y-98560422D01*
X71815340Y-98557421D01*
X71831658Y-98554400D01*
X71847973Y-98551359D01*
X71864284Y-98548299D01*
X71880591Y-98545220D01*
X71896895Y-98542120D01*
X71913195Y-98539001D01*
X71929491Y-98535862D01*
X71945783Y-98532704D01*
X71962072Y-98529526D01*
X71978356Y-98526328D01*
X71994637Y-98523111D01*
X72010914Y-98519874D01*
X72027187Y-98516618D01*
X72043456Y-98513342D01*
X72059721Y-98510046D01*
X72075982Y-98506731D01*
X72092240Y-98503396D01*
X72108492Y-98500041D01*
X72124742Y-98496667D01*
X72140986Y-98493274D01*
X72157228Y-98489860D01*
X72173464Y-98486428D01*
X72189697Y-98482975D01*
X72205925Y-98479503D01*
X72222150Y-98476012D01*
X72238369Y-98472501D01*
X72254585Y-98468970D01*
X72270797Y-98465420D01*
X72287004Y-98461850D01*
X72303207Y-98458261D01*
X72319406Y-98454652D01*
X72335600Y-98451024D01*
X72351790Y-98447376D01*
X72367975Y-98443709D01*
X72384156Y-98440022D01*
X72400333Y-98436316D01*
X72416505Y-98432590D01*
X72432672Y-98428845D01*
X72448836Y-98425080D01*
X72464994Y-98421296D01*
X72481148Y-98417492D01*
X72497298Y-98413669D01*
X72513443Y-98409826D01*
X72529583Y-98405964D01*
X72545718Y-98402083D01*
X72561849Y-98398182D01*
X72577975Y-98394261D01*
X72594097Y-98390322D01*
X72610214Y-98386362D01*
X72626325Y-98382384D01*
X72642433Y-98378385D01*
X72658535Y-98374368D01*
X72674633Y-98370331D01*
X72690725Y-98366274D01*
X72706813Y-98362199D01*
X72722896Y-98358104D01*
X72738974Y-98353989D01*
X72755046Y-98349855D01*
X72771115Y-98345702D01*
X72787177Y-98341529D01*
X72803236Y-98337337D01*
X72819288Y-98333126D01*
X72835337Y-98328895D01*
X72851379Y-98324645D01*
X72867417Y-98320375D01*
X72883449Y-98316087D01*
X72899477Y-98311778D01*
X72915499Y-98307451D01*
X72931516Y-98303104D01*
X72947528Y-98298738D01*
X72963535Y-98294353D01*
X72979536Y-98289948D01*
X72995532Y-98285524D01*
X73011522Y-98281081D01*
X73027508Y-98276619D01*
X73043488Y-98272137D01*
X73059463Y-98267636D01*
X73075432Y-98263116D01*
X73091396Y-98258576D01*
X73107354Y-98254018D01*
X73123307Y-98249439D01*
X73139254Y-98244842D01*
X73155197Y-98240226D01*
X73171133Y-98235590D01*
X73187064Y-98230935D01*
X73202989Y-98226261D01*
X73218909Y-98221568D01*
X73234822Y-98216855D01*
X73250731Y-98212123D01*
X73266633Y-98207373D01*
X73282531Y-98202603D01*
X73298422Y-98197813D01*
X73314308Y-98193005D01*
X73330187Y-98188177D01*
X73346061Y-98183331D01*
X73361929Y-98178465D01*
X73377792Y-98173580D01*
X73393648Y-98168676D01*
X73409499Y-98163752D01*
X73415924Y-98161751D01*
X83879779Y-85609782D02*
X83857605Y-85630088D01*
X83835484Y-85650452D01*
X83813418Y-85670876D01*
X83791407Y-85691358D01*
X83769449Y-85711898D01*
X83747547Y-85732497D01*
X83725699Y-85753154D01*
X83703906Y-85773870D01*
X83682169Y-85794643D01*
X83660487Y-85815474D01*
X83638860Y-85836363D01*
X83617288Y-85857309D01*
X83595773Y-85878313D01*
X83574313Y-85899374D01*
X83552909Y-85920492D01*
X83531562Y-85941667D01*
X83510270Y-85962899D01*
X83489036Y-85984187D01*
X83467857Y-86005532D01*
X83446736Y-86026934D01*
X83425672Y-86048391D01*
X83404664Y-86069905D01*
X83383714Y-86091474D01*
X83362821Y-86113100D01*
X83341986Y-86134781D01*
X83321208Y-86156517D01*
X83300488Y-86178308D01*
X83298262Y-86180657D01*
X100848836Y-73825479D02*
X100848796Y-73845478D01*
X100848676Y-73865476D01*
X100848476Y-73885473D01*
X100848196Y-73905470D01*
X100847836Y-73925466D01*
X100847396Y-73945459D01*
X100846876Y-73965451D01*
X100846277Y-73985441D01*
X100845597Y-74005428D01*
X100844837Y-74025413D01*
X100843997Y-74045394D01*
X100843078Y-74065372D01*
X100842078Y-74085346D01*
X100840999Y-74105316D01*
X100839840Y-74125281D01*
X100838601Y-74145242D01*
X100837282Y-74165198D01*
X100835883Y-74185148D01*
X100834404Y-74205092D01*
X100832846Y-74225031D01*
X100831208Y-74244963D01*
X100829490Y-74264889D01*
X100827693Y-74284807D01*
X100825816Y-74304719D01*
X100823859Y-74324622D01*
X100821823Y-74344518D01*
X100819707Y-74364406D01*
X100817511Y-74384285D01*
X100815236Y-74404155D01*
X100812882Y-74424016D01*
X100810448Y-74443867D01*
X100807935Y-74463708D01*
X100805342Y-74483540D01*
X100802670Y-74503361D01*
X100799919Y-74523171D01*
X100798514Y-74533071D01*
X100797089Y-74542969D01*
X100795644Y-74552865D01*
X100794179Y-74562757D01*
X100792695Y-74572646D01*
X100791190Y-74582533D01*
X100789666Y-74592416D01*
X100788123Y-74602296D01*
X100786559Y-74612173D01*
X100784976Y-74622047D01*
X100783373Y-74631918D01*
X100781750Y-74641786D01*
X100780108Y-74651650D01*
X100778445Y-74661511D01*
X100776763Y-74671369D01*
X100775062Y-74681224D01*
X100773340Y-74691074D01*
X100771599Y-74700922D01*
X100769839Y-74710766D01*
X100768058Y-74720607D01*
X100766258Y-74730443D01*
X100764438Y-74740277D01*
X100762599Y-74750106D01*
X100760740Y-74759932D01*
X100758861Y-74769754D01*
X100756962Y-74779573D01*
X100755044Y-74789387D01*
X100753107Y-74799198D01*
X100751149Y-74809005D01*
X100749172Y-74818808D01*
X100747176Y-74828607D01*
X100745160Y-74838402D01*
X100743124Y-74848193D01*
X100741069Y-74857980D01*
X100738994Y-74867763D01*
X100736900Y-74877541D01*
X100734786Y-74887315D01*
X100732652Y-74897086D01*
X100730499Y-74906851D01*
X100728326Y-74916613D01*
X100726134Y-74926370D01*
X100723923Y-74936123D01*
X100721692Y-74945871D01*
X100719441Y-74955615D01*
X100717171Y-74965354D01*
X100714881Y-74975089D01*
X100712572Y-74984819D01*
X100710244Y-74994545D01*
X100707896Y-75004266D01*
X100705529Y-75013982D01*
X100703142Y-75023693D01*
X100700735Y-75033400D01*
X100698310Y-75043102D01*
X100695865Y-75052799D01*
X100693400Y-75062491D01*
X100690916Y-75072178D01*
X100688413Y-75081860D01*
X100685891Y-75091537D01*
X100683349Y-75101209D01*
X100680788Y-75110876D01*
X100678207Y-75120538D01*
X100675607Y-75130195D01*
X100672988Y-75139846D01*
X100670349Y-75149493D01*
X100667692Y-75159133D01*
X100665014Y-75168769D01*
X100662318Y-75178399D01*
X100659602Y-75188024D01*
X100656868Y-75197644D01*
X100654113Y-75207258D01*
X100654006Y-75207631D01*
D11*
X44192964Y-82516480D02*
X44192964Y-79720923D01*
D10*
X95262168Y-22370253D02*
X95314164Y-22371272D01*
X95366159Y-22372311D01*
X95417697Y-22373361D01*
X95469233Y-22374432D01*
X95520327Y-22375513D01*
X95571420Y-22376614D01*
X95622085Y-22377727D01*
X95672748Y-22378859D01*
X95722997Y-22380002D01*
X95773244Y-22381166D01*
X95823090Y-22382340D01*
X95872933Y-22383534D01*
X95922387Y-22384739D01*
X95971839Y-22385964D01*
X96020913Y-22387200D01*
X96069984Y-22388456D01*
X96118688Y-22389722D01*
X96167390Y-22391009D01*
X96215734Y-22392306D01*
X96264076Y-22393624D01*
X96312071Y-22394952D01*
X96360063Y-22396300D01*
X96407717Y-22397658D01*
X96455368Y-22399037D01*
X96502690Y-22400426D01*
X96550009Y-22401836D01*
X96597007Y-22403256D01*
X96644003Y-22404696D01*
X96690685Y-22406146D01*
X96737365Y-22407616D01*
X96783739Y-22409097D01*
X96830110Y-22410598D01*
X96876184Y-22412110D01*
X96922254Y-22413641D01*
X96968034Y-22415183D01*
X97013810Y-22416745D01*
X97059303Y-22418317D01*
X97104792Y-22419909D01*
X97150003Y-22421512D01*
X97195211Y-22423135D01*
X97240148Y-22424768D01*
X97285081Y-22426421D01*
X97329749Y-22428084D01*
X97374413Y-22429767D01*
X97418817Y-22431461D01*
X97463218Y-22433174D01*
X97507365Y-22434898D01*
X97551508Y-22436642D01*
X97595402Y-22438396D01*
X97639292Y-22440170D01*
X97682938Y-22441954D01*
X97726580Y-22443758D01*
X97769984Y-22445572D01*
X97813384Y-22447407D01*
X97856549Y-22449251D01*
X97899710Y-22451116D01*
X97942642Y-22452990D01*
X97985570Y-22454885D01*
X98028272Y-22456790D01*
X98070971Y-22458714D01*
X98113448Y-22460649D01*
X98155921Y-22462604D01*
X98198177Y-22464568D01*
X98240429Y-22466553D01*
X98282468Y-22468548D01*
X98324503Y-22470562D01*
X98366329Y-22472587D01*
X98408150Y-22474632D01*
X98449766Y-22476686D01*
X98491377Y-22478761D01*
X98532787Y-22480845D01*
X98574192Y-22482950D01*
X98615399Y-22485064D01*
X98656601Y-22487198D01*
X98697609Y-22489343D01*
X98738612Y-22491507D01*
X98779423Y-22493681D01*
X98820229Y-22495875D01*
X98860847Y-22498079D01*
X98901460Y-22500303D01*
X98941888Y-22502537D01*
X98982311Y-22504790D01*
X99048874Y-22508545D01*
X102053431Y-70169390D02*
X102091296Y-70161794D01*
X102129182Y-70154215D01*
X102166979Y-70146674D01*
X102204796Y-70139149D01*
X102242526Y-70131662D01*
X102280277Y-70124191D01*
X102317940Y-70116758D01*
X102355623Y-70109341D01*
X102393220Y-70101962D01*
X102430838Y-70094600D01*
X102468369Y-70087274D01*
X102505920Y-70079966D01*
X102543387Y-70072694D01*
X102580872Y-70065438D01*
X102618274Y-70058220D01*
X102655695Y-70051018D01*
X102693033Y-70043853D01*
X102730389Y-70036704D01*
X102767663Y-70029592D01*
X102804955Y-70022496D01*
X102842166Y-70015436D01*
X102879395Y-70008394D01*
X102916543Y-70001387D01*
X102953709Y-69994397D01*
X102990794Y-69987443D01*
X103027897Y-69980505D01*
X103064921Y-69973603D01*
X103101962Y-69966718D01*
X103138923Y-69959869D01*
X103175903Y-69953036D01*
X103212804Y-69946238D01*
X103249722Y-69939458D01*
X103286562Y-69932712D01*
X103323419Y-69925983D01*
X103360198Y-69919289D01*
X103396995Y-69912612D01*
X103433714Y-69905970D01*
X103470451Y-69899345D01*
X103507111Y-69892754D01*
X103543788Y-69886180D01*
X103580389Y-69879640D01*
X103617006Y-69873118D01*
X103653548Y-69866630D01*
X103690106Y-69860159D01*
X103726590Y-69853721D01*
X103763090Y-69847301D01*
X103799515Y-69840915D01*
X103835957Y-69834546D01*
X103872324Y-69828210D01*
X103908708Y-69821892D01*
X103945018Y-69815607D01*
X103981344Y-69809339D01*
X104017597Y-69803105D01*
X104053866Y-69796888D01*
X104090062Y-69790704D01*
X104126274Y-69784537D01*
X104162414Y-69778403D01*
X104198569Y-69772287D01*
X104234653Y-69766203D01*
X104270752Y-69760137D01*
X104306780Y-69754103D01*
X104342824Y-69748087D01*
X104378796Y-69742103D01*
X104414784Y-69736137D01*
X104450701Y-69730203D01*
X104486633Y-69724287D01*
X104522496Y-69718402D01*
X104558373Y-69712536D01*
X104594181Y-69706701D01*
X104630004Y-69700884D01*
X104665757Y-69695098D01*
X104701526Y-69689331D01*
X104737225Y-69683594D01*
X104772939Y-69677876D01*
X104808585Y-69672189D01*
X104844245Y-69666520D01*
X104879838Y-69660882D01*
X104915445Y-69655262D01*
X104950984Y-69649673D01*
X104986537Y-69644102D01*
X105022024Y-69638562D01*
X105057524Y-69633040D01*
X105092958Y-69627548D01*
X105128406Y-69622075D01*
X105163787Y-69616632D01*
X105199182Y-69611207D01*
X105234512Y-69605813D01*
X105269855Y-69600437D01*
X105305132Y-69595091D01*
X105340423Y-69589763D01*
X105375649Y-69584466D01*
X105410889Y-69579186D01*
X105446063Y-69573937D01*
X105481251Y-69568706D01*
X105516375Y-69563504D01*
X105551511Y-69558321D01*
X105586584Y-69553168D01*
X105621669Y-69548033D01*
X105656692Y-69542928D01*
X105691726Y-69537841D01*
X105726698Y-69532783D01*
X105761682Y-69527744D01*
X105796604Y-69522734D01*
X105831538Y-69517743D01*
X105866410Y-69512780D01*
X105901294Y-69507836D01*
X105936116Y-69502922D01*
X105970950Y-69498025D01*
X106005722Y-69493158D01*
X106040507Y-69488309D01*
X106075230Y-69483489D01*
X106109965Y-69478688D01*
X106144639Y-69473915D01*
X106179325Y-69469160D01*
X106213950Y-69464435D01*
X106248587Y-69459728D01*
X106283164Y-69455049D01*
X106317752Y-69450389D01*
X106352281Y-69445757D01*
X106386820Y-69441144D01*
X106421300Y-69436559D01*
X106455792Y-69431993D01*
X106490224Y-69427455D01*
X106524667Y-69422936D01*
X106559051Y-69418444D01*
X106593446Y-69413972D01*
X106627783Y-69409527D01*
X106662130Y-69405101D01*
X106696420Y-69400702D01*
X106730720Y-69396323D01*
X106764961Y-69391971D01*
X106799214Y-69387638D01*
X106833409Y-69383332D01*
X106867614Y-69379046D01*
X106901762Y-69374786D01*
X106935921Y-69370546D01*
X106970022Y-69366333D01*
X107004134Y-69362138D01*
X107038189Y-69357971D01*
X107072254Y-69353823D01*
X107106262Y-69349702D01*
X107140281Y-69345600D01*
X107174243Y-69341525D01*
X107208216Y-69337468D01*
X107242132Y-69333439D01*
X107276059Y-69329429D01*
X107309929Y-69325445D01*
X107343810Y-69321481D01*
X107377634Y-69317543D01*
X107411469Y-69313624D01*
X107445249Y-69309731D01*
X107479038Y-69305858D01*
X107512772Y-69302011D01*
X107546516Y-69298184D01*
X107580205Y-69294382D01*
X107613904Y-69290600D01*
X107647548Y-69286844D01*
X107681201Y-69283107D01*
X107714801Y-69279396D01*
X107748409Y-69275704D01*
X107781964Y-69272039D01*
X107815528Y-69268392D01*
X107849038Y-69264772D01*
X107882557Y-69261171D01*
X107916023Y-69257595D01*
X107949498Y-69254039D01*
X107982920Y-69250509D01*
X108016350Y-69246997D01*
X108049728Y-69243512D01*
X108083115Y-69240046D01*
X108116449Y-69236605D01*
X108149791Y-69233184D01*
X108183081Y-69229788D01*
X108216380Y-69226411D01*
X108249627Y-69223060D01*
X108282882Y-69219728D01*
X108316085Y-69216421D01*
X108349297Y-69213134D01*
X108382456Y-69209871D01*
X108415625Y-69206629D01*
X108448741Y-69203411D01*
X108481866Y-69200213D01*
X108514940Y-69197039D01*
X108548022Y-69193885D01*
X108581053Y-69190756D01*
X108614092Y-69187647D01*
X108647080Y-69184562D01*
X108680077Y-69181497D01*
X108713022Y-69178456D01*
X108745976Y-69175435D01*
X108778879Y-69172439D01*
X108811790Y-69169462D01*
X108844651Y-69166509D01*
X108877520Y-69163576D01*
X108910339Y-69160668D01*
X108943165Y-69157779D01*
X108975942Y-69154915D01*
X109008726Y-69152069D01*
X109041461Y-69149249D01*
X109074203Y-69146448D01*
X109106897Y-69143671D01*
X109139597Y-69140913D01*
X109172248Y-69138180D01*
X109204907Y-69135466D01*
X109237517Y-69132777D01*
X109270134Y-69130107D01*
X109302703Y-69127461D01*
X109335279Y-69124834D01*
X109367806Y-69122232D01*
X109400341Y-69119649D01*
X109432827Y-69117090D01*
X109465320Y-69114551D01*
X109497765Y-69112035D01*
X109530217Y-69109539D01*
X109562621Y-69107067D01*
X109595033Y-69104614D01*
X109627396Y-69102185D01*
X109659766Y-69099775D01*
X109692089Y-69097389D01*
X109724419Y-69095023D01*
X109756701Y-69092680D01*
X109788990Y-69090357D01*
X109821232Y-69088057D01*
X109853481Y-69085777D01*
X109885682Y-69083521D01*
X109917890Y-69081284D01*
X109950052Y-69079070D01*
X109982220Y-69076876D01*
X110014341Y-69074705D01*
X110046469Y-69072554D01*
X110078550Y-69070425D01*
X110110638Y-69068317D01*
X110142680Y-69066232D01*
X110174728Y-69064166D01*
X110206730Y-69062123D01*
X110238738Y-69060100D01*
X110270700Y-69058100D01*
X110302668Y-69056120D01*
X110334591Y-69054163D01*
X110366520Y-69052225D01*
X110398403Y-69050310D01*
X110430293Y-69048415D01*
X110466524Y-69046286D01*
D11*
X42117250Y-35612383D02*
G75*
G02*
X52092444Y-32947199I9975150J-17334717D01*
G01*
X132105983Y-76720923D02*
G75*
G02*
X131105977Y-75720923I17J1000023D01*
G01*
X57144931Y-74875615D02*
G75*
G02*
X51994931Y-74875615I-2575000J0D01*
G01*
X51994931Y-74875615D02*
G75*
G02*
X57144931Y-74875615I2575000J0D01*
G01*
X47192964Y-76720923D02*
X49093948Y-76720923D01*
D10*
X53603820Y-79858821D02*
X53583459Y-79829200D01*
X53563460Y-79800142D01*
X53544112Y-79772065D01*
X53525106Y-79744519D01*
X53506707Y-79717888D01*
X53488630Y-79691758D01*
X53471118Y-79666481D01*
X53453911Y-79641678D01*
X53437231Y-79617670D01*
X53420837Y-79594111D01*
X53404937Y-79571294D01*
X53389307Y-79548901D01*
X53374136Y-79527201D01*
X53359221Y-79505901D01*
X53344735Y-79485249D01*
X53330490Y-79464975D01*
X53316645Y-79445306D01*
X53303029Y-79425996D01*
X53289785Y-79407249D01*
X53276757Y-79388842D01*
X53264077Y-79370961D01*
X53251600Y-79353402D01*
X53239448Y-79336333D01*
X53227488Y-79319570D01*
X53215830Y-79303263D01*
X53204353Y-79287245D01*
X53193158Y-79271654D01*
X53182134Y-79256335D01*
X53171371Y-79241413D01*
X53160770Y-79226751D01*
X53150410Y-79212456D01*
X53140205Y-79198408D01*
X53130222Y-79184700D01*
X53120385Y-79171227D01*
X53110754Y-79158069D01*
X53101260Y-79145132D01*
X53091955Y-79132487D01*
X53082780Y-79120051D01*
X53073779Y-79107884D01*
X53064899Y-79095916D01*
X53056178Y-79084194D01*
X53047572Y-79072661D01*
X53039108Y-79061352D01*
X53030754Y-79050223D01*
X53022528Y-79039296D01*
X53014404Y-79028539D01*
X53006394Y-79017966D01*
X52998480Y-79007553D01*
X52990665Y-78997302D01*
X52982942Y-78987204D01*
X52975302Y-78977249D01*
X52967748Y-78967438D01*
X52960264Y-78957749D01*
X52952860Y-78948197D01*
X52945510Y-78938747D01*
X52938235Y-78929426D01*
X52930999Y-78920187D01*
X52923833Y-78911070D01*
X52909611Y-78893070D01*
X52895523Y-78875367D01*
X52881522Y-78857900D01*
X52867555Y-78840602D01*
X52853565Y-78823400D01*
X52839487Y-78806213D01*
X52825243Y-78788949D01*
X52810744Y-78771498D01*
X52795877Y-78753727D01*
X52780497Y-78735466D01*
X52764413Y-78716488D01*
X52753988Y-78704247D01*
X95318197Y-83299207D02*
X95289835Y-83289223D01*
X95261447Y-83279315D01*
X95233032Y-83269483D01*
X95204591Y-83259726D01*
X95176125Y-83250045D01*
X95147632Y-83240439D01*
X95119115Y-83230909D01*
X95090571Y-83221456D01*
X95062003Y-83212078D01*
X95033410Y-83202776D01*
X95004793Y-83193551D01*
X94976150Y-83184401D01*
X94947484Y-83175328D01*
X94918793Y-83166331D01*
X94890079Y-83157410D01*
X94861341Y-83148566D01*
X94832579Y-83139798D01*
X94803794Y-83131107D01*
X94774986Y-83122492D01*
X94746156Y-83113954D01*
X94717302Y-83105493D01*
X94688426Y-83097108D01*
X94659528Y-83088801D01*
X94630608Y-83080570D01*
X94601665Y-83072416D01*
X94572702Y-83064339D01*
X94543716Y-83056340D01*
X94514710Y-83048417D01*
X94485682Y-83040571D01*
X94456634Y-83032803D01*
X94427565Y-83025112D01*
X94398475Y-83017499D01*
X94369365Y-83009963D01*
X94340236Y-83002504D01*
X94311086Y-82995123D01*
X94281917Y-82987819D01*
X94252728Y-82980593D01*
X94223520Y-82973444D01*
X94194294Y-82966374D01*
X94165048Y-82959381D01*
X94135784Y-82952466D01*
X94106501Y-82945628D01*
X94077200Y-82938869D01*
X94047882Y-82932188D01*
X94018545Y-82925584D01*
X93989191Y-82919059D01*
X93959820Y-82912612D01*
X93930432Y-82906242D01*
X93915731Y-82903087D01*
X93901026Y-82899952D01*
X93886317Y-82896835D01*
X93871604Y-82893739D01*
X93856887Y-82890662D01*
X93842165Y-82887604D01*
X93827440Y-82884567D01*
X93812711Y-82881548D01*
X93797977Y-82878550D01*
X93783240Y-82875571D01*
X93768498Y-82872611D01*
X93753753Y-82869671D01*
X93739003Y-82866751D01*
X93724250Y-82863851D01*
X93709493Y-82860970D01*
X93694732Y-82858108D01*
X93679967Y-82855266D01*
X93665199Y-82852444D01*
X93650426Y-82849642D01*
X93635650Y-82846859D01*
X93620871Y-82844096D01*
X93606087Y-82841352D01*
X93591300Y-82838629D01*
X93576509Y-82835924D01*
X93561715Y-82833240D01*
X93546917Y-82830575D01*
X93532116Y-82827930D01*
X93517311Y-82825305D01*
X93502502Y-82822699D01*
X93487690Y-82820113D01*
X93472875Y-82817546D01*
X93458056Y-82815000D01*
X93443234Y-82812473D01*
X93428408Y-82809966D01*
X93413579Y-82807478D01*
X93398747Y-82805010D01*
X93383911Y-82802562D01*
X93369073Y-82800134D01*
X93354231Y-82797725D01*
X93339385Y-82795336D01*
X93324537Y-82792967D01*
X93309685Y-82790618D01*
X93294830Y-82788288D01*
X93279972Y-82785979D01*
X93265112Y-82783688D01*
X93250247Y-82781418D01*
X93235381Y-82779168D01*
X93220510Y-82776937D01*
X93205637Y-82774726D01*
X93190761Y-82772535D01*
X93175883Y-82770363D01*
X93161001Y-82768212D01*
X93146116Y-82766080D01*
X93131228Y-82763968D01*
X93116338Y-82761875D01*
X93101445Y-82759803D01*
X93086549Y-82757750D01*
X93071650Y-82755718D01*
X93056749Y-82753705D01*
X93041845Y-82751711D01*
X93026938Y-82749738D01*
X93012029Y-82747784D01*
X92997117Y-82745851D01*
X92982202Y-82743937D01*
X92967285Y-82742043D01*
X92952365Y-82740169D01*
X92937443Y-82738314D01*
X92922518Y-82736480D01*
X92907592Y-82734665D01*
X92892662Y-82732870D01*
X92877730Y-82731095D01*
X92862795Y-82729340D01*
X92847859Y-82727605D01*
X92832920Y-82725890D01*
X92817979Y-82724194D01*
X92803035Y-82722519D01*
X92788089Y-82720863D01*
X92773141Y-82719227D01*
X92758191Y-82717611D01*
X92743238Y-82716015D01*
X92728284Y-82714439D01*
X92713327Y-82712882D01*
X92698369Y-82711346D01*
X92683407Y-82709829D01*
X92668445Y-82708333D01*
X92653480Y-82706856D01*
X92638513Y-82705399D01*
X92623544Y-82703962D01*
X92608573Y-82702545D01*
X92593600Y-82701148D01*
X92578626Y-82699771D01*
X92563649Y-82698413D01*
X92548671Y-82697076D01*
X92533691Y-82695759D01*
X92518710Y-82694461D01*
X92503726Y-82693183D01*
X92488741Y-82691926D01*
X92473753Y-82690688D01*
X92458765Y-82689470D01*
X92443774Y-82688272D01*
X92428783Y-82687094D01*
X92413789Y-82685936D01*
X92398794Y-82684798D01*
X92383797Y-82683680D01*
X92368799Y-82682582D01*
X92353799Y-82681504D01*
X92338798Y-82680445D01*
X92323795Y-82679407D01*
X92308791Y-82678389D01*
X92293785Y-82677390D01*
X92278779Y-82676412D01*
X92263770Y-82675453D01*
X92248761Y-82674515D01*
X92233750Y-82673596D01*
X92218739Y-82672697D01*
X92203725Y-82671819D01*
X92188711Y-82670960D01*
X92173695Y-82670121D01*
X92158678Y-82669302D01*
X92143660Y-82668504D01*
X92128641Y-82667725D01*
X92113621Y-82666966D01*
X92098600Y-82666227D01*
X92083577Y-82665508D01*
X92068555Y-82664809D01*
X92053530Y-82664130D01*
X92038505Y-82663471D01*
X92023479Y-82662832D01*
X92008452Y-82662213D01*
X91993424Y-82661614D01*
X91978395Y-82661035D01*
X91963365Y-82660476D01*
X91948335Y-82659937D01*
X91933304Y-82659418D01*
X91918272Y-82658919D01*
X91903239Y-82658440D01*
X91888206Y-82657981D01*
X91873172Y-82657541D01*
X91858138Y-82657122D01*
X91843102Y-82656723D01*
X91813643Y-82655999D01*
X97935506Y-81928091D02*
X97942559Y-81892554D01*
X97949691Y-81857032D01*
X97956902Y-81821525D01*
X97964191Y-81786034D01*
X97971559Y-81750559D01*
X97979005Y-81715099D01*
X97986529Y-81679656D01*
X97994131Y-81644229D01*
X97997962Y-81626522D01*
X98001812Y-81608819D01*
X98005682Y-81591121D01*
X98009571Y-81573426D01*
X98013479Y-81555736D01*
X98017408Y-81538051D01*
X98021355Y-81520370D01*
X98025323Y-81502693D01*
X98029309Y-81485021D01*
X98033316Y-81467353D01*
X98037341Y-81449690D01*
X98041387Y-81432031D01*
X98045451Y-81414377D01*
X98049535Y-81396728D01*
X98053639Y-81379083D01*
X98057762Y-81361443D01*
X98061904Y-81343808D01*
X98066066Y-81326177D01*
X98070247Y-81308551D01*
X98074448Y-81290931D01*
X98078668Y-81273315D01*
X98082908Y-81255703D01*
X98087166Y-81238097D01*
X98091445Y-81220496D01*
X98095742Y-81202900D01*
X98100059Y-81185309D01*
X98104395Y-81167723D01*
X98108751Y-81150142D01*
X98113126Y-81132566D01*
X98117520Y-81114995D01*
X98121934Y-81097430D01*
X98126367Y-81079870D01*
X98130819Y-81062315D01*
X98135290Y-81044765D01*
X98139781Y-81027221D01*
X98144291Y-81009682D01*
X98148821Y-80992148D01*
X98153369Y-80974620D01*
X98157937Y-80957097D01*
X98162524Y-80939580D01*
X98167130Y-80922069D01*
X98171756Y-80904562D01*
X98176400Y-80887062D01*
X98181064Y-80869567D01*
X98185747Y-80852078D01*
X98190450Y-80834595D01*
X98195171Y-80817117D01*
X98199912Y-80799645D01*
X98204671Y-80782179D01*
X98209450Y-80764718D01*
X98214248Y-80747264D01*
X98219066Y-80729815D01*
X98223902Y-80712373D01*
X98228757Y-80694936D01*
X98233632Y-80677505D01*
X98238525Y-80660080D01*
X98243438Y-80642662D01*
X98248369Y-80625249D01*
X98253320Y-80607843D01*
X98258290Y-80590442D01*
X98263279Y-80573049D01*
X98268287Y-80555660D01*
X98273313Y-80538279D01*
X98278359Y-80520903D01*
X98283424Y-80503535D01*
X98288508Y-80486172D01*
X98293611Y-80468816D01*
X98298733Y-80451465D01*
X98303873Y-80434122D01*
X98309033Y-80416785D01*
X98314211Y-80399455D01*
X98319409Y-80382131D01*
X98324625Y-80364814D01*
X98329861Y-80347503D01*
X98335115Y-80330199D01*
X98340388Y-80312901D01*
X98345680Y-80295611D01*
X98350991Y-80278326D01*
X98356320Y-80261049D01*
X98361669Y-80243778D01*
X98367036Y-80226515D01*
X98372423Y-80209258D01*
X98377827Y-80192009D01*
X98383251Y-80174765D01*
X98388694Y-80157530D01*
X98394155Y-80140300D01*
X98399635Y-80123079D01*
X98405134Y-80105863D01*
X98410651Y-80088656D01*
X98416188Y-80071455D01*
X98421742Y-80054261D01*
X98427316Y-80037075D01*
X98432908Y-80019896D01*
X98438520Y-80002723D01*
X98444149Y-79985559D01*
X98449798Y-79968401D01*
X98455464Y-79951252D01*
X98461150Y-79934108D01*
X98466854Y-79916974D01*
X98472577Y-79899845D01*
X98478319Y-79882725D01*
X98484079Y-79865612D01*
X98489857Y-79848507D01*
X98495655Y-79831408D01*
X98501470Y-79814319D01*
X98507304Y-79797235D01*
X98513157Y-79780161D01*
X98519029Y-79763093D01*
X98524918Y-79746034D01*
X98530827Y-79728981D01*
X98536753Y-79711938D01*
X98542699Y-79694901D01*
X98548662Y-79677873D01*
X98554644Y-79660852D01*
X98560645Y-79643840D01*
X98566664Y-79626834D01*
X98572701Y-79609838D01*
X98578757Y-79592848D01*
X98584831Y-79575868D01*
X98590924Y-79558894D01*
X98597034Y-79541930D01*
X98603164Y-79524973D01*
X98609311Y-79508025D01*
X98615477Y-79491084D01*
X98621661Y-79474152D01*
X98627864Y-79457228D01*
X98634084Y-79440313D01*
X98640323Y-79423405D01*
X98646580Y-79406506D01*
X98652856Y-79389615D01*
X98659150Y-79372733D01*
X98665462Y-79355858D01*
X98671792Y-79338993D01*
X98678140Y-79322136D01*
X98684506Y-79305288D01*
X98690891Y-79288447D01*
X98697294Y-79271616D01*
X98703715Y-79254793D01*
X98710154Y-79237979D01*
X98716611Y-79221172D01*
X98723086Y-79204376D01*
X98729580Y-79187587D01*
X98736091Y-79170808D01*
X98742621Y-79154037D01*
X98749168Y-79137275D01*
X98755734Y-79120522D01*
X98762317Y-79103778D01*
X98768919Y-79087042D01*
X98775538Y-79070316D01*
X98782176Y-79053597D01*
X98788831Y-79036890D01*
X98795505Y-79020189D01*
X98802196Y-79003499D01*
X98808906Y-78986817D01*
X98815632Y-78970145D01*
X98822378Y-78953481D01*
X98829140Y-78936827D01*
X98835922Y-78920182D01*
X98842720Y-78903546D01*
X98849537Y-78886919D01*
X98856371Y-78870302D01*
X98863223Y-78853693D01*
X98870093Y-78837095D01*
X98876981Y-78820505D01*
X98883886Y-78803926D01*
X98890810Y-78787354D01*
X98897750Y-78770794D01*
X98904710Y-78754241D01*
X98911686Y-78737700D01*
X98918680Y-78721166D01*
X98925692Y-78704643D01*
X98932721Y-78688129D01*
X98939768Y-78671625D01*
X98946833Y-78655130D01*
X98953915Y-78638646D01*
X98961016Y-78622170D01*
X98968133Y-78605705D01*
X98975269Y-78589249D01*
X98982421Y-78572804D01*
X98989592Y-78556366D01*
X98996779Y-78539941D01*
X99003985Y-78523524D01*
X99011208Y-78507118D01*
X99018448Y-78490720D01*
X99025706Y-78474334D01*
X99032982Y-78457956D01*
X99040274Y-78441590D01*
X99047585Y-78425232D01*
X99054912Y-78408887D01*
X99062258Y-78392549D01*
X99069620Y-78376223D01*
X99077000Y-78359905D01*
X99084397Y-78343600D01*
X99091812Y-78327303D01*
X99099243Y-78311018D01*
X99106693Y-78294741D01*
X99114159Y-78278476D01*
X99121643Y-78262220D01*
X99129144Y-78245976D01*
X99136663Y-78229740D01*
X99144198Y-78213517D01*
X99151751Y-78197302D01*
X99159321Y-78181099D01*
X99166909Y-78164905D01*
X99174513Y-78148724D01*
X99182135Y-78132551D01*
X99189773Y-78116390D01*
X99197430Y-78100238D01*
X99205102Y-78084098D01*
X99212793Y-78067967D01*
X99220500Y-78051849D01*
X99228224Y-78035740D01*
X99235965Y-78019643D01*
X99243724Y-78003554D01*
X99251499Y-77987479D01*
X99259292Y-77971412D01*
X99267101Y-77955358D01*
X99274928Y-77939313D01*
X99282771Y-77923281D01*
X99290632Y-77907257D01*
X99298509Y-77891246D01*
X99306404Y-77875245D01*
X99314315Y-77859256D01*
X99322244Y-77843276D01*
X99330188Y-77827309D01*
X99338150Y-77811351D01*
X99346129Y-77795407D01*
X99354125Y-77779471D01*
X99362137Y-77763548D01*
X99370166Y-77747635D01*
X99378212Y-77731734D01*
X99386275Y-77715843D01*
X99394354Y-77699965D01*
X99402451Y-77684096D01*
X99410563Y-77668240D01*
X99418694Y-77652394D01*
X99426839Y-77636561D01*
X99435003Y-77620737D01*
X99443182Y-77604927D01*
X99451379Y-77589126D01*
X99459592Y-77573338D01*
X99467822Y-77557559D01*
X99476067Y-77541795D01*
X99484331Y-77526039D01*
X99492610Y-77510297D01*
X99500906Y-77494565D01*
X99509218Y-77478846D01*
X99517548Y-77463136D01*
X99525892Y-77447441D01*
X99534255Y-77431754D01*
X99542633Y-77416082D01*
X99551028Y-77400419D01*
X99559439Y-77384770D01*
X99567868Y-77369130D01*
X99576311Y-77353504D01*
X99584772Y-77337888D01*
X99593249Y-77322286D01*
X99601743Y-77306693D01*
X99610252Y-77291114D01*
X99618778Y-77275545D01*
X99627320Y-77259990D01*
X99635879Y-77244445D01*
X99644454Y-77228914D01*
X99653045Y-77213392D01*
X99661652Y-77197885D01*
X99670277Y-77182387D01*
X99678916Y-77166904D01*
X99687573Y-77151430D01*
X99696244Y-77135971D01*
X99704933Y-77120522D01*
X99713637Y-77105087D01*
X99722359Y-77089661D01*
X99731095Y-77074250D01*
X99739848Y-77058849D01*
X99748617Y-77043463D01*
X99757403Y-77028086D01*
X99766203Y-77012724D01*
X99775021Y-76997372D01*
X99783854Y-76982034D01*
X99792704Y-76966707D01*
X99801568Y-76951394D01*
X99810450Y-76936091D01*
X99819347Y-76920802D01*
X99828260Y-76905524D01*
X99837189Y-76890261D01*
X99846134Y-76875007D01*
X99855095Y-76859769D01*
X99864072Y-76844540D01*
X99873064Y-76829326D01*
X99882073Y-76814123D01*
X99891097Y-76798934D01*
X99900137Y-76783755D01*
X99909193Y-76768592D01*
X99918265Y-76753439D01*
X99927352Y-76738300D01*
X99936456Y-76723172D01*
X99945574Y-76708059D01*
X99954709Y-76692956D01*
X99971105Y-76665947D01*
D11*
X44192964Y-79720923D02*
G75*
G02*
X47192964Y-76720964I2999936J23D01*
G01*
D10*
X99048874Y-22508545D02*
X99091205Y-22510960D01*
X99133481Y-22513393D01*
X99175426Y-22515826D01*
X99217318Y-22518277D01*
X99258890Y-22520729D01*
X99300410Y-22523198D01*
X99341623Y-22525669D01*
X99382785Y-22528157D01*
X99423650Y-22530647D01*
X99464468Y-22533154D01*
X99504997Y-22535664D01*
X99545481Y-22538191D01*
X99585687Y-22540721D01*
X99625848Y-22543268D01*
X99697768Y-22547880D01*
D11*
X28712247Y-52420800D02*
X28712247Y-82516480D01*
D10*
X122044601Y-71168489D02*
X122077935Y-71185482D01*
X122111132Y-71202381D01*
X122141960Y-71218051D01*
X122172667Y-71233636D01*
X122201534Y-71248264D01*
X122230294Y-71262814D01*
X122257561Y-71276586D01*
X122284732Y-71290286D01*
X122310656Y-71303334D01*
X122336493Y-71316315D01*
X122361265Y-71328739D01*
X122385955Y-71341098D01*
X122409720Y-71352972D01*
X122433409Y-71364784D01*
X122456284Y-71376168D01*
X122479087Y-71387493D01*
X122501163Y-71398435D01*
X122523173Y-71409320D01*
X122544528Y-71419860D01*
X122565821Y-71430345D01*
X122586520Y-71440516D01*
X122607159Y-71450635D01*
X122627257Y-71460465D01*
X122647297Y-71470245D01*
X122666840Y-71479760D01*
X122686327Y-71489225D01*
X122705356Y-71498444D01*
X122724331Y-71507615D01*
X122742880Y-71516558D01*
X122761379Y-71525454D01*
X122779480Y-71534136D01*
X122797532Y-71542773D01*
X122815213Y-71551209D01*
X122832847Y-71559601D01*
X122850132Y-71567804D01*
X122867372Y-71575963D01*
X122884284Y-71583945D01*
X122901152Y-71591883D01*
X122917711Y-71599654D01*
X122934227Y-71607382D01*
X122950449Y-71614951D01*
X122966631Y-71622478D01*
X122982535Y-71629854D01*
X122998399Y-71637189D01*
X123013999Y-71644380D01*
X123029560Y-71651531D01*
X123044870Y-71658544D01*
X123060142Y-71665517D01*
X123075175Y-71672359D01*
X123090170Y-71679162D01*
X123104937Y-71685839D01*
X123119667Y-71692478D01*
X123134179Y-71698995D01*
X123148656Y-71705475D01*
X123162922Y-71711839D01*
X123177155Y-71718166D01*
X123191186Y-71724381D01*
X123205184Y-71730559D01*
X123218988Y-71736630D01*
X123232759Y-71742664D01*
X123246345Y-71748595D01*
X123259898Y-71754490D01*
X123273272Y-71760285D01*
X123286616Y-71766045D01*
X123299786Y-71771708D01*
X123312926Y-71777336D01*
X123325898Y-71782870D01*
X123338842Y-71788370D01*
X123351624Y-71793780D01*
X123364376Y-71799156D01*
X123376973Y-71804444D01*
X123389542Y-71809698D01*
X123401959Y-71814867D01*
X123414349Y-71820003D01*
X123426593Y-71825057D01*
X123438809Y-71830077D01*
X123450883Y-71835018D01*
X123462931Y-71839926D01*
X123474842Y-71844756D01*
X123486726Y-71849554D01*
X123498477Y-71854276D01*
X123510202Y-71858966D01*
X123521797Y-71863583D01*
X123533367Y-71868168D01*
X123544812Y-71872682D01*
X123556231Y-71877164D01*
X123567528Y-71881577D01*
X123578801Y-71885958D01*
X123589955Y-71890272D01*
X123601084Y-71894555D01*
X123612098Y-71898772D01*
X123623088Y-71902958D01*
X123633965Y-71907079D01*
X123644820Y-71911171D01*
X123655564Y-71915199D01*
X123666285Y-71919198D01*
X123676899Y-71923135D01*
X123687491Y-71927042D01*
X123697978Y-71930889D01*
X123708443Y-71934707D01*
X123718806Y-71938466D01*
X123729147Y-71942196D01*
X123739389Y-71945869D01*
X123749609Y-71949512D01*
X123759732Y-71953100D01*
X123769834Y-71956659D01*
X123779841Y-71960163D01*
X123789828Y-71963639D01*
X123799721Y-71967061D01*
X123809594Y-71970454D01*
X123819376Y-71973796D01*
X123829138Y-71977109D01*
X123838812Y-71980371D01*
X123848465Y-71983605D01*
X123858032Y-71986788D01*
X123867579Y-71989944D01*
X123877041Y-71993051D01*
X123886484Y-71996131D01*
X123895844Y-71999162D01*
X123905184Y-72002166D01*
X123914444Y-72005122D01*
X123923684Y-72008052D01*
X123932845Y-72010935D01*
X123941987Y-72013791D01*
X123951051Y-72016602D01*
X123960097Y-72019386D01*
X123969067Y-72022126D01*
X123978018Y-72024839D01*
X123986894Y-72027509D01*
X123995753Y-72030152D01*
X124004538Y-72032752D01*
X124013306Y-72035326D01*
X124022001Y-72037858D01*
X124030679Y-72040365D01*
X124039286Y-72042829D01*
X124047877Y-72045268D01*
X124056397Y-72047667D01*
X124064901Y-72050040D01*
X124073337Y-72052373D01*
X124081756Y-72054681D01*
X124090109Y-72056949D01*
X124098445Y-72059192D01*
X124106715Y-72061397D01*
X124114969Y-72063577D01*
X124123159Y-72065719D01*
X124131333Y-72067836D01*
X124139443Y-72069916D01*
X124147538Y-72071971D01*
X124155570Y-72073990D01*
X124163587Y-72075984D01*
X124171543Y-72077942D01*
X124179483Y-72079876D01*
X124187363Y-72081775D01*
X124195228Y-72083649D01*
X124203034Y-72085488D01*
X124210825Y-72087304D01*
X124218559Y-72089085D01*
X124226277Y-72090842D01*
X124233938Y-72092566D01*
X124241585Y-72094266D01*
X124249175Y-72095933D01*
X124256751Y-72097576D01*
X124264273Y-72099187D01*
X124271779Y-72100774D01*
X124279232Y-72102329D01*
X124286670Y-72103861D01*
X124294055Y-72105361D01*
X124301426Y-72106838D01*
X124308745Y-72108284D01*
X124316050Y-72109707D01*
X124323303Y-72111100D01*
X124330543Y-72112469D01*
X124337732Y-72113808D01*
X124344907Y-72115125D01*
X124352033Y-72116412D01*
X124359145Y-72117676D01*
X124366208Y-72118911D01*
X124373258Y-72120123D01*
X124380259Y-72121307D01*
X124387248Y-72122468D01*
X124394189Y-72123601D01*
X124401116Y-72124712D01*
X124407998Y-72125795D01*
X124414866Y-72126855D01*
X124421689Y-72127888D01*
X124428498Y-72128899D01*
X124435263Y-72129883D01*
X124442014Y-72130844D01*
X124448721Y-72131780D01*
X124455416Y-72132693D01*
X124462067Y-72133580D01*
X124468706Y-72134445D01*
X124475301Y-72135284D01*
X124481884Y-72136101D01*
X124488425Y-72136893D01*
X124494953Y-72137664D01*
X124501440Y-72138409D01*
X124507915Y-72139133D01*
X124514348Y-72139832D01*
X124520770Y-72140509D01*
X124527151Y-72141162D01*
X124533520Y-72141794D01*
X124539850Y-72142401D01*
X124546167Y-72142988D01*
X124552446Y-72143550D01*
X124558713Y-72144092D01*
X124564941Y-72144610D01*
X124571158Y-72145106D01*
X124577336Y-72145580D01*
X124583504Y-72146033D01*
X124589634Y-72146463D01*
X124595752Y-72146872D01*
X124601834Y-72147258D01*
X124607904Y-72147624D01*
X124613938Y-72147967D01*
X124619961Y-72148290D01*
X124625948Y-72148591D01*
X124631924Y-72148871D01*
X124637865Y-72149129D01*
X124643795Y-72149367D01*
X124649691Y-72149583D01*
X124655575Y-72149779D01*
X124661426Y-72149954D01*
X124667265Y-72150108D01*
X124673072Y-72150242D01*
X124678867Y-72150355D01*
X124684629Y-72150448D01*
X124690381Y-72150520D01*
X124696100Y-72150572D01*
X124701809Y-72150603D01*
X124707899Y-72150615D01*
X28712247Y-52420800D02*
X28720407Y-52379820D01*
X28728570Y-52338925D01*
X28736648Y-52298562D01*
X28744729Y-52258281D01*
X28752729Y-52218510D01*
X28760734Y-52178819D01*
X28768660Y-52139617D01*
X28776591Y-52100494D01*
X28784447Y-52061840D01*
X28792309Y-52023263D01*
X28800099Y-51985137D01*
X28807894Y-51947085D01*
X28815621Y-51909469D01*
X28823353Y-51871925D01*
X28831020Y-51834799D01*
X28838692Y-51797745D01*
X28846302Y-51761095D01*
X28853917Y-51724513D01*
X28861472Y-51688322D01*
X28869034Y-51652198D01*
X28876537Y-51616451D01*
X28884047Y-51580770D01*
X28891500Y-51545453D01*
X28898961Y-51510201D01*
X28906368Y-51475301D01*
X28913781Y-51440464D01*
X28921143Y-51405968D01*
X28928512Y-51371534D01*
X28935831Y-51337431D01*
X28943158Y-51303388D01*
X28950436Y-51269665D01*
X28957722Y-51236002D01*
X28964961Y-51202649D01*
X28972208Y-51169355D01*
X28979410Y-51136362D01*
X28986620Y-51103426D01*
X28993787Y-51070783D01*
X29000962Y-51038196D01*
X29008095Y-51005893D01*
X29015236Y-50973645D01*
X29022337Y-50941673D01*
X29029446Y-50909756D01*
X29036516Y-50878107D01*
X29043595Y-50846511D01*
X29050636Y-50815177D01*
X29057685Y-50783895D01*
X29064698Y-50752867D01*
X29071720Y-50721891D01*
X29078706Y-50691162D01*
X29085702Y-50660483D01*
X29092663Y-50630047D01*
X29099633Y-50599659D01*
X29106570Y-50569507D01*
X29113517Y-50539403D01*
X29120430Y-50509529D01*
X29127354Y-50479702D01*
X29134246Y-50450100D01*
X29141148Y-50420544D01*
X29148020Y-50391207D01*
X29154901Y-50361915D01*
X29161753Y-50332837D01*
X29168615Y-50303805D01*
X29175448Y-50274980D01*
X29182291Y-50246200D01*
X29189107Y-50217624D01*
X29195932Y-50189091D01*
X29202731Y-50160758D01*
X29209540Y-50132467D01*
X29216323Y-50104370D01*
X29223117Y-50076317D01*
X29229885Y-50048452D01*
X29236663Y-50020630D01*
X29243417Y-49992994D01*
X29250182Y-49965398D01*
X29256922Y-49937985D01*
X29263673Y-49910612D01*
X29270402Y-49883416D01*
X29277140Y-49856261D01*
X29283857Y-49829279D01*
X29290584Y-49802337D01*
X29297290Y-49775566D01*
X29304006Y-49748833D01*
X29310701Y-49722266D01*
X29317407Y-49695738D01*
X29324093Y-49669374D01*
X29330790Y-49643047D01*
X29337467Y-49616880D01*
X29344155Y-49590750D01*
X29350823Y-49564777D01*
X29357503Y-49538840D01*
X29364164Y-49513057D01*
X29370837Y-49487311D01*
X29377491Y-49461715D01*
X29384156Y-49436154D01*
X29390804Y-49410741D01*
X29397463Y-49385363D01*
X29404105Y-49360130D01*
X29410759Y-49334932D01*
X29417396Y-49309876D01*
X29424045Y-49284854D01*
X29430677Y-49259971D01*
X29437321Y-49235122D01*
X29443949Y-49210410D01*
X29450590Y-49185730D01*
X29457214Y-49161186D01*
X29463851Y-49136673D01*
X29470473Y-49112293D01*
X29477107Y-49087945D01*
X29483726Y-49063726D01*
X29490357Y-49039539D01*
X29496975Y-49015480D01*
X29503604Y-48991451D01*
X29510220Y-48967548D01*
X29516848Y-48943675D01*
X29523463Y-48919925D01*
X29530090Y-48896206D01*
X29536705Y-48872607D01*
X29543331Y-48849038D01*
X29549946Y-48825588D01*
X29556572Y-48802167D01*
X29563187Y-48778863D01*
X29569814Y-48755588D01*
X29576430Y-48732427D01*
X29583057Y-48709296D01*
X29589674Y-48686276D01*
X29596303Y-48663286D01*
X29602922Y-48640405D01*
X29609552Y-48617554D01*
X29616173Y-48594810D01*
X29622806Y-48572095D01*
X29629428Y-48549486D01*
X29636064Y-48526905D01*
X29642690Y-48504429D01*
X29649328Y-48481981D01*
X29655957Y-48459635D01*
X29662598Y-48437317D01*
X29669231Y-48415099D01*
X29675876Y-48392909D01*
X29682513Y-48370819D01*
X29689162Y-48348755D01*
X29695803Y-48326789D01*
X29702456Y-48304849D01*
X29709102Y-48283006D01*
X29715760Y-48261188D01*
X29722411Y-48239466D01*
X29729074Y-48217769D01*
X29735730Y-48196165D01*
X29742399Y-48174587D01*
X29749061Y-48153101D01*
X29755735Y-48131640D01*
X29762403Y-48110269D01*
X29769084Y-48088923D01*
X29775758Y-48067666D01*
X29782445Y-48046434D01*
X29789126Y-48025289D01*
X29795820Y-48004168D01*
X29802508Y-47983134D01*
X29809209Y-47962124D01*
X29815904Y-47941198D01*
X29822613Y-47920296D01*
X29829316Y-47899478D01*
X29836032Y-47878684D01*
X29842743Y-47857971D01*
X29849467Y-47837282D01*
X29856186Y-47816674D01*
X29862919Y-47796089D01*
X29869646Y-47775583D01*
X29876388Y-47755101D01*
X29883124Y-47734696D01*
X29889874Y-47714315D01*
X29896620Y-47694011D01*
X29903379Y-47673729D01*
X29910134Y-47653523D01*
X29916903Y-47633339D01*
X29923668Y-47613231D01*
X29930446Y-47593144D01*
X29937221Y-47573131D01*
X29944010Y-47553139D01*
X29950795Y-47533221D01*
X29957594Y-47513324D01*
X29964389Y-47493499D01*
X29971199Y-47473694D01*
X29978005Y-47453961D01*
X29984825Y-47434248D01*
X29991643Y-47414605D01*
X29998474Y-47394983D01*
X30005303Y-47375429D01*
X30012146Y-47355896D01*
X30018986Y-47336431D01*
X30025840Y-47316985D01*
X30032692Y-47297607D01*
X30039559Y-47278248D01*
X30046423Y-47258956D01*
X30053302Y-47239682D01*
X30060178Y-47220474D01*
X30067069Y-47201286D01*
X30073958Y-47182161D01*
X30080862Y-47163056D01*
X30087764Y-47144013D01*
X30094680Y-47124990D01*
X30101595Y-47106029D01*
X30108525Y-47087087D01*
X30115453Y-47068206D01*
X30122396Y-47049344D01*
X30129338Y-47030542D01*
X30136295Y-47011759D01*
X30143251Y-46993035D01*
X30150221Y-46974329D01*
X30157191Y-46955683D01*
X30164176Y-46937054D01*
X30171160Y-46918483D01*
X30178159Y-46899930D01*
X30185158Y-46881435D01*
X30192171Y-46862957D01*
X30199185Y-46844535D01*
X30206213Y-46826131D01*
X30213241Y-46807782D01*
X30220285Y-46789451D01*
X30227328Y-46771174D01*
X30234387Y-46752915D01*
X30241446Y-46734710D01*
X30248520Y-46716521D01*
X30255595Y-46698386D01*
X30262685Y-46680268D01*
X30269775Y-46662202D01*
X30276881Y-46644153D01*
X30283988Y-46626155D01*
X30291110Y-46608174D01*
X30298233Y-46590244D01*
X30305371Y-46572331D01*
X30312511Y-46554468D01*
X30319666Y-46536621D01*
X30326822Y-46518823D01*
X30333994Y-46501042D01*
X30341167Y-46483309D01*
X30348356Y-46465593D01*
X30355547Y-46447924D01*
X30362752Y-46430271D01*
X30369961Y-46412666D01*
X30377184Y-46395077D01*
X30384410Y-46377534D01*
X30391651Y-46360007D01*
X30398895Y-46342526D01*
X30406154Y-46325060D01*
X30413415Y-46307640D01*
X30420693Y-46290235D01*
X30427973Y-46272874D01*
X30435268Y-46255529D01*
X30442567Y-46238228D01*
X30449881Y-46220943D01*
X30457198Y-46203700D01*
X30464531Y-46186473D01*
X30471867Y-46169288D01*
X30479219Y-46152118D01*
X30486574Y-46134991D01*
X30493945Y-46117878D01*
X30501320Y-46100806D01*
X30508710Y-46083750D01*
X30516104Y-46066734D01*
X30523514Y-46049733D01*
X30530928Y-46032772D01*
X30538358Y-46015825D01*
X30545792Y-45998918D01*
X30553242Y-45982026D01*
X30560696Y-45965173D01*
X30568166Y-45948333D01*
X30575641Y-45931533D01*
X30583131Y-45914746D01*
X30590626Y-45897998D01*
X30598138Y-45881263D01*
X30605654Y-45864566D01*
X30613186Y-45847883D01*
X30620723Y-45831237D01*
X30628276Y-45814604D01*
X30635834Y-45798008D01*
X30643408Y-45781425D01*
X30650988Y-45764878D01*
X30658584Y-45748344D01*
X30666185Y-45731847D01*
X30673803Y-45715362D01*
X30681426Y-45698912D01*
X30689066Y-45682475D01*
X30696711Y-45666073D01*
X30704372Y-45649683D01*
X30712040Y-45633328D01*
X30719724Y-45616985D01*
X30727414Y-45600676D01*
X30735120Y-45584380D01*
X30742833Y-45568116D01*
X30750562Y-45551865D01*
X30758298Y-45535647D01*
X30766050Y-45519441D01*
X30773809Y-45503267D01*
X30781584Y-45487106D01*
X30789366Y-45470976D01*
X30797165Y-45454858D01*
X30804970Y-45438771D01*
X30812792Y-45422697D01*
X30820622Y-45406653D01*
X30828468Y-45390621D01*
X30836321Y-45374619D01*
X30844191Y-45358629D01*
X30852068Y-45342669D01*
X30859962Y-45326720D01*
X30867864Y-45310801D01*
X30875782Y-45294894D01*
X30883709Y-45279015D01*
X30891652Y-45263148D01*
X30899603Y-45247309D01*
X30907571Y-45231482D01*
X30915547Y-45215683D01*
X30923540Y-45199895D01*
X30931541Y-45184134D01*
X30939560Y-45168385D01*
X30947586Y-45152663D01*
X30955630Y-45136952D01*
X30964892Y-45118915D01*
X82967059Y-86871163D02*
X83021557Y-86472619D01*
X102053431Y-70169390D02*
X102042701Y-70171586D01*
X102031987Y-70173861D01*
X102021290Y-70176213D01*
X102010611Y-70178644D01*
X101999950Y-70181152D01*
X101989307Y-70183739D01*
X101978683Y-70186403D01*
X101968079Y-70189144D01*
X101957495Y-70191963D01*
X101946932Y-70194859D01*
X101936390Y-70197833D01*
X101925871Y-70200883D01*
X101915373Y-70204010D01*
X101904899Y-70207213D01*
X101894448Y-70210493D01*
X101884021Y-70213849D01*
X101873619Y-70217282D01*
X101863242Y-70220790D01*
X101852891Y-70224374D01*
X101842566Y-70228034D01*
X101832269Y-70231768D01*
X101821998Y-70235578D01*
X101811756Y-70239463D01*
X101801542Y-70243423D01*
X101791357Y-70247457D01*
X101781202Y-70251566D01*
X101771077Y-70255748D01*
X101766026Y-70257867D01*
X101760983Y-70260004D01*
X101755948Y-70262160D01*
X101750920Y-70264334D01*
X101745901Y-70266527D01*
X101740889Y-70268738D01*
X101735886Y-70270967D01*
X101730891Y-70273214D01*
X101725904Y-70275480D01*
X101720925Y-70277764D01*
X101715955Y-70280066D01*
X101710993Y-70282386D01*
X101706039Y-70284724D01*
X101701094Y-70287081D01*
X101696158Y-70289455D01*
X101691230Y-70291847D01*
X101686312Y-70294258D01*
X101681402Y-70296686D01*
X101676501Y-70299132D01*
X101671609Y-70301597D01*
X101666726Y-70304078D01*
X101661852Y-70306578D01*
X101656987Y-70309096D01*
X101652131Y-70311631D01*
X101647285Y-70314184D01*
X101642448Y-70316755D01*
X101637621Y-70319343D01*
X101632802Y-70321949D01*
X101627994Y-70324573D01*
X101623195Y-70327214D01*
X101618406Y-70329873D01*
X101613626Y-70332549D01*
X101608857Y-70335242D01*
X101604096Y-70337953D01*
X101599347Y-70340681D01*
X101594607Y-70343427D01*
X101589877Y-70346190D01*
X101585157Y-70348970D01*
X101580448Y-70351768D01*
X101575748Y-70354583D01*
X101571059Y-70357414D01*
X101566380Y-70360263D01*
X101561712Y-70363129D01*
X101557054Y-70366012D01*
X101552407Y-70368912D01*
X101547770Y-70371829D01*
X101543144Y-70374763D01*
X101538529Y-70377714D01*
X101533924Y-70380681D01*
X101529330Y-70383666D01*
X101524748Y-70386667D01*
X101520176Y-70389685D01*
X101517225Y-70391646D01*
D11*
X37586460Y-64884400D02*
G75*
G02*
X35414454Y-64884400I-1086003J0D01*
G01*
X35414454Y-64884400D02*
G75*
G02*
X37586460Y-64884400I1086003J0D01*
G01*
D10*
X51741842Y-77753544D02*
X51715941Y-77736170D01*
X51690493Y-77719124D01*
X51665855Y-77702644D01*
X51641645Y-77686476D01*
X51618192Y-77670837D01*
X51595145Y-77655492D01*
X51572806Y-77640643D01*
X51550851Y-77626074D01*
X51529559Y-77611968D01*
X51508630Y-77598127D01*
X51488323Y-77584721D01*
X51468359Y-77571565D01*
X51448977Y-77558817D01*
X51429919Y-77546307D01*
X51411408Y-77534178D01*
X51393204Y-77522276D01*
X51375511Y-77510731D01*
X51358110Y-77499401D01*
X51341188Y-77488406D01*
X51324542Y-77477614D01*
X51308344Y-77467137D01*
X51292408Y-77456853D01*
X51276892Y-77446864D01*
X51261624Y-77437059D01*
X51246749Y-77427529D01*
X51232110Y-77418174D01*
X51217838Y-77409078D01*
X51203789Y-77400147D01*
X51190083Y-77391459D01*
X51176589Y-77382928D01*
X51163416Y-77374623D01*
X51150443Y-77366469D01*
X51137769Y-77358526D01*
X51125286Y-77350726D01*
X51113080Y-77343123D01*
X51101056Y-77335656D01*
X51089289Y-77328373D01*
X51077694Y-77321220D01*
X51066338Y-77314237D01*
X51055146Y-77307379D01*
X51044173Y-77300678D01*
X51033356Y-77294096D01*
X51022741Y-77287660D01*
X51012273Y-77281337D01*
X51001991Y-77275149D01*
X50991848Y-77269068D01*
X50981875Y-77263112D01*
X50972034Y-77257258D01*
X50962345Y-77251518D01*
X50952782Y-77245875D01*
X50943356Y-77240337D01*
X50934048Y-77234891D01*
X50924861Y-77229539D01*
X50915787Y-77224275D01*
X50906818Y-77219095D01*
X50897955Y-77214000D01*
X50889182Y-77208979D01*
X50880508Y-77204038D01*
X50871908Y-77199161D01*
X50863403Y-77194361D01*
X50854954Y-77189616D01*
X50846594Y-77184943D01*
X50830035Y-77175756D01*
X50813680Y-77166771D01*
X50797478Y-77157961D01*
X50781377Y-77149295D01*
X50765317Y-77140741D01*
X50749235Y-77132264D01*
X50733057Y-77123826D01*
X50716699Y-77115382D01*
X50700058Y-77106880D01*
X50683008Y-77098257D01*
X50665388Y-77089434D01*
X50646982Y-77080304D01*
X50642011Y-77077852D01*
X100654006Y-75207631D02*
X100648439Y-75226839D01*
X100642796Y-75246025D01*
X100637076Y-75265189D01*
X100631279Y-75284329D01*
X100625405Y-75303446D01*
X100619456Y-75322539D01*
X100613430Y-75341608D01*
X100607327Y-75360654D01*
X100601149Y-75379674D01*
X100594894Y-75398670D01*
X100588564Y-75417641D01*
X100582158Y-75436586D01*
X100575676Y-75455505D01*
X100569118Y-75474399D01*
X100562485Y-75493266D01*
X100555776Y-75512106D01*
X100548992Y-75530920D01*
X100542133Y-75549706D01*
X100535199Y-75568465D01*
X100528190Y-75587196D01*
X100521105Y-75605899D01*
X100513946Y-75624573D01*
X100506713Y-75643219D01*
X100499405Y-75661836D01*
X100492022Y-75680423D01*
X100484565Y-75698981D01*
X100477034Y-75717509D01*
X100469429Y-75736006D01*
X100461750Y-75754473D01*
X100453997Y-75772909D01*
X100446171Y-75791314D01*
X100438271Y-75809688D01*
X100430297Y-75828030D01*
X100422250Y-75846340D01*
X100414130Y-75864618D01*
X100410043Y-75873744D01*
X100405937Y-75882863D01*
X100401813Y-75891973D01*
X100397671Y-75901075D01*
X100393510Y-75910169D01*
X100389332Y-75919254D01*
X100385135Y-75928331D01*
X100380920Y-75937399D01*
X100376687Y-75946459D01*
X100372436Y-75955511D01*
X100368167Y-75964554D01*
X100363880Y-75973589D01*
X100359574Y-75982615D01*
X100355251Y-75991632D01*
X100350910Y-76000641D01*
X100346550Y-76009641D01*
X100342173Y-76018632D01*
X100337777Y-76027615D01*
X100333364Y-76036588D01*
X100328933Y-76045553D01*
X100324483Y-76054509D01*
X100320016Y-76063457D01*
X100315531Y-76072395D01*
X100311028Y-76081324D01*
X100306508Y-76090244D01*
X100301969Y-76099155D01*
X100297413Y-76108057D01*
X100292838Y-76116950D01*
X100288247Y-76125834D01*
X100283637Y-76134708D01*
X100279009Y-76143573D01*
X100274364Y-76152430D01*
X100269701Y-76161276D01*
X100265021Y-76170114D01*
X100260322Y-76178941D01*
X100255606Y-76187760D01*
X100250873Y-76196569D01*
X100246122Y-76205369D01*
X100241353Y-76214159D01*
X100236567Y-76222940D01*
X100231763Y-76231711D01*
X100226941Y-76240472D01*
X100222103Y-76249224D01*
X100217246Y-76257966D01*
X100212372Y-76266698D01*
X100207481Y-76275421D01*
X100202572Y-76284133D01*
X100197646Y-76292836D01*
X100192702Y-76301529D01*
X100187741Y-76310213D01*
X100182763Y-76318886D01*
X100177767Y-76327549D01*
X100172754Y-76336202D01*
X100167724Y-76344846D01*
X100162676Y-76353479D01*
X100157611Y-76362102D01*
X100152529Y-76370715D01*
X100147430Y-76379318D01*
X100142314Y-76387910D01*
X100137180Y-76396492D01*
X100132029Y-76405064D01*
X100126861Y-76413626D01*
X100121676Y-76422177D01*
X100116473Y-76430719D01*
X100111254Y-76439249D01*
X100106018Y-76447769D01*
X100100764Y-76456279D01*
X100095494Y-76464778D01*
X100090207Y-76473266D01*
X100084902Y-76481745D01*
X100084698Y-76482070D01*
X78167070Y-95565775D02*
X78192485Y-95544410D01*
X78217849Y-95522983D01*
X78243161Y-95501496D01*
X78268421Y-95479947D01*
X78293629Y-95458338D01*
X78318785Y-95436668D01*
X78343888Y-95414937D01*
X78368940Y-95393147D01*
X78393938Y-95371295D01*
X78418884Y-95349384D01*
X78443778Y-95327412D01*
X78468618Y-95305381D01*
X78493405Y-95283290D01*
X78518139Y-95261139D01*
X78542819Y-95238929D01*
X78567446Y-95216659D01*
X78592019Y-95194329D01*
X78616539Y-95171941D01*
X78641004Y-95149494D01*
X78665416Y-95126987D01*
X78689773Y-95104422D01*
X78714075Y-95081798D01*
X78738324Y-95059116D01*
X78762517Y-95036375D01*
X78786656Y-95013576D01*
X78810740Y-94990719D01*
X78834769Y-94967803D01*
X78858743Y-94944830D01*
X78882661Y-94921799D01*
X78906524Y-94898710D01*
X78930331Y-94875564D01*
X78954082Y-94852361D01*
X78977778Y-94829100D01*
X79001418Y-94805782D01*
X79025001Y-94782408D01*
X79048528Y-94758976D01*
X79071999Y-94735488D01*
X79095413Y-94711943D01*
X79118770Y-94688342D01*
X79142071Y-94664684D01*
X79165314Y-94640970D01*
X79188501Y-94617201D01*
X79211630Y-94593375D01*
X79234702Y-94569494D01*
X79257716Y-94545557D01*
X79280673Y-94521564D01*
X79303572Y-94497517D01*
X79326413Y-94473414D01*
X79349196Y-94449256D01*
X79371921Y-94425043D01*
X79394587Y-94400775D01*
X79417195Y-94376453D01*
X79439745Y-94352076D01*
X79462235Y-94327645D01*
X79484667Y-94303160D01*
X79507040Y-94278620D01*
X79529354Y-94254027D01*
X79551609Y-94229380D01*
X79573804Y-94204680D01*
X79595940Y-94179925D01*
X79618016Y-94155118D01*
X79640032Y-94130257D01*
X79661989Y-94105344D01*
X79683885Y-94080377D01*
X79705721Y-94055358D01*
X79727497Y-94030286D01*
X79749213Y-94005162D01*
X79770868Y-93979985D01*
X79792463Y-93954756D01*
X79813996Y-93929475D01*
X79835469Y-93904142D01*
X79856881Y-93878758D01*
X79878231Y-93853322D01*
X79899521Y-93827834D01*
X79920749Y-93802296D01*
X79941915Y-93776706D01*
X79963020Y-93751065D01*
X79984063Y-93725373D01*
X80005044Y-93699631D01*
X80025963Y-93673838D01*
X80046820Y-93647995D01*
X80067614Y-93622102D01*
X80088346Y-93596158D01*
X80098689Y-93583168D01*
X80109016Y-93570165D01*
X80119327Y-93557149D01*
X80129623Y-93544122D01*
X80139903Y-93531081D01*
X80150167Y-93518029D01*
X80160416Y-93504964D01*
X80170648Y-93491887D01*
X80180865Y-93478797D01*
X80191067Y-93465695D01*
X80201252Y-93452581D01*
X80211422Y-93439454D01*
X80221576Y-93426316D01*
X80231714Y-93413165D01*
X80241836Y-93400002D01*
X80251943Y-93386826D01*
X80262033Y-93373639D01*
X80272108Y-93360439D01*
X80282166Y-93347227D01*
X80292209Y-93334004D01*
X80302236Y-93320768D01*
X80312247Y-93307519D01*
X80322242Y-93294259D01*
X80332221Y-93280987D01*
X80342184Y-93267703D01*
X80352131Y-93254407D01*
X80362062Y-93241099D01*
X80371977Y-93227779D01*
X80381876Y-93214447D01*
X80391759Y-93201103D01*
X80401625Y-93187747D01*
X80411476Y-93174379D01*
X80421311Y-93161000D01*
X80431129Y-93147608D01*
X80440931Y-93134205D01*
X80450718Y-93120790D01*
X80460487Y-93107363D01*
X80470241Y-93093924D01*
X80479979Y-93080474D01*
X80489700Y-93067012D01*
X80499406Y-93053538D01*
X80509095Y-93040053D01*
X80518767Y-93026556D01*
X80528424Y-93013047D01*
X80538064Y-92999527D01*
X80547688Y-92985995D01*
X80557295Y-92972451D01*
X80566887Y-92958896D01*
X80576462Y-92945330D01*
X80586020Y-92931751D01*
X80595562Y-92918162D01*
X80605088Y-92904560D01*
X80614598Y-92890948D01*
X80624091Y-92877324D01*
X80633567Y-92863688D01*
X80643028Y-92850041D01*
X80652471Y-92836383D01*
X80661899Y-92822713D01*
X80671309Y-92809033D01*
X80680704Y-92795340D01*
X80690082Y-92781637D01*
X80699443Y-92767922D01*
X80708788Y-92754196D01*
X80718116Y-92740458D01*
X80727428Y-92726710D01*
X80736723Y-92712950D01*
X80746001Y-92699179D01*
X80755263Y-92685396D01*
X80764509Y-92671603D01*
X80773737Y-92657799D01*
X80782949Y-92643983D01*
X80792145Y-92630156D01*
X80801324Y-92616319D01*
X80810486Y-92602470D01*
X80819631Y-92588610D01*
X80828760Y-92574739D01*
X80837872Y-92560858D01*
X80846967Y-92546965D01*
X80856046Y-92533061D01*
X80865108Y-92519147D01*
X80874152Y-92505221D01*
X80883181Y-92491285D01*
X80892192Y-92477338D01*
X80901187Y-92463379D01*
X80910164Y-92449411D01*
X80919126Y-92435431D01*
X80928070Y-92421441D01*
X80936997Y-92407439D01*
X80945907Y-92393427D01*
X80954801Y-92379404D01*
X80963677Y-92365371D01*
X80972537Y-92351327D01*
X80981380Y-92337273D01*
X80990206Y-92323207D01*
X80999014Y-92309131D01*
X81007807Y-92295044D01*
X81016581Y-92280947D01*
X81025339Y-92266839D01*
X81034080Y-92252721D01*
X81042804Y-92238592D01*
X81051511Y-92224453D01*
X81060201Y-92210303D01*
X81068874Y-92196143D01*
X81077530Y-92181972D01*
X81086168Y-92167792D01*
X81094790Y-92153600D01*
X81103394Y-92139398D01*
X81111982Y-92125186D01*
X81120552Y-92110964D01*
X81129105Y-92096730D01*
X81137641Y-92082488D01*
X81146160Y-92068234D01*
X81154662Y-92053970D01*
X81163146Y-92039696D01*
X81171613Y-92025412D01*
X81180063Y-92011118D01*
X81188496Y-91996814D01*
X81196912Y-91982499D01*
X81205310Y-91968174D01*
X81213691Y-91953839D01*
X81222055Y-91939495D01*
X81230402Y-91925139D01*
X81238731Y-91910774D01*
X81247043Y-91896399D01*
X81255337Y-91882014D01*
X81263615Y-91867619D01*
X81271874Y-91853214D01*
X81280117Y-91838799D01*
X81288342Y-91824374D01*
X81296550Y-91809939D01*
X81304740Y-91795495D01*
X81312914Y-91781040D01*
X81321069Y-91766576D01*
X81329208Y-91752101D01*
X81337328Y-91737617D01*
X81345432Y-91723123D01*
X81353517Y-91708620D01*
X81361586Y-91694106D01*
X81369637Y-91679584D01*
X81377670Y-91665050D01*
X81385686Y-91650508D01*
X81393685Y-91635956D01*
X81401665Y-91621395D01*
X81409629Y-91606823D01*
X81417574Y-91592242D01*
X81425503Y-91577651D01*
X81433413Y-91563052D01*
X81441307Y-91548442D01*
X81449182Y-91533823D01*
X81457040Y-91519194D01*
X81464880Y-91504556D01*
X81472703Y-91489908D01*
X81480508Y-91475252D01*
X81488295Y-91460585D01*
X81496065Y-91445910D01*
X81503817Y-91431224D01*
X81511551Y-91416530D01*
X81519268Y-91401826D01*
X81526967Y-91387113D01*
X81534648Y-91372390D01*
X81539966Y-91362172D01*
X147186367Y-39181685D02*
X147204214Y-39196706D01*
X147222054Y-39211747D01*
X147239854Y-39226781D01*
X147257645Y-39241834D01*
X147275396Y-39256879D01*
X147293140Y-39271943D01*
X147310842Y-39287000D01*
X147328537Y-39302075D01*
X147346191Y-39317143D01*
X147363837Y-39332229D01*
X147381442Y-39347308D01*
X147399038Y-39362405D01*
X147416594Y-39377494D01*
X147434141Y-39392602D01*
X147451647Y-39407701D01*
X147469145Y-39422818D01*
X147486601Y-39437927D01*
X147504049Y-39453055D01*
X147521455Y-39468174D01*
X147538853Y-39483311D01*
X147556209Y-39498439D01*
X147573556Y-39513586D01*
X147590862Y-39528723D01*
X147608158Y-39543879D01*
X147625414Y-39559025D01*
X147642659Y-39574189D01*
X147659864Y-39589344D01*
X147677059Y-39604517D01*
X147694212Y-39619680D01*
X147711356Y-39634861D01*
X147728458Y-39650032D01*
X147745550Y-39665221D01*
X147762600Y-39680400D01*
X147779641Y-39695597D01*
X147796640Y-39710784D01*
X147813629Y-39725988D01*
X147830576Y-39741182D01*
X147847512Y-39756394D01*
X147864407Y-39771595D01*
X147881292Y-39786814D01*
X147898135Y-39802022D01*
X147914967Y-39817247D01*
X147931757Y-39832461D01*
X147948537Y-39847693D01*
X147965275Y-39862914D01*
X147982002Y-39878152D01*
X147998687Y-39893379D01*
X148015361Y-39908624D01*
X148031994Y-39923857D01*
X148048615Y-39939107D01*
X148065194Y-39954345D01*
X148081762Y-39969601D01*
X148098288Y-39984845D01*
X148114802Y-40000106D01*
X148131275Y-40015355D01*
X148147736Y-40030621D01*
X148164155Y-40045875D01*
X148180562Y-40061146D01*
X148196928Y-40076405D01*
X148213281Y-40091681D01*
X148229593Y-40106945D01*
X148245893Y-40122225D01*
X148262150Y-40137493D01*
X148278396Y-40152777D01*
X148294600Y-40168049D01*
X148310791Y-40183337D01*
X148326941Y-40198613D01*
X148343078Y-40213905D01*
X148359173Y-40229185D01*
X148375256Y-40244481D01*
X148391297Y-40259764D01*
X148407325Y-40275063D01*
X148423311Y-40290350D01*
X148439284Y-40305652D01*
X148455216Y-40320942D01*
X148471135Y-40336247D01*
X148487011Y-40351540D01*
X148502875Y-40366848D01*
X148518697Y-40382143D01*
X148534506Y-40397454D01*
X148550273Y-40412752D01*
X148566027Y-40428065D01*
X148581738Y-40443365D01*
X148597437Y-40458680D01*
X148613093Y-40473982D01*
X148628737Y-40489300D01*
X148644338Y-40504604D01*
X148659926Y-40519923D01*
X148675472Y-40535229D01*
X148691004Y-40550550D01*
X148706495Y-40565857D01*
X148721972Y-40581180D01*
X148737407Y-40596489D01*
X148752828Y-40611812D01*
X148768207Y-40627122D01*
X148783573Y-40642447D01*
X148798896Y-40657758D01*
X148814206Y-40673084D01*
X148829474Y-40688396D01*
X148844728Y-40703722D01*
X148859940Y-40719035D01*
X148875138Y-40734362D01*
X148890294Y-40749675D01*
X148905436Y-40765002D01*
X148920536Y-40780316D01*
X148935622Y-40795643D01*
X148950666Y-40810957D01*
X148965696Y-40826285D01*
X148980684Y-40841598D01*
X148995658Y-40856926D01*
X149010589Y-40872240D01*
X149025507Y-40887567D01*
X149040383Y-40902880D01*
X149055244Y-40918207D01*
X149070063Y-40933520D01*
X149084868Y-40948846D01*
X149099631Y-40964158D01*
X149114379Y-40979484D01*
X149129086Y-40994795D01*
X149143778Y-41010120D01*
X149158428Y-41025430D01*
X149173064Y-41040754D01*
X149187657Y-41056063D01*
X149202236Y-41071386D01*
X149216774Y-41086694D01*
X149231296Y-41102015D01*
X149245777Y-41117322D01*
X149260243Y-41132642D01*
X149274667Y-41147947D01*
X149289076Y-41163265D01*
X149303444Y-41178568D01*
X149317797Y-41193885D01*
X149332108Y-41209186D01*
X149346404Y-41224501D01*
X149360658Y-41239800D01*
X149374897Y-41255113D01*
X149389095Y-41270410D01*
X149403278Y-41285720D01*
X149417419Y-41301015D01*
X149431544Y-41316323D01*
X149445629Y-41331616D01*
X149459698Y-41346922D01*
X149473725Y-41362212D01*
X149487737Y-41377515D01*
X149501708Y-41392802D01*
X149515664Y-41408102D01*
X149529578Y-41423387D01*
X149543476Y-41438685D01*
X149557334Y-41453966D01*
X149571176Y-41469261D01*
X149584976Y-41484540D01*
X149598761Y-41499831D01*
X149612505Y-41515107D01*
X149626233Y-41530395D01*
X149639920Y-41545667D01*
X149653591Y-41560952D01*
X149667222Y-41576221D01*
X149680836Y-41591502D01*
X149694409Y-41606767D01*
X149707967Y-41622045D01*
X149721484Y-41637307D01*
X149734984Y-41652580D01*
X149748444Y-41667838D01*
X149761888Y-41683108D01*
X149775291Y-41698363D01*
X149788678Y-41713629D01*
X149802024Y-41728879D01*
X149815355Y-41744141D01*
X149828644Y-41759387D01*
X149841917Y-41774645D01*
X149855150Y-41789886D01*
X149868367Y-41805140D01*
X149881543Y-41820377D01*
X149894702Y-41835627D01*
X149907822Y-41850860D01*
X149920925Y-41866104D01*
X149933987Y-41881333D01*
X149947033Y-41896573D01*
X149960039Y-41911797D01*
X149973029Y-41927032D01*
X149985978Y-41942251D01*
X149998911Y-41957481D01*
X150011803Y-41972696D01*
X150024679Y-41987921D01*
X150037515Y-42003130D01*
X150050334Y-42018351D01*
X150063113Y-42033555D01*
X150075876Y-42048771D01*
X150088599Y-42063970D01*
X150101304Y-42079180D01*
X150113970Y-42094374D01*
X150126620Y-42109578D01*
X150139229Y-42124767D01*
X150151822Y-42139966D01*
X150164375Y-42155149D01*
X150176911Y-42170343D01*
X150189407Y-42185521D01*
X150201887Y-42200709D01*
X150214327Y-42215881D01*
X150226750Y-42231064D01*
X150239134Y-42246230D01*
X150251500Y-42261407D01*
X150263827Y-42276567D01*
X150276137Y-42291738D01*
X150288408Y-42306892D01*
X150300662Y-42322057D01*
X150312877Y-42337206D01*
X150325074Y-42352365D01*
X150337232Y-42367507D01*
X150349373Y-42382660D01*
X150361475Y-42397796D01*
X150373560Y-42412943D01*
X150385606Y-42428073D01*
X150397634Y-42443213D01*
X150409624Y-42458337D01*
X150421596Y-42473471D01*
X150433529Y-42488588D01*
X150445445Y-42503716D01*
X150457323Y-42518827D01*
X150469183Y-42533948D01*
X150481004Y-42549052D01*
X150492808Y-42564166D01*
X150504573Y-42579264D01*
X150516321Y-42594372D01*
X150528031Y-42609463D01*
X150539722Y-42624564D01*
X150551376Y-42639648D01*
X150563012Y-42654742D01*
X150574610Y-42669819D01*
X150586190Y-42684906D01*
X150597731Y-42699977D01*
X150609256Y-42715057D01*
X150620742Y-42730121D01*
X150632210Y-42745194D01*
X150643641Y-42760250D01*
X150655053Y-42775316D01*
X150666428Y-42790365D01*
X150677785Y-42805424D01*
X150689104Y-42820466D01*
X150700406Y-42835518D01*
X150711669Y-42850553D01*
X150722915Y-42865597D01*
X150734123Y-42880625D01*
X150745313Y-42895662D01*
X150765133Y-42922377D01*
X63275587Y-97391441D02*
X63305495Y-97405972D01*
X63335438Y-97420431D01*
X63365414Y-97434817D01*
X63395425Y-97449131D01*
X63425469Y-97463373D01*
X63455547Y-97477542D01*
X63485659Y-97491638D01*
X63515803Y-97505662D01*
X63545981Y-97519612D01*
X63576191Y-97533490D01*
X63606435Y-97547295D01*
X63636711Y-97561026D01*
X63667019Y-97574685D01*
X63697360Y-97588270D01*
X63727732Y-97601782D01*
X63758137Y-97615221D01*
X63788573Y-97628586D01*
X63819041Y-97641878D01*
X63849541Y-97655096D01*
X63880071Y-97668241D01*
X63910633Y-97681312D01*
X63941225Y-97694309D01*
X63971848Y-97707232D01*
X64002502Y-97720081D01*
X64033186Y-97732856D01*
X64063900Y-97745557D01*
X64094644Y-97758184D01*
X64125418Y-97770737D01*
X64156222Y-97783215D01*
X64187055Y-97795619D01*
X64217918Y-97807949D01*
X64248810Y-97820204D01*
X64279730Y-97832385D01*
X64310680Y-97844491D01*
X64341658Y-97856522D01*
X64372664Y-97868479D01*
X64403699Y-97880360D01*
X64434762Y-97892167D01*
X64465853Y-97903899D01*
X64496971Y-97915555D01*
X64528118Y-97927137D01*
X64559291Y-97938643D01*
X64590492Y-97950075D01*
X64621719Y-97961431D01*
X64652974Y-97972711D01*
X64684255Y-97983916D01*
X64715563Y-97995046D01*
X64746897Y-98006100D01*
X64778257Y-98017079D01*
X64809643Y-98027981D01*
X64841055Y-98038809D01*
X64872492Y-98049560D01*
X64903955Y-98060235D01*
X64935443Y-98070835D01*
X64966956Y-98081358D01*
X64998494Y-98091806D01*
X65030057Y-98102177D01*
X65061644Y-98112473D01*
X65093256Y-98122692D01*
X65124892Y-98132834D01*
X65156551Y-98142901D01*
X65188235Y-98152891D01*
X65219942Y-98162805D01*
X65251672Y-98172642D01*
X65283426Y-98182402D01*
X65315203Y-98192086D01*
X65331100Y-98196900D01*
X65347002Y-98201694D01*
X65362911Y-98206469D01*
X65378825Y-98211224D01*
X65394745Y-98215961D01*
X65410670Y-98220678D01*
X65426601Y-98225376D01*
X65442537Y-98230055D01*
X65458479Y-98234715D01*
X65474426Y-98239355D01*
X65490379Y-98243977D01*
X65506338Y-98248579D01*
X65522302Y-98253161D01*
X65538271Y-98257725D01*
X65554245Y-98262269D01*
X65570226Y-98266794D01*
X65586211Y-98271300D01*
X65602202Y-98275786D01*
X65618198Y-98280254D01*
X65634199Y-98284701D01*
X65650206Y-98289130D01*
X65666217Y-98293539D01*
X65682234Y-98297929D01*
X65698257Y-98302300D01*
X65714284Y-98306651D01*
X65730317Y-98310983D01*
X65746354Y-98315296D01*
X65762397Y-98319589D01*
X65778445Y-98323863D01*
X65794498Y-98328118D01*
X65810556Y-98332353D01*
X65826619Y-98336569D01*
X65842687Y-98340765D01*
X65858760Y-98344943D01*
X65874838Y-98349100D01*
X65890920Y-98353239D01*
X65907008Y-98357358D01*
X65923101Y-98361457D01*
X65939198Y-98365538D01*
X65955300Y-98369598D01*
X65971407Y-98373640D01*
X65987519Y-98377662D01*
X66003636Y-98381664D01*
X66019757Y-98385647D01*
X66035883Y-98389611D01*
X66052014Y-98393555D01*
X66068149Y-98397480D01*
X66084289Y-98401385D01*
X66100434Y-98405271D01*
X66116583Y-98409138D01*
X66132737Y-98412985D01*
X66148895Y-98416812D01*
X66165058Y-98420620D01*
X66181225Y-98424409D01*
X66197397Y-98428177D01*
X66213574Y-98431927D01*
X66229754Y-98435657D01*
X66245939Y-98439367D01*
X66262129Y-98443058D01*
X66278323Y-98446730D01*
X66294521Y-98450382D01*
X66310724Y-98454014D01*
X66326930Y-98457627D01*
X66343142Y-98461220D01*
X66359357Y-98464794D01*
X66375577Y-98468348D01*
X66391800Y-98471883D01*
X66408029Y-98475398D01*
X66424261Y-98478894D01*
X66440497Y-98482370D01*
X66456737Y-98485826D01*
X66472982Y-98489263D01*
X66489230Y-98492680D01*
X66505483Y-98496078D01*
X66521740Y-98499456D01*
X66538000Y-98502814D01*
X66554265Y-98506153D01*
X66570534Y-98509472D01*
X66586806Y-98512772D01*
X66603083Y-98516052D01*
X66619363Y-98519312D01*
X66635647Y-98522553D01*
X66651935Y-98525774D01*
X66668227Y-98528976D01*
X66684522Y-98532158D01*
X66700822Y-98535320D01*
X66717124Y-98538463D01*
X66733431Y-98541586D01*
X66749742Y-98544689D01*
X66766056Y-98547772D01*
X66782374Y-98550836D01*
X66798695Y-98553881D01*
X66815020Y-98556905D01*
X66831349Y-98559910D01*
X66847681Y-98562895D01*
X66864017Y-98565861D01*
X66880356Y-98568807D01*
X66896699Y-98571733D01*
X66913045Y-98574640D01*
X66929395Y-98577526D01*
X66945747Y-98580393D01*
X66962104Y-98583241D01*
X66978464Y-98586068D01*
X66994827Y-98588876D01*
X67011193Y-98591664D01*
X67027563Y-98594433D01*
X67043936Y-98597182D01*
X67060313Y-98599911D01*
X67076692Y-98602620D01*
X67093075Y-98605310D01*
X67109461Y-98607979D01*
X67125850Y-98610629D01*
X67142242Y-98613260D01*
X67158638Y-98615870D01*
X67175036Y-98618461D01*
X67191438Y-98621032D01*
X67207843Y-98623583D01*
X67224251Y-98626115D01*
X67240661Y-98628626D01*
X67257075Y-98631118D01*
X67273491Y-98633590D01*
X67289911Y-98636043D01*
X67306333Y-98638475D01*
X67322759Y-98640888D01*
X67339187Y-98643281D01*
X67355619Y-98645654D01*
X67372052Y-98648008D01*
X67388489Y-98650341D01*
X67404928Y-98652655D01*
X67421371Y-98654949D01*
X67437816Y-98657223D01*
X67454264Y-98659477D01*
X67470714Y-98661712D01*
X67487167Y-98663926D01*
X67503622Y-98666121D01*
X67520081Y-98668296D01*
X67536542Y-98670451D01*
X67553006Y-98672587D01*
X67569471Y-98674702D01*
X67585940Y-98676798D01*
X67602411Y-98678874D01*
X67618885Y-98680930D01*
X67635360Y-98682966D01*
X67651839Y-98684982D01*
X67668320Y-98686979D01*
X67684803Y-98688955D01*
X67701289Y-98690912D01*
X67717777Y-98692849D01*
X67734267Y-98694766D01*
X67750760Y-98696663D01*
X67767254Y-98698540D01*
X67783752Y-98700397D01*
X67800251Y-98702235D01*
X67816753Y-98704053D01*
X67833256Y-98705850D01*
X67849762Y-98707628D01*
X67866270Y-98709386D01*
X67882781Y-98711124D01*
X67899293Y-98712842D01*
X67915807Y-98714541D01*
X67932323Y-98716219D01*
X67948842Y-98717877D01*
X67965362Y-98719516D01*
X67981885Y-98721135D01*
X67998409Y-98722733D01*
X68014936Y-98724312D01*
X68031464Y-98725871D01*
X68047994Y-98727410D01*
X68064526Y-98728929D01*
X68081060Y-98730429D01*
X68097595Y-98731908D01*
X68114133Y-98733367D01*
X68130672Y-98734807D01*
X68147213Y-98736226D01*
X68162796Y-98737545D01*
D11*
X41018861Y-44427799D02*
G75*
G02*
X38568861Y-44427799I-1225000J0D01*
G01*
X38568861Y-44427799D02*
G75*
G02*
X41018861Y-44427799I1225000J0D01*
G01*
D10*
X55549802Y-86849454D02*
X55535490Y-86780225D01*
X55521707Y-86713458D01*
X55508743Y-86650555D01*
X55496256Y-86589872D01*
X55484493Y-86532606D01*
X55473162Y-86477343D01*
X55462470Y-86425099D01*
X55452169Y-86374666D01*
X55442432Y-86326893D01*
X55433049Y-86280757D01*
X55424162Y-86236962D01*
X55415596Y-86194646D01*
X55407465Y-86154381D01*
X55399624Y-86115454D01*
X55392164Y-86078315D01*
X55384967Y-86042385D01*
X55378100Y-86008001D01*
X55371472Y-85974710D01*
X55365127Y-85942741D01*
X55358998Y-85911760D01*
X55353109Y-85881889D01*
X55347415Y-85852910D01*
X55341920Y-85824837D01*
X55336603Y-85797568D01*
X55331443Y-85771006D01*
X55326444Y-85745167D01*
X55321562Y-85719831D01*
X55316825Y-85695142D01*
X55307629Y-85646911D01*
X55298735Y-85599848D01*
X55290002Y-85553223D01*
X55281258Y-85506120D01*
X55272263Y-85457247D01*
X55262630Y-85404495D01*
X55260910Y-85395036D01*
X117652409Y-69446282D02*
X117683487Y-69453495D01*
X117714601Y-69460798D01*
X117745751Y-69468192D01*
X117776938Y-69475677D01*
X117808163Y-69483253D01*
X117839426Y-69490920D01*
X117870728Y-69498679D01*
X117902068Y-69506530D01*
X117933449Y-69514473D01*
X117964869Y-69522508D01*
X117996330Y-69530637D01*
X118027832Y-69538858D01*
X118059376Y-69547173D01*
X118090963Y-69555582D01*
X118122592Y-69564084D01*
X118154265Y-69572681D01*
X118185983Y-69581373D01*
X118217745Y-69590160D01*
X118249553Y-69599042D01*
X118281407Y-69608020D01*
X118313308Y-69617095D01*
X118345256Y-69626265D01*
X118377253Y-69635533D01*
X118409299Y-69644898D01*
X118441395Y-69654361D01*
X118473541Y-69663921D01*
X118505738Y-69673581D01*
X118537988Y-69683339D01*
X118570290Y-69693196D01*
X118602647Y-69703154D01*
X118635058Y-69713212D01*
X118667524Y-69723370D01*
X118700047Y-69733630D01*
X118732628Y-69743992D01*
X118765267Y-69754456D01*
X118797965Y-69765023D01*
X118830723Y-69775693D01*
X118863543Y-69786467D01*
X118896426Y-69797345D01*
X118929372Y-69808329D01*
X118962383Y-69819418D01*
X118995459Y-69830614D01*
X119028603Y-69841916D01*
X119061815Y-69853326D01*
X119095097Y-69864845D01*
X119128449Y-69876472D01*
X119161874Y-69888209D01*
X119195373Y-69900057D01*
X119228947Y-69912015D01*
X119262597Y-69924086D01*
X119296326Y-69936269D01*
X119330135Y-69948566D01*
X119364025Y-69960978D01*
X119397998Y-69973505D01*
X119432056Y-69986148D01*
X119466201Y-69998908D01*
X119500435Y-70011787D01*
X119534760Y-70024785D01*
X119569177Y-70037904D01*
X119603690Y-70051144D01*
X119638299Y-70064506D01*
X119673008Y-70077993D01*
X119707819Y-70091605D01*
X119742734Y-70105343D01*
X119777757Y-70119208D01*
X119812889Y-70133203D01*
X119848134Y-70147329D01*
X119883494Y-70161587D01*
X119918973Y-70175978D01*
X119954574Y-70190505D01*
X119990300Y-70205170D01*
X120026156Y-70219973D01*
X120062144Y-70234917D01*
X120098268Y-70250004D01*
X120134533Y-70265237D01*
X120170944Y-70280616D01*
X120207503Y-70296145D01*
X120244218Y-70311827D01*
X120281092Y-70327663D01*
X120318131Y-70343656D01*
X120355340Y-70359810D01*
X120392726Y-70376127D01*
X120430296Y-70392611D01*
X120468055Y-70409265D01*
X120506011Y-70426094D01*
X120544171Y-70443099D01*
X120582545Y-70460287D01*
X120621140Y-70477661D01*
X120659967Y-70495227D01*
X120699035Y-70512989D01*
X120738354Y-70530952D01*
X120777938Y-70549124D01*
X120817797Y-70567510D01*
X120857947Y-70586117D01*
X120898401Y-70604953D01*
X120939176Y-70624025D01*
X120980290Y-70643344D01*
X121021762Y-70662919D01*
X121063612Y-70682760D01*
X121105864Y-70702879D01*
X121148545Y-70723291D01*
X121191682Y-70744008D01*
X121235309Y-70765048D01*
X121279460Y-70786429D01*
X121324177Y-70808172D01*
X121369506Y-70830301D01*
X121415499Y-70852842D01*
X121462219Y-70875827D01*
X121509736Y-70899292D01*
X121558133Y-70923280D01*
X121607510Y-70947841D01*
X121657987Y-70973037D01*
X121709710Y-70998943D01*
X121762861Y-71025652D01*
X121817672Y-71053282D01*
X121874447Y-71081990D01*
X121933594Y-71111985D01*
X121995693Y-71143563D01*
X122044601Y-71168489D01*
X55857385Y-88137817D02*
X55865022Y-88169921D01*
X55872739Y-88202010D01*
X55880533Y-88234083D01*
X55888406Y-88266140D01*
X55896358Y-88298182D01*
X55904388Y-88330207D01*
X55912496Y-88362216D01*
X55920683Y-88394209D01*
X55928948Y-88426185D01*
X55937291Y-88458145D01*
X55945713Y-88490087D01*
X55954213Y-88522013D01*
X55962791Y-88553921D01*
X55971447Y-88585811D01*
X55980182Y-88617685D01*
X55988994Y-88649540D01*
X55997884Y-88681378D01*
X56006853Y-88713197D01*
X56015899Y-88744998D01*
X56025024Y-88776781D01*
X56034226Y-88808545D01*
X56043506Y-88840291D01*
X56052864Y-88872018D01*
X56062300Y-88903725D01*
X56071814Y-88935413D01*
X56081405Y-88967082D01*
X56091074Y-88998732D01*
X56100820Y-89030361D01*
X56110644Y-89061971D01*
X56120546Y-89093561D01*
X56130525Y-89125130D01*
X56140582Y-89156679D01*
X56150716Y-89188208D01*
X56160927Y-89219715D01*
X56171216Y-89251202D01*
X56181582Y-89282668D01*
X56192025Y-89314112D01*
X56202545Y-89345535D01*
X56213143Y-89376937D01*
X56223817Y-89408317D01*
X56234569Y-89439675D01*
X56245398Y-89471011D01*
X56256303Y-89502324D01*
X56267286Y-89533616D01*
X56278345Y-89564884D01*
X56289482Y-89596130D01*
X56300695Y-89627353D01*
X56311984Y-89658553D01*
X56323351Y-89689730D01*
X56334794Y-89720883D01*
X56346313Y-89752013D01*
X56357910Y-89783119D01*
X56369582Y-89814202D01*
X56381331Y-89845260D01*
X56393157Y-89876294D01*
X56405058Y-89907303D01*
X56417037Y-89938288D01*
X56429091Y-89969249D01*
X56441221Y-90000184D01*
X56453428Y-90031094D01*
X56465710Y-90061979D01*
X56478069Y-90092839D01*
X56490503Y-90123673D01*
X56503014Y-90154482D01*
X56515600Y-90185265D01*
X56521922Y-90200646D01*
X56528262Y-90216021D01*
X56534622Y-90231390D01*
X56541000Y-90246752D01*
X56547397Y-90262107D01*
X56553813Y-90277456D01*
X56560249Y-90292798D01*
X56566703Y-90308133D01*
X56573175Y-90323462D01*
X56579667Y-90338784D01*
X56586178Y-90354099D01*
X56592707Y-90369408D01*
X56599256Y-90384710D01*
X56605823Y-90400005D01*
X56612409Y-90415293D01*
X56619014Y-90430575D01*
X56625638Y-90445849D01*
X56632280Y-90461117D01*
X56638942Y-90476378D01*
X56645622Y-90491632D01*
X56652321Y-90506879D01*
X56659039Y-90522119D01*
X56659274Y-90522652D01*
D11*
X114650457Y-37484400D02*
X114650457Y-34884400D01*
D10*
X81658038Y-91129727D02*
X81672760Y-91099962D01*
X81687411Y-91070161D01*
X81701989Y-91040326D01*
X81716496Y-91010455D01*
X81730931Y-90980550D01*
X81745294Y-90950610D01*
X81759584Y-90920635D01*
X81773802Y-90890626D01*
X81787948Y-90860583D01*
X81802021Y-90830507D01*
X81816022Y-90800396D01*
X81829950Y-90770252D01*
X81843806Y-90740074D01*
X81857589Y-90709863D01*
X81871299Y-90679619D01*
X81884936Y-90649342D01*
X81898500Y-90619032D01*
X81911991Y-90588690D01*
X81925409Y-90558315D01*
X81938754Y-90527908D01*
X81952025Y-90497469D01*
X81965223Y-90466998D01*
X81978348Y-90436495D01*
X81991399Y-90405961D01*
X82004377Y-90375395D01*
X82017280Y-90344799D01*
X82030111Y-90314171D01*
X82042867Y-90283512D01*
X82055549Y-90252823D01*
X82068158Y-90222103D01*
X82080692Y-90191353D01*
X82093153Y-90160573D01*
X82105539Y-90129763D01*
X82117851Y-90098923D01*
X82130088Y-90068054D01*
X82142251Y-90037155D01*
X82154340Y-90006227D01*
X82166354Y-89975269D01*
X82178294Y-89944283D01*
X82190159Y-89913269D01*
X82201949Y-89882225D01*
X82213664Y-89851154D01*
X82225305Y-89820054D01*
X82236870Y-89788926D01*
X82248361Y-89757770D01*
X82259776Y-89726587D01*
X82271117Y-89695377D01*
X82282382Y-89664139D01*
X82293572Y-89632874D01*
X82304686Y-89601582D01*
X82315725Y-89570263D01*
X82326689Y-89538918D01*
X82337577Y-89507547D01*
X82348389Y-89476149D01*
X82359126Y-89444726D01*
X82369787Y-89413276D01*
X82380373Y-89381801D01*
X82390882Y-89350301D01*
X82401316Y-89318775D01*
X82411673Y-89287224D01*
X82421955Y-89255649D01*
X82432160Y-89224048D01*
X82442289Y-89192423D01*
X82452343Y-89160774D01*
X82462319Y-89129101D01*
X82472220Y-89097403D01*
X82477141Y-89081546D01*
X82482044Y-89065682D01*
X82486927Y-89049813D01*
X82491792Y-89033938D01*
X82496637Y-89018057D01*
X82501463Y-89002170D01*
X82506270Y-88986277D01*
X82511057Y-88970378D01*
X82515826Y-88954474D01*
X82520575Y-88938564D01*
X82525306Y-88922648D01*
X82530017Y-88906727D01*
X82534709Y-88890800D01*
X82539381Y-88874867D01*
X82544035Y-88858929D01*
X82548669Y-88842985D01*
X82553284Y-88827035D01*
X82557880Y-88811080D01*
X82562457Y-88795119D01*
X82567014Y-88779153D01*
X82571553Y-88763182D01*
X82576072Y-88747205D01*
X82580571Y-88731222D01*
X82585052Y-88715234D01*
X82589513Y-88699241D01*
X82593955Y-88683242D01*
X82598378Y-88667238D01*
X82602781Y-88651229D01*
X82607165Y-88635214D01*
X82611530Y-88619194D01*
X82615875Y-88603169D01*
X82620202Y-88587139D01*
X82624508Y-88571103D01*
X82628796Y-88555062D01*
X82633064Y-88539017D01*
X82637313Y-88522966D01*
X82641543Y-88506909D01*
X82645753Y-88490848D01*
X82649944Y-88474782D01*
X82654115Y-88458711D01*
X82658268Y-88442634D01*
X82662400Y-88426553D01*
X82666514Y-88410467D01*
X82670608Y-88394375D01*
X82674682Y-88378279D01*
X82678738Y-88362178D01*
X82682774Y-88346072D01*
X82686790Y-88329961D01*
X82690787Y-88313846D01*
X82694765Y-88297725D01*
X82698723Y-88281600D01*
X82702662Y-88265470D01*
X82706581Y-88249336D01*
X82710481Y-88233196D01*
X82714362Y-88217052D01*
X82718223Y-88200903D01*
X82722064Y-88184750D01*
X82725886Y-88168592D01*
X82729689Y-88152429D01*
X82733472Y-88136262D01*
X82737236Y-88120090D01*
X82740980Y-88103914D01*
X82744705Y-88087733D01*
X82748410Y-88071548D01*
X82752096Y-88055358D01*
X82755762Y-88039164D01*
X82759409Y-88022966D01*
X82763036Y-88006762D01*
X82766644Y-87990555D01*
X82770232Y-87974344D01*
X82773801Y-87958128D01*
X82777350Y-87941907D01*
X82780879Y-87925683D01*
X82784389Y-87909454D01*
X82787880Y-87893221D01*
X82791351Y-87876984D01*
X82794802Y-87860743D01*
X82798234Y-87844497D01*
X82801646Y-87828248D01*
X82805039Y-87811994D01*
X82808412Y-87795736D01*
X82811765Y-87779474D01*
X82815099Y-87763209D01*
X82818413Y-87746939D01*
X82821708Y-87730665D01*
X82824983Y-87714387D01*
X82828239Y-87698105D01*
X82831474Y-87681819D01*
X82834691Y-87665530D01*
X82837887Y-87649236D01*
X82841064Y-87632939D01*
X82844222Y-87616638D01*
X82847359Y-87600333D01*
X82850477Y-87584024D01*
X82853576Y-87567712D01*
X82856655Y-87551396D01*
X82859714Y-87535076D01*
X82862753Y-87518752D01*
X82865773Y-87502425D01*
X82868773Y-87486094D01*
X82871754Y-87469760D01*
X82874714Y-87453421D01*
X82877656Y-87437080D01*
X82880577Y-87420734D01*
X82883479Y-87404386D01*
X82886361Y-87388034D01*
X82889223Y-87371678D01*
X82892066Y-87355319D01*
X82894889Y-87338956D01*
X82897692Y-87322590D01*
X82900475Y-87306221D01*
X82903239Y-87289848D01*
X82905983Y-87273472D01*
X82908708Y-87257093D01*
X82911412Y-87240710D01*
X82914097Y-87224324D01*
X82916762Y-87207935D01*
X82919408Y-87191543D01*
X82922033Y-87175148D01*
X82924639Y-87158748D01*
X82927225Y-87142347D01*
X82929792Y-87125942D01*
X82932338Y-87109534D01*
X82934865Y-87093122D01*
X82937372Y-87076708D01*
X82939860Y-87060291D01*
X82942327Y-87043871D01*
X82944775Y-87027447D01*
X82947203Y-87011021D01*
X82949611Y-86994592D01*
X82952000Y-86978160D01*
X82954368Y-86961725D01*
X82956766Y-86944945D01*
D11*
X131105983Y-74725615D02*
X131105983Y-75720923D01*
X151057526Y-72877260D02*
G75*
G02*
X148807526Y-72877260I-1125000J0D01*
G01*
X148807526Y-72877260D02*
G75*
G02*
X151057526Y-72877260I1125000J0D01*
G01*
X138907950Y-79720923D02*
X138907950Y-80766480D01*
X132105983Y-76720923D02*
X135907950Y-76720923D01*
X141907950Y-83766480D02*
X151388667Y-83766480D01*
D10*
X57190278Y-91596811D02*
X57198339Y-91611434D01*
X57206418Y-91626047D01*
X57214514Y-91640650D01*
X57222628Y-91655244D01*
X57230758Y-91669827D01*
X57238907Y-91684401D01*
X57247072Y-91698964D01*
X57255255Y-91713518D01*
X57263455Y-91728061D01*
X57271673Y-91742595D01*
X57279907Y-91757118D01*
X57288160Y-91771631D01*
X57296429Y-91786134D01*
X57304716Y-91800628D01*
X57313019Y-91815110D01*
X57321340Y-91829584D01*
X57329678Y-91844046D01*
X57338034Y-91858499D01*
X57346407Y-91872941D01*
X57354797Y-91887373D01*
X57363204Y-91901795D01*
X57371628Y-91916206D01*
X57380069Y-91930607D01*
X57388528Y-91944999D01*
X57397004Y-91959379D01*
X57405497Y-91973749D01*
X57414006Y-91988109D01*
X57422533Y-92002459D01*
X57431077Y-92016798D01*
X57439639Y-92031127D01*
X57448217Y-92045445D01*
X57456812Y-92059753D01*
X57465425Y-92074050D01*
X57474054Y-92088338D01*
X57482700Y-92102614D01*
X57491364Y-92116880D01*
X57500044Y-92131135D01*
X57508742Y-92145380D01*
X57517456Y-92159614D01*
X57526188Y-92173838D01*
X57534936Y-92188051D01*
X57543702Y-92202254D01*
X57552484Y-92216445D01*
X57561283Y-92230627D01*
X57570099Y-92244797D01*
X57578932Y-92258957D01*
X57587782Y-92273106D01*
X57596649Y-92287245D01*
X57605532Y-92301372D01*
X57614433Y-92315489D01*
X57623350Y-92329595D01*
X57632284Y-92343690D01*
X57641235Y-92357774D01*
X57650203Y-92371848D01*
X57659187Y-92385911D01*
X57668189Y-92399963D01*
X57677207Y-92414003D01*
X57686242Y-92428034D01*
X57695293Y-92442052D01*
X57704362Y-92456061D01*
X57713447Y-92470058D01*
X57722549Y-92484044D01*
X57731667Y-92498019D01*
X57740803Y-92511984D01*
X57749954Y-92525936D01*
X57759123Y-92539879D01*
X57768308Y-92553810D01*
X57777510Y-92567730D01*
X57786729Y-92581638D01*
X57795964Y-92595536D01*
X57805216Y-92609423D01*
X57814484Y-92623298D01*
X57823769Y-92637162D01*
X57833071Y-92651016D01*
X57842389Y-92664857D01*
X57851724Y-92678688D01*
X57861074Y-92692507D01*
X57870442Y-92706315D01*
X57879826Y-92720112D01*
X57889227Y-92733898D01*
X57898644Y-92747672D01*
X57908078Y-92761435D01*
X57917528Y-92775186D01*
X57926995Y-92788926D01*
X57936478Y-92802655D01*
X57945978Y-92816373D01*
X57955494Y-92830078D01*
X57965026Y-92843773D01*
X57974575Y-92857456D01*
X57984140Y-92871128D01*
X57993722Y-92884787D01*
X58003320Y-92898436D01*
X58012934Y-92912073D01*
X58022565Y-92925699D01*
X58032211Y-92939313D01*
X58041875Y-92952916D01*
X58051554Y-92966506D01*
X58061250Y-92980086D01*
X58070962Y-92993653D01*
X58080691Y-93007209D01*
X58090435Y-93020753D01*
X58100197Y-93034286D01*
X58109973Y-93047807D01*
X58119767Y-93061317D01*
X58129576Y-93074814D01*
X58139402Y-93088300D01*
X58149244Y-93101774D01*
X58159102Y-93115236D01*
X58168976Y-93128687D01*
X58178867Y-93142126D01*
X58188774Y-93155552D01*
X58198697Y-93168968D01*
X58208635Y-93182370D01*
X58218590Y-93195762D01*
X58228561Y-93209141D01*
X58238548Y-93222509D01*
X58248551Y-93235864D01*
X58258571Y-93249209D01*
X58268606Y-93262540D01*
X58278657Y-93275860D01*
X58288724Y-93289168D01*
X58298808Y-93302464D01*
X58308907Y-93315747D01*
X58319022Y-93329019D01*
X58329153Y-93342279D01*
X58339301Y-93355527D01*
X58349464Y-93368762D01*
X58359643Y-93381986D01*
X58369838Y-93395197D01*
X58380049Y-93408396D01*
X58390276Y-93421583D01*
X58400519Y-93434759D01*
X58410777Y-93447921D01*
X58421051Y-93461072D01*
X58431341Y-93474210D01*
X58441648Y-93487336D01*
X58451969Y-93500450D01*
X58462307Y-93513552D01*
X58472661Y-93526641D01*
X58483030Y-93539718D01*
X58493415Y-93552783D01*
X58503816Y-93565836D01*
X58514232Y-93578875D01*
X58524665Y-93591904D01*
X58535113Y-93604919D01*
X58545577Y-93617922D01*
X58556056Y-93630912D01*
X58566552Y-93643891D01*
X58577062Y-93656856D01*
X58587589Y-93669810D01*
X58598131Y-93682751D01*
X58608689Y-93695679D01*
X58619262Y-93708595D01*
X58629851Y-93721499D01*
X58640455Y-93734389D01*
X58651076Y-93747268D01*
X58661711Y-93760134D01*
X58672363Y-93772987D01*
X58683030Y-93785828D01*
X58693713Y-93798656D01*
X58704410Y-93811471D01*
X58715124Y-93824274D01*
X58725853Y-93837064D01*
X58736598Y-93849842D01*
X58747357Y-93862607D01*
X58758133Y-93875359D01*
X58768923Y-93888098D01*
X58779730Y-93900826D01*
X58790551Y-93913539D01*
X58801389Y-93926241D01*
X58812241Y-93938929D01*
X58823110Y-93951605D01*
X58833993Y-93964268D01*
X58844892Y-93976918D01*
X58855805Y-93989555D01*
X58866735Y-94002180D01*
X58877680Y-94014791D01*
X58888640Y-94027390D01*
X58899615Y-94039976D01*
X58910606Y-94052549D01*
X58921612Y-94065109D01*
X58932633Y-94077657D01*
X58943669Y-94090190D01*
X58954721Y-94102712D01*
X58965788Y-94115220D01*
X58976871Y-94127716D01*
X58987968Y-94140197D01*
X58999081Y-94152667D01*
X59010208Y-94165123D01*
X59021351Y-94177567D01*
X59032509Y-94189996D01*
X59043683Y-94202414D01*
X59054870Y-94214817D01*
X59066074Y-94227209D01*
X59077293Y-94239586D01*
X59088527Y-94251951D01*
X59099775Y-94264302D01*
X59111039Y-94276641D01*
X59122318Y-94288966D01*
X59133612Y-94301278D01*
X59144921Y-94313576D01*
X59156245Y-94325862D01*
X59167584Y-94338134D01*
X59178938Y-94350394D01*
X59190307Y-94362639D01*
X59201691Y-94374872D01*
X59213090Y-94387091D01*
X59224504Y-94399297D01*
X59235932Y-94411490D01*
X59247377Y-94423669D01*
X59258835Y-94435835D01*
X59270309Y-94447988D01*
X59281797Y-94460127D01*
X59293301Y-94472253D01*
X59304818Y-94484365D01*
X59316352Y-94496465D01*
X59327899Y-94508550D01*
X59339462Y-94520622D01*
X59351039Y-94532681D01*
X59362632Y-94544726D01*
X59369444Y-94551791D01*
D11*
X34293388Y-72877260D02*
G75*
G02*
X32043388Y-72877260I-1125000J0D01*
G01*
X32043388Y-72877260D02*
G75*
G02*
X34293388Y-72877260I1125000J0D01*
G01*
D10*
X54692538Y-82526594D02*
X54680103Y-82484997D01*
X54667927Y-82444336D01*
X54656237Y-82405367D01*
X54644786Y-82367267D01*
X54633780Y-82330716D01*
X54622996Y-82294972D01*
X54612620Y-82260648D01*
X54602449Y-82227075D01*
X54592652Y-82194804D01*
X54583047Y-82163233D01*
X54573784Y-82132856D01*
X54564699Y-82103132D01*
X54555928Y-82074504D01*
X54547323Y-82046485D01*
X54539006Y-82019472D01*
X54530843Y-81993028D01*
X54522945Y-81967508D01*
X54515190Y-81942520D01*
X54507677Y-81918379D01*
X54500298Y-81894736D01*
X54493141Y-81871870D01*
X54486108Y-81849468D01*
X54479278Y-81827780D01*
X54472564Y-81806526D01*
X54466035Y-81785925D01*
X54459615Y-81765731D01*
X54453362Y-81746133D01*
X54447211Y-81726916D01*
X54441212Y-81708242D01*
X54435307Y-81689925D01*
X54429541Y-81672102D01*
X54423861Y-81654613D01*
X54418306Y-81637571D01*
X54412832Y-81620841D01*
X54407468Y-81604515D01*
X54402180Y-81588481D01*
X54396990Y-81572807D01*
X54391869Y-81557407D01*
X54386833Y-81542327D01*
X54381863Y-81527502D01*
X54376964Y-81512957D01*
X54372126Y-81498652D01*
X54367348Y-81484587D01*
X54362625Y-81470745D01*
X54357950Y-81457105D01*
X54353325Y-81443674D01*
X54348735Y-81430405D01*
X54344192Y-81417330D01*
X54339670Y-81404377D01*
X54335190Y-81391605D01*
X54326282Y-81366388D01*
X54317430Y-81341563D01*
X54308590Y-81317008D01*
X54299715Y-81292588D01*
X54290751Y-81268150D01*
X54281632Y-81243519D01*
X54272280Y-81218481D01*
X54262591Y-81192766D01*
X54252428Y-81166014D01*
X54246544Y-81150619D01*
D11*
X62232064Y-65641002D02*
G75*
G02*
X59782064Y-65641002I-1225000J0D01*
G01*
X59782064Y-65641002D02*
G75*
G02*
X62232064Y-65641002I1225000J0D01*
G01*
X82467597Y-23545801D02*
X82467597Y-31447189D01*
D10*
X83298262Y-86180657D02*
X83021557Y-86472619D01*
X152571617Y-46036835D02*
X152586706Y-46071416D01*
X152601737Y-46106066D01*
X152616713Y-46140788D01*
X152631634Y-46175585D01*
X152646500Y-46210458D01*
X152661313Y-46245411D01*
X152676074Y-46280444D01*
X152690783Y-46315562D01*
X152705442Y-46350765D01*
X152720050Y-46386057D01*
X152734610Y-46421440D01*
X152749121Y-46456916D01*
X152763585Y-46492488D01*
X152778003Y-46528158D01*
X152792375Y-46563929D01*
X152806703Y-46599803D01*
X152820986Y-46635783D01*
X152835226Y-46671870D01*
X152849424Y-46708069D01*
X152863580Y-46744381D01*
X152877696Y-46780808D01*
X152891772Y-46817355D01*
X152905808Y-46854022D01*
X152919807Y-46890813D01*
X152933768Y-46927731D01*
X152947692Y-46964778D01*
X152961580Y-47001957D01*
X152975434Y-47039271D01*
X152989253Y-47076722D01*
X153003038Y-47114314D01*
X153016791Y-47152049D01*
X153030512Y-47189930D01*
X153044201Y-47227960D01*
X153057861Y-47266142D01*
X153071491Y-47304479D01*
X153085092Y-47342975D01*
X153098665Y-47381631D01*
X153112211Y-47420452D01*
X153125731Y-47459440D01*
X153139225Y-47498598D01*
X153152695Y-47537931D01*
X153166140Y-47577440D01*
X153179563Y-47617130D01*
X153192963Y-47657003D01*
X153206341Y-47697064D01*
X153219699Y-47737315D01*
X153233037Y-47777760D01*
X153246355Y-47818403D01*
X153259656Y-47859247D01*
X153272939Y-47900296D01*
X153286205Y-47941554D01*
X153299456Y-47983024D01*
X153312692Y-48024710D01*
X153325913Y-48066616D01*
X153339122Y-48108746D01*
X153352318Y-48151104D01*
X153365502Y-48193694D01*
X153378676Y-48236521D01*
X153391840Y-48279588D01*
X153404995Y-48322899D01*
X153418142Y-48366460D01*
X153431283Y-48410274D01*
X153444416Y-48454346D01*
X153457545Y-48498680D01*
X153470670Y-48543282D01*
X153483791Y-48588156D01*
X153496909Y-48633307D01*
X153510026Y-48678739D01*
X153523143Y-48724458D01*
X153536260Y-48770469D01*
X153549379Y-48816777D01*
X153562500Y-48863388D01*
X153575624Y-48910306D01*
X153588754Y-48957537D01*
X153601888Y-49005088D01*
X153615030Y-49052963D01*
X153628179Y-49101169D01*
X153641337Y-49149712D01*
X153654506Y-49198597D01*
X153667685Y-49247831D01*
X153680877Y-49297421D01*
X153694082Y-49347373D01*
X153707301Y-49397693D01*
X153720537Y-49448388D01*
X153733790Y-49499466D01*
X153747061Y-49550933D01*
X153760352Y-49602797D01*
X153773664Y-49655066D01*
X153786998Y-49707746D01*
X153800356Y-49760846D01*
X153813739Y-49814374D01*
X153827149Y-49868338D01*
X153840586Y-49922746D01*
X153854053Y-49977607D01*
X153867551Y-50032930D01*
X153881082Y-50088724D01*
X153894647Y-50144999D01*
X153908248Y-50201763D01*
X153921886Y-50259027D01*
X153935563Y-50316802D01*
X153949281Y-50375096D01*
X153963042Y-50433921D01*
X153976848Y-50493288D01*
X153990700Y-50553208D01*
X154004601Y-50613693D01*
X154018552Y-50674755D01*
X154032555Y-50736406D01*
X154046614Y-50798658D01*
X154060729Y-50861525D01*
X154074903Y-50925021D01*
X154089139Y-50989159D01*
X154103438Y-51053953D01*
X154117804Y-51119419D01*
X154132238Y-51185572D01*
X154146744Y-51252427D01*
X154161324Y-51320001D01*
X154175981Y-51388311D01*
X154190718Y-51457374D01*
X154205538Y-51527209D01*
X154220444Y-51597835D01*
X154235439Y-51669270D01*
X154250527Y-51741536D01*
X154265710Y-51814653D01*
X154280994Y-51888643D01*
X154296380Y-51963528D01*
X154311874Y-52039334D01*
X154327480Y-52116083D01*
X154343201Y-52193802D01*
X154359042Y-52272517D01*
X154375007Y-52352256D01*
X154388667Y-52420800D01*
D11*
X118450457Y-34884400D02*
X118450457Y-37484400D01*
X154388667Y-80766480D02*
X154388667Y-52420800D01*
X102133317Y-32947189D02*
G75*
G02*
X100633311Y-31447189I-17J1499989D01*
G01*
X128530983Y-72150615D02*
G75*
G02*
X131105985Y-74725615I17J-2574985D01*
G01*
D10*
X82467597Y-23545801D02*
X82467637Y-23536859D01*
X82467757Y-23527917D01*
X82467957Y-23518977D01*
X82468237Y-23510039D01*
X82468596Y-23501103D01*
X82469036Y-23492171D01*
X82469556Y-23483244D01*
X82470155Y-23474321D01*
X82470834Y-23465404D01*
X82471593Y-23456493D01*
X82472432Y-23447589D01*
X82473350Y-23438693D01*
X82474347Y-23429806D01*
X82475424Y-23420927D01*
X82476581Y-23412059D01*
X82477817Y-23403201D01*
X82479132Y-23394354D01*
X82480526Y-23385519D01*
X82481999Y-23376697D01*
X82483551Y-23367888D01*
X82485181Y-23359094D01*
X82486891Y-23350314D01*
X82487775Y-23345930D01*
X82488678Y-23341550D01*
X82489602Y-23337174D01*
X82490544Y-23332803D01*
X82491507Y-23328435D01*
X82492489Y-23324072D01*
X82493490Y-23319713D01*
X82494511Y-23315359D01*
X82495551Y-23311009D01*
X82496611Y-23306664D01*
X82497690Y-23302324D01*
X82498789Y-23297988D01*
X82499907Y-23293658D01*
X82501044Y-23289332D01*
X82502201Y-23285012D01*
X82503377Y-23280697D01*
X82504572Y-23276387D01*
X82505787Y-23272083D01*
X82507021Y-23267784D01*
X82508274Y-23263490D01*
X82509546Y-23259203D01*
X82510837Y-23254921D01*
X82512148Y-23250645D01*
X82513477Y-23246374D01*
X82514826Y-23242110D01*
X82516194Y-23237852D01*
X82517581Y-23233600D01*
X82518987Y-23229354D01*
X82520411Y-23225114D01*
X82521855Y-23220881D01*
X82523318Y-23216654D01*
X82524799Y-23212434D01*
X82526300Y-23208221D01*
X82527819Y-23204014D01*
X82529357Y-23199814D01*
X82530914Y-23195621D01*
X82532490Y-23191435D01*
X82534084Y-23187256D01*
X82535697Y-23183085D01*
X82537329Y-23178920D01*
X82538979Y-23174763D01*
X82540648Y-23170613D01*
X82542467Y-23166150D01*
X30964892Y-45118915D02*
X30972984Y-45103204D01*
X30981168Y-45087361D01*
X30989252Y-45071753D01*
X30997425Y-45056019D01*
X31005511Y-45040498D01*
X31013682Y-45024857D01*
X31021774Y-45009410D01*
X31029950Y-44993848D01*
X31038055Y-44978464D01*
X31046241Y-44962971D01*
X31054364Y-44947640D01*
X31062565Y-44932205D01*
X31070709Y-44916922D01*
X31078929Y-44901537D01*
X31087098Y-44886293D01*
X31095341Y-44870952D01*
X31103537Y-44855743D01*
X31111807Y-44840439D01*
X31120033Y-44825259D01*
X31128331Y-44809989D01*
X31136589Y-44794834D01*
X31144918Y-44779592D01*
X31153210Y-44764459D01*
X31161572Y-44749241D01*
X31169900Y-44734126D01*
X31178297Y-44718930D01*
X31186662Y-44703831D01*
X31195095Y-44688653D01*
X31203499Y-44673567D01*
X31211970Y-44658404D01*
X31220414Y-44643330D01*
X31228924Y-44628181D01*
X31237409Y-44613116D01*
X31245959Y-44597978D01*
X31254486Y-44582921D01*
X31263077Y-44567792D01*
X31271647Y-44552741D01*
X31280280Y-44537620D01*
X31288894Y-44522574D01*
X31297570Y-44507460D01*
X31306228Y-44492417D01*
X31314947Y-44477308D01*
X31323650Y-44462268D01*
X31332414Y-44447163D01*
X31341163Y-44432125D01*
X31349972Y-44417023D01*
X31358767Y-44401986D01*
X31367621Y-44386886D01*
X31376462Y-44371849D01*
X31385363Y-44356751D01*
X31394251Y-44341712D01*
X31403198Y-44326615D01*
X31412134Y-44311576D01*
X31421128Y-44296478D01*
X31430112Y-44281437D01*
X31439154Y-44266339D01*
X31448186Y-44251296D01*
X31457275Y-44236197D01*
X31466355Y-44221151D01*
X31475492Y-44206050D01*
X31484622Y-44191001D01*
X31493807Y-44175899D01*
X31502986Y-44160846D01*
X31512220Y-44145742D01*
X31521448Y-44130686D01*
X31530731Y-44115578D01*
X31540008Y-44100518D01*
X31549341Y-44085408D01*
X31558668Y-44070344D01*
X31568049Y-44055230D01*
X31577427Y-44040162D01*
X31586858Y-44025045D01*
X31596285Y-44009972D01*
X31605766Y-43994851D01*
X31615244Y-43979774D01*
X31624775Y-43964650D01*
X31634303Y-43949568D01*
X31643885Y-43934439D01*
X31653463Y-43919352D01*
X31663095Y-43904219D01*
X31672724Y-43889128D01*
X31682407Y-43873991D01*
X31692087Y-43858894D01*
X31701820Y-43843753D01*
X31711551Y-43828651D01*
X31721334Y-43813505D01*
X31731117Y-43798398D01*
X31740951Y-43783248D01*
X31750785Y-43768136D01*
X31760670Y-43752982D01*
X31770555Y-43737864D01*
X31780492Y-43722705D01*
X31790428Y-43707583D01*
X31800415Y-43692419D01*
X31810403Y-43677291D01*
X31820442Y-43662123D01*
X31830482Y-43646990D01*
X31840572Y-43631818D01*
X31850663Y-43616680D01*
X31860804Y-43601502D01*
X31870947Y-43586359D01*
X31881140Y-43571177D01*
X31891335Y-43556029D01*
X31901579Y-43540843D01*
X31911826Y-43525689D01*
X31922122Y-43510499D01*
X31932420Y-43495340D01*
X31942768Y-43480145D01*
X31953118Y-43464982D01*
X31963518Y-43449782D01*
X31973920Y-43434614D01*
X31984371Y-43419410D01*
X31994826Y-43404236D01*
X32005329Y-43389028D01*
X32015835Y-43373850D01*
X32026390Y-43358637D01*
X32036949Y-43343455D01*
X32047555Y-43328238D01*
X32058166Y-43313050D01*
X32068825Y-43297829D01*
X32079488Y-43282637D01*
X32090199Y-43267412D01*
X32100914Y-43252216D01*
X32111677Y-43236986D01*
X32122444Y-43221785D01*
X32133259Y-43206552D01*
X32144079Y-43191347D01*
X32154946Y-43176110D01*
X32165818Y-43160900D01*
X32176737Y-43145659D01*
X32187661Y-43130446D01*
X32198633Y-43115201D01*
X32209610Y-43099983D01*
X32220633Y-43084735D01*
X32231662Y-43069513D01*
X32242738Y-43054261D01*
X32253820Y-43039035D01*
X32264948Y-43023780D01*
X32276082Y-43008550D01*
X32287262Y-42993291D01*
X32298449Y-42978058D01*
X32309681Y-42962796D01*
X32320920Y-42947559D01*
X32332205Y-42932293D01*
X32343497Y-42917053D01*
X32354834Y-42901784D01*
X32366178Y-42886540D01*
X32377568Y-42871268D01*
X32388964Y-42856021D01*
X32400406Y-42840746D01*
X32411855Y-42825496D01*
X32423350Y-42810218D01*
X32434851Y-42794964D01*
X32446398Y-42779684D01*
X32457952Y-42764427D01*
X32469552Y-42749144D01*
X32481158Y-42733884D01*
X32492810Y-42718598D01*
X32504470Y-42703336D01*
X32516174Y-42688047D01*
X32527886Y-42672782D01*
X32539643Y-42657491D01*
X32551407Y-42642223D01*
X32563217Y-42626930D01*
X32575034Y-42611659D01*
X32586896Y-42596364D01*
X32598766Y-42581091D01*
X32610680Y-42565793D01*
X32622603Y-42550518D01*
X32634570Y-42535218D01*
X32646545Y-42519940D01*
X32658565Y-42504638D01*
X32670593Y-42489358D01*
X32682665Y-42474055D01*
X32694745Y-42458773D01*
X32706870Y-42443467D01*
X32719004Y-42428183D01*
X32731181Y-42412876D01*
X32743367Y-42397590D01*
X32755597Y-42382282D01*
X32767836Y-42366994D01*
X32780119Y-42351684D01*
X32792410Y-42336394D01*
X32804746Y-42321083D01*
X32817090Y-42305792D01*
X32829478Y-42290479D01*
X32841875Y-42275186D01*
X32854316Y-42259872D01*
X32866765Y-42244578D01*
X32879259Y-42229263D01*
X32891761Y-42213968D01*
X32904308Y-42198651D01*
X32916863Y-42183355D01*
X32929462Y-42168037D01*
X32942070Y-42152740D01*
X32954722Y-42137421D01*
X32967383Y-42122123D01*
X32980087Y-42106804D01*
X32992801Y-42091504D01*
X33005558Y-42076184D01*
X33018325Y-42060884D01*
X33031135Y-42045564D01*
X33043954Y-42030263D01*
X33056817Y-42014942D01*
X33069689Y-41999640D01*
X33082605Y-41984319D01*
X33095530Y-41969017D01*
X33108498Y-41953695D01*
X33121477Y-41938393D01*
X33134498Y-41923071D01*
X33147529Y-41907768D01*
X33160603Y-41892445D01*
X33173687Y-41877142D01*
X33186813Y-41861820D01*
X33199950Y-41846517D01*
X33213130Y-41831194D01*
X33226320Y-41815891D01*
X33239552Y-41800569D01*
X33252795Y-41785265D01*
X33266081Y-41769944D01*
X33279376Y-41754640D01*
X33292715Y-41739319D01*
X33306063Y-41724015D01*
X33319455Y-41708694D01*
X33332856Y-41693391D01*
X33346300Y-41678070D01*
X33359755Y-41662768D01*
X33373252Y-41647448D01*
X33386760Y-41632145D01*
X33400310Y-41616826D01*
X33413871Y-41601524D01*
X33427474Y-41586205D01*
X33441088Y-41570904D01*
X33454744Y-41555586D01*
X33468411Y-41540286D01*
X33482120Y-41524969D01*
X33495840Y-41509669D01*
X33509602Y-41494353D01*
X33523375Y-41479054D01*
X33537190Y-41463739D01*
X33551016Y-41448441D01*
X33564884Y-41433127D01*
X33578763Y-41417830D01*
X33592684Y-41402518D01*
X33606617Y-41387222D01*
X33620591Y-41371911D01*
X33634576Y-41356616D01*
X33648604Y-41341306D01*
X33662642Y-41326013D01*
X33676723Y-41310704D01*
X33690815Y-41295412D01*
X33704948Y-41280105D01*
X33719093Y-41264815D01*
X33733280Y-41249510D01*
X33747478Y-41234221D01*
X33761718Y-41218917D01*
X33775969Y-41203630D01*
X33790262Y-41188328D01*
X33804567Y-41173042D01*
X33818913Y-41157742D01*
X33833271Y-41142458D01*
X33847670Y-41127160D01*
X33862082Y-41111878D01*
X33876534Y-41096582D01*
X33890999Y-41081302D01*
X33905505Y-41066008D01*
X33920022Y-41050730D01*
X33934581Y-41035438D01*
X33949153Y-41020162D01*
X33963765Y-41004873D01*
X33978390Y-40989599D01*
X33993055Y-40974312D01*
X34007733Y-40959040D01*
X34022452Y-40943755D01*
X34037183Y-40928486D01*
X34051955Y-40913204D01*
X34066740Y-40897937D01*
X34081566Y-40882657D01*
X34096404Y-40867393D01*
X34111283Y-40852115D01*
X34126174Y-40836854D01*
X34141107Y-40821579D01*
X34156052Y-40806320D01*
X34171037Y-40791048D01*
X34186036Y-40775792D01*
X34201075Y-40760523D01*
X34216127Y-40745269D01*
X34231220Y-40730003D01*
X34246325Y-40714752D01*
X34261471Y-40699489D01*
X34276630Y-40684241D01*
X34291830Y-40668981D01*
X34307042Y-40653736D01*
X34322296Y-40638479D01*
X34337562Y-40623238D01*
X34352868Y-40607984D01*
X34368188Y-40592745D01*
X34383548Y-40577495D01*
X34398922Y-40562259D01*
X34414335Y-40547012D01*
X34429762Y-40531780D01*
X34445230Y-40516536D01*
X34460710Y-40501307D01*
X34476231Y-40486067D01*
X34491766Y-40470842D01*
X34507340Y-40455605D01*
X34522928Y-40440383D01*
X34538557Y-40425150D01*
X34554199Y-40409932D01*
X34569881Y-40394702D01*
X34585576Y-40379488D01*
X34601312Y-40364262D01*
X34617061Y-40349051D01*
X34632851Y-40333829D01*
X34648654Y-40318622D01*
X34664497Y-40303404D01*
X34680354Y-40288201D01*
X34696251Y-40272987D01*
X34712162Y-40257787D01*
X34728112Y-40242577D01*
X34744077Y-40227382D01*
X34760082Y-40212176D01*
X34776100Y-40196985D01*
X34792159Y-40181783D01*
X34808231Y-40166595D01*
X34824344Y-40151398D01*
X34840470Y-40136215D01*
X34856636Y-40121022D01*
X34872817Y-40105843D01*
X34889037Y-40090654D01*
X34905271Y-40075479D01*
X34921545Y-40060295D01*
X34937834Y-40045125D01*
X34954162Y-40029945D01*
X34970504Y-40014779D01*
X34986887Y-39999603D01*
X35003283Y-39984442D01*
X35019719Y-39969271D01*
X35036170Y-39954115D01*
X35052660Y-39938949D01*
X35069165Y-39923797D01*
X35085709Y-39908635D01*
X35102268Y-39893488D01*
X35118867Y-39878331D01*
X35135480Y-39863189D01*
X35152132Y-39848037D01*
X35168800Y-39832899D01*
X35185506Y-39817752D01*
X35202228Y-39802619D01*
X35218989Y-39787478D01*
X35235765Y-39772350D01*
X35252580Y-39757213D01*
X35269410Y-39742090D01*
X35286280Y-39726958D01*
X35303164Y-39711841D01*
X35320088Y-39696714D01*
X35337026Y-39681601D01*
X35354005Y-39666480D01*
X35370998Y-39651373D01*
X35388030Y-39636257D01*
X35405078Y-39621154D01*
X35422164Y-39606044D01*
X35439266Y-39590947D01*
X35456408Y-39575842D01*
X35473564Y-39560750D01*
X35490760Y-39545651D01*
X35507971Y-39530564D01*
X35525221Y-39515470D01*
X35542486Y-39500390D01*
X35559791Y-39485301D01*
X35577111Y-39470226D01*
X35594470Y-39455143D01*
X35611844Y-39440074D01*
X35629258Y-39424997D01*
X35646687Y-39409933D01*
X35664156Y-39394862D01*
X35681639Y-39379804D01*
X35699162Y-39364738D01*
X35716701Y-39349686D01*
X35734279Y-39334626D01*
X35751872Y-39319580D01*
X35769504Y-39304526D01*
X35787152Y-39289486D01*
X35804839Y-39274438D01*
X35822541Y-39259404D01*
X35840283Y-39244362D01*
X35858041Y-39229334D01*
X35875837Y-39214298D01*
X35893650Y-39199276D01*
X35911501Y-39184247D01*
X35914547Y-39181685D01*
D11*
X42117250Y-35612383D02*
X35914547Y-39181685D01*
X68450457Y-34884400D02*
X68450457Y-37484400D01*
D10*
X100567893Y-23190036D02*
X100571037Y-23198407D01*
X100574106Y-23206807D01*
X100577100Y-23215233D01*
X100580018Y-23223686D01*
X100582861Y-23232165D01*
X100585627Y-23240668D01*
X100588318Y-23249197D01*
X100590932Y-23257749D01*
X100593470Y-23266324D01*
X100595931Y-23274922D01*
X100598315Y-23283542D01*
X100600622Y-23292183D01*
X100602851Y-23300844D01*
X100605003Y-23309525D01*
X100607077Y-23318224D01*
X100609074Y-23326943D01*
X100610992Y-23335678D01*
X100612832Y-23344431D01*
X100614594Y-23353200D01*
X100616278Y-23361985D01*
X100617882Y-23370784D01*
X100618655Y-23375189D01*
X100619408Y-23379597D01*
X100620142Y-23384009D01*
X100620856Y-23388424D01*
X100621550Y-23392842D01*
X100622224Y-23397264D01*
X100622878Y-23401688D01*
X100623513Y-23406115D01*
X100624128Y-23410545D01*
X100624723Y-23414978D01*
X100625298Y-23419413D01*
X100625853Y-23423851D01*
X100626389Y-23428291D01*
X100626904Y-23432734D01*
X100627400Y-23437179D01*
X100627876Y-23441626D01*
X100628332Y-23446075D01*
X100628768Y-23450526D01*
X100629184Y-23454979D01*
X100629580Y-23459435D01*
X100629957Y-23463891D01*
X100630313Y-23468350D01*
X100630650Y-23472810D01*
X100630966Y-23477271D01*
X100631263Y-23481734D01*
X100631539Y-23486198D01*
X100631796Y-23490663D01*
X100632032Y-23495130D01*
X100632249Y-23499597D01*
X100632446Y-23504066D01*
X100632622Y-23508535D01*
X100632779Y-23513005D01*
X100632916Y-23517476D01*
X100633032Y-23521947D01*
X100633129Y-23526419D01*
X100633206Y-23530892D01*
X100633263Y-23535364D01*
X100633299Y-23539837D01*
X100633317Y-23545801D01*
D11*
X44192964Y-82516480D02*
G75*
G02*
X41192964Y-85516484I-2999964J-40D01*
G01*
X68450457Y-37484400D02*
X64650457Y-37484400D01*
D10*
X55766186Y-87723620D02*
X55760135Y-87700729D01*
X55754104Y-87677838D01*
X55748096Y-87654953D01*
X55742109Y-87632069D01*
X55736144Y-87609190D01*
X55730199Y-87586312D01*
X55724277Y-87563440D01*
X55718375Y-87540567D01*
X55712496Y-87517701D01*
X55706637Y-87494835D01*
X55700801Y-87471975D01*
X55694985Y-87449115D01*
X55689191Y-87426261D01*
X55683418Y-87403407D01*
X55677667Y-87380558D01*
X55671937Y-87357710D01*
X55666229Y-87334868D01*
X55660541Y-87312026D01*
X55654876Y-87289190D01*
X55649231Y-87266354D01*
X55643608Y-87243523D01*
X55638006Y-87220693D01*
X55632426Y-87197869D01*
X55626866Y-87175044D01*
X55621329Y-87152226D01*
X55615812Y-87129407D01*
X55610317Y-87106594D01*
X55604843Y-87083782D01*
X55599390Y-87060974D01*
X55593958Y-87038167D01*
X55588548Y-87015366D01*
X55583159Y-86992565D01*
X55577791Y-86969769D01*
X55572444Y-86946974D01*
X55567119Y-86924183D01*
X55561815Y-86901394D01*
X55556532Y-86878609D01*
X55551270Y-86855825D01*
X55549802Y-86849454D01*
D11*
X100848836Y-73825479D02*
X100848836Y-71640014D01*
X114650457Y-34884400D02*
X118450457Y-34884400D01*
D10*
X100380180Y-22880823D02*
X100386096Y-22887528D01*
X100391953Y-22894286D01*
X100397748Y-22901096D01*
X100403483Y-22907957D01*
X100409156Y-22914869D01*
X100414767Y-22921833D01*
X100420316Y-22928846D01*
X100425801Y-22935908D01*
X100431224Y-22943019D01*
X100436582Y-22950179D01*
X100441877Y-22957387D01*
X100447107Y-22964641D01*
X100452272Y-22971942D01*
X100457371Y-22979290D01*
X100462405Y-22986682D01*
X100467372Y-22994120D01*
X100472273Y-23001601D01*
X100477107Y-23009127D01*
X100481873Y-23016695D01*
X100486572Y-23024306D01*
X100491202Y-23031959D01*
X100493491Y-23035800D01*
X100495764Y-23039652D01*
X100498019Y-23043515D01*
X100500256Y-23047387D01*
X100502477Y-23051269D01*
X100504680Y-23055161D01*
X100506865Y-23059063D01*
X100509034Y-23062975D01*
X100511184Y-23066896D01*
X100513317Y-23070827D01*
X100515433Y-23074768D01*
X100517531Y-23078718D01*
X100519611Y-23082677D01*
X100521673Y-23086645D01*
X100523718Y-23090623D01*
X100525745Y-23094610D01*
X100527754Y-23098606D01*
X100529745Y-23102611D01*
X100531718Y-23106624D01*
X100533674Y-23110647D01*
X100535611Y-23114678D01*
X100537530Y-23118718D01*
X100539431Y-23122767D01*
X100541314Y-23126824D01*
X100543179Y-23130889D01*
X100545026Y-23134963D01*
X100546854Y-23139044D01*
X100548664Y-23143135D01*
X100550456Y-23147233D01*
X100552230Y-23151339D01*
X100553985Y-23155453D01*
X100555722Y-23159575D01*
X100557440Y-23163704D01*
X100559140Y-23167842D01*
X100560821Y-23171986D01*
X100562484Y-23176139D01*
X100564128Y-23180298D01*
X100565754Y-23184466D01*
X100567893Y-23190036D01*
D11*
X118450457Y-37484400D02*
X114650457Y-37484400D01*
D10*
X100071804Y-22647063D02*
X100079823Y-22651020D01*
X100087806Y-22655048D01*
X100095753Y-22659148D01*
X100103664Y-22663319D01*
X100111536Y-22667560D01*
X100119370Y-22671871D01*
X100127166Y-22676253D01*
X100134922Y-22680704D01*
X100142638Y-22685224D01*
X100150314Y-22689813D01*
X100157948Y-22694471D01*
X100165541Y-22699197D01*
X100173091Y-22703991D01*
X100180598Y-22708852D01*
X100188061Y-22713780D01*
X100195480Y-22718774D01*
X100202854Y-22723835D01*
X100210183Y-22728962D01*
X100217466Y-22734154D01*
X100224702Y-22739412D01*
X100231891Y-22744733D01*
X100239032Y-22750119D01*
X100242584Y-22752836D01*
X100246125Y-22755569D01*
X100249653Y-22758317D01*
X100253168Y-22761082D01*
X100256672Y-22763862D01*
X100260163Y-22766657D01*
X100263641Y-22769469D01*
X100267107Y-22772296D01*
X100270560Y-22775138D01*
X100274000Y-22777996D01*
X100277428Y-22780869D01*
X100280842Y-22783757D01*
X100284244Y-22786661D01*
X100287633Y-22789580D01*
X100291008Y-22792513D01*
X100294371Y-22795463D01*
X100297720Y-22798427D01*
X100301056Y-22801406D01*
X100304379Y-22804400D01*
X100307688Y-22807408D01*
X100310984Y-22810432D01*
X100314266Y-22813470D01*
X100317535Y-22816523D01*
X100320790Y-22819591D01*
X100324031Y-22822673D01*
X100327258Y-22825769D01*
X100330472Y-22828880D01*
X100333671Y-22832006D01*
X100336857Y-22835145D01*
X100340028Y-22838299D01*
X100343186Y-22841467D01*
X100346329Y-22844649D01*
X100349458Y-22847845D01*
X100352573Y-22851055D01*
X100355673Y-22854279D01*
X100358759Y-22857517D01*
X100361830Y-22860769D01*
X100364887Y-22864034D01*
X100367929Y-22867313D01*
X100370956Y-22870606D01*
X100373969Y-22873912D01*
X100376967Y-22877232D01*
X100380180Y-22880823D01*
D11*
X31712247Y-85516480D02*
G75*
G02*
X28712220Y-82516480I53J3000080D01*
G01*
D10*
X82956766Y-86944945D02*
X82959091Y-86928530D01*
X82961396Y-86912114D01*
X82963682Y-86895696D01*
X82965947Y-86879276D01*
X82967059Y-86871163D01*
X91550457Y-22339125D02*
X91470826Y-22339135D01*
X91391164Y-22339166D01*
X91313619Y-22339216D01*
X91236047Y-22339287D01*
X91160385Y-22339376D01*
X91084701Y-22339485D01*
X91010752Y-22339613D01*
X90936786Y-22339761D01*
X90864409Y-22339926D01*
X90792016Y-22340111D01*
X90721088Y-22340313D01*
X90650147Y-22340535D01*
X90580562Y-22340773D01*
X90510967Y-22341032D01*
X90442632Y-22341306D01*
X90374290Y-22341601D01*
X90307125Y-22341910D01*
X90239955Y-22342240D01*
X90173889Y-22342585D01*
X90107818Y-22342950D01*
X90042786Y-22343330D01*
X89977751Y-22343729D01*
X89913697Y-22344143D01*
X89849641Y-22344578D01*
X89786513Y-22345026D01*
X89723385Y-22345494D01*
X89661137Y-22345976D01*
X89598890Y-22346479D01*
X89537479Y-22346994D01*
X89476071Y-22347530D01*
X89415459Y-22348079D01*
X89354852Y-22348649D01*
X89295005Y-22349231D01*
X89235163Y-22349833D01*
X89176048Y-22350449D01*
X89116939Y-22351084D01*
X89058527Y-22351732D01*
X89000122Y-22352400D01*
X88942385Y-22353081D01*
X88884656Y-22353782D01*
X88827570Y-22354495D01*
X88770492Y-22355228D01*
X88714032Y-22355974D01*
X88657582Y-22356739D01*
X88601727Y-22357517D01*
X88545883Y-22358314D01*
X88490613Y-22359124D01*
X88435354Y-22359953D01*
X88380650Y-22360795D01*
X88325957Y-22361656D01*
X88271801Y-22362529D01*
X88217658Y-22363422D01*
X88164033Y-22364326D01*
X88110422Y-22365251D01*
X88057313Y-22366187D01*
X88004218Y-22367143D01*
X87951610Y-22368110D01*
X87899017Y-22369097D01*
X87838746Y-22370253D01*
D11*
X138407526Y-72877260D02*
G75*
G02*
X133457526Y-72877260I-2475000J0D01*
G01*
X133457526Y-72877260D02*
G75*
G02*
X138407526Y-72877260I2475000J0D01*
G01*
X139600457Y-44944400D02*
G75*
G02*
X137400457Y-44944400I-1100000J0D01*
G01*
X137400457Y-44944400D02*
G75*
G02*
X139600457Y-44944400I1100000J0D01*
G01*
D10*
X55002663Y-83949471D02*
X54990522Y-83890257D01*
X54978738Y-83832882D01*
X54967641Y-83778952D01*
X54956863Y-83726671D01*
X54946687Y-83677412D01*
X54936796Y-83629635D01*
X54927436Y-83584517D01*
X54918332Y-83540733D01*
X54909695Y-83499296D01*
X54901289Y-83459063D01*
X54893296Y-83420903D01*
X54885510Y-83383834D01*
X54878089Y-83348597D01*
X54870856Y-83314349D01*
X54863944Y-83281722D01*
X54857202Y-83249993D01*
X54850745Y-83219697D01*
X54844440Y-83190216D01*
X54838387Y-83162002D01*
X54832471Y-83134529D01*
X54826776Y-83108172D01*
X54821205Y-83082488D01*
X54815827Y-83057784D01*
X54810562Y-83033693D01*
X54805463Y-83010457D01*
X54800466Y-82987779D01*
X54795612Y-82965839D01*
X54790850Y-82944407D01*
X54786207Y-82923606D01*
X54781647Y-82903267D01*
X54777185Y-82883455D01*
X54772798Y-82864063D01*
X54768486Y-82845099D01*
X54764241Y-82826515D01*
X54760051Y-82808261D01*
X54755920Y-82790350D01*
X54751821Y-82772670D01*
X54747774Y-82755297D01*
X54739742Y-82721080D01*
X54731756Y-82687404D01*
X54723742Y-82653947D01*
X54715611Y-82620333D01*
X54707250Y-82586103D01*
X54698510Y-82550651D01*
X54692538Y-82526594D01*
X59369444Y-94551791D02*
X59392650Y-94575783D01*
X59415913Y-94599720D01*
X59439233Y-94623600D01*
X59462609Y-94647423D01*
X59486042Y-94671190D01*
X59509532Y-94694900D01*
X59533077Y-94718554D01*
X59556679Y-94742150D01*
X59580337Y-94765689D01*
X59604050Y-94789171D01*
X59627820Y-94812596D01*
X59651644Y-94835963D01*
X59675525Y-94859272D01*
X59699460Y-94882523D01*
X59723451Y-94905717D01*
X59747497Y-94928852D01*
X59771598Y-94951930D01*
X59795753Y-94974948D01*
X59819963Y-94997909D01*
X59844228Y-95020811D01*
X59868546Y-95043654D01*
X59892919Y-95066438D01*
X59917346Y-95089163D01*
X59941827Y-95111829D01*
X59966362Y-95134436D01*
X59990950Y-95156983D01*
X60015591Y-95179471D01*
X60040286Y-95201900D01*
X60065034Y-95224268D01*
X60089835Y-95246577D01*
X60114689Y-95268825D01*
X60139596Y-95291013D01*
X60164555Y-95313141D01*
X60189567Y-95335209D01*
X60214631Y-95357216D01*
X60239747Y-95379162D01*
X60264915Y-95401048D01*
X60290135Y-95422872D01*
X60315406Y-95444636D01*
X60340729Y-95466338D01*
X60366104Y-95487979D01*
X60391530Y-95509559D01*
X60417006Y-95531077D01*
X60442534Y-95552533D01*
X60468113Y-95573927D01*
X60493742Y-95595260D01*
X60519421Y-95616530D01*
X60545151Y-95637738D01*
X60558035Y-95648319D01*
X60570931Y-95658884D01*
X60583840Y-95669434D01*
X60596762Y-95679968D01*
X60609695Y-95690486D01*
X60622642Y-95700989D01*
X60635600Y-95711476D01*
X60648571Y-95721947D01*
X60661555Y-95732403D01*
X60674550Y-95742842D01*
X60687559Y-95753266D01*
X60700579Y-95763675D01*
X60713612Y-95774067D01*
X60726657Y-95784444D01*
X60739714Y-95794805D01*
X60752784Y-95805151D01*
X60765866Y-95815480D01*
X60778960Y-95825794D01*
X60792066Y-95836091D01*
X60805185Y-95846373D01*
X60818315Y-95856639D01*
X60831458Y-95866889D01*
X60844613Y-95877123D01*
X60857780Y-95887342D01*
X60870959Y-95897544D01*
X60884150Y-95907730D01*
X60897353Y-95917901D01*
X60910568Y-95928055D01*
X60923796Y-95938193D01*
X60937035Y-95948316D01*
X60950286Y-95958422D01*
X60963549Y-95968512D01*
X60976824Y-95978587D01*
X60990111Y-95988645D01*
X61003409Y-95998687D01*
X61016720Y-96008713D01*
X61030043Y-96018723D01*
X61043377Y-96028716D01*
X61056723Y-96038694D01*
X61070081Y-96048655D01*
X61083450Y-96058601D01*
X61096832Y-96068530D01*
X61110225Y-96078442D01*
X61123630Y-96088339D01*
X61137046Y-96098219D01*
X61150475Y-96108084D01*
X61163914Y-96117931D01*
X61177366Y-96127763D01*
X61190829Y-96137578D01*
X61204304Y-96147377D01*
X61217790Y-96157160D01*
X61231288Y-96166927D01*
X61244797Y-96176676D01*
X61258318Y-96186410D01*
X61271850Y-96196127D01*
X61285394Y-96205828D01*
X61298949Y-96215513D01*
X61312515Y-96225181D01*
X61326093Y-96234832D01*
X61339683Y-96244468D01*
X61353284Y-96254086D01*
X61366896Y-96263689D01*
X61380519Y-96273274D01*
X61394154Y-96282844D01*
X61407800Y-96292396D01*
X61421457Y-96301933D01*
X61435126Y-96311452D01*
X61448806Y-96320956D01*
X61462497Y-96330442D01*
X61476199Y-96339912D01*
X61489912Y-96349365D01*
X61503637Y-96358802D01*
X61517372Y-96368222D01*
X61531119Y-96377626D01*
X61544877Y-96387013D01*
X61558646Y-96396383D01*
X61572425Y-96405736D01*
X61586216Y-96415073D01*
X61600018Y-96424393D01*
X61613831Y-96433697D01*
X61627655Y-96442983D01*
X61641490Y-96452253D01*
X61655336Y-96461507D01*
X61669192Y-96470743D01*
X61683060Y-96479963D01*
X61696938Y-96489165D01*
X61710827Y-96498351D01*
X61724728Y-96507521D01*
X61738638Y-96516673D01*
X61752560Y-96525809D01*
X61766492Y-96534927D01*
X61780435Y-96544029D01*
X61794389Y-96553114D01*
X61808354Y-96562182D01*
X61822329Y-96571233D01*
X61836315Y-96580267D01*
X61850311Y-96589284D01*
X61864318Y-96598284D01*
X61878336Y-96607268D01*
X61892364Y-96616234D01*
X61906403Y-96625183D01*
X61920453Y-96634116D01*
X61934512Y-96643031D01*
X61948583Y-96651929D01*
X61962664Y-96660810D01*
X61976755Y-96669674D01*
X61990857Y-96678521D01*
X62004969Y-96687352D01*
X62019091Y-96696164D01*
X62033224Y-96704960D01*
X62047367Y-96713739D01*
X62061521Y-96722501D01*
X62075685Y-96731245D01*
X62089859Y-96739972D01*
X62104043Y-96748682D01*
X62118238Y-96757375D01*
X62132443Y-96766051D01*
X62146658Y-96774709D01*
X62160884Y-96783351D01*
X62175119Y-96791975D01*
X62189365Y-96800581D01*
X62203621Y-96809171D01*
X62217886Y-96817743D01*
X62232162Y-96826299D01*
X62246448Y-96834836D01*
X62260744Y-96843357D01*
X62275050Y-96851860D01*
X62289366Y-96860346D01*
X62303692Y-96868814D01*
X62318028Y-96877265D01*
X62332374Y-96885699D01*
X62346730Y-96894115D01*
X62361095Y-96902514D01*
X62375471Y-96910896D01*
X62389856Y-96919260D01*
X62404252Y-96927607D01*
X62418657Y-96935936D01*
X62433072Y-96944248D01*
X62447496Y-96952542D01*
X62461931Y-96960820D01*
X62476375Y-96969079D01*
X62490829Y-96977321D01*
X62505292Y-96985545D01*
X62519766Y-96993753D01*
X62534248Y-97001942D01*
X62548741Y-97010114D01*
X62563243Y-97018268D01*
X62577755Y-97026405D01*
X62592276Y-97034524D01*
X62606807Y-97042626D01*
X62621347Y-97050710D01*
X62635897Y-97058777D01*
X62650456Y-97066825D01*
X62665025Y-97074857D01*
X62679602Y-97082870D01*
X62694190Y-97090866D01*
X62708787Y-97098845D01*
X62723394Y-97106805D01*
X62738009Y-97114748D01*
X62752634Y-97122674D01*
X62767268Y-97130581D01*
X62781912Y-97138471D01*
X62796565Y-97146343D01*
X62811227Y-97154198D01*
X62825898Y-97162034D01*
X62840579Y-97169853D01*
X62855269Y-97177654D01*
X62869968Y-97185438D01*
X62884676Y-97193203D01*
X62899394Y-97200951D01*
X62914120Y-97208681D01*
X62928855Y-97216393D01*
X62943599Y-97224087D01*
X62958353Y-97231764D01*
X62973116Y-97239422D01*
X62987888Y-97247063D01*
X63002668Y-97254686D01*
X63017458Y-97262291D01*
X63032256Y-97269878D01*
X63047063Y-97277447D01*
X63061879Y-97284998D01*
X63076705Y-97292532D01*
X63091538Y-97300047D01*
X63106382Y-97307544D01*
X63121233Y-97315024D01*
X63136094Y-97322485D01*
X63150963Y-97329929D01*
X63165841Y-97337355D01*
X63180727Y-97344762D01*
X63195623Y-97352152D01*
X63210527Y-97359523D01*
X63225440Y-97366877D01*
X63240361Y-97374212D01*
X63255292Y-97381530D01*
X63275587Y-97391441D01*
X87838746Y-22370253D02*
X87786750Y-22371272D01*
X87734755Y-22372311D01*
X87683217Y-22373361D01*
X87631681Y-22374432D01*
X87580587Y-22375513D01*
X87529494Y-22376614D01*
X87478829Y-22377727D01*
X87428166Y-22378859D01*
X87377917Y-22380002D01*
X87327670Y-22381166D01*
X87277824Y-22382340D01*
X87227981Y-22383534D01*
X87178527Y-22384739D01*
X87129075Y-22385964D01*
X87080001Y-22387200D01*
X87030930Y-22388456D01*
X86982226Y-22389722D01*
X86933524Y-22391009D01*
X86885180Y-22392306D01*
X86836838Y-22393624D01*
X86788843Y-22394952D01*
X86740851Y-22396300D01*
X86693197Y-22397658D01*
X86645546Y-22399037D01*
X86598224Y-22400426D01*
X86550905Y-22401836D01*
X86503907Y-22403256D01*
X86456911Y-22404696D01*
X86410229Y-22406146D01*
X86363549Y-22407616D01*
X86317175Y-22409097D01*
X86270804Y-22410598D01*
X86224730Y-22412110D01*
X86178660Y-22413641D01*
X86132880Y-22415183D01*
X86087104Y-22416745D01*
X86041611Y-22418317D01*
X85996122Y-22419909D01*
X85950911Y-22421512D01*
X85905703Y-22423135D01*
X85860766Y-22424768D01*
X85815833Y-22426421D01*
X85771165Y-22428084D01*
X85726501Y-22429767D01*
X85682097Y-22431461D01*
X85637696Y-22433174D01*
X85593549Y-22434898D01*
X85549406Y-22436642D01*
X85505512Y-22438396D01*
X85461622Y-22440170D01*
X85417976Y-22441954D01*
X85374334Y-22443758D01*
X85330930Y-22445572D01*
X85287530Y-22447407D01*
X85244365Y-22449251D01*
X85201204Y-22451116D01*
X85158272Y-22452990D01*
X85115344Y-22454885D01*
X85072642Y-22456790D01*
X85029943Y-22458714D01*
X84987466Y-22460649D01*
X84944993Y-22462604D01*
X84902737Y-22464568D01*
X84860485Y-22466553D01*
X84818446Y-22468548D01*
X84776411Y-22470562D01*
X84734585Y-22472587D01*
X84692764Y-22474632D01*
X84651148Y-22476686D01*
X84609537Y-22478761D01*
X84568127Y-22480845D01*
X84526722Y-22482950D01*
X84485515Y-22485064D01*
X84444313Y-22487198D01*
X84403305Y-22489343D01*
X84362302Y-22491507D01*
X84321491Y-22493681D01*
X84280685Y-22495875D01*
X84240067Y-22498079D01*
X84199454Y-22500303D01*
X84159026Y-22502537D01*
X84118603Y-22504790D01*
X84052040Y-22508545D01*
X73415924Y-98161751D02*
X73447597Y-98151834D01*
X73479246Y-98141840D01*
X73510871Y-98131770D01*
X73542472Y-98121624D01*
X73574048Y-98111401D01*
X73605599Y-98101103D01*
X73637125Y-98090728D01*
X73668626Y-98080278D01*
X73700102Y-98069752D01*
X73731553Y-98059150D01*
X73762978Y-98048472D01*
X73794377Y-98037718D01*
X73825750Y-98026889D01*
X73857097Y-98015984D01*
X73888418Y-98005004D01*
X73919712Y-97993948D01*
X73950979Y-97982817D01*
X73982220Y-97971610D01*
X74013433Y-97960328D01*
X74044620Y-97948971D01*
X74075779Y-97937539D01*
X74106910Y-97926031D01*
X74138014Y-97914449D01*
X74169089Y-97902792D01*
X74200137Y-97891059D01*
X74231156Y-97879252D01*
X74262147Y-97867370D01*
X74293110Y-97855414D01*
X74324043Y-97843383D01*
X74354948Y-97831277D01*
X74385823Y-97819097D01*
X74416669Y-97806842D01*
X74447486Y-97794513D01*
X74478272Y-97782110D01*
X74509029Y-97769632D01*
X74539756Y-97757081D01*
X74570453Y-97744455D01*
X74601119Y-97731755D01*
X74631755Y-97718982D01*
X74662360Y-97706134D01*
X74692934Y-97693213D01*
X74723477Y-97680218D01*
X74753989Y-97667149D01*
X74784469Y-97654007D01*
X74814918Y-97640792D01*
X74845335Y-97627503D01*
X74875720Y-97614140D01*
X74906072Y-97600705D01*
X74936393Y-97587196D01*
X74966680Y-97573614D01*
X74996936Y-97559959D01*
X75027158Y-97546231D01*
X75057347Y-97532431D01*
X75087503Y-97518557D01*
X75117626Y-97504611D01*
X75147715Y-97490593D01*
X75177770Y-97476501D01*
X75207792Y-97462338D01*
X75237779Y-97448101D01*
X75267732Y-97433793D01*
X75297651Y-97419412D01*
X75327535Y-97404960D01*
X75357384Y-97390435D01*
X75387198Y-97375838D01*
X75416977Y-97361170D01*
X75446721Y-97346429D01*
X75476429Y-97331617D01*
X75506102Y-97316734D01*
X75535739Y-97301779D01*
X75565340Y-97286752D01*
X75594904Y-97271654D01*
X75624433Y-97256485D01*
X75653924Y-97241245D01*
X75683379Y-97225933D01*
X75712798Y-97210551D01*
X75742179Y-97195097D01*
X75771523Y-97179573D01*
X75800829Y-97163978D01*
X75830098Y-97148313D01*
X75859329Y-97132577D01*
X75888522Y-97116770D01*
X75917678Y-97100893D01*
X75946795Y-97084946D01*
X75975873Y-97068929D01*
X75990398Y-97060894D01*
X76004913Y-97052841D01*
X76019419Y-97044772D01*
X76033914Y-97036684D01*
X76048400Y-97028579D01*
X76062877Y-97020457D01*
X76077343Y-97012317D01*
X76091800Y-97004160D01*
X76106247Y-96995985D01*
X76120684Y-96987793D01*
X76135111Y-96979584D01*
X76149528Y-96971357D01*
X76163936Y-96963113D01*
X76178333Y-96954851D01*
X76192720Y-96946572D01*
X76207098Y-96938276D01*
X76221466Y-96929962D01*
X76235823Y-96921631D01*
X76250171Y-96913283D01*
X76264508Y-96904917D01*
X76278836Y-96896534D01*
X76293153Y-96888134D01*
X76307460Y-96879717D01*
X76321757Y-96871282D01*
X76336044Y-96862831D01*
X76350321Y-96854362D01*
X76364587Y-96845875D01*
X76378844Y-96837372D01*
X76393090Y-96828851D01*
X76407326Y-96820314D01*
X76421551Y-96811759D01*
X76435766Y-96803187D01*
X76449971Y-96794597D01*
X76464166Y-96785991D01*
X76478350Y-96777368D01*
X76492524Y-96768727D01*
X76506687Y-96760069D01*
X76520840Y-96751395D01*
X76534983Y-96742703D01*
X76549115Y-96733994D01*
X76563236Y-96725268D01*
X76577348Y-96716526D01*
X76591448Y-96707766D01*
X76605538Y-96698989D01*
X76619617Y-96690195D01*
X76633686Y-96681384D01*
X76647744Y-96672557D01*
X76661792Y-96663712D01*
X76675829Y-96654851D01*
X76689855Y-96645972D01*
X76703871Y-96637077D01*
X76717876Y-96628164D01*
X76731870Y-96619235D01*
X76745853Y-96610289D01*
X76759826Y-96601326D01*
X76773788Y-96592346D01*
X76787739Y-96583350D01*
X76801679Y-96574337D01*
X76815608Y-96565306D01*
X76829527Y-96556259D01*
X76843434Y-96547196D01*
X76857331Y-96538115D01*
X76871216Y-96529018D01*
X76885091Y-96519904D01*
X76898955Y-96510774D01*
X76912807Y-96501626D01*
X76926649Y-96492462D01*
X76940480Y-96483281D01*
X76954299Y-96474084D01*
X76968108Y-96464870D01*
X76981905Y-96455639D01*
X76995692Y-96446392D01*
X77009467Y-96437128D01*
X77023231Y-96427847D01*
X77036983Y-96418550D01*
X77050725Y-96409237D01*
X77064456Y-96399907D01*
X77078175Y-96390560D01*
X77091883Y-96381196D01*
X77105579Y-96371816D01*
X77119265Y-96362420D01*
X77132939Y-96353007D01*
X77146601Y-96343578D01*
X77160253Y-96334132D01*
X77173893Y-96324670D01*
X77187521Y-96315191D01*
X77201138Y-96305696D01*
X77214744Y-96296185D01*
X77228338Y-96286657D01*
X77241921Y-96277113D01*
X77255492Y-96267552D01*
X77269052Y-96257975D01*
X77282600Y-96248382D01*
X77296137Y-96238772D01*
X77309662Y-96229146D01*
X77323176Y-96219504D01*
X77336677Y-96209845D01*
X77350168Y-96200170D01*
X77363646Y-96190480D01*
X77377113Y-96180772D01*
X77390568Y-96171049D01*
X77404012Y-96161309D01*
X77417444Y-96151553D01*
X77430864Y-96141781D01*
X77444272Y-96131992D01*
X77457669Y-96122188D01*
X77471053Y-96112367D01*
X77484426Y-96102530D01*
X77497787Y-96092678D01*
X77511136Y-96082809D01*
X77524473Y-96072924D01*
X77537799Y-96063022D01*
X77551112Y-96053105D01*
X77564414Y-96043172D01*
X77577703Y-96033223D01*
X77590981Y-96023257D01*
X77604246Y-96013276D01*
X77617500Y-96003279D01*
X77630741Y-95993266D01*
X77643971Y-95983236D01*
X77657188Y-95973191D01*
X77670394Y-95963130D01*
X77683587Y-95953053D01*
X77696768Y-95942960D01*
X77709937Y-95932851D01*
X77723094Y-95922726D01*
X77736238Y-95912586D01*
X77749371Y-95902429D01*
X77762490Y-95892257D01*
X77775599Y-95882069D01*
X77788694Y-95871865D01*
X77801778Y-95861646D01*
X77814848Y-95851410D01*
X77827907Y-95841159D01*
X77840953Y-95830892D01*
X77853988Y-95820609D01*
X77867009Y-95810311D01*
X77880019Y-95799997D01*
X77893015Y-95789667D01*
X77906000Y-95779322D01*
X77918972Y-95768961D01*
X77931932Y-95758584D01*
X77944878Y-95748192D01*
X77957813Y-95737783D01*
X77970735Y-95727360D01*
X77983645Y-95716921D01*
X77996541Y-95706466D01*
X78009426Y-95695995D01*
X78022298Y-95685510D01*
X78035157Y-95675008D01*
X78048003Y-95664492D01*
X78060838Y-95653959D01*
X78073659Y-95643411D01*
X78086467Y-95632848D01*
X78099263Y-95622269D01*
X78112047Y-95611675D01*
X78124817Y-95601065D01*
X78137575Y-95590440D01*
X78150319Y-95579800D01*
X78163052Y-95569143D01*
X78167070Y-95565775D01*
X52753988Y-78704247D02*
X52729519Y-78679646D01*
X52705490Y-78655517D01*
X52682244Y-78632201D01*
X52659412Y-78609330D01*
X52637311Y-78587220D01*
X52615602Y-78565529D01*
X52594575Y-78544548D01*
X52573917Y-78523964D01*
X52553896Y-78504043D01*
X52534224Y-78484497D01*
X52515147Y-78465571D01*
X52496399Y-78447000D01*
X52478208Y-78429007D01*
X52460327Y-78411351D01*
X52442967Y-78394236D01*
X52425900Y-78377439D01*
X52409319Y-78361148D01*
X52393016Y-78345158D01*
X52377166Y-78329640D01*
X52361579Y-78314408D01*
X52346415Y-78299618D01*
X52331501Y-78285098D01*
X52316980Y-78270990D01*
X52302696Y-78257139D01*
X52288779Y-78243672D01*
X52275085Y-78230449D01*
X52261734Y-78217585D01*
X52248594Y-78204952D01*
X52235773Y-78192652D01*
X52223151Y-78180573D01*
X52210825Y-78168803D01*
X52198689Y-78157243D01*
X52186827Y-78145971D01*
X52175144Y-78134896D01*
X52163714Y-78124090D01*
X52152454Y-78113471D01*
X52141429Y-78103101D01*
X52130563Y-78092909D01*
X52119913Y-78082945D01*
X52109414Y-78073151D01*
X52099112Y-78063568D01*
X52088954Y-78054145D01*
X52078975Y-78044916D01*
X52069131Y-78035839D01*
X52059449Y-78026939D01*
X52049895Y-78018183D01*
X52040486Y-78009587D01*
X52031199Y-78001129D01*
X52022039Y-77992814D01*
X52012993Y-77984629D01*
X52004059Y-77976572D01*
X51995232Y-77968639D01*
X51986500Y-77960817D01*
X51977869Y-77953113D01*
X51969316Y-77945505D01*
X51960857Y-77938007D01*
X51952459Y-77930590D01*
X51944150Y-77923277D01*
X51927699Y-77908878D01*
X51911453Y-77894764D01*
X51895361Y-77880887D01*
X51879366Y-77867197D01*
X51863406Y-77853641D01*
X51847412Y-77840160D01*
X51831307Y-77826688D01*
X51814998Y-77813147D01*
X51798374Y-77799447D01*
X51781297Y-77785475D01*
X51763587Y-77771085D01*
X51744995Y-77756079D01*
X51741842Y-77753544D01*
D11*
X64650457Y-34884400D02*
X68450457Y-34884400D01*
D10*
X81539966Y-91362172D02*
X81555245Y-91332699D01*
X81570453Y-91303186D01*
X81585591Y-91273636D01*
X81600660Y-91244046D01*
X81615658Y-91214419D01*
X81630586Y-91184753D01*
X81645443Y-91155048D01*
X81658038Y-91129727D01*
X82755865Y-22843349D02*
X82762175Y-22837012D01*
X82768542Y-22830733D01*
X82774964Y-22824510D01*
X82781442Y-22818345D01*
X82787975Y-22812238D01*
X82794562Y-22806190D01*
X82801203Y-22800201D01*
X82807897Y-22794271D01*
X82814645Y-22788401D01*
X82821444Y-22782592D01*
X82828296Y-22776844D01*
X82835198Y-22771157D01*
X82842152Y-22765533D01*
X82849155Y-22759970D01*
X82856208Y-22754470D01*
X82863310Y-22749034D01*
X82870461Y-22743661D01*
X82877659Y-22738352D01*
X82884905Y-22733108D01*
X82892197Y-22727929D01*
X82899535Y-22722815D01*
X82903222Y-22720283D01*
X82906919Y-22717767D01*
X82910628Y-22715267D01*
X82914348Y-22712785D01*
X82918079Y-22710319D01*
X82921821Y-22707869D01*
X82925574Y-22705437D01*
X82929338Y-22703021D01*
X82933113Y-22700622D01*
X82936898Y-22698240D01*
X82940694Y-22695875D01*
X82944501Y-22693527D01*
X82948318Y-22691196D01*
X82952145Y-22688882D01*
X82955983Y-22686585D01*
X82959831Y-22684306D01*
X82963689Y-22682043D01*
X82967557Y-22679798D01*
X82971435Y-22677570D01*
X82975324Y-22675360D01*
X82979222Y-22673167D01*
X82983130Y-22670991D01*
X82987047Y-22668833D01*
X82990975Y-22666692D01*
X82994911Y-22664570D01*
X82998857Y-22662464D01*
X83002813Y-22660376D01*
X83006778Y-22658306D01*
X83010752Y-22656254D01*
X83014736Y-22654220D01*
X83018728Y-22652203D01*
X83022729Y-22650204D01*
X83026739Y-22648223D01*
X83030759Y-22646260D01*
X83034787Y-22644315D01*
X83038824Y-22642388D01*
X83042868Y-22640480D01*
X83046923Y-22638589D01*
X83052338Y-22636097D01*
X99697768Y-22547880D02*
X99706689Y-22548496D01*
X99715604Y-22549192D01*
X99724513Y-22549968D01*
X99733414Y-22550823D01*
X99742307Y-22551758D01*
X99751192Y-22552772D01*
X99760068Y-22553866D01*
X99768933Y-22555039D01*
X99777788Y-22556292D01*
X99786631Y-22557623D01*
X99795462Y-22559034D01*
X99804281Y-22560523D01*
X99813085Y-22562092D01*
X99821876Y-22563739D01*
X99830651Y-22565465D01*
X99839411Y-22567269D01*
X99848155Y-22569151D01*
X99856881Y-22571112D01*
X99865590Y-22573150D01*
X99874280Y-22575267D01*
X99882951Y-22577461D01*
X99891602Y-22579732D01*
X99895920Y-22580897D01*
X99900233Y-22582081D01*
X99904540Y-22583284D01*
X99908842Y-22584507D01*
X99913139Y-22585749D01*
X99917430Y-22587010D01*
X99921715Y-22588290D01*
X99925994Y-22589590D01*
X99930268Y-22590908D01*
X99934536Y-22592246D01*
X99938797Y-22593602D01*
X99943053Y-22594978D01*
X99947302Y-22596373D01*
X99951546Y-22597787D01*
X99955782Y-22599219D01*
X99960013Y-22600671D01*
X99964236Y-22602142D01*
X99968454Y-22603631D01*
X99972664Y-22605139D01*
X99976868Y-22606667D01*
X99981065Y-22608212D01*
X99985255Y-22609777D01*
X99989437Y-22611360D01*
X99993613Y-22612963D01*
X99997782Y-22614583D01*
X100001943Y-22616223D01*
X100006097Y-22617881D01*
X100010244Y-22619557D01*
X100014382Y-22621252D01*
X100018514Y-22622966D01*
X100022637Y-22624698D01*
X100026753Y-22626449D01*
X100030861Y-22628217D01*
X100034962Y-22630005D01*
X100039053Y-22631810D01*
X100043138Y-22633634D01*
X100047213Y-22635476D01*
X100051281Y-22637337D01*
X100055340Y-22639215D01*
X100059391Y-22641112D01*
X100063433Y-22643027D01*
X100067467Y-22644960D01*
X100071804Y-22647063D01*
D11*
X135907950Y-76720923D02*
G75*
G02*
X138907977Y-79720923I50J-2999977D01*
G01*
X147686460Y-64884400D02*
G75*
G02*
X145514454Y-64884400I-1086003J0D01*
G01*
X145514454Y-64884400D02*
G75*
G02*
X147686460Y-64884400I1086003J0D01*
G01*
D10*
X100914448Y-71201231D02*
X100911282Y-71211717D01*
X100908193Y-71222225D01*
X100905181Y-71232756D01*
X100902246Y-71243308D01*
X100899387Y-71253882D01*
X100896606Y-71264476D01*
X100893903Y-71275091D01*
X100891277Y-71285725D01*
X100888729Y-71296378D01*
X100886258Y-71307049D01*
X100883866Y-71317738D01*
X100881551Y-71328445D01*
X100879315Y-71339168D01*
X100877158Y-71349907D01*
X100875078Y-71360662D01*
X100873078Y-71371432D01*
X100871156Y-71382217D01*
X100869312Y-71393015D01*
X100867548Y-71403826D01*
X100865863Y-71414650D01*
X100865049Y-71420067D01*
X100864256Y-71425486D01*
X100863483Y-71430909D01*
X100862729Y-71436334D01*
X100861995Y-71441762D01*
X100861281Y-71447193D01*
X100860587Y-71452626D01*
X100859913Y-71458062D01*
X100859258Y-71463500D01*
X100858624Y-71468940D01*
X100858009Y-71474383D01*
X100857414Y-71479828D01*
X100856839Y-71485275D01*
X100856284Y-71490725D01*
X100855749Y-71496176D01*
X100855233Y-71501629D01*
X100854738Y-71507084D01*
X100854262Y-71512541D01*
X100853807Y-71518000D01*
X100853371Y-71523460D01*
X100852956Y-71528922D01*
X100852560Y-71534385D01*
X100852184Y-71539849D01*
X100851828Y-71545316D01*
X100851492Y-71550783D01*
X100851177Y-71556252D01*
X100850881Y-71561721D01*
X100850605Y-71567192D01*
X100850349Y-71572663D01*
X100850113Y-71578136D01*
X100849897Y-71583609D01*
X100849701Y-71589084D01*
X100849525Y-71594558D01*
X100849369Y-71600034D01*
X100849233Y-71605510D01*
X100849117Y-71610987D01*
X100849021Y-71616463D01*
X100848945Y-71621941D01*
X100848889Y-71627418D01*
X100848853Y-71632896D01*
X100848836Y-71640014D01*
M02*
