%TF.GenerationSoftware,KiCad,Pcbnew,9.0.3*%
%TF.CreationDate,2025-07-21T12:19:27-07:00*%
%TF.ProjectId,UGC_Main_R5,5547435f-4d61-4696-9e5f-52352e6b6963,rev?*%
%TF.SameCoordinates,Original*%
%TF.FileFunction,Paste,Top*%
%TF.FilePolarity,Positive*%
%FSLAX46Y46*%
G04 Gerber Fmt 4.6, Leading zero omitted, Abs format (unit mm)*
G04 Created by KiCad (PCBNEW 9.0.3) date 2025-07-21 12:19:27*
%MOMM*%
%LPD*%
G01*
G04 APERTURE LIST*
G04 Aperture macros list*
%AMRoundRect*
0 Rectangle with rounded corners*
0 $1 Rounding radius*
0 $2 $3 $4 $5 $6 $7 $8 $9 X,Y pos of 4 corners*
0 Add a 4 corners polygon primitive as box body*
4,1,4,$2,$3,$4,$5,$6,$7,$8,$9,$2,$3,0*
0 Add four circle primitives for the rounded corners*
1,1,$1+$1,$2,$3*
1,1,$1+$1,$4,$5*
1,1,$1+$1,$6,$7*
1,1,$1+$1,$8,$9*
0 Add four rect primitives between the rounded corners*
20,1,$1+$1,$2,$3,$4,$5,0*
20,1,$1+$1,$4,$5,$6,$7,0*
20,1,$1+$1,$6,$7,$8,$9,0*
20,1,$1+$1,$8,$9,$2,$3,0*%
%AMHorizOval*
0 Thick line with rounded ends*
0 $1 width*
0 $2 $3 position (X,Y) of the first rounded end (center of the circle)*
0 $4 $5 position (X,Y) of the second rounded end (center of the circle)*
0 Add line between two ends*
20,1,$1,$2,$3,$4,$5,0*
0 Add two circle primitives to create the rounded ends*
1,1,$1,$2,$3*
1,1,$1,$4,$5*%
%AMRotRect*
0 Rectangle, with rotation*
0 The origin of the aperture is its center*
0 $1 length*
0 $2 width*
0 $3 Rotation angle, in degrees counterclockwise*
0 Add horizontal line*
21,1,$1,$2,0,0,$3*%
G04 Aperture macros list end*
%ADD10C,0.010000*%
%ADD11R,0.370000X0.370000*%
%ADD12RotRect,0.370000X0.370000X357.000000*%
%ADD13RoundRect,0.079500X0.079500X0.100500X-0.079500X0.100500X-0.079500X-0.100500X0.079500X-0.100500X0*%
%ADD14RoundRect,0.250000X-0.250000X-0.475000X0.250000X-0.475000X0.250000X0.475000X-0.250000X0.475000X0*%
%ADD15RoundRect,0.250000X0.475000X-0.250000X0.475000X0.250000X-0.475000X0.250000X-0.475000X-0.250000X0*%
%ADD16RoundRect,0.079500X0.100500X-0.079500X0.100500X0.079500X-0.100500X0.079500X-0.100500X-0.079500X0*%
%ADD17RoundRect,0.079500X-0.079500X-0.100500X0.079500X-0.100500X0.079500X0.100500X-0.079500X0.100500X0*%
%ADD18RoundRect,0.079500X-0.100500X0.079500X-0.100500X-0.079500X0.100500X-0.079500X0.100500X0.079500X0*%
%ADD19RoundRect,0.250000X0.375000X0.850000X-0.375000X0.850000X-0.375000X-0.850000X0.375000X-0.850000X0*%
%ADD20RoundRect,0.079500X-0.127279X-0.014849X-0.014849X-0.127279X0.127279X0.014849X0.014849X0.127279X0*%
%ADD21RoundRect,0.150000X0.150000X0.200000X-0.150000X0.200000X-0.150000X-0.200000X0.150000X-0.200000X0*%
%ADD22R,0.745000X0.280000*%
%ADD23R,0.280000X0.745000*%
%ADD24R,0.565000X0.200000*%
%ADD25R,0.565000X0.400000*%
%ADD26RoundRect,0.140000X0.170000X-0.140000X0.170000X0.140000X-0.170000X0.140000X-0.170000X-0.140000X0*%
%ADD27RoundRect,0.150000X0.587500X0.150000X-0.587500X0.150000X-0.587500X-0.150000X0.587500X-0.150000X0*%
%ADD28RoundRect,0.250000X-0.425000X0.450000X-0.425000X-0.450000X0.425000X-0.450000X0.425000X0.450000X0*%
%ADD29RoundRect,0.140000X-0.170000X0.140000X-0.170000X-0.140000X0.170000X-0.140000X0.170000X0.140000X0*%
%ADD30RoundRect,0.079500X0.127279X0.014849X0.014849X0.127279X-0.127279X-0.014849X-0.014849X-0.127279X0*%
%ADD31RoundRect,0.250000X-0.475000X0.250000X-0.475000X-0.250000X0.475000X-0.250000X0.475000X0.250000X0*%
%ADD32HorizOval,2.250000X-0.250000X0.433013X0.250000X-0.433013X0*%
%ADD33HorizOval,1.700000X0.259808X0.150000X-0.259808X-0.150000X0*%
%ADD34RoundRect,0.150000X-0.200000X0.150000X-0.200000X-0.150000X0.200000X-0.150000X0.200000X0.150000X0*%
%ADD35HorizOval,2.250000X-0.250000X-0.433013X0.250000X0.433013X0*%
%ADD36HorizOval,1.700000X0.259808X-0.150000X-0.259808X0.150000X0*%
%ADD37RoundRect,0.150000X-0.150000X-0.200000X0.150000X-0.200000X0.150000X0.200000X-0.150000X0.200000X0*%
%ADD38R,0.750000X1.000000*%
%ADD39RoundRect,0.150000X-0.150000X0.587500X-0.150000X-0.587500X0.150000X-0.587500X0.150000X0.587500X0*%
%ADD40RoundRect,0.079500X0.014849X-0.127279X0.127279X-0.014849X-0.014849X0.127279X-0.127279X0.014849X0*%
%ADD41RoundRect,0.100000X-0.225000X-0.100000X0.225000X-0.100000X0.225000X0.100000X-0.225000X0.100000X0*%
%ADD42RoundRect,0.249999X0.395001X-0.395001X0.395001X0.395001X-0.395001X0.395001X-0.395001X-0.395001X0*%
%ADD43RoundRect,0.050000X0.050000X-0.387500X0.050000X0.387500X-0.050000X0.387500X-0.050000X-0.387500X0*%
%ADD44RoundRect,0.050000X0.387500X-0.050000X0.387500X0.050000X-0.387500X0.050000X-0.387500X-0.050000X0*%
%ADD45RoundRect,0.250000X0.250000X-0.250000X0.250000X0.250000X-0.250000X0.250000X-0.250000X-0.250000X0*%
%ADD46RoundRect,0.100000X0.100000X-0.225000X0.100000X0.225000X-0.100000X0.225000X-0.100000X-0.225000X0*%
%ADD47RoundRect,0.140000X-0.140000X-0.170000X0.140000X-0.170000X0.140000X0.170000X-0.140000X0.170000X0*%
%ADD48RoundRect,0.100000X0.225000X0.100000X-0.225000X0.100000X-0.225000X-0.100000X0.225000X-0.100000X0*%
%ADD49R,2.000000X1.000000*%
%ADD50R,1.000000X2.000000*%
%ADD51R,1.000000X0.750000*%
%ADD52R,1.200000X1.400000*%
%ADD53RoundRect,0.093750X0.093750X-0.156250X0.093750X0.156250X-0.093750X0.156250X-0.093750X-0.156250X0*%
%ADD54RoundRect,0.075000X0.075000X-0.250000X0.075000X0.250000X-0.075000X0.250000X-0.075000X-0.250000X0*%
%ADD55RoundRect,0.225000X-0.225000X-0.250000X0.225000X-0.250000X0.225000X0.250000X-0.225000X0.250000X0*%
%ADD56RoundRect,0.218750X0.256250X-0.218750X0.256250X0.218750X-0.256250X0.218750X-0.256250X-0.218750X0*%
%ADD57RoundRect,0.250000X-0.250000X0.250000X-0.250000X-0.250000X0.250000X-0.250000X0.250000X0.250000X0*%
%ADD58RoundRect,0.225000X0.250000X-0.225000X0.250000X0.225000X-0.250000X0.225000X-0.250000X-0.225000X0*%
%ADD59RoundRect,0.093750X-0.093750X0.156250X-0.093750X-0.156250X0.093750X-0.156250X0.093750X0.156250X0*%
%ADD60RoundRect,0.075000X-0.075000X0.250000X-0.075000X-0.250000X0.075000X-0.250000X0.075000X0.250000X0*%
%ADD61R,0.700000X0.300000*%
%ADD62R,1.000000X0.300000*%
%ADD63RoundRect,0.007200X0.112800X-0.292800X0.112800X0.292800X-0.112800X0.292800X-0.112800X-0.292800X0*%
%ADD64RoundRect,0.250000X0.250000X0.250000X-0.250000X0.250000X-0.250000X-0.250000X0.250000X-0.250000X0*%
%ADD65R,0.300000X0.400000*%
%ADD66R,1.600000X0.200000*%
G04 APERTURE END LIST*
D10*
%TO.C,U4*%
X100332200Y-57298600D02*
X99992200Y-57298600D01*
X99992200Y-57048600D01*
X100332200Y-57048600D01*
X100332200Y-57298600D01*
G36*
X100332200Y-57298600D02*
G01*
X99992200Y-57298600D01*
X99992200Y-57048600D01*
X100332200Y-57048600D01*
X100332200Y-57298600D01*
G37*
X100332200Y-57798600D02*
X99992200Y-57798600D01*
X99992200Y-57548600D01*
X100332200Y-57548600D01*
X100332200Y-57798600D01*
G36*
X100332200Y-57798600D02*
G01*
X99992200Y-57798600D01*
X99992200Y-57548600D01*
X100332200Y-57548600D01*
X100332200Y-57798600D01*
G37*
X101592200Y-58173600D02*
X100532200Y-58173600D01*
X100532200Y-56673600D01*
X101592200Y-56673600D01*
X101592200Y-58173600D01*
G36*
X101592200Y-58173600D02*
G01*
X100532200Y-58173600D01*
X100532200Y-56673600D01*
X101592200Y-56673600D01*
X101592200Y-58173600D01*
G37*
X102852200Y-58173600D02*
X101792200Y-58173600D01*
X101792200Y-56673600D01*
X102852200Y-56673600D01*
X102852200Y-58173600D01*
G36*
X102852200Y-58173600D02*
G01*
X101792200Y-58173600D01*
X101792200Y-56673600D01*
X102852200Y-56673600D01*
X102852200Y-58173600D01*
G37*
X103392200Y-57298600D02*
X103052200Y-57298600D01*
X103052200Y-57048600D01*
X103392200Y-57048600D01*
X103392200Y-57298600D01*
G36*
X103392200Y-57298600D02*
G01*
X103052200Y-57298600D01*
X103052200Y-57048600D01*
X103392200Y-57048600D01*
X103392200Y-57298600D01*
G37*
X103392200Y-57798600D02*
X103052200Y-57798600D01*
X103052200Y-57548600D01*
X103392200Y-57548600D01*
X103392200Y-57798600D01*
G36*
X103392200Y-57798600D02*
G01*
X103052200Y-57798600D01*
X103052200Y-57548600D01*
X103392200Y-57548600D01*
X103392200Y-57798600D01*
G37*
%TD*%
D11*
%TO.C,L13*%
X146878417Y-55609002D03*
X147548417Y-55609002D03*
X147548417Y-56279002D03*
X146878417Y-56279002D03*
%TD*%
%TO.C,L17*%
X124223332Y-40327626D03*
X124893332Y-40327626D03*
X124893332Y-40997626D03*
X124223332Y-40997626D03*
%TD*%
%TO.C,L19*%
X146878417Y-47479002D03*
X147548417Y-47479002D03*
X147548417Y-46809002D03*
X146878417Y-46809002D03*
%TD*%
%TO.C,L18*%
X132365457Y-50969400D03*
X133035457Y-50969400D03*
X133035457Y-50299400D03*
X132365457Y-50299400D03*
%TD*%
%TO.C,L16*%
X117189113Y-58527540D03*
X117859113Y-58527540D03*
X117859113Y-57857540D03*
X117189113Y-57857540D03*
%TD*%
%TO.C,L15*%
X68965457Y-81929400D03*
X69635457Y-81929400D03*
X69635457Y-81259400D03*
X68965457Y-81259400D03*
%TD*%
%TO.C,L14*%
X72315457Y-85279400D03*
X72985457Y-85279400D03*
X72985457Y-84609400D03*
X72315457Y-84609400D03*
%TD*%
%TO.C,L12*%
X132365457Y-59769400D03*
X133035457Y-59769400D03*
X133035457Y-59099400D03*
X132365457Y-59099400D03*
%TD*%
%TO.C,L11*%
X133023332Y-40997626D03*
X133693332Y-40997626D03*
X133693332Y-40327626D03*
X133023332Y-40327626D03*
%TD*%
%TO.C,L10*%
X117189113Y-67327540D03*
X117859113Y-67327540D03*
X117859113Y-66657540D03*
X117189113Y-66657540D03*
%TD*%
%TO.C,L9*%
X68965457Y-88629400D03*
X69635457Y-88629400D03*
X69635457Y-87959400D03*
X68965457Y-87959400D03*
%TD*%
%TO.C,L8*%
X65615457Y-85279400D03*
X66285457Y-85279400D03*
X66285457Y-84609400D03*
X65615457Y-84609400D03*
%TD*%
%TO.C,L6*%
X91215457Y-81348600D03*
X91885457Y-81348600D03*
X91885457Y-80678600D03*
X91215457Y-80678600D03*
%TD*%
D12*
%TO.C,L4*%
X59048389Y-61851408D03*
X59717470Y-61886473D03*
X59752535Y-61217392D03*
X59083454Y-61182327D03*
%TD*%
%TO.C,L3*%
X41048389Y-61851408D03*
X41717470Y-61886473D03*
X41752535Y-61217392D03*
X41083454Y-61182327D03*
%TD*%
%TO.C,L2*%
X41048389Y-48851408D03*
X41717470Y-48886473D03*
X41752535Y-48217392D03*
X41083454Y-48182327D03*
%TD*%
%TO.C,L1*%
X59048389Y-48851408D03*
X59717470Y-48886473D03*
X59752535Y-48217392D03*
X59083454Y-48182327D03*
%TD*%
D13*
%TO.C,R39*%
X144633000Y-73349400D03*
X143943000Y-73349400D03*
%TD*%
D14*
%TO.C,C17*%
X102075264Y-50946302D03*
X103975264Y-50946302D03*
%TD*%
D15*
%TO.C,C4*%
X105781600Y-61701000D03*
X105781600Y-59801000D03*
%TD*%
D16*
%TO.C,R35*%
X141189200Y-66658600D03*
X141189200Y-65968600D03*
%TD*%
D17*
%TO.C,R1*%
X50826600Y-65653200D03*
X51516600Y-65653200D03*
%TD*%
D13*
%TO.C,C26*%
X153142000Y-76372000D03*
X152452000Y-76372000D03*
%TD*%
%TO.C,R8*%
X107511800Y-54790000D03*
X106821800Y-54790000D03*
%TD*%
%TO.C,R5*%
X103993000Y-40558000D03*
X103303000Y-40558000D03*
%TD*%
D18*
%TO.C,R22*%
X98496800Y-25915000D03*
X98496800Y-26605000D03*
%TD*%
D13*
%TO.C,C27*%
X150576600Y-76372000D03*
X149886600Y-76372000D03*
%TD*%
D16*
%TO.C,R38*%
X113884200Y-36889800D03*
X113884200Y-36199800D03*
%TD*%
D17*
%TO.C,C33*%
X37974200Y-75533800D03*
X38664200Y-75533800D03*
%TD*%
D19*
%TO.C,L5*%
X103834000Y-61233600D03*
X101684000Y-61233600D03*
%TD*%
D20*
%TO.C,R6*%
X89652848Y-44156048D03*
X90140752Y-44643952D03*
%TD*%
D16*
%TO.C,C15*%
X108920925Y-43674029D03*
X108920925Y-42984029D03*
%TD*%
D21*
%TO.C,D7*%
X39752800Y-74390800D03*
X41152800Y-74390800D03*
%TD*%
D16*
%TO.C,R12*%
X101240231Y-45646075D03*
X101240231Y-44956075D03*
%TD*%
D22*
%TO.C,U10*%
X76164800Y-62980000D03*
X76164800Y-62480000D03*
X76164800Y-61980000D03*
X76164800Y-61480000D03*
D23*
X75266800Y-61082000D03*
X74766800Y-61082000D03*
X74266800Y-61082000D03*
D22*
X73368800Y-61480000D03*
X73368800Y-61980000D03*
X73368800Y-62480000D03*
X73368800Y-62980000D03*
D23*
X74266800Y-63378000D03*
X74766800Y-63378000D03*
X75266800Y-63378000D03*
%TD*%
D17*
%TO.C,R41*%
X152909200Y-73959000D03*
X153599200Y-73959000D03*
%TD*%
D13*
%TO.C,C12*%
X77761800Y-60090000D03*
X77071800Y-60090000D03*
%TD*%
D24*
%TO.C,S7*%
X78119800Y-53730000D03*
X78119800Y-54230000D03*
D25*
X78119800Y-54730000D03*
D24*
X78119800Y-55230000D03*
X78119800Y-55730000D03*
X78953800Y-55730000D03*
X78953800Y-55230000D03*
D25*
X78953800Y-54730000D03*
D24*
X78953800Y-54230000D03*
X78953800Y-53730000D03*
%TD*%
D26*
%TO.C,C29*%
X102774687Y-43800623D03*
X102774687Y-42840623D03*
%TD*%
D13*
%TO.C,C11*%
X89236800Y-47000000D03*
X88546800Y-47000000D03*
%TD*%
D27*
%TO.C,Q5*%
X42078400Y-72841400D03*
X42078400Y-70941400D03*
X40203400Y-71891400D03*
%TD*%
D28*
%TO.C,C3*%
X105730800Y-34991600D03*
X105730800Y-37691600D03*
%TD*%
D18*
%TO.C,R21*%
X84206800Y-25895000D03*
X84206800Y-26585000D03*
%TD*%
D17*
%TO.C,R9*%
X106821800Y-54030000D03*
X107511800Y-54030000D03*
%TD*%
D18*
%TO.C,R34*%
X140173200Y-65968600D03*
X140173200Y-66658600D03*
%TD*%
D13*
%TO.C,R3*%
X103286670Y-55063394D03*
X102596670Y-55063394D03*
%TD*%
%TO.C,R17*%
X78601800Y-51580000D03*
X77911800Y-51580000D03*
%TD*%
D18*
%TO.C,R37*%
X113086301Y-36207961D03*
X113086301Y-36897961D03*
%TD*%
D17*
%TO.C,C32*%
X43587600Y-74721000D03*
X44277600Y-74721000D03*
%TD*%
D29*
%TO.C,C28*%
X102774687Y-44805388D03*
X102774687Y-45765388D03*
%TD*%
D17*
%TO.C,R16*%
X77911800Y-50820000D03*
X78601800Y-50820000D03*
%TD*%
D30*
%TO.C,C8*%
X91840752Y-42633952D03*
X91352848Y-42146048D03*
%TD*%
D21*
%TO.C,D14*%
X151995400Y-75229000D03*
X153395400Y-75229000D03*
%TD*%
D13*
%TO.C,R25*%
X97677000Y-39564300D03*
X96987000Y-39564300D03*
%TD*%
D18*
%TO.C,C5*%
X100981000Y-39679600D03*
X100981000Y-40369600D03*
%TD*%
D16*
%TO.C,R36*%
X63042660Y-36762891D03*
X63042660Y-36072891D03*
%TD*%
D31*
%TO.C,C23*%
X99787200Y-60537600D03*
X99787200Y-62437600D03*
%TD*%
D17*
%TO.C,R11*%
X64339400Y-46806400D03*
X65029400Y-46806400D03*
%TD*%
D18*
%TO.C,R4*%
X63820800Y-36072800D03*
X63820800Y-36762800D03*
%TD*%
%TO.C,R18*%
X78776800Y-64565000D03*
X78776800Y-65255000D03*
%TD*%
D32*
%TO.C,SW7*%
X36684912Y-39094336D03*
X43613116Y-35094336D03*
D33*
X39710265Y-40234400D03*
X43087763Y-38284400D03*
%TD*%
D13*
%TO.C,R33*%
X37038600Y-73044600D03*
X36348600Y-73044600D03*
%TD*%
D34*
%TO.C,D6*%
X38420800Y-73033400D03*
X38420800Y-71633400D03*
%TD*%
D35*
%TO.C,SW8*%
X139487798Y-35094336D03*
X146416002Y-39094336D03*
D36*
X140013151Y-38284400D03*
X143390649Y-40234400D03*
%TD*%
D37*
%TO.C,D16*%
X149179000Y-77489600D03*
X147779000Y-77489600D03*
%TD*%
D38*
%TO.C,SW17*%
X88987957Y-53966400D03*
X88987957Y-59966400D03*
X85237957Y-53966400D03*
X85237957Y-59966400D03*
%TD*%
D30*
%TO.C,C6*%
X91830752Y-41523952D03*
X91342848Y-41036048D03*
%TD*%
D16*
%TO.C,R19*%
X76196800Y-65255000D03*
X76196800Y-64565000D03*
%TD*%
D18*
%TO.C,C13*%
X75206800Y-59375000D03*
X75206800Y-60065000D03*
%TD*%
D39*
%TO.C,Q6*%
X143855100Y-75279800D03*
X141955100Y-75279800D03*
X142905100Y-77154800D03*
%TD*%
D17*
%TO.C,R23*%
X99273000Y-39564300D03*
X99963000Y-39564300D03*
%TD*%
D13*
%TO.C,R28*%
X97731800Y-35500000D03*
X97041800Y-35500000D03*
%TD*%
D40*
%TO.C,R10*%
X88682848Y-50013952D03*
X89170752Y-49526048D03*
%TD*%
D41*
%TO.C,D13*%
X84105200Y-75530900D03*
X84105200Y-76180900D03*
X84105200Y-76830900D03*
X86005200Y-76830900D03*
X86005200Y-76180900D03*
X86005200Y-75530900D03*
%TD*%
D42*
%TO.C,U8*%
X95751600Y-46658100D03*
X97351600Y-46658100D03*
X95751600Y-45058100D03*
X97351600Y-45058100D03*
D43*
X93951600Y-49295600D03*
X94351600Y-49295600D03*
X94751600Y-49295600D03*
X95151600Y-49295600D03*
X95551600Y-49295600D03*
X95951600Y-49295600D03*
X96351600Y-49295600D03*
X96751600Y-49295600D03*
X97151600Y-49295600D03*
X97551600Y-49295600D03*
X97951600Y-49295600D03*
X98351600Y-49295600D03*
X98751600Y-49295600D03*
X99151600Y-49295600D03*
D44*
X99989100Y-48458100D03*
X99989100Y-48058100D03*
X99989100Y-47658100D03*
X99989100Y-47258100D03*
X99989100Y-46858100D03*
X99989100Y-46458100D03*
X99989100Y-46058100D03*
X99989100Y-45658100D03*
X99989100Y-45258100D03*
X99989100Y-44858100D03*
X99989100Y-44458100D03*
X99989100Y-44058100D03*
X99989100Y-43658100D03*
X99989100Y-43258100D03*
D43*
X99151600Y-42420600D03*
X98751600Y-42420600D03*
X98351600Y-42420600D03*
X97951600Y-42420600D03*
X97551600Y-42420600D03*
X97151600Y-42420600D03*
X96751600Y-42420600D03*
X96351600Y-42420600D03*
X95951600Y-42420600D03*
X95551600Y-42420600D03*
X95151600Y-42420600D03*
X94751600Y-42420600D03*
X94351600Y-42420600D03*
X93951600Y-42420600D03*
D44*
X93114100Y-43258100D03*
X93114100Y-43658100D03*
X93114100Y-44058100D03*
X93114100Y-44458100D03*
X93114100Y-44858100D03*
X93114100Y-45258100D03*
X93114100Y-45658100D03*
X93114100Y-46058100D03*
X93114100Y-46458100D03*
X93114100Y-46858100D03*
X93114100Y-47258100D03*
X93114100Y-47658100D03*
X93114100Y-48058100D03*
X93114100Y-48458100D03*
%TD*%
D20*
%TO.C,R7*%
X90155742Y-43653154D03*
X90643646Y-44141058D03*
%TD*%
D13*
%TO.C,R26*%
X100311800Y-35520000D03*
X99621800Y-35520000D03*
%TD*%
D18*
%TO.C,R40*%
X142738600Y-72598000D03*
X142738600Y-73288000D03*
%TD*%
D37*
%TO.C,D3*%
X38460400Y-74390800D03*
X37060400Y-74390800D03*
%TD*%
D18*
%TO.C,R14*%
X107612641Y-46181253D03*
X107612641Y-46871253D03*
%TD*%
D45*
%TO.C,D2*%
X87416800Y-36175000D03*
X87416800Y-33675000D03*
%TD*%
D46*
%TO.C,D8*%
X57481200Y-71292000D03*
X58131200Y-71292000D03*
X58781200Y-71292000D03*
X58781200Y-69392000D03*
X58131200Y-69392000D03*
X57481200Y-69392000D03*
%TD*%
D20*
%TO.C,C10*%
X92442848Y-39936048D03*
X92930752Y-40423952D03*
%TD*%
D13*
%TO.C,C16*%
X102367400Y-52648400D03*
X101677400Y-52648400D03*
%TD*%
D47*
%TO.C,C18*%
X80766800Y-56340000D03*
X81726800Y-56340000D03*
%TD*%
D13*
%TO.C,R24*%
X96203800Y-39564300D03*
X95513800Y-39564300D03*
%TD*%
D48*
%TO.C,D5*%
X113594600Y-45195800D03*
X113594600Y-44545800D03*
X113594600Y-43895800D03*
X111694600Y-43895800D03*
X111694600Y-44545800D03*
X111694600Y-45195800D03*
%TD*%
D49*
%TO.C,P1*%
X71616800Y-38650000D03*
X71616800Y-40150000D03*
X71616800Y-41650000D03*
X71616800Y-43150000D03*
X71616800Y-44650000D03*
X71616800Y-46150000D03*
X71616800Y-47650000D03*
D50*
X73866800Y-48950000D03*
X75366800Y-48950000D03*
X76866800Y-48950000D03*
X78366800Y-48950000D03*
X79866800Y-48950000D03*
X81366800Y-48950000D03*
X82866800Y-48950000D03*
D49*
X85116800Y-47650000D03*
X85116800Y-46150000D03*
X85116800Y-44650000D03*
X85116800Y-43150000D03*
X85116800Y-41650000D03*
X85116800Y-40150000D03*
X85116800Y-38650000D03*
%TD*%
D51*
%TO.C,SW5*%
X94550457Y-76803800D03*
X88550457Y-76803800D03*
X94550457Y-73053800D03*
X88550457Y-73053800D03*
%TD*%
D16*
%TO.C,R2*%
X61179200Y-54568200D03*
X61179200Y-53878200D03*
%TD*%
D37*
%TO.C,D15*%
X151769800Y-77489600D03*
X150369800Y-77489600D03*
%TD*%
D52*
%TO.C,Y1*%
X105967465Y-45650656D03*
X105967465Y-43450656D03*
X104267465Y-43450656D03*
X104267465Y-45650656D03*
%TD*%
D53*
%TO.C,U2*%
X92089300Y-34380000D03*
D54*
X92626800Y-34455000D03*
D53*
X93164300Y-34380000D03*
X93164300Y-32680000D03*
D54*
X92626800Y-32605000D03*
D53*
X92089300Y-32680000D03*
%TD*%
D41*
%TO.C,D12*%
X84105200Y-72671000D03*
X84105200Y-73321000D03*
X84105200Y-73971000D03*
X86005200Y-73971000D03*
X86005200Y-73321000D03*
X86005200Y-72671000D03*
%TD*%
D55*
%TO.C,C1*%
X49963356Y-67005405D03*
X51513356Y-67005405D03*
%TD*%
D38*
%TO.C,SW18*%
X94112957Y-68841400D03*
X94112957Y-62841400D03*
X97862957Y-68841400D03*
X97862957Y-62841400D03*
%TD*%
D30*
%TO.C,C7*%
X92380752Y-40973952D03*
X91892848Y-40486048D03*
%TD*%
D56*
%TO.C,L7*%
X87256800Y-47747501D03*
X87256800Y-46172499D03*
%TD*%
D16*
%TO.C,R27*%
X94546800Y-36975000D03*
X94546800Y-36285000D03*
%TD*%
D17*
%TO.C,C25*%
X143714400Y-72384200D03*
X144404400Y-72384200D03*
%TD*%
D57*
%TO.C,D10*%
X101676800Y-35890000D03*
X101676800Y-38390000D03*
%TD*%
D58*
%TO.C,C2*%
X62465156Y-55234524D03*
X62465156Y-53684524D03*
%TD*%
D17*
%TO.C,C34*%
X39599800Y-75533800D03*
X40289800Y-75533800D03*
%TD*%
D38*
%TO.C,SW19*%
X88987957Y-62841400D03*
X88987957Y-68841400D03*
X85237957Y-62841400D03*
X85237957Y-68841400D03*
%TD*%
D46*
%TO.C,D11*%
X60376800Y-69905200D03*
X61026800Y-69905200D03*
X61676800Y-69905200D03*
X61676800Y-68005200D03*
X61026800Y-68005200D03*
X60376800Y-68005200D03*
%TD*%
D59*
%TO.C,U1*%
X90084300Y-34570000D03*
D60*
X89546800Y-34495000D03*
D59*
X89009300Y-34570000D03*
X89009300Y-36270000D03*
D60*
X89546800Y-36345000D03*
D59*
X90084300Y-36270000D03*
%TD*%
D17*
%TO.C,C24*%
X101473376Y-54298352D03*
X102163376Y-54298352D03*
%TD*%
D18*
%TO.C,R13*%
X107782223Y-42383205D03*
X107782223Y-43073205D03*
%TD*%
%TO.C,C14*%
X108778800Y-46563000D03*
X108778800Y-47253000D03*
%TD*%
D61*
%TO.C,J2*%
X102224200Y-67284200D03*
X102224200Y-66784200D03*
X102224200Y-66284200D03*
X102224200Y-65784200D03*
X102224200Y-65284200D03*
X102224200Y-64784200D03*
D62*
X104874200Y-68074200D03*
X104874200Y-63994200D03*
%TD*%
D17*
%TO.C,C9*%
X89591800Y-45900000D03*
X90281800Y-45900000D03*
%TD*%
D16*
%TO.C,R15*%
X105680000Y-53044200D03*
X105680000Y-52354200D03*
%TD*%
D13*
%TO.C,R31*%
X44455400Y-75660800D03*
X43765400Y-75660800D03*
%TD*%
D22*
%TO.C,U5*%
X80855600Y-62966600D03*
X80855600Y-62466600D03*
X80855600Y-61966600D03*
X80855600Y-61466600D03*
D23*
X79957600Y-61068600D03*
X79457600Y-61068600D03*
X78957600Y-61068600D03*
D22*
X78059600Y-61466600D03*
X78059600Y-61966600D03*
X78059600Y-62466600D03*
X78059600Y-62966600D03*
D23*
X78957600Y-63364600D03*
X79457600Y-63364600D03*
X79957600Y-63364600D03*
%TD*%
D63*
%TO.C,U4*%
X100692200Y-58823600D03*
X101192200Y-58823600D03*
X101692200Y-58823600D03*
X102192200Y-58823600D03*
X102692200Y-58823600D03*
X102692200Y-56023600D03*
X102192200Y-56023600D03*
X101692200Y-56023600D03*
X101192200Y-56023600D03*
X100692200Y-56023600D03*
%TD*%
D16*
%TO.C,R32*%
X43602400Y-73694400D03*
X43602400Y-73004400D03*
%TD*%
D46*
%TO.C,Q4*%
X95716800Y-38482300D03*
X96366800Y-38482300D03*
X97016800Y-38482300D03*
X97016800Y-36582300D03*
X96366800Y-36582300D03*
X95716800Y-36582300D03*
%TD*%
D38*
%TO.C,SW9*%
X94112957Y-59966400D03*
X94112957Y-53966400D03*
X97862957Y-59966400D03*
X97862957Y-53966400D03*
%TD*%
D53*
%TO.C,U3*%
X94349300Y-34380000D03*
D54*
X94886800Y-34455000D03*
D53*
X95424300Y-34380000D03*
X95424300Y-32680000D03*
D54*
X94886800Y-32605000D03*
D53*
X94349300Y-32680000D03*
%TD*%
D45*
%TO.C,D9*%
X103648000Y-37286800D03*
X103648000Y-34786800D03*
%TD*%
D20*
%TO.C,C19*%
X90815048Y-42707448D03*
X91302952Y-43195352D03*
%TD*%
D46*
%TO.C,Q3*%
X98612400Y-38482300D03*
X99262400Y-38482300D03*
X99912400Y-38482300D03*
X99912400Y-36582300D03*
X99262400Y-36582300D03*
X98612400Y-36582300D03*
%TD*%
D48*
%TO.C,D4*%
X112776800Y-48055600D03*
X112776800Y-47405600D03*
X112776800Y-46755600D03*
X110876800Y-46755600D03*
X110876800Y-47405600D03*
X110876800Y-48055600D03*
%TD*%
D64*
%TO.C,D1*%
X109536800Y-52660000D03*
X107036800Y-52660000D03*
%TD*%
D65*
%TO.C,U9*%
X90005178Y-49600000D03*
X90505178Y-49600000D03*
X91005178Y-49600000D03*
X91505178Y-49600000D03*
X91505178Y-47200000D03*
X91005178Y-47200000D03*
X90505178Y-47200000D03*
X90005178Y-47200000D03*
D66*
X90755178Y-48400000D03*
%TD*%
M02*
