%TF.GenerationSoftware,KiCad,Pcbnew,9.0.6-rc2*%
%TF.CreationDate,2025-12-12T00:47:50-08:00*%
%TF.ProjectId,FPC_Trigger_Board,4650435f-5472-4696-9767-65725f426f61,rev?*%
%TF.SameCoordinates,Original*%
%TF.FileFunction,Profile,NP*%
%FSLAX46Y46*%
G04 Gerber Fmt 4.6, Leading zero omitted, Abs format (unit mm)*
G04 Created by KiCad (PCBNEW 9.0.6-rc2) date 2025-12-12 00:47:50*
%MOMM*%
%LPD*%
G01*
G04 APERTURE LIST*
%TA.AperFunction,Profile*%
%ADD10C,0.010050*%
%TD*%
%TA.AperFunction,Profile*%
%ADD11C,0.050000*%
%TD*%
G04 APERTURE END LIST*
D10*
X252815866Y-132405929D02*
G75*
G02*
X252805816Y-132405929I-5025J0D01*
G01*
X252805816Y-132405929D02*
G75*
G02*
X252815866Y-132405929I5025J0D01*
G01*
D11*
X249288600Y-136740000D02*
X250297638Y-136756126D01*
X249350000Y-140255800D02*
X232300400Y-140255800D01*
X229300000Y-158200000D02*
X229300400Y-157555019D01*
X249350000Y-140255800D02*
X256506914Y-140255800D01*
X227876496Y-138530000D02*
X229300000Y-138530000D01*
X225376896Y-137755800D02*
X227376638Y-137755800D01*
X225376896Y-150545800D02*
X225376896Y-158210000D01*
X225376896Y-142255800D02*
X225376896Y-146505800D01*
X227876896Y-155555019D02*
X229300400Y-155555019D01*
X227876896Y-147606263D02*
X227876896Y-146505800D01*
X256568001Y-136756125D02*
X256742327Y-126768980D01*
X229300400Y-142255800D02*
X229300400Y-146505800D01*
X206861572Y-136756125D02*
X207888059Y-136738207D01*
X256568001Y-136756125D02*
X256506914Y-140255800D01*
X227876896Y-155555019D02*
X227876896Y-150545800D01*
X249114672Y-126773828D02*
G75*
G02*
X256742331Y-126768969I3818028J-6588572D01*
G01*
X225376896Y-137755800D02*
X206854580Y-137755800D01*
X227876638Y-138256058D02*
X227876496Y-138530000D01*
X207888059Y-136738207D02*
X208061988Y-126773831D01*
X224876896Y-140255800D02*
G75*
G02*
X225376900Y-140755800I4J-500000D01*
G01*
X225376896Y-142255800D02*
X225376896Y-140755800D01*
X231800400Y-142255800D02*
X231800400Y-140755800D01*
X227876896Y-139989379D02*
X229300400Y-139989379D01*
X200434332Y-126768974D02*
X200669746Y-140255800D01*
X225376896Y-146505800D02*
X225376896Y-150545800D01*
X231800400Y-150545800D02*
X231800400Y-146505800D01*
X249114674Y-126773828D02*
X249288600Y-136738207D01*
X229300400Y-150545800D02*
X229300400Y-149606263D01*
X227876896Y-147606263D02*
X229300400Y-147606263D01*
X229300400Y-140255800D02*
X229300400Y-142255800D01*
X200669746Y-140255800D02*
X224876896Y-140255800D01*
X231800400Y-150545800D02*
X231800000Y-158200000D01*
X227876896Y-150545800D02*
X227876896Y-149606263D01*
X227876896Y-140255800D02*
X227876896Y-142255800D01*
X227876896Y-139989379D02*
X227876896Y-140255800D01*
X229800142Y-137755800D02*
X231800400Y-137755800D01*
X227876896Y-146505800D02*
X227876896Y-142255800D01*
X227376638Y-137755800D02*
G75*
G02*
X227876600Y-138256058I-38J-500000D01*
G01*
X227876896Y-157555019D02*
X227870000Y-158210000D01*
X200434332Y-126768974D02*
G75*
G02*
X208062007Y-126773799I3809668J-6593426D01*
G01*
X227876896Y-149606263D02*
X229300400Y-149606263D01*
X231800400Y-146505800D02*
X231800400Y-142255800D01*
X229300400Y-146505800D02*
X229300400Y-147606263D01*
X229300400Y-155555019D02*
X229300400Y-150545800D01*
X206854552Y-137755800D02*
G75*
G02*
X206861570Y-136756028I15748J499800D01*
G01*
X229300400Y-140255800D02*
X229300400Y-139989379D01*
X229300142Y-138255542D02*
X229300000Y-138530000D01*
X231800400Y-140755800D02*
G75*
G02*
X232300400Y-140255800I500000J0D01*
G01*
X250297638Y-136756125D02*
G75*
G02*
X250291902Y-137755742I8762J-499875D01*
G01*
X227876896Y-157555019D02*
X229300400Y-157555019D01*
X231800400Y-137755800D02*
X250291900Y-137755800D01*
X229300142Y-138255542D02*
G75*
G02*
X229800142Y-137755742I500058J-258D01*
G01*
%TO.C,J2*%
X229300000Y-162000000D02*
X229300000Y-158200000D01*
X231600001Y-162200000D02*
X229499999Y-162200000D01*
X231800000Y-158200000D02*
X231800000Y-162000000D01*
X229499999Y-162200000D02*
G75*
G02*
X229300000Y-162000000I1J200000D01*
G01*
X231800000Y-162000000D02*
G75*
G02*
X231600001Y-162200000I-200000J0D01*
G01*
%TO.C,J1*%
X225370000Y-162010000D02*
X225370000Y-158210000D01*
X227670001Y-162210000D02*
X225569999Y-162210000D01*
X227870000Y-158210000D02*
X227870000Y-162010000D01*
X225569999Y-162210000D02*
G75*
G02*
X225370000Y-162010000I1J200000D01*
G01*
X227870000Y-162010000D02*
G75*
G02*
X227670001Y-162210000I-200000J0D01*
G01*
%TD*%
M02*
