%TF.GenerationSoftware,KiCad,Pcbnew,9.0.6-rc2*%
%TF.CreationDate,2025-12-12T00:47:49-08:00*%
%TF.ProjectId,FPC_Trigger_Board,4650435f-5472-4696-9767-65725f426f61,rev?*%
%TF.SameCoordinates,Original*%
%TF.FileFunction,Copper,L1,Top*%
%TF.FilePolarity,Positive*%
%FSLAX46Y46*%
G04 Gerber Fmt 4.6, Leading zero omitted, Abs format (unit mm)*
G04 Created by KiCad (PCBNEW 9.0.6-rc2) date 2025-12-12 00:47:49*
%MOMM*%
%LPD*%
G01*
G04 APERTURE LIST*
G04 APERTURE END LIST*
%TA.AperFunction,Conductor*%
%TO.N,GND*%
G36*
X204503563Y-126002657D02*
G01*
X204508714Y-126002840D01*
X205017263Y-126038791D01*
X205022394Y-126039335D01*
X205527200Y-126110739D01*
X205532272Y-126111639D01*
X206030843Y-126218145D01*
X206035820Y-126219391D01*
X206415588Y-126328760D01*
X206525738Y-126360483D01*
X206530657Y-126362088D01*
X206697445Y-126423035D01*
X207009491Y-126537062D01*
X207014281Y-126539005D01*
X207112607Y-126582948D01*
X207479729Y-126747020D01*
X207484344Y-126749279D01*
X207768916Y-126901150D01*
X207804875Y-126944908D01*
X207808064Y-126967726D01*
X207643066Y-136420516D01*
X207620482Y-136472456D01*
X207570369Y-136493214D01*
X206901363Y-136504892D01*
X206901358Y-136504892D01*
X206887907Y-136505126D01*
X206887738Y-136505060D01*
X206887739Y-136505087D01*
X206857197Y-136505566D01*
X206773953Y-136506873D01*
X206773951Y-136506873D01*
X206612157Y-136546186D01*
X206612153Y-136546188D01*
X206462899Y-136619998D01*
X206462897Y-136619999D01*
X206333443Y-136724719D01*
X206230082Y-136855257D01*
X206230080Y-136855260D01*
X206157831Y-137005279D01*
X206120208Y-137167472D01*
X206120208Y-137167474D01*
X206119039Y-137333980D01*
X206154380Y-137496692D01*
X206154381Y-137496694D01*
X206158377Y-137505297D01*
X206224518Y-137647712D01*
X206326038Y-137779691D01*
X206326039Y-137779692D01*
X206326040Y-137779693D01*
X206454007Y-137886217D01*
X206454008Y-137886217D01*
X206454010Y-137886219D01*
X206602213Y-137962118D01*
X206602215Y-137962119D01*
X206707414Y-137989249D01*
X206763446Y-138003700D01*
X206790468Y-138004503D01*
X206802715Y-138005894D01*
X206804749Y-138006298D01*
X206804752Y-138006300D01*
X206849447Y-138006300D01*
X206851776Y-138006337D01*
X206890808Y-138007566D01*
X206890808Y-138007565D01*
X206890811Y-138007566D01*
X206890813Y-138007565D01*
X206894359Y-138007055D01*
X206904905Y-138006300D01*
X225327068Y-138006300D01*
X227370788Y-138006300D01*
X227382373Y-138007212D01*
X227442162Y-138016689D01*
X227464181Y-138023847D01*
X227512861Y-138048664D01*
X227531588Y-138062277D01*
X227570213Y-138100924D01*
X227583816Y-138119660D01*
X227608605Y-138168358D01*
X227615749Y-138190378D01*
X227624481Y-138245680D01*
X227625229Y-138250413D01*
X227626134Y-138261993D01*
X227626024Y-138473050D01*
X227625996Y-138473353D01*
X227625996Y-138529667D01*
X227625969Y-138579700D01*
X227625979Y-138579746D01*
X227625994Y-138579826D01*
X227644799Y-138625224D01*
X227644806Y-138625261D01*
X227644813Y-138625259D01*
X227664057Y-138671785D01*
X227664096Y-138671843D01*
X227664132Y-138671897D01*
X227699273Y-138707038D01*
X227699299Y-138707065D01*
X227734486Y-138742288D01*
X227734516Y-138742308D01*
X227734595Y-138742360D01*
X227734599Y-138742364D01*
X227777830Y-138760270D01*
X227780997Y-138761582D01*
X227780994Y-138761588D01*
X227781029Y-138761595D01*
X227815501Y-138775895D01*
X227826535Y-138780473D01*
X227826536Y-138780473D01*
X227826538Y-138780474D01*
X227826540Y-138780474D01*
X227826589Y-138780484D01*
X227826666Y-138780499D01*
X227826668Y-138780500D01*
X227826669Y-138780500D01*
X227828813Y-138780927D01*
X227830747Y-138782220D01*
X227833280Y-138783271D01*
X227833243Y-138783358D01*
X227834546Y-138783763D01*
X227834576Y-138783776D01*
X227834238Y-138784554D01*
X227875897Y-138812405D01*
X227888357Y-138853342D01*
X227890099Y-139665452D01*
X227868537Y-139717825D01*
X227830538Y-139738189D01*
X227827065Y-139738879D01*
X227735001Y-139777013D01*
X227664530Y-139847484D01*
X227626396Y-139939549D01*
X227626396Y-147656092D01*
X227664530Y-147748157D01*
X227664531Y-147748159D01*
X227664532Y-147748160D01*
X227734999Y-147818627D01*
X227827068Y-147856763D01*
X227827069Y-147856763D01*
X227833824Y-147856763D01*
X227886150Y-147878437D01*
X227907824Y-147930604D01*
X227909272Y-148605501D01*
X227910518Y-149186352D01*
X227910723Y-149281604D01*
X227889161Y-149333976D01*
X227836882Y-149355763D01*
X227827068Y-149355763D01*
X227735001Y-149393897D01*
X227664530Y-149464368D01*
X227626396Y-149556433D01*
X227626396Y-155604848D01*
X227664530Y-155696913D01*
X227664531Y-155696915D01*
X227664532Y-155696916D01*
X227734999Y-155767383D01*
X227827068Y-155805519D01*
X227827069Y-155805519D01*
X227850871Y-155805519D01*
X227903197Y-155827193D01*
X227924871Y-155879360D01*
X227927769Y-157230098D01*
X227906207Y-157282471D01*
X227853928Y-157304257D01*
X227852992Y-157304253D01*
X227829635Y-157304007D01*
X227828734Y-157304187D01*
X227827982Y-157304333D01*
X227827133Y-157304492D01*
X227782555Y-157322956D01*
X227781835Y-157323249D01*
X227737175Y-157341199D01*
X227736401Y-157341717D01*
X227735737Y-157342156D01*
X227735047Y-157342606D01*
X227700943Y-157376709D01*
X227700392Y-157377254D01*
X227665983Y-157410946D01*
X227665491Y-157411685D01*
X227665037Y-157412357D01*
X227664559Y-157413054D01*
X227646134Y-157457534D01*
X227645835Y-157458247D01*
X227626902Y-157502631D01*
X227626735Y-157503476D01*
X227626576Y-157504255D01*
X227626396Y-157505112D01*
X227626396Y-157553257D01*
X227626392Y-157554036D01*
X227620778Y-158087187D01*
X227598554Y-158139282D01*
X227546861Y-158160408D01*
X225701475Y-158162379D01*
X225649126Y-158140761D01*
X225627396Y-158088458D01*
X225627396Y-157149157D01*
X225975396Y-157149157D01*
X225975396Y-157600923D01*
X226104479Y-157730006D01*
X226459445Y-157375040D01*
X226951594Y-157375040D01*
X227276831Y-157700277D01*
X227278396Y-157551795D01*
X227278396Y-157488115D01*
X227278750Y-157480881D01*
X227280666Y-157461374D01*
X227281727Y-157454207D01*
X227282224Y-157451700D01*
X227282859Y-157447721D01*
X227285706Y-157434155D01*
X227288388Y-157420664D01*
X227289361Y-157416768D01*
X227289892Y-157414245D01*
X227291727Y-157407242D01*
X227297621Y-157388534D01*
X227300134Y-157381738D01*
X227325193Y-157322984D01*
X227349561Y-157264162D01*
X227352657Y-157257614D01*
X227361890Y-157240331D01*
X227365605Y-157234127D01*
X227367050Y-157231960D01*
X227369191Y-157228480D01*
X227376950Y-157217130D01*
X227384590Y-157205695D01*
X227387031Y-157202398D01*
X227388469Y-157200297D01*
X227392843Y-157194531D01*
X227405439Y-157179514D01*
X227410361Y-157174198D01*
X227435787Y-157149299D01*
X227306561Y-157020073D01*
X226951594Y-157375040D01*
X226459445Y-157375040D01*
X226459446Y-157375039D01*
X226104480Y-157020073D01*
X225975396Y-157149157D01*
X225627396Y-157149157D01*
X225627396Y-156773999D01*
X226350553Y-156773999D01*
X226705520Y-157128966D01*
X227060488Y-156773999D01*
X226705520Y-156419031D01*
X226350553Y-156773999D01*
X225627396Y-156773999D01*
X225627396Y-155947075D01*
X225975396Y-155947075D01*
X225975396Y-156398842D01*
X226104480Y-156527926D01*
X226459447Y-156172958D01*
X226951593Y-156172958D01*
X227306560Y-156527925D01*
X227501842Y-156332643D01*
X227501184Y-156025700D01*
X227501028Y-156025559D01*
X227406356Y-155930887D01*
X227401478Y-155925504D01*
X227389011Y-155910312D01*
X227384686Y-155904480D01*
X227367845Y-155879275D01*
X227306561Y-155817991D01*
X226951593Y-156172958D01*
X226459447Y-156172958D01*
X226104479Y-155817991D01*
X225975396Y-155947075D01*
X225627396Y-155947075D01*
X225627396Y-155571917D01*
X226350553Y-155571917D01*
X226705520Y-155926885D01*
X227060488Y-155571917D01*
X226705520Y-155216950D01*
X226350553Y-155571917D01*
X225627396Y-155571917D01*
X225627396Y-154744994D01*
X225975396Y-154744994D01*
X225975396Y-155196760D01*
X226104480Y-155325844D01*
X226459447Y-154970877D01*
X226951594Y-154970877D01*
X227278396Y-155297679D01*
X227278396Y-154644075D01*
X226951594Y-154970877D01*
X226459447Y-154970877D01*
X226104480Y-154615910D01*
X225975396Y-154744994D01*
X225627396Y-154744994D01*
X225627396Y-154369836D01*
X226350553Y-154369836D01*
X226705520Y-154724803D01*
X227060488Y-154369836D01*
X226705520Y-154014868D01*
X226350553Y-154369836D01*
X225627396Y-154369836D01*
X225627396Y-153542912D01*
X225975396Y-153542912D01*
X225975396Y-153994678D01*
X226104480Y-154123762D01*
X226459447Y-153768795D01*
X226951593Y-153768795D01*
X227278396Y-154095597D01*
X227278396Y-153441993D01*
X226951593Y-153768795D01*
X226459447Y-153768795D01*
X226104480Y-153413828D01*
X225975396Y-153542912D01*
X225627396Y-153542912D01*
X225627396Y-153167754D01*
X226350553Y-153167754D01*
X226705520Y-153522722D01*
X227060488Y-153167754D01*
X226705520Y-152812787D01*
X226350553Y-153167754D01*
X225627396Y-153167754D01*
X225627396Y-152340831D01*
X225975396Y-152340831D01*
X225975396Y-152792597D01*
X226104480Y-152921681D01*
X226459447Y-152566714D01*
X226951594Y-152566714D01*
X227278396Y-152893516D01*
X227278396Y-152239912D01*
X226951594Y-152566714D01*
X226459447Y-152566714D01*
X226104480Y-152211747D01*
X225975396Y-152340831D01*
X225627396Y-152340831D01*
X225627396Y-151965673D01*
X226350553Y-151965673D01*
X226705520Y-152320640D01*
X227060488Y-151965673D01*
X226705520Y-151610705D01*
X226350553Y-151965673D01*
X225627396Y-151965673D01*
X225627396Y-151138749D01*
X225975396Y-151138749D01*
X225975396Y-151590515D01*
X226104480Y-151719599D01*
X226459447Y-151364632D01*
X226951593Y-151364632D01*
X227278396Y-151691434D01*
X227278396Y-151037830D01*
X226951593Y-151364632D01*
X226459447Y-151364632D01*
X226104480Y-151009665D01*
X225975396Y-151138749D01*
X225627396Y-151138749D01*
X225627396Y-150763591D01*
X226350553Y-150763591D01*
X226705520Y-151118559D01*
X227060488Y-150763591D01*
X226705520Y-150408624D01*
X226350553Y-150763591D01*
X225627396Y-150763591D01*
X225627396Y-149936667D01*
X225975396Y-149936667D01*
X225975396Y-150388434D01*
X226104480Y-150517518D01*
X226459447Y-150162550D01*
X226951593Y-150162550D01*
X227278396Y-150489353D01*
X227278396Y-149835748D01*
X226951593Y-150162550D01*
X226459447Y-150162550D01*
X226104479Y-149807583D01*
X225975396Y-149936667D01*
X225627396Y-149936667D01*
X225627396Y-149561510D01*
X226350553Y-149561510D01*
X226705520Y-149916477D01*
X227060488Y-149561510D01*
X226705520Y-149206542D01*
X226350553Y-149561510D01*
X225627396Y-149561510D01*
X225627396Y-148734586D01*
X225975396Y-148734586D01*
X225975396Y-149186352D01*
X226104480Y-149315436D01*
X226459447Y-148960469D01*
X226951593Y-148960469D01*
X227306560Y-149315436D01*
X227486407Y-149135589D01*
X227485654Y-148784594D01*
X227306561Y-148605501D01*
X226951593Y-148960469D01*
X226459447Y-148960469D01*
X226104480Y-148605502D01*
X225975396Y-148734586D01*
X225627396Y-148734586D01*
X225627396Y-148359428D01*
X226350553Y-148359428D01*
X226705520Y-148714396D01*
X227060488Y-148359428D01*
X226705520Y-148004461D01*
X226350553Y-148359428D01*
X225627396Y-148359428D01*
X225627396Y-147532504D01*
X225975396Y-147532504D01*
X225975396Y-147984271D01*
X226104480Y-148113355D01*
X226459447Y-147758387D01*
X226951593Y-147758387D01*
X227306560Y-148113354D01*
X227422070Y-147997845D01*
X227406356Y-147982131D01*
X227401478Y-147976748D01*
X227389011Y-147961556D01*
X227384686Y-147955724D01*
X227365671Y-147927265D01*
X227361937Y-147921036D01*
X227352675Y-147903707D01*
X227349571Y-147897144D01*
X227298337Y-147773454D01*
X227295891Y-147766617D01*
X227290187Y-147747814D01*
X227288422Y-147740770D01*
X227281744Y-147707200D01*
X227280678Y-147700015D01*
X227278752Y-147680458D01*
X227278396Y-147673205D01*
X227278396Y-147431585D01*
X226951593Y-147758387D01*
X226459447Y-147758387D01*
X226104479Y-147403420D01*
X225975396Y-147532504D01*
X225627396Y-147532504D01*
X225627396Y-147157347D01*
X226350553Y-147157347D01*
X226705520Y-147512314D01*
X227060488Y-147157347D01*
X226705520Y-146802379D01*
X226350553Y-147157347D01*
X225627396Y-147157347D01*
X225627396Y-146330423D01*
X225975396Y-146330423D01*
X225975396Y-146782189D01*
X226104480Y-146911273D01*
X226459447Y-146556306D01*
X226951593Y-146556306D01*
X227278396Y-146883108D01*
X227278396Y-146229504D01*
X226951593Y-146556306D01*
X226459447Y-146556306D01*
X226104480Y-146201339D01*
X225975396Y-146330423D01*
X225627396Y-146330423D01*
X225627396Y-145955265D01*
X226350553Y-145955265D01*
X226705520Y-146310233D01*
X227060488Y-145955265D01*
X226705520Y-145600298D01*
X226350553Y-145955265D01*
X225627396Y-145955265D01*
X225627396Y-145128341D01*
X225975396Y-145128341D01*
X225975396Y-145580108D01*
X226104480Y-145709192D01*
X226459447Y-145354224D01*
X226951593Y-145354224D01*
X227278396Y-145681027D01*
X227278396Y-145027422D01*
X226951593Y-145354224D01*
X226459447Y-145354224D01*
X226104479Y-144999257D01*
X225975396Y-145128341D01*
X225627396Y-145128341D01*
X225627396Y-144753184D01*
X226350553Y-144753184D01*
X226705520Y-145108151D01*
X227060488Y-144753184D01*
X226705520Y-144398216D01*
X226350553Y-144753184D01*
X225627396Y-144753184D01*
X225627396Y-143926260D01*
X225975396Y-143926260D01*
X225975396Y-144378026D01*
X226104480Y-144507110D01*
X226459447Y-144152143D01*
X226951593Y-144152143D01*
X227278396Y-144478945D01*
X227278396Y-143825341D01*
X226951593Y-144152143D01*
X226459447Y-144152143D01*
X226104480Y-143797176D01*
X225975396Y-143926260D01*
X225627396Y-143926260D01*
X225627396Y-143551102D01*
X226350553Y-143551102D01*
X226705520Y-143906069D01*
X227060488Y-143551102D01*
X226705520Y-143196134D01*
X226350553Y-143551102D01*
X225627396Y-143551102D01*
X225627396Y-142724178D01*
X225975396Y-142724178D01*
X225975396Y-143175945D01*
X226104480Y-143305029D01*
X226459447Y-142950061D01*
X226951593Y-142950061D01*
X227278396Y-143276864D01*
X227278396Y-142623259D01*
X226951593Y-142950061D01*
X226459447Y-142950061D01*
X226104479Y-142595094D01*
X225975396Y-142724178D01*
X225627396Y-142724178D01*
X225627396Y-142349021D01*
X226350553Y-142349021D01*
X226705520Y-142703988D01*
X227060488Y-142349021D01*
X226705520Y-141994053D01*
X226350553Y-142349021D01*
X225627396Y-142349021D01*
X225627396Y-141522097D01*
X225975396Y-141522097D01*
X225975396Y-141973863D01*
X226104480Y-142102947D01*
X226459447Y-141747980D01*
X226951593Y-141747980D01*
X227278396Y-142074782D01*
X227278396Y-141421178D01*
X226951593Y-141747980D01*
X226459447Y-141747980D01*
X226104480Y-141393013D01*
X225975396Y-141522097D01*
X225627396Y-141522097D01*
X225627396Y-141146939D01*
X226350553Y-141146939D01*
X226705520Y-141501906D01*
X227060488Y-141146939D01*
X226705520Y-140791971D01*
X226350553Y-141146939D01*
X225627396Y-141146939D01*
X225627396Y-140786456D01*
X225627400Y-140786446D01*
X225627400Y-140681883D01*
X225624977Y-140669704D01*
X225598558Y-140536886D01*
X225541983Y-140400303D01*
X225530857Y-140383652D01*
X225911758Y-140383652D01*
X225923337Y-140411605D01*
X225924644Y-140414992D01*
X225927951Y-140424234D01*
X225929089Y-140427680D01*
X225934051Y-140444034D01*
X225935021Y-140447538D01*
X225937408Y-140457067D01*
X225938204Y-140460612D01*
X225970379Y-140622370D01*
X225970999Y-140625942D01*
X225972440Y-140635651D01*
X225972885Y-140639258D01*
X225974561Y-140656266D01*
X225974829Y-140659892D01*
X225975311Y-140669704D01*
X225975400Y-140673335D01*
X225975400Y-140771786D01*
X226104480Y-140900866D01*
X226459447Y-140545898D01*
X226951593Y-140545898D01*
X227278396Y-140872701D01*
X227278396Y-140219096D01*
X226951593Y-140545898D01*
X226459447Y-140545898D01*
X226104479Y-140190931D01*
X225911758Y-140383652D01*
X225530857Y-140383652D01*
X225459849Y-140277382D01*
X225355313Y-140172847D01*
X225232391Y-140090714D01*
X225232392Y-140090714D01*
X225232390Y-140090713D01*
X225095812Y-140034141D01*
X225095801Y-140034138D01*
X224950812Y-140005300D01*
X224926724Y-140005300D01*
X200988631Y-140005300D01*
X200936305Y-139983626D01*
X200914642Y-139932591D01*
X200911578Y-139757066D01*
X225336262Y-139757066D01*
X225373457Y-139772473D01*
X225376777Y-139773945D01*
X225385651Y-139778142D01*
X225388890Y-139779772D01*
X225403963Y-139787827D01*
X225407130Y-139789621D01*
X225415555Y-139794671D01*
X225418622Y-139796613D01*
X225555755Y-139888242D01*
X225558722Y-139890331D01*
X225566608Y-139896179D01*
X225569474Y-139898416D01*
X225582684Y-139909257D01*
X225585436Y-139911632D01*
X225592713Y-139918228D01*
X225595341Y-139920730D01*
X225711963Y-140037350D01*
X225714467Y-140039979D01*
X225721062Y-140047255D01*
X225723437Y-140050009D01*
X225734279Y-140063221D01*
X225736511Y-140066081D01*
X225736797Y-140066466D01*
X225858406Y-139944857D01*
X226350553Y-139944857D01*
X226705520Y-140299825D01*
X227060488Y-139944857D01*
X226705520Y-139589890D01*
X226350553Y-139944857D01*
X225858406Y-139944857D01*
X225503439Y-139589890D01*
X225336262Y-139757066D01*
X200911578Y-139757066D01*
X200904365Y-139343817D01*
X201707881Y-139343817D01*
X202021364Y-139657300D01*
X202104334Y-139657300D01*
X202417816Y-139343817D01*
X202909963Y-139343817D01*
X203223446Y-139657300D01*
X203306416Y-139657300D01*
X203619898Y-139343817D01*
X204112044Y-139343817D01*
X204425527Y-139657300D01*
X204508497Y-139657300D01*
X204821979Y-139343817D01*
X205314126Y-139343817D01*
X205627609Y-139657300D01*
X205710579Y-139657300D01*
X206024061Y-139343817D01*
X206516207Y-139343817D01*
X206829690Y-139657300D01*
X206912660Y-139657300D01*
X207226142Y-139343817D01*
X207718289Y-139343817D01*
X208031772Y-139657300D01*
X208114742Y-139657300D01*
X208428224Y-139343817D01*
X208920371Y-139343817D01*
X209233854Y-139657300D01*
X209316824Y-139657300D01*
X209630306Y-139343817D01*
X210122452Y-139343817D01*
X210435935Y-139657300D01*
X210518905Y-139657300D01*
X210832387Y-139343817D01*
X211324534Y-139343817D01*
X211638017Y-139657300D01*
X211720987Y-139657300D01*
X212034469Y-139343817D01*
X212526615Y-139343817D01*
X212840098Y-139657300D01*
X212923068Y-139657300D01*
X213236550Y-139343817D01*
X213728697Y-139343817D01*
X214042180Y-139657300D01*
X214125150Y-139657300D01*
X214438632Y-139343817D01*
X214930778Y-139343817D01*
X215244261Y-139657300D01*
X215327231Y-139657300D01*
X215640713Y-139343817D01*
X216132860Y-139343817D01*
X216446343Y-139657300D01*
X216529313Y-139657300D01*
X216842795Y-139343817D01*
X217334941Y-139343817D01*
X217648424Y-139657300D01*
X217731394Y-139657300D01*
X218044876Y-139343817D01*
X218537023Y-139343817D01*
X218850506Y-139657300D01*
X218933476Y-139657300D01*
X219246958Y-139343817D01*
X219739104Y-139343817D01*
X220052587Y-139657300D01*
X220135557Y-139657300D01*
X220449039Y-139343817D01*
X220941186Y-139343817D01*
X221254669Y-139657300D01*
X221337639Y-139657300D01*
X221651121Y-139343817D01*
X222143267Y-139343817D01*
X222456750Y-139657300D01*
X222539720Y-139657300D01*
X222853202Y-139343817D01*
X223345349Y-139343817D01*
X223658832Y-139657300D01*
X223741802Y-139657300D01*
X224055284Y-139343817D01*
X224547430Y-139343817D01*
X224860913Y-139657300D01*
X224943882Y-139657300D01*
X225257364Y-139343817D01*
X225749512Y-139343817D01*
X226104480Y-139698784D01*
X226459447Y-139343817D01*
X226951593Y-139343817D01*
X227306560Y-139698784D01*
X227465827Y-139539517D01*
X227464985Y-139147274D01*
X227306561Y-138988850D01*
X226951593Y-139343817D01*
X226459447Y-139343817D01*
X226104480Y-138988850D01*
X225749512Y-139343817D01*
X225257364Y-139343817D01*
X225257365Y-139343816D01*
X224902398Y-138988849D01*
X224547430Y-139343817D01*
X224055284Y-139343817D01*
X223700316Y-138988849D01*
X223345349Y-139343817D01*
X222853202Y-139343817D01*
X222498235Y-138988849D01*
X222143267Y-139343817D01*
X221651121Y-139343817D01*
X221296153Y-138988849D01*
X220941186Y-139343817D01*
X220449039Y-139343817D01*
X220094072Y-138988849D01*
X219739104Y-139343817D01*
X219246958Y-139343817D01*
X218891990Y-138988849D01*
X218537023Y-139343817D01*
X218044876Y-139343817D01*
X217689909Y-138988849D01*
X217334941Y-139343817D01*
X216842795Y-139343817D01*
X216487827Y-138988849D01*
X216132860Y-139343817D01*
X215640713Y-139343817D01*
X215285746Y-138988849D01*
X214930778Y-139343817D01*
X214438632Y-139343817D01*
X214083664Y-138988849D01*
X213728697Y-139343817D01*
X213236550Y-139343817D01*
X212881583Y-138988849D01*
X212526615Y-139343817D01*
X212034469Y-139343817D01*
X211679501Y-138988849D01*
X211324534Y-139343817D01*
X210832387Y-139343817D01*
X210477420Y-138988850D01*
X210122452Y-139343817D01*
X209630306Y-139343817D01*
X209275338Y-138988849D01*
X208920371Y-139343817D01*
X208428224Y-139343817D01*
X208073257Y-138988850D01*
X207718289Y-139343817D01*
X207226142Y-139343817D01*
X206871175Y-138988849D01*
X206516207Y-139343817D01*
X206024061Y-139343817D01*
X205669094Y-138988850D01*
X205314126Y-139343817D01*
X204821979Y-139343817D01*
X204467012Y-138988849D01*
X204112044Y-139343817D01*
X203619898Y-139343817D01*
X203264930Y-138988849D01*
X202909963Y-139343817D01*
X202417816Y-139343817D01*
X202062849Y-138988849D01*
X201707881Y-139343817D01*
X200904365Y-139343817D01*
X200891556Y-138610006D01*
X201239609Y-138610006D01*
X201244327Y-138880262D01*
X201461808Y-139097743D01*
X201816776Y-138742776D01*
X202308922Y-138742776D01*
X202663890Y-139097743D01*
X203018857Y-138742776D01*
X203511004Y-138742776D01*
X203865971Y-139097743D01*
X204220939Y-138742776D01*
X204713085Y-138742776D01*
X205068053Y-139097743D01*
X205423020Y-138742776D01*
X205915167Y-138742776D01*
X206270134Y-139097743D01*
X206625102Y-138742776D01*
X207117248Y-138742776D01*
X207472216Y-139097743D01*
X207827183Y-138742776D01*
X208319330Y-138742776D01*
X208674297Y-139097743D01*
X209029265Y-138742776D01*
X209521411Y-138742776D01*
X209876379Y-139097743D01*
X210231346Y-138742776D01*
X210723493Y-138742776D01*
X211078460Y-139097743D01*
X211433428Y-138742776D01*
X211925574Y-138742776D01*
X212280542Y-139097743D01*
X212635509Y-138742776D01*
X213127656Y-138742776D01*
X213482623Y-139097743D01*
X213837591Y-138742776D01*
X214329737Y-138742776D01*
X214684705Y-139097743D01*
X215039672Y-138742776D01*
X215531819Y-138742776D01*
X215886787Y-139097743D01*
X216241754Y-138742776D01*
X216733900Y-138742776D01*
X217088868Y-139097743D01*
X217443835Y-138742776D01*
X217935982Y-138742776D01*
X218290950Y-139097743D01*
X218645917Y-138742776D01*
X219138064Y-138742776D01*
X219493031Y-139097743D01*
X219847999Y-138742776D01*
X220340145Y-138742776D01*
X220695113Y-139097743D01*
X221050080Y-138742776D01*
X221542227Y-138742776D01*
X221897194Y-139097743D01*
X222252162Y-138742776D01*
X222744308Y-138742776D01*
X223099276Y-139097743D01*
X223454243Y-138742776D01*
X223946390Y-138742776D01*
X224301357Y-139097743D01*
X224656325Y-138742776D01*
X225148471Y-138742776D01*
X225503439Y-139097743D01*
X225858406Y-138742776D01*
X226350553Y-138742776D01*
X226705520Y-139097743D01*
X227060488Y-138742776D01*
X226705520Y-138387808D01*
X226350553Y-138742776D01*
X225858406Y-138742776D01*
X225503439Y-138387808D01*
X225148471Y-138742776D01*
X224656325Y-138742776D01*
X224301357Y-138387808D01*
X223946390Y-138742776D01*
X223454243Y-138742776D01*
X223099276Y-138387809D01*
X222744308Y-138742776D01*
X222252162Y-138742776D01*
X221897194Y-138387808D01*
X221542227Y-138742776D01*
X221050080Y-138742776D01*
X220695113Y-138387809D01*
X220340145Y-138742776D01*
X219847999Y-138742776D01*
X219493031Y-138387808D01*
X219138064Y-138742776D01*
X218645917Y-138742776D01*
X218290950Y-138387809D01*
X217935982Y-138742776D01*
X217443835Y-138742776D01*
X217088868Y-138387808D01*
X216733900Y-138742776D01*
X216241754Y-138742776D01*
X215886787Y-138387809D01*
X215531819Y-138742776D01*
X215039672Y-138742776D01*
X214684705Y-138387808D01*
X214329737Y-138742776D01*
X213837591Y-138742776D01*
X213482623Y-138387808D01*
X213127656Y-138742776D01*
X212635509Y-138742776D01*
X212280542Y-138387808D01*
X211925574Y-138742776D01*
X211433428Y-138742776D01*
X211078460Y-138387808D01*
X210723493Y-138742776D01*
X210231346Y-138742776D01*
X209876379Y-138387808D01*
X209521411Y-138742776D01*
X209029265Y-138742776D01*
X208674297Y-138387808D01*
X208319330Y-138742776D01*
X207827183Y-138742776D01*
X207472216Y-138387808D01*
X207117248Y-138742776D01*
X206625102Y-138742776D01*
X206270134Y-138387808D01*
X205915167Y-138742776D01*
X205423020Y-138742776D01*
X205068053Y-138387808D01*
X204713085Y-138742776D01*
X204220939Y-138742776D01*
X203865971Y-138387808D01*
X203511004Y-138742776D01*
X203018857Y-138742776D01*
X202663890Y-138387808D01*
X202308922Y-138742776D01*
X201816776Y-138742776D01*
X201461808Y-138387808D01*
X201239609Y-138610006D01*
X200891556Y-138610006D01*
X200883382Y-138141735D01*
X201707881Y-138141735D01*
X202062849Y-138496703D01*
X202417816Y-138141735D01*
X202909963Y-138141735D01*
X203264930Y-138496703D01*
X203619898Y-138141735D01*
X204112044Y-138141735D01*
X204467012Y-138496703D01*
X204821979Y-138141735D01*
X205314126Y-138141735D01*
X205669094Y-138496703D01*
X206024061Y-138141735D01*
X205669094Y-137786768D01*
X205314126Y-138141735D01*
X204821979Y-138141735D01*
X204467012Y-137786768D01*
X204112044Y-138141735D01*
X203619898Y-138141735D01*
X203264930Y-137786768D01*
X202909963Y-138141735D01*
X202417816Y-138141735D01*
X202062849Y-137786768D01*
X201707881Y-138141735D01*
X200883382Y-138141735D01*
X200870934Y-137428547D01*
X201218987Y-137428547D01*
X201222971Y-137656825D01*
X201461808Y-137895662D01*
X201816776Y-137540694D01*
X202308922Y-137540694D01*
X202663890Y-137895662D01*
X203018857Y-137540694D01*
X203511004Y-137540694D01*
X203865971Y-137895662D01*
X204220939Y-137540694D01*
X204713085Y-137540694D01*
X205068053Y-137895662D01*
X205423020Y-137540694D01*
X205068053Y-137185727D01*
X204713085Y-137540694D01*
X204220939Y-137540694D01*
X203865971Y-137185727D01*
X203511004Y-137540694D01*
X203018857Y-137540694D01*
X202663890Y-137185727D01*
X202308922Y-137540694D01*
X201816776Y-137540694D01*
X201461808Y-137185726D01*
X201218987Y-137428547D01*
X200870934Y-137428547D01*
X200862400Y-136939654D01*
X201707882Y-136939654D01*
X202062849Y-137294621D01*
X202417816Y-136939654D01*
X202909963Y-136939654D01*
X203264930Y-137294621D01*
X203619898Y-136939654D01*
X204112045Y-136939654D01*
X204467012Y-137294621D01*
X204821979Y-136939654D01*
X205314127Y-136939654D01*
X205669093Y-137294620D01*
X205772030Y-137191683D01*
X205772285Y-137155426D01*
X205772426Y-137151353D01*
X205773111Y-137140339D01*
X205773477Y-137136267D01*
X205775729Y-137117168D01*
X205776320Y-137113121D01*
X205778220Y-137102225D01*
X205779034Y-137098216D01*
X205821005Y-136917275D01*
X205822039Y-136913318D01*
X205825127Y-136902707D01*
X205826376Y-136898817D01*
X205832760Y-136880679D01*
X205834221Y-136876869D01*
X205838456Y-136866670D01*
X205840127Y-136862939D01*
X205874978Y-136790571D01*
X205669094Y-136584687D01*
X205314127Y-136939654D01*
X204821979Y-136939654D01*
X204467012Y-136584686D01*
X204112045Y-136939654D01*
X203619898Y-136939654D01*
X203264930Y-136584686D01*
X202909963Y-136939654D01*
X202417816Y-136939654D01*
X202062849Y-136584686D01*
X201707882Y-136939654D01*
X200862400Y-136939654D01*
X200850311Y-136247088D01*
X201198364Y-136247088D01*
X201201616Y-136433388D01*
X201461808Y-136693580D01*
X201816776Y-136338613D01*
X202308922Y-136338613D01*
X202663890Y-136693580D01*
X203018857Y-136338613D01*
X203511004Y-136338613D01*
X203865971Y-136693580D01*
X204220939Y-136338613D01*
X204713085Y-136338613D01*
X205068053Y-136693580D01*
X205423020Y-136338613D01*
X205915167Y-136338613D01*
X206071728Y-136495174D01*
X206076526Y-136489759D01*
X206079319Y-136486776D01*
X206092845Y-136473107D01*
X206095799Y-136470282D01*
X206103996Y-136462866D01*
X206107102Y-136460208D01*
X206251512Y-136343390D01*
X206254761Y-136340907D01*
X206263725Y-136334441D01*
X206267103Y-136332144D01*
X206283296Y-136321772D01*
X206286797Y-136319663D01*
X206296411Y-136314229D01*
X206300020Y-136312319D01*
X206466503Y-136229989D01*
X206470211Y-136228281D01*
X206480358Y-136223942D01*
X206484150Y-136222442D01*
X206502220Y-136215867D01*
X206502322Y-136215833D01*
X206270134Y-135983645D01*
X205915167Y-136338613D01*
X205423020Y-136338613D01*
X205068053Y-135983645D01*
X204713085Y-136338613D01*
X204220939Y-136338613D01*
X203865971Y-135983645D01*
X203511004Y-136338613D01*
X203018857Y-136338613D01*
X202663890Y-135983645D01*
X202308922Y-136338613D01*
X201816776Y-136338613D01*
X201461808Y-135983645D01*
X201198364Y-136247088D01*
X200850311Y-136247088D01*
X200841418Y-135737572D01*
X201707881Y-135737572D01*
X202062849Y-136092540D01*
X202417816Y-135737572D01*
X202909963Y-135737572D01*
X203264930Y-136092540D01*
X203619898Y-135737572D01*
X204112044Y-135737572D01*
X204467012Y-136092540D01*
X204821979Y-135737572D01*
X205314126Y-135737572D01*
X205669094Y-136092540D01*
X206024061Y-135737572D01*
X206516207Y-135737572D01*
X206871175Y-136092540D01*
X207226142Y-135737572D01*
X206871175Y-135382605D01*
X206516207Y-135737572D01*
X206024061Y-135737572D01*
X205669094Y-135382605D01*
X205314126Y-135737572D01*
X204821979Y-135737572D01*
X204467012Y-135382605D01*
X204112044Y-135737572D01*
X203619898Y-135737572D01*
X203264930Y-135382605D01*
X202909963Y-135737572D01*
X202417816Y-135737572D01*
X202062849Y-135382605D01*
X201707881Y-135737572D01*
X200841418Y-135737572D01*
X200829689Y-135065629D01*
X201177742Y-135065629D01*
X201180261Y-135209952D01*
X201461808Y-135491499D01*
X201816776Y-135136531D01*
X202308922Y-135136531D01*
X202663890Y-135491499D01*
X203018857Y-135136531D01*
X203511004Y-135136531D01*
X203865971Y-135491499D01*
X204220939Y-135136531D01*
X204713085Y-135136531D01*
X205068053Y-135491499D01*
X205423020Y-135136531D01*
X205915167Y-135136531D01*
X206270134Y-135491499D01*
X206625102Y-135136531D01*
X207117248Y-135136531D01*
X207313988Y-135333271D01*
X207320978Y-134932801D01*
X207117248Y-135136531D01*
X206625102Y-135136531D01*
X206270134Y-134781564D01*
X205915167Y-135136531D01*
X205423020Y-135136531D01*
X205068053Y-134781564D01*
X204713085Y-135136531D01*
X204220939Y-135136531D01*
X203865971Y-134781564D01*
X203511004Y-135136531D01*
X203018857Y-135136531D01*
X202663890Y-134781564D01*
X202308922Y-135136531D01*
X201816776Y-135136531D01*
X201461808Y-134781563D01*
X201177742Y-135065629D01*
X200829689Y-135065629D01*
X200820435Y-134535491D01*
X201707882Y-134535491D01*
X202062849Y-134890458D01*
X202417816Y-134535491D01*
X202909963Y-134535491D01*
X203264930Y-134890458D01*
X203619898Y-134535491D01*
X204112045Y-134535491D01*
X204467012Y-134890458D01*
X204821979Y-134535491D01*
X205314127Y-134535491D01*
X205669094Y-134890458D01*
X206024061Y-134535491D01*
X206516208Y-134535491D01*
X206871175Y-134890458D01*
X207226142Y-134535491D01*
X206871175Y-134180523D01*
X206516208Y-134535491D01*
X206024061Y-134535491D01*
X205669094Y-134180524D01*
X205314127Y-134535491D01*
X204821979Y-134535491D01*
X204467012Y-134180523D01*
X204112045Y-134535491D01*
X203619898Y-134535491D01*
X203264930Y-134180523D01*
X202909963Y-134535491D01*
X202417816Y-134535491D01*
X202062849Y-134180523D01*
X201707882Y-134535491D01*
X200820435Y-134535491D01*
X200809066Y-133884170D01*
X201157119Y-133884170D01*
X201158905Y-133986514D01*
X201461808Y-134289417D01*
X201816776Y-133934450D01*
X202308922Y-133934450D01*
X202663890Y-134289417D01*
X203018857Y-133934450D01*
X203511004Y-133934450D01*
X203865971Y-134289417D01*
X204220939Y-133934450D01*
X204713085Y-133934450D01*
X205068053Y-134289417D01*
X205423020Y-133934450D01*
X205915167Y-133934450D01*
X206270134Y-134289417D01*
X206625102Y-133934450D01*
X207117248Y-133934450D01*
X207334610Y-134151812D01*
X207342333Y-133709364D01*
X207117248Y-133934450D01*
X206625102Y-133934450D01*
X206270134Y-133579482D01*
X205915167Y-133934450D01*
X205423020Y-133934450D01*
X205068053Y-133579482D01*
X204713085Y-133934450D01*
X204220939Y-133934450D01*
X203865971Y-133579482D01*
X203511004Y-133934450D01*
X203018857Y-133934450D01*
X202663890Y-133579482D01*
X202308922Y-133934450D01*
X201816776Y-133934450D01*
X201461808Y-133579482D01*
X201157119Y-133884170D01*
X200809066Y-133884170D01*
X200799453Y-133333409D01*
X201707881Y-133333409D01*
X202062849Y-133688376D01*
X202417816Y-133333409D01*
X202909963Y-133333409D01*
X203264930Y-133688376D01*
X203619898Y-133333409D01*
X204112044Y-133333409D01*
X204467012Y-133688376D01*
X204821979Y-133333409D01*
X205314126Y-133333409D01*
X205669094Y-133688376D01*
X206024061Y-133333409D01*
X206516207Y-133333409D01*
X206871175Y-133688376D01*
X207226142Y-133333409D01*
X206871175Y-132978441D01*
X206516207Y-133333409D01*
X206024061Y-133333409D01*
X205669094Y-132978442D01*
X205314126Y-133333409D01*
X204821979Y-133333409D01*
X204467012Y-132978441D01*
X204112044Y-133333409D01*
X203619898Y-133333409D01*
X203264930Y-132978441D01*
X202909963Y-133333409D01*
X202417816Y-133333409D01*
X202062849Y-132978441D01*
X201707881Y-133333409D01*
X200799453Y-133333409D01*
X200788444Y-132702712D01*
X201136496Y-132702712D01*
X201137550Y-132763078D01*
X201461808Y-133087336D01*
X201816776Y-132732368D01*
X202308922Y-132732368D01*
X202663890Y-133087336D01*
X203018857Y-132732368D01*
X203511004Y-132732368D01*
X203865971Y-133087336D01*
X204220939Y-132732368D01*
X204713085Y-132732368D01*
X205068053Y-133087336D01*
X205423020Y-132732368D01*
X205915167Y-132732368D01*
X206270134Y-133087336D01*
X206625102Y-132732368D01*
X207117248Y-132732368D01*
X207355233Y-132970353D01*
X207363688Y-132485927D01*
X207117248Y-132732368D01*
X206625102Y-132732368D01*
X206270134Y-132377401D01*
X205915167Y-132732368D01*
X205423020Y-132732368D01*
X205068053Y-132377401D01*
X204713085Y-132732368D01*
X204220939Y-132732368D01*
X203865971Y-132377401D01*
X203511004Y-132732368D01*
X203018857Y-132732368D01*
X202663890Y-132377401D01*
X202308922Y-132732368D01*
X201816776Y-132732368D01*
X201461808Y-132377400D01*
X201136496Y-132702712D01*
X200788444Y-132702712D01*
X200778470Y-132131328D01*
X201707882Y-132131328D01*
X202062849Y-132486295D01*
X202417816Y-132131328D01*
X202909963Y-132131328D01*
X203264930Y-132486295D01*
X203619898Y-132131328D01*
X204112045Y-132131328D01*
X204467012Y-132486295D01*
X204821979Y-132131328D01*
X205314127Y-132131328D01*
X205669094Y-132486295D01*
X206024061Y-132131328D01*
X206516208Y-132131328D01*
X206871175Y-132486295D01*
X207226142Y-132131328D01*
X206871175Y-131776360D01*
X206516208Y-132131328D01*
X206024061Y-132131328D01*
X205669094Y-131776361D01*
X205314127Y-132131328D01*
X204821979Y-132131328D01*
X204467012Y-131776360D01*
X204112045Y-132131328D01*
X203619898Y-132131328D01*
X203264930Y-131776360D01*
X202909963Y-132131328D01*
X202417816Y-132131328D01*
X202062849Y-131776360D01*
X201707882Y-132131328D01*
X200778470Y-132131328D01*
X200767821Y-131521252D01*
X201115874Y-131521252D01*
X201116195Y-131539641D01*
X201461808Y-131885254D01*
X201816776Y-131530287D01*
X202308922Y-131530287D01*
X202663890Y-131885254D01*
X203018857Y-131530287D01*
X203511004Y-131530287D01*
X203865971Y-131885254D01*
X204220939Y-131530287D01*
X204713085Y-131530287D01*
X205068053Y-131885254D01*
X205423020Y-131530287D01*
X205915167Y-131530287D01*
X206270134Y-131885254D01*
X206625102Y-131530287D01*
X207117248Y-131530287D01*
X207375855Y-131788894D01*
X207385043Y-131262491D01*
X207117248Y-131530287D01*
X206625102Y-131530287D01*
X206270134Y-131175319D01*
X205915167Y-131530287D01*
X205423020Y-131530287D01*
X205068053Y-131175319D01*
X204713085Y-131530287D01*
X204220939Y-131530287D01*
X203865971Y-131175319D01*
X203511004Y-131530287D01*
X203018857Y-131530287D01*
X202663890Y-131175319D01*
X202308922Y-131530287D01*
X201816776Y-131530287D01*
X201461808Y-131175319D01*
X201115874Y-131521252D01*
X200767821Y-131521252D01*
X200757487Y-130929246D01*
X201707881Y-130929246D01*
X202062849Y-131284213D01*
X202417816Y-130929246D01*
X202909963Y-130929246D01*
X203264930Y-131284213D01*
X203619898Y-130929246D01*
X204112044Y-130929246D01*
X204467012Y-131284213D01*
X204821979Y-130929246D01*
X205314126Y-130929246D01*
X205669094Y-131284213D01*
X206024061Y-130929246D01*
X206516207Y-130929246D01*
X206871175Y-131284213D01*
X207226142Y-130929246D01*
X206871175Y-130574278D01*
X206516207Y-130929246D01*
X206024061Y-130929246D01*
X205669094Y-130574279D01*
X205314126Y-130929246D01*
X204821979Y-130929246D01*
X204467012Y-130574278D01*
X204112044Y-130929246D01*
X203619898Y-130929246D01*
X203264930Y-130574278D01*
X202909963Y-130929246D01*
X202417816Y-130929246D01*
X202062849Y-130574278D01*
X201707881Y-130929246D01*
X200757487Y-130929246D01*
X200746996Y-130328205D01*
X201106840Y-130328205D01*
X201461808Y-130683173D01*
X201816776Y-130328205D01*
X202308922Y-130328205D01*
X202663890Y-130683173D01*
X203018857Y-130328205D01*
X203511004Y-130328205D01*
X203865971Y-130683173D01*
X204220939Y-130328205D01*
X204713085Y-130328205D01*
X205068053Y-130683173D01*
X205423020Y-130328205D01*
X205915167Y-130328205D01*
X206270134Y-130683173D01*
X206625102Y-130328205D01*
X207117248Y-130328205D01*
X207396477Y-130607434D01*
X207406398Y-130039055D01*
X207117248Y-130328205D01*
X206625102Y-130328205D01*
X206270134Y-129973238D01*
X205915167Y-130328205D01*
X205423020Y-130328205D01*
X205068053Y-129973238D01*
X204713085Y-130328205D01*
X204220939Y-130328205D01*
X203865971Y-129973238D01*
X203511004Y-130328205D01*
X203018857Y-130328205D01*
X202663890Y-129973238D01*
X202308922Y-130328205D01*
X201816776Y-130328205D01*
X201461808Y-129973237D01*
X201106840Y-130328205D01*
X200746996Y-130328205D01*
X200736504Y-129727164D01*
X201707881Y-129727164D01*
X202062849Y-130082132D01*
X202417816Y-129727164D01*
X202909963Y-129727164D01*
X203264930Y-130082132D01*
X203619898Y-129727164D01*
X204112044Y-129727164D01*
X204467012Y-130082132D01*
X204821979Y-129727164D01*
X205314126Y-129727164D01*
X205669094Y-130082132D01*
X206024061Y-129727164D01*
X206516207Y-129727164D01*
X206871175Y-130082132D01*
X207226142Y-129727164D01*
X206871175Y-129372197D01*
X206516207Y-129727164D01*
X206024061Y-129727164D01*
X205669094Y-129372197D01*
X205314126Y-129727164D01*
X204821979Y-129727164D01*
X204467012Y-129372197D01*
X204112044Y-129727164D01*
X203619898Y-129727164D01*
X203264930Y-129372197D01*
X202909963Y-129727164D01*
X202417816Y-129727164D01*
X202062849Y-129372197D01*
X201707881Y-129727164D01*
X200736504Y-129727164D01*
X200726013Y-129126124D01*
X201106841Y-129126124D01*
X201461808Y-129481091D01*
X201816776Y-129126124D01*
X202308922Y-129126124D01*
X202663890Y-129481091D01*
X203018857Y-129126124D01*
X203511004Y-129126124D01*
X203865971Y-129481091D01*
X204220939Y-129126124D01*
X204713085Y-129126124D01*
X205068053Y-129481091D01*
X205423020Y-129126124D01*
X205915167Y-129126124D01*
X206270134Y-129481091D01*
X206625102Y-129126124D01*
X207117248Y-129126124D01*
X207417100Y-129425975D01*
X207427754Y-128815618D01*
X207117248Y-129126124D01*
X206625102Y-129126124D01*
X206270134Y-128771156D01*
X205915167Y-129126124D01*
X205423020Y-129126124D01*
X205068053Y-128771156D01*
X204713085Y-129126124D01*
X204220939Y-129126124D01*
X203865971Y-128771156D01*
X203511004Y-129126124D01*
X203018857Y-129126124D01*
X202663890Y-128771156D01*
X202308922Y-129126124D01*
X201816776Y-129126124D01*
X201461808Y-128771156D01*
X201106841Y-129126124D01*
X200726013Y-129126124D01*
X200721718Y-128880050D01*
X200715522Y-128525083D01*
X201707881Y-128525083D01*
X202062849Y-128880050D01*
X202417816Y-128525083D01*
X202909963Y-128525083D01*
X203264930Y-128880050D01*
X203619898Y-128525083D01*
X204112044Y-128525083D01*
X204467012Y-128880050D01*
X204821979Y-128525083D01*
X205314126Y-128525083D01*
X205669094Y-128880050D01*
X206024061Y-128525083D01*
X206516207Y-128525083D01*
X206871175Y-128880050D01*
X207226142Y-128525083D01*
X206871175Y-128170115D01*
X206516207Y-128525083D01*
X206024061Y-128525083D01*
X205669094Y-128170116D01*
X205314126Y-128525083D01*
X204821979Y-128525083D01*
X204467012Y-128170115D01*
X204112044Y-128525083D01*
X203619898Y-128525083D01*
X203264930Y-128170115D01*
X202909963Y-128525083D01*
X202417816Y-128525083D01*
X202062849Y-128170115D01*
X201707881Y-128525083D01*
X200715522Y-128525083D01*
X200705031Y-127924042D01*
X201106841Y-127924042D01*
X201461808Y-128279010D01*
X201816776Y-127924042D01*
X202308922Y-127924042D01*
X202663890Y-128279010D01*
X203018857Y-127924042D01*
X203511004Y-127924042D01*
X203865971Y-128279010D01*
X204220939Y-127924042D01*
X204713085Y-127924042D01*
X205068053Y-128279010D01*
X205423020Y-127924042D01*
X205915167Y-127924042D01*
X206270134Y-128279010D01*
X206625102Y-127924042D01*
X207117248Y-127924042D01*
X207437722Y-128244516D01*
X207449108Y-127592182D01*
X207117248Y-127924042D01*
X206625102Y-127924042D01*
X206270134Y-127569075D01*
X205915167Y-127924042D01*
X205423020Y-127924042D01*
X205068053Y-127569075D01*
X204713085Y-127924042D01*
X204220939Y-127924042D01*
X203865971Y-127569075D01*
X203511004Y-127924042D01*
X203018857Y-127924042D01*
X202663890Y-127569075D01*
X202308922Y-127924042D01*
X201816776Y-127924042D01*
X201461808Y-127569075D01*
X201106841Y-127924042D01*
X200705031Y-127924042D01*
X200694540Y-127323001D01*
X201707881Y-127323001D01*
X202062849Y-127677969D01*
X202417816Y-127323001D01*
X202909963Y-127323001D01*
X203264930Y-127677969D01*
X203619898Y-127323001D01*
X204112044Y-127323001D01*
X204467012Y-127677969D01*
X204821979Y-127323001D01*
X205314126Y-127323001D01*
X205669094Y-127677969D01*
X206024061Y-127323001D01*
X206516207Y-127323001D01*
X206871175Y-127677969D01*
X207226142Y-127323001D01*
X206871175Y-126968034D01*
X206516207Y-127323001D01*
X206024061Y-127323001D01*
X205669094Y-126968034D01*
X205314126Y-127323001D01*
X204821979Y-127323001D01*
X204467012Y-126968034D01*
X204112044Y-127323001D01*
X203619898Y-127323001D01*
X203264930Y-126968034D01*
X202909963Y-127323001D01*
X202417816Y-127323001D01*
X202062849Y-126968034D01*
X201707881Y-127323001D01*
X200694540Y-127323001D01*
X200688417Y-126972239D01*
X201357120Y-126972239D01*
X201461809Y-127076928D01*
X201719353Y-126819383D01*
X201615160Y-126857308D01*
X201357120Y-126972239D01*
X200688417Y-126972239D01*
X200688259Y-126963192D01*
X200709017Y-126910497D01*
X200727490Y-126896573D01*
X200872570Y-126819383D01*
X201012009Y-126745193D01*
X201016655Y-126742927D01*
X201063730Y-126721960D01*
X202308922Y-126721960D01*
X202663890Y-127076928D01*
X203018857Y-126721961D01*
X203018856Y-126721960D01*
X203511004Y-126721960D01*
X203865971Y-127076928D01*
X204220939Y-126721961D01*
X204220938Y-126721960D01*
X204713085Y-126721960D01*
X205068053Y-127076928D01*
X205423020Y-126721961D01*
X205423019Y-126721960D01*
X205915166Y-126721960D01*
X206270134Y-127076927D01*
X206592038Y-126755023D01*
X206420225Y-126692241D01*
X206051171Y-126585956D01*
X205915166Y-126721960D01*
X205423019Y-126721960D01*
X205103302Y-126402243D01*
X205041539Y-126393507D01*
X204713085Y-126721960D01*
X204220938Y-126721960D01*
X203865971Y-126366993D01*
X203511004Y-126721960D01*
X203018856Y-126721960D01*
X202798082Y-126501186D01*
X202547850Y-126554311D01*
X202447934Y-126582948D01*
X202308922Y-126721960D01*
X201063730Y-126721960D01*
X201482368Y-126535499D01*
X201487127Y-126533575D01*
X201966206Y-126359197D01*
X201971108Y-126357604D01*
X202461208Y-126217133D01*
X202466192Y-126215891D01*
X202964914Y-126110012D01*
X202969982Y-126109120D01*
X203474874Y-126038355D01*
X203480008Y-126037818D01*
X203988596Y-126002511D01*
X203993731Y-126002334D01*
X204503563Y-126002657D01*
G37*
%TD.AperFunction*%
%TD*%
%TA.AperFunction,Conductor*%
%TO.N,GNDL*%
G36*
X253188069Y-126002524D02*
G01*
X253696651Y-126037828D01*
X253701795Y-126038366D01*
X253728928Y-126042168D01*
X254206692Y-126109129D01*
X254211746Y-126110019D01*
X254710471Y-126215896D01*
X254715449Y-126217136D01*
X255181332Y-126350665D01*
X255205546Y-126357605D01*
X255210466Y-126359203D01*
X255689525Y-126533572D01*
X255694304Y-126535503D01*
X255919174Y-126635659D01*
X256160008Y-126742925D01*
X256164658Y-126745194D01*
X256449167Y-126896567D01*
X256485181Y-126940279D01*
X256488398Y-126963187D01*
X256318409Y-136701933D01*
X256262018Y-139932591D01*
X256239434Y-139984531D01*
X256188029Y-140005300D01*
X249399828Y-140005300D01*
X232344570Y-140005300D01*
X232300400Y-140005300D01*
X232226482Y-140005300D01*
X232185377Y-140013476D01*
X232081492Y-140034140D01*
X232081482Y-140034143D01*
X231944905Y-140090715D01*
X231821984Y-140172848D01*
X231821983Y-140172850D01*
X231717450Y-140277383D01*
X231717448Y-140277384D01*
X231635315Y-140400305D01*
X231578743Y-140536882D01*
X231578740Y-140536892D01*
X231549900Y-140681883D01*
X231549900Y-150553257D01*
X231549505Y-158088264D01*
X231527828Y-158140589D01*
X231475501Y-158162260D01*
X231475433Y-158162260D01*
X229624497Y-158160468D01*
X229572192Y-158138743D01*
X229550570Y-158086425D01*
X229550786Y-157737427D01*
X230614666Y-157737427D01*
X231201522Y-157737995D01*
X231201527Y-157646758D01*
X230953431Y-157398662D01*
X230614666Y-157737427D01*
X229550786Y-157737427D01*
X229550864Y-157612337D01*
X229550900Y-157611984D01*
X229550900Y-157555309D01*
X229550931Y-157505350D01*
X229550930Y-157505349D01*
X229550931Y-157505346D01*
X229550929Y-157505342D01*
X229550900Y-157505194D01*
X229550900Y-157505191D01*
X229531926Y-157459384D01*
X229512852Y-157413254D01*
X229512850Y-157413252D01*
X229512848Y-157413246D01*
X229512768Y-157413126D01*
X229477640Y-157377998D01*
X229477608Y-157377965D01*
X229442430Y-157342743D01*
X229442331Y-157342677D01*
X229442299Y-157342655D01*
X229396322Y-157323611D01*
X229396282Y-157323594D01*
X229350370Y-157304544D01*
X229350243Y-157304519D01*
X229350228Y-157304519D01*
X229300555Y-157304519D01*
X229300496Y-157304518D01*
X229243670Y-157304483D01*
X229243305Y-157304519D01*
X229220715Y-157304519D01*
X229168389Y-157282845D01*
X229146715Y-157230519D01*
X229146717Y-157229953D01*
X229147309Y-157152589D01*
X229997423Y-157152589D01*
X230352390Y-157507556D01*
X230707358Y-157152589D01*
X230352390Y-156797621D01*
X229997423Y-157152589D01*
X229147309Y-157152589D01*
X229150544Y-156729723D01*
X229574557Y-156729723D01*
X229751349Y-156906515D01*
X230106317Y-156551548D01*
X230598463Y-156551548D01*
X230953430Y-156906515D01*
X231201578Y-156658367D01*
X231201590Y-156444739D01*
X230953431Y-156196580D01*
X230598463Y-156551548D01*
X230106317Y-156551548D01*
X229751349Y-156196580D01*
X229577304Y-156370624D01*
X229574557Y-156729723D01*
X229150544Y-156729723D01*
X229155191Y-156122427D01*
X229156507Y-155950507D01*
X229997423Y-155950507D01*
X230352390Y-156305475D01*
X230707358Y-155950507D01*
X230352390Y-155595540D01*
X229997423Y-155950507D01*
X229156507Y-155950507D01*
X229157055Y-155878952D01*
X229179129Y-155826794D01*
X229231053Y-155805519D01*
X229350227Y-155805519D01*
X229350228Y-155805519D01*
X229442297Y-155767383D01*
X229512764Y-155696916D01*
X229550900Y-155604847D01*
X229550900Y-155556883D01*
X229898900Y-155556883D01*
X230106317Y-155349466D01*
X230598463Y-155349466D01*
X230953431Y-155704434D01*
X231201642Y-155456222D01*
X231201653Y-155242721D01*
X230953431Y-154994499D01*
X230598463Y-155349466D01*
X230106317Y-155349466D01*
X229898900Y-155142049D01*
X229898900Y-155556883D01*
X229550900Y-155556883D01*
X229550900Y-154748426D01*
X229997423Y-154748426D01*
X230352390Y-155103393D01*
X230707358Y-154748426D01*
X230352390Y-154393458D01*
X229997423Y-154748426D01*
X229550900Y-154748426D01*
X229550900Y-154354802D01*
X229898900Y-154354802D01*
X230106317Y-154147385D01*
X230598463Y-154147385D01*
X230953430Y-154502352D01*
X231201705Y-154254077D01*
X231201716Y-154040702D01*
X230953431Y-153792417D01*
X230598463Y-154147385D01*
X230106317Y-154147385D01*
X229898900Y-153939968D01*
X229898900Y-154354802D01*
X229550900Y-154354802D01*
X229550900Y-153546344D01*
X229997423Y-153546344D01*
X230352390Y-153901312D01*
X230707358Y-153546344D01*
X230352390Y-153191377D01*
X229997423Y-153546344D01*
X229550900Y-153546344D01*
X229550900Y-153152721D01*
X229898900Y-153152721D01*
X230106317Y-152945303D01*
X230598463Y-152945303D01*
X230953431Y-153300271D01*
X231201768Y-153051933D01*
X231201779Y-152838684D01*
X230953431Y-152590336D01*
X230598463Y-152945303D01*
X230106317Y-152945303D01*
X229898900Y-152737886D01*
X229898900Y-153152721D01*
X229550900Y-153152721D01*
X229550900Y-152344263D01*
X229997423Y-152344263D01*
X230352390Y-152699230D01*
X230707358Y-152344263D01*
X230352390Y-151989295D01*
X229997423Y-152344263D01*
X229550900Y-152344263D01*
X229550900Y-151950639D01*
X229898900Y-151950639D01*
X230106317Y-151743222D01*
X230598463Y-151743222D01*
X230953430Y-152098189D01*
X231201831Y-151849788D01*
X231201842Y-151636666D01*
X230953431Y-151388255D01*
X230598463Y-151743222D01*
X230106317Y-151743222D01*
X229898900Y-151535805D01*
X229898900Y-151950639D01*
X229550900Y-151950639D01*
X229550900Y-151142181D01*
X229997423Y-151142181D01*
X230352390Y-151497149D01*
X230707358Y-151142181D01*
X230352390Y-150787214D01*
X229997423Y-151142181D01*
X229550900Y-151142181D01*
X229550900Y-150748558D01*
X229898900Y-150748558D01*
X230106317Y-150541140D01*
X230598463Y-150541140D01*
X230953431Y-150896108D01*
X231201894Y-150647644D01*
X231201900Y-150553249D01*
X231201900Y-150434642D01*
X230953431Y-150186173D01*
X230598463Y-150541140D01*
X230106317Y-150541140D01*
X229898900Y-150333723D01*
X229898900Y-150748558D01*
X229550900Y-150748558D01*
X229550900Y-150495972D01*
X229550900Y-149940100D01*
X229997423Y-149940100D01*
X230352390Y-150295067D01*
X230707358Y-149940100D01*
X230352390Y-149585132D01*
X229997423Y-149940100D01*
X229550900Y-149940100D01*
X229550900Y-149556435D01*
X229512764Y-149464366D01*
X229442297Y-149393899D01*
X229442296Y-149393898D01*
X229442294Y-149393897D01*
X229350228Y-149355763D01*
X229281542Y-149355763D01*
X229229216Y-149334089D01*
X229207542Y-149281763D01*
X229207544Y-149281197D01*
X229208910Y-149102734D01*
X229632921Y-149102734D01*
X229649861Y-149114053D01*
X229655693Y-149118378D01*
X229670885Y-149130845D01*
X229676268Y-149135723D01*
X229770940Y-149230395D01*
X229775818Y-149235778D01*
X229788285Y-149250970D01*
X229792610Y-149256802D01*
X229811625Y-149285261D01*
X229815359Y-149291490D01*
X229824621Y-149308819D01*
X229827725Y-149315382D01*
X229878959Y-149439072D01*
X229881405Y-149445909D01*
X229887109Y-149464712D01*
X229888874Y-149471756D01*
X229895552Y-149505326D01*
X229896618Y-149512511D01*
X229898544Y-149532068D01*
X229898900Y-149539321D01*
X229898900Y-149546476D01*
X230106317Y-149339059D01*
X230598463Y-149339059D01*
X230953431Y-149694026D01*
X231201900Y-149445558D01*
X231201900Y-149232560D01*
X230953431Y-148984091D01*
X230598463Y-149339059D01*
X230106317Y-149339059D01*
X229751349Y-148984091D01*
X229632922Y-149102518D01*
X229632921Y-149102734D01*
X229208910Y-149102734D01*
X229211701Y-148738018D01*
X229997423Y-148738018D01*
X230352390Y-149092985D01*
X230707358Y-148738018D01*
X230352390Y-148383050D01*
X229997423Y-148738018D01*
X229211701Y-148738018D01*
X229214447Y-148379054D01*
X229638459Y-148379054D01*
X229751350Y-148491945D01*
X230106317Y-148136977D01*
X230598463Y-148136977D01*
X230953431Y-148491945D01*
X231201900Y-148243476D01*
X231201900Y-148030479D01*
X230953431Y-147782010D01*
X230598463Y-148136977D01*
X230106317Y-148136977D01*
X229839077Y-147869737D01*
X229827725Y-147897144D01*
X229824621Y-147903707D01*
X229815359Y-147921036D01*
X229811625Y-147927265D01*
X229792610Y-147955724D01*
X229788285Y-147961556D01*
X229775818Y-147976748D01*
X229770940Y-147982131D01*
X229676268Y-148076803D01*
X229670885Y-148081681D01*
X229655693Y-148094148D01*
X229649861Y-148098473D01*
X229640558Y-148104688D01*
X229638459Y-148379054D01*
X229214447Y-148379054D01*
X229216546Y-148104688D01*
X229217881Y-147930196D01*
X229239955Y-147878038D01*
X229291879Y-147856763D01*
X229350227Y-147856763D01*
X229350228Y-147856763D01*
X229442297Y-147818627D01*
X229512764Y-147748160D01*
X229550900Y-147656091D01*
X229550900Y-147535937D01*
X229997423Y-147535937D01*
X230352390Y-147890904D01*
X230707358Y-147535937D01*
X230352390Y-147180969D01*
X229997423Y-147535937D01*
X229550900Y-147535937D01*
X229550900Y-147142313D01*
X229898900Y-147142313D01*
X230106317Y-146934896D01*
X230598463Y-146934896D01*
X230953431Y-147289863D01*
X231201900Y-147041395D01*
X231201900Y-146828397D01*
X230953431Y-146579928D01*
X230598463Y-146934896D01*
X230106317Y-146934896D01*
X229898900Y-146727479D01*
X229898900Y-147142313D01*
X229550900Y-147142313D01*
X229550900Y-146455972D01*
X229550900Y-146333855D01*
X229997423Y-146333855D01*
X230352390Y-146688822D01*
X230707358Y-146333855D01*
X230352390Y-145978887D01*
X229997423Y-146333855D01*
X229550900Y-146333855D01*
X229550900Y-145940232D01*
X229898900Y-145940232D01*
X230106317Y-145732814D01*
X230598463Y-145732814D01*
X230953431Y-146087782D01*
X231201900Y-145839313D01*
X231201900Y-145626316D01*
X230953431Y-145377847D01*
X230598463Y-145732814D01*
X230106317Y-145732814D01*
X229898900Y-145525397D01*
X229898900Y-145940232D01*
X229550900Y-145940232D01*
X229550900Y-145131774D01*
X229997423Y-145131774D01*
X230352390Y-145486741D01*
X230707358Y-145131774D01*
X230352390Y-144776806D01*
X229997423Y-145131774D01*
X229550900Y-145131774D01*
X229550900Y-144738150D01*
X229898900Y-144738150D01*
X230106317Y-144530733D01*
X230598463Y-144530733D01*
X230953431Y-144885700D01*
X231201900Y-144637232D01*
X231201900Y-144424234D01*
X230953431Y-144175765D01*
X230598463Y-144530733D01*
X230106317Y-144530733D01*
X229898900Y-144323316D01*
X229898900Y-144738150D01*
X229550900Y-144738150D01*
X229550900Y-143929692D01*
X229997423Y-143929692D01*
X230352390Y-144284659D01*
X230707358Y-143929692D01*
X230352390Y-143574724D01*
X229997423Y-143929692D01*
X229550900Y-143929692D01*
X229550900Y-143536069D01*
X229898900Y-143536069D01*
X230106317Y-143328651D01*
X230598463Y-143328651D01*
X230953431Y-143683619D01*
X231201900Y-143435150D01*
X231201900Y-143222153D01*
X230953431Y-142973684D01*
X230598463Y-143328651D01*
X230106317Y-143328651D01*
X229898900Y-143121234D01*
X229898900Y-143536069D01*
X229550900Y-143536069D01*
X229550900Y-142727610D01*
X229997423Y-142727610D01*
X230352390Y-143082578D01*
X230707358Y-142727610D01*
X230352390Y-142372643D01*
X229997423Y-142727610D01*
X229550900Y-142727610D01*
X229550900Y-142333987D01*
X229898900Y-142333987D01*
X230106317Y-142126570D01*
X230598463Y-142126570D01*
X230953431Y-142481537D01*
X231201900Y-142233069D01*
X231201900Y-142020071D01*
X230953431Y-141771602D01*
X230598463Y-142126570D01*
X230106317Y-142126570D01*
X229898900Y-141919153D01*
X229898900Y-142333987D01*
X229550900Y-142333987D01*
X229550900Y-142205972D01*
X229550900Y-141525529D01*
X229997423Y-141525529D01*
X230352390Y-141880496D01*
X230707358Y-141525529D01*
X230352390Y-141170561D01*
X229997423Y-141525529D01*
X229550900Y-141525529D01*
X229550900Y-141131906D01*
X229898900Y-141131906D01*
X230106317Y-140924488D01*
X230598463Y-140924488D01*
X230953431Y-141279456D01*
X231201900Y-141030987D01*
X231201900Y-140817990D01*
X230953431Y-140569521D01*
X230598463Y-140924488D01*
X230106317Y-140924488D01*
X229898900Y-140717071D01*
X229898900Y-141131906D01*
X229550900Y-141131906D01*
X229550900Y-140323447D01*
X229997423Y-140323447D01*
X230352390Y-140678415D01*
X230707358Y-140323447D01*
X230352390Y-139968480D01*
X229997423Y-140323447D01*
X229550900Y-140323447D01*
X229550900Y-140205972D01*
X229550900Y-139939551D01*
X229512764Y-139847482D01*
X229442297Y-139777015D01*
X229442296Y-139777014D01*
X229442294Y-139777013D01*
X229350229Y-139738879D01*
X229343079Y-139737457D01*
X229343735Y-139734157D01*
X229302807Y-139717205D01*
X229281133Y-139664879D01*
X229281135Y-139664313D01*
X229282020Y-139548602D01*
X229706031Y-139548602D01*
X229770940Y-139613511D01*
X229775818Y-139618894D01*
X229788285Y-139634086D01*
X229792610Y-139639918D01*
X229811625Y-139668377D01*
X229815359Y-139674606D01*
X229824621Y-139691935D01*
X229827725Y-139698498D01*
X229878959Y-139822188D01*
X229881405Y-139829025D01*
X229887109Y-139847828D01*
X229888874Y-139854872D01*
X229895552Y-139888442D01*
X229896618Y-139895627D01*
X229898544Y-139915184D01*
X229898900Y-139922437D01*
X229898900Y-139929824D01*
X230106317Y-139722407D01*
X230598464Y-139722407D01*
X230953431Y-140077374D01*
X231308398Y-139722407D01*
X231800546Y-139722407D01*
X231836914Y-139758775D01*
X231956207Y-139709363D01*
X231959592Y-139708057D01*
X231968833Y-139704750D01*
X231972281Y-139703611D01*
X231988635Y-139698649D01*
X231992139Y-139697679D01*
X232001668Y-139695292D01*
X232005213Y-139694496D01*
X232166970Y-139662321D01*
X232170542Y-139661701D01*
X232180251Y-139660260D01*
X232183858Y-139659815D01*
X232200866Y-139658139D01*
X232204492Y-139657871D01*
X232214304Y-139657389D01*
X232217935Y-139657300D01*
X232445373Y-139657300D01*
X233067734Y-139657300D01*
X233647455Y-139657300D01*
X234269816Y-139657300D01*
X234849536Y-139657300D01*
X235471897Y-139657300D01*
X236051618Y-139657300D01*
X236673979Y-139657300D01*
X237253699Y-139657300D01*
X237876060Y-139657300D01*
X238455781Y-139657300D01*
X239078142Y-139657300D01*
X239657863Y-139657300D01*
X240280223Y-139657300D01*
X240859944Y-139657300D01*
X241482305Y-139657300D01*
X242062026Y-139657300D01*
X242684386Y-139657300D01*
X243264107Y-139657300D01*
X243886468Y-139657300D01*
X244466189Y-139657300D01*
X245088549Y-139657300D01*
X245668270Y-139657300D01*
X246290631Y-139657300D01*
X246870352Y-139657300D01*
X247492712Y-139657300D01*
X248072433Y-139657300D01*
X248694794Y-139657300D01*
X249274515Y-139657300D01*
X249896875Y-139657300D01*
X250476596Y-139657300D01*
X251098957Y-139657300D01*
X251678678Y-139657300D01*
X252301039Y-139657300D01*
X252880759Y-139657300D01*
X253503120Y-139657300D01*
X254082841Y-139657300D01*
X254705202Y-139657300D01*
X255284922Y-139657300D01*
X254995062Y-139367440D01*
X254705202Y-139657300D01*
X254082841Y-139657300D01*
X253792980Y-139367439D01*
X253503120Y-139657300D01*
X252880759Y-139657300D01*
X252590899Y-139367440D01*
X252301039Y-139657300D01*
X251678678Y-139657300D01*
X251388817Y-139367439D01*
X251098957Y-139657300D01*
X250476596Y-139657300D01*
X250186735Y-139367439D01*
X249896875Y-139657300D01*
X249274515Y-139657300D01*
X248984654Y-139367439D01*
X248694794Y-139657300D01*
X248072433Y-139657300D01*
X247782572Y-139367439D01*
X247492712Y-139657300D01*
X246870352Y-139657300D01*
X246580491Y-139367439D01*
X246290631Y-139657300D01*
X245668270Y-139657300D01*
X245378409Y-139367439D01*
X245088549Y-139657300D01*
X244466189Y-139657300D01*
X244176328Y-139367439D01*
X243886468Y-139657300D01*
X243264107Y-139657300D01*
X242974246Y-139367439D01*
X242684386Y-139657300D01*
X242062026Y-139657300D01*
X241772165Y-139367439D01*
X241482305Y-139657300D01*
X240859944Y-139657300D01*
X240570083Y-139367439D01*
X240280223Y-139657300D01*
X239657863Y-139657300D01*
X239368002Y-139367439D01*
X239078142Y-139657300D01*
X238455781Y-139657300D01*
X238165920Y-139367439D01*
X237876060Y-139657300D01*
X237253699Y-139657300D01*
X236963839Y-139367440D01*
X236673979Y-139657300D01*
X236051618Y-139657300D01*
X235761757Y-139367439D01*
X235471897Y-139657300D01*
X234849536Y-139657300D01*
X234559676Y-139367440D01*
X234269816Y-139657300D01*
X233647455Y-139657300D01*
X233357594Y-139367439D01*
X233067734Y-139657300D01*
X232445373Y-139657300D01*
X232155513Y-139367440D01*
X231800546Y-139722407D01*
X231308398Y-139722407D01*
X230953431Y-139367439D01*
X230598464Y-139722407D01*
X230106317Y-139722407D01*
X229751349Y-139367439D01*
X229707079Y-139411708D01*
X229706031Y-139548602D01*
X229282020Y-139548602D01*
X229285289Y-139121366D01*
X229997423Y-139121366D01*
X230352390Y-139476333D01*
X230707358Y-139121366D01*
X231199504Y-139121366D01*
X231554472Y-139476333D01*
X231909439Y-139121366D01*
X232401586Y-139121366D01*
X232756553Y-139476333D01*
X233111521Y-139121366D01*
X233603667Y-139121366D01*
X233958635Y-139476333D01*
X234313602Y-139121366D01*
X234805749Y-139121366D01*
X235160716Y-139476333D01*
X235515684Y-139121366D01*
X236007830Y-139121366D01*
X236362798Y-139476333D01*
X236717765Y-139121366D01*
X237209912Y-139121366D01*
X237564879Y-139476333D01*
X237919847Y-139121366D01*
X238411993Y-139121366D01*
X238766961Y-139476333D01*
X239121928Y-139121366D01*
X239614075Y-139121366D01*
X239969042Y-139476333D01*
X240324010Y-139121366D01*
X240816156Y-139121366D01*
X241171124Y-139476333D01*
X241526091Y-139121366D01*
X242018238Y-139121366D01*
X242373206Y-139476333D01*
X242728173Y-139121366D01*
X243220319Y-139121366D01*
X243575287Y-139476333D01*
X243930254Y-139121366D01*
X244422401Y-139121366D01*
X244777369Y-139476333D01*
X245132336Y-139121366D01*
X245624483Y-139121366D01*
X245979450Y-139476333D01*
X246334418Y-139121366D01*
X246826564Y-139121366D01*
X247181532Y-139476333D01*
X247536499Y-139121366D01*
X248028646Y-139121366D01*
X248383613Y-139476333D01*
X248738581Y-139121366D01*
X249230727Y-139121366D01*
X249585695Y-139476333D01*
X249940662Y-139121366D01*
X250432809Y-139121366D01*
X250787776Y-139476333D01*
X251142744Y-139121366D01*
X251634890Y-139121366D01*
X251989858Y-139476333D01*
X252344825Y-139121366D01*
X252836972Y-139121366D01*
X253191939Y-139476333D01*
X253546907Y-139121366D01*
X254039053Y-139121366D01*
X254394021Y-139476333D01*
X254748988Y-139121366D01*
X255241135Y-139121366D01*
X255596102Y-139476333D01*
X255927715Y-139144719D01*
X255928516Y-139098812D01*
X255596102Y-138766398D01*
X255241135Y-139121366D01*
X254748988Y-139121366D01*
X254394021Y-138766398D01*
X254039053Y-139121366D01*
X253546907Y-139121366D01*
X253191939Y-138766398D01*
X252836972Y-139121366D01*
X252344825Y-139121366D01*
X251989858Y-138766398D01*
X251634890Y-139121366D01*
X251142744Y-139121366D01*
X250787776Y-138766398D01*
X250432809Y-139121366D01*
X249940662Y-139121366D01*
X249585695Y-138766398D01*
X249230727Y-139121366D01*
X248738581Y-139121366D01*
X248383613Y-138766398D01*
X248028646Y-139121366D01*
X247536499Y-139121366D01*
X247181532Y-138766399D01*
X246826564Y-139121366D01*
X246334418Y-139121366D01*
X245979450Y-138766398D01*
X245624483Y-139121366D01*
X245132336Y-139121366D01*
X244777369Y-138766399D01*
X244422401Y-139121366D01*
X243930254Y-139121366D01*
X243575287Y-138766398D01*
X243220319Y-139121366D01*
X242728173Y-139121366D01*
X242373206Y-138766399D01*
X242018238Y-139121366D01*
X241526091Y-139121366D01*
X241171124Y-138766398D01*
X240816156Y-139121366D01*
X240324010Y-139121366D01*
X239969042Y-138766398D01*
X239614075Y-139121366D01*
X239121928Y-139121366D01*
X238766961Y-138766398D01*
X238411993Y-139121366D01*
X237919847Y-139121366D01*
X237564879Y-138766398D01*
X237209912Y-139121366D01*
X236717765Y-139121366D01*
X236362798Y-138766398D01*
X236007830Y-139121366D01*
X235515684Y-139121366D01*
X235160716Y-138766398D01*
X234805749Y-139121366D01*
X234313602Y-139121366D01*
X233958635Y-138766398D01*
X233603667Y-139121366D01*
X233111521Y-139121366D01*
X232756553Y-138766398D01*
X232401586Y-139121366D01*
X231909439Y-139121366D01*
X231554472Y-138766398D01*
X231199504Y-139121366D01*
X230707358Y-139121366D01*
X230352390Y-138766398D01*
X229997423Y-139121366D01*
X229285289Y-139121366D01*
X229287341Y-138853091D01*
X229309415Y-138800934D01*
X229341254Y-138784071D01*
X229842571Y-138784071D01*
X230106317Y-138520325D01*
X230598463Y-138520325D01*
X230953431Y-138875293D01*
X231308398Y-138520325D01*
X231800545Y-138520325D01*
X232155513Y-138875293D01*
X232510480Y-138520325D01*
X233002626Y-138520325D01*
X233357594Y-138875293D01*
X233712561Y-138520325D01*
X234204708Y-138520325D01*
X234559676Y-138875293D01*
X234914643Y-138520325D01*
X235406790Y-138520325D01*
X235761757Y-138875293D01*
X236116725Y-138520325D01*
X236608871Y-138520325D01*
X236963839Y-138875293D01*
X237318806Y-138520325D01*
X237810953Y-138520325D01*
X238165920Y-138875293D01*
X238520888Y-138520325D01*
X239013034Y-138520325D01*
X239368002Y-138875293D01*
X239722969Y-138520325D01*
X240215116Y-138520325D01*
X240570083Y-138875293D01*
X240925051Y-138520325D01*
X241417197Y-138520325D01*
X241772165Y-138875293D01*
X242127132Y-138520325D01*
X242619279Y-138520325D01*
X242974246Y-138875293D01*
X243329214Y-138520325D01*
X243821360Y-138520325D01*
X244176328Y-138875293D01*
X244531295Y-138520325D01*
X245023442Y-138520325D01*
X245378409Y-138875293D01*
X245733377Y-138520325D01*
X246225523Y-138520325D01*
X246580491Y-138875293D01*
X246935458Y-138520325D01*
X247427605Y-138520325D01*
X247782572Y-138875293D01*
X248137540Y-138520325D01*
X248629686Y-138520325D01*
X248984654Y-138875293D01*
X249339621Y-138520325D01*
X249831768Y-138520325D01*
X250186735Y-138875293D01*
X250541703Y-138520325D01*
X251033849Y-138520325D01*
X251388817Y-138875293D01*
X251743784Y-138520325D01*
X252235931Y-138520325D01*
X252590899Y-138875293D01*
X252945866Y-138520325D01*
X253438012Y-138520325D01*
X253792980Y-138875293D01*
X254147947Y-138520325D01*
X254640094Y-138520325D01*
X254995062Y-138875293D01*
X255350029Y-138520325D01*
X254995062Y-138165358D01*
X254640094Y-138520325D01*
X254147947Y-138520325D01*
X253792980Y-138165358D01*
X253438012Y-138520325D01*
X252945866Y-138520325D01*
X252590899Y-138165358D01*
X252235931Y-138520325D01*
X251743784Y-138520325D01*
X251388817Y-138165358D01*
X251033849Y-138520325D01*
X250541703Y-138520325D01*
X250377598Y-138356220D01*
X250368165Y-138356458D01*
X250364267Y-138356454D01*
X250285849Y-138354300D01*
X249997794Y-138354300D01*
X249831768Y-138520325D01*
X249339621Y-138520325D01*
X249173596Y-138354300D01*
X248795712Y-138354300D01*
X248629686Y-138520325D01*
X248137540Y-138520325D01*
X247971515Y-138354300D01*
X247593631Y-138354300D01*
X247427605Y-138520325D01*
X246935458Y-138520325D01*
X246769433Y-138354300D01*
X246391549Y-138354300D01*
X246225523Y-138520325D01*
X245733377Y-138520325D01*
X245567352Y-138354300D01*
X245189468Y-138354300D01*
X245023442Y-138520325D01*
X244531295Y-138520325D01*
X244365270Y-138354300D01*
X243987386Y-138354300D01*
X243821360Y-138520325D01*
X243329214Y-138520325D01*
X243163189Y-138354300D01*
X242785305Y-138354300D01*
X242619279Y-138520325D01*
X242127132Y-138520325D01*
X241961107Y-138354300D01*
X241583223Y-138354300D01*
X241417197Y-138520325D01*
X240925051Y-138520325D01*
X240759026Y-138354300D01*
X240381142Y-138354300D01*
X240215116Y-138520325D01*
X239722969Y-138520325D01*
X239556944Y-138354300D01*
X239179060Y-138354300D01*
X239013034Y-138520325D01*
X238520888Y-138520325D01*
X238354863Y-138354300D01*
X237976979Y-138354300D01*
X237810953Y-138520325D01*
X237318806Y-138520325D01*
X237152781Y-138354300D01*
X236774897Y-138354300D01*
X236608871Y-138520325D01*
X236116725Y-138520325D01*
X235950700Y-138354300D01*
X235572816Y-138354300D01*
X235406790Y-138520325D01*
X234914643Y-138520325D01*
X234748618Y-138354300D01*
X234370734Y-138354300D01*
X234204708Y-138520325D01*
X233712561Y-138520325D01*
X233546536Y-138354300D01*
X233168652Y-138354300D01*
X233002626Y-138520325D01*
X232510480Y-138520325D01*
X232344455Y-138354300D01*
X231966571Y-138354300D01*
X231800545Y-138520325D01*
X231308398Y-138520325D01*
X231142373Y-138354300D01*
X230764489Y-138354300D01*
X230598463Y-138520325D01*
X230106317Y-138520325D01*
X229940292Y-138354300D01*
X229898590Y-138354300D01*
X229898500Y-138529998D01*
X229898500Y-138597135D01*
X229898136Y-138604471D01*
X229896166Y-138624246D01*
X229895076Y-138631508D01*
X229891769Y-138647936D01*
X229891770Y-138647937D01*
X229891083Y-138651379D01*
X229889943Y-138658230D01*
X229888022Y-138666675D01*
X229887498Y-138668482D01*
X229886492Y-138672463D01*
X229884025Y-138680466D01*
X229881509Y-138689152D01*
X229878606Y-138697339D01*
X229877992Y-138698791D01*
X229877859Y-138699160D01*
X229874438Y-138707221D01*
X229874242Y-138707687D01*
X229853671Y-138757274D01*
X229842571Y-138784071D01*
X229341254Y-138784071D01*
X229341345Y-138784023D01*
X229341335Y-138784001D01*
X229341369Y-138783986D01*
X229341485Y-138783949D01*
X229346902Y-138781081D01*
X229349104Y-138780643D01*
X229349180Y-138780628D01*
X229349693Y-138780525D01*
X229349698Y-138780526D01*
X229349702Y-138780524D01*
X229349824Y-138780500D01*
X229349828Y-138780500D01*
X229383871Y-138766399D01*
X229396049Y-138761355D01*
X229396084Y-138761340D01*
X229441787Y-138742437D01*
X229441787Y-138742436D01*
X229441791Y-138742435D01*
X229441892Y-138742367D01*
X229441893Y-138742365D01*
X229441897Y-138742364D01*
X229477039Y-138707222D01*
X229512291Y-138672007D01*
X229512293Y-138672001D01*
X229512296Y-138671999D01*
X229512362Y-138671900D01*
X229512362Y-138671898D01*
X229512364Y-138671897D01*
X229531240Y-138626325D01*
X229531241Y-138626323D01*
X229531246Y-138626325D01*
X229531253Y-138626291D01*
X229550474Y-138579958D01*
X229550474Y-138579955D01*
X229550475Y-138579953D01*
X229550500Y-138579826D01*
X229550500Y-138529819D01*
X229550573Y-138388103D01*
X229550638Y-138261479D01*
X229551552Y-138249935D01*
X229561049Y-138190153D01*
X229568207Y-138168154D01*
X229593020Y-138119494D01*
X229606623Y-138100781D01*
X229645259Y-138062161D01*
X229663973Y-138048568D01*
X229712653Y-138023769D01*
X229734647Y-138016623D01*
X229794059Y-138007210D01*
X229805629Y-138006300D01*
X231750572Y-138006300D01*
X250289626Y-138006300D01*
X250291658Y-138006327D01*
X250364647Y-138008334D01*
X250522037Y-137979118D01*
X250665120Y-137919284D01*
X251634890Y-137919284D01*
X251989858Y-138274252D01*
X252344825Y-137919284D01*
X252836972Y-137919284D01*
X253191939Y-138274252D01*
X253546907Y-137919284D01*
X254039053Y-137919284D01*
X254394021Y-138274252D01*
X254748988Y-137919284D01*
X255241135Y-137919284D01*
X255596102Y-138274251D01*
X255949070Y-137921283D01*
X255949139Y-137917353D01*
X255596103Y-137564317D01*
X255241135Y-137919284D01*
X254748988Y-137919284D01*
X254394021Y-137564317D01*
X254039053Y-137919284D01*
X253546907Y-137919284D01*
X253191939Y-137564317D01*
X252836972Y-137919284D01*
X252344825Y-137919284D01*
X251989858Y-137564317D01*
X251634890Y-137919284D01*
X250665120Y-137919284D01*
X250669723Y-137917359D01*
X250801057Y-137825836D01*
X250910131Y-137708668D01*
X250959744Y-137625351D01*
X251340957Y-137625351D01*
X251388817Y-137673211D01*
X251743784Y-137318244D01*
X252235932Y-137318244D01*
X252590899Y-137673211D01*
X252945866Y-137318244D01*
X253438013Y-137318244D01*
X253792980Y-137673211D01*
X254147947Y-137318244D01*
X254640095Y-137318244D01*
X254995062Y-137673211D01*
X255350029Y-137318244D01*
X254995062Y-136963277D01*
X254640095Y-137318244D01*
X254147947Y-137318244D01*
X253792980Y-136963276D01*
X253438013Y-137318244D01*
X252945866Y-137318244D01*
X252590899Y-136963277D01*
X252235932Y-137318244D01*
X251743784Y-137318244D01*
X251388816Y-136963276D01*
X251371643Y-136980449D01*
X251378841Y-137002682D01*
X251379952Y-137006455D01*
X251382685Y-137016732D01*
X251383595Y-137020559D01*
X251387393Y-137038666D01*
X251388097Y-137042533D01*
X251389723Y-137053033D01*
X251390221Y-137056930D01*
X251408143Y-137234606D01*
X251408434Y-137238524D01*
X251408938Y-137249140D01*
X251409020Y-137253073D01*
X251408914Y-137271573D01*
X251408787Y-137275499D01*
X251408162Y-137286113D01*
X251407826Y-137290034D01*
X251387865Y-137467494D01*
X251387323Y-137471384D01*
X251385577Y-137481864D01*
X251384827Y-137485727D01*
X251380821Y-137503788D01*
X251379869Y-137507601D01*
X251377018Y-137517847D01*
X251375863Y-137521608D01*
X251340957Y-137625351D01*
X250959744Y-137625351D01*
X250992033Y-137571128D01*
X251043080Y-137419406D01*
X251060973Y-137260330D01*
X251044907Y-137101059D01*
X250995605Y-136948762D01*
X250915286Y-136810291D01*
X250830602Y-136717203D01*
X251634890Y-136717203D01*
X251989858Y-137072170D01*
X252344825Y-136717203D01*
X252836972Y-136717203D01*
X253191939Y-137072170D01*
X253546907Y-136717203D01*
X254039053Y-136717203D01*
X254394021Y-137072170D01*
X254748988Y-136717203D01*
X255241135Y-136717203D01*
X255596102Y-137072170D01*
X255951069Y-136717202D01*
X255596102Y-136362235D01*
X255241135Y-136717203D01*
X254748988Y-136717203D01*
X254394021Y-136362235D01*
X254039053Y-136717203D01*
X253546907Y-136717203D01*
X253191939Y-136362235D01*
X252836972Y-136717203D01*
X252344825Y-136717203D01*
X251989858Y-136362235D01*
X251634890Y-136717203D01*
X250830602Y-136717203D01*
X250816711Y-136701933D01*
X250807568Y-136691882D01*
X250807566Y-136691880D01*
X250807565Y-136691879D01*
X250677289Y-136598855D01*
X250677287Y-136598854D01*
X250530319Y-136535403D01*
X250373278Y-136504384D01*
X250373277Y-136504384D01*
X250364737Y-136504520D01*
X250298818Y-136505574D01*
X250296453Y-136505574D01*
X249606420Y-136494546D01*
X249554448Y-136472038D01*
X249533615Y-136421848D01*
X249527515Y-136072361D01*
X249875567Y-136072361D01*
X249876936Y-136150823D01*
X250297636Y-136157547D01*
X250376902Y-136156281D01*
X250380811Y-136156322D01*
X250391361Y-136156711D01*
X250395250Y-136156957D01*
X250413542Y-136158599D01*
X250417422Y-136159051D01*
X250427863Y-136160547D01*
X250431706Y-136161202D01*
X250485948Y-136171915D01*
X250541701Y-136116162D01*
X251033849Y-136116162D01*
X251388817Y-136471129D01*
X251743784Y-136116162D01*
X252235931Y-136116162D01*
X252590899Y-136471129D01*
X252945866Y-136116162D01*
X253438012Y-136116162D01*
X253792980Y-136471129D01*
X254147947Y-136116162D01*
X254640094Y-136116162D01*
X254995062Y-136471129D01*
X255350029Y-136116162D01*
X254995062Y-135761195D01*
X254640094Y-136116162D01*
X254147947Y-136116162D01*
X253792980Y-135761194D01*
X253438012Y-136116162D01*
X252945866Y-136116162D01*
X252590899Y-135761195D01*
X252235931Y-136116162D01*
X251743784Y-136116162D01*
X251388817Y-135761194D01*
X251033849Y-136116162D01*
X250541701Y-136116162D01*
X250541702Y-136116161D01*
X250186735Y-135761194D01*
X249875567Y-136072361D01*
X249527515Y-136072361D01*
X249517788Y-135515121D01*
X250432809Y-135515121D01*
X250787776Y-135870089D01*
X251142744Y-135515121D01*
X251634890Y-135515121D01*
X251989858Y-135870089D01*
X252344825Y-135515121D01*
X252836972Y-135515121D01*
X253191939Y-135870089D01*
X253546907Y-135515121D01*
X254039053Y-135515121D01*
X254394021Y-135870089D01*
X254748988Y-135515121D01*
X255241135Y-135515121D01*
X255596102Y-135870089D01*
X255951070Y-135515121D01*
X255596102Y-135160154D01*
X255241135Y-135515121D01*
X254748988Y-135515121D01*
X254394021Y-135160154D01*
X254039053Y-135515121D01*
X253546907Y-135515121D01*
X253191939Y-135160154D01*
X252836972Y-135515121D01*
X252344825Y-135515121D01*
X251989858Y-135160154D01*
X251634890Y-135515121D01*
X251142744Y-135515121D01*
X250787776Y-135160154D01*
X250432809Y-135515121D01*
X249517788Y-135515121D01*
X249506892Y-134890903D01*
X249854945Y-134890903D01*
X249855768Y-134938081D01*
X250186735Y-135269048D01*
X250541703Y-134914081D01*
X251033850Y-134914081D01*
X251388817Y-135269048D01*
X251743784Y-134914081D01*
X252235932Y-134914081D01*
X252590899Y-135269048D01*
X252945866Y-134914081D01*
X253438013Y-134914081D01*
X253792980Y-135269048D01*
X254147947Y-134914081D01*
X254640095Y-134914081D01*
X254995062Y-135269048D01*
X255350029Y-134914081D01*
X254995062Y-134559114D01*
X254640095Y-134914081D01*
X254147947Y-134914081D01*
X253792980Y-134559113D01*
X253438013Y-134914081D01*
X252945866Y-134914081D01*
X252590899Y-134559114D01*
X252235932Y-134914081D01*
X251743784Y-134914081D01*
X251388817Y-134559113D01*
X251033850Y-134914081D01*
X250541703Y-134914081D01*
X250186735Y-134559113D01*
X249854945Y-134890903D01*
X249506892Y-134890903D01*
X249496806Y-134313040D01*
X250432809Y-134313040D01*
X250787776Y-134668007D01*
X251142744Y-134313040D01*
X251634890Y-134313040D01*
X251989858Y-134668007D01*
X252344825Y-134313040D01*
X252836972Y-134313040D01*
X253191939Y-134668007D01*
X253546907Y-134313040D01*
X254039053Y-134313040D01*
X254394021Y-134668007D01*
X254748988Y-134313040D01*
X255241135Y-134313040D01*
X255596102Y-134668007D01*
X255951070Y-134313040D01*
X255596102Y-133958072D01*
X255241135Y-134313040D01*
X254748988Y-134313040D01*
X254394021Y-133958072D01*
X254039053Y-134313040D01*
X253546907Y-134313040D01*
X253191939Y-133958072D01*
X252836972Y-134313040D01*
X252344825Y-134313040D01*
X251989858Y-133958072D01*
X251634890Y-134313040D01*
X251142744Y-134313040D01*
X250787776Y-133958072D01*
X250432809Y-134313040D01*
X249496806Y-134313040D01*
X249486270Y-133709442D01*
X249834323Y-133709442D01*
X249834414Y-133714645D01*
X250186735Y-134066966D01*
X250541703Y-133711999D01*
X251033849Y-133711999D01*
X251388817Y-134066966D01*
X251743784Y-133711999D01*
X252235931Y-133711999D01*
X252590899Y-134066966D01*
X252945866Y-133711999D01*
X253438012Y-133711999D01*
X253792980Y-134066966D01*
X254147947Y-133711999D01*
X254640094Y-133711999D01*
X254995062Y-134066966D01*
X255350029Y-133711999D01*
X255842176Y-133711999D01*
X256019449Y-133889272D01*
X256025747Y-133528427D01*
X255842176Y-133711999D01*
X255350029Y-133711999D01*
X254995062Y-133357032D01*
X254640094Y-133711999D01*
X254147947Y-133711999D01*
X253792980Y-133357031D01*
X253438012Y-133711999D01*
X252945866Y-133711999D01*
X252590899Y-133357032D01*
X252235931Y-133711999D01*
X251743784Y-133711999D01*
X251388817Y-133357031D01*
X251033849Y-133711999D01*
X250541703Y-133711999D01*
X250186735Y-133357031D01*
X249834323Y-133709442D01*
X249486270Y-133709442D01*
X249475824Y-133110958D01*
X250432809Y-133110958D01*
X250787776Y-133465926D01*
X251142744Y-133110958D01*
X251634890Y-133110958D01*
X251989858Y-133465926D01*
X252344825Y-133110958D01*
X252836971Y-133110958D01*
X253191939Y-133465926D01*
X253546907Y-133110958D01*
X254039053Y-133110958D01*
X254394021Y-133465926D01*
X254748988Y-133110958D01*
X255241135Y-133110958D01*
X255596102Y-133465926D01*
X255951070Y-133110958D01*
X255596102Y-132755991D01*
X255241135Y-133110958D01*
X254748988Y-133110958D01*
X254394021Y-132755991D01*
X254039053Y-133110958D01*
X253546907Y-133110958D01*
X253256633Y-132820684D01*
X253192375Y-132884943D01*
X253186995Y-132889819D01*
X253171808Y-132902283D01*
X253165977Y-132906608D01*
X253137519Y-132925625D01*
X253131287Y-132929361D01*
X253113953Y-132938626D01*
X253107389Y-132941730D01*
X252980022Y-132994488D01*
X252973184Y-132996935D01*
X252954380Y-133002639D01*
X252947335Y-133004403D01*
X252942581Y-133005348D01*
X252836971Y-133110958D01*
X252344825Y-133110958D01*
X251989858Y-132755991D01*
X251634890Y-133110958D01*
X251142744Y-133110958D01*
X250787776Y-132755991D01*
X250432809Y-133110958D01*
X249475824Y-133110958D01*
X249465333Y-132509917D01*
X249831767Y-132509917D01*
X250186735Y-132864885D01*
X250541703Y-132509917D01*
X251033849Y-132509917D01*
X251388817Y-132864885D01*
X251743784Y-132509917D01*
X251587979Y-132354112D01*
X252550341Y-132354112D01*
X252550341Y-132457746D01*
X252590000Y-132553490D01*
X252663280Y-132626770D01*
X252759024Y-132666429D01*
X252759025Y-132666429D01*
X252862656Y-132666429D01*
X252862658Y-132666429D01*
X252958402Y-132626770D01*
X253031682Y-132553490D01*
X253049731Y-132509917D01*
X253438012Y-132509917D01*
X253792980Y-132864885D01*
X254147947Y-132509917D01*
X254640094Y-132509917D01*
X254995062Y-132864885D01*
X255350029Y-132509917D01*
X255842176Y-132509917D01*
X256040071Y-132707812D01*
X256047102Y-132304990D01*
X255842176Y-132509917D01*
X255350029Y-132509917D01*
X254995062Y-132154950D01*
X254640094Y-132509917D01*
X254147947Y-132509917D01*
X253792980Y-132154950D01*
X253438012Y-132509917D01*
X253049731Y-132509917D01*
X253071341Y-132457746D01*
X253071341Y-132354112D01*
X253031682Y-132258368D01*
X252958402Y-132185088D01*
X252862658Y-132145429D01*
X252759024Y-132145429D01*
X252736041Y-132154949D01*
X252663281Y-132185087D01*
X252589999Y-132258369D01*
X252570688Y-132304990D01*
X252550341Y-132354112D01*
X251587979Y-132354112D01*
X251388817Y-132154950D01*
X251033849Y-132509917D01*
X250541703Y-132509917D01*
X250186735Y-132154949D01*
X249831767Y-132509917D01*
X249465333Y-132509917D01*
X249454842Y-131908877D01*
X250432809Y-131908877D01*
X250787776Y-132263844D01*
X251142744Y-131908877D01*
X251634890Y-131908877D01*
X251989858Y-132263844D01*
X252344825Y-131908877D01*
X252241919Y-131805971D01*
X252939878Y-131805971D01*
X252947337Y-131807455D01*
X252954380Y-131809219D01*
X252973184Y-131814923D01*
X252980022Y-131817370D01*
X253107389Y-131870128D01*
X253113953Y-131873232D01*
X253131287Y-131882497D01*
X253137519Y-131886233D01*
X253165977Y-131905250D01*
X253171808Y-131909575D01*
X253186995Y-131922039D01*
X253192375Y-131926915D01*
X253289855Y-132024395D01*
X253294731Y-132029775D01*
X253307195Y-132044962D01*
X253311520Y-132050793D01*
X253330537Y-132079251D01*
X253334273Y-132085483D01*
X253343538Y-132102817D01*
X253346565Y-132109218D01*
X253546907Y-131908877D01*
X254039053Y-131908877D01*
X254394021Y-132263844D01*
X254748988Y-131908877D01*
X255241135Y-131908877D01*
X255596102Y-132263844D01*
X255951070Y-131908877D01*
X255596102Y-131553909D01*
X255241135Y-131908877D01*
X254748988Y-131908877D01*
X254394021Y-131553909D01*
X254039053Y-131908877D01*
X253546907Y-131908877D01*
X253191939Y-131553909D01*
X252939878Y-131805971D01*
X252241919Y-131805971D01*
X251989858Y-131553909D01*
X251634890Y-131908877D01*
X251142744Y-131908877D01*
X250787776Y-131553909D01*
X250432809Y-131908877D01*
X249454842Y-131908877D01*
X249444351Y-131307836D01*
X249831768Y-131307836D01*
X250186735Y-131662803D01*
X250541703Y-131307836D01*
X251033849Y-131307836D01*
X251388817Y-131662803D01*
X251743784Y-131307836D01*
X252235931Y-131307836D01*
X252590899Y-131662803D01*
X252945866Y-131307836D01*
X253438012Y-131307836D01*
X253792980Y-131662803D01*
X254147947Y-131307836D01*
X254640094Y-131307836D01*
X254995062Y-131662803D01*
X255350029Y-131307836D01*
X255842176Y-131307836D01*
X256060693Y-131526353D01*
X256068457Y-131081554D01*
X255842176Y-131307836D01*
X255350029Y-131307836D01*
X254995062Y-130952869D01*
X254640094Y-131307836D01*
X254147947Y-131307836D01*
X253792980Y-130952868D01*
X253438012Y-131307836D01*
X252945866Y-131307836D01*
X252590899Y-130952869D01*
X252235931Y-131307836D01*
X251743784Y-131307836D01*
X251388817Y-130952868D01*
X251033849Y-131307836D01*
X250541703Y-131307836D01*
X250186735Y-130952868D01*
X249831768Y-131307836D01*
X249444351Y-131307836D01*
X249433860Y-130706795D01*
X250432809Y-130706795D01*
X250787776Y-131061763D01*
X251142744Y-130706795D01*
X251634890Y-130706795D01*
X251989858Y-131061763D01*
X252344825Y-130706795D01*
X252836972Y-130706795D01*
X253191939Y-131061763D01*
X253546907Y-130706795D01*
X254039053Y-130706795D01*
X254394021Y-131061763D01*
X254748988Y-130706795D01*
X255241135Y-130706795D01*
X255596102Y-131061763D01*
X255951070Y-130706795D01*
X255596102Y-130351828D01*
X255241135Y-130706795D01*
X254748988Y-130706795D01*
X254394021Y-130351828D01*
X254039053Y-130706795D01*
X253546907Y-130706795D01*
X253191939Y-130351828D01*
X252836972Y-130706795D01*
X252344825Y-130706795D01*
X251989858Y-130351828D01*
X251634890Y-130706795D01*
X251142744Y-130706795D01*
X250787776Y-130351828D01*
X250432809Y-130706795D01*
X249433860Y-130706795D01*
X249423369Y-130105754D01*
X249831768Y-130105754D01*
X250186735Y-130460722D01*
X250541703Y-130105754D01*
X251033849Y-130105754D01*
X251388817Y-130460722D01*
X251743784Y-130105754D01*
X252235931Y-130105754D01*
X252590899Y-130460722D01*
X252945866Y-130105754D01*
X253438012Y-130105754D01*
X253792980Y-130460722D01*
X254147947Y-130105754D01*
X254640094Y-130105754D01*
X254995062Y-130460722D01*
X255350029Y-130105754D01*
X255842176Y-130105754D01*
X256081315Y-130344893D01*
X256089812Y-129858117D01*
X255842176Y-130105754D01*
X255350029Y-130105754D01*
X254995062Y-129750787D01*
X254640094Y-130105754D01*
X254147947Y-130105754D01*
X253792980Y-129750787D01*
X253438012Y-130105754D01*
X252945866Y-130105754D01*
X252590899Y-129750787D01*
X252235931Y-130105754D01*
X251743784Y-130105754D01*
X251388817Y-129750787D01*
X251033849Y-130105754D01*
X250541703Y-130105754D01*
X250186735Y-129750787D01*
X249831768Y-130105754D01*
X249423369Y-130105754D01*
X249409685Y-129321789D01*
X249757738Y-129321789D01*
X249764014Y-129681361D01*
X249940661Y-129504714D01*
X250432809Y-129504714D01*
X250787776Y-129859681D01*
X251142744Y-129504714D01*
X251634891Y-129504714D01*
X251989858Y-129859681D01*
X252344825Y-129504714D01*
X252836972Y-129504714D01*
X253191939Y-129859681D01*
X253546907Y-129504714D01*
X254039054Y-129504714D01*
X254394021Y-129859681D01*
X254748988Y-129504714D01*
X255241135Y-129504714D01*
X255596102Y-129859681D01*
X255951070Y-129504714D01*
X255596102Y-129149746D01*
X255241135Y-129504714D01*
X254748988Y-129504714D01*
X254394021Y-129149746D01*
X254039054Y-129504714D01*
X253546907Y-129504714D01*
X253191939Y-129149746D01*
X252836972Y-129504714D01*
X252344825Y-129504714D01*
X251989858Y-129149746D01*
X251634891Y-129504714D01*
X251142744Y-129504714D01*
X250787776Y-129149746D01*
X250432809Y-129504714D01*
X249940661Y-129504714D01*
X249940662Y-129504713D01*
X249757738Y-129321789D01*
X249409685Y-129321789D01*
X249402387Y-128903673D01*
X249831768Y-128903673D01*
X250186735Y-129258640D01*
X250541703Y-128903673D01*
X251033849Y-128903673D01*
X251388817Y-129258640D01*
X251743784Y-128903673D01*
X252235931Y-128903673D01*
X252590899Y-129258640D01*
X252945866Y-128903673D01*
X253438012Y-128903673D01*
X253792980Y-129258640D01*
X254147947Y-128903673D01*
X254640094Y-128903673D01*
X254995062Y-129258640D01*
X255350029Y-128903673D01*
X255842176Y-128903673D01*
X256101937Y-129163434D01*
X256111167Y-128634681D01*
X255842176Y-128903673D01*
X255350029Y-128903673D01*
X254995062Y-128548706D01*
X254640094Y-128903673D01*
X254147947Y-128903673D01*
X253792980Y-128548705D01*
X253438012Y-128903673D01*
X252945866Y-128903673D01*
X252590899Y-128548706D01*
X252235931Y-128903673D01*
X251743784Y-128903673D01*
X251388817Y-128548705D01*
X251033849Y-128903673D01*
X250541703Y-128903673D01*
X250186735Y-128548705D01*
X249831768Y-128903673D01*
X249402387Y-128903673D01*
X249388330Y-128098353D01*
X249736383Y-128098353D01*
X249743392Y-128499902D01*
X249940662Y-128302632D01*
X250432809Y-128302632D01*
X250787776Y-128657600D01*
X251142744Y-128302632D01*
X251634890Y-128302632D01*
X251989858Y-128657600D01*
X252344825Y-128302632D01*
X252836972Y-128302632D01*
X253191939Y-128657600D01*
X253546907Y-128302632D01*
X254039053Y-128302632D01*
X254394021Y-128657600D01*
X254748988Y-128302632D01*
X255241135Y-128302632D01*
X255596102Y-128657600D01*
X255951070Y-128302632D01*
X255596102Y-127947665D01*
X255241135Y-128302632D01*
X254748988Y-128302632D01*
X254394021Y-127947665D01*
X254039053Y-128302632D01*
X253546907Y-128302632D01*
X253191939Y-127947665D01*
X252836972Y-128302632D01*
X252344825Y-128302632D01*
X251989858Y-127947665D01*
X251634890Y-128302632D01*
X251142744Y-128302632D01*
X250787776Y-127947665D01*
X250432809Y-128302632D01*
X249940662Y-128302632D01*
X249736383Y-128098353D01*
X249388330Y-128098353D01*
X249381405Y-127701591D01*
X249831768Y-127701591D01*
X250186735Y-128056559D01*
X250541703Y-127701591D01*
X251033849Y-127701591D01*
X251388817Y-128056559D01*
X251743784Y-127701591D01*
X252235931Y-127701591D01*
X252590899Y-128056559D01*
X252945866Y-127701591D01*
X253438012Y-127701591D01*
X253792980Y-128056559D01*
X254147947Y-127701591D01*
X254640094Y-127701591D01*
X254995062Y-128056559D01*
X255350028Y-127701592D01*
X255842176Y-127701592D01*
X256122559Y-127981975D01*
X256132521Y-127411246D01*
X255842176Y-127701592D01*
X255350028Y-127701592D01*
X255350029Y-127701591D01*
X254995062Y-127346624D01*
X254640094Y-127701591D01*
X254147947Y-127701591D01*
X253792980Y-127346624D01*
X253438012Y-127701591D01*
X252945866Y-127701591D01*
X252590899Y-127346624D01*
X252235931Y-127701591D01*
X251743784Y-127701591D01*
X251388817Y-127346624D01*
X251033849Y-127701591D01*
X250541703Y-127701591D01*
X250186735Y-127346624D01*
X249831768Y-127701591D01*
X249381405Y-127701591D01*
X249370914Y-127100551D01*
X250432809Y-127100551D01*
X250787776Y-127455518D01*
X251142744Y-127100551D01*
X251634891Y-127100551D01*
X251989858Y-127455518D01*
X252344825Y-127100551D01*
X252836972Y-127100551D01*
X253191939Y-127455518D01*
X253546907Y-127100551D01*
X254039054Y-127100551D01*
X254394021Y-127455518D01*
X254748988Y-127100551D01*
X254748987Y-127100550D01*
X255241135Y-127100550D01*
X255596102Y-127455518D01*
X255951070Y-127100551D01*
X255825341Y-126974822D01*
X255561479Y-126857300D01*
X255504958Y-126836727D01*
X255241135Y-127100550D01*
X254748987Y-127100550D01*
X254394021Y-126745583D01*
X254039054Y-127100551D01*
X253546907Y-127100551D01*
X253191939Y-126745583D01*
X252836972Y-127100551D01*
X252344825Y-127100551D01*
X251989858Y-126745583D01*
X251634891Y-127100551D01*
X251142744Y-127100551D01*
X250787776Y-126745583D01*
X250432809Y-127100551D01*
X249370914Y-127100551D01*
X249368596Y-126967761D01*
X249389354Y-126915066D01*
X249407740Y-126901188D01*
X249692332Y-126749306D01*
X249696936Y-126747052D01*
X250054753Y-126587136D01*
X251121476Y-126587136D01*
X251388817Y-126854477D01*
X251743785Y-126499510D01*
X251743784Y-126499509D01*
X252235931Y-126499509D01*
X252590899Y-126854477D01*
X252945866Y-126499510D01*
X252945865Y-126499509D01*
X253438012Y-126499509D01*
X253792980Y-126854477D01*
X254066588Y-126580869D01*
X254721453Y-126580869D01*
X254995061Y-126854477D01*
X255144140Y-126705397D01*
X255100450Y-126689495D01*
X254721453Y-126580869D01*
X254066588Y-126580869D01*
X254147947Y-126499510D01*
X254093038Y-126444601D01*
X253662982Y-126384327D01*
X253560322Y-126377200D01*
X253438012Y-126499509D01*
X252945865Y-126499509D01*
X252796948Y-126350592D01*
X252682923Y-126350665D01*
X252362093Y-126373347D01*
X252235931Y-126499509D01*
X251743784Y-126499509D01*
X251699923Y-126455648D01*
X251227925Y-126556479D01*
X251121476Y-126587136D01*
X250054753Y-126587136D01*
X250162398Y-126539027D01*
X250167173Y-126537090D01*
X250646035Y-126362103D01*
X250650924Y-126360509D01*
X251140844Y-126219414D01*
X251145827Y-126218166D01*
X251644393Y-126111659D01*
X251649479Y-126110756D01*
X252154277Y-126039351D01*
X252159399Y-126038809D01*
X252667954Y-126002855D01*
X252673105Y-126002672D01*
X253182934Y-126002347D01*
X253188069Y-126002524D01*
G37*
%TD.AperFunction*%
%TD*%
M02*
