%TF.GenerationSoftware,KiCad,Pcbnew,9.0.6-rc2*%
%TF.CreationDate,2025-11-10T17:57:54-08:00*%
%TF.ProjectId,FPC_Trigger_Board,4650435f-5472-4696-9767-65725f426f61,rev?*%
%TF.SameCoordinates,Original*%
%TF.FileFunction,Profile,NP*%
%FSLAX46Y46*%
G04 Gerber Fmt 4.6, Leading zero omitted, Abs format (unit mm)*
G04 Created by KiCad (PCBNEW 9.0.6-rc2) date 2025-11-10 17:57:54*
%MOMM*%
%LPD*%
G01*
G04 APERTURE LIST*
%TA.AperFunction,Profile*%
%ADD10C,0.050000*%
%TD*%
G04 APERTURE END LIST*
D10*
X220556600Y-151130000D02*
X222866902Y-151130000D01*
X220556600Y-163674737D02*
G75*
G02*
X219556600Y-164674800I-1000100J37D01*
G01*
X230866902Y-146735800D02*
G75*
G02*
X231866900Y-147735800I-2J-1000000D01*
G01*
X211556600Y-147735800D02*
X211556600Y-163674737D01*
X211556600Y-147735800D02*
G75*
G02*
X212556600Y-146735800I1000000J0D01*
G01*
X220556600Y-151130000D02*
X220556600Y-153449137D01*
X231866902Y-163674737D02*
G75*
G02*
X230866902Y-164674802I-1000102J37D01*
G01*
X222866902Y-147735800D02*
G75*
G02*
X223866902Y-146735802I999998J0D01*
G01*
X219556600Y-146735800D02*
G75*
G02*
X220556600Y-147735800I0J-1000000D01*
G01*
X220556600Y-160451800D02*
X222866902Y-160451800D01*
X230866902Y-146735800D02*
X223866902Y-146735800D01*
X220556600Y-147735800D02*
X222866902Y-147735800D01*
X231866902Y-159924737D02*
X231866902Y-163674737D01*
X220556600Y-163674700D02*
X222866967Y-163674800D01*
X220556600Y-153449137D02*
X220556600Y-160451800D01*
X212556600Y-146735800D02*
X219556600Y-146735800D01*
X219556600Y-164674737D02*
X212556600Y-164674737D01*
X223866902Y-164674737D02*
G75*
G02*
X222866963Y-163674737I-2J999937D01*
G01*
X230860600Y-164674737D02*
X223866900Y-164674737D01*
X212556600Y-164674737D02*
G75*
G02*
X211556663Y-163674737I0J999937D01*
G01*
X231866902Y-153449137D02*
X231866902Y-159924737D01*
X222866902Y-151130000D02*
X222866902Y-160451800D01*
X231866902Y-147735800D02*
X231866902Y-153449137D01*
M02*
