%TF.GenerationSoftware,KiCad,Pcbnew,9.0.6-rc2*%
%TF.CreationDate,2025-11-10T17:57:54-08:00*%
%TF.ProjectId,FPC_Trigger_Board,4650435f-5472-4696-9767-65725f426f61,rev?*%
%TF.SameCoordinates,Original*%
%TF.FileFunction,Copper,L1,Top*%
%TF.FilePolarity,Positive*%
%FSLAX46Y46*%
G04 Gerber Fmt 4.6, Leading zero omitted, Abs format (unit mm)*
G04 Created by KiCad (PCBNEW 9.0.6-rc2) date 2025-11-10 17:57:54*
%MOMM*%
%LPD*%
G01*
G04 APERTURE LIST*
G04 Aperture macros list*
%AMRoundRect*
0 Rectangle with rounded corners*
0 $1 Rounding radius*
0 $2 $3 $4 $5 $6 $7 $8 $9 X,Y pos of 4 corners*
0 Add a 4 corners polygon primitive as box body*
4,1,4,$2,$3,$4,$5,$6,$7,$8,$9,$2,$3,0*
0 Add four circle primitives for the rounded corners*
1,1,$1+$1,$2,$3*
1,1,$1+$1,$4,$5*
1,1,$1+$1,$6,$7*
1,1,$1+$1,$8,$9*
0 Add four rect primitives between the rounded corners*
20,1,$1+$1,$2,$3,$4,$5,0*
20,1,$1+$1,$4,$5,$6,$7,0*
20,1,$1+$1,$6,$7,$8,$9,0*
20,1,$1+$1,$8,$9,$2,$3,0*%
%AMFreePoly0*
4,1,23,0.550000,-0.750000,0.000000,-0.750000,0.000000,-0.745722,-0.065263,-0.745722,-0.191342,-0.711940,-0.304381,-0.646677,-0.396677,-0.554381,-0.461940,-0.441342,-0.495722,-0.315263,-0.495722,-0.250000,-0.500000,-0.250000,-0.500000,0.250000,-0.495722,0.250000,-0.495722,0.315263,-0.461940,0.441342,-0.396677,0.554381,-0.304381,0.646677,-0.191342,0.711940,-0.065263,0.745722,0.000000,0.745722,
0.000000,0.750000,0.550000,0.750000,0.550000,-0.750000,0.550000,-0.750000,$1*%
%AMFreePoly1*
4,1,23,0.000000,0.745722,0.065263,0.745722,0.191342,0.711940,0.304381,0.646677,0.396677,0.554381,0.461940,0.441342,0.495722,0.315263,0.495722,0.250000,0.500000,0.250000,0.500000,-0.250000,0.495722,-0.250000,0.495722,-0.315263,0.461940,-0.441342,0.396677,-0.554381,0.304381,-0.646677,0.191342,-0.711940,0.065263,-0.745722,0.000000,-0.745722,0.000000,-0.750000,-0.550000,-0.750000,
-0.550000,0.750000,0.000000,0.750000,0.000000,0.745722,0.000000,0.745722,$1*%
G04 Aperture macros list end*
%TA.AperFunction,Conductor*%
%ADD10C,0.000000*%
%TD*%
%TA.AperFunction,EtchedComponent*%
%ADD11C,0.000000*%
%TD*%
%TA.AperFunction,SMDPad,CuDef*%
%ADD12RoundRect,0.100000X0.130000X0.100000X-0.130000X0.100000X-0.130000X-0.100000X0.130000X-0.100000X0*%
%TD*%
%TA.AperFunction,SMDPad,CuDef*%
%ADD13FreePoly0,0.000000*%
%TD*%
%TA.AperFunction,SMDPad,CuDef*%
%ADD14R,1.000000X1.500000*%
%TD*%
%TA.AperFunction,SMDPad,CuDef*%
%ADD15FreePoly1,0.000000*%
%TD*%
%TA.AperFunction,SMDPad,CuDef*%
%ADD16FreePoly0,180.000000*%
%TD*%
%TA.AperFunction,SMDPad,CuDef*%
%ADD17FreePoly1,180.000000*%
%TD*%
%TA.AperFunction,SMDPad,CuDef*%
%ADD18RoundRect,0.150000X-0.512500X-0.150000X0.512500X-0.150000X0.512500X0.150000X-0.512500X0.150000X0*%
%TD*%
%TA.AperFunction,ViaPad*%
%ADD19C,0.600000*%
%TD*%
%TA.AperFunction,ViaPad*%
%ADD20C,1.750000*%
%TD*%
%TA.AperFunction,Conductor*%
%ADD21C,0.450000*%
%TD*%
G04 APERTURE END LIST*
D10*
%TA.AperFunction,Conductor*%
%TO.N,PAD_1R*%
G36*
X225374200Y-148170900D02*
G01*
X224358200Y-148170900D01*
X224358200Y-146596100D01*
X225374200Y-146596100D01*
X225374200Y-148170900D01*
G37*
%TD.AperFunction*%
%TA.AperFunction,Conductor*%
%TO.N,ADC_1*%
G36*
X230378000Y-148170900D02*
G01*
X229362000Y-148170900D01*
X229362000Y-146596100D01*
X230378000Y-146596100D01*
X230378000Y-148170900D01*
G37*
%TD.AperFunction*%
%TA.AperFunction,Conductor*%
%TO.N,PAD_2R*%
G36*
X227888800Y-148170900D02*
G01*
X226872800Y-148170900D01*
X226872800Y-146596100D01*
X227888800Y-146596100D01*
X227888800Y-148170900D01*
G37*
%TD.AperFunction*%
%TA.AperFunction,Conductor*%
%TO.N,PAD_1L*%
G36*
X214045800Y-148170900D02*
G01*
X213029800Y-148170900D01*
X213029800Y-146596100D01*
X214045800Y-146596100D01*
X214045800Y-148170900D01*
G37*
%TD.AperFunction*%
%TA.AperFunction,Conductor*%
%TO.N,PAD_2L*%
G36*
X216560400Y-148170900D02*
G01*
X215544400Y-148170900D01*
X215544400Y-146596100D01*
X216560400Y-146596100D01*
X216560400Y-148170900D01*
G37*
%TD.AperFunction*%
%TA.AperFunction,Conductor*%
%TO.N,ADC_0*%
G36*
X219049600Y-148170900D02*
G01*
X218033600Y-148170900D01*
X218033600Y-146596100D01*
X219049600Y-146596100D01*
X219049600Y-148170900D01*
G37*
%TD.AperFunction*%
D11*
%TA.AperFunction,EtchedComponent*%
%TD*%
%TO.C,JP3*%
G36*
X225634600Y-152192000D02*
G01*
X225134600Y-152192000D01*
X225134600Y-151592000D01*
X225634600Y-151592000D01*
X225634600Y-152192000D01*
G37*
%TD.AperFunction*%
%TA.AperFunction,EtchedComponent*%
%TO.C,JP2*%
G36*
X215555400Y-154782800D02*
G01*
X215055400Y-154782800D01*
X215055400Y-154182800D01*
X215555400Y-154182800D01*
X215555400Y-154782800D01*
G37*
%TD.AperFunction*%
%TA.AperFunction,EtchedComponent*%
%TO.C,JP1*%
G36*
X214255400Y-152192000D02*
G01*
X213755400Y-152192000D01*
X213755400Y-151592000D01*
X214255400Y-151592000D01*
X214255400Y-152192000D01*
G37*
%TD.AperFunction*%
%TA.AperFunction,EtchedComponent*%
%TO.C,JP4*%
G36*
X226939200Y-154757400D02*
G01*
X226439200Y-154757400D01*
X226439200Y-154157400D01*
X226939200Y-154157400D01*
X226939200Y-154757400D01*
G37*
%TD.AperFunction*%
%TD*%
D12*
%TO.P,C2,1*%
%TO.N,PAD_2R*%
X226627800Y-148793200D03*
%TO.P,C2,2*%
%TO.N,PAD_1R*%
X225987800Y-148793200D03*
%TD*%
D13*
%TO.P,JP3,1,A*%
%TO.N,+3V3*%
X224734600Y-151892000D03*
D14*
%TO.P,JP3,2,C*%
%TO.N,PAD_1R*%
X226034600Y-151892000D03*
D15*
%TO.P,JP3,3,B*%
%TO.N,GND*%
X227334600Y-151892000D03*
%TD*%
D16*
%TO.P,JP2,1,A*%
%TO.N,GNDL*%
X215955400Y-154482800D03*
D14*
%TO.P,JP2,2,C*%
%TO.N,PAD_2L*%
X214655400Y-154482800D03*
D17*
%TO.P,JP2,3,B*%
%TO.N,+3V3L*%
X213355400Y-154482800D03*
%TD*%
D12*
%TO.P,C1,1*%
%TO.N,PAD_2L*%
X215127800Y-148793200D03*
%TO.P,C1,2*%
%TO.N,PAD_1L*%
X214487800Y-148793200D03*
%TD*%
D18*
%TO.P,U2,1,IN*%
%TO.N,+3V3*%
X226229402Y-162074737D03*
%TO.P,U2,2,GND*%
%TO.N,GND*%
X226229402Y-163024737D03*
%TO.P,U2,3,EN*%
X226229402Y-163974737D03*
%TO.P,U2,4,NC*%
%TO.N,unconnected-(U2-NC-Pad4)*%
X228504402Y-163974737D03*
%TO.P,U2,5,OUT*%
%TO.N,ADC_1*%
X228504402Y-162074737D03*
%TD*%
%TO.P,U1,1,IN*%
%TO.N,+3V3L*%
X214919100Y-162074737D03*
%TO.P,U1,2,GND*%
%TO.N,GNDL*%
X214919100Y-163024737D03*
%TO.P,U1,3,EN*%
X214919100Y-163974737D03*
%TO.P,U1,4,NC*%
%TO.N,unconnected-(U1-NC-Pad4)*%
X217194100Y-163974737D03*
%TO.P,U1,5,OUT*%
%TO.N,ADC_0*%
X217194100Y-162074737D03*
%TD*%
D13*
%TO.P,JP1,1,A*%
%TO.N,+3V3L*%
X213355400Y-151892000D03*
D14*
%TO.P,JP1,2,C*%
%TO.N,PAD_1L*%
X214655400Y-151892000D03*
D15*
%TO.P,JP1,3,B*%
%TO.N,GNDL*%
X215955400Y-151892000D03*
%TD*%
D16*
%TO.P,JP4,1,A*%
%TO.N,GND*%
X227339200Y-154457400D03*
D14*
%TO.P,JP4,2,C*%
%TO.N,PAD_2R*%
X226039200Y-154457400D03*
D17*
%TO.P,JP4,3,B*%
%TO.N,+3V3*%
X224739200Y-154457400D03*
%TD*%
D19*
%TO.N,GND*%
X227366902Y-156845000D03*
X227366902Y-161366200D03*
%TO.N,+3V3*%
X225679000Y-156794200D03*
X225679000Y-161366200D03*
D20*
%TO.N,ADC_0*%
X218556600Y-146735800D03*
D19*
X217627200Y-156159200D03*
X217627200Y-161417000D03*
D20*
%TO.N,ADC_1*%
X229866902Y-146735800D03*
D19*
X228939193Y-161340800D03*
X228939193Y-156845000D03*
%TO.N,+3V3L*%
X214919100Y-161340300D03*
X214487800Y-156184600D03*
%TO.N,GNDL*%
X216052400Y-161391600D03*
X216052400Y-156184600D03*
D20*
%TO.N,PAD_1L*%
X213556600Y-146735800D03*
D19*
%TO.N,PAD_2L*%
X216077800Y-148793200D03*
X214655400Y-153289000D03*
D20*
X216056600Y-146735800D03*
%TO.N,PAD_1R*%
X224866902Y-146735800D03*
D19*
%TO.N,PAD_2R*%
X226034600Y-153238200D03*
X227406200Y-148818600D03*
D20*
X227366902Y-146735800D03*
%TD*%
D21*
%TO.N,GND*%
X227366902Y-154485102D02*
X227339200Y-154457400D01*
X226839863Y-163024737D02*
X227304600Y-162560000D01*
X227366902Y-162497698D02*
X227366902Y-161366200D01*
X227366902Y-156845000D02*
X227366902Y-161366200D01*
X226229402Y-163974737D02*
X226931263Y-163974737D01*
X227339200Y-154457400D02*
X227339200Y-151896600D01*
X227355400Y-163550600D02*
X227355400Y-162610800D01*
X227304600Y-162560000D02*
X227366902Y-162497698D01*
X226229402Y-163024737D02*
X226839863Y-163024737D01*
X227339200Y-151896600D02*
X227334600Y-151892000D01*
X227366902Y-156845000D02*
X227366902Y-154485102D01*
X227355400Y-162610800D02*
X227304600Y-162560000D01*
X226931263Y-163974737D02*
X227355400Y-163550600D01*
%TO.N,+3V3*%
X225679000Y-156794200D02*
X225679000Y-161366200D01*
X225679000Y-161679374D02*
X226074363Y-162074737D01*
X224739200Y-155854400D02*
X225679000Y-156794200D01*
X224739200Y-154457400D02*
X224739200Y-151896600D01*
X226074363Y-162074737D02*
X226229402Y-162074737D01*
X224739200Y-154457400D02*
X224739200Y-155854400D01*
X224739200Y-151896600D02*
X224734600Y-151892000D01*
%TO.N,ADC_0*%
X217627200Y-151561800D02*
X218556600Y-150632400D01*
X217627200Y-161417000D02*
X217627200Y-151561800D01*
X217194100Y-162074737D02*
X217463041Y-162074737D01*
X217627200Y-161910578D02*
X217627200Y-161417000D01*
X218556600Y-150632400D02*
X218556600Y-147211800D01*
X217463041Y-162074737D02*
X217627200Y-161910578D01*
%TO.N,ADC_1*%
X228787848Y-162009945D02*
X228847393Y-161950400D01*
X228931750Y-161950400D02*
X228939193Y-161942957D01*
X228847393Y-161950400D02*
X228931750Y-161950400D01*
X229866902Y-150472698D02*
X229866902Y-147211800D01*
X228939193Y-161942957D02*
X228939193Y-161340800D01*
X228504402Y-162074737D02*
X228569194Y-162009945D01*
X228569194Y-162009945D02*
X228787848Y-162009945D01*
X228939193Y-161340800D02*
X228939193Y-151400407D01*
X228939193Y-151400407D02*
X229866902Y-150472698D01*
X228939193Y-161340800D02*
X228939193Y-161112200D01*
%TO.N,+3V3L*%
X214487800Y-160909000D02*
X214919100Y-161340300D01*
X214919100Y-161340300D02*
X214919100Y-162074737D01*
X213355400Y-154482800D02*
X213355400Y-151892000D01*
X213355400Y-155697400D02*
X213355400Y-154482800D01*
X214487800Y-156184600D02*
X213842600Y-156184600D01*
X214487800Y-156184600D02*
X214487800Y-160909000D01*
X213842600Y-156184600D02*
X213355400Y-155697400D01*
%TO.N,GNDL*%
X214919100Y-163024737D02*
X215663863Y-163024737D01*
X215577463Y-163974737D02*
X216052400Y-163499800D01*
X214919100Y-163974737D02*
X215577463Y-163974737D01*
X216052400Y-163499800D02*
X216052400Y-162636200D01*
X215955400Y-151892000D02*
X215955400Y-154482800D01*
X216052400Y-154579800D02*
X215955400Y-154482800D01*
X216052400Y-156184600D02*
X216052400Y-154579800D01*
X216052400Y-162636200D02*
X216052400Y-161391600D01*
X216052400Y-156184600D02*
X216052400Y-161391600D01*
X215663863Y-163024737D02*
X216052400Y-162636200D01*
%TO.N,PAD_1L*%
X213537800Y-148742400D02*
X213537800Y-147383500D01*
X214655400Y-151892000D02*
X214655400Y-150444200D01*
X214487800Y-148793200D02*
X213588600Y-148793200D01*
X213537800Y-149326600D02*
X213537800Y-148742400D01*
X213588600Y-148793200D02*
X213537800Y-148742400D01*
X214655400Y-150444200D02*
X213537800Y-149326600D01*
%TO.N,PAD_2L*%
X216052400Y-147211800D02*
X216056600Y-147211800D01*
X216077800Y-147408900D02*
X216052400Y-147383500D01*
X216077800Y-148793200D02*
X216077800Y-147408900D01*
X214655400Y-154482800D02*
X214655400Y-153289000D01*
X216077800Y-148793200D02*
X215127800Y-148793200D01*
%TO.N,PAD_1R*%
X226034600Y-150647400D02*
X224866200Y-149479000D01*
X224866200Y-149479000D02*
X224866200Y-148742400D01*
X224917000Y-148793200D02*
X224866200Y-148742400D01*
X226034600Y-151892000D02*
X226034600Y-150647400D01*
X224866200Y-148742400D02*
X224866200Y-147383500D01*
X225987800Y-148793200D02*
X224917000Y-148793200D01*
%TO.N,PAD_2R*%
X226039200Y-153242800D02*
X226034600Y-153238200D01*
X226653200Y-148818600D02*
X226627800Y-148793200D01*
X226039200Y-154457400D02*
X226039200Y-153242800D01*
X227406200Y-148818600D02*
X226653200Y-148818600D01*
X227406200Y-148818600D02*
X227406200Y-147408900D01*
X227406200Y-147408900D02*
X227380800Y-147383500D01*
%TD*%
M02*
