M48
; DRILL file {KiCad 9.0.6-rc2} date 2025-11-10T17:57:57-0800
; FORMAT={-:-/ absolute / metric / decimal}
; #@! TF.CreationDate,2025-11-10T17:57:57-08:00
; #@! TF.GenerationSoftware,Kicad,Pcbnew,9.0.6-rc2
; #@! TF.FileFunction,Plated,1,2,PTH
FMAT,2
METRIC
; #@! TA.AperFunction,Plated,PTH,ViaDrill
T1C0.300
; #@! TA.AperFunction,Plated,PTH,ViaDrill
T2C1.000
%
G90
G05
T1
X214.488Y-156.185
X214.655Y-153.289
X214.919Y-161.34
X216.052Y-156.185
X216.052Y-161.392
X216.078Y-148.793
X217.627Y-156.159
X217.627Y-161.417
X225.679Y-156.794
X225.679Y-161.366
X226.035Y-153.238
X227.367Y-156.845
X227.367Y-161.366
X227.406Y-148.819
X228.939Y-156.845
X228.939Y-161.341
T2
X213.557Y-146.736
X216.057Y-146.736
X218.557Y-146.736
X224.867Y-146.736
X227.367Y-146.736
X229.867Y-146.736
M30
