%TF.GenerationSoftware,KiCad,Pcbnew,9.0.6-rc2*%
%TF.CreationDate,2025-12-12T00:47:50-08:00*%
%TF.ProjectId,FPC_Trigger_Board,4650435f-5472-4696-9767-65725f426f61,rev?*%
%TF.SameCoordinates,Original*%
%TF.FileFunction,Other,User*%
%FSLAX46Y46*%
G04 Gerber Fmt 4.6, Leading zero omitted, Abs format (unit mm)*
G04 Created by KiCad (PCBNEW 9.0.6-rc2) date 2025-12-12 00:47:50*
%MOMM*%
%LPD*%
G01*
G04 APERTURE LIST*
G04 APERTURE END LIST*
G36*
X204613407Y-125773912D02*
G01*
X204619831Y-125774279D01*
X205026628Y-125808178D01*
X205032556Y-125808816D01*
X205426933Y-125860866D01*
X205429896Y-125861294D01*
X205758572Y-125912774D01*
X205770202Y-125915171D01*
X206070818Y-125992303D01*
X206073481Y-125993018D01*
X206454402Y-126099836D01*
X206454850Y-126099962D01*
X206685491Y-126165575D01*
X206693589Y-126168182D01*
X207012452Y-126283053D01*
X207018513Y-126285418D01*
X207344364Y-126422514D01*
X207350572Y-126425329D01*
X207736281Y-126613187D01*
X207740109Y-126615134D01*
X207994593Y-126750175D01*
X208044584Y-126798987D01*
X208060450Y-126861873D01*
X207890148Y-136618479D01*
X207869297Y-136685165D01*
X207815702Y-136729991D01*
X207768332Y-136740296D01*
X207757509Y-136740485D01*
X207755810Y-136740503D01*
X201116631Y-136765476D01*
X201113963Y-136765457D01*
X200730483Y-136758647D01*
X200663804Y-136737776D01*
X200618994Y-136684168D01*
X200608704Y-136636831D01*
X200523831Y-131774307D01*
X200523831Y-131774306D01*
X200464795Y-128468062D01*
X200464792Y-128467914D01*
X200438158Y-126869611D01*
X200456723Y-126802253D01*
X200505928Y-126757019D01*
X200987111Y-126512290D01*
X200995009Y-126508616D01*
X201646591Y-126232946D01*
X201656338Y-126229296D01*
X202164791Y-126062899D01*
X202173603Y-126060372D01*
X202704976Y-125929021D01*
X202714421Y-125927073D01*
X203243290Y-125839261D01*
X203248966Y-125838453D01*
X203735068Y-125780678D01*
X203745076Y-125779897D01*
X204223689Y-125762024D01*
X204232189Y-125761999D01*
X204613407Y-125773912D01*
G37*
G36*
X253114339Y-125750069D02*
G01*
X253284992Y-125755401D01*
X253290326Y-125755683D01*
X253326754Y-125758395D01*
X253327846Y-125758481D01*
X253704435Y-125789863D01*
X253710362Y-125790501D01*
X254104739Y-125842551D01*
X254107702Y-125842979D01*
X254388033Y-125886886D01*
X254396411Y-125888495D01*
X254565546Y-125927060D01*
X254568798Y-125927848D01*
X254748624Y-125973988D01*
X254751287Y-125974703D01*
X255132208Y-126081521D01*
X255132656Y-126081647D01*
X255363297Y-126147260D01*
X255371395Y-126149867D01*
X255615459Y-126237791D01*
X255618741Y-126239026D01*
X255779172Y-126302001D01*
X255781951Y-126303131D01*
X256022170Y-126404199D01*
X256028378Y-126407014D01*
X256414087Y-126594872D01*
X256417915Y-126596819D01*
X256675141Y-126733315D01*
X256725132Y-126782127D01*
X256740998Y-126845013D01*
X256570130Y-136634127D01*
X256549279Y-136700813D01*
X256495684Y-136745639D01*
X256445985Y-136755963D01*
X249794104Y-136747167D01*
X249792066Y-136747147D01*
X249408289Y-136740332D01*
X249341610Y-136719461D01*
X249296800Y-136665853D01*
X249286510Y-136618516D01*
X249212912Y-132401944D01*
X252801222Y-132401944D01*
X252801222Y-132409913D01*
X252806857Y-132415548D01*
X252814825Y-132415548D01*
X252814825Y-132415547D01*
X252820459Y-132409913D01*
X252820840Y-132405929D01*
X252820459Y-132401944D01*
X252814825Y-132396310D01*
X252806856Y-132396310D01*
X252801222Y-132401944D01*
X249212912Y-132401944D01*
X249201637Y-131755991D01*
X249201637Y-131755990D01*
X249200945Y-131717294D01*
X249200944Y-131717241D01*
X249116027Y-126851363D01*
X249134539Y-126783990D01*
X249183795Y-126738673D01*
X249664917Y-126493975D01*
X249672815Y-126490301D01*
X250324397Y-126214631D01*
X250334144Y-126210981D01*
X250842597Y-126044584D01*
X250851409Y-126042057D01*
X251382782Y-125910706D01*
X251392227Y-125908758D01*
X251921096Y-125820946D01*
X251926772Y-125820138D01*
X252286672Y-125777362D01*
X252291944Y-125776849D01*
X252559992Y-125756552D01*
X252564728Y-125756284D01*
X252723993Y-125750337D01*
X252728541Y-125750251D01*
X253110388Y-125750009D01*
X253114339Y-125750069D01*
G37*
M02*
