%TF.GenerationSoftware,KiCad,Pcbnew,9.0.6-rc2*%
%TF.CreationDate,2025-12-12T00:47:49-08:00*%
%TF.ProjectId,FPC_Trigger_Board,4650435f-5472-4696-9767-65725f426f61,rev?*%
%TF.SameCoordinates,Original*%
%TF.FileFunction,Legend,Bot*%
%TF.FilePolarity,Positive*%
%FSLAX46Y46*%
G04 Gerber Fmt 4.6, Leading zero omitted, Abs format (unit mm)*
G04 Created by KiCad (PCBNEW 9.0.6-rc2) date 2025-12-12 00:47:49*
%MOMM*%
%LPD*%
G01*
G04 APERTURE LIST*
%ADD10C,0.100000*%
%ADD11C,0.150000*%
%ADD12C,0.120000*%
G04 APERTURE END LIST*
D10*
X228540000Y-137680000D02*
X228540050Y-137700000D01*
X228541052Y-138099999D02*
X228541102Y-138119999D01*
X228542104Y-138519997D02*
X228542154Y-138539997D01*
X228543157Y-138939996D02*
X228543207Y-138959996D01*
X228544209Y-139359995D02*
X228544259Y-139379995D01*
X228545261Y-139779993D02*
X228545311Y-139799993D01*
X228546313Y-140199992D02*
X228546363Y-140219992D01*
X228547365Y-140619991D02*
X228547415Y-140639991D01*
X228548418Y-141039989D02*
X228548468Y-141059989D01*
X228549470Y-141459988D02*
X228549520Y-141479988D01*
X228550522Y-141879987D02*
X228550572Y-141899987D01*
X228551574Y-142299986D02*
X228551624Y-142319985D01*
X228552626Y-142719984D02*
X228552676Y-142739984D01*
X228553678Y-143139983D02*
X228553729Y-143159983D01*
X228554731Y-143559982D02*
X228554781Y-143579981D01*
X228555783Y-143979980D02*
X228555833Y-143999980D01*
X228556835Y-144399979D02*
X228556885Y-144419979D01*
X228557887Y-144819978D02*
X228557937Y-144839978D01*
X228558939Y-145239976D02*
X228558990Y-145259976D01*
X228559992Y-145659975D02*
X228560042Y-145679975D01*
X228561044Y-146079974D02*
X228561094Y-146099974D01*
X228562096Y-146499972D02*
X228562146Y-146519972D01*
X228563148Y-146919971D02*
X228563198Y-146939971D01*
X228564200Y-147339970D02*
X228564250Y-147359970D01*
X228565253Y-147759968D02*
X228565303Y-147779968D01*
X228566305Y-148179967D02*
X228566355Y-148199967D01*
X228567357Y-148599966D02*
X228567407Y-148619966D01*
X228568409Y-149019964D02*
X228568459Y-149039964D01*
X228569461Y-149439963D02*
X228569511Y-149459963D01*
X228570513Y-149859962D02*
X228570564Y-149879962D01*
X228571566Y-150279960D02*
X228571616Y-150299960D01*
X228572618Y-150699959D02*
X228572668Y-150719959D01*
X228573670Y-151119958D02*
X228573720Y-151139958D01*
X228574722Y-151539957D02*
X228574772Y-151559956D01*
X228575774Y-151959955D02*
X228575825Y-151979955D01*
X228576827Y-152379954D02*
X228576877Y-152399954D01*
X228577879Y-152799953D02*
X228577929Y-152819952D01*
X228578931Y-153219951D02*
X228578981Y-153239951D01*
X228579983Y-153639950D02*
X228580033Y-153659950D01*
X228581035Y-154059949D02*
X228581085Y-154079949D01*
X228582088Y-154479947D02*
X228582138Y-154499947D01*
X228583140Y-154899946D02*
X228583190Y-154919946D01*
X228584192Y-155319945D02*
X228584242Y-155339945D01*
X228585244Y-155739943D02*
X228585294Y-155759943D01*
X228586296Y-156159942D02*
X228586346Y-156179942D01*
X228587348Y-156579941D02*
X228587399Y-156599941D01*
X228588401Y-156999939D02*
X228588451Y-157019939D01*
X228589453Y-157419938D02*
X228589503Y-157439938D01*
X228590505Y-157839937D02*
X228590555Y-157859937D01*
X228591557Y-158259935D02*
X228591607Y-158279935D01*
X228592609Y-158679934D02*
X228592660Y-158699934D01*
X228593662Y-159099933D02*
X228593712Y-159119933D01*
X228594714Y-159519931D02*
X228594764Y-159539931D01*
X228595766Y-159939930D02*
X228595816Y-159959930D01*
X228596818Y-160359929D02*
X228596868Y-160379929D01*
X228597870Y-160779928D02*
X228597920Y-160799927D01*
X228598923Y-161199926D02*
X228598973Y-161219926D01*
X228599975Y-161619925D02*
X228600000Y-161630000D01*
D11*
X253694819Y-128558095D02*
X254504342Y-128558095D01*
X254504342Y-128558095D02*
X254599580Y-128605714D01*
X254599580Y-128605714D02*
X254647200Y-128653333D01*
X254647200Y-128653333D02*
X254694819Y-128748571D01*
X254694819Y-128748571D02*
X254694819Y-128939047D01*
X254694819Y-128939047D02*
X254647200Y-129034285D01*
X254647200Y-129034285D02*
X254599580Y-129081904D01*
X254599580Y-129081904D02*
X254504342Y-129129523D01*
X254504342Y-129129523D02*
X253694819Y-129129523D01*
X253790057Y-129558095D02*
X253742438Y-129605714D01*
X253742438Y-129605714D02*
X253694819Y-129700952D01*
X253694819Y-129700952D02*
X253694819Y-129939047D01*
X253694819Y-129939047D02*
X253742438Y-130034285D01*
X253742438Y-130034285D02*
X253790057Y-130081904D01*
X253790057Y-130081904D02*
X253885295Y-130129523D01*
X253885295Y-130129523D02*
X253980533Y-130129523D01*
X253980533Y-130129523D02*
X254123390Y-130081904D01*
X254123390Y-130081904D02*
X254694819Y-129510476D01*
X254694819Y-129510476D02*
X254694819Y-130129523D01*
X205134819Y-128738095D02*
X205944342Y-128738095D01*
X205944342Y-128738095D02*
X206039580Y-128785714D01*
X206039580Y-128785714D02*
X206087200Y-128833333D01*
X206087200Y-128833333D02*
X206134819Y-128928571D01*
X206134819Y-128928571D02*
X206134819Y-129119047D01*
X206134819Y-129119047D02*
X206087200Y-129214285D01*
X206087200Y-129214285D02*
X206039580Y-129261904D01*
X206039580Y-129261904D02*
X205944342Y-129309523D01*
X205944342Y-129309523D02*
X205134819Y-129309523D01*
X206134819Y-130309523D02*
X206134819Y-129738095D01*
X206134819Y-130023809D02*
X205134819Y-130023809D01*
X205134819Y-130023809D02*
X205277676Y-129928571D01*
X205277676Y-129928571D02*
X205372914Y-129833333D01*
X205372914Y-129833333D02*
X205420533Y-129738095D01*
X204006429Y-129209580D02*
X204054048Y-129257200D01*
X204054048Y-129257200D02*
X204196905Y-129304819D01*
X204196905Y-129304819D02*
X204292143Y-129304819D01*
X204292143Y-129304819D02*
X204435000Y-129257200D01*
X204435000Y-129257200D02*
X204530238Y-129161961D01*
X204530238Y-129161961D02*
X204577857Y-129066723D01*
X204577857Y-129066723D02*
X204625476Y-128876247D01*
X204625476Y-128876247D02*
X204625476Y-128733390D01*
X204625476Y-128733390D02*
X204577857Y-128542914D01*
X204577857Y-128542914D02*
X204530238Y-128447676D01*
X204530238Y-128447676D02*
X204435000Y-128352438D01*
X204435000Y-128352438D02*
X204292143Y-128304819D01*
X204292143Y-128304819D02*
X204196905Y-128304819D01*
X204196905Y-128304819D02*
X204054048Y-128352438D01*
X204054048Y-128352438D02*
X204006429Y-128400057D01*
X203054048Y-129304819D02*
X203625476Y-129304819D01*
X203339762Y-129304819D02*
X203339762Y-128304819D01*
X203339762Y-128304819D02*
X203435000Y-128447676D01*
X203435000Y-128447676D02*
X203530238Y-128542914D01*
X203530238Y-128542914D02*
X203625476Y-128590533D01*
X252406266Y-129199580D02*
X252453885Y-129247200D01*
X252453885Y-129247200D02*
X252596742Y-129294819D01*
X252596742Y-129294819D02*
X252691980Y-129294819D01*
X252691980Y-129294819D02*
X252834837Y-129247200D01*
X252834837Y-129247200D02*
X252930075Y-129151961D01*
X252930075Y-129151961D02*
X252977694Y-129056723D01*
X252977694Y-129056723D02*
X253025313Y-128866247D01*
X253025313Y-128866247D02*
X253025313Y-128723390D01*
X253025313Y-128723390D02*
X252977694Y-128532914D01*
X252977694Y-128532914D02*
X252930075Y-128437676D01*
X252930075Y-128437676D02*
X252834837Y-128342438D01*
X252834837Y-128342438D02*
X252691980Y-128294819D01*
X252691980Y-128294819D02*
X252596742Y-128294819D01*
X252596742Y-128294819D02*
X252453885Y-128342438D01*
X252453885Y-128342438D02*
X252406266Y-128390057D01*
X252025313Y-128390057D02*
X251977694Y-128342438D01*
X251977694Y-128342438D02*
X251882456Y-128294819D01*
X251882456Y-128294819D02*
X251644361Y-128294819D01*
X251644361Y-128294819D02*
X251549123Y-128342438D01*
X251549123Y-128342438D02*
X251501504Y-128390057D01*
X251501504Y-128390057D02*
X251453885Y-128485295D01*
X251453885Y-128485295D02*
X251453885Y-128580533D01*
X251453885Y-128580533D02*
X251501504Y-128723390D01*
X251501504Y-128723390D02*
X252072932Y-129294819D01*
X252072932Y-129294819D02*
X251453885Y-129294819D01*
D12*
%TO.C,U2*%
X254370841Y-133315929D02*
X254370841Y-131495929D01*
X254320841Y-133315929D02*
X254370841Y-133315929D01*
X251250841Y-133315929D02*
X251300841Y-133315929D01*
X254370841Y-131495929D02*
X254320841Y-131495929D01*
X253200841Y-131495929D02*
X252420841Y-131495929D01*
X251300841Y-131495929D02*
X251250841Y-131495929D01*
X251250841Y-131495929D02*
X251250841Y-133315929D01*
X254650841Y-134095929D02*
X254320841Y-133855929D01*
X254650841Y-133615929D01*
X254650841Y-134095929D01*
G36*
X254650841Y-134095929D02*
G01*
X254320841Y-133855929D01*
X254650841Y-133615929D01*
X254650841Y-134095929D01*
G37*
%TO.C,U1*%
X205925818Y-133315929D02*
X205925818Y-131495929D01*
X205875818Y-133315929D02*
X205925818Y-133315929D01*
X202805818Y-133315929D02*
X202855818Y-133315929D01*
X205925818Y-131495929D02*
X205875818Y-131495929D01*
X204755818Y-131495929D02*
X203975818Y-131495929D01*
X202855818Y-131495929D02*
X202805818Y-131495929D01*
X202805818Y-131495929D02*
X202805818Y-133315929D01*
X206205818Y-134095929D02*
X205875818Y-133855929D01*
X206205818Y-133615929D01*
X206205818Y-134095929D01*
G36*
X206205818Y-134095929D02*
G01*
X205875818Y-133855929D01*
X206205818Y-133615929D01*
X206205818Y-134095929D01*
G37*
%TD*%
M02*
