%TF.GenerationSoftware,KiCad,Pcbnew,9.0.6-rc2*%
%TF.CreationDate,2025-11-10T17:57:54-08:00*%
%TF.ProjectId,FPC_Trigger_Board,4650435f-5472-4696-9767-65725f426f61,rev?*%
%TF.SameCoordinates,Original*%
%TF.FileFunction,Legend,Top*%
%TF.FilePolarity,Positive*%
%FSLAX46Y46*%
G04 Gerber Fmt 4.6, Leading zero omitted, Abs format (unit mm)*
G04 Created by KiCad (PCBNEW 9.0.6-rc2) date 2025-11-10 17:57:54*
%MOMM*%
%LPD*%
G01*
G04 APERTURE LIST*
%ADD10C,0.200000*%
%ADD11C,0.250000*%
%ADD12C,0.150000*%
%ADD13C,0.120000*%
G04 APERTURE END LIST*
D10*
X221665800Y-147548600D02*
X221665800Y-147588600D01*
X221665800Y-148388600D02*
X221665800Y-148428600D01*
X221665800Y-149228600D02*
X221665800Y-149268600D01*
X221665800Y-150068600D02*
X221665800Y-150108600D01*
X221665800Y-150908600D02*
X221665800Y-150948600D01*
X221665800Y-151748600D02*
X221665800Y-151788600D01*
X221665800Y-152588600D02*
X221665800Y-152628600D01*
X221665800Y-153428600D02*
X221665800Y-153468600D01*
X221665800Y-154268600D02*
X221665800Y-154308600D01*
X221665800Y-155108600D02*
X221665800Y-155148600D01*
X221665800Y-155948600D02*
X221665800Y-155988600D01*
X221665800Y-156788600D02*
X221665800Y-156828600D01*
X221665800Y-157628600D02*
X221665800Y-157668600D01*
X221665800Y-158468600D02*
X221665800Y-158508600D01*
X221665800Y-159308600D02*
X221665800Y-159348600D01*
X221665800Y-160148600D02*
X221665800Y-160188600D01*
X221665800Y-160988600D02*
X221665800Y-161028600D01*
X221665800Y-161828600D02*
X221665800Y-161868600D01*
X221665800Y-162668600D02*
X221665800Y-162708600D01*
X221665800Y-163508600D02*
X221665800Y-163548600D01*
D11*
X211556600Y-159924737D02*
X220556600Y-159924737D01*
X222866902Y-159924737D02*
X231866902Y-159924737D01*
D12*
X226141133Y-150202780D02*
X226093514Y-150250400D01*
X226093514Y-150250400D02*
X225950657Y-150298019D01*
X225950657Y-150298019D02*
X225855419Y-150298019D01*
X225855419Y-150298019D02*
X225712562Y-150250400D01*
X225712562Y-150250400D02*
X225617324Y-150155161D01*
X225617324Y-150155161D02*
X225569705Y-150059923D01*
X225569705Y-150059923D02*
X225522086Y-149869447D01*
X225522086Y-149869447D02*
X225522086Y-149726590D01*
X225522086Y-149726590D02*
X225569705Y-149536114D01*
X225569705Y-149536114D02*
X225617324Y-149440876D01*
X225617324Y-149440876D02*
X225712562Y-149345638D01*
X225712562Y-149345638D02*
X225855419Y-149298019D01*
X225855419Y-149298019D02*
X225950657Y-149298019D01*
X225950657Y-149298019D02*
X226093514Y-149345638D01*
X226093514Y-149345638D02*
X226141133Y-149393257D01*
X226522086Y-149393257D02*
X226569705Y-149345638D01*
X226569705Y-149345638D02*
X226664943Y-149298019D01*
X226664943Y-149298019D02*
X226903038Y-149298019D01*
X226903038Y-149298019D02*
X226998276Y-149345638D01*
X226998276Y-149345638D02*
X227045895Y-149393257D01*
X227045895Y-149393257D02*
X227093514Y-149488495D01*
X227093514Y-149488495D02*
X227093514Y-149583733D01*
X227093514Y-149583733D02*
X227045895Y-149726590D01*
X227045895Y-149726590D02*
X226474467Y-150298019D01*
X226474467Y-150298019D02*
X227093514Y-150298019D01*
X228301267Y-151346819D02*
X228920314Y-151346819D01*
X228920314Y-151346819D02*
X228586981Y-151727771D01*
X228586981Y-151727771D02*
X228729838Y-151727771D01*
X228729838Y-151727771D02*
X228825076Y-151775390D01*
X228825076Y-151775390D02*
X228872695Y-151823009D01*
X228872695Y-151823009D02*
X228920314Y-151918247D01*
X228920314Y-151918247D02*
X228920314Y-152156342D01*
X228920314Y-152156342D02*
X228872695Y-152251580D01*
X228872695Y-152251580D02*
X228825076Y-152299200D01*
X228825076Y-152299200D02*
X228729838Y-152346819D01*
X228729838Y-152346819D02*
X228444124Y-152346819D01*
X228444124Y-152346819D02*
X228348886Y-152299200D01*
X228348886Y-152299200D02*
X228301267Y-152251580D01*
X223720314Y-152346819D02*
X223148886Y-152346819D01*
X223434600Y-152346819D02*
X223434600Y-151346819D01*
X223434600Y-151346819D02*
X223339362Y-151489676D01*
X223339362Y-151489676D02*
X223244124Y-151584914D01*
X223244124Y-151584914D02*
X223148886Y-151632533D01*
X217541115Y-154937619D02*
X216969687Y-154937619D01*
X217255401Y-154937619D02*
X217255401Y-153937619D01*
X217255401Y-153937619D02*
X217160163Y-154080476D01*
X217160163Y-154080476D02*
X217064925Y-154175714D01*
X217064925Y-154175714D02*
X216969687Y-154223333D01*
X211722066Y-153937619D02*
X212341113Y-153937619D01*
X212341113Y-153937619D02*
X212007780Y-154318571D01*
X212007780Y-154318571D02*
X212150637Y-154318571D01*
X212150637Y-154318571D02*
X212245875Y-154366190D01*
X212245875Y-154366190D02*
X212293494Y-154413809D01*
X212293494Y-154413809D02*
X212341113Y-154509047D01*
X212341113Y-154509047D02*
X212341113Y-154747142D01*
X212341113Y-154747142D02*
X212293494Y-154842380D01*
X212293494Y-154842380D02*
X212245875Y-154890000D01*
X212245875Y-154890000D02*
X212150637Y-154937619D01*
X212150637Y-154937619D02*
X211864923Y-154937619D01*
X211864923Y-154937619D02*
X211769685Y-154890000D01*
X211769685Y-154890000D02*
X211722066Y-154842380D01*
X214641133Y-150202780D02*
X214593514Y-150250400D01*
X214593514Y-150250400D02*
X214450657Y-150298019D01*
X214450657Y-150298019D02*
X214355419Y-150298019D01*
X214355419Y-150298019D02*
X214212562Y-150250400D01*
X214212562Y-150250400D02*
X214117324Y-150155161D01*
X214117324Y-150155161D02*
X214069705Y-150059923D01*
X214069705Y-150059923D02*
X214022086Y-149869447D01*
X214022086Y-149869447D02*
X214022086Y-149726590D01*
X214022086Y-149726590D02*
X214069705Y-149536114D01*
X214069705Y-149536114D02*
X214117324Y-149440876D01*
X214117324Y-149440876D02*
X214212562Y-149345638D01*
X214212562Y-149345638D02*
X214355419Y-149298019D01*
X214355419Y-149298019D02*
X214450657Y-149298019D01*
X214450657Y-149298019D02*
X214593514Y-149345638D01*
X214593514Y-149345638D02*
X214641133Y-149393257D01*
X215593514Y-150298019D02*
X215022086Y-150298019D01*
X215307800Y-150298019D02*
X215307800Y-149298019D01*
X215307800Y-149298019D02*
X215212562Y-149440876D01*
X215212562Y-149440876D02*
X215117324Y-149536114D01*
X215117324Y-149536114D02*
X215022086Y-149583733D01*
X223520095Y-162116419D02*
X223520095Y-162925942D01*
X223520095Y-162925942D02*
X223567714Y-163021180D01*
X223567714Y-163021180D02*
X223615333Y-163068800D01*
X223615333Y-163068800D02*
X223710571Y-163116419D01*
X223710571Y-163116419D02*
X223901047Y-163116419D01*
X223901047Y-163116419D02*
X223996285Y-163068800D01*
X223996285Y-163068800D02*
X224043904Y-163021180D01*
X224043904Y-163021180D02*
X224091523Y-162925942D01*
X224091523Y-162925942D02*
X224091523Y-162116419D01*
X224520095Y-162211657D02*
X224567714Y-162164038D01*
X224567714Y-162164038D02*
X224662952Y-162116419D01*
X224662952Y-162116419D02*
X224901047Y-162116419D01*
X224901047Y-162116419D02*
X224996285Y-162164038D01*
X224996285Y-162164038D02*
X225043904Y-162211657D01*
X225043904Y-162211657D02*
X225091523Y-162306895D01*
X225091523Y-162306895D02*
X225091523Y-162402133D01*
X225091523Y-162402133D02*
X225043904Y-162544990D01*
X225043904Y-162544990D02*
X224472476Y-163116419D01*
X224472476Y-163116419D02*
X225091523Y-163116419D01*
X212242495Y-162370419D02*
X212242495Y-163179942D01*
X212242495Y-163179942D02*
X212290114Y-163275180D01*
X212290114Y-163275180D02*
X212337733Y-163322800D01*
X212337733Y-163322800D02*
X212432971Y-163370419D01*
X212432971Y-163370419D02*
X212623447Y-163370419D01*
X212623447Y-163370419D02*
X212718685Y-163322800D01*
X212718685Y-163322800D02*
X212766304Y-163275180D01*
X212766304Y-163275180D02*
X212813923Y-163179942D01*
X212813923Y-163179942D02*
X212813923Y-162370419D01*
X213813923Y-163370419D02*
X213242495Y-163370419D01*
X213528209Y-163370419D02*
X213528209Y-162370419D01*
X213528209Y-162370419D02*
X213432971Y-162513276D01*
X213432971Y-162513276D02*
X213337733Y-162608514D01*
X213337733Y-162608514D02*
X213242495Y-162656133D01*
X212341114Y-152346819D02*
X211769686Y-152346819D01*
X212055400Y-152346819D02*
X212055400Y-151346819D01*
X212055400Y-151346819D02*
X211960162Y-151489676D01*
X211960162Y-151489676D02*
X211864924Y-151584914D01*
X211864924Y-151584914D02*
X211769686Y-151632533D01*
X216922067Y-151346819D02*
X217541114Y-151346819D01*
X217541114Y-151346819D02*
X217207781Y-151727771D01*
X217207781Y-151727771D02*
X217350638Y-151727771D01*
X217350638Y-151727771D02*
X217445876Y-151775390D01*
X217445876Y-151775390D02*
X217493495Y-151823009D01*
X217493495Y-151823009D02*
X217541114Y-151918247D01*
X217541114Y-151918247D02*
X217541114Y-152156342D01*
X217541114Y-152156342D02*
X217493495Y-152251580D01*
X217493495Y-152251580D02*
X217445876Y-152299200D01*
X217445876Y-152299200D02*
X217350638Y-152346819D01*
X217350638Y-152346819D02*
X217064924Y-152346819D01*
X217064924Y-152346819D02*
X216969686Y-152299200D01*
X216969686Y-152299200D02*
X216922067Y-152251580D01*
X223105866Y-153912219D02*
X223724913Y-153912219D01*
X223724913Y-153912219D02*
X223391580Y-154293171D01*
X223391580Y-154293171D02*
X223534437Y-154293171D01*
X223534437Y-154293171D02*
X223629675Y-154340790D01*
X223629675Y-154340790D02*
X223677294Y-154388409D01*
X223677294Y-154388409D02*
X223724913Y-154483647D01*
X223724913Y-154483647D02*
X223724913Y-154721742D01*
X223724913Y-154721742D02*
X223677294Y-154816980D01*
X223677294Y-154816980D02*
X223629675Y-154864600D01*
X223629675Y-154864600D02*
X223534437Y-154912219D01*
X223534437Y-154912219D02*
X223248723Y-154912219D01*
X223248723Y-154912219D02*
X223153485Y-154864600D01*
X223153485Y-154864600D02*
X223105866Y-154816980D01*
X228924915Y-154912219D02*
X228353487Y-154912219D01*
X228639201Y-154912219D02*
X228639201Y-153912219D01*
X228639201Y-153912219D02*
X228543963Y-154055076D01*
X228543963Y-154055076D02*
X228448725Y-154150314D01*
X228448725Y-154150314D02*
X228353487Y-154197933D01*
D13*
%TO.C,JP3*%
X223984600Y-152192000D02*
X223984600Y-151592000D01*
X224634600Y-150892000D02*
X227434600Y-150892000D01*
X227434600Y-152892000D02*
X224634600Y-152892000D01*
X228084600Y-151592000D02*
X228084600Y-152192000D01*
X223984600Y-151592000D02*
G75*
G02*
X224684600Y-150892000I699999J1D01*
G01*
X224684600Y-152892000D02*
G75*
G02*
X223984600Y-152192000I-1J699999D01*
G01*
X227384600Y-150892000D02*
G75*
G02*
X228084600Y-151592000I0J-700000D01*
G01*
X228084600Y-152192000D02*
G75*
G02*
X227384600Y-152892000I-700000J0D01*
G01*
%TO.C,JP2*%
X212605400Y-154782800D02*
X212605400Y-154182800D01*
X213255400Y-153482800D02*
X216055400Y-153482800D01*
X216055400Y-155482800D02*
X213255400Y-155482800D01*
X216705400Y-154182800D02*
X216705400Y-154782800D01*
X212605400Y-154182800D02*
G75*
G02*
X213305400Y-153482800I700000J0D01*
G01*
X213305400Y-155482800D02*
G75*
G02*
X212605400Y-154782800I0J700000D01*
G01*
X216005400Y-153482800D02*
G75*
G02*
X216705400Y-154182800I1J-699999D01*
G01*
X216705400Y-154782800D02*
G75*
G02*
X216005400Y-155482800I-699999J-1D01*
G01*
%TO.C,U2*%
X226456902Y-161464737D02*
X228276902Y-161464737D01*
X226456902Y-161514737D02*
X226456902Y-161464737D01*
X226456902Y-164584737D02*
X226456902Y-164534737D01*
X228276902Y-161464737D02*
X228276902Y-161514737D01*
X228276902Y-162634737D02*
X228276902Y-163414737D01*
X228276902Y-164534737D02*
X228276902Y-164584737D01*
X228276902Y-164584737D02*
X226456902Y-164584737D01*
X225916902Y-161514737D02*
X225676902Y-161184737D01*
X226156902Y-161184737D01*
X225916902Y-161514737D01*
G36*
X225916902Y-161514737D02*
G01*
X225676902Y-161184737D01*
X226156902Y-161184737D01*
X225916902Y-161514737D01*
G37*
%TO.C,U1*%
X215146600Y-161464737D02*
X216966600Y-161464737D01*
X215146600Y-161514737D02*
X215146600Y-161464737D01*
X215146600Y-164584737D02*
X215146600Y-164534737D01*
X216966600Y-161464737D02*
X216966600Y-161514737D01*
X216966600Y-162634737D02*
X216966600Y-163414737D01*
X216966600Y-164534737D02*
X216966600Y-164584737D01*
X216966600Y-164584737D02*
X215146600Y-164584737D01*
X214606600Y-161514737D02*
X214366600Y-161184737D01*
X214846600Y-161184737D01*
X214606600Y-161514737D01*
G36*
X214606600Y-161514737D02*
G01*
X214366600Y-161184737D01*
X214846600Y-161184737D01*
X214606600Y-161514737D01*
G37*
%TO.C,JP1*%
X212605400Y-152192000D02*
X212605400Y-151592000D01*
X213255400Y-150892000D02*
X216055400Y-150892000D01*
X216055400Y-152892000D02*
X213255400Y-152892000D01*
X216705400Y-151592000D02*
X216705400Y-152192000D01*
X212605400Y-151592000D02*
G75*
G02*
X213305400Y-150892000I699999J1D01*
G01*
X213305400Y-152892000D02*
G75*
G02*
X212605400Y-152192000I-1J699999D01*
G01*
X216005400Y-150892000D02*
G75*
G02*
X216705400Y-151592000I0J-700000D01*
G01*
X216705400Y-152192000D02*
G75*
G02*
X216005400Y-152892000I-700000J0D01*
G01*
%TO.C,JP4*%
X223989200Y-154757400D02*
X223989200Y-154157400D01*
X224639200Y-153457400D02*
X227439200Y-153457400D01*
X227439200Y-155457400D02*
X224639200Y-155457400D01*
X228089200Y-154157400D02*
X228089200Y-154757400D01*
X223989200Y-154157400D02*
G75*
G02*
X224689200Y-153457400I700000J0D01*
G01*
X224689200Y-155457400D02*
G75*
G02*
X223989200Y-154757400I0J700000D01*
G01*
X227389200Y-153457400D02*
G75*
G02*
X228089200Y-154157400I1J-699999D01*
G01*
X228089200Y-154757400D02*
G75*
G02*
X227389200Y-155457400I-699999J-1D01*
G01*
%TD*%
M02*
