%TF.GenerationSoftware,KiCad,Pcbnew,8.0.2*%
%TF.CreationDate,2024-10-24T08:22:20-07:00*%
%TF.ProjectId,UGC_Main_R4K,5547435f-4d61-4696-9e5f-52344b2e6b69,rev?*%
%TF.SameCoordinates,Original*%
%TF.FileFunction,Soldermask,Top*%
%TF.FilePolarity,Negative*%
%FSLAX46Y46*%
G04 Gerber Fmt 4.6, Leading zero omitted, Abs format (unit mm)*
G04 Created by KiCad (PCBNEW 8.0.2) date 2024-10-24 08:22:20*
%MOMM*%
%LPD*%
G01*
G04 APERTURE LIST*
G04 Aperture macros list*
%AMRoundRect*
0 Rectangle with rounded corners*
0 $1 Rounding radius*
0 $2 $3 $4 $5 $6 $7 $8 $9 X,Y pos of 4 corners*
0 Add a 4 corners polygon primitive as box body*
4,1,4,$2,$3,$4,$5,$6,$7,$8,$9,$2,$3,0*
0 Add four circle primitives for the rounded corners*
1,1,$1+$1,$2,$3*
1,1,$1+$1,$4,$5*
1,1,$1+$1,$6,$7*
1,1,$1+$1,$8,$9*
0 Add four rect primitives between the rounded corners*
20,1,$1+$1,$2,$3,$4,$5,0*
20,1,$1+$1,$4,$5,$6,$7,0*
20,1,$1+$1,$6,$7,$8,$9,0*
20,1,$1+$1,$8,$9,$2,$3,0*%
%AMHorizOval*
0 Thick line with rounded ends*
0 $1 width*
0 $2 $3 position (X,Y) of the first rounded end (center of the circle)*
0 $4 $5 position (X,Y) of the second rounded end (center of the circle)*
0 Add line between two ends*
20,1,$1,$2,$3,$4,$5,0*
0 Add two circle primitives to create the rounded ends*
1,1,$1,$2,$3*
1,1,$1,$4,$5*%
%AMRotRect*
0 Rectangle, with rotation*
0 The origin of the aperture is its center*
0 $1 length*
0 $2 width*
0 $3 Rotation angle, in degrees counterclockwise*
0 Add horizontal line*
21,1,$1,$2,0,0,$3*%
%AMFreePoly0*
4,1,493,1.979705,0.664447,1.999168,0.662594,2.006714,0.659095,2.034586,0.631890,2.038349,0.623329,2.039544,0.584399,2.036313,0.575621,2.010160,0.546760,2.002838,0.542806,1.983525,0.539771,1.982582,0.539659,1.789093,0.524161,1.406440,0.459306,1.032280,0.356518,0.670266,0.216810,0.324043,0.041587,-0.002900,-0.167384,-0.307310,-0.408026,-0.586108,-0.677901,-0.836520,-0.974327,
-1.056016,-1.294307,-1.242404,-1.634651,-1.393806,-1.991922,-1.508705,-2.362544,-1.585955,-2.742819,-1.624780,-3.128972,-1.627154,-3.322905,-1.624829,-3.501046,-1.586284,-3.855466,-1.509662,-4.203559,-1.395856,-4.541327,-1.246193,-4.864816,-1.062438,-5.170219,-0.846737,-5.453970,-0.601623,-5.712733,-0.329970,-5.943477,-0.034959,-6.143500,0.279949,-6.310454,0.611062,-6.442382,0.954494,-6.537735,
1.306219,-6.595398,1.662130,-6.614695,2.018040,-6.595398,2.369765,-6.537735,2.713197,-6.442382,3.044310,-6.310454,3.359219,-6.143500,3.654230,-5.943477,3.925883,-5.712733,4.170997,-5.453970,4.386698,-5.170219,4.570453,-4.864816,4.720116,-4.541327,4.833922,-4.203559,4.910544,-3.855466,4.949089,-3.501046,4.951414,-3.322933,4.949045,-3.159397,4.909593,-2.834477,4.831285,-2.516773,
4.715251,-2.210813,4.563188,-1.921083,4.377307,-1.651788,4.160325,-1.406864,3.915401,-1.189881,3.646106,-1.004000,3.356376,-0.851938,3.050416,-0.735903,2.732712,-0.657595,2.407880,-0.618155,2.080668,-0.618155,1.755835,-0.657595,1.438131,-0.735903,1.132171,-0.851938,0.842441,-1.004000,0.573146,-1.189881,0.328222,-1.406864,0.111240,-1.651788,-0.074640,-1.921083,-0.226703,-2.210813,
-0.342737,-2.516773,-0.421045,-2.834477,-0.460497,-3.159397,-0.462867,-3.322915,-0.460392,-3.467988,-0.420837,-3.755768,-0.342500,-4.035359,-0.226816,-4.301689,-0.075947,-4.549784,0.107301,-4.775027,0.319511,-4.973217,0.556727,-5.140662,0.814550,-5.274256,1.088142,-5.371491,1.372442,-5.430568,1.662131,-5.450384,1.951819,-5.430568,2.236119,-5.371491,2.509711,-5.274256,2.767534,-5.140662,
3.004750,-4.973217,3.216960,-4.775027,3.400209,-4.549784,3.551078,-4.301689,3.666762,-4.035359,3.745099,-3.755768,3.784654,-3.467988,3.787128,-3.322948,3.784750,-3.201796,3.746801,-2.962191,3.671873,-2.731587,3.561790,-2.515537,3.419270,-2.319375,3.247813,-2.147918,3.051651,-2.005398,2.835601,-1.895315,2.604997,-1.820387,2.365511,-1.782457,2.123035,-1.782457,1.883548,-1.820387,
1.652944,-1.895315,1.436894,-2.005398,1.240732,-2.147918,1.069275,-2.319375,0.926755,-2.515537,0.816672,-2.731587,0.741744,-2.962191,0.703795,-3.201796,0.701419,-3.322878,0.704046,-3.423450,0.745952,-3.620602,0.827863,-3.804577,0.946239,-3.967509,1.095900,-4.102263,1.270309,-4.202958,1.461840,-4.265190,1.662130,-4.286242,1.862419,-4.265190,2.053950,-4.202958,2.228359,-4.102263,
2.378020,-3.967509,2.496396,-3.804577,2.578307,-3.620602,2.620212,-3.423450,2.622838,-3.322985,2.620516,-3.263576,2.583616,-3.150013,2.513577,-3.053612,2.417176,-2.983573,2.303853,-2.946752,2.184695,-2.946752,2.071371,-2.983573,1.974970,-3.053612,1.904931,-3.150013,1.868031,-3.263576,1.865692,-3.323404,1.865683,-3.323610,1.863287,-3.366674,1.862068,-3.371404,1.824698,-3.449003,
1.821230,-3.453352,1.753893,-3.507052,1.748880,-3.509466,1.664911,-3.528631,1.659349,-3.528631,1.575380,-3.509466,1.570367,-3.507052,1.503030,-3.453352,1.499562,-3.449003,1.462192,-3.371404,1.460973,-3.366674,1.458578,-3.323610,1.458564,-3.322566,1.460994,-3.235720,1.461302,-3.233288,1.499953,-3.063950,1.500878,-3.061308,1.576240,-2.904816,1.577729,-2.902446,1.686025,-2.766648,
1.688004,-2.764669,1.823803,-2.656373,1.826173,-2.654884,1.982665,-2.579522,1.985308,-2.578597,2.154646,-2.539947,2.157427,-2.539634,2.331119,-2.539634,2.333900,-2.539947,2.503238,-2.578597,2.505881,-2.579522,2.662373,-2.654884,2.664743,-2.656373,2.800542,-2.764669,2.802521,-2.766648,2.910817,-2.902446,2.912306,-2.904816,2.987668,-3.061308,2.988593,-3.063950,3.027244,-3.233288,
3.027552,-3.235720,3.029983,-3.322566,3.029985,-3.323188,3.027405,-3.441541,3.027218,-3.443440,2.986115,-3.676549,2.985551,-3.678653,2.904593,-3.901084,2.903672,-3.903059,2.785319,-4.108052,2.784070,-4.109837,2.631918,-4.291163,2.630377,-4.292704,2.449051,-4.444856,2.447266,-4.446105,2.242273,-4.564458,2.240298,-4.565379,2.017867,-4.646337,2.015763,-4.646901,1.782654,-4.688004,
1.780483,-4.688194,1.543777,-4.688194,1.541606,-4.688004,1.308497,-4.646901,1.306393,-4.646337,1.083962,-4.565379,1.081987,-4.564458,0.876994,-4.446105,0.875209,-4.444856,0.693883,-4.292704,0.692342,-4.291163,0.540190,-4.109837,0.538941,-4.108052,0.420588,-3.903059,0.419667,-3.901084,0.338709,-3.678653,0.338145,-3.676549,0.297042,-3.443440,0.296855,-3.441541,0.294276,-3.323188,
0.294275,-3.322693,0.296743,-3.184297,0.296868,-3.182741,0.336260,-2.908766,0.336639,-2.907023,0.414620,-2.641442,0.415244,-2.639771,0.530228,-2.387992,0.531082,-2.386427,0.680727,-2.153575,0.681796,-2.152147,0.863057,-1.942961,0.864318,-1.941700,1.073504,-1.760439,1.074932,-1.759370,1.307784,-1.609725,1.309349,-1.608871,1.561128,-1.493887,1.562799,-1.493263,1.828380,-1.415282,
1.830123,-1.414903,2.104098,-1.375511,2.105877,-1.375384,2.382669,-1.375384,2.384448,-1.375511,2.658423,-1.414903,2.660166,-1.415282,2.925747,-1.493263,2.927418,-1.493887,3.179197,-1.608871,3.180762,-1.609725,3.413614,-1.759370,3.415042,-1.760439,3.624228,-1.941700,3.625489,-1.942961,3.806750,-2.152147,3.807819,-2.153575,3.957464,-2.386427,3.958318,-2.387992,4.073302,-2.639771,
4.073926,-2.641442,4.151907,-2.907023,4.152286,-2.908766,4.191678,-3.182741,4.191803,-3.184297,4.194271,-3.322693,4.194272,-3.323104,4.191890,-3.481477,4.191792,-3.482856,4.152093,-3.797103,4.151799,-3.798645,4.073028,-4.105439,4.072543,-4.106932,3.955942,-4.401435,3.955274,-4.402855,3.802680,-4.680421,3.801839,-4.681746,3.615661,-4.937998,3.614660,-4.939208,3.397833,-5.170105,
3.396689,-5.171179,3.152633,-5.373080,3.151363,-5.374003,2.883926,-5.543724,2.882550,-5.544480,2.595951,-5.679344,2.594492,-5.679922,2.293249,-5.777801,2.291728,-5.778192,1.980593,-5.837544,1.979036,-5.837740,1.662916,-5.857629,1.661346,-5.857629,1.345226,-5.837740,1.343669,-5.837544,1.032534,-5.778192,1.031013,-5.777801,0.729770,-5.679922,0.728311,-5.679344,0.441712,-5.544480,
0.440336,-5.543724,0.172899,-5.374003,0.171629,-5.373080,-0.072427,-5.171179,-0.073571,-5.170105,-0.290398,-4.939208,-0.291399,-4.937998,-0.477577,-4.681746,-0.478418,-4.680421,-0.631012,-4.402855,-0.631680,-4.401435,-0.748281,-4.106932,-0.748766,-4.105439,-0.827537,-3.798645,-0.827831,-3.797103,-0.867530,-3.482856,-0.867628,-3.481477,-0.870011,-3.323104,-0.870011,-3.322747,-0.867660,-3.148686,
-0.867582,-3.147455,-0.828605,-2.801523,-0.828371,-2.800141,-0.750907,-2.460748,-0.750519,-2.459402,-0.635542,-2.130816,-0.635005,-2.129520,-0.483961,-1.815874,-0.483283,-1.814648,-0.298071,-1.519885,-0.297260,-1.518741,-0.080210,-1.246569,-0.079276,-1.245524,0.166883,-0.999366,0.167928,-0.998432,0.440100,-0.781382,0.441244,-0.780571,0.736006,-0.595359,0.737232,-0.594681,1.050879,-0.443637,
1.052175,-0.443100,1.380760,-0.328123,1.382106,-0.327735,1.721499,-0.250270,1.722881,-0.250036,2.068813,-0.211059,2.070213,-0.210980,2.418335,-0.210980,2.419735,-0.211059,2.765667,-0.250036,2.767049,-0.250270,3.106442,-0.327735,3.107788,-0.328123,3.436373,-0.443100,3.437669,-0.443637,3.751316,-0.594681,3.752542,-0.595359,4.047304,-0.780571,4.048448,-0.781382,4.320620,-0.998432,
4.321665,-0.999366,4.567824,-1.245524,4.568758,-1.246569,4.785808,-1.518741,4.786619,-1.519885,4.971831,-1.814648,4.972509,-1.815874,5.123553,-2.129520,5.124090,-2.130816,5.239067,-2.459402,5.239455,-2.460748,5.316919,-2.800141,5.317153,-2.801523,5.356130,-3.147455,5.356208,-3.148686,5.358558,-3.322747,5.358558,-3.323074,5.356121,-3.516013,5.356054,-3.517162,5.315719,-3.900926,
5.315514,-3.902218,5.235286,-4.279663,5.234947,-4.280927,5.115704,-4.647918,5.115235,-4.649139,4.958285,-5.001656,4.957691,-5.002822,4.764752,-5.337002,4.764040,-5.338099,4.537227,-5.650281,4.536403,-5.651298,4.278200,-5.938061,4.277275,-5.938986,3.990512,-6.197188,3.989495,-6.198012,3.677314,-6.424825,3.676217,-6.425537,3.342037,-6.618476,3.340871,-6.619070,2.988354,-6.776021,
2.987133,-6.776490,2.620142,-6.895733,2.618878,-6.896072,2.241433,-6.976300,2.240141,-6.976505,1.856377,-7.016840,1.855070,-7.016908,1.469192,-7.016908,1.467885,-7.016840,1.084121,-6.976505,1.082829,-6.976300,0.705384,-6.896072,0.704120,-6.895733,0.337129,-6.776490,0.335908,-6.776021,-0.016609,-6.619070,-0.017775,-6.618476,-0.351955,-6.425537,-0.353052,-6.424825,-0.665233,-6.198012,
-0.666250,-6.197188,-0.953013,-5.938986,-0.953938,-5.938061,-1.212141,-5.651298,-1.212965,-5.650281,-1.439778,-5.338099,-1.440490,-5.337002,-1.633429,-5.002822,-1.634023,-5.001656,-1.790973,-4.649139,-1.791442,-4.647918,-1.910685,-4.280927,-1.911024,-4.279663,-1.991252,-3.902218,-1.991457,-3.900926,-2.031792,-3.517162,-2.031859,-3.516013,-2.034297,-3.323074,-2.034297,-3.322766,-2.031940,-3.126810,
-2.031880,-3.125730,-1.993311,-2.735720,-1.993130,-2.734502,-1.916366,-2.350182,-1.916065,-2.348987,-1.801851,-1.974086,-1.801435,-1.972927,-1.650880,-1.611087,-1.650351,-1.609975,-1.464917,-1.264707,-1.464282,-1.263652,-1.245770,-0.938310,-1.245033,-0.937322,-0.995563,-0.635064,-0.994734,-0.634154,-0.716729,-0.357914,-0.715813,-0.357090,-0.411972,-0.109551,-0.410980,-0.108821,-0.084253,0.107615,
-0.083194,0.108244,0.263247,0.291475,0.264363,0.291996,0.627155,0.440243,0.628316,0.440652,1.003937,0.552475,1.005134,0.552768,1.389935,0.627083,1.391154,0.627257,1.781402,0.663342,1.782482,0.663395,1.978449,0.664503,1.979705,0.664447,1.979705,0.664447,$1*%
%AMFreePoly1*
4,1,493,-1.315191,7.101891,-0.931427,7.061556,-0.930135,7.061351,-0.552690,6.981123,-0.551426,6.980784,-0.184435,6.861541,-0.183214,6.861072,0.169303,6.704121,0.170469,6.703527,0.504649,6.510588,0.505746,6.509876,0.817927,6.283063,0.818944,6.282239,1.105707,6.024037,1.106632,6.023112,1.364835,5.736349,1.365659,5.735332,1.592472,5.423150,1.593184,5.422053,1.786123,5.087873,
1.786717,5.086707,1.943667,4.734190,1.944136,4.732969,2.063379,4.365978,2.063718,4.364714,2.143946,3.987269,2.144151,3.985977,2.184486,3.602213,2.184553,3.601064,2.186991,3.408125,2.186991,3.407817,2.184634,3.211861,2.184574,3.210781,2.146005,2.820771,2.145824,2.819553,2.069060,2.435233,2.068759,2.434038,1.954545,2.059137,1.954129,2.057978,1.803574,1.696138,
1.803045,1.695026,1.617611,1.349758,1.616976,1.348703,1.398464,1.023361,1.397727,1.022373,1.148257,0.720115,1.147428,0.719205,0.869423,0.442965,0.868507,0.442141,0.564666,0.194602,0.563674,0.193872,0.236947,-0.022564,0.235888,-0.023193,-0.110553,-0.206424,-0.111669,-0.206945,-0.474461,-0.355192,-0.475622,-0.355601,-0.851243,-0.467424,-0.852440,-0.467717,-1.237241,-0.542032,
-1.238460,-0.542206,-1.628708,-0.578291,-1.629788,-0.578344,-1.825755,-0.579452,-1.827006,-0.579396,-1.846471,-0.577551,-1.854022,-0.574053,-1.881899,-0.546847,-1.885662,-0.538284,-1.886856,-0.499349,-1.883625,-0.490572,-1.857469,-0.461708,-1.850146,-0.457753,-1.830830,-0.454719,-1.829888,-0.454608,-1.636399,-0.439110,-1.253746,-0.374256,-0.879585,-0.271467,-0.517572,-0.131760,-0.171349,0.043463,
0.155595,0.252435,0.460004,0.493076,0.738803,0.762951,0.989215,1.059378,1.208710,1.379358,1.395098,1.719701,1.546501,2.076973,1.661399,2.447595,1.738649,2.827870,1.777474,3.214023,1.779848,3.407967,1.777523,3.586097,1.738978,3.940517,1.662356,4.288610,1.548550,4.626378,1.398887,4.949867,1.215132,5.255270,0.999431,5.539021,0.754317,5.797784,0.482664,6.028528,
0.187653,6.228551,-0.127255,6.395505,-0.458368,6.527433,-0.801800,6.622786,-1.153525,6.680449,-1.509436,6.699746,-1.865346,6.680449,-2.217071,6.622786,-2.560503,6.527433,-2.891616,6.395505,-3.206525,6.228551,-3.501536,6.028528,-3.773189,5.797784,-4.018303,5.539021,-4.234004,5.255270,-4.417759,4.949867,-4.567422,4.626378,-4.681228,4.288610,-4.757850,3.940517,-4.796395,3.586097,
-4.798720,3.407984,-4.796351,3.244448,-4.756899,2.919528,-4.678591,2.601824,-4.562557,2.295864,-4.410494,2.006134,-4.224613,1.736839,-4.007631,1.491915,-3.762707,1.274932,-3.493412,1.089051,-3.203682,0.936989,-2.897722,0.820954,-2.580018,0.742646,-2.255186,0.703206,-1.927974,0.703206,-1.603141,0.742646,-1.285437,0.820954,-0.979477,0.936989,-0.689747,1.089051,-0.420452,1.274932,
-0.175528,1.491915,0.041453,1.736839,0.227334,2.006134,0.379397,2.295864,0.495431,2.601824,0.573739,2.919528,0.613191,3.244448,0.615561,3.407967,0.613086,3.553039,0.573531,3.840819,0.495194,4.120410,0.379510,4.386740,0.228641,4.634835,0.045392,4.860078,-0.166817,5.058268,-0.404033,5.225713,-0.661856,5.359307,-0.935448,5.456542,-1.219748,5.515619,-1.509437,5.535435,
-1.799125,5.515619,-2.083425,5.456542,-2.357017,5.359307,-2.614840,5.225713,-2.852056,5.058268,-3.064266,4.860078,-3.247515,4.634835,-3.398384,4.386740,-3.514068,4.120410,-3.592405,3.840819,-3.631960,3.553039,-3.634434,3.407999,-3.632056,3.286847,-3.594107,3.047242,-3.519179,2.816639,-3.409096,2.600588,-3.266576,2.404426,-3.095119,2.232970,-2.898957,2.090450,-2.682906,1.980367,
-2.452303,1.905439,-2.212817,1.867509,-1.970341,1.867509,-1.730854,1.905439,-1.500251,1.980367,-1.284200,2.090450,-1.088038,2.232970,-0.916581,2.404426,-0.774061,2.600588,-0.663978,2.816639,-0.589050,3.047242,-0.551101,3.286847,-0.548725,3.407929,-0.551352,3.508501,-0.593258,3.705653,-0.675169,3.889628,-0.793545,4.052560,-0.943206,4.187314,-1.117615,4.288009,-1.309146,4.350241,
-1.509436,4.371293,-1.709725,4.350241,-1.901256,4.288009,-2.075665,4.187314,-2.225326,4.052560,-2.343702,3.889628,-2.425613,3.705653,-2.467518,3.508501,-2.470144,3.408036,-2.467822,3.348627,-2.430922,3.235064,-2.360883,3.138663,-2.264482,3.068624,-2.151159,3.031803,-2.032001,3.031803,-1.918677,3.068624,-1.822276,3.138663,-1.752237,3.235064,-1.715337,3.348627,-1.712998,3.408455,
-1.712989,3.408661,-1.710595,3.451725,-1.709376,3.456455,-1.672006,3.534054,-1.668538,3.538403,-1.601200,3.592104,-1.596187,3.594518,-1.512218,3.613683,-1.506656,3.613683,-1.422687,3.594518,-1.417674,3.592104,-1.350336,3.538403,-1.346868,3.534054,-1.309498,3.456455,-1.308279,3.451725,-1.305884,3.408661,-1.305870,3.407617,-1.308300,3.320771,-1.308608,3.318339,-1.347259,3.149001,
-1.348184,3.146359,-1.423546,2.989867,-1.425035,2.987497,-1.533331,2.851699,-1.535310,2.849720,-1.671109,2.741424,-1.673479,2.739935,-1.829971,2.664573,-1.832614,2.663648,-2.001952,2.624998,-2.004733,2.624685,-2.178425,2.624685,-2.181206,2.624998,-2.350544,2.663648,-2.353187,2.664573,-2.509679,2.739935,-2.512049,2.741424,-2.647848,2.849720,-2.649827,2.851699,-2.758123,2.987497,
-2.759612,2.989867,-2.834974,3.146359,-2.835899,3.149001,-2.874550,3.318339,-2.874858,3.320771,-2.877289,3.407617,-2.877291,3.408239,-2.874711,3.526592,-2.874524,3.528491,-2.833421,3.761600,-2.832857,3.763704,-2.751899,3.986135,-2.750978,3.988110,-2.632625,4.193103,-2.631376,4.194888,-2.479224,4.376214,-2.477683,4.377755,-2.296357,4.529907,-2.294572,4.531156,-2.089579,4.649509,
-2.087604,4.650430,-1.865173,4.731388,-1.863069,4.731952,-1.629960,4.773055,-1.627789,4.773245,-1.391083,4.773245,-1.388912,4.773055,-1.155803,4.731952,-1.153699,4.731388,-0.931268,4.650430,-0.929293,4.649509,-0.724300,4.531156,-0.722515,4.529907,-0.541189,4.377755,-0.539648,4.376214,-0.387496,4.194888,-0.386247,4.193103,-0.267894,3.988110,-0.266973,3.986135,-0.186015,3.763704,
-0.185451,3.761600,-0.144348,3.528491,-0.144161,3.526592,-0.141582,3.408239,-0.141581,3.407744,-0.144049,3.269348,-0.144174,3.267792,-0.183566,2.993817,-0.183945,2.992074,-0.261926,2.726493,-0.262550,2.724822,-0.377534,2.473043,-0.378388,2.471478,-0.528033,2.238626,-0.529102,2.237198,-0.710363,2.028012,-0.711624,2.026751,-0.920810,1.845490,-0.922238,1.844421,-1.155090,1.694776,
-1.156655,1.693922,-1.408434,1.578938,-1.410105,1.578314,-1.675686,1.500333,-1.677429,1.499954,-1.951404,1.460562,-1.953183,1.460435,-2.229975,1.460435,-2.231754,1.460562,-2.505729,1.499954,-2.507472,1.500333,-2.773053,1.578314,-2.774724,1.578938,-3.026503,1.693922,-3.028068,1.694776,-3.260920,1.844421,-3.262348,1.845490,-3.471534,2.026751,-3.472795,2.028012,-3.654056,2.237198,
-3.655125,2.238626,-3.804770,2.471478,-3.805624,2.473043,-3.920608,2.724822,-3.921232,2.726493,-3.999213,2.992074,-3.999592,2.993817,-4.038984,3.267792,-4.039109,3.269348,-4.041577,3.407744,-4.041578,3.408155,-4.039196,3.566528,-4.039098,3.567907,-3.999399,3.882154,-3.999105,3.883696,-3.920334,4.190490,-3.919849,4.191983,-3.803248,4.486486,-3.802580,4.487906,-3.649986,4.765472,
-3.649145,4.766797,-3.462967,5.023049,-3.461966,5.024259,-3.245139,5.255156,-3.243995,5.256230,-2.999939,5.458131,-2.998669,5.459054,-2.731232,5.628775,-2.729856,5.629531,-2.443257,5.764395,-2.441798,5.764973,-2.140555,5.862852,-2.139034,5.863243,-1.827899,5.922595,-1.826342,5.922791,-1.510222,5.942680,-1.508652,5.942680,-1.192532,5.922791,-1.190975,5.922595,-0.879840,5.863243,
-0.878319,5.862852,-0.577076,5.764973,-0.575617,5.764395,-0.289018,5.629531,-0.287642,5.628775,-0.020205,5.459054,-0.018935,5.458131,0.225121,5.256230,0.226265,5.255156,0.443092,5.024259,0.444093,5.023049,0.630271,4.766797,0.631112,4.765472,0.783706,4.487906,0.784374,4.486486,0.900975,4.191983,0.901460,4.190490,0.980231,3.883696,0.980525,3.882154,1.020224,3.567907,
1.020322,3.566528,1.022705,3.408155,1.022705,3.407798,1.020354,3.233737,1.020276,3.232506,0.981299,2.886574,0.981065,2.885192,0.903601,2.545799,0.903213,2.544453,0.788236,2.215867,0.787699,2.214571,0.636655,1.900925,0.635977,1.899699,0.450765,1.604936,0.449954,1.603792,0.232904,1.331620,0.231970,1.330575,-0.014189,1.084417,-0.015234,1.083483,-0.287406,0.866433,
-0.288550,0.865622,-0.583312,0.680410,-0.584538,0.679732,-0.898185,0.528688,-0.899481,0.528151,-1.228066,0.413174,-1.229412,0.412786,-1.568805,0.335321,-1.570187,0.335087,-1.916119,0.296110,-1.917519,0.296031,-2.265641,0.296031,-2.267041,0.296110,-2.612973,0.335087,-2.614355,0.335321,-2.953748,0.412786,-2.955094,0.413174,-3.283679,0.528151,-3.284975,0.528688,-3.598622,0.679732,
-3.599848,0.680410,-3.894610,0.865622,-3.895754,0.866433,-4.167926,1.083483,-4.168971,1.084417,-4.415130,1.330575,-4.416064,1.331620,-4.633114,1.603792,-4.633925,1.604936,-4.819137,1.899699,-4.819815,1.900925,-4.970859,2.214571,-4.971396,2.215867,-5.086373,2.544453,-5.086761,2.545799,-5.164225,2.885192,-5.164459,2.886574,-5.203436,3.232506,-5.203514,3.233737,-5.205864,3.407798,
-5.205864,3.408125,-5.203427,3.601064,-5.203360,3.602213,-5.163025,3.985977,-5.162820,3.987269,-5.082592,4.364714,-5.082253,4.365978,-4.963010,4.732969,-4.962541,4.734190,-4.805591,5.086707,-4.804997,5.087873,-4.612058,5.422053,-4.611346,5.423150,-4.384533,5.735332,-4.383709,5.736349,-4.125506,6.023112,-4.124581,6.024037,-3.837818,6.282239,-3.836801,6.283063,-3.524620,6.509876,
-3.523523,6.510588,-3.189343,6.703527,-3.188177,6.704121,-2.835660,6.861072,-2.834439,6.861541,-2.467448,6.980784,-2.466184,6.981123,-2.088739,7.061351,-2.087447,7.061556,-1.703683,7.101891,-1.702376,7.101959,-1.316498,7.101959,-1.315191,7.101891,-1.315191,7.101891,$1*%
G04 Aperture macros list end*
%ADD10C,0.000000*%
%ADD11C,0.250000*%
%ADD12C,4.012500*%
%ADD13C,3.150000*%
%ADD14C,0.010000*%
%ADD15R,1.200000X1.400000*%
%ADD16RoundRect,0.135000X0.185000X-0.135000X0.185000X0.135000X-0.185000X0.135000X-0.185000X-0.135000X0*%
%ADD17RoundRect,0.140000X0.170000X-0.140000X0.170000X0.140000X-0.170000X0.140000X-0.170000X-0.140000X0*%
%ADD18RoundRect,0.140000X-0.170000X0.140000X-0.170000X-0.140000X0.170000X-0.140000X0.170000X0.140000X0*%
%ADD19RoundRect,0.100000X0.100000X-0.130000X0.100000X0.130000X-0.100000X0.130000X-0.100000X-0.130000X0*%
%ADD20RoundRect,0.135000X0.135000X0.185000X-0.135000X0.185000X-0.135000X-0.185000X0.135000X-0.185000X0*%
%ADD21RoundRect,0.140000X-0.140000X-0.170000X0.140000X-0.170000X0.140000X0.170000X-0.140000X0.170000X0*%
%ADD22RoundRect,0.250000X0.475000X-0.250000X0.475000X0.250000X-0.475000X0.250000X-0.475000X-0.250000X0*%
%ADD23RoundRect,0.100000X-0.130000X-0.100000X0.130000X-0.100000X0.130000X0.100000X-0.130000X0.100000X0*%
%ADD24R,0.550000X0.500000*%
%ADD25RoundRect,0.100000X0.130000X0.100000X-0.130000X0.100000X-0.130000X-0.100000X0.130000X-0.100000X0*%
%ADD26RoundRect,0.200000X-0.275000X0.200000X-0.275000X-0.200000X0.275000X-0.200000X0.275000X0.200000X0*%
%ADD27RoundRect,0.200000X0.275000X-0.200000X0.275000X0.200000X-0.275000X0.200000X-0.275000X-0.200000X0*%
%ADD28R,1.350000X1.350000*%
%ADD29O,1.350000X1.350000*%
%ADD30RoundRect,0.250000X0.375000X0.850000X-0.375000X0.850000X-0.375000X-0.850000X0.375000X-0.850000X0*%
%ADD31FreePoly0,180.000000*%
%ADD32FreePoly1,180.000000*%
%ADD33RoundRect,0.150000X0.150000X0.200000X-0.150000X0.200000X-0.150000X-0.200000X0.150000X-0.200000X0*%
%ADD34R,0.745000X0.280000*%
%ADD35R,0.280000X0.745000*%
%ADD36RoundRect,0.100000X-0.100000X0.130000X-0.100000X-0.130000X0.100000X-0.130000X0.100000X0.130000X0*%
%ADD37RoundRect,0.135000X-0.135000X-0.185000X0.135000X-0.185000X0.135000X0.185000X-0.135000X0.185000X0*%
%ADD38RoundRect,0.225000X-0.225000X-0.250000X0.225000X-0.250000X0.225000X0.250000X-0.225000X0.250000X0*%
%ADD39RoundRect,0.050000X0.075000X-0.225000X0.075000X0.225000X-0.075000X0.225000X-0.075000X-0.225000X0*%
%ADD40RoundRect,0.050000X0.050000X-0.225000X0.050000X0.225000X-0.050000X0.225000X-0.050000X-0.225000X0*%
%ADD41RoundRect,0.050000X0.250000X-0.100000X0.250000X0.100000X-0.250000X0.100000X-0.250000X-0.100000X0*%
%ADD42RoundRect,0.150000X-0.587500X-0.150000X0.587500X-0.150000X0.587500X0.150000X-0.587500X0.150000X0*%
%ADD43RoundRect,0.150000X0.587500X0.150000X-0.587500X0.150000X-0.587500X-0.150000X0.587500X-0.150000X0*%
%ADD44RoundRect,0.250000X-0.425000X0.450000X-0.425000X-0.450000X0.425000X-0.450000X0.425000X0.450000X0*%
%ADD45RoundRect,0.135000X-0.185000X0.135000X-0.185000X-0.135000X0.185000X-0.135000X0.185000X0.135000X0*%
%ADD46RotRect,0.550000X0.550000X357.000000*%
%ADD47C,2.450000*%
%ADD48C,1.600000*%
%ADD49C,1.250000*%
%ADD50C,2.000000*%
%ADD51R,1.300000X0.600000*%
%ADD52R,2.300000X3.200000*%
%ADD53RoundRect,0.140000X0.140000X0.170000X-0.140000X0.170000X-0.140000X-0.170000X0.140000X-0.170000X0*%
%ADD54R,0.550000X0.550000*%
%ADD55C,0.230000*%
%ADD56RoundRect,0.250000X-0.475000X0.250000X-0.475000X-0.250000X0.475000X-0.250000X0.475000X0.250000X0*%
%ADD57HorizOval,2.250000X-0.250000X0.433013X0.250000X-0.433013X0*%
%ADD58HorizOval,1.700000X0.259808X0.150000X-0.259808X-0.150000X0*%
%ADD59RoundRect,0.150000X-0.200000X0.150000X-0.200000X-0.150000X0.200000X-0.150000X0.200000X0.150000X0*%
%ADD60HorizOval,2.250000X-0.250000X-0.433013X0.250000X0.433013X0*%
%ADD61HorizOval,1.700000X0.259808X-0.150000X-0.259808X0.150000X0*%
%ADD62RoundRect,0.150000X-0.150000X-0.200000X0.150000X-0.200000X0.150000X0.200000X-0.150000X0.200000X0*%
%ADD63R,0.750000X1.000000*%
%ADD64RoundRect,0.150000X-0.150000X0.587500X-0.150000X-0.587500X0.150000X-0.587500X0.150000X0.587500X0*%
%ADD65C,1.500000*%
%ADD66RoundRect,0.100000X-0.225000X-0.100000X0.225000X-0.100000X0.225000X0.100000X-0.225000X0.100000X0*%
%ADD67RoundRect,0.050000X0.050000X-0.387500X0.050000X0.387500X-0.050000X0.387500X-0.050000X-0.387500X0*%
%ADD68RoundRect,0.050000X0.387500X-0.050000X0.387500X0.050000X-0.387500X0.050000X-0.387500X-0.050000X0*%
%ADD69R,3.200000X3.200000*%
%ADD70RoundRect,0.250000X0.250000X-0.250000X0.250000X0.250000X-0.250000X0.250000X-0.250000X-0.250000X0*%
%ADD71RoundRect,0.100000X0.100000X-0.225000X0.100000X0.225000X-0.100000X0.225000X-0.100000X-0.225000X0*%
%ADD72R,1.500000X1.000000*%
%ADD73RoundRect,0.100000X-0.712500X-0.100000X0.712500X-0.100000X0.712500X0.100000X-0.712500X0.100000X0*%
%ADD74RoundRect,0.100000X0.225000X0.100000X-0.225000X0.100000X-0.225000X-0.100000X0.225000X-0.100000X0*%
%ADD75R,1.000000X0.750000*%
%ADD76RoundRect,0.237500X-0.300000X-0.237500X0.300000X-0.237500X0.300000X0.237500X-0.300000X0.237500X0*%
%ADD77RoundRect,0.225000X0.250000X-0.225000X0.250000X0.225000X-0.250000X0.225000X-0.250000X-0.225000X0*%
%ADD78RoundRect,0.250000X-0.250000X0.250000X-0.250000X-0.250000X0.250000X-0.250000X0.250000X0.250000X0*%
%ADD79RoundRect,0.237500X0.237500X-0.300000X0.237500X0.300000X-0.237500X0.300000X-0.237500X-0.300000X0*%
%ADD80R,0.800000X0.400000*%
%ADD81R,0.400000X0.800000*%
%ADD82R,1.450000X1.450000*%
%ADD83R,0.700000X0.700000*%
%ADD84R,0.700000X0.300000*%
%ADD85R,1.000000X0.300000*%
%ADD86RoundRect,0.250000X0.250000X0.250000X-0.250000X0.250000X-0.250000X-0.250000X0.250000X-0.250000X0*%
%ADD87R,0.300000X0.400000*%
%ADD88R,1.600000X0.200000*%
%ADD89O,1.947800X3.250000*%
%ADD90RoundRect,0.250000X0.625000X-0.350000X0.625000X0.350000X-0.625000X0.350000X-0.625000X-0.350000X0*%
%ADD91O,1.750000X1.200000*%
%ADD92O,1.600000X2.500000*%
%ADD93RoundRect,0.250000X-0.350000X-0.625000X0.350000X-0.625000X0.350000X0.625000X-0.350000X0.625000X0*%
%ADD94O,1.200000X1.750000*%
%ADD95C,0.700000*%
%ADD96C,0.804000*%
%ADD97O,1.204000X2.204000*%
%ADD98C,1.104000*%
G04 APERTURE END LIST*
D10*
G36*
X196138800Y-143103600D02*
G01*
X196262106Y-143187192D01*
X196376141Y-143272142D01*
X196481154Y-143358278D01*
X196577394Y-143445426D01*
X196665108Y-143533414D01*
X196744545Y-143622068D01*
X196815953Y-143711215D01*
X196879580Y-143800682D01*
X196935676Y-143890295D01*
X196984487Y-143979881D01*
X197026263Y-144069268D01*
X197061251Y-144158282D01*
X197089701Y-144246749D01*
X197111859Y-144334497D01*
X197127975Y-144421352D01*
X197138297Y-144507142D01*
X197143073Y-144591692D01*
X197142551Y-144674831D01*
X197136980Y-144756384D01*
X197126607Y-144836178D01*
X197111682Y-144914040D01*
X197092453Y-144989798D01*
X197069167Y-145063277D01*
X197042074Y-145134305D01*
X197011420Y-145202708D01*
X196977456Y-145268313D01*
X196940428Y-145330948D01*
X196900586Y-145390438D01*
X196858177Y-145446611D01*
X196813450Y-145499293D01*
X196766653Y-145548312D01*
X196745009Y-145570862D01*
X196724729Y-145593834D01*
X196705823Y-145617187D01*
X196688299Y-145640877D01*
X196672165Y-145664863D01*
X196657430Y-145689103D01*
X196644103Y-145713553D01*
X196632191Y-145738171D01*
X196621704Y-145762915D01*
X196612650Y-145787743D01*
X196605036Y-145812612D01*
X196598873Y-145837480D01*
X196594168Y-145862305D01*
X196590929Y-145887043D01*
X196589166Y-145911653D01*
X196588886Y-145936092D01*
X196590099Y-145960318D01*
X196592812Y-145984288D01*
X196597035Y-146007961D01*
X196602775Y-146031293D01*
X196610041Y-146054242D01*
X196618841Y-146076766D01*
X196629185Y-146098823D01*
X196641080Y-146120370D01*
X196654535Y-146141365D01*
X196669558Y-146161764D01*
X196686159Y-146181527D01*
X196704345Y-146200611D01*
X196724124Y-146218972D01*
X196745506Y-146236569D01*
X196768499Y-146253360D01*
X196793112Y-146269302D01*
X196825068Y-146286463D01*
X196857609Y-146300782D01*
X196890622Y-146312326D01*
X196923995Y-146321159D01*
X196957615Y-146327347D01*
X196991370Y-146330955D01*
X197025146Y-146332049D01*
X197058832Y-146330693D01*
X197092314Y-146326954D01*
X197125480Y-146320897D01*
X197158217Y-146312588D01*
X197190413Y-146302090D01*
X197221955Y-146289471D01*
X197252730Y-146274795D01*
X197282626Y-146258129D01*
X197311530Y-146239536D01*
X197339329Y-146219083D01*
X197365911Y-146196835D01*
X197391163Y-146172858D01*
X197414973Y-146147216D01*
X197437228Y-146119976D01*
X197457814Y-146091202D01*
X197476621Y-146060960D01*
X197493534Y-146029316D01*
X197508442Y-145996335D01*
X197521231Y-145962082D01*
X197531789Y-145926623D01*
X197540004Y-145890022D01*
X197545763Y-145852347D01*
X197548952Y-145813661D01*
X197549460Y-145774030D01*
X197547174Y-145733520D01*
X197539223Y-145612543D01*
X197537821Y-145497747D01*
X197539637Y-145442709D01*
X197543163Y-145389268D01*
X197548423Y-145337440D01*
X197555443Y-145287243D01*
X197564244Y-145238692D01*
X197574853Y-145191806D01*
X197587294Y-145146601D01*
X197601590Y-145103094D01*
X197617765Y-145061302D01*
X197635845Y-145021241D01*
X197655852Y-144982930D01*
X197677812Y-144946385D01*
X197701749Y-144911622D01*
X197727687Y-144878660D01*
X197755649Y-144847514D01*
X197785661Y-144818202D01*
X197817746Y-144790740D01*
X197851930Y-144765146D01*
X197888235Y-144741437D01*
X197926686Y-144719629D01*
X197967308Y-144699739D01*
X198010124Y-144681785D01*
X198055159Y-144665784D01*
X198102438Y-144651752D01*
X198151983Y-144639706D01*
X198203820Y-144629663D01*
X198257973Y-144621641D01*
X198314466Y-144615656D01*
X198270534Y-144703884D01*
X198235162Y-144787712D01*
X198207881Y-144867472D01*
X198188220Y-144943491D01*
X198175711Y-145016100D01*
X198169882Y-145085627D01*
X198170264Y-145152403D01*
X198176387Y-145216756D01*
X198187780Y-145279016D01*
X198203975Y-145339513D01*
X198224501Y-145398576D01*
X198248889Y-145456535D01*
X198276667Y-145513718D01*
X198307367Y-145570455D01*
X198375651Y-145683911D01*
X198526598Y-145919969D01*
X198601742Y-146047842D01*
X198637586Y-146115393D01*
X198671653Y-146185792D01*
X198703472Y-146259370D01*
X198732573Y-146336455D01*
X198758487Y-146417377D01*
X198780742Y-146502465D01*
X198798870Y-146592050D01*
X198812401Y-146686459D01*
X198820863Y-146786024D01*
X198823789Y-146891072D01*
X198817211Y-147057675D01*
X198797214Y-147228920D01*
X198763400Y-147403090D01*
X198715372Y-147578472D01*
X198652732Y-147753350D01*
X198575083Y-147926009D01*
X198530506Y-148010971D01*
X198482028Y-148094734D01*
X198429600Y-148177086D01*
X198373170Y-148257810D01*
X198312691Y-148336694D01*
X198248112Y-148413523D01*
X198179383Y-148488082D01*
X198106455Y-148560156D01*
X198029279Y-148629533D01*
X197947804Y-148695996D01*
X197861981Y-148759332D01*
X197771760Y-148819327D01*
X197677092Y-148875765D01*
X197577927Y-148928433D01*
X197474215Y-148977117D01*
X197365906Y-149021601D01*
X197252952Y-149061672D01*
X197135302Y-149097115D01*
X197012907Y-149127716D01*
X196885716Y-149153260D01*
X196944182Y-149123357D01*
X196998112Y-149090770D01*
X197047625Y-149055606D01*
X197092835Y-149017971D01*
X197133860Y-148977972D01*
X197170815Y-148935715D01*
X197203817Y-148891307D01*
X197232981Y-148844855D01*
X197258426Y-148796465D01*
X197280265Y-148746243D01*
X197298617Y-148694297D01*
X197313597Y-148640733D01*
X197325321Y-148585657D01*
X197333906Y-148529176D01*
X197339467Y-148471397D01*
X197342122Y-148412426D01*
X197342244Y-148369209D01*
X197340154Y-148326438D01*
X197335885Y-148284213D01*
X197329474Y-148242631D01*
X197320956Y-148201789D01*
X197310365Y-148161788D01*
X197297738Y-148122723D01*
X197283108Y-148084695D01*
X197266511Y-148047799D01*
X197247982Y-148012136D01*
X197227557Y-147977802D01*
X197205270Y-147944897D01*
X197181157Y-147913517D01*
X197155252Y-147883762D01*
X197127591Y-147855729D01*
X197098210Y-147829516D01*
X197067142Y-147805222D01*
X197034423Y-147782945D01*
X197000089Y-147762782D01*
X196964174Y-147744832D01*
X196926713Y-147729192D01*
X196887743Y-147715962D01*
X196847297Y-147705239D01*
X196805411Y-147697121D01*
X196762120Y-147691707D01*
X196717459Y-147689094D01*
X196671464Y-147689380D01*
X196624169Y-147692664D01*
X196575609Y-147699044D01*
X196525820Y-147708618D01*
X196474837Y-147721483D01*
X196422695Y-147737739D01*
X196369093Y-147753623D01*
X196316259Y-147765360D01*
X196264305Y-147773027D01*
X196213341Y-147776703D01*
X196163476Y-147776464D01*
X196114821Y-147772388D01*
X196067487Y-147764552D01*
X196021583Y-147753035D01*
X195977219Y-147737913D01*
X195934506Y-147719264D01*
X195893555Y-147697166D01*
X195854474Y-147671696D01*
X195817375Y-147642932D01*
X195782368Y-147610951D01*
X195749562Y-147575830D01*
X195719069Y-147537648D01*
X195690998Y-147496481D01*
X195665459Y-147452407D01*
X195642564Y-147405505D01*
X195622421Y-147355850D01*
X195605142Y-147303521D01*
X195590835Y-147248596D01*
X195579613Y-147191151D01*
X195571584Y-147131264D01*
X195566860Y-147069014D01*
X195565550Y-147004476D01*
X195567764Y-146937730D01*
X195573613Y-146868851D01*
X195583207Y-146797919D01*
X195596655Y-146725010D01*
X195614070Y-146650202D01*
X195635560Y-146573572D01*
X195548400Y-146655017D01*
X195467939Y-146739189D01*
X195394094Y-146825832D01*
X195326780Y-146914688D01*
X195265915Y-147005502D01*
X195211414Y-147098017D01*
X195163195Y-147191975D01*
X195121173Y-147287120D01*
X195085265Y-147383196D01*
X195055387Y-147479945D01*
X195031456Y-147577110D01*
X195013389Y-147674435D01*
X195001101Y-147771664D01*
X194994509Y-147868538D01*
X194993530Y-147964803D01*
X194998079Y-148060200D01*
X195008075Y-148154473D01*
X195023432Y-148247365D01*
X195044067Y-148338620D01*
X195069897Y-148427981D01*
X195100838Y-148515191D01*
X195136806Y-148599993D01*
X195177719Y-148682130D01*
X195223492Y-148761346D01*
X195274042Y-148837384D01*
X195329285Y-148909987D01*
X195389138Y-148978898D01*
X195453517Y-149043861D01*
X195522338Y-149104619D01*
X195595519Y-149160914D01*
X195672975Y-149212491D01*
X195754622Y-149259093D01*
X195562023Y-149210582D01*
X195382129Y-149154631D01*
X195214623Y-149091667D01*
X195059187Y-149022118D01*
X194915504Y-148946411D01*
X194783257Y-148864975D01*
X194662129Y-148778236D01*
X194551802Y-148686622D01*
X194451958Y-148590560D01*
X194362282Y-148490479D01*
X194282454Y-148386805D01*
X194212158Y-148279967D01*
X194151077Y-148170391D01*
X194098893Y-148058506D01*
X194055289Y-147944738D01*
X194019948Y-147829516D01*
X193992552Y-147713267D01*
X193972783Y-147596418D01*
X193960326Y-147479398D01*
X193954861Y-147362633D01*
X193956073Y-147246551D01*
X193963643Y-147131579D01*
X193977255Y-147018146D01*
X193996590Y-146906679D01*
X194021332Y-146797604D01*
X194051164Y-146691351D01*
X194085767Y-146588346D01*
X194124825Y-146489017D01*
X194168021Y-146393791D01*
X194215036Y-146303096D01*
X194265554Y-146217360D01*
X194319258Y-146137010D01*
X194404424Y-146023893D01*
X194493330Y-145917307D01*
X194585375Y-145816651D01*
X194679959Y-145721325D01*
X194776481Y-145630726D01*
X194874340Y-145544255D01*
X194972936Y-145461311D01*
X195071667Y-145381294D01*
X195455932Y-145078470D01*
X195546331Y-145004072D01*
X195633260Y-144928996D01*
X195716120Y-144852641D01*
X195794310Y-144774406D01*
X195861363Y-144701235D01*
X195923320Y-144625293D01*
X195979734Y-144546135D01*
X196030161Y-144463314D01*
X196074154Y-144376384D01*
X196111267Y-144284901D01*
X196141055Y-144188418D01*
X196163073Y-144086489D01*
X196176874Y-143978669D01*
X196182012Y-143864513D01*
X196178043Y-143743574D01*
X196164520Y-143615407D01*
X196140997Y-143479566D01*
X196107030Y-143335605D01*
X196062171Y-143183079D01*
X196005976Y-143021541D01*
X196138800Y-143103600D01*
G37*
D11*
G36*
X157511120Y-120897906D02*
G01*
X156894163Y-120897906D01*
X156894163Y-121382093D01*
X157099327Y-121382093D01*
X157099327Y-121135017D01*
X157167492Y-121146495D01*
X157228699Y-121178866D01*
X157271687Y-121219568D01*
X157305075Y-121270838D01*
X157326697Y-121330886D01*
X157334386Y-121397920D01*
X157325457Y-121471223D01*
X157300374Y-121533548D01*
X157261697Y-121585267D01*
X157211984Y-121626751D01*
X157153794Y-121658371D01*
X157089687Y-121680497D01*
X157022220Y-121693500D01*
X156953953Y-121697752D01*
X156884804Y-121694654D01*
X156822151Y-121685542D01*
X156748835Y-121664522D01*
X156687343Y-121633967D01*
X156637836Y-121594537D01*
X156600470Y-121546892D01*
X156575403Y-121491690D01*
X156562794Y-121429591D01*
X156561211Y-121396161D01*
X156569105Y-121328350D01*
X156591474Y-121267398D01*
X156626346Y-121216329D01*
X156671752Y-121178170D01*
X156735410Y-121154004D01*
X156745272Y-121152602D01*
X156745272Y-120898785D01*
X156681452Y-120908788D01*
X156621852Y-120928293D01*
X156566922Y-120956636D01*
X156517111Y-120993149D01*
X156472868Y-121037166D01*
X156434642Y-121088021D01*
X156402882Y-121145046D01*
X156378038Y-121207575D01*
X156360559Y-121274943D01*
X156350893Y-121346481D01*
X156349013Y-121396161D01*
X156352111Y-121462717D01*
X156361198Y-121525196D01*
X156375966Y-121583569D01*
X156408091Y-121663364D01*
X156451254Y-121733751D01*
X156504412Y-121794629D01*
X156566519Y-121845896D01*
X156636531Y-121887451D01*
X156713403Y-121919192D01*
X156796091Y-121941018D01*
X156883549Y-121952828D01*
X156943988Y-121955087D01*
X157031125Y-121949858D01*
X157115889Y-121934461D01*
X157196925Y-121909330D01*
X157272882Y-121874901D01*
X157342404Y-121831608D01*
X157404140Y-121779885D01*
X157456736Y-121720168D01*
X157498838Y-121652891D01*
X157529093Y-121578489D01*
X157546147Y-121497396D01*
X157549515Y-121439832D01*
X157545484Y-121369114D01*
X157534099Y-121303371D01*
X157516418Y-121244187D01*
X157488383Y-121184050D01*
X157448592Y-121132359D01*
X157423486Y-121113328D01*
X157512000Y-121109518D01*
X157511120Y-120897906D01*
G37*
G36*
X157111930Y-120084577D02*
G01*
X157173520Y-120103525D01*
X157234007Y-120135481D01*
X157279665Y-120177800D01*
X157310298Y-120230807D01*
X157325709Y-120294826D01*
X157327645Y-120331067D01*
X157321255Y-120392925D01*
X157295718Y-120458481D01*
X157251416Y-120511032D01*
X157189133Y-120550652D01*
X157126888Y-120573088D01*
X157054038Y-120587332D01*
X156992685Y-120592663D01*
X156948678Y-120593677D01*
X156884330Y-120591385D01*
X156825303Y-120584458D01*
X156755257Y-120567881D01*
X156695585Y-120542753D01*
X156646807Y-120508893D01*
X156601950Y-120454019D01*
X156575953Y-120384875D01*
X156569418Y-120319050D01*
X156576809Y-120260282D01*
X156603631Y-120197835D01*
X156641610Y-120151710D01*
X156692862Y-120114413D01*
X156756853Y-120087833D01*
X156768720Y-120084577D01*
X156768720Y-119833398D01*
X156703778Y-119844043D01*
X156642265Y-119862765D01*
X156584827Y-119889277D01*
X156532109Y-119923295D01*
X156484758Y-119964533D01*
X156443421Y-120012705D01*
X156408744Y-120067526D01*
X156381372Y-120128710D01*
X156361952Y-120195973D01*
X156351131Y-120269028D01*
X156349013Y-120320809D01*
X156351754Y-120380070D01*
X156365931Y-120463480D01*
X156391767Y-120539931D01*
X156428794Y-120608995D01*
X156476541Y-120670241D01*
X156534539Y-120723241D01*
X156602319Y-120767567D01*
X156679412Y-120802790D01*
X156735748Y-120821002D01*
X156795875Y-120834850D01*
X156859655Y-120844208D01*
X156926947Y-120848947D01*
X156961867Y-120849546D01*
X157031498Y-120846896D01*
X157096932Y-120839107D01*
X157158129Y-120826418D01*
X157215048Y-120809067D01*
X157292314Y-120774824D01*
X157359725Y-120731439D01*
X157417143Y-120679718D01*
X157464430Y-120620468D01*
X157501448Y-120554497D01*
X157528060Y-120482612D01*
X157544129Y-120405619D01*
X157549515Y-120324326D01*
X157545030Y-120252693D01*
X157531837Y-120185665D01*
X157510336Y-120123475D01*
X157480922Y-120066355D01*
X157443992Y-120014536D01*
X157399944Y-119968251D01*
X157349174Y-119927730D01*
X157292080Y-119893207D01*
X157229059Y-119864912D01*
X157160507Y-119843078D01*
X157111930Y-119832226D01*
X157111930Y-120084577D01*
G37*
G36*
X157132446Y-119146392D02*
G01*
X157192855Y-119151428D01*
X157250989Y-119170969D01*
X157299603Y-119212831D01*
X157328231Y-119275767D01*
X157336852Y-119333940D01*
X157337610Y-119360348D01*
X157329297Y-119423097D01*
X157299610Y-119481387D01*
X157250098Y-119522651D01*
X157193233Y-119543700D01*
X157124240Y-119550858D01*
X156386528Y-119550858D01*
X156386528Y-119806727D01*
X157145928Y-119806727D01*
X157218595Y-119802154D01*
X157283955Y-119788693D01*
X157342044Y-119766730D01*
X157392894Y-119736649D01*
X157449498Y-119684581D01*
X157493379Y-119619681D01*
X157517991Y-119563134D01*
X157535528Y-119500269D01*
X157546024Y-119431470D01*
X157549515Y-119357124D01*
X157545726Y-119277177D01*
X157534409Y-119204004D01*
X157515641Y-119137845D01*
X157489500Y-119078937D01*
X157456061Y-119027517D01*
X157415402Y-118983824D01*
X157367599Y-118948093D01*
X157312729Y-118920565D01*
X157250870Y-118901475D01*
X157182097Y-118891062D01*
X157132446Y-118889057D01*
X156386528Y-118889057D01*
X156386528Y-119146392D01*
X157132446Y-119146392D01*
G37*
G36*
X156782895Y-117496986D02*
G01*
X156843086Y-117514768D01*
X156895357Y-117542534D01*
X156943188Y-117585507D01*
X156973297Y-117637557D01*
X156978342Y-117623741D01*
X157012838Y-117572048D01*
X157062576Y-117540892D01*
X157123618Y-117525433D01*
X157190771Y-117521200D01*
X157512000Y-117521200D01*
X157512000Y-117768276D01*
X157218908Y-117768276D01*
X157154139Y-117775805D01*
X157103798Y-117812302D01*
X157084570Y-117870001D01*
X157080569Y-117933579D01*
X157080569Y-118173035D01*
X157512000Y-118173035D01*
X157512000Y-118418646D01*
X156386528Y-118418646D01*
X156386528Y-117881702D01*
X156598727Y-117881702D01*
X156598727Y-118173035D01*
X156873646Y-118173035D01*
X156873646Y-117889909D01*
X156869720Y-117839388D01*
X156848291Y-117780121D01*
X156798915Y-117738920D01*
X156737066Y-117728122D01*
X156693390Y-117732751D01*
X156636682Y-117763147D01*
X156606354Y-117818260D01*
X156598727Y-117881702D01*
X156386528Y-117881702D01*
X156386528Y-117843014D01*
X156393065Y-117767457D01*
X156411890Y-117699189D01*
X156441830Y-117639067D01*
X156481710Y-117587951D01*
X156530355Y-117546700D01*
X156586591Y-117516171D01*
X156649243Y-117497225D01*
X156717136Y-117490718D01*
X156782895Y-117496986D01*
G37*
G36*
X157269027Y-116808988D02*
G01*
X157512000Y-116808988D01*
X157512000Y-117046392D01*
X157269027Y-117046392D01*
X157269027Y-117479874D01*
X157067673Y-117479874D01*
X156386528Y-117068960D01*
X156386528Y-117041116D01*
X156735893Y-117041116D01*
X157080569Y-117243935D01*
X157080569Y-117041116D01*
X156735893Y-117041116D01*
X156386528Y-117041116D01*
X156386528Y-116808988D01*
X157080569Y-116808988D01*
X157080569Y-116682958D01*
X157269027Y-116682958D01*
X157269027Y-116808988D01*
G37*
G36*
X157512000Y-115651863D02*
G01*
X156834079Y-116107620D01*
X156386528Y-115656552D01*
X156386528Y-115985987D01*
X156822648Y-116399246D01*
X156386528Y-116399246D01*
X156386528Y-116648374D01*
X157512000Y-116648374D01*
X157512000Y-116399246D01*
X157129808Y-116399246D01*
X157019020Y-116285819D01*
X157512000Y-115958436D01*
X157512000Y-115651863D01*
G37*
G36*
X158985290Y-120974101D02*
G01*
X159046288Y-120978663D01*
X159104571Y-120987643D01*
X159186484Y-121009065D01*
X159261202Y-121039580D01*
X159328072Y-121078679D01*
X159386444Y-121125852D01*
X159435665Y-121180591D01*
X159475083Y-121242388D01*
X159504047Y-121310734D01*
X159521903Y-121385120D01*
X159528000Y-121465038D01*
X159528000Y-121941605D01*
X158402528Y-121941605D01*
X158402528Y-121532156D01*
X158614727Y-121532156D01*
X158614727Y-121695994D01*
X159319612Y-121695994D01*
X159319612Y-121512226D01*
X159313980Y-121443167D01*
X159297039Y-121384552D01*
X159259847Y-121325392D01*
X159204729Y-121281211D01*
X159147633Y-121256151D01*
X159078903Y-121239820D01*
X159019676Y-121233072D01*
X158953833Y-121230858D01*
X158909550Y-121231833D01*
X158849621Y-121237079D01*
X158781393Y-121251558D01*
X158713908Y-121282596D01*
X158664948Y-121329186D01*
X158633173Y-121392589D01*
X158619224Y-121456266D01*
X158614727Y-121532156D01*
X158402528Y-121532156D01*
X158402528Y-121500209D01*
X158403147Y-121471777D01*
X158412297Y-121389726D01*
X158432065Y-121313066D01*
X158462034Y-121242465D01*
X158501787Y-121178594D01*
X158550906Y-121122121D01*
X158608974Y-121073716D01*
X158675574Y-121034049D01*
X158750288Y-121003788D01*
X158832700Y-120983604D01*
X158891711Y-120976077D01*
X158953833Y-120973524D01*
X158985290Y-120974101D01*
G37*
G36*
X159171600Y-120698311D02*
G01*
X159201456Y-120695111D01*
X159262727Y-120676037D01*
X159310314Y-120641801D01*
X159344872Y-120585831D01*
X159355076Y-120523628D01*
X159345882Y-120463926D01*
X159314925Y-120412529D01*
X159262752Y-120382944D01*
X159262752Y-120137920D01*
X159328053Y-120162431D01*
X159385149Y-120194482D01*
X159433886Y-120233505D01*
X159474107Y-120278934D01*
X159505660Y-120330201D01*
X159528389Y-120386741D01*
X159542139Y-120447986D01*
X159546757Y-120513370D01*
X159546298Y-120539184D01*
X159539434Y-120611821D01*
X159524392Y-120677225D01*
X159501239Y-120735361D01*
X159470045Y-120786194D01*
X159416060Y-120842551D01*
X159366366Y-120876208D01*
X159308857Y-120902447D01*
X159243601Y-120921231D01*
X159170666Y-120932528D01*
X159090121Y-120936301D01*
X159020852Y-120932343D01*
X158956432Y-120920617D01*
X158897290Y-120901347D01*
X158843855Y-120874755D01*
X158782228Y-120828297D01*
X158732526Y-120769748D01*
X158703688Y-120718221D01*
X158682557Y-120660414D01*
X158669565Y-120596550D01*
X158665566Y-120533593D01*
X158857113Y-120533593D01*
X158868072Y-120592610D01*
X158904762Y-120646423D01*
X158956626Y-120678665D01*
X159015090Y-120691570D01*
X159015090Y-120373565D01*
X158953691Y-120385210D01*
X158901853Y-120418424D01*
X158867042Y-120474174D01*
X158857113Y-120533593D01*
X158665566Y-120533593D01*
X158665138Y-120526852D01*
X158669639Y-120457452D01*
X158683119Y-120394400D01*
X158705550Y-120337800D01*
X158736901Y-120287758D01*
X158777140Y-120244378D01*
X158826238Y-120207763D01*
X158884165Y-120178019D01*
X158950889Y-120155249D01*
X159026380Y-120139558D01*
X159110609Y-120131050D01*
X159171600Y-120129420D01*
X159171600Y-120698311D01*
G37*
G36*
X158954713Y-119346866D02*
G01*
X158887657Y-119356360D01*
X158829219Y-119375612D01*
X158768442Y-119413906D01*
X158721480Y-119468619D01*
X158693988Y-119524647D01*
X158675562Y-119591932D01*
X158666301Y-119670808D01*
X158665138Y-119714696D01*
X158668023Y-119782698D01*
X158676406Y-119842790D01*
X158695435Y-119911070D01*
X158722556Y-119966394D01*
X158766372Y-120018294D01*
X158819451Y-120052172D01*
X158879914Y-120069264D01*
X158918956Y-120071974D01*
X158980042Y-120064606D01*
X159036243Y-120040572D01*
X159086150Y-119996976D01*
X159110637Y-119963237D01*
X159139353Y-119907336D01*
X159161973Y-119845532D01*
X159178492Y-119789226D01*
X159195633Y-119722548D01*
X159204720Y-119684801D01*
X159221153Y-119624537D01*
X159252843Y-119571546D01*
X159288251Y-119559357D01*
X159341649Y-119590510D01*
X159360486Y-119649042D01*
X159363575Y-119696231D01*
X159357688Y-119757311D01*
X159332837Y-119815849D01*
X159282468Y-119852169D01*
X159240770Y-119858311D01*
X159240770Y-120102456D01*
X159306090Y-120094386D01*
X159365242Y-120073289D01*
X159417442Y-120039545D01*
X159461907Y-119993536D01*
X159497855Y-119935643D01*
X159524501Y-119866247D01*
X159537910Y-119806881D01*
X159545317Y-119741420D01*
X159546757Y-119694473D01*
X159543961Y-119630274D01*
X159535699Y-119571800D01*
X159516511Y-119502962D01*
X159488400Y-119444834D01*
X159451819Y-119397723D01*
X159394873Y-119354793D01*
X159326286Y-119330150D01*
X159263631Y-119324005D01*
X159198627Y-119331374D01*
X159139552Y-119356988D01*
X159094600Y-119399545D01*
X159061573Y-119457589D01*
X159058174Y-119465861D01*
X159038421Y-119525906D01*
X159021936Y-119586906D01*
X159007190Y-119644615D01*
X158991161Y-119705037D01*
X158988711Y-119713817D01*
X158971167Y-119771079D01*
X158943537Y-119824310D01*
X158905180Y-119841311D01*
X158857309Y-119803666D01*
X158847588Y-119743018D01*
X158847148Y-119721437D01*
X158852314Y-119659636D01*
X158880548Y-119604927D01*
X158933985Y-119579339D01*
X158956178Y-119575184D01*
X158954713Y-119346866D01*
G37*
G36*
X159528000Y-119038827D02*
G01*
X158683896Y-119038827D01*
X158683896Y-119275938D01*
X159528000Y-119275938D01*
X159528000Y-119038827D01*
G37*
G36*
X158605934Y-119038827D02*
G01*
X158383771Y-119038827D01*
X158383771Y-119275938D01*
X158605934Y-119275938D01*
X158605934Y-119038827D01*
G37*
G36*
X159568165Y-118147355D02*
G01*
X159634360Y-118158389D01*
X159693908Y-118178146D01*
X159746731Y-118205924D01*
X159806574Y-118254229D01*
X159854152Y-118313884D01*
X159889286Y-118383229D01*
X159907363Y-118440596D01*
X159918264Y-118501777D01*
X159921914Y-118566071D01*
X159918330Y-118630149D01*
X159907706Y-118690599D01*
X159882927Y-118764545D01*
X159846439Y-118829617D01*
X159798703Y-118884431D01*
X159740178Y-118927604D01*
X159671326Y-118957751D01*
X159613185Y-118970980D01*
X159549688Y-118975519D01*
X159549688Y-118753356D01*
X159569464Y-118752586D01*
X159628957Y-118738231D01*
X159678157Y-118701272D01*
X159706917Y-118644787D01*
X159714992Y-118581311D01*
X159711881Y-118540447D01*
X159692119Y-118476947D01*
X159655490Y-118426894D01*
X159603578Y-118394082D01*
X159537965Y-118382302D01*
X159448865Y-118382302D01*
X159485068Y-118422215D01*
X159509080Y-118478129D01*
X159523510Y-118540157D01*
X159528000Y-118599776D01*
X159527378Y-118625352D01*
X159518363Y-118695863D01*
X159499453Y-118757376D01*
X159471710Y-118810303D01*
X159422820Y-118868235D01*
X159362640Y-118912625D01*
X159293691Y-118944454D01*
X159218494Y-118964704D01*
X159159513Y-118972885D01*
X159099500Y-118975519D01*
X159029728Y-118971229D01*
X158964510Y-118958784D01*
X158904350Y-118938826D01*
X158849752Y-118911995D01*
X158786478Y-118866636D01*
X158735185Y-118811714D01*
X158697067Y-118748749D01*
X158673320Y-118679258D01*
X158665138Y-118604759D01*
X158669736Y-118552882D01*
X158870889Y-118552882D01*
X158871768Y-118574286D01*
X158888944Y-118638371D01*
X158928737Y-118685579D01*
X158981532Y-118712582D01*
X159039137Y-118725575D01*
X159109465Y-118729909D01*
X159171804Y-118724651D01*
X159234936Y-118705468D01*
X159290911Y-118667608D01*
X159325954Y-118615794D01*
X159338076Y-118552882D01*
X159326650Y-118490285D01*
X159293624Y-118438401D01*
X159240876Y-118400287D01*
X159181389Y-118380893D01*
X159122654Y-118375561D01*
X159106640Y-118375730D01*
X159034880Y-118381653D01*
X158966616Y-118400059D01*
X158910688Y-118437360D01*
X158879229Y-118492004D01*
X158870889Y-118552882D01*
X158669736Y-118552882D01*
X158670971Y-118538943D01*
X158690297Y-118474447D01*
X158720465Y-118422889D01*
X158763910Y-118382302D01*
X158683896Y-118382302D01*
X158683896Y-118145191D01*
X159520379Y-118145191D01*
X159568165Y-118147355D01*
G37*
G36*
X159528000Y-117300795D02*
G01*
X158949730Y-117300795D01*
X158884740Y-117306337D01*
X158827735Y-117322324D01*
X158768029Y-117355535D01*
X158721536Y-117401698D01*
X158688666Y-117458940D01*
X158669830Y-117525389D01*
X158665138Y-117583921D01*
X158668857Y-117643930D01*
X158682170Y-117706628D01*
X158707722Y-117766553D01*
X158746777Y-117817018D01*
X158780616Y-117841842D01*
X158683896Y-117841842D01*
X158683896Y-118068695D01*
X159528000Y-118068695D01*
X159528000Y-117831584D01*
X159045864Y-117831584D01*
X158983872Y-117826207D01*
X158928383Y-117806015D01*
X158886648Y-117763884D01*
X158867434Y-117700613D01*
X158865906Y-117671263D01*
X158872501Y-117608413D01*
X158910775Y-117557707D01*
X158967782Y-117542105D01*
X159018900Y-117539665D01*
X159528000Y-117539665D01*
X159528000Y-117300795D01*
G37*
G36*
X159171600Y-117005359D02*
G01*
X159201456Y-117002159D01*
X159262727Y-116983085D01*
X159310314Y-116948849D01*
X159344872Y-116892879D01*
X159355076Y-116830676D01*
X159345882Y-116770974D01*
X159314925Y-116719577D01*
X159262752Y-116689993D01*
X159262752Y-116444968D01*
X159328053Y-116469480D01*
X159385149Y-116501530D01*
X159433886Y-116540553D01*
X159474107Y-116585982D01*
X159505660Y-116637249D01*
X159528389Y-116693789D01*
X159542139Y-116755034D01*
X159546757Y-116820418D01*
X159546298Y-116846232D01*
X159539434Y-116918869D01*
X159524392Y-116984273D01*
X159501239Y-117042409D01*
X159470045Y-117093242D01*
X159416060Y-117149599D01*
X159366366Y-117183256D01*
X159308857Y-117209495D01*
X159243601Y-117228280D01*
X159170666Y-117239576D01*
X159090121Y-117243349D01*
X159020852Y-117239391D01*
X158956432Y-117227665D01*
X158897290Y-117208395D01*
X158843855Y-117181803D01*
X158782228Y-117135345D01*
X158732526Y-117076796D01*
X158703688Y-117025269D01*
X158682557Y-116967462D01*
X158669565Y-116903598D01*
X158665566Y-116840642D01*
X158857113Y-116840642D01*
X158868072Y-116899658D01*
X158904762Y-116953471D01*
X158956626Y-116985713D01*
X159015090Y-116998618D01*
X159015090Y-116680614D01*
X158953691Y-116692258D01*
X158901853Y-116725472D01*
X158867042Y-116781222D01*
X158857113Y-116840642D01*
X158665566Y-116840642D01*
X158665138Y-116833900D01*
X158669639Y-116764500D01*
X158683119Y-116701448D01*
X158705550Y-116644849D01*
X158736901Y-116594807D01*
X158777140Y-116551426D01*
X158826238Y-116514811D01*
X158884165Y-116485067D01*
X158950889Y-116462297D01*
X159026380Y-116446606D01*
X159110609Y-116438098D01*
X159171600Y-116436468D01*
X159171600Y-117005359D01*
G37*
G36*
X159528000Y-115807787D02*
G01*
X159447106Y-115808667D01*
X159452601Y-115812259D01*
X159496453Y-115855642D01*
X159525348Y-115909204D01*
X159541178Y-115965892D01*
X159546757Y-116030244D01*
X159546260Y-116049993D01*
X159534528Y-116125250D01*
X159507763Y-116193673D01*
X159466710Y-116254125D01*
X159412115Y-116305470D01*
X159362731Y-116337317D01*
X159306463Y-116362922D01*
X159243625Y-116381805D01*
X159174533Y-116393487D01*
X159099500Y-116397487D01*
X159030676Y-116394076D01*
X158966033Y-116383986D01*
X158906138Y-116367432D01*
X158834638Y-116335675D01*
X158773922Y-116293314D01*
X158725328Y-116240859D01*
X158690196Y-116178818D01*
X158669866Y-116107699D01*
X158665138Y-116048709D01*
X158665651Y-116029276D01*
X158673244Y-115978073D01*
X158870595Y-115978073D01*
X158871511Y-116000367D01*
X158889279Y-116066202D01*
X158930093Y-116113628D01*
X158983810Y-116140187D01*
X159042032Y-116152736D01*
X159112689Y-116156859D01*
X159125902Y-116156648D01*
X159187492Y-116149464D01*
X159250402Y-116128358D01*
X159299540Y-116095167D01*
X159336958Y-116043332D01*
X159350093Y-115979832D01*
X159337622Y-115918273D01*
X159302159Y-115866919D01*
X159246633Y-115828993D01*
X159185287Y-115809613D01*
X159125878Y-115804270D01*
X159109828Y-115804439D01*
X159037671Y-115810364D01*
X158968598Y-115828660D01*
X158911578Y-115865459D01*
X158879235Y-115918935D01*
X158870595Y-115978073D01*
X158673244Y-115978073D01*
X158675126Y-115965380D01*
X158695437Y-115908757D01*
X158730054Y-115854416D01*
X158774755Y-115812770D01*
X158383771Y-115812770D01*
X158383771Y-115578883D01*
X159528000Y-115578883D01*
X159528000Y-115807787D01*
G37*
G36*
X159173224Y-114283609D02*
G01*
X159242682Y-114295291D01*
X159305810Y-114314174D01*
X159362302Y-114339779D01*
X159426773Y-114383546D01*
X159478179Y-114437274D01*
X159515795Y-114499826D01*
X159538896Y-114570064D01*
X159546757Y-114646852D01*
X159541203Y-114711168D01*
X159522571Y-114775148D01*
X159492997Y-114826970D01*
X159449451Y-114868136D01*
X159528000Y-114869602D01*
X159528000Y-115097920D01*
X158383771Y-115097920D01*
X158383771Y-114864326D01*
X158774755Y-114864326D01*
X158762753Y-114855195D01*
X158720369Y-114810159D01*
X158688613Y-114752848D01*
X158672722Y-114699023D01*
X158870595Y-114699023D01*
X158872746Y-114730053D01*
X158894738Y-114790565D01*
X158941092Y-114834442D01*
X159000771Y-114858824D01*
X159064924Y-114869826D01*
X159125878Y-114872533D01*
X159185287Y-114867191D01*
X159246633Y-114847822D01*
X159302159Y-114809936D01*
X159337622Y-114758670D01*
X159350093Y-114697264D01*
X159349816Y-114687550D01*
X159333030Y-114625461D01*
X159292387Y-114575511D01*
X159240823Y-114544269D01*
X159175800Y-114525386D01*
X159112689Y-114520237D01*
X159097554Y-114520400D01*
X159029399Y-114526187D01*
X158963961Y-114544348D01*
X158909746Y-114581587D01*
X158878872Y-114636812D01*
X158870595Y-114699023D01*
X158672722Y-114699023D01*
X158671249Y-114694035D01*
X158665138Y-114628387D01*
X158673485Y-114550794D01*
X158697617Y-114481897D01*
X158736174Y-114422205D01*
X158787797Y-114372226D01*
X158851125Y-114332468D01*
X158905485Y-114309664D01*
X158965090Y-114293110D01*
X159029367Y-114283020D01*
X159097741Y-114279609D01*
X159173224Y-114283609D01*
G37*
G36*
X159536499Y-113691667D02*
G01*
X159602996Y-113700647D01*
X159661592Y-113729679D01*
X159702764Y-113779705D01*
X159714992Y-113833524D01*
X159706774Y-113897539D01*
X159677626Y-113950713D01*
X159628011Y-113983149D01*
X159568305Y-113994994D01*
X159548516Y-113995603D01*
X159548516Y-114217473D01*
X159612110Y-114214112D01*
X159670370Y-114204059D01*
X159739408Y-114180331D01*
X159798129Y-114144905D01*
X159846057Y-114097896D01*
X159882714Y-114039417D01*
X159907623Y-113969581D01*
X159918308Y-113909820D01*
X159921914Y-113843782D01*
X159918225Y-113784468D01*
X159902032Y-113709887D01*
X159873320Y-113641881D01*
X159832487Y-113582010D01*
X159779931Y-113531833D01*
X159716052Y-113492910D01*
X159660950Y-113472041D01*
X159599871Y-113459037D01*
X159532982Y-113454556D01*
X158683896Y-113454556D01*
X158683896Y-113691667D01*
X159190065Y-113691667D01*
X159247653Y-113703048D01*
X159297527Y-113740567D01*
X159324924Y-113792633D01*
X159333094Y-113850230D01*
X159322113Y-113913902D01*
X159283510Y-113959402D01*
X159224148Y-113978401D01*
X159190065Y-113980362D01*
X158683896Y-113980362D01*
X158683896Y-114217473D01*
X159221426Y-114217473D01*
X159287361Y-114211323D01*
X159346855Y-114193605D01*
X159399185Y-114165418D01*
X159453418Y-114117136D01*
X159493909Y-114056361D01*
X159515455Y-114000188D01*
X159526575Y-113938493D01*
X159528000Y-113905917D01*
X159522010Y-113839248D01*
X159506510Y-113779676D01*
X159481894Y-113726258D01*
X159448865Y-113691667D01*
X159536499Y-113691667D01*
G37*
G36*
X159528000Y-111874501D02*
G01*
X158402528Y-111874501D01*
X158402528Y-112227090D01*
X159184789Y-112421409D01*
X158402528Y-112615729D01*
X158402528Y-112975352D01*
X159528000Y-112975352D01*
X159528000Y-112739706D01*
X158763910Y-112749085D01*
X159528000Y-112549490D01*
X159528000Y-112303586D01*
X158760393Y-112102233D01*
X159528000Y-112111612D01*
X159528000Y-111874501D01*
G37*
G36*
X159528000Y-111560307D02*
G01*
X158683896Y-111560307D01*
X158683896Y-111797418D01*
X159528000Y-111797418D01*
X159528000Y-111560307D01*
G37*
G36*
X158605934Y-111560307D02*
G01*
X158383771Y-111560307D01*
X158383771Y-111797418D01*
X158605934Y-111797418D01*
X158605934Y-111560307D01*
G37*
G36*
X159187720Y-111011346D02*
G01*
X159252929Y-111018266D01*
X159308998Y-111047392D01*
X159335947Y-111101021D01*
X159338369Y-111129755D01*
X159325848Y-111188784D01*
X159277361Y-111231599D01*
X159219971Y-111244831D01*
X159184496Y-111246406D01*
X158857406Y-111246406D01*
X158857406Y-110789183D01*
X158683896Y-110789183D01*
X158683896Y-111246406D01*
X158458802Y-111246406D01*
X158458802Y-111480000D01*
X159206185Y-111480000D01*
X159272318Y-111475234D01*
X159335072Y-111460564D01*
X159392770Y-111435424D01*
X159443736Y-111399253D01*
X159486294Y-111351486D01*
X159518767Y-111291560D01*
X159539480Y-111218912D01*
X159546289Y-111155739D01*
X159546757Y-111132979D01*
X159542584Y-111069373D01*
X159524932Y-110995263D01*
X159495073Y-110933078D01*
X159454764Y-110882489D01*
X159405759Y-110843166D01*
X159349814Y-110814778D01*
X159288683Y-110796997D01*
X159224121Y-110789492D01*
X159207651Y-110789183D01*
X158965264Y-110789183D01*
X158965264Y-111011346D01*
X159187720Y-111011346D01*
G37*
G36*
X159207357Y-110194207D02*
G01*
X159268449Y-110210153D01*
X159315527Y-110247982D01*
X159340435Y-110302878D01*
X159345110Y-110346908D01*
X159329851Y-110405174D01*
X159283268Y-110453630D01*
X159227047Y-110480212D01*
X159165849Y-110494095D01*
X159107287Y-110498818D01*
X159091293Y-110499023D01*
X159032032Y-110495863D01*
X158972533Y-110483641D01*
X158913717Y-110453117D01*
X158876599Y-110402701D01*
X158865613Y-110340167D01*
X158876487Y-110279235D01*
X158913850Y-110227617D01*
X158969930Y-110198804D01*
X159001607Y-110192156D01*
X159001607Y-109953872D01*
X158927151Y-109965564D01*
X158860873Y-109989314D01*
X158803312Y-110024295D01*
X158755008Y-110069680D01*
X158716499Y-110124641D01*
X158688325Y-110188350D01*
X158671025Y-110259980D01*
X158665510Y-110318401D01*
X158665138Y-110338702D01*
X158668708Y-110402846D01*
X158679509Y-110462612D01*
X158705392Y-110534760D01*
X158744695Y-110597375D01*
X158797739Y-110649458D01*
X158864849Y-110690009D01*
X158924605Y-110712253D01*
X158992591Y-110727026D01*
X159068943Y-110733908D01*
X159096276Y-110734375D01*
X159175721Y-110730231D01*
X159247664Y-110718098D01*
X159312036Y-110698427D01*
X159368770Y-110671670D01*
X159417797Y-110638276D01*
X159471060Y-110584206D01*
X159510340Y-110520208D01*
X159535476Y-110447349D01*
X159544947Y-110387533D01*
X159546757Y-110345443D01*
X159540613Y-110271218D01*
X159522660Y-110202052D01*
X159493620Y-110139048D01*
X159454214Y-110083309D01*
X159405163Y-110035936D01*
X159347190Y-109998033D01*
X159281014Y-109970702D01*
X159207357Y-109955045D01*
X159207357Y-110194207D01*
G37*
G36*
X159528000Y-109143475D02*
G01*
X158938006Y-109143475D01*
X158877896Y-109149115D01*
X158811937Y-109171119D01*
X158757034Y-109208168D01*
X158714107Y-109258577D01*
X158684075Y-109320662D01*
X158669951Y-109377606D01*
X158665138Y-109440083D01*
X158670753Y-109502399D01*
X158685448Y-109559877D01*
X158709769Y-109616429D01*
X158744519Y-109664465D01*
X158758635Y-109674263D01*
X158383771Y-109674263D01*
X158383771Y-109911374D01*
X159528000Y-109911374D01*
X159528000Y-109674263D01*
X159047916Y-109674263D01*
X158981670Y-109666307D01*
X158925883Y-109642756D01*
X158879820Y-109597361D01*
X158859273Y-109542007D01*
X158857113Y-109513942D01*
X158864152Y-109453071D01*
X158897992Y-109405008D01*
X158959713Y-109385074D01*
X159009521Y-109382344D01*
X159528000Y-109382344D01*
X159528000Y-109143475D01*
G37*
G36*
X161544000Y-121507829D02*
G01*
X160418528Y-121507829D01*
X160418528Y-121703614D01*
X160484380Y-121716847D01*
X160542413Y-121749126D01*
X160581223Y-121805169D01*
X160597767Y-121863022D01*
X160604594Y-121921653D01*
X160606107Y-121973551D01*
X160776100Y-121973551D01*
X160776100Y-121744940D01*
X161544000Y-121744940D01*
X161544000Y-121507829D01*
G37*
G36*
X161047173Y-120671343D02*
G01*
X161117095Y-120676552D01*
X161181978Y-120685133D01*
X161241854Y-120697001D01*
X161322350Y-120720786D01*
X161391760Y-120751500D01*
X161450194Y-120788862D01*
X161497759Y-120832591D01*
X161534565Y-120882406D01*
X161560721Y-120938026D01*
X161576335Y-120999169D01*
X161581515Y-121065554D01*
X161576541Y-121131698D01*
X161561473Y-121192325D01*
X161536093Y-121247218D01*
X161500186Y-121296163D01*
X161453532Y-121338942D01*
X161395916Y-121375341D01*
X161327119Y-121405142D01*
X161246924Y-121428131D01*
X161187021Y-121439566D01*
X161121892Y-121447812D01*
X161051471Y-121452807D01*
X160975695Y-121454487D01*
X160900286Y-121452804D01*
X160830398Y-121447800D01*
X160765941Y-121439541D01*
X160706825Y-121428090D01*
X160627966Y-121405074D01*
X160560613Y-121375246D01*
X160504461Y-121338826D01*
X160459205Y-121296034D01*
X160424537Y-121247091D01*
X160400153Y-121192216D01*
X160385747Y-121131631D01*
X160381013Y-121065554D01*
X160381493Y-121058813D01*
X160574746Y-121058813D01*
X160575049Y-121068037D01*
X160595446Y-121124424D01*
X160641631Y-121161355D01*
X160703297Y-121184081D01*
X160769405Y-121196989D01*
X160829519Y-121203592D01*
X160899197Y-121207555D01*
X160978919Y-121208876D01*
X161059541Y-121207555D01*
X161129950Y-121203592D01*
X161190645Y-121196989D01*
X161257323Y-121184081D01*
X161319430Y-121161355D01*
X161370870Y-121117246D01*
X161386609Y-121058813D01*
X161386297Y-121049594D01*
X161365411Y-120993431D01*
X161318564Y-120956868D01*
X161256486Y-120934482D01*
X161190309Y-120921820D01*
X161130373Y-120915365D01*
X161061128Y-120911501D01*
X160982143Y-120910216D01*
X160901935Y-120911494D01*
X160831793Y-120915339D01*
X160771240Y-120921770D01*
X160704601Y-120934396D01*
X160642374Y-120956746D01*
X160590647Y-121000443D01*
X160574746Y-121058813D01*
X160381493Y-121058813D01*
X160385737Y-120999236D01*
X160400105Y-120938134D01*
X160424409Y-120882534D01*
X160458942Y-120832720D01*
X160503997Y-120788979D01*
X160559866Y-120751595D01*
X160626842Y-120720854D01*
X160705218Y-120697042D01*
X160763946Y-120685158D01*
X160827958Y-120676564D01*
X160897340Y-120671346D01*
X160972178Y-120669588D01*
X161047173Y-120671343D01*
G37*
G36*
X161544000Y-120421926D02*
G01*
X161298682Y-120421926D01*
X161298682Y-120674277D01*
X161544000Y-120674277D01*
X161544000Y-120421926D01*
G37*
G36*
X161544000Y-119613872D02*
G01*
X161335612Y-119613872D01*
X161335612Y-120093370D01*
X161280916Y-120070458D01*
X161233290Y-120032944D01*
X161190249Y-119988549D01*
X161154774Y-119943600D01*
X161109069Y-119880218D01*
X161066287Y-119824550D01*
X161025737Y-119776273D01*
X160973945Y-119722841D01*
X160923246Y-119681209D01*
X160872000Y-119650609D01*
X160804670Y-119626708D01*
X160746188Y-119618133D01*
X160714844Y-119617096D01*
X160655004Y-119621226D01*
X160584454Y-119639034D01*
X160524435Y-119669927D01*
X160474919Y-119712839D01*
X160435878Y-119766706D01*
X160407286Y-119830464D01*
X160389115Y-119903046D01*
X160382308Y-119962635D01*
X160381013Y-120004563D01*
X160384929Y-120067451D01*
X160396519Y-120125221D01*
X160423492Y-120193885D01*
X160463107Y-120252483D01*
X160514796Y-120300463D01*
X160577987Y-120337271D01*
X160652111Y-120362355D01*
X160714535Y-120373142D01*
X160782548Y-120376789D01*
X160782548Y-120147885D01*
X160718725Y-120143749D01*
X160661151Y-120128283D01*
X160612368Y-120091056D01*
X160589898Y-120036463D01*
X160586470Y-119994305D01*
X160594525Y-119929922D01*
X160627471Y-119877046D01*
X160685486Y-119852033D01*
X160721585Y-119849225D01*
X160783478Y-119858618D01*
X160840617Y-119891174D01*
X160885757Y-119934742D01*
X160927926Y-119985823D01*
X160966221Y-120037512D01*
X160976575Y-120052044D01*
X161014274Y-120103322D01*
X161050784Y-120149300D01*
X161103737Y-120208936D01*
X161155087Y-120258210D01*
X161205480Y-120298058D01*
X161255561Y-120329419D01*
X161322963Y-120359650D01*
X161392485Y-120378681D01*
X161465654Y-120388733D01*
X161544000Y-120392030D01*
X161544000Y-119613872D01*
G37*
G36*
X161301027Y-118940348D02*
G01*
X161544000Y-118940348D01*
X161544000Y-119177752D01*
X161301027Y-119177752D01*
X161301027Y-119611235D01*
X161099673Y-119611235D01*
X160418528Y-119200321D01*
X160418528Y-119172477D01*
X160767893Y-119172477D01*
X161112569Y-119375296D01*
X161112569Y-119172477D01*
X160767893Y-119172477D01*
X160418528Y-119172477D01*
X160418528Y-118940348D01*
X161112569Y-118940348D01*
X161112569Y-118814319D01*
X161301027Y-118814319D01*
X161301027Y-118940348D01*
G37*
G36*
X161544000Y-118527383D02*
G01*
X161298682Y-118527383D01*
X161298682Y-118779734D01*
X161544000Y-118779734D01*
X161544000Y-118527383D01*
G37*
G36*
X161544000Y-117719330D02*
G01*
X161335612Y-117719330D01*
X161335612Y-118198827D01*
X161280916Y-118175915D01*
X161233290Y-118138401D01*
X161190249Y-118094006D01*
X161154774Y-118049057D01*
X161109069Y-117985675D01*
X161066287Y-117930007D01*
X161025737Y-117881730D01*
X160973945Y-117828298D01*
X160923246Y-117786666D01*
X160872000Y-117756066D01*
X160804670Y-117732165D01*
X160746188Y-117723590D01*
X160714844Y-117722554D01*
X160655004Y-117726683D01*
X160584454Y-117744491D01*
X160524435Y-117775384D01*
X160474919Y-117818296D01*
X160435878Y-117872163D01*
X160407286Y-117935921D01*
X160389115Y-118008503D01*
X160382308Y-118068092D01*
X160381013Y-118110020D01*
X160384929Y-118172908D01*
X160396519Y-118230678D01*
X160423492Y-118299342D01*
X160463107Y-118357940D01*
X160514796Y-118405920D01*
X160577987Y-118442728D01*
X160652111Y-118467813D01*
X160714535Y-118478599D01*
X160782548Y-118482247D01*
X160782548Y-118253342D01*
X160718725Y-118249206D01*
X160661151Y-118233740D01*
X160612368Y-118196513D01*
X160589898Y-118141920D01*
X160586470Y-118099762D01*
X160594525Y-118035380D01*
X160627471Y-117982503D01*
X160685486Y-117957490D01*
X160721585Y-117954682D01*
X160783478Y-117964075D01*
X160840617Y-117996631D01*
X160885757Y-118040199D01*
X160927926Y-118091280D01*
X160966221Y-118142969D01*
X160976575Y-118157501D01*
X161014274Y-118208779D01*
X161050784Y-118254757D01*
X161103737Y-118314393D01*
X161155087Y-118363667D01*
X161205480Y-118403515D01*
X161255561Y-118434876D01*
X161322963Y-118465107D01*
X161392485Y-118484138D01*
X161465654Y-118494191D01*
X161544000Y-118497487D01*
X161544000Y-117719330D01*
G37*
G36*
X161047173Y-116911566D02*
G01*
X161117095Y-116916775D01*
X161181978Y-116925356D01*
X161241854Y-116937224D01*
X161322350Y-116961009D01*
X161391760Y-116991723D01*
X161450194Y-117029086D01*
X161497759Y-117072815D01*
X161534565Y-117122629D01*
X161560721Y-117178249D01*
X161576335Y-117239392D01*
X161581515Y-117305778D01*
X161576541Y-117371922D01*
X161561473Y-117432548D01*
X161536093Y-117487442D01*
X161500186Y-117536386D01*
X161453532Y-117579166D01*
X161395916Y-117615564D01*
X161327119Y-117645366D01*
X161246924Y-117668355D01*
X161187021Y-117679789D01*
X161121892Y-117688036D01*
X161051471Y-117693031D01*
X160975695Y-117694710D01*
X160900286Y-117693027D01*
X160830398Y-117688024D01*
X160765941Y-117679764D01*
X160706825Y-117668313D01*
X160627966Y-117645297D01*
X160560613Y-117615469D01*
X160504461Y-117579049D01*
X160459205Y-117536257D01*
X160424537Y-117487314D01*
X160400153Y-117432439D01*
X160385747Y-117371854D01*
X160381013Y-117305778D01*
X160381493Y-117299036D01*
X160574746Y-117299036D01*
X160575049Y-117308260D01*
X160595446Y-117364648D01*
X160641631Y-117401578D01*
X160703297Y-117424304D01*
X160769405Y-117437212D01*
X160829519Y-117443815D01*
X160899197Y-117447778D01*
X160978919Y-117449099D01*
X161059541Y-117447778D01*
X161129950Y-117443815D01*
X161190645Y-117437212D01*
X161257323Y-117424304D01*
X161319430Y-117401578D01*
X161370870Y-117357469D01*
X161386609Y-117299036D01*
X161386297Y-117289817D01*
X161365411Y-117233654D01*
X161318564Y-117197091D01*
X161256486Y-117174705D01*
X161190309Y-117162043D01*
X161130373Y-117155588D01*
X161061128Y-117151724D01*
X160982143Y-117150439D01*
X160901935Y-117151717D01*
X160831793Y-117155563D01*
X160771240Y-117161993D01*
X160704601Y-117174619D01*
X160642374Y-117196969D01*
X160590647Y-117240666D01*
X160574746Y-117299036D01*
X160381493Y-117299036D01*
X160385737Y-117239460D01*
X160400105Y-117178358D01*
X160424409Y-117122757D01*
X160458942Y-117072943D01*
X160503997Y-117029202D01*
X160559866Y-116991818D01*
X160626842Y-116961077D01*
X160705218Y-116937266D01*
X160763946Y-116925381D01*
X160827958Y-116916787D01*
X160897340Y-116911569D01*
X160972178Y-116909811D01*
X161047173Y-116911566D01*
G37*
G36*
X161544000Y-116115533D02*
G01*
X161335612Y-116115533D01*
X161335612Y-116595031D01*
X161280916Y-116572119D01*
X161233290Y-116534605D01*
X161190249Y-116490210D01*
X161154774Y-116445261D01*
X161109069Y-116381879D01*
X161066287Y-116326211D01*
X161025737Y-116277933D01*
X160973945Y-116224502D01*
X160923246Y-116182870D01*
X160872000Y-116152270D01*
X160804670Y-116128369D01*
X160746188Y-116119793D01*
X160714844Y-116118757D01*
X160655004Y-116122887D01*
X160584454Y-116140695D01*
X160524435Y-116171588D01*
X160474919Y-116214500D01*
X160435878Y-116268367D01*
X160407286Y-116332125D01*
X160389115Y-116404707D01*
X160382308Y-116464295D01*
X160381013Y-116506224D01*
X160384929Y-116569112D01*
X160396519Y-116626882D01*
X160423492Y-116695545D01*
X160463107Y-116754144D01*
X160514796Y-116802123D01*
X160577987Y-116838932D01*
X160652111Y-116864016D01*
X160714535Y-116874803D01*
X160782548Y-116878450D01*
X160782548Y-116649546D01*
X160718725Y-116645410D01*
X160661151Y-116629944D01*
X160612368Y-116592717D01*
X160589898Y-116538124D01*
X160586470Y-116495966D01*
X160594525Y-116431583D01*
X160627471Y-116378707D01*
X160685486Y-116353694D01*
X160721585Y-116350886D01*
X160783478Y-116360278D01*
X160840617Y-116392834D01*
X160885757Y-116436403D01*
X160927926Y-116487484D01*
X160966221Y-116539173D01*
X160976575Y-116553705D01*
X161014274Y-116604983D01*
X161050784Y-116650960D01*
X161103737Y-116710597D01*
X161155087Y-116759870D01*
X161205480Y-116799719D01*
X161255561Y-116831079D01*
X161322963Y-116861311D01*
X161392485Y-116880342D01*
X161465654Y-116890394D01*
X161544000Y-116893691D01*
X161544000Y-116115533D01*
G37*
G36*
X161301027Y-115442009D02*
G01*
X161544000Y-115442009D01*
X161544000Y-115679413D01*
X161301027Y-115679413D01*
X161301027Y-116112896D01*
X161099673Y-116112896D01*
X160418528Y-115701981D01*
X160418528Y-115674138D01*
X160767893Y-115674138D01*
X161112569Y-115876957D01*
X161112569Y-115674138D01*
X160767893Y-115674138D01*
X160418528Y-115674138D01*
X160418528Y-115442009D01*
X161112569Y-115442009D01*
X161112569Y-115315980D01*
X161301027Y-115315980D01*
X161301027Y-115442009D01*
G37*
%TO.C,SW2*%
D12*
X246463563Y-124142540D02*
G75*
G02*
X242451063Y-124142540I-2006250J0D01*
G01*
X242451063Y-124142540D02*
G75*
G02*
X246463563Y-124142540I2006250J0D01*
G01*
%TO.C,SW1*%
X261639907Y-116584400D02*
G75*
G02*
X257627407Y-116584400I-2006250J0D01*
G01*
X257627407Y-116584400D02*
G75*
G02*
X261639907Y-116584400I2006250J0D01*
G01*
%TO.C,SW11*%
D13*
X197808657Y-154344400D02*
G75*
G02*
X194658657Y-154344400I-1575000J0D01*
G01*
X194658657Y-154344400D02*
G75*
G02*
X197808657Y-154344400I1575000J0D01*
G01*
%TO.C,SW3*%
D12*
X276152867Y-113094002D02*
G75*
G02*
X272140367Y-113094002I-2006250J0D01*
G01*
X272140367Y-113094002D02*
G75*
G02*
X276152867Y-113094002I2006250J0D01*
G01*
%TO.C,SW13*%
D13*
X205658657Y-146494400D02*
G75*
G02*
X202508657Y-146494400I-1575000J0D01*
G01*
X202508657Y-146494400D02*
G75*
G02*
X205658657Y-146494400I1575000J0D01*
G01*
%TO.C,SW12*%
X189958657Y-146494400D02*
G75*
G02*
X186808657Y-146494400I-1575000J0D01*
G01*
X186808657Y-146494400D02*
G75*
G02*
X189958657Y-146494400I1575000J0D01*
G01*
%TO.C,SW4*%
D12*
X257897782Y-102212626D02*
G75*
G02*
X253885282Y-102212626I-2006250J0D01*
G01*
X253885282Y-102212626D02*
G75*
G02*
X257897782Y-102212626I2006250J0D01*
G01*
%TO.C,SW10*%
D13*
X197808657Y-138644400D02*
G75*
G02*
X194658657Y-138644400I-1575000J0D01*
G01*
X194658657Y-138644400D02*
G75*
G02*
X197808657Y-138644400I1575000J0D01*
G01*
D14*
%TO.C,U1*%
X204811000Y-104729800D02*
X203161000Y-104729800D01*
X203161000Y-103679800D01*
X203761000Y-103079800D01*
X204811000Y-103079800D01*
X204811000Y-104729800D01*
G36*
X204811000Y-104729800D02*
G01*
X203161000Y-104729800D01*
X203161000Y-103679800D01*
X203761000Y-103079800D01*
X204811000Y-103079800D01*
X204811000Y-104729800D01*
G37*
%TO.C,U4*%
X227815400Y-117943600D02*
X227435400Y-117943600D01*
X227435400Y-117203600D01*
X227815400Y-117203600D01*
X227815400Y-117943600D01*
G36*
X227815400Y-117943600D02*
G01*
X227435400Y-117943600D01*
X227435400Y-117203600D01*
X227815400Y-117203600D01*
X227815400Y-117943600D01*
G37*
X227815400Y-120743600D02*
X227435400Y-120743600D01*
X227435400Y-120003600D01*
X227815400Y-120003600D01*
X227815400Y-120743600D01*
G36*
X227815400Y-120743600D02*
G01*
X227435400Y-120743600D01*
X227435400Y-120003600D01*
X227815400Y-120003600D01*
X227815400Y-120743600D01*
G37*
X228315400Y-117943600D02*
X227935400Y-117943600D01*
X227935400Y-117203600D01*
X228315400Y-117203600D01*
X228315400Y-117943600D01*
G36*
X228315400Y-117943600D02*
G01*
X227935400Y-117943600D01*
X227935400Y-117203600D01*
X228315400Y-117203600D01*
X228315400Y-117943600D01*
G37*
X228315400Y-120743600D02*
X227935400Y-120743600D01*
X227935400Y-120003600D01*
X228315400Y-120003600D01*
X228315400Y-120743600D01*
G36*
X228315400Y-120743600D02*
G01*
X227935400Y-120743600D01*
X227935400Y-120003600D01*
X228315400Y-120003600D01*
X228315400Y-120743600D01*
G37*
X228815400Y-117943600D02*
X228435400Y-117943600D01*
X228435400Y-117203600D01*
X228815400Y-117203600D01*
X228815400Y-117943600D01*
G36*
X228815400Y-117943600D02*
G01*
X228435400Y-117943600D01*
X228435400Y-117203600D01*
X228815400Y-117203600D01*
X228815400Y-117943600D01*
G37*
X228815400Y-120743600D02*
X228435400Y-120743600D01*
X228435400Y-120003600D01*
X228815400Y-120003600D01*
X228815400Y-120743600D01*
G36*
X228815400Y-120743600D02*
G01*
X228435400Y-120743600D01*
X228435400Y-120003600D01*
X228815400Y-120003600D01*
X228815400Y-120743600D01*
G37*
X229315400Y-117943600D02*
X228935400Y-117943600D01*
X228935400Y-117203600D01*
X229315400Y-117203600D01*
X229315400Y-117943600D01*
G36*
X229315400Y-117943600D02*
G01*
X228935400Y-117943600D01*
X228935400Y-117203600D01*
X229315400Y-117203600D01*
X229315400Y-117943600D01*
G37*
X229315400Y-120743600D02*
X228935400Y-120743600D01*
X228935400Y-120003600D01*
X229315400Y-120003600D01*
X229315400Y-120743600D01*
G36*
X229315400Y-120743600D02*
G01*
X228935400Y-120743600D01*
X228935400Y-120003600D01*
X229315400Y-120003600D01*
X229315400Y-120743600D01*
G37*
X229815400Y-117943600D02*
X229435400Y-117943600D01*
X229435400Y-117203600D01*
X229815400Y-117203600D01*
X229815400Y-117943600D01*
G36*
X229815400Y-117943600D02*
G01*
X229435400Y-117943600D01*
X229435400Y-117203600D01*
X229815400Y-117203600D01*
X229815400Y-117943600D01*
G37*
X229815400Y-120743600D02*
X229435400Y-120743600D01*
X229435400Y-120003600D01*
X229815400Y-120003600D01*
X229815400Y-120743600D01*
G36*
X229815400Y-120743600D02*
G01*
X229435400Y-120743600D01*
X229435400Y-120003600D01*
X229815400Y-120003600D01*
X229815400Y-120743600D01*
G37*
X229895400Y-118528600D02*
X230395400Y-118528600D01*
X230395400Y-118918600D01*
X229895400Y-118918600D01*
X229895400Y-119028600D01*
X230395400Y-119028600D01*
X230395400Y-119418600D01*
X229895400Y-119418600D01*
X229895400Y-119868600D01*
X227355400Y-119868600D01*
X227355400Y-119418600D01*
X226855400Y-119418600D01*
X226855400Y-119028600D01*
X227355400Y-119028600D01*
X227355400Y-118918600D01*
X226855400Y-118918600D01*
X226855400Y-118528600D01*
X227355400Y-118528600D01*
X227355400Y-118078600D01*
X229895400Y-118078600D01*
X229895400Y-118528600D01*
G36*
X229895400Y-118528600D02*
G01*
X230395400Y-118528600D01*
X230395400Y-118918600D01*
X229895400Y-118918600D01*
X229895400Y-119028600D01*
X230395400Y-119028600D01*
X230395400Y-119418600D01*
X229895400Y-119418600D01*
X229895400Y-119868600D01*
X227355400Y-119868600D01*
X227355400Y-119418600D01*
X226855400Y-119418600D01*
X226855400Y-119028600D01*
X227355400Y-119028600D01*
X227355400Y-118918600D01*
X226855400Y-118918600D01*
X226855400Y-118528600D01*
X227355400Y-118528600D01*
X227355400Y-118078600D01*
X229895400Y-118078600D01*
X229895400Y-118528600D01*
G37*
%TD*%
D15*
%TO.C,Y1*%
X232900665Y-107200656D03*
X232900665Y-105000656D03*
X231200665Y-105000656D03*
X231200665Y-107200656D03*
%TD*%
D16*
%TO.C,R12*%
X228173431Y-107361075D03*
X228173431Y-106341075D03*
%TD*%
D17*
%TO.C,C29*%
X229707887Y-104390623D03*
X229707887Y-105350623D03*
%TD*%
D18*
%TO.C,C28*%
X229707887Y-106355388D03*
X229707887Y-107315388D03*
%TD*%
D19*
%TO.C,R30*%
X219049600Y-95570000D03*
X219049600Y-94930000D03*
%TD*%
D20*
%TO.C,R39*%
X271731200Y-134899400D03*
X270711200Y-134899400D03*
%TD*%
D21*
%TO.C,C17*%
X229974200Y-113207800D03*
X230934200Y-113207800D03*
%TD*%
D22*
%TO.C,C4*%
X232714800Y-123251000D03*
X232714800Y-121351000D03*
%TD*%
D16*
%TO.C,R35*%
X268122400Y-128373600D03*
X268122400Y-127353600D03*
%TD*%
D23*
%TO.C,R1*%
X177784800Y-127203200D03*
X178424800Y-127203200D03*
%TD*%
D24*
%TO.C,SW16*%
X206451200Y-134048600D03*
X206451200Y-134848600D03*
X209101200Y-134048600D03*
X209101200Y-134848600D03*
%TD*%
D25*
%TO.C,C26*%
X280050200Y-137922000D03*
X279410200Y-137922000D03*
%TD*%
D19*
%TO.C,R8*%
X213309200Y-109692400D03*
X213309200Y-109052400D03*
%TD*%
D25*
%TO.C,R5*%
X230901200Y-102108000D03*
X230261200Y-102108000D03*
%TD*%
D26*
%TO.C,R22*%
X225430000Y-86985000D03*
X225430000Y-88635000D03*
%TD*%
D25*
%TO.C,C27*%
X277484800Y-137922000D03*
X276844800Y-137922000D03*
%TD*%
D27*
%TO.C,R38*%
X240817400Y-98919800D03*
X240817400Y-97269800D03*
%TD*%
D23*
%TO.C,C33*%
X164932400Y-137083800D03*
X165572400Y-137083800D03*
%TD*%
D28*
%TO.C,J8*%
X253457200Y-131775200D03*
D29*
X255457200Y-131775200D03*
%TD*%
D30*
%TO.C,L5*%
X230767200Y-122783600D03*
X228617200Y-122783600D03*
%TD*%
D23*
%TO.C,R6*%
X217813900Y-106566900D03*
X218453900Y-106566900D03*
%TD*%
D31*
%TO.C,SW2*%
X246410517Y-127465457D03*
D32*
X242656807Y-120734574D03*
%TD*%
D19*
%TO.C,C15*%
X235854125Y-105199029D03*
X235854125Y-104559029D03*
%TD*%
D33*
%TO.C,D7*%
X166686000Y-135940800D03*
X168086000Y-135940800D03*
%TD*%
D34*
%TO.C,U10*%
X203487600Y-116777200D03*
X203487600Y-116277200D03*
X203487600Y-115777200D03*
X203487600Y-115277200D03*
D35*
X202589600Y-114879200D03*
X202089600Y-114879200D03*
X201589600Y-114879200D03*
D34*
X200691600Y-115277200D03*
X200691600Y-115777200D03*
X200691600Y-116277200D03*
X200691600Y-116777200D03*
D35*
X201589600Y-117175200D03*
X202089600Y-117175200D03*
X202589600Y-117175200D03*
%TD*%
D36*
%TO.C,C22*%
X215278400Y-96417800D03*
X215278400Y-97057800D03*
%TD*%
D37*
%TO.C,R41*%
X279677400Y-135509000D03*
X280697400Y-135509000D03*
%TD*%
D31*
%TO.C,SW1*%
X261586861Y-119907317D03*
D32*
X257833151Y-113176434D03*
%TD*%
D38*
%TO.C,C12*%
X200494600Y-113233200D03*
X202044600Y-113233200D03*
%TD*%
D39*
%TO.C,U13*%
X216408000Y-96955600D03*
D40*
X216908000Y-96955600D03*
X217408000Y-96955600D03*
D39*
X217908000Y-96955600D03*
D41*
X218058000Y-96280600D03*
D39*
X217908000Y-95605600D03*
D40*
X217408000Y-95605600D03*
X216908000Y-95605600D03*
D39*
X216408000Y-95605600D03*
D41*
X216258000Y-96280600D03*
%TD*%
D42*
%TO.C,Q1*%
X207675000Y-127116800D03*
X207675000Y-129016800D03*
X209550000Y-128066800D03*
%TD*%
D31*
%TO.C,SW3*%
X276099821Y-116416919D03*
D32*
X272346111Y-109686036D03*
%TD*%
D25*
%TO.C,C11*%
X216145000Y-108550000D03*
X215505000Y-108550000D03*
%TD*%
D43*
%TO.C,Q5*%
X169011600Y-134391400D03*
X169011600Y-132491400D03*
X167136600Y-133441400D03*
%TD*%
D44*
%TO.C,C3*%
X232664000Y-96541600D03*
X232664000Y-99241600D03*
%TD*%
D26*
%TO.C,R21*%
X211140000Y-86965000D03*
X211140000Y-88615000D03*
%TD*%
D36*
%TO.C,R9*%
X213258400Y-103515200D03*
X213258400Y-104155200D03*
%TD*%
D45*
%TO.C,R34*%
X267106400Y-127353600D03*
X267106400Y-128373600D03*
%TD*%
D25*
%TO.C,R3*%
X230194870Y-116613394D03*
X229554870Y-116613394D03*
%TD*%
D46*
%TO.C,L2*%
X167834453Y-110533889D03*
X168783151Y-110583609D03*
X168832871Y-109634911D03*
X167884173Y-109585191D03*
%TD*%
D25*
%TO.C,R17*%
X206212400Y-130606800D03*
X205572400Y-130606800D03*
%TD*%
D26*
%TO.C,R37*%
X239268000Y-97727000D03*
X239268000Y-99377000D03*
%TD*%
D23*
%TO.C,C32*%
X170545800Y-136271000D03*
X171185800Y-136271000D03*
%TD*%
%TO.C,R16*%
X205572400Y-127152400D03*
X206212400Y-127152400D03*
%TD*%
D47*
%TO.C,SW6*%
X172671539Y-110006388D03*
X172009489Y-122639052D03*
D48*
X177558707Y-112290293D03*
X177108617Y-120878507D03*
D47*
X182657835Y-110529748D03*
X181995785Y-123162412D03*
D49*
X171861497Y-113043156D03*
X171521313Y-119534248D03*
X167367664Y-112807644D03*
X167027480Y-119298736D03*
D50*
X174381765Y-125141637D03*
X176878339Y-125272477D03*
X179374913Y-125403317D03*
X185890899Y-119536297D03*
X186021739Y-117039723D03*
X186152579Y-114543149D03*
%TD*%
D51*
%TO.C,U12*%
X206617200Y-125164600D03*
X206617200Y-124164600D03*
X206617200Y-123164600D03*
X206617200Y-122164600D03*
X206617200Y-121164600D03*
X201117200Y-121164600D03*
X201117200Y-122164600D03*
X201117200Y-123164600D03*
X201117200Y-124164600D03*
X201117200Y-125164600D03*
D52*
X203867200Y-123164600D03*
%TD*%
D23*
%TO.C,R20*%
X197241200Y-107442000D03*
X197881200Y-107442000D03*
%TD*%
D53*
%TO.C,C8*%
X218818400Y-102666800D03*
X217858400Y-102666800D03*
%TD*%
D36*
%TO.C,C21*%
X219049600Y-96403200D03*
X219049600Y-97043200D03*
%TD*%
D46*
%TO.C,L1*%
X185834453Y-110533889D03*
X186783151Y-110583609D03*
X186832871Y-109634911D03*
X185884173Y-109585191D03*
%TD*%
D54*
%TO.C,L12*%
X259158657Y-122059400D03*
X260108657Y-122059400D03*
X260108657Y-121109400D03*
X259158657Y-121109400D03*
%TD*%
D33*
%TO.C,D14*%
X278928600Y-136779000D03*
X280328600Y-136779000D03*
%TD*%
D25*
%TO.C,R25*%
X222163600Y-99720400D03*
X221523600Y-99720400D03*
%TD*%
D55*
%TO.C,U11*%
X230743200Y-114601600D03*
X230743200Y-114201600D03*
X231143200Y-114601600D03*
X231143200Y-114201600D03*
X231543200Y-114601600D03*
X231543200Y-114201600D03*
X231943200Y-114601600D03*
X231943200Y-114201600D03*
%TD*%
D18*
%TO.C,C5*%
X227914200Y-101094600D03*
X227914200Y-102054600D03*
%TD*%
D27*
%TO.C,R36*%
X189204600Y-98792800D03*
X189204600Y-97142800D03*
%TD*%
D56*
%TO.C,C23*%
X226720400Y-122087600D03*
X226720400Y-123987600D03*
%TD*%
D37*
%TO.C,R11*%
X191107600Y-108356400D03*
X192127600Y-108356400D03*
%TD*%
D26*
%TO.C,R4*%
X190754000Y-97142800D03*
X190754000Y-98792800D03*
%TD*%
D36*
%TO.C,R18*%
X208381600Y-112252800D03*
X208381600Y-112892800D03*
%TD*%
%TO.C,R29*%
X215278400Y-94944600D03*
X215278400Y-95584600D03*
%TD*%
D57*
%TO.C,SW7*%
X163618112Y-100644336D03*
X170546316Y-96644336D03*
D58*
X166643465Y-101784400D03*
X170020963Y-99834400D03*
%TD*%
D20*
%TO.C,R33*%
X164136800Y-134594600D03*
X163116800Y-134594600D03*
%TD*%
D59*
%TO.C,D6*%
X165354000Y-134583400D03*
X165354000Y-133183400D03*
%TD*%
D60*
%TO.C,SW8*%
X266420998Y-96644336D03*
X273349202Y-100644336D03*
D61*
X266946351Y-99834400D03*
X270323849Y-101784400D03*
%TD*%
D62*
%TO.C,D16*%
X276112200Y-139039600D03*
X274712200Y-139039600D03*
%TD*%
D63*
%TO.C,SW17*%
X215921157Y-115516400D03*
X215921157Y-121516400D03*
X212171157Y-115516400D03*
X212171157Y-121516400D03*
%TD*%
D25*
%TO.C,C6*%
X218810800Y-103581200D03*
X218170800Y-103581200D03*
%TD*%
D19*
%TO.C,R19*%
X207518000Y-112908000D03*
X207518000Y-112268000D03*
%TD*%
D38*
%TO.C,C13*%
X196938600Y-116840000D03*
X198488600Y-116840000D03*
%TD*%
D64*
%TO.C,Q6*%
X270788300Y-136829800D03*
X268888300Y-136829800D03*
X269838300Y-138704800D03*
%TD*%
D23*
%TO.C,R23*%
X223809600Y-99720400D03*
X224449600Y-99720400D03*
%TD*%
D36*
%TO.C,R28*%
X221538800Y-94980800D03*
X221538800Y-95620800D03*
%TD*%
D19*
%TO.C,R10*%
X215595200Y-112054600D03*
X215595200Y-111414600D03*
%TD*%
D65*
%TO.C,X3*%
X261035800Y-109601000D03*
%TD*%
D66*
%TO.C,D13*%
X211038400Y-137080900D03*
X211038400Y-137730900D03*
X211038400Y-138380900D03*
X212938400Y-138380900D03*
X212938400Y-137730900D03*
X212938400Y-137080900D03*
%TD*%
D67*
%TO.C,U8*%
X220884800Y-110845600D03*
X221284800Y-110845600D03*
X221684800Y-110845600D03*
X222084800Y-110845600D03*
X222484800Y-110845600D03*
X222884800Y-110845600D03*
X223284800Y-110845600D03*
X223684800Y-110845600D03*
X224084800Y-110845600D03*
X224484800Y-110845600D03*
X224884800Y-110845600D03*
X225284800Y-110845600D03*
X225684800Y-110845600D03*
X226084800Y-110845600D03*
D68*
X226922300Y-110008100D03*
X226922300Y-109608100D03*
X226922300Y-109208100D03*
X226922300Y-108808100D03*
X226922300Y-108408100D03*
X226922300Y-108008100D03*
X226922300Y-107608100D03*
X226922300Y-107208100D03*
X226922300Y-106808100D03*
X226922300Y-106408100D03*
X226922300Y-106008100D03*
X226922300Y-105608100D03*
X226922300Y-105208100D03*
X226922300Y-104808100D03*
D67*
X226084800Y-103970600D03*
X225684800Y-103970600D03*
X225284800Y-103970600D03*
X224884800Y-103970600D03*
X224484800Y-103970600D03*
X224084800Y-103970600D03*
X223684800Y-103970600D03*
X223284800Y-103970600D03*
X222884800Y-103970600D03*
X222484800Y-103970600D03*
X222084800Y-103970600D03*
X221684800Y-103970600D03*
X221284800Y-103970600D03*
X220884800Y-103970600D03*
D68*
X220047300Y-104808100D03*
X220047300Y-105208100D03*
X220047300Y-105608100D03*
X220047300Y-106008100D03*
X220047300Y-106408100D03*
X220047300Y-106808100D03*
X220047300Y-107208100D03*
X220047300Y-107608100D03*
X220047300Y-108008100D03*
X220047300Y-108408100D03*
X220047300Y-108808100D03*
X220047300Y-109208100D03*
X220047300Y-109608100D03*
X220047300Y-110008100D03*
D69*
X223484800Y-107408100D03*
%TD*%
D54*
%TO.C,L13*%
X273671617Y-118569002D03*
X274621617Y-118569002D03*
X274621617Y-117619002D03*
X273671617Y-117619002D03*
%TD*%
D65*
%TO.C,X2*%
X255422400Y-111302800D03*
%TD*%
D23*
%TO.C,R7*%
X217813900Y-105855700D03*
X218453900Y-105855700D03*
%TD*%
%TO.C,R26*%
X222996800Y-95656400D03*
X223636800Y-95656400D03*
%TD*%
D65*
%TO.C,X5*%
X238302800Y-121996200D03*
%TD*%
D45*
%TO.C,R40*%
X269671800Y-133983000D03*
X269671800Y-135003000D03*
%TD*%
D46*
%TO.C,L4*%
X185834453Y-123533889D03*
X186783151Y-123583609D03*
X186832871Y-122634911D03*
X185884173Y-122585191D03*
%TD*%
D28*
%TO.C,J4*%
X278380200Y-144195800D03*
D29*
X276380200Y-144195800D03*
X274380200Y-144195800D03*
X272380200Y-144195800D03*
X270380200Y-144195800D03*
X268380200Y-144195800D03*
%TD*%
D62*
%TO.C,D3*%
X165393600Y-135940800D03*
X163993600Y-135940800D03*
%TD*%
D26*
%TO.C,R14*%
X234545841Y-107251253D03*
X234545841Y-108901253D03*
%TD*%
D70*
%TO.C,D2*%
X213868000Y-97820800D03*
X213868000Y-95320800D03*
%TD*%
D71*
%TO.C,D8*%
X184414400Y-132842000D03*
X185064400Y-132842000D03*
X185714400Y-132842000D03*
X185714400Y-130942000D03*
X185064400Y-130942000D03*
X184414400Y-130942000D03*
%TD*%
D72*
%TO.C,JP1*%
X233578400Y-118171200D03*
X233578400Y-119471200D03*
%TD*%
D21*
%TO.C,C10*%
X217779600Y-104495600D03*
X218739600Y-104495600D03*
%TD*%
D28*
%TO.C,J9*%
X173955200Y-136347200D03*
D29*
X175955200Y-136347200D03*
%TD*%
D73*
%TO.C,U6*%
X193924700Y-118455800D03*
X193924700Y-119105800D03*
X193924700Y-119755800D03*
X193924700Y-120405800D03*
X198149700Y-120405800D03*
X198149700Y-119755800D03*
X198149700Y-119105800D03*
X198149700Y-118455800D03*
%TD*%
D25*
%TO.C,C16*%
X229275600Y-114198400D03*
X228635600Y-114198400D03*
%TD*%
%TO.C,C18*%
X201005400Y-126161800D03*
X200365400Y-126161800D03*
%TD*%
%TO.C,R24*%
X220690400Y-99720400D03*
X220050400Y-99720400D03*
%TD*%
D74*
%TO.C,D5*%
X240527800Y-106745800D03*
X240527800Y-106095800D03*
X240527800Y-105445800D03*
X238627800Y-105445800D03*
X238627800Y-106095800D03*
X238627800Y-106745800D03*
%TD*%
D75*
%TO.C,SW5*%
X221483657Y-138353800D03*
X215483657Y-138353800D03*
X221483657Y-134603800D03*
X215483657Y-134603800D03*
%TD*%
D19*
%TO.C,R2*%
X188112400Y-116093200D03*
X188112400Y-115453200D03*
%TD*%
D62*
%TO.C,D15*%
X278703000Y-139039600D03*
X277303000Y-139039600D03*
%TD*%
D66*
%TO.C,D12*%
X211038400Y-134221000D03*
X211038400Y-134871000D03*
X211038400Y-135521000D03*
X212938400Y-135521000D03*
X212938400Y-134871000D03*
X212938400Y-134221000D03*
%TD*%
D76*
%TO.C,C1*%
X176734300Y-128473200D03*
X178459300Y-128473200D03*
%TD*%
D65*
%TO.C,X4*%
X249351800Y-106248200D03*
%TD*%
D63*
%TO.C,SW18*%
X221046157Y-130391400D03*
X221046157Y-124391400D03*
X224796157Y-130391400D03*
X224796157Y-124391400D03*
%TD*%
D53*
%TO.C,C7*%
X219021600Y-101650800D03*
X218061600Y-101650800D03*
%TD*%
D31*
%TO.C,SW4*%
X257844736Y-105535543D03*
D32*
X254091026Y-98804660D03*
%TD*%
D54*
%TO.C,L10*%
X243982313Y-129617540D03*
X244932313Y-129617540D03*
X244932313Y-128667540D03*
X243982313Y-128667540D03*
%TD*%
D77*
%TO.C,C19*%
X198043800Y-102349600D03*
X198043800Y-100799600D03*
%TD*%
D36*
%TO.C,R27*%
X219862400Y-94930000D03*
X219862400Y-95570000D03*
%TD*%
D23*
%TO.C,C25*%
X270672600Y-133934200D03*
X271312600Y-133934200D03*
%TD*%
%TO.C,C20*%
X197546000Y-103479600D03*
X198186000Y-103479600D03*
%TD*%
D78*
%TO.C,D10*%
X226212400Y-96844800D03*
X226212400Y-99344800D03*
%TD*%
D65*
%TO.C,TP5*%
X184658000Y-97891600D03*
%TD*%
D79*
%TO.C,C2*%
X189382400Y-117296100D03*
X189382400Y-115571100D03*
%TD*%
D23*
%TO.C,C34*%
X166558000Y-137083800D03*
X167198000Y-137083800D03*
%TD*%
D63*
%TO.C,SW19*%
X215921157Y-124391400D03*
X215921157Y-130391400D03*
X212171157Y-124391400D03*
X212171157Y-130391400D03*
%TD*%
D71*
%TO.C,D11*%
X187310000Y-131455200D03*
X187960000Y-131455200D03*
X188610000Y-131455200D03*
X188610000Y-129555200D03*
X187960000Y-129555200D03*
X187310000Y-129555200D03*
%TD*%
D42*
%TO.C,Q2*%
X207698100Y-130622000D03*
X207698100Y-132522000D03*
X209573100Y-131572000D03*
%TD*%
D80*
%TO.C,U1*%
X200036000Y-101854800D03*
X200036000Y-102654800D03*
X200036000Y-103454800D03*
X200036000Y-104254800D03*
X200036000Y-105054800D03*
X200036000Y-105854800D03*
X200036000Y-106654800D03*
X200036000Y-107454800D03*
X200036000Y-108254800D03*
X200036000Y-109054800D03*
X200036000Y-109854800D03*
D81*
X201136000Y-110754800D03*
X201936000Y-110754800D03*
X202736000Y-110754800D03*
X203536000Y-110754800D03*
X204336000Y-110754800D03*
X205136000Y-110754800D03*
X205936000Y-110754800D03*
X206736000Y-110754800D03*
X207536000Y-110754800D03*
X208336000Y-110754800D03*
X209136000Y-110754800D03*
X209936000Y-110754800D03*
X210736000Y-110754800D03*
D80*
X211836000Y-109854800D03*
X211836000Y-109054800D03*
X211836000Y-108254800D03*
X211836000Y-107454800D03*
X211836000Y-106654800D03*
X211836000Y-105854800D03*
X211836000Y-105054800D03*
X211836000Y-104254800D03*
X211836000Y-103454800D03*
X211836000Y-102654800D03*
X211836000Y-101854800D03*
D81*
X210736000Y-100954800D03*
X209936000Y-100954800D03*
X209136000Y-100954800D03*
X208336000Y-100954800D03*
X207536000Y-100954800D03*
X206736000Y-100954800D03*
X205936000Y-100954800D03*
X205136000Y-100954800D03*
X204336000Y-100954800D03*
X203536000Y-100954800D03*
X202736000Y-100954800D03*
X201936000Y-100954800D03*
X201136000Y-100954800D03*
D82*
X205936000Y-105854800D03*
D83*
X211886000Y-100904800D03*
X211886000Y-110804800D03*
X199986000Y-110804800D03*
X199986000Y-100904800D03*
D82*
X203986000Y-105854800D03*
X203986000Y-107804800D03*
X205936000Y-107804800D03*
X207886000Y-107804800D03*
X207886000Y-105854800D03*
X207886000Y-103904800D03*
X205936000Y-103904800D03*
%TD*%
D23*
%TO.C,C24*%
X228431576Y-115848352D03*
X229071576Y-115848352D03*
%TD*%
D26*
%TO.C,R13*%
X234715423Y-103453205D03*
X234715423Y-105103205D03*
%TD*%
D36*
%TO.C,C14*%
X235712000Y-108138000D03*
X235712000Y-108778000D03*
%TD*%
D54*
%TO.C,L11*%
X255416532Y-107687626D03*
X256366532Y-107687626D03*
X256366532Y-106737626D03*
X255416532Y-106737626D03*
%TD*%
D84*
%TO.C,J2*%
X229157400Y-128834200D03*
X229157400Y-128334200D03*
X229157400Y-127834200D03*
X229157400Y-127334200D03*
X229157400Y-126834200D03*
X229157400Y-126334200D03*
D85*
X231807400Y-129624200D03*
X231807400Y-125544200D03*
%TD*%
D21*
%TO.C,C9*%
X216390000Y-107450000D03*
X217350000Y-107450000D03*
%TD*%
D19*
%TO.C,R15*%
X232613200Y-114569200D03*
X232613200Y-113929200D03*
%TD*%
D20*
%TO.C,R31*%
X171553600Y-137210800D03*
X170533600Y-137210800D03*
%TD*%
D34*
%TO.C,U5*%
X208178400Y-116763800D03*
X208178400Y-116263800D03*
X208178400Y-115763800D03*
X208178400Y-115263800D03*
D35*
X207280400Y-114865800D03*
X206780400Y-114865800D03*
X206280400Y-114865800D03*
D34*
X205382400Y-115263800D03*
X205382400Y-115763800D03*
X205382400Y-116263800D03*
X205382400Y-116763800D03*
D35*
X206280400Y-117161800D03*
X206780400Y-117161800D03*
X207280400Y-117161800D03*
%TD*%
D16*
%TO.C,R32*%
X170535600Y-135409400D03*
X170535600Y-134389400D03*
%TD*%
D65*
%TO.C,X1*%
X256108200Y-126263400D03*
%TD*%
D71*
%TO.C,Q4*%
X220228400Y-98638400D03*
X220878400Y-98638400D03*
X221528400Y-98638400D03*
X221528400Y-96738400D03*
X220878400Y-96738400D03*
X220228400Y-96738400D03*
%TD*%
D63*
%TO.C,SW9*%
X221046157Y-121516400D03*
X221046157Y-115516400D03*
X224796157Y-121516400D03*
X224796157Y-115516400D03*
%TD*%
D46*
%TO.C,L3*%
X167834453Y-123533889D03*
X168783151Y-123583609D03*
X168832871Y-122634911D03*
X167884173Y-122585191D03*
%TD*%
D70*
%TO.C,D9*%
X230581200Y-98836800D03*
X230581200Y-96336800D03*
%TD*%
D71*
%TO.C,Q3*%
X223124000Y-98638400D03*
X223774000Y-98638400D03*
X224424000Y-98638400D03*
X224424000Y-96738400D03*
X223774000Y-96738400D03*
X223124000Y-96738400D03*
%TD*%
D74*
%TO.C,D4*%
X239710000Y-109605600D03*
X239710000Y-108955600D03*
X239710000Y-108305600D03*
X237810000Y-108305600D03*
X237810000Y-108955600D03*
X237810000Y-109605600D03*
%TD*%
D54*
%TO.C,L6*%
X218008657Y-143038600D03*
X218958657Y-143038600D03*
X218958657Y-142088600D03*
X218008657Y-142088600D03*
%TD*%
D86*
%TO.C,D1*%
X236352400Y-114706400D03*
X233852400Y-114706400D03*
%TD*%
D65*
%TO.C,X6*%
X247421400Y-117881400D03*
%TD*%
D87*
%TO.C,U9*%
X216939993Y-111424008D03*
X217439993Y-111424008D03*
X217939993Y-111424008D03*
X218439993Y-111424008D03*
X218439993Y-109024008D03*
X217939993Y-109024008D03*
X217439993Y-109024008D03*
X216939993Y-109024008D03*
D88*
X217689993Y-110224008D03*
%TD*%
D89*
%TO.C,S6*%
X245983657Y-101434400D03*
%TD*%
%TO.C,S4*%
X243483657Y-101434400D03*
%TD*%
%TO.C,S3*%
X195983657Y-101434400D03*
%TD*%
D90*
%TO.C,J7*%
X279501600Y-127635000D03*
D91*
X279501600Y-125635000D03*
%TD*%
D89*
%TO.C,S5*%
X240983657Y-101434400D03*
%TD*%
D92*
%TO.C,RV2*%
X247833657Y-112934400D03*
X239133657Y-112934400D03*
%TD*%
D93*
%TO.C,B1*%
X232547596Y-111285471D03*
D94*
X234547596Y-111285471D03*
%TD*%
D90*
%TO.C,J6*%
X158623000Y-127635000D03*
D91*
X158623000Y-125635000D03*
%TD*%
D95*
%TO.C,J5*%
X214758635Y-88804400D03*
X222208635Y-88804400D03*
D96*
X221533635Y-89504400D03*
X220883635Y-88804400D03*
X220083635Y-88804400D03*
X219683635Y-89504400D03*
X219283635Y-88804400D03*
X218883635Y-89504400D03*
X218083635Y-89504400D03*
X217683635Y-88804400D03*
X217283635Y-89504400D03*
X216883635Y-88804400D03*
X216083635Y-88804400D03*
X215433635Y-89504400D03*
D97*
X213983635Y-84704400D03*
D98*
X214433635Y-89904400D03*
D97*
X213983635Y-90454400D03*
X222983635Y-84704400D03*
D98*
X222533635Y-89904400D03*
D97*
X222983635Y-90454400D03*
%TD*%
D92*
%TO.C,RV1*%
X197833657Y-112934400D03*
X189133657Y-112934400D03*
%TD*%
D89*
%TO.C,S1*%
X193483657Y-101434400D03*
%TD*%
%TO.C,S2*%
X190983657Y-101434400D03*
%TD*%
M02*
