%TF.GenerationSoftware,KiCad,Pcbnew,8.0.2*%
%TF.CreationDate,2024-06-18T23:34:15-07:00*%
%TF.ProjectId,UGC_Main,5547435f-4d61-4696-9e2e-6b696361645f,rev?*%
%TF.SameCoordinates,Original*%
%TF.FileFunction,Soldermask,Top*%
%TF.FilePolarity,Negative*%
%FSLAX46Y46*%
G04 Gerber Fmt 4.6, Leading zero omitted, Abs format (unit mm)*
G04 Created by KiCad (PCBNEW 8.0.2) date 2024-06-18 23:34:15*
%MOMM*%
%LPD*%
G01*
G04 APERTURE LIST*
G04 Aperture macros list*
%AMRoundRect*
0 Rectangle with rounded corners*
0 $1 Rounding radius*
0 $2 $3 $4 $5 $6 $7 $8 $9 X,Y pos of 4 corners*
0 Add a 4 corners polygon primitive as box body*
4,1,4,$2,$3,$4,$5,$6,$7,$8,$9,$2,$3,0*
0 Add four circle primitives for the rounded corners*
1,1,$1+$1,$2,$3*
1,1,$1+$1,$4,$5*
1,1,$1+$1,$6,$7*
1,1,$1+$1,$8,$9*
0 Add four rect primitives between the rounded corners*
20,1,$1+$1,$2,$3,$4,$5,0*
20,1,$1+$1,$4,$5,$6,$7,0*
20,1,$1+$1,$6,$7,$8,$9,0*
20,1,$1+$1,$8,$9,$2,$3,0*%
%AMHorizOval*
0 Thick line with rounded ends*
0 $1 width*
0 $2 $3 position (X,Y) of the first rounded end (center of the circle)*
0 $4 $5 position (X,Y) of the second rounded end (center of the circle)*
0 Add line between two ends*
20,1,$1,$2,$3,$4,$5,0*
0 Add two circle primitives to create the rounded ends*
1,1,$1,$2,$3*
1,1,$1,$4,$5*%
%AMRotRect*
0 Rectangle, with rotation*
0 The origin of the aperture is its center*
0 $1 length*
0 $2 width*
0 $3 Rotation angle, in degrees counterclockwise*
0 Add horizontal line*
21,1,$1,$2,0,0,$3*%
%AMFreePoly0*
4,1,493,1.979705,0.664447,1.999168,0.662594,2.006714,0.659095,2.034586,0.631890,2.038349,0.623329,2.039544,0.584399,2.036313,0.575621,2.010160,0.546760,2.002838,0.542806,1.983525,0.539771,1.982582,0.539659,1.789093,0.524161,1.406440,0.459306,1.032280,0.356518,0.670266,0.216810,0.324043,0.041587,-0.002900,-0.167384,-0.307310,-0.408026,-0.586108,-0.677901,-0.836520,-0.974327,
-1.056016,-1.294307,-1.242404,-1.634651,-1.393806,-1.991922,-1.508705,-2.362544,-1.585955,-2.742819,-1.624780,-3.128972,-1.627154,-3.322905,-1.624829,-3.501046,-1.586284,-3.855466,-1.509662,-4.203559,-1.395856,-4.541327,-1.246193,-4.864816,-1.062438,-5.170219,-0.846737,-5.453970,-0.601623,-5.712733,-0.329970,-5.943477,-0.034959,-6.143500,0.279949,-6.310454,0.611062,-6.442382,0.954494,-6.537735,
1.306219,-6.595398,1.662130,-6.614695,2.018040,-6.595398,2.369765,-6.537735,2.713197,-6.442382,3.044310,-6.310454,3.359219,-6.143500,3.654230,-5.943477,3.925883,-5.712733,4.170997,-5.453970,4.386698,-5.170219,4.570453,-4.864816,4.720116,-4.541327,4.833922,-4.203559,4.910544,-3.855466,4.949089,-3.501046,4.951414,-3.322933,4.949045,-3.159397,4.909593,-2.834477,4.831285,-2.516773,
4.715251,-2.210813,4.563188,-1.921083,4.377307,-1.651788,4.160325,-1.406864,3.915401,-1.189881,3.646106,-1.004000,3.356376,-0.851938,3.050416,-0.735903,2.732712,-0.657595,2.407880,-0.618155,2.080668,-0.618155,1.755835,-0.657595,1.438131,-0.735903,1.132171,-0.851938,0.842441,-1.004000,0.573146,-1.189881,0.328222,-1.406864,0.111240,-1.651788,-0.074640,-1.921083,-0.226703,-2.210813,
-0.342737,-2.516773,-0.421045,-2.834477,-0.460497,-3.159397,-0.462867,-3.322915,-0.460392,-3.467988,-0.420837,-3.755768,-0.342500,-4.035359,-0.226816,-4.301689,-0.075947,-4.549784,0.107301,-4.775027,0.319511,-4.973217,0.556727,-5.140662,0.814550,-5.274256,1.088142,-5.371491,1.372442,-5.430568,1.662131,-5.450384,1.951819,-5.430568,2.236119,-5.371491,2.509711,-5.274256,2.767534,-5.140662,
3.004750,-4.973217,3.216960,-4.775027,3.400209,-4.549784,3.551078,-4.301689,3.666762,-4.035359,3.745099,-3.755768,3.784654,-3.467988,3.787128,-3.322948,3.784750,-3.201796,3.746801,-2.962191,3.671873,-2.731587,3.561790,-2.515537,3.419270,-2.319375,3.247813,-2.147918,3.051651,-2.005398,2.835601,-1.895315,2.604997,-1.820387,2.365511,-1.782457,2.123035,-1.782457,1.883548,-1.820387,
1.652944,-1.895315,1.436894,-2.005398,1.240732,-2.147918,1.069275,-2.319375,0.926755,-2.515537,0.816672,-2.731587,0.741744,-2.962191,0.703795,-3.201796,0.701419,-3.322878,0.704046,-3.423450,0.745952,-3.620602,0.827863,-3.804577,0.946239,-3.967509,1.095900,-4.102263,1.270309,-4.202958,1.461840,-4.265190,1.662130,-4.286242,1.862419,-4.265190,2.053950,-4.202958,2.228359,-4.102263,
2.378020,-3.967509,2.496396,-3.804577,2.578307,-3.620602,2.620212,-3.423450,2.622838,-3.322985,2.620516,-3.263576,2.583616,-3.150013,2.513577,-3.053612,2.417176,-2.983573,2.303853,-2.946752,2.184695,-2.946752,2.071371,-2.983573,1.974970,-3.053612,1.904931,-3.150013,1.868031,-3.263576,1.865692,-3.323404,1.865683,-3.323610,1.863287,-3.366674,1.862068,-3.371404,1.824698,-3.449003,
1.821230,-3.453352,1.753893,-3.507052,1.748880,-3.509466,1.664911,-3.528631,1.659349,-3.528631,1.575380,-3.509466,1.570367,-3.507052,1.503030,-3.453352,1.499562,-3.449003,1.462192,-3.371404,1.460973,-3.366674,1.458578,-3.323610,1.458564,-3.322566,1.460994,-3.235720,1.461302,-3.233288,1.499953,-3.063950,1.500878,-3.061308,1.576240,-2.904816,1.577729,-2.902446,1.686025,-2.766648,
1.688004,-2.764669,1.823803,-2.656373,1.826173,-2.654884,1.982665,-2.579522,1.985308,-2.578597,2.154646,-2.539947,2.157427,-2.539634,2.331119,-2.539634,2.333900,-2.539947,2.503238,-2.578597,2.505881,-2.579522,2.662373,-2.654884,2.664743,-2.656373,2.800542,-2.764669,2.802521,-2.766648,2.910817,-2.902446,2.912306,-2.904816,2.987668,-3.061308,2.988593,-3.063950,3.027244,-3.233288,
3.027552,-3.235720,3.029983,-3.322566,3.029985,-3.323188,3.027405,-3.441541,3.027218,-3.443440,2.986115,-3.676549,2.985551,-3.678653,2.904593,-3.901084,2.903672,-3.903059,2.785319,-4.108052,2.784070,-4.109837,2.631918,-4.291163,2.630377,-4.292704,2.449051,-4.444856,2.447266,-4.446105,2.242273,-4.564458,2.240298,-4.565379,2.017867,-4.646337,2.015763,-4.646901,1.782654,-4.688004,
1.780483,-4.688194,1.543777,-4.688194,1.541606,-4.688004,1.308497,-4.646901,1.306393,-4.646337,1.083962,-4.565379,1.081987,-4.564458,0.876994,-4.446105,0.875209,-4.444856,0.693883,-4.292704,0.692342,-4.291163,0.540190,-4.109837,0.538941,-4.108052,0.420588,-3.903059,0.419667,-3.901084,0.338709,-3.678653,0.338145,-3.676549,0.297042,-3.443440,0.296855,-3.441541,0.294276,-3.323188,
0.294275,-3.322693,0.296743,-3.184297,0.296868,-3.182741,0.336260,-2.908766,0.336639,-2.907023,0.414620,-2.641442,0.415244,-2.639771,0.530228,-2.387992,0.531082,-2.386427,0.680727,-2.153575,0.681796,-2.152147,0.863057,-1.942961,0.864318,-1.941700,1.073504,-1.760439,1.074932,-1.759370,1.307784,-1.609725,1.309349,-1.608871,1.561128,-1.493887,1.562799,-1.493263,1.828380,-1.415282,
1.830123,-1.414903,2.104098,-1.375511,2.105877,-1.375384,2.382669,-1.375384,2.384448,-1.375511,2.658423,-1.414903,2.660166,-1.415282,2.925747,-1.493263,2.927418,-1.493887,3.179197,-1.608871,3.180762,-1.609725,3.413614,-1.759370,3.415042,-1.760439,3.624228,-1.941700,3.625489,-1.942961,3.806750,-2.152147,3.807819,-2.153575,3.957464,-2.386427,3.958318,-2.387992,4.073302,-2.639771,
4.073926,-2.641442,4.151907,-2.907023,4.152286,-2.908766,4.191678,-3.182741,4.191803,-3.184297,4.194271,-3.322693,4.194272,-3.323104,4.191890,-3.481477,4.191792,-3.482856,4.152093,-3.797103,4.151799,-3.798645,4.073028,-4.105439,4.072543,-4.106932,3.955942,-4.401435,3.955274,-4.402855,3.802680,-4.680421,3.801839,-4.681746,3.615661,-4.937998,3.614660,-4.939208,3.397833,-5.170105,
3.396689,-5.171179,3.152633,-5.373080,3.151363,-5.374003,2.883926,-5.543724,2.882550,-5.544480,2.595951,-5.679344,2.594492,-5.679922,2.293249,-5.777801,2.291728,-5.778192,1.980593,-5.837544,1.979036,-5.837740,1.662916,-5.857629,1.661346,-5.857629,1.345226,-5.837740,1.343669,-5.837544,1.032534,-5.778192,1.031013,-5.777801,0.729770,-5.679922,0.728311,-5.679344,0.441712,-5.544480,
0.440336,-5.543724,0.172899,-5.374003,0.171629,-5.373080,-0.072427,-5.171179,-0.073571,-5.170105,-0.290398,-4.939208,-0.291399,-4.937998,-0.477577,-4.681746,-0.478418,-4.680421,-0.631012,-4.402855,-0.631680,-4.401435,-0.748281,-4.106932,-0.748766,-4.105439,-0.827537,-3.798645,-0.827831,-3.797103,-0.867530,-3.482856,-0.867628,-3.481477,-0.870011,-3.323104,-0.870011,-3.322747,-0.867660,-3.148686,
-0.867582,-3.147455,-0.828605,-2.801523,-0.828371,-2.800141,-0.750907,-2.460748,-0.750519,-2.459402,-0.635542,-2.130816,-0.635005,-2.129520,-0.483961,-1.815874,-0.483283,-1.814648,-0.298071,-1.519885,-0.297260,-1.518741,-0.080210,-1.246569,-0.079276,-1.245524,0.166883,-0.999366,0.167928,-0.998432,0.440100,-0.781382,0.441244,-0.780571,0.736006,-0.595359,0.737232,-0.594681,1.050879,-0.443637,
1.052175,-0.443100,1.380760,-0.328123,1.382106,-0.327735,1.721499,-0.250270,1.722881,-0.250036,2.068813,-0.211059,2.070213,-0.210980,2.418335,-0.210980,2.419735,-0.211059,2.765667,-0.250036,2.767049,-0.250270,3.106442,-0.327735,3.107788,-0.328123,3.436373,-0.443100,3.437669,-0.443637,3.751316,-0.594681,3.752542,-0.595359,4.047304,-0.780571,4.048448,-0.781382,4.320620,-0.998432,
4.321665,-0.999366,4.567824,-1.245524,4.568758,-1.246569,4.785808,-1.518741,4.786619,-1.519885,4.971831,-1.814648,4.972509,-1.815874,5.123553,-2.129520,5.124090,-2.130816,5.239067,-2.459402,5.239455,-2.460748,5.316919,-2.800141,5.317153,-2.801523,5.356130,-3.147455,5.356208,-3.148686,5.358558,-3.322747,5.358558,-3.323074,5.356121,-3.516013,5.356054,-3.517162,5.315719,-3.900926,
5.315514,-3.902218,5.235286,-4.279663,5.234947,-4.280927,5.115704,-4.647918,5.115235,-4.649139,4.958285,-5.001656,4.957691,-5.002822,4.764752,-5.337002,4.764040,-5.338099,4.537227,-5.650281,4.536403,-5.651298,4.278200,-5.938061,4.277275,-5.938986,3.990512,-6.197188,3.989495,-6.198012,3.677314,-6.424825,3.676217,-6.425537,3.342037,-6.618476,3.340871,-6.619070,2.988354,-6.776021,
2.987133,-6.776490,2.620142,-6.895733,2.618878,-6.896072,2.241433,-6.976300,2.240141,-6.976505,1.856377,-7.016840,1.855070,-7.016908,1.469192,-7.016908,1.467885,-7.016840,1.084121,-6.976505,1.082829,-6.976300,0.705384,-6.896072,0.704120,-6.895733,0.337129,-6.776490,0.335908,-6.776021,-0.016609,-6.619070,-0.017775,-6.618476,-0.351955,-6.425537,-0.353052,-6.424825,-0.665233,-6.198012,
-0.666250,-6.197188,-0.953013,-5.938986,-0.953938,-5.938061,-1.212141,-5.651298,-1.212965,-5.650281,-1.439778,-5.338099,-1.440490,-5.337002,-1.633429,-5.002822,-1.634023,-5.001656,-1.790973,-4.649139,-1.791442,-4.647918,-1.910685,-4.280927,-1.911024,-4.279663,-1.991252,-3.902218,-1.991457,-3.900926,-2.031792,-3.517162,-2.031859,-3.516013,-2.034297,-3.323074,-2.034297,-3.322766,-2.031940,-3.126810,
-2.031880,-3.125730,-1.993311,-2.735720,-1.993130,-2.734502,-1.916366,-2.350182,-1.916065,-2.348987,-1.801851,-1.974086,-1.801435,-1.972927,-1.650880,-1.611087,-1.650351,-1.609975,-1.464917,-1.264707,-1.464282,-1.263652,-1.245770,-0.938310,-1.245033,-0.937322,-0.995563,-0.635064,-0.994734,-0.634154,-0.716729,-0.357914,-0.715813,-0.357090,-0.411972,-0.109551,-0.410980,-0.108821,-0.084253,0.107615,
-0.083194,0.108244,0.263247,0.291475,0.264363,0.291996,0.627155,0.440243,0.628316,0.440652,1.003937,0.552475,1.005134,0.552768,1.389935,0.627083,1.391154,0.627257,1.781402,0.663342,1.782482,0.663395,1.978449,0.664503,1.979705,0.664447,1.979705,0.664447,$1*%
%AMFreePoly1*
4,1,493,-1.315191,7.101891,-0.931427,7.061556,-0.930135,7.061351,-0.552690,6.981123,-0.551426,6.980784,-0.184435,6.861541,-0.183214,6.861072,0.169303,6.704121,0.170469,6.703527,0.504649,6.510588,0.505746,6.509876,0.817927,6.283063,0.818944,6.282239,1.105707,6.024037,1.106632,6.023112,1.364835,5.736349,1.365659,5.735332,1.592472,5.423150,1.593184,5.422053,1.786123,5.087873,
1.786717,5.086707,1.943667,4.734190,1.944136,4.732969,2.063379,4.365978,2.063718,4.364714,2.143946,3.987269,2.144151,3.985977,2.184486,3.602213,2.184553,3.601064,2.186991,3.408125,2.186991,3.407817,2.184634,3.211861,2.184574,3.210781,2.146005,2.820771,2.145824,2.819553,2.069060,2.435233,2.068759,2.434038,1.954545,2.059137,1.954129,2.057978,1.803574,1.696138,
1.803045,1.695026,1.617611,1.349758,1.616976,1.348703,1.398464,1.023361,1.397727,1.022373,1.148257,0.720115,1.147428,0.719205,0.869423,0.442965,0.868507,0.442141,0.564666,0.194602,0.563674,0.193872,0.236947,-0.022564,0.235888,-0.023193,-0.110553,-0.206424,-0.111669,-0.206945,-0.474461,-0.355192,-0.475622,-0.355601,-0.851243,-0.467424,-0.852440,-0.467717,-1.237241,-0.542032,
-1.238460,-0.542206,-1.628708,-0.578291,-1.629788,-0.578344,-1.825755,-0.579452,-1.827006,-0.579396,-1.846471,-0.577551,-1.854022,-0.574053,-1.881899,-0.546847,-1.885662,-0.538284,-1.886856,-0.499349,-1.883625,-0.490572,-1.857469,-0.461708,-1.850146,-0.457753,-1.830830,-0.454719,-1.829888,-0.454608,-1.636399,-0.439110,-1.253746,-0.374256,-0.879585,-0.271467,-0.517572,-0.131760,-0.171349,0.043463,
0.155595,0.252435,0.460004,0.493076,0.738803,0.762951,0.989215,1.059378,1.208710,1.379358,1.395098,1.719701,1.546501,2.076973,1.661399,2.447595,1.738649,2.827870,1.777474,3.214023,1.779848,3.407967,1.777523,3.586097,1.738978,3.940517,1.662356,4.288610,1.548550,4.626378,1.398887,4.949867,1.215132,5.255270,0.999431,5.539021,0.754317,5.797784,0.482664,6.028528,
0.187653,6.228551,-0.127255,6.395505,-0.458368,6.527433,-0.801800,6.622786,-1.153525,6.680449,-1.509436,6.699746,-1.865346,6.680449,-2.217071,6.622786,-2.560503,6.527433,-2.891616,6.395505,-3.206525,6.228551,-3.501536,6.028528,-3.773189,5.797784,-4.018303,5.539021,-4.234004,5.255270,-4.417759,4.949867,-4.567422,4.626378,-4.681228,4.288610,-4.757850,3.940517,-4.796395,3.586097,
-4.798720,3.407984,-4.796351,3.244448,-4.756899,2.919528,-4.678591,2.601824,-4.562557,2.295864,-4.410494,2.006134,-4.224613,1.736839,-4.007631,1.491915,-3.762707,1.274932,-3.493412,1.089051,-3.203682,0.936989,-2.897722,0.820954,-2.580018,0.742646,-2.255186,0.703206,-1.927974,0.703206,-1.603141,0.742646,-1.285437,0.820954,-0.979477,0.936989,-0.689747,1.089051,-0.420452,1.274932,
-0.175528,1.491915,0.041453,1.736839,0.227334,2.006134,0.379397,2.295864,0.495431,2.601824,0.573739,2.919528,0.613191,3.244448,0.615561,3.407967,0.613086,3.553039,0.573531,3.840819,0.495194,4.120410,0.379510,4.386740,0.228641,4.634835,0.045392,4.860078,-0.166817,5.058268,-0.404033,5.225713,-0.661856,5.359307,-0.935448,5.456542,-1.219748,5.515619,-1.509437,5.535435,
-1.799125,5.515619,-2.083425,5.456542,-2.357017,5.359307,-2.614840,5.225713,-2.852056,5.058268,-3.064266,4.860078,-3.247515,4.634835,-3.398384,4.386740,-3.514068,4.120410,-3.592405,3.840819,-3.631960,3.553039,-3.634434,3.407999,-3.632056,3.286847,-3.594107,3.047242,-3.519179,2.816639,-3.409096,2.600588,-3.266576,2.404426,-3.095119,2.232970,-2.898957,2.090450,-2.682906,1.980367,
-2.452303,1.905439,-2.212817,1.867509,-1.970341,1.867509,-1.730854,1.905439,-1.500251,1.980367,-1.284200,2.090450,-1.088038,2.232970,-0.916581,2.404426,-0.774061,2.600588,-0.663978,2.816639,-0.589050,3.047242,-0.551101,3.286847,-0.548725,3.407929,-0.551352,3.508501,-0.593258,3.705653,-0.675169,3.889628,-0.793545,4.052560,-0.943206,4.187314,-1.117615,4.288009,-1.309146,4.350241,
-1.509436,4.371293,-1.709725,4.350241,-1.901256,4.288009,-2.075665,4.187314,-2.225326,4.052560,-2.343702,3.889628,-2.425613,3.705653,-2.467518,3.508501,-2.470144,3.408036,-2.467822,3.348627,-2.430922,3.235064,-2.360883,3.138663,-2.264482,3.068624,-2.151159,3.031803,-2.032001,3.031803,-1.918677,3.068624,-1.822276,3.138663,-1.752237,3.235064,-1.715337,3.348627,-1.712998,3.408455,
-1.712989,3.408661,-1.710595,3.451725,-1.709376,3.456455,-1.672006,3.534054,-1.668538,3.538403,-1.601200,3.592104,-1.596187,3.594518,-1.512218,3.613683,-1.506656,3.613683,-1.422687,3.594518,-1.417674,3.592104,-1.350336,3.538403,-1.346868,3.534054,-1.309498,3.456455,-1.308279,3.451725,-1.305884,3.408661,-1.305870,3.407617,-1.308300,3.320771,-1.308608,3.318339,-1.347259,3.149001,
-1.348184,3.146359,-1.423546,2.989867,-1.425035,2.987497,-1.533331,2.851699,-1.535310,2.849720,-1.671109,2.741424,-1.673479,2.739935,-1.829971,2.664573,-1.832614,2.663648,-2.001952,2.624998,-2.004733,2.624685,-2.178425,2.624685,-2.181206,2.624998,-2.350544,2.663648,-2.353187,2.664573,-2.509679,2.739935,-2.512049,2.741424,-2.647848,2.849720,-2.649827,2.851699,-2.758123,2.987497,
-2.759612,2.989867,-2.834974,3.146359,-2.835899,3.149001,-2.874550,3.318339,-2.874858,3.320771,-2.877289,3.407617,-2.877291,3.408239,-2.874711,3.526592,-2.874524,3.528491,-2.833421,3.761600,-2.832857,3.763704,-2.751899,3.986135,-2.750978,3.988110,-2.632625,4.193103,-2.631376,4.194888,-2.479224,4.376214,-2.477683,4.377755,-2.296357,4.529907,-2.294572,4.531156,-2.089579,4.649509,
-2.087604,4.650430,-1.865173,4.731388,-1.863069,4.731952,-1.629960,4.773055,-1.627789,4.773245,-1.391083,4.773245,-1.388912,4.773055,-1.155803,4.731952,-1.153699,4.731388,-0.931268,4.650430,-0.929293,4.649509,-0.724300,4.531156,-0.722515,4.529907,-0.541189,4.377755,-0.539648,4.376214,-0.387496,4.194888,-0.386247,4.193103,-0.267894,3.988110,-0.266973,3.986135,-0.186015,3.763704,
-0.185451,3.761600,-0.144348,3.528491,-0.144161,3.526592,-0.141582,3.408239,-0.141581,3.407744,-0.144049,3.269348,-0.144174,3.267792,-0.183566,2.993817,-0.183945,2.992074,-0.261926,2.726493,-0.262550,2.724822,-0.377534,2.473043,-0.378388,2.471478,-0.528033,2.238626,-0.529102,2.237198,-0.710363,2.028012,-0.711624,2.026751,-0.920810,1.845490,-0.922238,1.844421,-1.155090,1.694776,
-1.156655,1.693922,-1.408434,1.578938,-1.410105,1.578314,-1.675686,1.500333,-1.677429,1.499954,-1.951404,1.460562,-1.953183,1.460435,-2.229975,1.460435,-2.231754,1.460562,-2.505729,1.499954,-2.507472,1.500333,-2.773053,1.578314,-2.774724,1.578938,-3.026503,1.693922,-3.028068,1.694776,-3.260920,1.844421,-3.262348,1.845490,-3.471534,2.026751,-3.472795,2.028012,-3.654056,2.237198,
-3.655125,2.238626,-3.804770,2.471478,-3.805624,2.473043,-3.920608,2.724822,-3.921232,2.726493,-3.999213,2.992074,-3.999592,2.993817,-4.038984,3.267792,-4.039109,3.269348,-4.041577,3.407744,-4.041578,3.408155,-4.039196,3.566528,-4.039098,3.567907,-3.999399,3.882154,-3.999105,3.883696,-3.920334,4.190490,-3.919849,4.191983,-3.803248,4.486486,-3.802580,4.487906,-3.649986,4.765472,
-3.649145,4.766797,-3.462967,5.023049,-3.461966,5.024259,-3.245139,5.255156,-3.243995,5.256230,-2.999939,5.458131,-2.998669,5.459054,-2.731232,5.628775,-2.729856,5.629531,-2.443257,5.764395,-2.441798,5.764973,-2.140555,5.862852,-2.139034,5.863243,-1.827899,5.922595,-1.826342,5.922791,-1.510222,5.942680,-1.508652,5.942680,-1.192532,5.922791,-1.190975,5.922595,-0.879840,5.863243,
-0.878319,5.862852,-0.577076,5.764973,-0.575617,5.764395,-0.289018,5.629531,-0.287642,5.628775,-0.020205,5.459054,-0.018935,5.458131,0.225121,5.256230,0.226265,5.255156,0.443092,5.024259,0.444093,5.023049,0.630271,4.766797,0.631112,4.765472,0.783706,4.487906,0.784374,4.486486,0.900975,4.191983,0.901460,4.190490,0.980231,3.883696,0.980525,3.882154,1.020224,3.567907,
1.020322,3.566528,1.022705,3.408155,1.022705,3.407798,1.020354,3.233737,1.020276,3.232506,0.981299,2.886574,0.981065,2.885192,0.903601,2.545799,0.903213,2.544453,0.788236,2.215867,0.787699,2.214571,0.636655,1.900925,0.635977,1.899699,0.450765,1.604936,0.449954,1.603792,0.232904,1.331620,0.231970,1.330575,-0.014189,1.084417,-0.015234,1.083483,-0.287406,0.866433,
-0.288550,0.865622,-0.583312,0.680410,-0.584538,0.679732,-0.898185,0.528688,-0.899481,0.528151,-1.228066,0.413174,-1.229412,0.412786,-1.568805,0.335321,-1.570187,0.335087,-1.916119,0.296110,-1.917519,0.296031,-2.265641,0.296031,-2.267041,0.296110,-2.612973,0.335087,-2.614355,0.335321,-2.953748,0.412786,-2.955094,0.413174,-3.283679,0.528151,-3.284975,0.528688,-3.598622,0.679732,
-3.599848,0.680410,-3.894610,0.865622,-3.895754,0.866433,-4.167926,1.083483,-4.168971,1.084417,-4.415130,1.330575,-4.416064,1.331620,-4.633114,1.603792,-4.633925,1.604936,-4.819137,1.899699,-4.819815,1.900925,-4.970859,2.214571,-4.971396,2.215867,-5.086373,2.544453,-5.086761,2.545799,-5.164225,2.885192,-5.164459,2.886574,-5.203436,3.232506,-5.203514,3.233737,-5.205864,3.407798,
-5.205864,3.408125,-5.203427,3.601064,-5.203360,3.602213,-5.163025,3.985977,-5.162820,3.987269,-5.082592,4.364714,-5.082253,4.365978,-4.963010,4.732969,-4.962541,4.734190,-4.805591,5.086707,-4.804997,5.087873,-4.612058,5.422053,-4.611346,5.423150,-4.384533,5.735332,-4.383709,5.736349,-4.125506,6.023112,-4.124581,6.024037,-3.837818,6.282239,-3.836801,6.283063,-3.524620,6.509876,
-3.523523,6.510588,-3.189343,6.703527,-3.188177,6.704121,-2.835660,6.861072,-2.834439,6.861541,-2.467448,6.980784,-2.466184,6.981123,-2.088739,7.061351,-2.087447,7.061556,-1.703683,7.101891,-1.702376,7.101959,-1.316498,7.101959,-1.315191,7.101891,-1.315191,7.101891,$1*%
G04 Aperture macros list end*
%ADD10C,0.000000*%
%ADD11C,0.250000*%
%ADD12C,4.012500*%
%ADD13C,3.150000*%
%ADD14C,0.025000*%
%ADD15C,0.010000*%
%ADD16RoundRect,0.100000X0.100000X-0.130000X0.100000X0.130000X-0.100000X0.130000X-0.100000X-0.130000X0*%
%ADD17RoundRect,0.140000X-0.140000X-0.170000X0.140000X-0.170000X0.140000X0.170000X-0.140000X0.170000X0*%
%ADD18RoundRect,0.250000X0.475000X-0.250000X0.475000X0.250000X-0.475000X0.250000X-0.475000X-0.250000X0*%
%ADD19RoundRect,0.135000X0.185000X-0.135000X0.185000X0.135000X-0.185000X0.135000X-0.185000X-0.135000X0*%
%ADD20RoundRect,0.100000X-0.130000X-0.100000X0.130000X-0.100000X0.130000X0.100000X-0.130000X0.100000X0*%
%ADD21R,0.550000X0.500000*%
%ADD22RoundRect,0.100000X0.130000X0.100000X-0.130000X0.100000X-0.130000X-0.100000X0.130000X-0.100000X0*%
%ADD23RoundRect,0.200000X-0.275000X0.200000X-0.275000X-0.200000X0.275000X-0.200000X0.275000X0.200000X0*%
%ADD24RoundRect,0.200000X0.275000X-0.200000X0.275000X0.200000X-0.275000X0.200000X-0.275000X-0.200000X0*%
%ADD25R,1.350000X1.350000*%
%ADD26O,1.350000X1.350000*%
%ADD27RoundRect,0.250000X0.375000X0.850000X-0.375000X0.850000X-0.375000X-0.850000X0.375000X-0.850000X0*%
%ADD28RotRect,1.000000X1.000000X357.000000*%
%ADD29FreePoly0,180.000000*%
%ADD30FreePoly1,180.000000*%
%ADD31RoundRect,0.100000X-0.100000X0.130000X-0.100000X-0.130000X0.100000X-0.130000X0.100000X0.130000X0*%
%ADD32R,0.745000X0.280000*%
%ADD33R,0.280000X0.745000*%
%ADD34RoundRect,0.225000X-0.225000X-0.250000X0.225000X-0.250000X0.225000X0.250000X-0.225000X0.250000X0*%
%ADD35RoundRect,0.050000X0.075000X-0.225000X0.075000X0.225000X-0.075000X0.225000X-0.075000X-0.225000X0*%
%ADD36RoundRect,0.050000X0.050000X-0.225000X0.050000X0.225000X-0.050000X0.225000X-0.050000X-0.225000X0*%
%ADD37RoundRect,0.050000X0.250000X-0.100000X0.250000X0.100000X-0.250000X0.100000X-0.250000X-0.100000X0*%
%ADD38RoundRect,0.150000X-0.587500X-0.150000X0.587500X-0.150000X0.587500X0.150000X-0.587500X0.150000X0*%
%ADD39RoundRect,0.250000X-0.425000X0.450000X-0.425000X-0.450000X0.425000X-0.450000X0.425000X0.450000X0*%
%ADD40RoundRect,0.135000X-0.185000X0.135000X-0.185000X-0.135000X0.185000X-0.135000X0.185000X0.135000X0*%
%ADD41RotRect,0.550000X0.550000X357.000000*%
%ADD42C,1.750000*%
%ADD43C,1.600000*%
%ADD44C,1.250000*%
%ADD45R,1.300000X0.600000*%
%ADD46R,2.300000X3.200000*%
%ADD47RoundRect,0.140000X0.140000X0.170000X-0.140000X0.170000X-0.140000X-0.170000X0.140000X-0.170000X0*%
%ADD48R,0.550000X0.550000*%
%ADD49C,0.230000*%
%ADD50RoundRect,0.140000X-0.170000X0.140000X-0.170000X-0.140000X0.170000X-0.140000X0.170000X0.140000X0*%
%ADD51RoundRect,0.250000X-0.475000X0.250000X-0.475000X-0.250000X0.475000X-0.250000X0.475000X0.250000X0*%
%ADD52RoundRect,0.135000X-0.135000X-0.185000X0.135000X-0.185000X0.135000X0.185000X-0.135000X0.185000X0*%
%ADD53HorizOval,2.250000X-0.250000X0.433013X0.250000X-0.433013X0*%
%ADD54HorizOval,1.700000X0.259808X0.150000X-0.259808X-0.150000X0*%
%ADD55HorizOval,2.250000X-0.250000X-0.433013X0.250000X0.433013X0*%
%ADD56HorizOval,1.700000X0.259808X-0.150000X-0.259808X0.150000X0*%
%ADD57R,0.750000X1.000000*%
%ADD58RoundRect,0.100000X-0.225000X-0.100000X0.225000X-0.100000X0.225000X0.100000X-0.225000X0.100000X0*%
%ADD59RoundRect,0.050000X0.050000X-0.387500X0.050000X0.387500X-0.050000X0.387500X-0.050000X-0.387500X0*%
%ADD60RoundRect,0.050000X0.387500X-0.050000X0.387500X0.050000X-0.387500X0.050000X-0.387500X-0.050000X0*%
%ADD61R,3.200000X3.200000*%
%ADD62RoundRect,0.250000X0.250000X-0.250000X0.250000X0.250000X-0.250000X0.250000X-0.250000X-0.250000X0*%
%ADD63RoundRect,0.100000X0.100000X-0.225000X0.100000X0.225000X-0.100000X0.225000X-0.100000X-0.225000X0*%
%ADD64R,1.500000X1.000000*%
%ADD65RoundRect,0.100000X-0.712500X-0.100000X0.712500X-0.100000X0.712500X0.100000X-0.712500X0.100000X0*%
%ADD66RoundRect,0.100000X0.225000X0.100000X-0.225000X0.100000X-0.225000X-0.100000X0.225000X-0.100000X0*%
%ADD67R,1.000000X0.750000*%
%ADD68R,1.900000X0.400000*%
%ADD69RoundRect,0.237500X-0.300000X-0.237500X0.300000X-0.237500X0.300000X0.237500X-0.300000X0.237500X0*%
%ADD70RotRect,1.000000X1.000000X267.000000*%
%ADD71RoundRect,0.225000X0.250000X-0.225000X0.250000X0.225000X-0.250000X0.225000X-0.250000X-0.225000X0*%
%ADD72RoundRect,0.250000X-0.250000X0.250000X-0.250000X-0.250000X0.250000X-0.250000X0.250000X0.250000X0*%
%ADD73C,1.500000*%
%ADD74RoundRect,0.237500X0.237500X-0.300000X0.237500X0.300000X-0.237500X0.300000X-0.237500X-0.300000X0*%
%ADD75R,0.800000X0.400000*%
%ADD76R,0.400000X0.800000*%
%ADD77R,1.450000X1.450000*%
%ADD78R,0.700000X0.700000*%
%ADD79O,3.250000X2.250000*%
%ADD80RoundRect,0.250000X0.250000X0.250000X-0.250000X0.250000X-0.250000X-0.250000X0.250000X-0.250000X0*%
%ADD81R,0.300000X0.400000*%
%ADD82R,1.600000X0.200000*%
%ADD83O,1.250000X2.500000*%
%ADD84O,1.600000X2.500000*%
%ADD85RoundRect,0.250000X-0.350000X-0.625000X0.350000X-0.625000X0.350000X0.625000X-0.350000X0.625000X0*%
%ADD86O,1.200000X1.750000*%
%ADD87C,0.700000*%
%ADD88C,0.804000*%
%ADD89O,1.204000X2.204000*%
%ADD90C,1.104000*%
G04 APERTURE END LIST*
D10*
G36*
X196138800Y-143103600D02*
G01*
X196262106Y-143187192D01*
X196376141Y-143272142D01*
X196481154Y-143358278D01*
X196577394Y-143445426D01*
X196665108Y-143533414D01*
X196744545Y-143622068D01*
X196815953Y-143711215D01*
X196879580Y-143800682D01*
X196935676Y-143890295D01*
X196984487Y-143979881D01*
X197026263Y-144069268D01*
X197061251Y-144158282D01*
X197089701Y-144246749D01*
X197111859Y-144334497D01*
X197127975Y-144421352D01*
X197138297Y-144507142D01*
X197143073Y-144591692D01*
X197142551Y-144674831D01*
X197136980Y-144756384D01*
X197126607Y-144836178D01*
X197111682Y-144914040D01*
X197092453Y-144989798D01*
X197069167Y-145063277D01*
X197042074Y-145134305D01*
X197011420Y-145202708D01*
X196977456Y-145268313D01*
X196940428Y-145330948D01*
X196900586Y-145390438D01*
X196858177Y-145446611D01*
X196813450Y-145499293D01*
X196766653Y-145548312D01*
X196745009Y-145570862D01*
X196724729Y-145593834D01*
X196705823Y-145617187D01*
X196688299Y-145640877D01*
X196672165Y-145664863D01*
X196657430Y-145689103D01*
X196644103Y-145713553D01*
X196632191Y-145738171D01*
X196621704Y-145762915D01*
X196612650Y-145787743D01*
X196605036Y-145812612D01*
X196598873Y-145837480D01*
X196594168Y-145862305D01*
X196590929Y-145887043D01*
X196589166Y-145911653D01*
X196588886Y-145936092D01*
X196590099Y-145960318D01*
X196592812Y-145984288D01*
X196597035Y-146007961D01*
X196602775Y-146031293D01*
X196610041Y-146054242D01*
X196618841Y-146076766D01*
X196629185Y-146098823D01*
X196641080Y-146120370D01*
X196654535Y-146141365D01*
X196669558Y-146161764D01*
X196686159Y-146181527D01*
X196704345Y-146200611D01*
X196724124Y-146218972D01*
X196745506Y-146236569D01*
X196768499Y-146253360D01*
X196793112Y-146269302D01*
X196825068Y-146286463D01*
X196857609Y-146300782D01*
X196890622Y-146312326D01*
X196923995Y-146321159D01*
X196957615Y-146327347D01*
X196991370Y-146330955D01*
X197025146Y-146332049D01*
X197058832Y-146330693D01*
X197092314Y-146326954D01*
X197125480Y-146320897D01*
X197158217Y-146312588D01*
X197190413Y-146302090D01*
X197221955Y-146289471D01*
X197252730Y-146274795D01*
X197282626Y-146258129D01*
X197311530Y-146239536D01*
X197339329Y-146219083D01*
X197365911Y-146196835D01*
X197391163Y-146172858D01*
X197414973Y-146147216D01*
X197437228Y-146119976D01*
X197457814Y-146091202D01*
X197476621Y-146060960D01*
X197493534Y-146029316D01*
X197508442Y-145996335D01*
X197521231Y-145962082D01*
X197531789Y-145926623D01*
X197540004Y-145890022D01*
X197545763Y-145852347D01*
X197548952Y-145813661D01*
X197549460Y-145774030D01*
X197547174Y-145733520D01*
X197539223Y-145612543D01*
X197537821Y-145497747D01*
X197539637Y-145442709D01*
X197543163Y-145389268D01*
X197548423Y-145337440D01*
X197555443Y-145287243D01*
X197564244Y-145238692D01*
X197574853Y-145191806D01*
X197587294Y-145146601D01*
X197601590Y-145103094D01*
X197617765Y-145061302D01*
X197635845Y-145021241D01*
X197655852Y-144982930D01*
X197677812Y-144946385D01*
X197701749Y-144911622D01*
X197727687Y-144878660D01*
X197755649Y-144847514D01*
X197785661Y-144818202D01*
X197817746Y-144790740D01*
X197851930Y-144765146D01*
X197888235Y-144741437D01*
X197926686Y-144719629D01*
X197967308Y-144699739D01*
X198010124Y-144681785D01*
X198055159Y-144665784D01*
X198102438Y-144651752D01*
X198151983Y-144639706D01*
X198203820Y-144629663D01*
X198257973Y-144621641D01*
X198314466Y-144615656D01*
X198270534Y-144703884D01*
X198235162Y-144787712D01*
X198207881Y-144867472D01*
X198188220Y-144943491D01*
X198175711Y-145016100D01*
X198169882Y-145085627D01*
X198170264Y-145152403D01*
X198176387Y-145216756D01*
X198187780Y-145279016D01*
X198203975Y-145339513D01*
X198224501Y-145398576D01*
X198248889Y-145456535D01*
X198276667Y-145513718D01*
X198307367Y-145570455D01*
X198375651Y-145683911D01*
X198526598Y-145919969D01*
X198601742Y-146047842D01*
X198637586Y-146115393D01*
X198671653Y-146185792D01*
X198703472Y-146259370D01*
X198732573Y-146336455D01*
X198758487Y-146417377D01*
X198780742Y-146502465D01*
X198798870Y-146592050D01*
X198812401Y-146686459D01*
X198820863Y-146786024D01*
X198823789Y-146891072D01*
X198817211Y-147057675D01*
X198797214Y-147228920D01*
X198763400Y-147403090D01*
X198715372Y-147578472D01*
X198652732Y-147753350D01*
X198575083Y-147926009D01*
X198530506Y-148010971D01*
X198482028Y-148094734D01*
X198429600Y-148177086D01*
X198373170Y-148257810D01*
X198312691Y-148336694D01*
X198248112Y-148413523D01*
X198179383Y-148488082D01*
X198106455Y-148560156D01*
X198029279Y-148629533D01*
X197947804Y-148695996D01*
X197861981Y-148759332D01*
X197771760Y-148819327D01*
X197677092Y-148875765D01*
X197577927Y-148928433D01*
X197474215Y-148977117D01*
X197365906Y-149021601D01*
X197252952Y-149061672D01*
X197135302Y-149097115D01*
X197012907Y-149127716D01*
X196885716Y-149153260D01*
X196944182Y-149123357D01*
X196998112Y-149090770D01*
X197047625Y-149055606D01*
X197092835Y-149017971D01*
X197133860Y-148977972D01*
X197170815Y-148935715D01*
X197203817Y-148891307D01*
X197232981Y-148844855D01*
X197258426Y-148796465D01*
X197280265Y-148746243D01*
X197298617Y-148694297D01*
X197313597Y-148640733D01*
X197325321Y-148585657D01*
X197333906Y-148529176D01*
X197339467Y-148471397D01*
X197342122Y-148412426D01*
X197342244Y-148369209D01*
X197340154Y-148326438D01*
X197335885Y-148284213D01*
X197329474Y-148242631D01*
X197320956Y-148201789D01*
X197310365Y-148161788D01*
X197297738Y-148122723D01*
X197283108Y-148084695D01*
X197266511Y-148047799D01*
X197247982Y-148012136D01*
X197227557Y-147977802D01*
X197205270Y-147944897D01*
X197181157Y-147913517D01*
X197155252Y-147883762D01*
X197127591Y-147855729D01*
X197098210Y-147829516D01*
X197067142Y-147805222D01*
X197034423Y-147782945D01*
X197000089Y-147762782D01*
X196964174Y-147744832D01*
X196926713Y-147729192D01*
X196887743Y-147715962D01*
X196847297Y-147705239D01*
X196805411Y-147697121D01*
X196762120Y-147691707D01*
X196717459Y-147689094D01*
X196671464Y-147689380D01*
X196624169Y-147692664D01*
X196575609Y-147699044D01*
X196525820Y-147708618D01*
X196474837Y-147721483D01*
X196422695Y-147737739D01*
X196369093Y-147753623D01*
X196316259Y-147765360D01*
X196264305Y-147773027D01*
X196213341Y-147776703D01*
X196163476Y-147776464D01*
X196114821Y-147772388D01*
X196067487Y-147764552D01*
X196021583Y-147753035D01*
X195977219Y-147737913D01*
X195934506Y-147719264D01*
X195893555Y-147697166D01*
X195854474Y-147671696D01*
X195817375Y-147642932D01*
X195782368Y-147610951D01*
X195749562Y-147575830D01*
X195719069Y-147537648D01*
X195690998Y-147496481D01*
X195665459Y-147452407D01*
X195642564Y-147405505D01*
X195622421Y-147355850D01*
X195605142Y-147303521D01*
X195590835Y-147248596D01*
X195579613Y-147191151D01*
X195571584Y-147131264D01*
X195566860Y-147069014D01*
X195565550Y-147004476D01*
X195567764Y-146937730D01*
X195573613Y-146868851D01*
X195583207Y-146797919D01*
X195596655Y-146725010D01*
X195614070Y-146650202D01*
X195635560Y-146573572D01*
X195548400Y-146655017D01*
X195467939Y-146739189D01*
X195394094Y-146825832D01*
X195326780Y-146914688D01*
X195265915Y-147005502D01*
X195211414Y-147098017D01*
X195163195Y-147191975D01*
X195121173Y-147287120D01*
X195085265Y-147383196D01*
X195055387Y-147479945D01*
X195031456Y-147577110D01*
X195013389Y-147674435D01*
X195001101Y-147771664D01*
X194994509Y-147868538D01*
X194993530Y-147964803D01*
X194998079Y-148060200D01*
X195008075Y-148154473D01*
X195023432Y-148247365D01*
X195044067Y-148338620D01*
X195069897Y-148427981D01*
X195100838Y-148515191D01*
X195136806Y-148599993D01*
X195177719Y-148682130D01*
X195223492Y-148761346D01*
X195274042Y-148837384D01*
X195329285Y-148909987D01*
X195389138Y-148978898D01*
X195453517Y-149043861D01*
X195522338Y-149104619D01*
X195595519Y-149160914D01*
X195672975Y-149212491D01*
X195754622Y-149259093D01*
X195562023Y-149210582D01*
X195382129Y-149154631D01*
X195214623Y-149091667D01*
X195059187Y-149022118D01*
X194915504Y-148946411D01*
X194783257Y-148864975D01*
X194662129Y-148778236D01*
X194551802Y-148686622D01*
X194451958Y-148590560D01*
X194362282Y-148490479D01*
X194282454Y-148386805D01*
X194212158Y-148279967D01*
X194151077Y-148170391D01*
X194098893Y-148058506D01*
X194055289Y-147944738D01*
X194019948Y-147829516D01*
X193992552Y-147713267D01*
X193972783Y-147596418D01*
X193960326Y-147479398D01*
X193954861Y-147362633D01*
X193956073Y-147246551D01*
X193963643Y-147131579D01*
X193977255Y-147018146D01*
X193996590Y-146906679D01*
X194021332Y-146797604D01*
X194051164Y-146691351D01*
X194085767Y-146588346D01*
X194124825Y-146489017D01*
X194168021Y-146393791D01*
X194215036Y-146303096D01*
X194265554Y-146217360D01*
X194319258Y-146137010D01*
X194404424Y-146023893D01*
X194493330Y-145917307D01*
X194585375Y-145816651D01*
X194679959Y-145721325D01*
X194776481Y-145630726D01*
X194874340Y-145544255D01*
X194972936Y-145461311D01*
X195071667Y-145381294D01*
X195455932Y-145078470D01*
X195546331Y-145004072D01*
X195633260Y-144928996D01*
X195716120Y-144852641D01*
X195794310Y-144774406D01*
X195861363Y-144701235D01*
X195923320Y-144625293D01*
X195979734Y-144546135D01*
X196030161Y-144463314D01*
X196074154Y-144376384D01*
X196111267Y-144284901D01*
X196141055Y-144188418D01*
X196163073Y-144086489D01*
X196176874Y-143978669D01*
X196182012Y-143864513D01*
X196178043Y-143743574D01*
X196164520Y-143615407D01*
X196140997Y-143479566D01*
X196107030Y-143335605D01*
X196062171Y-143183079D01*
X196005976Y-143021541D01*
X196138800Y-143103600D01*
G37*
D11*
G36*
X157019920Y-121752306D02*
G01*
X156402963Y-121752306D01*
X156402963Y-122236493D01*
X156608127Y-122236493D01*
X156608127Y-121989417D01*
X156676292Y-122000895D01*
X156737499Y-122033266D01*
X156780487Y-122073968D01*
X156813875Y-122125238D01*
X156835497Y-122185286D01*
X156843186Y-122252320D01*
X156834257Y-122325623D01*
X156809174Y-122387948D01*
X156770497Y-122439667D01*
X156720784Y-122481151D01*
X156662594Y-122512771D01*
X156598487Y-122534897D01*
X156531020Y-122547900D01*
X156462753Y-122552152D01*
X156393604Y-122549054D01*
X156330951Y-122539942D01*
X156257635Y-122518922D01*
X156196143Y-122488367D01*
X156146636Y-122448937D01*
X156109270Y-122401292D01*
X156084203Y-122346090D01*
X156071594Y-122283991D01*
X156070011Y-122250561D01*
X156077905Y-122182750D01*
X156100274Y-122121798D01*
X156135146Y-122070729D01*
X156180552Y-122032570D01*
X156244210Y-122008404D01*
X156254072Y-122007002D01*
X156254072Y-121753185D01*
X156190252Y-121763188D01*
X156130652Y-121782693D01*
X156075722Y-121811036D01*
X156025911Y-121847549D01*
X155981668Y-121891566D01*
X155943442Y-121942421D01*
X155911682Y-121999446D01*
X155886838Y-122061975D01*
X155869359Y-122129343D01*
X155859693Y-122200881D01*
X155857813Y-122250561D01*
X155860911Y-122317117D01*
X155869998Y-122379596D01*
X155884766Y-122437969D01*
X155916891Y-122517764D01*
X155960054Y-122588151D01*
X156013212Y-122649029D01*
X156075319Y-122700296D01*
X156145331Y-122741851D01*
X156222203Y-122773592D01*
X156304891Y-122795418D01*
X156392349Y-122807228D01*
X156452788Y-122809487D01*
X156539925Y-122804258D01*
X156624689Y-122788861D01*
X156705725Y-122763730D01*
X156781682Y-122729301D01*
X156851204Y-122686008D01*
X156912940Y-122634285D01*
X156965536Y-122574568D01*
X157007638Y-122507291D01*
X157037893Y-122432889D01*
X157054947Y-122351796D01*
X157058315Y-122294232D01*
X157054284Y-122223514D01*
X157042899Y-122157771D01*
X157025218Y-122098587D01*
X156997183Y-122038450D01*
X156957392Y-121986759D01*
X156932286Y-121967728D01*
X157020800Y-121963918D01*
X157019920Y-121752306D01*
G37*
G36*
X156620730Y-120938977D02*
G01*
X156682320Y-120957925D01*
X156742807Y-120989881D01*
X156788465Y-121032200D01*
X156819098Y-121085207D01*
X156834509Y-121149226D01*
X156836445Y-121185467D01*
X156830055Y-121247325D01*
X156804518Y-121312881D01*
X156760216Y-121365432D01*
X156697933Y-121405052D01*
X156635688Y-121427488D01*
X156562838Y-121441732D01*
X156501485Y-121447063D01*
X156457478Y-121448077D01*
X156393130Y-121445785D01*
X156334103Y-121438858D01*
X156264057Y-121422281D01*
X156204385Y-121397153D01*
X156155607Y-121363293D01*
X156110750Y-121308419D01*
X156084753Y-121239275D01*
X156078218Y-121173450D01*
X156085609Y-121114682D01*
X156112431Y-121052235D01*
X156150410Y-121006110D01*
X156201662Y-120968813D01*
X156265653Y-120942233D01*
X156277520Y-120938977D01*
X156277520Y-120687798D01*
X156212578Y-120698443D01*
X156151065Y-120717165D01*
X156093627Y-120743677D01*
X156040909Y-120777695D01*
X155993558Y-120818933D01*
X155952221Y-120867105D01*
X155917544Y-120921926D01*
X155890172Y-120983110D01*
X155870752Y-121050373D01*
X155859931Y-121123428D01*
X155857813Y-121175209D01*
X155860554Y-121234470D01*
X155874731Y-121317880D01*
X155900567Y-121394331D01*
X155937594Y-121463395D01*
X155985341Y-121524641D01*
X156043339Y-121577641D01*
X156111119Y-121621967D01*
X156188212Y-121657190D01*
X156244548Y-121675402D01*
X156304675Y-121689250D01*
X156368455Y-121698608D01*
X156435747Y-121703347D01*
X156470667Y-121703946D01*
X156540298Y-121701296D01*
X156605732Y-121693507D01*
X156666929Y-121680818D01*
X156723848Y-121663467D01*
X156801114Y-121629224D01*
X156868525Y-121585839D01*
X156925943Y-121534118D01*
X156973230Y-121474868D01*
X157010248Y-121408897D01*
X157036860Y-121337012D01*
X157052929Y-121260019D01*
X157058315Y-121178726D01*
X157053830Y-121107093D01*
X157040637Y-121040065D01*
X157019136Y-120977875D01*
X156989722Y-120920755D01*
X156952792Y-120868936D01*
X156908744Y-120822651D01*
X156857974Y-120782130D01*
X156800880Y-120747607D01*
X156737859Y-120719312D01*
X156669307Y-120697478D01*
X156620730Y-120686626D01*
X156620730Y-120938977D01*
G37*
G36*
X156641246Y-120000792D02*
G01*
X156701655Y-120005828D01*
X156759789Y-120025369D01*
X156808403Y-120067231D01*
X156837031Y-120130167D01*
X156845652Y-120188340D01*
X156846410Y-120214748D01*
X156838097Y-120277497D01*
X156808410Y-120335787D01*
X156758898Y-120377051D01*
X156702033Y-120398100D01*
X156633040Y-120405258D01*
X155895328Y-120405258D01*
X155895328Y-120661127D01*
X156654728Y-120661127D01*
X156727395Y-120656554D01*
X156792755Y-120643093D01*
X156850844Y-120621130D01*
X156901694Y-120591049D01*
X156958298Y-120538981D01*
X157002179Y-120474081D01*
X157026791Y-120417534D01*
X157044328Y-120354669D01*
X157054824Y-120285870D01*
X157058315Y-120211524D01*
X157054526Y-120131577D01*
X157043209Y-120058404D01*
X157024441Y-119992245D01*
X156998300Y-119933337D01*
X156964861Y-119881917D01*
X156924202Y-119838224D01*
X156876399Y-119802493D01*
X156821529Y-119774965D01*
X156759670Y-119755875D01*
X156690897Y-119745462D01*
X156641246Y-119743457D01*
X155895328Y-119743457D01*
X155895328Y-120000792D01*
X156641246Y-120000792D01*
G37*
G36*
X157020800Y-119030659D02*
G01*
X156584386Y-119030659D01*
X156519488Y-119024280D01*
X156461232Y-119000309D01*
X156417272Y-118950262D01*
X156398224Y-118885866D01*
X156395342Y-118840150D01*
X156400363Y-118781409D01*
X156402084Y-118770394D01*
X156157938Y-118770394D01*
X156157938Y-118808203D01*
X156161007Y-118874867D01*
X156174351Y-118938372D01*
X156204183Y-118995777D01*
X156248691Y-119038691D01*
X156256710Y-119044141D01*
X156176696Y-119044141D01*
X156176696Y-119267770D01*
X157020800Y-119267770D01*
X157020800Y-119030659D01*
G37*
G36*
X156517268Y-118463234D02*
G01*
X156519216Y-118398602D01*
X156527714Y-118333366D01*
X156548241Y-118275903D01*
X156596220Y-118230333D01*
X156660719Y-118215130D01*
X156683451Y-118214400D01*
X156742289Y-118220816D01*
X156802808Y-118247439D01*
X156842052Y-118291310D01*
X156859170Y-118348722D01*
X156859892Y-118364755D01*
X156852114Y-118426245D01*
X156822436Y-118477693D01*
X156767739Y-118509323D01*
X156708514Y-118520204D01*
X156672607Y-118521559D01*
X156672607Y-118750464D01*
X156737791Y-118746813D01*
X156797665Y-118736007D01*
X156868821Y-118710838D01*
X156929540Y-118673842D01*
X156979250Y-118625531D01*
X157017382Y-118566416D01*
X157043365Y-118497009D01*
X157054538Y-118438507D01*
X157058315Y-118374721D01*
X157054599Y-118310071D01*
X157043636Y-118249644D01*
X157018233Y-118176449D01*
X156981115Y-118112697D01*
X156932948Y-118059492D01*
X156874397Y-118017941D01*
X156806130Y-117989149D01*
X156728813Y-117974224D01*
X156686968Y-117972306D01*
X156622739Y-117976826D01*
X156555469Y-117993376D01*
X156499222Y-118020706D01*
X156447998Y-118064300D01*
X156412805Y-118118328D01*
X156409118Y-118126765D01*
X156367458Y-118077091D01*
X156317448Y-118043508D01*
X156258700Y-118020327D01*
X156194951Y-118008668D01*
X156167024Y-118007477D01*
X156102154Y-118014699D01*
X156042914Y-118035412D01*
X155990233Y-118068188D01*
X155945044Y-118111598D01*
X155908277Y-118164212D01*
X155880862Y-118224603D01*
X155863730Y-118291341D01*
X155857813Y-118362997D01*
X155861704Y-118421878D01*
X155878520Y-118494530D01*
X155907771Y-118559502D01*
X155948520Y-118615720D01*
X155999835Y-118662110D01*
X156060780Y-118697595D01*
X156130422Y-118721100D01*
X156207826Y-118731552D01*
X156228280Y-118731999D01*
X156228280Y-118509836D01*
X156168327Y-118503926D01*
X156107588Y-118479412D01*
X156065576Y-118433046D01*
X156051546Y-118371496D01*
X156061319Y-118309828D01*
X156100963Y-118260287D01*
X156162616Y-118239306D01*
X156207471Y-118236381D01*
X156267687Y-118247377D01*
X156314266Y-118291240D01*
X156334787Y-118346799D01*
X156343946Y-118413283D01*
X156345517Y-118463234D01*
X156517268Y-118463234D01*
G37*
G36*
X158494090Y-121828501D02*
G01*
X158555088Y-121833063D01*
X158613371Y-121842043D01*
X158695284Y-121863465D01*
X158770002Y-121893980D01*
X158836872Y-121933079D01*
X158895244Y-121980252D01*
X158944465Y-122034991D01*
X158983883Y-122096788D01*
X159012847Y-122165134D01*
X159030703Y-122239520D01*
X159036800Y-122319438D01*
X159036800Y-122796005D01*
X157911328Y-122796005D01*
X157911328Y-122386556D01*
X158123527Y-122386556D01*
X158123527Y-122550394D01*
X158828412Y-122550394D01*
X158828412Y-122366626D01*
X158822780Y-122297567D01*
X158805839Y-122238952D01*
X158768647Y-122179792D01*
X158713529Y-122135611D01*
X158656433Y-122110551D01*
X158587703Y-122094220D01*
X158528476Y-122087472D01*
X158462633Y-122085258D01*
X158418350Y-122086233D01*
X158358421Y-122091479D01*
X158290193Y-122105958D01*
X158222708Y-122136996D01*
X158173748Y-122183586D01*
X158141973Y-122246989D01*
X158128024Y-122310666D01*
X158123527Y-122386556D01*
X157911328Y-122386556D01*
X157911328Y-122354609D01*
X157911947Y-122326177D01*
X157921097Y-122244126D01*
X157940865Y-122167466D01*
X157970834Y-122096865D01*
X158010587Y-122032994D01*
X158059706Y-121976521D01*
X158117774Y-121928116D01*
X158184374Y-121888449D01*
X158259088Y-121858188D01*
X158341500Y-121838004D01*
X158400511Y-121830477D01*
X158462633Y-121827924D01*
X158494090Y-121828501D01*
G37*
G36*
X158680400Y-121552711D02*
G01*
X158710256Y-121549511D01*
X158771527Y-121530437D01*
X158819114Y-121496201D01*
X158853672Y-121440231D01*
X158863876Y-121378028D01*
X158854682Y-121318326D01*
X158823725Y-121266929D01*
X158771552Y-121237344D01*
X158771552Y-120992320D01*
X158836853Y-121016831D01*
X158893949Y-121048882D01*
X158942686Y-121087905D01*
X158982907Y-121133334D01*
X159014460Y-121184601D01*
X159037189Y-121241141D01*
X159050939Y-121302386D01*
X159055557Y-121367770D01*
X159055098Y-121393584D01*
X159048234Y-121466221D01*
X159033192Y-121531625D01*
X159010039Y-121589761D01*
X158978845Y-121640594D01*
X158924860Y-121696951D01*
X158875166Y-121730608D01*
X158817657Y-121756847D01*
X158752401Y-121775631D01*
X158679466Y-121786928D01*
X158598921Y-121790701D01*
X158529652Y-121786743D01*
X158465232Y-121775017D01*
X158406090Y-121755747D01*
X158352655Y-121729155D01*
X158291028Y-121682697D01*
X158241326Y-121624148D01*
X158212488Y-121572621D01*
X158191357Y-121514814D01*
X158178365Y-121450950D01*
X158174366Y-121387993D01*
X158365913Y-121387993D01*
X158376872Y-121447010D01*
X158413562Y-121500823D01*
X158465426Y-121533065D01*
X158523890Y-121545970D01*
X158523890Y-121227965D01*
X158462491Y-121239610D01*
X158410653Y-121272824D01*
X158375842Y-121328574D01*
X158365913Y-121387993D01*
X158174366Y-121387993D01*
X158173938Y-121381252D01*
X158178439Y-121311852D01*
X158191919Y-121248800D01*
X158214350Y-121192200D01*
X158245701Y-121142158D01*
X158285940Y-121098778D01*
X158335038Y-121062163D01*
X158392965Y-121032419D01*
X158459689Y-121009649D01*
X158535180Y-120993958D01*
X158619409Y-120985450D01*
X158680400Y-120983820D01*
X158680400Y-121552711D01*
G37*
G36*
X158463513Y-120201266D02*
G01*
X158396457Y-120210760D01*
X158338019Y-120230012D01*
X158277242Y-120268306D01*
X158230280Y-120323019D01*
X158202788Y-120379047D01*
X158184362Y-120446332D01*
X158175101Y-120525208D01*
X158173938Y-120569096D01*
X158176823Y-120637098D01*
X158185206Y-120697190D01*
X158204235Y-120765470D01*
X158231356Y-120820794D01*
X158275172Y-120872694D01*
X158328251Y-120906572D01*
X158388714Y-120923664D01*
X158427756Y-120926374D01*
X158488842Y-120919006D01*
X158545043Y-120894972D01*
X158594950Y-120851376D01*
X158619437Y-120817637D01*
X158648153Y-120761736D01*
X158670773Y-120699932D01*
X158687292Y-120643626D01*
X158704433Y-120576948D01*
X158713520Y-120539201D01*
X158729953Y-120478937D01*
X158761643Y-120425946D01*
X158797051Y-120413757D01*
X158850449Y-120444910D01*
X158869286Y-120503442D01*
X158872375Y-120550631D01*
X158866488Y-120611711D01*
X158841637Y-120670249D01*
X158791268Y-120706569D01*
X158749570Y-120712711D01*
X158749570Y-120956856D01*
X158814890Y-120948786D01*
X158874042Y-120927689D01*
X158926242Y-120893945D01*
X158970707Y-120847936D01*
X159006655Y-120790043D01*
X159033301Y-120720647D01*
X159046710Y-120661281D01*
X159054117Y-120595820D01*
X159055557Y-120548873D01*
X159052761Y-120484674D01*
X159044499Y-120426200D01*
X159025311Y-120357362D01*
X158997200Y-120299234D01*
X158960619Y-120252123D01*
X158903673Y-120209193D01*
X158835086Y-120184550D01*
X158772431Y-120178405D01*
X158707427Y-120185774D01*
X158648352Y-120211388D01*
X158603400Y-120253945D01*
X158570373Y-120311989D01*
X158566974Y-120320261D01*
X158547221Y-120380306D01*
X158530736Y-120441306D01*
X158515990Y-120499015D01*
X158499961Y-120559437D01*
X158497511Y-120568217D01*
X158479967Y-120625479D01*
X158452337Y-120678710D01*
X158413980Y-120695711D01*
X158366109Y-120658066D01*
X158356388Y-120597418D01*
X158355948Y-120575837D01*
X158361114Y-120514036D01*
X158389348Y-120459327D01*
X158442785Y-120433739D01*
X158464978Y-120429584D01*
X158463513Y-120201266D01*
G37*
G36*
X159036800Y-119893227D02*
G01*
X158192696Y-119893227D01*
X158192696Y-120130338D01*
X159036800Y-120130338D01*
X159036800Y-119893227D01*
G37*
G36*
X158114734Y-119893227D02*
G01*
X157892571Y-119893227D01*
X157892571Y-120130338D01*
X158114734Y-120130338D01*
X158114734Y-119893227D01*
G37*
G36*
X159076965Y-119001755D02*
G01*
X159143160Y-119012789D01*
X159202708Y-119032546D01*
X159255531Y-119060324D01*
X159315374Y-119108629D01*
X159362952Y-119168284D01*
X159398086Y-119237629D01*
X159416163Y-119294996D01*
X159427064Y-119356177D01*
X159430714Y-119420471D01*
X159427130Y-119484549D01*
X159416506Y-119544999D01*
X159391727Y-119618945D01*
X159355239Y-119684017D01*
X159307503Y-119738831D01*
X159248978Y-119782004D01*
X159180126Y-119812151D01*
X159121985Y-119825380D01*
X159058488Y-119829919D01*
X159058488Y-119607756D01*
X159078264Y-119606986D01*
X159137757Y-119592631D01*
X159186957Y-119555672D01*
X159215717Y-119499187D01*
X159223792Y-119435711D01*
X159220681Y-119394847D01*
X159200919Y-119331347D01*
X159164290Y-119281294D01*
X159112378Y-119248482D01*
X159046765Y-119236702D01*
X158957665Y-119236702D01*
X158993868Y-119276615D01*
X159017880Y-119332529D01*
X159032310Y-119394557D01*
X159036800Y-119454176D01*
X159036178Y-119479752D01*
X159027163Y-119550263D01*
X159008253Y-119611776D01*
X158980510Y-119664703D01*
X158931620Y-119722635D01*
X158871440Y-119767025D01*
X158802491Y-119798854D01*
X158727294Y-119819104D01*
X158668313Y-119827285D01*
X158608300Y-119829919D01*
X158538528Y-119825629D01*
X158473310Y-119813184D01*
X158413150Y-119793226D01*
X158358552Y-119766395D01*
X158295278Y-119721036D01*
X158243985Y-119666114D01*
X158205867Y-119603149D01*
X158182120Y-119533658D01*
X158173938Y-119459159D01*
X158178536Y-119407282D01*
X158379689Y-119407282D01*
X158380568Y-119428686D01*
X158397744Y-119492771D01*
X158437537Y-119539979D01*
X158490332Y-119566982D01*
X158547937Y-119579975D01*
X158618265Y-119584309D01*
X158680604Y-119579051D01*
X158743736Y-119559868D01*
X158799711Y-119522008D01*
X158834754Y-119470194D01*
X158846876Y-119407282D01*
X158835450Y-119344685D01*
X158802424Y-119292801D01*
X158749676Y-119254687D01*
X158690189Y-119235293D01*
X158631454Y-119229961D01*
X158615440Y-119230130D01*
X158543680Y-119236053D01*
X158475416Y-119254459D01*
X158419488Y-119291760D01*
X158388029Y-119346404D01*
X158379689Y-119407282D01*
X158178536Y-119407282D01*
X158179771Y-119393343D01*
X158199097Y-119328847D01*
X158229265Y-119277289D01*
X158272710Y-119236702D01*
X158192696Y-119236702D01*
X158192696Y-118999591D01*
X159029179Y-118999591D01*
X159076965Y-119001755D01*
G37*
G36*
X159036800Y-118155195D02*
G01*
X158458530Y-118155195D01*
X158393540Y-118160737D01*
X158336535Y-118176724D01*
X158276829Y-118209935D01*
X158230336Y-118256098D01*
X158197466Y-118313340D01*
X158178630Y-118379789D01*
X158173938Y-118438321D01*
X158177657Y-118498330D01*
X158190970Y-118561028D01*
X158216522Y-118620953D01*
X158255577Y-118671418D01*
X158289416Y-118696242D01*
X158192696Y-118696242D01*
X158192696Y-118923095D01*
X159036800Y-118923095D01*
X159036800Y-118685984D01*
X158554664Y-118685984D01*
X158492672Y-118680607D01*
X158437183Y-118660415D01*
X158395448Y-118618284D01*
X158376234Y-118555013D01*
X158374706Y-118525663D01*
X158381301Y-118462813D01*
X158419575Y-118412107D01*
X158476582Y-118396505D01*
X158527700Y-118394065D01*
X159036800Y-118394065D01*
X159036800Y-118155195D01*
G37*
G36*
X158680400Y-117859759D02*
G01*
X158710256Y-117856559D01*
X158771527Y-117837485D01*
X158819114Y-117803249D01*
X158853672Y-117747279D01*
X158863876Y-117685076D01*
X158854682Y-117625374D01*
X158823725Y-117573977D01*
X158771552Y-117544393D01*
X158771552Y-117299368D01*
X158836853Y-117323880D01*
X158893949Y-117355930D01*
X158942686Y-117394953D01*
X158982907Y-117440382D01*
X159014460Y-117491649D01*
X159037189Y-117548189D01*
X159050939Y-117609434D01*
X159055557Y-117674818D01*
X159055098Y-117700632D01*
X159048234Y-117773269D01*
X159033192Y-117838673D01*
X159010039Y-117896809D01*
X158978845Y-117947642D01*
X158924860Y-118003999D01*
X158875166Y-118037656D01*
X158817657Y-118063895D01*
X158752401Y-118082680D01*
X158679466Y-118093976D01*
X158598921Y-118097749D01*
X158529652Y-118093791D01*
X158465232Y-118082065D01*
X158406090Y-118062795D01*
X158352655Y-118036203D01*
X158291028Y-117989745D01*
X158241326Y-117931196D01*
X158212488Y-117879669D01*
X158191357Y-117821862D01*
X158178365Y-117757998D01*
X158174366Y-117695042D01*
X158365913Y-117695042D01*
X158376872Y-117754058D01*
X158413562Y-117807871D01*
X158465426Y-117840113D01*
X158523890Y-117853018D01*
X158523890Y-117535014D01*
X158462491Y-117546658D01*
X158410653Y-117579872D01*
X158375842Y-117635622D01*
X158365913Y-117695042D01*
X158174366Y-117695042D01*
X158173938Y-117688300D01*
X158178439Y-117618900D01*
X158191919Y-117555848D01*
X158214350Y-117499249D01*
X158245701Y-117449207D01*
X158285940Y-117405826D01*
X158335038Y-117369211D01*
X158392965Y-117339467D01*
X158459689Y-117316697D01*
X158535180Y-117301006D01*
X158619409Y-117292498D01*
X158680400Y-117290868D01*
X158680400Y-117859759D01*
G37*
G36*
X159036800Y-116662187D02*
G01*
X158955906Y-116663067D01*
X158961401Y-116666659D01*
X159005253Y-116710042D01*
X159034148Y-116763604D01*
X159049978Y-116820292D01*
X159055557Y-116884644D01*
X159055060Y-116904393D01*
X159043328Y-116979650D01*
X159016563Y-117048073D01*
X158975510Y-117108525D01*
X158920915Y-117159870D01*
X158871531Y-117191717D01*
X158815263Y-117217322D01*
X158752425Y-117236205D01*
X158683333Y-117247887D01*
X158608300Y-117251887D01*
X158539476Y-117248476D01*
X158474833Y-117238386D01*
X158414938Y-117221832D01*
X158343438Y-117190075D01*
X158282722Y-117147714D01*
X158234128Y-117095259D01*
X158198996Y-117033218D01*
X158178666Y-116962099D01*
X158173938Y-116903109D01*
X158174451Y-116883676D01*
X158182044Y-116832473D01*
X158379395Y-116832473D01*
X158380311Y-116854767D01*
X158398079Y-116920602D01*
X158438893Y-116968028D01*
X158492610Y-116994587D01*
X158550832Y-117007136D01*
X158621489Y-117011259D01*
X158634702Y-117011048D01*
X158696292Y-117003864D01*
X158759202Y-116982758D01*
X158808340Y-116949567D01*
X158845758Y-116897732D01*
X158858893Y-116834232D01*
X158846422Y-116772673D01*
X158810959Y-116721319D01*
X158755433Y-116683393D01*
X158694087Y-116664013D01*
X158634678Y-116658670D01*
X158618628Y-116658839D01*
X158546471Y-116664764D01*
X158477398Y-116683060D01*
X158420378Y-116719859D01*
X158388035Y-116773335D01*
X158379395Y-116832473D01*
X158182044Y-116832473D01*
X158183926Y-116819780D01*
X158204237Y-116763157D01*
X158238854Y-116708816D01*
X158283555Y-116667170D01*
X157892571Y-116667170D01*
X157892571Y-116433283D01*
X159036800Y-116433283D01*
X159036800Y-116662187D01*
G37*
G36*
X158682024Y-115138009D02*
G01*
X158751482Y-115149691D01*
X158814610Y-115168574D01*
X158871102Y-115194179D01*
X158935573Y-115237946D01*
X158986979Y-115291674D01*
X159024595Y-115354226D01*
X159047696Y-115424464D01*
X159055557Y-115501252D01*
X159050003Y-115565568D01*
X159031371Y-115629548D01*
X159001797Y-115681370D01*
X158958251Y-115722536D01*
X159036800Y-115724002D01*
X159036800Y-115952320D01*
X157892571Y-115952320D01*
X157892571Y-115718726D01*
X158283555Y-115718726D01*
X158271553Y-115709595D01*
X158229169Y-115664559D01*
X158197413Y-115607248D01*
X158181522Y-115553423D01*
X158379395Y-115553423D01*
X158381546Y-115584453D01*
X158403538Y-115644965D01*
X158449892Y-115688842D01*
X158509571Y-115713224D01*
X158573724Y-115724226D01*
X158634678Y-115726933D01*
X158694087Y-115721591D01*
X158755433Y-115702222D01*
X158810959Y-115664336D01*
X158846422Y-115613070D01*
X158858893Y-115551664D01*
X158858616Y-115541950D01*
X158841830Y-115479861D01*
X158801187Y-115429911D01*
X158749623Y-115398669D01*
X158684600Y-115379786D01*
X158621489Y-115374637D01*
X158606354Y-115374800D01*
X158538199Y-115380587D01*
X158472761Y-115398748D01*
X158418546Y-115435987D01*
X158387672Y-115491212D01*
X158379395Y-115553423D01*
X158181522Y-115553423D01*
X158180049Y-115548435D01*
X158173938Y-115482787D01*
X158182285Y-115405194D01*
X158206417Y-115336297D01*
X158244974Y-115276605D01*
X158296597Y-115226626D01*
X158359925Y-115186868D01*
X158414285Y-115164064D01*
X158473890Y-115147510D01*
X158538167Y-115137420D01*
X158606541Y-115134009D01*
X158682024Y-115138009D01*
G37*
G36*
X159045299Y-114546067D02*
G01*
X159111796Y-114555047D01*
X159170392Y-114584079D01*
X159211564Y-114634105D01*
X159223792Y-114687924D01*
X159215574Y-114751939D01*
X159186426Y-114805113D01*
X159136811Y-114837549D01*
X159077105Y-114849394D01*
X159057316Y-114850003D01*
X159057316Y-115071873D01*
X159120910Y-115068512D01*
X159179170Y-115058459D01*
X159248208Y-115034731D01*
X159306929Y-114999305D01*
X159354857Y-114952296D01*
X159391514Y-114893817D01*
X159416423Y-114823981D01*
X159427108Y-114764220D01*
X159430714Y-114698182D01*
X159427025Y-114638868D01*
X159410832Y-114564287D01*
X159382120Y-114496281D01*
X159341287Y-114436410D01*
X159288731Y-114386233D01*
X159224852Y-114347310D01*
X159169750Y-114326441D01*
X159108671Y-114313437D01*
X159041782Y-114308956D01*
X158192696Y-114308956D01*
X158192696Y-114546067D01*
X158698865Y-114546067D01*
X158756453Y-114557448D01*
X158806327Y-114594967D01*
X158833724Y-114647033D01*
X158841894Y-114704630D01*
X158830913Y-114768302D01*
X158792310Y-114813802D01*
X158732948Y-114832801D01*
X158698865Y-114834762D01*
X158192696Y-114834762D01*
X158192696Y-115071873D01*
X158730226Y-115071873D01*
X158796161Y-115065723D01*
X158855655Y-115048005D01*
X158907985Y-115019818D01*
X158962218Y-114971536D01*
X159002709Y-114910761D01*
X159024255Y-114854588D01*
X159035375Y-114792893D01*
X159036800Y-114760317D01*
X159030810Y-114693648D01*
X159015310Y-114634076D01*
X158990694Y-114580658D01*
X158957665Y-114546067D01*
X159045299Y-114546067D01*
G37*
G36*
X159036800Y-112728901D02*
G01*
X157911328Y-112728901D01*
X157911328Y-113081490D01*
X158693589Y-113275809D01*
X157911328Y-113470129D01*
X157911328Y-113829752D01*
X159036800Y-113829752D01*
X159036800Y-113594106D01*
X158272710Y-113603485D01*
X159036800Y-113403890D01*
X159036800Y-113157986D01*
X158269193Y-112956633D01*
X159036800Y-112966012D01*
X159036800Y-112728901D01*
G37*
G36*
X159036800Y-112414707D02*
G01*
X158192696Y-112414707D01*
X158192696Y-112651818D01*
X159036800Y-112651818D01*
X159036800Y-112414707D01*
G37*
G36*
X158114734Y-112414707D02*
G01*
X157892571Y-112414707D01*
X157892571Y-112651818D01*
X158114734Y-112651818D01*
X158114734Y-112414707D01*
G37*
G36*
X158696520Y-111865746D02*
G01*
X158761729Y-111872666D01*
X158817798Y-111901792D01*
X158844747Y-111955421D01*
X158847169Y-111984155D01*
X158834648Y-112043184D01*
X158786161Y-112085999D01*
X158728771Y-112099231D01*
X158693296Y-112100806D01*
X158366206Y-112100806D01*
X158366206Y-111643583D01*
X158192696Y-111643583D01*
X158192696Y-112100806D01*
X157967602Y-112100806D01*
X157967602Y-112334400D01*
X158714985Y-112334400D01*
X158781118Y-112329634D01*
X158843872Y-112314964D01*
X158901570Y-112289824D01*
X158952536Y-112253653D01*
X158995094Y-112205886D01*
X159027567Y-112145960D01*
X159048280Y-112073312D01*
X159055089Y-112010139D01*
X159055557Y-111987379D01*
X159051384Y-111923773D01*
X159033732Y-111849663D01*
X159003873Y-111787478D01*
X158963564Y-111736889D01*
X158914559Y-111697566D01*
X158858614Y-111669178D01*
X158797483Y-111651397D01*
X158732921Y-111643892D01*
X158716451Y-111643583D01*
X158474064Y-111643583D01*
X158474064Y-111865746D01*
X158696520Y-111865746D01*
G37*
G36*
X158716157Y-111048607D02*
G01*
X158777249Y-111064553D01*
X158824327Y-111102382D01*
X158849235Y-111157278D01*
X158853910Y-111201308D01*
X158838651Y-111259574D01*
X158792068Y-111308030D01*
X158735847Y-111334612D01*
X158674649Y-111348495D01*
X158616087Y-111353218D01*
X158600093Y-111353423D01*
X158540832Y-111350263D01*
X158481333Y-111338041D01*
X158422517Y-111307517D01*
X158385399Y-111257101D01*
X158374413Y-111194567D01*
X158385287Y-111133635D01*
X158422650Y-111082017D01*
X158478730Y-111053204D01*
X158510407Y-111046556D01*
X158510407Y-110808272D01*
X158435951Y-110819964D01*
X158369673Y-110843714D01*
X158312112Y-110878695D01*
X158263808Y-110924080D01*
X158225299Y-110979041D01*
X158197125Y-111042750D01*
X158179825Y-111114380D01*
X158174310Y-111172801D01*
X158173938Y-111193102D01*
X158177508Y-111257246D01*
X158188309Y-111317012D01*
X158214192Y-111389160D01*
X158253495Y-111451775D01*
X158306539Y-111503858D01*
X158373649Y-111544409D01*
X158433405Y-111566653D01*
X158501391Y-111581426D01*
X158577743Y-111588308D01*
X158605076Y-111588775D01*
X158684521Y-111584631D01*
X158756464Y-111572498D01*
X158820836Y-111552827D01*
X158877570Y-111526070D01*
X158926597Y-111492676D01*
X158979860Y-111438606D01*
X159019140Y-111374608D01*
X159044276Y-111301749D01*
X159053747Y-111241933D01*
X159055557Y-111199843D01*
X159049413Y-111125618D01*
X159031460Y-111056452D01*
X159002420Y-110993448D01*
X158963014Y-110937709D01*
X158913963Y-110890336D01*
X158855990Y-110852433D01*
X158789814Y-110825102D01*
X158716157Y-110809445D01*
X158716157Y-111048607D01*
G37*
G36*
X159036800Y-109997875D02*
G01*
X158446806Y-109997875D01*
X158386696Y-110003515D01*
X158320737Y-110025519D01*
X158265834Y-110062568D01*
X158222907Y-110112977D01*
X158192875Y-110175062D01*
X158178751Y-110232006D01*
X158173938Y-110294483D01*
X158179553Y-110356799D01*
X158194248Y-110414277D01*
X158218569Y-110470829D01*
X158253319Y-110518865D01*
X158267435Y-110528663D01*
X157892571Y-110528663D01*
X157892571Y-110765774D01*
X159036800Y-110765774D01*
X159036800Y-110528663D01*
X158556716Y-110528663D01*
X158490470Y-110520707D01*
X158434683Y-110497156D01*
X158388620Y-110451761D01*
X158368073Y-110396407D01*
X158365913Y-110368342D01*
X158372952Y-110307471D01*
X158406792Y-110259408D01*
X158468513Y-110239474D01*
X158518321Y-110236744D01*
X159036800Y-110236744D01*
X159036800Y-109997875D01*
G37*
%TO.C,SW2*%
D12*
X246463563Y-124142540D02*
G75*
G02*
X242451063Y-124142540I-2006250J0D01*
G01*
X242451063Y-124142540D02*
G75*
G02*
X246463563Y-124142540I2006250J0D01*
G01*
%TO.C,SW1*%
X261639907Y-116584400D02*
G75*
G02*
X257627407Y-116584400I-2006250J0D01*
G01*
X257627407Y-116584400D02*
G75*
G02*
X261639907Y-116584400I2006250J0D01*
G01*
%TO.C,SW11*%
D13*
X197808657Y-154344400D02*
G75*
G02*
X194658657Y-154344400I-1575000J0D01*
G01*
X194658657Y-154344400D02*
G75*
G02*
X197808657Y-154344400I1575000J0D01*
G01*
%TO.C,SW3*%
D12*
X276152867Y-113094002D02*
G75*
G02*
X272140367Y-113094002I-2006250J0D01*
G01*
X272140367Y-113094002D02*
G75*
G02*
X276152867Y-113094002I2006250J0D01*
G01*
D14*
%TO.C,REF\u002A\u002A*%
X165738470Y-140971438D02*
X166692425Y-140971438D01*
X166692425Y-141640807D01*
X165105811Y-141640807D01*
X165105811Y-139087635D01*
X165738470Y-139087635D01*
X165738470Y-140971438D01*
G36*
X165738470Y-140971438D02*
G01*
X166692425Y-140971438D01*
X166692425Y-141640807D01*
X165105811Y-141640807D01*
X165105811Y-139087635D01*
X165738470Y-139087635D01*
X165738470Y-140971438D01*
G37*
X162972336Y-141640807D02*
X162291475Y-141640807D01*
X162291475Y-140672685D01*
X162051819Y-140672685D01*
X162051819Y-141640807D01*
X161366519Y-141640807D01*
X161366519Y-139088155D01*
X162049533Y-139087635D01*
X162049533Y-140010437D01*
X162291475Y-140010437D01*
X162291475Y-139087635D01*
X162972336Y-139087635D01*
X162972336Y-141640807D01*
G36*
X162972336Y-141640807D02*
G01*
X162291475Y-141640807D01*
X162291475Y-140672685D01*
X162051819Y-140672685D01*
X162051819Y-141640807D01*
X161366519Y-141640807D01*
X161366519Y-139088155D01*
X162049533Y-139087635D01*
X162049533Y-140010437D01*
X162291475Y-140010437D01*
X162291475Y-139087635D01*
X162972336Y-139087635D01*
X162972336Y-141640807D01*
G37*
X164822336Y-141640807D02*
X164141475Y-141640807D01*
X164141475Y-140672685D01*
X163901819Y-140672685D01*
X163901819Y-141640807D01*
X163216519Y-141640807D01*
X163216519Y-139088155D01*
X163899533Y-139087635D01*
X163899533Y-140010437D01*
X164141475Y-140010437D01*
X164141475Y-139087635D01*
X164822336Y-139087635D01*
X164822336Y-141640807D01*
G36*
X164822336Y-141640807D02*
G01*
X164141475Y-141640807D01*
X164141475Y-140672685D01*
X163901819Y-140672685D01*
X163901819Y-141640807D01*
X163216519Y-141640807D01*
X163216519Y-139088155D01*
X163899533Y-139087635D01*
X163899533Y-140010437D01*
X164141475Y-140010437D01*
X164141475Y-139087635D01*
X164822336Y-139087635D01*
X164822336Y-141640807D01*
G37*
%TO.C,SW13*%
D13*
X205658657Y-146494400D02*
G75*
G02*
X202508657Y-146494400I-1575000J0D01*
G01*
X202508657Y-146494400D02*
G75*
G02*
X205658657Y-146494400I1575000J0D01*
G01*
%TO.C,SW12*%
X189958657Y-146494400D02*
G75*
G02*
X186808657Y-146494400I-1575000J0D01*
G01*
X186808657Y-146494400D02*
G75*
G02*
X189958657Y-146494400I1575000J0D01*
G01*
%TO.C,SW4*%
D12*
X257897782Y-102212626D02*
G75*
G02*
X253885282Y-102212626I-2006250J0D01*
G01*
X253885282Y-102212626D02*
G75*
G02*
X257897782Y-102212626I2006250J0D01*
G01*
%TO.C,SW10*%
D13*
X197808657Y-138644400D02*
G75*
G02*
X194658657Y-138644400I-1575000J0D01*
G01*
X194658657Y-138644400D02*
G75*
G02*
X197808657Y-138644400I1575000J0D01*
G01*
D15*
%TO.C,U1*%
X204811000Y-104729800D02*
X203161000Y-104729800D01*
X203161000Y-103679800D01*
X203761000Y-103079800D01*
X204811000Y-103079800D01*
X204811000Y-104729800D01*
G36*
X204811000Y-104729800D02*
G01*
X203161000Y-104729800D01*
X203161000Y-103679800D01*
X203761000Y-103079800D01*
X204811000Y-103079800D01*
X204811000Y-104729800D01*
G37*
%TO.C,U4*%
X227815400Y-117943600D02*
X227435400Y-117943600D01*
X227435400Y-117203600D01*
X227815400Y-117203600D01*
X227815400Y-117943600D01*
G36*
X227815400Y-117943600D02*
G01*
X227435400Y-117943600D01*
X227435400Y-117203600D01*
X227815400Y-117203600D01*
X227815400Y-117943600D01*
G37*
X227815400Y-120743600D02*
X227435400Y-120743600D01*
X227435400Y-120003600D01*
X227815400Y-120003600D01*
X227815400Y-120743600D01*
G36*
X227815400Y-120743600D02*
G01*
X227435400Y-120743600D01*
X227435400Y-120003600D01*
X227815400Y-120003600D01*
X227815400Y-120743600D01*
G37*
X228315400Y-117943600D02*
X227935400Y-117943600D01*
X227935400Y-117203600D01*
X228315400Y-117203600D01*
X228315400Y-117943600D01*
G36*
X228315400Y-117943600D02*
G01*
X227935400Y-117943600D01*
X227935400Y-117203600D01*
X228315400Y-117203600D01*
X228315400Y-117943600D01*
G37*
X228315400Y-120743600D02*
X227935400Y-120743600D01*
X227935400Y-120003600D01*
X228315400Y-120003600D01*
X228315400Y-120743600D01*
G36*
X228315400Y-120743600D02*
G01*
X227935400Y-120743600D01*
X227935400Y-120003600D01*
X228315400Y-120003600D01*
X228315400Y-120743600D01*
G37*
X228815400Y-117943600D02*
X228435400Y-117943600D01*
X228435400Y-117203600D01*
X228815400Y-117203600D01*
X228815400Y-117943600D01*
G36*
X228815400Y-117943600D02*
G01*
X228435400Y-117943600D01*
X228435400Y-117203600D01*
X228815400Y-117203600D01*
X228815400Y-117943600D01*
G37*
X228815400Y-120743600D02*
X228435400Y-120743600D01*
X228435400Y-120003600D01*
X228815400Y-120003600D01*
X228815400Y-120743600D01*
G36*
X228815400Y-120743600D02*
G01*
X228435400Y-120743600D01*
X228435400Y-120003600D01*
X228815400Y-120003600D01*
X228815400Y-120743600D01*
G37*
X229315400Y-117943600D02*
X228935400Y-117943600D01*
X228935400Y-117203600D01*
X229315400Y-117203600D01*
X229315400Y-117943600D01*
G36*
X229315400Y-117943600D02*
G01*
X228935400Y-117943600D01*
X228935400Y-117203600D01*
X229315400Y-117203600D01*
X229315400Y-117943600D01*
G37*
X229315400Y-120743600D02*
X228935400Y-120743600D01*
X228935400Y-120003600D01*
X229315400Y-120003600D01*
X229315400Y-120743600D01*
G36*
X229315400Y-120743600D02*
G01*
X228935400Y-120743600D01*
X228935400Y-120003600D01*
X229315400Y-120003600D01*
X229315400Y-120743600D01*
G37*
X229815400Y-117943600D02*
X229435400Y-117943600D01*
X229435400Y-117203600D01*
X229815400Y-117203600D01*
X229815400Y-117943600D01*
G36*
X229815400Y-117943600D02*
G01*
X229435400Y-117943600D01*
X229435400Y-117203600D01*
X229815400Y-117203600D01*
X229815400Y-117943600D01*
G37*
X229815400Y-120743600D02*
X229435400Y-120743600D01*
X229435400Y-120003600D01*
X229815400Y-120003600D01*
X229815400Y-120743600D01*
G36*
X229815400Y-120743600D02*
G01*
X229435400Y-120743600D01*
X229435400Y-120003600D01*
X229815400Y-120003600D01*
X229815400Y-120743600D01*
G37*
X229895400Y-118528600D02*
X230395400Y-118528600D01*
X230395400Y-118918600D01*
X229895400Y-118918600D01*
X229895400Y-119028600D01*
X230395400Y-119028600D01*
X230395400Y-119418600D01*
X229895400Y-119418600D01*
X229895400Y-119868600D01*
X227355400Y-119868600D01*
X227355400Y-119418600D01*
X226855400Y-119418600D01*
X226855400Y-119028600D01*
X227355400Y-119028600D01*
X227355400Y-118918600D01*
X226855400Y-118918600D01*
X226855400Y-118528600D01*
X227355400Y-118528600D01*
X227355400Y-118078600D01*
X229895400Y-118078600D01*
X229895400Y-118528600D01*
G36*
X229895400Y-118528600D02*
G01*
X230395400Y-118528600D01*
X230395400Y-118918600D01*
X229895400Y-118918600D01*
X229895400Y-119028600D01*
X230395400Y-119028600D01*
X230395400Y-119418600D01*
X229895400Y-119418600D01*
X229895400Y-119868600D01*
X227355400Y-119868600D01*
X227355400Y-119418600D01*
X226855400Y-119418600D01*
X226855400Y-119028600D01*
X227355400Y-119028600D01*
X227355400Y-118918600D01*
X226855400Y-118918600D01*
X226855400Y-118528600D01*
X227355400Y-118528600D01*
X227355400Y-118078600D01*
X229895400Y-118078600D01*
X229895400Y-118528600D01*
G37*
%TD*%
D16*
%TO.C,R30*%
X219049600Y-95570000D03*
X219049600Y-94930000D03*
%TD*%
D17*
%TO.C,C17*%
X229974200Y-113207800D03*
X230934200Y-113207800D03*
%TD*%
D18*
%TO.C,C4*%
X232714800Y-123251000D03*
X232714800Y-121351000D03*
%TD*%
D19*
%TO.C,R35*%
X268122400Y-128373600D03*
X268122400Y-127353600D03*
%TD*%
D20*
%TO.C,R1*%
X177784800Y-127203200D03*
X178424800Y-127203200D03*
%TD*%
D21*
%TO.C,SW16*%
X206451200Y-134048600D03*
X206451200Y-134848600D03*
X209101200Y-134048600D03*
X209101200Y-134848600D03*
%TD*%
D16*
%TO.C,R8*%
X213309200Y-109692400D03*
X213309200Y-109052400D03*
%TD*%
D22*
%TO.C,R5*%
X230901200Y-102108000D03*
X230261200Y-102108000D03*
%TD*%
D23*
%TO.C,R22*%
X225430000Y-86985000D03*
X225430000Y-88635000D03*
%TD*%
D24*
%TO.C,R38*%
X240817400Y-99529400D03*
X240817400Y-97879400D03*
%TD*%
D25*
%TO.C,J8*%
X253457200Y-131775200D03*
D26*
X255457200Y-131775200D03*
%TD*%
D27*
%TO.C,L5*%
X230767200Y-122783600D03*
X228617200Y-122783600D03*
%TD*%
D28*
%TO.C,U3*%
X186371472Y-118009355D03*
X186470910Y-116111959D03*
X183924617Y-116929817D03*
%TD*%
D20*
%TO.C,R6*%
X217813900Y-106566900D03*
X218453900Y-106566900D03*
%TD*%
D29*
%TO.C,SW2*%
X246410517Y-127465457D03*
D30*
X242656807Y-120734574D03*
%TD*%
D16*
%TO.C,C15*%
X234797600Y-105399800D03*
X234797600Y-104759800D03*
%TD*%
D31*
%TO.C,R12*%
X228498400Y-106817200D03*
X228498400Y-107457200D03*
%TD*%
D32*
%TO.C,U10*%
X203487600Y-116777200D03*
X203487600Y-116277200D03*
X203487600Y-115777200D03*
X203487600Y-115277200D03*
D33*
X202589600Y-114879200D03*
X202089600Y-114879200D03*
X201589600Y-114879200D03*
D32*
X200691600Y-115277200D03*
X200691600Y-115777200D03*
X200691600Y-116277200D03*
X200691600Y-116777200D03*
D33*
X201589600Y-117175200D03*
X202089600Y-117175200D03*
X202589600Y-117175200D03*
%TD*%
D31*
%TO.C,C22*%
X215278400Y-96417800D03*
X215278400Y-97057800D03*
%TD*%
D29*
%TO.C,SW1*%
X261586861Y-119907317D03*
D30*
X257833151Y-113176434D03*
%TD*%
D34*
%TO.C,C12*%
X200494600Y-113233200D03*
X202044600Y-113233200D03*
%TD*%
D35*
%TO.C,U13*%
X216408000Y-96955600D03*
D36*
X216908000Y-96955600D03*
X217408000Y-96955600D03*
D35*
X217908000Y-96955600D03*
D37*
X218058000Y-96280600D03*
D35*
X217908000Y-95605600D03*
D36*
X217408000Y-95605600D03*
X216908000Y-95605600D03*
D35*
X216408000Y-95605600D03*
D37*
X216258000Y-96280600D03*
%TD*%
D38*
%TO.C,Q1*%
X207675000Y-127116800D03*
X207675000Y-129016800D03*
X209550000Y-128066800D03*
%TD*%
D29*
%TO.C,SW3*%
X276099821Y-116416919D03*
D30*
X272346111Y-109686036D03*
%TD*%
D22*
%TO.C,C11*%
X216145000Y-108550000D03*
X215505000Y-108550000D03*
%TD*%
D39*
%TO.C,C3*%
X232664000Y-96541600D03*
X232664000Y-99241600D03*
%TD*%
D23*
%TO.C,R21*%
X211140000Y-86965000D03*
X211140000Y-88615000D03*
%TD*%
D31*
%TO.C,R9*%
X213258400Y-103515200D03*
X213258400Y-104155200D03*
%TD*%
D40*
%TO.C,R34*%
X267106400Y-127353600D03*
X267106400Y-128373600D03*
%TD*%
D22*
%TO.C,R3*%
X230194870Y-116613394D03*
X229554870Y-116613394D03*
%TD*%
D41*
%TO.C,L2*%
X167834453Y-110533889D03*
X168783151Y-110583609D03*
X168832871Y-109634911D03*
X167884173Y-109585191D03*
%TD*%
D22*
%TO.C,R17*%
X206212400Y-130606800D03*
X205572400Y-130606800D03*
%TD*%
D23*
%TO.C,R37*%
X239293400Y-98743000D03*
X239293400Y-100393000D03*
%TD*%
D20*
%TO.C,R16*%
X205572400Y-127152400D03*
X206212400Y-127152400D03*
%TD*%
D42*
%TO.C,SW6*%
X172671539Y-110006388D03*
X172009489Y-122639052D03*
D43*
X177558707Y-112290293D03*
X177108617Y-120878507D03*
D42*
X182657835Y-110529748D03*
X181995785Y-123162412D03*
D44*
X171861497Y-113043156D03*
X171521313Y-119534248D03*
X167367664Y-112807644D03*
X167027480Y-119298736D03*
%TD*%
D45*
%TO.C,U12*%
X206617200Y-125164600D03*
X206617200Y-124164600D03*
X206617200Y-123164600D03*
X206617200Y-122164600D03*
X206617200Y-121164600D03*
X201117200Y-121164600D03*
X201117200Y-122164600D03*
X201117200Y-123164600D03*
X201117200Y-124164600D03*
X201117200Y-125164600D03*
D46*
X203867200Y-123164600D03*
%TD*%
D20*
%TO.C,R20*%
X197241200Y-107442000D03*
X197881200Y-107442000D03*
%TD*%
D47*
%TO.C,C8*%
X218818400Y-102666800D03*
X217858400Y-102666800D03*
%TD*%
D31*
%TO.C,C21*%
X219049600Y-96403200D03*
X219049600Y-97043200D03*
%TD*%
D41*
%TO.C,L1*%
X185834453Y-110533889D03*
X186783151Y-110583609D03*
X186832871Y-109634911D03*
X185884173Y-109585191D03*
%TD*%
D48*
%TO.C,L12*%
X259158657Y-122059400D03*
X260108657Y-122059400D03*
X260108657Y-121109400D03*
X259158657Y-121109400D03*
%TD*%
D22*
%TO.C,R25*%
X222163600Y-99720400D03*
X221523600Y-99720400D03*
%TD*%
D49*
%TO.C,U11*%
X230743200Y-114601600D03*
X230743200Y-114201600D03*
X231143200Y-114601600D03*
X231143200Y-114201600D03*
X231543200Y-114601600D03*
X231543200Y-114201600D03*
X231943200Y-114601600D03*
X231943200Y-114201600D03*
%TD*%
D50*
%TO.C,C5*%
X227914200Y-101094600D03*
X227914200Y-102054600D03*
%TD*%
D24*
%TO.C,R36*%
X189255400Y-99377000D03*
X189255400Y-97727000D03*
%TD*%
D51*
%TO.C,C23*%
X226720400Y-122087600D03*
X226720400Y-123987600D03*
%TD*%
D52*
%TO.C,R11*%
X191107600Y-108356400D03*
X192127600Y-108356400D03*
%TD*%
D23*
%TO.C,R4*%
X190804800Y-97727000D03*
X190804800Y-99377000D03*
%TD*%
D31*
%TO.C,R18*%
X208381600Y-112252800D03*
X208381600Y-112892800D03*
%TD*%
%TO.C,R29*%
X215278400Y-94944600D03*
X215278400Y-95584600D03*
%TD*%
D53*
%TO.C,SW7*%
X163618112Y-100644336D03*
X170546316Y-96644336D03*
D54*
X166643465Y-101784400D03*
X170020963Y-99834400D03*
%TD*%
D55*
%TO.C,SW8*%
X266420998Y-96644336D03*
X273349202Y-100644336D03*
D56*
X266946351Y-99834400D03*
X270323849Y-101784400D03*
%TD*%
D57*
%TO.C,SW17*%
X215921157Y-115516400D03*
X215921157Y-121516400D03*
X212171157Y-115516400D03*
X212171157Y-121516400D03*
%TD*%
D22*
%TO.C,C6*%
X218810800Y-103581200D03*
X218170800Y-103581200D03*
%TD*%
D16*
%TO.C,R19*%
X207518000Y-112908000D03*
X207518000Y-112268000D03*
%TD*%
D34*
%TO.C,C13*%
X196938600Y-116840000D03*
X198488600Y-116840000D03*
%TD*%
D20*
%TO.C,R23*%
X223809600Y-99720400D03*
X224449600Y-99720400D03*
%TD*%
D31*
%TO.C,R28*%
X221538800Y-94980800D03*
X221538800Y-95620800D03*
%TD*%
D16*
%TO.C,R10*%
X215595200Y-112054600D03*
X215595200Y-111414600D03*
%TD*%
D58*
%TO.C,D13*%
X211038400Y-137080900D03*
X211038400Y-137730900D03*
X211038400Y-138380900D03*
X212938400Y-138380900D03*
X212938400Y-137730900D03*
X212938400Y-137080900D03*
%TD*%
D59*
%TO.C,U8*%
X220884800Y-110845600D03*
X221284800Y-110845600D03*
X221684800Y-110845600D03*
X222084800Y-110845600D03*
X222484800Y-110845600D03*
X222884800Y-110845600D03*
X223284800Y-110845600D03*
X223684800Y-110845600D03*
X224084800Y-110845600D03*
X224484800Y-110845600D03*
X224884800Y-110845600D03*
X225284800Y-110845600D03*
X225684800Y-110845600D03*
X226084800Y-110845600D03*
D60*
X226922300Y-110008100D03*
X226922300Y-109608100D03*
X226922300Y-109208100D03*
X226922300Y-108808100D03*
X226922300Y-108408100D03*
X226922300Y-108008100D03*
X226922300Y-107608100D03*
X226922300Y-107208100D03*
X226922300Y-106808100D03*
X226922300Y-106408100D03*
X226922300Y-106008100D03*
X226922300Y-105608100D03*
X226922300Y-105208100D03*
X226922300Y-104808100D03*
D59*
X226084800Y-103970600D03*
X225684800Y-103970600D03*
X225284800Y-103970600D03*
X224884800Y-103970600D03*
X224484800Y-103970600D03*
X224084800Y-103970600D03*
X223684800Y-103970600D03*
X223284800Y-103970600D03*
X222884800Y-103970600D03*
X222484800Y-103970600D03*
X222084800Y-103970600D03*
X221684800Y-103970600D03*
X221284800Y-103970600D03*
X220884800Y-103970600D03*
D60*
X220047300Y-104808100D03*
X220047300Y-105208100D03*
X220047300Y-105608100D03*
X220047300Y-106008100D03*
X220047300Y-106408100D03*
X220047300Y-106808100D03*
X220047300Y-107208100D03*
X220047300Y-107608100D03*
X220047300Y-108008100D03*
X220047300Y-108408100D03*
X220047300Y-108808100D03*
X220047300Y-109208100D03*
X220047300Y-109608100D03*
X220047300Y-110008100D03*
D61*
X223484800Y-107408100D03*
%TD*%
D48*
%TO.C,L13*%
X273671617Y-118569002D03*
X274621617Y-118569002D03*
X274621617Y-117619002D03*
X273671617Y-117619002D03*
%TD*%
D20*
%TO.C,R7*%
X217813900Y-105855700D03*
X218453900Y-105855700D03*
%TD*%
%TO.C,R26*%
X222996800Y-95656400D03*
X223636800Y-95656400D03*
%TD*%
D41*
%TO.C,L4*%
X185834453Y-123533889D03*
X186783151Y-123583609D03*
X186832871Y-122634911D03*
X185884173Y-122585191D03*
%TD*%
D25*
%TO.C,J4*%
X278380200Y-144195800D03*
D26*
X276380200Y-144195800D03*
X274380200Y-144195800D03*
X272380200Y-144195800D03*
X270380200Y-144195800D03*
X268380200Y-144195800D03*
%TD*%
D23*
%TO.C,R14*%
X234188000Y-107226600D03*
X234188000Y-108876600D03*
%TD*%
D62*
%TO.C,D2*%
X213868000Y-97820800D03*
X213868000Y-95320800D03*
%TD*%
D63*
%TO.C,D8*%
X184414400Y-132842000D03*
X185064400Y-132842000D03*
X185714400Y-132842000D03*
X185714400Y-130942000D03*
X185064400Y-130942000D03*
X184414400Y-130942000D03*
%TD*%
D64*
%TO.C,JP1*%
X233578400Y-118171200D03*
X233578400Y-119471200D03*
%TD*%
D17*
%TO.C,C10*%
X217779600Y-104495600D03*
X218739600Y-104495600D03*
%TD*%
D25*
%TO.C,J9*%
X173955200Y-136347200D03*
D26*
X175955200Y-136347200D03*
%TD*%
D65*
%TO.C,U6*%
X193924700Y-118455800D03*
X193924700Y-119105800D03*
X193924700Y-119755800D03*
X193924700Y-120405800D03*
X198149700Y-120405800D03*
X198149700Y-119755800D03*
X198149700Y-119105800D03*
X198149700Y-118455800D03*
%TD*%
D22*
%TO.C,C16*%
X229275600Y-114198400D03*
X228635600Y-114198400D03*
%TD*%
%TO.C,C18*%
X201005400Y-126161800D03*
X200365400Y-126161800D03*
%TD*%
%TO.C,R24*%
X220690400Y-99720400D03*
X220050400Y-99720400D03*
%TD*%
D66*
%TO.C,D5*%
X240527800Y-106745800D03*
X240527800Y-106095800D03*
X240527800Y-105445800D03*
X238627800Y-105445800D03*
X238627800Y-106095800D03*
X238627800Y-106745800D03*
%TD*%
D67*
%TO.C,SW5*%
X221483657Y-138353800D03*
X215483657Y-138353800D03*
X221483657Y-134603800D03*
X215483657Y-134603800D03*
%TD*%
D16*
%TO.C,R2*%
X188112400Y-116093200D03*
X188112400Y-115453200D03*
%TD*%
D68*
%TO.C,Y1*%
X230073200Y-107905400D03*
X230073200Y-106705400D03*
X230073200Y-105505400D03*
%TD*%
D58*
%TO.C,D12*%
X211038400Y-134221000D03*
X211038400Y-134871000D03*
X211038400Y-135521000D03*
X212938400Y-135521000D03*
X212938400Y-134871000D03*
X212938400Y-134221000D03*
%TD*%
D69*
%TO.C,C1*%
X176734300Y-128473200D03*
X178459300Y-128473200D03*
%TD*%
D70*
%TO.C,U2*%
X175908707Y-125622210D03*
X177806103Y-125721648D03*
X176988245Y-123175355D03*
%TD*%
D57*
%TO.C,SW18*%
X221046157Y-130391400D03*
X221046157Y-124391400D03*
X224796157Y-130391400D03*
X224796157Y-124391400D03*
%TD*%
D47*
%TO.C,C7*%
X219021600Y-101650800D03*
X218061600Y-101650800D03*
%TD*%
D29*
%TO.C,SW4*%
X257844736Y-105535543D03*
D30*
X254091026Y-98804660D03*
%TD*%
D48*
%TO.C,L10*%
X243982313Y-129617540D03*
X244932313Y-129617540D03*
X244932313Y-128667540D03*
X243982313Y-128667540D03*
%TD*%
D71*
%TO.C,C19*%
X197866000Y-102324200D03*
X197866000Y-100774200D03*
%TD*%
D31*
%TO.C,R27*%
X219862400Y-94930000D03*
X219862400Y-95570000D03*
%TD*%
D20*
%TO.C,C20*%
X197546000Y-103479600D03*
X198186000Y-103479600D03*
%TD*%
D72*
%TO.C,D10*%
X226212400Y-96844800D03*
X226212400Y-99344800D03*
%TD*%
D73*
%TO.C,TP5*%
X184658000Y-97891600D03*
%TD*%
D74*
%TO.C,C2*%
X189382400Y-117296100D03*
X189382400Y-115571100D03*
%TD*%
D57*
%TO.C,SW19*%
X215921157Y-124391400D03*
X215921157Y-130391400D03*
X212171157Y-124391400D03*
X212171157Y-130391400D03*
%TD*%
D63*
%TO.C,D11*%
X187310000Y-131455200D03*
X187960000Y-131455200D03*
X188610000Y-131455200D03*
X188610000Y-129555200D03*
X187960000Y-129555200D03*
X187310000Y-129555200D03*
%TD*%
D38*
%TO.C,Q2*%
X207698100Y-130622000D03*
X207698100Y-132522000D03*
X209573100Y-131572000D03*
%TD*%
D75*
%TO.C,U1*%
X200036000Y-101854800D03*
X200036000Y-102654800D03*
X200036000Y-103454800D03*
X200036000Y-104254800D03*
X200036000Y-105054800D03*
X200036000Y-105854800D03*
X200036000Y-106654800D03*
X200036000Y-107454800D03*
X200036000Y-108254800D03*
X200036000Y-109054800D03*
X200036000Y-109854800D03*
D76*
X201136000Y-110754800D03*
X201936000Y-110754800D03*
X202736000Y-110754800D03*
X203536000Y-110754800D03*
X204336000Y-110754800D03*
X205136000Y-110754800D03*
X205936000Y-110754800D03*
X206736000Y-110754800D03*
X207536000Y-110754800D03*
X208336000Y-110754800D03*
X209136000Y-110754800D03*
X209936000Y-110754800D03*
X210736000Y-110754800D03*
D75*
X211836000Y-109854800D03*
X211836000Y-109054800D03*
X211836000Y-108254800D03*
X211836000Y-107454800D03*
X211836000Y-106654800D03*
X211836000Y-105854800D03*
X211836000Y-105054800D03*
X211836000Y-104254800D03*
X211836000Y-103454800D03*
X211836000Y-102654800D03*
X211836000Y-101854800D03*
D76*
X210736000Y-100954800D03*
X209936000Y-100954800D03*
X209136000Y-100954800D03*
X208336000Y-100954800D03*
X207536000Y-100954800D03*
X206736000Y-100954800D03*
X205936000Y-100954800D03*
X205136000Y-100954800D03*
X204336000Y-100954800D03*
X203536000Y-100954800D03*
X202736000Y-100954800D03*
X201936000Y-100954800D03*
X201136000Y-100954800D03*
D77*
X205936000Y-105854800D03*
D78*
X211886000Y-100904800D03*
X211886000Y-110804800D03*
X199986000Y-110804800D03*
X199986000Y-100904800D03*
D77*
X203986000Y-105854800D03*
X203986000Y-107804800D03*
X205936000Y-107804800D03*
X207886000Y-107804800D03*
X207886000Y-105854800D03*
X207886000Y-103904800D03*
X205936000Y-103904800D03*
%TD*%
D20*
%TO.C,C24*%
X228431576Y-115848352D03*
X229071576Y-115848352D03*
%TD*%
D23*
%TO.C,R13*%
X233476800Y-102883200D03*
X233476800Y-104533200D03*
%TD*%
D31*
%TO.C,C14*%
X235356400Y-108138000D03*
X235356400Y-108778000D03*
%TD*%
D48*
%TO.C,L11*%
X255416532Y-107687626D03*
X256366532Y-107687626D03*
X256366532Y-106737626D03*
X255416532Y-106737626D03*
%TD*%
D17*
%TO.C,C9*%
X216390000Y-107450000D03*
X217350000Y-107450000D03*
%TD*%
D16*
%TO.C,R15*%
X232613200Y-114569200D03*
X232613200Y-113929200D03*
%TD*%
D32*
%TO.C,U5*%
X208178400Y-116763800D03*
X208178400Y-116263800D03*
X208178400Y-115763800D03*
X208178400Y-115263800D03*
D33*
X207280400Y-114865800D03*
X206780400Y-114865800D03*
X206280400Y-114865800D03*
D32*
X205382400Y-115263800D03*
X205382400Y-115763800D03*
X205382400Y-116263800D03*
X205382400Y-116763800D03*
D33*
X206280400Y-117161800D03*
X206780400Y-117161800D03*
X207280400Y-117161800D03*
%TD*%
D79*
%TO.C,J3*%
X278888300Y-128960400D03*
X278888300Y-125060400D03*
%TD*%
D63*
%TO.C,Q4*%
X220228400Y-98638400D03*
X220878400Y-98638400D03*
X221528400Y-98638400D03*
X221528400Y-96738400D03*
X220878400Y-96738400D03*
X220228400Y-96738400D03*
%TD*%
D79*
%TO.C,J2*%
X157534500Y-124999200D03*
X157534500Y-128899200D03*
%TD*%
D57*
%TO.C,SW9*%
X221046157Y-121516400D03*
X221046157Y-115516400D03*
X224796157Y-121516400D03*
X224796157Y-115516400D03*
%TD*%
D41*
%TO.C,L3*%
X167834453Y-123533889D03*
X168783151Y-123583609D03*
X168832871Y-122634911D03*
X167884173Y-122585191D03*
%TD*%
D62*
%TO.C,D9*%
X230581200Y-98836800D03*
X230581200Y-96336800D03*
%TD*%
D63*
%TO.C,Q3*%
X223124000Y-98638400D03*
X223774000Y-98638400D03*
X224424000Y-98638400D03*
X224424000Y-96738400D03*
X223774000Y-96738400D03*
X223124000Y-96738400D03*
%TD*%
D66*
%TO.C,D4*%
X239710000Y-109605600D03*
X239710000Y-108955600D03*
X239710000Y-108305600D03*
X237810000Y-108305600D03*
X237810000Y-108955600D03*
X237810000Y-109605600D03*
%TD*%
D48*
%TO.C,L6*%
X218008657Y-143038600D03*
X218958657Y-143038600D03*
X218958657Y-142088600D03*
X218008657Y-142088600D03*
%TD*%
D80*
%TO.C,D1*%
X236352400Y-114706400D03*
X233852400Y-114706400D03*
%TD*%
D81*
%TO.C,U9*%
X216939993Y-111424008D03*
X217439993Y-111424008D03*
X217939993Y-111424008D03*
X218439993Y-111424008D03*
X218439993Y-109024008D03*
X217939993Y-109024008D03*
X217439993Y-109024008D03*
X216939993Y-109024008D03*
D82*
X217689993Y-110224008D03*
%TD*%
D83*
%TO.C,RV2*%
X243483657Y-101434400D03*
X240983657Y-101434400D03*
X245983657Y-101434400D03*
D84*
X247833657Y-112934400D03*
X239133657Y-112934400D03*
%TD*%
D85*
%TO.C,B1*%
X232547596Y-111285471D03*
D86*
X234547596Y-111285471D03*
%TD*%
D87*
%TO.C,J5*%
X214758635Y-88804400D03*
X222208635Y-88804400D03*
D88*
X221533635Y-89504400D03*
X220883635Y-88804400D03*
X220083635Y-88804400D03*
X219683635Y-89504400D03*
X219283635Y-88804400D03*
X218883635Y-89504400D03*
X218083635Y-89504400D03*
X217683635Y-88804400D03*
X217283635Y-89504400D03*
X216883635Y-88804400D03*
X216083635Y-88804400D03*
X215433635Y-89504400D03*
D89*
X213983635Y-84704400D03*
D90*
X214433635Y-89904400D03*
D89*
X213983635Y-90454400D03*
X222983635Y-84704400D03*
D90*
X222533635Y-89904400D03*
D89*
X222983635Y-90454400D03*
%TD*%
D83*
%TO.C,RV1*%
X193483657Y-101434400D03*
X190983657Y-101434400D03*
X195983657Y-101434400D03*
D84*
X197833657Y-112934400D03*
X189133657Y-112934400D03*
%TD*%
M02*
