%TF.GenerationSoftware,KiCad,Pcbnew,8.0.2*%
%TF.CreationDate,2024-06-18T23:34:15-07:00*%
%TF.ProjectId,UGC_Main,5547435f-4d61-4696-9e2e-6b696361645f,rev?*%
%TF.SameCoordinates,Original*%
%TF.FileFunction,Legend,Bot*%
%TF.FilePolarity,Positive*%
%FSLAX46Y46*%
G04 Gerber Fmt 4.6, Leading zero omitted, Abs format (unit mm)*
G04 Created by KiCad (PCBNEW 8.0.2) date 2024-06-18 23:34:15*
%MOMM*%
%LPD*%
G01*
G04 APERTURE LIST*
%ADD10C,0.120000*%
%ADD11C,0.125000*%
%ADD12C,0.150000*%
%ADD13C,0.100000*%
%ADD14C,0.254000*%
%ADD15C,0.127000*%
%ADD16C,0.200000*%
G04 APERTURE END LIST*
D10*
X237850033Y-111226193D02*
X236897653Y-111226193D01*
X237373843Y-111702383D02*
X237373843Y-110750002D01*
D11*
X219264228Y-130719990D02*
X219288037Y-130743800D01*
X219288037Y-130743800D02*
X219359466Y-130767609D01*
X219359466Y-130767609D02*
X219407085Y-130767609D01*
X219407085Y-130767609D02*
X219478513Y-130743800D01*
X219478513Y-130743800D02*
X219526132Y-130696180D01*
X219526132Y-130696180D02*
X219549942Y-130648561D01*
X219549942Y-130648561D02*
X219573751Y-130553323D01*
X219573751Y-130553323D02*
X219573751Y-130481895D01*
X219573751Y-130481895D02*
X219549942Y-130386657D01*
X219549942Y-130386657D02*
X219526132Y-130339038D01*
X219526132Y-130339038D02*
X219478513Y-130291419D01*
X219478513Y-130291419D02*
X219407085Y-130267609D01*
X219407085Y-130267609D02*
X219359466Y-130267609D01*
X219359466Y-130267609D02*
X219288037Y-130291419D01*
X219288037Y-130291419D02*
X219264228Y-130315228D01*
X219073751Y-130315228D02*
X219049942Y-130291419D01*
X219049942Y-130291419D02*
X219002323Y-130267609D01*
X219002323Y-130267609D02*
X218883275Y-130267609D01*
X218883275Y-130267609D02*
X218835656Y-130291419D01*
X218835656Y-130291419D02*
X218811847Y-130315228D01*
X218811847Y-130315228D02*
X218788037Y-130362847D01*
X218788037Y-130362847D02*
X218788037Y-130410466D01*
X218788037Y-130410466D02*
X218811847Y-130481895D01*
X218811847Y-130481895D02*
X219097561Y-130767609D01*
X219097561Y-130767609D02*
X218788037Y-130767609D01*
X218359466Y-130267609D02*
X218454704Y-130267609D01*
X218454704Y-130267609D02*
X218502323Y-130291419D01*
X218502323Y-130291419D02*
X218526133Y-130315228D01*
X218526133Y-130315228D02*
X218573752Y-130386657D01*
X218573752Y-130386657D02*
X218597561Y-130481895D01*
X218597561Y-130481895D02*
X218597561Y-130672371D01*
X218597561Y-130672371D02*
X218573752Y-130719990D01*
X218573752Y-130719990D02*
X218549942Y-130743800D01*
X218549942Y-130743800D02*
X218502323Y-130767609D01*
X218502323Y-130767609D02*
X218407085Y-130767609D01*
X218407085Y-130767609D02*
X218359466Y-130743800D01*
X218359466Y-130743800D02*
X218335657Y-130719990D01*
X218335657Y-130719990D02*
X218311847Y-130672371D01*
X218311847Y-130672371D02*
X218311847Y-130553323D01*
X218311847Y-130553323D02*
X218335657Y-130505704D01*
X218335657Y-130505704D02*
X218359466Y-130481895D01*
X218359466Y-130481895D02*
X218407085Y-130458085D01*
X218407085Y-130458085D02*
X218502323Y-130458085D01*
X218502323Y-130458085D02*
X218549942Y-130481895D01*
X218549942Y-130481895D02*
X218573752Y-130505704D01*
X218573752Y-130505704D02*
X218597561Y-130553323D01*
X222495228Y-129764809D02*
X222661894Y-129526714D01*
X222780942Y-129764809D02*
X222780942Y-129264809D01*
X222780942Y-129264809D02*
X222590466Y-129264809D01*
X222590466Y-129264809D02*
X222542847Y-129288619D01*
X222542847Y-129288619D02*
X222519037Y-129312428D01*
X222519037Y-129312428D02*
X222495228Y-129360047D01*
X222495228Y-129360047D02*
X222495228Y-129431476D01*
X222495228Y-129431476D02*
X222519037Y-129479095D01*
X222519037Y-129479095D02*
X222542847Y-129502904D01*
X222542847Y-129502904D02*
X222590466Y-129526714D01*
X222590466Y-129526714D02*
X222780942Y-129526714D01*
X222328561Y-129264809D02*
X222019037Y-129264809D01*
X222019037Y-129264809D02*
X222185704Y-129455285D01*
X222185704Y-129455285D02*
X222114275Y-129455285D01*
X222114275Y-129455285D02*
X222066656Y-129479095D01*
X222066656Y-129479095D02*
X222042847Y-129502904D01*
X222042847Y-129502904D02*
X222019037Y-129550523D01*
X222019037Y-129550523D02*
X222019037Y-129669571D01*
X222019037Y-129669571D02*
X222042847Y-129717190D01*
X222042847Y-129717190D02*
X222066656Y-129741000D01*
X222066656Y-129741000D02*
X222114275Y-129764809D01*
X222114275Y-129764809D02*
X222257132Y-129764809D01*
X222257132Y-129764809D02*
X222304751Y-129741000D01*
X222304751Y-129741000D02*
X222328561Y-129717190D01*
X221852371Y-129264809D02*
X221542847Y-129264809D01*
X221542847Y-129264809D02*
X221709514Y-129455285D01*
X221709514Y-129455285D02*
X221638085Y-129455285D01*
X221638085Y-129455285D02*
X221590466Y-129479095D01*
X221590466Y-129479095D02*
X221566657Y-129502904D01*
X221566657Y-129502904D02*
X221542847Y-129550523D01*
X221542847Y-129550523D02*
X221542847Y-129669571D01*
X221542847Y-129669571D02*
X221566657Y-129717190D01*
X221566657Y-129717190D02*
X221590466Y-129741000D01*
X221590466Y-129741000D02*
X221638085Y-129764809D01*
X221638085Y-129764809D02*
X221780942Y-129764809D01*
X221780942Y-129764809D02*
X221828561Y-129741000D01*
X221828561Y-129741000D02*
X221852371Y-129717190D01*
X215398428Y-125955690D02*
X215422237Y-125979500D01*
X215422237Y-125979500D02*
X215493666Y-126003309D01*
X215493666Y-126003309D02*
X215541285Y-126003309D01*
X215541285Y-126003309D02*
X215612713Y-125979500D01*
X215612713Y-125979500D02*
X215660332Y-125931880D01*
X215660332Y-125931880D02*
X215684142Y-125884261D01*
X215684142Y-125884261D02*
X215707951Y-125789023D01*
X215707951Y-125789023D02*
X215707951Y-125717595D01*
X215707951Y-125717595D02*
X215684142Y-125622357D01*
X215684142Y-125622357D02*
X215660332Y-125574738D01*
X215660332Y-125574738D02*
X215612713Y-125527119D01*
X215612713Y-125527119D02*
X215541285Y-125503309D01*
X215541285Y-125503309D02*
X215493666Y-125503309D01*
X215493666Y-125503309D02*
X215422237Y-125527119D01*
X215422237Y-125527119D02*
X215398428Y-125550928D01*
X215207951Y-125550928D02*
X215184142Y-125527119D01*
X215184142Y-125527119D02*
X215136523Y-125503309D01*
X215136523Y-125503309D02*
X215017475Y-125503309D01*
X215017475Y-125503309D02*
X214969856Y-125527119D01*
X214969856Y-125527119D02*
X214946047Y-125550928D01*
X214946047Y-125550928D02*
X214922237Y-125598547D01*
X214922237Y-125598547D02*
X214922237Y-125646166D01*
X214922237Y-125646166D02*
X214946047Y-125717595D01*
X214946047Y-125717595D02*
X215231761Y-126003309D01*
X215231761Y-126003309D02*
X214922237Y-126003309D01*
X214755571Y-125503309D02*
X214422238Y-125503309D01*
X214422238Y-125503309D02*
X214636523Y-126003309D01*
D12*
X223867504Y-121078619D02*
X223296076Y-121078619D01*
X223581790Y-122078619D02*
X223581790Y-121078619D01*
X222962742Y-122078619D02*
X222962742Y-121078619D01*
X222962742Y-121078619D02*
X222581790Y-121078619D01*
X222581790Y-121078619D02*
X222486552Y-121126238D01*
X222486552Y-121126238D02*
X222438933Y-121173857D01*
X222438933Y-121173857D02*
X222391314Y-121269095D01*
X222391314Y-121269095D02*
X222391314Y-121411952D01*
X222391314Y-121411952D02*
X222438933Y-121507190D01*
X222438933Y-121507190D02*
X222486552Y-121554809D01*
X222486552Y-121554809D02*
X222581790Y-121602428D01*
X222581790Y-121602428D02*
X222962742Y-121602428D01*
X221438933Y-122078619D02*
X222010361Y-122078619D01*
X221724647Y-122078619D02*
X221724647Y-121078619D01*
X221724647Y-121078619D02*
X221819885Y-121221476D01*
X221819885Y-121221476D02*
X221915123Y-121316714D01*
X221915123Y-121316714D02*
X222010361Y-121364333D01*
D13*
X225480076Y-132035200D02*
X225622933Y-131987580D01*
X225622933Y-131987580D02*
X225861028Y-131987580D01*
X225861028Y-131987580D02*
X225956266Y-132035200D01*
X225956266Y-132035200D02*
X226003885Y-132082819D01*
X226003885Y-132082819D02*
X226051504Y-132178057D01*
X226051504Y-132178057D02*
X226051504Y-132273295D01*
X226051504Y-132273295D02*
X226003885Y-132368533D01*
X226003885Y-132368533D02*
X225956266Y-132416152D01*
X225956266Y-132416152D02*
X225861028Y-132463771D01*
X225861028Y-132463771D02*
X225670552Y-132511390D01*
X225670552Y-132511390D02*
X225575314Y-132559009D01*
X225575314Y-132559009D02*
X225527695Y-132606628D01*
X225527695Y-132606628D02*
X225480076Y-132701866D01*
X225480076Y-132701866D02*
X225480076Y-132797104D01*
X225480076Y-132797104D02*
X225527695Y-132892342D01*
X225527695Y-132892342D02*
X225575314Y-132939961D01*
X225575314Y-132939961D02*
X225670552Y-132987580D01*
X225670552Y-132987580D02*
X225908647Y-132987580D01*
X225908647Y-132987580D02*
X226051504Y-132939961D01*
X226384838Y-132987580D02*
X226622933Y-131987580D01*
X226622933Y-131987580D02*
X226813409Y-132701866D01*
X226813409Y-132701866D02*
X227003885Y-131987580D01*
X227003885Y-131987580D02*
X227241981Y-132987580D01*
X228146742Y-131987580D02*
X227575314Y-131987580D01*
X227861028Y-131987580D02*
X227861028Y-132987580D01*
X227861028Y-132987580D02*
X227765790Y-132844723D01*
X227765790Y-132844723D02*
X227670552Y-132749485D01*
X227670552Y-132749485D02*
X227575314Y-132701866D01*
X229051504Y-132987580D02*
X228575314Y-132987580D01*
X228575314Y-132987580D02*
X228527695Y-132511390D01*
X228527695Y-132511390D02*
X228575314Y-132559009D01*
X228575314Y-132559009D02*
X228670552Y-132606628D01*
X228670552Y-132606628D02*
X228908647Y-132606628D01*
X228908647Y-132606628D02*
X229003885Y-132559009D01*
X229003885Y-132559009D02*
X229051504Y-132511390D01*
X229051504Y-132511390D02*
X229099123Y-132416152D01*
X229099123Y-132416152D02*
X229099123Y-132178057D01*
X229099123Y-132178057D02*
X229051504Y-132082819D01*
X229051504Y-132082819D02*
X229003885Y-132035200D01*
X229003885Y-132035200D02*
X228908647Y-131987580D01*
X228908647Y-131987580D02*
X228670552Y-131987580D01*
X228670552Y-131987580D02*
X228575314Y-132035200D01*
X228575314Y-132035200D02*
X228527695Y-132082819D01*
D11*
X213570171Y-131899019D02*
X213593980Y-131946638D01*
X213593980Y-131946638D02*
X213641600Y-131994257D01*
X213641600Y-131994257D02*
X213713028Y-132065685D01*
X213713028Y-132065685D02*
X213736838Y-132113304D01*
X213736838Y-132113304D02*
X213736838Y-132160923D01*
X213617790Y-132137114D02*
X213641600Y-132184733D01*
X213641600Y-132184733D02*
X213689219Y-132232352D01*
X213689219Y-132232352D02*
X213784457Y-132256161D01*
X213784457Y-132256161D02*
X213951123Y-132256161D01*
X213951123Y-132256161D02*
X214046361Y-132232352D01*
X214046361Y-132232352D02*
X214093980Y-132184733D01*
X214093980Y-132184733D02*
X214117790Y-132137114D01*
X214117790Y-132137114D02*
X214117790Y-132041876D01*
X214117790Y-132041876D02*
X214093980Y-131994257D01*
X214093980Y-131994257D02*
X214046361Y-131946638D01*
X214046361Y-131946638D02*
X213951123Y-131922828D01*
X213951123Y-131922828D02*
X213784457Y-131922828D01*
X213784457Y-131922828D02*
X213689219Y-131946638D01*
X213689219Y-131946638D02*
X213641600Y-131994257D01*
X213641600Y-131994257D02*
X213617790Y-132041876D01*
X213617790Y-132041876D02*
X213617790Y-132137114D01*
X214117790Y-131470447D02*
X214117790Y-131708542D01*
X214117790Y-131708542D02*
X213879695Y-131732351D01*
X213879695Y-131732351D02*
X213903504Y-131708542D01*
X213903504Y-131708542D02*
X213927314Y-131660923D01*
X213927314Y-131660923D02*
X213927314Y-131541875D01*
X213927314Y-131541875D02*
X213903504Y-131494256D01*
X213903504Y-131494256D02*
X213879695Y-131470447D01*
X213879695Y-131470447D02*
X213832076Y-131446637D01*
X213832076Y-131446637D02*
X213713028Y-131446637D01*
X213713028Y-131446637D02*
X213665409Y-131470447D01*
X213665409Y-131470447D02*
X213641600Y-131494256D01*
X213641600Y-131494256D02*
X213617790Y-131541875D01*
X213617790Y-131541875D02*
X213617790Y-131660923D01*
X213617790Y-131660923D02*
X213641600Y-131708542D01*
X213641600Y-131708542D02*
X213665409Y-131732351D01*
X222842447Y-131859809D02*
X222842447Y-131359809D01*
X222842447Y-131359809D02*
X222723399Y-131359809D01*
X222723399Y-131359809D02*
X222651971Y-131383619D01*
X222651971Y-131383619D02*
X222604352Y-131431238D01*
X222604352Y-131431238D02*
X222580542Y-131478857D01*
X222580542Y-131478857D02*
X222556733Y-131574095D01*
X222556733Y-131574095D02*
X222556733Y-131645523D01*
X222556733Y-131645523D02*
X222580542Y-131740761D01*
X222580542Y-131740761D02*
X222604352Y-131788380D01*
X222604352Y-131788380D02*
X222651971Y-131836000D01*
X222651971Y-131836000D02*
X222723399Y-131859809D01*
X222723399Y-131859809D02*
X222842447Y-131859809D01*
X222390066Y-131359809D02*
X222080542Y-131359809D01*
X222080542Y-131359809D02*
X222247209Y-131550285D01*
X222247209Y-131550285D02*
X222175780Y-131550285D01*
X222175780Y-131550285D02*
X222128161Y-131574095D01*
X222128161Y-131574095D02*
X222104352Y-131597904D01*
X222104352Y-131597904D02*
X222080542Y-131645523D01*
X222080542Y-131645523D02*
X222080542Y-131764571D01*
X222080542Y-131764571D02*
X222104352Y-131812190D01*
X222104352Y-131812190D02*
X222128161Y-131836000D01*
X222128161Y-131836000D02*
X222175780Y-131859809D01*
X222175780Y-131859809D02*
X222318637Y-131859809D01*
X222318637Y-131859809D02*
X222366256Y-131836000D01*
X222366256Y-131836000D02*
X222390066Y-131812190D01*
D14*
X272518267Y-140460898D02*
X272518267Y-141368041D01*
X272518267Y-141368041D02*
X272578744Y-141549469D01*
X272578744Y-141549469D02*
X272699696Y-141670422D01*
X272699696Y-141670422D02*
X272881125Y-141730898D01*
X272881125Y-141730898D02*
X273002077Y-141730898D01*
X271248267Y-141730898D02*
X271973982Y-141730898D01*
X271611125Y-141730898D02*
X271611125Y-140460898D01*
X271611125Y-140460898D02*
X271732077Y-140642326D01*
X271732077Y-140642326D02*
X271853029Y-140763279D01*
X271853029Y-140763279D02*
X271973982Y-140823755D01*
X270824934Y-140460898D02*
X270038743Y-140460898D01*
X270038743Y-140460898D02*
X270462077Y-140944707D01*
X270462077Y-140944707D02*
X270280648Y-140944707D01*
X270280648Y-140944707D02*
X270159696Y-141005183D01*
X270159696Y-141005183D02*
X270099220Y-141065660D01*
X270099220Y-141065660D02*
X270038743Y-141186612D01*
X270038743Y-141186612D02*
X270038743Y-141488993D01*
X270038743Y-141488993D02*
X270099220Y-141609945D01*
X270099220Y-141609945D02*
X270159696Y-141670422D01*
X270159696Y-141670422D02*
X270280648Y-141730898D01*
X270280648Y-141730898D02*
X270643505Y-141730898D01*
X270643505Y-141730898D02*
X270764458Y-141670422D01*
X270764458Y-141670422D02*
X270824934Y-141609945D01*
D12*
X215612504Y-121104019D02*
X215041076Y-121104019D01*
X215326790Y-122104019D02*
X215326790Y-121104019D01*
X214707742Y-122104019D02*
X214707742Y-121104019D01*
X214707742Y-121104019D02*
X214326790Y-121104019D01*
X214326790Y-121104019D02*
X214231552Y-121151638D01*
X214231552Y-121151638D02*
X214183933Y-121199257D01*
X214183933Y-121199257D02*
X214136314Y-121294495D01*
X214136314Y-121294495D02*
X214136314Y-121437352D01*
X214136314Y-121437352D02*
X214183933Y-121532590D01*
X214183933Y-121532590D02*
X214231552Y-121580209D01*
X214231552Y-121580209D02*
X214326790Y-121627828D01*
X214326790Y-121627828D02*
X214707742Y-121627828D01*
X213755361Y-121199257D02*
X213707742Y-121151638D01*
X213707742Y-121151638D02*
X213612504Y-121104019D01*
X213612504Y-121104019D02*
X213374409Y-121104019D01*
X213374409Y-121104019D02*
X213279171Y-121151638D01*
X213279171Y-121151638D02*
X213231552Y-121199257D01*
X213231552Y-121199257D02*
X213183933Y-121294495D01*
X213183933Y-121294495D02*
X213183933Y-121389733D01*
X213183933Y-121389733D02*
X213231552Y-121532590D01*
X213231552Y-121532590D02*
X213802980Y-122104019D01*
X213802980Y-122104019D02*
X213183933Y-122104019D01*
D11*
X219113847Y-128494809D02*
X219113847Y-127994809D01*
X219113847Y-127994809D02*
X218994799Y-127994809D01*
X218994799Y-127994809D02*
X218923371Y-128018619D01*
X218923371Y-128018619D02*
X218875752Y-128066238D01*
X218875752Y-128066238D02*
X218851942Y-128113857D01*
X218851942Y-128113857D02*
X218828133Y-128209095D01*
X218828133Y-128209095D02*
X218828133Y-128280523D01*
X218828133Y-128280523D02*
X218851942Y-128375761D01*
X218851942Y-128375761D02*
X218875752Y-128423380D01*
X218875752Y-128423380D02*
X218923371Y-128471000D01*
X218923371Y-128471000D02*
X218994799Y-128494809D01*
X218994799Y-128494809D02*
X219113847Y-128494809D01*
X218661466Y-127994809D02*
X218328133Y-127994809D01*
X218328133Y-127994809D02*
X218542418Y-128494809D01*
X215449228Y-128416309D02*
X215615894Y-128178214D01*
X215734942Y-128416309D02*
X215734942Y-127916309D01*
X215734942Y-127916309D02*
X215544466Y-127916309D01*
X215544466Y-127916309D02*
X215496847Y-127940119D01*
X215496847Y-127940119D02*
X215473037Y-127963928D01*
X215473037Y-127963928D02*
X215449228Y-128011547D01*
X215449228Y-128011547D02*
X215449228Y-128082976D01*
X215449228Y-128082976D02*
X215473037Y-128130595D01*
X215473037Y-128130595D02*
X215496847Y-128154404D01*
X215496847Y-128154404D02*
X215544466Y-128178214D01*
X215544466Y-128178214D02*
X215734942Y-128178214D01*
X215282561Y-127916309D02*
X214973037Y-127916309D01*
X214973037Y-127916309D02*
X215139704Y-128106785D01*
X215139704Y-128106785D02*
X215068275Y-128106785D01*
X215068275Y-128106785D02*
X215020656Y-128130595D01*
X215020656Y-128130595D02*
X214996847Y-128154404D01*
X214996847Y-128154404D02*
X214973037Y-128202023D01*
X214973037Y-128202023D02*
X214973037Y-128321071D01*
X214973037Y-128321071D02*
X214996847Y-128368690D01*
X214996847Y-128368690D02*
X215020656Y-128392500D01*
X215020656Y-128392500D02*
X215068275Y-128416309D01*
X215068275Y-128416309D02*
X215211132Y-128416309D01*
X215211132Y-128416309D02*
X215258751Y-128392500D01*
X215258751Y-128392500D02*
X215282561Y-128368690D01*
X214496847Y-128416309D02*
X214782561Y-128416309D01*
X214639704Y-128416309D02*
X214639704Y-127916309D01*
X214639704Y-127916309D02*
X214687323Y-127987738D01*
X214687323Y-127987738D02*
X214734942Y-128035357D01*
X214734942Y-128035357D02*
X214782561Y-128059166D01*
X219993609Y-122362933D02*
X220350752Y-122362933D01*
X220350752Y-122362933D02*
X220422180Y-122339124D01*
X220422180Y-122339124D02*
X220469800Y-122291505D01*
X220469800Y-122291505D02*
X220493609Y-122220076D01*
X220493609Y-122220076D02*
X220493609Y-122172457D01*
X220493609Y-122862933D02*
X220493609Y-122577219D01*
X220493609Y-122720076D02*
X219993609Y-122720076D01*
X219993609Y-122720076D02*
X220065038Y-122672457D01*
X220065038Y-122672457D02*
X220112657Y-122624838D01*
X220112657Y-122624838D02*
X220136466Y-122577219D01*
X214158809Y-125939671D02*
X213920714Y-125773005D01*
X214158809Y-125653957D02*
X213658809Y-125653957D01*
X213658809Y-125653957D02*
X213658809Y-125844433D01*
X213658809Y-125844433D02*
X213682619Y-125892052D01*
X213682619Y-125892052D02*
X213706428Y-125915862D01*
X213706428Y-125915862D02*
X213754047Y-125939671D01*
X213754047Y-125939671D02*
X213825476Y-125939671D01*
X213825476Y-125939671D02*
X213873095Y-125915862D01*
X213873095Y-125915862D02*
X213896904Y-125892052D01*
X213896904Y-125892052D02*
X213920714Y-125844433D01*
X213920714Y-125844433D02*
X213920714Y-125653957D01*
X213658809Y-126106338D02*
X213658809Y-126415862D01*
X213658809Y-126415862D02*
X213849285Y-126249195D01*
X213849285Y-126249195D02*
X213849285Y-126320624D01*
X213849285Y-126320624D02*
X213873095Y-126368243D01*
X213873095Y-126368243D02*
X213896904Y-126392052D01*
X213896904Y-126392052D02*
X213944523Y-126415862D01*
X213944523Y-126415862D02*
X214063571Y-126415862D01*
X214063571Y-126415862D02*
X214111190Y-126392052D01*
X214111190Y-126392052D02*
X214135000Y-126368243D01*
X214135000Y-126368243D02*
X214158809Y-126320624D01*
X214158809Y-126320624D02*
X214158809Y-126177767D01*
X214158809Y-126177767D02*
X214135000Y-126130148D01*
X214135000Y-126130148D02*
X214111190Y-126106338D01*
X213706428Y-126606338D02*
X213682619Y-126630147D01*
X213682619Y-126630147D02*
X213658809Y-126677766D01*
X213658809Y-126677766D02*
X213658809Y-126796814D01*
X213658809Y-126796814D02*
X213682619Y-126844433D01*
X213682619Y-126844433D02*
X213706428Y-126868242D01*
X213706428Y-126868242D02*
X213754047Y-126892052D01*
X213754047Y-126892052D02*
X213801666Y-126892052D01*
X213801666Y-126892052D02*
X213873095Y-126868242D01*
X213873095Y-126868242D02*
X214158809Y-126582528D01*
X214158809Y-126582528D02*
X214158809Y-126892052D01*
X222495228Y-130656990D02*
X222519037Y-130680800D01*
X222519037Y-130680800D02*
X222590466Y-130704609D01*
X222590466Y-130704609D02*
X222638085Y-130704609D01*
X222638085Y-130704609D02*
X222709513Y-130680800D01*
X222709513Y-130680800D02*
X222757132Y-130633180D01*
X222757132Y-130633180D02*
X222780942Y-130585561D01*
X222780942Y-130585561D02*
X222804751Y-130490323D01*
X222804751Y-130490323D02*
X222804751Y-130418895D01*
X222804751Y-130418895D02*
X222780942Y-130323657D01*
X222780942Y-130323657D02*
X222757132Y-130276038D01*
X222757132Y-130276038D02*
X222709513Y-130228419D01*
X222709513Y-130228419D02*
X222638085Y-130204609D01*
X222638085Y-130204609D02*
X222590466Y-130204609D01*
X222590466Y-130204609D02*
X222519037Y-130228419D01*
X222519037Y-130228419D02*
X222495228Y-130252228D01*
X222304751Y-130252228D02*
X222280942Y-130228419D01*
X222280942Y-130228419D02*
X222233323Y-130204609D01*
X222233323Y-130204609D02*
X222114275Y-130204609D01*
X222114275Y-130204609D02*
X222066656Y-130228419D01*
X222066656Y-130228419D02*
X222042847Y-130252228D01*
X222042847Y-130252228D02*
X222019037Y-130299847D01*
X222019037Y-130299847D02*
X222019037Y-130347466D01*
X222019037Y-130347466D02*
X222042847Y-130418895D01*
X222042847Y-130418895D02*
X222328561Y-130704609D01*
X222328561Y-130704609D02*
X222019037Y-130704609D01*
X221566657Y-130204609D02*
X221804752Y-130204609D01*
X221804752Y-130204609D02*
X221828561Y-130442704D01*
X221828561Y-130442704D02*
X221804752Y-130418895D01*
X221804752Y-130418895D02*
X221757133Y-130395085D01*
X221757133Y-130395085D02*
X221638085Y-130395085D01*
X221638085Y-130395085D02*
X221590466Y-130418895D01*
X221590466Y-130418895D02*
X221566657Y-130442704D01*
X221566657Y-130442704D02*
X221542847Y-130490323D01*
X221542847Y-130490323D02*
X221542847Y-130609371D01*
X221542847Y-130609371D02*
X221566657Y-130656990D01*
X221566657Y-130656990D02*
X221590466Y-130680800D01*
X221590466Y-130680800D02*
X221638085Y-130704609D01*
X221638085Y-130704609D02*
X221757133Y-130704609D01*
X221757133Y-130704609D02*
X221804752Y-130680800D01*
X221804752Y-130680800D02*
X221828561Y-130656990D01*
D12*
X233952357Y-114116480D02*
X233809500Y-114164099D01*
X233809500Y-114164099D02*
X233761881Y-114211718D01*
X233761881Y-114211718D02*
X233714262Y-114306956D01*
X233714262Y-114306956D02*
X233714262Y-114449813D01*
X233714262Y-114449813D02*
X233761881Y-114545051D01*
X233761881Y-114545051D02*
X233809500Y-114592671D01*
X233809500Y-114592671D02*
X233904738Y-114640290D01*
X233904738Y-114640290D02*
X234285690Y-114640290D01*
X234285690Y-114640290D02*
X234285690Y-113640290D01*
X234285690Y-113640290D02*
X233952357Y-113640290D01*
X233952357Y-113640290D02*
X233857119Y-113687909D01*
X233857119Y-113687909D02*
X233809500Y-113735528D01*
X233809500Y-113735528D02*
X233761881Y-113830766D01*
X233761881Y-113830766D02*
X233761881Y-113926004D01*
X233761881Y-113926004D02*
X233809500Y-114021242D01*
X233809500Y-114021242D02*
X233857119Y-114068861D01*
X233857119Y-114068861D02*
X233952357Y-114116480D01*
X233952357Y-114116480D02*
X234285690Y-114116480D01*
X232761881Y-114640290D02*
X233333309Y-114640290D01*
X233047595Y-114640290D02*
X233047595Y-113640290D01*
X233047595Y-113640290D02*
X233142833Y-113783147D01*
X233142833Y-113783147D02*
X233238071Y-113878385D01*
X233238071Y-113878385D02*
X233333309Y-113926004D01*
D11*
X216878647Y-132304809D02*
X216878647Y-131804809D01*
X216878647Y-131804809D02*
X216759599Y-131804809D01*
X216759599Y-131804809D02*
X216688171Y-131828619D01*
X216688171Y-131828619D02*
X216640552Y-131876238D01*
X216640552Y-131876238D02*
X216616742Y-131923857D01*
X216616742Y-131923857D02*
X216592933Y-132019095D01*
X216592933Y-132019095D02*
X216592933Y-132090523D01*
X216592933Y-132090523D02*
X216616742Y-132185761D01*
X216616742Y-132185761D02*
X216640552Y-132233380D01*
X216640552Y-132233380D02*
X216688171Y-132281000D01*
X216688171Y-132281000D02*
X216759599Y-132304809D01*
X216759599Y-132304809D02*
X216878647Y-132304809D01*
X216164361Y-131804809D02*
X216259599Y-131804809D01*
X216259599Y-131804809D02*
X216307218Y-131828619D01*
X216307218Y-131828619D02*
X216331028Y-131852428D01*
X216331028Y-131852428D02*
X216378647Y-131923857D01*
X216378647Y-131923857D02*
X216402456Y-132019095D01*
X216402456Y-132019095D02*
X216402456Y-132209571D01*
X216402456Y-132209571D02*
X216378647Y-132257190D01*
X216378647Y-132257190D02*
X216354837Y-132281000D01*
X216354837Y-132281000D02*
X216307218Y-132304809D01*
X216307218Y-132304809D02*
X216211980Y-132304809D01*
X216211980Y-132304809D02*
X216164361Y-132281000D01*
X216164361Y-132281000D02*
X216140552Y-132257190D01*
X216140552Y-132257190D02*
X216116742Y-132209571D01*
X216116742Y-132209571D02*
X216116742Y-132090523D01*
X216116742Y-132090523D02*
X216140552Y-132042904D01*
X216140552Y-132042904D02*
X216164361Y-132019095D01*
X216164361Y-132019095D02*
X216211980Y-131995285D01*
X216211980Y-131995285D02*
X216307218Y-131995285D01*
X216307218Y-131995285D02*
X216354837Y-132019095D01*
X216354837Y-132019095D02*
X216378647Y-132042904D01*
X216378647Y-132042904D02*
X216402456Y-132090523D01*
D12*
X217590563Y-92552798D02*
X217590563Y-93268467D01*
X217590563Y-93268467D02*
X217638275Y-93411601D01*
X217638275Y-93411601D02*
X217733697Y-93507024D01*
X217733697Y-93507024D02*
X217876831Y-93554735D01*
X217876831Y-93554735D02*
X217972254Y-93554735D01*
X216636337Y-92552798D02*
X217113450Y-92552798D01*
X217113450Y-92552798D02*
X217161161Y-93029911D01*
X217161161Y-93029911D02*
X217113450Y-92982199D01*
X217113450Y-92982199D02*
X217018028Y-92934488D01*
X217018028Y-92934488D02*
X216779471Y-92934488D01*
X216779471Y-92934488D02*
X216684049Y-92982199D01*
X216684049Y-92982199D02*
X216636337Y-93029911D01*
X216636337Y-93029911D02*
X216588626Y-93125333D01*
X216588626Y-93125333D02*
X216588626Y-93363890D01*
X216588626Y-93363890D02*
X216636337Y-93459312D01*
X216636337Y-93459312D02*
X216684049Y-93507024D01*
X216684049Y-93507024D02*
X216779471Y-93554735D01*
X216779471Y-93554735D02*
X217018028Y-93554735D01*
X217018028Y-93554735D02*
X217113450Y-93507024D01*
X217113450Y-93507024D02*
X217161161Y-93459312D01*
D10*
X272046647Y-132325400D02*
X272046647Y-132770638D01*
X272046647Y-132770638D02*
X272020457Y-132823019D01*
X272020457Y-132823019D02*
X271994266Y-132849210D01*
X271994266Y-132849210D02*
X271941885Y-132875400D01*
X271941885Y-132875400D02*
X271837123Y-132875400D01*
X271837123Y-132875400D02*
X271784742Y-132849210D01*
X271784742Y-132849210D02*
X271758552Y-132823019D01*
X271758552Y-132823019D02*
X271732361Y-132770638D01*
X271732361Y-132770638D02*
X271732361Y-132325400D01*
X271522838Y-132325400D02*
X271156171Y-132325400D01*
X271156171Y-132325400D02*
X271391886Y-132875400D01*
D15*
%TO.C,SW14*%
X215933657Y-134304400D02*
X215933657Y-136664400D01*
X220733657Y-132934400D02*
X216233657Y-132934400D01*
X220733657Y-138034400D02*
X216233657Y-138034400D01*
X221033657Y-136664400D02*
X221033657Y-134304400D01*
D16*
X222833657Y-133609400D02*
G75*
G02*
X222633657Y-133609400I-100000J0D01*
G01*
X222633657Y-133609400D02*
G75*
G02*
X222833657Y-133609400I100000J0D01*
G01*
D10*
%TO.C,TP1*%
X221405600Y-122421800D02*
X223805600Y-122421800D01*
X221405600Y-124821800D02*
X221405600Y-122421800D01*
X223805600Y-122421800D02*
X223805600Y-124821800D01*
X223805600Y-124821800D02*
X221405600Y-124821800D01*
%TO.C,SW15*%
D13*
X227676000Y-133971400D02*
X225574400Y-133971400D01*
X225574400Y-135869800D01*
X227676000Y-135869800D01*
X227676000Y-133971400D01*
D10*
%TO.C,Q5*%
X213390000Y-129929100D02*
X213390000Y-130579100D01*
X213390000Y-131229100D02*
X213390000Y-130579100D01*
X216510000Y-129929100D02*
X216510000Y-130579100D01*
X216510000Y-131229100D02*
X216510000Y-130579100D01*
X213440000Y-129416600D02*
X213110000Y-129656600D01*
X213110000Y-129176600D01*
X213440000Y-129416600D01*
G36*
X213440000Y-129416600D02*
G01*
X213110000Y-129656600D01*
X213110000Y-129176600D01*
X213440000Y-129416600D01*
G37*
%TO.C,D3*%
X219435400Y-131035000D02*
X219435400Y-132235000D01*
X219435400Y-131035000D02*
X221395400Y-131035000D01*
X219435400Y-132235000D02*
X221395400Y-132235000D01*
D16*
%TO.C,J13*%
X269140173Y-139356580D02*
X269890173Y-139356580D01*
X269140173Y-141556580D02*
X269140173Y-139356580D01*
X269890173Y-142956580D02*
X273090173Y-142956580D01*
D13*
X272690173Y-138756580D02*
X272690173Y-138756580D01*
X272690173Y-138856580D02*
X272690173Y-138856580D01*
D16*
X273840173Y-139356580D02*
X273290173Y-139356580D01*
X273840173Y-141556580D02*
X273840173Y-139356580D01*
D13*
X272690173Y-138756580D02*
G75*
G02*
X272690173Y-138856580I0J-50000D01*
G01*
X272690173Y-138856580D02*
G75*
G02*
X272690173Y-138756580I0J50000D01*
G01*
%TO.C,RV2*%
X238483657Y-97934400D02*
X240893657Y-97934400D01*
X238483657Y-111874400D02*
X238483657Y-97934400D01*
X238483657Y-114054400D02*
X238483657Y-114684400D01*
X238483657Y-114684400D02*
X248483657Y-114684400D01*
X246073657Y-97934400D02*
X248483657Y-97934400D01*
X248483657Y-111874400D02*
X248483657Y-97934400D01*
X248483657Y-114059400D02*
X248483657Y-114684400D01*
D10*
%TO.C,TP2*%
X213150600Y-122447200D02*
X215550600Y-122447200D01*
X213150600Y-124847200D02*
X213150600Y-122447200D01*
X215550600Y-122447200D02*
X215550600Y-124847200D01*
X215550600Y-124847200D02*
X213150600Y-124847200D01*
%TO.C,D7*%
X216763400Y-128734500D02*
X216763400Y-129934500D01*
X216763400Y-128734500D02*
X218723400Y-128734500D01*
X216763400Y-129934500D02*
X218723400Y-129934500D01*
D15*
%TO.C,J1*%
X216912600Y-123064400D02*
X216912600Y-124636400D01*
X218575600Y-121950400D02*
X219312600Y-121950400D01*
X218575600Y-125750400D02*
X219312600Y-125750400D01*
X219312600Y-121950400D02*
X219312600Y-122750400D01*
X219312600Y-122750400D02*
X219612600Y-122750400D01*
X219312600Y-124950400D02*
X219312600Y-125750400D01*
X219612600Y-122887400D02*
X219612600Y-122750400D01*
X219612600Y-124813400D02*
X219612600Y-124950400D01*
X219612600Y-124950400D02*
X219312600Y-124950400D01*
D16*
X220187600Y-124975400D02*
G75*
G02*
X219987600Y-124975400I-100000J0D01*
G01*
X219987600Y-124975400D02*
G75*
G02*
X220187600Y-124975400I100000J0D01*
G01*
D10*
%TO.C,B1*%
X230187596Y-112145471D02*
X230187596Y-113395471D01*
X230187596Y-113395471D02*
X231437596Y-113395471D01*
X230487596Y-108375471D02*
X230487596Y-113095471D01*
X230487596Y-113095471D02*
X236607596Y-113095471D01*
X231097596Y-108985471D02*
X231097596Y-112485471D01*
X231097596Y-110485471D02*
X230487596Y-110485471D01*
X231097596Y-111785471D02*
X230487596Y-111785471D01*
X231097596Y-112485471D02*
X233047596Y-112485471D01*
X231947596Y-113095471D02*
X231947596Y-113295471D01*
X231947596Y-113195471D02*
X232247596Y-113195471D01*
X231947596Y-113295471D02*
X232247596Y-113295471D01*
X232247596Y-113295471D02*
X232247596Y-113095471D01*
X233047596Y-112485471D02*
X233047596Y-113095471D01*
X233447596Y-109485471D02*
X233447596Y-108985471D01*
X233547596Y-109485471D02*
X233547596Y-108985471D01*
X233647596Y-108985471D02*
X233647596Y-109485471D01*
X233647596Y-109485471D02*
X233447596Y-109485471D01*
X234047596Y-112485471D02*
X235997596Y-112485471D01*
X234047596Y-113095471D02*
X234047596Y-112485471D01*
X235997596Y-108985471D02*
X231097596Y-108985471D01*
X235997596Y-110485471D02*
X236607596Y-110485471D01*
X235997596Y-111785471D02*
X236607596Y-111785471D01*
X235997596Y-112485471D02*
X235997596Y-108985471D01*
X236607596Y-108375471D02*
X230487596Y-108375471D01*
X236607596Y-113095471D02*
X236607596Y-108375471D01*
%TO.C,D6*%
X219273200Y-131048200D02*
X217313200Y-131048200D01*
X219273200Y-132248200D02*
X217313200Y-132248200D01*
X219273200Y-132248200D02*
X219273200Y-131048200D01*
D15*
%TO.C,J5*%
X213658635Y-81054400D02*
X223308635Y-81054400D01*
X213658635Y-83304400D02*
X213658635Y-81054400D01*
X213658635Y-89054400D02*
X213658635Y-86054400D01*
X215233635Y-91054400D02*
X214733635Y-91054400D01*
X222233635Y-91054400D02*
X221733635Y-91054400D01*
X223308635Y-81054400D02*
X223308635Y-83304400D01*
X223308635Y-86054400D02*
X223308635Y-89054400D01*
D16*
X215833635Y-91554400D02*
G75*
G02*
X215633635Y-91554400I-100000J0D01*
G01*
X215633635Y-91554400D02*
G75*
G02*
X215833635Y-91554400I100000J0D01*
G01*
D10*
%TO.C,U7*%
X270127600Y-133467200D02*
X271627600Y-133467200D01*
X270127600Y-136687200D02*
X271627600Y-136687200D01*
X273127600Y-133467200D02*
X271627600Y-133467200D01*
X273127600Y-136687200D02*
X271627600Y-136687200D01*
X273840100Y-133642200D02*
X273600100Y-133312200D01*
X274080100Y-133312200D01*
X273840100Y-133642200D01*
G36*
X273840100Y-133642200D02*
G01*
X273600100Y-133312200D01*
X274080100Y-133312200D01*
X273840100Y-133642200D01*
G37*
D13*
%TO.C,RV1*%
X188483657Y-97934400D02*
X190893657Y-97934400D01*
X188483657Y-111874400D02*
X188483657Y-97934400D01*
X188483657Y-114054400D02*
X188483657Y-114684400D01*
X188483657Y-114684400D02*
X198483657Y-114684400D01*
X196073657Y-97934400D02*
X198483657Y-97934400D01*
X198483657Y-111874400D02*
X198483657Y-97934400D01*
X198483657Y-114059400D02*
X198483657Y-114684400D01*
%TD*%
M02*
