%TF.GenerationSoftware,KiCad,Pcbnew,8.0.2*%
%TF.CreationDate,2024-06-18T23:34:14-07:00*%
%TF.ProjectId,UGC_Main,5547435f-4d61-4696-9e2e-6b696361645f,rev?*%
%TF.SameCoordinates,Original*%
%TF.FileFunction,Legend,Top*%
%TF.FilePolarity,Positive*%
%FSLAX46Y46*%
G04 Gerber Fmt 4.6, Leading zero omitted, Abs format (unit mm)*
G04 Created by KiCad (PCBNEW 8.0.2) date 2024-06-18 23:34:14*
%MOMM*%
%LPD*%
G01*
G04 APERTURE LIST*
%ADD10C,0.125000*%
%ADD11C,0.120000*%
%ADD12C,0.100000*%
%ADD13C,0.160000*%
%ADD14C,0.350000*%
%ADD15C,0.127000*%
%ADD16C,0.200000*%
G04 APERTURE END LIST*
D10*
X228997628Y-112903609D02*
X229021437Y-112879800D01*
X229021437Y-112879800D02*
X229092866Y-112855990D01*
X229092866Y-112855990D02*
X229140485Y-112855990D01*
X229140485Y-112855990D02*
X229211913Y-112879800D01*
X229211913Y-112879800D02*
X229259532Y-112927419D01*
X229259532Y-112927419D02*
X229283342Y-112975038D01*
X229283342Y-112975038D02*
X229307151Y-113070276D01*
X229307151Y-113070276D02*
X229307151Y-113141704D01*
X229307151Y-113141704D02*
X229283342Y-113236942D01*
X229283342Y-113236942D02*
X229259532Y-113284561D01*
X229259532Y-113284561D02*
X229211913Y-113332180D01*
X229211913Y-113332180D02*
X229140485Y-113355990D01*
X229140485Y-113355990D02*
X229092866Y-113355990D01*
X229092866Y-113355990D02*
X229021437Y-113332180D01*
X229021437Y-113332180D02*
X228997628Y-113308371D01*
X228521437Y-112855990D02*
X228807151Y-112855990D01*
X228664294Y-112855990D02*
X228664294Y-113355990D01*
X228664294Y-113355990D02*
X228711913Y-113284561D01*
X228711913Y-113284561D02*
X228759532Y-113236942D01*
X228759532Y-113236942D02*
X228807151Y-113213133D01*
X228354771Y-113355990D02*
X228021438Y-113355990D01*
X228021438Y-113355990D02*
X228235723Y-112855990D01*
X233069790Y-124619533D02*
X233093600Y-124643342D01*
X233093600Y-124643342D02*
X233117409Y-124714771D01*
X233117409Y-124714771D02*
X233117409Y-124762390D01*
X233117409Y-124762390D02*
X233093600Y-124833818D01*
X233093600Y-124833818D02*
X233045980Y-124881437D01*
X233045980Y-124881437D02*
X232998361Y-124905247D01*
X232998361Y-124905247D02*
X232903123Y-124929056D01*
X232903123Y-124929056D02*
X232831695Y-124929056D01*
X232831695Y-124929056D02*
X232736457Y-124905247D01*
X232736457Y-124905247D02*
X232688838Y-124881437D01*
X232688838Y-124881437D02*
X232641219Y-124833818D01*
X232641219Y-124833818D02*
X232617409Y-124762390D01*
X232617409Y-124762390D02*
X232617409Y-124714771D01*
X232617409Y-124714771D02*
X232641219Y-124643342D01*
X232641219Y-124643342D02*
X232665028Y-124619533D01*
X232784076Y-124190961D02*
X233117409Y-124190961D01*
X232593600Y-124310009D02*
X232950742Y-124429056D01*
X232950742Y-124429056D02*
X232950742Y-124119533D01*
X268575809Y-126508628D02*
X268337714Y-126675294D01*
X268575809Y-126794342D02*
X268075809Y-126794342D01*
X268075809Y-126794342D02*
X268075809Y-126603866D01*
X268075809Y-126603866D02*
X268099619Y-126556247D01*
X268099619Y-126556247D02*
X268123428Y-126532437D01*
X268123428Y-126532437D02*
X268171047Y-126508628D01*
X268171047Y-126508628D02*
X268242476Y-126508628D01*
X268242476Y-126508628D02*
X268290095Y-126532437D01*
X268290095Y-126532437D02*
X268313904Y-126556247D01*
X268313904Y-126556247D02*
X268337714Y-126603866D01*
X268337714Y-126603866D02*
X268337714Y-126794342D01*
X268075809Y-126341961D02*
X268075809Y-126032437D01*
X268075809Y-126032437D02*
X268266285Y-126199104D01*
X268266285Y-126199104D02*
X268266285Y-126127675D01*
X268266285Y-126127675D02*
X268290095Y-126080056D01*
X268290095Y-126080056D02*
X268313904Y-126056247D01*
X268313904Y-126056247D02*
X268361523Y-126032437D01*
X268361523Y-126032437D02*
X268480571Y-126032437D01*
X268480571Y-126032437D02*
X268528190Y-126056247D01*
X268528190Y-126056247D02*
X268552000Y-126080056D01*
X268552000Y-126080056D02*
X268575809Y-126127675D01*
X268575809Y-126127675D02*
X268575809Y-126270532D01*
X268575809Y-126270532D02*
X268552000Y-126318151D01*
X268552000Y-126318151D02*
X268528190Y-126341961D01*
X268075809Y-125580057D02*
X268075809Y-125818152D01*
X268075809Y-125818152D02*
X268313904Y-125841961D01*
X268313904Y-125841961D02*
X268290095Y-125818152D01*
X268290095Y-125818152D02*
X268266285Y-125770533D01*
X268266285Y-125770533D02*
X268266285Y-125651485D01*
X268266285Y-125651485D02*
X268290095Y-125603866D01*
X268290095Y-125603866D02*
X268313904Y-125580057D01*
X268313904Y-125580057D02*
X268361523Y-125556247D01*
X268361523Y-125556247D02*
X268480571Y-125556247D01*
X268480571Y-125556247D02*
X268528190Y-125580057D01*
X268528190Y-125580057D02*
X268552000Y-125603866D01*
X268552000Y-125603866D02*
X268575809Y-125651485D01*
X268575809Y-125651485D02*
X268575809Y-125770533D01*
X268575809Y-125770533D02*
X268552000Y-125818152D01*
X268552000Y-125818152D02*
X268528190Y-125841961D01*
X179393066Y-127326409D02*
X179226400Y-127088314D01*
X179107352Y-127326409D02*
X179107352Y-126826409D01*
X179107352Y-126826409D02*
X179297828Y-126826409D01*
X179297828Y-126826409D02*
X179345447Y-126850219D01*
X179345447Y-126850219D02*
X179369257Y-126874028D01*
X179369257Y-126874028D02*
X179393066Y-126921647D01*
X179393066Y-126921647D02*
X179393066Y-126993076D01*
X179393066Y-126993076D02*
X179369257Y-127040695D01*
X179369257Y-127040695D02*
X179345447Y-127064504D01*
X179345447Y-127064504D02*
X179297828Y-127088314D01*
X179297828Y-127088314D02*
X179107352Y-127088314D01*
X179869257Y-127326409D02*
X179583543Y-127326409D01*
X179726400Y-127326409D02*
X179726400Y-126826409D01*
X179726400Y-126826409D02*
X179678781Y-126897838D01*
X179678781Y-126897838D02*
X179631162Y-126945457D01*
X179631162Y-126945457D02*
X179583543Y-126969266D01*
X207977200Y-135353360D02*
X208001009Y-135281932D01*
X208001009Y-135281932D02*
X208001009Y-135162884D01*
X208001009Y-135162884D02*
X207977200Y-135115265D01*
X207977200Y-135115265D02*
X207953390Y-135091456D01*
X207953390Y-135091456D02*
X207905771Y-135067646D01*
X207905771Y-135067646D02*
X207858152Y-135067646D01*
X207858152Y-135067646D02*
X207810533Y-135091456D01*
X207810533Y-135091456D02*
X207786723Y-135115265D01*
X207786723Y-135115265D02*
X207762914Y-135162884D01*
X207762914Y-135162884D02*
X207739104Y-135258122D01*
X207739104Y-135258122D02*
X207715295Y-135305741D01*
X207715295Y-135305741D02*
X207691485Y-135329551D01*
X207691485Y-135329551D02*
X207643866Y-135353360D01*
X207643866Y-135353360D02*
X207596247Y-135353360D01*
X207596247Y-135353360D02*
X207548628Y-135329551D01*
X207548628Y-135329551D02*
X207524819Y-135305741D01*
X207524819Y-135305741D02*
X207501009Y-135258122D01*
X207501009Y-135258122D02*
X207501009Y-135139075D01*
X207501009Y-135139075D02*
X207524819Y-135067646D01*
X207501009Y-134900980D02*
X208001009Y-134781932D01*
X208001009Y-134781932D02*
X207643866Y-134686694D01*
X207643866Y-134686694D02*
X208001009Y-134591456D01*
X208001009Y-134591456D02*
X207501009Y-134472409D01*
X208001009Y-134020027D02*
X208001009Y-134305741D01*
X208001009Y-134162884D02*
X207501009Y-134162884D01*
X207501009Y-134162884D02*
X207572438Y-134210503D01*
X207572438Y-134210503D02*
X207620057Y-134258122D01*
X207620057Y-134258122D02*
X207643866Y-134305741D01*
X207501009Y-133591456D02*
X207501009Y-133686694D01*
X207501009Y-133686694D02*
X207524819Y-133734313D01*
X207524819Y-133734313D02*
X207548628Y-133758123D01*
X207548628Y-133758123D02*
X207620057Y-133805742D01*
X207620057Y-133805742D02*
X207715295Y-133829551D01*
X207715295Y-133829551D02*
X207905771Y-133829551D01*
X207905771Y-133829551D02*
X207953390Y-133805742D01*
X207953390Y-133805742D02*
X207977200Y-133781932D01*
X207977200Y-133781932D02*
X208001009Y-133734313D01*
X208001009Y-133734313D02*
X208001009Y-133639075D01*
X208001009Y-133639075D02*
X207977200Y-133591456D01*
X207977200Y-133591456D02*
X207953390Y-133567647D01*
X207953390Y-133567647D02*
X207905771Y-133543837D01*
X207905771Y-133543837D02*
X207786723Y-133543837D01*
X207786723Y-133543837D02*
X207739104Y-133567647D01*
X207739104Y-133567647D02*
X207715295Y-133591456D01*
X207715295Y-133591456D02*
X207691485Y-133639075D01*
X207691485Y-133639075D02*
X207691485Y-133734313D01*
X207691485Y-133734313D02*
X207715295Y-133781932D01*
X207715295Y-133781932D02*
X207739104Y-133805742D01*
X207739104Y-133805742D02*
X207786723Y-133829551D01*
X213737209Y-111132133D02*
X213499114Y-111298799D01*
X213737209Y-111417847D02*
X213237209Y-111417847D01*
X213237209Y-111417847D02*
X213237209Y-111227371D01*
X213237209Y-111227371D02*
X213261019Y-111179752D01*
X213261019Y-111179752D02*
X213284828Y-111155942D01*
X213284828Y-111155942D02*
X213332447Y-111132133D01*
X213332447Y-111132133D02*
X213403876Y-111132133D01*
X213403876Y-111132133D02*
X213451495Y-111155942D01*
X213451495Y-111155942D02*
X213475304Y-111179752D01*
X213475304Y-111179752D02*
X213499114Y-111227371D01*
X213499114Y-111227371D02*
X213499114Y-111417847D01*
X213451495Y-110846418D02*
X213427685Y-110894037D01*
X213427685Y-110894037D02*
X213403876Y-110917847D01*
X213403876Y-110917847D02*
X213356257Y-110941656D01*
X213356257Y-110941656D02*
X213332447Y-110941656D01*
X213332447Y-110941656D02*
X213284828Y-110917847D01*
X213284828Y-110917847D02*
X213261019Y-110894037D01*
X213261019Y-110894037D02*
X213237209Y-110846418D01*
X213237209Y-110846418D02*
X213237209Y-110751180D01*
X213237209Y-110751180D02*
X213261019Y-110703561D01*
X213261019Y-110703561D02*
X213284828Y-110679752D01*
X213284828Y-110679752D02*
X213332447Y-110655942D01*
X213332447Y-110655942D02*
X213356257Y-110655942D01*
X213356257Y-110655942D02*
X213403876Y-110679752D01*
X213403876Y-110679752D02*
X213427685Y-110703561D01*
X213427685Y-110703561D02*
X213451495Y-110751180D01*
X213451495Y-110751180D02*
X213451495Y-110846418D01*
X213451495Y-110846418D02*
X213475304Y-110894037D01*
X213475304Y-110894037D02*
X213499114Y-110917847D01*
X213499114Y-110917847D02*
X213546733Y-110941656D01*
X213546733Y-110941656D02*
X213641971Y-110941656D01*
X213641971Y-110941656D02*
X213689590Y-110917847D01*
X213689590Y-110917847D02*
X213713400Y-110894037D01*
X213713400Y-110894037D02*
X213737209Y-110846418D01*
X213737209Y-110846418D02*
X213737209Y-110751180D01*
X213737209Y-110751180D02*
X213713400Y-110703561D01*
X213713400Y-110703561D02*
X213689590Y-110679752D01*
X213689590Y-110679752D02*
X213641971Y-110655942D01*
X213641971Y-110655942D02*
X213546733Y-110655942D01*
X213546733Y-110655942D02*
X213499114Y-110679752D01*
X213499114Y-110679752D02*
X213475304Y-110703561D01*
X213475304Y-110703561D02*
X213451495Y-110751180D01*
X231158266Y-101545409D02*
X230991600Y-101307314D01*
X230872552Y-101545409D02*
X230872552Y-101045409D01*
X230872552Y-101045409D02*
X231063028Y-101045409D01*
X231063028Y-101045409D02*
X231110647Y-101069219D01*
X231110647Y-101069219D02*
X231134457Y-101093028D01*
X231134457Y-101093028D02*
X231158266Y-101140647D01*
X231158266Y-101140647D02*
X231158266Y-101212076D01*
X231158266Y-101212076D02*
X231134457Y-101259695D01*
X231134457Y-101259695D02*
X231110647Y-101283504D01*
X231110647Y-101283504D02*
X231063028Y-101307314D01*
X231063028Y-101307314D02*
X230872552Y-101307314D01*
X231610647Y-101045409D02*
X231372552Y-101045409D01*
X231372552Y-101045409D02*
X231348743Y-101283504D01*
X231348743Y-101283504D02*
X231372552Y-101259695D01*
X231372552Y-101259695D02*
X231420171Y-101235885D01*
X231420171Y-101235885D02*
X231539219Y-101235885D01*
X231539219Y-101235885D02*
X231586838Y-101259695D01*
X231586838Y-101259695D02*
X231610647Y-101283504D01*
X231610647Y-101283504D02*
X231634457Y-101331123D01*
X231634457Y-101331123D02*
X231634457Y-101450171D01*
X231634457Y-101450171D02*
X231610647Y-101497790D01*
X231610647Y-101497790D02*
X231586838Y-101521600D01*
X231586838Y-101521600D02*
X231539219Y-101545409D01*
X231539219Y-101545409D02*
X231420171Y-101545409D01*
X231420171Y-101545409D02*
X231372552Y-101521600D01*
X231372552Y-101521600D02*
X231348743Y-101497790D01*
X227084809Y-88131428D02*
X226846714Y-88298094D01*
X227084809Y-88417142D02*
X226584809Y-88417142D01*
X226584809Y-88417142D02*
X226584809Y-88226666D01*
X226584809Y-88226666D02*
X226608619Y-88179047D01*
X226608619Y-88179047D02*
X226632428Y-88155237D01*
X226632428Y-88155237D02*
X226680047Y-88131428D01*
X226680047Y-88131428D02*
X226751476Y-88131428D01*
X226751476Y-88131428D02*
X226799095Y-88155237D01*
X226799095Y-88155237D02*
X226822904Y-88179047D01*
X226822904Y-88179047D02*
X226846714Y-88226666D01*
X226846714Y-88226666D02*
X226846714Y-88417142D01*
X226632428Y-87940951D02*
X226608619Y-87917142D01*
X226608619Y-87917142D02*
X226584809Y-87869523D01*
X226584809Y-87869523D02*
X226584809Y-87750475D01*
X226584809Y-87750475D02*
X226608619Y-87702856D01*
X226608619Y-87702856D02*
X226632428Y-87679047D01*
X226632428Y-87679047D02*
X226680047Y-87655237D01*
X226680047Y-87655237D02*
X226727666Y-87655237D01*
X226727666Y-87655237D02*
X226799095Y-87679047D01*
X226799095Y-87679047D02*
X227084809Y-87964761D01*
X227084809Y-87964761D02*
X227084809Y-87655237D01*
X226632428Y-87464761D02*
X226608619Y-87440952D01*
X226608619Y-87440952D02*
X226584809Y-87393333D01*
X226584809Y-87393333D02*
X226584809Y-87274285D01*
X226584809Y-87274285D02*
X226608619Y-87226666D01*
X226608619Y-87226666D02*
X226632428Y-87202857D01*
X226632428Y-87202857D02*
X226680047Y-87179047D01*
X226680047Y-87179047D02*
X226727666Y-87179047D01*
X226727666Y-87179047D02*
X226799095Y-87202857D01*
X226799095Y-87202857D02*
X227084809Y-87488571D01*
X227084809Y-87488571D02*
X227084809Y-87179047D01*
X239772209Y-97222428D02*
X239534114Y-97389094D01*
X239772209Y-97508142D02*
X239272209Y-97508142D01*
X239272209Y-97508142D02*
X239272209Y-97317666D01*
X239272209Y-97317666D02*
X239296019Y-97270047D01*
X239296019Y-97270047D02*
X239319828Y-97246237D01*
X239319828Y-97246237D02*
X239367447Y-97222428D01*
X239367447Y-97222428D02*
X239438876Y-97222428D01*
X239438876Y-97222428D02*
X239486495Y-97246237D01*
X239486495Y-97246237D02*
X239510304Y-97270047D01*
X239510304Y-97270047D02*
X239534114Y-97317666D01*
X239534114Y-97317666D02*
X239534114Y-97508142D01*
X239272209Y-97055761D02*
X239272209Y-96746237D01*
X239272209Y-96746237D02*
X239462685Y-96912904D01*
X239462685Y-96912904D02*
X239462685Y-96841475D01*
X239462685Y-96841475D02*
X239486495Y-96793856D01*
X239486495Y-96793856D02*
X239510304Y-96770047D01*
X239510304Y-96770047D02*
X239557923Y-96746237D01*
X239557923Y-96746237D02*
X239676971Y-96746237D01*
X239676971Y-96746237D02*
X239724590Y-96770047D01*
X239724590Y-96770047D02*
X239748400Y-96793856D01*
X239748400Y-96793856D02*
X239772209Y-96841475D01*
X239772209Y-96841475D02*
X239772209Y-96984332D01*
X239772209Y-96984332D02*
X239748400Y-97031951D01*
X239748400Y-97031951D02*
X239724590Y-97055761D01*
X239486495Y-96460523D02*
X239462685Y-96508142D01*
X239462685Y-96508142D02*
X239438876Y-96531952D01*
X239438876Y-96531952D02*
X239391257Y-96555761D01*
X239391257Y-96555761D02*
X239367447Y-96555761D01*
X239367447Y-96555761D02*
X239319828Y-96531952D01*
X239319828Y-96531952D02*
X239296019Y-96508142D01*
X239296019Y-96508142D02*
X239272209Y-96460523D01*
X239272209Y-96460523D02*
X239272209Y-96365285D01*
X239272209Y-96365285D02*
X239296019Y-96317666D01*
X239296019Y-96317666D02*
X239319828Y-96293857D01*
X239319828Y-96293857D02*
X239367447Y-96270047D01*
X239367447Y-96270047D02*
X239391257Y-96270047D01*
X239391257Y-96270047D02*
X239438876Y-96293857D01*
X239438876Y-96293857D02*
X239462685Y-96317666D01*
X239462685Y-96317666D02*
X239486495Y-96365285D01*
X239486495Y-96365285D02*
X239486495Y-96460523D01*
X239486495Y-96460523D02*
X239510304Y-96508142D01*
X239510304Y-96508142D02*
X239534114Y-96531952D01*
X239534114Y-96531952D02*
X239581733Y-96555761D01*
X239581733Y-96555761D02*
X239676971Y-96555761D01*
X239676971Y-96555761D02*
X239724590Y-96531952D01*
X239724590Y-96531952D02*
X239748400Y-96508142D01*
X239748400Y-96508142D02*
X239772209Y-96460523D01*
X239772209Y-96460523D02*
X239772209Y-96365285D01*
X239772209Y-96365285D02*
X239748400Y-96317666D01*
X239748400Y-96317666D02*
X239724590Y-96293857D01*
X239724590Y-96293857D02*
X239676971Y-96270047D01*
X239676971Y-96270047D02*
X239581733Y-96270047D01*
X239581733Y-96270047D02*
X239534114Y-96293857D01*
X239534114Y-96293857D02*
X239510304Y-96317666D01*
X239510304Y-96317666D02*
X239486495Y-96365285D01*
X251122009Y-131941866D02*
X251479152Y-131941866D01*
X251479152Y-131941866D02*
X251550580Y-131965675D01*
X251550580Y-131965675D02*
X251598200Y-132013294D01*
X251598200Y-132013294D02*
X251622009Y-132084723D01*
X251622009Y-132084723D02*
X251622009Y-132132342D01*
X251336295Y-131632342D02*
X251312485Y-131679961D01*
X251312485Y-131679961D02*
X251288676Y-131703771D01*
X251288676Y-131703771D02*
X251241057Y-131727580D01*
X251241057Y-131727580D02*
X251217247Y-131727580D01*
X251217247Y-131727580D02*
X251169628Y-131703771D01*
X251169628Y-131703771D02*
X251145819Y-131679961D01*
X251145819Y-131679961D02*
X251122009Y-131632342D01*
X251122009Y-131632342D02*
X251122009Y-131537104D01*
X251122009Y-131537104D02*
X251145819Y-131489485D01*
X251145819Y-131489485D02*
X251169628Y-131465676D01*
X251169628Y-131465676D02*
X251217247Y-131441866D01*
X251217247Y-131441866D02*
X251241057Y-131441866D01*
X251241057Y-131441866D02*
X251288676Y-131465676D01*
X251288676Y-131465676D02*
X251312485Y-131489485D01*
X251312485Y-131489485D02*
X251336295Y-131537104D01*
X251336295Y-131537104D02*
X251336295Y-131632342D01*
X251336295Y-131632342D02*
X251360104Y-131679961D01*
X251360104Y-131679961D02*
X251383914Y-131703771D01*
X251383914Y-131703771D02*
X251431533Y-131727580D01*
X251431533Y-131727580D02*
X251526771Y-131727580D01*
X251526771Y-131727580D02*
X251574390Y-131703771D01*
X251574390Y-131703771D02*
X251598200Y-131679961D01*
X251598200Y-131679961D02*
X251622009Y-131632342D01*
X251622009Y-131632342D02*
X251622009Y-131537104D01*
X251622009Y-131537104D02*
X251598200Y-131489485D01*
X251598200Y-131489485D02*
X251574390Y-131465676D01*
X251574390Y-131465676D02*
X251526771Y-131441866D01*
X251526771Y-131441866D02*
X251431533Y-131441866D01*
X251431533Y-131441866D02*
X251383914Y-131465676D01*
X251383914Y-131465676D02*
X251360104Y-131489485D01*
X251360104Y-131489485D02*
X251336295Y-131537104D01*
X229608866Y-124888009D02*
X229370771Y-124888009D01*
X229370771Y-124888009D02*
X229370771Y-124388009D01*
X230013628Y-124388009D02*
X229775533Y-124388009D01*
X229775533Y-124388009D02*
X229751724Y-124626104D01*
X229751724Y-124626104D02*
X229775533Y-124602295D01*
X229775533Y-124602295D02*
X229823152Y-124578485D01*
X229823152Y-124578485D02*
X229942200Y-124578485D01*
X229942200Y-124578485D02*
X229989819Y-124602295D01*
X229989819Y-124602295D02*
X230013628Y-124626104D01*
X230013628Y-124626104D02*
X230037438Y-124673723D01*
X230037438Y-124673723D02*
X230037438Y-124792771D01*
X230037438Y-124792771D02*
X230013628Y-124840390D01*
X230013628Y-124840390D02*
X229989819Y-124864200D01*
X229989819Y-124864200D02*
X229942200Y-124888009D01*
X229942200Y-124888009D02*
X229823152Y-124888009D01*
X229823152Y-124888009D02*
X229775533Y-124864200D01*
X229775533Y-124864200D02*
X229751724Y-124840390D01*
X187665249Y-118171227D02*
X188069456Y-118192411D01*
X188069456Y-118192411D02*
X188118256Y-118171126D01*
X188118256Y-118171126D02*
X188143279Y-118148596D01*
X188143279Y-118148596D02*
X188169548Y-118102288D01*
X188169548Y-118102288D02*
X188174532Y-118007180D01*
X188174532Y-118007180D02*
X188153247Y-117958380D01*
X188153247Y-117958380D02*
X188130717Y-117933357D01*
X188130717Y-117933357D02*
X188084409Y-117907088D01*
X188084409Y-117907088D02*
X187680202Y-117885905D01*
X187690171Y-117695689D02*
X187706370Y-117386589D01*
X187706370Y-117386589D02*
X187887862Y-117562996D01*
X187887862Y-117562996D02*
X187891601Y-117491666D01*
X187891601Y-117491666D02*
X187917870Y-117445358D01*
X187917870Y-117445358D02*
X187942893Y-117422827D01*
X187942893Y-117422827D02*
X187991693Y-117401543D01*
X187991693Y-117401543D02*
X188110577Y-117407773D01*
X188110577Y-117407773D02*
X188156885Y-117434042D01*
X188156885Y-117434042D02*
X188179415Y-117459065D01*
X188179415Y-117459065D02*
X188200700Y-117507865D01*
X188200700Y-117507865D02*
X188193224Y-117650526D01*
X188193224Y-117650526D02*
X188166955Y-117696834D01*
X188166955Y-117696834D02*
X188141932Y-117719365D01*
X216781866Y-106752409D02*
X216615200Y-106514314D01*
X216496152Y-106752409D02*
X216496152Y-106252409D01*
X216496152Y-106252409D02*
X216686628Y-106252409D01*
X216686628Y-106252409D02*
X216734247Y-106276219D01*
X216734247Y-106276219D02*
X216758057Y-106300028D01*
X216758057Y-106300028D02*
X216781866Y-106347647D01*
X216781866Y-106347647D02*
X216781866Y-106419076D01*
X216781866Y-106419076D02*
X216758057Y-106466695D01*
X216758057Y-106466695D02*
X216734247Y-106490504D01*
X216734247Y-106490504D02*
X216686628Y-106514314D01*
X216686628Y-106514314D02*
X216496152Y-106514314D01*
X217210438Y-106252409D02*
X217115200Y-106252409D01*
X217115200Y-106252409D02*
X217067581Y-106276219D01*
X217067581Y-106276219D02*
X217043771Y-106300028D01*
X217043771Y-106300028D02*
X216996152Y-106371457D01*
X216996152Y-106371457D02*
X216972343Y-106466695D01*
X216972343Y-106466695D02*
X216972343Y-106657171D01*
X216972343Y-106657171D02*
X216996152Y-106704790D01*
X216996152Y-106704790D02*
X217019962Y-106728600D01*
X217019962Y-106728600D02*
X217067581Y-106752409D01*
X217067581Y-106752409D02*
X217162819Y-106752409D01*
X217162819Y-106752409D02*
X217210438Y-106728600D01*
X217210438Y-106728600D02*
X217234247Y-106704790D01*
X217234247Y-106704790D02*
X217258057Y-106657171D01*
X217258057Y-106657171D02*
X217258057Y-106538123D01*
X217258057Y-106538123D02*
X217234247Y-106490504D01*
X217234247Y-106490504D02*
X217210438Y-106466695D01*
X217210438Y-106466695D02*
X217162819Y-106442885D01*
X217162819Y-106442885D02*
X217067581Y-106442885D01*
X217067581Y-106442885D02*
X217019962Y-106466695D01*
X217019962Y-106466695D02*
X216996152Y-106490504D01*
X216996152Y-106490504D02*
X216972343Y-106538123D01*
X235812990Y-105096428D02*
X235836800Y-105120237D01*
X235836800Y-105120237D02*
X235860609Y-105191666D01*
X235860609Y-105191666D02*
X235860609Y-105239285D01*
X235860609Y-105239285D02*
X235836800Y-105310713D01*
X235836800Y-105310713D02*
X235789180Y-105358332D01*
X235789180Y-105358332D02*
X235741561Y-105382142D01*
X235741561Y-105382142D02*
X235646323Y-105405951D01*
X235646323Y-105405951D02*
X235574895Y-105405951D01*
X235574895Y-105405951D02*
X235479657Y-105382142D01*
X235479657Y-105382142D02*
X235432038Y-105358332D01*
X235432038Y-105358332D02*
X235384419Y-105310713D01*
X235384419Y-105310713D02*
X235360609Y-105239285D01*
X235360609Y-105239285D02*
X235360609Y-105191666D01*
X235360609Y-105191666D02*
X235384419Y-105120237D01*
X235384419Y-105120237D02*
X235408228Y-105096428D01*
X235860609Y-104620237D02*
X235860609Y-104905951D01*
X235860609Y-104763094D02*
X235360609Y-104763094D01*
X235360609Y-104763094D02*
X235432038Y-104810713D01*
X235432038Y-104810713D02*
X235479657Y-104858332D01*
X235479657Y-104858332D02*
X235503466Y-104905951D01*
X235360609Y-104167857D02*
X235360609Y-104405952D01*
X235360609Y-104405952D02*
X235598704Y-104429761D01*
X235598704Y-104429761D02*
X235574895Y-104405952D01*
X235574895Y-104405952D02*
X235551085Y-104358333D01*
X235551085Y-104358333D02*
X235551085Y-104239285D01*
X235551085Y-104239285D02*
X235574895Y-104191666D01*
X235574895Y-104191666D02*
X235598704Y-104167857D01*
X235598704Y-104167857D02*
X235646323Y-104144047D01*
X235646323Y-104144047D02*
X235765371Y-104144047D01*
X235765371Y-104144047D02*
X235812990Y-104167857D01*
X235812990Y-104167857D02*
X235836800Y-104191666D01*
X235836800Y-104191666D02*
X235860609Y-104239285D01*
X235860609Y-104239285D02*
X235860609Y-104358333D01*
X235860609Y-104358333D02*
X235836800Y-104405952D01*
X235836800Y-104405952D02*
X235812990Y-104429761D01*
X228621609Y-105680628D02*
X228383514Y-105847294D01*
X228621609Y-105966342D02*
X228121609Y-105966342D01*
X228121609Y-105966342D02*
X228121609Y-105775866D01*
X228121609Y-105775866D02*
X228145419Y-105728247D01*
X228145419Y-105728247D02*
X228169228Y-105704437D01*
X228169228Y-105704437D02*
X228216847Y-105680628D01*
X228216847Y-105680628D02*
X228288276Y-105680628D01*
X228288276Y-105680628D02*
X228335895Y-105704437D01*
X228335895Y-105704437D02*
X228359704Y-105728247D01*
X228359704Y-105728247D02*
X228383514Y-105775866D01*
X228383514Y-105775866D02*
X228383514Y-105966342D01*
X228621609Y-105204437D02*
X228621609Y-105490151D01*
X228621609Y-105347294D02*
X228121609Y-105347294D01*
X228121609Y-105347294D02*
X228193038Y-105394913D01*
X228193038Y-105394913D02*
X228240657Y-105442532D01*
X228240657Y-105442532D02*
X228264466Y-105490151D01*
X228169228Y-105013961D02*
X228145419Y-104990152D01*
X228145419Y-104990152D02*
X228121609Y-104942533D01*
X228121609Y-104942533D02*
X228121609Y-104823485D01*
X228121609Y-104823485D02*
X228145419Y-104775866D01*
X228145419Y-104775866D02*
X228169228Y-104752057D01*
X228169228Y-104752057D02*
X228216847Y-104728247D01*
X228216847Y-104728247D02*
X228264466Y-104728247D01*
X228264466Y-104728247D02*
X228335895Y-104752057D01*
X228335895Y-104752057D02*
X228621609Y-105037771D01*
X228621609Y-105037771D02*
X228621609Y-104728247D01*
X199888552Y-117784009D02*
X199888552Y-118188771D01*
X199888552Y-118188771D02*
X199912362Y-118236390D01*
X199912362Y-118236390D02*
X199936171Y-118260200D01*
X199936171Y-118260200D02*
X199983790Y-118284009D01*
X199983790Y-118284009D02*
X200079028Y-118284009D01*
X200079028Y-118284009D02*
X200126647Y-118260200D01*
X200126647Y-118260200D02*
X200150457Y-118236390D01*
X200150457Y-118236390D02*
X200174266Y-118188771D01*
X200174266Y-118188771D02*
X200174266Y-117784009D01*
X200674267Y-118284009D02*
X200388553Y-118284009D01*
X200531410Y-118284009D02*
X200531410Y-117784009D01*
X200531410Y-117784009D02*
X200483791Y-117855438D01*
X200483791Y-117855438D02*
X200436172Y-117903057D01*
X200436172Y-117903057D02*
X200388553Y-117926866D01*
X200983790Y-117784009D02*
X201031409Y-117784009D01*
X201031409Y-117784009D02*
X201079028Y-117807819D01*
X201079028Y-117807819D02*
X201102838Y-117831628D01*
X201102838Y-117831628D02*
X201126647Y-117879247D01*
X201126647Y-117879247D02*
X201150457Y-117974485D01*
X201150457Y-117974485D02*
X201150457Y-118093533D01*
X201150457Y-118093533D02*
X201126647Y-118188771D01*
X201126647Y-118188771D02*
X201102838Y-118236390D01*
X201102838Y-118236390D02*
X201079028Y-118260200D01*
X201079028Y-118260200D02*
X201031409Y-118284009D01*
X201031409Y-118284009D02*
X200983790Y-118284009D01*
X200983790Y-118284009D02*
X200936171Y-118260200D01*
X200936171Y-118260200D02*
X200912362Y-118236390D01*
X200912362Y-118236390D02*
X200888552Y-118188771D01*
X200888552Y-118188771D02*
X200864743Y-118093533D01*
X200864743Y-118093533D02*
X200864743Y-117974485D01*
X200864743Y-117974485D02*
X200888552Y-117879247D01*
X200888552Y-117879247D02*
X200912362Y-117831628D01*
X200912362Y-117831628D02*
X200936171Y-117807819D01*
X200936171Y-117807819D02*
X200983790Y-117784009D01*
X215467590Y-98619428D02*
X215491400Y-98643237D01*
X215491400Y-98643237D02*
X215515209Y-98714666D01*
X215515209Y-98714666D02*
X215515209Y-98762285D01*
X215515209Y-98762285D02*
X215491400Y-98833713D01*
X215491400Y-98833713D02*
X215443780Y-98881332D01*
X215443780Y-98881332D02*
X215396161Y-98905142D01*
X215396161Y-98905142D02*
X215300923Y-98928951D01*
X215300923Y-98928951D02*
X215229495Y-98928951D01*
X215229495Y-98928951D02*
X215134257Y-98905142D01*
X215134257Y-98905142D02*
X215086638Y-98881332D01*
X215086638Y-98881332D02*
X215039019Y-98833713D01*
X215039019Y-98833713D02*
X215015209Y-98762285D01*
X215015209Y-98762285D02*
X215015209Y-98714666D01*
X215015209Y-98714666D02*
X215039019Y-98643237D01*
X215039019Y-98643237D02*
X215062828Y-98619428D01*
X215062828Y-98428951D02*
X215039019Y-98405142D01*
X215039019Y-98405142D02*
X215015209Y-98357523D01*
X215015209Y-98357523D02*
X215015209Y-98238475D01*
X215015209Y-98238475D02*
X215039019Y-98190856D01*
X215039019Y-98190856D02*
X215062828Y-98167047D01*
X215062828Y-98167047D02*
X215110447Y-98143237D01*
X215110447Y-98143237D02*
X215158066Y-98143237D01*
X215158066Y-98143237D02*
X215229495Y-98167047D01*
X215229495Y-98167047D02*
X215515209Y-98452761D01*
X215515209Y-98452761D02*
X215515209Y-98143237D01*
X215062828Y-97952761D02*
X215039019Y-97928952D01*
X215039019Y-97928952D02*
X215015209Y-97881333D01*
X215015209Y-97881333D02*
X215015209Y-97762285D01*
X215015209Y-97762285D02*
X215039019Y-97714666D01*
X215039019Y-97714666D02*
X215062828Y-97690857D01*
X215062828Y-97690857D02*
X215110447Y-97667047D01*
X215110447Y-97667047D02*
X215158066Y-97667047D01*
X215158066Y-97667047D02*
X215229495Y-97690857D01*
X215229495Y-97690857D02*
X215515209Y-97976571D01*
X215515209Y-97976571D02*
X215515209Y-97667047D01*
X200313171Y-112292790D02*
X200289362Y-112316600D01*
X200289362Y-112316600D02*
X200217933Y-112340409D01*
X200217933Y-112340409D02*
X200170314Y-112340409D01*
X200170314Y-112340409D02*
X200098886Y-112316600D01*
X200098886Y-112316600D02*
X200051267Y-112268980D01*
X200051267Y-112268980D02*
X200027457Y-112221361D01*
X200027457Y-112221361D02*
X200003648Y-112126123D01*
X200003648Y-112126123D02*
X200003648Y-112054695D01*
X200003648Y-112054695D02*
X200027457Y-111959457D01*
X200027457Y-111959457D02*
X200051267Y-111911838D01*
X200051267Y-111911838D02*
X200098886Y-111864219D01*
X200098886Y-111864219D02*
X200170314Y-111840409D01*
X200170314Y-111840409D02*
X200217933Y-111840409D01*
X200217933Y-111840409D02*
X200289362Y-111864219D01*
X200289362Y-111864219D02*
X200313171Y-111888028D01*
X200789362Y-112340409D02*
X200503648Y-112340409D01*
X200646505Y-112340409D02*
X200646505Y-111840409D01*
X200646505Y-111840409D02*
X200598886Y-111911838D01*
X200598886Y-111911838D02*
X200551267Y-111959457D01*
X200551267Y-111959457D02*
X200503648Y-111983266D01*
X200979838Y-111888028D02*
X201003647Y-111864219D01*
X201003647Y-111864219D02*
X201051266Y-111840409D01*
X201051266Y-111840409D02*
X201170314Y-111840409D01*
X201170314Y-111840409D02*
X201217933Y-111864219D01*
X201217933Y-111864219D02*
X201241742Y-111888028D01*
X201241742Y-111888028D02*
X201265552Y-111935647D01*
X201265552Y-111935647D02*
X201265552Y-111983266D01*
X201265552Y-111983266D02*
X201241742Y-112054695D01*
X201241742Y-112054695D02*
X200956028Y-112340409D01*
X200956028Y-112340409D02*
X201265552Y-112340409D01*
X216525552Y-94035009D02*
X216525552Y-94439771D01*
X216525552Y-94439771D02*
X216549362Y-94487390D01*
X216549362Y-94487390D02*
X216573171Y-94511200D01*
X216573171Y-94511200D02*
X216620790Y-94535009D01*
X216620790Y-94535009D02*
X216716028Y-94535009D01*
X216716028Y-94535009D02*
X216763647Y-94511200D01*
X216763647Y-94511200D02*
X216787457Y-94487390D01*
X216787457Y-94487390D02*
X216811266Y-94439771D01*
X216811266Y-94439771D02*
X216811266Y-94035009D01*
X217311267Y-94535009D02*
X217025553Y-94535009D01*
X217168410Y-94535009D02*
X217168410Y-94035009D01*
X217168410Y-94035009D02*
X217120791Y-94106438D01*
X217120791Y-94106438D02*
X217073172Y-94154057D01*
X217073172Y-94154057D02*
X217025553Y-94177866D01*
X217477933Y-94035009D02*
X217787457Y-94035009D01*
X217787457Y-94035009D02*
X217620790Y-94225485D01*
X217620790Y-94225485D02*
X217692219Y-94225485D01*
X217692219Y-94225485D02*
X217739838Y-94249295D01*
X217739838Y-94249295D02*
X217763647Y-94273104D01*
X217763647Y-94273104D02*
X217787457Y-94320723D01*
X217787457Y-94320723D02*
X217787457Y-94439771D01*
X217787457Y-94439771D02*
X217763647Y-94487390D01*
X217763647Y-94487390D02*
X217739838Y-94511200D01*
X217739838Y-94511200D02*
X217692219Y-94535009D01*
X217692219Y-94535009D02*
X217549362Y-94535009D01*
X217549362Y-94535009D02*
X217501743Y-94511200D01*
X217501743Y-94511200D02*
X217477933Y-94487390D01*
X209502380Y-127374028D02*
X209454761Y-127350219D01*
X209454761Y-127350219D02*
X209407142Y-127302600D01*
X209407142Y-127302600D02*
X209335714Y-127231171D01*
X209335714Y-127231171D02*
X209288095Y-127207361D01*
X209288095Y-127207361D02*
X209240476Y-127207361D01*
X209264285Y-127326409D02*
X209216666Y-127302600D01*
X209216666Y-127302600D02*
X209169047Y-127254980D01*
X209169047Y-127254980D02*
X209145238Y-127159742D01*
X209145238Y-127159742D02*
X209145238Y-126993076D01*
X209145238Y-126993076D02*
X209169047Y-126897838D01*
X209169047Y-126897838D02*
X209216666Y-126850219D01*
X209216666Y-126850219D02*
X209264285Y-126826409D01*
X209264285Y-126826409D02*
X209359523Y-126826409D01*
X209359523Y-126826409D02*
X209407142Y-126850219D01*
X209407142Y-126850219D02*
X209454761Y-126897838D01*
X209454761Y-126897838D02*
X209478571Y-126993076D01*
X209478571Y-126993076D02*
X209478571Y-127159742D01*
X209478571Y-127159742D02*
X209454761Y-127254980D01*
X209454761Y-127254980D02*
X209407142Y-127302600D01*
X209407142Y-127302600D02*
X209359523Y-127326409D01*
X209359523Y-127326409D02*
X209264285Y-127326409D01*
X209954762Y-127326409D02*
X209669048Y-127326409D01*
X209811905Y-127326409D02*
X209811905Y-126826409D01*
X209811905Y-126826409D02*
X209764286Y-126897838D01*
X209764286Y-126897838D02*
X209716667Y-126945457D01*
X209716667Y-126945457D02*
X209669048Y-126969266D01*
X214028571Y-108527190D02*
X214004762Y-108551000D01*
X214004762Y-108551000D02*
X213933333Y-108574809D01*
X213933333Y-108574809D02*
X213885714Y-108574809D01*
X213885714Y-108574809D02*
X213814286Y-108551000D01*
X213814286Y-108551000D02*
X213766667Y-108503380D01*
X213766667Y-108503380D02*
X213742857Y-108455761D01*
X213742857Y-108455761D02*
X213719048Y-108360523D01*
X213719048Y-108360523D02*
X213719048Y-108289095D01*
X213719048Y-108289095D02*
X213742857Y-108193857D01*
X213742857Y-108193857D02*
X213766667Y-108146238D01*
X213766667Y-108146238D02*
X213814286Y-108098619D01*
X213814286Y-108098619D02*
X213885714Y-108074809D01*
X213885714Y-108074809D02*
X213933333Y-108074809D01*
X213933333Y-108074809D02*
X214004762Y-108098619D01*
X214004762Y-108098619D02*
X214028571Y-108122428D01*
X214504762Y-108574809D02*
X214219048Y-108574809D01*
X214361905Y-108574809D02*
X214361905Y-108074809D01*
X214361905Y-108074809D02*
X214314286Y-108146238D01*
X214314286Y-108146238D02*
X214266667Y-108193857D01*
X214266667Y-108193857D02*
X214219048Y-108217666D01*
X214980952Y-108574809D02*
X214695238Y-108574809D01*
X214838095Y-108574809D02*
X214838095Y-108074809D01*
X214838095Y-108074809D02*
X214790476Y-108146238D01*
X214790476Y-108146238D02*
X214742857Y-108193857D01*
X214742857Y-108193857D02*
X214695238Y-108217666D01*
X234036209Y-97554266D02*
X234012400Y-97530457D01*
X234012400Y-97530457D02*
X233988590Y-97459028D01*
X233988590Y-97459028D02*
X233988590Y-97411409D01*
X233988590Y-97411409D02*
X234012400Y-97339981D01*
X234012400Y-97339981D02*
X234060019Y-97292362D01*
X234060019Y-97292362D02*
X234107638Y-97268552D01*
X234107638Y-97268552D02*
X234202876Y-97244743D01*
X234202876Y-97244743D02*
X234274304Y-97244743D01*
X234274304Y-97244743D02*
X234369542Y-97268552D01*
X234369542Y-97268552D02*
X234417161Y-97292362D01*
X234417161Y-97292362D02*
X234464780Y-97339981D01*
X234464780Y-97339981D02*
X234488590Y-97411409D01*
X234488590Y-97411409D02*
X234488590Y-97459028D01*
X234488590Y-97459028D02*
X234464780Y-97530457D01*
X234464780Y-97530457D02*
X234440971Y-97554266D01*
X234488590Y-97720933D02*
X234488590Y-98030457D01*
X234488590Y-98030457D02*
X234298114Y-97863790D01*
X234298114Y-97863790D02*
X234298114Y-97935219D01*
X234298114Y-97935219D02*
X234274304Y-97982838D01*
X234274304Y-97982838D02*
X234250495Y-98006647D01*
X234250495Y-98006647D02*
X234202876Y-98030457D01*
X234202876Y-98030457D02*
X234083828Y-98030457D01*
X234083828Y-98030457D02*
X234036209Y-98006647D01*
X234036209Y-98006647D02*
X234012400Y-97982838D01*
X234012400Y-97982838D02*
X233988590Y-97935219D01*
X233988590Y-97935219D02*
X233988590Y-97792362D01*
X233988590Y-97792362D02*
X234012400Y-97744743D01*
X234012400Y-97744743D02*
X234036209Y-97720933D01*
X212794809Y-88111428D02*
X212556714Y-88278094D01*
X212794809Y-88397142D02*
X212294809Y-88397142D01*
X212294809Y-88397142D02*
X212294809Y-88206666D01*
X212294809Y-88206666D02*
X212318619Y-88159047D01*
X212318619Y-88159047D02*
X212342428Y-88135237D01*
X212342428Y-88135237D02*
X212390047Y-88111428D01*
X212390047Y-88111428D02*
X212461476Y-88111428D01*
X212461476Y-88111428D02*
X212509095Y-88135237D01*
X212509095Y-88135237D02*
X212532904Y-88159047D01*
X212532904Y-88159047D02*
X212556714Y-88206666D01*
X212556714Y-88206666D02*
X212556714Y-88397142D01*
X212342428Y-87920951D02*
X212318619Y-87897142D01*
X212318619Y-87897142D02*
X212294809Y-87849523D01*
X212294809Y-87849523D02*
X212294809Y-87730475D01*
X212294809Y-87730475D02*
X212318619Y-87682856D01*
X212318619Y-87682856D02*
X212342428Y-87659047D01*
X212342428Y-87659047D02*
X212390047Y-87635237D01*
X212390047Y-87635237D02*
X212437666Y-87635237D01*
X212437666Y-87635237D02*
X212509095Y-87659047D01*
X212509095Y-87659047D02*
X212794809Y-87944761D01*
X212794809Y-87944761D02*
X212794809Y-87635237D01*
X212794809Y-87159047D02*
X212794809Y-87444761D01*
X212794809Y-87301904D02*
X212294809Y-87301904D01*
X212294809Y-87301904D02*
X212366238Y-87349523D01*
X212366238Y-87349523D02*
X212413857Y-87397142D01*
X212413857Y-87397142D02*
X212437666Y-87444761D01*
X212982790Y-105011266D02*
X213220885Y-104844600D01*
X212982790Y-104725552D02*
X213482790Y-104725552D01*
X213482790Y-104725552D02*
X213482790Y-104916028D01*
X213482790Y-104916028D02*
X213458980Y-104963647D01*
X213458980Y-104963647D02*
X213435171Y-104987457D01*
X213435171Y-104987457D02*
X213387552Y-105011266D01*
X213387552Y-105011266D02*
X213316123Y-105011266D01*
X213316123Y-105011266D02*
X213268504Y-104987457D01*
X213268504Y-104987457D02*
X213244695Y-104963647D01*
X213244695Y-104963647D02*
X213220885Y-104916028D01*
X213220885Y-104916028D02*
X213220885Y-104725552D01*
X212982790Y-105249362D02*
X212982790Y-105344600D01*
X212982790Y-105344600D02*
X213006600Y-105392219D01*
X213006600Y-105392219D02*
X213030409Y-105416028D01*
X213030409Y-105416028D02*
X213101838Y-105463647D01*
X213101838Y-105463647D02*
X213197076Y-105487457D01*
X213197076Y-105487457D02*
X213387552Y-105487457D01*
X213387552Y-105487457D02*
X213435171Y-105463647D01*
X213435171Y-105463647D02*
X213458980Y-105439838D01*
X213458980Y-105439838D02*
X213482790Y-105392219D01*
X213482790Y-105392219D02*
X213482790Y-105296981D01*
X213482790Y-105296981D02*
X213458980Y-105249362D01*
X213458980Y-105249362D02*
X213435171Y-105225552D01*
X213435171Y-105225552D02*
X213387552Y-105201743D01*
X213387552Y-105201743D02*
X213268504Y-105201743D01*
X213268504Y-105201743D02*
X213220885Y-105225552D01*
X213220885Y-105225552D02*
X213197076Y-105249362D01*
X213197076Y-105249362D02*
X213173266Y-105296981D01*
X213173266Y-105296981D02*
X213173266Y-105392219D01*
X213173266Y-105392219D02*
X213197076Y-105439838D01*
X213197076Y-105439838D02*
X213220885Y-105463647D01*
X213220885Y-105463647D02*
X213268504Y-105487457D01*
X267153409Y-126483228D02*
X266915314Y-126649894D01*
X267153409Y-126768942D02*
X266653409Y-126768942D01*
X266653409Y-126768942D02*
X266653409Y-126578466D01*
X266653409Y-126578466D02*
X266677219Y-126530847D01*
X266677219Y-126530847D02*
X266701028Y-126507037D01*
X266701028Y-126507037D02*
X266748647Y-126483228D01*
X266748647Y-126483228D02*
X266820076Y-126483228D01*
X266820076Y-126483228D02*
X266867695Y-126507037D01*
X266867695Y-126507037D02*
X266891504Y-126530847D01*
X266891504Y-126530847D02*
X266915314Y-126578466D01*
X266915314Y-126578466D02*
X266915314Y-126768942D01*
X266653409Y-126316561D02*
X266653409Y-126007037D01*
X266653409Y-126007037D02*
X266843885Y-126173704D01*
X266843885Y-126173704D02*
X266843885Y-126102275D01*
X266843885Y-126102275D02*
X266867695Y-126054656D01*
X266867695Y-126054656D02*
X266891504Y-126030847D01*
X266891504Y-126030847D02*
X266939123Y-126007037D01*
X266939123Y-126007037D02*
X267058171Y-126007037D01*
X267058171Y-126007037D02*
X267105790Y-126030847D01*
X267105790Y-126030847D02*
X267129600Y-126054656D01*
X267129600Y-126054656D02*
X267153409Y-126102275D01*
X267153409Y-126102275D02*
X267153409Y-126245132D01*
X267153409Y-126245132D02*
X267129600Y-126292751D01*
X267129600Y-126292751D02*
X267105790Y-126316561D01*
X266820076Y-125578466D02*
X267153409Y-125578466D01*
X266629600Y-125697514D02*
X266986742Y-125816561D01*
X266986742Y-125816561D02*
X266986742Y-125507038D01*
X231108511Y-116961713D02*
X230941845Y-116723618D01*
X230822797Y-116961713D02*
X230822797Y-116461713D01*
X230822797Y-116461713D02*
X231013273Y-116461713D01*
X231013273Y-116461713D02*
X231060892Y-116485523D01*
X231060892Y-116485523D02*
X231084702Y-116509332D01*
X231084702Y-116509332D02*
X231108511Y-116556951D01*
X231108511Y-116556951D02*
X231108511Y-116628380D01*
X231108511Y-116628380D02*
X231084702Y-116675999D01*
X231084702Y-116675999D02*
X231060892Y-116699808D01*
X231060892Y-116699808D02*
X231013273Y-116723618D01*
X231013273Y-116723618D02*
X230822797Y-116723618D01*
X231275178Y-116461713D02*
X231584702Y-116461713D01*
X231584702Y-116461713D02*
X231418035Y-116652189D01*
X231418035Y-116652189D02*
X231489464Y-116652189D01*
X231489464Y-116652189D02*
X231537083Y-116675999D01*
X231537083Y-116675999D02*
X231560892Y-116699808D01*
X231560892Y-116699808D02*
X231584702Y-116747427D01*
X231584702Y-116747427D02*
X231584702Y-116866475D01*
X231584702Y-116866475D02*
X231560892Y-116914094D01*
X231560892Y-116914094D02*
X231537083Y-116937904D01*
X231537083Y-116937904D02*
X231489464Y-116961713D01*
X231489464Y-116961713D02*
X231346607Y-116961713D01*
X231346607Y-116961713D02*
X231298988Y-116937904D01*
X231298988Y-116937904D02*
X231275178Y-116914094D01*
X168840415Y-112132540D02*
X168602646Y-112120079D01*
X168602646Y-112120079D02*
X168628814Y-111620764D01*
X169006752Y-111688255D02*
X169031775Y-111665724D01*
X169031775Y-111665724D02*
X169080575Y-111644440D01*
X169080575Y-111644440D02*
X169199460Y-111650670D01*
X169199460Y-111650670D02*
X169245767Y-111676939D01*
X169245767Y-111676939D02*
X169268298Y-111701962D01*
X169268298Y-111701962D02*
X169289583Y-111750762D01*
X169289583Y-111750762D02*
X169287091Y-111798316D01*
X169287091Y-111798316D02*
X169259575Y-111868400D01*
X169259575Y-111868400D02*
X168959300Y-112138770D01*
X168959300Y-112138770D02*
X169268399Y-112154969D01*
X205393171Y-131695209D02*
X205226505Y-131457114D01*
X205107457Y-131695209D02*
X205107457Y-131195209D01*
X205107457Y-131195209D02*
X205297933Y-131195209D01*
X205297933Y-131195209D02*
X205345552Y-131219019D01*
X205345552Y-131219019D02*
X205369362Y-131242828D01*
X205369362Y-131242828D02*
X205393171Y-131290447D01*
X205393171Y-131290447D02*
X205393171Y-131361876D01*
X205393171Y-131361876D02*
X205369362Y-131409495D01*
X205369362Y-131409495D02*
X205345552Y-131433304D01*
X205345552Y-131433304D02*
X205297933Y-131457114D01*
X205297933Y-131457114D02*
X205107457Y-131457114D01*
X205869362Y-131695209D02*
X205583648Y-131695209D01*
X205726505Y-131695209D02*
X205726505Y-131195209D01*
X205726505Y-131195209D02*
X205678886Y-131266638D01*
X205678886Y-131266638D02*
X205631267Y-131314257D01*
X205631267Y-131314257D02*
X205583648Y-131338066D01*
X206036028Y-131195209D02*
X206369361Y-131195209D01*
X206369361Y-131195209D02*
X206155076Y-131695209D01*
X238222809Y-100041828D02*
X237984714Y-100208494D01*
X238222809Y-100327542D02*
X237722809Y-100327542D01*
X237722809Y-100327542D02*
X237722809Y-100137066D01*
X237722809Y-100137066D02*
X237746619Y-100089447D01*
X237746619Y-100089447D02*
X237770428Y-100065637D01*
X237770428Y-100065637D02*
X237818047Y-100041828D01*
X237818047Y-100041828D02*
X237889476Y-100041828D01*
X237889476Y-100041828D02*
X237937095Y-100065637D01*
X237937095Y-100065637D02*
X237960904Y-100089447D01*
X237960904Y-100089447D02*
X237984714Y-100137066D01*
X237984714Y-100137066D02*
X237984714Y-100327542D01*
X237722809Y-99875161D02*
X237722809Y-99565637D01*
X237722809Y-99565637D02*
X237913285Y-99732304D01*
X237913285Y-99732304D02*
X237913285Y-99660875D01*
X237913285Y-99660875D02*
X237937095Y-99613256D01*
X237937095Y-99613256D02*
X237960904Y-99589447D01*
X237960904Y-99589447D02*
X238008523Y-99565637D01*
X238008523Y-99565637D02*
X238127571Y-99565637D01*
X238127571Y-99565637D02*
X238175190Y-99589447D01*
X238175190Y-99589447D02*
X238199000Y-99613256D01*
X238199000Y-99613256D02*
X238222809Y-99660875D01*
X238222809Y-99660875D02*
X238222809Y-99803732D01*
X238222809Y-99803732D02*
X238199000Y-99851351D01*
X238199000Y-99851351D02*
X238175190Y-99875161D01*
X237722809Y-99398971D02*
X237722809Y-99065638D01*
X237722809Y-99065638D02*
X238222809Y-99279923D01*
X205240771Y-126589809D02*
X205074105Y-126351714D01*
X204955057Y-126589809D02*
X204955057Y-126089809D01*
X204955057Y-126089809D02*
X205145533Y-126089809D01*
X205145533Y-126089809D02*
X205193152Y-126113619D01*
X205193152Y-126113619D02*
X205216962Y-126137428D01*
X205216962Y-126137428D02*
X205240771Y-126185047D01*
X205240771Y-126185047D02*
X205240771Y-126256476D01*
X205240771Y-126256476D02*
X205216962Y-126304095D01*
X205216962Y-126304095D02*
X205193152Y-126327904D01*
X205193152Y-126327904D02*
X205145533Y-126351714D01*
X205145533Y-126351714D02*
X204955057Y-126351714D01*
X205716962Y-126589809D02*
X205431248Y-126589809D01*
X205574105Y-126589809D02*
X205574105Y-126089809D01*
X205574105Y-126089809D02*
X205526486Y-126161238D01*
X205526486Y-126161238D02*
X205478867Y-126208857D01*
X205478867Y-126208857D02*
X205431248Y-126232666D01*
X206145533Y-126089809D02*
X206050295Y-126089809D01*
X206050295Y-126089809D02*
X206002676Y-126113619D01*
X206002676Y-126113619D02*
X205978866Y-126137428D01*
X205978866Y-126137428D02*
X205931247Y-126208857D01*
X205931247Y-126208857D02*
X205907438Y-126304095D01*
X205907438Y-126304095D02*
X205907438Y-126494571D01*
X205907438Y-126494571D02*
X205931247Y-126542190D01*
X205931247Y-126542190D02*
X205955057Y-126566000D01*
X205955057Y-126566000D02*
X206002676Y-126589809D01*
X206002676Y-126589809D02*
X206097914Y-126589809D01*
X206097914Y-126589809D02*
X206145533Y-126566000D01*
X206145533Y-126566000D02*
X206169342Y-126542190D01*
X206169342Y-126542190D02*
X206193152Y-126494571D01*
X206193152Y-126494571D02*
X206193152Y-126375523D01*
X206193152Y-126375523D02*
X206169342Y-126327904D01*
X206169342Y-126327904D02*
X206145533Y-126304095D01*
X206145533Y-126304095D02*
X206097914Y-126280285D01*
X206097914Y-126280285D02*
X206002676Y-126280285D01*
X206002676Y-126280285D02*
X205955057Y-126304095D01*
X205955057Y-126304095D02*
X205931247Y-126327904D01*
X205931247Y-126327904D02*
X205907438Y-126375523D01*
X176590328Y-115888233D02*
X176660412Y-115915749D01*
X176660412Y-115915749D02*
X176779297Y-115921979D01*
X176779297Y-115921979D02*
X176828097Y-115900694D01*
X176828097Y-115900694D02*
X176853120Y-115878164D01*
X176853120Y-115878164D02*
X176879389Y-115831856D01*
X176879389Y-115831856D02*
X176881881Y-115784302D01*
X176881881Y-115784302D02*
X176860596Y-115735502D01*
X176860596Y-115735502D02*
X176838065Y-115710479D01*
X176838065Y-115710479D02*
X176791758Y-115684210D01*
X176791758Y-115684210D02*
X176697896Y-115655449D01*
X176697896Y-115655449D02*
X176651589Y-115629180D01*
X176651589Y-115629180D02*
X176629058Y-115604157D01*
X176629058Y-115604157D02*
X176607773Y-115555357D01*
X176607773Y-115555357D02*
X176610265Y-115507803D01*
X176610265Y-115507803D02*
X176636534Y-115461495D01*
X176636534Y-115461495D02*
X176661557Y-115438965D01*
X176661557Y-115438965D02*
X176710357Y-115417680D01*
X176710357Y-115417680D02*
X176829242Y-115423910D01*
X176829242Y-115423910D02*
X176899326Y-115451426D01*
X177067010Y-115436371D02*
X177159727Y-115941917D01*
X177159727Y-115941917D02*
X177273526Y-115590248D01*
X177273526Y-115590248D02*
X177349942Y-115951885D01*
X177349942Y-115951885D02*
X177494994Y-115458801D01*
X177899202Y-115479985D02*
X177804094Y-115475000D01*
X177804094Y-115475000D02*
X177755294Y-115496285D01*
X177755294Y-115496285D02*
X177730271Y-115518816D01*
X177730271Y-115518816D02*
X177678979Y-115587654D01*
X177678979Y-115587654D02*
X177650218Y-115681516D01*
X177650218Y-115681516D02*
X177640249Y-115871731D01*
X177640249Y-115871731D02*
X177661534Y-115920531D01*
X177661534Y-115920531D02*
X177684065Y-115945554D01*
X177684065Y-115945554D02*
X177730372Y-115971823D01*
X177730372Y-115971823D02*
X177825480Y-115976807D01*
X177825480Y-115976807D02*
X177874280Y-115955523D01*
X177874280Y-115955523D02*
X177899303Y-115932992D01*
X177899303Y-115932992D02*
X177925572Y-115886684D01*
X177925572Y-115886684D02*
X177931802Y-115767800D01*
X177931802Y-115767800D02*
X177910518Y-115719000D01*
X177910518Y-115719000D02*
X177887987Y-115693977D01*
X177887987Y-115693977D02*
X177841679Y-115667708D01*
X177841679Y-115667708D02*
X177746572Y-115662723D01*
X177746572Y-115662723D02*
X177697772Y-115684008D01*
X177697772Y-115684008D02*
X177672749Y-115706539D01*
X177672749Y-115706539D02*
X177646480Y-115752846D01*
X197239771Y-106616809D02*
X197073105Y-106378714D01*
X196954057Y-106616809D02*
X196954057Y-106116809D01*
X196954057Y-106116809D02*
X197144533Y-106116809D01*
X197144533Y-106116809D02*
X197192152Y-106140619D01*
X197192152Y-106140619D02*
X197215962Y-106164428D01*
X197215962Y-106164428D02*
X197239771Y-106212047D01*
X197239771Y-106212047D02*
X197239771Y-106283476D01*
X197239771Y-106283476D02*
X197215962Y-106331095D01*
X197215962Y-106331095D02*
X197192152Y-106354904D01*
X197192152Y-106354904D02*
X197144533Y-106378714D01*
X197144533Y-106378714D02*
X196954057Y-106378714D01*
X197430248Y-106164428D02*
X197454057Y-106140619D01*
X197454057Y-106140619D02*
X197501676Y-106116809D01*
X197501676Y-106116809D02*
X197620724Y-106116809D01*
X197620724Y-106116809D02*
X197668343Y-106140619D01*
X197668343Y-106140619D02*
X197692152Y-106164428D01*
X197692152Y-106164428D02*
X197715962Y-106212047D01*
X197715962Y-106212047D02*
X197715962Y-106259666D01*
X197715962Y-106259666D02*
X197692152Y-106331095D01*
X197692152Y-106331095D02*
X197406438Y-106616809D01*
X197406438Y-106616809D02*
X197715962Y-106616809D01*
X198025485Y-106116809D02*
X198073104Y-106116809D01*
X198073104Y-106116809D02*
X198120723Y-106140619D01*
X198120723Y-106140619D02*
X198144533Y-106164428D01*
X198144533Y-106164428D02*
X198168342Y-106212047D01*
X198168342Y-106212047D02*
X198192152Y-106307285D01*
X198192152Y-106307285D02*
X198192152Y-106426333D01*
X198192152Y-106426333D02*
X198168342Y-106521571D01*
X198168342Y-106521571D02*
X198144533Y-106569190D01*
X198144533Y-106569190D02*
X198120723Y-106593000D01*
X198120723Y-106593000D02*
X198073104Y-106616809D01*
X198073104Y-106616809D02*
X198025485Y-106616809D01*
X198025485Y-106616809D02*
X197977866Y-106593000D01*
X197977866Y-106593000D02*
X197954057Y-106569190D01*
X197954057Y-106569190D02*
X197930247Y-106521571D01*
X197930247Y-106521571D02*
X197906438Y-106426333D01*
X197906438Y-106426333D02*
X197906438Y-106307285D01*
X197906438Y-106307285D02*
X197930247Y-106212047D01*
X197930247Y-106212047D02*
X197954057Y-106164428D01*
X197954057Y-106164428D02*
X197977866Y-106140619D01*
X197977866Y-106140619D02*
X198025485Y-106116809D01*
X216756466Y-102894790D02*
X216732657Y-102918600D01*
X216732657Y-102918600D02*
X216661228Y-102942409D01*
X216661228Y-102942409D02*
X216613609Y-102942409D01*
X216613609Y-102942409D02*
X216542181Y-102918600D01*
X216542181Y-102918600D02*
X216494562Y-102870980D01*
X216494562Y-102870980D02*
X216470752Y-102823361D01*
X216470752Y-102823361D02*
X216446943Y-102728123D01*
X216446943Y-102728123D02*
X216446943Y-102656695D01*
X216446943Y-102656695D02*
X216470752Y-102561457D01*
X216470752Y-102561457D02*
X216494562Y-102513838D01*
X216494562Y-102513838D02*
X216542181Y-102466219D01*
X216542181Y-102466219D02*
X216613609Y-102442409D01*
X216613609Y-102442409D02*
X216661228Y-102442409D01*
X216661228Y-102442409D02*
X216732657Y-102466219D01*
X216732657Y-102466219D02*
X216756466Y-102490028D01*
X217042181Y-102656695D02*
X216994562Y-102632885D01*
X216994562Y-102632885D02*
X216970752Y-102609076D01*
X216970752Y-102609076D02*
X216946943Y-102561457D01*
X216946943Y-102561457D02*
X216946943Y-102537647D01*
X216946943Y-102537647D02*
X216970752Y-102490028D01*
X216970752Y-102490028D02*
X216994562Y-102466219D01*
X216994562Y-102466219D02*
X217042181Y-102442409D01*
X217042181Y-102442409D02*
X217137419Y-102442409D01*
X217137419Y-102442409D02*
X217185038Y-102466219D01*
X217185038Y-102466219D02*
X217208847Y-102490028D01*
X217208847Y-102490028D02*
X217232657Y-102537647D01*
X217232657Y-102537647D02*
X217232657Y-102561457D01*
X217232657Y-102561457D02*
X217208847Y-102609076D01*
X217208847Y-102609076D02*
X217185038Y-102632885D01*
X217185038Y-102632885D02*
X217137419Y-102656695D01*
X217137419Y-102656695D02*
X217042181Y-102656695D01*
X217042181Y-102656695D02*
X216994562Y-102680504D01*
X216994562Y-102680504D02*
X216970752Y-102704314D01*
X216970752Y-102704314D02*
X216946943Y-102751933D01*
X216946943Y-102751933D02*
X216946943Y-102847171D01*
X216946943Y-102847171D02*
X216970752Y-102894790D01*
X216970752Y-102894790D02*
X216994562Y-102918600D01*
X216994562Y-102918600D02*
X217042181Y-102942409D01*
X217042181Y-102942409D02*
X217137419Y-102942409D01*
X217137419Y-102942409D02*
X217185038Y-102918600D01*
X217185038Y-102918600D02*
X217208847Y-102894790D01*
X217208847Y-102894790D02*
X217232657Y-102847171D01*
X217232657Y-102847171D02*
X217232657Y-102751933D01*
X217232657Y-102751933D02*
X217208847Y-102704314D01*
X217208847Y-102704314D02*
X217185038Y-102680504D01*
X217185038Y-102680504D02*
X217137419Y-102656695D01*
X219226790Y-98543228D02*
X219250600Y-98567037D01*
X219250600Y-98567037D02*
X219274409Y-98638466D01*
X219274409Y-98638466D02*
X219274409Y-98686085D01*
X219274409Y-98686085D02*
X219250600Y-98757513D01*
X219250600Y-98757513D02*
X219202980Y-98805132D01*
X219202980Y-98805132D02*
X219155361Y-98828942D01*
X219155361Y-98828942D02*
X219060123Y-98852751D01*
X219060123Y-98852751D02*
X218988695Y-98852751D01*
X218988695Y-98852751D02*
X218893457Y-98828942D01*
X218893457Y-98828942D02*
X218845838Y-98805132D01*
X218845838Y-98805132D02*
X218798219Y-98757513D01*
X218798219Y-98757513D02*
X218774409Y-98686085D01*
X218774409Y-98686085D02*
X218774409Y-98638466D01*
X218774409Y-98638466D02*
X218798219Y-98567037D01*
X218798219Y-98567037D02*
X218822028Y-98543228D01*
X218822028Y-98352751D02*
X218798219Y-98328942D01*
X218798219Y-98328942D02*
X218774409Y-98281323D01*
X218774409Y-98281323D02*
X218774409Y-98162275D01*
X218774409Y-98162275D02*
X218798219Y-98114656D01*
X218798219Y-98114656D02*
X218822028Y-98090847D01*
X218822028Y-98090847D02*
X218869647Y-98067037D01*
X218869647Y-98067037D02*
X218917266Y-98067037D01*
X218917266Y-98067037D02*
X218988695Y-98090847D01*
X218988695Y-98090847D02*
X219274409Y-98376561D01*
X219274409Y-98376561D02*
X219274409Y-98067037D01*
X219274409Y-97590847D02*
X219274409Y-97876561D01*
X219274409Y-97733704D02*
X218774409Y-97733704D01*
X218774409Y-97733704D02*
X218845838Y-97781323D01*
X218845838Y-97781323D02*
X218893457Y-97828942D01*
X218893457Y-97828942D02*
X218917266Y-97876561D01*
X187915815Y-111218140D02*
X187678046Y-111205679D01*
X187678046Y-111205679D02*
X187704214Y-110706364D01*
X188343799Y-111240569D02*
X188058476Y-111225616D01*
X188201138Y-111233093D02*
X188227306Y-110733778D01*
X188227306Y-110733778D02*
X188176014Y-110802616D01*
X188176014Y-110802616D02*
X188125968Y-110847678D01*
X188125968Y-110847678D02*
X188077168Y-110868963D01*
X260328228Y-123841209D02*
X260090133Y-123841209D01*
X260090133Y-123841209D02*
X260090133Y-123341209D01*
X260756800Y-123841209D02*
X260471086Y-123841209D01*
X260613943Y-123841209D02*
X260613943Y-123341209D01*
X260613943Y-123341209D02*
X260566324Y-123412638D01*
X260566324Y-123412638D02*
X260518705Y-123460257D01*
X260518705Y-123460257D02*
X260471086Y-123484066D01*
X260947276Y-123388828D02*
X260971085Y-123365019D01*
X260971085Y-123365019D02*
X261018704Y-123341209D01*
X261018704Y-123341209D02*
X261137752Y-123341209D01*
X261137752Y-123341209D02*
X261185371Y-123365019D01*
X261185371Y-123365019D02*
X261209180Y-123388828D01*
X261209180Y-123388828D02*
X261232990Y-123436447D01*
X261232990Y-123436447D02*
X261232990Y-123484066D01*
X261232990Y-123484066D02*
X261209180Y-123555495D01*
X261209180Y-123555495D02*
X260923466Y-123841209D01*
X260923466Y-123841209D02*
X261232990Y-123841209D01*
X221674571Y-100758009D02*
X221507905Y-100519914D01*
X221388857Y-100758009D02*
X221388857Y-100258009D01*
X221388857Y-100258009D02*
X221579333Y-100258009D01*
X221579333Y-100258009D02*
X221626952Y-100281819D01*
X221626952Y-100281819D02*
X221650762Y-100305628D01*
X221650762Y-100305628D02*
X221674571Y-100353247D01*
X221674571Y-100353247D02*
X221674571Y-100424676D01*
X221674571Y-100424676D02*
X221650762Y-100472295D01*
X221650762Y-100472295D02*
X221626952Y-100496104D01*
X221626952Y-100496104D02*
X221579333Y-100519914D01*
X221579333Y-100519914D02*
X221388857Y-100519914D01*
X221865048Y-100305628D02*
X221888857Y-100281819D01*
X221888857Y-100281819D02*
X221936476Y-100258009D01*
X221936476Y-100258009D02*
X222055524Y-100258009D01*
X222055524Y-100258009D02*
X222103143Y-100281819D01*
X222103143Y-100281819D02*
X222126952Y-100305628D01*
X222126952Y-100305628D02*
X222150762Y-100353247D01*
X222150762Y-100353247D02*
X222150762Y-100400866D01*
X222150762Y-100400866D02*
X222126952Y-100472295D01*
X222126952Y-100472295D02*
X221841238Y-100758009D01*
X221841238Y-100758009D02*
X222150762Y-100758009D01*
X222603142Y-100258009D02*
X222365047Y-100258009D01*
X222365047Y-100258009D02*
X222341238Y-100496104D01*
X222341238Y-100496104D02*
X222365047Y-100472295D01*
X222365047Y-100472295D02*
X222412666Y-100448485D01*
X222412666Y-100448485D02*
X222531714Y-100448485D01*
X222531714Y-100448485D02*
X222579333Y-100472295D01*
X222579333Y-100472295D02*
X222603142Y-100496104D01*
X222603142Y-100496104D02*
X222626952Y-100543723D01*
X222626952Y-100543723D02*
X222626952Y-100662771D01*
X222626952Y-100662771D02*
X222603142Y-100710390D01*
X222603142Y-100710390D02*
X222579333Y-100734200D01*
X222579333Y-100734200D02*
X222531714Y-100758009D01*
X222531714Y-100758009D02*
X222412666Y-100758009D01*
X222412666Y-100758009D02*
X222365047Y-100734200D01*
X222365047Y-100734200D02*
X222341238Y-100710390D01*
X229682752Y-115498009D02*
X229682752Y-115902771D01*
X229682752Y-115902771D02*
X229706562Y-115950390D01*
X229706562Y-115950390D02*
X229730371Y-115974200D01*
X229730371Y-115974200D02*
X229777990Y-115998009D01*
X229777990Y-115998009D02*
X229873228Y-115998009D01*
X229873228Y-115998009D02*
X229920847Y-115974200D01*
X229920847Y-115974200D02*
X229944657Y-115950390D01*
X229944657Y-115950390D02*
X229968466Y-115902771D01*
X229968466Y-115902771D02*
X229968466Y-115498009D01*
X230468467Y-115998009D02*
X230182753Y-115998009D01*
X230325610Y-115998009D02*
X230325610Y-115498009D01*
X230325610Y-115498009D02*
X230277991Y-115569438D01*
X230277991Y-115569438D02*
X230230372Y-115617057D01*
X230230372Y-115617057D02*
X230182753Y-115640866D01*
X230944657Y-115998009D02*
X230658943Y-115998009D01*
X230801800Y-115998009D02*
X230801800Y-115498009D01*
X230801800Y-115498009D02*
X230754181Y-115569438D01*
X230754181Y-115569438D02*
X230706562Y-115617057D01*
X230706562Y-115617057D02*
X230658943Y-115640866D01*
X227227790Y-101657933D02*
X227251600Y-101681742D01*
X227251600Y-101681742D02*
X227275409Y-101753171D01*
X227275409Y-101753171D02*
X227275409Y-101800790D01*
X227275409Y-101800790D02*
X227251600Y-101872218D01*
X227251600Y-101872218D02*
X227203980Y-101919837D01*
X227203980Y-101919837D02*
X227156361Y-101943647D01*
X227156361Y-101943647D02*
X227061123Y-101967456D01*
X227061123Y-101967456D02*
X226989695Y-101967456D01*
X226989695Y-101967456D02*
X226894457Y-101943647D01*
X226894457Y-101943647D02*
X226846838Y-101919837D01*
X226846838Y-101919837D02*
X226799219Y-101872218D01*
X226799219Y-101872218D02*
X226775409Y-101800790D01*
X226775409Y-101800790D02*
X226775409Y-101753171D01*
X226775409Y-101753171D02*
X226799219Y-101681742D01*
X226799219Y-101681742D02*
X226823028Y-101657933D01*
X226775409Y-101205552D02*
X226775409Y-101443647D01*
X226775409Y-101443647D02*
X227013504Y-101467456D01*
X227013504Y-101467456D02*
X226989695Y-101443647D01*
X226989695Y-101443647D02*
X226965885Y-101396028D01*
X226965885Y-101396028D02*
X226965885Y-101276980D01*
X226965885Y-101276980D02*
X226989695Y-101229361D01*
X226989695Y-101229361D02*
X227013504Y-101205552D01*
X227013504Y-101205552D02*
X227061123Y-101181742D01*
X227061123Y-101181742D02*
X227180171Y-101181742D01*
X227180171Y-101181742D02*
X227227790Y-101205552D01*
X227227790Y-101205552D02*
X227251600Y-101229361D01*
X227251600Y-101229361D02*
X227275409Y-101276980D01*
X227275409Y-101276980D02*
X227275409Y-101396028D01*
X227275409Y-101396028D02*
X227251600Y-101443647D01*
X227251600Y-101443647D02*
X227227790Y-101467456D01*
X188050209Y-98873428D02*
X187812114Y-99040094D01*
X188050209Y-99159142D02*
X187550209Y-99159142D01*
X187550209Y-99159142D02*
X187550209Y-98968666D01*
X187550209Y-98968666D02*
X187574019Y-98921047D01*
X187574019Y-98921047D02*
X187597828Y-98897237D01*
X187597828Y-98897237D02*
X187645447Y-98873428D01*
X187645447Y-98873428D02*
X187716876Y-98873428D01*
X187716876Y-98873428D02*
X187764495Y-98897237D01*
X187764495Y-98897237D02*
X187788304Y-98921047D01*
X187788304Y-98921047D02*
X187812114Y-98968666D01*
X187812114Y-98968666D02*
X187812114Y-99159142D01*
X187550209Y-98706761D02*
X187550209Y-98397237D01*
X187550209Y-98397237D02*
X187740685Y-98563904D01*
X187740685Y-98563904D02*
X187740685Y-98492475D01*
X187740685Y-98492475D02*
X187764495Y-98444856D01*
X187764495Y-98444856D02*
X187788304Y-98421047D01*
X187788304Y-98421047D02*
X187835923Y-98397237D01*
X187835923Y-98397237D02*
X187954971Y-98397237D01*
X187954971Y-98397237D02*
X188002590Y-98421047D01*
X188002590Y-98421047D02*
X188026400Y-98444856D01*
X188026400Y-98444856D02*
X188050209Y-98492475D01*
X188050209Y-98492475D02*
X188050209Y-98635332D01*
X188050209Y-98635332D02*
X188026400Y-98682951D01*
X188026400Y-98682951D02*
X188002590Y-98706761D01*
X187550209Y-97968666D02*
X187550209Y-98063904D01*
X187550209Y-98063904D02*
X187574019Y-98111523D01*
X187574019Y-98111523D02*
X187597828Y-98135333D01*
X187597828Y-98135333D02*
X187669257Y-98182952D01*
X187669257Y-98182952D02*
X187764495Y-98206761D01*
X187764495Y-98206761D02*
X187954971Y-98206761D01*
X187954971Y-98206761D02*
X188002590Y-98182952D01*
X188002590Y-98182952D02*
X188026400Y-98159142D01*
X188026400Y-98159142D02*
X188050209Y-98111523D01*
X188050209Y-98111523D02*
X188050209Y-98016285D01*
X188050209Y-98016285D02*
X188026400Y-97968666D01*
X188026400Y-97968666D02*
X188002590Y-97944857D01*
X188002590Y-97944857D02*
X187954971Y-97921047D01*
X187954971Y-97921047D02*
X187835923Y-97921047D01*
X187835923Y-97921047D02*
X187788304Y-97944857D01*
X187788304Y-97944857D02*
X187764495Y-97968666D01*
X187764495Y-97968666D02*
X187740685Y-98016285D01*
X187740685Y-98016285D02*
X187740685Y-98111523D01*
X187740685Y-98111523D02*
X187764495Y-98159142D01*
X187764495Y-98159142D02*
X187788304Y-98182952D01*
X187788304Y-98182952D02*
X187835923Y-98206761D01*
X227608790Y-125899028D02*
X227632600Y-125922837D01*
X227632600Y-125922837D02*
X227656409Y-125994266D01*
X227656409Y-125994266D02*
X227656409Y-126041885D01*
X227656409Y-126041885D02*
X227632600Y-126113313D01*
X227632600Y-126113313D02*
X227584980Y-126160932D01*
X227584980Y-126160932D02*
X227537361Y-126184742D01*
X227537361Y-126184742D02*
X227442123Y-126208551D01*
X227442123Y-126208551D02*
X227370695Y-126208551D01*
X227370695Y-126208551D02*
X227275457Y-126184742D01*
X227275457Y-126184742D02*
X227227838Y-126160932D01*
X227227838Y-126160932D02*
X227180219Y-126113313D01*
X227180219Y-126113313D02*
X227156409Y-126041885D01*
X227156409Y-126041885D02*
X227156409Y-125994266D01*
X227156409Y-125994266D02*
X227180219Y-125922837D01*
X227180219Y-125922837D02*
X227204028Y-125899028D01*
X227204028Y-125708551D02*
X227180219Y-125684742D01*
X227180219Y-125684742D02*
X227156409Y-125637123D01*
X227156409Y-125637123D02*
X227156409Y-125518075D01*
X227156409Y-125518075D02*
X227180219Y-125470456D01*
X227180219Y-125470456D02*
X227204028Y-125446647D01*
X227204028Y-125446647D02*
X227251647Y-125422837D01*
X227251647Y-125422837D02*
X227299266Y-125422837D01*
X227299266Y-125422837D02*
X227370695Y-125446647D01*
X227370695Y-125446647D02*
X227656409Y-125732361D01*
X227656409Y-125732361D02*
X227656409Y-125422837D01*
X227156409Y-125256171D02*
X227156409Y-124946647D01*
X227156409Y-124946647D02*
X227346885Y-125113314D01*
X227346885Y-125113314D02*
X227346885Y-125041885D01*
X227346885Y-125041885D02*
X227370695Y-124994266D01*
X227370695Y-124994266D02*
X227394504Y-124970457D01*
X227394504Y-124970457D02*
X227442123Y-124946647D01*
X227442123Y-124946647D02*
X227561171Y-124946647D01*
X227561171Y-124946647D02*
X227608790Y-124970457D01*
X227608790Y-124970457D02*
X227632600Y-124994266D01*
X227632600Y-124994266D02*
X227656409Y-125041885D01*
X227656409Y-125041885D02*
X227656409Y-125184742D01*
X227656409Y-125184742D02*
X227632600Y-125232361D01*
X227632600Y-125232361D02*
X227608790Y-125256171D01*
X191296171Y-107411209D02*
X191129505Y-107173114D01*
X191010457Y-107411209D02*
X191010457Y-106911209D01*
X191010457Y-106911209D02*
X191200933Y-106911209D01*
X191200933Y-106911209D02*
X191248552Y-106935019D01*
X191248552Y-106935019D02*
X191272362Y-106958828D01*
X191272362Y-106958828D02*
X191296171Y-107006447D01*
X191296171Y-107006447D02*
X191296171Y-107077876D01*
X191296171Y-107077876D02*
X191272362Y-107125495D01*
X191272362Y-107125495D02*
X191248552Y-107149304D01*
X191248552Y-107149304D02*
X191200933Y-107173114D01*
X191200933Y-107173114D02*
X191010457Y-107173114D01*
X191772362Y-107411209D02*
X191486648Y-107411209D01*
X191629505Y-107411209D02*
X191629505Y-106911209D01*
X191629505Y-106911209D02*
X191581886Y-106982638D01*
X191581886Y-106982638D02*
X191534267Y-107030257D01*
X191534267Y-107030257D02*
X191486648Y-107054066D01*
X192248552Y-107411209D02*
X191962838Y-107411209D01*
X192105695Y-107411209D02*
X192105695Y-106911209D01*
X192105695Y-106911209D02*
X192058076Y-106982638D01*
X192058076Y-106982638D02*
X192010457Y-107030257D01*
X192010457Y-107030257D02*
X191962838Y-107054066D01*
X191055009Y-96501733D02*
X190816914Y-96668399D01*
X191055009Y-96787447D02*
X190555009Y-96787447D01*
X190555009Y-96787447D02*
X190555009Y-96596971D01*
X190555009Y-96596971D02*
X190578819Y-96549352D01*
X190578819Y-96549352D02*
X190602628Y-96525542D01*
X190602628Y-96525542D02*
X190650247Y-96501733D01*
X190650247Y-96501733D02*
X190721676Y-96501733D01*
X190721676Y-96501733D02*
X190769295Y-96525542D01*
X190769295Y-96525542D02*
X190793104Y-96549352D01*
X190793104Y-96549352D02*
X190816914Y-96596971D01*
X190816914Y-96596971D02*
X190816914Y-96787447D01*
X190721676Y-96073161D02*
X191055009Y-96073161D01*
X190531200Y-96192209D02*
X190888342Y-96311256D01*
X190888342Y-96311256D02*
X190888342Y-96001733D01*
X209393809Y-113656228D02*
X209155714Y-113822894D01*
X209393809Y-113941942D02*
X208893809Y-113941942D01*
X208893809Y-113941942D02*
X208893809Y-113751466D01*
X208893809Y-113751466D02*
X208917619Y-113703847D01*
X208917619Y-113703847D02*
X208941428Y-113680037D01*
X208941428Y-113680037D02*
X208989047Y-113656228D01*
X208989047Y-113656228D02*
X209060476Y-113656228D01*
X209060476Y-113656228D02*
X209108095Y-113680037D01*
X209108095Y-113680037D02*
X209131904Y-113703847D01*
X209131904Y-113703847D02*
X209155714Y-113751466D01*
X209155714Y-113751466D02*
X209155714Y-113941942D01*
X209393809Y-113180037D02*
X209393809Y-113465751D01*
X209393809Y-113322894D02*
X208893809Y-113322894D01*
X208893809Y-113322894D02*
X208965238Y-113370513D01*
X208965238Y-113370513D02*
X209012857Y-113418132D01*
X209012857Y-113418132D02*
X209036666Y-113465751D01*
X209108095Y-112894323D02*
X209084285Y-112941942D01*
X209084285Y-112941942D02*
X209060476Y-112965752D01*
X209060476Y-112965752D02*
X209012857Y-112989561D01*
X209012857Y-112989561D02*
X208989047Y-112989561D01*
X208989047Y-112989561D02*
X208941428Y-112965752D01*
X208941428Y-112965752D02*
X208917619Y-112941942D01*
X208917619Y-112941942D02*
X208893809Y-112894323D01*
X208893809Y-112894323D02*
X208893809Y-112799085D01*
X208893809Y-112799085D02*
X208917619Y-112751466D01*
X208917619Y-112751466D02*
X208941428Y-112727657D01*
X208941428Y-112727657D02*
X208989047Y-112703847D01*
X208989047Y-112703847D02*
X209012857Y-112703847D01*
X209012857Y-112703847D02*
X209060476Y-112727657D01*
X209060476Y-112727657D02*
X209084285Y-112751466D01*
X209084285Y-112751466D02*
X209108095Y-112799085D01*
X209108095Y-112799085D02*
X209108095Y-112894323D01*
X209108095Y-112894323D02*
X209131904Y-112941942D01*
X209131904Y-112941942D02*
X209155714Y-112965752D01*
X209155714Y-112965752D02*
X209203333Y-112989561D01*
X209203333Y-112989561D02*
X209298571Y-112989561D01*
X209298571Y-112989561D02*
X209346190Y-112965752D01*
X209346190Y-112965752D02*
X209370000Y-112941942D01*
X209370000Y-112941942D02*
X209393809Y-112894323D01*
X209393809Y-112894323D02*
X209393809Y-112799085D01*
X209393809Y-112799085D02*
X209370000Y-112751466D01*
X209370000Y-112751466D02*
X209346190Y-112727657D01*
X209346190Y-112727657D02*
X209298571Y-112703847D01*
X209298571Y-112703847D02*
X209203333Y-112703847D01*
X209203333Y-112703847D02*
X209155714Y-112727657D01*
X209155714Y-112727657D02*
X209131904Y-112751466D01*
X209131904Y-112751466D02*
X209108095Y-112799085D01*
X215566009Y-94047428D02*
X215327914Y-94214094D01*
X215566009Y-94333142D02*
X215066009Y-94333142D01*
X215066009Y-94333142D02*
X215066009Y-94142666D01*
X215066009Y-94142666D02*
X215089819Y-94095047D01*
X215089819Y-94095047D02*
X215113628Y-94071237D01*
X215113628Y-94071237D02*
X215161247Y-94047428D01*
X215161247Y-94047428D02*
X215232676Y-94047428D01*
X215232676Y-94047428D02*
X215280295Y-94071237D01*
X215280295Y-94071237D02*
X215304104Y-94095047D01*
X215304104Y-94095047D02*
X215327914Y-94142666D01*
X215327914Y-94142666D02*
X215327914Y-94333142D01*
X215113628Y-93856951D02*
X215089819Y-93833142D01*
X215089819Y-93833142D02*
X215066009Y-93785523D01*
X215066009Y-93785523D02*
X215066009Y-93666475D01*
X215066009Y-93666475D02*
X215089819Y-93618856D01*
X215089819Y-93618856D02*
X215113628Y-93595047D01*
X215113628Y-93595047D02*
X215161247Y-93571237D01*
X215161247Y-93571237D02*
X215208866Y-93571237D01*
X215208866Y-93571237D02*
X215280295Y-93595047D01*
X215280295Y-93595047D02*
X215566009Y-93880761D01*
X215566009Y-93880761D02*
X215566009Y-93571237D01*
X215566009Y-93333142D02*
X215566009Y-93237904D01*
X215566009Y-93237904D02*
X215542200Y-93190285D01*
X215542200Y-93190285D02*
X215518390Y-93166476D01*
X215518390Y-93166476D02*
X215446961Y-93118857D01*
X215446961Y-93118857D02*
X215351723Y-93095047D01*
X215351723Y-93095047D02*
X215161247Y-93095047D01*
X215161247Y-93095047D02*
X215113628Y-93118857D01*
X215113628Y-93118857D02*
X215089819Y-93142666D01*
X215089819Y-93142666D02*
X215066009Y-93190285D01*
X215066009Y-93190285D02*
X215066009Y-93285523D01*
X215066009Y-93285523D02*
X215089819Y-93333142D01*
X215089819Y-93333142D02*
X215113628Y-93356952D01*
X215113628Y-93356952D02*
X215161247Y-93380761D01*
X215161247Y-93380761D02*
X215280295Y-93380761D01*
X215280295Y-93380761D02*
X215327914Y-93356952D01*
X215327914Y-93356952D02*
X215351723Y-93333142D01*
X215351723Y-93333142D02*
X215375533Y-93285523D01*
X215375533Y-93285523D02*
X215375533Y-93190285D01*
X215375533Y-93190285D02*
X215351723Y-93142666D01*
X215351723Y-93142666D02*
X215327914Y-93118857D01*
X215327914Y-93118857D02*
X215280295Y-93095047D01*
D11*
X168128180Y-103646361D02*
X168209320Y-103629757D01*
X168209320Y-103629757D02*
X168322728Y-103564281D01*
X168322728Y-103564281D02*
X168354996Y-103515408D01*
X168354996Y-103515408D02*
X168364583Y-103479632D01*
X168364583Y-103479632D02*
X168361074Y-103421173D01*
X168361074Y-103421173D02*
X168334884Y-103375810D01*
X168334884Y-103375810D02*
X168286011Y-103343542D01*
X168286011Y-103343542D02*
X168250235Y-103333956D01*
X168250235Y-103333956D02*
X168191776Y-103337464D01*
X168191776Y-103337464D02*
X168087954Y-103367164D01*
X168087954Y-103367164D02*
X168029496Y-103370673D01*
X168029496Y-103370673D02*
X167993719Y-103361086D01*
X167993719Y-103361086D02*
X167944847Y-103328818D01*
X167944847Y-103328818D02*
X167918656Y-103283455D01*
X167918656Y-103283455D02*
X167915148Y-103224996D01*
X167915148Y-103224996D02*
X167924734Y-103189220D01*
X167924734Y-103189220D02*
X167957002Y-103140348D01*
X167957002Y-103140348D02*
X168070410Y-103074871D01*
X168070410Y-103074871D02*
X168151550Y-103058267D01*
X168297227Y-102943919D02*
X168685635Y-103354757D01*
X168685635Y-103354757D02*
X168579933Y-102962151D01*
X168579933Y-102962151D02*
X168867088Y-103249995D01*
X168867088Y-103249995D02*
X168705496Y-102708204D01*
X169074731Y-103190596D02*
X169437637Y-102981072D01*
X169524855Y-102870233D02*
X169249855Y-102393919D01*
X169249855Y-102393919D02*
X169431308Y-102289157D01*
X169431308Y-102289157D02*
X169489766Y-102285648D01*
X169489766Y-102285648D02*
X169525543Y-102295234D01*
X169525543Y-102295234D02*
X169574415Y-102327502D01*
X169574415Y-102327502D02*
X169613701Y-102395547D01*
X169613701Y-102395547D02*
X169617210Y-102454006D01*
X169617210Y-102454006D02*
X169607623Y-102489783D01*
X169607623Y-102489783D02*
X169575355Y-102538655D01*
X169575355Y-102538655D02*
X169393902Y-102643417D01*
X170021970Y-102159833D02*
X170205303Y-102477376D01*
X169817835Y-102277690D02*
X169961883Y-102527188D01*
X169961883Y-102527188D02*
X170010755Y-102559456D01*
X170010755Y-102559456D02*
X170069213Y-102555947D01*
X170069213Y-102555947D02*
X170137258Y-102516661D01*
X170137258Y-102516661D02*
X170169526Y-102467789D01*
X170169526Y-102467789D02*
X170179113Y-102432012D01*
X170396342Y-102336837D02*
X170454801Y-102333328D01*
X170454801Y-102333328D02*
X170545527Y-102280947D01*
X170545527Y-102280947D02*
X170577795Y-102232075D01*
X170577795Y-102232075D02*
X170574286Y-102173616D01*
X170574286Y-102173616D02*
X170561191Y-102150935D01*
X170561191Y-102150935D02*
X170512319Y-102118667D01*
X170512319Y-102118667D02*
X170453861Y-102122176D01*
X170453861Y-102122176D02*
X170385816Y-102161461D01*
X170385816Y-102161461D02*
X170327357Y-102164970D01*
X170327357Y-102164970D02*
X170278485Y-102132702D01*
X170278485Y-102132702D02*
X170265390Y-102110021D01*
X170265390Y-102110021D02*
X170261881Y-102051562D01*
X170261881Y-102051562D02*
X170294149Y-102002690D01*
X170294149Y-102002690D02*
X170362194Y-101963404D01*
X170362194Y-101963404D02*
X170420652Y-101959896D01*
X170817707Y-102123804D02*
X170542707Y-101647490D01*
X171021841Y-102005947D02*
X170877794Y-101756449D01*
X170877794Y-101756449D02*
X170828922Y-101724181D01*
X170828922Y-101724181D02*
X170770463Y-101727690D01*
X170770463Y-101727690D02*
X170702418Y-101766976D01*
X170702418Y-101766976D02*
X170670150Y-101815848D01*
X170670150Y-101815848D02*
X170660564Y-101851625D01*
X269024628Y-103465028D02*
X268969678Y-103403061D01*
X268969678Y-103403061D02*
X268856270Y-103337585D01*
X268856270Y-103337585D02*
X268797812Y-103334076D01*
X268797812Y-103334076D02*
X268762035Y-103343662D01*
X268762035Y-103343662D02*
X268713163Y-103375930D01*
X268713163Y-103375930D02*
X268686972Y-103421293D01*
X268686972Y-103421293D02*
X268683463Y-103479752D01*
X268683463Y-103479752D02*
X268693050Y-103515529D01*
X268693050Y-103515529D02*
X268725318Y-103564401D01*
X268725318Y-103564401D02*
X268802949Y-103639463D01*
X268802949Y-103639463D02*
X268835217Y-103688336D01*
X268835217Y-103688336D02*
X268844803Y-103724112D01*
X268844803Y-103724112D02*
X268841294Y-103782571D01*
X268841294Y-103782571D02*
X268815104Y-103827934D01*
X268815104Y-103827934D02*
X268766232Y-103860202D01*
X268766232Y-103860202D02*
X268730455Y-103869789D01*
X268730455Y-103869789D02*
X268671996Y-103866280D01*
X268671996Y-103866280D02*
X268558588Y-103800803D01*
X268558588Y-103800803D02*
X268503639Y-103738836D01*
X268331772Y-103669851D02*
X268493364Y-103128061D01*
X268493364Y-103128061D02*
X268206209Y-103415904D01*
X268206209Y-103415904D02*
X268311911Y-103023299D01*
X268311911Y-103023299D02*
X267923503Y-103434137D01*
X268156649Y-102873174D02*
X267793743Y-102663650D01*
X267654144Y-102643537D02*
X267379144Y-103119851D01*
X267379144Y-103119851D02*
X267197691Y-103015089D01*
X267197691Y-103015089D02*
X267165423Y-102966217D01*
X267165423Y-102966217D02*
X267155837Y-102930440D01*
X267155837Y-102930440D02*
X267159345Y-102871982D01*
X267159345Y-102871982D02*
X267198631Y-102803937D01*
X267198631Y-102803937D02*
X267247503Y-102771669D01*
X267247503Y-102771669D02*
X267283280Y-102762082D01*
X267283280Y-102762082D02*
X267341739Y-102765591D01*
X267341739Y-102765591D02*
X267523192Y-102870353D01*
X266790362Y-102568222D02*
X266973695Y-102250680D01*
X266994497Y-102686080D02*
X267138544Y-102436582D01*
X267138544Y-102436582D02*
X267142053Y-102378123D01*
X267142053Y-102378123D02*
X267109785Y-102329251D01*
X267109785Y-102329251D02*
X267041740Y-102289965D01*
X267041740Y-102289965D02*
X266983282Y-102286457D01*
X266983282Y-102286457D02*
X266947505Y-102296043D01*
X266756466Y-102155504D02*
X266724198Y-102106632D01*
X266724198Y-102106632D02*
X266633471Y-102054251D01*
X266633471Y-102054251D02*
X266575013Y-102050742D01*
X266575013Y-102050742D02*
X266526141Y-102083010D01*
X266526141Y-102083010D02*
X266513045Y-102105692D01*
X266513045Y-102105692D02*
X266509536Y-102164150D01*
X266509536Y-102164150D02*
X266541804Y-102213023D01*
X266541804Y-102213023D02*
X266609849Y-102252308D01*
X266609849Y-102252308D02*
X266642117Y-102301180D01*
X266642117Y-102301180D02*
X266638608Y-102359639D01*
X266638608Y-102359639D02*
X266625513Y-102382320D01*
X266625513Y-102382320D02*
X266576641Y-102414588D01*
X266576641Y-102414588D02*
X266518183Y-102411080D01*
X266518183Y-102411080D02*
X266450138Y-102371794D01*
X266450138Y-102371794D02*
X266417870Y-102322922D01*
X266361292Y-101897108D02*
X266086292Y-102373422D01*
X266157157Y-101779251D02*
X266013110Y-102028749D01*
X266013110Y-102028749D02*
X266009601Y-102087208D01*
X266009601Y-102087208D02*
X266041869Y-102136080D01*
X266041869Y-102136080D02*
X266109914Y-102175365D01*
X266109914Y-102175365D02*
X266168372Y-102178874D01*
X266168372Y-102178874D02*
X266204149Y-102169288D01*
D10*
X217320200Y-120614960D02*
X217344009Y-120543532D01*
X217344009Y-120543532D02*
X217344009Y-120424484D01*
X217344009Y-120424484D02*
X217320200Y-120376865D01*
X217320200Y-120376865D02*
X217296390Y-120353056D01*
X217296390Y-120353056D02*
X217248771Y-120329246D01*
X217248771Y-120329246D02*
X217201152Y-120329246D01*
X217201152Y-120329246D02*
X217153533Y-120353056D01*
X217153533Y-120353056D02*
X217129723Y-120376865D01*
X217129723Y-120376865D02*
X217105914Y-120424484D01*
X217105914Y-120424484D02*
X217082104Y-120519722D01*
X217082104Y-120519722D02*
X217058295Y-120567341D01*
X217058295Y-120567341D02*
X217034485Y-120591151D01*
X217034485Y-120591151D02*
X216986866Y-120614960D01*
X216986866Y-120614960D02*
X216939247Y-120614960D01*
X216939247Y-120614960D02*
X216891628Y-120591151D01*
X216891628Y-120591151D02*
X216867819Y-120567341D01*
X216867819Y-120567341D02*
X216844009Y-120519722D01*
X216844009Y-120519722D02*
X216844009Y-120400675D01*
X216844009Y-120400675D02*
X216867819Y-120329246D01*
X216844009Y-120162580D02*
X217344009Y-120043532D01*
X217344009Y-120043532D02*
X216986866Y-119948294D01*
X216986866Y-119948294D02*
X217344009Y-119853056D01*
X217344009Y-119853056D02*
X216844009Y-119734009D01*
X217344009Y-119281627D02*
X217344009Y-119567341D01*
X217344009Y-119424484D02*
X216844009Y-119424484D01*
X216844009Y-119424484D02*
X216915438Y-119472103D01*
X216915438Y-119472103D02*
X216963057Y-119519722D01*
X216963057Y-119519722D02*
X216986866Y-119567341D01*
X216844009Y-119114961D02*
X216844009Y-118781628D01*
X216844009Y-118781628D02*
X217344009Y-118995913D01*
X217137466Y-103809190D02*
X217113657Y-103833000D01*
X217113657Y-103833000D02*
X217042228Y-103856809D01*
X217042228Y-103856809D02*
X216994609Y-103856809D01*
X216994609Y-103856809D02*
X216923181Y-103833000D01*
X216923181Y-103833000D02*
X216875562Y-103785380D01*
X216875562Y-103785380D02*
X216851752Y-103737761D01*
X216851752Y-103737761D02*
X216827943Y-103642523D01*
X216827943Y-103642523D02*
X216827943Y-103571095D01*
X216827943Y-103571095D02*
X216851752Y-103475857D01*
X216851752Y-103475857D02*
X216875562Y-103428238D01*
X216875562Y-103428238D02*
X216923181Y-103380619D01*
X216923181Y-103380619D02*
X216994609Y-103356809D01*
X216994609Y-103356809D02*
X217042228Y-103356809D01*
X217042228Y-103356809D02*
X217113657Y-103380619D01*
X217113657Y-103380619D02*
X217137466Y-103404428D01*
X217566038Y-103356809D02*
X217470800Y-103356809D01*
X217470800Y-103356809D02*
X217423181Y-103380619D01*
X217423181Y-103380619D02*
X217399371Y-103404428D01*
X217399371Y-103404428D02*
X217351752Y-103475857D01*
X217351752Y-103475857D02*
X217327943Y-103571095D01*
X217327943Y-103571095D02*
X217327943Y-103761571D01*
X217327943Y-103761571D02*
X217351752Y-103809190D01*
X217351752Y-103809190D02*
X217375562Y-103833000D01*
X217375562Y-103833000D02*
X217423181Y-103856809D01*
X217423181Y-103856809D02*
X217518419Y-103856809D01*
X217518419Y-103856809D02*
X217566038Y-103833000D01*
X217566038Y-103833000D02*
X217589847Y-103809190D01*
X217589847Y-103809190D02*
X217613657Y-103761571D01*
X217613657Y-103761571D02*
X217613657Y-103642523D01*
X217613657Y-103642523D02*
X217589847Y-103594904D01*
X217589847Y-103594904D02*
X217566038Y-103571095D01*
X217566038Y-103571095D02*
X217518419Y-103547285D01*
X217518419Y-103547285D02*
X217423181Y-103547285D01*
X217423181Y-103547285D02*
X217375562Y-103571095D01*
X217375562Y-103571095D02*
X217351752Y-103594904D01*
X217351752Y-103594904D02*
X217327943Y-103642523D01*
X206955409Y-113021228D02*
X206717314Y-113187894D01*
X206955409Y-113306942D02*
X206455409Y-113306942D01*
X206455409Y-113306942D02*
X206455409Y-113116466D01*
X206455409Y-113116466D02*
X206479219Y-113068847D01*
X206479219Y-113068847D02*
X206503028Y-113045037D01*
X206503028Y-113045037D02*
X206550647Y-113021228D01*
X206550647Y-113021228D02*
X206622076Y-113021228D01*
X206622076Y-113021228D02*
X206669695Y-113045037D01*
X206669695Y-113045037D02*
X206693504Y-113068847D01*
X206693504Y-113068847D02*
X206717314Y-113116466D01*
X206717314Y-113116466D02*
X206717314Y-113306942D01*
X206955409Y-112545037D02*
X206955409Y-112830751D01*
X206955409Y-112687894D02*
X206455409Y-112687894D01*
X206455409Y-112687894D02*
X206526838Y-112735513D01*
X206526838Y-112735513D02*
X206574457Y-112783132D01*
X206574457Y-112783132D02*
X206598266Y-112830751D01*
X206955409Y-112306942D02*
X206955409Y-112211704D01*
X206955409Y-112211704D02*
X206931600Y-112164085D01*
X206931600Y-112164085D02*
X206907790Y-112140276D01*
X206907790Y-112140276D02*
X206836361Y-112092657D01*
X206836361Y-112092657D02*
X206741123Y-112068847D01*
X206741123Y-112068847D02*
X206550647Y-112068847D01*
X206550647Y-112068847D02*
X206503028Y-112092657D01*
X206503028Y-112092657D02*
X206479219Y-112116466D01*
X206479219Y-112116466D02*
X206455409Y-112164085D01*
X206455409Y-112164085D02*
X206455409Y-112259323D01*
X206455409Y-112259323D02*
X206479219Y-112306942D01*
X206479219Y-112306942D02*
X206503028Y-112330752D01*
X206503028Y-112330752D02*
X206550647Y-112354561D01*
X206550647Y-112354561D02*
X206669695Y-112354561D01*
X206669695Y-112354561D02*
X206717314Y-112330752D01*
X206717314Y-112330752D02*
X206741123Y-112306942D01*
X206741123Y-112306942D02*
X206764933Y-112259323D01*
X206764933Y-112259323D02*
X206764933Y-112164085D01*
X206764933Y-112164085D02*
X206741123Y-112116466D01*
X206741123Y-112116466D02*
X206717314Y-112092657D01*
X206717314Y-112092657D02*
X206669695Y-112068847D01*
X197315971Y-115848790D02*
X197292162Y-115872600D01*
X197292162Y-115872600D02*
X197220733Y-115896409D01*
X197220733Y-115896409D02*
X197173114Y-115896409D01*
X197173114Y-115896409D02*
X197101686Y-115872600D01*
X197101686Y-115872600D02*
X197054067Y-115824980D01*
X197054067Y-115824980D02*
X197030257Y-115777361D01*
X197030257Y-115777361D02*
X197006448Y-115682123D01*
X197006448Y-115682123D02*
X197006448Y-115610695D01*
X197006448Y-115610695D02*
X197030257Y-115515457D01*
X197030257Y-115515457D02*
X197054067Y-115467838D01*
X197054067Y-115467838D02*
X197101686Y-115420219D01*
X197101686Y-115420219D02*
X197173114Y-115396409D01*
X197173114Y-115396409D02*
X197220733Y-115396409D01*
X197220733Y-115396409D02*
X197292162Y-115420219D01*
X197292162Y-115420219D02*
X197315971Y-115444028D01*
X197792162Y-115896409D02*
X197506448Y-115896409D01*
X197649305Y-115896409D02*
X197649305Y-115396409D01*
X197649305Y-115396409D02*
X197601686Y-115467838D01*
X197601686Y-115467838D02*
X197554067Y-115515457D01*
X197554067Y-115515457D02*
X197506448Y-115539266D01*
X197958828Y-115396409D02*
X198268352Y-115396409D01*
X198268352Y-115396409D02*
X198101685Y-115586885D01*
X198101685Y-115586885D02*
X198173114Y-115586885D01*
X198173114Y-115586885D02*
X198220733Y-115610695D01*
X198220733Y-115610695D02*
X198244542Y-115634504D01*
X198244542Y-115634504D02*
X198268352Y-115682123D01*
X198268352Y-115682123D02*
X198268352Y-115801171D01*
X198268352Y-115801171D02*
X198244542Y-115848790D01*
X198244542Y-115848790D02*
X198220733Y-115872600D01*
X198220733Y-115872600D02*
X198173114Y-115896409D01*
X198173114Y-115896409D02*
X198030257Y-115896409D01*
X198030257Y-115896409D02*
X197982638Y-115872600D01*
X197982638Y-115872600D02*
X197958828Y-115848790D01*
X223884371Y-100783409D02*
X223717705Y-100545314D01*
X223598657Y-100783409D02*
X223598657Y-100283409D01*
X223598657Y-100283409D02*
X223789133Y-100283409D01*
X223789133Y-100283409D02*
X223836752Y-100307219D01*
X223836752Y-100307219D02*
X223860562Y-100331028D01*
X223860562Y-100331028D02*
X223884371Y-100378647D01*
X223884371Y-100378647D02*
X223884371Y-100450076D01*
X223884371Y-100450076D02*
X223860562Y-100497695D01*
X223860562Y-100497695D02*
X223836752Y-100521504D01*
X223836752Y-100521504D02*
X223789133Y-100545314D01*
X223789133Y-100545314D02*
X223598657Y-100545314D01*
X224074848Y-100331028D02*
X224098657Y-100307219D01*
X224098657Y-100307219D02*
X224146276Y-100283409D01*
X224146276Y-100283409D02*
X224265324Y-100283409D01*
X224265324Y-100283409D02*
X224312943Y-100307219D01*
X224312943Y-100307219D02*
X224336752Y-100331028D01*
X224336752Y-100331028D02*
X224360562Y-100378647D01*
X224360562Y-100378647D02*
X224360562Y-100426266D01*
X224360562Y-100426266D02*
X224336752Y-100497695D01*
X224336752Y-100497695D02*
X224051038Y-100783409D01*
X224051038Y-100783409D02*
X224360562Y-100783409D01*
X224527228Y-100283409D02*
X224836752Y-100283409D01*
X224836752Y-100283409D02*
X224670085Y-100473885D01*
X224670085Y-100473885D02*
X224741514Y-100473885D01*
X224741514Y-100473885D02*
X224789133Y-100497695D01*
X224789133Y-100497695D02*
X224812942Y-100521504D01*
X224812942Y-100521504D02*
X224836752Y-100569123D01*
X224836752Y-100569123D02*
X224836752Y-100688171D01*
X224836752Y-100688171D02*
X224812942Y-100735790D01*
X224812942Y-100735790D02*
X224789133Y-100759600D01*
X224789133Y-100759600D02*
X224741514Y-100783409D01*
X224741514Y-100783409D02*
X224598657Y-100783409D01*
X224598657Y-100783409D02*
X224551038Y-100759600D01*
X224551038Y-100759600D02*
X224527228Y-100735790D01*
X215845409Y-113605428D02*
X215607314Y-113772094D01*
X215845409Y-113891142D02*
X215345409Y-113891142D01*
X215345409Y-113891142D02*
X215345409Y-113700666D01*
X215345409Y-113700666D02*
X215369219Y-113653047D01*
X215369219Y-113653047D02*
X215393028Y-113629237D01*
X215393028Y-113629237D02*
X215440647Y-113605428D01*
X215440647Y-113605428D02*
X215512076Y-113605428D01*
X215512076Y-113605428D02*
X215559695Y-113629237D01*
X215559695Y-113629237D02*
X215583504Y-113653047D01*
X215583504Y-113653047D02*
X215607314Y-113700666D01*
X215607314Y-113700666D02*
X215607314Y-113891142D01*
X215845409Y-113129237D02*
X215845409Y-113414951D01*
X215845409Y-113272094D02*
X215345409Y-113272094D01*
X215345409Y-113272094D02*
X215416838Y-113319713D01*
X215416838Y-113319713D02*
X215464457Y-113367332D01*
X215464457Y-113367332D02*
X215488266Y-113414951D01*
X215345409Y-112819714D02*
X215345409Y-112772095D01*
X215345409Y-112772095D02*
X215369219Y-112724476D01*
X215369219Y-112724476D02*
X215393028Y-112700666D01*
X215393028Y-112700666D02*
X215440647Y-112676857D01*
X215440647Y-112676857D02*
X215535885Y-112653047D01*
X215535885Y-112653047D02*
X215654933Y-112653047D01*
X215654933Y-112653047D02*
X215750171Y-112676857D01*
X215750171Y-112676857D02*
X215797790Y-112700666D01*
X215797790Y-112700666D02*
X215821600Y-112724476D01*
X215821600Y-112724476D02*
X215845409Y-112772095D01*
X215845409Y-112772095D02*
X215845409Y-112819714D01*
X215845409Y-112819714D02*
X215821600Y-112867333D01*
X215821600Y-112867333D02*
X215797790Y-112891142D01*
X215797790Y-112891142D02*
X215750171Y-112914952D01*
X215750171Y-112914952D02*
X215654933Y-112938761D01*
X215654933Y-112938761D02*
X215535885Y-112938761D01*
X215535885Y-112938761D02*
X215440647Y-112914952D01*
X215440647Y-112914952D02*
X215393028Y-112891142D01*
X215393028Y-112891142D02*
X215369219Y-112867333D01*
X215369219Y-112867333D02*
X215345409Y-112819714D01*
X211381257Y-139797809D02*
X211381257Y-139297809D01*
X211381257Y-139297809D02*
X211500305Y-139297809D01*
X211500305Y-139297809D02*
X211571733Y-139321619D01*
X211571733Y-139321619D02*
X211619352Y-139369238D01*
X211619352Y-139369238D02*
X211643162Y-139416857D01*
X211643162Y-139416857D02*
X211666971Y-139512095D01*
X211666971Y-139512095D02*
X211666971Y-139583523D01*
X211666971Y-139583523D02*
X211643162Y-139678761D01*
X211643162Y-139678761D02*
X211619352Y-139726380D01*
X211619352Y-139726380D02*
X211571733Y-139774000D01*
X211571733Y-139774000D02*
X211500305Y-139797809D01*
X211500305Y-139797809D02*
X211381257Y-139797809D01*
X212143162Y-139797809D02*
X211857448Y-139797809D01*
X212000305Y-139797809D02*
X212000305Y-139297809D01*
X212000305Y-139297809D02*
X211952686Y-139369238D01*
X211952686Y-139369238D02*
X211905067Y-139416857D01*
X211905067Y-139416857D02*
X211857448Y-139440666D01*
X212309828Y-139297809D02*
X212619352Y-139297809D01*
X212619352Y-139297809D02*
X212452685Y-139488285D01*
X212452685Y-139488285D02*
X212524114Y-139488285D01*
X212524114Y-139488285D02*
X212571733Y-139512095D01*
X212571733Y-139512095D02*
X212595542Y-139535904D01*
X212595542Y-139535904D02*
X212619352Y-139583523D01*
X212619352Y-139583523D02*
X212619352Y-139702571D01*
X212619352Y-139702571D02*
X212595542Y-139750190D01*
X212595542Y-139750190D02*
X212571733Y-139774000D01*
X212571733Y-139774000D02*
X212524114Y-139797809D01*
X212524114Y-139797809D02*
X212381257Y-139797809D01*
X212381257Y-139797809D02*
X212333638Y-139774000D01*
X212333638Y-139774000D02*
X212309828Y-139750190D01*
X227842209Y-104190752D02*
X228246971Y-104190752D01*
X228246971Y-104190752D02*
X228294590Y-104166942D01*
X228294590Y-104166942D02*
X228318400Y-104143133D01*
X228318400Y-104143133D02*
X228342209Y-104095514D01*
X228342209Y-104095514D02*
X228342209Y-104000276D01*
X228342209Y-104000276D02*
X228318400Y-103952657D01*
X228318400Y-103952657D02*
X228294590Y-103928847D01*
X228294590Y-103928847D02*
X228246971Y-103905038D01*
X228246971Y-103905038D02*
X227842209Y-103905038D01*
X228056495Y-103595513D02*
X228032685Y-103643132D01*
X228032685Y-103643132D02*
X228008876Y-103666942D01*
X228008876Y-103666942D02*
X227961257Y-103690751D01*
X227961257Y-103690751D02*
X227937447Y-103690751D01*
X227937447Y-103690751D02*
X227889828Y-103666942D01*
X227889828Y-103666942D02*
X227866019Y-103643132D01*
X227866019Y-103643132D02*
X227842209Y-103595513D01*
X227842209Y-103595513D02*
X227842209Y-103500275D01*
X227842209Y-103500275D02*
X227866019Y-103452656D01*
X227866019Y-103452656D02*
X227889828Y-103428847D01*
X227889828Y-103428847D02*
X227937447Y-103405037D01*
X227937447Y-103405037D02*
X227961257Y-103405037D01*
X227961257Y-103405037D02*
X228008876Y-103428847D01*
X228008876Y-103428847D02*
X228032685Y-103452656D01*
X228032685Y-103452656D02*
X228056495Y-103500275D01*
X228056495Y-103500275D02*
X228056495Y-103595513D01*
X228056495Y-103595513D02*
X228080304Y-103643132D01*
X228080304Y-103643132D02*
X228104114Y-103666942D01*
X228104114Y-103666942D02*
X228151733Y-103690751D01*
X228151733Y-103690751D02*
X228246971Y-103690751D01*
X228246971Y-103690751D02*
X228294590Y-103666942D01*
X228294590Y-103666942D02*
X228318400Y-103643132D01*
X228318400Y-103643132D02*
X228342209Y-103595513D01*
X228342209Y-103595513D02*
X228342209Y-103500275D01*
X228342209Y-103500275D02*
X228318400Y-103452656D01*
X228318400Y-103452656D02*
X228294590Y-103428847D01*
X228294590Y-103428847D02*
X228246971Y-103405037D01*
X228246971Y-103405037D02*
X228151733Y-103405037D01*
X228151733Y-103405037D02*
X228104114Y-103428847D01*
X228104114Y-103428847D02*
X228080304Y-103452656D01*
X228080304Y-103452656D02*
X228056495Y-103500275D01*
X274841188Y-120350811D02*
X274603093Y-120350811D01*
X274603093Y-120350811D02*
X274603093Y-119850811D01*
X275269760Y-120350811D02*
X274984046Y-120350811D01*
X275126903Y-120350811D02*
X275126903Y-119850811D01*
X275126903Y-119850811D02*
X275079284Y-119922240D01*
X275079284Y-119922240D02*
X275031665Y-119969859D01*
X275031665Y-119969859D02*
X274984046Y-119993668D01*
X275436426Y-119850811D02*
X275745950Y-119850811D01*
X275745950Y-119850811D02*
X275579283Y-120041287D01*
X275579283Y-120041287D02*
X275650712Y-120041287D01*
X275650712Y-120041287D02*
X275698331Y-120065097D01*
X275698331Y-120065097D02*
X275722140Y-120088906D01*
X275722140Y-120088906D02*
X275745950Y-120136525D01*
X275745950Y-120136525D02*
X275745950Y-120255573D01*
X275745950Y-120255573D02*
X275722140Y-120303192D01*
X275722140Y-120303192D02*
X275698331Y-120327002D01*
X275698331Y-120327002D02*
X275650712Y-120350811D01*
X275650712Y-120350811D02*
X275507855Y-120350811D01*
X275507855Y-120350811D02*
X275460236Y-120327002D01*
X275460236Y-120327002D02*
X275436426Y-120303192D01*
X216781866Y-105939609D02*
X216615200Y-105701514D01*
X216496152Y-105939609D02*
X216496152Y-105439609D01*
X216496152Y-105439609D02*
X216686628Y-105439609D01*
X216686628Y-105439609D02*
X216734247Y-105463419D01*
X216734247Y-105463419D02*
X216758057Y-105487228D01*
X216758057Y-105487228D02*
X216781866Y-105534847D01*
X216781866Y-105534847D02*
X216781866Y-105606276D01*
X216781866Y-105606276D02*
X216758057Y-105653895D01*
X216758057Y-105653895D02*
X216734247Y-105677704D01*
X216734247Y-105677704D02*
X216686628Y-105701514D01*
X216686628Y-105701514D02*
X216496152Y-105701514D01*
X216948533Y-105439609D02*
X217281866Y-105439609D01*
X217281866Y-105439609D02*
X217067581Y-105939609D01*
X223223971Y-95068409D02*
X223057305Y-94830314D01*
X222938257Y-95068409D02*
X222938257Y-94568409D01*
X222938257Y-94568409D02*
X223128733Y-94568409D01*
X223128733Y-94568409D02*
X223176352Y-94592219D01*
X223176352Y-94592219D02*
X223200162Y-94616028D01*
X223200162Y-94616028D02*
X223223971Y-94663647D01*
X223223971Y-94663647D02*
X223223971Y-94735076D01*
X223223971Y-94735076D02*
X223200162Y-94782695D01*
X223200162Y-94782695D02*
X223176352Y-94806504D01*
X223176352Y-94806504D02*
X223128733Y-94830314D01*
X223128733Y-94830314D02*
X222938257Y-94830314D01*
X223414448Y-94616028D02*
X223438257Y-94592219D01*
X223438257Y-94592219D02*
X223485876Y-94568409D01*
X223485876Y-94568409D02*
X223604924Y-94568409D01*
X223604924Y-94568409D02*
X223652543Y-94592219D01*
X223652543Y-94592219D02*
X223676352Y-94616028D01*
X223676352Y-94616028D02*
X223700162Y-94663647D01*
X223700162Y-94663647D02*
X223700162Y-94711266D01*
X223700162Y-94711266D02*
X223676352Y-94782695D01*
X223676352Y-94782695D02*
X223390638Y-95068409D01*
X223390638Y-95068409D02*
X223700162Y-95068409D01*
X224128733Y-94568409D02*
X224033495Y-94568409D01*
X224033495Y-94568409D02*
X223985876Y-94592219D01*
X223985876Y-94592219D02*
X223962066Y-94616028D01*
X223962066Y-94616028D02*
X223914447Y-94687457D01*
X223914447Y-94687457D02*
X223890638Y-94782695D01*
X223890638Y-94782695D02*
X223890638Y-94973171D01*
X223890638Y-94973171D02*
X223914447Y-95020790D01*
X223914447Y-95020790D02*
X223938257Y-95044600D01*
X223938257Y-95044600D02*
X223985876Y-95068409D01*
X223985876Y-95068409D02*
X224081114Y-95068409D01*
X224081114Y-95068409D02*
X224128733Y-95044600D01*
X224128733Y-95044600D02*
X224152542Y-95020790D01*
X224152542Y-95020790D02*
X224176352Y-94973171D01*
X224176352Y-94973171D02*
X224176352Y-94854123D01*
X224176352Y-94854123D02*
X224152542Y-94806504D01*
X224152542Y-94806504D02*
X224128733Y-94782695D01*
X224128733Y-94782695D02*
X224081114Y-94758885D01*
X224081114Y-94758885D02*
X223985876Y-94758885D01*
X223985876Y-94758885D02*
X223938257Y-94782695D01*
X223938257Y-94782695D02*
X223914447Y-94806504D01*
X223914447Y-94806504D02*
X223890638Y-94854123D01*
X186874415Y-125035740D02*
X186636646Y-125023279D01*
X186636646Y-125023279D02*
X186662814Y-124523964D01*
X187272291Y-124722801D02*
X187254845Y-125055677D01*
X187163375Y-124526355D02*
X187025799Y-124876778D01*
X187025799Y-124876778D02*
X187334899Y-124892977D01*
X280115409Y-143422666D02*
X280472552Y-143422666D01*
X280472552Y-143422666D02*
X280543980Y-143446475D01*
X280543980Y-143446475D02*
X280591600Y-143494094D01*
X280591600Y-143494094D02*
X280615409Y-143565523D01*
X280615409Y-143565523D02*
X280615409Y-143613142D01*
X280282076Y-142970285D02*
X280615409Y-142970285D01*
X280091600Y-143089333D02*
X280448742Y-143208380D01*
X280448742Y-143208380D02*
X280448742Y-142898857D01*
X232820190Y-109050971D02*
X233058285Y-108884305D01*
X232820190Y-108765257D02*
X233320190Y-108765257D01*
X233320190Y-108765257D02*
X233320190Y-108955733D01*
X233320190Y-108955733D02*
X233296380Y-109003352D01*
X233296380Y-109003352D02*
X233272571Y-109027162D01*
X233272571Y-109027162D02*
X233224952Y-109050971D01*
X233224952Y-109050971D02*
X233153523Y-109050971D01*
X233153523Y-109050971D02*
X233105904Y-109027162D01*
X233105904Y-109027162D02*
X233082095Y-109003352D01*
X233082095Y-109003352D02*
X233058285Y-108955733D01*
X233058285Y-108955733D02*
X233058285Y-108765257D01*
X232820190Y-109527162D02*
X232820190Y-109241448D01*
X232820190Y-109384305D02*
X233320190Y-109384305D01*
X233320190Y-109384305D02*
X233248761Y-109336686D01*
X233248761Y-109336686D02*
X233201142Y-109289067D01*
X233201142Y-109289067D02*
X233177333Y-109241448D01*
X233153523Y-109955733D02*
X232820190Y-109955733D01*
X233344000Y-109836685D02*
X232986857Y-109717638D01*
X232986857Y-109717638D02*
X232986857Y-110027161D01*
X213534009Y-99632247D02*
X213034009Y-99632247D01*
X213034009Y-99632247D02*
X213034009Y-99513199D01*
X213034009Y-99513199D02*
X213057819Y-99441771D01*
X213057819Y-99441771D02*
X213105438Y-99394152D01*
X213105438Y-99394152D02*
X213153057Y-99370342D01*
X213153057Y-99370342D02*
X213248295Y-99346533D01*
X213248295Y-99346533D02*
X213319723Y-99346533D01*
X213319723Y-99346533D02*
X213414961Y-99370342D01*
X213414961Y-99370342D02*
X213462580Y-99394152D01*
X213462580Y-99394152D02*
X213510200Y-99441771D01*
X213510200Y-99441771D02*
X213534009Y-99513199D01*
X213534009Y-99513199D02*
X213534009Y-99632247D01*
X213081628Y-99156056D02*
X213057819Y-99132247D01*
X213057819Y-99132247D02*
X213034009Y-99084628D01*
X213034009Y-99084628D02*
X213034009Y-98965580D01*
X213034009Y-98965580D02*
X213057819Y-98917961D01*
X213057819Y-98917961D02*
X213081628Y-98894152D01*
X213081628Y-98894152D02*
X213129247Y-98870342D01*
X213129247Y-98870342D02*
X213176866Y-98870342D01*
X213176866Y-98870342D02*
X213248295Y-98894152D01*
X213248295Y-98894152D02*
X213534009Y-99179866D01*
X213534009Y-99179866D02*
X213534009Y-98870342D01*
X183039209Y-132261047D02*
X182539209Y-132261047D01*
X182539209Y-132261047D02*
X182539209Y-132141999D01*
X182539209Y-132141999D02*
X182563019Y-132070571D01*
X182563019Y-132070571D02*
X182610638Y-132022952D01*
X182610638Y-132022952D02*
X182658257Y-131999142D01*
X182658257Y-131999142D02*
X182753495Y-131975333D01*
X182753495Y-131975333D02*
X182824923Y-131975333D01*
X182824923Y-131975333D02*
X182920161Y-131999142D01*
X182920161Y-131999142D02*
X182967780Y-132022952D01*
X182967780Y-132022952D02*
X183015400Y-132070571D01*
X183015400Y-132070571D02*
X183039209Y-132141999D01*
X183039209Y-132141999D02*
X183039209Y-132261047D01*
X182753495Y-131689618D02*
X182729685Y-131737237D01*
X182729685Y-131737237D02*
X182705876Y-131761047D01*
X182705876Y-131761047D02*
X182658257Y-131784856D01*
X182658257Y-131784856D02*
X182634447Y-131784856D01*
X182634447Y-131784856D02*
X182586828Y-131761047D01*
X182586828Y-131761047D02*
X182563019Y-131737237D01*
X182563019Y-131737237D02*
X182539209Y-131689618D01*
X182539209Y-131689618D02*
X182539209Y-131594380D01*
X182539209Y-131594380D02*
X182563019Y-131546761D01*
X182563019Y-131546761D02*
X182586828Y-131522952D01*
X182586828Y-131522952D02*
X182634447Y-131499142D01*
X182634447Y-131499142D02*
X182658257Y-131499142D01*
X182658257Y-131499142D02*
X182705876Y-131522952D01*
X182705876Y-131522952D02*
X182729685Y-131546761D01*
X182729685Y-131546761D02*
X182753495Y-131594380D01*
X182753495Y-131594380D02*
X182753495Y-131689618D01*
X182753495Y-131689618D02*
X182777304Y-131737237D01*
X182777304Y-131737237D02*
X182801114Y-131761047D01*
X182801114Y-131761047D02*
X182848733Y-131784856D01*
X182848733Y-131784856D02*
X182943971Y-131784856D01*
X182943971Y-131784856D02*
X182991590Y-131761047D01*
X182991590Y-131761047D02*
X183015400Y-131737237D01*
X183015400Y-131737237D02*
X183039209Y-131689618D01*
X183039209Y-131689618D02*
X183039209Y-131594380D01*
X183039209Y-131594380D02*
X183015400Y-131546761D01*
X183015400Y-131546761D02*
X182991590Y-131522952D01*
X182991590Y-131522952D02*
X182943971Y-131499142D01*
X182943971Y-131499142D02*
X182848733Y-131499142D01*
X182848733Y-131499142D02*
X182801114Y-131522952D01*
X182801114Y-131522952D02*
X182777304Y-131546761D01*
X182777304Y-131546761D02*
X182753495Y-131594380D01*
X235529990Y-118404533D02*
X235172847Y-118404533D01*
X235172847Y-118404533D02*
X235101419Y-118380724D01*
X235101419Y-118380724D02*
X235053800Y-118333105D01*
X235053800Y-118333105D02*
X235029990Y-118261676D01*
X235029990Y-118261676D02*
X235029990Y-118214057D01*
X235029990Y-118642628D02*
X235529990Y-118642628D01*
X235529990Y-118642628D02*
X235529990Y-118833104D01*
X235529990Y-118833104D02*
X235506180Y-118880723D01*
X235506180Y-118880723D02*
X235482371Y-118904533D01*
X235482371Y-118904533D02*
X235434752Y-118928342D01*
X235434752Y-118928342D02*
X235363323Y-118928342D01*
X235363323Y-118928342D02*
X235315704Y-118904533D01*
X235315704Y-118904533D02*
X235291895Y-118880723D01*
X235291895Y-118880723D02*
X235268085Y-118833104D01*
X235268085Y-118833104D02*
X235268085Y-118642628D01*
X235029990Y-119404533D02*
X235029990Y-119118819D01*
X235029990Y-119261676D02*
X235529990Y-119261676D01*
X235529990Y-119261676D02*
X235458561Y-119214057D01*
X235458561Y-119214057D02*
X235410942Y-119166438D01*
X235410942Y-119166438D02*
X235387133Y-119118819D01*
X216137371Y-104698190D02*
X216113562Y-104722000D01*
X216113562Y-104722000D02*
X216042133Y-104745809D01*
X216042133Y-104745809D02*
X215994514Y-104745809D01*
X215994514Y-104745809D02*
X215923086Y-104722000D01*
X215923086Y-104722000D02*
X215875467Y-104674380D01*
X215875467Y-104674380D02*
X215851657Y-104626761D01*
X215851657Y-104626761D02*
X215827848Y-104531523D01*
X215827848Y-104531523D02*
X215827848Y-104460095D01*
X215827848Y-104460095D02*
X215851657Y-104364857D01*
X215851657Y-104364857D02*
X215875467Y-104317238D01*
X215875467Y-104317238D02*
X215923086Y-104269619D01*
X215923086Y-104269619D02*
X215994514Y-104245809D01*
X215994514Y-104245809D02*
X216042133Y-104245809D01*
X216042133Y-104245809D02*
X216113562Y-104269619D01*
X216113562Y-104269619D02*
X216137371Y-104293428D01*
X216613562Y-104745809D02*
X216327848Y-104745809D01*
X216470705Y-104745809D02*
X216470705Y-104245809D01*
X216470705Y-104245809D02*
X216423086Y-104317238D01*
X216423086Y-104317238D02*
X216375467Y-104364857D01*
X216375467Y-104364857D02*
X216327848Y-104388666D01*
X216923085Y-104245809D02*
X216970704Y-104245809D01*
X216970704Y-104245809D02*
X217018323Y-104269619D01*
X217018323Y-104269619D02*
X217042133Y-104293428D01*
X217042133Y-104293428D02*
X217065942Y-104341047D01*
X217065942Y-104341047D02*
X217089752Y-104436285D01*
X217089752Y-104436285D02*
X217089752Y-104555333D01*
X217089752Y-104555333D02*
X217065942Y-104650571D01*
X217065942Y-104650571D02*
X217042133Y-104698190D01*
X217042133Y-104698190D02*
X217018323Y-104722000D01*
X217018323Y-104722000D02*
X216970704Y-104745809D01*
X216970704Y-104745809D02*
X216923085Y-104745809D01*
X216923085Y-104745809D02*
X216875466Y-104722000D01*
X216875466Y-104722000D02*
X216851657Y-104698190D01*
X216851657Y-104698190D02*
X216827847Y-104650571D01*
X216827847Y-104650571D02*
X216804038Y-104555333D01*
X216804038Y-104555333D02*
X216804038Y-104436285D01*
X216804038Y-104436285D02*
X216827847Y-104341047D01*
X216827847Y-104341047D02*
X216851657Y-104293428D01*
X216851657Y-104293428D02*
X216875466Y-104269619D01*
X216875466Y-104269619D02*
X216923085Y-104245809D01*
X171620009Y-136513866D02*
X171977152Y-136513866D01*
X171977152Y-136513866D02*
X172048580Y-136537675D01*
X172048580Y-136537675D02*
X172096200Y-136585294D01*
X172096200Y-136585294D02*
X172120009Y-136656723D01*
X172120009Y-136656723D02*
X172120009Y-136704342D01*
X172120009Y-136251961D02*
X172120009Y-136156723D01*
X172120009Y-136156723D02*
X172096200Y-136109104D01*
X172096200Y-136109104D02*
X172072390Y-136085295D01*
X172072390Y-136085295D02*
X172000961Y-136037676D01*
X172000961Y-136037676D02*
X171905723Y-136013866D01*
X171905723Y-136013866D02*
X171715247Y-136013866D01*
X171715247Y-136013866D02*
X171667628Y-136037676D01*
X171667628Y-136037676D02*
X171643819Y-136061485D01*
X171643819Y-136061485D02*
X171620009Y-136109104D01*
X171620009Y-136109104D02*
X171620009Y-136204342D01*
X171620009Y-136204342D02*
X171643819Y-136251961D01*
X171643819Y-136251961D02*
X171667628Y-136275771D01*
X171667628Y-136275771D02*
X171715247Y-136299580D01*
X171715247Y-136299580D02*
X171834295Y-136299580D01*
X171834295Y-136299580D02*
X171881914Y-136275771D01*
X171881914Y-136275771D02*
X171905723Y-136251961D01*
X171905723Y-136251961D02*
X171929533Y-136204342D01*
X171929533Y-136204342D02*
X171929533Y-136109104D01*
X171929533Y-136109104D02*
X171905723Y-136061485D01*
X171905723Y-136061485D02*
X171881914Y-136037676D01*
X171881914Y-136037676D02*
X171834295Y-136013866D01*
X193751247Y-121416209D02*
X193751247Y-121820971D01*
X193751247Y-121820971D02*
X193775057Y-121868590D01*
X193775057Y-121868590D02*
X193798866Y-121892400D01*
X193798866Y-121892400D02*
X193846485Y-121916209D01*
X193846485Y-121916209D02*
X193941723Y-121916209D01*
X193941723Y-121916209D02*
X193989342Y-121892400D01*
X193989342Y-121892400D02*
X194013152Y-121868590D01*
X194013152Y-121868590D02*
X194036961Y-121820971D01*
X194036961Y-121820971D02*
X194036961Y-121416209D01*
X194489343Y-121416209D02*
X194394105Y-121416209D01*
X194394105Y-121416209D02*
X194346486Y-121440019D01*
X194346486Y-121440019D02*
X194322676Y-121463828D01*
X194322676Y-121463828D02*
X194275057Y-121535257D01*
X194275057Y-121535257D02*
X194251248Y-121630495D01*
X194251248Y-121630495D02*
X194251248Y-121820971D01*
X194251248Y-121820971D02*
X194275057Y-121868590D01*
X194275057Y-121868590D02*
X194298867Y-121892400D01*
X194298867Y-121892400D02*
X194346486Y-121916209D01*
X194346486Y-121916209D02*
X194441724Y-121916209D01*
X194441724Y-121916209D02*
X194489343Y-121892400D01*
X194489343Y-121892400D02*
X194513152Y-121868590D01*
X194513152Y-121868590D02*
X194536962Y-121820971D01*
X194536962Y-121820971D02*
X194536962Y-121701923D01*
X194536962Y-121701923D02*
X194513152Y-121654304D01*
X194513152Y-121654304D02*
X194489343Y-121630495D01*
X194489343Y-121630495D02*
X194441724Y-121606685D01*
X194441724Y-121606685D02*
X194346486Y-121606685D01*
X194346486Y-121606685D02*
X194298867Y-121630495D01*
X194298867Y-121630495D02*
X194275057Y-121654304D01*
X194275057Y-121654304D02*
X194251248Y-121701923D01*
X227743528Y-113805561D02*
X227767337Y-113781752D01*
X227767337Y-113781752D02*
X227838766Y-113757942D01*
X227838766Y-113757942D02*
X227886385Y-113757942D01*
X227886385Y-113757942D02*
X227957813Y-113781752D01*
X227957813Y-113781752D02*
X228005432Y-113829371D01*
X228005432Y-113829371D02*
X228029242Y-113876990D01*
X228029242Y-113876990D02*
X228053051Y-113972228D01*
X228053051Y-113972228D02*
X228053051Y-114043656D01*
X228053051Y-114043656D02*
X228029242Y-114138894D01*
X228029242Y-114138894D02*
X228005432Y-114186513D01*
X228005432Y-114186513D02*
X227957813Y-114234132D01*
X227957813Y-114234132D02*
X227886385Y-114257942D01*
X227886385Y-114257942D02*
X227838766Y-114257942D01*
X227838766Y-114257942D02*
X227767337Y-114234132D01*
X227767337Y-114234132D02*
X227743528Y-114210323D01*
X227267337Y-113757942D02*
X227553051Y-113757942D01*
X227410194Y-113757942D02*
X227410194Y-114257942D01*
X227410194Y-114257942D02*
X227457813Y-114186513D01*
X227457813Y-114186513D02*
X227505432Y-114138894D01*
X227505432Y-114138894D02*
X227553051Y-114115085D01*
X226838766Y-114257942D02*
X226934004Y-114257942D01*
X226934004Y-114257942D02*
X226981623Y-114234132D01*
X226981623Y-114234132D02*
X227005433Y-114210323D01*
X227005433Y-114210323D02*
X227053052Y-114138894D01*
X227053052Y-114138894D02*
X227076861Y-114043656D01*
X227076861Y-114043656D02*
X227076861Y-113853180D01*
X227076861Y-113853180D02*
X227053052Y-113805561D01*
X227053052Y-113805561D02*
X227029242Y-113781752D01*
X227029242Y-113781752D02*
X226981623Y-113757942D01*
X226981623Y-113757942D02*
X226886385Y-113757942D01*
X226886385Y-113757942D02*
X226838766Y-113781752D01*
X226838766Y-113781752D02*
X226814957Y-113805561D01*
X226814957Y-113805561D02*
X226791147Y-113853180D01*
X226791147Y-113853180D02*
X226791147Y-113972228D01*
X226791147Y-113972228D02*
X226814957Y-114019847D01*
X226814957Y-114019847D02*
X226838766Y-114043656D01*
X226838766Y-114043656D02*
X226886385Y-114067466D01*
X226886385Y-114067466D02*
X226981623Y-114067466D01*
X226981623Y-114067466D02*
X227029242Y-114043656D01*
X227029242Y-114043656D02*
X227053052Y-114019847D01*
X227053052Y-114019847D02*
X227076861Y-113972228D01*
X200059171Y-127202590D02*
X200035362Y-127226400D01*
X200035362Y-127226400D02*
X199963933Y-127250209D01*
X199963933Y-127250209D02*
X199916314Y-127250209D01*
X199916314Y-127250209D02*
X199844886Y-127226400D01*
X199844886Y-127226400D02*
X199797267Y-127178780D01*
X199797267Y-127178780D02*
X199773457Y-127131161D01*
X199773457Y-127131161D02*
X199749648Y-127035923D01*
X199749648Y-127035923D02*
X199749648Y-126964495D01*
X199749648Y-126964495D02*
X199773457Y-126869257D01*
X199773457Y-126869257D02*
X199797267Y-126821638D01*
X199797267Y-126821638D02*
X199844886Y-126774019D01*
X199844886Y-126774019D02*
X199916314Y-126750209D01*
X199916314Y-126750209D02*
X199963933Y-126750209D01*
X199963933Y-126750209D02*
X200035362Y-126774019D01*
X200035362Y-126774019D02*
X200059171Y-126797828D01*
X200535362Y-127250209D02*
X200249648Y-127250209D01*
X200392505Y-127250209D02*
X200392505Y-126750209D01*
X200392505Y-126750209D02*
X200344886Y-126821638D01*
X200344886Y-126821638D02*
X200297267Y-126869257D01*
X200297267Y-126869257D02*
X200249648Y-126893066D01*
X200821076Y-126964495D02*
X200773457Y-126940685D01*
X200773457Y-126940685D02*
X200749647Y-126916876D01*
X200749647Y-126916876D02*
X200725838Y-126869257D01*
X200725838Y-126869257D02*
X200725838Y-126845447D01*
X200725838Y-126845447D02*
X200749647Y-126797828D01*
X200749647Y-126797828D02*
X200773457Y-126774019D01*
X200773457Y-126774019D02*
X200821076Y-126750209D01*
X200821076Y-126750209D02*
X200916314Y-126750209D01*
X200916314Y-126750209D02*
X200963933Y-126774019D01*
X200963933Y-126774019D02*
X200987742Y-126797828D01*
X200987742Y-126797828D02*
X201011552Y-126845447D01*
X201011552Y-126845447D02*
X201011552Y-126869257D01*
X201011552Y-126869257D02*
X200987742Y-126916876D01*
X200987742Y-126916876D02*
X200963933Y-126940685D01*
X200963933Y-126940685D02*
X200916314Y-126964495D01*
X200916314Y-126964495D02*
X200821076Y-126964495D01*
X200821076Y-126964495D02*
X200773457Y-126988304D01*
X200773457Y-126988304D02*
X200749647Y-127012114D01*
X200749647Y-127012114D02*
X200725838Y-127059733D01*
X200725838Y-127059733D02*
X200725838Y-127154971D01*
X200725838Y-127154971D02*
X200749647Y-127202590D01*
X200749647Y-127202590D02*
X200773457Y-127226400D01*
X200773457Y-127226400D02*
X200821076Y-127250209D01*
X200821076Y-127250209D02*
X200916314Y-127250209D01*
X200916314Y-127250209D02*
X200963933Y-127226400D01*
X200963933Y-127226400D02*
X200987742Y-127202590D01*
X200987742Y-127202590D02*
X201011552Y-127154971D01*
X201011552Y-127154971D02*
X201011552Y-127059733D01*
X201011552Y-127059733D02*
X200987742Y-127012114D01*
X200987742Y-127012114D02*
X200963933Y-126988304D01*
X200963933Y-126988304D02*
X200916314Y-126964495D01*
X219693371Y-100732609D02*
X219526705Y-100494514D01*
X219407657Y-100732609D02*
X219407657Y-100232609D01*
X219407657Y-100232609D02*
X219598133Y-100232609D01*
X219598133Y-100232609D02*
X219645752Y-100256419D01*
X219645752Y-100256419D02*
X219669562Y-100280228D01*
X219669562Y-100280228D02*
X219693371Y-100327847D01*
X219693371Y-100327847D02*
X219693371Y-100399276D01*
X219693371Y-100399276D02*
X219669562Y-100446895D01*
X219669562Y-100446895D02*
X219645752Y-100470704D01*
X219645752Y-100470704D02*
X219598133Y-100494514D01*
X219598133Y-100494514D02*
X219407657Y-100494514D01*
X219883848Y-100280228D02*
X219907657Y-100256419D01*
X219907657Y-100256419D02*
X219955276Y-100232609D01*
X219955276Y-100232609D02*
X220074324Y-100232609D01*
X220074324Y-100232609D02*
X220121943Y-100256419D01*
X220121943Y-100256419D02*
X220145752Y-100280228D01*
X220145752Y-100280228D02*
X220169562Y-100327847D01*
X220169562Y-100327847D02*
X220169562Y-100375466D01*
X220169562Y-100375466D02*
X220145752Y-100446895D01*
X220145752Y-100446895D02*
X219860038Y-100732609D01*
X219860038Y-100732609D02*
X220169562Y-100732609D01*
X220598133Y-100399276D02*
X220598133Y-100732609D01*
X220479085Y-100208800D02*
X220360038Y-100565942D01*
X220360038Y-100565942D02*
X220669561Y-100565942D01*
X238676847Y-103991390D02*
X238676847Y-104491390D01*
X238676847Y-104491390D02*
X238557799Y-104491390D01*
X238557799Y-104491390D02*
X238486371Y-104467580D01*
X238486371Y-104467580D02*
X238438752Y-104419961D01*
X238438752Y-104419961D02*
X238414942Y-104372342D01*
X238414942Y-104372342D02*
X238391133Y-104277104D01*
X238391133Y-104277104D02*
X238391133Y-104205676D01*
X238391133Y-104205676D02*
X238414942Y-104110438D01*
X238414942Y-104110438D02*
X238438752Y-104062819D01*
X238438752Y-104062819D02*
X238486371Y-104015200D01*
X238486371Y-104015200D02*
X238557799Y-103991390D01*
X238557799Y-103991390D02*
X238676847Y-103991390D01*
X237938752Y-104491390D02*
X238176847Y-104491390D01*
X238176847Y-104491390D02*
X238200656Y-104253295D01*
X238200656Y-104253295D02*
X238176847Y-104277104D01*
X238176847Y-104277104D02*
X238129228Y-104300914D01*
X238129228Y-104300914D02*
X238010180Y-104300914D01*
X238010180Y-104300914D02*
X237962561Y-104277104D01*
X237962561Y-104277104D02*
X237938752Y-104253295D01*
X237938752Y-104253295D02*
X237914942Y-104205676D01*
X237914942Y-104205676D02*
X237914942Y-104086628D01*
X237914942Y-104086628D02*
X237938752Y-104039009D01*
X237938752Y-104039009D02*
X237962561Y-104015200D01*
X237962561Y-104015200D02*
X238010180Y-103991390D01*
X238010180Y-103991390D02*
X238129228Y-103991390D01*
X238129228Y-103991390D02*
X238176847Y-104015200D01*
X238176847Y-104015200D02*
X238200656Y-104039009D01*
X218586134Y-140078800D02*
X218657562Y-140102609D01*
X218657562Y-140102609D02*
X218776610Y-140102609D01*
X218776610Y-140102609D02*
X218824229Y-140078800D01*
X218824229Y-140078800D02*
X218848038Y-140054990D01*
X218848038Y-140054990D02*
X218871848Y-140007371D01*
X218871848Y-140007371D02*
X218871848Y-139959752D01*
X218871848Y-139959752D02*
X218848038Y-139912133D01*
X218848038Y-139912133D02*
X218824229Y-139888323D01*
X218824229Y-139888323D02*
X218776610Y-139864514D01*
X218776610Y-139864514D02*
X218681372Y-139840704D01*
X218681372Y-139840704D02*
X218633753Y-139816895D01*
X218633753Y-139816895D02*
X218609943Y-139793085D01*
X218609943Y-139793085D02*
X218586134Y-139745466D01*
X218586134Y-139745466D02*
X218586134Y-139697847D01*
X218586134Y-139697847D02*
X218609943Y-139650228D01*
X218609943Y-139650228D02*
X218633753Y-139626419D01*
X218633753Y-139626419D02*
X218681372Y-139602609D01*
X218681372Y-139602609D02*
X218800419Y-139602609D01*
X218800419Y-139602609D02*
X218871848Y-139626419D01*
X219038514Y-139602609D02*
X219157562Y-140102609D01*
X219157562Y-140102609D02*
X219252800Y-139745466D01*
X219252800Y-139745466D02*
X219348038Y-140102609D01*
X219348038Y-140102609D02*
X219467086Y-139602609D01*
X219895657Y-139602609D02*
X219657562Y-139602609D01*
X219657562Y-139602609D02*
X219633753Y-139840704D01*
X219633753Y-139840704D02*
X219657562Y-139816895D01*
X219657562Y-139816895D02*
X219705181Y-139793085D01*
X219705181Y-139793085D02*
X219824229Y-139793085D01*
X219824229Y-139793085D02*
X219871848Y-139816895D01*
X219871848Y-139816895D02*
X219895657Y-139840704D01*
X219895657Y-139840704D02*
X219919467Y-139888323D01*
X219919467Y-139888323D02*
X219919467Y-140007371D01*
X219919467Y-140007371D02*
X219895657Y-140054990D01*
X219895657Y-140054990D02*
X219871848Y-140078800D01*
X219871848Y-140078800D02*
X219824229Y-140102609D01*
X219824229Y-140102609D02*
X219705181Y-140102609D01*
X219705181Y-140102609D02*
X219657562Y-140078800D01*
X219657562Y-140078800D02*
X219633753Y-140054990D01*
X191131209Y-115602533D02*
X190893114Y-115769199D01*
X191131209Y-115888247D02*
X190631209Y-115888247D01*
X190631209Y-115888247D02*
X190631209Y-115697771D01*
X190631209Y-115697771D02*
X190655019Y-115650152D01*
X190655019Y-115650152D02*
X190678828Y-115626342D01*
X190678828Y-115626342D02*
X190726447Y-115602533D01*
X190726447Y-115602533D02*
X190797876Y-115602533D01*
X190797876Y-115602533D02*
X190845495Y-115626342D01*
X190845495Y-115626342D02*
X190869304Y-115650152D01*
X190869304Y-115650152D02*
X190893114Y-115697771D01*
X190893114Y-115697771D02*
X190893114Y-115888247D01*
X190678828Y-115412056D02*
X190655019Y-115388247D01*
X190655019Y-115388247D02*
X190631209Y-115340628D01*
X190631209Y-115340628D02*
X190631209Y-115221580D01*
X190631209Y-115221580D02*
X190655019Y-115173961D01*
X190655019Y-115173961D02*
X190678828Y-115150152D01*
X190678828Y-115150152D02*
X190726447Y-115126342D01*
X190726447Y-115126342D02*
X190774066Y-115126342D01*
X190774066Y-115126342D02*
X190845495Y-115150152D01*
X190845495Y-115150152D02*
X191131209Y-115435866D01*
X191131209Y-115435866D02*
X191131209Y-115126342D01*
X228332714Y-108645294D02*
X228570809Y-108645294D01*
X228070809Y-108811960D02*
X228332714Y-108645294D01*
X228332714Y-108645294D02*
X228070809Y-108478627D01*
X228570809Y-108050056D02*
X228570809Y-108335770D01*
X228570809Y-108192913D02*
X228070809Y-108192913D01*
X228070809Y-108192913D02*
X228142238Y-108240532D01*
X228142238Y-108240532D02*
X228189857Y-108288151D01*
X228189857Y-108288151D02*
X228213666Y-108335770D01*
X211355857Y-133270009D02*
X211355857Y-132770009D01*
X211355857Y-132770009D02*
X211474905Y-132770009D01*
X211474905Y-132770009D02*
X211546333Y-132793819D01*
X211546333Y-132793819D02*
X211593952Y-132841438D01*
X211593952Y-132841438D02*
X211617762Y-132889057D01*
X211617762Y-132889057D02*
X211641571Y-132984295D01*
X211641571Y-132984295D02*
X211641571Y-133055723D01*
X211641571Y-133055723D02*
X211617762Y-133150961D01*
X211617762Y-133150961D02*
X211593952Y-133198580D01*
X211593952Y-133198580D02*
X211546333Y-133246200D01*
X211546333Y-133246200D02*
X211474905Y-133270009D01*
X211474905Y-133270009D02*
X211355857Y-133270009D01*
X212117762Y-133270009D02*
X211832048Y-133270009D01*
X211974905Y-133270009D02*
X211974905Y-132770009D01*
X211974905Y-132770009D02*
X211927286Y-132841438D01*
X211927286Y-132841438D02*
X211879667Y-132889057D01*
X211879667Y-132889057D02*
X211832048Y-132912866D01*
X212308238Y-132817628D02*
X212332047Y-132793819D01*
X212332047Y-132793819D02*
X212379666Y-132770009D01*
X212379666Y-132770009D02*
X212498714Y-132770009D01*
X212498714Y-132770009D02*
X212546333Y-132793819D01*
X212546333Y-132793819D02*
X212570142Y-132817628D01*
X212570142Y-132817628D02*
X212593952Y-132865247D01*
X212593952Y-132865247D02*
X212593952Y-132912866D01*
X212593952Y-132912866D02*
X212570142Y-132984295D01*
X212570142Y-132984295D02*
X212284428Y-133270009D01*
X212284428Y-133270009D02*
X212593952Y-133270009D01*
X177513466Y-130072790D02*
X177489657Y-130096600D01*
X177489657Y-130096600D02*
X177418228Y-130120409D01*
X177418228Y-130120409D02*
X177370609Y-130120409D01*
X177370609Y-130120409D02*
X177299181Y-130096600D01*
X177299181Y-130096600D02*
X177251562Y-130048980D01*
X177251562Y-130048980D02*
X177227752Y-130001361D01*
X177227752Y-130001361D02*
X177203943Y-129906123D01*
X177203943Y-129906123D02*
X177203943Y-129834695D01*
X177203943Y-129834695D02*
X177227752Y-129739457D01*
X177227752Y-129739457D02*
X177251562Y-129691838D01*
X177251562Y-129691838D02*
X177299181Y-129644219D01*
X177299181Y-129644219D02*
X177370609Y-129620409D01*
X177370609Y-129620409D02*
X177418228Y-129620409D01*
X177418228Y-129620409D02*
X177489657Y-129644219D01*
X177489657Y-129644219D02*
X177513466Y-129668028D01*
X177989657Y-130120409D02*
X177703943Y-130120409D01*
X177846800Y-130120409D02*
X177846800Y-129620409D01*
X177846800Y-129620409D02*
X177799181Y-129691838D01*
X177799181Y-129691838D02*
X177751562Y-129739457D01*
X177751562Y-129739457D02*
X177703943Y-129763266D01*
X174436772Y-127010049D02*
X174415588Y-127414256D01*
X174415588Y-127414256D02*
X174436873Y-127463056D01*
X174436873Y-127463056D02*
X174459403Y-127488079D01*
X174459403Y-127488079D02*
X174505711Y-127514348D01*
X174505711Y-127514348D02*
X174600819Y-127519332D01*
X174600819Y-127519332D02*
X174649619Y-127498047D01*
X174649619Y-127498047D02*
X174674642Y-127475517D01*
X174674642Y-127475517D02*
X174700911Y-127429209D01*
X174700911Y-127429209D02*
X174722094Y-127025002D01*
X174933595Y-127083770D02*
X174958618Y-127061240D01*
X174958618Y-127061240D02*
X175007417Y-127039955D01*
X175007417Y-127039955D02*
X175126302Y-127046185D01*
X175126302Y-127046185D02*
X175172610Y-127072454D01*
X175172610Y-127072454D02*
X175195140Y-127097477D01*
X175195140Y-127097477D02*
X175216425Y-127146277D01*
X175216425Y-127146277D02*
X175213933Y-127193831D01*
X175213933Y-127193831D02*
X175186418Y-127263916D01*
X175186418Y-127263916D02*
X174886142Y-127534285D01*
X174886142Y-127534285D02*
X175195242Y-127550485D01*
X223263800Y-128260360D02*
X223287609Y-128188932D01*
X223287609Y-128188932D02*
X223287609Y-128069884D01*
X223287609Y-128069884D02*
X223263800Y-128022265D01*
X223263800Y-128022265D02*
X223239990Y-127998456D01*
X223239990Y-127998456D02*
X223192371Y-127974646D01*
X223192371Y-127974646D02*
X223144752Y-127974646D01*
X223144752Y-127974646D02*
X223097133Y-127998456D01*
X223097133Y-127998456D02*
X223073323Y-128022265D01*
X223073323Y-128022265D02*
X223049514Y-128069884D01*
X223049514Y-128069884D02*
X223025704Y-128165122D01*
X223025704Y-128165122D02*
X223001895Y-128212741D01*
X223001895Y-128212741D02*
X222978085Y-128236551D01*
X222978085Y-128236551D02*
X222930466Y-128260360D01*
X222930466Y-128260360D02*
X222882847Y-128260360D01*
X222882847Y-128260360D02*
X222835228Y-128236551D01*
X222835228Y-128236551D02*
X222811419Y-128212741D01*
X222811419Y-128212741D02*
X222787609Y-128165122D01*
X222787609Y-128165122D02*
X222787609Y-128046075D01*
X222787609Y-128046075D02*
X222811419Y-127974646D01*
X222787609Y-127807980D02*
X223287609Y-127688932D01*
X223287609Y-127688932D02*
X222930466Y-127593694D01*
X222930466Y-127593694D02*
X223287609Y-127498456D01*
X223287609Y-127498456D02*
X222787609Y-127379409D01*
X223287609Y-126927027D02*
X223287609Y-127212741D01*
X223287609Y-127069884D02*
X222787609Y-127069884D01*
X222787609Y-127069884D02*
X222859038Y-127117503D01*
X222859038Y-127117503D02*
X222906657Y-127165122D01*
X222906657Y-127165122D02*
X222930466Y-127212741D01*
X223001895Y-126641313D02*
X222978085Y-126688932D01*
X222978085Y-126688932D02*
X222954276Y-126712742D01*
X222954276Y-126712742D02*
X222906657Y-126736551D01*
X222906657Y-126736551D02*
X222882847Y-126736551D01*
X222882847Y-126736551D02*
X222835228Y-126712742D01*
X222835228Y-126712742D02*
X222811419Y-126688932D01*
X222811419Y-126688932D02*
X222787609Y-126641313D01*
X222787609Y-126641313D02*
X222787609Y-126546075D01*
X222787609Y-126546075D02*
X222811419Y-126498456D01*
X222811419Y-126498456D02*
X222835228Y-126474647D01*
X222835228Y-126474647D02*
X222882847Y-126450837D01*
X222882847Y-126450837D02*
X222906657Y-126450837D01*
X222906657Y-126450837D02*
X222954276Y-126474647D01*
X222954276Y-126474647D02*
X222978085Y-126498456D01*
X222978085Y-126498456D02*
X223001895Y-126546075D01*
X223001895Y-126546075D02*
X223001895Y-126641313D01*
X223001895Y-126641313D02*
X223025704Y-126688932D01*
X223025704Y-126688932D02*
X223049514Y-126712742D01*
X223049514Y-126712742D02*
X223097133Y-126736551D01*
X223097133Y-126736551D02*
X223192371Y-126736551D01*
X223192371Y-126736551D02*
X223239990Y-126712742D01*
X223239990Y-126712742D02*
X223263800Y-126688932D01*
X223263800Y-126688932D02*
X223287609Y-126641313D01*
X223287609Y-126641313D02*
X223287609Y-126546075D01*
X223287609Y-126546075D02*
X223263800Y-126498456D01*
X223263800Y-126498456D02*
X223239990Y-126474647D01*
X223239990Y-126474647D02*
X223192371Y-126450837D01*
X223192371Y-126450837D02*
X223097133Y-126450837D01*
X223097133Y-126450837D02*
X223049514Y-126474647D01*
X223049514Y-126474647D02*
X223025704Y-126498456D01*
X223025704Y-126498456D02*
X223001895Y-126546075D01*
X216934266Y-101904190D02*
X216910457Y-101928000D01*
X216910457Y-101928000D02*
X216839028Y-101951809D01*
X216839028Y-101951809D02*
X216791409Y-101951809D01*
X216791409Y-101951809D02*
X216719981Y-101928000D01*
X216719981Y-101928000D02*
X216672362Y-101880380D01*
X216672362Y-101880380D02*
X216648552Y-101832761D01*
X216648552Y-101832761D02*
X216624743Y-101737523D01*
X216624743Y-101737523D02*
X216624743Y-101666095D01*
X216624743Y-101666095D02*
X216648552Y-101570857D01*
X216648552Y-101570857D02*
X216672362Y-101523238D01*
X216672362Y-101523238D02*
X216719981Y-101475619D01*
X216719981Y-101475619D02*
X216791409Y-101451809D01*
X216791409Y-101451809D02*
X216839028Y-101451809D01*
X216839028Y-101451809D02*
X216910457Y-101475619D01*
X216910457Y-101475619D02*
X216934266Y-101499428D01*
X217100933Y-101451809D02*
X217434266Y-101451809D01*
X217434266Y-101451809D02*
X217219981Y-101951809D01*
X246591971Y-130882409D02*
X246353876Y-130882409D01*
X246353876Y-130882409D02*
X246353876Y-130382409D01*
X247020543Y-130882409D02*
X246734829Y-130882409D01*
X246877686Y-130882409D02*
X246877686Y-130382409D01*
X246877686Y-130382409D02*
X246830067Y-130453838D01*
X246830067Y-130453838D02*
X246782448Y-130501457D01*
X246782448Y-130501457D02*
X246734829Y-130525266D01*
X247330066Y-130382409D02*
X247377685Y-130382409D01*
X247377685Y-130382409D02*
X247425304Y-130406219D01*
X247425304Y-130406219D02*
X247449114Y-130430028D01*
X247449114Y-130430028D02*
X247472923Y-130477647D01*
X247472923Y-130477647D02*
X247496733Y-130572885D01*
X247496733Y-130572885D02*
X247496733Y-130691933D01*
X247496733Y-130691933D02*
X247472923Y-130787171D01*
X247472923Y-130787171D02*
X247449114Y-130834790D01*
X247449114Y-130834790D02*
X247425304Y-130858600D01*
X247425304Y-130858600D02*
X247377685Y-130882409D01*
X247377685Y-130882409D02*
X247330066Y-130882409D01*
X247330066Y-130882409D02*
X247282447Y-130858600D01*
X247282447Y-130858600D02*
X247258638Y-130834790D01*
X247258638Y-130834790D02*
X247234828Y-130787171D01*
X247234828Y-130787171D02*
X247211019Y-130691933D01*
X247211019Y-130691933D02*
X247211019Y-130572885D01*
X247211019Y-130572885D02*
X247234828Y-130477647D01*
X247234828Y-130477647D02*
X247258638Y-130430028D01*
X247258638Y-130430028D02*
X247282447Y-130406219D01*
X247282447Y-130406219D02*
X247330066Y-130382409D01*
X197890790Y-98822628D02*
X197914600Y-98846437D01*
X197914600Y-98846437D02*
X197938409Y-98917866D01*
X197938409Y-98917866D02*
X197938409Y-98965485D01*
X197938409Y-98965485D02*
X197914600Y-99036913D01*
X197914600Y-99036913D02*
X197866980Y-99084532D01*
X197866980Y-99084532D02*
X197819361Y-99108342D01*
X197819361Y-99108342D02*
X197724123Y-99132151D01*
X197724123Y-99132151D02*
X197652695Y-99132151D01*
X197652695Y-99132151D02*
X197557457Y-99108342D01*
X197557457Y-99108342D02*
X197509838Y-99084532D01*
X197509838Y-99084532D02*
X197462219Y-99036913D01*
X197462219Y-99036913D02*
X197438409Y-98965485D01*
X197438409Y-98965485D02*
X197438409Y-98917866D01*
X197438409Y-98917866D02*
X197462219Y-98846437D01*
X197462219Y-98846437D02*
X197486028Y-98822628D01*
X197938409Y-98346437D02*
X197938409Y-98632151D01*
X197938409Y-98489294D02*
X197438409Y-98489294D01*
X197438409Y-98489294D02*
X197509838Y-98536913D01*
X197509838Y-98536913D02*
X197557457Y-98584532D01*
X197557457Y-98584532D02*
X197581266Y-98632151D01*
X197938409Y-98108342D02*
X197938409Y-98013104D01*
X197938409Y-98013104D02*
X197914600Y-97965485D01*
X197914600Y-97965485D02*
X197890790Y-97941676D01*
X197890790Y-97941676D02*
X197819361Y-97894057D01*
X197819361Y-97894057D02*
X197724123Y-97870247D01*
X197724123Y-97870247D02*
X197533647Y-97870247D01*
X197533647Y-97870247D02*
X197486028Y-97894057D01*
X197486028Y-97894057D02*
X197462219Y-97917866D01*
X197462219Y-97917866D02*
X197438409Y-97965485D01*
X197438409Y-97965485D02*
X197438409Y-98060723D01*
X197438409Y-98060723D02*
X197462219Y-98108342D01*
X197462219Y-98108342D02*
X197486028Y-98132152D01*
X197486028Y-98132152D02*
X197533647Y-98155961D01*
X197533647Y-98155961D02*
X197652695Y-98155961D01*
X197652695Y-98155961D02*
X197700314Y-98132152D01*
X197700314Y-98132152D02*
X197724123Y-98108342D01*
X197724123Y-98108342D02*
X197747933Y-98060723D01*
X197747933Y-98060723D02*
X197747933Y-97965485D01*
X197747933Y-97965485D02*
X197724123Y-97917866D01*
X197724123Y-97917866D02*
X197700314Y-97894057D01*
X197700314Y-97894057D02*
X197652695Y-97870247D01*
X195360171Y-104367990D02*
X195336362Y-104391800D01*
X195336362Y-104391800D02*
X195264933Y-104415609D01*
X195264933Y-104415609D02*
X195217314Y-104415609D01*
X195217314Y-104415609D02*
X195145886Y-104391800D01*
X195145886Y-104391800D02*
X195098267Y-104344180D01*
X195098267Y-104344180D02*
X195074457Y-104296561D01*
X195074457Y-104296561D02*
X195050648Y-104201323D01*
X195050648Y-104201323D02*
X195050648Y-104129895D01*
X195050648Y-104129895D02*
X195074457Y-104034657D01*
X195074457Y-104034657D02*
X195098267Y-103987038D01*
X195098267Y-103987038D02*
X195145886Y-103939419D01*
X195145886Y-103939419D02*
X195217314Y-103915609D01*
X195217314Y-103915609D02*
X195264933Y-103915609D01*
X195264933Y-103915609D02*
X195336362Y-103939419D01*
X195336362Y-103939419D02*
X195360171Y-103963228D01*
X195550648Y-103963228D02*
X195574457Y-103939419D01*
X195574457Y-103939419D02*
X195622076Y-103915609D01*
X195622076Y-103915609D02*
X195741124Y-103915609D01*
X195741124Y-103915609D02*
X195788743Y-103939419D01*
X195788743Y-103939419D02*
X195812552Y-103963228D01*
X195812552Y-103963228D02*
X195836362Y-104010847D01*
X195836362Y-104010847D02*
X195836362Y-104058466D01*
X195836362Y-104058466D02*
X195812552Y-104129895D01*
X195812552Y-104129895D02*
X195526838Y-104415609D01*
X195526838Y-104415609D02*
X195836362Y-104415609D01*
X196145885Y-103915609D02*
X196193504Y-103915609D01*
X196193504Y-103915609D02*
X196241123Y-103939419D01*
X196241123Y-103939419D02*
X196264933Y-103963228D01*
X196264933Y-103963228D02*
X196288742Y-104010847D01*
X196288742Y-104010847D02*
X196312552Y-104106085D01*
X196312552Y-104106085D02*
X196312552Y-104225133D01*
X196312552Y-104225133D02*
X196288742Y-104320371D01*
X196288742Y-104320371D02*
X196264933Y-104367990D01*
X196264933Y-104367990D02*
X196241123Y-104391800D01*
X196241123Y-104391800D02*
X196193504Y-104415609D01*
X196193504Y-104415609D02*
X196145885Y-104415609D01*
X196145885Y-104415609D02*
X196098266Y-104391800D01*
X196098266Y-104391800D02*
X196074457Y-104367990D01*
X196074457Y-104367990D02*
X196050647Y-104320371D01*
X196050647Y-104320371D02*
X196026838Y-104225133D01*
X196026838Y-104225133D02*
X196026838Y-104106085D01*
X196026838Y-104106085D02*
X196050647Y-104010847D01*
X196050647Y-104010847D02*
X196074457Y-103963228D01*
X196074457Y-103963228D02*
X196098266Y-103939419D01*
X196098266Y-103939419D02*
X196145885Y-103915609D01*
X226774990Y-94465057D02*
X227274990Y-94465057D01*
X227274990Y-94465057D02*
X227274990Y-94584105D01*
X227274990Y-94584105D02*
X227251180Y-94655533D01*
X227251180Y-94655533D02*
X227203561Y-94703152D01*
X227203561Y-94703152D02*
X227155942Y-94726962D01*
X227155942Y-94726962D02*
X227060704Y-94750771D01*
X227060704Y-94750771D02*
X226989276Y-94750771D01*
X226989276Y-94750771D02*
X226894038Y-94726962D01*
X226894038Y-94726962D02*
X226846419Y-94703152D01*
X226846419Y-94703152D02*
X226798800Y-94655533D01*
X226798800Y-94655533D02*
X226774990Y-94584105D01*
X226774990Y-94584105D02*
X226774990Y-94465057D01*
X226774990Y-95226962D02*
X226774990Y-94941248D01*
X226774990Y-95084105D02*
X227274990Y-95084105D01*
X227274990Y-95084105D02*
X227203561Y-95036486D01*
X227203561Y-95036486D02*
X227155942Y-94988867D01*
X227155942Y-94988867D02*
X227132133Y-94941248D01*
X227274990Y-95536485D02*
X227274990Y-95584104D01*
X227274990Y-95584104D02*
X227251180Y-95631723D01*
X227251180Y-95631723D02*
X227227371Y-95655533D01*
X227227371Y-95655533D02*
X227179752Y-95679342D01*
X227179752Y-95679342D02*
X227084514Y-95703152D01*
X227084514Y-95703152D02*
X226965466Y-95703152D01*
X226965466Y-95703152D02*
X226870228Y-95679342D01*
X226870228Y-95679342D02*
X226822609Y-95655533D01*
X226822609Y-95655533D02*
X226798800Y-95631723D01*
X226798800Y-95631723D02*
X226774990Y-95584104D01*
X226774990Y-95584104D02*
X226774990Y-95536485D01*
X226774990Y-95536485D02*
X226798800Y-95488866D01*
X226798800Y-95488866D02*
X226822609Y-95465057D01*
X226822609Y-95465057D02*
X226870228Y-95441247D01*
X226870228Y-95441247D02*
X226965466Y-95417438D01*
X226965466Y-95417438D02*
X227084514Y-95417438D01*
X227084514Y-95417438D02*
X227179752Y-95441247D01*
X227179752Y-95441247D02*
X227227371Y-95465057D01*
X227227371Y-95465057D02*
X227251180Y-95488866D01*
X227251180Y-95488866D02*
X227274990Y-95536485D01*
X184027048Y-95968409D02*
X184312762Y-95968409D01*
X184169905Y-96468409D02*
X184169905Y-95968409D01*
X184479428Y-96468409D02*
X184479428Y-95968409D01*
X184479428Y-95968409D02*
X184669904Y-95968409D01*
X184669904Y-95968409D02*
X184717523Y-95992219D01*
X184717523Y-95992219D02*
X184741333Y-96016028D01*
X184741333Y-96016028D02*
X184765142Y-96063647D01*
X184765142Y-96063647D02*
X184765142Y-96135076D01*
X184765142Y-96135076D02*
X184741333Y-96182695D01*
X184741333Y-96182695D02*
X184717523Y-96206504D01*
X184717523Y-96206504D02*
X184669904Y-96230314D01*
X184669904Y-96230314D02*
X184479428Y-96230314D01*
X185217523Y-95968409D02*
X184979428Y-95968409D01*
X184979428Y-95968409D02*
X184955619Y-96206504D01*
X184955619Y-96206504D02*
X184979428Y-96182695D01*
X184979428Y-96182695D02*
X185027047Y-96158885D01*
X185027047Y-96158885D02*
X185146095Y-96158885D01*
X185146095Y-96158885D02*
X185193714Y-96182695D01*
X185193714Y-96182695D02*
X185217523Y-96206504D01*
X185217523Y-96206504D02*
X185241333Y-96254123D01*
X185241333Y-96254123D02*
X185241333Y-96373171D01*
X185241333Y-96373171D02*
X185217523Y-96420790D01*
X185217523Y-96420790D02*
X185193714Y-96444600D01*
X185193714Y-96444600D02*
X185146095Y-96468409D01*
X185146095Y-96468409D02*
X185027047Y-96468409D01*
X185027047Y-96468409D02*
X184979428Y-96444600D01*
X184979428Y-96444600D02*
X184955619Y-96420790D01*
X189610390Y-119158533D02*
X189634200Y-119182342D01*
X189634200Y-119182342D02*
X189658009Y-119253771D01*
X189658009Y-119253771D02*
X189658009Y-119301390D01*
X189658009Y-119301390D02*
X189634200Y-119372818D01*
X189634200Y-119372818D02*
X189586580Y-119420437D01*
X189586580Y-119420437D02*
X189538961Y-119444247D01*
X189538961Y-119444247D02*
X189443723Y-119468056D01*
X189443723Y-119468056D02*
X189372295Y-119468056D01*
X189372295Y-119468056D02*
X189277057Y-119444247D01*
X189277057Y-119444247D02*
X189229438Y-119420437D01*
X189229438Y-119420437D02*
X189181819Y-119372818D01*
X189181819Y-119372818D02*
X189158009Y-119301390D01*
X189158009Y-119301390D02*
X189158009Y-119253771D01*
X189158009Y-119253771D02*
X189181819Y-119182342D01*
X189181819Y-119182342D02*
X189205628Y-119158533D01*
X189205628Y-118968056D02*
X189181819Y-118944247D01*
X189181819Y-118944247D02*
X189158009Y-118896628D01*
X189158009Y-118896628D02*
X189158009Y-118777580D01*
X189158009Y-118777580D02*
X189181819Y-118729961D01*
X189181819Y-118729961D02*
X189205628Y-118706152D01*
X189205628Y-118706152D02*
X189253247Y-118682342D01*
X189253247Y-118682342D02*
X189300866Y-118682342D01*
X189300866Y-118682342D02*
X189372295Y-118706152D01*
X189372295Y-118706152D02*
X189658009Y-118991866D01*
X189658009Y-118991866D02*
X189658009Y-118682342D01*
X214373800Y-127752360D02*
X214397609Y-127680932D01*
X214397609Y-127680932D02*
X214397609Y-127561884D01*
X214397609Y-127561884D02*
X214373800Y-127514265D01*
X214373800Y-127514265D02*
X214349990Y-127490456D01*
X214349990Y-127490456D02*
X214302371Y-127466646D01*
X214302371Y-127466646D02*
X214254752Y-127466646D01*
X214254752Y-127466646D02*
X214207133Y-127490456D01*
X214207133Y-127490456D02*
X214183323Y-127514265D01*
X214183323Y-127514265D02*
X214159514Y-127561884D01*
X214159514Y-127561884D02*
X214135704Y-127657122D01*
X214135704Y-127657122D02*
X214111895Y-127704741D01*
X214111895Y-127704741D02*
X214088085Y-127728551D01*
X214088085Y-127728551D02*
X214040466Y-127752360D01*
X214040466Y-127752360D02*
X213992847Y-127752360D01*
X213992847Y-127752360D02*
X213945228Y-127728551D01*
X213945228Y-127728551D02*
X213921419Y-127704741D01*
X213921419Y-127704741D02*
X213897609Y-127657122D01*
X213897609Y-127657122D02*
X213897609Y-127538075D01*
X213897609Y-127538075D02*
X213921419Y-127466646D01*
X213897609Y-127299980D02*
X214397609Y-127180932D01*
X214397609Y-127180932D02*
X214040466Y-127085694D01*
X214040466Y-127085694D02*
X214397609Y-126990456D01*
X214397609Y-126990456D02*
X213897609Y-126871409D01*
X214397609Y-126419027D02*
X214397609Y-126704741D01*
X214397609Y-126561884D02*
X213897609Y-126561884D01*
X213897609Y-126561884D02*
X213969038Y-126609503D01*
X213969038Y-126609503D02*
X214016657Y-126657122D01*
X214016657Y-126657122D02*
X214040466Y-126704741D01*
X214397609Y-126180932D02*
X214397609Y-126085694D01*
X214397609Y-126085694D02*
X214373800Y-126038075D01*
X214373800Y-126038075D02*
X214349990Y-126014266D01*
X214349990Y-126014266D02*
X214278561Y-125966647D01*
X214278561Y-125966647D02*
X214183323Y-125942837D01*
X214183323Y-125942837D02*
X213992847Y-125942837D01*
X213992847Y-125942837D02*
X213945228Y-125966647D01*
X213945228Y-125966647D02*
X213921419Y-125990456D01*
X213921419Y-125990456D02*
X213897609Y-126038075D01*
X213897609Y-126038075D02*
X213897609Y-126133313D01*
X213897609Y-126133313D02*
X213921419Y-126180932D01*
X213921419Y-126180932D02*
X213945228Y-126204742D01*
X213945228Y-126204742D02*
X213992847Y-126228551D01*
X213992847Y-126228551D02*
X214111895Y-126228551D01*
X214111895Y-126228551D02*
X214159514Y-126204742D01*
X214159514Y-126204742D02*
X214183323Y-126180932D01*
X214183323Y-126180932D02*
X214207133Y-126133313D01*
X214207133Y-126133313D02*
X214207133Y-126038075D01*
X214207133Y-126038075D02*
X214183323Y-125990456D01*
X214183323Y-125990456D02*
X214159514Y-125966647D01*
X214159514Y-125966647D02*
X214111895Y-125942837D01*
X190039009Y-131112342D02*
X189539009Y-131112342D01*
X189539009Y-131112342D02*
X189539009Y-130993294D01*
X189539009Y-130993294D02*
X189562819Y-130921866D01*
X189562819Y-130921866D02*
X189610438Y-130874247D01*
X189610438Y-130874247D02*
X189658057Y-130850437D01*
X189658057Y-130850437D02*
X189753295Y-130826628D01*
X189753295Y-130826628D02*
X189824723Y-130826628D01*
X189824723Y-130826628D02*
X189919961Y-130850437D01*
X189919961Y-130850437D02*
X189967580Y-130874247D01*
X189967580Y-130874247D02*
X190015200Y-130921866D01*
X190015200Y-130921866D02*
X190039009Y-130993294D01*
X190039009Y-130993294D02*
X190039009Y-131112342D01*
X190039009Y-130350437D02*
X190039009Y-130636151D01*
X190039009Y-130493294D02*
X189539009Y-130493294D01*
X189539009Y-130493294D02*
X189610438Y-130540913D01*
X189610438Y-130540913D02*
X189658057Y-130588532D01*
X189658057Y-130588532D02*
X189681866Y-130636151D01*
X190039009Y-129874247D02*
X190039009Y-130159961D01*
X190039009Y-130017104D02*
X189539009Y-130017104D01*
X189539009Y-130017104D02*
X189610438Y-130064723D01*
X189610438Y-130064723D02*
X189658057Y-130112342D01*
X189658057Y-130112342D02*
X189681866Y-130159961D01*
X209883380Y-130828428D02*
X209835761Y-130804619D01*
X209835761Y-130804619D02*
X209788142Y-130757000D01*
X209788142Y-130757000D02*
X209716714Y-130685571D01*
X209716714Y-130685571D02*
X209669095Y-130661761D01*
X209669095Y-130661761D02*
X209621476Y-130661761D01*
X209645285Y-130780809D02*
X209597666Y-130757000D01*
X209597666Y-130757000D02*
X209550047Y-130709380D01*
X209550047Y-130709380D02*
X209526238Y-130614142D01*
X209526238Y-130614142D02*
X209526238Y-130447476D01*
X209526238Y-130447476D02*
X209550047Y-130352238D01*
X209550047Y-130352238D02*
X209597666Y-130304619D01*
X209597666Y-130304619D02*
X209645285Y-130280809D01*
X209645285Y-130280809D02*
X209740523Y-130280809D01*
X209740523Y-130280809D02*
X209788142Y-130304619D01*
X209788142Y-130304619D02*
X209835761Y-130352238D01*
X209835761Y-130352238D02*
X209859571Y-130447476D01*
X209859571Y-130447476D02*
X209859571Y-130614142D01*
X209859571Y-130614142D02*
X209835761Y-130709380D01*
X209835761Y-130709380D02*
X209788142Y-130757000D01*
X209788142Y-130757000D02*
X209740523Y-130780809D01*
X209740523Y-130780809D02*
X209645285Y-130780809D01*
X210050048Y-130328428D02*
X210073857Y-130304619D01*
X210073857Y-130304619D02*
X210121476Y-130280809D01*
X210121476Y-130280809D02*
X210240524Y-130280809D01*
X210240524Y-130280809D02*
X210288143Y-130304619D01*
X210288143Y-130304619D02*
X210311952Y-130328428D01*
X210311952Y-130328428D02*
X210335762Y-130376047D01*
X210335762Y-130376047D02*
X210335762Y-130423666D01*
X210335762Y-130423666D02*
X210311952Y-130495095D01*
X210311952Y-130495095D02*
X210026238Y-130780809D01*
X210026238Y-130780809D02*
X210335762Y-130780809D01*
X197688247Y-95228809D02*
X197688247Y-95633571D01*
X197688247Y-95633571D02*
X197712057Y-95681190D01*
X197712057Y-95681190D02*
X197735866Y-95705000D01*
X197735866Y-95705000D02*
X197783485Y-95728809D01*
X197783485Y-95728809D02*
X197878723Y-95728809D01*
X197878723Y-95728809D02*
X197926342Y-95705000D01*
X197926342Y-95705000D02*
X197950152Y-95681190D01*
X197950152Y-95681190D02*
X197973961Y-95633571D01*
X197973961Y-95633571D02*
X197973961Y-95228809D01*
X198473962Y-95728809D02*
X198188248Y-95728809D01*
X198331105Y-95728809D02*
X198331105Y-95228809D01*
X198331105Y-95228809D02*
X198283486Y-95300238D01*
X198283486Y-95300238D02*
X198235867Y-95347857D01*
X198235867Y-95347857D02*
X198188248Y-95371666D01*
X227720355Y-115238652D02*
X227696546Y-115262462D01*
X227696546Y-115262462D02*
X227625117Y-115286271D01*
X227625117Y-115286271D02*
X227577498Y-115286271D01*
X227577498Y-115286271D02*
X227506070Y-115262462D01*
X227506070Y-115262462D02*
X227458451Y-115214842D01*
X227458451Y-115214842D02*
X227434641Y-115167223D01*
X227434641Y-115167223D02*
X227410832Y-115071985D01*
X227410832Y-115071985D02*
X227410832Y-115000557D01*
X227410832Y-115000557D02*
X227434641Y-114905319D01*
X227434641Y-114905319D02*
X227458451Y-114857700D01*
X227458451Y-114857700D02*
X227506070Y-114810081D01*
X227506070Y-114810081D02*
X227577498Y-114786271D01*
X227577498Y-114786271D02*
X227625117Y-114786271D01*
X227625117Y-114786271D02*
X227696546Y-114810081D01*
X227696546Y-114810081D02*
X227720355Y-114833890D01*
X227910832Y-114833890D02*
X227934641Y-114810081D01*
X227934641Y-114810081D02*
X227982260Y-114786271D01*
X227982260Y-114786271D02*
X228101308Y-114786271D01*
X228101308Y-114786271D02*
X228148927Y-114810081D01*
X228148927Y-114810081D02*
X228172736Y-114833890D01*
X228172736Y-114833890D02*
X228196546Y-114881509D01*
X228196546Y-114881509D02*
X228196546Y-114929128D01*
X228196546Y-114929128D02*
X228172736Y-115000557D01*
X228172736Y-115000557D02*
X227887022Y-115286271D01*
X227887022Y-115286271D02*
X228196546Y-115286271D01*
X228625117Y-114952938D02*
X228625117Y-115286271D01*
X228506069Y-114762462D02*
X228387022Y-115119604D01*
X228387022Y-115119604D02*
X228696545Y-115119604D01*
X233803209Y-101718228D02*
X233565114Y-101884894D01*
X233803209Y-102003942D02*
X233303209Y-102003942D01*
X233303209Y-102003942D02*
X233303209Y-101813466D01*
X233303209Y-101813466D02*
X233327019Y-101765847D01*
X233327019Y-101765847D02*
X233350828Y-101742037D01*
X233350828Y-101742037D02*
X233398447Y-101718228D01*
X233398447Y-101718228D02*
X233469876Y-101718228D01*
X233469876Y-101718228D02*
X233517495Y-101742037D01*
X233517495Y-101742037D02*
X233541304Y-101765847D01*
X233541304Y-101765847D02*
X233565114Y-101813466D01*
X233565114Y-101813466D02*
X233565114Y-102003942D01*
X233803209Y-101242037D02*
X233803209Y-101527751D01*
X233803209Y-101384894D02*
X233303209Y-101384894D01*
X233303209Y-101384894D02*
X233374638Y-101432513D01*
X233374638Y-101432513D02*
X233422257Y-101480132D01*
X233422257Y-101480132D02*
X233446066Y-101527751D01*
X233303209Y-101075371D02*
X233303209Y-100765847D01*
X233303209Y-100765847D02*
X233493685Y-100932514D01*
X233493685Y-100932514D02*
X233493685Y-100861085D01*
X233493685Y-100861085D02*
X233517495Y-100813466D01*
X233517495Y-100813466D02*
X233541304Y-100789657D01*
X233541304Y-100789657D02*
X233588923Y-100765847D01*
X233588923Y-100765847D02*
X233707971Y-100765847D01*
X233707971Y-100765847D02*
X233755590Y-100789657D01*
X233755590Y-100789657D02*
X233779400Y-100813466D01*
X233779400Y-100813466D02*
X233803209Y-100861085D01*
X233803209Y-100861085D02*
X233803209Y-101003942D01*
X233803209Y-101003942D02*
X233779400Y-101051561D01*
X233779400Y-101051561D02*
X233755590Y-101075371D01*
X236371790Y-108296828D02*
X236395600Y-108320637D01*
X236395600Y-108320637D02*
X236419409Y-108392066D01*
X236419409Y-108392066D02*
X236419409Y-108439685D01*
X236419409Y-108439685D02*
X236395600Y-108511113D01*
X236395600Y-108511113D02*
X236347980Y-108558732D01*
X236347980Y-108558732D02*
X236300361Y-108582542D01*
X236300361Y-108582542D02*
X236205123Y-108606351D01*
X236205123Y-108606351D02*
X236133695Y-108606351D01*
X236133695Y-108606351D02*
X236038457Y-108582542D01*
X236038457Y-108582542D02*
X235990838Y-108558732D01*
X235990838Y-108558732D02*
X235943219Y-108511113D01*
X235943219Y-108511113D02*
X235919409Y-108439685D01*
X235919409Y-108439685D02*
X235919409Y-108392066D01*
X235919409Y-108392066D02*
X235943219Y-108320637D01*
X235943219Y-108320637D02*
X235967028Y-108296828D01*
X236419409Y-107820637D02*
X236419409Y-108106351D01*
X236419409Y-107963494D02*
X235919409Y-107963494D01*
X235919409Y-107963494D02*
X235990838Y-108011113D01*
X235990838Y-108011113D02*
X236038457Y-108058732D01*
X236038457Y-108058732D02*
X236062266Y-108106351D01*
X236086076Y-107392066D02*
X236419409Y-107392066D01*
X235895600Y-107511114D02*
X236252742Y-107630161D01*
X236252742Y-107630161D02*
X236252742Y-107320638D01*
X256586103Y-109469435D02*
X256348008Y-109469435D01*
X256348008Y-109469435D02*
X256348008Y-108969435D01*
X257014675Y-109469435D02*
X256728961Y-109469435D01*
X256871818Y-109469435D02*
X256871818Y-108969435D01*
X256871818Y-108969435D02*
X256824199Y-109040864D01*
X256824199Y-109040864D02*
X256776580Y-109088483D01*
X256776580Y-109088483D02*
X256728961Y-109112292D01*
X257490865Y-109469435D02*
X257205151Y-109469435D01*
X257348008Y-109469435D02*
X257348008Y-108969435D01*
X257348008Y-108969435D02*
X257300389Y-109040864D01*
X257300389Y-109040864D02*
X257252770Y-109088483D01*
X257252770Y-109088483D02*
X257205151Y-109112292D01*
X215291666Y-107452190D02*
X215267857Y-107476000D01*
X215267857Y-107476000D02*
X215196428Y-107499809D01*
X215196428Y-107499809D02*
X215148809Y-107499809D01*
X215148809Y-107499809D02*
X215077381Y-107476000D01*
X215077381Y-107476000D02*
X215029762Y-107428380D01*
X215029762Y-107428380D02*
X215005952Y-107380761D01*
X215005952Y-107380761D02*
X214982143Y-107285523D01*
X214982143Y-107285523D02*
X214982143Y-107214095D01*
X214982143Y-107214095D02*
X215005952Y-107118857D01*
X215005952Y-107118857D02*
X215029762Y-107071238D01*
X215029762Y-107071238D02*
X215077381Y-107023619D01*
X215077381Y-107023619D02*
X215148809Y-106999809D01*
X215148809Y-106999809D02*
X215196428Y-106999809D01*
X215196428Y-106999809D02*
X215267857Y-107023619D01*
X215267857Y-107023619D02*
X215291666Y-107047428D01*
X215529762Y-107499809D02*
X215625000Y-107499809D01*
X215625000Y-107499809D02*
X215672619Y-107476000D01*
X215672619Y-107476000D02*
X215696428Y-107452190D01*
X215696428Y-107452190D02*
X215744047Y-107380761D01*
X215744047Y-107380761D02*
X215767857Y-107285523D01*
X215767857Y-107285523D02*
X215767857Y-107095047D01*
X215767857Y-107095047D02*
X215744047Y-107047428D01*
X215744047Y-107047428D02*
X215720238Y-107023619D01*
X215720238Y-107023619D02*
X215672619Y-106999809D01*
X215672619Y-106999809D02*
X215577381Y-106999809D01*
X215577381Y-106999809D02*
X215529762Y-107023619D01*
X215529762Y-107023619D02*
X215505952Y-107047428D01*
X215505952Y-107047428D02*
X215482143Y-107095047D01*
X215482143Y-107095047D02*
X215482143Y-107214095D01*
X215482143Y-107214095D02*
X215505952Y-107261714D01*
X215505952Y-107261714D02*
X215529762Y-107285523D01*
X215529762Y-107285523D02*
X215577381Y-107309333D01*
X215577381Y-107309333D02*
X215672619Y-107309333D01*
X215672619Y-107309333D02*
X215720238Y-107285523D01*
X215720238Y-107285523D02*
X215744047Y-107261714D01*
X215744047Y-107261714D02*
X215767857Y-107214095D01*
X232667790Y-115527971D02*
X232905885Y-115361305D01*
X232667790Y-115242257D02*
X233167790Y-115242257D01*
X233167790Y-115242257D02*
X233167790Y-115432733D01*
X233167790Y-115432733D02*
X233143980Y-115480352D01*
X233143980Y-115480352D02*
X233120171Y-115504162D01*
X233120171Y-115504162D02*
X233072552Y-115527971D01*
X233072552Y-115527971D02*
X233001123Y-115527971D01*
X233001123Y-115527971D02*
X232953504Y-115504162D01*
X232953504Y-115504162D02*
X232929695Y-115480352D01*
X232929695Y-115480352D02*
X232905885Y-115432733D01*
X232905885Y-115432733D02*
X232905885Y-115242257D01*
X232667790Y-116004162D02*
X232667790Y-115718448D01*
X232667790Y-115861305D02*
X233167790Y-115861305D01*
X233167790Y-115861305D02*
X233096361Y-115813686D01*
X233096361Y-115813686D02*
X233048742Y-115766067D01*
X233048742Y-115766067D02*
X233024933Y-115718448D01*
X233167790Y-116456542D02*
X233167790Y-116218447D01*
X233167790Y-116218447D02*
X232929695Y-116194638D01*
X232929695Y-116194638D02*
X232953504Y-116218447D01*
X232953504Y-116218447D02*
X232977314Y-116266066D01*
X232977314Y-116266066D02*
X232977314Y-116385114D01*
X232977314Y-116385114D02*
X232953504Y-116432733D01*
X232953504Y-116432733D02*
X232929695Y-116456542D01*
X232929695Y-116456542D02*
X232882076Y-116480352D01*
X232882076Y-116480352D02*
X232763028Y-116480352D01*
X232763028Y-116480352D02*
X232715409Y-116456542D01*
X232715409Y-116456542D02*
X232691600Y-116432733D01*
X232691600Y-116432733D02*
X232667790Y-116385114D01*
X232667790Y-116385114D02*
X232667790Y-116266066D01*
X232667790Y-116266066D02*
X232691600Y-116218447D01*
X232691600Y-116218447D02*
X232715409Y-116194638D01*
X207238647Y-113770809D02*
X207238647Y-114175571D01*
X207238647Y-114175571D02*
X207262457Y-114223190D01*
X207262457Y-114223190D02*
X207286266Y-114247000D01*
X207286266Y-114247000D02*
X207333885Y-114270809D01*
X207333885Y-114270809D02*
X207429123Y-114270809D01*
X207429123Y-114270809D02*
X207476742Y-114247000D01*
X207476742Y-114247000D02*
X207500552Y-114223190D01*
X207500552Y-114223190D02*
X207524361Y-114175571D01*
X207524361Y-114175571D02*
X207524361Y-113770809D01*
X208000552Y-113770809D02*
X207762457Y-113770809D01*
X207762457Y-113770809D02*
X207738648Y-114008904D01*
X207738648Y-114008904D02*
X207762457Y-113985095D01*
X207762457Y-113985095D02*
X207810076Y-113961285D01*
X207810076Y-113961285D02*
X207929124Y-113961285D01*
X207929124Y-113961285D02*
X207976743Y-113985095D01*
X207976743Y-113985095D02*
X208000552Y-114008904D01*
X208000552Y-114008904D02*
X208024362Y-114056523D01*
X208024362Y-114056523D02*
X208024362Y-114175571D01*
X208024362Y-114175571D02*
X208000552Y-114223190D01*
X208000552Y-114223190D02*
X207976743Y-114247000D01*
X207976743Y-114247000D02*
X207929124Y-114270809D01*
X207929124Y-114270809D02*
X207810076Y-114270809D01*
X207810076Y-114270809D02*
X207762457Y-114247000D01*
X207762457Y-114247000D02*
X207738648Y-114223190D01*
X225916809Y-119432552D02*
X226321571Y-119432552D01*
X226321571Y-119432552D02*
X226369190Y-119408742D01*
X226369190Y-119408742D02*
X226393000Y-119384933D01*
X226393000Y-119384933D02*
X226416809Y-119337314D01*
X226416809Y-119337314D02*
X226416809Y-119242076D01*
X226416809Y-119242076D02*
X226393000Y-119194457D01*
X226393000Y-119194457D02*
X226369190Y-119170647D01*
X226369190Y-119170647D02*
X226321571Y-119146838D01*
X226321571Y-119146838D02*
X225916809Y-119146838D01*
X226083476Y-118694456D02*
X226416809Y-118694456D01*
X225893000Y-118813504D02*
X226250142Y-118932551D01*
X226250142Y-118932551D02*
X226250142Y-118623028D01*
X218951180Y-99840428D02*
X218903561Y-99816619D01*
X218903561Y-99816619D02*
X218855942Y-99769000D01*
X218855942Y-99769000D02*
X218784514Y-99697571D01*
X218784514Y-99697571D02*
X218736895Y-99673761D01*
X218736895Y-99673761D02*
X218689276Y-99673761D01*
X218713085Y-99792809D02*
X218665466Y-99769000D01*
X218665466Y-99769000D02*
X218617847Y-99721380D01*
X218617847Y-99721380D02*
X218594038Y-99626142D01*
X218594038Y-99626142D02*
X218594038Y-99459476D01*
X218594038Y-99459476D02*
X218617847Y-99364238D01*
X218617847Y-99364238D02*
X218665466Y-99316619D01*
X218665466Y-99316619D02*
X218713085Y-99292809D01*
X218713085Y-99292809D02*
X218808323Y-99292809D01*
X218808323Y-99292809D02*
X218855942Y-99316619D01*
X218855942Y-99316619D02*
X218903561Y-99364238D01*
X218903561Y-99364238D02*
X218927371Y-99459476D01*
X218927371Y-99459476D02*
X218927371Y-99626142D01*
X218927371Y-99626142D02*
X218903561Y-99721380D01*
X218903561Y-99721380D02*
X218855942Y-99769000D01*
X218855942Y-99769000D02*
X218808323Y-99792809D01*
X218808323Y-99792809D02*
X218713085Y-99792809D01*
X219355943Y-99459476D02*
X219355943Y-99792809D01*
X219236895Y-99269000D02*
X219117848Y-99626142D01*
X219117848Y-99626142D02*
X219427371Y-99626142D01*
X220139600Y-119894265D02*
X220163409Y-119822837D01*
X220163409Y-119822837D02*
X220163409Y-119703789D01*
X220163409Y-119703789D02*
X220139600Y-119656170D01*
X220139600Y-119656170D02*
X220115790Y-119632361D01*
X220115790Y-119632361D02*
X220068171Y-119608551D01*
X220068171Y-119608551D02*
X220020552Y-119608551D01*
X220020552Y-119608551D02*
X219972933Y-119632361D01*
X219972933Y-119632361D02*
X219949123Y-119656170D01*
X219949123Y-119656170D02*
X219925314Y-119703789D01*
X219925314Y-119703789D02*
X219901504Y-119799027D01*
X219901504Y-119799027D02*
X219877695Y-119846646D01*
X219877695Y-119846646D02*
X219853885Y-119870456D01*
X219853885Y-119870456D02*
X219806266Y-119894265D01*
X219806266Y-119894265D02*
X219758647Y-119894265D01*
X219758647Y-119894265D02*
X219711028Y-119870456D01*
X219711028Y-119870456D02*
X219687219Y-119846646D01*
X219687219Y-119846646D02*
X219663409Y-119799027D01*
X219663409Y-119799027D02*
X219663409Y-119679980D01*
X219663409Y-119679980D02*
X219687219Y-119608551D01*
X219663409Y-119441885D02*
X220163409Y-119322837D01*
X220163409Y-119322837D02*
X219806266Y-119227599D01*
X219806266Y-119227599D02*
X220163409Y-119132361D01*
X220163409Y-119132361D02*
X219663409Y-119013314D01*
X220163409Y-118799027D02*
X220163409Y-118703789D01*
X220163409Y-118703789D02*
X220139600Y-118656170D01*
X220139600Y-118656170D02*
X220115790Y-118632361D01*
X220115790Y-118632361D02*
X220044361Y-118584742D01*
X220044361Y-118584742D02*
X219949123Y-118560932D01*
X219949123Y-118560932D02*
X219758647Y-118560932D01*
X219758647Y-118560932D02*
X219711028Y-118584742D01*
X219711028Y-118584742D02*
X219687219Y-118608551D01*
X219687219Y-118608551D02*
X219663409Y-118656170D01*
X219663409Y-118656170D02*
X219663409Y-118751408D01*
X219663409Y-118751408D02*
X219687219Y-118799027D01*
X219687219Y-118799027D02*
X219711028Y-118822837D01*
X219711028Y-118822837D02*
X219758647Y-118846646D01*
X219758647Y-118846646D02*
X219877695Y-118846646D01*
X219877695Y-118846646D02*
X219925314Y-118822837D01*
X219925314Y-118822837D02*
X219949123Y-118799027D01*
X219949123Y-118799027D02*
X219972933Y-118751408D01*
X219972933Y-118751408D02*
X219972933Y-118656170D01*
X219972933Y-118656170D02*
X219949123Y-118608551D01*
X219949123Y-118608551D02*
X219925314Y-118584742D01*
X219925314Y-118584742D02*
X219877695Y-118560932D01*
X169146938Y-125386929D02*
X168909169Y-125374468D01*
X168909169Y-125374468D02*
X168935337Y-124875153D01*
X169291990Y-124893844D02*
X169601090Y-124910044D01*
X169601090Y-124910044D02*
X169424683Y-125091536D01*
X169424683Y-125091536D02*
X169496014Y-125095274D01*
X169496014Y-125095274D02*
X169542321Y-125121543D01*
X169542321Y-125121543D02*
X169564852Y-125146566D01*
X169564852Y-125146566D02*
X169586137Y-125195366D01*
X169586137Y-125195366D02*
X169579906Y-125314251D01*
X169579906Y-125314251D02*
X169553637Y-125360558D01*
X169553637Y-125360558D02*
X169528614Y-125383089D01*
X169528614Y-125383089D02*
X169479815Y-125404374D01*
X169479815Y-125404374D02*
X169337153Y-125396897D01*
X169337153Y-125396897D02*
X169290845Y-125370628D01*
X169290845Y-125370628D02*
X169268315Y-125345605D01*
X230120209Y-101308647D02*
X229620209Y-101308647D01*
X229620209Y-101308647D02*
X229620209Y-101189599D01*
X229620209Y-101189599D02*
X229644019Y-101118171D01*
X229644019Y-101118171D02*
X229691638Y-101070552D01*
X229691638Y-101070552D02*
X229739257Y-101046742D01*
X229739257Y-101046742D02*
X229834495Y-101022933D01*
X229834495Y-101022933D02*
X229905923Y-101022933D01*
X229905923Y-101022933D02*
X230001161Y-101046742D01*
X230001161Y-101046742D02*
X230048780Y-101070552D01*
X230048780Y-101070552D02*
X230096400Y-101118171D01*
X230096400Y-101118171D02*
X230120209Y-101189599D01*
X230120209Y-101189599D02*
X230120209Y-101308647D01*
X230120209Y-100784837D02*
X230120209Y-100689599D01*
X230120209Y-100689599D02*
X230096400Y-100641980D01*
X230096400Y-100641980D02*
X230072590Y-100618171D01*
X230072590Y-100618171D02*
X230001161Y-100570552D01*
X230001161Y-100570552D02*
X229905923Y-100546742D01*
X229905923Y-100546742D02*
X229715447Y-100546742D01*
X229715447Y-100546742D02*
X229667828Y-100570552D01*
X229667828Y-100570552D02*
X229644019Y-100594361D01*
X229644019Y-100594361D02*
X229620209Y-100641980D01*
X229620209Y-100641980D02*
X229620209Y-100737218D01*
X229620209Y-100737218D02*
X229644019Y-100784837D01*
X229644019Y-100784837D02*
X229667828Y-100808647D01*
X229667828Y-100808647D02*
X229715447Y-100832456D01*
X229715447Y-100832456D02*
X229834495Y-100832456D01*
X229834495Y-100832456D02*
X229882114Y-100808647D01*
X229882114Y-100808647D02*
X229905923Y-100784837D01*
X229905923Y-100784837D02*
X229929733Y-100737218D01*
X229929733Y-100737218D02*
X229929733Y-100641980D01*
X229929733Y-100641980D02*
X229905923Y-100594361D01*
X229905923Y-100594361D02*
X229882114Y-100570552D01*
X229882114Y-100570552D02*
X229834495Y-100546742D01*
X225265628Y-95348419D02*
X225241819Y-95396038D01*
X225241819Y-95396038D02*
X225194200Y-95443657D01*
X225194200Y-95443657D02*
X225122771Y-95515085D01*
X225122771Y-95515085D02*
X225098961Y-95562704D01*
X225098961Y-95562704D02*
X225098961Y-95610323D01*
X225218009Y-95586514D02*
X225194200Y-95634133D01*
X225194200Y-95634133D02*
X225146580Y-95681752D01*
X225146580Y-95681752D02*
X225051342Y-95705561D01*
X225051342Y-95705561D02*
X224884676Y-95705561D01*
X224884676Y-95705561D02*
X224789438Y-95681752D01*
X224789438Y-95681752D02*
X224741819Y-95634133D01*
X224741819Y-95634133D02*
X224718009Y-95586514D01*
X224718009Y-95586514D02*
X224718009Y-95491276D01*
X224718009Y-95491276D02*
X224741819Y-95443657D01*
X224741819Y-95443657D02*
X224789438Y-95396038D01*
X224789438Y-95396038D02*
X224884676Y-95372228D01*
X224884676Y-95372228D02*
X225051342Y-95372228D01*
X225051342Y-95372228D02*
X225146580Y-95396038D01*
X225146580Y-95396038D02*
X225194200Y-95443657D01*
X225194200Y-95443657D02*
X225218009Y-95491276D01*
X225218009Y-95491276D02*
X225218009Y-95586514D01*
X224718009Y-95205561D02*
X224718009Y-94896037D01*
X224718009Y-94896037D02*
X224908485Y-95062704D01*
X224908485Y-95062704D02*
X224908485Y-94991275D01*
X224908485Y-94991275D02*
X224932295Y-94943656D01*
X224932295Y-94943656D02*
X224956104Y-94919847D01*
X224956104Y-94919847D02*
X225003723Y-94896037D01*
X225003723Y-94896037D02*
X225122771Y-94896037D01*
X225122771Y-94896037D02*
X225170390Y-94919847D01*
X225170390Y-94919847D02*
X225194200Y-94943656D01*
X225194200Y-94943656D02*
X225218009Y-94991275D01*
X225218009Y-94991275D02*
X225218009Y-95134132D01*
X225218009Y-95134132D02*
X225194200Y-95181751D01*
X225194200Y-95181751D02*
X225170390Y-95205561D01*
X239281447Y-110366790D02*
X239281447Y-110866790D01*
X239281447Y-110866790D02*
X239162399Y-110866790D01*
X239162399Y-110866790D02*
X239090971Y-110842980D01*
X239090971Y-110842980D02*
X239043352Y-110795361D01*
X239043352Y-110795361D02*
X239019542Y-110747742D01*
X239019542Y-110747742D02*
X238995733Y-110652504D01*
X238995733Y-110652504D02*
X238995733Y-110581076D01*
X238995733Y-110581076D02*
X239019542Y-110485838D01*
X239019542Y-110485838D02*
X239043352Y-110438219D01*
X239043352Y-110438219D02*
X239090971Y-110390600D01*
X239090971Y-110390600D02*
X239162399Y-110366790D01*
X239162399Y-110366790D02*
X239281447Y-110366790D01*
X238567161Y-110700123D02*
X238567161Y-110366790D01*
X238686209Y-110890600D02*
X238805256Y-110533457D01*
X238805256Y-110533457D02*
X238495733Y-110533457D01*
X216781866Y-142287009D02*
X216543771Y-142287009D01*
X216543771Y-142287009D02*
X216543771Y-141787009D01*
X217162819Y-141787009D02*
X217067581Y-141787009D01*
X217067581Y-141787009D02*
X217019962Y-141810819D01*
X217019962Y-141810819D02*
X216996152Y-141834628D01*
X216996152Y-141834628D02*
X216948533Y-141906057D01*
X216948533Y-141906057D02*
X216924724Y-142001295D01*
X216924724Y-142001295D02*
X216924724Y-142191771D01*
X216924724Y-142191771D02*
X216948533Y-142239390D01*
X216948533Y-142239390D02*
X216972343Y-142263200D01*
X216972343Y-142263200D02*
X217019962Y-142287009D01*
X217019962Y-142287009D02*
X217115200Y-142287009D01*
X217115200Y-142287009D02*
X217162819Y-142263200D01*
X217162819Y-142263200D02*
X217186628Y-142239390D01*
X217186628Y-142239390D02*
X217210438Y-142191771D01*
X217210438Y-142191771D02*
X217210438Y-142072723D01*
X217210438Y-142072723D02*
X217186628Y-142025104D01*
X217186628Y-142025104D02*
X217162819Y-142001295D01*
X217162819Y-142001295D02*
X217115200Y-141977485D01*
X217115200Y-141977485D02*
X217019962Y-141977485D01*
X217019962Y-141977485D02*
X216972343Y-142001295D01*
X216972343Y-142001295D02*
X216948533Y-142025104D01*
X216948533Y-142025104D02*
X216924724Y-142072723D01*
X234733352Y-116353609D02*
X234733352Y-115853609D01*
X234733352Y-115853609D02*
X234852400Y-115853609D01*
X234852400Y-115853609D02*
X234923828Y-115877419D01*
X234923828Y-115877419D02*
X234971447Y-115925038D01*
X234971447Y-115925038D02*
X234995257Y-115972657D01*
X234995257Y-115972657D02*
X235019066Y-116067895D01*
X235019066Y-116067895D02*
X235019066Y-116139323D01*
X235019066Y-116139323D02*
X234995257Y-116234561D01*
X234995257Y-116234561D02*
X234971447Y-116282180D01*
X234971447Y-116282180D02*
X234923828Y-116329800D01*
X234923828Y-116329800D02*
X234852400Y-116353609D01*
X234852400Y-116353609D02*
X234733352Y-116353609D01*
X235495257Y-116353609D02*
X235209543Y-116353609D01*
X235352400Y-116353609D02*
X235352400Y-115853609D01*
X235352400Y-115853609D02*
X235304781Y-115925038D01*
X235304781Y-115925038D02*
X235257162Y-115972657D01*
X235257162Y-115972657D02*
X235209543Y-115996466D01*
X217860009Y-108381752D02*
X218264771Y-108381752D01*
X218264771Y-108381752D02*
X218312390Y-108357942D01*
X218312390Y-108357942D02*
X218336200Y-108334133D01*
X218336200Y-108334133D02*
X218360009Y-108286514D01*
X218360009Y-108286514D02*
X218360009Y-108191276D01*
X218360009Y-108191276D02*
X218336200Y-108143657D01*
X218336200Y-108143657D02*
X218312390Y-108119847D01*
X218312390Y-108119847D02*
X218264771Y-108096038D01*
X218264771Y-108096038D02*
X217860009Y-108096038D01*
X218360009Y-107834132D02*
X218360009Y-107738894D01*
X218360009Y-107738894D02*
X218336200Y-107691275D01*
X218336200Y-107691275D02*
X218312390Y-107667466D01*
X218312390Y-107667466D02*
X218240961Y-107619847D01*
X218240961Y-107619847D02*
X218145723Y-107596037D01*
X218145723Y-107596037D02*
X217955247Y-107596037D01*
X217955247Y-107596037D02*
X217907628Y-107619847D01*
X217907628Y-107619847D02*
X217883819Y-107643656D01*
X217883819Y-107643656D02*
X217860009Y-107691275D01*
X217860009Y-107691275D02*
X217860009Y-107786513D01*
X217860009Y-107786513D02*
X217883819Y-107834132D01*
X217883819Y-107834132D02*
X217907628Y-107857942D01*
X217907628Y-107857942D02*
X217955247Y-107881751D01*
X217955247Y-107881751D02*
X218074295Y-107881751D01*
X218074295Y-107881751D02*
X218121914Y-107857942D01*
X218121914Y-107857942D02*
X218145723Y-107834132D01*
X218145723Y-107834132D02*
X218169533Y-107786513D01*
X218169533Y-107786513D02*
X218169533Y-107691275D01*
X218169533Y-107691275D02*
X218145723Y-107643656D01*
X218145723Y-107643656D02*
X218121914Y-107619847D01*
X218121914Y-107619847D02*
X218074295Y-107596037D01*
D11*
%TO.C,C17*%
X230346364Y-112847800D02*
X230562036Y-112847800D01*
X230346364Y-113567800D02*
X230562036Y-113567800D01*
%TO.C,C4*%
X231979800Y-122562252D02*
X231979800Y-122039748D01*
X233449800Y-122562252D02*
X233449800Y-122039748D01*
%TO.C,R35*%
X267742400Y-128017241D02*
X267742400Y-127709959D01*
X268502400Y-128017241D02*
X268502400Y-127709959D01*
%TO.C,SW16*%
D12*
X206827000Y-135499400D02*
X208725400Y-135499400D01*
X208725400Y-133397800D01*
X206827000Y-133397800D01*
X206827000Y-135499400D01*
D11*
%TO.C,R22*%
X224907500Y-87572742D02*
X224907500Y-88047258D01*
X225952500Y-87572742D02*
X225952500Y-88047258D01*
%TO.C,R38*%
X240294900Y-98941658D02*
X240294900Y-98467142D01*
X241339900Y-98941658D02*
X241339900Y-98467142D01*
%TO.C,J8*%
X252397200Y-132835200D02*
X252397200Y-131775200D01*
X253457200Y-132835200D02*
X252397200Y-132835200D01*
X254457200Y-130715200D02*
X256517200Y-130715200D01*
X254457200Y-132835200D02*
X254457200Y-130715200D01*
X254457200Y-132835200D02*
X256517200Y-132835200D01*
X256517200Y-132835200D02*
X256517200Y-130715200D01*
%TO.C,L5*%
X229953452Y-121673600D02*
X229430948Y-121673600D01*
X229953452Y-123893600D02*
X229430948Y-123893600D01*
D13*
%TO.C,U10*%
X200389600Y-114577200D02*
X200389600Y-114877200D01*
X200389600Y-114577200D02*
X201189600Y-114577200D01*
X200389600Y-117177200D02*
X200389600Y-117477200D01*
X200389600Y-117477200D02*
X201189600Y-117477200D01*
X203789600Y-114577200D02*
X202989600Y-114577200D01*
X203789600Y-114877200D02*
X203789600Y-114577200D01*
X203789600Y-117477200D02*
X202989600Y-117477200D01*
X203789600Y-117477200D02*
X203789600Y-117177200D01*
X204689600Y-116777200D02*
G75*
G02*
X204289600Y-116777200I-200000J0D01*
G01*
X204289600Y-116777200D02*
G75*
G02*
X204689600Y-116777200I200000J0D01*
G01*
D11*
%TO.C,C12*%
X201129020Y-112723200D02*
X201410180Y-112723200D01*
X201129020Y-113743200D02*
X201410180Y-113743200D01*
%TO.C,U13*%
X216023000Y-95870600D02*
X216023000Y-95420600D01*
X218293000Y-95870600D02*
X218293000Y-95420600D01*
X218293000Y-96690600D02*
X218293000Y-97140600D01*
X216018000Y-97030600D02*
X215688000Y-97270600D01*
X215688000Y-96790600D01*
X216018000Y-97030600D01*
G36*
X216018000Y-97030600D02*
G01*
X215688000Y-97270600D01*
X215688000Y-96790600D01*
X216018000Y-97030600D01*
G37*
%TO.C,Q1*%
X208612500Y-126506800D02*
X207962500Y-126506800D01*
X208612500Y-126506800D02*
X209262500Y-126506800D01*
X208612500Y-129626800D02*
X207962500Y-129626800D01*
X208612500Y-129626800D02*
X209262500Y-129626800D01*
X207450000Y-126556800D02*
X207210000Y-126226800D01*
X207690000Y-126226800D01*
X207450000Y-126556800D01*
G36*
X207450000Y-126556800D02*
G01*
X207210000Y-126226800D01*
X207690000Y-126226800D01*
X207450000Y-126556800D01*
G37*
D14*
%TO.C,REF\u002A\u002A*%
X168315130Y-141073810D02*
X168315130Y-143776261D01*
X162915755Y-143776261D01*
X161064870Y-141950988D01*
X161064870Y-138763740D01*
X166032692Y-138763740D01*
X168315130Y-141073810D01*
D11*
%TO.C,C3*%
X231729000Y-95581600D02*
X231729000Y-99491600D01*
X233599000Y-95581600D02*
X231729000Y-95581600D01*
X233599000Y-99491600D02*
X233599000Y-95581600D01*
%TO.C,R21*%
X210617500Y-87552742D02*
X210617500Y-88027258D01*
X211662500Y-87552742D02*
X211662500Y-88027258D01*
%TO.C,R34*%
X266726400Y-127709959D02*
X266726400Y-128017241D01*
X267486400Y-127709959D02*
X267486400Y-128017241D01*
%TO.C,L2*%
X167265881Y-111045834D02*
X167372228Y-109016619D01*
X167372228Y-109016619D02*
X169401443Y-109122966D01*
X169295096Y-111152181D02*
X167265881Y-111045834D01*
X169401443Y-109122966D02*
X169295096Y-111152181D01*
X166883725Y-111526551D02*
G75*
G02*
X166580257Y-111526551I-151734J0D01*
G01*
X166580257Y-111526551D02*
G75*
G02*
X166883725Y-111526551I151734J0D01*
G01*
%TO.C,R37*%
X238770900Y-99330742D02*
X238770900Y-99805258D01*
X239815900Y-99330742D02*
X239815900Y-99805258D01*
%TO.C,U12*%
D12*
X207677200Y-125704600D02*
X200057200Y-125704600D01*
X200057200Y-120624600D01*
X207677200Y-120624600D01*
X207677200Y-125704600D01*
X208237805Y-126085600D02*
G75*
G02*
X207878595Y-126085600I-179605J0D01*
G01*
X207878595Y-126085600D02*
G75*
G02*
X208237805Y-126085600I179605J0D01*
G01*
D11*
%TO.C,C8*%
X218446236Y-102306800D02*
X218230564Y-102306800D01*
X218446236Y-103026800D02*
X218230564Y-103026800D01*
%TO.C,L1*%
X185265881Y-111045834D02*
X185372228Y-109016619D01*
X185372228Y-109016619D02*
X187401443Y-109122966D01*
X187295096Y-111152181D02*
X185265881Y-111045834D01*
X187401443Y-109122966D02*
X187295096Y-111152181D01*
X184883725Y-111526551D02*
G75*
G02*
X184580257Y-111526551I-151734J0D01*
G01*
X184580257Y-111526551D02*
G75*
G02*
X184883725Y-111526551I151734J0D01*
G01*
%TO.C,L12*%
X258617657Y-120568400D02*
X260649657Y-120568400D01*
X258617657Y-122600400D02*
X258617657Y-120568400D01*
X260649657Y-120568400D02*
X260649657Y-122600400D01*
X260649657Y-122600400D02*
X258617657Y-122600400D01*
X258261391Y-123108400D02*
G75*
G02*
X257957923Y-123108400I-151734J0D01*
G01*
X257957923Y-123108400D02*
G75*
G02*
X258261391Y-123108400I151734J0D01*
G01*
D12*
%TO.C,U11*%
X230530400Y-113893600D02*
X232156000Y-113893600D01*
X230530400Y-114909600D02*
X230530400Y-113893600D01*
X232156000Y-113893600D02*
X232156000Y-114909600D01*
X232156000Y-114909600D02*
X230530400Y-114909600D01*
X230440792Y-115112800D02*
G75*
G02*
X230213608Y-115112800I-113592J0D01*
G01*
X230213608Y-115112800D02*
G75*
G02*
X230440792Y-115112800I113592J0D01*
G01*
D11*
%TO.C,C5*%
X227554200Y-101466764D02*
X227554200Y-101682436D01*
X228274200Y-101466764D02*
X228274200Y-101682436D01*
%TO.C,R36*%
X188732900Y-98789258D02*
X188732900Y-98314742D01*
X189777900Y-98789258D02*
X189777900Y-98314742D01*
%TO.C,C23*%
X225985400Y-122776348D02*
X225985400Y-123298852D01*
X227455400Y-122776348D02*
X227455400Y-123298852D01*
%TO.C,R11*%
X191463959Y-107976400D02*
X191771241Y-107976400D01*
X191463959Y-108736400D02*
X191771241Y-108736400D01*
%TO.C,R4*%
X190282300Y-98314742D02*
X190282300Y-98789258D01*
X191327300Y-98314742D02*
X191327300Y-98789258D01*
D15*
%TO.C,SW7*%
X164618494Y-101487048D02*
X165819994Y-103568107D01*
X165823360Y-103571937D02*
X171980800Y-100016937D01*
X171980800Y-100016937D02*
X170775934Y-97932048D01*
%TO.C,SW8*%
X264988246Y-100017937D02*
X271145686Y-103572937D01*
X266191380Y-97932048D02*
X264989880Y-100013107D01*
X271145686Y-103572937D02*
X272348820Y-101487048D01*
%TO.C,SW17*%
X211496157Y-120766400D02*
X211496157Y-116266400D01*
X212866157Y-121066400D02*
X215226157Y-121066400D01*
X215226157Y-115966400D02*
X212866157Y-115966400D01*
X216596157Y-120766400D02*
X216596157Y-116266400D01*
D16*
X216021157Y-114266400D02*
G75*
G02*
X215821157Y-114266400I-100000J0D01*
G01*
X215821157Y-114266400D02*
G75*
G02*
X216021157Y-114266400I100000J0D01*
G01*
D11*
%TO.C,C13*%
X197573020Y-116330000D02*
X197854180Y-116330000D01*
X197573020Y-117350000D02*
X197854180Y-117350000D01*
%TO.C,D13*%
X211278400Y-136570900D02*
X212688400Y-136570900D01*
X211288400Y-138890900D02*
X212688400Y-138890900D01*
X210908400Y-136620900D02*
X210668400Y-136290900D01*
X211148400Y-136290900D01*
X210908400Y-136620900D01*
G36*
X210908400Y-136620900D02*
G01*
X210668400Y-136290900D01*
X211148400Y-136290900D01*
X210908400Y-136620900D01*
G37*
%TO.C,U8*%
X219874800Y-103798100D02*
X220524800Y-103798100D01*
X219874800Y-104448100D02*
X219874800Y-103798100D01*
X219874800Y-110368100D02*
X219874800Y-110718100D01*
X220524800Y-111018100D02*
X220114800Y-111018100D01*
X227094800Y-103798100D02*
X226444800Y-103798100D01*
X227094800Y-104448100D02*
X227094800Y-103798100D01*
X227094800Y-110368100D02*
X227094800Y-111018100D01*
X227094800Y-111018100D02*
X226444800Y-111018100D01*
X219874800Y-111018100D02*
X219544800Y-111258100D01*
X219544800Y-110778100D01*
X219874800Y-111018100D01*
G36*
X219874800Y-111018100D02*
G01*
X219544800Y-111258100D01*
X219544800Y-110778100D01*
X219874800Y-111018100D01*
G37*
%TO.C,L13*%
X273130617Y-117078002D02*
X275162617Y-117078002D01*
X273130617Y-119110002D02*
X273130617Y-117078002D01*
X275162617Y-117078002D02*
X275162617Y-119110002D01*
X275162617Y-119110002D02*
X273130617Y-119110002D01*
X272774351Y-119618002D02*
G75*
G02*
X272470883Y-119618002I-151734J0D01*
G01*
X272470883Y-119618002D02*
G75*
G02*
X272774351Y-119618002I151734J0D01*
G01*
%TO.C,L4*%
X185265881Y-124045834D02*
X185372228Y-122016619D01*
X185372228Y-122016619D02*
X187401443Y-122122966D01*
X187295096Y-124152181D02*
X185265881Y-124045834D01*
X187401443Y-122122966D02*
X187295096Y-124152181D01*
X184883725Y-124526551D02*
G75*
G02*
X184580257Y-124526551I-151734J0D01*
G01*
X184580257Y-124526551D02*
G75*
G02*
X184883725Y-124526551I151734J0D01*
G01*
%TO.C,J4*%
X267320200Y-143135800D02*
X267320200Y-145255800D01*
X277380200Y-143135800D02*
X267320200Y-143135800D01*
X277380200Y-143135800D02*
X277380200Y-145255800D01*
X277380200Y-145255800D02*
X267320200Y-145255800D01*
X278380200Y-143135800D02*
X279440200Y-143135800D01*
X279440200Y-143135800D02*
X279440200Y-144195800D01*
%TO.C,R14*%
X233665500Y-107814342D02*
X233665500Y-108288858D01*
X234710500Y-107814342D02*
X234710500Y-108288858D01*
%TO.C,D2*%
X213018000Y-98580800D02*
X213018000Y-95320800D01*
X213018000Y-98580800D02*
X214718000Y-98580800D01*
X214718000Y-98580800D02*
X214718000Y-95320800D01*
%TO.C,D8*%
X183904400Y-132602000D02*
X183904400Y-131192000D01*
X186224400Y-132592000D02*
X186224400Y-131192000D01*
X183954400Y-132972000D02*
X183624400Y-133212000D01*
X183624400Y-132732000D01*
X183954400Y-132972000D01*
G36*
X183954400Y-132972000D02*
G01*
X183624400Y-133212000D01*
X183624400Y-132732000D01*
X183954400Y-132972000D01*
G37*
%TO.C,JP1*%
X232578400Y-117421200D02*
X234578400Y-117421200D01*
X232578400Y-120221200D02*
X232578400Y-117421200D01*
X234578400Y-117421200D02*
X234578400Y-120221200D01*
X234578400Y-120221200D02*
X232578400Y-120221200D01*
%TO.C,C10*%
X218151764Y-104135600D02*
X218367436Y-104135600D01*
X218151764Y-104855600D02*
X218367436Y-104855600D01*
%TO.C,J9*%
X172895200Y-137407200D02*
X172895200Y-136347200D01*
X173955200Y-137407200D02*
X172895200Y-137407200D01*
X174955200Y-135287200D02*
X177015200Y-135287200D01*
X174955200Y-137407200D02*
X174955200Y-135287200D01*
X174955200Y-137407200D02*
X177015200Y-137407200D01*
X177015200Y-137407200D02*
X177015200Y-135287200D01*
%TO.C,U6*%
X196037200Y-117820800D02*
X194537200Y-117820800D01*
X196037200Y-117820800D02*
X197537200Y-117820800D01*
X196037200Y-121040800D02*
X194537200Y-121040800D01*
X196037200Y-121040800D02*
X197537200Y-121040800D01*
X193824700Y-117995800D02*
X193584700Y-117665800D01*
X194064700Y-117665800D01*
X193824700Y-117995800D01*
G36*
X193824700Y-117995800D02*
G01*
X193584700Y-117665800D01*
X194064700Y-117665800D01*
X193824700Y-117995800D01*
G37*
%TO.C,D5*%
X240277800Y-104935800D02*
X238877800Y-104935800D01*
X240287800Y-107255800D02*
X238877800Y-107255800D01*
X240897800Y-107535800D02*
X240417800Y-107535800D01*
X240657800Y-107205800D01*
X240897800Y-107535800D01*
G36*
X240897800Y-107535800D02*
G01*
X240417800Y-107535800D01*
X240657800Y-107205800D01*
X240897800Y-107535800D01*
G37*
D15*
%TO.C,SW5*%
X215933657Y-135298800D02*
X215933657Y-137658800D01*
X216233657Y-133928800D02*
X220733657Y-133928800D01*
X216233657Y-139028800D02*
X220733657Y-139028800D01*
X221033657Y-137658800D02*
X221033657Y-135298800D01*
D16*
X222833657Y-138353800D02*
G75*
G02*
X222633657Y-138353800I-100000J0D01*
G01*
X222633657Y-138353800D02*
G75*
G02*
X222833657Y-138353800I100000J0D01*
G01*
D11*
%TO.C,Y1*%
X228873200Y-104905400D02*
X230873200Y-104905400D01*
X228873200Y-105705400D02*
X228873200Y-104905400D01*
X228873200Y-108505400D02*
X228873200Y-107505400D01*
X228873200Y-108705400D02*
X230873200Y-108705400D01*
X230873200Y-104905400D02*
X231273200Y-104905400D01*
X230873200Y-108505400D02*
X228873200Y-108505400D01*
X230873200Y-108505400D02*
X231273200Y-108505400D01*
X230873200Y-108705400D02*
X231273200Y-108705400D01*
X231273200Y-104905400D02*
X231273200Y-105705400D01*
X231273200Y-107505400D02*
X231273200Y-108505400D01*
X231273200Y-107505400D02*
X231673200Y-107505400D01*
%TO.C,D12*%
X211278400Y-133711000D02*
X212688400Y-133711000D01*
X211288400Y-136031000D02*
X212688400Y-136031000D01*
X210908400Y-133761000D02*
X210668400Y-133431000D01*
X211148400Y-133431000D01*
X210908400Y-133761000D01*
G36*
X210908400Y-133761000D02*
G01*
X210668400Y-133431000D01*
X211148400Y-133431000D01*
X210908400Y-133761000D01*
G37*
%TO.C,C1*%
X177450533Y-127963200D02*
X177743067Y-127963200D01*
X177450533Y-128983200D02*
X177743067Y-128983200D01*
D15*
%TO.C,SW18*%
X220371157Y-125141400D02*
X220371157Y-129641400D01*
X221741157Y-129941400D02*
X224101157Y-129941400D01*
X224101157Y-124841400D02*
X221741157Y-124841400D01*
X225471157Y-125141400D02*
X225471157Y-129641400D01*
D16*
X221146157Y-131641400D02*
G75*
G02*
X220946157Y-131641400I-100000J0D01*
G01*
X220946157Y-131641400D02*
G75*
G02*
X221146157Y-131641400I100000J0D01*
G01*
D11*
%TO.C,C7*%
X218649436Y-101290800D02*
X218433764Y-101290800D01*
X218649436Y-102010800D02*
X218433764Y-102010800D01*
%TO.C,L10*%
X243441313Y-128126540D02*
X245473313Y-128126540D01*
X243441313Y-130158540D02*
X243441313Y-128126540D01*
X245473313Y-128126540D02*
X245473313Y-130158540D01*
X245473313Y-130158540D02*
X243441313Y-130158540D01*
X243085047Y-130666540D02*
G75*
G02*
X242781579Y-130666540I-151734J0D01*
G01*
X242781579Y-130666540D02*
G75*
G02*
X243085047Y-130666540I151734J0D01*
G01*
%TO.C,C19*%
X197356000Y-101689780D02*
X197356000Y-101408620D01*
X198376000Y-101689780D02*
X198376000Y-101408620D01*
%TO.C,D10*%
X225362400Y-96084800D02*
X225362400Y-99344800D01*
X227062400Y-96084800D02*
X225362400Y-96084800D01*
X227062400Y-96084800D02*
X227062400Y-99344800D01*
%TO.C,TP5*%
X185608000Y-97891600D02*
G75*
G02*
X183708000Y-97891600I-950000J0D01*
G01*
X183708000Y-97891600D02*
G75*
G02*
X185608000Y-97891600I950000J0D01*
G01*
%TO.C,C2*%
X188872400Y-116579867D02*
X188872400Y-116287333D01*
X189892400Y-116579867D02*
X189892400Y-116287333D01*
D15*
%TO.C,SW19*%
X211496157Y-129641400D02*
X211496157Y-125141400D01*
X212866157Y-129941400D02*
X215226157Y-129941400D01*
X215226157Y-124841400D02*
X212866157Y-124841400D01*
X216596157Y-129641400D02*
X216596157Y-125141400D01*
D16*
X216021157Y-123141400D02*
G75*
G02*
X215821157Y-123141400I-100000J0D01*
G01*
X215821157Y-123141400D02*
G75*
G02*
X216021157Y-123141400I100000J0D01*
G01*
D11*
%TO.C,D11*%
X186800000Y-131215200D02*
X186800000Y-129805200D01*
X189120000Y-131205200D02*
X189120000Y-129805200D01*
X186850000Y-131585200D02*
X186520000Y-131825200D01*
X186520000Y-131345200D01*
X186850000Y-131585200D01*
G36*
X186850000Y-131585200D02*
G01*
X186520000Y-131825200D01*
X186520000Y-131345200D01*
X186850000Y-131585200D01*
G37*
%TO.C,Q2*%
X208635600Y-130012000D02*
X207985600Y-130012000D01*
X208635600Y-130012000D02*
X209285600Y-130012000D01*
X208635600Y-133132000D02*
X207985600Y-133132000D01*
X208635600Y-133132000D02*
X209285600Y-133132000D01*
X207473100Y-130062000D02*
X207233100Y-129732000D01*
X207713100Y-129732000D01*
X207473100Y-130062000D01*
G36*
X207473100Y-130062000D02*
G01*
X207233100Y-129732000D01*
X207713100Y-129732000D01*
X207473100Y-130062000D01*
G37*
D15*
%TO.C,U1*%
X199336000Y-94854800D02*
X212536000Y-94854800D01*
X199336000Y-100254800D02*
X199336000Y-94854800D01*
X212536000Y-94854800D02*
X212536000Y-100254800D01*
D16*
X198686000Y-101854800D02*
G75*
G02*
X198486000Y-101854800I-100000J0D01*
G01*
X198486000Y-101854800D02*
G75*
G02*
X198686000Y-101854800I100000J0D01*
G01*
D11*
%TO.C,R13*%
X232954300Y-103470942D02*
X232954300Y-103945458D01*
X233999300Y-103470942D02*
X233999300Y-103945458D01*
%TO.C,L11*%
X254875532Y-106196626D02*
X256907532Y-106196626D01*
X254875532Y-108228626D02*
X254875532Y-106196626D01*
X256907532Y-106196626D02*
X256907532Y-108228626D01*
X256907532Y-108228626D02*
X254875532Y-108228626D01*
X254519266Y-108736626D02*
G75*
G02*
X254215798Y-108736626I-151734J0D01*
G01*
X254215798Y-108736626D02*
G75*
G02*
X254519266Y-108736626I151734J0D01*
G01*
%TO.C,C9*%
X216762164Y-107090000D02*
X216977836Y-107090000D01*
X216762164Y-107810000D02*
X216977836Y-107810000D01*
D13*
%TO.C,U5*%
X205080400Y-114563800D02*
X205080400Y-114863800D01*
X205080400Y-114563800D02*
X205880400Y-114563800D01*
X205080400Y-117163800D02*
X205080400Y-117463800D01*
X205080400Y-117463800D02*
X205880400Y-117463800D01*
X208480400Y-114563800D02*
X207680400Y-114563800D01*
X208480400Y-114863800D02*
X208480400Y-114563800D01*
X208480400Y-117463800D02*
X207680400Y-117463800D01*
X208480400Y-117463800D02*
X208480400Y-117163800D01*
X209380400Y-116763800D02*
G75*
G02*
X208980400Y-116763800I-200000J0D01*
G01*
X208980400Y-116763800D02*
G75*
G02*
X209380400Y-116763800I200000J0D01*
G01*
D15*
%TO.C,U4*%
X227125400Y-118278600D02*
X227125400Y-117473600D01*
X227125400Y-120473600D02*
X227125400Y-119668600D01*
X230125400Y-118278600D02*
X230125400Y-117473600D01*
X230125400Y-120473600D02*
X230125400Y-119668600D01*
D16*
X227525400Y-121368600D02*
G75*
G02*
X227325400Y-121368600I-100000J0D01*
G01*
X227325400Y-121368600D02*
G75*
G02*
X227525400Y-121368600I100000J0D01*
G01*
%TO.C,J3*%
X281850300Y-124610400D02*
X281850300Y-125510400D01*
X281850300Y-128518400D02*
X281850300Y-129418400D01*
X282300300Y-128960400D02*
X281400300Y-128960400D01*
D11*
%TO.C,Q4*%
X219718400Y-98398400D02*
X219718400Y-96988400D01*
X222038400Y-98388400D02*
X222038400Y-96988400D01*
X219768400Y-98768400D02*
X219438400Y-99008400D01*
X219438400Y-98528400D01*
X219768400Y-98768400D01*
G36*
X219768400Y-98768400D02*
G01*
X219438400Y-99008400D01*
X219438400Y-98528400D01*
X219768400Y-98768400D01*
G37*
D16*
%TO.C,J2*%
X154122500Y-124999200D02*
X155022500Y-124999200D01*
X154572500Y-125441200D02*
X154572500Y-124541200D01*
X154572500Y-129349200D02*
X154572500Y-128449200D01*
D15*
%TO.C,SW9*%
X220371157Y-116266400D02*
X220371157Y-120766400D01*
X221741157Y-121066400D02*
X224101157Y-121066400D01*
X224101157Y-115966400D02*
X221741157Y-115966400D01*
X225471157Y-116266400D02*
X225471157Y-120766400D01*
D16*
X221146157Y-122766400D02*
G75*
G02*
X220946157Y-122766400I-100000J0D01*
G01*
X220946157Y-122766400D02*
G75*
G02*
X221146157Y-122766400I100000J0D01*
G01*
D11*
%TO.C,L3*%
X167265881Y-124045834D02*
X167372228Y-122016619D01*
X167372228Y-122016619D02*
X169401443Y-122122966D01*
X169295096Y-124152181D02*
X167265881Y-124045834D01*
X169401443Y-122122966D02*
X169295096Y-124152181D01*
X166883725Y-124526551D02*
G75*
G02*
X166580257Y-124526551I-151734J0D01*
G01*
X166580257Y-124526551D02*
G75*
G02*
X166883725Y-124526551I151734J0D01*
G01*
%TO.C,D9*%
X229731200Y-99596800D02*
X229731200Y-96336800D01*
X229731200Y-99596800D02*
X231431200Y-99596800D01*
X231431200Y-99596800D02*
X231431200Y-96336800D01*
%TO.C,Q3*%
X222614000Y-98398400D02*
X222614000Y-96988400D01*
X224934000Y-98388400D02*
X224934000Y-96988400D01*
X222664000Y-98768400D02*
X222334000Y-99008400D01*
X222334000Y-98528400D01*
X222664000Y-98768400D01*
G36*
X222664000Y-98768400D02*
G01*
X222334000Y-99008400D01*
X222334000Y-98528400D01*
X222664000Y-98768400D01*
G37*
%TO.C,D4*%
X239460000Y-107795600D02*
X238060000Y-107795600D01*
X239470000Y-110115600D02*
X238060000Y-110115600D01*
X240080000Y-110395600D02*
X239600000Y-110395600D01*
X239840000Y-110065600D01*
X240080000Y-110395600D01*
G36*
X240080000Y-110395600D02*
G01*
X239600000Y-110395600D01*
X239840000Y-110065600D01*
X240080000Y-110395600D01*
G37*
%TO.C,L6*%
X217467657Y-141547600D02*
X219499657Y-141547600D01*
X217467657Y-143579600D02*
X217467657Y-141547600D01*
X219499657Y-141547600D02*
X219499657Y-143579600D01*
X219499657Y-143579600D02*
X217467657Y-143579600D01*
X217111391Y-144087600D02*
G75*
G02*
X216807923Y-144087600I-151734J0D01*
G01*
X216807923Y-144087600D02*
G75*
G02*
X217111391Y-144087600I151734J0D01*
G01*
%TO.C,D1*%
X237112400Y-113856400D02*
X233852400Y-113856400D01*
X237112400Y-115556400D02*
X233852400Y-115556400D01*
X237112400Y-115556400D02*
X237112400Y-113856400D01*
%TO.C,U9*%
D12*
X216673993Y-111748008D02*
X218705993Y-111748008D01*
X218705993Y-108700008D01*
X216673993Y-108700008D01*
X216673993Y-111748008D01*
X216596378Y-112052808D02*
G75*
G02*
X216142008Y-112052808I-227185J0D01*
G01*
X216142008Y-112052808D02*
G75*
G02*
X216596378Y-112052808I227185J0D01*
G01*
%TD*%
M02*
