0
SECTION
2
HEADER
9
$INSUNITS
70
4
9
$ACADVER
1
AC1014
9
$HANDSEED
5
FFFF
0
ENDSEC
0
SECTION
2
TABLES
0
TABLE
2
VPORT
5
8
100
AcDbSymbolTable
0
ENDTAB
0
TABLE
2
LTYPE
5
5
100
AcDbSymbolTable
0
LTYPE
5
14
100
AcDbSymbolTableRecord
100
AcDbLinetypeTableRecord
2
BYBLOCK
70
0
0
LTYPE
5
15
100
AcDbSymbolTableRecord
100
AcDbLinetypeTableRecord
2
BYLAYER
70
0
0
LTYPE
5
16
100
AcDbSymbolTableRecord
100
AcDbLinetypeTableRecord
2
DASHED
70
0
3
Dashed __ __ __ __ __ __ __ __ __ __ __ __ __ _
72
65
73
2
40
0.75
49
0.5
74
0
49
-0.25
74
0
0
ENDTAB
0
TABLE
2
LAYER
5
2
100
AcDbSymbolTable
70
2
0
LAYER
5
50
100
AcDbSymbolTableRecord
100
AcDbLayerTableRecord
2
0
70
0
62
7
6
CONTINUOUS
0
ENDTAB
0
TABLE
2
STYLE
5
3
100
AcDbSymbolTable
70
1
0
STYLE
5
11
100
AcDbSymbolTableRecord
100
AcDbTextStyleTableRecord
2
STANDARD
70
0
0
ENDTAB
0
TABLE
2
VIEW
5
6
100
AcDbSymbolTable
70
0
0
ENDTAB
0
TABLE
2
UCS
5
7
100
AcDbSymbolTable
70
0
0
ENDTAB
0
TABLE
2
APPID
5
9
100
AcDbSymbolTable
70
2
0
APPID
5
12
100
AcDbSymbolTableRecord
100
AcDbRegAppTableRecord
2
ACAD
70
0
0
ENDTAB
0
TABLE
2
DIMSTYLE
5
A
100
AcDbSymbolTable
70
1
0
ENDTAB
0
TABLE
2
BLOCK_RECORD
5
1
100
AcDbSymbolTable
70
1
0
BLOCK_RECORD
5
1F
100
AcDbSymbolTableRecord
100
AcDbBlockTableRecord
2
*MODEL_SPACE
0
BLOCK_RECORD
5
1B
100
AcDbSymbolTableRecord
100
AcDbBlockTableRecord
2
*PAPER_SPACE
0
ENDTAB
0
ENDSEC
0
SECTION
2
BLOCKS
0
BLOCK
5
20
100
AcDbEntity
100
AcDbBlockBegin
2
*MODEL_SPACE
0
ENDBLK
5
21
100
AcDbEntity
100
AcDbBlockEnd
0
BLOCK
5
1C
100
AcDbEntity
100
AcDbBlockBegin
2
*PAPER_SPACE
0
ENDBLK
5
1D
100
AcDbEntity
100
AcDbBlockEnd
0
ENDSEC
0
SECTION
2
ENTITIES
0
POINT
5
100
100
AcDbEntity
8
0
100
AcDbPoint
10
46.845186336163422
20
0
30
0
0
LWPOLYLINE
5
101
100
AcDbEntity
8
0
100
AcDbPolyline
90
8
70
1
43
0.0
10
3.5044787599753668
20
-5.3498710188470593
10
2.5202464006770864
20
-5.3498710188470593
42
-1.0070685322427453
10
2.4957525567567362
20
-4.3501958516040693
10
3.5222409046694381
20
-4.3322784308432114
10
3.696169780263761
20
5.6321001784369065
42
0.26846887243774675
10
-3.9314858347659327
20
5.6369567321462615
10
-3.696072380696692
20
-7.8498710188470611
10
3.4608410976548321
20
-7.8498710188470611
0
CIRCLE
5
102
100
AcDbEntity
8
0
100
AcDbCircle
10
0
20
0
30
0
40
0.50000000000000711
210
0
220
-0
230
-1
0
LINE
5
103
100
AcDbEntity
8
0
100
AcDbLine
10
-3.7571594379685807
20
-4.3501958516040675
30
0
11
2.4957525567567362
21
-4.3501958516040693
31
0
0
LINE
5
104
100
AcDbEntity
8
0
100
AcDbLine
10
2.4957525567567362
20
-4.3501958516040693
30
0
11
3.5222409046694381
21
-4.3322784308432114
31
0
0
LINE
5
105
100
AcDbEntity
8
0
100
AcDbLine
10
3.4608410976548321
20
-7.8498710188470611
30
0
11
20.210841097654829
21
-7.8498710188470611
31
0
0
LWPOLYLINE
5
106
100
AcDbEntity
8
0
100
AcDbPolyline
90
4
70
1
43
0.0
10
20.210841097654829
20
-7.8498710188470611
10
20.210841097654829
20
-5.3498710188470611
10
22.710841097654829
20
-5.3498710188470611
10
22.710841097654829
20
-7.8498710188470611
0
LINE
5
107
100
AcDbEntity
8
0
100
AcDbLine
10
20.210841097654829
20
-5.3498710188470611
30
0
11
3.5044787599753668
21
-5.3498710188470593
31
0
0
LINE
5
108
100
AcDbEntity
8
0
100
AcDbLine
10
22.710841097654829
20
-7.8498710188470611
30
0
11
22.710841097654829
21
-9.8498710188470611
31
0
0
LWPOLYLINE
5
109
100
AcDbEntity
8
0
100
AcDbPolyline
90
8
70
1
43
0.0
10
22.710841097654829
20
-9.8498710188470611
10
20.210841097654829
20
-9.8498710188470611
10
20.210841097654829
20
-14.099871018847061
10
20.210841097654829
20
-18.13987101884706
10
20.210841097654829
20
-29.789871018847059
10
22.710841097654829
20
-29.789871018847059
10
22.710841097654829
20
-18.13987101884706
10
22.710841097654829
20
-14.099871018847061
0
LINE
5
110
100
AcDbEntity
8
0
100
AcDbLine
10
20.210841097654829
20
-9.8498710188470611
30
0
11
20.210841097654829
21
-7.8498710188470611
31
0
0
LINE
5
111
100
AcDbEntity
8
0
100
AcDbLine
10
22.710841097654829
20
-14.099871018847061
30
0
11
20.210841097654829
21
-14.099871018847061
31
0
0
LINE
5
112
100
AcDbEntity
8
0
100
AcDbLine
10
22.710841097654829
20
-18.13987101884706
30
0
11
20.210841097654829
21
-18.13987101884706
31
0
0
LWPOLYLINE
5
113
100
AcDbEntity
8
0
100
AcDbPolyline
90
4
70
1
43
0.0
10
24.134345238508594
20
-14.099871018847061
10
24.134345238508594
20
-18.13987101884706
10
26.634345238508594
20
-18.13987101884706
10
26.634345238508594
20
-14.099871018847061
0
LINE
5
114
100
AcDbEntity
8
0
100
AcDbLine
10
50.602345774132004
20
-4.3501958516040675
30
0
11
44.349433779406688
21
-4.3501958516040693
31
0
0
LWPOLYLINE
5
115
100
AcDbEntity
8
0
100
AcDbPolyline
90
4
70
1
43
0.0
10
24.134345238508594
20
-7.8498710188470611
10
24.134345238508594
20
-5.3498710188470611
10
26.634345238508594
20
-5.3498710188470611
10
26.634345238508594
20
-7.8498710188470611
0
LWPOLYLINE
5
116
100
AcDbEntity
8
0
100
AcDbPolyline
90
8
70
1
43
0.0
10
44.349433779406688
20
-4.3501958516040693
42
-1.0070685322427453
10
44.324939935486334
20
-5.3498710188470593
10
43.340707576188052
20
-5.3498710188470593
10
43.384345238508587
20
-7.8498710188470611
10
50.541258716860114
20
-7.8498710188470611
10
50.776672170929359
20
5.6369567321462615
42
0.26846887243774675
10
43.149016555899664
20
5.6321001784369056
10
43.322945431493984
20
-4.3322784308432114
0
LINE
5
117
100
AcDbEntity
8
0
100
AcDbLine
10
24.134345238508594
20
-29.789871018847059
30
0
11
24.134345238508594
21
-18.13987101884706
31
0
0
CIRCLE
5
118
100
AcDbEntity
8
0
100
AcDbCircle
10
-46.845186336163422
20
0
30
0
40
0.50000000000000711
210
0
220
0
230
-1
0
LINE
5
119
100
AcDbEntity
8
0
100
AcDbLine
10
24.134345238508594
20
-9.8498710188470611
30
0
11
24.134345238508594
21
-14.099871018847061
31
0
0
LINE
5
120
100
AcDbEntity
8
0
100
AcDbLine
10
26.634345238508594
20
-18.13987101884706
30
0
11
26.634345238508594
21
-29.789871018847059
31
0
0
LINE
5
121
100
AcDbEntity
8
0
100
AcDbLine
10
26.634345238508594
20
-5.3498710188470611
30
0
11
43.340707576188052
21
-5.3498710188470593
31
0
0
LINE
5
122
100
AcDbEntity
8
0
100
AcDbLine
10
26.634345238508594
20
-29.789871018847059
30
0
11
24.134345238508594
21
-29.789871018847059
31
0
0
LINE
5
123
100
AcDbEntity
8
0
100
AcDbLine
10
24.134345238508594
20
-9.8498710188470611
30
0
11
26.634345238508594
21
-9.8498710188470611
31
0
0
LINE
5
124
100
AcDbEntity
8
0
100
AcDbLine
10
43.384345238508587
20
-7.8498710188470611
30
0
11
26.634345238508594
21
-7.8498710188470611
31
0
0
LINE
5
125
100
AcDbEntity
8
0
100
AcDbLine
10
26.634345238508594
20
-14.099871018847061
30
0
11
26.634345238508594
21
-9.8498710188470611
31
0
0
LINE
5
126
100
AcDbEntity
8
0
100
AcDbLine
10
44.349433779406688
20
-4.3501958516040693
30
0
11
43.322945431493984
21
-4.3322784308432114
31
0
0
LINE
5
127
100
AcDbEntity
8
0
100
AcDbLine
10
26.634345238508594
20
-9.8498710188470611
30
0
11
26.634345238508594
21
-7.8498710188470611
31
0
0
LINE
5
128
100
AcDbEntity
8
0
100
AcDbLine
10
24.134345238508594
20
-7.8498710188470611
30
0
11
24.134345238508594
21
-9.8498710188470611
31
0
0
LINE
5
129
100
AcDbEntity
8
0
100
AcDbLine
10
22.710841097654829
20
-15.200333657582824
30
0
11
24.134345238508594
21
-15.200333657582824
31
0
0
LINE
5
130
100
AcDbEntity
8
0
100
AcDbLine
10
22.710841097654829
20
-17.200333657582824
30
0
11
24.134345238508594
21
-17.200333657582824
31
0
0
LINE
5
131
100
AcDbEntity
8
0
100
AcDbLine
10
22.710841097654829
20
-23.149090455967244
30
0
11
24.134345238508594
21
-23.149090455967244
31
0
0
LINE
5
132
100
AcDbEntity
8
0
100
AcDbLine
10
22.710841097654829
20
-25.149090455967244
30
0
11
24.134345238508594
21
-25.149090455967244
31
0
0
LINE
5
133
100
AcDbEntity
8
0
100
AcDbLine
10
22.710841097654829
20
-7.5834495044016128
30
0
11
24.134345238508594
21
-7.5834495044016128
31
0
0
LINE
5
134
100
AcDbEntity
8
0
100
AcDbLine
10
22.710841097654829
20
-5.5834495044016119
30
0
11
24.134345238508594
21
-5.5834495044016119
31
0
0
ENDSEC
0
SECTION
2
OBJECTS
0
DICTIONARY
5
C
100
AcDbDictionary
3
ACAD_GROUP
350
D
3
ACAD_MLINESTYLE
350
17
0
DICTIONARY
5
D
100
AcDbDictionary
0
DICTIONARY
5
1A
330
C
100
AcDbDictionary
0
DICTIONARY
5
17
100
AcDbDictionary
0
ENDSEC
0
EOF
