%TF.GenerationSoftware,KiCad,Pcbnew,8.0.2*%
%TF.CreationDate,2024-07-05T17:46:32-07:00*%
%TF.ProjectId,UGC_Main,5547435f-4d61-4696-9e2e-6b696361645f,rev?*%
%TF.SameCoordinates,Original*%
%TF.FileFunction,Soldermask,Bot*%
%TF.FilePolarity,Negative*%
%FSLAX46Y46*%
G04 Gerber Fmt 4.6, Leading zero omitted, Abs format (unit mm)*
G04 Created by KiCad (PCBNEW 8.0.2) date 2024-07-05 17:46:32*
%MOMM*%
%LPD*%
G01*
G04 APERTURE LIST*
G04 Aperture macros list*
%AMRoundRect*
0 Rectangle with rounded corners*
0 $1 Rounding radius*
0 $2 $3 $4 $5 $6 $7 $8 $9 X,Y pos of 4 corners*
0 Add a 4 corners polygon primitive as box body*
4,1,4,$2,$3,$4,$5,$6,$7,$8,$9,$2,$3,0*
0 Add four circle primitives for the rounded corners*
1,1,$1+$1,$2,$3*
1,1,$1+$1,$4,$5*
1,1,$1+$1,$6,$7*
1,1,$1+$1,$8,$9*
0 Add four rect primitives between the rounded corners*
20,1,$1+$1,$2,$3,$4,$5,0*
20,1,$1+$1,$4,$5,$6,$7,0*
20,1,$1+$1,$6,$7,$8,$9,0*
20,1,$1+$1,$8,$9,$2,$3,0*%
%AMHorizOval*
0 Thick line with rounded ends*
0 $1 width*
0 $2 $3 position (X,Y) of the first rounded end (center of the circle)*
0 $4 $5 position (X,Y) of the second rounded end (center of the circle)*
0 Add line between two ends*
20,1,$1,$2,$3,$4,$5,0*
0 Add two circle primitives to create the rounded ends*
1,1,$1,$2,$3*
1,1,$1,$4,$5*%
G04 Aperture macros list end*
%ADD10O,1.750000X1.200000*%
%ADD11RoundRect,0.250000X0.625000X-0.350000X0.625000X0.350000X-0.625000X0.350000X-0.625000X-0.350000X0*%
%ADD12R,1.350000X1.350000*%
%ADD13O,1.350000X1.350000*%
%ADD14C,2.450000*%
%ADD15C,1.600000*%
%ADD16C,1.250000*%
%ADD17C,2.000000*%
%ADD18HorizOval,2.250000X-0.250000X0.433013X0.250000X-0.433013X0*%
%ADD19HorizOval,1.700000X0.259808X0.150000X-0.259808X-0.150000X0*%
%ADD20HorizOval,2.250000X-0.250000X-0.433013X0.250000X0.433013X0*%
%ADD21HorizOval,1.700000X0.259808X-0.150000X-0.259808X0.150000X0*%
%ADD22R,1.000000X0.750000*%
%ADD23RoundRect,0.100000X-0.130000X-0.100000X0.130000X-0.100000X0.130000X0.100000X-0.130000X0.100000X0*%
%ADD24R,2.000000X2.000000*%
%ADD25R,0.500000X0.550000*%
%ADD26RoundRect,0.150000X-0.150000X0.587500X-0.150000X-0.587500X0.150000X-0.587500X0.150000X0.587500X0*%
%ADD27RoundRect,0.150000X0.150000X0.200000X-0.150000X0.200000X-0.150000X-0.200000X0.150000X-0.200000X0*%
%ADD28R,0.300000X0.700000*%
%ADD29R,0.300000X1.000000*%
%ADD30O,1.250000X2.500000*%
%ADD31O,1.600000X2.500000*%
%ADD32RoundRect,0.100000X0.130000X0.100000X-0.130000X0.100000X-0.130000X-0.100000X0.130000X-0.100000X0*%
%ADD33RoundRect,0.102000X0.500000X-0.250000X0.500000X0.250000X-0.500000X0.250000X-0.500000X-0.250000X0*%
%ADD34RoundRect,0.102000X0.850000X-0.600000X0.850000X0.600000X-0.850000X0.600000X-0.850000X-0.600000X0*%
%ADD35RoundRect,0.100000X-0.100000X0.130000X-0.100000X-0.130000X0.100000X-0.130000X0.100000X0.130000X0*%
%ADD36RoundRect,0.250000X-0.350000X-0.625000X0.350000X-0.625000X0.350000X0.625000X-0.350000X0.625000X0*%
%ADD37O,1.200000X1.750000*%
%ADD38RoundRect,0.150000X-0.150000X-0.200000X0.150000X-0.200000X0.150000X0.200000X-0.150000X0.200000X0*%
%ADD39C,0.700000*%
%ADD40RoundRect,0.102000X-0.175000X0.445000X-0.175000X-0.445000X0.175000X-0.445000X0.175000X0.445000X0*%
%ADD41C,0.804000*%
%ADD42O,1.204000X2.204000*%
%ADD43C,1.104000*%
%ADD44RoundRect,0.100000X0.712500X0.100000X-0.712500X0.100000X-0.712500X-0.100000X0.712500X-0.100000X0*%
G04 APERTURE END LIST*
D10*
%TO.C,J7*%
X279501600Y-125635000D03*
D11*
X279501600Y-127635000D03*
%TD*%
%TO.C,J6*%
X158623000Y-127635000D03*
D10*
X158623000Y-125635000D03*
%TD*%
D12*
%TO.C,J8*%
X253457200Y-131775200D03*
D13*
X255457200Y-131775200D03*
%TD*%
D14*
%TO.C,SW6*%
X172671539Y-110006388D03*
X172009489Y-122639052D03*
D15*
X177558707Y-112290293D03*
X177108617Y-120878507D03*
D14*
X182657835Y-110529748D03*
X181995785Y-123162412D03*
D16*
X171861497Y-113043156D03*
X171521313Y-119534248D03*
X167367664Y-112807644D03*
X167027480Y-119298736D03*
D17*
X174381765Y-125141637D03*
X176878339Y-125272477D03*
X179374913Y-125403317D03*
X185890899Y-119536297D03*
X186021739Y-117039723D03*
X186152579Y-114543149D03*
%TD*%
D18*
%TO.C,SW7*%
X163618112Y-100644336D03*
X170546316Y-96644336D03*
D19*
X166643465Y-101784400D03*
X170020963Y-99834400D03*
%TD*%
D20*
%TO.C,SW8*%
X266420998Y-96644336D03*
X273349202Y-100644336D03*
D21*
X266946351Y-99834400D03*
X270323849Y-101784400D03*
%TD*%
D12*
%TO.C,J4*%
X278380200Y-144195800D03*
D13*
X276380200Y-144195800D03*
X274380200Y-144195800D03*
X272380200Y-144195800D03*
X270380200Y-144195800D03*
X268380200Y-144195800D03*
%TD*%
D12*
%TO.C,J9*%
X173955200Y-136347200D03*
D13*
X175955200Y-136347200D03*
%TD*%
D22*
%TO.C,SW14*%
X221483657Y-133609400D03*
X215483657Y-133609400D03*
X221483657Y-137359400D03*
X215483657Y-137359400D03*
%TD*%
D23*
%TO.C,C26*%
X217144600Y-130502900D03*
X217784600Y-130502900D03*
%TD*%
%TO.C,R33*%
X220263800Y-129489200D03*
X220903800Y-129489200D03*
%TD*%
%TO.C,C27*%
X214807800Y-126515100D03*
X215447800Y-126515100D03*
%TD*%
D24*
%TO.C,TP1*%
X222605600Y-123621800D03*
%TD*%
D25*
%TO.C,SW15*%
X227025200Y-136245600D03*
X226225200Y-136245600D03*
X227025200Y-133595600D03*
X226225200Y-133595600D03*
%TD*%
D26*
%TO.C,Q5*%
X214000000Y-129641600D03*
X215900000Y-129641600D03*
X214950000Y-131516600D03*
%TD*%
D27*
%TO.C,D3*%
X219995400Y-131635000D03*
X221395400Y-131635000D03*
%TD*%
D28*
%TO.C,J13*%
X272740173Y-139656580D03*
X272240173Y-139656580D03*
X271740173Y-139656580D03*
X271240173Y-139656580D03*
X270740173Y-139656580D03*
X270240173Y-139656580D03*
D29*
X273530173Y-142306580D03*
X269450173Y-142306580D03*
%TD*%
D30*
%TO.C,RV2*%
X243483657Y-101434400D03*
X240983657Y-101434400D03*
X245983657Y-101434400D03*
D31*
X247833657Y-112934400D03*
X239133657Y-112934400D03*
%TD*%
D24*
%TO.C,TP2*%
X214350600Y-123647200D03*
%TD*%
D27*
%TO.C,D7*%
X217323400Y-129334500D03*
X218723400Y-129334500D03*
%TD*%
D32*
%TO.C,R31*%
X215447800Y-127404100D03*
X214807800Y-127404100D03*
%TD*%
D33*
%TO.C,J1*%
X219362600Y-124250400D03*
X219362600Y-123450400D03*
D34*
X217412600Y-125550400D03*
X217412600Y-122150400D03*
%TD*%
D35*
%TO.C,R32*%
X213984800Y-127439700D03*
X213984800Y-128079700D03*
%TD*%
D32*
%TO.C,C25*%
X220847800Y-130492000D03*
X220207800Y-130492000D03*
%TD*%
D36*
%TO.C,B1*%
X232547596Y-111285471D03*
D37*
X234547596Y-111285471D03*
%TD*%
D38*
%TO.C,D6*%
X218713200Y-131648200D03*
X217313200Y-131648200D03*
%TD*%
D39*
%TO.C,J5*%
X214758635Y-88804400D03*
X222208635Y-88804400D03*
D40*
X215733635Y-90709400D03*
X216233635Y-90709400D03*
X216733635Y-90709400D03*
X217233635Y-90709400D03*
X217733635Y-90709400D03*
X218233635Y-90709400D03*
X218733635Y-90709400D03*
X219233635Y-90709400D03*
X219733635Y-90709400D03*
X220233635Y-90709400D03*
X220733635Y-90709400D03*
X221233635Y-90709400D03*
D41*
X221533635Y-89504400D03*
X220883635Y-88804400D03*
X220083635Y-88804400D03*
X219683635Y-89504400D03*
X219283635Y-88804400D03*
X218883635Y-89504400D03*
X218083635Y-89504400D03*
X217683635Y-88804400D03*
X217283635Y-89504400D03*
X216883635Y-88804400D03*
X216083635Y-88804400D03*
X215433635Y-89504400D03*
D42*
X213983635Y-84704400D03*
D43*
X214433635Y-89904400D03*
D42*
X213983635Y-90454400D03*
X222983635Y-84704400D03*
D43*
X222533635Y-89904400D03*
D42*
X222983635Y-90454400D03*
%TD*%
D44*
%TO.C,U7*%
X273740100Y-134102200D03*
X273740100Y-134752200D03*
X273740100Y-135402200D03*
X273740100Y-136052200D03*
X269515100Y-136052200D03*
X269515100Y-135402200D03*
X269515100Y-134752200D03*
X269515100Y-134102200D03*
%TD*%
D30*
%TO.C,RV1*%
X193483657Y-101434400D03*
X190983657Y-101434400D03*
X195983657Y-101434400D03*
D31*
X197833657Y-112934400D03*
X189133657Y-112934400D03*
%TD*%
M02*
