%TF.GenerationSoftware,KiCad,Pcbnew,8.0.2*%
%TF.CreationDate,2024-07-24T16:00:10-07:00*%
%TF.ProjectId,UGC_Main_R4,5547435f-4d61-4696-9e5f-52342e6b6963,rev?*%
%TF.SameCoordinates,Original*%
%TF.FileFunction,Soldermask,Bot*%
%TF.FilePolarity,Negative*%
%FSLAX46Y46*%
G04 Gerber Fmt 4.6, Leading zero omitted, Abs format (unit mm)*
G04 Created by KiCad (PCBNEW 8.0.2) date 2024-07-24 16:00:10*
%MOMM*%
%LPD*%
G01*
G04 APERTURE LIST*
G04 Aperture macros list*
%AMRoundRect*
0 Rectangle with rounded corners*
0 $1 Rounding radius*
0 $2 $3 $4 $5 $6 $7 $8 $9 X,Y pos of 4 corners*
0 Add a 4 corners polygon primitive as box body*
4,1,4,$2,$3,$4,$5,$6,$7,$8,$9,$2,$3,0*
0 Add four circle primitives for the rounded corners*
1,1,$1+$1,$2,$3*
1,1,$1+$1,$4,$5*
1,1,$1+$1,$6,$7*
1,1,$1+$1,$8,$9*
0 Add four rect primitives between the rounded corners*
20,1,$1+$1,$2,$3,$4,$5,0*
20,1,$1+$1,$4,$5,$6,$7,0*
20,1,$1+$1,$6,$7,$8,$9,0*
20,1,$1+$1,$8,$9,$2,$3,0*%
%AMHorizOval*
0 Thick line with rounded ends*
0 $1 width*
0 $2 $3 position (X,Y) of the first rounded end (center of the circle)*
0 $4 $5 position (X,Y) of the second rounded end (center of the circle)*
0 Add line between two ends*
20,1,$1,$2,$3,$4,$5,0*
0 Add two circle primitives to create the rounded ends*
1,1,$1,$2,$3*
1,1,$1,$4,$5*%
G04 Aperture macros list end*
%ADD10R,1.350000X1.350000*%
%ADD11O,1.350000X1.350000*%
%ADD12C,2.450000*%
%ADD13C,1.600000*%
%ADD14C,1.250000*%
%ADD15C,2.000000*%
%ADD16HorizOval,2.250000X-0.250000X0.433013X0.250000X-0.433013X0*%
%ADD17HorizOval,1.700000X0.259808X0.150000X-0.259808X-0.150000X0*%
%ADD18HorizOval,2.250000X-0.250000X-0.433013X0.250000X0.433013X0*%
%ADD19HorizOval,1.700000X0.259808X-0.150000X-0.259808X0.150000X0*%
%ADD20R,1.000000X0.750000*%
%ADD21R,2.000000X2.000000*%
%ADD22RoundRect,0.102000X0.250000X0.500000X-0.250000X0.500000X-0.250000X-0.500000X0.250000X-0.500000X0*%
%ADD23RoundRect,0.102000X0.600000X0.850000X-0.600000X0.850000X-0.600000X-0.850000X0.600000X-0.850000X0*%
%ADD24R,0.500000X0.550000*%
%ADD25RoundRect,0.250000X0.625000X-0.350000X0.625000X0.350000X-0.625000X0.350000X-0.625000X-0.350000X0*%
%ADD26O,1.750000X1.200000*%
%ADD27R,0.300000X0.700000*%
%ADD28R,0.300000X1.000000*%
%ADD29O,1.250000X2.500000*%
%ADD30O,1.600000X2.500000*%
%ADD31RoundRect,0.250000X-0.350000X-0.625000X0.350000X-0.625000X0.350000X0.625000X-0.350000X0.625000X0*%
%ADD32O,1.200000X1.750000*%
%ADD33C,0.700000*%
%ADD34RoundRect,0.102000X-0.175000X0.445000X-0.175000X-0.445000X0.175000X-0.445000X0.175000X0.445000X0*%
%ADD35C,0.804000*%
%ADD36O,1.204000X2.204000*%
%ADD37C,1.104000*%
%ADD38RoundRect,0.100000X0.712500X0.100000X-0.712500X0.100000X-0.712500X-0.100000X0.712500X-0.100000X0*%
G04 APERTURE END LIST*
D10*
%TO.C,J8*%
X253457200Y-131775200D03*
D11*
X255457200Y-131775200D03*
%TD*%
D12*
%TO.C,SW6*%
X172671539Y-110006388D03*
X172009489Y-122639052D03*
D13*
X177558707Y-112290293D03*
X177108617Y-120878507D03*
D12*
X182657835Y-110529748D03*
X181995785Y-123162412D03*
D14*
X171861497Y-113043156D03*
X171521313Y-119534248D03*
X167367664Y-112807644D03*
X167027480Y-119298736D03*
D15*
X174381765Y-125141637D03*
X176878339Y-125272477D03*
X179374913Y-125403317D03*
X185890899Y-119536297D03*
X186021739Y-117039723D03*
X186152579Y-114543149D03*
%TD*%
D16*
%TO.C,SW7*%
X163618112Y-100644336D03*
X170546316Y-96644336D03*
D17*
X166643465Y-101784400D03*
X170020963Y-99834400D03*
%TD*%
D18*
%TO.C,SW8*%
X266420998Y-96644336D03*
X273349202Y-100644336D03*
D19*
X266946351Y-99834400D03*
X270323849Y-101784400D03*
%TD*%
D10*
%TO.C,J4*%
X278380200Y-144195800D03*
D11*
X276380200Y-144195800D03*
X274380200Y-144195800D03*
X272380200Y-144195800D03*
X270380200Y-144195800D03*
X268380200Y-144195800D03*
%TD*%
D10*
%TO.C,J9*%
X173955200Y-136347200D03*
D11*
X175955200Y-136347200D03*
%TD*%
D20*
%TO.C,SW14*%
X221483657Y-133609400D03*
X215483657Y-133609400D03*
X221483657Y-137359400D03*
X215483657Y-137359400D03*
%TD*%
D21*
%TO.C,TP7*%
X163931600Y-139090400D03*
%TD*%
D22*
%TO.C,J10*%
X166363600Y-139564800D03*
X165563600Y-139564800D03*
D23*
X167663600Y-141514800D03*
X164263600Y-141514800D03*
%TD*%
D21*
%TO.C,TP1*%
X276555200Y-139090400D03*
%TD*%
D24*
%TO.C,SW15*%
X227025200Y-136245600D03*
X226225200Y-136245600D03*
X227025200Y-133595600D03*
X226225200Y-133595600D03*
%TD*%
D21*
%TO.C,TP6*%
X167995600Y-139065000D03*
%TD*%
D25*
%TO.C,J7*%
X279501600Y-127635000D03*
D26*
X279501600Y-125635000D03*
%TD*%
D27*
%TO.C,J13*%
X272740173Y-139656580D03*
X272240173Y-139656580D03*
X271740173Y-139656580D03*
X271240173Y-139656580D03*
X270740173Y-139656580D03*
X270240173Y-139656580D03*
D28*
X273530173Y-142306580D03*
X269450173Y-142306580D03*
%TD*%
D29*
%TO.C,RV2*%
X243483657Y-101434400D03*
X240983657Y-101434400D03*
X245983657Y-101434400D03*
D30*
X247833657Y-112934400D03*
X239133657Y-112934400D03*
%TD*%
D21*
%TO.C,TP2*%
X280199742Y-139096669D03*
%TD*%
D22*
%TO.C,J1*%
X278784000Y-139564800D03*
X277984000Y-139564800D03*
D23*
X280084000Y-141514800D03*
X276684000Y-141514800D03*
%TD*%
D31*
%TO.C,B1*%
X232547596Y-111285471D03*
D32*
X234547596Y-111285471D03*
%TD*%
D25*
%TO.C,J6*%
X158623000Y-127635000D03*
D26*
X158623000Y-125635000D03*
%TD*%
D33*
%TO.C,J5*%
X214758635Y-88804400D03*
X222208635Y-88804400D03*
D34*
X215733635Y-90709400D03*
X216233635Y-90709400D03*
X216733635Y-90709400D03*
X217233635Y-90709400D03*
X217733635Y-90709400D03*
X218233635Y-90709400D03*
X218733635Y-90709400D03*
X219233635Y-90709400D03*
X219733635Y-90709400D03*
X220233635Y-90709400D03*
X220733635Y-90709400D03*
X221233635Y-90709400D03*
D35*
X221533635Y-89504400D03*
X220883635Y-88804400D03*
X220083635Y-88804400D03*
X219683635Y-89504400D03*
X219283635Y-88804400D03*
X218883635Y-89504400D03*
X218083635Y-89504400D03*
X217683635Y-88804400D03*
X217283635Y-89504400D03*
X216883635Y-88804400D03*
X216083635Y-88804400D03*
X215433635Y-89504400D03*
D36*
X213983635Y-84704400D03*
D37*
X214433635Y-89904400D03*
D36*
X213983635Y-90454400D03*
X222983635Y-84704400D03*
D37*
X222533635Y-89904400D03*
D36*
X222983635Y-90454400D03*
%TD*%
D38*
%TO.C,U7*%
X273740100Y-134102200D03*
X273740100Y-134752200D03*
X273740100Y-135402200D03*
X273740100Y-136052200D03*
X269515100Y-136052200D03*
X269515100Y-135402200D03*
X269515100Y-134752200D03*
X269515100Y-134102200D03*
%TD*%
D29*
%TO.C,RV1*%
X193483657Y-101434400D03*
X190983657Y-101434400D03*
X195983657Y-101434400D03*
D30*
X197833657Y-112934400D03*
X189133657Y-112934400D03*
%TD*%
M02*
