%TF.GenerationSoftware,KiCad,Pcbnew,8.0.2*%
%TF.CreationDate,2024-07-05T17:46:32-07:00*%
%TF.ProjectId,UGC_Main,5547435f-4d61-4696-9e2e-6b696361645f,rev?*%
%TF.SameCoordinates,Original*%
%TF.FileFunction,Paste,Bot*%
%TF.FilePolarity,Positive*%
%FSLAX46Y46*%
G04 Gerber Fmt 4.6, Leading zero omitted, Abs format (unit mm)*
G04 Created by KiCad (PCBNEW 8.0.2) date 2024-07-05 17:46:32*
%MOMM*%
%LPD*%
G01*
G04 APERTURE LIST*
G04 Aperture macros list*
%AMRoundRect*
0 Rectangle with rounded corners*
0 $1 Rounding radius*
0 $2 $3 $4 $5 $6 $7 $8 $9 X,Y pos of 4 corners*
0 Add a 4 corners polygon primitive as box body*
4,1,4,$2,$3,$4,$5,$6,$7,$8,$9,$2,$3,0*
0 Add four circle primitives for the rounded corners*
1,1,$1+$1,$2,$3*
1,1,$1+$1,$4,$5*
1,1,$1+$1,$6,$7*
1,1,$1+$1,$8,$9*
0 Add four rect primitives between the rounded corners*
20,1,$1+$1,$2,$3,$4,$5,0*
20,1,$1+$1,$4,$5,$6,$7,0*
20,1,$1+$1,$6,$7,$8,$9,0*
20,1,$1+$1,$8,$9,$2,$3,0*%
G04 Aperture macros list end*
%ADD10R,1.000000X0.750000*%
%ADD11RoundRect,0.079500X-0.079500X-0.100500X0.079500X-0.100500X0.079500X0.100500X-0.079500X0.100500X0*%
%ADD12R,0.500000X0.550000*%
%ADD13RoundRect,0.150000X-0.150000X0.587500X-0.150000X-0.587500X0.150000X-0.587500X0.150000X0.587500X0*%
%ADD14RoundRect,0.150000X0.150000X0.200000X-0.150000X0.200000X-0.150000X-0.200000X0.150000X-0.200000X0*%
%ADD15R,0.300000X0.700000*%
%ADD16R,0.300000X1.000000*%
%ADD17RoundRect,0.079500X0.079500X0.100500X-0.079500X0.100500X-0.079500X-0.100500X0.079500X-0.100500X0*%
%ADD18R,1.000000X0.500000*%
%ADD19R,1.700000X1.200000*%
%ADD20RoundRect,0.079500X-0.100500X0.079500X-0.100500X-0.079500X0.100500X-0.079500X0.100500X0.079500X0*%
%ADD21RoundRect,0.150000X-0.150000X-0.200000X0.150000X-0.200000X0.150000X0.200000X-0.150000X0.200000X0*%
%ADD22R,0.350000X0.890000*%
%ADD23RoundRect,0.100000X0.712500X0.100000X-0.712500X0.100000X-0.712500X-0.100000X0.712500X-0.100000X0*%
G04 APERTURE END LIST*
D10*
%TO.C,SW14*%
X221483657Y-133609400D03*
X215483657Y-133609400D03*
X221483657Y-137359400D03*
X215483657Y-137359400D03*
%TD*%
D11*
%TO.C,C26*%
X217119600Y-130502900D03*
X217809600Y-130502900D03*
%TD*%
%TO.C,R33*%
X220238800Y-129489200D03*
X220928800Y-129489200D03*
%TD*%
%TO.C,C27*%
X214782800Y-126515100D03*
X215472800Y-126515100D03*
%TD*%
D12*
%TO.C,SW15*%
X227025200Y-136245600D03*
X226225200Y-136245600D03*
X227025200Y-133595600D03*
X226225200Y-133595600D03*
%TD*%
D13*
%TO.C,Q5*%
X214000000Y-129641600D03*
X215900000Y-129641600D03*
X214950000Y-131516600D03*
%TD*%
D14*
%TO.C,D3*%
X219995400Y-131635000D03*
X221395400Y-131635000D03*
%TD*%
D15*
%TO.C,J13*%
X272740173Y-139656580D03*
X272240173Y-139656580D03*
X271740173Y-139656580D03*
X271240173Y-139656580D03*
X270740173Y-139656580D03*
X270240173Y-139656580D03*
D16*
X273530173Y-142306580D03*
X269450173Y-142306580D03*
%TD*%
D14*
%TO.C,D7*%
X217323400Y-129334500D03*
X218723400Y-129334500D03*
%TD*%
D17*
%TO.C,R31*%
X215472800Y-127404100D03*
X214782800Y-127404100D03*
%TD*%
D18*
%TO.C,J1*%
X219362600Y-124250400D03*
X219362600Y-123450400D03*
D19*
X217412600Y-125550400D03*
X217412600Y-122150400D03*
%TD*%
D20*
%TO.C,R32*%
X213984800Y-127414700D03*
X213984800Y-128104700D03*
%TD*%
D17*
%TO.C,C25*%
X220872800Y-130492000D03*
X220182800Y-130492000D03*
%TD*%
D21*
%TO.C,D6*%
X218713200Y-131648200D03*
X217313200Y-131648200D03*
%TD*%
D22*
%TO.C,J5*%
X215733635Y-90709400D03*
X216233635Y-90709400D03*
X216733635Y-90709400D03*
X217233635Y-90709400D03*
X217733635Y-90709400D03*
X218233635Y-90709400D03*
X218733635Y-90709400D03*
X219233635Y-90709400D03*
X219733635Y-90709400D03*
X220233635Y-90709400D03*
X220733635Y-90709400D03*
X221233635Y-90709400D03*
%TD*%
D23*
%TO.C,U7*%
X273740100Y-134102200D03*
X273740100Y-134752200D03*
X273740100Y-135402200D03*
X273740100Y-136052200D03*
X269515100Y-136052200D03*
X269515100Y-135402200D03*
X269515100Y-134752200D03*
X269515100Y-134102200D03*
%TD*%
M02*
