%TF.GenerationSoftware,KiCad,Pcbnew,8.0.2*%
%TF.CreationDate,2024-07-13T20:06:51-07:00*%
%TF.ProjectId,UGC_Main,5547435f-4d61-4696-9e2e-6b696361645f,rev?*%
%TF.SameCoordinates,Original*%
%TF.FileFunction,Legend,Bot*%
%TF.FilePolarity,Positive*%
%FSLAX46Y46*%
G04 Gerber Fmt 4.6, Leading zero omitted, Abs format (unit mm)*
G04 Created by KiCad (PCBNEW 8.0.2) date 2024-07-13 20:06:51*
%MOMM*%
%LPD*%
G01*
G04 APERTURE LIST*
%ADD10C,0.120000*%
%ADD11C,0.150000*%
%ADD12C,0.100000*%
%ADD13C,0.254000*%
%ADD14C,0.125000*%
%ADD15C,0.127000*%
%ADD16C,0.200000*%
G04 APERTURE END LIST*
D10*
X237850033Y-111226193D02*
X236897653Y-111226193D01*
X237373843Y-111702383D02*
X237373843Y-110750002D01*
D11*
X166348123Y-137134619D02*
X166348123Y-137848904D01*
X166348123Y-137848904D02*
X166395742Y-137991761D01*
X166395742Y-137991761D02*
X166490980Y-138087000D01*
X166490980Y-138087000D02*
X166633837Y-138134619D01*
X166633837Y-138134619D02*
X166729075Y-138134619D01*
X165348123Y-138134619D02*
X165919551Y-138134619D01*
X165633837Y-138134619D02*
X165633837Y-137134619D01*
X165633837Y-137134619D02*
X165729075Y-137277476D01*
X165729075Y-137277476D02*
X165824313Y-137372714D01*
X165824313Y-137372714D02*
X165919551Y-137420333D01*
X164729075Y-137134619D02*
X164633837Y-137134619D01*
X164633837Y-137134619D02*
X164538599Y-137182238D01*
X164538599Y-137182238D02*
X164490980Y-137229857D01*
X164490980Y-137229857D02*
X164443361Y-137325095D01*
X164443361Y-137325095D02*
X164395742Y-137515571D01*
X164395742Y-137515571D02*
X164395742Y-137753666D01*
X164395742Y-137753666D02*
X164443361Y-137944142D01*
X164443361Y-137944142D02*
X164490980Y-138039380D01*
X164490980Y-138039380D02*
X164538599Y-138087000D01*
X164538599Y-138087000D02*
X164633837Y-138134619D01*
X164633837Y-138134619D02*
X164729075Y-138134619D01*
X164729075Y-138134619D02*
X164824313Y-138087000D01*
X164824313Y-138087000D02*
X164871932Y-138039380D01*
X164871932Y-138039380D02*
X164919551Y-137944142D01*
X164919551Y-137944142D02*
X164967170Y-137753666D01*
X164967170Y-137753666D02*
X164967170Y-137515571D01*
X164967170Y-137515571D02*
X164919551Y-137325095D01*
X164919551Y-137325095D02*
X164871932Y-137229857D01*
X164871932Y-137229857D02*
X164824313Y-137182238D01*
X164824313Y-137182238D02*
X164729075Y-137134619D01*
D12*
X225480076Y-132035200D02*
X225622933Y-131987580D01*
X225622933Y-131987580D02*
X225861028Y-131987580D01*
X225861028Y-131987580D02*
X225956266Y-132035200D01*
X225956266Y-132035200D02*
X226003885Y-132082819D01*
X226003885Y-132082819D02*
X226051504Y-132178057D01*
X226051504Y-132178057D02*
X226051504Y-132273295D01*
X226051504Y-132273295D02*
X226003885Y-132368533D01*
X226003885Y-132368533D02*
X225956266Y-132416152D01*
X225956266Y-132416152D02*
X225861028Y-132463771D01*
X225861028Y-132463771D02*
X225670552Y-132511390D01*
X225670552Y-132511390D02*
X225575314Y-132559009D01*
X225575314Y-132559009D02*
X225527695Y-132606628D01*
X225527695Y-132606628D02*
X225480076Y-132701866D01*
X225480076Y-132701866D02*
X225480076Y-132797104D01*
X225480076Y-132797104D02*
X225527695Y-132892342D01*
X225527695Y-132892342D02*
X225575314Y-132939961D01*
X225575314Y-132939961D02*
X225670552Y-132987580D01*
X225670552Y-132987580D02*
X225908647Y-132987580D01*
X225908647Y-132987580D02*
X226051504Y-132939961D01*
X226384838Y-132987580D02*
X226622933Y-131987580D01*
X226622933Y-131987580D02*
X226813409Y-132701866D01*
X226813409Y-132701866D02*
X227003885Y-131987580D01*
X227003885Y-131987580D02*
X227241981Y-132987580D01*
X228146742Y-131987580D02*
X227575314Y-131987580D01*
X227861028Y-131987580D02*
X227861028Y-132987580D01*
X227861028Y-132987580D02*
X227765790Y-132844723D01*
X227765790Y-132844723D02*
X227670552Y-132749485D01*
X227670552Y-132749485D02*
X227575314Y-132701866D01*
X229051504Y-132987580D02*
X228575314Y-132987580D01*
X228575314Y-132987580D02*
X228527695Y-132511390D01*
X228527695Y-132511390D02*
X228575314Y-132559009D01*
X228575314Y-132559009D02*
X228670552Y-132606628D01*
X228670552Y-132606628D02*
X228908647Y-132606628D01*
X228908647Y-132606628D02*
X229003885Y-132559009D01*
X229003885Y-132559009D02*
X229051504Y-132511390D01*
X229051504Y-132511390D02*
X229099123Y-132416152D01*
X229099123Y-132416152D02*
X229099123Y-132178057D01*
X229099123Y-132178057D02*
X229051504Y-132082819D01*
X229051504Y-132082819D02*
X229003885Y-132035200D01*
X229003885Y-132035200D02*
X228908647Y-131987580D01*
X228908647Y-131987580D02*
X228670552Y-131987580D01*
X228670552Y-131987580D02*
X228575314Y-132035200D01*
X228575314Y-132035200D02*
X228527695Y-132082819D01*
D11*
X274206619Y-123974266D02*
X274920904Y-123974266D01*
X274920904Y-123974266D02*
X275063761Y-123926647D01*
X275063761Y-123926647D02*
X275159000Y-123831409D01*
X275159000Y-123831409D02*
X275206619Y-123688552D01*
X275206619Y-123688552D02*
X275206619Y-123593314D01*
X274206619Y-124355219D02*
X274206619Y-125021885D01*
X274206619Y-125021885D02*
X275206619Y-124593314D01*
D13*
X272518267Y-140460898D02*
X272518267Y-141368041D01*
X272518267Y-141368041D02*
X272578744Y-141549469D01*
X272578744Y-141549469D02*
X272699696Y-141670422D01*
X272699696Y-141670422D02*
X272881125Y-141730898D01*
X272881125Y-141730898D02*
X273002077Y-141730898D01*
X271248267Y-141730898D02*
X271973982Y-141730898D01*
X271611125Y-141730898D02*
X271611125Y-140460898D01*
X271611125Y-140460898D02*
X271732077Y-140642326D01*
X271732077Y-140642326D02*
X271853029Y-140763279D01*
X271853029Y-140763279D02*
X271973982Y-140823755D01*
X270824934Y-140460898D02*
X270038743Y-140460898D01*
X270038743Y-140460898D02*
X270462077Y-140944707D01*
X270462077Y-140944707D02*
X270280648Y-140944707D01*
X270280648Y-140944707D02*
X270159696Y-141005183D01*
X270159696Y-141005183D02*
X270099220Y-141065660D01*
X270099220Y-141065660D02*
X270038743Y-141186612D01*
X270038743Y-141186612D02*
X270038743Y-141488993D01*
X270038743Y-141488993D02*
X270099220Y-141609945D01*
X270099220Y-141609945D02*
X270159696Y-141670422D01*
X270159696Y-141670422D02*
X270280648Y-141730898D01*
X270280648Y-141730898D02*
X270643505Y-141730898D01*
X270643505Y-141730898D02*
X270764458Y-141670422D01*
X270764458Y-141670422D02*
X270824934Y-141609945D01*
D14*
X277229866Y-138383409D02*
X277229866Y-138740552D01*
X277229866Y-138740552D02*
X277253675Y-138811980D01*
X277253675Y-138811980D02*
X277301294Y-138859600D01*
X277301294Y-138859600D02*
X277372723Y-138883409D01*
X277372723Y-138883409D02*
X277420342Y-138883409D01*
X276729866Y-138883409D02*
X277015580Y-138883409D01*
X276872723Y-138883409D02*
X276872723Y-138383409D01*
X276872723Y-138383409D02*
X276920342Y-138454838D01*
X276920342Y-138454838D02*
X276967961Y-138502457D01*
X276967961Y-138502457D02*
X277015580Y-138526266D01*
D11*
X233952357Y-114116480D02*
X233809500Y-114164099D01*
X233809500Y-114164099D02*
X233761881Y-114211718D01*
X233761881Y-114211718D02*
X233714262Y-114306956D01*
X233714262Y-114306956D02*
X233714262Y-114449813D01*
X233714262Y-114449813D02*
X233761881Y-114545051D01*
X233761881Y-114545051D02*
X233809500Y-114592671D01*
X233809500Y-114592671D02*
X233904738Y-114640290D01*
X233904738Y-114640290D02*
X234285690Y-114640290D01*
X234285690Y-114640290D02*
X234285690Y-113640290D01*
X234285690Y-113640290D02*
X233952357Y-113640290D01*
X233952357Y-113640290D02*
X233857119Y-113687909D01*
X233857119Y-113687909D02*
X233809500Y-113735528D01*
X233809500Y-113735528D02*
X233761881Y-113830766D01*
X233761881Y-113830766D02*
X233761881Y-113926004D01*
X233761881Y-113926004D02*
X233809500Y-114021242D01*
X233809500Y-114021242D02*
X233857119Y-114068861D01*
X233857119Y-114068861D02*
X233952357Y-114116480D01*
X233952357Y-114116480D02*
X234285690Y-114116480D01*
X232761881Y-114640290D02*
X233333309Y-114640290D01*
X233047595Y-114640290D02*
X233047595Y-113640290D01*
X233047595Y-113640290D02*
X233142833Y-113783147D01*
X233142833Y-113783147D02*
X233238071Y-113878385D01*
X233238071Y-113878385D02*
X233333309Y-113926004D01*
X160977819Y-126301666D02*
X161692104Y-126301666D01*
X161692104Y-126301666D02*
X161834961Y-126254047D01*
X161834961Y-126254047D02*
X161930200Y-126158809D01*
X161930200Y-126158809D02*
X161977819Y-126015952D01*
X161977819Y-126015952D02*
X161977819Y-125920714D01*
X160977819Y-127206428D02*
X160977819Y-127015952D01*
X160977819Y-127015952D02*
X161025438Y-126920714D01*
X161025438Y-126920714D02*
X161073057Y-126873095D01*
X161073057Y-126873095D02*
X161215914Y-126777857D01*
X161215914Y-126777857D02*
X161406390Y-126730238D01*
X161406390Y-126730238D02*
X161787342Y-126730238D01*
X161787342Y-126730238D02*
X161882580Y-126777857D01*
X161882580Y-126777857D02*
X161930200Y-126825476D01*
X161930200Y-126825476D02*
X161977819Y-126920714D01*
X161977819Y-126920714D02*
X161977819Y-127111190D01*
X161977819Y-127111190D02*
X161930200Y-127206428D01*
X161930200Y-127206428D02*
X161882580Y-127254047D01*
X161882580Y-127254047D02*
X161787342Y-127301666D01*
X161787342Y-127301666D02*
X161549247Y-127301666D01*
X161549247Y-127301666D02*
X161454009Y-127254047D01*
X161454009Y-127254047D02*
X161406390Y-127206428D01*
X161406390Y-127206428D02*
X161358771Y-127111190D01*
X161358771Y-127111190D02*
X161358771Y-126920714D01*
X161358771Y-126920714D02*
X161406390Y-126825476D01*
X161406390Y-126825476D02*
X161454009Y-126777857D01*
X161454009Y-126777857D02*
X161549247Y-126730238D01*
X217590563Y-92552798D02*
X217590563Y-93268467D01*
X217590563Y-93268467D02*
X217638275Y-93411601D01*
X217638275Y-93411601D02*
X217733697Y-93507024D01*
X217733697Y-93507024D02*
X217876831Y-93554735D01*
X217876831Y-93554735D02*
X217972254Y-93554735D01*
X216636337Y-92552798D02*
X217113450Y-92552798D01*
X217113450Y-92552798D02*
X217161161Y-93029911D01*
X217161161Y-93029911D02*
X217113450Y-92982199D01*
X217113450Y-92982199D02*
X217018028Y-92934488D01*
X217018028Y-92934488D02*
X216779471Y-92934488D01*
X216779471Y-92934488D02*
X216684049Y-92982199D01*
X216684049Y-92982199D02*
X216636337Y-93029911D01*
X216636337Y-93029911D02*
X216588626Y-93125333D01*
X216588626Y-93125333D02*
X216588626Y-93363890D01*
X216588626Y-93363890D02*
X216636337Y-93459312D01*
X216636337Y-93459312D02*
X216684049Y-93507024D01*
X216684049Y-93507024D02*
X216779471Y-93554735D01*
X216779471Y-93554735D02*
X217018028Y-93554735D01*
X217018028Y-93554735D02*
X217113450Y-93507024D01*
X217113450Y-93507024D02*
X217161161Y-93459312D01*
D10*
X272046647Y-132325400D02*
X272046647Y-132770638D01*
X272046647Y-132770638D02*
X272020457Y-132823019D01*
X272020457Y-132823019D02*
X271994266Y-132849210D01*
X271994266Y-132849210D02*
X271941885Y-132875400D01*
X271941885Y-132875400D02*
X271837123Y-132875400D01*
X271837123Y-132875400D02*
X271784742Y-132849210D01*
X271784742Y-132849210D02*
X271758552Y-132823019D01*
X271758552Y-132823019D02*
X271732361Y-132770638D01*
X271732361Y-132770638D02*
X271732361Y-132325400D01*
X271522838Y-132325400D02*
X271156171Y-132325400D01*
X271156171Y-132325400D02*
X271391886Y-132875400D01*
%TO.C,TP4*%
X166795600Y-137865000D02*
X169195600Y-137865000D01*
X169195600Y-137865000D02*
X169195600Y-140265000D01*
X166795600Y-140265000D02*
X166795600Y-137865000D01*
X169195600Y-140265000D02*
X166795600Y-140265000D01*
%TO.C,TP3*%
X162731600Y-137890400D02*
X165131600Y-137890400D01*
X165131600Y-137890400D02*
X165131600Y-140290400D01*
X162731600Y-140290400D02*
X162731600Y-137890400D01*
X165131600Y-140290400D02*
X162731600Y-140290400D01*
D15*
%TO.C,J10*%
X167863600Y-140351800D02*
X167863600Y-139614800D01*
X167063600Y-139614800D02*
X167863600Y-139614800D01*
X166926600Y-139314800D02*
X167063600Y-139314800D01*
X167063600Y-139314800D02*
X167063600Y-139614800D01*
X165177600Y-142014800D02*
X166749600Y-142014800D01*
X165000600Y-139314800D02*
X164863600Y-139314800D01*
X164863600Y-139614800D02*
X164863600Y-139314800D01*
X164063600Y-139614800D02*
X164863600Y-139614800D01*
X164063600Y-140351800D02*
X164063600Y-139614800D01*
D16*
X167188600Y-138839800D02*
G75*
G02*
X166988600Y-138839800I-100000J0D01*
G01*
X166988600Y-138839800D02*
G75*
G02*
X167188600Y-138839800I100000J0D01*
G01*
D15*
%TO.C,SW14*%
X215933657Y-134304400D02*
X215933657Y-136664400D01*
X220733657Y-132934400D02*
X216233657Y-132934400D01*
X220733657Y-138034400D02*
X216233657Y-138034400D01*
X221033657Y-136664400D02*
X221033657Y-134304400D01*
D16*
X222833657Y-133609400D02*
G75*
G02*
X222633657Y-133609400I-100000J0D01*
G01*
X222633657Y-133609400D02*
G75*
G02*
X222833657Y-133609400I100000J0D01*
G01*
D10*
%TO.C,TP1*%
X275355200Y-137890400D02*
X277755200Y-137890400D01*
X275355200Y-140290400D02*
X275355200Y-137890400D01*
X277755200Y-137890400D02*
X277755200Y-140290400D01*
X277755200Y-140290400D02*
X275355200Y-140290400D01*
%TO.C,SW15*%
D12*
X227676000Y-133971400D02*
X225574400Y-133971400D01*
X225574400Y-135869800D01*
X227676000Y-135869800D01*
X227676000Y-133971400D01*
D10*
%TO.C,J7*%
X276591600Y-123575000D02*
X276591600Y-129695000D01*
X276591600Y-129695000D02*
X281311600Y-129695000D01*
X277201600Y-124185000D02*
X277201600Y-129085000D01*
X277201600Y-126535000D02*
X277701600Y-126535000D01*
X277201600Y-129085000D02*
X280701600Y-129085000D01*
X277701600Y-126535000D02*
X277701600Y-126735000D01*
X277701600Y-126635000D02*
X277201600Y-126635000D01*
X277701600Y-126735000D02*
X277201600Y-126735000D01*
X278701600Y-124185000D02*
X278701600Y-123575000D01*
X278701600Y-129085000D02*
X278701600Y-129695000D01*
X280001600Y-124185000D02*
X280001600Y-123575000D01*
X280001600Y-129085000D02*
X280001600Y-129695000D01*
X280361600Y-129995000D02*
X281611600Y-129995000D01*
X280701600Y-124185000D02*
X277201600Y-124185000D01*
X280701600Y-126135000D02*
X280701600Y-124185000D01*
X280701600Y-127135000D02*
X281311600Y-127135000D01*
X280701600Y-129085000D02*
X280701600Y-127135000D01*
X281311600Y-123575000D02*
X276591600Y-123575000D01*
X281311600Y-126135000D02*
X280701600Y-126135000D01*
X281311600Y-128235000D02*
X281511600Y-128235000D01*
X281311600Y-129695000D02*
X281311600Y-123575000D01*
X281411600Y-128235000D02*
X281411600Y-127935000D01*
X281511600Y-127935000D02*
X281311600Y-127935000D01*
X281511600Y-128235000D02*
X281511600Y-127935000D01*
X281611600Y-129995000D02*
X281611600Y-128745000D01*
D16*
%TO.C,J13*%
X269140173Y-139356580D02*
X269890173Y-139356580D01*
X269140173Y-141556580D02*
X269140173Y-139356580D01*
X269890173Y-142956580D02*
X273090173Y-142956580D01*
D12*
X272690173Y-138756580D02*
X272690173Y-138756580D01*
X272690173Y-138856580D02*
X272690173Y-138856580D01*
D16*
X273840173Y-139356580D02*
X273290173Y-139356580D01*
X273840173Y-141556580D02*
X273840173Y-139356580D01*
D12*
X272690173Y-138756580D02*
G75*
G02*
X272690173Y-138856580I0J-50000D01*
G01*
X272690173Y-138856580D02*
G75*
G02*
X272690173Y-138756580I0J50000D01*
G01*
%TO.C,RV2*%
X238483657Y-97934400D02*
X240893657Y-97934400D01*
X238483657Y-111874400D02*
X238483657Y-97934400D01*
X238483657Y-114054400D02*
X238483657Y-114684400D01*
X238483657Y-114684400D02*
X248483657Y-114684400D01*
X246073657Y-97934400D02*
X248483657Y-97934400D01*
X248483657Y-111874400D02*
X248483657Y-97934400D01*
X248483657Y-114059400D02*
X248483657Y-114684400D01*
D10*
%TO.C,TP2*%
X278999742Y-137896669D02*
X281399742Y-137896669D01*
X278999742Y-140296669D02*
X278999742Y-137896669D01*
X281399742Y-137896669D02*
X281399742Y-140296669D01*
X281399742Y-140296669D02*
X278999742Y-140296669D01*
D15*
%TO.C,J1*%
X277598000Y-142014800D02*
X279170000Y-142014800D01*
X276484000Y-140351800D02*
X276484000Y-139614800D01*
X280284000Y-140351800D02*
X280284000Y-139614800D01*
X276484000Y-139614800D02*
X277284000Y-139614800D01*
X277284000Y-139614800D02*
X277284000Y-139314800D01*
X279484000Y-139614800D02*
X280284000Y-139614800D01*
X277421000Y-139314800D02*
X277284000Y-139314800D01*
X279347000Y-139314800D02*
X279484000Y-139314800D01*
X279484000Y-139314800D02*
X279484000Y-139614800D01*
D16*
X279609000Y-138839800D02*
G75*
G02*
X279409000Y-138839800I-100000J0D01*
G01*
X279409000Y-138839800D02*
G75*
G02*
X279609000Y-138839800I100000J0D01*
G01*
D10*
%TO.C,B1*%
X230187596Y-112145471D02*
X230187596Y-113395471D01*
X230187596Y-113395471D02*
X231437596Y-113395471D01*
X230487596Y-108375471D02*
X230487596Y-113095471D01*
X230487596Y-113095471D02*
X236607596Y-113095471D01*
X231097596Y-108985471D02*
X231097596Y-112485471D01*
X231097596Y-110485471D02*
X230487596Y-110485471D01*
X231097596Y-111785471D02*
X230487596Y-111785471D01*
X231097596Y-112485471D02*
X233047596Y-112485471D01*
X231947596Y-113095471D02*
X231947596Y-113295471D01*
X231947596Y-113195471D02*
X232247596Y-113195471D01*
X231947596Y-113295471D02*
X232247596Y-113295471D01*
X232247596Y-113295471D02*
X232247596Y-113095471D01*
X233047596Y-112485471D02*
X233047596Y-113095471D01*
X233447596Y-109485471D02*
X233447596Y-108985471D01*
X233547596Y-109485471D02*
X233547596Y-108985471D01*
X233647596Y-108985471D02*
X233647596Y-109485471D01*
X233647596Y-109485471D02*
X233447596Y-109485471D01*
X234047596Y-112485471D02*
X235997596Y-112485471D01*
X234047596Y-113095471D02*
X234047596Y-112485471D01*
X235997596Y-108985471D02*
X231097596Y-108985471D01*
X235997596Y-110485471D02*
X236607596Y-110485471D01*
X235997596Y-111785471D02*
X236607596Y-111785471D01*
X235997596Y-112485471D02*
X235997596Y-108985471D01*
X236607596Y-108375471D02*
X230487596Y-108375471D01*
X236607596Y-113095471D02*
X236607596Y-108375471D01*
%TO.C,J6*%
X155713000Y-123575000D02*
X155713000Y-129695000D01*
X155713000Y-129695000D02*
X160433000Y-129695000D01*
X156323000Y-124185000D02*
X156323000Y-129085000D01*
X156323000Y-126535000D02*
X156823000Y-126535000D01*
X156323000Y-129085000D02*
X159823000Y-129085000D01*
X156823000Y-126535000D02*
X156823000Y-126735000D01*
X156823000Y-126635000D02*
X156323000Y-126635000D01*
X156823000Y-126735000D02*
X156323000Y-126735000D01*
X157823000Y-124185000D02*
X157823000Y-123575000D01*
X157823000Y-129085000D02*
X157823000Y-129695000D01*
X159123000Y-124185000D02*
X159123000Y-123575000D01*
X159123000Y-129085000D02*
X159123000Y-129695000D01*
X159483000Y-129995000D02*
X160733000Y-129995000D01*
X159823000Y-124185000D02*
X156323000Y-124185000D01*
X159823000Y-126135000D02*
X159823000Y-124185000D01*
X159823000Y-127135000D02*
X160433000Y-127135000D01*
X159823000Y-129085000D02*
X159823000Y-127135000D01*
X160433000Y-123575000D02*
X155713000Y-123575000D01*
X160433000Y-126135000D02*
X159823000Y-126135000D01*
X160433000Y-128235000D02*
X160633000Y-128235000D01*
X160433000Y-129695000D02*
X160433000Y-123575000D01*
X160533000Y-128235000D02*
X160533000Y-127935000D01*
X160633000Y-127935000D02*
X160433000Y-127935000D01*
X160633000Y-128235000D02*
X160633000Y-127935000D01*
X160733000Y-129995000D02*
X160733000Y-128745000D01*
D15*
%TO.C,J5*%
X213658635Y-81054400D02*
X223308635Y-81054400D01*
X213658635Y-83304400D02*
X213658635Y-81054400D01*
X213658635Y-89054400D02*
X213658635Y-86054400D01*
X215233635Y-91054400D02*
X214733635Y-91054400D01*
X222233635Y-91054400D02*
X221733635Y-91054400D01*
X223308635Y-81054400D02*
X223308635Y-83304400D01*
X223308635Y-86054400D02*
X223308635Y-89054400D01*
D16*
X215833635Y-91554400D02*
G75*
G02*
X215633635Y-91554400I-100000J0D01*
G01*
X215633635Y-91554400D02*
G75*
G02*
X215833635Y-91554400I100000J0D01*
G01*
D10*
%TO.C,U7*%
X270127600Y-133467200D02*
X271627600Y-133467200D01*
X270127600Y-136687200D02*
X271627600Y-136687200D01*
X273127600Y-133467200D02*
X271627600Y-133467200D01*
X273127600Y-136687200D02*
X271627600Y-136687200D01*
X273840100Y-133642200D02*
X273600100Y-133312200D01*
X274080100Y-133312200D01*
X273840100Y-133642200D01*
G36*
X273840100Y-133642200D02*
G01*
X273600100Y-133312200D01*
X274080100Y-133312200D01*
X273840100Y-133642200D01*
G37*
D12*
%TO.C,RV1*%
X188483657Y-97934400D02*
X190893657Y-97934400D01*
X188483657Y-111874400D02*
X188483657Y-97934400D01*
X188483657Y-114054400D02*
X188483657Y-114684400D01*
X188483657Y-114684400D02*
X198483657Y-114684400D01*
X196073657Y-97934400D02*
X198483657Y-97934400D01*
X198483657Y-111874400D02*
X198483657Y-97934400D01*
X198483657Y-114059400D02*
X198483657Y-114684400D01*
%TD*%
M02*
