%TF.GenerationSoftware,KiCad,Pcbnew,8.0.2*%
%TF.CreationDate,2024-08-31T11:26:56-07:00*%
%TF.ProjectId,UGC_MechTrigger_R4K,5547435f-4d65-4636-9854-726967676572,rev?*%
%TF.SameCoordinates,Original*%
%TF.FileFunction,Drillmap*%
%TF.FilePolarity,Positive*%
%FSLAX45Y45*%
G04 Gerber Fmt 4.5, Leading zero omitted, Abs format (unit mm)*
G04 Created by KiCad (PCBNEW 8.0.2) date 2024-08-31 11:26:56*
%MOMM*%
%LPD*%
G01*
G04 APERTURE LIST*
%ADD10C,0.010000*%
%ADD11C,0.001000*%
%ADD12C,0.200000*%
%ADD13C,0.100000*%
G04 APERTURE END LIST*
D10*
X21761820Y-15886420D02*
X21761820Y-15886420D01*
X21761820Y-15936420D02*
X21761820Y-15936420D01*
X21276820Y-15472620D02*
X21276820Y-15736420D01*
X21376820Y-15836420D02*
G75*
G02*
X21276820Y-15736420I0J100000D01*
G01*
X21276820Y-15736420D02*
X21276820Y-15736420D01*
X23011820Y-15372620D02*
G75*
G02*
X22911820Y-15472620I-100000J0D01*
G01*
X22911820Y-14512620D02*
X21011820Y-14512620D01*
X21011820Y-15472620D02*
G75*
G02*
X20911820Y-15372620I0J100000D01*
G01*
X21376820Y-15836420D02*
X21711820Y-15836420D01*
X20911820Y-14612620D02*
X20911820Y-15372620D01*
X22211820Y-15836420D02*
X22546820Y-15836420D01*
X21711820Y-15836420D02*
G75*
G02*
X21761820Y-15886420I0J-50000D01*
G01*
X22911820Y-14512620D02*
G75*
G02*
X23011820Y-14612620I0J-100000D01*
G01*
X20911820Y-14612620D02*
G75*
G02*
X21011820Y-14512620I100000J0D01*
G01*
X21761820Y-15886420D02*
X21761820Y-15936420D01*
X22646820Y-15472620D02*
X22911820Y-15472620D01*
X21811820Y-15986420D02*
X22111820Y-15986420D01*
X21011820Y-15472620D02*
X21276820Y-15472620D01*
X22161820Y-15936420D02*
X22161820Y-15886420D01*
X21811820Y-15986420D02*
G75*
G02*
X21761820Y-15936420I0J50000D01*
G01*
X22161820Y-15936420D02*
G75*
G02*
X22111820Y-15986420I-50000J0D01*
G01*
X22161820Y-15886420D02*
G75*
G02*
X22211820Y-15836420I50000J0D01*
G01*
X22646820Y-15736420D02*
X22646820Y-15472620D01*
X23011820Y-15372620D02*
X23011820Y-14612620D01*
X22646820Y-15736420D02*
G75*
G02*
X22546820Y-15836420I-100000J0D01*
G01*
D11*
X22211820Y-15146420D02*
G75*
G02*
X21711820Y-15146420I-250000J0D01*
G01*
X21711820Y-15146420D02*
G75*
G02*
X22211820Y-15146420I250000J0D01*
G01*
D12*
D13*
X22429320Y-15598920D02*
X22524320Y-15693920D01*
X22524320Y-15598920D02*
X22429320Y-15693920D01*
D12*
X21172097Y-16298404D02*
X21172097Y-16098404D01*
X21172097Y-16098404D02*
X21219716Y-16098404D01*
X21219716Y-16098404D02*
X21248287Y-16107928D01*
X21248287Y-16107928D02*
X21267335Y-16126975D01*
X21267335Y-16126975D02*
X21276859Y-16146023D01*
X21276859Y-16146023D02*
X21286383Y-16184118D01*
X21286383Y-16184118D02*
X21286383Y-16212690D01*
X21286383Y-16212690D02*
X21276859Y-16250785D01*
X21276859Y-16250785D02*
X21267335Y-16269832D01*
X21267335Y-16269832D02*
X21248287Y-16288880D01*
X21248287Y-16288880D02*
X21219716Y-16298404D01*
X21219716Y-16298404D02*
X21172097Y-16298404D01*
X21372097Y-16298404D02*
X21372097Y-16165070D01*
X21372097Y-16203166D02*
X21381621Y-16184118D01*
X21381621Y-16184118D02*
X21391144Y-16174594D01*
X21391144Y-16174594D02*
X21410192Y-16165070D01*
X21410192Y-16165070D02*
X21429240Y-16165070D01*
X21495906Y-16298404D02*
X21495906Y-16165070D01*
X21495906Y-16098404D02*
X21486383Y-16107928D01*
X21486383Y-16107928D02*
X21495906Y-16117451D01*
X21495906Y-16117451D02*
X21505430Y-16107928D01*
X21505430Y-16107928D02*
X21495906Y-16098404D01*
X21495906Y-16098404D02*
X21495906Y-16117451D01*
X21619716Y-16298404D02*
X21600668Y-16288880D01*
X21600668Y-16288880D02*
X21591144Y-16269832D01*
X21591144Y-16269832D02*
X21591144Y-16098404D01*
X21724478Y-16298404D02*
X21705430Y-16288880D01*
X21705430Y-16288880D02*
X21695906Y-16269832D01*
X21695906Y-16269832D02*
X21695906Y-16098404D01*
X21953049Y-16298404D02*
X21953049Y-16098404D01*
X21953049Y-16098404D02*
X22019716Y-16241261D01*
X22019716Y-16241261D02*
X22086383Y-16098404D01*
X22086383Y-16098404D02*
X22086383Y-16298404D01*
X22267335Y-16298404D02*
X22267335Y-16193642D01*
X22267335Y-16193642D02*
X22257811Y-16174594D01*
X22257811Y-16174594D02*
X22238764Y-16165070D01*
X22238764Y-16165070D02*
X22200668Y-16165070D01*
X22200668Y-16165070D02*
X22181621Y-16174594D01*
X22267335Y-16288880D02*
X22248287Y-16298404D01*
X22248287Y-16298404D02*
X22200668Y-16298404D01*
X22200668Y-16298404D02*
X22181621Y-16288880D01*
X22181621Y-16288880D02*
X22172097Y-16269832D01*
X22172097Y-16269832D02*
X22172097Y-16250785D01*
X22172097Y-16250785D02*
X22181621Y-16231737D01*
X22181621Y-16231737D02*
X22200668Y-16222213D01*
X22200668Y-16222213D02*
X22248287Y-16222213D01*
X22248287Y-16222213D02*
X22267335Y-16212690D01*
X22362573Y-16165070D02*
X22362573Y-16365070D01*
X22362573Y-16174594D02*
X22381621Y-16165070D01*
X22381621Y-16165070D02*
X22419716Y-16165070D01*
X22419716Y-16165070D02*
X22438763Y-16174594D01*
X22438763Y-16174594D02*
X22448287Y-16184118D01*
X22448287Y-16184118D02*
X22457811Y-16203166D01*
X22457811Y-16203166D02*
X22457811Y-16260309D01*
X22457811Y-16260309D02*
X22448287Y-16279356D01*
X22448287Y-16279356D02*
X22438763Y-16288880D01*
X22438763Y-16288880D02*
X22419716Y-16298404D01*
X22419716Y-16298404D02*
X22381621Y-16298404D01*
X22381621Y-16298404D02*
X22362573Y-16288880D01*
X22543525Y-16279356D02*
X22553049Y-16288880D01*
X22553049Y-16288880D02*
X22543525Y-16298404D01*
X22543525Y-16298404D02*
X22534002Y-16288880D01*
X22534002Y-16288880D02*
X22543525Y-16279356D01*
X22543525Y-16279356D02*
X22543525Y-16298404D01*
X22543525Y-16174594D02*
X22553049Y-16184118D01*
X22553049Y-16184118D02*
X22543525Y-16193642D01*
X22543525Y-16193642D02*
X22534002Y-16184118D01*
X22534002Y-16184118D02*
X22543525Y-16174594D01*
X22543525Y-16174594D02*
X22543525Y-16193642D01*
D13*
X20816320Y-16579420D02*
X20911320Y-16674420D01*
X20911320Y-16579420D02*
X20816320Y-16674420D01*
D12*
X21210192Y-16518404D02*
X21229240Y-16518404D01*
X21229240Y-16518404D02*
X21248287Y-16527928D01*
X21248287Y-16527928D02*
X21257811Y-16537451D01*
X21257811Y-16537451D02*
X21267335Y-16556499D01*
X21267335Y-16556499D02*
X21276859Y-16594594D01*
X21276859Y-16594594D02*
X21276859Y-16642213D01*
X21276859Y-16642213D02*
X21267335Y-16680309D01*
X21267335Y-16680309D02*
X21257811Y-16699356D01*
X21257811Y-16699356D02*
X21248287Y-16708880D01*
X21248287Y-16708880D02*
X21229240Y-16718404D01*
X21229240Y-16718404D02*
X21210192Y-16718404D01*
X21210192Y-16718404D02*
X21191144Y-16708880D01*
X21191144Y-16708880D02*
X21181621Y-16699356D01*
X21181621Y-16699356D02*
X21172097Y-16680309D01*
X21172097Y-16680309D02*
X21162573Y-16642213D01*
X21162573Y-16642213D02*
X21162573Y-16594594D01*
X21162573Y-16594594D02*
X21172097Y-16556499D01*
X21172097Y-16556499D02*
X21181621Y-16537451D01*
X21181621Y-16537451D02*
X21191144Y-16527928D01*
X21191144Y-16527928D02*
X21210192Y-16518404D01*
X21362573Y-16699356D02*
X21372097Y-16708880D01*
X21372097Y-16708880D02*
X21362573Y-16718404D01*
X21362573Y-16718404D02*
X21353049Y-16708880D01*
X21353049Y-16708880D02*
X21362573Y-16699356D01*
X21362573Y-16699356D02*
X21362573Y-16718404D01*
X21467335Y-16718404D02*
X21505430Y-16718404D01*
X21505430Y-16718404D02*
X21524478Y-16708880D01*
X21524478Y-16708880D02*
X21534002Y-16699356D01*
X21534002Y-16699356D02*
X21553049Y-16670785D01*
X21553049Y-16670785D02*
X21562573Y-16632690D01*
X21562573Y-16632690D02*
X21562573Y-16556499D01*
X21562573Y-16556499D02*
X21553049Y-16537451D01*
X21553049Y-16537451D02*
X21543525Y-16527928D01*
X21543525Y-16527928D02*
X21524478Y-16518404D01*
X21524478Y-16518404D02*
X21486383Y-16518404D01*
X21486383Y-16518404D02*
X21467335Y-16527928D01*
X21467335Y-16527928D02*
X21457811Y-16537451D01*
X21457811Y-16537451D02*
X21448287Y-16556499D01*
X21448287Y-16556499D02*
X21448287Y-16604118D01*
X21448287Y-16604118D02*
X21457811Y-16623166D01*
X21457811Y-16623166D02*
X21467335Y-16632690D01*
X21467335Y-16632690D02*
X21486383Y-16642213D01*
X21486383Y-16642213D02*
X21524478Y-16642213D01*
X21524478Y-16642213D02*
X21543525Y-16632690D01*
X21543525Y-16632690D02*
X21553049Y-16623166D01*
X21553049Y-16623166D02*
X21562573Y-16604118D01*
X21743525Y-16518404D02*
X21648287Y-16518404D01*
X21648287Y-16518404D02*
X21638764Y-16613642D01*
X21638764Y-16613642D02*
X21648287Y-16604118D01*
X21648287Y-16604118D02*
X21667335Y-16594594D01*
X21667335Y-16594594D02*
X21714954Y-16594594D01*
X21714954Y-16594594D02*
X21734002Y-16604118D01*
X21734002Y-16604118D02*
X21743525Y-16613642D01*
X21743525Y-16613642D02*
X21753049Y-16632690D01*
X21753049Y-16632690D02*
X21753049Y-16680309D01*
X21753049Y-16680309D02*
X21743525Y-16699356D01*
X21743525Y-16699356D02*
X21734002Y-16708880D01*
X21734002Y-16708880D02*
X21714954Y-16718404D01*
X21714954Y-16718404D02*
X21667335Y-16718404D01*
X21667335Y-16718404D02*
X21648287Y-16708880D01*
X21648287Y-16708880D02*
X21638764Y-16699356D01*
X21876859Y-16518404D02*
X21895906Y-16518404D01*
X21895906Y-16518404D02*
X21914954Y-16527928D01*
X21914954Y-16527928D02*
X21924478Y-16537451D01*
X21924478Y-16537451D02*
X21934002Y-16556499D01*
X21934002Y-16556499D02*
X21943525Y-16594594D01*
X21943525Y-16594594D02*
X21943525Y-16642213D01*
X21943525Y-16642213D02*
X21934002Y-16680309D01*
X21934002Y-16680309D02*
X21924478Y-16699356D01*
X21924478Y-16699356D02*
X21914954Y-16708880D01*
X21914954Y-16708880D02*
X21895906Y-16718404D01*
X21895906Y-16718404D02*
X21876859Y-16718404D01*
X21876859Y-16718404D02*
X21857811Y-16708880D01*
X21857811Y-16708880D02*
X21848287Y-16699356D01*
X21848287Y-16699356D02*
X21838764Y-16680309D01*
X21838764Y-16680309D02*
X21829240Y-16642213D01*
X21829240Y-16642213D02*
X21829240Y-16594594D01*
X21829240Y-16594594D02*
X21838764Y-16556499D01*
X21838764Y-16556499D02*
X21848287Y-16537451D01*
X21848287Y-16537451D02*
X21857811Y-16527928D01*
X21857811Y-16527928D02*
X21876859Y-16518404D01*
X22029240Y-16718404D02*
X22029240Y-16585070D01*
X22029240Y-16604118D02*
X22038764Y-16594594D01*
X22038764Y-16594594D02*
X22057811Y-16585070D01*
X22057811Y-16585070D02*
X22086383Y-16585070D01*
X22086383Y-16585070D02*
X22105430Y-16594594D01*
X22105430Y-16594594D02*
X22114954Y-16613642D01*
X22114954Y-16613642D02*
X22114954Y-16718404D01*
X22114954Y-16613642D02*
X22124478Y-16594594D01*
X22124478Y-16594594D02*
X22143525Y-16585070D01*
X22143525Y-16585070D02*
X22172097Y-16585070D01*
X22172097Y-16585070D02*
X22191145Y-16594594D01*
X22191145Y-16594594D02*
X22200668Y-16613642D01*
X22200668Y-16613642D02*
X22200668Y-16718404D01*
X22295906Y-16718404D02*
X22295906Y-16585070D01*
X22295906Y-16604118D02*
X22305430Y-16594594D01*
X22305430Y-16594594D02*
X22324478Y-16585070D01*
X22324478Y-16585070D02*
X22353049Y-16585070D01*
X22353049Y-16585070D02*
X22372097Y-16594594D01*
X22372097Y-16594594D02*
X22381621Y-16613642D01*
X22381621Y-16613642D02*
X22381621Y-16718404D01*
X22381621Y-16613642D02*
X22391144Y-16594594D01*
X22391144Y-16594594D02*
X22410192Y-16585070D01*
X22410192Y-16585070D02*
X22438763Y-16585070D01*
X22438763Y-16585070D02*
X22457811Y-16594594D01*
X22457811Y-16594594D02*
X22467335Y-16613642D01*
X22467335Y-16613642D02*
X22467335Y-16718404D01*
X22857811Y-16508880D02*
X22686383Y-16766023D01*
X23114954Y-16518404D02*
X23134002Y-16518404D01*
X23134002Y-16518404D02*
X23153049Y-16527928D01*
X23153049Y-16527928D02*
X23162573Y-16537451D01*
X23162573Y-16537451D02*
X23172097Y-16556499D01*
X23172097Y-16556499D02*
X23181621Y-16594594D01*
X23181621Y-16594594D02*
X23181621Y-16642213D01*
X23181621Y-16642213D02*
X23172097Y-16680309D01*
X23172097Y-16680309D02*
X23162573Y-16699356D01*
X23162573Y-16699356D02*
X23153049Y-16708880D01*
X23153049Y-16708880D02*
X23134002Y-16718404D01*
X23134002Y-16718404D02*
X23114954Y-16718404D01*
X23114954Y-16718404D02*
X23095906Y-16708880D01*
X23095906Y-16708880D02*
X23086383Y-16699356D01*
X23086383Y-16699356D02*
X23076859Y-16680309D01*
X23076859Y-16680309D02*
X23067335Y-16642213D01*
X23067335Y-16642213D02*
X23067335Y-16594594D01*
X23067335Y-16594594D02*
X23076859Y-16556499D01*
X23076859Y-16556499D02*
X23086383Y-16537451D01*
X23086383Y-16537451D02*
X23095906Y-16527928D01*
X23095906Y-16527928D02*
X23114954Y-16518404D01*
X23267335Y-16699356D02*
X23276859Y-16708880D01*
X23276859Y-16708880D02*
X23267335Y-16718404D01*
X23267335Y-16718404D02*
X23257811Y-16708880D01*
X23257811Y-16708880D02*
X23267335Y-16699356D01*
X23267335Y-16699356D02*
X23267335Y-16718404D01*
X23400668Y-16518404D02*
X23419716Y-16518404D01*
X23419716Y-16518404D02*
X23438764Y-16527928D01*
X23438764Y-16527928D02*
X23448287Y-16537451D01*
X23448287Y-16537451D02*
X23457811Y-16556499D01*
X23457811Y-16556499D02*
X23467335Y-16594594D01*
X23467335Y-16594594D02*
X23467335Y-16642213D01*
X23467335Y-16642213D02*
X23457811Y-16680309D01*
X23457811Y-16680309D02*
X23448287Y-16699356D01*
X23448287Y-16699356D02*
X23438764Y-16708880D01*
X23438764Y-16708880D02*
X23419716Y-16718404D01*
X23419716Y-16718404D02*
X23400668Y-16718404D01*
X23400668Y-16718404D02*
X23381621Y-16708880D01*
X23381621Y-16708880D02*
X23372097Y-16699356D01*
X23372097Y-16699356D02*
X23362573Y-16680309D01*
X23362573Y-16680309D02*
X23353049Y-16642213D01*
X23353049Y-16642213D02*
X23353049Y-16594594D01*
X23353049Y-16594594D02*
X23362573Y-16556499D01*
X23362573Y-16556499D02*
X23372097Y-16537451D01*
X23372097Y-16537451D02*
X23381621Y-16527928D01*
X23381621Y-16527928D02*
X23400668Y-16518404D01*
X23534002Y-16518404D02*
X23657811Y-16518404D01*
X23657811Y-16518404D02*
X23591145Y-16594594D01*
X23591145Y-16594594D02*
X23619716Y-16594594D01*
X23619716Y-16594594D02*
X23638764Y-16604118D01*
X23638764Y-16604118D02*
X23648287Y-16613642D01*
X23648287Y-16613642D02*
X23657811Y-16632690D01*
X23657811Y-16632690D02*
X23657811Y-16680309D01*
X23657811Y-16680309D02*
X23648287Y-16699356D01*
X23648287Y-16699356D02*
X23638764Y-16708880D01*
X23638764Y-16708880D02*
X23619716Y-16718404D01*
X23619716Y-16718404D02*
X23562573Y-16718404D01*
X23562573Y-16718404D02*
X23543526Y-16708880D01*
X23543526Y-16708880D02*
X23534002Y-16699356D01*
X23724478Y-16518404D02*
X23857811Y-16518404D01*
X23857811Y-16518404D02*
X23772097Y-16718404D01*
X24019716Y-16585070D02*
X24019716Y-16718404D01*
X23972097Y-16508880D02*
X23924478Y-16651737D01*
X23924478Y-16651737D02*
X24048287Y-16651737D01*
X24114954Y-16518404D02*
X24114954Y-16556499D01*
X24191145Y-16518404D02*
X24191145Y-16556499D01*
X24486383Y-16794594D02*
X24476859Y-16785071D01*
X24476859Y-16785071D02*
X24457811Y-16756499D01*
X24457811Y-16756499D02*
X24448288Y-16737451D01*
X24448288Y-16737451D02*
X24438764Y-16708880D01*
X24438764Y-16708880D02*
X24429240Y-16661261D01*
X24429240Y-16661261D02*
X24429240Y-16623166D01*
X24429240Y-16623166D02*
X24438764Y-16575547D01*
X24438764Y-16575547D02*
X24448288Y-16546975D01*
X24448288Y-16546975D02*
X24457811Y-16527928D01*
X24457811Y-16527928D02*
X24476859Y-16499356D01*
X24476859Y-16499356D02*
X24486383Y-16489832D01*
X24667335Y-16718404D02*
X24553049Y-16718404D01*
X24610192Y-16718404D02*
X24610192Y-16518404D01*
X24610192Y-16518404D02*
X24591145Y-16546975D01*
X24591145Y-16546975D02*
X24572097Y-16566023D01*
X24572097Y-16566023D02*
X24553049Y-16575547D01*
X24905430Y-16718404D02*
X24905430Y-16518404D01*
X24991145Y-16718404D02*
X24991145Y-16613642D01*
X24991145Y-16613642D02*
X24981621Y-16594594D01*
X24981621Y-16594594D02*
X24962573Y-16585070D01*
X24962573Y-16585070D02*
X24934002Y-16585070D01*
X24934002Y-16585070D02*
X24914954Y-16594594D01*
X24914954Y-16594594D02*
X24905430Y-16604118D01*
X25114954Y-16718404D02*
X25095907Y-16708880D01*
X25095907Y-16708880D02*
X25086383Y-16699356D01*
X25086383Y-16699356D02*
X25076859Y-16680309D01*
X25076859Y-16680309D02*
X25076859Y-16623166D01*
X25076859Y-16623166D02*
X25086383Y-16604118D01*
X25086383Y-16604118D02*
X25095907Y-16594594D01*
X25095907Y-16594594D02*
X25114954Y-16585070D01*
X25114954Y-16585070D02*
X25143526Y-16585070D01*
X25143526Y-16585070D02*
X25162573Y-16594594D01*
X25162573Y-16594594D02*
X25172097Y-16604118D01*
X25172097Y-16604118D02*
X25181621Y-16623166D01*
X25181621Y-16623166D02*
X25181621Y-16680309D01*
X25181621Y-16680309D02*
X25172097Y-16699356D01*
X25172097Y-16699356D02*
X25162573Y-16708880D01*
X25162573Y-16708880D02*
X25143526Y-16718404D01*
X25143526Y-16718404D02*
X25114954Y-16718404D01*
X25295907Y-16718404D02*
X25276859Y-16708880D01*
X25276859Y-16708880D02*
X25267335Y-16689832D01*
X25267335Y-16689832D02*
X25267335Y-16518404D01*
X25448288Y-16708880D02*
X25429240Y-16718404D01*
X25429240Y-16718404D02*
X25391145Y-16718404D01*
X25391145Y-16718404D02*
X25372097Y-16708880D01*
X25372097Y-16708880D02*
X25362573Y-16689832D01*
X25362573Y-16689832D02*
X25362573Y-16613642D01*
X25362573Y-16613642D02*
X25372097Y-16594594D01*
X25372097Y-16594594D02*
X25391145Y-16585070D01*
X25391145Y-16585070D02*
X25429240Y-16585070D01*
X25429240Y-16585070D02*
X25448288Y-16594594D01*
X25448288Y-16594594D02*
X25457811Y-16613642D01*
X25457811Y-16613642D02*
X25457811Y-16632690D01*
X25457811Y-16632690D02*
X25362573Y-16651737D01*
X25524478Y-16794594D02*
X25534002Y-16785071D01*
X25534002Y-16785071D02*
X25553050Y-16756499D01*
X25553050Y-16756499D02*
X25562573Y-16737451D01*
X25562573Y-16737451D02*
X25572097Y-16708880D01*
X25572097Y-16708880D02*
X25581621Y-16661261D01*
X25581621Y-16661261D02*
X25581621Y-16623166D01*
X25581621Y-16623166D02*
X25572097Y-16575547D01*
X25572097Y-16575547D02*
X25562573Y-16546975D01*
X25562573Y-16546975D02*
X25553050Y-16527928D01*
X25553050Y-16527928D02*
X25534002Y-16499356D01*
X25534002Y-16499356D02*
X25524478Y-16489832D01*
X25886383Y-16794594D02*
X25876859Y-16785071D01*
X25876859Y-16785071D02*
X25857811Y-16756499D01*
X25857811Y-16756499D02*
X25848288Y-16737451D01*
X25848288Y-16737451D02*
X25838764Y-16708880D01*
X25838764Y-16708880D02*
X25829240Y-16661261D01*
X25829240Y-16661261D02*
X25829240Y-16623166D01*
X25829240Y-16623166D02*
X25838764Y-16575547D01*
X25838764Y-16575547D02*
X25848288Y-16546975D01*
X25848288Y-16546975D02*
X25857811Y-16527928D01*
X25857811Y-16527928D02*
X25876859Y-16499356D01*
X25876859Y-16499356D02*
X25886383Y-16489832D01*
X25962573Y-16585070D02*
X25962573Y-16718404D01*
X25962573Y-16604118D02*
X25972097Y-16594594D01*
X25972097Y-16594594D02*
X25991145Y-16585070D01*
X25991145Y-16585070D02*
X26019716Y-16585070D01*
X26019716Y-16585070D02*
X26038764Y-16594594D01*
X26038764Y-16594594D02*
X26048288Y-16613642D01*
X26048288Y-16613642D02*
X26048288Y-16718404D01*
X26172097Y-16718404D02*
X26153050Y-16708880D01*
X26153050Y-16708880D02*
X26143526Y-16699356D01*
X26143526Y-16699356D02*
X26134002Y-16680309D01*
X26134002Y-16680309D02*
X26134002Y-16623166D01*
X26134002Y-16623166D02*
X26143526Y-16604118D01*
X26143526Y-16604118D02*
X26153050Y-16594594D01*
X26153050Y-16594594D02*
X26172097Y-16585070D01*
X26172097Y-16585070D02*
X26200669Y-16585070D01*
X26200669Y-16585070D02*
X26219716Y-16594594D01*
X26219716Y-16594594D02*
X26229240Y-16604118D01*
X26229240Y-16604118D02*
X26238764Y-16623166D01*
X26238764Y-16623166D02*
X26238764Y-16680309D01*
X26238764Y-16680309D02*
X26229240Y-16699356D01*
X26229240Y-16699356D02*
X26219716Y-16708880D01*
X26219716Y-16708880D02*
X26200669Y-16718404D01*
X26200669Y-16718404D02*
X26172097Y-16718404D01*
X26295907Y-16585070D02*
X26372097Y-16585070D01*
X26324478Y-16518404D02*
X26324478Y-16689832D01*
X26324478Y-16689832D02*
X26334002Y-16708880D01*
X26334002Y-16708880D02*
X26353050Y-16718404D01*
X26353050Y-16718404D02*
X26372097Y-16718404D01*
X26591145Y-16585070D02*
X26591145Y-16785071D01*
X26591145Y-16594594D02*
X26610192Y-16585070D01*
X26610192Y-16585070D02*
X26648288Y-16585070D01*
X26648288Y-16585070D02*
X26667335Y-16594594D01*
X26667335Y-16594594D02*
X26676859Y-16604118D01*
X26676859Y-16604118D02*
X26686383Y-16623166D01*
X26686383Y-16623166D02*
X26686383Y-16680309D01*
X26686383Y-16680309D02*
X26676859Y-16699356D01*
X26676859Y-16699356D02*
X26667335Y-16708880D01*
X26667335Y-16708880D02*
X26648288Y-16718404D01*
X26648288Y-16718404D02*
X26610192Y-16718404D01*
X26610192Y-16718404D02*
X26591145Y-16708880D01*
X26800669Y-16718404D02*
X26781621Y-16708880D01*
X26781621Y-16708880D02*
X26772097Y-16689832D01*
X26772097Y-16689832D02*
X26772097Y-16518404D01*
X26962573Y-16718404D02*
X26962573Y-16613642D01*
X26962573Y-16613642D02*
X26953050Y-16594594D01*
X26953050Y-16594594D02*
X26934002Y-16585070D01*
X26934002Y-16585070D02*
X26895907Y-16585070D01*
X26895907Y-16585070D02*
X26876859Y-16594594D01*
X26962573Y-16708880D02*
X26943526Y-16718404D01*
X26943526Y-16718404D02*
X26895907Y-16718404D01*
X26895907Y-16718404D02*
X26876859Y-16708880D01*
X26876859Y-16708880D02*
X26867335Y-16689832D01*
X26867335Y-16689832D02*
X26867335Y-16670785D01*
X26867335Y-16670785D02*
X26876859Y-16651737D01*
X26876859Y-16651737D02*
X26895907Y-16642213D01*
X26895907Y-16642213D02*
X26943526Y-16642213D01*
X26943526Y-16642213D02*
X26962573Y-16632690D01*
X27029240Y-16585070D02*
X27105431Y-16585070D01*
X27057812Y-16518404D02*
X27057812Y-16689832D01*
X27057812Y-16689832D02*
X27067335Y-16708880D01*
X27067335Y-16708880D02*
X27086383Y-16718404D01*
X27086383Y-16718404D02*
X27105431Y-16718404D01*
X27248288Y-16708880D02*
X27229240Y-16718404D01*
X27229240Y-16718404D02*
X27191145Y-16718404D01*
X27191145Y-16718404D02*
X27172097Y-16708880D01*
X27172097Y-16708880D02*
X27162573Y-16689832D01*
X27162573Y-16689832D02*
X27162573Y-16613642D01*
X27162573Y-16613642D02*
X27172097Y-16594594D01*
X27172097Y-16594594D02*
X27191145Y-16585070D01*
X27191145Y-16585070D02*
X27229240Y-16585070D01*
X27229240Y-16585070D02*
X27248288Y-16594594D01*
X27248288Y-16594594D02*
X27257812Y-16613642D01*
X27257812Y-16613642D02*
X27257812Y-16632690D01*
X27257812Y-16632690D02*
X27162573Y-16651737D01*
X27429240Y-16718404D02*
X27429240Y-16518404D01*
X27429240Y-16708880D02*
X27410193Y-16718404D01*
X27410193Y-16718404D02*
X27372097Y-16718404D01*
X27372097Y-16718404D02*
X27353050Y-16708880D01*
X27353050Y-16708880D02*
X27343526Y-16699356D01*
X27343526Y-16699356D02*
X27334002Y-16680309D01*
X27334002Y-16680309D02*
X27334002Y-16623166D01*
X27334002Y-16623166D02*
X27343526Y-16604118D01*
X27343526Y-16604118D02*
X27353050Y-16594594D01*
X27353050Y-16594594D02*
X27372097Y-16585070D01*
X27372097Y-16585070D02*
X27410193Y-16585070D01*
X27410193Y-16585070D02*
X27429240Y-16594594D01*
X27505431Y-16794594D02*
X27514954Y-16785071D01*
X27514954Y-16785071D02*
X27534002Y-16756499D01*
X27534002Y-16756499D02*
X27543526Y-16737451D01*
X27543526Y-16737451D02*
X27553050Y-16708880D01*
X27553050Y-16708880D02*
X27562573Y-16661261D01*
X27562573Y-16661261D02*
X27562573Y-16623166D01*
X27562573Y-16623166D02*
X27553050Y-16575547D01*
X27553050Y-16575547D02*
X27543526Y-16546975D01*
X27543526Y-16546975D02*
X27534002Y-16527928D01*
X27534002Y-16527928D02*
X27514954Y-16499356D01*
X27514954Y-16499356D02*
X27505431Y-16489832D01*
M02*
