%TF.GenerationSoftware,KiCad,Pcbnew,8.0.2*%
%TF.CreationDate,2024-07-05T17:25:26-07:00*%
%TF.ProjectId,UGC_SubStick,5547435f-5375-4625-9374-69636b2e6b69,rev?*%
%TF.SameCoordinates,Original*%
%TF.FileFunction,Legend,Top*%
%TF.FilePolarity,Positive*%
%FSLAX46Y46*%
G04 Gerber Fmt 4.6, Leading zero omitted, Abs format (unit mm)*
G04 Created by KiCad (PCBNEW 8.0.2) date 2024-07-05 17:25:26*
%MOMM*%
%LPD*%
G01*
G04 APERTURE LIST*
%ADD10C,0.150000*%
%ADD11C,0.120000*%
G04 APERTURE END LIST*
D10*
X245873867Y-161017718D02*
X246016724Y-161065337D01*
X246016724Y-161065337D02*
X246254819Y-161065337D01*
X246254819Y-161065337D02*
X246350057Y-161017718D01*
X246350057Y-161017718D02*
X246397676Y-160970098D01*
X246397676Y-160970098D02*
X246445295Y-160874860D01*
X246445295Y-160874860D02*
X246445295Y-160779622D01*
X246445295Y-160779622D02*
X246397676Y-160684384D01*
X246397676Y-160684384D02*
X246350057Y-160636765D01*
X246350057Y-160636765D02*
X246254819Y-160589146D01*
X246254819Y-160589146D02*
X246064343Y-160541527D01*
X246064343Y-160541527D02*
X245969105Y-160493908D01*
X245969105Y-160493908D02*
X245921486Y-160446289D01*
X245921486Y-160446289D02*
X245873867Y-160351051D01*
X245873867Y-160351051D02*
X245873867Y-160255813D01*
X245873867Y-160255813D02*
X245921486Y-160160575D01*
X245921486Y-160160575D02*
X245969105Y-160112956D01*
X245969105Y-160112956D02*
X246064343Y-160065337D01*
X246064343Y-160065337D02*
X246302438Y-160065337D01*
X246302438Y-160065337D02*
X246445295Y-160112956D01*
X246778629Y-160065337D02*
X247016724Y-161065337D01*
X247016724Y-161065337D02*
X247207200Y-160351051D01*
X247207200Y-160351051D02*
X247397676Y-161065337D01*
X247397676Y-161065337D02*
X247635772Y-160065337D01*
X248540533Y-161065337D02*
X247969105Y-161065337D01*
X248254819Y-161065337D02*
X248254819Y-160065337D01*
X248254819Y-160065337D02*
X248159581Y-160208194D01*
X248159581Y-160208194D02*
X248064343Y-160303432D01*
X248064343Y-160303432D02*
X247969105Y-160351051D01*
X245416733Y-161752780D02*
X245369114Y-161800400D01*
X245369114Y-161800400D02*
X245226257Y-161848019D01*
X245226257Y-161848019D02*
X245131019Y-161848019D01*
X245131019Y-161848019D02*
X244988162Y-161800400D01*
X244988162Y-161800400D02*
X244892924Y-161705161D01*
X244892924Y-161705161D02*
X244845305Y-161609923D01*
X244845305Y-161609923D02*
X244797686Y-161419447D01*
X244797686Y-161419447D02*
X244797686Y-161276590D01*
X244797686Y-161276590D02*
X244845305Y-161086114D01*
X244845305Y-161086114D02*
X244892924Y-160990876D01*
X244892924Y-160990876D02*
X244988162Y-160895638D01*
X244988162Y-160895638D02*
X245131019Y-160848019D01*
X245131019Y-160848019D02*
X245226257Y-160848019D01*
X245226257Y-160848019D02*
X245369114Y-160895638D01*
X245369114Y-160895638D02*
X245416733Y-160943257D01*
X246369114Y-161848019D02*
X245797686Y-161848019D01*
X246083400Y-161848019D02*
X246083400Y-160848019D01*
X246083400Y-160848019D02*
X245988162Y-160990876D01*
X245988162Y-160990876D02*
X245892924Y-161086114D01*
X245892924Y-161086114D02*
X245797686Y-161133733D01*
X250224733Y-160479619D02*
X249891400Y-160003428D01*
X249653305Y-160479619D02*
X249653305Y-159479619D01*
X249653305Y-159479619D02*
X250034257Y-159479619D01*
X250034257Y-159479619D02*
X250129495Y-159527238D01*
X250129495Y-159527238D02*
X250177114Y-159574857D01*
X250177114Y-159574857D02*
X250224733Y-159670095D01*
X250224733Y-159670095D02*
X250224733Y-159812952D01*
X250224733Y-159812952D02*
X250177114Y-159908190D01*
X250177114Y-159908190D02*
X250129495Y-159955809D01*
X250129495Y-159955809D02*
X250034257Y-160003428D01*
X250034257Y-160003428D02*
X249653305Y-160003428D01*
X251177114Y-160479619D02*
X250605686Y-160479619D01*
X250891400Y-160479619D02*
X250891400Y-159479619D01*
X250891400Y-159479619D02*
X250796162Y-159622476D01*
X250796162Y-159622476D02*
X250700924Y-159717714D01*
X250700924Y-159717714D02*
X250605686Y-159765333D01*
X281504819Y-139083333D02*
X282219104Y-139083333D01*
X282219104Y-139083333D02*
X282361961Y-139130952D01*
X282361961Y-139130952D02*
X282457200Y-139226190D01*
X282457200Y-139226190D02*
X282504819Y-139369047D01*
X282504819Y-139369047D02*
X282504819Y-139464285D01*
X282504819Y-138083333D02*
X282504819Y-138654761D01*
X282504819Y-138369047D02*
X281504819Y-138369047D01*
X281504819Y-138369047D02*
X281647676Y-138464285D01*
X281647676Y-138464285D02*
X281742914Y-138559523D01*
X281742914Y-138559523D02*
X281790533Y-138654761D01*
X258584580Y-143466666D02*
X258632200Y-143514285D01*
X258632200Y-143514285D02*
X258679819Y-143657142D01*
X258679819Y-143657142D02*
X258679819Y-143752380D01*
X258679819Y-143752380D02*
X258632200Y-143895237D01*
X258632200Y-143895237D02*
X258536961Y-143990475D01*
X258536961Y-143990475D02*
X258441723Y-144038094D01*
X258441723Y-144038094D02*
X258251247Y-144085713D01*
X258251247Y-144085713D02*
X258108390Y-144085713D01*
X258108390Y-144085713D02*
X257917914Y-144038094D01*
X257917914Y-144038094D02*
X257822676Y-143990475D01*
X257822676Y-143990475D02*
X257727438Y-143895237D01*
X257727438Y-143895237D02*
X257679819Y-143752380D01*
X257679819Y-143752380D02*
X257679819Y-143657142D01*
X257679819Y-143657142D02*
X257727438Y-143514285D01*
X257727438Y-143514285D02*
X257775057Y-143466666D01*
X257775057Y-143085713D02*
X257727438Y-143038094D01*
X257727438Y-143038094D02*
X257679819Y-142942856D01*
X257679819Y-142942856D02*
X257679819Y-142704761D01*
X257679819Y-142704761D02*
X257727438Y-142609523D01*
X257727438Y-142609523D02*
X257775057Y-142561904D01*
X257775057Y-142561904D02*
X257870295Y-142514285D01*
X257870295Y-142514285D02*
X257965533Y-142514285D01*
X257965533Y-142514285D02*
X258108390Y-142561904D01*
X258108390Y-142561904D02*
X258679819Y-143133332D01*
X258679819Y-143133332D02*
X258679819Y-142514285D01*
X258540219Y-150456666D02*
X258064028Y-150789999D01*
X258540219Y-151028094D02*
X257540219Y-151028094D01*
X257540219Y-151028094D02*
X257540219Y-150647142D01*
X257540219Y-150647142D02*
X257587838Y-150551904D01*
X257587838Y-150551904D02*
X257635457Y-150504285D01*
X257635457Y-150504285D02*
X257730695Y-150456666D01*
X257730695Y-150456666D02*
X257873552Y-150456666D01*
X257873552Y-150456666D02*
X257968790Y-150504285D01*
X257968790Y-150504285D02*
X258016409Y-150551904D01*
X258016409Y-150551904D02*
X258064028Y-150647142D01*
X258064028Y-150647142D02*
X258064028Y-151028094D01*
X257635457Y-150075713D02*
X257587838Y-150028094D01*
X257587838Y-150028094D02*
X257540219Y-149932856D01*
X257540219Y-149932856D02*
X257540219Y-149694761D01*
X257540219Y-149694761D02*
X257587838Y-149599523D01*
X257587838Y-149599523D02*
X257635457Y-149551904D01*
X257635457Y-149551904D02*
X257730695Y-149504285D01*
X257730695Y-149504285D02*
X257825933Y-149504285D01*
X257825933Y-149504285D02*
X257968790Y-149551904D01*
X257968790Y-149551904D02*
X258540219Y-150123332D01*
X258540219Y-150123332D02*
X258540219Y-149504285D01*
D11*
%TO.C,C1*%
X248037133Y-160983200D02*
X248329667Y-160983200D01*
X248037133Y-162003200D02*
X248329667Y-162003200D01*
%TO.C,J1*%
X281821001Y-139807407D02*
X281821001Y-140867407D01*
X280761001Y-139807407D02*
X281821001Y-139807407D01*
X279761001Y-139807407D02*
X269701001Y-139807407D01*
X279761001Y-139807407D02*
X279761001Y-141927407D01*
X269701001Y-139807407D02*
X269701001Y-141927407D01*
X279761001Y-141927407D02*
X269701001Y-141927407D01*
%TO.C,C2*%
X258610000Y-145753733D02*
X258610000Y-146046267D01*
X257590000Y-145753733D02*
X257590000Y-146046267D01*
%TD*%
M02*
