%TF.GenerationSoftware,KiCad,Pcbnew,7.0.6*%
%TF.CreationDate,2023-12-14T14:41:25-08:00*%
%TF.ProjectId,UGC_USBC,5547435f-5553-4424-932e-6b696361645f,rev?*%
%TF.SameCoordinates,Original*%
%TF.FileFunction,Soldermask,Top*%
%TF.FilePolarity,Negative*%
%FSLAX46Y46*%
G04 Gerber Fmt 4.6, Leading zero omitted, Abs format (unit mm)*
G04 Created by KiCad (PCBNEW 7.0.6) date 2023-12-14 14:41:25*
%MOMM*%
%LPD*%
G01*
G04 APERTURE LIST*
G04 Aperture macros list*
%AMRoundRect*
0 Rectangle with rounded corners*
0 $1 Rounding radius*
0 $2 $3 $4 $5 $6 $7 $8 $9 X,Y pos of 4 corners*
0 Add a 4 corners polygon primitive as box body*
4,1,4,$2,$3,$4,$5,$6,$7,$8,$9,$2,$3,0*
0 Add four circle primitives for the rounded corners*
1,1,$1+$1,$2,$3*
1,1,$1+$1,$4,$5*
1,1,$1+$1,$6,$7*
1,1,$1+$1,$8,$9*
0 Add four rect primitives between the rounded corners*
20,1,$1+$1,$2,$3,$4,$5,0*
20,1,$1+$1,$4,$5,$6,$7,0*
20,1,$1+$1,$6,$7,$8,$9,0*
20,1,$1+$1,$8,$9,$2,$3,0*%
G04 Aperture macros list end*
%ADD10C,0.200000*%
%ADD11RoundRect,0.200000X0.200000X0.275000X-0.200000X0.275000X-0.200000X-0.275000X0.200000X-0.275000X0*%
%ADD12C,0.700000*%
%ADD13RoundRect,0.102000X-0.175000X0.445000X-0.175000X-0.445000X0.175000X-0.445000X0.175000X0.445000X0*%
%ADD14C,0.804000*%
%ADD15O,1.204000X2.204000*%
%ADD16C,1.104000*%
%ADD17RoundRect,0.200000X-0.200000X-0.275000X0.200000X-0.275000X0.200000X0.275000X-0.200000X0.275000X0*%
G04 APERTURE END LIST*
D10*
X236327742Y-147892703D02*
X236515335Y-147949608D01*
X236688222Y-148042018D01*
X236839759Y-148166381D01*
X236964122Y-148317918D01*
X237056532Y-148490805D01*
X237113437Y-148678398D01*
X237132652Y-148873488D01*
X237113437Y-149068578D01*
X237056532Y-149256171D01*
X236964122Y-149429058D01*
X236839759Y-149580595D01*
X236688222Y-149704958D01*
X236515335Y-149797368D01*
X236327742Y-149854273D01*
X236132652Y-149873488D01*
X235937562Y-149854273D01*
X235749969Y-149797368D01*
X235577082Y-149704958D01*
X235425545Y-149580595D01*
X235301182Y-149429058D01*
X235208772Y-149256171D01*
X235151867Y-149068578D01*
X235132652Y-148873488D01*
X235151867Y-148678398D01*
X235208772Y-148490805D01*
X235301182Y-148317918D01*
X235425545Y-148166381D01*
X235577082Y-148042018D01*
X235749969Y-147949608D01*
X235937562Y-147892703D01*
X236132652Y-147873488D01*
X236327742Y-147892703D01*
G36*
X236327742Y-147892703D02*
G01*
X236515335Y-147949608D01*
X236688222Y-148042018D01*
X236839759Y-148166381D01*
X236964122Y-148317918D01*
X237056532Y-148490805D01*
X237113437Y-148678398D01*
X237132652Y-148873488D01*
X237113437Y-149068578D01*
X237056532Y-149256171D01*
X236964122Y-149429058D01*
X236839759Y-149580595D01*
X236688222Y-149704958D01*
X236515335Y-149797368D01*
X236327742Y-149854273D01*
X236132652Y-149873488D01*
X235937562Y-149854273D01*
X235749969Y-149797368D01*
X235577082Y-149704958D01*
X235425545Y-149580595D01*
X235301182Y-149429058D01*
X235208772Y-149256171D01*
X235151867Y-149068578D01*
X235132652Y-148873488D01*
X235151867Y-148678398D01*
X235208772Y-148490805D01*
X235301182Y-148317918D01*
X235425545Y-148166381D01*
X235577082Y-148042018D01*
X235749969Y-147949608D01*
X235937562Y-147892703D01*
X236132652Y-147873488D01*
X236327742Y-147892703D01*
G37*
X221879831Y-155379704D02*
X222067424Y-155436609D01*
X222240311Y-155529019D01*
X222391848Y-155653382D01*
X222516211Y-155804919D01*
X222608621Y-155977806D01*
X222665526Y-156165399D01*
X222684741Y-156360489D01*
X222665526Y-156555579D01*
X222608621Y-156743172D01*
X222516211Y-156916059D01*
X222391848Y-157067596D01*
X222240311Y-157191959D01*
X222067424Y-157284369D01*
X221879831Y-157341274D01*
X221684741Y-157360489D01*
X221489651Y-157341274D01*
X221302058Y-157284369D01*
X221129171Y-157191959D01*
X220977634Y-157067596D01*
X220853271Y-156916059D01*
X220760861Y-156743172D01*
X220703956Y-156555579D01*
X220684741Y-156360489D01*
X220703956Y-156165399D01*
X220760861Y-155977806D01*
X220853271Y-155804919D01*
X220977634Y-155653382D01*
X221129171Y-155529019D01*
X221302058Y-155436609D01*
X221489651Y-155379704D01*
X221684741Y-155360489D01*
X221879831Y-155379704D01*
G36*
X221879831Y-155379704D02*
G01*
X222067424Y-155436609D01*
X222240311Y-155529019D01*
X222391848Y-155653382D01*
X222516211Y-155804919D01*
X222608621Y-155977806D01*
X222665526Y-156165399D01*
X222684741Y-156360489D01*
X222665526Y-156555579D01*
X222608621Y-156743172D01*
X222516211Y-156916059D01*
X222391848Y-157067596D01*
X222240311Y-157191959D01*
X222067424Y-157284369D01*
X221879831Y-157341274D01*
X221684741Y-157360489D01*
X221489651Y-157341274D01*
X221302058Y-157284369D01*
X221129171Y-157191959D01*
X220977634Y-157067596D01*
X220853271Y-156916059D01*
X220760861Y-156743172D01*
X220703956Y-156555579D01*
X220684741Y-156360489D01*
X220703956Y-156165399D01*
X220760861Y-155977806D01*
X220853271Y-155804919D01*
X220977634Y-155653382D01*
X221129171Y-155529019D01*
X221302058Y-155436609D01*
X221489651Y-155379704D01*
X221684741Y-155360489D01*
X221879831Y-155379704D01*
G37*
X221886290Y-147881615D02*
X222073883Y-147938520D01*
X222246770Y-148030930D01*
X222398307Y-148155293D01*
X222522670Y-148306830D01*
X222615080Y-148479717D01*
X222671985Y-148667310D01*
X222691200Y-148862400D01*
X222671985Y-149057490D01*
X222615080Y-149245083D01*
X222522670Y-149417970D01*
X222398307Y-149569507D01*
X222246770Y-149693870D01*
X222073883Y-149786280D01*
X221886290Y-149843185D01*
X221691200Y-149862400D01*
X221496110Y-149843185D01*
X221308517Y-149786280D01*
X221135630Y-149693870D01*
X220984093Y-149569507D01*
X220859730Y-149417970D01*
X220767320Y-149245083D01*
X220710415Y-149057490D01*
X220691200Y-148862400D01*
X220710415Y-148667310D01*
X220767320Y-148479717D01*
X220859730Y-148306830D01*
X220984093Y-148155293D01*
X221135630Y-148030930D01*
X221308517Y-147938520D01*
X221496110Y-147881615D01*
X221691200Y-147862400D01*
X221886290Y-147881615D01*
G36*
X221886290Y-147881615D02*
G01*
X222073883Y-147938520D01*
X222246770Y-148030930D01*
X222398307Y-148155293D01*
X222522670Y-148306830D01*
X222615080Y-148479717D01*
X222671985Y-148667310D01*
X222691200Y-148862400D01*
X222671985Y-149057490D01*
X222615080Y-149245083D01*
X222522670Y-149417970D01*
X222398307Y-149569507D01*
X222246770Y-149693870D01*
X222073883Y-149786280D01*
X221886290Y-149843185D01*
X221691200Y-149862400D01*
X221496110Y-149843185D01*
X221308517Y-149786280D01*
X221135630Y-149693870D01*
X220984093Y-149569507D01*
X220859730Y-149417970D01*
X220767320Y-149245083D01*
X220710415Y-149057490D01*
X220691200Y-148862400D01*
X220710415Y-148667310D01*
X220767320Y-148479717D01*
X220859730Y-148306830D01*
X220984093Y-148155293D01*
X221135630Y-148030930D01*
X221308517Y-147938520D01*
X221496110Y-147881615D01*
X221691200Y-147862400D01*
X221886290Y-147881615D01*
G37*
X236335268Y-150391513D02*
X236522861Y-150448418D01*
X236695748Y-150540828D01*
X236847285Y-150665191D01*
X236971648Y-150816728D01*
X237064058Y-150989615D01*
X237120963Y-151177208D01*
X237140178Y-151372298D01*
X237120963Y-151567388D01*
X237064058Y-151754981D01*
X236971648Y-151927868D01*
X236847285Y-152079405D01*
X236695748Y-152203768D01*
X236522861Y-152296178D01*
X236335268Y-152353083D01*
X236140178Y-152372298D01*
X235945088Y-152353083D01*
X235757495Y-152296178D01*
X235584608Y-152203768D01*
X235433071Y-152079405D01*
X235308708Y-151927868D01*
X235216298Y-151754981D01*
X235159393Y-151567388D01*
X235140178Y-151372298D01*
X235159393Y-151177208D01*
X235216298Y-150989615D01*
X235308708Y-150816728D01*
X235433071Y-150665191D01*
X235584608Y-150540828D01*
X235757495Y-150448418D01*
X235945088Y-150391513D01*
X236140178Y-150372298D01*
X236335268Y-150391513D01*
G36*
X236335268Y-150391513D02*
G01*
X236522861Y-150448418D01*
X236695748Y-150540828D01*
X236847285Y-150665191D01*
X236971648Y-150816728D01*
X237064058Y-150989615D01*
X237120963Y-151177208D01*
X237140178Y-151372298D01*
X237120963Y-151567388D01*
X237064058Y-151754981D01*
X236971648Y-151927868D01*
X236847285Y-152079405D01*
X236695748Y-152203768D01*
X236522861Y-152296178D01*
X236335268Y-152353083D01*
X236140178Y-152372298D01*
X235945088Y-152353083D01*
X235757495Y-152296178D01*
X235584608Y-152203768D01*
X235433071Y-152079405D01*
X235308708Y-151927868D01*
X235216298Y-151754981D01*
X235159393Y-151567388D01*
X235140178Y-151372298D01*
X235159393Y-151177208D01*
X235216298Y-150989615D01*
X235308708Y-150816728D01*
X235433071Y-150665191D01*
X235584608Y-150540828D01*
X235757495Y-150448418D01*
X235945088Y-150391513D01*
X236140178Y-150372298D01*
X236335268Y-150391513D01*
G37*
X221872305Y-150382084D02*
X222059898Y-150438989D01*
X222232785Y-150531399D01*
X222384322Y-150655762D01*
X222508685Y-150807299D01*
X222601095Y-150980186D01*
X222658000Y-151167779D01*
X222677215Y-151362869D01*
X222658000Y-151557959D01*
X222601095Y-151745552D01*
X222508685Y-151918439D01*
X222384322Y-152069976D01*
X222232785Y-152194339D01*
X222059898Y-152286749D01*
X221872305Y-152343654D01*
X221677215Y-152362869D01*
X221482125Y-152343654D01*
X221294532Y-152286749D01*
X221121645Y-152194339D01*
X220970108Y-152069976D01*
X220845745Y-151918439D01*
X220753335Y-151745552D01*
X220696430Y-151557959D01*
X220677215Y-151362869D01*
X220696430Y-151167779D01*
X220753335Y-150980186D01*
X220845745Y-150807299D01*
X220970108Y-150655762D01*
X221121645Y-150531399D01*
X221294532Y-150438989D01*
X221482125Y-150382084D01*
X221677215Y-150362869D01*
X221872305Y-150382084D01*
G36*
X221872305Y-150382084D02*
G01*
X222059898Y-150438989D01*
X222232785Y-150531399D01*
X222384322Y-150655762D01*
X222508685Y-150807299D01*
X222601095Y-150980186D01*
X222658000Y-151167779D01*
X222677215Y-151362869D01*
X222658000Y-151557959D01*
X222601095Y-151745552D01*
X222508685Y-151918439D01*
X222384322Y-152069976D01*
X222232785Y-152194339D01*
X222059898Y-152286749D01*
X221872305Y-152343654D01*
X221677215Y-152362869D01*
X221482125Y-152343654D01*
X221294532Y-152286749D01*
X221121645Y-152194339D01*
X220970108Y-152069976D01*
X220845745Y-151918439D01*
X220753335Y-151745552D01*
X220696430Y-151557959D01*
X220677215Y-151362869D01*
X220696430Y-151167779D01*
X220753335Y-150980186D01*
X220845745Y-150807299D01*
X220970108Y-150655762D01*
X221121645Y-150531399D01*
X221294532Y-150438989D01*
X221482125Y-150382084D01*
X221677215Y-150362869D01*
X221872305Y-150382084D01*
G37*
X236335268Y-155381607D02*
X236522861Y-155438512D01*
X236695748Y-155530922D01*
X236847285Y-155655285D01*
X236971648Y-155806822D01*
X237064058Y-155979709D01*
X237120963Y-156167302D01*
X237140178Y-156362392D01*
X237120963Y-156557482D01*
X237064058Y-156745075D01*
X236971648Y-156917962D01*
X236847285Y-157069499D01*
X236695748Y-157193862D01*
X236522861Y-157286272D01*
X236335268Y-157343177D01*
X236140178Y-157362392D01*
X235945088Y-157343177D01*
X235757495Y-157286272D01*
X235584608Y-157193862D01*
X235433071Y-157069499D01*
X235308708Y-156917962D01*
X235216298Y-156745075D01*
X235159393Y-156557482D01*
X235140178Y-156362392D01*
X235159393Y-156167302D01*
X235216298Y-155979709D01*
X235308708Y-155806822D01*
X235433071Y-155655285D01*
X235584608Y-155530922D01*
X235757495Y-155438512D01*
X235945088Y-155381607D01*
X236140178Y-155362392D01*
X236335268Y-155381607D01*
G36*
X236335268Y-155381607D02*
G01*
X236522861Y-155438512D01*
X236695748Y-155530922D01*
X236847285Y-155655285D01*
X236971648Y-155806822D01*
X237064058Y-155979709D01*
X237120963Y-156167302D01*
X237140178Y-156362392D01*
X237120963Y-156557482D01*
X237064058Y-156745075D01*
X236971648Y-156917962D01*
X236847285Y-157069499D01*
X236695748Y-157193862D01*
X236522861Y-157286272D01*
X236335268Y-157343177D01*
X236140178Y-157362392D01*
X235945088Y-157343177D01*
X235757495Y-157286272D01*
X235584608Y-157193862D01*
X235433071Y-157069499D01*
X235308708Y-156917962D01*
X235216298Y-156745075D01*
X235159393Y-156557482D01*
X235140178Y-156362392D01*
X235159393Y-156167302D01*
X235216298Y-155979709D01*
X235308708Y-155806822D01*
X235433071Y-155655285D01*
X235584608Y-155530922D01*
X235757495Y-155438512D01*
X235945088Y-155381607D01*
X236140178Y-155362392D01*
X236335268Y-155381607D01*
G37*
X236335268Y-152882797D02*
X236522861Y-152939702D01*
X236695748Y-153032112D01*
X236847285Y-153156475D01*
X236971648Y-153308012D01*
X237064058Y-153480899D01*
X237120963Y-153668492D01*
X237140178Y-153863582D01*
X237120963Y-154058672D01*
X237064058Y-154246265D01*
X236971648Y-154419152D01*
X236847285Y-154570689D01*
X236695748Y-154695052D01*
X236522861Y-154787462D01*
X236335268Y-154844367D01*
X236140178Y-154863582D01*
X235945088Y-154844367D01*
X235757495Y-154787462D01*
X235584608Y-154695052D01*
X235433071Y-154570689D01*
X235308708Y-154419152D01*
X235216298Y-154246265D01*
X235159393Y-154058672D01*
X235140178Y-153863582D01*
X235159393Y-153668492D01*
X235216298Y-153480899D01*
X235308708Y-153308012D01*
X235433071Y-153156475D01*
X235584608Y-153032112D01*
X235757495Y-152939702D01*
X235945088Y-152882797D01*
X236140178Y-152863582D01*
X236335268Y-152882797D01*
G36*
X236335268Y-152882797D02*
G01*
X236522861Y-152939702D01*
X236695748Y-153032112D01*
X236847285Y-153156475D01*
X236971648Y-153308012D01*
X237064058Y-153480899D01*
X237120963Y-153668492D01*
X237140178Y-153863582D01*
X237120963Y-154058672D01*
X237064058Y-154246265D01*
X236971648Y-154419152D01*
X236847285Y-154570689D01*
X236695748Y-154695052D01*
X236522861Y-154787462D01*
X236335268Y-154844367D01*
X236140178Y-154863582D01*
X235945088Y-154844367D01*
X235757495Y-154787462D01*
X235584608Y-154695052D01*
X235433071Y-154570689D01*
X235308708Y-154419152D01*
X235216298Y-154246265D01*
X235159393Y-154058672D01*
X235140178Y-153863582D01*
X235159393Y-153668492D01*
X235216298Y-153480899D01*
X235308708Y-153308012D01*
X235433071Y-153156475D01*
X235584608Y-153032112D01*
X235757495Y-152939702D01*
X235945088Y-152882797D01*
X236140178Y-152863582D01*
X236335268Y-152882797D01*
G37*
X221879831Y-152880894D02*
X222067424Y-152937799D01*
X222240311Y-153030209D01*
X222391848Y-153154572D01*
X222516211Y-153306109D01*
X222608621Y-153478996D01*
X222665526Y-153666589D01*
X222684741Y-153861679D01*
X222665526Y-154056769D01*
X222608621Y-154244362D01*
X222516211Y-154417249D01*
X222391848Y-154568786D01*
X222240311Y-154693149D01*
X222067424Y-154785559D01*
X221879831Y-154842464D01*
X221684741Y-154861679D01*
X221489651Y-154842464D01*
X221302058Y-154785559D01*
X221129171Y-154693149D01*
X220977634Y-154568786D01*
X220853271Y-154417249D01*
X220760861Y-154244362D01*
X220703956Y-154056769D01*
X220684741Y-153861679D01*
X220703956Y-153666589D01*
X220760861Y-153478996D01*
X220853271Y-153306109D01*
X220977634Y-153154572D01*
X221129171Y-153030209D01*
X221302058Y-152937799D01*
X221489651Y-152880894D01*
X221684741Y-152861679D01*
X221879831Y-152880894D01*
G36*
X221879831Y-152880894D02*
G01*
X222067424Y-152937799D01*
X222240311Y-153030209D01*
X222391848Y-153154572D01*
X222516211Y-153306109D01*
X222608621Y-153478996D01*
X222665526Y-153666589D01*
X222684741Y-153861679D01*
X222665526Y-154056769D01*
X222608621Y-154244362D01*
X222516211Y-154417249D01*
X222391848Y-154568786D01*
X222240311Y-154693149D01*
X222067424Y-154785559D01*
X221879831Y-154842464D01*
X221684741Y-154861679D01*
X221489651Y-154842464D01*
X221302058Y-154785559D01*
X221129171Y-154693149D01*
X220977634Y-154568786D01*
X220853271Y-154417249D01*
X220760861Y-154244362D01*
X220703956Y-154056769D01*
X220684741Y-153861679D01*
X220703956Y-153666589D01*
X220760861Y-153478996D01*
X220853271Y-153306109D01*
X220977634Y-153154572D01*
X221129171Y-153030209D01*
X221302058Y-152937799D01*
X221489651Y-152880894D01*
X221684741Y-152861679D01*
X221879831Y-152880894D01*
G37*
D11*
%TO.C,R1*%
X231113600Y-158394400D03*
X229463600Y-158394400D03*
%TD*%
D12*
%TO.C,J1*%
X232641178Y-152112400D03*
X225191178Y-152112400D03*
D13*
X231666178Y-154017400D03*
X231166178Y-154017400D03*
X230666178Y-154017400D03*
X230166178Y-154017400D03*
X229666178Y-154017400D03*
X229166178Y-154017400D03*
X228666178Y-154017400D03*
X228166178Y-154017400D03*
X227666178Y-154017400D03*
X227166178Y-154017400D03*
X226666178Y-154017400D03*
X226166178Y-154017400D03*
D14*
X225866178Y-152812400D03*
X226516178Y-152112400D03*
X227316178Y-152112400D03*
X227716178Y-152812400D03*
X228116178Y-152112400D03*
X228516178Y-152812400D03*
X229316178Y-152812400D03*
X229716178Y-152112400D03*
X230116178Y-152812400D03*
X230516178Y-152112400D03*
X231316178Y-152112400D03*
X231966178Y-152812400D03*
D15*
X233416178Y-148012400D03*
D16*
X232966178Y-153212400D03*
D15*
X233416178Y-153762400D03*
X224416178Y-148012400D03*
D16*
X224866178Y-153212400D03*
D15*
X224416178Y-153762400D03*
%TD*%
D17*
%TO.C,R2*%
X226442000Y-158394400D03*
X228092000Y-158394400D03*
%TD*%
M02*
