%TF.GenerationSoftware,KiCad,Pcbnew,7.0.6*%
%TF.CreationDate,2023-12-14T14:41:27-08:00*%
%TF.ProjectId,UGC_USBC,5547435f-5553-4424-932e-6b696361645f,rev?*%
%TF.SameCoordinates,Original*%
%TF.FileFunction,Drillmap*%
%TF.FilePolarity,Positive*%
%FSLAX45Y45*%
G04 Gerber Fmt 4.5, Leading zero omitted, Abs format (unit mm)*
G04 Created by KiCad (PCBNEW 7.0.6) date 2023-12-14 14:41:27*
%MOMM*%
%LPD*%
G01*
G04 APERTURE LIST*
%ADD10C,0.100000*%
%ADD11C,0.200000*%
%ADD12C,0.035000*%
%ADD13C,0.040000*%
%ADD14C,0.050000*%
%ADD15C,0.060000*%
%ADD16C,0.075000*%
G04 APERTURE END LIST*
D10*
X21791620Y-15923854D02*
X23991620Y-15923854D01*
X21795834Y-15661240D02*
G75*
G03*
X21795834Y-15661240I-87500J0D01*
G01*
X21391616Y-15523854D02*
G75*
G03*
X21791620Y-15923854I400004J4D01*
G01*
X24182406Y-15261240D02*
G75*
G03*
X24182406Y-15261240I-107500J0D01*
G01*
X22520449Y-14722825D02*
X22532009Y-14722606D01*
X22543575Y-14722396D01*
X22555149Y-14722196D01*
X22566728Y-14722005D01*
X22578312Y-14721823D01*
X22589902Y-14721650D01*
X22601497Y-14721485D01*
X22613096Y-14721330D01*
X22624698Y-14721182D01*
X22636304Y-14721043D01*
X22647913Y-14720912D01*
X22659525Y-14720789D01*
X22671138Y-14720674D01*
X22682754Y-14720566D01*
X22694370Y-14720465D01*
X22705987Y-14720372D01*
X22717605Y-14720285D01*
X22729223Y-14720206D01*
X22740840Y-14720133D01*
X22752456Y-14720067D01*
X22764071Y-14720006D01*
X22775684Y-14719953D01*
X22787295Y-14719905D01*
X22798903Y-14719862D01*
X22810508Y-14719826D01*
X22822109Y-14719795D01*
X22833707Y-14719769D01*
X22845300Y-14719748D01*
X22856888Y-14719732D01*
X22868471Y-14719721D01*
X22880049Y-14719715D01*
X22891620Y-14719712D01*
X21619131Y-14786773D02*
X21635464Y-14784477D01*
X21651754Y-14782237D01*
X21668005Y-14780054D01*
X21684221Y-14777924D01*
X21700406Y-14775849D01*
X21716565Y-14773826D01*
X21732702Y-14771855D01*
X21748822Y-14769935D01*
X21764929Y-14768065D01*
X21781026Y-14766244D01*
X21797120Y-14764470D01*
X21813213Y-14762744D01*
X21829311Y-14761064D01*
X21845417Y-14759429D01*
X21861536Y-14757839D01*
X21877673Y-14756292D01*
X21893832Y-14754787D01*
X21910016Y-14753323D01*
X21926231Y-14751900D01*
X21942481Y-14750517D01*
X21958770Y-14749172D01*
X21975102Y-14747865D01*
X21991482Y-14746594D01*
X22007915Y-14745359D01*
X22024404Y-14744159D01*
X22040954Y-14742993D01*
X22057569Y-14741860D01*
X22074254Y-14740759D01*
X22091014Y-14739688D01*
X22107851Y-14738648D01*
X22124771Y-14737637D01*
X22141778Y-14736654D01*
X24164109Y-14786773D02*
X24147776Y-14784477D01*
X24131486Y-14782237D01*
X24115235Y-14780054D01*
X24099019Y-14777924D01*
X24082834Y-14775849D01*
X24066675Y-14773826D01*
X24050538Y-14771855D01*
X24034418Y-14769935D01*
X24018311Y-14768065D01*
X24002214Y-14766244D01*
X23986120Y-14764470D01*
X23970027Y-14762744D01*
X23953929Y-14761064D01*
X23937823Y-14759429D01*
X23921703Y-14757839D01*
X23905567Y-14756292D01*
X23889408Y-14754787D01*
X23873224Y-14753323D01*
X23857009Y-14751900D01*
X23840759Y-14750517D01*
X23824470Y-14749172D01*
X23808138Y-14747865D01*
X23791758Y-14746594D01*
X23775325Y-14745359D01*
X23758836Y-14744159D01*
X23742286Y-14742993D01*
X23725670Y-14741860D01*
X23708985Y-14740759D01*
X23692226Y-14739688D01*
X23675389Y-14738648D01*
X23658469Y-14737637D01*
X23641462Y-14736654D01*
X21391620Y-14823854D02*
X21405838Y-14821264D01*
X21420045Y-14818711D01*
X21434246Y-14816194D01*
X21448440Y-14813715D01*
X21462631Y-14811272D01*
X21476821Y-14808866D01*
X21491012Y-14806496D01*
X21505206Y-14804162D01*
X21519406Y-14801864D01*
X21533612Y-14799602D01*
X21547829Y-14797376D01*
X21562057Y-14795185D01*
X21576299Y-14793029D01*
X21590557Y-14790909D01*
X21604834Y-14788823D01*
X21619131Y-14786773D01*
X24162406Y-15661240D02*
G75*
G03*
X24162406Y-15661240I-87500J0D01*
G01*
X23991620Y-15923850D02*
G75*
G03*
X24391620Y-15523854I0J400000D01*
G01*
X21815834Y-15261240D02*
G75*
G03*
X21815834Y-15261240I-107500J0D01*
G01*
X21391620Y-14823854D02*
X21391620Y-15523854D01*
X22141778Y-14736654D02*
X22153566Y-14735993D01*
X22165358Y-14735349D01*
X22177154Y-14734721D01*
X22188954Y-14734110D01*
X22200758Y-14733515D01*
X22212565Y-14732936D01*
X22224376Y-14732373D01*
X22236190Y-14731825D01*
X22248008Y-14731293D01*
X22259829Y-14730776D01*
X22271652Y-14730274D01*
X22283479Y-14729787D01*
X22295309Y-14729314D01*
X22307141Y-14728856D01*
X22318976Y-14728412D01*
X22330813Y-14727982D01*
X22342653Y-14727565D01*
X22354494Y-14727162D01*
X22366338Y-14726773D01*
X22378184Y-14726396D01*
X22390032Y-14726033D01*
X22401882Y-14725682D01*
X22413733Y-14725343D01*
X22425586Y-14725017D01*
X22437440Y-14724703D01*
X22449295Y-14724401D01*
X22461152Y-14724110D01*
X22473010Y-14723831D01*
X22484868Y-14723563D01*
X22496728Y-14723307D01*
X22508588Y-14723061D01*
X22520449Y-14722825D01*
X23641462Y-14736654D02*
X23629674Y-14735993D01*
X23617882Y-14735349D01*
X23606085Y-14734721D01*
X23594286Y-14734110D01*
X23582482Y-14733515D01*
X23570675Y-14732936D01*
X23558864Y-14732373D01*
X23547049Y-14731825D01*
X23535232Y-14731293D01*
X23523411Y-14730776D01*
X23511587Y-14730274D01*
X23499761Y-14729787D01*
X23487931Y-14729314D01*
X23476099Y-14728856D01*
X23464264Y-14728412D01*
X23452427Y-14727982D01*
X23440587Y-14727565D01*
X23428745Y-14727162D01*
X23416902Y-14726773D01*
X23405056Y-14726396D01*
X23393208Y-14726033D01*
X23381358Y-14725682D01*
X23369507Y-14725343D01*
X23357654Y-14725017D01*
X23345800Y-14724703D01*
X23333944Y-14724401D01*
X23322088Y-14724110D01*
X23310230Y-14723831D01*
X23298371Y-14723563D01*
X23286512Y-14723307D01*
X23274652Y-14723061D01*
X23262791Y-14722825D01*
X24391620Y-14823854D02*
X24377402Y-14821264D01*
X24363194Y-14818711D01*
X24348994Y-14816194D01*
X24334800Y-14813715D01*
X24320609Y-14811272D01*
X24306419Y-14808866D01*
X24292228Y-14806496D01*
X24278034Y-14804162D01*
X24263834Y-14801864D01*
X24249627Y-14799602D01*
X24235411Y-14797376D01*
X24221183Y-14795185D01*
X24206941Y-14793029D01*
X24192683Y-14790909D01*
X24178406Y-14788823D01*
X24164109Y-14786773D01*
X24391620Y-15523854D02*
X24391620Y-14823854D01*
X23262791Y-14722825D02*
X23251231Y-14722606D01*
X23239664Y-14722396D01*
X23228091Y-14722196D01*
X23216512Y-14722005D01*
X23204927Y-14721823D01*
X23193338Y-14721650D01*
X23181743Y-14721485D01*
X23170144Y-14721330D01*
X23158542Y-14721182D01*
X23146936Y-14721043D01*
X23135327Y-14720912D01*
X23123715Y-14720789D01*
X23112102Y-14720674D01*
X23100486Y-14720566D01*
X23088870Y-14720465D01*
X23077252Y-14720372D01*
X23065635Y-14720285D01*
X23054017Y-14720206D01*
X23042400Y-14720133D01*
X23030784Y-14720067D01*
X23019169Y-14720006D01*
X23007556Y-14719953D01*
X22995945Y-14719905D01*
X22984337Y-14719862D01*
X22972732Y-14719826D01*
X22961131Y-14719795D01*
X22949533Y-14719769D01*
X22937940Y-14719748D01*
X22926352Y-14719732D01*
X22914768Y-14719721D01*
X22903191Y-14719715D01*
X22891620Y-14719712D01*
D11*
D12*
X22315194Y-15768059D02*
X22350194Y-15803059D01*
X22350194Y-15768059D02*
X22315194Y-15803059D01*
X22355325Y-15518186D02*
X22390325Y-15553186D01*
X22390325Y-15518186D02*
X22355325Y-15553186D01*
X22393942Y-15610563D02*
X22428942Y-15645563D01*
X22428942Y-15610563D02*
X22393942Y-15645563D01*
X22469819Y-15652178D02*
X22504819Y-15687178D01*
X22504819Y-15652178D02*
X22469819Y-15687178D01*
X22555806Y-15491976D02*
X22590806Y-15526976D01*
X22590806Y-15491976D02*
X22555806Y-15526976D01*
X22743440Y-15750820D02*
X22778440Y-15785820D01*
X22778440Y-15750820D02*
X22743440Y-15785820D01*
X22794016Y-15597635D02*
X22829016Y-15632635D01*
X22829016Y-15597635D02*
X22794016Y-15632635D01*
X22913207Y-15699387D02*
X22948207Y-15734387D01*
X22948207Y-15699387D02*
X22913207Y-15734387D01*
X22938945Y-15533621D02*
X22973945Y-15568621D01*
X22973945Y-15533621D02*
X22938945Y-15568621D01*
X23048920Y-15580167D02*
X23083920Y-15615167D01*
X23083920Y-15580167D02*
X23048920Y-15615167D01*
X23184783Y-15528157D02*
X23219783Y-15563157D01*
X23219783Y-15528157D02*
X23184783Y-15563157D01*
X23374585Y-15614477D02*
X23409585Y-15649477D01*
X23409585Y-15614477D02*
X23374585Y-15649477D01*
X23444752Y-15655870D02*
X23479752Y-15690870D01*
X23479752Y-15655870D02*
X23444752Y-15690870D01*
X23817860Y-15440940D02*
X23852860Y-15475940D01*
X23852860Y-15440940D02*
X23817860Y-15475940D01*
X23868660Y-15364740D02*
X23903660Y-15399740D01*
X23903660Y-15364740D02*
X23868660Y-15399740D01*
D13*
X22847669Y-15498527D02*
G75*
G03*
X22847669Y-15498527I-20000J0D01*
G01*
X22913020Y-15049500D02*
G75*
G03*
X22913020Y-15049500I-20000J0D01*
G01*
X23052720Y-15087600D02*
G75*
G03*
X23052720Y-15087600I-20000J0D01*
G01*
X23083200Y-14914880D02*
G75*
G03*
X23083200Y-14914880I-20000J0D01*
G01*
X23139080Y-15026640D02*
G75*
G03*
X23139080Y-15026640I-20000J0D01*
G01*
X22586618Y-15261240D02*
X22586618Y-15301240D01*
X22566618Y-15281240D02*
X22606618Y-15281240D01*
X22651618Y-15191240D02*
X22651618Y-15231240D01*
X22631618Y-15211240D02*
X22671618Y-15211240D01*
X22731618Y-15191240D02*
X22731618Y-15231240D01*
X22711618Y-15211240D02*
X22751618Y-15211240D01*
X22771618Y-15261240D02*
X22771618Y-15301240D01*
X22751618Y-15281240D02*
X22791618Y-15281240D01*
X22811618Y-15191240D02*
X22811618Y-15231240D01*
X22791618Y-15211240D02*
X22831618Y-15211240D01*
X22851618Y-15261240D02*
X22851618Y-15301240D01*
X22831618Y-15281240D02*
X22871618Y-15281240D01*
X22931618Y-15261240D02*
X22931618Y-15301240D01*
X22911618Y-15281240D02*
X22951618Y-15281240D01*
X22971618Y-15191240D02*
X22971618Y-15231240D01*
X22951618Y-15211240D02*
X22991618Y-15211240D01*
X23011618Y-15261240D02*
X23011618Y-15301240D01*
X22991618Y-15281240D02*
X23031618Y-15281240D01*
X23051618Y-15191240D02*
X23051618Y-15231240D01*
X23031618Y-15211240D02*
X23071618Y-15211240D01*
X23131618Y-15191240D02*
X23131618Y-15231240D01*
X23111618Y-15211240D02*
X23151618Y-15211240D01*
X23196618Y-15261240D02*
X23196618Y-15301240D01*
X23176618Y-15281240D02*
X23216618Y-15281240D01*
D14*
X22504296Y-15338918D02*
X22504296Y-15303562D01*
X22468940Y-15303562D01*
X22468940Y-15338918D01*
X22504296Y-15338918D01*
X23314296Y-15338918D02*
X23314296Y-15303562D01*
X23278940Y-15303562D01*
X23278940Y-15338918D01*
X23314296Y-15338918D01*
D15*
X22441618Y-14831240D02*
X22471618Y-14801240D01*
X22441618Y-14771240D01*
X22411618Y-14801240D01*
X22441618Y-14831240D01*
D11*
X22471618Y-14846240D02*
X22471618Y-14756240D01*
X22471618Y-14756240D02*
G75*
G03*
X22411618Y-14756240I-30000J0D01*
G01*
X22411618Y-14756240D02*
X22411618Y-14846240D01*
X22411618Y-14846240D02*
G75*
G03*
X22471618Y-14846240I30000J0D01*
G01*
D15*
X22441618Y-15406240D02*
X22471618Y-15376240D01*
X22441618Y-15346240D01*
X22411618Y-15376240D01*
X22441618Y-15406240D01*
X23341618Y-14831240D02*
X23371618Y-14801240D01*
X23341618Y-14771240D01*
X23311618Y-14801240D01*
X23341618Y-14831240D01*
D11*
X23371618Y-14846240D02*
X23371618Y-14756240D01*
X23371618Y-14756240D02*
G75*
G03*
X23311618Y-14756240I-30000J0D01*
G01*
X23311618Y-14756240D02*
X23311618Y-14846240D01*
X23311618Y-14846240D02*
G75*
G03*
X23371618Y-14846240I30000J0D01*
G01*
D15*
X23341618Y-15406240D02*
X23371618Y-15376240D01*
X23341618Y-15346240D01*
X23311618Y-15376240D01*
X23341618Y-15406240D01*
D16*
X22131620Y-14848740D02*
X22206620Y-14923740D01*
X22206620Y-14848740D02*
X22131620Y-14923740D01*
X22206620Y-14886240D02*
G75*
G03*
X22206620Y-14886240I-37500J0D01*
G01*
X22131620Y-15098740D02*
X22206620Y-15173740D01*
X22206620Y-15098740D02*
X22131620Y-15173740D01*
X22206620Y-15136240D02*
G75*
G03*
X22206620Y-15136240I-37500J0D01*
G01*
X22131620Y-15348740D02*
X22206620Y-15423740D01*
X22206620Y-15348740D02*
X22131620Y-15423740D01*
X22206620Y-15386240D02*
G75*
G03*
X22206620Y-15386240I-37500J0D01*
G01*
X22131620Y-15598740D02*
X22206620Y-15673740D01*
X22206620Y-15598740D02*
X22131620Y-15673740D01*
X22206620Y-15636240D02*
G75*
G03*
X22206620Y-15636240I-37500J0D01*
G01*
X23576620Y-14848740D02*
X23651620Y-14923740D01*
X23651620Y-14848740D02*
X23576620Y-14923740D01*
X23651620Y-14886240D02*
G75*
G03*
X23651620Y-14886240I-37500J0D01*
G01*
X23576620Y-15098740D02*
X23651620Y-15173740D01*
X23651620Y-15098740D02*
X23576620Y-15173740D01*
X23651620Y-15136240D02*
G75*
G03*
X23651620Y-15136240I-37500J0D01*
G01*
X23576620Y-15348740D02*
X23651620Y-15423740D01*
X23651620Y-15348740D02*
X23576620Y-15423740D01*
X23651620Y-15386240D02*
G75*
G03*
X23651620Y-15386240I-37500J0D01*
G01*
X23576620Y-15598740D02*
X23651620Y-15673740D01*
X23651620Y-15598740D02*
X23576620Y-15673740D01*
X23651620Y-15636240D02*
G75*
G03*
X23651620Y-15636240I-37500J0D01*
G01*
D11*
X21647397Y-16240338D02*
X21647397Y-16040338D01*
X21647397Y-16040338D02*
X21695016Y-16040338D01*
X21695016Y-16040338D02*
X21723587Y-16049862D01*
X21723587Y-16049862D02*
X21742635Y-16068909D01*
X21742635Y-16068909D02*
X21752159Y-16087957D01*
X21752159Y-16087957D02*
X21761683Y-16126052D01*
X21761683Y-16126052D02*
X21761683Y-16154623D01*
X21761683Y-16154623D02*
X21752159Y-16192719D01*
X21752159Y-16192719D02*
X21742635Y-16211766D01*
X21742635Y-16211766D02*
X21723587Y-16230814D01*
X21723587Y-16230814D02*
X21695016Y-16240338D01*
X21695016Y-16240338D02*
X21647397Y-16240338D01*
X21847397Y-16240338D02*
X21847397Y-16107004D01*
X21847397Y-16145100D02*
X21856921Y-16126052D01*
X21856921Y-16126052D02*
X21866444Y-16116528D01*
X21866444Y-16116528D02*
X21885492Y-16107004D01*
X21885492Y-16107004D02*
X21904540Y-16107004D01*
X21971206Y-16240338D02*
X21971206Y-16107004D01*
X21971206Y-16040338D02*
X21961683Y-16049862D01*
X21961683Y-16049862D02*
X21971206Y-16059385D01*
X21971206Y-16059385D02*
X21980730Y-16049862D01*
X21980730Y-16049862D02*
X21971206Y-16040338D01*
X21971206Y-16040338D02*
X21971206Y-16059385D01*
X22095016Y-16240338D02*
X22075968Y-16230814D01*
X22075968Y-16230814D02*
X22066444Y-16211766D01*
X22066444Y-16211766D02*
X22066444Y-16040338D01*
X22199778Y-16240338D02*
X22180730Y-16230814D01*
X22180730Y-16230814D02*
X22171206Y-16211766D01*
X22171206Y-16211766D02*
X22171206Y-16040338D01*
X22428349Y-16240338D02*
X22428349Y-16040338D01*
X22428349Y-16040338D02*
X22495016Y-16183195D01*
X22495016Y-16183195D02*
X22561682Y-16040338D01*
X22561682Y-16040338D02*
X22561682Y-16240338D01*
X22742635Y-16240338D02*
X22742635Y-16135576D01*
X22742635Y-16135576D02*
X22733111Y-16116528D01*
X22733111Y-16116528D02*
X22714063Y-16107004D01*
X22714063Y-16107004D02*
X22675968Y-16107004D01*
X22675968Y-16107004D02*
X22656921Y-16116528D01*
X22742635Y-16230814D02*
X22723587Y-16240338D01*
X22723587Y-16240338D02*
X22675968Y-16240338D01*
X22675968Y-16240338D02*
X22656921Y-16230814D01*
X22656921Y-16230814D02*
X22647397Y-16211766D01*
X22647397Y-16211766D02*
X22647397Y-16192719D01*
X22647397Y-16192719D02*
X22656921Y-16173671D01*
X22656921Y-16173671D02*
X22675968Y-16164147D01*
X22675968Y-16164147D02*
X22723587Y-16164147D01*
X22723587Y-16164147D02*
X22742635Y-16154623D01*
X22837873Y-16107004D02*
X22837873Y-16307004D01*
X22837873Y-16116528D02*
X22856921Y-16107004D01*
X22856921Y-16107004D02*
X22895016Y-16107004D01*
X22895016Y-16107004D02*
X22914063Y-16116528D01*
X22914063Y-16116528D02*
X22923587Y-16126052D01*
X22923587Y-16126052D02*
X22933111Y-16145100D01*
X22933111Y-16145100D02*
X22933111Y-16202242D01*
X22933111Y-16202242D02*
X22923587Y-16221290D01*
X22923587Y-16221290D02*
X22914063Y-16230814D01*
X22914063Y-16230814D02*
X22895016Y-16240338D01*
X22895016Y-16240338D02*
X22856921Y-16240338D01*
X22856921Y-16240338D02*
X22837873Y-16230814D01*
X23018825Y-16221290D02*
X23028349Y-16230814D01*
X23028349Y-16230814D02*
X23018825Y-16240338D01*
X23018825Y-16240338D02*
X23009302Y-16230814D01*
X23009302Y-16230814D02*
X23018825Y-16221290D01*
X23018825Y-16221290D02*
X23018825Y-16240338D01*
X23018825Y-16116528D02*
X23028349Y-16126052D01*
X23028349Y-16126052D02*
X23018825Y-16135576D01*
X23018825Y-16135576D02*
X23009302Y-16126052D01*
X23009302Y-16126052D02*
X23018825Y-16116528D01*
X23018825Y-16116528D02*
X23018825Y-16135576D01*
D12*
X21351620Y-16551354D02*
X21386620Y-16586354D01*
X21386620Y-16551354D02*
X21351620Y-16586354D01*
D11*
X21685492Y-16460338D02*
X21704540Y-16460338D01*
X21704540Y-16460338D02*
X21723587Y-16469862D01*
X21723587Y-16469862D02*
X21733111Y-16479385D01*
X21733111Y-16479385D02*
X21742635Y-16498433D01*
X21742635Y-16498433D02*
X21752159Y-16536528D01*
X21752159Y-16536528D02*
X21752159Y-16584147D01*
X21752159Y-16584147D02*
X21742635Y-16622242D01*
X21742635Y-16622242D02*
X21733111Y-16641290D01*
X21733111Y-16641290D02*
X21723587Y-16650814D01*
X21723587Y-16650814D02*
X21704540Y-16660338D01*
X21704540Y-16660338D02*
X21685492Y-16660338D01*
X21685492Y-16660338D02*
X21666444Y-16650814D01*
X21666444Y-16650814D02*
X21656921Y-16641290D01*
X21656921Y-16641290D02*
X21647397Y-16622242D01*
X21647397Y-16622242D02*
X21637873Y-16584147D01*
X21637873Y-16584147D02*
X21637873Y-16536528D01*
X21637873Y-16536528D02*
X21647397Y-16498433D01*
X21647397Y-16498433D02*
X21656921Y-16479385D01*
X21656921Y-16479385D02*
X21666444Y-16469862D01*
X21666444Y-16469862D02*
X21685492Y-16460338D01*
X21837873Y-16641290D02*
X21847397Y-16650814D01*
X21847397Y-16650814D02*
X21837873Y-16660338D01*
X21837873Y-16660338D02*
X21828349Y-16650814D01*
X21828349Y-16650814D02*
X21837873Y-16641290D01*
X21837873Y-16641290D02*
X21837873Y-16660338D01*
X21914064Y-16460338D02*
X22037873Y-16460338D01*
X22037873Y-16460338D02*
X21971206Y-16536528D01*
X21971206Y-16536528D02*
X21999778Y-16536528D01*
X21999778Y-16536528D02*
X22018825Y-16546052D01*
X22018825Y-16546052D02*
X22028349Y-16555576D01*
X22028349Y-16555576D02*
X22037873Y-16574623D01*
X22037873Y-16574623D02*
X22037873Y-16622242D01*
X22037873Y-16622242D02*
X22028349Y-16641290D01*
X22028349Y-16641290D02*
X22018825Y-16650814D01*
X22018825Y-16650814D02*
X21999778Y-16660338D01*
X21999778Y-16660338D02*
X21942635Y-16660338D01*
X21942635Y-16660338D02*
X21923587Y-16650814D01*
X21923587Y-16650814D02*
X21914064Y-16641290D01*
X22218825Y-16460338D02*
X22123587Y-16460338D01*
X22123587Y-16460338D02*
X22114064Y-16555576D01*
X22114064Y-16555576D02*
X22123587Y-16546052D01*
X22123587Y-16546052D02*
X22142635Y-16536528D01*
X22142635Y-16536528D02*
X22190254Y-16536528D01*
X22190254Y-16536528D02*
X22209302Y-16546052D01*
X22209302Y-16546052D02*
X22218825Y-16555576D01*
X22218825Y-16555576D02*
X22228349Y-16574623D01*
X22228349Y-16574623D02*
X22228349Y-16622242D01*
X22228349Y-16622242D02*
X22218825Y-16641290D01*
X22218825Y-16641290D02*
X22209302Y-16650814D01*
X22209302Y-16650814D02*
X22190254Y-16660338D01*
X22190254Y-16660338D02*
X22142635Y-16660338D01*
X22142635Y-16660338D02*
X22123587Y-16650814D01*
X22123587Y-16650814D02*
X22114064Y-16641290D01*
X22352159Y-16460338D02*
X22371206Y-16460338D01*
X22371206Y-16460338D02*
X22390254Y-16469862D01*
X22390254Y-16469862D02*
X22399778Y-16479385D01*
X22399778Y-16479385D02*
X22409302Y-16498433D01*
X22409302Y-16498433D02*
X22418825Y-16536528D01*
X22418825Y-16536528D02*
X22418825Y-16584147D01*
X22418825Y-16584147D02*
X22409302Y-16622242D01*
X22409302Y-16622242D02*
X22399778Y-16641290D01*
X22399778Y-16641290D02*
X22390254Y-16650814D01*
X22390254Y-16650814D02*
X22371206Y-16660338D01*
X22371206Y-16660338D02*
X22352159Y-16660338D01*
X22352159Y-16660338D02*
X22333111Y-16650814D01*
X22333111Y-16650814D02*
X22323587Y-16641290D01*
X22323587Y-16641290D02*
X22314064Y-16622242D01*
X22314064Y-16622242D02*
X22304540Y-16584147D01*
X22304540Y-16584147D02*
X22304540Y-16536528D01*
X22304540Y-16536528D02*
X22314064Y-16498433D01*
X22314064Y-16498433D02*
X22323587Y-16479385D01*
X22323587Y-16479385D02*
X22333111Y-16469862D01*
X22333111Y-16469862D02*
X22352159Y-16460338D01*
X22504540Y-16660338D02*
X22504540Y-16527004D01*
X22504540Y-16546052D02*
X22514063Y-16536528D01*
X22514063Y-16536528D02*
X22533111Y-16527004D01*
X22533111Y-16527004D02*
X22561683Y-16527004D01*
X22561683Y-16527004D02*
X22580730Y-16536528D01*
X22580730Y-16536528D02*
X22590254Y-16555576D01*
X22590254Y-16555576D02*
X22590254Y-16660338D01*
X22590254Y-16555576D02*
X22599778Y-16536528D01*
X22599778Y-16536528D02*
X22618825Y-16527004D01*
X22618825Y-16527004D02*
X22647397Y-16527004D01*
X22647397Y-16527004D02*
X22666444Y-16536528D01*
X22666444Y-16536528D02*
X22675968Y-16555576D01*
X22675968Y-16555576D02*
X22675968Y-16660338D01*
X22771206Y-16660338D02*
X22771206Y-16527004D01*
X22771206Y-16546052D02*
X22780730Y-16536528D01*
X22780730Y-16536528D02*
X22799778Y-16527004D01*
X22799778Y-16527004D02*
X22828349Y-16527004D01*
X22828349Y-16527004D02*
X22847397Y-16536528D01*
X22847397Y-16536528D02*
X22856921Y-16555576D01*
X22856921Y-16555576D02*
X22856921Y-16660338D01*
X22856921Y-16555576D02*
X22866444Y-16536528D01*
X22866444Y-16536528D02*
X22885492Y-16527004D01*
X22885492Y-16527004D02*
X22914063Y-16527004D01*
X22914063Y-16527004D02*
X22933111Y-16536528D01*
X22933111Y-16536528D02*
X22942635Y-16555576D01*
X22942635Y-16555576D02*
X22942635Y-16660338D01*
X23333111Y-16450814D02*
X23161683Y-16707957D01*
X23590254Y-16460338D02*
X23609302Y-16460338D01*
X23609302Y-16460338D02*
X23628349Y-16469862D01*
X23628349Y-16469862D02*
X23637873Y-16479385D01*
X23637873Y-16479385D02*
X23647397Y-16498433D01*
X23647397Y-16498433D02*
X23656921Y-16536528D01*
X23656921Y-16536528D02*
X23656921Y-16584147D01*
X23656921Y-16584147D02*
X23647397Y-16622242D01*
X23647397Y-16622242D02*
X23637873Y-16641290D01*
X23637873Y-16641290D02*
X23628349Y-16650814D01*
X23628349Y-16650814D02*
X23609302Y-16660338D01*
X23609302Y-16660338D02*
X23590254Y-16660338D01*
X23590254Y-16660338D02*
X23571206Y-16650814D01*
X23571206Y-16650814D02*
X23561683Y-16641290D01*
X23561683Y-16641290D02*
X23552159Y-16622242D01*
X23552159Y-16622242D02*
X23542635Y-16584147D01*
X23542635Y-16584147D02*
X23542635Y-16536528D01*
X23542635Y-16536528D02*
X23552159Y-16498433D01*
X23552159Y-16498433D02*
X23561683Y-16479385D01*
X23561683Y-16479385D02*
X23571206Y-16469862D01*
X23571206Y-16469862D02*
X23590254Y-16460338D01*
X23742635Y-16641290D02*
X23752159Y-16650814D01*
X23752159Y-16650814D02*
X23742635Y-16660338D01*
X23742635Y-16660338D02*
X23733111Y-16650814D01*
X23733111Y-16650814D02*
X23742635Y-16641290D01*
X23742635Y-16641290D02*
X23742635Y-16660338D01*
X23875968Y-16460338D02*
X23895016Y-16460338D01*
X23895016Y-16460338D02*
X23914064Y-16469862D01*
X23914064Y-16469862D02*
X23923587Y-16479385D01*
X23923587Y-16479385D02*
X23933111Y-16498433D01*
X23933111Y-16498433D02*
X23942635Y-16536528D01*
X23942635Y-16536528D02*
X23942635Y-16584147D01*
X23942635Y-16584147D02*
X23933111Y-16622242D01*
X23933111Y-16622242D02*
X23923587Y-16641290D01*
X23923587Y-16641290D02*
X23914064Y-16650814D01*
X23914064Y-16650814D02*
X23895016Y-16660338D01*
X23895016Y-16660338D02*
X23875968Y-16660338D01*
X23875968Y-16660338D02*
X23856921Y-16650814D01*
X23856921Y-16650814D02*
X23847397Y-16641290D01*
X23847397Y-16641290D02*
X23837873Y-16622242D01*
X23837873Y-16622242D02*
X23828349Y-16584147D01*
X23828349Y-16584147D02*
X23828349Y-16536528D01*
X23828349Y-16536528D02*
X23837873Y-16498433D01*
X23837873Y-16498433D02*
X23847397Y-16479385D01*
X23847397Y-16479385D02*
X23856921Y-16469862D01*
X23856921Y-16469862D02*
X23875968Y-16460338D01*
X24133111Y-16660338D02*
X24018826Y-16660338D01*
X24075968Y-16660338D02*
X24075968Y-16460338D01*
X24075968Y-16460338D02*
X24056921Y-16488909D01*
X24056921Y-16488909D02*
X24037873Y-16507957D01*
X24037873Y-16507957D02*
X24018826Y-16517481D01*
X24199778Y-16460338D02*
X24323587Y-16460338D01*
X24323587Y-16460338D02*
X24256921Y-16536528D01*
X24256921Y-16536528D02*
X24285492Y-16536528D01*
X24285492Y-16536528D02*
X24304540Y-16546052D01*
X24304540Y-16546052D02*
X24314064Y-16555576D01*
X24314064Y-16555576D02*
X24323587Y-16574623D01*
X24323587Y-16574623D02*
X24323587Y-16622242D01*
X24323587Y-16622242D02*
X24314064Y-16641290D01*
X24314064Y-16641290D02*
X24304540Y-16650814D01*
X24304540Y-16650814D02*
X24285492Y-16660338D01*
X24285492Y-16660338D02*
X24228349Y-16660338D01*
X24228349Y-16660338D02*
X24209302Y-16650814D01*
X24209302Y-16650814D02*
X24199778Y-16641290D01*
X24437873Y-16546052D02*
X24418826Y-16536528D01*
X24418826Y-16536528D02*
X24409302Y-16527004D01*
X24409302Y-16527004D02*
X24399778Y-16507957D01*
X24399778Y-16507957D02*
X24399778Y-16498433D01*
X24399778Y-16498433D02*
X24409302Y-16479385D01*
X24409302Y-16479385D02*
X24418826Y-16469862D01*
X24418826Y-16469862D02*
X24437873Y-16460338D01*
X24437873Y-16460338D02*
X24475968Y-16460338D01*
X24475968Y-16460338D02*
X24495016Y-16469862D01*
X24495016Y-16469862D02*
X24504540Y-16479385D01*
X24504540Y-16479385D02*
X24514064Y-16498433D01*
X24514064Y-16498433D02*
X24514064Y-16507957D01*
X24514064Y-16507957D02*
X24504540Y-16527004D01*
X24504540Y-16527004D02*
X24495016Y-16536528D01*
X24495016Y-16536528D02*
X24475968Y-16546052D01*
X24475968Y-16546052D02*
X24437873Y-16546052D01*
X24437873Y-16546052D02*
X24418826Y-16555576D01*
X24418826Y-16555576D02*
X24409302Y-16565100D01*
X24409302Y-16565100D02*
X24399778Y-16584147D01*
X24399778Y-16584147D02*
X24399778Y-16622242D01*
X24399778Y-16622242D02*
X24409302Y-16641290D01*
X24409302Y-16641290D02*
X24418826Y-16650814D01*
X24418826Y-16650814D02*
X24437873Y-16660338D01*
X24437873Y-16660338D02*
X24475968Y-16660338D01*
X24475968Y-16660338D02*
X24495016Y-16650814D01*
X24495016Y-16650814D02*
X24504540Y-16641290D01*
X24504540Y-16641290D02*
X24514064Y-16622242D01*
X24514064Y-16622242D02*
X24514064Y-16584147D01*
X24514064Y-16584147D02*
X24504540Y-16565100D01*
X24504540Y-16565100D02*
X24495016Y-16555576D01*
X24495016Y-16555576D02*
X24475968Y-16546052D01*
X24590254Y-16460338D02*
X24590254Y-16498433D01*
X24666445Y-16460338D02*
X24666445Y-16498433D01*
X24961683Y-16736528D02*
X24952159Y-16727004D01*
X24952159Y-16727004D02*
X24933111Y-16698433D01*
X24933111Y-16698433D02*
X24923588Y-16679385D01*
X24923588Y-16679385D02*
X24914064Y-16650814D01*
X24914064Y-16650814D02*
X24904540Y-16603195D01*
X24904540Y-16603195D02*
X24904540Y-16565100D01*
X24904540Y-16565100D02*
X24914064Y-16517481D01*
X24914064Y-16517481D02*
X24923588Y-16488909D01*
X24923588Y-16488909D02*
X24933111Y-16469862D01*
X24933111Y-16469862D02*
X24952159Y-16441290D01*
X24952159Y-16441290D02*
X24961683Y-16431766D01*
X25142635Y-16660338D02*
X25028349Y-16660338D01*
X25085492Y-16660338D02*
X25085492Y-16460338D01*
X25085492Y-16460338D02*
X25066445Y-16488909D01*
X25066445Y-16488909D02*
X25047397Y-16507957D01*
X25047397Y-16507957D02*
X25028349Y-16517481D01*
X25323588Y-16460338D02*
X25228349Y-16460338D01*
X25228349Y-16460338D02*
X25218826Y-16555576D01*
X25218826Y-16555576D02*
X25228349Y-16546052D01*
X25228349Y-16546052D02*
X25247397Y-16536528D01*
X25247397Y-16536528D02*
X25295016Y-16536528D01*
X25295016Y-16536528D02*
X25314064Y-16546052D01*
X25314064Y-16546052D02*
X25323588Y-16555576D01*
X25323588Y-16555576D02*
X25333111Y-16574623D01*
X25333111Y-16574623D02*
X25333111Y-16622242D01*
X25333111Y-16622242D02*
X25323588Y-16641290D01*
X25323588Y-16641290D02*
X25314064Y-16650814D01*
X25314064Y-16650814D02*
X25295016Y-16660338D01*
X25295016Y-16660338D02*
X25247397Y-16660338D01*
X25247397Y-16660338D02*
X25228349Y-16650814D01*
X25228349Y-16650814D02*
X25218826Y-16641290D01*
X25571207Y-16660338D02*
X25571207Y-16460338D01*
X25656921Y-16660338D02*
X25656921Y-16555576D01*
X25656921Y-16555576D02*
X25647397Y-16536528D01*
X25647397Y-16536528D02*
X25628350Y-16527004D01*
X25628350Y-16527004D02*
X25599778Y-16527004D01*
X25599778Y-16527004D02*
X25580730Y-16536528D01*
X25580730Y-16536528D02*
X25571207Y-16546052D01*
X25780730Y-16660338D02*
X25761683Y-16650814D01*
X25761683Y-16650814D02*
X25752159Y-16641290D01*
X25752159Y-16641290D02*
X25742635Y-16622242D01*
X25742635Y-16622242D02*
X25742635Y-16565100D01*
X25742635Y-16565100D02*
X25752159Y-16546052D01*
X25752159Y-16546052D02*
X25761683Y-16536528D01*
X25761683Y-16536528D02*
X25780730Y-16527004D01*
X25780730Y-16527004D02*
X25809302Y-16527004D01*
X25809302Y-16527004D02*
X25828350Y-16536528D01*
X25828350Y-16536528D02*
X25837873Y-16546052D01*
X25837873Y-16546052D02*
X25847397Y-16565100D01*
X25847397Y-16565100D02*
X25847397Y-16622242D01*
X25847397Y-16622242D02*
X25837873Y-16641290D01*
X25837873Y-16641290D02*
X25828350Y-16650814D01*
X25828350Y-16650814D02*
X25809302Y-16660338D01*
X25809302Y-16660338D02*
X25780730Y-16660338D01*
X25961683Y-16660338D02*
X25942635Y-16650814D01*
X25942635Y-16650814D02*
X25933111Y-16631766D01*
X25933111Y-16631766D02*
X25933111Y-16460338D01*
X26114064Y-16650814D02*
X26095016Y-16660338D01*
X26095016Y-16660338D02*
X26056921Y-16660338D01*
X26056921Y-16660338D02*
X26037873Y-16650814D01*
X26037873Y-16650814D02*
X26028350Y-16631766D01*
X26028350Y-16631766D02*
X26028350Y-16555576D01*
X26028350Y-16555576D02*
X26037873Y-16536528D01*
X26037873Y-16536528D02*
X26056921Y-16527004D01*
X26056921Y-16527004D02*
X26095016Y-16527004D01*
X26095016Y-16527004D02*
X26114064Y-16536528D01*
X26114064Y-16536528D02*
X26123588Y-16555576D01*
X26123588Y-16555576D02*
X26123588Y-16574623D01*
X26123588Y-16574623D02*
X26028350Y-16593671D01*
X26199778Y-16650814D02*
X26218826Y-16660338D01*
X26218826Y-16660338D02*
X26256921Y-16660338D01*
X26256921Y-16660338D02*
X26275969Y-16650814D01*
X26275969Y-16650814D02*
X26285492Y-16631766D01*
X26285492Y-16631766D02*
X26285492Y-16622242D01*
X26285492Y-16622242D02*
X26275969Y-16603195D01*
X26275969Y-16603195D02*
X26256921Y-16593671D01*
X26256921Y-16593671D02*
X26228350Y-16593671D01*
X26228350Y-16593671D02*
X26209302Y-16584147D01*
X26209302Y-16584147D02*
X26199778Y-16565100D01*
X26199778Y-16565100D02*
X26199778Y-16555576D01*
X26199778Y-16555576D02*
X26209302Y-16536528D01*
X26209302Y-16536528D02*
X26228350Y-16527004D01*
X26228350Y-16527004D02*
X26256921Y-16527004D01*
X26256921Y-16527004D02*
X26275969Y-16536528D01*
X26352159Y-16736528D02*
X26361683Y-16727004D01*
X26361683Y-16727004D02*
X26380731Y-16698433D01*
X26380731Y-16698433D02*
X26390254Y-16679385D01*
X26390254Y-16679385D02*
X26399778Y-16650814D01*
X26399778Y-16650814D02*
X26409302Y-16603195D01*
X26409302Y-16603195D02*
X26409302Y-16565100D01*
X26409302Y-16565100D02*
X26399778Y-16517481D01*
X26399778Y-16517481D02*
X26390254Y-16488909D01*
X26390254Y-16488909D02*
X26380731Y-16469862D01*
X26380731Y-16469862D02*
X26361683Y-16441290D01*
X26361683Y-16441290D02*
X26352159Y-16431766D01*
D13*
X21386620Y-16832854D02*
G75*
G03*
X21386620Y-16832854I-20000J0D01*
G01*
D11*
X21685492Y-16724338D02*
X21704540Y-16724338D01*
X21704540Y-16724338D02*
X21723587Y-16733862D01*
X21723587Y-16733862D02*
X21733111Y-16743385D01*
X21733111Y-16743385D02*
X21742635Y-16762433D01*
X21742635Y-16762433D02*
X21752159Y-16800528D01*
X21752159Y-16800528D02*
X21752159Y-16848147D01*
X21752159Y-16848147D02*
X21742635Y-16886243D01*
X21742635Y-16886243D02*
X21733111Y-16905290D01*
X21733111Y-16905290D02*
X21723587Y-16914814D01*
X21723587Y-16914814D02*
X21704540Y-16924338D01*
X21704540Y-16924338D02*
X21685492Y-16924338D01*
X21685492Y-16924338D02*
X21666444Y-16914814D01*
X21666444Y-16914814D02*
X21656921Y-16905290D01*
X21656921Y-16905290D02*
X21647397Y-16886243D01*
X21647397Y-16886243D02*
X21637873Y-16848147D01*
X21637873Y-16848147D02*
X21637873Y-16800528D01*
X21637873Y-16800528D02*
X21647397Y-16762433D01*
X21647397Y-16762433D02*
X21656921Y-16743385D01*
X21656921Y-16743385D02*
X21666444Y-16733862D01*
X21666444Y-16733862D02*
X21685492Y-16724338D01*
X21837873Y-16905290D02*
X21847397Y-16914814D01*
X21847397Y-16914814D02*
X21837873Y-16924338D01*
X21837873Y-16924338D02*
X21828349Y-16914814D01*
X21828349Y-16914814D02*
X21837873Y-16905290D01*
X21837873Y-16905290D02*
X21837873Y-16924338D01*
X22018825Y-16791004D02*
X22018825Y-16924338D01*
X21971206Y-16714814D02*
X21923587Y-16857671D01*
X21923587Y-16857671D02*
X22047397Y-16857671D01*
X22161683Y-16724338D02*
X22180730Y-16724338D01*
X22180730Y-16724338D02*
X22199778Y-16733862D01*
X22199778Y-16733862D02*
X22209302Y-16743385D01*
X22209302Y-16743385D02*
X22218825Y-16762433D01*
X22218825Y-16762433D02*
X22228349Y-16800528D01*
X22228349Y-16800528D02*
X22228349Y-16848147D01*
X22228349Y-16848147D02*
X22218825Y-16886243D01*
X22218825Y-16886243D02*
X22209302Y-16905290D01*
X22209302Y-16905290D02*
X22199778Y-16914814D01*
X22199778Y-16914814D02*
X22180730Y-16924338D01*
X22180730Y-16924338D02*
X22161683Y-16924338D01*
X22161683Y-16924338D02*
X22142635Y-16914814D01*
X22142635Y-16914814D02*
X22133111Y-16905290D01*
X22133111Y-16905290D02*
X22123587Y-16886243D01*
X22123587Y-16886243D02*
X22114064Y-16848147D01*
X22114064Y-16848147D02*
X22114064Y-16800528D01*
X22114064Y-16800528D02*
X22123587Y-16762433D01*
X22123587Y-16762433D02*
X22133111Y-16743385D01*
X22133111Y-16743385D02*
X22142635Y-16733862D01*
X22142635Y-16733862D02*
X22161683Y-16724338D01*
X22352159Y-16724338D02*
X22371206Y-16724338D01*
X22371206Y-16724338D02*
X22390254Y-16733862D01*
X22390254Y-16733862D02*
X22399778Y-16743385D01*
X22399778Y-16743385D02*
X22409302Y-16762433D01*
X22409302Y-16762433D02*
X22418825Y-16800528D01*
X22418825Y-16800528D02*
X22418825Y-16848147D01*
X22418825Y-16848147D02*
X22409302Y-16886243D01*
X22409302Y-16886243D02*
X22399778Y-16905290D01*
X22399778Y-16905290D02*
X22390254Y-16914814D01*
X22390254Y-16914814D02*
X22371206Y-16924338D01*
X22371206Y-16924338D02*
X22352159Y-16924338D01*
X22352159Y-16924338D02*
X22333111Y-16914814D01*
X22333111Y-16914814D02*
X22323587Y-16905290D01*
X22323587Y-16905290D02*
X22314064Y-16886243D01*
X22314064Y-16886243D02*
X22304540Y-16848147D01*
X22304540Y-16848147D02*
X22304540Y-16800528D01*
X22304540Y-16800528D02*
X22314064Y-16762433D01*
X22314064Y-16762433D02*
X22323587Y-16743385D01*
X22323587Y-16743385D02*
X22333111Y-16733862D01*
X22333111Y-16733862D02*
X22352159Y-16724338D01*
X22504540Y-16924338D02*
X22504540Y-16791004D01*
X22504540Y-16810052D02*
X22514063Y-16800528D01*
X22514063Y-16800528D02*
X22533111Y-16791004D01*
X22533111Y-16791004D02*
X22561683Y-16791004D01*
X22561683Y-16791004D02*
X22580730Y-16800528D01*
X22580730Y-16800528D02*
X22590254Y-16819576D01*
X22590254Y-16819576D02*
X22590254Y-16924338D01*
X22590254Y-16819576D02*
X22599778Y-16800528D01*
X22599778Y-16800528D02*
X22618825Y-16791004D01*
X22618825Y-16791004D02*
X22647397Y-16791004D01*
X22647397Y-16791004D02*
X22666444Y-16800528D01*
X22666444Y-16800528D02*
X22675968Y-16819576D01*
X22675968Y-16819576D02*
X22675968Y-16924338D01*
X22771206Y-16924338D02*
X22771206Y-16791004D01*
X22771206Y-16810052D02*
X22780730Y-16800528D01*
X22780730Y-16800528D02*
X22799778Y-16791004D01*
X22799778Y-16791004D02*
X22828349Y-16791004D01*
X22828349Y-16791004D02*
X22847397Y-16800528D01*
X22847397Y-16800528D02*
X22856921Y-16819576D01*
X22856921Y-16819576D02*
X22856921Y-16924338D01*
X22856921Y-16819576D02*
X22866444Y-16800528D01*
X22866444Y-16800528D02*
X22885492Y-16791004D01*
X22885492Y-16791004D02*
X22914063Y-16791004D01*
X22914063Y-16791004D02*
X22933111Y-16800528D01*
X22933111Y-16800528D02*
X22942635Y-16819576D01*
X22942635Y-16819576D02*
X22942635Y-16924338D01*
X23333111Y-16714814D02*
X23161683Y-16971957D01*
X23590254Y-16724338D02*
X23609302Y-16724338D01*
X23609302Y-16724338D02*
X23628349Y-16733862D01*
X23628349Y-16733862D02*
X23637873Y-16743385D01*
X23637873Y-16743385D02*
X23647397Y-16762433D01*
X23647397Y-16762433D02*
X23656921Y-16800528D01*
X23656921Y-16800528D02*
X23656921Y-16848147D01*
X23656921Y-16848147D02*
X23647397Y-16886243D01*
X23647397Y-16886243D02*
X23637873Y-16905290D01*
X23637873Y-16905290D02*
X23628349Y-16914814D01*
X23628349Y-16914814D02*
X23609302Y-16924338D01*
X23609302Y-16924338D02*
X23590254Y-16924338D01*
X23590254Y-16924338D02*
X23571206Y-16914814D01*
X23571206Y-16914814D02*
X23561683Y-16905290D01*
X23561683Y-16905290D02*
X23552159Y-16886243D01*
X23552159Y-16886243D02*
X23542635Y-16848147D01*
X23542635Y-16848147D02*
X23542635Y-16800528D01*
X23542635Y-16800528D02*
X23552159Y-16762433D01*
X23552159Y-16762433D02*
X23561683Y-16743385D01*
X23561683Y-16743385D02*
X23571206Y-16733862D01*
X23571206Y-16733862D02*
X23590254Y-16724338D01*
X23742635Y-16905290D02*
X23752159Y-16914814D01*
X23752159Y-16914814D02*
X23742635Y-16924338D01*
X23742635Y-16924338D02*
X23733111Y-16914814D01*
X23733111Y-16914814D02*
X23742635Y-16905290D01*
X23742635Y-16905290D02*
X23742635Y-16924338D01*
X23875968Y-16724338D02*
X23895016Y-16724338D01*
X23895016Y-16724338D02*
X23914064Y-16733862D01*
X23914064Y-16733862D02*
X23923587Y-16743385D01*
X23923587Y-16743385D02*
X23933111Y-16762433D01*
X23933111Y-16762433D02*
X23942635Y-16800528D01*
X23942635Y-16800528D02*
X23942635Y-16848147D01*
X23942635Y-16848147D02*
X23933111Y-16886243D01*
X23933111Y-16886243D02*
X23923587Y-16905290D01*
X23923587Y-16905290D02*
X23914064Y-16914814D01*
X23914064Y-16914814D02*
X23895016Y-16924338D01*
X23895016Y-16924338D02*
X23875968Y-16924338D01*
X23875968Y-16924338D02*
X23856921Y-16914814D01*
X23856921Y-16914814D02*
X23847397Y-16905290D01*
X23847397Y-16905290D02*
X23837873Y-16886243D01*
X23837873Y-16886243D02*
X23828349Y-16848147D01*
X23828349Y-16848147D02*
X23828349Y-16800528D01*
X23828349Y-16800528D02*
X23837873Y-16762433D01*
X23837873Y-16762433D02*
X23847397Y-16743385D01*
X23847397Y-16743385D02*
X23856921Y-16733862D01*
X23856921Y-16733862D02*
X23875968Y-16724338D01*
X24133111Y-16924338D02*
X24018826Y-16924338D01*
X24075968Y-16924338D02*
X24075968Y-16724338D01*
X24075968Y-16724338D02*
X24056921Y-16752909D01*
X24056921Y-16752909D02*
X24037873Y-16771957D01*
X24037873Y-16771957D02*
X24018826Y-16781481D01*
X24314064Y-16724338D02*
X24218826Y-16724338D01*
X24218826Y-16724338D02*
X24209302Y-16819576D01*
X24209302Y-16819576D02*
X24218826Y-16810052D01*
X24218826Y-16810052D02*
X24237873Y-16800528D01*
X24237873Y-16800528D02*
X24285492Y-16800528D01*
X24285492Y-16800528D02*
X24304540Y-16810052D01*
X24304540Y-16810052D02*
X24314064Y-16819576D01*
X24314064Y-16819576D02*
X24323587Y-16838624D01*
X24323587Y-16838624D02*
X24323587Y-16886243D01*
X24323587Y-16886243D02*
X24314064Y-16905290D01*
X24314064Y-16905290D02*
X24304540Y-16914814D01*
X24304540Y-16914814D02*
X24285492Y-16924338D01*
X24285492Y-16924338D02*
X24237873Y-16924338D01*
X24237873Y-16924338D02*
X24218826Y-16914814D01*
X24218826Y-16914814D02*
X24209302Y-16905290D01*
X24390254Y-16724338D02*
X24523587Y-16724338D01*
X24523587Y-16724338D02*
X24437873Y-16924338D01*
X24590254Y-16724338D02*
X24590254Y-16762433D01*
X24666445Y-16724338D02*
X24666445Y-16762433D01*
X24961683Y-17000528D02*
X24952159Y-16991004D01*
X24952159Y-16991004D02*
X24933111Y-16962433D01*
X24933111Y-16962433D02*
X24923588Y-16943385D01*
X24923588Y-16943385D02*
X24914064Y-16914814D01*
X24914064Y-16914814D02*
X24904540Y-16867195D01*
X24904540Y-16867195D02*
X24904540Y-16829100D01*
X24904540Y-16829100D02*
X24914064Y-16781481D01*
X24914064Y-16781481D02*
X24923588Y-16752909D01*
X24923588Y-16752909D02*
X24933111Y-16733862D01*
X24933111Y-16733862D02*
X24952159Y-16705290D01*
X24952159Y-16705290D02*
X24961683Y-16695766D01*
X25133111Y-16724338D02*
X25037873Y-16724338D01*
X25037873Y-16724338D02*
X25028349Y-16819576D01*
X25028349Y-16819576D02*
X25037873Y-16810052D01*
X25037873Y-16810052D02*
X25056921Y-16800528D01*
X25056921Y-16800528D02*
X25104540Y-16800528D01*
X25104540Y-16800528D02*
X25123588Y-16810052D01*
X25123588Y-16810052D02*
X25133111Y-16819576D01*
X25133111Y-16819576D02*
X25142635Y-16838624D01*
X25142635Y-16838624D02*
X25142635Y-16886243D01*
X25142635Y-16886243D02*
X25133111Y-16905290D01*
X25133111Y-16905290D02*
X25123588Y-16914814D01*
X25123588Y-16914814D02*
X25104540Y-16924338D01*
X25104540Y-16924338D02*
X25056921Y-16924338D01*
X25056921Y-16924338D02*
X25037873Y-16914814D01*
X25037873Y-16914814D02*
X25028349Y-16905290D01*
X25380730Y-16924338D02*
X25380730Y-16724338D01*
X25466445Y-16924338D02*
X25466445Y-16819576D01*
X25466445Y-16819576D02*
X25456921Y-16800528D01*
X25456921Y-16800528D02*
X25437873Y-16791004D01*
X25437873Y-16791004D02*
X25409302Y-16791004D01*
X25409302Y-16791004D02*
X25390254Y-16800528D01*
X25390254Y-16800528D02*
X25380730Y-16810052D01*
X25590254Y-16924338D02*
X25571207Y-16914814D01*
X25571207Y-16914814D02*
X25561683Y-16905290D01*
X25561683Y-16905290D02*
X25552159Y-16886243D01*
X25552159Y-16886243D02*
X25552159Y-16829100D01*
X25552159Y-16829100D02*
X25561683Y-16810052D01*
X25561683Y-16810052D02*
X25571207Y-16800528D01*
X25571207Y-16800528D02*
X25590254Y-16791004D01*
X25590254Y-16791004D02*
X25618826Y-16791004D01*
X25618826Y-16791004D02*
X25637873Y-16800528D01*
X25637873Y-16800528D02*
X25647397Y-16810052D01*
X25647397Y-16810052D02*
X25656921Y-16829100D01*
X25656921Y-16829100D02*
X25656921Y-16886243D01*
X25656921Y-16886243D02*
X25647397Y-16905290D01*
X25647397Y-16905290D02*
X25637873Y-16914814D01*
X25637873Y-16914814D02*
X25618826Y-16924338D01*
X25618826Y-16924338D02*
X25590254Y-16924338D01*
X25771207Y-16924338D02*
X25752159Y-16914814D01*
X25752159Y-16914814D02*
X25742635Y-16895766D01*
X25742635Y-16895766D02*
X25742635Y-16724338D01*
X25923588Y-16914814D02*
X25904540Y-16924338D01*
X25904540Y-16924338D02*
X25866445Y-16924338D01*
X25866445Y-16924338D02*
X25847397Y-16914814D01*
X25847397Y-16914814D02*
X25837873Y-16895766D01*
X25837873Y-16895766D02*
X25837873Y-16819576D01*
X25837873Y-16819576D02*
X25847397Y-16800528D01*
X25847397Y-16800528D02*
X25866445Y-16791004D01*
X25866445Y-16791004D02*
X25904540Y-16791004D01*
X25904540Y-16791004D02*
X25923588Y-16800528D01*
X25923588Y-16800528D02*
X25933111Y-16819576D01*
X25933111Y-16819576D02*
X25933111Y-16838624D01*
X25933111Y-16838624D02*
X25837873Y-16857671D01*
X26009302Y-16914814D02*
X26028350Y-16924338D01*
X26028350Y-16924338D02*
X26066445Y-16924338D01*
X26066445Y-16924338D02*
X26085492Y-16914814D01*
X26085492Y-16914814D02*
X26095016Y-16895766D01*
X26095016Y-16895766D02*
X26095016Y-16886243D01*
X26095016Y-16886243D02*
X26085492Y-16867195D01*
X26085492Y-16867195D02*
X26066445Y-16857671D01*
X26066445Y-16857671D02*
X26037873Y-16857671D01*
X26037873Y-16857671D02*
X26018826Y-16848147D01*
X26018826Y-16848147D02*
X26009302Y-16829100D01*
X26009302Y-16829100D02*
X26009302Y-16819576D01*
X26009302Y-16819576D02*
X26018826Y-16800528D01*
X26018826Y-16800528D02*
X26037873Y-16791004D01*
X26037873Y-16791004D02*
X26066445Y-16791004D01*
X26066445Y-16791004D02*
X26085492Y-16800528D01*
X26161683Y-17000528D02*
X26171207Y-16991004D01*
X26171207Y-16991004D02*
X26190254Y-16962433D01*
X26190254Y-16962433D02*
X26199778Y-16943385D01*
X26199778Y-16943385D02*
X26209302Y-16914814D01*
X26209302Y-16914814D02*
X26218826Y-16867195D01*
X26218826Y-16867195D02*
X26218826Y-16829100D01*
X26218826Y-16829100D02*
X26209302Y-16781481D01*
X26209302Y-16781481D02*
X26199778Y-16752909D01*
X26199778Y-16752909D02*
X26190254Y-16733862D01*
X26190254Y-16733862D02*
X26171207Y-16705290D01*
X26171207Y-16705290D02*
X26161683Y-16695766D01*
D13*
X21366620Y-17076854D02*
X21366620Y-17116854D01*
X21346620Y-17096854D02*
X21386620Y-17096854D01*
D11*
X21685492Y-16988338D02*
X21704540Y-16988338D01*
X21704540Y-16988338D02*
X21723587Y-16997862D01*
X21723587Y-16997862D02*
X21733111Y-17007385D01*
X21733111Y-17007385D02*
X21742635Y-17026433D01*
X21742635Y-17026433D02*
X21752159Y-17064528D01*
X21752159Y-17064528D02*
X21752159Y-17112147D01*
X21752159Y-17112147D02*
X21742635Y-17150243D01*
X21742635Y-17150243D02*
X21733111Y-17169290D01*
X21733111Y-17169290D02*
X21723587Y-17178814D01*
X21723587Y-17178814D02*
X21704540Y-17188338D01*
X21704540Y-17188338D02*
X21685492Y-17188338D01*
X21685492Y-17188338D02*
X21666444Y-17178814D01*
X21666444Y-17178814D02*
X21656921Y-17169290D01*
X21656921Y-17169290D02*
X21647397Y-17150243D01*
X21647397Y-17150243D02*
X21637873Y-17112147D01*
X21637873Y-17112147D02*
X21637873Y-17064528D01*
X21637873Y-17064528D02*
X21647397Y-17026433D01*
X21647397Y-17026433D02*
X21656921Y-17007385D01*
X21656921Y-17007385D02*
X21666444Y-16997862D01*
X21666444Y-16997862D02*
X21685492Y-16988338D01*
X21837873Y-17169290D02*
X21847397Y-17178814D01*
X21847397Y-17178814D02*
X21837873Y-17188338D01*
X21837873Y-17188338D02*
X21828349Y-17178814D01*
X21828349Y-17178814D02*
X21837873Y-17169290D01*
X21837873Y-17169290D02*
X21837873Y-17188338D01*
X22018825Y-17055004D02*
X22018825Y-17188338D01*
X21971206Y-16978814D02*
X21923587Y-17121671D01*
X21923587Y-17121671D02*
X22047397Y-17121671D01*
X22161683Y-16988338D02*
X22180730Y-16988338D01*
X22180730Y-16988338D02*
X22199778Y-16997862D01*
X22199778Y-16997862D02*
X22209302Y-17007385D01*
X22209302Y-17007385D02*
X22218825Y-17026433D01*
X22218825Y-17026433D02*
X22228349Y-17064528D01*
X22228349Y-17064528D02*
X22228349Y-17112147D01*
X22228349Y-17112147D02*
X22218825Y-17150243D01*
X22218825Y-17150243D02*
X22209302Y-17169290D01*
X22209302Y-17169290D02*
X22199778Y-17178814D01*
X22199778Y-17178814D02*
X22180730Y-17188338D01*
X22180730Y-17188338D02*
X22161683Y-17188338D01*
X22161683Y-17188338D02*
X22142635Y-17178814D01*
X22142635Y-17178814D02*
X22133111Y-17169290D01*
X22133111Y-17169290D02*
X22123587Y-17150243D01*
X22123587Y-17150243D02*
X22114064Y-17112147D01*
X22114064Y-17112147D02*
X22114064Y-17064528D01*
X22114064Y-17064528D02*
X22123587Y-17026433D01*
X22123587Y-17026433D02*
X22133111Y-17007385D01*
X22133111Y-17007385D02*
X22142635Y-16997862D01*
X22142635Y-16997862D02*
X22161683Y-16988338D01*
X22352159Y-16988338D02*
X22371206Y-16988338D01*
X22371206Y-16988338D02*
X22390254Y-16997862D01*
X22390254Y-16997862D02*
X22399778Y-17007385D01*
X22399778Y-17007385D02*
X22409302Y-17026433D01*
X22409302Y-17026433D02*
X22418825Y-17064528D01*
X22418825Y-17064528D02*
X22418825Y-17112147D01*
X22418825Y-17112147D02*
X22409302Y-17150243D01*
X22409302Y-17150243D02*
X22399778Y-17169290D01*
X22399778Y-17169290D02*
X22390254Y-17178814D01*
X22390254Y-17178814D02*
X22371206Y-17188338D01*
X22371206Y-17188338D02*
X22352159Y-17188338D01*
X22352159Y-17188338D02*
X22333111Y-17178814D01*
X22333111Y-17178814D02*
X22323587Y-17169290D01*
X22323587Y-17169290D02*
X22314064Y-17150243D01*
X22314064Y-17150243D02*
X22304540Y-17112147D01*
X22304540Y-17112147D02*
X22304540Y-17064528D01*
X22304540Y-17064528D02*
X22314064Y-17026433D01*
X22314064Y-17026433D02*
X22323587Y-17007385D01*
X22323587Y-17007385D02*
X22333111Y-16997862D01*
X22333111Y-16997862D02*
X22352159Y-16988338D01*
X22504540Y-17188338D02*
X22504540Y-17055004D01*
X22504540Y-17074052D02*
X22514063Y-17064528D01*
X22514063Y-17064528D02*
X22533111Y-17055004D01*
X22533111Y-17055004D02*
X22561683Y-17055004D01*
X22561683Y-17055004D02*
X22580730Y-17064528D01*
X22580730Y-17064528D02*
X22590254Y-17083576D01*
X22590254Y-17083576D02*
X22590254Y-17188338D01*
X22590254Y-17083576D02*
X22599778Y-17064528D01*
X22599778Y-17064528D02*
X22618825Y-17055004D01*
X22618825Y-17055004D02*
X22647397Y-17055004D01*
X22647397Y-17055004D02*
X22666444Y-17064528D01*
X22666444Y-17064528D02*
X22675968Y-17083576D01*
X22675968Y-17083576D02*
X22675968Y-17188338D01*
X22771206Y-17188338D02*
X22771206Y-17055004D01*
X22771206Y-17074052D02*
X22780730Y-17064528D01*
X22780730Y-17064528D02*
X22799778Y-17055004D01*
X22799778Y-17055004D02*
X22828349Y-17055004D01*
X22828349Y-17055004D02*
X22847397Y-17064528D01*
X22847397Y-17064528D02*
X22856921Y-17083576D01*
X22856921Y-17083576D02*
X22856921Y-17188338D01*
X22856921Y-17083576D02*
X22866444Y-17064528D01*
X22866444Y-17064528D02*
X22885492Y-17055004D01*
X22885492Y-17055004D02*
X22914063Y-17055004D01*
X22914063Y-17055004D02*
X22933111Y-17064528D01*
X22933111Y-17064528D02*
X22942635Y-17083576D01*
X22942635Y-17083576D02*
X22942635Y-17188338D01*
X23333111Y-16978814D02*
X23161683Y-17235957D01*
X23590254Y-16988338D02*
X23609302Y-16988338D01*
X23609302Y-16988338D02*
X23628349Y-16997862D01*
X23628349Y-16997862D02*
X23637873Y-17007385D01*
X23637873Y-17007385D02*
X23647397Y-17026433D01*
X23647397Y-17026433D02*
X23656921Y-17064528D01*
X23656921Y-17064528D02*
X23656921Y-17112147D01*
X23656921Y-17112147D02*
X23647397Y-17150243D01*
X23647397Y-17150243D02*
X23637873Y-17169290D01*
X23637873Y-17169290D02*
X23628349Y-17178814D01*
X23628349Y-17178814D02*
X23609302Y-17188338D01*
X23609302Y-17188338D02*
X23590254Y-17188338D01*
X23590254Y-17188338D02*
X23571206Y-17178814D01*
X23571206Y-17178814D02*
X23561683Y-17169290D01*
X23561683Y-17169290D02*
X23552159Y-17150243D01*
X23552159Y-17150243D02*
X23542635Y-17112147D01*
X23542635Y-17112147D02*
X23542635Y-17064528D01*
X23542635Y-17064528D02*
X23552159Y-17026433D01*
X23552159Y-17026433D02*
X23561683Y-17007385D01*
X23561683Y-17007385D02*
X23571206Y-16997862D01*
X23571206Y-16997862D02*
X23590254Y-16988338D01*
X23742635Y-17169290D02*
X23752159Y-17178814D01*
X23752159Y-17178814D02*
X23742635Y-17188338D01*
X23742635Y-17188338D02*
X23733111Y-17178814D01*
X23733111Y-17178814D02*
X23742635Y-17169290D01*
X23742635Y-17169290D02*
X23742635Y-17188338D01*
X23875968Y-16988338D02*
X23895016Y-16988338D01*
X23895016Y-16988338D02*
X23914064Y-16997862D01*
X23914064Y-16997862D02*
X23923587Y-17007385D01*
X23923587Y-17007385D02*
X23933111Y-17026433D01*
X23933111Y-17026433D02*
X23942635Y-17064528D01*
X23942635Y-17064528D02*
X23942635Y-17112147D01*
X23942635Y-17112147D02*
X23933111Y-17150243D01*
X23933111Y-17150243D02*
X23923587Y-17169290D01*
X23923587Y-17169290D02*
X23914064Y-17178814D01*
X23914064Y-17178814D02*
X23895016Y-17188338D01*
X23895016Y-17188338D02*
X23875968Y-17188338D01*
X23875968Y-17188338D02*
X23856921Y-17178814D01*
X23856921Y-17178814D02*
X23847397Y-17169290D01*
X23847397Y-17169290D02*
X23837873Y-17150243D01*
X23837873Y-17150243D02*
X23828349Y-17112147D01*
X23828349Y-17112147D02*
X23828349Y-17064528D01*
X23828349Y-17064528D02*
X23837873Y-17026433D01*
X23837873Y-17026433D02*
X23847397Y-17007385D01*
X23847397Y-17007385D02*
X23856921Y-16997862D01*
X23856921Y-16997862D02*
X23875968Y-16988338D01*
X24133111Y-17188338D02*
X24018826Y-17188338D01*
X24075968Y-17188338D02*
X24075968Y-16988338D01*
X24075968Y-16988338D02*
X24056921Y-17016909D01*
X24056921Y-17016909D02*
X24037873Y-17035957D01*
X24037873Y-17035957D02*
X24018826Y-17045481D01*
X24314064Y-16988338D02*
X24218826Y-16988338D01*
X24218826Y-16988338D02*
X24209302Y-17083576D01*
X24209302Y-17083576D02*
X24218826Y-17074052D01*
X24218826Y-17074052D02*
X24237873Y-17064528D01*
X24237873Y-17064528D02*
X24285492Y-17064528D01*
X24285492Y-17064528D02*
X24304540Y-17074052D01*
X24304540Y-17074052D02*
X24314064Y-17083576D01*
X24314064Y-17083576D02*
X24323587Y-17102624D01*
X24323587Y-17102624D02*
X24323587Y-17150243D01*
X24323587Y-17150243D02*
X24314064Y-17169290D01*
X24314064Y-17169290D02*
X24304540Y-17178814D01*
X24304540Y-17178814D02*
X24285492Y-17188338D01*
X24285492Y-17188338D02*
X24237873Y-17188338D01*
X24237873Y-17188338D02*
X24218826Y-17178814D01*
X24218826Y-17178814D02*
X24209302Y-17169290D01*
X24390254Y-16988338D02*
X24523587Y-16988338D01*
X24523587Y-16988338D02*
X24437873Y-17188338D01*
X24590254Y-16988338D02*
X24590254Y-17026433D01*
X24666445Y-16988338D02*
X24666445Y-17026433D01*
X24961683Y-17264528D02*
X24952159Y-17255004D01*
X24952159Y-17255004D02*
X24933111Y-17226433D01*
X24933111Y-17226433D02*
X24923588Y-17207385D01*
X24923588Y-17207385D02*
X24914064Y-17178814D01*
X24914064Y-17178814D02*
X24904540Y-17131195D01*
X24904540Y-17131195D02*
X24904540Y-17093100D01*
X24904540Y-17093100D02*
X24914064Y-17045481D01*
X24914064Y-17045481D02*
X24923588Y-17016909D01*
X24923588Y-17016909D02*
X24933111Y-16997862D01*
X24933111Y-16997862D02*
X24952159Y-16969290D01*
X24952159Y-16969290D02*
X24961683Y-16959766D01*
X25142635Y-17188338D02*
X25028349Y-17188338D01*
X25085492Y-17188338D02*
X25085492Y-16988338D01*
X25085492Y-16988338D02*
X25066445Y-17016909D01*
X25066445Y-17016909D02*
X25047397Y-17035957D01*
X25047397Y-17035957D02*
X25028349Y-17045481D01*
X25218826Y-17007385D02*
X25228349Y-16997862D01*
X25228349Y-16997862D02*
X25247397Y-16988338D01*
X25247397Y-16988338D02*
X25295016Y-16988338D01*
X25295016Y-16988338D02*
X25314064Y-16997862D01*
X25314064Y-16997862D02*
X25323588Y-17007385D01*
X25323588Y-17007385D02*
X25333111Y-17026433D01*
X25333111Y-17026433D02*
X25333111Y-17045481D01*
X25333111Y-17045481D02*
X25323588Y-17074052D01*
X25323588Y-17074052D02*
X25209302Y-17188338D01*
X25209302Y-17188338D02*
X25333111Y-17188338D01*
X25571207Y-17188338D02*
X25571207Y-16988338D01*
X25656921Y-17188338D02*
X25656921Y-17083576D01*
X25656921Y-17083576D02*
X25647397Y-17064528D01*
X25647397Y-17064528D02*
X25628350Y-17055004D01*
X25628350Y-17055004D02*
X25599778Y-17055004D01*
X25599778Y-17055004D02*
X25580730Y-17064528D01*
X25580730Y-17064528D02*
X25571207Y-17074052D01*
X25780730Y-17188338D02*
X25761683Y-17178814D01*
X25761683Y-17178814D02*
X25752159Y-17169290D01*
X25752159Y-17169290D02*
X25742635Y-17150243D01*
X25742635Y-17150243D02*
X25742635Y-17093100D01*
X25742635Y-17093100D02*
X25752159Y-17074052D01*
X25752159Y-17074052D02*
X25761683Y-17064528D01*
X25761683Y-17064528D02*
X25780730Y-17055004D01*
X25780730Y-17055004D02*
X25809302Y-17055004D01*
X25809302Y-17055004D02*
X25828350Y-17064528D01*
X25828350Y-17064528D02*
X25837873Y-17074052D01*
X25837873Y-17074052D02*
X25847397Y-17093100D01*
X25847397Y-17093100D02*
X25847397Y-17150243D01*
X25847397Y-17150243D02*
X25837873Y-17169290D01*
X25837873Y-17169290D02*
X25828350Y-17178814D01*
X25828350Y-17178814D02*
X25809302Y-17188338D01*
X25809302Y-17188338D02*
X25780730Y-17188338D01*
X25961683Y-17188338D02*
X25942635Y-17178814D01*
X25942635Y-17178814D02*
X25933111Y-17159766D01*
X25933111Y-17159766D02*
X25933111Y-16988338D01*
X26114064Y-17178814D02*
X26095016Y-17188338D01*
X26095016Y-17188338D02*
X26056921Y-17188338D01*
X26056921Y-17188338D02*
X26037873Y-17178814D01*
X26037873Y-17178814D02*
X26028350Y-17159766D01*
X26028350Y-17159766D02*
X26028350Y-17083576D01*
X26028350Y-17083576D02*
X26037873Y-17064528D01*
X26037873Y-17064528D02*
X26056921Y-17055004D01*
X26056921Y-17055004D02*
X26095016Y-17055004D01*
X26095016Y-17055004D02*
X26114064Y-17064528D01*
X26114064Y-17064528D02*
X26123588Y-17083576D01*
X26123588Y-17083576D02*
X26123588Y-17102624D01*
X26123588Y-17102624D02*
X26028350Y-17121671D01*
X26199778Y-17178814D02*
X26218826Y-17188338D01*
X26218826Y-17188338D02*
X26256921Y-17188338D01*
X26256921Y-17188338D02*
X26275969Y-17178814D01*
X26275969Y-17178814D02*
X26285492Y-17159766D01*
X26285492Y-17159766D02*
X26285492Y-17150243D01*
X26285492Y-17150243D02*
X26275969Y-17131195D01*
X26275969Y-17131195D02*
X26256921Y-17121671D01*
X26256921Y-17121671D02*
X26228350Y-17121671D01*
X26228350Y-17121671D02*
X26209302Y-17112147D01*
X26209302Y-17112147D02*
X26199778Y-17093100D01*
X26199778Y-17093100D02*
X26199778Y-17083576D01*
X26199778Y-17083576D02*
X26209302Y-17064528D01*
X26209302Y-17064528D02*
X26228350Y-17055004D01*
X26228350Y-17055004D02*
X26256921Y-17055004D01*
X26256921Y-17055004D02*
X26275969Y-17064528D01*
X26352159Y-17264528D02*
X26361683Y-17255004D01*
X26361683Y-17255004D02*
X26380731Y-17226433D01*
X26380731Y-17226433D02*
X26390254Y-17207385D01*
X26390254Y-17207385D02*
X26399778Y-17178814D01*
X26399778Y-17178814D02*
X26409302Y-17131195D01*
X26409302Y-17131195D02*
X26409302Y-17093100D01*
X26409302Y-17093100D02*
X26399778Y-17045481D01*
X26399778Y-17045481D02*
X26390254Y-17016909D01*
X26390254Y-17016909D02*
X26380731Y-16997862D01*
X26380731Y-16997862D02*
X26361683Y-16969290D01*
X26361683Y-16969290D02*
X26352159Y-16959766D01*
D14*
X21379298Y-17378532D02*
X21379298Y-17343176D01*
X21343942Y-17343176D01*
X21343942Y-17378532D01*
X21379298Y-17378532D01*
D11*
X21685492Y-17252338D02*
X21704540Y-17252338D01*
X21704540Y-17252338D02*
X21723587Y-17261862D01*
X21723587Y-17261862D02*
X21733111Y-17271385D01*
X21733111Y-17271385D02*
X21742635Y-17290433D01*
X21742635Y-17290433D02*
X21752159Y-17328528D01*
X21752159Y-17328528D02*
X21752159Y-17376147D01*
X21752159Y-17376147D02*
X21742635Y-17414243D01*
X21742635Y-17414243D02*
X21733111Y-17433290D01*
X21733111Y-17433290D02*
X21723587Y-17442814D01*
X21723587Y-17442814D02*
X21704540Y-17452338D01*
X21704540Y-17452338D02*
X21685492Y-17452338D01*
X21685492Y-17452338D02*
X21666444Y-17442814D01*
X21666444Y-17442814D02*
X21656921Y-17433290D01*
X21656921Y-17433290D02*
X21647397Y-17414243D01*
X21647397Y-17414243D02*
X21637873Y-17376147D01*
X21637873Y-17376147D02*
X21637873Y-17328528D01*
X21637873Y-17328528D02*
X21647397Y-17290433D01*
X21647397Y-17290433D02*
X21656921Y-17271385D01*
X21656921Y-17271385D02*
X21666444Y-17261862D01*
X21666444Y-17261862D02*
X21685492Y-17252338D01*
X21837873Y-17433290D02*
X21847397Y-17442814D01*
X21847397Y-17442814D02*
X21837873Y-17452338D01*
X21837873Y-17452338D02*
X21828349Y-17442814D01*
X21828349Y-17442814D02*
X21837873Y-17433290D01*
X21837873Y-17433290D02*
X21837873Y-17452338D01*
X22028349Y-17252338D02*
X21933111Y-17252338D01*
X21933111Y-17252338D02*
X21923587Y-17347576D01*
X21923587Y-17347576D02*
X21933111Y-17338052D01*
X21933111Y-17338052D02*
X21952159Y-17328528D01*
X21952159Y-17328528D02*
X21999778Y-17328528D01*
X21999778Y-17328528D02*
X22018825Y-17338052D01*
X22018825Y-17338052D02*
X22028349Y-17347576D01*
X22028349Y-17347576D02*
X22037873Y-17366624D01*
X22037873Y-17366624D02*
X22037873Y-17414243D01*
X22037873Y-17414243D02*
X22028349Y-17433290D01*
X22028349Y-17433290D02*
X22018825Y-17442814D01*
X22018825Y-17442814D02*
X21999778Y-17452338D01*
X21999778Y-17452338D02*
X21952159Y-17452338D01*
X21952159Y-17452338D02*
X21933111Y-17442814D01*
X21933111Y-17442814D02*
X21923587Y-17433290D01*
X22161683Y-17252338D02*
X22180730Y-17252338D01*
X22180730Y-17252338D02*
X22199778Y-17261862D01*
X22199778Y-17261862D02*
X22209302Y-17271385D01*
X22209302Y-17271385D02*
X22218825Y-17290433D01*
X22218825Y-17290433D02*
X22228349Y-17328528D01*
X22228349Y-17328528D02*
X22228349Y-17376147D01*
X22228349Y-17376147D02*
X22218825Y-17414243D01*
X22218825Y-17414243D02*
X22209302Y-17433290D01*
X22209302Y-17433290D02*
X22199778Y-17442814D01*
X22199778Y-17442814D02*
X22180730Y-17452338D01*
X22180730Y-17452338D02*
X22161683Y-17452338D01*
X22161683Y-17452338D02*
X22142635Y-17442814D01*
X22142635Y-17442814D02*
X22133111Y-17433290D01*
X22133111Y-17433290D02*
X22123587Y-17414243D01*
X22123587Y-17414243D02*
X22114064Y-17376147D01*
X22114064Y-17376147D02*
X22114064Y-17328528D01*
X22114064Y-17328528D02*
X22123587Y-17290433D01*
X22123587Y-17290433D02*
X22133111Y-17271385D01*
X22133111Y-17271385D02*
X22142635Y-17261862D01*
X22142635Y-17261862D02*
X22161683Y-17252338D01*
X22352159Y-17252338D02*
X22371206Y-17252338D01*
X22371206Y-17252338D02*
X22390254Y-17261862D01*
X22390254Y-17261862D02*
X22399778Y-17271385D01*
X22399778Y-17271385D02*
X22409302Y-17290433D01*
X22409302Y-17290433D02*
X22418825Y-17328528D01*
X22418825Y-17328528D02*
X22418825Y-17376147D01*
X22418825Y-17376147D02*
X22409302Y-17414243D01*
X22409302Y-17414243D02*
X22399778Y-17433290D01*
X22399778Y-17433290D02*
X22390254Y-17442814D01*
X22390254Y-17442814D02*
X22371206Y-17452338D01*
X22371206Y-17452338D02*
X22352159Y-17452338D01*
X22352159Y-17452338D02*
X22333111Y-17442814D01*
X22333111Y-17442814D02*
X22323587Y-17433290D01*
X22323587Y-17433290D02*
X22314064Y-17414243D01*
X22314064Y-17414243D02*
X22304540Y-17376147D01*
X22304540Y-17376147D02*
X22304540Y-17328528D01*
X22304540Y-17328528D02*
X22314064Y-17290433D01*
X22314064Y-17290433D02*
X22323587Y-17271385D01*
X22323587Y-17271385D02*
X22333111Y-17261862D01*
X22333111Y-17261862D02*
X22352159Y-17252338D01*
X22504540Y-17452338D02*
X22504540Y-17319004D01*
X22504540Y-17338052D02*
X22514063Y-17328528D01*
X22514063Y-17328528D02*
X22533111Y-17319004D01*
X22533111Y-17319004D02*
X22561683Y-17319004D01*
X22561683Y-17319004D02*
X22580730Y-17328528D01*
X22580730Y-17328528D02*
X22590254Y-17347576D01*
X22590254Y-17347576D02*
X22590254Y-17452338D01*
X22590254Y-17347576D02*
X22599778Y-17328528D01*
X22599778Y-17328528D02*
X22618825Y-17319004D01*
X22618825Y-17319004D02*
X22647397Y-17319004D01*
X22647397Y-17319004D02*
X22666444Y-17328528D01*
X22666444Y-17328528D02*
X22675968Y-17347576D01*
X22675968Y-17347576D02*
X22675968Y-17452338D01*
X22771206Y-17452338D02*
X22771206Y-17319004D01*
X22771206Y-17338052D02*
X22780730Y-17328528D01*
X22780730Y-17328528D02*
X22799778Y-17319004D01*
X22799778Y-17319004D02*
X22828349Y-17319004D01*
X22828349Y-17319004D02*
X22847397Y-17328528D01*
X22847397Y-17328528D02*
X22856921Y-17347576D01*
X22856921Y-17347576D02*
X22856921Y-17452338D01*
X22856921Y-17347576D02*
X22866444Y-17328528D01*
X22866444Y-17328528D02*
X22885492Y-17319004D01*
X22885492Y-17319004D02*
X22914063Y-17319004D01*
X22914063Y-17319004D02*
X22933111Y-17328528D01*
X22933111Y-17328528D02*
X22942635Y-17347576D01*
X22942635Y-17347576D02*
X22942635Y-17452338D01*
X23333111Y-17242814D02*
X23161683Y-17499957D01*
X23590254Y-17252338D02*
X23609302Y-17252338D01*
X23609302Y-17252338D02*
X23628349Y-17261862D01*
X23628349Y-17261862D02*
X23637873Y-17271385D01*
X23637873Y-17271385D02*
X23647397Y-17290433D01*
X23647397Y-17290433D02*
X23656921Y-17328528D01*
X23656921Y-17328528D02*
X23656921Y-17376147D01*
X23656921Y-17376147D02*
X23647397Y-17414243D01*
X23647397Y-17414243D02*
X23637873Y-17433290D01*
X23637873Y-17433290D02*
X23628349Y-17442814D01*
X23628349Y-17442814D02*
X23609302Y-17452338D01*
X23609302Y-17452338D02*
X23590254Y-17452338D01*
X23590254Y-17452338D02*
X23571206Y-17442814D01*
X23571206Y-17442814D02*
X23561683Y-17433290D01*
X23561683Y-17433290D02*
X23552159Y-17414243D01*
X23552159Y-17414243D02*
X23542635Y-17376147D01*
X23542635Y-17376147D02*
X23542635Y-17328528D01*
X23542635Y-17328528D02*
X23552159Y-17290433D01*
X23552159Y-17290433D02*
X23561683Y-17271385D01*
X23561683Y-17271385D02*
X23571206Y-17261862D01*
X23571206Y-17261862D02*
X23590254Y-17252338D01*
X23742635Y-17433290D02*
X23752159Y-17442814D01*
X23752159Y-17442814D02*
X23742635Y-17452338D01*
X23742635Y-17452338D02*
X23733111Y-17442814D01*
X23733111Y-17442814D02*
X23742635Y-17433290D01*
X23742635Y-17433290D02*
X23742635Y-17452338D01*
X23875968Y-17252338D02*
X23895016Y-17252338D01*
X23895016Y-17252338D02*
X23914064Y-17261862D01*
X23914064Y-17261862D02*
X23923587Y-17271385D01*
X23923587Y-17271385D02*
X23933111Y-17290433D01*
X23933111Y-17290433D02*
X23942635Y-17328528D01*
X23942635Y-17328528D02*
X23942635Y-17376147D01*
X23942635Y-17376147D02*
X23933111Y-17414243D01*
X23933111Y-17414243D02*
X23923587Y-17433290D01*
X23923587Y-17433290D02*
X23914064Y-17442814D01*
X23914064Y-17442814D02*
X23895016Y-17452338D01*
X23895016Y-17452338D02*
X23875968Y-17452338D01*
X23875968Y-17452338D02*
X23856921Y-17442814D01*
X23856921Y-17442814D02*
X23847397Y-17433290D01*
X23847397Y-17433290D02*
X23837873Y-17414243D01*
X23837873Y-17414243D02*
X23828349Y-17376147D01*
X23828349Y-17376147D02*
X23828349Y-17328528D01*
X23828349Y-17328528D02*
X23837873Y-17290433D01*
X23837873Y-17290433D02*
X23847397Y-17271385D01*
X23847397Y-17271385D02*
X23856921Y-17261862D01*
X23856921Y-17261862D02*
X23875968Y-17252338D01*
X24133111Y-17452338D02*
X24018826Y-17452338D01*
X24075968Y-17452338D02*
X24075968Y-17252338D01*
X24075968Y-17252338D02*
X24056921Y-17280909D01*
X24056921Y-17280909D02*
X24037873Y-17299957D01*
X24037873Y-17299957D02*
X24018826Y-17309481D01*
X24228349Y-17452338D02*
X24266445Y-17452338D01*
X24266445Y-17452338D02*
X24285492Y-17442814D01*
X24285492Y-17442814D02*
X24295016Y-17433290D01*
X24295016Y-17433290D02*
X24314064Y-17404719D01*
X24314064Y-17404719D02*
X24323587Y-17366624D01*
X24323587Y-17366624D02*
X24323587Y-17290433D01*
X24323587Y-17290433D02*
X24314064Y-17271385D01*
X24314064Y-17271385D02*
X24304540Y-17261862D01*
X24304540Y-17261862D02*
X24285492Y-17252338D01*
X24285492Y-17252338D02*
X24247397Y-17252338D01*
X24247397Y-17252338D02*
X24228349Y-17261862D01*
X24228349Y-17261862D02*
X24218826Y-17271385D01*
X24218826Y-17271385D02*
X24209302Y-17290433D01*
X24209302Y-17290433D02*
X24209302Y-17338052D01*
X24209302Y-17338052D02*
X24218826Y-17357100D01*
X24218826Y-17357100D02*
X24228349Y-17366624D01*
X24228349Y-17366624D02*
X24247397Y-17376147D01*
X24247397Y-17376147D02*
X24285492Y-17376147D01*
X24285492Y-17376147D02*
X24304540Y-17366624D01*
X24304540Y-17366624D02*
X24314064Y-17357100D01*
X24314064Y-17357100D02*
X24323587Y-17338052D01*
X24390254Y-17252338D02*
X24523587Y-17252338D01*
X24523587Y-17252338D02*
X24437873Y-17452338D01*
X24590254Y-17252338D02*
X24590254Y-17290433D01*
X24666445Y-17252338D02*
X24666445Y-17290433D01*
X24961683Y-17528528D02*
X24952159Y-17519004D01*
X24952159Y-17519004D02*
X24933111Y-17490433D01*
X24933111Y-17490433D02*
X24923588Y-17471385D01*
X24923588Y-17471385D02*
X24914064Y-17442814D01*
X24914064Y-17442814D02*
X24904540Y-17395195D01*
X24904540Y-17395195D02*
X24904540Y-17357100D01*
X24904540Y-17357100D02*
X24914064Y-17309481D01*
X24914064Y-17309481D02*
X24923588Y-17280909D01*
X24923588Y-17280909D02*
X24933111Y-17261862D01*
X24933111Y-17261862D02*
X24952159Y-17233290D01*
X24952159Y-17233290D02*
X24961683Y-17223766D01*
X25028349Y-17271385D02*
X25037873Y-17261862D01*
X25037873Y-17261862D02*
X25056921Y-17252338D01*
X25056921Y-17252338D02*
X25104540Y-17252338D01*
X25104540Y-17252338D02*
X25123588Y-17261862D01*
X25123588Y-17261862D02*
X25133111Y-17271385D01*
X25133111Y-17271385D02*
X25142635Y-17290433D01*
X25142635Y-17290433D02*
X25142635Y-17309481D01*
X25142635Y-17309481D02*
X25133111Y-17338052D01*
X25133111Y-17338052D02*
X25018826Y-17452338D01*
X25018826Y-17452338D02*
X25142635Y-17452338D01*
X25380730Y-17452338D02*
X25380730Y-17252338D01*
X25466445Y-17452338D02*
X25466445Y-17347576D01*
X25466445Y-17347576D02*
X25456921Y-17328528D01*
X25456921Y-17328528D02*
X25437873Y-17319004D01*
X25437873Y-17319004D02*
X25409302Y-17319004D01*
X25409302Y-17319004D02*
X25390254Y-17328528D01*
X25390254Y-17328528D02*
X25380730Y-17338052D01*
X25590254Y-17452338D02*
X25571207Y-17442814D01*
X25571207Y-17442814D02*
X25561683Y-17433290D01*
X25561683Y-17433290D02*
X25552159Y-17414243D01*
X25552159Y-17414243D02*
X25552159Y-17357100D01*
X25552159Y-17357100D02*
X25561683Y-17338052D01*
X25561683Y-17338052D02*
X25571207Y-17328528D01*
X25571207Y-17328528D02*
X25590254Y-17319004D01*
X25590254Y-17319004D02*
X25618826Y-17319004D01*
X25618826Y-17319004D02*
X25637873Y-17328528D01*
X25637873Y-17328528D02*
X25647397Y-17338052D01*
X25647397Y-17338052D02*
X25656921Y-17357100D01*
X25656921Y-17357100D02*
X25656921Y-17414243D01*
X25656921Y-17414243D02*
X25647397Y-17433290D01*
X25647397Y-17433290D02*
X25637873Y-17442814D01*
X25637873Y-17442814D02*
X25618826Y-17452338D01*
X25618826Y-17452338D02*
X25590254Y-17452338D01*
X25771207Y-17452338D02*
X25752159Y-17442814D01*
X25752159Y-17442814D02*
X25742635Y-17423766D01*
X25742635Y-17423766D02*
X25742635Y-17252338D01*
X25923588Y-17442814D02*
X25904540Y-17452338D01*
X25904540Y-17452338D02*
X25866445Y-17452338D01*
X25866445Y-17452338D02*
X25847397Y-17442814D01*
X25847397Y-17442814D02*
X25837873Y-17423766D01*
X25837873Y-17423766D02*
X25837873Y-17347576D01*
X25837873Y-17347576D02*
X25847397Y-17328528D01*
X25847397Y-17328528D02*
X25866445Y-17319004D01*
X25866445Y-17319004D02*
X25904540Y-17319004D01*
X25904540Y-17319004D02*
X25923588Y-17328528D01*
X25923588Y-17328528D02*
X25933111Y-17347576D01*
X25933111Y-17347576D02*
X25933111Y-17366624D01*
X25933111Y-17366624D02*
X25837873Y-17385671D01*
X26009302Y-17442814D02*
X26028350Y-17452338D01*
X26028350Y-17452338D02*
X26066445Y-17452338D01*
X26066445Y-17452338D02*
X26085492Y-17442814D01*
X26085492Y-17442814D02*
X26095016Y-17423766D01*
X26095016Y-17423766D02*
X26095016Y-17414243D01*
X26095016Y-17414243D02*
X26085492Y-17395195D01*
X26085492Y-17395195D02*
X26066445Y-17385671D01*
X26066445Y-17385671D02*
X26037873Y-17385671D01*
X26037873Y-17385671D02*
X26018826Y-17376147D01*
X26018826Y-17376147D02*
X26009302Y-17357100D01*
X26009302Y-17357100D02*
X26009302Y-17347576D01*
X26009302Y-17347576D02*
X26018826Y-17328528D01*
X26018826Y-17328528D02*
X26037873Y-17319004D01*
X26037873Y-17319004D02*
X26066445Y-17319004D01*
X26066445Y-17319004D02*
X26085492Y-17328528D01*
X26161683Y-17528528D02*
X26171207Y-17519004D01*
X26171207Y-17519004D02*
X26190254Y-17490433D01*
X26190254Y-17490433D02*
X26199778Y-17471385D01*
X26199778Y-17471385D02*
X26209302Y-17442814D01*
X26209302Y-17442814D02*
X26218826Y-17395195D01*
X26218826Y-17395195D02*
X26218826Y-17357100D01*
X26218826Y-17357100D02*
X26209302Y-17309481D01*
X26209302Y-17309481D02*
X26199778Y-17280909D01*
X26199778Y-17280909D02*
X26190254Y-17261862D01*
X26190254Y-17261862D02*
X26171207Y-17233290D01*
X26171207Y-17233290D02*
X26161683Y-17223766D01*
D15*
X21356620Y-17654854D02*
X21386620Y-17624854D01*
X21356620Y-17594854D01*
X21326620Y-17624854D01*
X21356620Y-17654854D01*
D11*
X21685492Y-17516338D02*
X21704540Y-17516338D01*
X21704540Y-17516338D02*
X21723587Y-17525862D01*
X21723587Y-17525862D02*
X21733111Y-17535385D01*
X21733111Y-17535385D02*
X21742635Y-17554433D01*
X21742635Y-17554433D02*
X21752159Y-17592528D01*
X21752159Y-17592528D02*
X21752159Y-17640147D01*
X21752159Y-17640147D02*
X21742635Y-17678243D01*
X21742635Y-17678243D02*
X21733111Y-17697290D01*
X21733111Y-17697290D02*
X21723587Y-17706814D01*
X21723587Y-17706814D02*
X21704540Y-17716338D01*
X21704540Y-17716338D02*
X21685492Y-17716338D01*
X21685492Y-17716338D02*
X21666444Y-17706814D01*
X21666444Y-17706814D02*
X21656921Y-17697290D01*
X21656921Y-17697290D02*
X21647397Y-17678243D01*
X21647397Y-17678243D02*
X21637873Y-17640147D01*
X21637873Y-17640147D02*
X21637873Y-17592528D01*
X21637873Y-17592528D02*
X21647397Y-17554433D01*
X21647397Y-17554433D02*
X21656921Y-17535385D01*
X21656921Y-17535385D02*
X21666444Y-17525862D01*
X21666444Y-17525862D02*
X21685492Y-17516338D01*
X21837873Y-17697290D02*
X21847397Y-17706814D01*
X21847397Y-17706814D02*
X21837873Y-17716338D01*
X21837873Y-17716338D02*
X21828349Y-17706814D01*
X21828349Y-17706814D02*
X21837873Y-17697290D01*
X21837873Y-17697290D02*
X21837873Y-17716338D01*
X22018825Y-17516338D02*
X21980730Y-17516338D01*
X21980730Y-17516338D02*
X21961683Y-17525862D01*
X21961683Y-17525862D02*
X21952159Y-17535385D01*
X21952159Y-17535385D02*
X21933111Y-17563957D01*
X21933111Y-17563957D02*
X21923587Y-17602052D01*
X21923587Y-17602052D02*
X21923587Y-17678243D01*
X21923587Y-17678243D02*
X21933111Y-17697290D01*
X21933111Y-17697290D02*
X21942635Y-17706814D01*
X21942635Y-17706814D02*
X21961683Y-17716338D01*
X21961683Y-17716338D02*
X21999778Y-17716338D01*
X21999778Y-17716338D02*
X22018825Y-17706814D01*
X22018825Y-17706814D02*
X22028349Y-17697290D01*
X22028349Y-17697290D02*
X22037873Y-17678243D01*
X22037873Y-17678243D02*
X22037873Y-17630624D01*
X22037873Y-17630624D02*
X22028349Y-17611576D01*
X22028349Y-17611576D02*
X22018825Y-17602052D01*
X22018825Y-17602052D02*
X21999778Y-17592528D01*
X21999778Y-17592528D02*
X21961683Y-17592528D01*
X21961683Y-17592528D02*
X21942635Y-17602052D01*
X21942635Y-17602052D02*
X21933111Y-17611576D01*
X21933111Y-17611576D02*
X21923587Y-17630624D01*
X22161683Y-17516338D02*
X22180730Y-17516338D01*
X22180730Y-17516338D02*
X22199778Y-17525862D01*
X22199778Y-17525862D02*
X22209302Y-17535385D01*
X22209302Y-17535385D02*
X22218825Y-17554433D01*
X22218825Y-17554433D02*
X22228349Y-17592528D01*
X22228349Y-17592528D02*
X22228349Y-17640147D01*
X22228349Y-17640147D02*
X22218825Y-17678243D01*
X22218825Y-17678243D02*
X22209302Y-17697290D01*
X22209302Y-17697290D02*
X22199778Y-17706814D01*
X22199778Y-17706814D02*
X22180730Y-17716338D01*
X22180730Y-17716338D02*
X22161683Y-17716338D01*
X22161683Y-17716338D02*
X22142635Y-17706814D01*
X22142635Y-17706814D02*
X22133111Y-17697290D01*
X22133111Y-17697290D02*
X22123587Y-17678243D01*
X22123587Y-17678243D02*
X22114064Y-17640147D01*
X22114064Y-17640147D02*
X22114064Y-17592528D01*
X22114064Y-17592528D02*
X22123587Y-17554433D01*
X22123587Y-17554433D02*
X22133111Y-17535385D01*
X22133111Y-17535385D02*
X22142635Y-17525862D01*
X22142635Y-17525862D02*
X22161683Y-17516338D01*
X22352159Y-17516338D02*
X22371206Y-17516338D01*
X22371206Y-17516338D02*
X22390254Y-17525862D01*
X22390254Y-17525862D02*
X22399778Y-17535385D01*
X22399778Y-17535385D02*
X22409302Y-17554433D01*
X22409302Y-17554433D02*
X22418825Y-17592528D01*
X22418825Y-17592528D02*
X22418825Y-17640147D01*
X22418825Y-17640147D02*
X22409302Y-17678243D01*
X22409302Y-17678243D02*
X22399778Y-17697290D01*
X22399778Y-17697290D02*
X22390254Y-17706814D01*
X22390254Y-17706814D02*
X22371206Y-17716338D01*
X22371206Y-17716338D02*
X22352159Y-17716338D01*
X22352159Y-17716338D02*
X22333111Y-17706814D01*
X22333111Y-17706814D02*
X22323587Y-17697290D01*
X22323587Y-17697290D02*
X22314064Y-17678243D01*
X22314064Y-17678243D02*
X22304540Y-17640147D01*
X22304540Y-17640147D02*
X22304540Y-17592528D01*
X22304540Y-17592528D02*
X22314064Y-17554433D01*
X22314064Y-17554433D02*
X22323587Y-17535385D01*
X22323587Y-17535385D02*
X22333111Y-17525862D01*
X22333111Y-17525862D02*
X22352159Y-17516338D01*
X22504540Y-17716338D02*
X22504540Y-17583004D01*
X22504540Y-17602052D02*
X22514063Y-17592528D01*
X22514063Y-17592528D02*
X22533111Y-17583004D01*
X22533111Y-17583004D02*
X22561683Y-17583004D01*
X22561683Y-17583004D02*
X22580730Y-17592528D01*
X22580730Y-17592528D02*
X22590254Y-17611576D01*
X22590254Y-17611576D02*
X22590254Y-17716338D01*
X22590254Y-17611576D02*
X22599778Y-17592528D01*
X22599778Y-17592528D02*
X22618825Y-17583004D01*
X22618825Y-17583004D02*
X22647397Y-17583004D01*
X22647397Y-17583004D02*
X22666444Y-17592528D01*
X22666444Y-17592528D02*
X22675968Y-17611576D01*
X22675968Y-17611576D02*
X22675968Y-17716338D01*
X22771206Y-17716338D02*
X22771206Y-17583004D01*
X22771206Y-17602052D02*
X22780730Y-17592528D01*
X22780730Y-17592528D02*
X22799778Y-17583004D01*
X22799778Y-17583004D02*
X22828349Y-17583004D01*
X22828349Y-17583004D02*
X22847397Y-17592528D01*
X22847397Y-17592528D02*
X22856921Y-17611576D01*
X22856921Y-17611576D02*
X22856921Y-17716338D01*
X22856921Y-17611576D02*
X22866444Y-17592528D01*
X22866444Y-17592528D02*
X22885492Y-17583004D01*
X22885492Y-17583004D02*
X22914063Y-17583004D01*
X22914063Y-17583004D02*
X22933111Y-17592528D01*
X22933111Y-17592528D02*
X22942635Y-17611576D01*
X22942635Y-17611576D02*
X22942635Y-17716338D01*
X23333111Y-17506814D02*
X23161683Y-17763957D01*
X23590254Y-17516338D02*
X23609302Y-17516338D01*
X23609302Y-17516338D02*
X23628349Y-17525862D01*
X23628349Y-17525862D02*
X23637873Y-17535385D01*
X23637873Y-17535385D02*
X23647397Y-17554433D01*
X23647397Y-17554433D02*
X23656921Y-17592528D01*
X23656921Y-17592528D02*
X23656921Y-17640147D01*
X23656921Y-17640147D02*
X23647397Y-17678243D01*
X23647397Y-17678243D02*
X23637873Y-17697290D01*
X23637873Y-17697290D02*
X23628349Y-17706814D01*
X23628349Y-17706814D02*
X23609302Y-17716338D01*
X23609302Y-17716338D02*
X23590254Y-17716338D01*
X23590254Y-17716338D02*
X23571206Y-17706814D01*
X23571206Y-17706814D02*
X23561683Y-17697290D01*
X23561683Y-17697290D02*
X23552159Y-17678243D01*
X23552159Y-17678243D02*
X23542635Y-17640147D01*
X23542635Y-17640147D02*
X23542635Y-17592528D01*
X23542635Y-17592528D02*
X23552159Y-17554433D01*
X23552159Y-17554433D02*
X23561683Y-17535385D01*
X23561683Y-17535385D02*
X23571206Y-17525862D01*
X23571206Y-17525862D02*
X23590254Y-17516338D01*
X23742635Y-17697290D02*
X23752159Y-17706814D01*
X23752159Y-17706814D02*
X23742635Y-17716338D01*
X23742635Y-17716338D02*
X23733111Y-17706814D01*
X23733111Y-17706814D02*
X23742635Y-17697290D01*
X23742635Y-17697290D02*
X23742635Y-17716338D01*
X23875968Y-17516338D02*
X23895016Y-17516338D01*
X23895016Y-17516338D02*
X23914064Y-17525862D01*
X23914064Y-17525862D02*
X23923587Y-17535385D01*
X23923587Y-17535385D02*
X23933111Y-17554433D01*
X23933111Y-17554433D02*
X23942635Y-17592528D01*
X23942635Y-17592528D02*
X23942635Y-17640147D01*
X23942635Y-17640147D02*
X23933111Y-17678243D01*
X23933111Y-17678243D02*
X23923587Y-17697290D01*
X23923587Y-17697290D02*
X23914064Y-17706814D01*
X23914064Y-17706814D02*
X23895016Y-17716338D01*
X23895016Y-17716338D02*
X23875968Y-17716338D01*
X23875968Y-17716338D02*
X23856921Y-17706814D01*
X23856921Y-17706814D02*
X23847397Y-17697290D01*
X23847397Y-17697290D02*
X23837873Y-17678243D01*
X23837873Y-17678243D02*
X23828349Y-17640147D01*
X23828349Y-17640147D02*
X23828349Y-17592528D01*
X23828349Y-17592528D02*
X23837873Y-17554433D01*
X23837873Y-17554433D02*
X23847397Y-17535385D01*
X23847397Y-17535385D02*
X23856921Y-17525862D01*
X23856921Y-17525862D02*
X23875968Y-17516338D01*
X24018826Y-17535385D02*
X24028349Y-17525862D01*
X24028349Y-17525862D02*
X24047397Y-17516338D01*
X24047397Y-17516338D02*
X24095016Y-17516338D01*
X24095016Y-17516338D02*
X24114064Y-17525862D01*
X24114064Y-17525862D02*
X24123587Y-17535385D01*
X24123587Y-17535385D02*
X24133111Y-17554433D01*
X24133111Y-17554433D02*
X24133111Y-17573481D01*
X24133111Y-17573481D02*
X24123587Y-17602052D01*
X24123587Y-17602052D02*
X24009302Y-17716338D01*
X24009302Y-17716338D02*
X24133111Y-17716338D01*
X24199778Y-17516338D02*
X24323587Y-17516338D01*
X24323587Y-17516338D02*
X24256921Y-17592528D01*
X24256921Y-17592528D02*
X24285492Y-17592528D01*
X24285492Y-17592528D02*
X24304540Y-17602052D01*
X24304540Y-17602052D02*
X24314064Y-17611576D01*
X24314064Y-17611576D02*
X24323587Y-17630624D01*
X24323587Y-17630624D02*
X24323587Y-17678243D01*
X24323587Y-17678243D02*
X24314064Y-17697290D01*
X24314064Y-17697290D02*
X24304540Y-17706814D01*
X24304540Y-17706814D02*
X24285492Y-17716338D01*
X24285492Y-17716338D02*
X24228349Y-17716338D01*
X24228349Y-17716338D02*
X24209302Y-17706814D01*
X24209302Y-17706814D02*
X24199778Y-17697290D01*
X24495016Y-17516338D02*
X24456921Y-17516338D01*
X24456921Y-17516338D02*
X24437873Y-17525862D01*
X24437873Y-17525862D02*
X24428349Y-17535385D01*
X24428349Y-17535385D02*
X24409302Y-17563957D01*
X24409302Y-17563957D02*
X24399778Y-17602052D01*
X24399778Y-17602052D02*
X24399778Y-17678243D01*
X24399778Y-17678243D02*
X24409302Y-17697290D01*
X24409302Y-17697290D02*
X24418826Y-17706814D01*
X24418826Y-17706814D02*
X24437873Y-17716338D01*
X24437873Y-17716338D02*
X24475968Y-17716338D01*
X24475968Y-17716338D02*
X24495016Y-17706814D01*
X24495016Y-17706814D02*
X24504540Y-17697290D01*
X24504540Y-17697290D02*
X24514064Y-17678243D01*
X24514064Y-17678243D02*
X24514064Y-17630624D01*
X24514064Y-17630624D02*
X24504540Y-17611576D01*
X24504540Y-17611576D02*
X24495016Y-17602052D01*
X24495016Y-17602052D02*
X24475968Y-17592528D01*
X24475968Y-17592528D02*
X24437873Y-17592528D01*
X24437873Y-17592528D02*
X24418826Y-17602052D01*
X24418826Y-17602052D02*
X24409302Y-17611576D01*
X24409302Y-17611576D02*
X24399778Y-17630624D01*
X24590254Y-17516338D02*
X24590254Y-17554433D01*
X24666445Y-17516338D02*
X24666445Y-17554433D01*
X24961683Y-17792528D02*
X24952159Y-17783004D01*
X24952159Y-17783004D02*
X24933111Y-17754433D01*
X24933111Y-17754433D02*
X24923588Y-17735385D01*
X24923588Y-17735385D02*
X24914064Y-17706814D01*
X24914064Y-17706814D02*
X24904540Y-17659195D01*
X24904540Y-17659195D02*
X24904540Y-17621100D01*
X24904540Y-17621100D02*
X24914064Y-17573481D01*
X24914064Y-17573481D02*
X24923588Y-17544909D01*
X24923588Y-17544909D02*
X24933111Y-17525862D01*
X24933111Y-17525862D02*
X24952159Y-17497290D01*
X24952159Y-17497290D02*
X24961683Y-17487766D01*
X25028349Y-17535385D02*
X25037873Y-17525862D01*
X25037873Y-17525862D02*
X25056921Y-17516338D01*
X25056921Y-17516338D02*
X25104540Y-17516338D01*
X25104540Y-17516338D02*
X25123588Y-17525862D01*
X25123588Y-17525862D02*
X25133111Y-17535385D01*
X25133111Y-17535385D02*
X25142635Y-17554433D01*
X25142635Y-17554433D02*
X25142635Y-17573481D01*
X25142635Y-17573481D02*
X25133111Y-17602052D01*
X25133111Y-17602052D02*
X25018826Y-17716338D01*
X25018826Y-17716338D02*
X25142635Y-17716338D01*
X25380730Y-17716338D02*
X25380730Y-17516338D01*
X25466445Y-17716338D02*
X25466445Y-17611576D01*
X25466445Y-17611576D02*
X25456921Y-17592528D01*
X25456921Y-17592528D02*
X25437873Y-17583004D01*
X25437873Y-17583004D02*
X25409302Y-17583004D01*
X25409302Y-17583004D02*
X25390254Y-17592528D01*
X25390254Y-17592528D02*
X25380730Y-17602052D01*
X25590254Y-17716338D02*
X25571207Y-17706814D01*
X25571207Y-17706814D02*
X25561683Y-17697290D01*
X25561683Y-17697290D02*
X25552159Y-17678243D01*
X25552159Y-17678243D02*
X25552159Y-17621100D01*
X25552159Y-17621100D02*
X25561683Y-17602052D01*
X25561683Y-17602052D02*
X25571207Y-17592528D01*
X25571207Y-17592528D02*
X25590254Y-17583004D01*
X25590254Y-17583004D02*
X25618826Y-17583004D01*
X25618826Y-17583004D02*
X25637873Y-17592528D01*
X25637873Y-17592528D02*
X25647397Y-17602052D01*
X25647397Y-17602052D02*
X25656921Y-17621100D01*
X25656921Y-17621100D02*
X25656921Y-17678243D01*
X25656921Y-17678243D02*
X25647397Y-17697290D01*
X25647397Y-17697290D02*
X25637873Y-17706814D01*
X25637873Y-17706814D02*
X25618826Y-17716338D01*
X25618826Y-17716338D02*
X25590254Y-17716338D01*
X25771207Y-17716338D02*
X25752159Y-17706814D01*
X25752159Y-17706814D02*
X25742635Y-17687766D01*
X25742635Y-17687766D02*
X25742635Y-17516338D01*
X25923588Y-17706814D02*
X25904540Y-17716338D01*
X25904540Y-17716338D02*
X25866445Y-17716338D01*
X25866445Y-17716338D02*
X25847397Y-17706814D01*
X25847397Y-17706814D02*
X25837873Y-17687766D01*
X25837873Y-17687766D02*
X25837873Y-17611576D01*
X25837873Y-17611576D02*
X25847397Y-17592528D01*
X25847397Y-17592528D02*
X25866445Y-17583004D01*
X25866445Y-17583004D02*
X25904540Y-17583004D01*
X25904540Y-17583004D02*
X25923588Y-17592528D01*
X25923588Y-17592528D02*
X25933111Y-17611576D01*
X25933111Y-17611576D02*
X25933111Y-17630624D01*
X25933111Y-17630624D02*
X25837873Y-17649671D01*
X26009302Y-17706814D02*
X26028350Y-17716338D01*
X26028350Y-17716338D02*
X26066445Y-17716338D01*
X26066445Y-17716338D02*
X26085492Y-17706814D01*
X26085492Y-17706814D02*
X26095016Y-17687766D01*
X26095016Y-17687766D02*
X26095016Y-17678243D01*
X26095016Y-17678243D02*
X26085492Y-17659195D01*
X26085492Y-17659195D02*
X26066445Y-17649671D01*
X26066445Y-17649671D02*
X26037873Y-17649671D01*
X26037873Y-17649671D02*
X26018826Y-17640147D01*
X26018826Y-17640147D02*
X26009302Y-17621100D01*
X26009302Y-17621100D02*
X26009302Y-17611576D01*
X26009302Y-17611576D02*
X26018826Y-17592528D01*
X26018826Y-17592528D02*
X26037873Y-17583004D01*
X26037873Y-17583004D02*
X26066445Y-17583004D01*
X26066445Y-17583004D02*
X26085492Y-17592528D01*
X26333112Y-17640147D02*
X26485493Y-17640147D01*
X26409302Y-17716338D02*
X26409302Y-17563957D01*
X26723588Y-17535385D02*
X26733112Y-17525862D01*
X26733112Y-17525862D02*
X26752159Y-17516338D01*
X26752159Y-17516338D02*
X26799778Y-17516338D01*
X26799778Y-17516338D02*
X26818826Y-17525862D01*
X26818826Y-17525862D02*
X26828350Y-17535385D01*
X26828350Y-17535385D02*
X26837873Y-17554433D01*
X26837873Y-17554433D02*
X26837873Y-17573481D01*
X26837873Y-17573481D02*
X26828350Y-17602052D01*
X26828350Y-17602052D02*
X26714064Y-17716338D01*
X26714064Y-17716338D02*
X26837873Y-17716338D01*
X27066445Y-17706814D02*
X27085493Y-17716338D01*
X27085493Y-17716338D02*
X27123588Y-17716338D01*
X27123588Y-17716338D02*
X27142635Y-17706814D01*
X27142635Y-17706814D02*
X27152159Y-17687766D01*
X27152159Y-17687766D02*
X27152159Y-17678243D01*
X27152159Y-17678243D02*
X27142635Y-17659195D01*
X27142635Y-17659195D02*
X27123588Y-17649671D01*
X27123588Y-17649671D02*
X27095016Y-17649671D01*
X27095016Y-17649671D02*
X27075969Y-17640147D01*
X27075969Y-17640147D02*
X27066445Y-17621100D01*
X27066445Y-17621100D02*
X27066445Y-17611576D01*
X27066445Y-17611576D02*
X27075969Y-17592528D01*
X27075969Y-17592528D02*
X27095016Y-17583004D01*
X27095016Y-17583004D02*
X27123588Y-17583004D01*
X27123588Y-17583004D02*
X27142635Y-17592528D01*
X27266445Y-17716338D02*
X27247397Y-17706814D01*
X27247397Y-17706814D02*
X27237874Y-17687766D01*
X27237874Y-17687766D02*
X27237874Y-17516338D01*
X27371207Y-17716338D02*
X27352159Y-17706814D01*
X27352159Y-17706814D02*
X27342635Y-17697290D01*
X27342635Y-17697290D02*
X27333112Y-17678243D01*
X27333112Y-17678243D02*
X27333112Y-17621100D01*
X27333112Y-17621100D02*
X27342635Y-17602052D01*
X27342635Y-17602052D02*
X27352159Y-17592528D01*
X27352159Y-17592528D02*
X27371207Y-17583004D01*
X27371207Y-17583004D02*
X27399778Y-17583004D01*
X27399778Y-17583004D02*
X27418826Y-17592528D01*
X27418826Y-17592528D02*
X27428350Y-17602052D01*
X27428350Y-17602052D02*
X27437874Y-17621100D01*
X27437874Y-17621100D02*
X27437874Y-17678243D01*
X27437874Y-17678243D02*
X27428350Y-17697290D01*
X27428350Y-17697290D02*
X27418826Y-17706814D01*
X27418826Y-17706814D02*
X27399778Y-17716338D01*
X27399778Y-17716338D02*
X27371207Y-17716338D01*
X27495016Y-17583004D02*
X27571207Y-17583004D01*
X27523588Y-17516338D02*
X27523588Y-17687766D01*
X27523588Y-17687766D02*
X27533112Y-17706814D01*
X27533112Y-17706814D02*
X27552159Y-17716338D01*
X27552159Y-17716338D02*
X27571207Y-17716338D01*
X27628350Y-17706814D02*
X27647397Y-17716338D01*
X27647397Y-17716338D02*
X27685493Y-17716338D01*
X27685493Y-17716338D02*
X27704540Y-17706814D01*
X27704540Y-17706814D02*
X27714064Y-17687766D01*
X27714064Y-17687766D02*
X27714064Y-17678243D01*
X27714064Y-17678243D02*
X27704540Y-17659195D01*
X27704540Y-17659195D02*
X27685493Y-17649671D01*
X27685493Y-17649671D02*
X27656921Y-17649671D01*
X27656921Y-17649671D02*
X27637874Y-17640147D01*
X27637874Y-17640147D02*
X27628350Y-17621100D01*
X27628350Y-17621100D02*
X27628350Y-17611576D01*
X27628350Y-17611576D02*
X27637874Y-17592528D01*
X27637874Y-17592528D02*
X27656921Y-17583004D01*
X27656921Y-17583004D02*
X27685493Y-17583004D01*
X27685493Y-17583004D02*
X27704540Y-17592528D01*
X27780731Y-17792528D02*
X27790255Y-17783004D01*
X27790255Y-17783004D02*
X27809302Y-17754433D01*
X27809302Y-17754433D02*
X27818826Y-17735385D01*
X27818826Y-17735385D02*
X27828350Y-17706814D01*
X27828350Y-17706814D02*
X27837874Y-17659195D01*
X27837874Y-17659195D02*
X27837874Y-17621100D01*
X27837874Y-17621100D02*
X27828350Y-17573481D01*
X27828350Y-17573481D02*
X27818826Y-17544909D01*
X27818826Y-17544909D02*
X27809302Y-17525862D01*
X27809302Y-17525862D02*
X27790255Y-17497290D01*
X27790255Y-17497290D02*
X27780731Y-17487766D01*
D16*
X21311620Y-17851354D02*
X21386620Y-17926354D01*
X21386620Y-17851354D02*
X21311620Y-17926354D01*
X21386620Y-17888854D02*
G75*
G03*
X21386620Y-17888854I-37500J0D01*
G01*
D11*
X21685492Y-17780338D02*
X21704540Y-17780338D01*
X21704540Y-17780338D02*
X21723587Y-17789862D01*
X21723587Y-17789862D02*
X21733111Y-17799385D01*
X21733111Y-17799385D02*
X21742635Y-17818433D01*
X21742635Y-17818433D02*
X21752159Y-17856528D01*
X21752159Y-17856528D02*
X21752159Y-17904147D01*
X21752159Y-17904147D02*
X21742635Y-17942243D01*
X21742635Y-17942243D02*
X21733111Y-17961290D01*
X21733111Y-17961290D02*
X21723587Y-17970814D01*
X21723587Y-17970814D02*
X21704540Y-17980338D01*
X21704540Y-17980338D02*
X21685492Y-17980338D01*
X21685492Y-17980338D02*
X21666444Y-17970814D01*
X21666444Y-17970814D02*
X21656921Y-17961290D01*
X21656921Y-17961290D02*
X21647397Y-17942243D01*
X21647397Y-17942243D02*
X21637873Y-17904147D01*
X21637873Y-17904147D02*
X21637873Y-17856528D01*
X21637873Y-17856528D02*
X21647397Y-17818433D01*
X21647397Y-17818433D02*
X21656921Y-17799385D01*
X21656921Y-17799385D02*
X21666444Y-17789862D01*
X21666444Y-17789862D02*
X21685492Y-17780338D01*
X21837873Y-17961290D02*
X21847397Y-17970814D01*
X21847397Y-17970814D02*
X21837873Y-17980338D01*
X21837873Y-17980338D02*
X21828349Y-17970814D01*
X21828349Y-17970814D02*
X21837873Y-17961290D01*
X21837873Y-17961290D02*
X21837873Y-17980338D01*
X21914064Y-17780338D02*
X22047397Y-17780338D01*
X22047397Y-17780338D02*
X21961683Y-17980338D01*
X22218825Y-17780338D02*
X22123587Y-17780338D01*
X22123587Y-17780338D02*
X22114064Y-17875576D01*
X22114064Y-17875576D02*
X22123587Y-17866052D01*
X22123587Y-17866052D02*
X22142635Y-17856528D01*
X22142635Y-17856528D02*
X22190254Y-17856528D01*
X22190254Y-17856528D02*
X22209302Y-17866052D01*
X22209302Y-17866052D02*
X22218825Y-17875576D01*
X22218825Y-17875576D02*
X22228349Y-17894624D01*
X22228349Y-17894624D02*
X22228349Y-17942243D01*
X22228349Y-17942243D02*
X22218825Y-17961290D01*
X22218825Y-17961290D02*
X22209302Y-17970814D01*
X22209302Y-17970814D02*
X22190254Y-17980338D01*
X22190254Y-17980338D02*
X22142635Y-17980338D01*
X22142635Y-17980338D02*
X22123587Y-17970814D01*
X22123587Y-17970814D02*
X22114064Y-17961290D01*
X22352159Y-17780338D02*
X22371206Y-17780338D01*
X22371206Y-17780338D02*
X22390254Y-17789862D01*
X22390254Y-17789862D02*
X22399778Y-17799385D01*
X22399778Y-17799385D02*
X22409302Y-17818433D01*
X22409302Y-17818433D02*
X22418825Y-17856528D01*
X22418825Y-17856528D02*
X22418825Y-17904147D01*
X22418825Y-17904147D02*
X22409302Y-17942243D01*
X22409302Y-17942243D02*
X22399778Y-17961290D01*
X22399778Y-17961290D02*
X22390254Y-17970814D01*
X22390254Y-17970814D02*
X22371206Y-17980338D01*
X22371206Y-17980338D02*
X22352159Y-17980338D01*
X22352159Y-17980338D02*
X22333111Y-17970814D01*
X22333111Y-17970814D02*
X22323587Y-17961290D01*
X22323587Y-17961290D02*
X22314064Y-17942243D01*
X22314064Y-17942243D02*
X22304540Y-17904147D01*
X22304540Y-17904147D02*
X22304540Y-17856528D01*
X22304540Y-17856528D02*
X22314064Y-17818433D01*
X22314064Y-17818433D02*
X22323587Y-17799385D01*
X22323587Y-17799385D02*
X22333111Y-17789862D01*
X22333111Y-17789862D02*
X22352159Y-17780338D01*
X22504540Y-17980338D02*
X22504540Y-17847004D01*
X22504540Y-17866052D02*
X22514063Y-17856528D01*
X22514063Y-17856528D02*
X22533111Y-17847004D01*
X22533111Y-17847004D02*
X22561683Y-17847004D01*
X22561683Y-17847004D02*
X22580730Y-17856528D01*
X22580730Y-17856528D02*
X22590254Y-17875576D01*
X22590254Y-17875576D02*
X22590254Y-17980338D01*
X22590254Y-17875576D02*
X22599778Y-17856528D01*
X22599778Y-17856528D02*
X22618825Y-17847004D01*
X22618825Y-17847004D02*
X22647397Y-17847004D01*
X22647397Y-17847004D02*
X22666444Y-17856528D01*
X22666444Y-17856528D02*
X22675968Y-17875576D01*
X22675968Y-17875576D02*
X22675968Y-17980338D01*
X22771206Y-17980338D02*
X22771206Y-17847004D01*
X22771206Y-17866052D02*
X22780730Y-17856528D01*
X22780730Y-17856528D02*
X22799778Y-17847004D01*
X22799778Y-17847004D02*
X22828349Y-17847004D01*
X22828349Y-17847004D02*
X22847397Y-17856528D01*
X22847397Y-17856528D02*
X22856921Y-17875576D01*
X22856921Y-17875576D02*
X22856921Y-17980338D01*
X22856921Y-17875576D02*
X22866444Y-17856528D01*
X22866444Y-17856528D02*
X22885492Y-17847004D01*
X22885492Y-17847004D02*
X22914063Y-17847004D01*
X22914063Y-17847004D02*
X22933111Y-17856528D01*
X22933111Y-17856528D02*
X22942635Y-17875576D01*
X22942635Y-17875576D02*
X22942635Y-17980338D01*
X23333111Y-17770814D02*
X23161683Y-18027957D01*
X23590254Y-17780338D02*
X23609302Y-17780338D01*
X23609302Y-17780338D02*
X23628349Y-17789862D01*
X23628349Y-17789862D02*
X23637873Y-17799385D01*
X23637873Y-17799385D02*
X23647397Y-17818433D01*
X23647397Y-17818433D02*
X23656921Y-17856528D01*
X23656921Y-17856528D02*
X23656921Y-17904147D01*
X23656921Y-17904147D02*
X23647397Y-17942243D01*
X23647397Y-17942243D02*
X23637873Y-17961290D01*
X23637873Y-17961290D02*
X23628349Y-17970814D01*
X23628349Y-17970814D02*
X23609302Y-17980338D01*
X23609302Y-17980338D02*
X23590254Y-17980338D01*
X23590254Y-17980338D02*
X23571206Y-17970814D01*
X23571206Y-17970814D02*
X23561683Y-17961290D01*
X23561683Y-17961290D02*
X23552159Y-17942243D01*
X23552159Y-17942243D02*
X23542635Y-17904147D01*
X23542635Y-17904147D02*
X23542635Y-17856528D01*
X23542635Y-17856528D02*
X23552159Y-17818433D01*
X23552159Y-17818433D02*
X23561683Y-17799385D01*
X23561683Y-17799385D02*
X23571206Y-17789862D01*
X23571206Y-17789862D02*
X23590254Y-17780338D01*
X23742635Y-17961290D02*
X23752159Y-17970814D01*
X23752159Y-17970814D02*
X23742635Y-17980338D01*
X23742635Y-17980338D02*
X23733111Y-17970814D01*
X23733111Y-17970814D02*
X23742635Y-17961290D01*
X23742635Y-17961290D02*
X23742635Y-17980338D01*
X23875968Y-17780338D02*
X23895016Y-17780338D01*
X23895016Y-17780338D02*
X23914064Y-17789862D01*
X23914064Y-17789862D02*
X23923587Y-17799385D01*
X23923587Y-17799385D02*
X23933111Y-17818433D01*
X23933111Y-17818433D02*
X23942635Y-17856528D01*
X23942635Y-17856528D02*
X23942635Y-17904147D01*
X23942635Y-17904147D02*
X23933111Y-17942243D01*
X23933111Y-17942243D02*
X23923587Y-17961290D01*
X23923587Y-17961290D02*
X23914064Y-17970814D01*
X23914064Y-17970814D02*
X23895016Y-17980338D01*
X23895016Y-17980338D02*
X23875968Y-17980338D01*
X23875968Y-17980338D02*
X23856921Y-17970814D01*
X23856921Y-17970814D02*
X23847397Y-17961290D01*
X23847397Y-17961290D02*
X23837873Y-17942243D01*
X23837873Y-17942243D02*
X23828349Y-17904147D01*
X23828349Y-17904147D02*
X23828349Y-17856528D01*
X23828349Y-17856528D02*
X23837873Y-17818433D01*
X23837873Y-17818433D02*
X23847397Y-17799385D01*
X23847397Y-17799385D02*
X23856921Y-17789862D01*
X23856921Y-17789862D02*
X23875968Y-17780338D01*
X24018826Y-17799385D02*
X24028349Y-17789862D01*
X24028349Y-17789862D02*
X24047397Y-17780338D01*
X24047397Y-17780338D02*
X24095016Y-17780338D01*
X24095016Y-17780338D02*
X24114064Y-17789862D01*
X24114064Y-17789862D02*
X24123587Y-17799385D01*
X24123587Y-17799385D02*
X24133111Y-17818433D01*
X24133111Y-17818433D02*
X24133111Y-17837481D01*
X24133111Y-17837481D02*
X24123587Y-17866052D01*
X24123587Y-17866052D02*
X24009302Y-17980338D01*
X24009302Y-17980338D02*
X24133111Y-17980338D01*
X24228349Y-17980338D02*
X24266445Y-17980338D01*
X24266445Y-17980338D02*
X24285492Y-17970814D01*
X24285492Y-17970814D02*
X24295016Y-17961290D01*
X24295016Y-17961290D02*
X24314064Y-17932719D01*
X24314064Y-17932719D02*
X24323587Y-17894624D01*
X24323587Y-17894624D02*
X24323587Y-17818433D01*
X24323587Y-17818433D02*
X24314064Y-17799385D01*
X24314064Y-17799385D02*
X24304540Y-17789862D01*
X24304540Y-17789862D02*
X24285492Y-17780338D01*
X24285492Y-17780338D02*
X24247397Y-17780338D01*
X24247397Y-17780338D02*
X24228349Y-17789862D01*
X24228349Y-17789862D02*
X24218826Y-17799385D01*
X24218826Y-17799385D02*
X24209302Y-17818433D01*
X24209302Y-17818433D02*
X24209302Y-17866052D01*
X24209302Y-17866052D02*
X24218826Y-17885100D01*
X24218826Y-17885100D02*
X24228349Y-17894624D01*
X24228349Y-17894624D02*
X24247397Y-17904147D01*
X24247397Y-17904147D02*
X24285492Y-17904147D01*
X24285492Y-17904147D02*
X24304540Y-17894624D01*
X24304540Y-17894624D02*
X24314064Y-17885100D01*
X24314064Y-17885100D02*
X24323587Y-17866052D01*
X24504540Y-17780338D02*
X24409302Y-17780338D01*
X24409302Y-17780338D02*
X24399778Y-17875576D01*
X24399778Y-17875576D02*
X24409302Y-17866052D01*
X24409302Y-17866052D02*
X24428349Y-17856528D01*
X24428349Y-17856528D02*
X24475968Y-17856528D01*
X24475968Y-17856528D02*
X24495016Y-17866052D01*
X24495016Y-17866052D02*
X24504540Y-17875576D01*
X24504540Y-17875576D02*
X24514064Y-17894624D01*
X24514064Y-17894624D02*
X24514064Y-17942243D01*
X24514064Y-17942243D02*
X24504540Y-17961290D01*
X24504540Y-17961290D02*
X24495016Y-17970814D01*
X24495016Y-17970814D02*
X24475968Y-17980338D01*
X24475968Y-17980338D02*
X24428349Y-17980338D01*
X24428349Y-17980338D02*
X24409302Y-17970814D01*
X24409302Y-17970814D02*
X24399778Y-17961290D01*
X24590254Y-17780338D02*
X24590254Y-17818433D01*
X24666445Y-17780338D02*
X24666445Y-17818433D01*
X24961683Y-18056528D02*
X24952159Y-18047004D01*
X24952159Y-18047004D02*
X24933111Y-18018433D01*
X24933111Y-18018433D02*
X24923588Y-17999385D01*
X24923588Y-17999385D02*
X24914064Y-17970814D01*
X24914064Y-17970814D02*
X24904540Y-17923195D01*
X24904540Y-17923195D02*
X24904540Y-17885100D01*
X24904540Y-17885100D02*
X24914064Y-17837481D01*
X24914064Y-17837481D02*
X24923588Y-17808909D01*
X24923588Y-17808909D02*
X24933111Y-17789862D01*
X24933111Y-17789862D02*
X24952159Y-17761290D01*
X24952159Y-17761290D02*
X24961683Y-17751766D01*
X25066445Y-17866052D02*
X25047397Y-17856528D01*
X25047397Y-17856528D02*
X25037873Y-17847004D01*
X25037873Y-17847004D02*
X25028349Y-17827957D01*
X25028349Y-17827957D02*
X25028349Y-17818433D01*
X25028349Y-17818433D02*
X25037873Y-17799385D01*
X25037873Y-17799385D02*
X25047397Y-17789862D01*
X25047397Y-17789862D02*
X25066445Y-17780338D01*
X25066445Y-17780338D02*
X25104540Y-17780338D01*
X25104540Y-17780338D02*
X25123588Y-17789862D01*
X25123588Y-17789862D02*
X25133111Y-17799385D01*
X25133111Y-17799385D02*
X25142635Y-17818433D01*
X25142635Y-17818433D02*
X25142635Y-17827957D01*
X25142635Y-17827957D02*
X25133111Y-17847004D01*
X25133111Y-17847004D02*
X25123588Y-17856528D01*
X25123588Y-17856528D02*
X25104540Y-17866052D01*
X25104540Y-17866052D02*
X25066445Y-17866052D01*
X25066445Y-17866052D02*
X25047397Y-17875576D01*
X25047397Y-17875576D02*
X25037873Y-17885100D01*
X25037873Y-17885100D02*
X25028349Y-17904147D01*
X25028349Y-17904147D02*
X25028349Y-17942243D01*
X25028349Y-17942243D02*
X25037873Y-17961290D01*
X25037873Y-17961290D02*
X25047397Y-17970814D01*
X25047397Y-17970814D02*
X25066445Y-17980338D01*
X25066445Y-17980338D02*
X25104540Y-17980338D01*
X25104540Y-17980338D02*
X25123588Y-17970814D01*
X25123588Y-17970814D02*
X25133111Y-17961290D01*
X25133111Y-17961290D02*
X25142635Y-17942243D01*
X25142635Y-17942243D02*
X25142635Y-17904147D01*
X25142635Y-17904147D02*
X25133111Y-17885100D01*
X25133111Y-17885100D02*
X25123588Y-17875576D01*
X25123588Y-17875576D02*
X25104540Y-17866052D01*
X25380730Y-17980338D02*
X25380730Y-17780338D01*
X25466445Y-17980338D02*
X25466445Y-17875576D01*
X25466445Y-17875576D02*
X25456921Y-17856528D01*
X25456921Y-17856528D02*
X25437873Y-17847004D01*
X25437873Y-17847004D02*
X25409302Y-17847004D01*
X25409302Y-17847004D02*
X25390254Y-17856528D01*
X25390254Y-17856528D02*
X25380730Y-17866052D01*
X25590254Y-17980338D02*
X25571207Y-17970814D01*
X25571207Y-17970814D02*
X25561683Y-17961290D01*
X25561683Y-17961290D02*
X25552159Y-17942243D01*
X25552159Y-17942243D02*
X25552159Y-17885100D01*
X25552159Y-17885100D02*
X25561683Y-17866052D01*
X25561683Y-17866052D02*
X25571207Y-17856528D01*
X25571207Y-17856528D02*
X25590254Y-17847004D01*
X25590254Y-17847004D02*
X25618826Y-17847004D01*
X25618826Y-17847004D02*
X25637873Y-17856528D01*
X25637873Y-17856528D02*
X25647397Y-17866052D01*
X25647397Y-17866052D02*
X25656921Y-17885100D01*
X25656921Y-17885100D02*
X25656921Y-17942243D01*
X25656921Y-17942243D02*
X25647397Y-17961290D01*
X25647397Y-17961290D02*
X25637873Y-17970814D01*
X25637873Y-17970814D02*
X25618826Y-17980338D01*
X25618826Y-17980338D02*
X25590254Y-17980338D01*
X25771207Y-17980338D02*
X25752159Y-17970814D01*
X25752159Y-17970814D02*
X25742635Y-17951766D01*
X25742635Y-17951766D02*
X25742635Y-17780338D01*
X25923588Y-17970814D02*
X25904540Y-17980338D01*
X25904540Y-17980338D02*
X25866445Y-17980338D01*
X25866445Y-17980338D02*
X25847397Y-17970814D01*
X25847397Y-17970814D02*
X25837873Y-17951766D01*
X25837873Y-17951766D02*
X25837873Y-17875576D01*
X25837873Y-17875576D02*
X25847397Y-17856528D01*
X25847397Y-17856528D02*
X25866445Y-17847004D01*
X25866445Y-17847004D02*
X25904540Y-17847004D01*
X25904540Y-17847004D02*
X25923588Y-17856528D01*
X25923588Y-17856528D02*
X25933111Y-17875576D01*
X25933111Y-17875576D02*
X25933111Y-17894624D01*
X25933111Y-17894624D02*
X25837873Y-17913671D01*
X26009302Y-17970814D02*
X26028350Y-17980338D01*
X26028350Y-17980338D02*
X26066445Y-17980338D01*
X26066445Y-17980338D02*
X26085492Y-17970814D01*
X26085492Y-17970814D02*
X26095016Y-17951766D01*
X26095016Y-17951766D02*
X26095016Y-17942243D01*
X26095016Y-17942243D02*
X26085492Y-17923195D01*
X26085492Y-17923195D02*
X26066445Y-17913671D01*
X26066445Y-17913671D02*
X26037873Y-17913671D01*
X26037873Y-17913671D02*
X26018826Y-17904147D01*
X26018826Y-17904147D02*
X26009302Y-17885100D01*
X26009302Y-17885100D02*
X26009302Y-17875576D01*
X26009302Y-17875576D02*
X26018826Y-17856528D01*
X26018826Y-17856528D02*
X26037873Y-17847004D01*
X26037873Y-17847004D02*
X26066445Y-17847004D01*
X26066445Y-17847004D02*
X26085492Y-17856528D01*
X26161683Y-18056528D02*
X26171207Y-18047004D01*
X26171207Y-18047004D02*
X26190254Y-18018433D01*
X26190254Y-18018433D02*
X26199778Y-17999385D01*
X26199778Y-17999385D02*
X26209302Y-17970814D01*
X26209302Y-17970814D02*
X26218826Y-17923195D01*
X26218826Y-17923195D02*
X26218826Y-17885100D01*
X26218826Y-17885100D02*
X26209302Y-17837481D01*
X26209302Y-17837481D02*
X26199778Y-17808909D01*
X26199778Y-17808909D02*
X26190254Y-17789862D01*
X26190254Y-17789862D02*
X26171207Y-17761290D01*
X26171207Y-17761290D02*
X26161683Y-17751766D01*
M02*
