%TF.GenerationSoftware,KiCad,Pcbnew,7.0.6*%
%TF.CreationDate,2023-12-14T14:41:25-08:00*%
%TF.ProjectId,UGC_USBC,5547435f-5553-4424-932e-6b696361645f,rev?*%
%TF.SameCoordinates,Original*%
%TF.FileFunction,Legend,Top*%
%TF.FilePolarity,Positive*%
%FSLAX46Y46*%
G04 Gerber Fmt 4.6, Leading zero omitted, Abs format (unit mm)*
G04 Created by KiCad (PCBNEW 7.0.6) date 2023-12-14 14:41:25*
%MOMM*%
%LPD*%
G01*
G04 APERTURE LIST*
%ADD10C,0.150000*%
%ADD11C,0.120000*%
%ADD12C,0.127000*%
%ADD13C,0.200000*%
G04 APERTURE END LIST*
D10*
X232649733Y-158849219D02*
X232316400Y-158373028D01*
X232078305Y-158849219D02*
X232078305Y-157849219D01*
X232078305Y-157849219D02*
X232459257Y-157849219D01*
X232459257Y-157849219D02*
X232554495Y-157896838D01*
X232554495Y-157896838D02*
X232602114Y-157944457D01*
X232602114Y-157944457D02*
X232649733Y-158039695D01*
X232649733Y-158039695D02*
X232649733Y-158182552D01*
X232649733Y-158182552D02*
X232602114Y-158277790D01*
X232602114Y-158277790D02*
X232554495Y-158325409D01*
X232554495Y-158325409D02*
X232459257Y-158373028D01*
X232459257Y-158373028D02*
X232078305Y-158373028D01*
X233602114Y-158849219D02*
X233030686Y-158849219D01*
X233316400Y-158849219D02*
X233316400Y-157849219D01*
X233316400Y-157849219D02*
X233221162Y-157992076D01*
X233221162Y-157992076D02*
X233125924Y-158087314D01*
X233125924Y-158087314D02*
X233030686Y-158134933D01*
X224724933Y-158900019D02*
X224391600Y-158423828D01*
X224153505Y-158900019D02*
X224153505Y-157900019D01*
X224153505Y-157900019D02*
X224534457Y-157900019D01*
X224534457Y-157900019D02*
X224629695Y-157947638D01*
X224629695Y-157947638D02*
X224677314Y-157995257D01*
X224677314Y-157995257D02*
X224724933Y-158090495D01*
X224724933Y-158090495D02*
X224724933Y-158233352D01*
X224724933Y-158233352D02*
X224677314Y-158328590D01*
X224677314Y-158328590D02*
X224629695Y-158376209D01*
X224629695Y-158376209D02*
X224534457Y-158423828D01*
X224534457Y-158423828D02*
X224153505Y-158423828D01*
X225105886Y-157995257D02*
X225153505Y-157947638D01*
X225153505Y-157947638D02*
X225248743Y-157900019D01*
X225248743Y-157900019D02*
X225486838Y-157900019D01*
X225486838Y-157900019D02*
X225582076Y-157947638D01*
X225582076Y-157947638D02*
X225629695Y-157995257D01*
X225629695Y-157995257D02*
X225677314Y-158090495D01*
X225677314Y-158090495D02*
X225677314Y-158185733D01*
X225677314Y-158185733D02*
X225629695Y-158328590D01*
X225629695Y-158328590D02*
X225058267Y-158900019D01*
X225058267Y-158900019D02*
X225677314Y-158900019D01*
D11*
%TO.C,R1*%
X230525858Y-158916900D02*
X230051342Y-158916900D01*
X230525858Y-157871900D02*
X230051342Y-157871900D01*
D12*
%TO.C,J1*%
X233741178Y-149362400D02*
X233741178Y-152362400D01*
X233741178Y-144362400D02*
X233741178Y-146612400D01*
X232666178Y-154362400D02*
X232166178Y-154362400D01*
X225666178Y-154362400D02*
X225166178Y-154362400D01*
X224091178Y-152362400D02*
X224091178Y-149362400D01*
X224091178Y-146612400D02*
X224091178Y-144362400D01*
X224091178Y-144362400D02*
X233741178Y-144362400D01*
D13*
X231766178Y-154862400D02*
G75*
G03*
X231766178Y-154862400I-100000J0D01*
G01*
D11*
%TO.C,R2*%
X227029742Y-157871900D02*
X227504258Y-157871900D01*
X227029742Y-158916900D02*
X227504258Y-158916900D01*
%TD*%
M02*
