M48
; DRILL file {KiCad 7.0.6} date Fri Dec 15 10:42:09 2023
; FORMAT={-:-/ absolute / inch / decimal}
; #@! TF.CreationDate,2023-12-15T10:42:09-08:00
; #@! TF.GenerationSoftware,Kicad,Pcbnew,7.0.6
; #@! TF.FileFunction,Plated,1,2,PTH
FMAT,2
INCH
; #@! TA.AperFunction,Plated,PTH,ViaDrill
T1C0.0138
; #@! TA.AperFunction,Plated,PTH,ViaDrill
T2C0.0157
; #@! TA.AperFunction,Plated,PTH,ComponentDrill
T3C0.0157
; #@! TA.AperFunction,Plated,PTH,ComponentDrill
T4C0.0197
; #@! TA.AperFunction,Plated,PTH,ComponentDrill
T5C0.0236
; #@! TA.AperFunction,Plated,PTH,ViaDrill
T6C0.0295
%
G90
G05
T1
X8.7924Y-6.2148
X8.8082Y-6.1164
X8.8234Y-6.1528
X8.8533Y-6.1692
X8.8871Y-6.1061
X8.961Y-6.208
X8.9809Y-6.1477
X9.0278Y-6.1878
X9.038Y-6.1225
X9.0813Y-6.1408
X9.1348Y-6.1203
X9.2095Y-6.1543
X9.2371Y-6.1706
X9.384Y-6.086
X9.404Y-6.056
T2
X8.9873Y-6.1018
X9.013Y-5.925
X9.068Y-5.94
X9.08Y-5.872
X9.102Y-5.916
T3
X8.8924Y-6.0162
X8.918Y-5.9887
X8.9495Y-5.9887
X8.9652Y-6.0162
X8.981Y-5.9887
X8.9967Y-6.0162
X9.0282Y-6.0162
X9.0439Y-5.9887
X9.0597Y-6.0162
X9.0754Y-5.9887
X9.1069Y-5.9887
X9.1325Y-6.0162
T4
X8.853Y-6.032
X9.1719Y-6.032
T5
X8.8353Y-6.0536
X9.1896Y-6.0536
T6
X8.728Y-5.8607
X8.728Y-5.9591
X8.728Y-6.0576
X8.728Y-6.156
X9.2969Y-5.8607
X9.2969Y-5.9591
X9.2969Y-6.0576
X9.2969Y-6.156
T5
G00X8.8353Y-5.845
M15
G01X8.8353Y-5.8095
M16
G05
G00X9.1896Y-5.845
M15
G01X9.1896Y-5.8095
M16
G05
T0
M30
