%TF.GenerationSoftware,KiCad,Pcbnew,7.0.6*%
%TF.CreationDate,2024-04-04T00:10:15-07:00*%
%TF.ProjectId,UGC_Main,5547435f-4d61-4696-9e2e-6b696361645f,rev?*%
%TF.SameCoordinates,Original*%
%TF.FileFunction,Legend,Bot*%
%TF.FilePolarity,Positive*%
%FSLAX46Y46*%
G04 Gerber Fmt 4.6, Leading zero omitted, Abs format (unit mm)*
G04 Created by KiCad (PCBNEW 7.0.6) date 2024-04-04 00:10:15*
%MOMM*%
%LPD*%
G01*
G04 APERTURE LIST*
%ADD10C,0.100000*%
%ADD11C,0.300000*%
%ADD12C,0.120000*%
%ADD13C,0.150000*%
%ADD14C,0.254000*%
%ADD15C,0.200000*%
%ADD16C,0.127000*%
G04 APERTURE END LIST*
D10*
X212961809Y-121178934D02*
X209103184Y-121178934D01*
X209118572Y-118178934D02*
X212979599Y-118178934D01*
X216559446Y-114885160D02*
G75*
G03*
X220397094Y-114885160I1918824J-4826433D01*
G01*
D11*
X221655489Y-113880828D02*
X221655489Y-112380828D01*
X221655489Y-112380828D02*
X221155489Y-113452257D01*
X221155489Y-113452257D02*
X220655489Y-112380828D01*
X220655489Y-112380828D02*
X220655489Y-113880828D01*
X219655488Y-112380828D02*
X219369774Y-112380828D01*
X219369774Y-112380828D02*
X219226917Y-112452257D01*
X219226917Y-112452257D02*
X219084060Y-112595114D01*
X219084060Y-112595114D02*
X219012631Y-112880828D01*
X219012631Y-112880828D02*
X219012631Y-113380828D01*
X219012631Y-113380828D02*
X219084060Y-113666542D01*
X219084060Y-113666542D02*
X219226917Y-113809400D01*
X219226917Y-113809400D02*
X219369774Y-113880828D01*
X219369774Y-113880828D02*
X219655488Y-113880828D01*
X219655488Y-113880828D02*
X219798346Y-113809400D01*
X219798346Y-113809400D02*
X219941203Y-113666542D01*
X219941203Y-113666542D02*
X220012631Y-113380828D01*
X220012631Y-113380828D02*
X220012631Y-112880828D01*
X220012631Y-112880828D02*
X219941203Y-112595114D01*
X219941203Y-112595114D02*
X219798346Y-112452257D01*
X219798346Y-112452257D02*
X219655488Y-112380828D01*
X218584059Y-112380828D02*
X217726917Y-112380828D01*
X218155488Y-113880828D02*
X218155488Y-112380828D01*
X216941202Y-112380828D02*
X216655488Y-112380828D01*
X216655488Y-112380828D02*
X216512631Y-112452257D01*
X216512631Y-112452257D02*
X216369774Y-112595114D01*
X216369774Y-112595114D02*
X216298345Y-112880828D01*
X216298345Y-112880828D02*
X216298345Y-113380828D01*
X216298345Y-113380828D02*
X216369774Y-113666542D01*
X216369774Y-113666542D02*
X216512631Y-113809400D01*
X216512631Y-113809400D02*
X216655488Y-113880828D01*
X216655488Y-113880828D02*
X216941202Y-113880828D01*
X216941202Y-113880828D02*
X217084060Y-113809400D01*
X217084060Y-113809400D02*
X217226917Y-113666542D01*
X217226917Y-113666542D02*
X217298345Y-113380828D01*
X217298345Y-113380828D02*
X217298345Y-112880828D01*
X217298345Y-112880828D02*
X217226917Y-112595114D01*
X217226917Y-112595114D02*
X217084060Y-112452257D01*
X217084060Y-112452257D02*
X216941202Y-112380828D01*
X214798345Y-113880828D02*
X215298345Y-113166542D01*
X215655488Y-113880828D02*
X215655488Y-112380828D01*
X215655488Y-112380828D02*
X215084059Y-112380828D01*
X215084059Y-112380828D02*
X214941202Y-112452257D01*
X214941202Y-112452257D02*
X214869773Y-112523685D01*
X214869773Y-112523685D02*
X214798345Y-112666542D01*
X214798345Y-112666542D02*
X214798345Y-112880828D01*
X214798345Y-112880828D02*
X214869773Y-113023685D01*
X214869773Y-113023685D02*
X214941202Y-113095114D01*
X214941202Y-113095114D02*
X215084059Y-113166542D01*
X215084059Y-113166542D02*
X215655488Y-113166542D01*
D12*
X237850033Y-111226193D02*
X236897653Y-111226193D01*
X237373843Y-111702383D02*
X237373843Y-110750002D01*
D13*
X220285159Y-138916183D02*
X220142302Y-138963802D01*
X220142302Y-138963802D02*
X219904207Y-138963802D01*
X219904207Y-138963802D02*
X219808969Y-138916183D01*
X219808969Y-138916183D02*
X219761350Y-138868563D01*
X219761350Y-138868563D02*
X219713731Y-138773325D01*
X219713731Y-138773325D02*
X219713731Y-138678087D01*
X219713731Y-138678087D02*
X219761350Y-138582849D01*
X219761350Y-138582849D02*
X219808969Y-138535230D01*
X219808969Y-138535230D02*
X219904207Y-138487611D01*
X219904207Y-138487611D02*
X220094683Y-138439992D01*
X220094683Y-138439992D02*
X220189921Y-138392373D01*
X220189921Y-138392373D02*
X220237540Y-138344754D01*
X220237540Y-138344754D02*
X220285159Y-138249516D01*
X220285159Y-138249516D02*
X220285159Y-138154278D01*
X220285159Y-138154278D02*
X220237540Y-138059040D01*
X220237540Y-138059040D02*
X220189921Y-138011421D01*
X220189921Y-138011421D02*
X220094683Y-137963802D01*
X220094683Y-137963802D02*
X219856588Y-137963802D01*
X219856588Y-137963802D02*
X219713731Y-138011421D01*
X219380397Y-137963802D02*
X219142302Y-138963802D01*
X219142302Y-138963802D02*
X218951826Y-138249516D01*
X218951826Y-138249516D02*
X218761350Y-138963802D01*
X218761350Y-138963802D02*
X218523255Y-137963802D01*
X217618493Y-138963802D02*
X218189921Y-138963802D01*
X217904207Y-138963802D02*
X217904207Y-137963802D01*
X217904207Y-137963802D02*
X217999445Y-138106659D01*
X217999445Y-138106659D02*
X218094683Y-138201897D01*
X218094683Y-138201897D02*
X218189921Y-138249516D01*
X216761350Y-138297135D02*
X216761350Y-138963802D01*
X216999445Y-137916183D02*
X217237540Y-138630468D01*
X217237540Y-138630468D02*
X216618493Y-138630468D01*
D10*
X223738476Y-132571000D02*
X223881333Y-132523380D01*
X223881333Y-132523380D02*
X224119428Y-132523380D01*
X224119428Y-132523380D02*
X224214666Y-132571000D01*
X224214666Y-132571000D02*
X224262285Y-132618619D01*
X224262285Y-132618619D02*
X224309904Y-132713857D01*
X224309904Y-132713857D02*
X224309904Y-132809095D01*
X224309904Y-132809095D02*
X224262285Y-132904333D01*
X224262285Y-132904333D02*
X224214666Y-132951952D01*
X224214666Y-132951952D02*
X224119428Y-132999571D01*
X224119428Y-132999571D02*
X223928952Y-133047190D01*
X223928952Y-133047190D02*
X223833714Y-133094809D01*
X223833714Y-133094809D02*
X223786095Y-133142428D01*
X223786095Y-133142428D02*
X223738476Y-133237666D01*
X223738476Y-133237666D02*
X223738476Y-133332904D01*
X223738476Y-133332904D02*
X223786095Y-133428142D01*
X223786095Y-133428142D02*
X223833714Y-133475761D01*
X223833714Y-133475761D02*
X223928952Y-133523380D01*
X223928952Y-133523380D02*
X224167047Y-133523380D01*
X224167047Y-133523380D02*
X224309904Y-133475761D01*
X224643238Y-133523380D02*
X224881333Y-132523380D01*
X224881333Y-132523380D02*
X225071809Y-133237666D01*
X225071809Y-133237666D02*
X225262285Y-132523380D01*
X225262285Y-132523380D02*
X225500381Y-133523380D01*
X226405142Y-132523380D02*
X225833714Y-132523380D01*
X226119428Y-132523380D02*
X226119428Y-133523380D01*
X226119428Y-133523380D02*
X226024190Y-133380523D01*
X226024190Y-133380523D02*
X225928952Y-133285285D01*
X225928952Y-133285285D02*
X225833714Y-133237666D01*
X227309904Y-133523380D02*
X226833714Y-133523380D01*
X226833714Y-133523380D02*
X226786095Y-133047190D01*
X226786095Y-133047190D02*
X226833714Y-133094809D01*
X226833714Y-133094809D02*
X226928952Y-133142428D01*
X226928952Y-133142428D02*
X227167047Y-133142428D01*
X227167047Y-133142428D02*
X227262285Y-133094809D01*
X227262285Y-133094809D02*
X227309904Y-133047190D01*
X227309904Y-133047190D02*
X227357523Y-132951952D01*
X227357523Y-132951952D02*
X227357523Y-132713857D01*
X227357523Y-132713857D02*
X227309904Y-132618619D01*
X227309904Y-132618619D02*
X227262285Y-132571000D01*
X227262285Y-132571000D02*
X227167047Y-132523380D01*
X227167047Y-132523380D02*
X226928952Y-132523380D01*
X226928952Y-132523380D02*
X226833714Y-132571000D01*
X226833714Y-132571000D02*
X226786095Y-132618619D01*
D14*
X272518267Y-140460898D02*
X272518267Y-141368041D01*
X272518267Y-141368041D02*
X272578744Y-141549469D01*
X272578744Y-141549469D02*
X272699696Y-141670422D01*
X272699696Y-141670422D02*
X272881125Y-141730898D01*
X272881125Y-141730898D02*
X273002077Y-141730898D01*
X271248267Y-141730898D02*
X271973982Y-141730898D01*
X271611125Y-141730898D02*
X271611125Y-140460898D01*
X271611125Y-140460898D02*
X271732077Y-140642326D01*
X271732077Y-140642326D02*
X271853029Y-140763279D01*
X271853029Y-140763279D02*
X271973982Y-140823755D01*
X270824934Y-140460898D02*
X270038743Y-140460898D01*
X270038743Y-140460898D02*
X270462077Y-140944707D01*
X270462077Y-140944707D02*
X270280648Y-140944707D01*
X270280648Y-140944707D02*
X270159696Y-141005183D01*
X270159696Y-141005183D02*
X270099220Y-141065660D01*
X270099220Y-141065660D02*
X270038743Y-141186612D01*
X270038743Y-141186612D02*
X270038743Y-141488993D01*
X270038743Y-141488993D02*
X270099220Y-141609945D01*
X270099220Y-141609945D02*
X270159696Y-141670422D01*
X270159696Y-141670422D02*
X270280648Y-141730898D01*
X270280648Y-141730898D02*
X270643505Y-141730898D01*
X270643505Y-141730898D02*
X270764458Y-141670422D01*
X270764458Y-141670422D02*
X270824934Y-141609945D01*
D13*
X233952357Y-114116480D02*
X233809500Y-114164099D01*
X233809500Y-114164099D02*
X233761881Y-114211718D01*
X233761881Y-114211718D02*
X233714262Y-114306956D01*
X233714262Y-114306956D02*
X233714262Y-114449813D01*
X233714262Y-114449813D02*
X233761881Y-114545051D01*
X233761881Y-114545051D02*
X233809500Y-114592671D01*
X233809500Y-114592671D02*
X233904738Y-114640290D01*
X233904738Y-114640290D02*
X234285690Y-114640290D01*
X234285690Y-114640290D02*
X234285690Y-113640290D01*
X234285690Y-113640290D02*
X233952357Y-113640290D01*
X233952357Y-113640290D02*
X233857119Y-113687909D01*
X233857119Y-113687909D02*
X233809500Y-113735528D01*
X233809500Y-113735528D02*
X233761881Y-113830766D01*
X233761881Y-113830766D02*
X233761881Y-113926004D01*
X233761881Y-113926004D02*
X233809500Y-114021242D01*
X233809500Y-114021242D02*
X233857119Y-114068861D01*
X233857119Y-114068861D02*
X233952357Y-114116480D01*
X233952357Y-114116480D02*
X234285690Y-114116480D01*
X232761881Y-114640290D02*
X233333309Y-114640290D01*
X233047595Y-114640290D02*
X233047595Y-113640290D01*
X233047595Y-113640290D02*
X233142833Y-113783147D01*
X233142833Y-113783147D02*
X233238071Y-113878385D01*
X233238071Y-113878385D02*
X233333309Y-113926004D01*
X217590563Y-92552798D02*
X217590563Y-93268467D01*
X217590563Y-93268467D02*
X217638275Y-93411601D01*
X217638275Y-93411601D02*
X217733697Y-93507024D01*
X217733697Y-93507024D02*
X217876831Y-93554735D01*
X217876831Y-93554735D02*
X217972254Y-93554735D01*
X216636337Y-92552798D02*
X217113450Y-92552798D01*
X217113450Y-92552798D02*
X217161161Y-93029911D01*
X217161161Y-93029911D02*
X217113450Y-92982199D01*
X217113450Y-92982199D02*
X217018028Y-92934488D01*
X217018028Y-92934488D02*
X216779471Y-92934488D01*
X216779471Y-92934488D02*
X216684049Y-92982199D01*
X216684049Y-92982199D02*
X216636337Y-93029911D01*
X216636337Y-93029911D02*
X216588626Y-93125333D01*
X216588626Y-93125333D02*
X216588626Y-93363890D01*
X216588626Y-93363890D02*
X216636337Y-93459312D01*
X216636337Y-93459312D02*
X216684049Y-93507024D01*
X216684049Y-93507024D02*
X216779471Y-93554735D01*
X216779471Y-93554735D02*
X217018028Y-93554735D01*
X217018028Y-93554735D02*
X217113450Y-93507024D01*
X217113450Y-93507024D02*
X217161161Y-93459312D01*
D12*
X272046647Y-132325400D02*
X272046647Y-132770638D01*
X272046647Y-132770638D02*
X272020457Y-132823019D01*
X272020457Y-132823019D02*
X271994266Y-132849210D01*
X271994266Y-132849210D02*
X271941885Y-132875400D01*
X271941885Y-132875400D02*
X271837123Y-132875400D01*
X271837123Y-132875400D02*
X271784742Y-132849210D01*
X271784742Y-132849210D02*
X271758552Y-132823019D01*
X271758552Y-132823019D02*
X271732361Y-132770638D01*
X271732361Y-132770638D02*
X271732361Y-132325400D01*
X271522838Y-132325400D02*
X271156171Y-132325400D01*
X271156171Y-132325400D02*
X271391886Y-132875400D01*
%TO.C,SW14*%
X222983657Y-137484400D02*
X213983657Y-137484400D01*
X222983657Y-133484400D02*
X222983657Y-137484400D01*
X222983657Y-133484400D02*
X213983657Y-133484400D01*
X213983657Y-133484400D02*
X213983657Y-137484400D01*
D10*
%TO.C,SW15*%
X223989200Y-136419200D02*
X226090800Y-136419200D01*
X226090800Y-136419200D02*
X226090800Y-134520800D01*
X226090800Y-134520800D02*
X223989200Y-134520800D01*
X223989200Y-134520800D02*
X223989200Y-136419200D01*
D15*
%TO.C,J13*%
X273840173Y-139356580D02*
X273840173Y-141556580D01*
X273290173Y-139356580D02*
X273840173Y-139356580D01*
X273090173Y-142956580D02*
X269890173Y-142956580D01*
D10*
X272690173Y-138856580D02*
X272690173Y-138856580D01*
X272690173Y-138756580D02*
X272690173Y-138756580D01*
D15*
X269890173Y-139356580D02*
X269140173Y-139356580D01*
X269140173Y-139356580D02*
X269140173Y-141556580D01*
D10*
X272690173Y-138756580D02*
G75*
G03*
X272690173Y-138856580I0J-50000D01*
G01*
X272690173Y-138856580D02*
G75*
G03*
X272690173Y-138756580I0J50000D01*
G01*
%TO.C,RV2*%
X248483657Y-114684400D02*
X248483657Y-114059400D01*
X248483657Y-114684400D02*
X238483657Y-114684400D01*
X248483657Y-97934400D02*
X248483657Y-111874400D01*
X248483657Y-97934400D02*
X246073657Y-97934400D01*
X240893657Y-97934400D02*
X238483657Y-97934400D01*
X238483657Y-114684400D02*
X238483657Y-114054400D01*
X238483657Y-97934400D02*
X238483657Y-111874400D01*
D12*
%TO.C,B1*%
X230187596Y-113395471D02*
X230187596Y-112145471D01*
X230487596Y-108375471D02*
X236607596Y-108375471D01*
X230487596Y-110485471D02*
X231097596Y-110485471D01*
X230487596Y-111785471D02*
X231097596Y-111785471D01*
X230487596Y-113095471D02*
X230487596Y-108375471D01*
X231097596Y-108985471D02*
X235997596Y-108985471D01*
X231097596Y-112485471D02*
X231097596Y-108985471D01*
X231437596Y-113395471D02*
X230187596Y-113395471D01*
X231947596Y-113295471D02*
X231947596Y-113095471D01*
X232247596Y-113095471D02*
X232247596Y-113295471D01*
X232247596Y-113195471D02*
X231947596Y-113195471D01*
X232247596Y-113295471D02*
X231947596Y-113295471D01*
X233047596Y-112485471D02*
X231097596Y-112485471D01*
X233047596Y-113095471D02*
X233047596Y-112485471D01*
X233447596Y-108985471D02*
X233447596Y-109485471D01*
X233447596Y-109485471D02*
X233647596Y-109485471D01*
X233547596Y-108985471D02*
X233547596Y-109485471D01*
X233647596Y-109485471D02*
X233647596Y-108985471D01*
X234047596Y-112485471D02*
X234047596Y-113095471D01*
X235997596Y-108985471D02*
X235997596Y-112485471D01*
X235997596Y-112485471D02*
X234047596Y-112485471D01*
X236607596Y-108375471D02*
X236607596Y-113095471D01*
X236607596Y-110485471D02*
X235997596Y-110485471D01*
X236607596Y-111785471D02*
X235997596Y-111785471D01*
X236607596Y-113095471D02*
X230487596Y-113095471D01*
D16*
%TO.C,J5*%
X213658635Y-81054400D02*
X213658635Y-83304400D01*
X213658635Y-86054400D02*
X213658635Y-89054400D01*
X214733635Y-91054400D02*
X215233635Y-91054400D01*
X221733635Y-91054400D02*
X222233635Y-91054400D01*
X223308635Y-81054400D02*
X213658635Y-81054400D01*
X223308635Y-83304400D02*
X223308635Y-81054400D01*
X223308635Y-89054400D02*
X223308635Y-86054400D01*
D15*
X215833635Y-91554400D02*
G75*
G03*
X215833635Y-91554400I-100000J0D01*
G01*
D12*
%TO.C,U7*%
X271627600Y-136687200D02*
X273127600Y-136687200D01*
X271627600Y-136687200D02*
X270127600Y-136687200D01*
X271627600Y-133467200D02*
X274552600Y-133467200D01*
X271627600Y-133467200D02*
X270127600Y-133467200D01*
D10*
%TO.C,RV1*%
X198483657Y-114684400D02*
X198483657Y-114059400D01*
X198483657Y-114684400D02*
X188483657Y-114684400D01*
X198483657Y-97934400D02*
X198483657Y-111874400D01*
X198483657Y-97934400D02*
X196073657Y-97934400D01*
X190893657Y-97934400D02*
X188483657Y-97934400D01*
X188483657Y-114684400D02*
X188483657Y-114054400D01*
X188483657Y-97934400D02*
X188483657Y-111874400D01*
%TD*%
M02*
