%TF.GenerationSoftware,KiCad,Pcbnew,9.0.3*%
%TF.CreationDate,2025-07-18T17:15:59-07:00*%
%TF.ProjectId,UGC_SubStick_R5,5547435f-5375-4625-9374-69636b5f5235,rev?*%
%TF.SameCoordinates,Original*%
%TF.FileFunction,Profile,NP*%
%FSLAX46Y46*%
G04 Gerber Fmt 4.6, Leading zero omitted, Abs format (unit mm)*
G04 Created by KiCad (PCBNEW 9.0.3) date 2025-07-18 17:15:59*
%MOMM*%
%LPD*%
G01*
G04 APERTURE LIST*
%ADD10C,0.100000*%
%TA.AperFunction,Profile*%
%ADD11C,0.100000*%
%TD*%
G04 APERTURE END LIST*
D10*
X48400516Y-28182021D02*
X48378407Y-28207824D01*
X48356358Y-28233679D01*
X48334371Y-28259585D01*
X48312444Y-28285544D01*
X48290579Y-28311554D01*
X48268775Y-28337615D01*
X48247032Y-28363728D01*
X48225351Y-28389892D01*
X48203731Y-28416106D01*
X48182174Y-28442372D01*
X48160678Y-28468688D01*
X48139244Y-28495055D01*
X48117872Y-28521472D01*
X48096563Y-28547940D01*
X48075316Y-28574457D01*
X48054131Y-28601025D01*
X48033009Y-28627642D01*
X48011950Y-28654309D01*
X47990953Y-28681026D01*
X47970020Y-28707791D01*
X47949149Y-28734607D01*
X47928342Y-28761471D01*
X47907598Y-28788384D01*
X47886917Y-28815346D01*
X47866300Y-28842356D01*
X47845747Y-28869415D01*
X47825257Y-28896523D01*
X47804831Y-28923678D01*
X47784469Y-28950882D01*
X47764172Y-28978133D01*
X47743938Y-29005432D01*
X47723769Y-29032779D01*
X47703664Y-29060173D01*
X47683624Y-29087614D01*
X47663648Y-29115103D01*
X47643737Y-29142638D01*
X47623891Y-29170221D01*
X47604110Y-29197849D01*
X47584394Y-29225525D01*
X47564744Y-29253247D01*
X47545158Y-29281014D01*
X47525638Y-29308828D01*
X47506184Y-29336688D01*
X47486795Y-29364594D01*
X47467472Y-29392545D01*
X47448215Y-29420542D01*
X47438611Y-29434557D01*
X47429024Y-29448583D01*
X47419453Y-29462621D01*
X47409899Y-29476670D01*
X47400361Y-29490731D01*
X47390840Y-29504802D01*
X47381335Y-29518885D01*
X47371847Y-29532979D01*
X47362376Y-29547084D01*
X47352921Y-29561200D01*
X47343483Y-29575327D01*
X47334061Y-29589466D01*
X47324657Y-29603615D01*
X47315268Y-29617776D01*
X47305897Y-29631947D01*
X47296542Y-29646130D01*
X47287204Y-29660324D01*
X47277882Y-29674528D01*
X47268578Y-29688744D01*
X47259290Y-29702970D01*
X47250018Y-29717208D01*
X47240764Y-29731456D01*
X47231526Y-29745715D01*
X47222305Y-29759985D01*
X47213101Y-29774266D01*
X47203914Y-29788558D01*
X47194744Y-29802861D01*
X47185590Y-29817174D01*
X47176453Y-29831498D01*
X47167333Y-29845833D01*
X47158231Y-29860178D01*
X47149144Y-29874535D01*
X47140075Y-29888901D01*
X47131023Y-29903279D01*
X47121988Y-29917667D01*
X47112969Y-29932066D01*
X47103968Y-29946476D01*
X47094984Y-29960896D01*
X47086016Y-29975326D01*
X47077066Y-29989767D01*
X47068132Y-30004219D01*
X47059216Y-30018681D01*
X47050317Y-30033154D01*
X47041434Y-30047637D01*
X47032569Y-30062130D01*
X47023721Y-30076635D01*
X47014890Y-30091149D01*
X47006076Y-30105674D01*
X46997279Y-30120209D01*
X46988499Y-30134754D01*
X46979736Y-30149310D01*
X46970991Y-30163876D01*
X46962263Y-30178452D01*
X46953551Y-30193039D01*
X46944857Y-30207636D01*
X46936180Y-30222243D01*
X46927521Y-30236860D01*
X46918878Y-30251488D01*
X46910253Y-30266125D01*
X46901645Y-30280773D01*
X46893055Y-30295431D01*
X46884481Y-30310099D01*
X46875925Y-30324777D01*
X46867386Y-30339465D01*
X46858865Y-30354163D01*
X46850361Y-30368871D01*
X46841874Y-30383589D01*
X46833404Y-30398318D01*
X46824952Y-30413056D01*
X46816517Y-30427804D01*
X46808100Y-30442561D01*
X46799699Y-30457330D01*
X46791317Y-30472107D01*
X46782951Y-30486895D01*
X46774604Y-30501692D01*
X46766273Y-30516499D01*
X46757960Y-30531316D01*
X46749664Y-30546143D01*
X46741386Y-30560979D01*
X46733126Y-30575826D01*
X46724883Y-30590682D01*
X46716657Y-30605548D01*
X46708449Y-30620423D01*
X46700258Y-30635308D01*
X46692085Y-30650202D01*
X46683929Y-30665107D01*
X46675792Y-30680020D01*
X46667671Y-30694944D01*
X46659568Y-30709876D01*
X46651483Y-30724819D01*
X46643415Y-30739771D01*
X46635365Y-30754733D01*
X46626171Y-30771872D01*
X74634312Y-34684026D02*
X74634784Y-34688471D01*
X74635175Y-34692925D01*
X74635488Y-34697384D01*
X74635720Y-34701849D01*
X74635873Y-34706318D01*
X74635945Y-34710788D01*
X74635938Y-34715260D01*
X74635851Y-34719731D01*
X74635684Y-34724200D01*
X74635570Y-34726433D01*
X74635436Y-34728665D01*
X74635283Y-34730896D01*
X74635109Y-34733126D01*
X74634916Y-34735353D01*
X74634702Y-34737580D01*
X74634469Y-34739804D01*
X74634216Y-34742026D01*
X74633943Y-34744246D01*
X74633650Y-34746463D01*
X74633337Y-34748678D01*
X74633005Y-34750890D01*
X74632653Y-34753098D01*
X74632280Y-34755304D01*
X74631889Y-34757506D01*
X74631477Y-34759705D01*
X74631227Y-34760991D01*
X76551610Y-31022024D02*
X76566200Y-31009654D01*
X76580839Y-30997347D01*
X76595528Y-30985104D01*
X76610266Y-30972923D01*
X76625053Y-30960805D01*
X76639891Y-30948749D01*
X76654780Y-30936755D01*
X76669720Y-30924822D01*
X76684712Y-30912950D01*
X76699755Y-30901140D01*
X76714851Y-30889390D01*
X76730000Y-30877700D01*
X76745201Y-30866070D01*
X76760457Y-30854500D01*
X76775766Y-30842989D01*
X76791130Y-30831538D01*
X76806549Y-30820145D01*
X76822023Y-30808811D01*
X76837553Y-30797535D01*
X76853139Y-30786317D01*
X76868782Y-30775157D01*
X76884482Y-30764054D01*
X76900240Y-30753009D01*
X76916056Y-30742020D01*
X76931930Y-30731088D01*
X76947864Y-30720213D01*
X76963857Y-30709394D01*
X76979910Y-30698630D01*
X76996024Y-30687923D01*
X77012198Y-30677271D01*
X77028434Y-30666674D01*
X77044733Y-30656132D01*
X77061093Y-30645645D01*
X77077517Y-30635213D01*
X77094005Y-30624835D01*
X77110556Y-30614511D01*
X77127173Y-30604241D01*
X77143854Y-30594025D01*
X77160601Y-30583862D01*
X77177415Y-30573753D01*
X77194295Y-30563696D01*
X77211243Y-30553693D01*
X77228259Y-30543742D01*
X77245343Y-30533844D01*
X77262497Y-30523999D01*
X77279720Y-30514206D01*
X77297014Y-30504464D01*
X77314378Y-30494775D01*
X77331814Y-30485137D01*
X77349323Y-30475551D01*
X77366904Y-30466016D01*
X77384558Y-30456532D01*
X77402286Y-30447099D01*
X77420089Y-30437717D01*
X77437968Y-30428386D01*
X77455922Y-30419106D01*
X77473953Y-30409876D01*
X77492061Y-30400696D01*
X77510247Y-30391567D01*
X77528512Y-30382487D01*
X77546856Y-30373458D01*
X77565280Y-30364478D01*
X77583785Y-30355548D01*
X77602371Y-30346667D01*
X77621039Y-30337836D01*
X77639790Y-30329054D01*
X77658625Y-30320321D01*
X77677544Y-30311638D01*
X77696548Y-30303003D01*
X77715638Y-30294418D01*
X77734814Y-30285881D01*
X77754078Y-30277393D01*
X77773430Y-30268953D01*
X77792871Y-30260562D01*
X77812401Y-30252219D01*
X77832022Y-30243925D01*
X77851734Y-30235679D01*
X77871539Y-30227481D01*
X77891436Y-30219331D01*
X77911427Y-30211229D01*
X77931513Y-30203175D01*
X77951694Y-30195169D01*
X77971972Y-30187211D01*
X77992347Y-30179301D01*
X78012820Y-30171438D01*
X78033392Y-30163623D01*
X78054064Y-30155856D01*
X78074837Y-30148136D01*
X78095712Y-30140464D01*
X78116690Y-30132839D01*
X78137771Y-30125261D01*
X78158957Y-30117731D01*
X78180249Y-30110249D01*
X78201647Y-30102813D01*
X78223153Y-30095425D01*
X78244768Y-30088084D01*
X78266492Y-30080791D01*
X78288327Y-30073544D01*
X78310274Y-30066345D01*
X78332333Y-30059193D01*
X78343689Y-30055544D01*
D11*
X55735495Y-21255652D02*
G75*
G02*
X56471980Y-20984303I736505J-863848D01*
G01*
D10*
X73905581Y-38440104D02*
X74631227Y-34760991D01*
X74613821Y-34609776D02*
X74615623Y-34613867D01*
X74617353Y-34617990D01*
X74619008Y-34622143D01*
X74620588Y-34626325D01*
X74622094Y-34630535D01*
X74623524Y-34634771D01*
X74624879Y-34639033D01*
X74626157Y-34643318D01*
X74627358Y-34647626D01*
X74627929Y-34649787D01*
X74628481Y-34651954D01*
X74629014Y-34654126D01*
X74629528Y-34656302D01*
X74630022Y-34658483D01*
X74630496Y-34660668D01*
X74630951Y-34662858D01*
X74631386Y-34665051D01*
X74631802Y-34667248D01*
X74632198Y-34669450D01*
X74632574Y-34671654D01*
X74632930Y-34673862D01*
X74633267Y-34676072D01*
X74633584Y-34678286D01*
X74633881Y-34680503D01*
X74634158Y-34682722D01*
X74634312Y-34684026D01*
X45504584Y-41658188D02*
X45514221Y-41690763D01*
X45523935Y-41723316D01*
X45533725Y-41755845D01*
X45543592Y-41788352D01*
X45553536Y-41820835D01*
X45563556Y-41853295D01*
X45573652Y-41885731D01*
X45583825Y-41918143D01*
X45594074Y-41950531D01*
X45604399Y-41982895D01*
X45614800Y-42015235D01*
X45625278Y-42047550D01*
X45635832Y-42079840D01*
X45646461Y-42112106D01*
X45657167Y-42144347D01*
X45667949Y-42176562D01*
X45678806Y-42208752D01*
X45689739Y-42240916D01*
X45700748Y-42273055D01*
X45711833Y-42305167D01*
X45722993Y-42337254D01*
X45734229Y-42369314D01*
X45745541Y-42401348D01*
X45756927Y-42433356D01*
X45768389Y-42465336D01*
X45779927Y-42497290D01*
X45791540Y-42529216D01*
X45803228Y-42561115D01*
X45814991Y-42592987D01*
X45826829Y-42624831D01*
X45838742Y-42656647D01*
X45850730Y-42688435D01*
X45862793Y-42720195D01*
X45874930Y-42751927D01*
X45887143Y-42783630D01*
X45899430Y-42815304D01*
X45911792Y-42846950D01*
X45924228Y-42878566D01*
X45936739Y-42910153D01*
X45949324Y-42941711D01*
X45961983Y-42973240D01*
X45974717Y-43004738D01*
X45987525Y-43036207D01*
X46000407Y-43067645D01*
X46013363Y-43099053D01*
X46026393Y-43130431D01*
X46039497Y-43161778D01*
X46052674Y-43193094D01*
X46065926Y-43224380D01*
X46079251Y-43255634D01*
X46092650Y-43286857D01*
X46106122Y-43318048D01*
X46119668Y-43349208D01*
X46133287Y-43380336D01*
X46146980Y-43411432D01*
X46160745Y-43442496D01*
X46174584Y-43473527D01*
X46188496Y-43504526D01*
X46202481Y-43535492D01*
X46216539Y-43566425D01*
X46230670Y-43597326D01*
X46244873Y-43628193D01*
X46259150Y-43659026D01*
X46273499Y-43689826D01*
X46287920Y-43720593D01*
X46302414Y-43751325D01*
X46316980Y-43782024D01*
X46331619Y-43812688D01*
X46346329Y-43843317D01*
X46361112Y-43873912D01*
X46375967Y-43904473D01*
X46390894Y-43934998D01*
X46405893Y-43965488D01*
X46420963Y-43995943D01*
X46436106Y-44026363D01*
X46451320Y-44056747D01*
X46466605Y-44087095D01*
X46481962Y-44117407D01*
X46497390Y-44147683D01*
X46512890Y-44177923D01*
X46528461Y-44208126D01*
X46544103Y-44238293D01*
X46559815Y-44268422D01*
X46575599Y-44298515D01*
X46583518Y-44313548D01*
X46591454Y-44328571D01*
X46599408Y-44343585D01*
X46607380Y-44358589D01*
X46615369Y-44373584D01*
X46623376Y-44388570D01*
X46631400Y-44403546D01*
X46639442Y-44418513D01*
X46647502Y-44433471D01*
X46655580Y-44448419D01*
X46663675Y-44463357D01*
X46671787Y-44478286D01*
X46679918Y-44493206D01*
X46688065Y-44508115D01*
X46696231Y-44523016D01*
X46704414Y-44537906D01*
X46712614Y-44552787D01*
X46720832Y-44567659D01*
X46729067Y-44582521D01*
X46737320Y-44597373D01*
X46745591Y-44612215D01*
X46753879Y-44627048D01*
X46762184Y-44641870D01*
X46770507Y-44656684D01*
X46778847Y-44671487D01*
X46787205Y-44686280D01*
X46795580Y-44701064D01*
X46803972Y-44715838D01*
X46812382Y-44730602D01*
X46820810Y-44745356D01*
X46829254Y-44760100D01*
X46837716Y-44774834D01*
X46846196Y-44789559D01*
X46854692Y-44804273D01*
X46863206Y-44818977D01*
X46871738Y-44833671D01*
X46880286Y-44848356D01*
X46888852Y-44863030D01*
X46897435Y-44877694D01*
X46906036Y-44892348D01*
X46914654Y-44906992D01*
X46923289Y-44921626D01*
X46931941Y-44936249D01*
X46940610Y-44950863D01*
X46949297Y-44965466D01*
X46958001Y-44980059D01*
X46966721Y-44994642D01*
X46975460Y-45009214D01*
X46984215Y-45023776D01*
X46992987Y-45038328D01*
X47001777Y-45052870D01*
X47010584Y-45067401D01*
X47019407Y-45081922D01*
X47028248Y-45096432D01*
X47037106Y-45110932D01*
X47045981Y-45125422D01*
X47054873Y-45139901D01*
X47063783Y-45154370D01*
X47072709Y-45168828D01*
X47081652Y-45183276D01*
X47090612Y-45197713D01*
X47099590Y-45212140D01*
X47108584Y-45226556D01*
X47117595Y-45240962D01*
X47126623Y-45255357D01*
X47135668Y-45269741D01*
X47144730Y-45284115D01*
X47153809Y-45298478D01*
X47162905Y-45312830D01*
X47172018Y-45327172D01*
X47181147Y-45341503D01*
X47190294Y-45355823D01*
X47199457Y-45370132D01*
X47208637Y-45384431D01*
X47217834Y-45398719D01*
X47227048Y-45412996D01*
X47236278Y-45427262D01*
X47245526Y-45441517D01*
X47254790Y-45455761D01*
X47264071Y-45469995D01*
X47273369Y-45484217D01*
X47282683Y-45498429D01*
X47292014Y-45512630D01*
X47301363Y-45526820D01*
X47310727Y-45540998D01*
X47320108Y-45555166D01*
X47329506Y-45569322D01*
X47338921Y-45583468D01*
X47348352Y-45597602D01*
X47357800Y-45611726D01*
X47367265Y-45625838D01*
X47376746Y-45639939D01*
X47386244Y-45654029D01*
X47395758Y-45668108D01*
X47405289Y-45682175D01*
X47414837Y-45696232D01*
X47424401Y-45710277D01*
X47433981Y-45724311D01*
X47443578Y-45738333D01*
X47453192Y-45752345D01*
X47462822Y-45766345D01*
X47472469Y-45780334D01*
X47482132Y-45794311D01*
X47491812Y-45808277D01*
X47501507Y-45822231D01*
X47511220Y-45836175D01*
X47520949Y-45850106D01*
X47530694Y-45864027D01*
X47540455Y-45877935D01*
X47550234Y-45891833D01*
X47560028Y-45905719D01*
X47569839Y-45919593D01*
X47579665Y-45933456D01*
X47589509Y-45947307D01*
X47599368Y-45961146D01*
X47609245Y-45974975D01*
X47619137Y-45988791D01*
X47629045Y-46002596D01*
X47638970Y-46016389D01*
X47648911Y-46030171D01*
X47658868Y-46043940D01*
X47668842Y-46057698D01*
X47678831Y-46071444D01*
X47688837Y-46085179D01*
X47698859Y-46098902D01*
X47708897Y-46112613D01*
X47718952Y-46126312D01*
X47729022Y-46140000D01*
X47739109Y-46153675D01*
X47749211Y-46167339D01*
X47759330Y-46180990D01*
X47769465Y-46194631D01*
X47779616Y-46208258D01*
X47789783Y-46221875D01*
X47799966Y-46235478D01*
X47810165Y-46249071D01*
X47820380Y-46262651D01*
X47830611Y-46276219D01*
X47840858Y-46289775D01*
X47851121Y-46303319D01*
X47861400Y-46316851D01*
X47871695Y-46330371D01*
X47882005Y-46343879D01*
X47892332Y-46357375D01*
X47902675Y-46370858D01*
X47913033Y-46384330D01*
X47923408Y-46397789D01*
X47933798Y-46411236D01*
X47944204Y-46424670D01*
X47954626Y-46438093D01*
X47965063Y-46451503D01*
X47975517Y-46464902D01*
X47985986Y-46478287D01*
X47996472Y-46491661D01*
X48006972Y-46505022D01*
X48017489Y-46518371D01*
X48028021Y-46531707D01*
X48038569Y-46545032D01*
X48049133Y-46558343D01*
X48059713Y-46571643D01*
X48070307Y-46584930D01*
X48080918Y-46598204D01*
X48088946Y-46608226D01*
D11*
X74475894Y-34479354D02*
G75*
G02*
X74906800Y-32712345I329906J855594D01*
G01*
D10*
X57675374Y-51918106D02*
X57709140Y-51922024D01*
X57742914Y-51925863D01*
X57776697Y-51929622D01*
X57810489Y-51933301D01*
X57844290Y-51936901D01*
X57878099Y-51940422D01*
X57911916Y-51943862D01*
X57945740Y-51947224D01*
X57979573Y-51950505D01*
X58013413Y-51953707D01*
X58047261Y-51956830D01*
X58081115Y-51959872D01*
X58114977Y-51962835D01*
X58148846Y-51965719D01*
X58182721Y-51968522D01*
X58216603Y-51971246D01*
X58250491Y-51973890D01*
X58284385Y-51976454D01*
X58318285Y-51978939D01*
X58352191Y-51981344D01*
X58386102Y-51983669D01*
X58420019Y-51985914D01*
X58453941Y-51988079D01*
X58487867Y-51990165D01*
X58521799Y-51992170D01*
X58555736Y-51994096D01*
X58589676Y-51995942D01*
X58623622Y-51997708D01*
X58657571Y-51999394D01*
X58691524Y-52001001D01*
X58725481Y-52002527D01*
X58759441Y-52003973D01*
X58793404Y-52005340D01*
X58827371Y-52006626D01*
X58861341Y-52007833D01*
X58895314Y-52008960D01*
X58929289Y-52010007D01*
X58963266Y-52010973D01*
X58997246Y-52011860D01*
X59031228Y-52012667D01*
X59065212Y-52013394D01*
X59099197Y-52014041D01*
X59133184Y-52014608D01*
X59167172Y-52015095D01*
X59201161Y-52015502D01*
X59235151Y-52015829D01*
X59269142Y-52016075D01*
X59303133Y-52016242D01*
X59337125Y-52016329D01*
X59371116Y-52016336D01*
X59405108Y-52016263D01*
X59439100Y-52016110D01*
X59473091Y-52015877D01*
X59507081Y-52015564D01*
X59541071Y-52015171D01*
X59575060Y-52014698D01*
X59609048Y-52014145D01*
X59643034Y-52013512D01*
X59677019Y-52012799D01*
X59711002Y-52012006D01*
X59744983Y-52011134D01*
X59778962Y-52010181D01*
X59812938Y-52009148D01*
X59846912Y-52008035D01*
X59880884Y-52006842D01*
X59914852Y-52005570D01*
X59948818Y-52004217D01*
X59982780Y-52002784D01*
X60016739Y-52001272D01*
X60050694Y-51999680D01*
X60084646Y-51998007D01*
X60118593Y-51996255D01*
X60152536Y-51994423D01*
X60186475Y-51992511D01*
X60220410Y-51990519D01*
X60254339Y-51988447D01*
X60288264Y-51986296D01*
X60322183Y-51984064D01*
X60356097Y-51981753D01*
X60390006Y-51979362D01*
X60423908Y-51976891D01*
X60457805Y-51974341D01*
X60474752Y-51973036D01*
X60491696Y-51971710D01*
X60508639Y-51970365D01*
X60525581Y-51969000D01*
X60542521Y-51967615D01*
X60559459Y-51966210D01*
X60576395Y-51964786D01*
X60593330Y-51963341D01*
X60610263Y-51961876D01*
X60627195Y-51960392D01*
X60644125Y-51958887D01*
X60661052Y-51957363D01*
X60677978Y-51955818D01*
X60694903Y-51954254D01*
X60711825Y-51952670D01*
X60728746Y-51951066D01*
X60745664Y-51949442D01*
X60762581Y-51947798D01*
X60779496Y-51946134D01*
X60796408Y-51944450D01*
X60813319Y-51942747D01*
X60830228Y-51941023D01*
X60847135Y-51939280D01*
X60864039Y-51937516D01*
X60880942Y-51935733D01*
X60897842Y-51933930D01*
X60914741Y-51932107D01*
X60931637Y-51930264D01*
X60948531Y-51928401D01*
X60965422Y-51926519D01*
X60982312Y-51924616D01*
X60999199Y-51922694D01*
X61016084Y-51920752D01*
X61032967Y-51918790D01*
X61049847Y-51916808D01*
X61066725Y-51914806D01*
X61083601Y-51912784D01*
X61100474Y-51910742D01*
X61117345Y-51908681D01*
X61134213Y-51906600D01*
X61151079Y-51904499D01*
X61167943Y-51902378D01*
X61184803Y-51900237D01*
X61201662Y-51898076D01*
X61218517Y-51895896D01*
X61235371Y-51893696D01*
X61252221Y-51891475D01*
X61269069Y-51889235D01*
X61285915Y-51886976D01*
X61302757Y-51884696D01*
X61319597Y-51882397D01*
X61336434Y-51880077D01*
X61353269Y-51877738D01*
X61370101Y-51875379D01*
X61386929Y-51873001D01*
X61403756Y-51870602D01*
X61420579Y-51868184D01*
X61437399Y-51865746D01*
X61454217Y-51863288D01*
X61471031Y-51860811D01*
X61487843Y-51858313D01*
X61504652Y-51855796D01*
X61521457Y-51853259D01*
X61538260Y-51850702D01*
X61555059Y-51848126D01*
X61571856Y-51845529D01*
X61588650Y-51842913D01*
X61605440Y-51840278D01*
X61622227Y-51837622D01*
X61639012Y-51834947D01*
X61655792Y-51832252D01*
X61672570Y-51829537D01*
X61689345Y-51826802D01*
X61706116Y-51824048D01*
X61722884Y-51821274D01*
X61739649Y-51818480D01*
X61756411Y-51815667D01*
X61773169Y-51812834D01*
X61789923Y-51809981D01*
X61806675Y-51807108D01*
X61823423Y-51804216D01*
X61840168Y-51801304D01*
X61856909Y-51798372D01*
X61873647Y-51795421D01*
X61890381Y-51792449D01*
X61907112Y-51789459D01*
X61923838Y-51786448D01*
X61940562Y-51783418D01*
X61957282Y-51780368D01*
X61973999Y-51777298D01*
X61990711Y-51774209D01*
X62007420Y-51771100D01*
X62024126Y-51767972D01*
X62040828Y-51764824D01*
X62057525Y-51761656D01*
X62074220Y-51758468D01*
X62090910Y-51755261D01*
X62107597Y-51752034D01*
X62124280Y-51748788D01*
X62140959Y-51745522D01*
X62157634Y-51742236D01*
X62174306Y-51738931D01*
X62190973Y-51735606D01*
X62207636Y-51732262D01*
X62224296Y-51728898D01*
X62240951Y-51725514D01*
X62257603Y-51722110D01*
X62274251Y-51718688D01*
X62290894Y-51715245D01*
X62307533Y-51711783D01*
X62324168Y-51708301D01*
X62340800Y-51704800D01*
X62357427Y-51701279D01*
X62374050Y-51697739D01*
X62390668Y-51694179D01*
X62407283Y-51690599D01*
X62423893Y-51687000D01*
X62440500Y-51683382D01*
X62457101Y-51679744D01*
X62473699Y-51676086D01*
X62490292Y-51672409D01*
X62506881Y-51668712D01*
X62523465Y-51664996D01*
X62540046Y-51661260D01*
X62556621Y-51657505D01*
X62573193Y-51653730D01*
X62589759Y-51649936D01*
X62606322Y-51646122D01*
X62622879Y-51642289D01*
X62639433Y-51638436D01*
X62655982Y-51634564D01*
X62672526Y-51630672D01*
X62689065Y-51626761D01*
X62705601Y-51622830D01*
X62722131Y-51618880D01*
X62738657Y-51614911D01*
X62755178Y-51610922D01*
X62771695Y-51606913D01*
X62788206Y-51602886D01*
X62804713Y-51598838D01*
X62821215Y-51594771D01*
X62837713Y-51590685D01*
X62854205Y-51586580D01*
X62870693Y-51582455D01*
X62887176Y-51578310D01*
X62903654Y-51574147D01*
X62920127Y-51569963D01*
X62936596Y-51565761D01*
X62953058Y-51561539D01*
X62969517Y-51557298D01*
X62985970Y-51553037D01*
X63002419Y-51548757D01*
X63018862Y-51544457D01*
X63035300Y-51540139D01*
X63051733Y-51535801D01*
X63068162Y-51531443D01*
X63084584Y-51527066D01*
X63101003Y-51522670D01*
X63117415Y-51518255D01*
X63133823Y-51513820D01*
X63150225Y-51509366D01*
X63166622Y-51504892D01*
X63183014Y-51500400D01*
X63199401Y-51495888D01*
X63215781Y-51491357D01*
X63232158Y-51486806D01*
X63240635Y-51484442D01*
X52357930Y-50207191D02*
X52387679Y-50223627D01*
X52417467Y-50239992D01*
X52447294Y-50256287D01*
X52477158Y-50272512D01*
X52507061Y-50288667D01*
X52537002Y-50304751D01*
X52566980Y-50320765D01*
X52596996Y-50336708D01*
X52627049Y-50352580D01*
X52657140Y-50368382D01*
X52687268Y-50384112D01*
X52717432Y-50399772D01*
X52747634Y-50415361D01*
X52777872Y-50430878D01*
X52808146Y-50446325D01*
X52838457Y-50461700D01*
X52868804Y-50477004D01*
X52899187Y-50492236D01*
X52929605Y-50507397D01*
X52960059Y-50522486D01*
X52990549Y-50537503D01*
X53021074Y-50552449D01*
X53051634Y-50567322D01*
X53082230Y-50582124D01*
X53112860Y-50596854D01*
X53143524Y-50611512D01*
X53174223Y-50626097D01*
X53204957Y-50640611D01*
X53235724Y-50655051D01*
X53266526Y-50669420D01*
X53297361Y-50683716D01*
X53328230Y-50697939D01*
X53359132Y-50712090D01*
X53390068Y-50726168D01*
X53421037Y-50740173D01*
X53452039Y-50754106D01*
X53483073Y-50767965D01*
X53514140Y-50781751D01*
X53545240Y-50795464D01*
X53576372Y-50809104D01*
X53607536Y-50822671D01*
X53638732Y-50836164D01*
X53669959Y-50849584D01*
X53701218Y-50862931D01*
X53732509Y-50876204D01*
X53763831Y-50889403D01*
X53795184Y-50902528D01*
X53826568Y-50915580D01*
X53857982Y-50928558D01*
X53889428Y-50941462D01*
X53920903Y-50954292D01*
X53952409Y-50967048D01*
X53983944Y-50979729D01*
X54015510Y-50992337D01*
X54047105Y-51004870D01*
X54078730Y-51017329D01*
X54110384Y-51029713D01*
X54142067Y-51042023D01*
X54173779Y-51054258D01*
X54205520Y-51066419D01*
X54237290Y-51078505D01*
X54269088Y-51090516D01*
X54300914Y-51102452D01*
X54332769Y-51114314D01*
X54364651Y-51126100D01*
X54396561Y-51137812D01*
X54428498Y-51149448D01*
X54460463Y-51161009D01*
X54492455Y-51172495D01*
X54524475Y-51183906D01*
X54556521Y-51195241D01*
X54588593Y-51206501D01*
X54620692Y-51217685D01*
X54652818Y-51228794D01*
X54684969Y-51239828D01*
X54717147Y-51250785D01*
X54749350Y-51261667D01*
X54781579Y-51272473D01*
X54813833Y-51283203D01*
X54846112Y-51293857D01*
X54878417Y-51304435D01*
X54910746Y-51314938D01*
X54943100Y-51325364D01*
X54959286Y-51330548D01*
X54975479Y-51335714D01*
X54991677Y-51340860D01*
X55007882Y-51345987D01*
X55024092Y-51351096D01*
X55040309Y-51356185D01*
X55056531Y-51361255D01*
X55072760Y-51366306D01*
X55088994Y-51371338D01*
X55105234Y-51376351D01*
X55121480Y-51381344D01*
X55137732Y-51386319D01*
X55153990Y-51391274D01*
X55170254Y-51396211D01*
X55186524Y-51401128D01*
X55202799Y-51406026D01*
X55219080Y-51410905D01*
X55235367Y-51415765D01*
X55251660Y-51420605D01*
X55267958Y-51425427D01*
X55284262Y-51430229D01*
X55300571Y-51435012D01*
X55316887Y-51439776D01*
X55333207Y-51444520D01*
X55349534Y-51449246D01*
X55365866Y-51453952D01*
X55382203Y-51458639D01*
X55398546Y-51463307D01*
X55414895Y-51467955D01*
X55431249Y-51472584D01*
X55447608Y-51477194D01*
X55463973Y-51481785D01*
X55480343Y-51486357D01*
X55496719Y-51490909D01*
X55513100Y-51495442D01*
X55529486Y-51499956D01*
X55545877Y-51504450D01*
X55562274Y-51508925D01*
X55578676Y-51513381D01*
X55595084Y-51517818D01*
X55611496Y-51522235D01*
X55627914Y-51526633D01*
X55644337Y-51531012D01*
X55660765Y-51535371D01*
X55677198Y-51539711D01*
X55693636Y-51544032D01*
X55710080Y-51548333D01*
X55726528Y-51552615D01*
X55742982Y-51556877D01*
X55759440Y-51561120D01*
X55775903Y-51565344D01*
X55792372Y-51569549D01*
X55808845Y-51573734D01*
X55825324Y-51577899D01*
X55841807Y-51582046D01*
X55858295Y-51586173D01*
X55874787Y-51590280D01*
X55891285Y-51594368D01*
X55907788Y-51598437D01*
X55924295Y-51602486D01*
X55940807Y-51606516D01*
X55957324Y-51610526D01*
X55973845Y-51614517D01*
X55990371Y-51618489D01*
X56006902Y-51622441D01*
X56023438Y-51626373D01*
X56039978Y-51630286D01*
X56056523Y-51634180D01*
X56073072Y-51638054D01*
X56089626Y-51641909D01*
X56106184Y-51645744D01*
X56122747Y-51649560D01*
X56139314Y-51653356D01*
X56155886Y-51657133D01*
X56172462Y-51660890D01*
X56189043Y-51664628D01*
X56205627Y-51668346D01*
X56222217Y-51672045D01*
X56238810Y-51675724D01*
X56255409Y-51679384D01*
X56272011Y-51683024D01*
X56288618Y-51686644D01*
X56305228Y-51690245D01*
X56321844Y-51693827D01*
X56338463Y-51697389D01*
X56355086Y-51700931D01*
X56371714Y-51704454D01*
X56388346Y-51707957D01*
X56404981Y-51711441D01*
X56421622Y-51714905D01*
X56438265Y-51718350D01*
X56454914Y-51721775D01*
X56471565Y-51725180D01*
X56488222Y-51728566D01*
X56504882Y-51731932D01*
X56521546Y-51735278D01*
X56538214Y-51738605D01*
X56554886Y-51741912D01*
X56571561Y-51745200D01*
X56588241Y-51748468D01*
X56604924Y-51751717D01*
X56621612Y-51754945D01*
X56638303Y-51758154D01*
X56654998Y-51761344D01*
X56671696Y-51764514D01*
X56688399Y-51767664D01*
X56705104Y-51770795D01*
X56721814Y-51773906D01*
X56738527Y-51776997D01*
X56755245Y-51780068D01*
X56771965Y-51783120D01*
X56788689Y-51786152D01*
X56805417Y-51789165D01*
X56822148Y-51792158D01*
X56838883Y-51795131D01*
X56855622Y-51798084D01*
X56872363Y-51801018D01*
X56889108Y-51803932D01*
X56905857Y-51806826D01*
X56922609Y-51809701D01*
X56939364Y-51812556D01*
X56956123Y-51815391D01*
X56972885Y-51818207D01*
X56989651Y-51821003D01*
X57006419Y-51823779D01*
X57023192Y-51826535D01*
X57039967Y-51829271D01*
X57056745Y-51831988D01*
X57073527Y-51834685D01*
X57090312Y-51837363D01*
X57107100Y-51840020D01*
X57123891Y-51842658D01*
X57140685Y-51845276D01*
X57157483Y-51847874D01*
X57174283Y-51850453D01*
X57191086Y-51853012D01*
X57207892Y-51855551D01*
X57224702Y-51858070D01*
X57241514Y-51860569D01*
X57258330Y-51863049D01*
X57275148Y-51865509D01*
X57291970Y-51867949D01*
X57308793Y-51870369D01*
X57325621Y-51872770D01*
X57342450Y-51875150D01*
X57359283Y-51877511D01*
X57376118Y-51879852D01*
X57392957Y-51882174D01*
X57409797Y-51884475D01*
X57426641Y-51886757D01*
X57443487Y-51889019D01*
X57460336Y-51891261D01*
X57477188Y-51893483D01*
X57494042Y-51895685D01*
X57510899Y-51897868D01*
X57527759Y-51900030D01*
X57544620Y-51902173D01*
X57561485Y-51904296D01*
X57578352Y-51906399D01*
X57595222Y-51908483D01*
X57612094Y-51910546D01*
X57628969Y-51912590D01*
X57645845Y-51914614D01*
X57662725Y-51916618D01*
X57675374Y-51918106D01*
D11*
X55807641Y-21835833D02*
G75*
G02*
X54812306Y-23360614I-405941J-822267D01*
G01*
D10*
X78343689Y-30055544D02*
X78365913Y-30048466D01*
X78388273Y-30041428D01*
X78410768Y-30034432D01*
X78433399Y-30027477D01*
X78456167Y-30020563D01*
X78479071Y-30013691D01*
X78502112Y-30006862D01*
X78525290Y-30000075D01*
X78548605Y-29993331D01*
X78572058Y-29986630D01*
X78595648Y-29979974D01*
X78619377Y-29973361D01*
X78643243Y-29966792D01*
X78667247Y-29960268D01*
X78691390Y-29953789D01*
X78715671Y-29947356D01*
X78740091Y-29940969D01*
X78764649Y-29934627D01*
X78789346Y-29928332D01*
X78814182Y-29922085D01*
X78839156Y-29915884D01*
X78864270Y-29909731D01*
X78889522Y-29903626D01*
X78914914Y-29897570D01*
X78940444Y-29891563D01*
X78966113Y-29885604D01*
X78991920Y-29879696D01*
X79017867Y-29873837D01*
X79043952Y-29868029D01*
X79070175Y-29862272D01*
X79096537Y-29856566D01*
X79123036Y-29850912D01*
X79149674Y-29845310D01*
X79176449Y-29839760D01*
X79203361Y-29834263D01*
X79230410Y-29828820D01*
X79257597Y-29823430D01*
X79284919Y-29818095D01*
X79312377Y-29812814D01*
X79339971Y-29807588D01*
X79367700Y-29802418D01*
X79395564Y-29797303D01*
X79423561Y-29792245D01*
X79451692Y-29787244D01*
X79479956Y-29782300D01*
X79508352Y-29777414D01*
X79536879Y-29772586D01*
X79565537Y-29767817D01*
X79594325Y-29763107D01*
X79623241Y-29758456D01*
X79652286Y-29753865D01*
X79681458Y-29749335D01*
X79710756Y-29744866D01*
X79740179Y-29740458D01*
X79769725Y-29736112D01*
X79799394Y-29731829D01*
X79829185Y-29727608D01*
X79859095Y-29723451D01*
X79889123Y-29719357D01*
X79919269Y-29715328D01*
X79949529Y-29711364D01*
X79979904Y-29707465D01*
X80010390Y-29703632D01*
X80040985Y-29699865D01*
X80071689Y-29696164D01*
X80102498Y-29692531D01*
X80133411Y-29688966D01*
X80164424Y-29685469D01*
X80195537Y-29682041D01*
X80226745Y-29678682D01*
X80258046Y-29675393D01*
X80289438Y-29672175D01*
X80320917Y-29669027D01*
X80352480Y-29665950D01*
X80384123Y-29662945D01*
X80415843Y-29660013D01*
X80447636Y-29657153D01*
X80479498Y-29654367D01*
X80511424Y-29651655D01*
X80543411Y-29649017D01*
X80575453Y-29646454D01*
X80607545Y-29643966D01*
X80639682Y-29641554D01*
X80671858Y-29639219D01*
X80704068Y-29636960D01*
X80736303Y-29634779D01*
X80768558Y-29632675D01*
X80800826Y-29630650D01*
X80833098Y-29628704D01*
X80865366Y-29626837D01*
X80897622Y-29625049D01*
X80929855Y-29623342D01*
X80962056Y-29621715D01*
X80994214Y-29620169D01*
X81026316Y-29618705D01*
X81058351Y-29617322D01*
X81090304Y-29616021D01*
X81122160Y-29614803D01*
X81153904Y-29613667D01*
X81185518Y-29612614D01*
X81216983Y-29611645D01*
X81248278Y-29610758D01*
X81279381Y-29609955D01*
X81310265Y-29609235D01*
X81340904Y-29608598D01*
X81371266Y-29608045D01*
X81401316Y-29607574D01*
X81431017Y-29607185D01*
X81460325Y-29606878D01*
X81489191Y-29606651D01*
X81517561Y-29606504D01*
X81545375Y-29606434D01*
X81557069Y-29606427D01*
X54341635Y-23379484D02*
X54345430Y-23375799D01*
X54349279Y-23372172D01*
X54353184Y-23368603D01*
X54357142Y-23365093D01*
X54361152Y-23361644D01*
X54365215Y-23358255D01*
X54369328Y-23354928D01*
X54373491Y-23351664D01*
X54377704Y-23348463D01*
X54381964Y-23345326D01*
X54386272Y-23342253D01*
X54390625Y-23339246D01*
X54395024Y-23336304D01*
X54397240Y-23334859D01*
X54399467Y-23333430D01*
X54401705Y-23332018D01*
X54403953Y-23330623D01*
X54406212Y-23329245D01*
X54408481Y-23327884D01*
X54410760Y-23326540D01*
X54413050Y-23325214D01*
X54415349Y-23323904D01*
X54417659Y-23322613D01*
X54419978Y-23321338D01*
X54422307Y-23320082D01*
X54424645Y-23318843D01*
X54426992Y-23317621D01*
X54429349Y-23316417D01*
X54431715Y-23315232D01*
X54434089Y-23314064D01*
X54436473Y-23312914D01*
X54438865Y-23311782D01*
X54441266Y-23310668D01*
X54443675Y-23309573D01*
X54446092Y-23308495D01*
X54448517Y-23307436D01*
X54450951Y-23306395D01*
X54454654Y-23304853D01*
X54265410Y-23491434D02*
X54267522Y-23486584D01*
X54269706Y-23481767D01*
X54271964Y-23476982D01*
X54274293Y-23472233D01*
X54276694Y-23467519D01*
X54279166Y-23462842D01*
X54281708Y-23458202D01*
X54284321Y-23453602D01*
X54287003Y-23449041D01*
X54289753Y-23444521D01*
X54292572Y-23440043D01*
X54295458Y-23435608D01*
X54298411Y-23431217D01*
X54299912Y-23429038D01*
X54301430Y-23426871D01*
X54302964Y-23424715D01*
X54304514Y-23422571D01*
X54306081Y-23420439D01*
X54307663Y-23418318D01*
X54309262Y-23416209D01*
X54310877Y-23414113D01*
X54312507Y-23412029D01*
X54314153Y-23409957D01*
X54315815Y-23407898D01*
X54317492Y-23405851D01*
X54319185Y-23403817D01*
X54320893Y-23401796D01*
X54322616Y-23399788D01*
X54324355Y-23397793D01*
X54326108Y-23395811D01*
X54327877Y-23393842D01*
X54329660Y-23391887D01*
X54331458Y-23389945D01*
X54333271Y-23388017D01*
X54335098Y-23386102D01*
X54336940Y-23384202D01*
X54338796Y-23382315D01*
X54341635Y-23379484D01*
X44992782Y-36105071D02*
X44989341Y-36138861D01*
X44985980Y-36172660D01*
X44982698Y-36206466D01*
X44979495Y-36240279D01*
X44976373Y-36274100D01*
X44973330Y-36307928D01*
X44970367Y-36341763D01*
X44967483Y-36375605D01*
X44964680Y-36409453D01*
X44961956Y-36443308D01*
X44959311Y-36477169D01*
X44956747Y-36511036D01*
X44954262Y-36544910D01*
X44951857Y-36578789D01*
X44949532Y-36612673D01*
X44947287Y-36646563D01*
X44945121Y-36680458D01*
X44943035Y-36714358D01*
X44941029Y-36748262D01*
X44939103Y-36782172D01*
X44937257Y-36816086D01*
X44935491Y-36850004D01*
X44933805Y-36883926D01*
X44932198Y-36917852D01*
X44930672Y-36951782D01*
X44929225Y-36985715D01*
X44927858Y-37019652D01*
X44926572Y-37053591D01*
X44925365Y-37087534D01*
X44924238Y-37121480D01*
X44923191Y-37155428D01*
X44922224Y-37189378D01*
X44921337Y-37223331D01*
X44920530Y-37257286D01*
X44919803Y-37291243D01*
X44919156Y-37325201D01*
X44918589Y-37359161D01*
X44918102Y-37393122D01*
X44917694Y-37427084D01*
X44917367Y-37461047D01*
X44917120Y-37495011D01*
X44916953Y-37528976D01*
X44916866Y-37562941D01*
X44916859Y-37596906D01*
X44916931Y-37630871D01*
X44917084Y-37664835D01*
X44917317Y-37698800D01*
X44917630Y-37732764D01*
X44918023Y-37766727D01*
X44918495Y-37800689D01*
X44919048Y-37834650D01*
X44919681Y-37868610D01*
X44920394Y-37902568D01*
X44921186Y-37936524D01*
X44922059Y-37970479D01*
X44923012Y-38004431D01*
X44924044Y-38038381D01*
X44925157Y-38072329D01*
X44926349Y-38106274D01*
X44927622Y-38140217D01*
X44928974Y-38174156D01*
X44930407Y-38208092D01*
X44931919Y-38242025D01*
X44933511Y-38275954D01*
X44935183Y-38309879D01*
X44936935Y-38343800D01*
X44938767Y-38377718D01*
X44940679Y-38411630D01*
X44942671Y-38445539D01*
X44944742Y-38479442D01*
X44946894Y-38513341D01*
X44949125Y-38547235D01*
X44951436Y-38581123D01*
X44953827Y-38615006D01*
X44956297Y-38648883D01*
X44958848Y-38682754D01*
X44961478Y-38716619D01*
X44964188Y-38750478D01*
X44966977Y-38784331D01*
X44969847Y-38818177D01*
X44972796Y-38852016D01*
X44975825Y-38885848D01*
X44978933Y-38919673D01*
X44980517Y-38936583D01*
X44982121Y-38953491D01*
X44983745Y-38970397D01*
X44985389Y-38987301D01*
X44987053Y-39004203D01*
X44988737Y-39021104D01*
X44990440Y-39038002D01*
X44992164Y-39054898D01*
X44993907Y-39071792D01*
X44995670Y-39088684D01*
X44997453Y-39105574D01*
X44999256Y-39122462D01*
X45001079Y-39139348D01*
X45002922Y-39156232D01*
X45004785Y-39173113D01*
X45006667Y-39189993D01*
X45008570Y-39206870D01*
X45010492Y-39223745D01*
X45012434Y-39240617D01*
X45014396Y-39257487D01*
X45016378Y-39274355D01*
X45018380Y-39291221D01*
X45020402Y-39308084D01*
X45022443Y-39324945D01*
X45024505Y-39341804D01*
X45026586Y-39358660D01*
X45028687Y-39375513D01*
X45030808Y-39392364D01*
X45032948Y-39409213D01*
X45035109Y-39426059D01*
X45037289Y-39442903D01*
X45039490Y-39459744D01*
X45041710Y-39476582D01*
X45043950Y-39493418D01*
X45046209Y-39510251D01*
X45048489Y-39527081D01*
X45050788Y-39543909D01*
X45053108Y-39560734D01*
X45055447Y-39577556D01*
X45057805Y-39594376D01*
X45060184Y-39611193D01*
X45062583Y-39628007D01*
X45065001Y-39644818D01*
X45067439Y-39661626D01*
X45069897Y-39678432D01*
X45072374Y-39695234D01*
X45074872Y-39712034D01*
X45077389Y-39728830D01*
X45079926Y-39745624D01*
X45082483Y-39762415D01*
X45085059Y-39779202D01*
X45087655Y-39795987D01*
X45090271Y-39812768D01*
X45092907Y-39829547D01*
X45095563Y-39846322D01*
X45098238Y-39863095D01*
X45100933Y-39879864D01*
X45103648Y-39896630D01*
X45106382Y-39913392D01*
X45109137Y-39930152D01*
X45111911Y-39946908D01*
X45114704Y-39963661D01*
X45117518Y-39980410D01*
X45120351Y-39997157D01*
X45123204Y-40013900D01*
X45126077Y-40030639D01*
X45128969Y-40047376D01*
X45131881Y-40064109D01*
X45134813Y-40080838D01*
X45137764Y-40097564D01*
X45140735Y-40114286D01*
X45143726Y-40131005D01*
X45146737Y-40147720D01*
X45149767Y-40164432D01*
X45152817Y-40181141D01*
X45155887Y-40197845D01*
X45158976Y-40214546D01*
X45162085Y-40231244D01*
X45165213Y-40247937D01*
X45168362Y-40264628D01*
X45171529Y-40281314D01*
X45174717Y-40297997D01*
X45177924Y-40314675D01*
X45181151Y-40331351D01*
X45184397Y-40348022D01*
X45187664Y-40364689D01*
X45190949Y-40381353D01*
X45194255Y-40398013D01*
X45197580Y-40414668D01*
X45200924Y-40431320D01*
X45204288Y-40447968D01*
X45207672Y-40464612D01*
X45211075Y-40481252D01*
X45214498Y-40497888D01*
X45217941Y-40514520D01*
X45221403Y-40531148D01*
X45224885Y-40547772D01*
X45228386Y-40564392D01*
X45231907Y-40581007D01*
X45235448Y-40597619D01*
X45239008Y-40614226D01*
X45242587Y-40630829D01*
X45246186Y-40647428D01*
X45249805Y-40664023D01*
X45253443Y-40680613D01*
X45257101Y-40697200D01*
X45260778Y-40713781D01*
X45264475Y-40730359D01*
X45268191Y-40746932D01*
X45271927Y-40763501D01*
X45275682Y-40780065D01*
X45279457Y-40796625D01*
X45283252Y-40813180D01*
X45287066Y-40829731D01*
X45290899Y-40846278D01*
X45294752Y-40862820D01*
X45298624Y-40879357D01*
X45302516Y-40895890D01*
X45306427Y-40912418D01*
X45310358Y-40928943D01*
X45314308Y-40945461D01*
X45318278Y-40961976D01*
X45322267Y-40978486D01*
X45326275Y-40994991D01*
X45330303Y-41011491D01*
X45334351Y-41027987D01*
X45338418Y-41044478D01*
X45342504Y-41060964D01*
X45346610Y-41077445D01*
X45350735Y-41093922D01*
X45354879Y-41110394D01*
X45359043Y-41126861D01*
X45363226Y-41143322D01*
X45367429Y-41159780D01*
X45371651Y-41176232D01*
X45375893Y-41192679D01*
X45380153Y-41209121D01*
X45384434Y-41225558D01*
X45388733Y-41241990D01*
X45393052Y-41258418D01*
X45397390Y-41274839D01*
X45401748Y-41291256D01*
X45406125Y-41307668D01*
X45410521Y-41324075D01*
X45414937Y-41340476D01*
X45419372Y-41356873D01*
X45423826Y-41373264D01*
X45428300Y-41389650D01*
X45432792Y-41406030D01*
X45437305Y-41422406D01*
X45441836Y-41438776D01*
X45446387Y-41455141D01*
X45450957Y-41471500D01*
X45455546Y-41487855D01*
X45460154Y-41504203D01*
X45464782Y-41520547D01*
X45469429Y-41536884D01*
X45474096Y-41553217D01*
X45478781Y-41569544D01*
X45483486Y-41585866D01*
X45488210Y-41602181D01*
X45492953Y-41618492D01*
X45497715Y-41634797D01*
X45502497Y-41651097D01*
X45504584Y-41658188D01*
D11*
X64450000Y-37496718D02*
G75*
G02*
X63150000Y-37496718I-650000J0D01*
G01*
X63150000Y-37496718D02*
G75*
G02*
X64450000Y-37496718I650000J0D01*
G01*
D10*
X46626171Y-30771872D02*
X46610166Y-30801842D01*
X46594231Y-30831850D01*
X46578367Y-30861895D01*
X46562573Y-30891978D01*
X46546851Y-30922097D01*
X46531199Y-30952253D01*
X46515619Y-30982446D01*
X46500110Y-31012676D01*
X46484672Y-31042942D01*
X46469305Y-31073244D01*
X46454010Y-31103582D01*
X46438786Y-31133957D01*
X46423634Y-31164367D01*
X46408553Y-31194812D01*
X46393544Y-31225293D01*
X46378607Y-31255809D01*
X46363742Y-31286361D01*
X46348949Y-31316947D01*
X46334227Y-31347568D01*
X46319578Y-31378223D01*
X46305002Y-31408913D01*
X46290497Y-31439638D01*
X46276065Y-31470396D01*
X46261705Y-31501188D01*
X46247418Y-31532014D01*
X46233203Y-31562874D01*
X46219061Y-31593767D01*
X46204992Y-31624693D01*
X46190996Y-31655652D01*
X46177072Y-31686644D01*
X46163222Y-31717669D01*
X46149445Y-31748727D01*
X46135740Y-31779817D01*
X46122109Y-31810939D01*
X46108552Y-31842093D01*
X46095067Y-31873279D01*
X46081657Y-31904496D01*
X46068319Y-31935746D01*
X46055056Y-31967026D01*
X46041865Y-31998338D01*
X46028749Y-32029681D01*
X46015707Y-32061054D01*
X46002738Y-32092458D01*
X45989843Y-32123893D01*
X45977023Y-32155358D01*
X45964276Y-32186853D01*
X45951604Y-32218378D01*
X45939006Y-32249933D01*
X45926482Y-32281518D01*
X45914032Y-32313131D01*
X45901658Y-32344775D01*
X45889357Y-32376447D01*
X45877131Y-32408148D01*
X45864980Y-32439878D01*
X45852904Y-32471636D01*
X45840902Y-32503423D01*
X45828975Y-32535238D01*
X45817123Y-32567081D01*
X45805347Y-32598952D01*
X45793645Y-32630850D01*
X45782018Y-32662776D01*
X45770467Y-32694729D01*
X45758991Y-32726709D01*
X45747590Y-32758717D01*
X45736264Y-32790751D01*
X45725014Y-32822811D01*
X45713840Y-32854898D01*
X45702741Y-32887012D01*
X45691718Y-32919151D01*
X45680770Y-32951316D01*
X45669898Y-32983507D01*
X45659102Y-33015723D01*
X45648382Y-33047965D01*
X45637738Y-33080231D01*
X45627170Y-33112523D01*
X45616678Y-33144839D01*
X45606262Y-33177180D01*
X45595922Y-33209546D01*
X45585659Y-33241936D01*
X45575471Y-33274349D01*
X45565361Y-33306787D01*
X45560334Y-33323014D01*
X45555326Y-33339248D01*
X45550338Y-33355487D01*
X45545368Y-33371733D01*
X45540418Y-33387984D01*
X45535487Y-33404241D01*
X45530575Y-33420504D01*
X45525682Y-33436772D01*
X45520808Y-33453046D01*
X45515954Y-33469326D01*
X45511118Y-33485612D01*
X45506302Y-33501903D01*
X45501505Y-33518200D01*
X45496728Y-33534502D01*
X45491969Y-33550811D01*
X45487230Y-33567124D01*
X45482509Y-33583443D01*
X45477809Y-33599768D01*
X45473127Y-33616099D01*
X45468464Y-33632434D01*
X45463821Y-33648776D01*
X45459197Y-33665122D01*
X45454592Y-33681474D01*
X45450007Y-33697832D01*
X45445441Y-33714195D01*
X45440894Y-33730563D01*
X45436366Y-33746936D01*
X45431858Y-33763315D01*
X45427369Y-33779699D01*
X45422899Y-33796089D01*
X45418448Y-33812483D01*
X45414017Y-33828883D01*
X45409605Y-33845288D01*
X45405213Y-33861698D01*
X45400840Y-33878113D01*
X45396486Y-33894534D01*
X45392151Y-33910959D01*
X45387836Y-33927390D01*
X45383540Y-33943826D01*
X45379264Y-33960266D01*
X45375007Y-33976712D01*
X45370769Y-33993162D01*
X45366551Y-34009618D01*
X45362352Y-34026079D01*
X45358172Y-34042544D01*
X45354012Y-34059014D01*
X45349871Y-34075489D01*
X45345750Y-34091969D01*
X45341648Y-34108454D01*
X45337565Y-34124944D01*
X45333502Y-34141438D01*
X45329458Y-34157937D01*
X45325434Y-34174441D01*
X45321429Y-34190950D01*
X45317444Y-34207463D01*
X45313478Y-34223981D01*
X45309532Y-34240503D01*
X45305605Y-34257030D01*
X45301697Y-34273562D01*
X45297809Y-34290098D01*
X45293940Y-34306639D01*
X45290091Y-34323184D01*
X45286262Y-34339734D01*
X45282452Y-34356288D01*
X45278661Y-34372847D01*
X45274890Y-34389410D01*
X45271138Y-34405977D01*
X45267406Y-34422550D01*
X45263694Y-34439126D01*
X45260001Y-34455706D01*
X45256327Y-34472291D01*
X45252673Y-34488881D01*
X45249039Y-34505474D01*
X45245424Y-34522072D01*
X45241829Y-34538673D01*
X45238253Y-34555280D01*
X45234697Y-34571890D01*
X45231160Y-34588504D01*
X45227643Y-34605123D01*
X45224146Y-34621745D01*
X45220668Y-34638372D01*
X45217209Y-34655003D01*
X45213771Y-34671637D01*
X45210351Y-34688276D01*
X45206952Y-34704919D01*
X45203572Y-34721566D01*
X45200212Y-34738216D01*
X45196871Y-34754871D01*
X45193550Y-34771529D01*
X45190249Y-34788192D01*
X45186967Y-34804858D01*
X45183704Y-34821528D01*
X45180462Y-34838202D01*
X45177239Y-34854880D01*
X45174036Y-34871561D01*
X45170852Y-34888246D01*
X45167688Y-34904934D01*
X45164544Y-34921627D01*
X45161419Y-34938323D01*
X45158314Y-34955023D01*
X45155229Y-34971726D01*
X45152163Y-34988433D01*
X45149117Y-35005144D01*
X45146091Y-35021858D01*
X45143085Y-35038575D01*
X45140098Y-35055297D01*
X45137131Y-35072021D01*
X45134183Y-35088749D01*
X45131255Y-35105480D01*
X45128347Y-35122216D01*
X45125459Y-35138954D01*
X45122590Y-35155695D01*
X45119741Y-35172440D01*
X45116912Y-35189189D01*
X45114103Y-35205940D01*
X45111313Y-35222695D01*
X45108543Y-35239453D01*
X45105793Y-35256214D01*
X45103062Y-35272978D01*
X45100351Y-35289746D01*
X45097661Y-35306517D01*
X45094989Y-35323291D01*
X45092338Y-35340068D01*
X45089706Y-35356848D01*
X45087094Y-35373631D01*
X45084502Y-35390418D01*
X45081929Y-35407207D01*
X45079377Y-35423999D01*
X45076844Y-35440794D01*
X45074331Y-35457593D01*
X45071838Y-35474393D01*
X45069364Y-35491198D01*
X45066910Y-35508004D01*
X45064476Y-35524814D01*
X45062062Y-35541627D01*
X45059668Y-35558442D01*
X45057294Y-35575260D01*
X45054939Y-35592081D01*
X45052604Y-35608905D01*
X45050289Y-35625732D01*
X45047994Y-35642560D01*
X45045718Y-35659392D01*
X45043463Y-35676226D01*
X45041227Y-35693064D01*
X45039011Y-35709903D01*
X45036815Y-35726746D01*
X45034639Y-35743590D01*
X45032482Y-35760438D01*
X45030346Y-35777287D01*
X45028229Y-35794140D01*
X45026132Y-35810994D01*
X45024055Y-35827852D01*
X45021998Y-35844711D01*
X45019960Y-35861574D01*
X45017943Y-35878438D01*
X45015945Y-35895305D01*
X45013968Y-35912174D01*
X45012010Y-35929046D01*
X45010072Y-35945919D01*
X45008154Y-35962795D01*
X45006255Y-35979673D01*
X45004377Y-35996554D01*
X45002519Y-36013436D01*
X45000680Y-36030321D01*
X44998861Y-36047208D01*
X44997062Y-36064098D01*
X44995284Y-36080988D01*
X44993524Y-36097882D01*
X44992782Y-36105071D01*
D11*
X50691380Y-26038222D02*
G75*
G02*
X52975405Y-24762622I5873620J-7834378D01*
G01*
D10*
X74557718Y-34530965D02*
X74560938Y-34534065D01*
X74564103Y-34537222D01*
X74567211Y-34540436D01*
X74570260Y-34543705D01*
X74573251Y-34547028D01*
X74576183Y-34550404D01*
X74579053Y-34553832D01*
X74581862Y-34557311D01*
X74584609Y-34560840D01*
X74587292Y-34564418D01*
X74589910Y-34568043D01*
X74591195Y-34569873D01*
X74592464Y-34571714D01*
X74593716Y-34573567D01*
X74594951Y-34575431D01*
X74596170Y-34577306D01*
X74597372Y-34579192D01*
X74598557Y-34581089D01*
X74599725Y-34582996D01*
X74600876Y-34584913D01*
X74602010Y-34586841D01*
X74603127Y-34588779D01*
X74604226Y-34590727D01*
X74605307Y-34592684D01*
X74606372Y-34594652D01*
X74607418Y-34596628D01*
X74608447Y-34598614D01*
X74609458Y-34600609D01*
X74610451Y-34602614D01*
X74611426Y-34604626D01*
X74612384Y-34606648D01*
X74613821Y-34609776D01*
D11*
X55700000Y-37496718D02*
G75*
G02*
X54400000Y-37496718I-650000J0D01*
G01*
X54400000Y-37496718D02*
G75*
G02*
X55700000Y-37496718I650000J0D01*
G01*
D10*
X50691380Y-26038222D02*
X50664221Y-26058633D01*
X50637111Y-26079109D01*
X50610048Y-26099648D01*
X50583034Y-26120251D01*
X50556069Y-26140918D01*
X50529152Y-26161648D01*
X50502284Y-26182441D01*
X50475464Y-26203298D01*
X50448694Y-26224218D01*
X50421973Y-26245201D01*
X50395302Y-26266247D01*
X50368680Y-26287356D01*
X50342108Y-26308527D01*
X50315586Y-26329761D01*
X50289113Y-26351058D01*
X50262691Y-26372416D01*
X50236319Y-26393837D01*
X50209997Y-26415320D01*
X50183726Y-26436866D01*
X50157506Y-26458473D01*
X50131337Y-26480141D01*
X50105218Y-26501872D01*
X50079151Y-26523663D01*
X50053135Y-26545517D01*
X50027170Y-26567431D01*
X50001257Y-26589407D01*
X49975396Y-26611444D01*
X49949587Y-26633541D01*
X49923829Y-26655699D01*
X49898124Y-26677918D01*
X49872471Y-26700198D01*
X49846871Y-26722538D01*
X49821323Y-26744938D01*
X49795828Y-26767399D01*
X49770386Y-26789919D01*
X49744997Y-26812499D01*
X49719661Y-26835139D01*
X49694378Y-26857839D01*
X49669148Y-26880598D01*
X49643973Y-26903417D01*
X49618851Y-26926295D01*
X49593783Y-26949232D01*
X49568768Y-26972228D01*
X49543808Y-26995283D01*
X49518903Y-27018397D01*
X49494052Y-27041570D01*
X49469255Y-27064801D01*
X49444513Y-27088090D01*
X49432162Y-27099756D01*
X49419826Y-27111437D01*
X49407503Y-27123133D01*
X49395193Y-27134843D01*
X49382898Y-27146568D01*
X49370616Y-27158307D01*
X49358349Y-27170060D01*
X49346095Y-27181828D01*
X49333854Y-27193611D01*
X49321628Y-27205407D01*
X49309416Y-27217219D01*
X49297217Y-27229044D01*
X49285033Y-27240884D01*
X49272862Y-27252738D01*
X49260705Y-27264607D01*
X49248563Y-27276490D01*
X49236434Y-27288387D01*
X49224319Y-27300299D01*
X49212218Y-27312225D01*
X49200132Y-27324165D01*
X49188059Y-27336119D01*
X49176000Y-27348088D01*
X49163956Y-27360070D01*
X49151925Y-27372067D01*
X49139909Y-27384078D01*
X49127907Y-27396103D01*
X49115919Y-27408143D01*
X49103945Y-27420196D01*
X49091986Y-27432264D01*
X49080040Y-27444345D01*
X49068109Y-27456441D01*
X49056192Y-27468551D01*
X49044289Y-27480674D01*
X49032401Y-27492812D01*
X49020527Y-27504964D01*
X49008667Y-27517130D01*
X48996821Y-27529309D01*
X48984990Y-27541503D01*
X48973173Y-27553711D01*
X48961371Y-27565932D01*
X48949583Y-27578168D01*
X48937809Y-27590417D01*
X48926050Y-27602680D01*
X48914305Y-27614957D01*
X48902575Y-27627248D01*
X48890859Y-27639553D01*
X48879157Y-27651871D01*
X48867470Y-27664203D01*
X48855798Y-27676549D01*
X48844140Y-27688909D01*
X48832497Y-27701282D01*
X48820868Y-27713669D01*
X48809254Y-27726070D01*
X48797654Y-27738485D01*
X48786069Y-27750913D01*
X48774499Y-27763355D01*
X48762943Y-27775810D01*
X48751402Y-27788279D01*
X48739876Y-27800762D01*
X48728364Y-27813258D01*
X48716867Y-27825768D01*
X48705385Y-27838291D01*
X48693917Y-27850828D01*
X48682464Y-27863378D01*
X48671027Y-27875942D01*
X48659603Y-27888519D01*
X48648195Y-27901110D01*
X48636801Y-27913714D01*
X48625423Y-27926331D01*
X48614059Y-27938962D01*
X48602710Y-27951606D01*
X48591376Y-27964264D01*
X48580057Y-27976935D01*
X48568752Y-27989619D01*
X48557463Y-28002317D01*
X48546188Y-28015028D01*
X48534929Y-28027752D01*
X48523684Y-28040490D01*
X48512455Y-28053240D01*
X48501240Y-28066004D01*
X48490041Y-28078781D01*
X48478857Y-28091572D01*
X48467687Y-28104375D01*
X48456533Y-28117192D01*
X48445394Y-28130021D01*
X48434270Y-28142864D01*
X48423161Y-28155720D01*
X48412067Y-28168589D01*
X48400516Y-28182021D01*
D11*
X81557069Y-29606427D02*
X93013210Y-29606427D01*
X76585526Y-27427933D02*
G75*
G02*
X71725526Y-27427933I-2430000J0D01*
G01*
X71725526Y-27427933D02*
G75*
G02*
X76585526Y-27427933I2430000J0D01*
G01*
D10*
X71893000Y-44746883D02*
X71902641Y-44730009D01*
X71912242Y-44713166D01*
X71921788Y-44696379D01*
X71931294Y-44679622D01*
X71940746Y-44662919D01*
X71950158Y-44646246D01*
X71959517Y-44629627D01*
X71968836Y-44613037D01*
X71978104Y-44596499D01*
X71987332Y-44579989D01*
X71996509Y-44563531D01*
X72005647Y-44547101D01*
X72014735Y-44530720D01*
X72023784Y-44514368D01*
X72032784Y-44498063D01*
X72041746Y-44481787D01*
X72050659Y-44465557D01*
X72059535Y-44449354D01*
X72068362Y-44433197D01*
X72077152Y-44417067D01*
X72085895Y-44400982D01*
X72094601Y-44384922D01*
X72103261Y-44368907D01*
X72111884Y-44352916D01*
X72120461Y-44336969D01*
X72129003Y-44321046D01*
X72137499Y-44305165D01*
X72145960Y-44289308D01*
X72154376Y-44273492D01*
X72162757Y-44257700D01*
X72171095Y-44241947D01*
X72179397Y-44226218D01*
X72187657Y-44210526D01*
X72195881Y-44194858D01*
X72204064Y-44179227D01*
X72212212Y-44163619D01*
X72220320Y-44148046D01*
X72228393Y-44132496D01*
X72236425Y-44116981D01*
X72244423Y-44101487D01*
X72252382Y-44086028D01*
X72260307Y-44070589D01*
X72268193Y-44055183D01*
X72276046Y-44039799D01*
X72283860Y-44024445D01*
X72291641Y-44009113D01*
X72299385Y-43993810D01*
X72307095Y-43978528D01*
X72314769Y-43963275D01*
X72322410Y-43948043D01*
X72330015Y-43932838D01*
X72337588Y-43917652D01*
X72345125Y-43902494D01*
X72352630Y-43887355D01*
X72360100Y-43872241D01*
X72367538Y-43857147D01*
X72374942Y-43842077D01*
X72382315Y-43827025D01*
X72389653Y-43811997D01*
X72396961Y-43796988D01*
X72404236Y-43782000D01*
X72411479Y-43767031D01*
X72418691Y-43752082D01*
X72425871Y-43737152D01*
X72433020Y-43722241D01*
X72440138Y-43707347D01*
X72447225Y-43692473D01*
X72454282Y-43677615D01*
X72461309Y-43662775D01*
X72468305Y-43647952D01*
X72475272Y-43633145D01*
X72482209Y-43618354D01*
X72489116Y-43603579D01*
X72495994Y-43588820D01*
X72502843Y-43574075D01*
X72509663Y-43559346D01*
X72516455Y-43544630D01*
X72523218Y-43529929D01*
X72529953Y-43515240D01*
X72536660Y-43500566D01*
X72543339Y-43485903D01*
X72549990Y-43471255D01*
X72556615Y-43456616D01*
X72563211Y-43441991D01*
X72569781Y-43427376D01*
X72576324Y-43412774D01*
X72582840Y-43398179D01*
X72589330Y-43383598D01*
X72595794Y-43369024D01*
X72602231Y-43354462D01*
X72608643Y-43339906D01*
X72615028Y-43325363D01*
X72621389Y-43310824D01*
X72627724Y-43296296D01*
X72634035Y-43281773D01*
X72640319Y-43267260D01*
X72652815Y-43238252D01*
X72665214Y-43209267D01*
X72677517Y-43180304D01*
X72689726Y-43151359D01*
X72701842Y-43122428D01*
X72713866Y-43093510D01*
X72725800Y-43064599D01*
X72737646Y-43035695D01*
X72749404Y-43006792D01*
X72761077Y-42977888D01*
X72772665Y-42948979D01*
X72784170Y-42920063D01*
X72795594Y-42891136D01*
X72806938Y-42862193D01*
X72818203Y-42833233D01*
X72829391Y-42804251D01*
X72840503Y-42775244D01*
X72851541Y-42746208D01*
X72862505Y-42717140D01*
X72873398Y-42688035D01*
X72884220Y-42658890D01*
X72894974Y-42629702D01*
X72905660Y-42600465D01*
X72916280Y-42571177D01*
X72926835Y-42541834D01*
X72937327Y-42512430D01*
X72947757Y-42482962D01*
X72958127Y-42453425D01*
X72968437Y-42423816D01*
X72978690Y-42394129D01*
X72988887Y-42364361D01*
X72999029Y-42334505D01*
X73009118Y-42304558D01*
X73019155Y-42274515D01*
X73029142Y-42244370D01*
X73039080Y-42214119D01*
X73048971Y-42183755D01*
X73058816Y-42153274D01*
X73068617Y-42122670D01*
X73078375Y-42091937D01*
X73088092Y-42061070D01*
X73097770Y-42030061D01*
X73107411Y-41998904D01*
X73117015Y-41967594D01*
X73126586Y-41936123D01*
X73136124Y-41904485D01*
X73145631Y-41872672D01*
X73155109Y-41840676D01*
X73164561Y-41808490D01*
X73173987Y-41776106D01*
X73183391Y-41743515D01*
X73192773Y-41710709D01*
X73202137Y-41677679D01*
X73211484Y-41644414D01*
X73220817Y-41610907D01*
X73230137Y-41577145D01*
X73239448Y-41543118D01*
X73248752Y-41508816D01*
X73258050Y-41474227D01*
X73267347Y-41439337D01*
X73276645Y-41404134D01*
X73285946Y-41368605D01*
X73295255Y-41332735D01*
X73304573Y-41296509D01*
X73313904Y-41259911D01*
X73323253Y-41222924D01*
X73332622Y-41185530D01*
X73342015Y-41147711D01*
X73351437Y-41109445D01*
X73360892Y-41070712D01*
X73370385Y-41031489D01*
X73379920Y-40991751D01*
X73389504Y-40951471D01*
X73399141Y-40910621D01*
X73408838Y-40869172D01*
X73418601Y-40827089D01*
X73428437Y-40784337D01*
X73438355Y-40740878D01*
X73448362Y-40696668D01*
X73458468Y-40651663D01*
X73468682Y-40605810D01*
X73479016Y-40559055D01*
X73489482Y-40511334D01*
X73500093Y-40462580D01*
X73510865Y-40412713D01*
X73521815Y-40361648D01*
X73532962Y-40309285D01*
X73544327Y-40255511D01*
X73555938Y-40200197D01*
X73567823Y-40143191D01*
X73580016Y-40084316D01*
X73592560Y-40023360D01*
X73605504Y-39960068D01*
X73618908Y-39894127D01*
X73632851Y-39825145D01*
X73647431Y-39752618D01*
X73662776Y-39675880D01*
X73679068Y-39594013D01*
X73696566Y-39505689D01*
X73715674Y-39408841D01*
X73737092Y-39299896D01*
X73762255Y-39171519D01*
X73800778Y-38974559D01*
X73826298Y-38844042D01*
X73852244Y-38711502D01*
X73878658Y-38576877D01*
X73892053Y-38508763D01*
X73905581Y-38440104D01*
D11*
X55807641Y-21835833D02*
G75*
G02*
X55735508Y-21255668I154959J313833D01*
G01*
X93013210Y-20984311D02*
X56471980Y-20984311D01*
D10*
X63240635Y-51484442D02*
X63273364Y-51475263D01*
X63306071Y-51466008D01*
X63338757Y-51456675D01*
X63371420Y-51447266D01*
X63404061Y-51437780D01*
X63436680Y-51428217D01*
X63469276Y-51418577D01*
X63501849Y-51408861D01*
X63534400Y-51399068D01*
X63566927Y-51389198D01*
X63599431Y-51379252D01*
X63631911Y-51369230D01*
X63664368Y-51359131D01*
X63696801Y-51348955D01*
X63729210Y-51338704D01*
X63761594Y-51328376D01*
X63793955Y-51317972D01*
X63826291Y-51307491D01*
X63858602Y-51296935D01*
X63890888Y-51286303D01*
X63923149Y-51275594D01*
X63955385Y-51264810D01*
X63987596Y-51253950D01*
X64019781Y-51243014D01*
X64051940Y-51232003D01*
X64084073Y-51220915D01*
X64116181Y-51209753D01*
X64148261Y-51198514D01*
X64180316Y-51187200D01*
X64212344Y-51175811D01*
X64244345Y-51164346D01*
X64276319Y-51152806D01*
X64308265Y-51141191D01*
X64340185Y-51129501D01*
X64372077Y-51117735D01*
X64403941Y-51105894D01*
X64435777Y-51093979D01*
X64467586Y-51081988D01*
X64499366Y-51069923D01*
X64531118Y-51057783D01*
X64562841Y-51045568D01*
X64594535Y-51033279D01*
X64626201Y-51020914D01*
X64657837Y-51008476D01*
X64689444Y-50995963D01*
X64721022Y-50983375D01*
X64752570Y-50970714D01*
X64784088Y-50957978D01*
X64815576Y-50945168D01*
X64847034Y-50932283D01*
X64878462Y-50919325D01*
X64909859Y-50906293D01*
X64941226Y-50893187D01*
X64972561Y-50880007D01*
X65003866Y-50866753D01*
X65035140Y-50853426D01*
X65066382Y-50840025D01*
X65097592Y-50826551D01*
X65128771Y-50813003D01*
X65159918Y-50799382D01*
X65191033Y-50785687D01*
X65222116Y-50771920D01*
X65253166Y-50758079D01*
X65284184Y-50744165D01*
X65315168Y-50730178D01*
X65346120Y-50716118D01*
X65377039Y-50701986D01*
X65407925Y-50687780D01*
X65438777Y-50673502D01*
X65469595Y-50659152D01*
X65500380Y-50644729D01*
X65531130Y-50630233D01*
X65561847Y-50615666D01*
X65592529Y-50601025D01*
X65623176Y-50586313D01*
X65653789Y-50571529D01*
X65684368Y-50556672D01*
X65714911Y-50541744D01*
X65745419Y-50526744D01*
X65775891Y-50511672D01*
X65806328Y-50496528D01*
X65836730Y-50481313D01*
X65867095Y-50466026D01*
X65882264Y-50458356D01*
X65897425Y-50450668D01*
X65912576Y-50442962D01*
X65927718Y-50435239D01*
X65942851Y-50427497D01*
X65957975Y-50419738D01*
X65973089Y-50411961D01*
X65988195Y-50404166D01*
X66003291Y-50396354D01*
X66018379Y-50388523D01*
X66033457Y-50380675D01*
X66048525Y-50372809D01*
X66063585Y-50364926D01*
X66078635Y-50357024D01*
X66093676Y-50349105D01*
X66108708Y-50341169D01*
X66123730Y-50333214D01*
X66138743Y-50325242D01*
X66153746Y-50317253D01*
X66168740Y-50309245D01*
X66183725Y-50301220D01*
X66198700Y-50293178D01*
X66213665Y-50285118D01*
X66228622Y-50277040D01*
X66243568Y-50268944D01*
X66258505Y-50260831D01*
X66273433Y-50252701D01*
X66288351Y-50244553D01*
X66303259Y-50236387D01*
X66318158Y-50228204D01*
X66333047Y-50220003D01*
X66347927Y-50211785D01*
X66362797Y-50203549D01*
X66377657Y-50195296D01*
X66392507Y-50187025D01*
X66407348Y-50178737D01*
X66422178Y-50170432D01*
X66437000Y-50162108D01*
X66451811Y-50153768D01*
X66466612Y-50145410D01*
X66481404Y-50137035D01*
X66496185Y-50128642D01*
X66510957Y-50120232D01*
X66525719Y-50111804D01*
X66540471Y-50103360D01*
X66555213Y-50094897D01*
X66569945Y-50086418D01*
X66584667Y-50077921D01*
X66599379Y-50069407D01*
X66614081Y-50060876D01*
X66628773Y-50052327D01*
X66643455Y-50043761D01*
X66658127Y-50035178D01*
X66672788Y-50026577D01*
X66687440Y-50017959D01*
X66702081Y-50009324D01*
X66716712Y-50000672D01*
X66731333Y-49992003D01*
X66745944Y-49983316D01*
X66760545Y-49974612D01*
X66775135Y-49965891D01*
X66789715Y-49957153D01*
X66804284Y-49948398D01*
X66818844Y-49939625D01*
X66833393Y-49930836D01*
X66847932Y-49922029D01*
X66862460Y-49913206D01*
X66876978Y-49904365D01*
X66891485Y-49895507D01*
X66905982Y-49886632D01*
X66920469Y-49877740D01*
X66934945Y-49868831D01*
X66949410Y-49859905D01*
X66963865Y-49850962D01*
X66978310Y-49842002D01*
X66992744Y-49833025D01*
X67007167Y-49824031D01*
X67021580Y-49815020D01*
X67035982Y-49805992D01*
X67050374Y-49796947D01*
X67064754Y-49787885D01*
X67079124Y-49778807D01*
X67093484Y-49769711D01*
X67107833Y-49760599D01*
X67122170Y-49751469D01*
X67136498Y-49742323D01*
X67150814Y-49733160D01*
X67165120Y-49723980D01*
X67179414Y-49714784D01*
X67193699Y-49705570D01*
X67207971Y-49696340D01*
X67222234Y-49687093D01*
X67236485Y-49677829D01*
X67250726Y-49668548D01*
X67264955Y-49659251D01*
X67279174Y-49649937D01*
X67293381Y-49640606D01*
X67307578Y-49631258D01*
X67321763Y-49621894D01*
X67335938Y-49612513D01*
X67350101Y-49603116D01*
X67364253Y-49593702D01*
X67378394Y-49584271D01*
X67392525Y-49574823D01*
X67406644Y-49565359D01*
X67420752Y-49555879D01*
X67434848Y-49546381D01*
X67448934Y-49536867D01*
X67463008Y-49527337D01*
X67477071Y-49517790D01*
X67491123Y-49508227D01*
X67505163Y-49498646D01*
X67519192Y-49489050D01*
X67533211Y-49479437D01*
X67547217Y-49469808D01*
X67561212Y-49460161D01*
X67575196Y-49450499D01*
X67589169Y-49440820D01*
X67603130Y-49431125D01*
X67617079Y-49421413D01*
X67631017Y-49411685D01*
X67644944Y-49401940D01*
X67658859Y-49392179D01*
X67672764Y-49382402D01*
X67686656Y-49372608D01*
X67700537Y-49362798D01*
X67714405Y-49352972D01*
X67728263Y-49343129D01*
X67742109Y-49333271D01*
X67755944Y-49323395D01*
X67769766Y-49313504D01*
X67783578Y-49303596D01*
X67797377Y-49293672D01*
X67811165Y-49283732D01*
X67824941Y-49273775D01*
X67838705Y-49263803D01*
X67852458Y-49253814D01*
X67866199Y-49243809D01*
X67879927Y-49233788D01*
X67893645Y-49223750D01*
X67907350Y-49213697D01*
X67921044Y-49203627D01*
X67934725Y-49193542D01*
X67948396Y-49183439D01*
X67962053Y-49173322D01*
X67975700Y-49163188D01*
X67989334Y-49153038D01*
X68002956Y-49142872D01*
X68016566Y-49132690D01*
X68030165Y-49122491D01*
X68043751Y-49112277D01*
X68057325Y-49102047D01*
X68070887Y-49091801D01*
X68084437Y-49081539D01*
X68097975Y-49071261D01*
X68111502Y-49060967D01*
X68125015Y-49050657D01*
X68138517Y-49040331D01*
X68152006Y-49029990D01*
X68165484Y-49019632D01*
X68178949Y-49009259D01*
X68192402Y-48998870D01*
X68205843Y-48988465D01*
X68219272Y-48978044D01*
X68233361Y-48967083D01*
X75398462Y-32459074D02*
X75404327Y-32448588D01*
X75410222Y-32438088D01*
X75416071Y-32427713D01*
X75421950Y-32417326D01*
X75427785Y-32407057D01*
X75433650Y-32396776D01*
X75439473Y-32386609D01*
X75445327Y-32376430D01*
X75451142Y-32366358D01*
X75456986Y-32356277D01*
X75462793Y-32346299D01*
X75468630Y-32336310D01*
X75474432Y-32326421D01*
X75480264Y-32316522D01*
X75486062Y-32306719D01*
X75491889Y-32296906D01*
X75497686Y-32287185D01*
X75503511Y-32277456D01*
X75509306Y-32267814D01*
X75515130Y-32258165D01*
X75520927Y-32248601D01*
X75526751Y-32239029D01*
X75532549Y-32229539D01*
X75538375Y-32220043D01*
X75544176Y-32210625D01*
X75550005Y-32201201D01*
X75555810Y-32191853D01*
X75561642Y-32182500D01*
X75567452Y-32173220D01*
X75573290Y-32163935D01*
X75579106Y-32154722D01*
X75584949Y-32145503D01*
X75590772Y-32136354D01*
X75596621Y-32127200D01*
X75602452Y-32118114D01*
X75608309Y-32109023D01*
X75614148Y-32099998D01*
X75620014Y-32090969D01*
X75625862Y-32082003D01*
X75631736Y-32073034D01*
X75637594Y-32064127D01*
X75643479Y-32055217D01*
X75649347Y-32046366D01*
X75655242Y-32037513D01*
X75661122Y-32028719D01*
X75667028Y-32019922D01*
X75672919Y-32011182D01*
X75678837Y-32002440D01*
X75684741Y-31993753D01*
X75690671Y-31985065D01*
X75696587Y-31976431D01*
X75702530Y-31967795D01*
X75708460Y-31959212D01*
X75714416Y-31950628D01*
X75720360Y-31942096D01*
X75726330Y-31933562D01*
X75732288Y-31925080D01*
X75738272Y-31916596D01*
X75744246Y-31908162D01*
X75750245Y-31899727D01*
X75756233Y-31891341D01*
X75762247Y-31882954D01*
X75768252Y-31874615D01*
X75774281Y-31866276D01*
X75780302Y-31857983D01*
X75786347Y-31849690D01*
X75792384Y-31841443D01*
X75798446Y-31833195D01*
X75804500Y-31824993D01*
X75810579Y-31816791D01*
X75816650Y-31808632D01*
X75822746Y-31800475D01*
X75828835Y-31792360D01*
X75834948Y-31784246D01*
X75841055Y-31776174D01*
X75847186Y-31768103D01*
X75853311Y-31760074D01*
X75859461Y-31752045D01*
X75865604Y-31744058D01*
X75871772Y-31736071D01*
X75877934Y-31728125D01*
X75884121Y-31720180D01*
X75890302Y-31712275D01*
X75896508Y-31704370D01*
X75902709Y-31696505D01*
X75908935Y-31688641D01*
X75915155Y-31680816D01*
X75921400Y-31672992D01*
X75927641Y-31665206D01*
X75933906Y-31657421D01*
X75940167Y-31649674D01*
X75946452Y-31641928D01*
X75952733Y-31634219D01*
X75959039Y-31626512D01*
X75965341Y-31618841D01*
X75971668Y-31611172D01*
X75977991Y-31603539D01*
X75984338Y-31595908D01*
X75990683Y-31588311D01*
X75997051Y-31580718D01*
X76003417Y-31573158D01*
X76009807Y-31565601D01*
X76016195Y-31558078D01*
X76022607Y-31550558D01*
X76029017Y-31543071D01*
X76035450Y-31535587D01*
X76041882Y-31528136D01*
X76048338Y-31520687D01*
X76054792Y-31513272D01*
X76061270Y-31505859D01*
X76067747Y-31498478D01*
X76074248Y-31491101D01*
X76080748Y-31483755D01*
X76087271Y-31476412D01*
X76093794Y-31469101D01*
X76100340Y-31461793D01*
X76106886Y-31454516D01*
X76113456Y-31447242D01*
X76120025Y-31439999D01*
X76126619Y-31432759D01*
X76133212Y-31425549D01*
X76139828Y-31418343D01*
X76146445Y-31411167D01*
X76153085Y-31403995D01*
X76159726Y-31396851D01*
X76166391Y-31389712D01*
X76173055Y-31382602D01*
X76179744Y-31375496D01*
X76186433Y-31368418D01*
X76193146Y-31361345D01*
X76199860Y-31354299D01*
X76206597Y-31347258D01*
X76213336Y-31340245D01*
X76220098Y-31333237D01*
X76226862Y-31326255D01*
X76233649Y-31319279D01*
X76240437Y-31312329D01*
X76247249Y-31305384D01*
X76254063Y-31298466D01*
X76260900Y-31291553D01*
X76267740Y-31284666D01*
X76274602Y-31277785D01*
X76281467Y-31270929D01*
X76288355Y-31264078D01*
X76295246Y-31257254D01*
X76302160Y-31250434D01*
X76309076Y-31243640D01*
X76316016Y-31236852D01*
X76322959Y-31230088D01*
X76329925Y-31223330D01*
X76336894Y-31216597D01*
X76343886Y-31209870D01*
X76350881Y-31203167D01*
X76357900Y-31196470D01*
X76364922Y-31189797D01*
X76371967Y-31183130D01*
X76379016Y-31176487D01*
X76386087Y-31169850D01*
X76393163Y-31163236D01*
X76400262Y-31156629D01*
X76407364Y-31150045D01*
X76414490Y-31143468D01*
X76421620Y-31136914D01*
X76428773Y-31130365D01*
X76435930Y-31123840D01*
X76443111Y-31117322D01*
X76450295Y-31110826D01*
X76457503Y-31104336D01*
X76464716Y-31097869D01*
X76471951Y-31091409D01*
X76479192Y-31084971D01*
X76486455Y-31078539D01*
X76493723Y-31072130D01*
X76501015Y-31065727D01*
X76508311Y-31059347D01*
X76515631Y-31052973D01*
X76522956Y-31046621D01*
X76530303Y-31040275D01*
X76537657Y-31033951D01*
X76545033Y-31027634D01*
X76551610Y-31022024D01*
X48088946Y-46608226D02*
X48110237Y-46634718D01*
X48131591Y-46661159D01*
X48153007Y-46687551D01*
X48174485Y-46713891D01*
X48196024Y-46740182D01*
X48217626Y-46766421D01*
X48239289Y-46792609D01*
X48261014Y-46818747D01*
X48282800Y-46844833D01*
X48304648Y-46870868D01*
X48326557Y-46896851D01*
X48348527Y-46922783D01*
X48370558Y-46948663D01*
X48392650Y-46974491D01*
X48414802Y-47000267D01*
X48437016Y-47025991D01*
X48459289Y-47051662D01*
X48481624Y-47077281D01*
X48504018Y-47102848D01*
X48526473Y-47128362D01*
X48548987Y-47153822D01*
X48571562Y-47179230D01*
X48594196Y-47204585D01*
X48616890Y-47229886D01*
X48639643Y-47255134D01*
X48662456Y-47280329D01*
X48685328Y-47305470D01*
X48708260Y-47330556D01*
X48731250Y-47355589D01*
X48754299Y-47380568D01*
X48777407Y-47405493D01*
X48800574Y-47430363D01*
X48823799Y-47455178D01*
X48847083Y-47479939D01*
X48870425Y-47504645D01*
X48893825Y-47529297D01*
X48917283Y-47553893D01*
X48940799Y-47578434D01*
X48964372Y-47602919D01*
X48988004Y-47627349D01*
X49011693Y-47651724D01*
X49035439Y-47676042D01*
X49059242Y-47700305D01*
X49083103Y-47724512D01*
X49107020Y-47748663D01*
X49130995Y-47772757D01*
X49155026Y-47796795D01*
X49179113Y-47820776D01*
X49203257Y-47844701D01*
X49227458Y-47868569D01*
X49251714Y-47892380D01*
X49276027Y-47916134D01*
X49300395Y-47939830D01*
X49324820Y-47963469D01*
X49349299Y-47987051D01*
X49373835Y-48010575D01*
X49398426Y-48034042D01*
X49423072Y-48057450D01*
X49447773Y-48080801D01*
X49472529Y-48104093D01*
X49497339Y-48127327D01*
X49522205Y-48150503D01*
X49547125Y-48173620D01*
X49572099Y-48196678D01*
X49597128Y-48219678D01*
X49622210Y-48242618D01*
X49647347Y-48265500D01*
X49672538Y-48288323D01*
X49697782Y-48311086D01*
X49723080Y-48333790D01*
X49748431Y-48356434D01*
X49773835Y-48379018D01*
X49799293Y-48401543D01*
X49824803Y-48424008D01*
X49850367Y-48446412D01*
X49875983Y-48468757D01*
X49901651Y-48491041D01*
X49927372Y-48513265D01*
X49953145Y-48535428D01*
X49978971Y-48557530D01*
X50004848Y-48579572D01*
X50030777Y-48601553D01*
X50043761Y-48612520D01*
X50056758Y-48623472D01*
X50069768Y-48634409D01*
X50082791Y-48645331D01*
X50095826Y-48656237D01*
X50108874Y-48667128D01*
X50121936Y-48678003D01*
X50135009Y-48688864D01*
X50148096Y-48699708D01*
X50161196Y-48710538D01*
X50174308Y-48721352D01*
X50187433Y-48732150D01*
X50200570Y-48742933D01*
X50213721Y-48753701D01*
X50226883Y-48764453D01*
X50240059Y-48775190D01*
X50253247Y-48785911D01*
X50266448Y-48796616D01*
X50279661Y-48807306D01*
X50292887Y-48817981D01*
X50306126Y-48828640D01*
X50319377Y-48839283D01*
X50332641Y-48849911D01*
X50345917Y-48860523D01*
X50359205Y-48871119D01*
X50372506Y-48881700D01*
X50385820Y-48892265D01*
X50399146Y-48902815D01*
X50412484Y-48913349D01*
X50425835Y-48923867D01*
X50439198Y-48934369D01*
X50452573Y-48944856D01*
X50465961Y-48955327D01*
X50479361Y-48965782D01*
X50492773Y-48976221D01*
X50506198Y-48986645D01*
X50519635Y-48997053D01*
X50533084Y-49007445D01*
X50546545Y-49017821D01*
X50560018Y-49028181D01*
X50573504Y-49038525D01*
X50587002Y-49048854D01*
X50600512Y-49059166D01*
X50614034Y-49069463D01*
X50627568Y-49079744D01*
X50641115Y-49090009D01*
X50654673Y-49100258D01*
X50668243Y-49110491D01*
X50681826Y-49120708D01*
X50695420Y-49130909D01*
X50709026Y-49141094D01*
X50722645Y-49151263D01*
X50736275Y-49161415D01*
X50749918Y-49171552D01*
X50763572Y-49181673D01*
X50777238Y-49191778D01*
X50790916Y-49201866D01*
X50804606Y-49211939D01*
X50818307Y-49221995D01*
X50832021Y-49232036D01*
X50845746Y-49242060D01*
X50859483Y-49252068D01*
X50873232Y-49262059D01*
X50886993Y-49272035D01*
X50900765Y-49281994D01*
X50914549Y-49291937D01*
X50928344Y-49301864D01*
X50942152Y-49311775D01*
X50955971Y-49321669D01*
X50969801Y-49331547D01*
X50983643Y-49341409D01*
X50997497Y-49351255D01*
X51011363Y-49361084D01*
X51025240Y-49370897D01*
X51039128Y-49380693D01*
X51053028Y-49390474D01*
X51066939Y-49400237D01*
X51080863Y-49409985D01*
X51094797Y-49419716D01*
X51108743Y-49429431D01*
X51122700Y-49439129D01*
X51136669Y-49448811D01*
X51150648Y-49458476D01*
X51164640Y-49468125D01*
X51178642Y-49477757D01*
X51192657Y-49487373D01*
X51206682Y-49496972D01*
X51220719Y-49506555D01*
X51234766Y-49516121D01*
X51248825Y-49525671D01*
X51262896Y-49535204D01*
X51276977Y-49544721D01*
X51291070Y-49554221D01*
X51305174Y-49563705D01*
X51319289Y-49573171D01*
X51333415Y-49582622D01*
X51347552Y-49592055D01*
X51361700Y-49601472D01*
X51375860Y-49610873D01*
X51390030Y-49620256D01*
X51404211Y-49629623D01*
X51418404Y-49638974D01*
X51432607Y-49648307D01*
X51446822Y-49657624D01*
X51461047Y-49666924D01*
X51475284Y-49676207D01*
X51489531Y-49685474D01*
X51503789Y-49694724D01*
X51518058Y-49703956D01*
X51532338Y-49713173D01*
X51546628Y-49722372D01*
X51560930Y-49731555D01*
X51575242Y-49740720D01*
X51589565Y-49749869D01*
X51603899Y-49759001D01*
X51618243Y-49768116D01*
X51632598Y-49777214D01*
X51646964Y-49786296D01*
X51661341Y-49795360D01*
X51675728Y-49804407D01*
X51690126Y-49813438D01*
X51704535Y-49822451D01*
X51718953Y-49831448D01*
X51733383Y-49840428D01*
X51747823Y-49849390D01*
X51762274Y-49858336D01*
X51776735Y-49867264D01*
X51791207Y-49876176D01*
X51805689Y-49885070D01*
X51820182Y-49893948D01*
X51834685Y-49902808D01*
X51849199Y-49911652D01*
X51863723Y-49920478D01*
X51878257Y-49929287D01*
X51892802Y-49938079D01*
X51907357Y-49946854D01*
X51921922Y-49955612D01*
X51936498Y-49964353D01*
X51951083Y-49973076D01*
X51965680Y-49981783D01*
X51980286Y-49990472D01*
X51994903Y-49999144D01*
X52009530Y-50007798D01*
X52024167Y-50016436D01*
X52038814Y-50025056D01*
X52053471Y-50033660D01*
X52068139Y-50042245D01*
X52082816Y-50050814D01*
X52097504Y-50059365D01*
X52112202Y-50067899D01*
X52126909Y-50076416D01*
X52141627Y-50084915D01*
X52156355Y-50093397D01*
X52171093Y-50101862D01*
X52185840Y-50110309D01*
X52200598Y-50118740D01*
X52215366Y-50127152D01*
X52230143Y-50135548D01*
X52244930Y-50143925D01*
X52259728Y-50152286D01*
X52274535Y-50160629D01*
X52289352Y-50168955D01*
X52304178Y-50177263D01*
X52319015Y-50185554D01*
X52333861Y-50193827D01*
X52348718Y-50202083D01*
X52357930Y-50207191D01*
X54265410Y-23491434D02*
X54262280Y-23498749D01*
X54259136Y-23506045D01*
X54255978Y-23513324D01*
X54252807Y-23520585D01*
X54249620Y-23527828D01*
X54246421Y-23535053D01*
X54243207Y-23542261D01*
X54239979Y-23549451D01*
X54236737Y-23556623D01*
X54233481Y-23563778D01*
X54230210Y-23570916D01*
X54226926Y-23578036D01*
X54223628Y-23585139D01*
X54220316Y-23592225D01*
X54216989Y-23599294D01*
X54213649Y-23606345D01*
X54210295Y-23613380D01*
X54206926Y-23620397D01*
X54203543Y-23627399D01*
X54200147Y-23634382D01*
X54196736Y-23641350D01*
X54193311Y-23648301D01*
X54189872Y-23655236D01*
X54186419Y-23662153D01*
X54180396Y-23674113D01*
X75273254Y-32606580D02*
X75268282Y-32610486D01*
X75263261Y-32614329D01*
X75258192Y-32618109D01*
X75253076Y-32621824D01*
X75247913Y-32625474D01*
X75242704Y-32629058D01*
X75237450Y-32632577D01*
X75232151Y-32636028D01*
X75226810Y-32639413D01*
X75221425Y-32642730D01*
X75216000Y-32645978D01*
X75210533Y-32649158D01*
X75205026Y-32652269D01*
X75199481Y-32655309D01*
X75193897Y-32658280D01*
X75191091Y-32659738D01*
X75188276Y-32661179D01*
X75185452Y-32662602D01*
X75182619Y-32664007D01*
X75179777Y-32665395D01*
X75176926Y-32666764D01*
X75174067Y-32668115D01*
X75171199Y-32669448D01*
X75168323Y-32670763D01*
X75165439Y-32672060D01*
X75162546Y-32673338D01*
X75159645Y-32674598D01*
X75156737Y-32675840D01*
X75153820Y-32677063D01*
X75150896Y-32678268D01*
X75147964Y-32679455D01*
X75145026Y-32680622D01*
X75142079Y-32681772D01*
X75139125Y-32682902D01*
X75136164Y-32684014D01*
X75133197Y-32685107D01*
X75130222Y-32686182D01*
X75127241Y-32687237D01*
X75124252Y-32688274D01*
X75121258Y-32689291D01*
X75118257Y-32690290D01*
X75115250Y-32691270D01*
X75112236Y-32692231D01*
X75109217Y-32693172D01*
X75106191Y-32694095D01*
X75101420Y-32695507D01*
X68233361Y-48967083D02*
X68260153Y-48946163D01*
X68286895Y-48925180D01*
X68313587Y-48904134D01*
X68340230Y-48883026D01*
X68366824Y-48861855D01*
X68393367Y-48840622D01*
X68419860Y-48819326D01*
X68446303Y-48797968D01*
X68472696Y-48776547D01*
X68499038Y-48755065D01*
X68525329Y-48733521D01*
X68551570Y-48711915D01*
X68577759Y-48690247D01*
X68603898Y-48668518D01*
X68629985Y-48646727D01*
X68656021Y-48624875D01*
X68682006Y-48602962D01*
X68707938Y-48580988D01*
X68733819Y-48558953D01*
X68759648Y-48536857D01*
X68785425Y-48514700D01*
X68811150Y-48492483D01*
X68836822Y-48470205D01*
X68862442Y-48447867D01*
X68888009Y-48425469D01*
X68913524Y-48403010D01*
X68938985Y-48380492D01*
X68964393Y-48357914D01*
X68989748Y-48335276D01*
X69015050Y-48312578D01*
X69040298Y-48289821D01*
X69065493Y-48267005D01*
X69090634Y-48244129D01*
X69115721Y-48221195D01*
X69140754Y-48198201D01*
X69165732Y-48175148D01*
X69190657Y-48152037D01*
X69215527Y-48128867D01*
X69240342Y-48105639D01*
X69265102Y-48082353D01*
X69289808Y-48059008D01*
X69314459Y-48035605D01*
X69339054Y-48012144D01*
X69363594Y-47988626D01*
X69388079Y-47965050D01*
X69412508Y-47941416D01*
X69436881Y-47917725D01*
X69461199Y-47893976D01*
X69485460Y-47870171D01*
X69509666Y-47846308D01*
X69533815Y-47822389D01*
X69557908Y-47798413D01*
X69581944Y-47774380D01*
X69605924Y-47750290D01*
X69629846Y-47726145D01*
X69653712Y-47701943D01*
X69677521Y-47677685D01*
X69701272Y-47653372D01*
X69724967Y-47629002D01*
X69748603Y-47604577D01*
X69772183Y-47580096D01*
X69795704Y-47555560D01*
X69819168Y-47530969D01*
X69842573Y-47506322D01*
X69865921Y-47481621D01*
X69889210Y-47456865D01*
X69912440Y-47432054D01*
X69935613Y-47407188D01*
X69958726Y-47382269D01*
X69981781Y-47357295D01*
X70004777Y-47332266D01*
X70027714Y-47307184D01*
X70050591Y-47282048D01*
X70073410Y-47256859D01*
X70096169Y-47231615D01*
X70118868Y-47206319D01*
X70141508Y-47180969D01*
X70164087Y-47155566D01*
X70175355Y-47142845D01*
X70186607Y-47130110D01*
X70197845Y-47117362D01*
X70209067Y-47104601D01*
X70220274Y-47091827D01*
X70231467Y-47079040D01*
X70242644Y-47066239D01*
X70253806Y-47053426D01*
X70264953Y-47040599D01*
X70276085Y-47027759D01*
X70287201Y-47014906D01*
X70298303Y-47002041D01*
X70309389Y-46989162D01*
X70320460Y-46976270D01*
X70331516Y-46963365D01*
X70342557Y-46950447D01*
X70353583Y-46937516D01*
X70364593Y-46924573D01*
X70375588Y-46911616D01*
X70386567Y-46898646D01*
X70397532Y-46885664D01*
X70408481Y-46872669D01*
X70419415Y-46859660D01*
X70430333Y-46846639D01*
X70441236Y-46833606D01*
X70452124Y-46820559D01*
X70462996Y-46807500D01*
X70473853Y-46794428D01*
X70484694Y-46781343D01*
X70495520Y-46768245D01*
X70506331Y-46755135D01*
X70517126Y-46742012D01*
X70527905Y-46728877D01*
X70538670Y-46715728D01*
X70549418Y-46702568D01*
X70560151Y-46689394D01*
X70570869Y-46676208D01*
X70581571Y-46663010D01*
X70592257Y-46649799D01*
X70602928Y-46636575D01*
X70613583Y-46623339D01*
X70624222Y-46610090D01*
X70634846Y-46596829D01*
X70645455Y-46583555D01*
X70656047Y-46570269D01*
X70666624Y-46556971D01*
X70677185Y-46543660D01*
X70687731Y-46530337D01*
X70698260Y-46517001D01*
X70708775Y-46503653D01*
X70719273Y-46490293D01*
X70729755Y-46476921D01*
X70740222Y-46463536D01*
X70750673Y-46450139D01*
X70761108Y-46436729D01*
X70771527Y-46423308D01*
X70781931Y-46409874D01*
X70792318Y-46396428D01*
X70802690Y-46382970D01*
X70813046Y-46369500D01*
X70823386Y-46356017D01*
X70833710Y-46342523D01*
X70844018Y-46329016D01*
X70854310Y-46315497D01*
X70864586Y-46301967D01*
X70874847Y-46288424D01*
X70885091Y-46274869D01*
X70895319Y-46261302D01*
X70905531Y-46247723D01*
X70915727Y-46234133D01*
X70925907Y-46220530D01*
X70936072Y-46206915D01*
X70946220Y-46193289D01*
X70956352Y-46179650D01*
X70966467Y-46166000D01*
X70976567Y-46152338D01*
X70986651Y-46138664D01*
X70996718Y-46124978D01*
X71006769Y-46111281D01*
X71016805Y-46097571D01*
X71026823Y-46083850D01*
X71036826Y-46070117D01*
X71046813Y-46056373D01*
X71056783Y-46042617D01*
X71066737Y-46028849D01*
X71076675Y-46015069D01*
X71086596Y-46001278D01*
X71096502Y-45987475D01*
X71106390Y-45973661D01*
X71116263Y-45959835D01*
X71126119Y-45945997D01*
X71135960Y-45932148D01*
X71145783Y-45918288D01*
X71155590Y-45904415D01*
X71165381Y-45890532D01*
X71175156Y-45876637D01*
X71184914Y-45862730D01*
X71194656Y-45848812D01*
X71204381Y-45834883D01*
X71214090Y-45820942D01*
X71223782Y-45806990D01*
X71233458Y-45793027D01*
X71243117Y-45779052D01*
X71252760Y-45765066D01*
X71262386Y-45751069D01*
X71271996Y-45737060D01*
X71281589Y-45723040D01*
X71291166Y-45709009D01*
X71300726Y-45694967D01*
X71310270Y-45680913D01*
X71319797Y-45666849D01*
X71329308Y-45652773D01*
X71338801Y-45638686D01*
X71348279Y-45624588D01*
X71357739Y-45610479D01*
X71367183Y-45596358D01*
X71376610Y-45582227D01*
X71386021Y-45568085D01*
X71395414Y-45553932D01*
X71404792Y-45539767D01*
X71414152Y-45525592D01*
X71423496Y-45511405D01*
X71432823Y-45497208D01*
X71442133Y-45483000D01*
X71451426Y-45468781D01*
X71460703Y-45454551D01*
X71469962Y-45440311D01*
X71479206Y-45426059D01*
X71488432Y-45411797D01*
X71497641Y-45397523D01*
X71506834Y-45383239D01*
X71516009Y-45368944D01*
X71525168Y-45354639D01*
X71534310Y-45340322D01*
X71543435Y-45325996D01*
X71552543Y-45311658D01*
X71561634Y-45297310D01*
X71570708Y-45282951D01*
X71579765Y-45268581D01*
X71588806Y-45254201D01*
X71597829Y-45239811D01*
X71606836Y-45225409D01*
X71615825Y-45210997D01*
X71624797Y-45196575D01*
X71633752Y-45182142D01*
X71642691Y-45167698D01*
X71651612Y-45153245D01*
X71660516Y-45138780D01*
X71669403Y-45124306D01*
X71678274Y-45109820D01*
X71687126Y-45095325D01*
X71695962Y-45080819D01*
X71704781Y-45066303D01*
X71713583Y-45051776D01*
X71722367Y-45037240D01*
X71731134Y-45022692D01*
X71739884Y-45008135D01*
X71748618Y-44993567D01*
X71757333Y-44978990D01*
X71766032Y-44964401D01*
X71774713Y-44949803D01*
X71783377Y-44935194D01*
X71792024Y-44920576D01*
X71800654Y-44905947D01*
X71809266Y-44891308D01*
X71817862Y-44876659D01*
X71826439Y-44862000D01*
X71835000Y-44847331D01*
X71843543Y-44832652D01*
X71852069Y-44817962D01*
X71860578Y-44803264D01*
X71869069Y-44788554D01*
X71877543Y-44773835D01*
X71886000Y-44759106D01*
X71893000Y-44746883D01*
X54454654Y-23304853D02*
X54459564Y-23302884D01*
X54464503Y-23300990D01*
X54469470Y-23299171D01*
X54474465Y-23297427D01*
X54479485Y-23295758D01*
X54484530Y-23294166D01*
X54489599Y-23292649D01*
X54494690Y-23291210D01*
X54499803Y-23289848D01*
X54504935Y-23288563D01*
X54510087Y-23287356D01*
X54515257Y-23286226D01*
X54520443Y-23285175D01*
X54523042Y-23284679D01*
X54525645Y-23284203D01*
X54528251Y-23283746D01*
X54530861Y-23283309D01*
X54533473Y-23282892D01*
X54536090Y-23282494D01*
X54538708Y-23282116D01*
X54541330Y-23281758D01*
X54543955Y-23281420D01*
X54546582Y-23281102D01*
X54549211Y-23280804D01*
X54551842Y-23280525D01*
X54554476Y-23280267D01*
X54557111Y-23280028D01*
X54559748Y-23279809D01*
X54562387Y-23279610D01*
X54565027Y-23279431D01*
X54567669Y-23279272D01*
X54570311Y-23279134D01*
X54572955Y-23279015D01*
X54575599Y-23278916D01*
X54578245Y-23278837D01*
X54580890Y-23278778D01*
X54583537Y-23278739D01*
X54587546Y-23278718D01*
D11*
X93013210Y-20984311D02*
G75*
G02*
X95013189Y-22984311I-10J-1999989D01*
G01*
X95013210Y-27606427D02*
G75*
G02*
X93013210Y-29606410I-2000010J27D01*
G01*
X82682069Y-25429578D02*
G75*
G02*
X80432069Y-25429578I-1125000J0D01*
G01*
X80432069Y-25429578D02*
G75*
G02*
X82682069Y-25429578I1125000J0D01*
G01*
X95013210Y-27606427D02*
X95013210Y-22984311D01*
D10*
X75398462Y-32459074D02*
X75395346Y-32464575D01*
X75392160Y-32470037D01*
X75388905Y-32475457D01*
X75385582Y-32480836D01*
X75382191Y-32486173D01*
X75378733Y-32491467D01*
X75375208Y-32496717D01*
X75371617Y-32501921D01*
X75367960Y-32507081D01*
X75364239Y-32512193D01*
X75360452Y-32517258D01*
X75356602Y-32522275D01*
X75352689Y-32527244D01*
X75348713Y-32532162D01*
X75344675Y-32537030D01*
X75340575Y-32541846D01*
X75338503Y-32544235D01*
X75336415Y-32546611D01*
X75334313Y-32548973D01*
X75332195Y-32551322D01*
X75330063Y-32553657D01*
X75327916Y-32555980D01*
X75325755Y-32558288D01*
X75323578Y-32560583D01*
X75321388Y-32562864D01*
X75319182Y-32565131D01*
X75316963Y-32567384D01*
X75314729Y-32569623D01*
X75312481Y-32571848D01*
X75310219Y-32574059D01*
X75307944Y-32576255D01*
X75305654Y-32578437D01*
X75303351Y-32580604D01*
X75301033Y-32582757D01*
X75298703Y-32584895D01*
X75296359Y-32587018D01*
X75294001Y-32589127D01*
X75291630Y-32591220D01*
X75289246Y-32593299D01*
X75286849Y-32595362D01*
X75284439Y-32597410D01*
X75282015Y-32599443D01*
X75279579Y-32601461D01*
X75277130Y-32603463D01*
X75273254Y-32606580D01*
X53597433Y-24402402D02*
X53582259Y-24413190D01*
X53567478Y-24423671D01*
X53554823Y-24432618D01*
X53542443Y-24441345D01*
X53531401Y-24449103D01*
X53520566Y-24456689D01*
X53510671Y-24463592D01*
X53500939Y-24470356D01*
X53491910Y-24476606D01*
X53483011Y-24482741D01*
X53474658Y-24488474D01*
X53466412Y-24494110D01*
X53458602Y-24499422D01*
X53450878Y-24504651D01*
X53443509Y-24509615D01*
X53436212Y-24514507D01*
X53429205Y-24519179D01*
X53422257Y-24523787D01*
X53415550Y-24528212D01*
X53408891Y-24532580D01*
X53402431Y-24536794D01*
X53396010Y-24540957D01*
X53389755Y-24544990D01*
X53383529Y-24548979D01*
X53377440Y-24552857D01*
X53371374Y-24556696D01*
X53365419Y-24560441D01*
X53359480Y-24564152D01*
X53353629Y-24567784D01*
X53347788Y-24571386D01*
X53342015Y-24574923D01*
X53336246Y-24578434D01*
X53330527Y-24581891D01*
X53324806Y-24585326D01*
X53319116Y-24588718D01*
X53313420Y-24592091D01*
X53307740Y-24595431D01*
X53302047Y-24598755D01*
X53296353Y-24602057D01*
X53290642Y-24605345D01*
X53279164Y-24611885D01*
X53267570Y-24618399D01*
X53255818Y-24624909D01*
X53243862Y-24631441D01*
X53231657Y-24638017D01*
X53219152Y-24644664D01*
X53206294Y-24651408D01*
X53193024Y-24658277D01*
X53179278Y-24665303D01*
X53164984Y-24672519D01*
X53150059Y-24679963D01*
X53134412Y-24687678D01*
X53117932Y-24695715D01*
X53100494Y-24704130D01*
X53081942Y-24712993D01*
X53062094Y-24722388D01*
X53040717Y-24732417D01*
X53017520Y-24743212D01*
X52992121Y-24754945D01*
X52975406Y-24762624D01*
X54587546Y-23278718D02*
X54592836Y-23278761D01*
X54598125Y-23278884D01*
X54603411Y-23279086D01*
X54608694Y-23279369D01*
X54613972Y-23279731D01*
X54619244Y-23280173D01*
X54624509Y-23280695D01*
X54629766Y-23281297D01*
X54635013Y-23281977D01*
X54640250Y-23282737D01*
X54645474Y-23283576D01*
X54650686Y-23284494D01*
X54653286Y-23284983D01*
X54655883Y-23285491D01*
X54658476Y-23286019D01*
X54661065Y-23286566D01*
X54663649Y-23287133D01*
X54666230Y-23287720D01*
X54668805Y-23288326D01*
X54671377Y-23288951D01*
X54673943Y-23289596D01*
X54676505Y-23290260D01*
X54679061Y-23290944D01*
X54681612Y-23291647D01*
X54684158Y-23292369D01*
X54686699Y-23293111D01*
X54689233Y-23293871D01*
X54691762Y-23294651D01*
X54694285Y-23295450D01*
X54696802Y-23296268D01*
X54699312Y-23297105D01*
X54701817Y-23297961D01*
X54704315Y-23298836D01*
X54706806Y-23299730D01*
X54707148Y-23299854D01*
X54180396Y-23674113D02*
X54172545Y-23687662D01*
X54164874Y-23700862D01*
X54157528Y-23713462D01*
X54150346Y-23725740D01*
X54143456Y-23737480D01*
X54136716Y-23748925D01*
X54130239Y-23759884D01*
X54123898Y-23770573D01*
X54117792Y-23780826D01*
X54111812Y-23790829D01*
X54106043Y-23800441D01*
X54100389Y-23809822D01*
X54094923Y-23818852D01*
X54089562Y-23827670D01*
X54084370Y-23836173D01*
X54079273Y-23844480D01*
X54074326Y-23852506D01*
X54069466Y-23860351D01*
X54064738Y-23867946D01*
X54060091Y-23875374D01*
X54055558Y-23882582D01*
X54051098Y-23889635D01*
X54046738Y-23896494D01*
X54042445Y-23903211D01*
X54038235Y-23909760D01*
X54034086Y-23916178D01*
X54030006Y-23922453D01*
X54025981Y-23928607D01*
X54022010Y-23934642D01*
X54018088Y-23940565D01*
X54014206Y-23946393D01*
X54010368Y-23952119D01*
X54006554Y-23957775D01*
X54002779Y-23963337D01*
X53995278Y-23974283D01*
X53987818Y-23985030D01*
X53980351Y-23995651D01*
X53972818Y-24006229D01*
X53965150Y-24016861D01*
X53957263Y-24027664D01*
X53949046Y-24038787D01*
X53944890Y-24044365D01*
X74475894Y-34479354D02*
X74480051Y-34481000D01*
X74484177Y-34482719D01*
X74488272Y-34484512D01*
X74492335Y-34486379D01*
X74496364Y-34488317D01*
X74500357Y-34490328D01*
X74504315Y-34492409D01*
X74508234Y-34494562D01*
X74512115Y-34496784D01*
X74515955Y-34499075D01*
X74519754Y-34501435D01*
X74521638Y-34502640D01*
X74523511Y-34503862D01*
X74525372Y-34505101D01*
X74527223Y-34506356D01*
X74529062Y-34507628D01*
X74530890Y-34508916D01*
X74532706Y-34510221D01*
X74534511Y-34511542D01*
X74536304Y-34512879D01*
X74538085Y-34514232D01*
X74539853Y-34515601D01*
X74541610Y-34516985D01*
X74543353Y-34518386D01*
X74545085Y-34519802D01*
X74546803Y-34521233D01*
X74548509Y-34522680D01*
X74550202Y-34524142D01*
X74551882Y-34525619D01*
X74553548Y-34527111D01*
X74555201Y-34528618D01*
X74557718Y-34530965D01*
X54707148Y-23299854D02*
X54712105Y-23301702D01*
X54717033Y-23303625D01*
X54721932Y-23305622D01*
X54726801Y-23307693D01*
X54731637Y-23309838D01*
X54736441Y-23312055D01*
X54741211Y-23314345D01*
X54745945Y-23316706D01*
X54750644Y-23319139D01*
X54755305Y-23321643D01*
X54759929Y-23324217D01*
X54764512Y-23326861D01*
X54766789Y-23328209D01*
X54769056Y-23329574D01*
X54771312Y-23330956D01*
X54773558Y-23332355D01*
X54775793Y-23333771D01*
X54778017Y-23335204D01*
X54780231Y-23336653D01*
X54782433Y-23338120D01*
X54784624Y-23339603D01*
X54786805Y-23341102D01*
X54788973Y-23342618D01*
X54791130Y-23344151D01*
X54793276Y-23345699D01*
X54795410Y-23347264D01*
X54797531Y-23348845D01*
X54799642Y-23350442D01*
X54801739Y-23352055D01*
X54803825Y-23353684D01*
X54805898Y-23355328D01*
X54807959Y-23356988D01*
X54810007Y-23358664D01*
X54812043Y-23360355D01*
X54812325Y-23360592D01*
X53944890Y-24044365D02*
X53932153Y-24058566D01*
X53919765Y-24072349D01*
X53907989Y-24085421D01*
X53896530Y-24098110D01*
X53885621Y-24110161D01*
X53875002Y-24121861D01*
X53864877Y-24132988D01*
X53855018Y-24143793D01*
X53845602Y-24154082D01*
X53836429Y-24164076D01*
X53827655Y-24173605D01*
X53819104Y-24182864D01*
X53810911Y-24191705D01*
X53802921Y-24200297D01*
X53795254Y-24208513D01*
X53787773Y-24216500D01*
X53780580Y-24224150D01*
X53773559Y-24231589D01*
X53766795Y-24238727D01*
X53760187Y-24245670D01*
X53753809Y-24252343D01*
X53747575Y-24258837D01*
X53741543Y-24265091D01*
X53735644Y-24271179D01*
X53729922Y-24277056D01*
X53724321Y-24282779D01*
X53718875Y-24288317D01*
X53713539Y-24293713D01*
X53708335Y-24298948D01*
X53703233Y-24304053D01*
X53698241Y-24309019D01*
X53693341Y-24313866D01*
X53688530Y-24318596D01*
X53683804Y-24323217D01*
X53679144Y-24327744D01*
X53674561Y-24332170D01*
X53670022Y-24336525D01*
X53665551Y-24340787D01*
X53656714Y-24349132D01*
X53647980Y-24357272D01*
X53639274Y-24365279D01*
X53630508Y-24373235D01*
X53621572Y-24381241D01*
X53612321Y-24389425D01*
X53602549Y-24397967D01*
X53597433Y-24402402D01*
X75101420Y-32695507D02*
X75095338Y-32697233D01*
X75089234Y-32698882D01*
X75083110Y-32700454D01*
X75076967Y-32701948D01*
X75070804Y-32703365D01*
X75064625Y-32704704D01*
X75058428Y-32705964D01*
X75052217Y-32707146D01*
X75045990Y-32708249D01*
X75039750Y-32709273D01*
X75033497Y-32710219D01*
X75027233Y-32711085D01*
X75020957Y-32711872D01*
X75014673Y-32712580D01*
X75008379Y-32713208D01*
X75002079Y-32713756D01*
X74998926Y-32714001D01*
X74995771Y-32714225D01*
X74992615Y-32714429D01*
X74989458Y-32714614D01*
X74986300Y-32714778D01*
X74983141Y-32714923D01*
X74979980Y-32715048D01*
X74976819Y-32715152D01*
X74973658Y-32715237D01*
X74970496Y-32715301D01*
X74967334Y-32715346D01*
X74964171Y-32715370D01*
X74961008Y-32715375D01*
X74957845Y-32715359D01*
X74954683Y-32715324D01*
X74951521Y-32715269D01*
X74948359Y-32715193D01*
X74945197Y-32715098D01*
X74942037Y-32714982D01*
X74938877Y-32714847D01*
X74935718Y-32714691D01*
X74932559Y-32714516D01*
X74929403Y-32714321D01*
X74926247Y-32714105D01*
X74923093Y-32713870D01*
X74919940Y-32713615D01*
X74916789Y-32713339D01*
X74913639Y-32713044D01*
X74910492Y-32712729D01*
X74907346Y-32712394D01*
X74906801Y-32712334D01*
M02*
