%TF.GenerationSoftware,KiCad,Pcbnew,9.0.3*%
%TF.CreationDate,2025-07-21T12:26:19-07:00*%
%TF.ProjectId,UGC_SubStick_R5,5547435f-5375-4625-9374-69636b5f5235,rev?*%
%TF.SameCoordinates,Original*%
%TF.FileFunction,Legend,Top*%
%TF.FilePolarity,Positive*%
%FSLAX46Y46*%
G04 Gerber Fmt 4.6, Leading zero omitted, Abs format (unit mm)*
G04 Created by KiCad (PCBNEW 9.0.3) date 2025-07-21 12:26:19*
%MOMM*%
%LPD*%
G01*
G04 APERTURE LIST*
%ADD10C,0.100000*%
%ADD11C,0.120000*%
G04 APERTURE END LIST*
D10*
X50608000Y-29660171D02*
X50408000Y-29374457D01*
X50265143Y-29660171D02*
X50265143Y-29060171D01*
X50265143Y-29060171D02*
X50493714Y-29060171D01*
X50493714Y-29060171D02*
X50550857Y-29088742D01*
X50550857Y-29088742D02*
X50579428Y-29117314D01*
X50579428Y-29117314D02*
X50608000Y-29174457D01*
X50608000Y-29174457D02*
X50608000Y-29260171D01*
X50608000Y-29260171D02*
X50579428Y-29317314D01*
X50579428Y-29317314D02*
X50550857Y-29345885D01*
X50550857Y-29345885D02*
X50493714Y-29374457D01*
X50493714Y-29374457D02*
X50265143Y-29374457D01*
X51179428Y-29088742D02*
X51122286Y-29060171D01*
X51122286Y-29060171D02*
X51036571Y-29060171D01*
X51036571Y-29060171D02*
X50950857Y-29088742D01*
X50950857Y-29088742D02*
X50893714Y-29145885D01*
X50893714Y-29145885D02*
X50865143Y-29203028D01*
X50865143Y-29203028D02*
X50836571Y-29317314D01*
X50836571Y-29317314D02*
X50836571Y-29403028D01*
X50836571Y-29403028D02*
X50865143Y-29517314D01*
X50865143Y-29517314D02*
X50893714Y-29574457D01*
X50893714Y-29574457D02*
X50950857Y-29631600D01*
X50950857Y-29631600D02*
X51036571Y-29660171D01*
X51036571Y-29660171D02*
X51093714Y-29660171D01*
X51093714Y-29660171D02*
X51179428Y-29631600D01*
X51179428Y-29631600D02*
X51208000Y-29603028D01*
X51208000Y-29603028D02*
X51208000Y-29403028D01*
X51208000Y-29403028D02*
X51093714Y-29403028D01*
X51665143Y-29345885D02*
X51750857Y-29374457D01*
X51750857Y-29374457D02*
X51779428Y-29403028D01*
X51779428Y-29403028D02*
X51808000Y-29460171D01*
X51808000Y-29460171D02*
X51808000Y-29545885D01*
X51808000Y-29545885D02*
X51779428Y-29603028D01*
X51779428Y-29603028D02*
X51750857Y-29631600D01*
X51750857Y-29631600D02*
X51693714Y-29660171D01*
X51693714Y-29660171D02*
X51465143Y-29660171D01*
X51465143Y-29660171D02*
X51465143Y-29060171D01*
X51465143Y-29060171D02*
X51665143Y-29060171D01*
X51665143Y-29060171D02*
X51722286Y-29088742D01*
X51722286Y-29088742D02*
X51750857Y-29117314D01*
X51750857Y-29117314D02*
X51779428Y-29174457D01*
X51779428Y-29174457D02*
X51779428Y-29231600D01*
X51779428Y-29231600D02*
X51750857Y-29288742D01*
X51750857Y-29288742D02*
X51722286Y-29317314D01*
X51722286Y-29317314D02*
X51665143Y-29345885D01*
X51665143Y-29345885D02*
X51465143Y-29345885D01*
X52322286Y-29260171D02*
X52322286Y-29660171D01*
X52179428Y-29031600D02*
X52036571Y-29460171D01*
X52036571Y-29460171D02*
X52408000Y-29460171D01*
X47763200Y-43452371D02*
X47563200Y-43166657D01*
X47420343Y-43452371D02*
X47420343Y-42852371D01*
X47420343Y-42852371D02*
X47648914Y-42852371D01*
X47648914Y-42852371D02*
X47706057Y-42880942D01*
X47706057Y-42880942D02*
X47734628Y-42909514D01*
X47734628Y-42909514D02*
X47763200Y-42966657D01*
X47763200Y-42966657D02*
X47763200Y-43052371D01*
X47763200Y-43052371D02*
X47734628Y-43109514D01*
X47734628Y-43109514D02*
X47706057Y-43138085D01*
X47706057Y-43138085D02*
X47648914Y-43166657D01*
X47648914Y-43166657D02*
X47420343Y-43166657D01*
X48334628Y-42880942D02*
X48277486Y-42852371D01*
X48277486Y-42852371D02*
X48191771Y-42852371D01*
X48191771Y-42852371D02*
X48106057Y-42880942D01*
X48106057Y-42880942D02*
X48048914Y-42938085D01*
X48048914Y-42938085D02*
X48020343Y-42995228D01*
X48020343Y-42995228D02*
X47991771Y-43109514D01*
X47991771Y-43109514D02*
X47991771Y-43195228D01*
X47991771Y-43195228D02*
X48020343Y-43309514D01*
X48020343Y-43309514D02*
X48048914Y-43366657D01*
X48048914Y-43366657D02*
X48106057Y-43423800D01*
X48106057Y-43423800D02*
X48191771Y-43452371D01*
X48191771Y-43452371D02*
X48248914Y-43452371D01*
X48248914Y-43452371D02*
X48334628Y-43423800D01*
X48334628Y-43423800D02*
X48363200Y-43395228D01*
X48363200Y-43395228D02*
X48363200Y-43195228D01*
X48363200Y-43195228D02*
X48248914Y-43195228D01*
X48820343Y-43138085D02*
X48906057Y-43166657D01*
X48906057Y-43166657D02*
X48934628Y-43195228D01*
X48934628Y-43195228D02*
X48963200Y-43252371D01*
X48963200Y-43252371D02*
X48963200Y-43338085D01*
X48963200Y-43338085D02*
X48934628Y-43395228D01*
X48934628Y-43395228D02*
X48906057Y-43423800D01*
X48906057Y-43423800D02*
X48848914Y-43452371D01*
X48848914Y-43452371D02*
X48620343Y-43452371D01*
X48620343Y-43452371D02*
X48620343Y-42852371D01*
X48620343Y-42852371D02*
X48820343Y-42852371D01*
X48820343Y-42852371D02*
X48877486Y-42880942D01*
X48877486Y-42880942D02*
X48906057Y-42909514D01*
X48906057Y-42909514D02*
X48934628Y-42966657D01*
X48934628Y-42966657D02*
X48934628Y-43023800D01*
X48934628Y-43023800D02*
X48906057Y-43080942D01*
X48906057Y-43080942D02*
X48877486Y-43109514D01*
X48877486Y-43109514D02*
X48820343Y-43138085D01*
X48820343Y-43138085D02*
X48620343Y-43138085D01*
X49163200Y-42852371D02*
X49534628Y-42852371D01*
X49534628Y-42852371D02*
X49334628Y-43080942D01*
X49334628Y-43080942D02*
X49420343Y-43080942D01*
X49420343Y-43080942D02*
X49477486Y-43109514D01*
X49477486Y-43109514D02*
X49506057Y-43138085D01*
X49506057Y-43138085D02*
X49534628Y-43195228D01*
X49534628Y-43195228D02*
X49534628Y-43338085D01*
X49534628Y-43338085D02*
X49506057Y-43395228D01*
X49506057Y-43395228D02*
X49477486Y-43423800D01*
X49477486Y-43423800D02*
X49420343Y-43452371D01*
X49420343Y-43452371D02*
X49248914Y-43452371D01*
X49248914Y-43452371D02*
X49191771Y-43423800D01*
X49191771Y-43423800D02*
X49163200Y-43395228D01*
X67499000Y-28618771D02*
X67299000Y-28333057D01*
X67156143Y-28618771D02*
X67156143Y-28018771D01*
X67156143Y-28018771D02*
X67384714Y-28018771D01*
X67384714Y-28018771D02*
X67441857Y-28047342D01*
X67441857Y-28047342D02*
X67470428Y-28075914D01*
X67470428Y-28075914D02*
X67499000Y-28133057D01*
X67499000Y-28133057D02*
X67499000Y-28218771D01*
X67499000Y-28218771D02*
X67470428Y-28275914D01*
X67470428Y-28275914D02*
X67441857Y-28304485D01*
X67441857Y-28304485D02*
X67384714Y-28333057D01*
X67384714Y-28333057D02*
X67156143Y-28333057D01*
X68070428Y-28047342D02*
X68013286Y-28018771D01*
X68013286Y-28018771D02*
X67927571Y-28018771D01*
X67927571Y-28018771D02*
X67841857Y-28047342D01*
X67841857Y-28047342D02*
X67784714Y-28104485D01*
X67784714Y-28104485D02*
X67756143Y-28161628D01*
X67756143Y-28161628D02*
X67727571Y-28275914D01*
X67727571Y-28275914D02*
X67727571Y-28361628D01*
X67727571Y-28361628D02*
X67756143Y-28475914D01*
X67756143Y-28475914D02*
X67784714Y-28533057D01*
X67784714Y-28533057D02*
X67841857Y-28590200D01*
X67841857Y-28590200D02*
X67927571Y-28618771D01*
X67927571Y-28618771D02*
X67984714Y-28618771D01*
X67984714Y-28618771D02*
X68070428Y-28590200D01*
X68070428Y-28590200D02*
X68099000Y-28561628D01*
X68099000Y-28561628D02*
X68099000Y-28361628D01*
X68099000Y-28361628D02*
X67984714Y-28361628D01*
X68556143Y-28304485D02*
X68641857Y-28333057D01*
X68641857Y-28333057D02*
X68670428Y-28361628D01*
X68670428Y-28361628D02*
X68699000Y-28418771D01*
X68699000Y-28418771D02*
X68699000Y-28504485D01*
X68699000Y-28504485D02*
X68670428Y-28561628D01*
X68670428Y-28561628D02*
X68641857Y-28590200D01*
X68641857Y-28590200D02*
X68584714Y-28618771D01*
X68584714Y-28618771D02*
X68356143Y-28618771D01*
X68356143Y-28618771D02*
X68356143Y-28018771D01*
X68356143Y-28018771D02*
X68556143Y-28018771D01*
X68556143Y-28018771D02*
X68613286Y-28047342D01*
X68613286Y-28047342D02*
X68641857Y-28075914D01*
X68641857Y-28075914D02*
X68670428Y-28133057D01*
X68670428Y-28133057D02*
X68670428Y-28190200D01*
X68670428Y-28190200D02*
X68641857Y-28247342D01*
X68641857Y-28247342D02*
X68613286Y-28275914D01*
X68613286Y-28275914D02*
X68556143Y-28304485D01*
X68556143Y-28304485D02*
X68356143Y-28304485D01*
X69270428Y-28618771D02*
X68927571Y-28618771D01*
X69099000Y-28618771D02*
X69099000Y-28018771D01*
X69099000Y-28018771D02*
X69041857Y-28104485D01*
X69041857Y-28104485D02*
X68984714Y-28161628D01*
X68984714Y-28161628D02*
X68927571Y-28190200D01*
X57735800Y-49567428D02*
X57707228Y-49596000D01*
X57707228Y-49596000D02*
X57621514Y-49624571D01*
X57621514Y-49624571D02*
X57564371Y-49624571D01*
X57564371Y-49624571D02*
X57478657Y-49596000D01*
X57478657Y-49596000D02*
X57421514Y-49538857D01*
X57421514Y-49538857D02*
X57392943Y-49481714D01*
X57392943Y-49481714D02*
X57364371Y-49367428D01*
X57364371Y-49367428D02*
X57364371Y-49281714D01*
X57364371Y-49281714D02*
X57392943Y-49167428D01*
X57392943Y-49167428D02*
X57421514Y-49110285D01*
X57421514Y-49110285D02*
X57478657Y-49053142D01*
X57478657Y-49053142D02*
X57564371Y-49024571D01*
X57564371Y-49024571D02*
X57621514Y-49024571D01*
X57621514Y-49024571D02*
X57707228Y-49053142D01*
X57707228Y-49053142D02*
X57735800Y-49081714D01*
X58307228Y-49624571D02*
X57964371Y-49624571D01*
X58135800Y-49624571D02*
X58135800Y-49024571D01*
X58135800Y-49024571D02*
X58078657Y-49110285D01*
X58078657Y-49110285D02*
X58021514Y-49167428D01*
X58021514Y-49167428D02*
X57964371Y-49196000D01*
X62815800Y-48354571D02*
X62615800Y-48068857D01*
X62472943Y-48354571D02*
X62472943Y-47754571D01*
X62472943Y-47754571D02*
X62701514Y-47754571D01*
X62701514Y-47754571D02*
X62758657Y-47783142D01*
X62758657Y-47783142D02*
X62787228Y-47811714D01*
X62787228Y-47811714D02*
X62815800Y-47868857D01*
X62815800Y-47868857D02*
X62815800Y-47954571D01*
X62815800Y-47954571D02*
X62787228Y-48011714D01*
X62787228Y-48011714D02*
X62758657Y-48040285D01*
X62758657Y-48040285D02*
X62701514Y-48068857D01*
X62701514Y-48068857D02*
X62472943Y-48068857D01*
X63387228Y-48354571D02*
X63044371Y-48354571D01*
X63215800Y-48354571D02*
X63215800Y-47754571D01*
X63215800Y-47754571D02*
X63158657Y-47840285D01*
X63158657Y-47840285D02*
X63101514Y-47897428D01*
X63101514Y-47897428D02*
X63044371Y-47926000D01*
X52616199Y-46929000D02*
X52701914Y-46957571D01*
X52701914Y-46957571D02*
X52844771Y-46957571D01*
X52844771Y-46957571D02*
X52901914Y-46929000D01*
X52901914Y-46929000D02*
X52930485Y-46900428D01*
X52930485Y-46900428D02*
X52959056Y-46843285D01*
X52959056Y-46843285D02*
X52959056Y-46786142D01*
X52959056Y-46786142D02*
X52930485Y-46729000D01*
X52930485Y-46729000D02*
X52901914Y-46700428D01*
X52901914Y-46700428D02*
X52844771Y-46671857D01*
X52844771Y-46671857D02*
X52730485Y-46643285D01*
X52730485Y-46643285D02*
X52673342Y-46614714D01*
X52673342Y-46614714D02*
X52644771Y-46586142D01*
X52644771Y-46586142D02*
X52616199Y-46529000D01*
X52616199Y-46529000D02*
X52616199Y-46471857D01*
X52616199Y-46471857D02*
X52644771Y-46414714D01*
X52644771Y-46414714D02*
X52673342Y-46386142D01*
X52673342Y-46386142D02*
X52730485Y-46357571D01*
X52730485Y-46357571D02*
X52873342Y-46357571D01*
X52873342Y-46357571D02*
X52959056Y-46386142D01*
X53159057Y-46357571D02*
X53301914Y-46957571D01*
X53301914Y-46957571D02*
X53416200Y-46529000D01*
X53416200Y-46529000D02*
X53530485Y-46957571D01*
X53530485Y-46957571D02*
X53673343Y-46357571D01*
X54216199Y-46957571D02*
X53873342Y-46957571D01*
X54044771Y-46957571D02*
X54044771Y-46357571D01*
X54044771Y-46357571D02*
X53987628Y-46443285D01*
X53987628Y-46443285D02*
X53930485Y-46500428D01*
X53930485Y-46500428D02*
X53873342Y-46529000D01*
X70700228Y-31570599D02*
X70728800Y-31599171D01*
X70728800Y-31599171D02*
X70757371Y-31684885D01*
X70757371Y-31684885D02*
X70757371Y-31742028D01*
X70757371Y-31742028D02*
X70728800Y-31827742D01*
X70728800Y-31827742D02*
X70671657Y-31884885D01*
X70671657Y-31884885D02*
X70614514Y-31913456D01*
X70614514Y-31913456D02*
X70500228Y-31942028D01*
X70500228Y-31942028D02*
X70414514Y-31942028D01*
X70414514Y-31942028D02*
X70300228Y-31913456D01*
X70300228Y-31913456D02*
X70243085Y-31884885D01*
X70243085Y-31884885D02*
X70185942Y-31827742D01*
X70185942Y-31827742D02*
X70157371Y-31742028D01*
X70157371Y-31742028D02*
X70157371Y-31684885D01*
X70157371Y-31684885D02*
X70185942Y-31599171D01*
X70185942Y-31599171D02*
X70214514Y-31570599D01*
X70214514Y-31342028D02*
X70185942Y-31313456D01*
X70185942Y-31313456D02*
X70157371Y-31256314D01*
X70157371Y-31256314D02*
X70157371Y-31113456D01*
X70157371Y-31113456D02*
X70185942Y-31056314D01*
X70185942Y-31056314D02*
X70214514Y-31027742D01*
X70214514Y-31027742D02*
X70271657Y-30999171D01*
X70271657Y-30999171D02*
X70328800Y-30999171D01*
X70328800Y-30999171D02*
X70414514Y-31027742D01*
X70414514Y-31027742D02*
X70757371Y-31370599D01*
X70757371Y-31370599D02*
X70757371Y-30999171D01*
X67651400Y-45966971D02*
X67451400Y-45681257D01*
X67308543Y-45966971D02*
X67308543Y-45366971D01*
X67308543Y-45366971D02*
X67537114Y-45366971D01*
X67537114Y-45366971D02*
X67594257Y-45395542D01*
X67594257Y-45395542D02*
X67622828Y-45424114D01*
X67622828Y-45424114D02*
X67651400Y-45481257D01*
X67651400Y-45481257D02*
X67651400Y-45566971D01*
X67651400Y-45566971D02*
X67622828Y-45624114D01*
X67622828Y-45624114D02*
X67594257Y-45652685D01*
X67594257Y-45652685D02*
X67537114Y-45681257D01*
X67537114Y-45681257D02*
X67308543Y-45681257D01*
X68222828Y-45395542D02*
X68165686Y-45366971D01*
X68165686Y-45366971D02*
X68079971Y-45366971D01*
X68079971Y-45366971D02*
X67994257Y-45395542D01*
X67994257Y-45395542D02*
X67937114Y-45452685D01*
X67937114Y-45452685D02*
X67908543Y-45509828D01*
X67908543Y-45509828D02*
X67879971Y-45624114D01*
X67879971Y-45624114D02*
X67879971Y-45709828D01*
X67879971Y-45709828D02*
X67908543Y-45824114D01*
X67908543Y-45824114D02*
X67937114Y-45881257D01*
X67937114Y-45881257D02*
X67994257Y-45938400D01*
X67994257Y-45938400D02*
X68079971Y-45966971D01*
X68079971Y-45966971D02*
X68137114Y-45966971D01*
X68137114Y-45966971D02*
X68222828Y-45938400D01*
X68222828Y-45938400D02*
X68251400Y-45909828D01*
X68251400Y-45909828D02*
X68251400Y-45709828D01*
X68251400Y-45709828D02*
X68137114Y-45709828D01*
X68708543Y-45652685D02*
X68794257Y-45681257D01*
X68794257Y-45681257D02*
X68822828Y-45709828D01*
X68822828Y-45709828D02*
X68851400Y-45766971D01*
X68851400Y-45766971D02*
X68851400Y-45852685D01*
X68851400Y-45852685D02*
X68822828Y-45909828D01*
X68822828Y-45909828D02*
X68794257Y-45938400D01*
X68794257Y-45938400D02*
X68737114Y-45966971D01*
X68737114Y-45966971D02*
X68508543Y-45966971D01*
X68508543Y-45966971D02*
X68508543Y-45366971D01*
X68508543Y-45366971D02*
X68708543Y-45366971D01*
X68708543Y-45366971D02*
X68765686Y-45395542D01*
X68765686Y-45395542D02*
X68794257Y-45424114D01*
X68794257Y-45424114D02*
X68822828Y-45481257D01*
X68822828Y-45481257D02*
X68822828Y-45538400D01*
X68822828Y-45538400D02*
X68794257Y-45595542D01*
X68794257Y-45595542D02*
X68765686Y-45624114D01*
X68765686Y-45624114D02*
X68708543Y-45652685D01*
X68708543Y-45652685D02*
X68508543Y-45652685D01*
X69079971Y-45424114D02*
X69108543Y-45395542D01*
X69108543Y-45395542D02*
X69165686Y-45366971D01*
X69165686Y-45366971D02*
X69308543Y-45366971D01*
X69308543Y-45366971D02*
X69365686Y-45395542D01*
X69365686Y-45395542D02*
X69394257Y-45424114D01*
X69394257Y-45424114D02*
X69422828Y-45481257D01*
X69422828Y-45481257D02*
X69422828Y-45538400D01*
X69422828Y-45538400D02*
X69394257Y-45624114D01*
X69394257Y-45624114D02*
X69051400Y-45966971D01*
X69051400Y-45966971D02*
X69422828Y-45966971D01*
X71570171Y-37006199D02*
X71284457Y-37206199D01*
X71570171Y-37349056D02*
X70970171Y-37349056D01*
X70970171Y-37349056D02*
X70970171Y-37120485D01*
X70970171Y-37120485D02*
X70998742Y-37063342D01*
X70998742Y-37063342D02*
X71027314Y-37034771D01*
X71027314Y-37034771D02*
X71084457Y-37006199D01*
X71084457Y-37006199D02*
X71170171Y-37006199D01*
X71170171Y-37006199D02*
X71227314Y-37034771D01*
X71227314Y-37034771D02*
X71255885Y-37063342D01*
X71255885Y-37063342D02*
X71284457Y-37120485D01*
X71284457Y-37120485D02*
X71284457Y-37349056D01*
X71027314Y-36777628D02*
X70998742Y-36749056D01*
X70998742Y-36749056D02*
X70970171Y-36691914D01*
X70970171Y-36691914D02*
X70970171Y-36549056D01*
X70970171Y-36549056D02*
X70998742Y-36491914D01*
X70998742Y-36491914D02*
X71027314Y-36463342D01*
X71027314Y-36463342D02*
X71084457Y-36434771D01*
X71084457Y-36434771D02*
X71141600Y-36434771D01*
X71141600Y-36434771D02*
X71227314Y-36463342D01*
X71227314Y-36463342D02*
X71570171Y-36806199D01*
X71570171Y-36806199D02*
X71570171Y-36434771D01*
D11*
%TO.C,RGB4*%
X49925000Y-29996718D02*
X51925000Y-29996718D01*
X49925000Y-31996718D02*
X49925000Y-29996718D01*
X51925000Y-29996718D02*
X51925000Y-31996718D01*
X51925000Y-31996718D02*
X49925000Y-31996718D01*
X49552734Y-32520718D02*
G75*
G02*
X49249266Y-32520718I-151734J0D01*
G01*
X49249266Y-32520718D02*
G75*
G02*
X49552734Y-32520718I151734J0D01*
G01*
%TO.C,RGB3*%
X49925000Y-42996718D02*
X51925000Y-42996718D01*
X49925000Y-44996718D02*
X49925000Y-42996718D01*
X51925000Y-42996718D02*
X51925000Y-44996718D01*
X51925000Y-44996718D02*
X49925000Y-44996718D01*
X49552734Y-45520718D02*
G75*
G02*
X49249266Y-45520718I-151734J0D01*
G01*
X49249266Y-45520718D02*
G75*
G02*
X49552734Y-45520718I151734J0D01*
G01*
%TO.C,RGB1*%
X66925000Y-29996718D02*
X68925000Y-29996718D01*
X66925000Y-31996718D02*
X66925000Y-29996718D01*
X68925000Y-29996718D02*
X68925000Y-31996718D01*
X68925000Y-31996718D02*
X66925000Y-31996718D01*
X66552734Y-32520718D02*
G75*
G02*
X66249266Y-32520718I-151734J0D01*
G01*
X66249266Y-32520718D02*
G75*
G02*
X66552734Y-32520718I151734J0D01*
G01*
%TO.C,C1*%
X60260620Y-48791400D02*
X60541780Y-48791400D01*
X60260620Y-49811400D02*
X60541780Y-49811400D01*
%TO.C,C2*%
X69807800Y-33567620D02*
X69807800Y-33848780D01*
X70827800Y-33567620D02*
X70827800Y-33848780D01*
%TO.C,RGB2*%
X66925000Y-42996718D02*
X68925000Y-42996718D01*
X66925000Y-44996718D02*
X66925000Y-42996718D01*
X68925000Y-42996718D02*
X68925000Y-44996718D01*
X68925000Y-44996718D02*
X66925000Y-44996718D01*
X66552734Y-45520718D02*
G75*
G02*
X66249266Y-45520718I-151734J0D01*
G01*
X66249266Y-45520718D02*
G75*
G02*
X66552734Y-45520718I151734J0D01*
G01*
%TD*%
M02*
