%TF.GenerationSoftware,KiCad,Pcbnew,9.0.3*%
%TF.CreationDate,2025-07-18T17:15:59-07:00*%
%TF.ProjectId,UGC_SubStick_R5,5547435f-5375-4625-9374-69636b5f5235,rev?*%
%TF.SameCoordinates,Original*%
%TF.FileFunction,Copper,L1,Top*%
%TF.FilePolarity,Positive*%
%FSLAX46Y46*%
G04 Gerber Fmt 4.6, Leading zero omitted, Abs format (unit mm)*
G04 Created by KiCad (PCBNEW 9.0.3) date 2025-07-18 17:15:59*
%MOMM*%
%LPD*%
G01*
G04 APERTURE LIST*
G04 Aperture macros list*
%AMRoundRect*
0 Rectangle with rounded corners*
0 $1 Rounding radius*
0 $2 $3 $4 $5 $6 $7 $8 $9 X,Y pos of 4 corners*
0 Add a 4 corners polygon primitive as box body*
4,1,4,$2,$3,$4,$5,$6,$7,$8,$9,$2,$3,0*
0 Add four circle primitives for the rounded corners*
1,1,$1+$1,$2,$3*
1,1,$1+$1,$4,$5*
1,1,$1+$1,$6,$7*
1,1,$1+$1,$8,$9*
0 Add four rect primitives between the rounded corners*
20,1,$1+$1,$2,$3,$4,$5,0*
20,1,$1+$1,$4,$5,$6,$7,0*
20,1,$1+$1,$6,$7,$8,$9,0*
20,1,$1+$1,$8,$9,$2,$3,0*%
G04 Aperture macros list end*
%TA.AperFunction,SMDPad,CuDef*%
%ADD10R,0.370000X0.370000*%
%TD*%
%TA.AperFunction,SMDPad,CuDef*%
%ADD11RoundRect,0.225000X-0.225000X-0.250000X0.225000X-0.250000X0.225000X0.250000X-0.225000X0.250000X0*%
%TD*%
%TA.AperFunction,SMDPad,CuDef*%
%ADD12RoundRect,0.100000X-0.130000X-0.100000X0.130000X-0.100000X0.130000X0.100000X-0.130000X0.100000X0*%
%TD*%
%TA.AperFunction,ComponentPad*%
%ADD13C,2.450000*%
%TD*%
%TA.AperFunction,ComponentPad*%
%ADD14C,1.250000*%
%TD*%
%TA.AperFunction,ComponentPad*%
%ADD15C,2.000000*%
%TD*%
%TA.AperFunction,SMDPad,CuDef*%
%ADD16RoundRect,0.225000X-0.250000X0.225000X-0.250000X-0.225000X0.250000X-0.225000X0.250000X0.225000X0*%
%TD*%
%TA.AperFunction,SMDPad,CuDef*%
%ADD17RoundRect,0.100000X0.100000X-0.130000X0.100000X0.130000X-0.100000X0.130000X-0.100000X-0.130000X0*%
%TD*%
%TA.AperFunction,ViaPad*%
%ADD18C,0.800000*%
%TD*%
%TA.AperFunction,Conductor*%
%ADD19C,0.250000*%
%TD*%
%TA.AperFunction,Conductor*%
%ADD20C,0.200000*%
%TD*%
G04 APERTURE END LIST*
D10*
%TO.P,RGB4,1,DIN*%
%TO.N,Net-(RGB3-DOUT)*%
X50590000Y-31331718D03*
%TO.P,RGB4,2,VDD*%
%TO.N,+3V3*%
X51260000Y-31331718D03*
%TO.P,RGB4,3,DOUT*%
%TO.N,RGB_OUT*%
X51260000Y-30661718D03*
%TO.P,RGB4,4,GND*%
%TO.N,GND*%
X50590000Y-30661718D03*
%TD*%
%TO.P,RGB3,1,DIN*%
%TO.N,Net-(RGB2-DOUT)*%
X50590000Y-44331718D03*
%TO.P,RGB3,2,VDD*%
%TO.N,+3V3*%
X51260000Y-44331718D03*
%TO.P,RGB3,3,DOUT*%
%TO.N,Net-(RGB3-DOUT)*%
X51260000Y-43661718D03*
%TO.P,RGB3,4,GND*%
%TO.N,GND*%
X50590000Y-43661718D03*
%TD*%
%TO.P,RGB1,1,DIN*%
%TO.N,RGB_IN*%
X67590000Y-31331718D03*
%TO.P,RGB1,2,VDD*%
%TO.N,+3V3*%
X68260000Y-31331718D03*
%TO.P,RGB1,3,DOUT*%
%TO.N,Net-(RGB1-DOUT)*%
X68260000Y-30661718D03*
%TO.P,RGB1,4,GND*%
%TO.N,GND*%
X67590000Y-30661718D03*
%TD*%
D11*
%TO.P,C1,1*%
%TO.N,GND*%
X59626200Y-49301400D03*
%TO.P,C1,2*%
%TO.N,RX*%
X61176200Y-49301400D03*
%TD*%
D12*
%TO.P,R1,1*%
%TO.N,Net-(SW1-X_OUT)*%
X60589200Y-48133000D03*
%TO.P,R1,2*%
%TO.N,RX*%
X61229200Y-48133000D03*
%TD*%
D13*
%TO.P,SW1,*%
%TO.N,*%
X54425000Y-31171718D03*
X54425000Y-43821718D03*
X64425000Y-31171718D03*
X64425000Y-43821718D03*
D14*
%TO.P,SW1,S1,1*%
%TO.N,RS_B_OUT*%
X53775000Y-34246718D03*
%TO.P,SW1,S2,2*%
X53775000Y-40746718D03*
%TO.P,SW1,S3,3*%
%TO.N,RS_B_IN*%
X49275000Y-34246718D03*
%TO.P,SW1,S4,4*%
X49275000Y-40746718D03*
D15*
%TO.P,SW1,X1,GND*%
%TO.N,GND*%
X56925000Y-46196718D03*
%TO.P,SW1,X2,X_OUT*%
%TO.N,Net-(SW1-X_OUT)*%
X59425000Y-46196718D03*
%TO.P,SW1,X3,VCC*%
%TO.N,+3V3*%
X61925000Y-46196718D03*
%TO.P,SW1,Y1,GND*%
%TO.N,GND*%
X68125000Y-39996718D03*
%TO.P,SW1,Y2,Y_OUT*%
%TO.N,Net-(SW1-Y_OUT)*%
X68125000Y-37496718D03*
%TO.P,SW1,Y3,VCC*%
%TO.N,+3V3*%
X68125000Y-34996718D03*
%TD*%
D16*
%TO.P,C2,1*%
%TO.N,GND*%
X70317800Y-32933200D03*
%TO.P,C2,2*%
%TO.N,RY*%
X70317800Y-34483200D03*
%TD*%
D10*
%TO.P,RGB2,1,DIN*%
%TO.N,Net-(RGB1-DOUT)*%
X67590000Y-44331718D03*
%TO.P,RGB2,2,VDD*%
%TO.N,+3V3*%
X68260000Y-44331718D03*
%TO.P,RGB2,3,DOUT*%
%TO.N,Net-(RGB2-DOUT)*%
X68260000Y-43661718D03*
%TO.P,RGB2,4,GND*%
%TO.N,GND*%
X67590000Y-43661718D03*
%TD*%
D17*
%TO.P,R2,1*%
%TO.N,Net-(SW1-Y_OUT)*%
X70053200Y-36718200D03*
%TO.P,R2,2*%
%TO.N,RY*%
X70053200Y-36078200D03*
%TD*%
D18*
%TO.N,GND*%
X71424800Y-38252400D03*
X69926200Y-30607000D03*
X90627200Y-23190200D03*
X58089800Y-35737800D03*
X57912000Y-37211000D03*
X59283600Y-36601400D03*
%TO.N,RS_B_IN*%
X53817800Y-27233200D03*
X88430731Y-22391200D03*
X58992800Y-27233200D03*
%TO.N,RS_B_OUT*%
X89357200Y-21920200D03*
%TO.N,RY*%
X87452200Y-26238200D03*
%TO.N,RX*%
X86537800Y-25755600D03*
%TO.N,+3V3*%
X53238400Y-47320200D03*
X65659000Y-46024800D03*
X66624200Y-32359600D03*
X51663600Y-32740600D03*
%TO.N,RGB_IN*%
X85394800Y-23723600D03*
%TO.N,Net-(RGB1-DOUT)*%
X69062600Y-29286200D03*
X68351400Y-33096200D03*
%TO.N,Net-(RGB2-DOUT)*%
X69492800Y-42672000D03*
X58039000Y-49326800D03*
%TD*%
D19*
%TO.N,Net-(SW1-X_OUT)*%
X60589200Y-47360918D02*
X60589200Y-48133000D01*
X59425000Y-46196718D02*
X60589200Y-47360918D01*
D20*
%TO.N,Net-(RGB2-DOUT)*%
X68260000Y-42865000D02*
X68260000Y-43661718D01*
X69492800Y-42672000D02*
X68453000Y-42672000D01*
X68453000Y-42672000D02*
X68260000Y-42865000D01*
D19*
%TO.N,RX*%
X61263700Y-48167500D02*
X61229200Y-48133000D01*
X61263700Y-49301400D02*
X61263700Y-48167500D01*
X64998600Y-49301400D02*
X61263700Y-49301400D01*
X70217800Y-44082200D02*
X64998600Y-49301400D01*
X70217800Y-40858200D02*
X70217800Y-44082200D01*
X72390000Y-38686000D02*
X70217800Y-40858200D01*
X72390000Y-33723810D02*
X72390000Y-38686000D01*
X72443800Y-33670010D02*
X72390000Y-33723810D01*
X72443800Y-31396390D02*
X72443800Y-33670010D01*
X72390000Y-31342590D02*
X72443800Y-31396390D01*
X72847200Y-23520400D02*
X70891400Y-25476200D01*
X83286600Y-23520400D02*
X72847200Y-23520400D01*
X70891400Y-29806800D02*
X72390000Y-31305400D01*
X86207600Y-25425400D02*
X85191600Y-25425400D01*
X70891400Y-25476200D02*
X70891400Y-29806800D01*
X86537800Y-25755600D02*
X86207600Y-25425400D01*
X85191600Y-25425400D02*
X83286600Y-23520400D01*
X72390000Y-31305400D02*
X72390000Y-31342590D01*
D20*
%TO.N,GND*%
X67590000Y-43661718D02*
X67207518Y-43661718D01*
X67590000Y-30661718D02*
X67318112Y-30661718D01*
X67207518Y-43661718D02*
X66979800Y-43434000D01*
D19*
X57056318Y-46596718D02*
X56917800Y-46458200D01*
D20*
X67318112Y-30661718D02*
X67081400Y-30425006D01*
X66852800Y-43307000D02*
X66852800Y-42926000D01*
X66979800Y-43434000D02*
X66852800Y-43307000D01*
X67081400Y-30425006D02*
X67081400Y-29718000D01*
D19*
%TO.N,RS_B_IN*%
X49275000Y-30276000D02*
X49275000Y-34246718D01*
X88156731Y-22117200D02*
X69733800Y-22117200D01*
X53817800Y-27233200D02*
X52317800Y-27233200D01*
X69733800Y-22117200D02*
X64617800Y-27233200D01*
X88430731Y-22391200D02*
X88156731Y-22117200D01*
X64617800Y-27233200D02*
X58992800Y-27233200D01*
X49275000Y-34246718D02*
X49275000Y-40746718D01*
X52317800Y-27233200D02*
X49275000Y-30276000D01*
%TO.N,RS_B_OUT*%
X54067600Y-28533200D02*
X52501800Y-30099000D01*
X89357200Y-21920200D02*
X89103200Y-21666200D01*
X89103200Y-21666200D02*
X69459800Y-21666200D01*
X53775000Y-40746718D02*
X53775000Y-34246718D01*
X52501800Y-30099000D02*
X52501800Y-33392200D01*
X69459800Y-21666200D02*
X64792800Y-26333200D01*
X52501800Y-33392200D02*
X53356318Y-34246718D01*
X55167800Y-28533200D02*
X54067600Y-28533200D01*
X53356318Y-34246718D02*
X53775000Y-34246718D01*
X57367800Y-26333200D02*
X55167800Y-28533200D01*
X64792800Y-26333200D02*
X57367800Y-26333200D01*
%TO.N,RY*%
X87452200Y-25552400D02*
X86741000Y-24841200D01*
X86741000Y-24841200D02*
X85420200Y-24841200D01*
X83591400Y-23012400D02*
X72517000Y-23012400D01*
X70317800Y-35733200D02*
X70053200Y-35997800D01*
X85420200Y-24841200D02*
X83591400Y-23012400D01*
X70053200Y-35997800D02*
X70053200Y-36078200D01*
X72517000Y-23012400D02*
X70408800Y-25120600D01*
X70408800Y-25120600D02*
X70408800Y-29999200D01*
X70317800Y-34570700D02*
X70317800Y-35733200D01*
X70905300Y-34570700D02*
X70317800Y-34570700D01*
X87452200Y-26238200D02*
X87452200Y-25552400D01*
X70408800Y-29999200D02*
X71992800Y-31583200D01*
X71992800Y-31583200D02*
X71992800Y-33483200D01*
X71992800Y-33483200D02*
X70905300Y-34570700D01*
D20*
%TO.N,+3V3*%
X68260000Y-31331718D02*
X68260000Y-31866800D01*
X51260000Y-32337000D02*
X51663600Y-32740600D01*
X51260000Y-31331718D02*
X51260000Y-32337000D01*
X68148200Y-31978600D02*
X67767200Y-32359600D01*
X67081400Y-46024800D02*
X65659000Y-46024800D01*
X68260000Y-31866800D02*
X68148200Y-31978600D01*
X67614800Y-45491400D02*
X67081400Y-46024800D01*
X68260000Y-44331718D02*
X68260000Y-44846200D01*
X68260000Y-44846200D02*
X67614800Y-45491400D01*
X51260000Y-45341800D02*
X53238400Y-47320200D01*
X51260000Y-44331718D02*
X51260000Y-45341800D01*
X67767200Y-32359600D02*
X66624200Y-32359600D01*
D19*
%TO.N,Net-(SW1-Y_OUT)*%
X68125000Y-37496718D02*
X69274682Y-37496718D01*
X69274682Y-37496718D02*
X70053200Y-36718200D01*
D20*
%TO.N,RGB_IN*%
X66624200Y-26543000D02*
X68884800Y-24282400D01*
X85394800Y-22797200D02*
X85394800Y-23723600D01*
X67590000Y-31331718D02*
X66840918Y-31331718D01*
X66840918Y-31331718D02*
X66624200Y-31115000D01*
X66624200Y-31115000D02*
X66624200Y-26543000D01*
X85140800Y-22543200D02*
X85394800Y-22797200D01*
X68884800Y-24282400D02*
X70624000Y-22543200D01*
X70624000Y-22543200D02*
X85140800Y-22543200D01*
%TO.N,Net-(RGB1-DOUT)*%
X67590000Y-44331718D02*
X67064718Y-44331718D01*
X69062600Y-29286200D02*
X68580000Y-29286200D01*
X67411600Y-33096200D02*
X68351400Y-33096200D01*
X67005200Y-33502600D02*
X67411600Y-33096200D01*
X66395600Y-43662600D02*
X66395600Y-41351200D01*
X68260000Y-30661718D02*
X68260000Y-29606200D01*
X66802000Y-44069000D02*
X66395600Y-43662600D01*
X68260000Y-29606200D02*
X68580000Y-29286200D01*
X67064718Y-44331718D02*
X66802000Y-44069000D01*
X66395600Y-34112200D02*
X67005200Y-33502600D01*
X66395600Y-41351200D02*
X66395600Y-34112200D01*
%TO.N,Net-(RGB2-DOUT)*%
X50590000Y-45814800D02*
X50590000Y-44331718D01*
X52882800Y-48107600D02*
X50590000Y-45814800D01*
X58039000Y-49326800D02*
X56819800Y-48107600D01*
X56819800Y-48107600D02*
X52882800Y-48107600D01*
%TO.N,Net-(RGB3-DOUT)*%
X51260000Y-43661718D02*
X51260000Y-33734000D01*
X51260000Y-33734000D02*
X50590000Y-33064000D01*
X50590000Y-33064000D02*
X50590000Y-31331718D01*
%TD*%
%TA.AperFunction,Conductor*%
%TO.N,GND*%
G36*
X66219692Y-26264858D02*
G01*
X66275625Y-26306730D01*
X66300042Y-26372194D01*
X66296133Y-26413132D01*
X66273700Y-26496854D01*
X66273700Y-26496856D01*
X66273700Y-31161144D01*
X66296592Y-31246576D01*
X66297586Y-31250287D01*
X66297587Y-31250290D01*
X66343727Y-31330208D01*
X66343731Y-31330213D01*
X66531620Y-31518102D01*
X66565105Y-31579425D01*
X66560121Y-31649117D01*
X66518249Y-31705050D01*
X66468131Y-31727400D01*
X66434461Y-31734097D01*
X66434455Y-31734099D01*
X66316075Y-31783133D01*
X66316066Y-31783138D01*
X66209531Y-31854323D01*
X66209527Y-31854326D01*
X66118926Y-31944927D01*
X66118923Y-31944931D01*
X66047738Y-32051466D01*
X66047733Y-32051475D01*
X65998699Y-32169855D01*
X65998697Y-32169861D01*
X65973700Y-32295528D01*
X65973700Y-32295531D01*
X65973700Y-32423669D01*
X65973700Y-32423671D01*
X65973699Y-32423671D01*
X65998697Y-32549338D01*
X65998699Y-32549344D01*
X66047733Y-32667724D01*
X66047738Y-32667733D01*
X66118923Y-32774268D01*
X66118926Y-32774272D01*
X66209527Y-32864873D01*
X66209531Y-32864876D01*
X66316066Y-32936061D01*
X66316072Y-32936064D01*
X66316073Y-32936065D01*
X66434456Y-32985101D01*
X66434460Y-32985101D01*
X66434461Y-32985102D01*
X66560128Y-33010100D01*
X66560131Y-33010100D01*
X66688267Y-33010100D01*
X66688269Y-33010100D01*
X66688270Y-33010099D01*
X66691404Y-33009791D01*
X66693033Y-33010100D01*
X66694361Y-33010100D01*
X66694361Y-33010351D01*
X66718937Y-33015012D01*
X66746886Y-33017010D01*
X66752795Y-33021433D01*
X66760050Y-33022809D01*
X66780389Y-33042087D01*
X66802822Y-33058878D01*
X66805402Y-33065794D01*
X66810761Y-33070874D01*
X66817448Y-33098086D01*
X66827243Y-33124341D01*
X66825673Y-33131555D01*
X66827436Y-33138725D01*
X66818348Y-33165237D01*
X66812394Y-33192615D01*
X66806066Y-33201068D01*
X66804781Y-33204819D01*
X66791245Y-33220871D01*
X66772550Y-33239568D01*
X66772546Y-33239569D01*
X66772545Y-33239572D01*
X66115131Y-33896986D01*
X66115129Y-33896989D01*
X66110974Y-33904186D01*
X66084979Y-33949212D01*
X66068986Y-33976912D01*
X66055305Y-34027969D01*
X66045100Y-34066056D01*
X66045100Y-43250148D01*
X66025415Y-43317187D01*
X65972611Y-43362942D01*
X65903453Y-43372886D01*
X65839897Y-43343861D01*
X65803169Y-43288467D01*
X65802609Y-43286745D01*
X65792400Y-43255322D01*
X65792398Y-43255319D01*
X65792398Y-43255317D01*
X65707730Y-43089148D01*
X65686961Y-43048387D01*
X65550449Y-42860494D01*
X65386224Y-42696269D01*
X65198331Y-42559757D01*
X64991400Y-42454319D01*
X64770514Y-42382549D01*
X64541129Y-42346218D01*
X64541124Y-42346218D01*
X64308876Y-42346218D01*
X64308871Y-42346218D01*
X64079485Y-42382549D01*
X63858599Y-42454319D01*
X63651668Y-42559757D01*
X63463773Y-42696271D01*
X63299553Y-42860491D01*
X63163039Y-43048386D01*
X63057601Y-43255317D01*
X62985831Y-43476203D01*
X62949500Y-43705588D01*
X62949500Y-43937847D01*
X62985831Y-44167232D01*
X63057601Y-44388118D01*
X63138521Y-44546930D01*
X63163039Y-44595049D01*
X63299551Y-44782942D01*
X63463776Y-44947167D01*
X63651669Y-45083679D01*
X63720262Y-45118629D01*
X63858599Y-45189116D01*
X63858601Y-45189116D01*
X63858604Y-45189118D01*
X64079486Y-45260887D01*
X64197668Y-45279604D01*
X64308871Y-45297218D01*
X64308876Y-45297218D01*
X64541129Y-45297218D01*
X64642502Y-45281161D01*
X64770514Y-45260887D01*
X64991396Y-45189118D01*
X65198331Y-45083679D01*
X65386224Y-44947167D01*
X65550449Y-44782942D01*
X65686961Y-44595049D01*
X65792400Y-44388114D01*
X65864169Y-44167232D01*
X65896022Y-43966117D01*
X65899984Y-43941103D01*
X65929913Y-43877969D01*
X65989224Y-43841037D01*
X66059087Y-43842035D01*
X66110138Y-43872820D01*
X66517189Y-44279870D01*
X66517199Y-44279881D01*
X66521529Y-44284211D01*
X66521530Y-44284212D01*
X66784249Y-44546930D01*
X66849506Y-44612187D01*
X66849509Y-44612188D01*
X66849512Y-44612191D01*
X66929424Y-44658329D01*
X66929425Y-44658329D01*
X66929430Y-44658332D01*
X67018574Y-44682218D01*
X67164184Y-44682218D01*
X67231223Y-44701903D01*
X67233047Y-44703097D01*
X67239499Y-44707408D01*
X67307260Y-44752684D01*
X67307264Y-44752685D01*
X67380321Y-44767217D01*
X67380324Y-44767218D01*
X67543937Y-44767218D01*
X67610976Y-44786903D01*
X67656731Y-44839707D01*
X67666675Y-44908865D01*
X67637650Y-44972421D01*
X67631618Y-44978899D01*
X67399588Y-45210930D01*
X66972537Y-45637981D01*
X66911214Y-45671466D01*
X66884856Y-45674300D01*
X66273432Y-45674300D01*
X66206393Y-45654615D01*
X66170330Y-45619191D01*
X66164276Y-45610130D01*
X66073672Y-45519526D01*
X66073668Y-45519523D01*
X65967133Y-45448338D01*
X65967124Y-45448333D01*
X65848744Y-45399299D01*
X65848738Y-45399297D01*
X65723071Y-45374300D01*
X65723069Y-45374300D01*
X65594931Y-45374300D01*
X65594929Y-45374300D01*
X65469261Y-45399297D01*
X65469255Y-45399299D01*
X65350875Y-45448333D01*
X65350866Y-45448338D01*
X65244331Y-45519523D01*
X65244327Y-45519526D01*
X65153726Y-45610127D01*
X65153723Y-45610131D01*
X65082538Y-45716666D01*
X65082533Y-45716675D01*
X65033499Y-45835055D01*
X65033497Y-45835061D01*
X65008500Y-45960728D01*
X65008500Y-45960731D01*
X65008500Y-46088869D01*
X65008500Y-46088871D01*
X65008499Y-46088871D01*
X65033497Y-46214538D01*
X65033499Y-46214544D01*
X65082533Y-46332924D01*
X65082538Y-46332933D01*
X65153723Y-46439468D01*
X65153726Y-46439472D01*
X65244327Y-46530073D01*
X65244331Y-46530076D01*
X65350866Y-46601261D01*
X65350875Y-46601266D01*
X65368427Y-46608536D01*
X65469256Y-46650301D01*
X65469260Y-46650301D01*
X65469261Y-46650302D01*
X65594928Y-46675300D01*
X65594931Y-46675300D01*
X65723071Y-46675300D01*
X65807615Y-46658482D01*
X65848744Y-46650301D01*
X65967127Y-46601265D01*
X66073669Y-46530076D01*
X66164276Y-46439469D01*
X66170330Y-46430409D01*
X66223942Y-46385604D01*
X66273432Y-46375300D01*
X67094301Y-46375300D01*
X67161340Y-46394985D01*
X67207095Y-46447789D01*
X67217039Y-46516947D01*
X67188014Y-46580503D01*
X67181982Y-46586981D01*
X64879382Y-48889581D01*
X64818059Y-48923066D01*
X64791701Y-48925900D01*
X61947983Y-48925900D01*
X61880944Y-48906215D01*
X61835189Y-48853411D01*
X61831810Y-48845257D01*
X61822828Y-48821174D01*
X61822825Y-48821170D01*
X61822825Y-48821169D01*
X61740892Y-48711718D01*
X61740888Y-48711715D01*
X61740887Y-48711713D01*
X61688888Y-48672787D01*
X61686151Y-48669131D01*
X61681997Y-48667234D01*
X61665406Y-48641419D01*
X61647018Y-48616854D01*
X61646002Y-48611224D01*
X61644223Y-48608456D01*
X61639200Y-48573521D01*
X61639200Y-48486985D01*
X61651800Y-48432525D01*
X61699772Y-48334395D01*
X61699773Y-48334392D01*
X61700938Y-48326400D01*
X61709700Y-48266260D01*
X61709700Y-47999740D01*
X61699773Y-47931607D01*
X61648398Y-47826517D01*
X61648396Y-47826515D01*
X61648396Y-47826514D01*
X61565685Y-47743803D01*
X61560810Y-47741420D01*
X61460593Y-47692427D01*
X61460591Y-47692426D01*
X61392461Y-47682500D01*
X61392460Y-47682500D01*
X61088700Y-47682500D01*
X61021661Y-47662815D01*
X60975906Y-47610011D01*
X60964700Y-47558500D01*
X60964700Y-47311484D01*
X60963639Y-47303426D01*
X60966955Y-47302989D01*
X60968203Y-47248717D01*
X61007318Y-47190822D01*
X61071524Y-47163265D01*
X61140435Y-47174795D01*
X61159230Y-47186057D01*
X61269595Y-47266242D01*
X61341716Y-47302989D01*
X61444970Y-47355600D01*
X61444972Y-47355600D01*
X61444975Y-47355602D01*
X61533209Y-47384271D01*
X61632173Y-47416427D01*
X61826578Y-47447218D01*
X61826583Y-47447218D01*
X62023422Y-47447218D01*
X62217826Y-47416427D01*
X62405025Y-47355602D01*
X62580405Y-47266242D01*
X62739646Y-47150546D01*
X62878828Y-47011364D01*
X62994524Y-46852123D01*
X63083884Y-46676743D01*
X63144709Y-46489544D01*
X63154075Y-46430409D01*
X63175500Y-46295140D01*
X63175500Y-46098295D01*
X63144709Y-45903891D01*
X63088465Y-45730793D01*
X63083884Y-45716693D01*
X63083882Y-45716690D01*
X63083882Y-45716688D01*
X62994523Y-45541312D01*
X62878828Y-45382072D01*
X62739646Y-45242890D01*
X62580405Y-45127194D01*
X62563595Y-45118629D01*
X62405029Y-45037835D01*
X62217826Y-44977008D01*
X62023422Y-44946218D01*
X62023417Y-44946218D01*
X61826583Y-44946218D01*
X61826578Y-44946218D01*
X61632173Y-44977008D01*
X61444970Y-45037835D01*
X61269594Y-45127194D01*
X61208456Y-45171614D01*
X61110354Y-45242890D01*
X61110352Y-45242892D01*
X61110351Y-45242892D01*
X60971174Y-45382069D01*
X60971174Y-45382070D01*
X60971172Y-45382072D01*
X60923030Y-45448333D01*
X60855476Y-45541312D01*
X60785485Y-45678678D01*
X60737510Y-45729474D01*
X60669689Y-45746269D01*
X60603554Y-45723732D01*
X60564515Y-45678678D01*
X60494523Y-45541312D01*
X60378828Y-45382072D01*
X60239646Y-45242890D01*
X60080405Y-45127194D01*
X60063595Y-45118629D01*
X59905029Y-45037835D01*
X59717826Y-44977008D01*
X59523422Y-44946218D01*
X59523417Y-44946218D01*
X59326583Y-44946218D01*
X59326578Y-44946218D01*
X59132173Y-44977008D01*
X58944970Y-45037835D01*
X58769594Y-45127194D01*
X58708456Y-45171614D01*
X58610354Y-45242890D01*
X58610352Y-45242892D01*
X58610351Y-45242892D01*
X58471171Y-45382072D01*
X58426842Y-45443086D01*
X58371512Y-45485751D01*
X58301898Y-45491729D01*
X58240104Y-45459122D01*
X58216041Y-45426495D01*
X58207916Y-45410550D01*
X58207911Y-45410542D01*
X58147658Y-45327612D01*
X58147658Y-45327611D01*
X57407962Y-46067308D01*
X57390925Y-46003725D01*
X57325099Y-45889711D01*
X57232007Y-45796619D01*
X57117993Y-45730793D01*
X57054409Y-45713755D01*
X57794105Y-44974058D01*
X57794104Y-44974056D01*
X57711174Y-44913805D01*
X57500802Y-44806615D01*
X57276247Y-44733652D01*
X57276248Y-44733652D01*
X57043052Y-44696718D01*
X56806948Y-44696718D01*
X56573752Y-44733652D01*
X56349197Y-44806615D01*
X56138830Y-44913802D01*
X56055894Y-44974058D01*
X56795591Y-45713755D01*
X56732007Y-45730793D01*
X56617993Y-45796619D01*
X56524901Y-45889711D01*
X56459075Y-46003725D01*
X56442037Y-46067309D01*
X55702340Y-45327612D01*
X55642084Y-45410548D01*
X55534897Y-45620915D01*
X55461934Y-45845470D01*
X55425000Y-46078665D01*
X55425000Y-46314770D01*
X55461934Y-46547965D01*
X55534897Y-46772520D01*
X55642087Y-46982892D01*
X55702338Y-47065822D01*
X55702340Y-47065823D01*
X56442037Y-46326126D01*
X56459075Y-46389711D01*
X56524901Y-46503725D01*
X56617993Y-46596817D01*
X56732007Y-46662643D01*
X56795590Y-46679680D01*
X56055893Y-47419376D01*
X56138828Y-47479632D01*
X56223186Y-47522615D01*
X56273982Y-47570590D01*
X56290777Y-47638411D01*
X56268240Y-47704546D01*
X56213524Y-47747997D01*
X56166891Y-47757100D01*
X53947105Y-47757100D01*
X53880066Y-47737415D01*
X53834311Y-47684611D01*
X53824367Y-47615453D01*
X53832544Y-47585648D01*
X53863899Y-47509948D01*
X53863901Y-47509944D01*
X53888900Y-47384269D01*
X53888900Y-47256131D01*
X53888900Y-47256128D01*
X53863902Y-47130461D01*
X53863901Y-47130460D01*
X53863901Y-47130456D01*
X53814865Y-47012073D01*
X53814864Y-47012072D01*
X53814861Y-47012066D01*
X53743676Y-46905531D01*
X53743673Y-46905527D01*
X53653072Y-46814926D01*
X53653068Y-46814923D01*
X53546533Y-46743738D01*
X53546524Y-46743733D01*
X53428144Y-46694699D01*
X53428138Y-46694697D01*
X53302471Y-46669700D01*
X53302469Y-46669700D01*
X53174331Y-46669700D01*
X53174330Y-46669700D01*
X53163640Y-46671826D01*
X53094048Y-46665597D01*
X53051771Y-46637889D01*
X51646819Y-45232937D01*
X51613334Y-45171614D01*
X51610500Y-45145256D01*
X51610500Y-44757534D01*
X51630185Y-44690495D01*
X51631397Y-44688644D01*
X51635691Y-44682218D01*
X51680966Y-44614458D01*
X51695500Y-44541392D01*
X51695500Y-44122044D01*
X51695500Y-44122041D01*
X51695499Y-44122039D01*
X51680968Y-44048985D01*
X51680966Y-44048982D01*
X51680966Y-44048978D01*
X51680963Y-44048974D01*
X51678977Y-44044179D01*
X51671504Y-43974710D01*
X51678977Y-43949257D01*
X51680962Y-43944463D01*
X51680966Y-43944458D01*
X51681388Y-43942340D01*
X51695499Y-43871396D01*
X51695500Y-43871394D01*
X51695500Y-43705588D01*
X52949500Y-43705588D01*
X52949500Y-43937847D01*
X52985831Y-44167232D01*
X53057601Y-44388118D01*
X53138521Y-44546930D01*
X53163039Y-44595049D01*
X53299551Y-44782942D01*
X53463776Y-44947167D01*
X53651669Y-45083679D01*
X53720262Y-45118629D01*
X53858599Y-45189116D01*
X53858601Y-45189116D01*
X53858604Y-45189118D01*
X54079486Y-45260887D01*
X54197668Y-45279604D01*
X54308871Y-45297218D01*
X54308876Y-45297218D01*
X54541129Y-45297218D01*
X54642502Y-45281161D01*
X54770514Y-45260887D01*
X54991396Y-45189118D01*
X55198331Y-45083679D01*
X55386224Y-44947167D01*
X55550449Y-44782942D01*
X55686961Y-44595049D01*
X55792400Y-44388114D01*
X55864169Y-44167232D01*
X55887401Y-44020547D01*
X55900500Y-43937847D01*
X55900500Y-43705588D01*
X55880514Y-43579405D01*
X55864169Y-43476204D01*
X55792400Y-43255322D01*
X55792398Y-43255319D01*
X55792398Y-43255317D01*
X55707730Y-43089148D01*
X55686961Y-43048387D01*
X55550449Y-42860494D01*
X55386224Y-42696269D01*
X55198331Y-42559757D01*
X54991400Y-42454319D01*
X54770514Y-42382549D01*
X54541129Y-42346218D01*
X54541124Y-42346218D01*
X54308876Y-42346218D01*
X54308871Y-42346218D01*
X54079485Y-42382549D01*
X53858599Y-42454319D01*
X53651668Y-42559757D01*
X53463773Y-42696271D01*
X53299553Y-42860491D01*
X53163039Y-43048386D01*
X53057601Y-43255317D01*
X52985831Y-43476203D01*
X52949500Y-43705588D01*
X51695500Y-43705588D01*
X51695500Y-43452041D01*
X51695499Y-43452039D01*
X51680967Y-43378982D01*
X51680966Y-43378978D01*
X51631396Y-43304791D01*
X51610520Y-43238114D01*
X51610500Y-43235902D01*
X51610500Y-41693248D01*
X58374500Y-41693248D01*
X58374500Y-41900187D01*
X58414868Y-42103130D01*
X58414870Y-42103138D01*
X58494058Y-42294314D01*
X58609024Y-42466375D01*
X58755342Y-42612693D01*
X58755345Y-42612695D01*
X58927402Y-42727659D01*
X59118580Y-42806848D01*
X59321530Y-42847217D01*
X59321534Y-42847218D01*
X59321535Y-42847218D01*
X59528466Y-42847218D01*
X59528467Y-42847217D01*
X59731420Y-42806848D01*
X59922598Y-42727659D01*
X60094655Y-42612695D01*
X60240977Y-42466373D01*
X60355941Y-42294316D01*
X60435130Y-42103138D01*
X60475500Y-41900183D01*
X60475500Y-41693253D01*
X60435130Y-41490298D01*
X60355941Y-41299120D01*
X60240977Y-41127063D01*
X60240975Y-41127060D01*
X60094657Y-40980742D01*
X59936214Y-40874875D01*
X59922598Y-40865777D01*
X59731420Y-40786588D01*
X59731412Y-40786586D01*
X59528469Y-40746218D01*
X59528465Y-40746218D01*
X59321535Y-40746218D01*
X59321530Y-40746218D01*
X59118587Y-40786586D01*
X59118579Y-40786588D01*
X58927403Y-40865776D01*
X58755342Y-40980742D01*
X58609024Y-41127060D01*
X58494058Y-41299121D01*
X58414870Y-41490297D01*
X58414868Y-41490305D01*
X58374500Y-41693248D01*
X51610500Y-41693248D01*
X51610500Y-33687858D01*
X51610500Y-33687856D01*
X51586614Y-33598712D01*
X51586612Y-33598708D01*
X51574137Y-33577100D01*
X51557664Y-33509200D01*
X51580517Y-33443173D01*
X51635438Y-33399982D01*
X51681524Y-33391100D01*
X51727671Y-33391100D01*
X51812215Y-33374282D01*
X51853344Y-33366101D01*
X51954847Y-33324057D01*
X52024317Y-33316588D01*
X52086796Y-33347863D01*
X52120073Y-33399816D01*
X52126300Y-33418716D01*
X52126300Y-33441636D01*
X52130271Y-33456456D01*
X52151890Y-33537138D01*
X52176773Y-33580236D01*
X52201326Y-33622763D01*
X52201328Y-33622765D01*
X52869919Y-34291356D01*
X52903404Y-34352679D01*
X52903855Y-34354845D01*
X52933143Y-34502086D01*
X52933146Y-34502096D01*
X52999138Y-34661416D01*
X52999145Y-34661429D01*
X53094954Y-34804816D01*
X53094957Y-34804820D01*
X53216897Y-34926760D01*
X53216905Y-34926766D01*
X53344390Y-35011949D01*
X53389196Y-35065561D01*
X53399500Y-35115051D01*
X53399500Y-39878384D01*
X53379815Y-39945423D01*
X53344391Y-39981486D01*
X53216901Y-40066672D01*
X53216897Y-40066675D01*
X53094957Y-40188615D01*
X53094954Y-40188619D01*
X52999145Y-40332006D01*
X52999138Y-40332019D01*
X52933146Y-40491339D01*
X52933143Y-40491351D01*
X52899500Y-40660484D01*
X52899500Y-40832951D01*
X52933143Y-41002084D01*
X52933146Y-41002096D01*
X52999138Y-41161416D01*
X52999145Y-41161429D01*
X53094954Y-41304816D01*
X53094957Y-41304820D01*
X53216897Y-41426760D01*
X53216901Y-41426763D01*
X53360288Y-41522572D01*
X53360301Y-41522579D01*
X53519621Y-41588571D01*
X53519626Y-41588573D01*
X53688766Y-41622217D01*
X53688769Y-41622218D01*
X53688771Y-41622218D01*
X53861231Y-41622218D01*
X53861232Y-41622217D01*
X54030374Y-41588573D01*
X54189705Y-41522576D01*
X54333099Y-41426763D01*
X54455045Y-41304817D01*
X54550858Y-41161423D01*
X54616855Y-41002092D01*
X54650500Y-40832947D01*
X54650500Y-40660489D01*
X54650500Y-40660486D01*
X54650499Y-40660484D01*
X54645081Y-40633247D01*
X54616855Y-40491344D01*
X54577701Y-40396817D01*
X54550861Y-40332019D01*
X54550854Y-40332006D01*
X54455045Y-40188619D01*
X54455042Y-40188615D01*
X54333102Y-40066675D01*
X54333098Y-40066672D01*
X54205609Y-39981486D01*
X54160804Y-39927874D01*
X54150500Y-39878384D01*
X54150500Y-37513092D01*
X54153466Y-37502989D01*
X54152082Y-37500090D01*
X54151788Y-37496424D01*
X54397287Y-37496424D01*
X54397522Y-37497549D01*
X54398522Y-37505464D01*
X54399500Y-37521007D01*
X54399500Y-37560787D01*
X54399500Y-37560789D01*
X54399499Y-37560789D01*
X54415115Y-37639288D01*
X54415115Y-37639289D01*
X54415972Y-37643598D01*
X54417919Y-37659009D01*
X54420166Y-37664685D01*
X54422356Y-37675693D01*
X54422358Y-37675700D01*
X54424498Y-37686459D01*
X54424499Y-37686462D01*
X54473533Y-37804842D01*
X54473538Y-37804851D01*
X54544723Y-37911386D01*
X54544725Y-37911389D01*
X54560762Y-37927425D01*
X54567666Y-37934329D01*
X54574287Y-37943442D01*
X54588713Y-37955376D01*
X54592850Y-37959513D01*
X54635327Y-38001991D01*
X54635331Y-38001994D01*
X54685949Y-38035815D01*
X54700329Y-38047712D01*
X54711904Y-38053158D01*
X54741873Y-38073183D01*
X54741874Y-38073183D01*
X54741878Y-38073186D01*
X54807490Y-38100362D01*
X54846964Y-38116713D01*
X54848341Y-38117361D01*
X54848684Y-38117425D01*
X54860256Y-38122219D01*
X54860260Y-38122219D01*
X54860261Y-38122220D01*
X54985928Y-38147218D01*
X55004856Y-38147218D01*
X55009024Y-38148013D01*
X55021661Y-38147218D01*
X55114072Y-38147218D01*
X55134821Y-38143090D01*
X55156820Y-38138714D01*
X55172282Y-38137742D01*
X55188969Y-38132318D01*
X55239744Y-38122219D01*
X55311392Y-38092540D01*
X55327856Y-38087193D01*
X55334524Y-38082959D01*
X55358127Y-38073183D01*
X55464669Y-38001994D01*
X55507150Y-37959513D01*
X55555274Y-37911390D01*
X55555276Y-37911387D01*
X55571362Y-37887312D01*
X55577951Y-37880297D01*
X55586772Y-37864249D01*
X55626465Y-37804845D01*
X55647963Y-37752943D01*
X55656756Y-37736950D01*
X55660290Y-37723183D01*
X55675501Y-37686462D01*
X55695387Y-37586490D01*
X55697437Y-37578508D01*
X55697522Y-37575755D01*
X55700500Y-37560787D01*
X55700500Y-37496718D01*
X63147417Y-37496718D01*
X63148996Y-37509217D01*
X63149240Y-37512975D01*
X63149500Y-37521007D01*
X63149500Y-37560787D01*
X63149500Y-37560789D01*
X63149499Y-37560789D01*
X63165115Y-37639288D01*
X63165115Y-37639289D01*
X63165972Y-37643598D01*
X63167919Y-37659009D01*
X63170166Y-37664685D01*
X63172356Y-37675693D01*
X63172358Y-37675700D01*
X63174498Y-37686459D01*
X63174499Y-37686462D01*
X63223533Y-37804842D01*
X63223538Y-37804851D01*
X63294723Y-37911386D01*
X63294725Y-37911389D01*
X63310762Y-37927425D01*
X63317666Y-37934329D01*
X63324287Y-37943442D01*
X63338713Y-37955376D01*
X63342850Y-37959513D01*
X63385327Y-38001991D01*
X63385331Y-38001994D01*
X63435949Y-38035815D01*
X63450329Y-38047712D01*
X63461904Y-38053158D01*
X63491873Y-38073183D01*
X63491874Y-38073183D01*
X63491878Y-38073186D01*
X63557490Y-38100362D01*
X63596964Y-38116713D01*
X63598341Y-38117361D01*
X63598684Y-38117425D01*
X63610256Y-38122219D01*
X63610260Y-38122219D01*
X63610261Y-38122220D01*
X63735928Y-38147218D01*
X63754856Y-38147218D01*
X63759024Y-38148013D01*
X63771661Y-38147218D01*
X63864072Y-38147218D01*
X63884821Y-38143090D01*
X63906820Y-38138714D01*
X63922282Y-38137742D01*
X63938969Y-38132318D01*
X63989744Y-38122219D01*
X64061392Y-38092540D01*
X64077856Y-38087193D01*
X64084524Y-38082959D01*
X64108127Y-38073183D01*
X64214669Y-38001994D01*
X64257150Y-37959513D01*
X64305274Y-37911390D01*
X64305276Y-37911387D01*
X64321362Y-37887312D01*
X64327951Y-37880297D01*
X64336772Y-37864249D01*
X64376465Y-37804845D01*
X64397963Y-37752943D01*
X64406756Y-37736950D01*
X64410290Y-37723183D01*
X64425501Y-37686462D01*
X64445387Y-37586490D01*
X64447437Y-37578508D01*
X64447522Y-37575755D01*
X64450500Y-37560787D01*
X64450500Y-37432649D01*
X64447522Y-37417681D01*
X64447437Y-37414928D01*
X64445388Y-37406954D01*
X64425501Y-37306974D01*
X64410289Y-37270250D01*
X64406756Y-37256486D01*
X64397964Y-37240495D01*
X64376465Y-37188591D01*
X64339751Y-37133644D01*
X64339751Y-37133643D01*
X64336772Y-37129185D01*
X64327951Y-37113139D01*
X64321361Y-37106122D01*
X64315666Y-37097598D01*
X64315665Y-37097597D01*
X64305279Y-37082053D01*
X64305278Y-37082052D01*
X64305276Y-37082049D01*
X64214669Y-36991442D01*
X64214668Y-36991441D01*
X64214667Y-36991440D01*
X64108133Y-36920256D01*
X64108124Y-36920251D01*
X64094447Y-36914586D01*
X64094447Y-36914585D01*
X64084525Y-36910475D01*
X64077856Y-36906243D01*
X64061390Y-36900892D01*
X64056878Y-36899024D01*
X63989746Y-36871217D01*
X63989738Y-36871215D01*
X63946147Y-36862544D01*
X63946145Y-36862544D01*
X63938972Y-36861117D01*
X63922282Y-36855694D01*
X63906823Y-36854721D01*
X63898683Y-36853102D01*
X63898681Y-36853101D01*
X63864072Y-36846218D01*
X63864069Y-36846218D01*
X63771661Y-36846218D01*
X63759024Y-36845423D01*
X63754856Y-36846218D01*
X63735929Y-36846218D01*
X63610256Y-36871216D01*
X63603645Y-36873953D01*
X63603646Y-36873954D01*
X63598682Y-36876009D01*
X63598341Y-36876075D01*
X63596985Y-36876712D01*
X63594298Y-36877826D01*
X63594292Y-36877829D01*
X63491870Y-36920254D01*
X63469609Y-36935128D01*
X63469608Y-36935127D01*
X63461890Y-36940283D01*
X63450329Y-36945724D01*
X63435967Y-36957604D01*
X63430687Y-36961133D01*
X63430679Y-36961140D01*
X63385332Y-36991441D01*
X63385325Y-36991447D01*
X63342852Y-37033918D01*
X63342853Y-37033919D01*
X63338708Y-37038063D01*
X63324287Y-37049994D01*
X63317666Y-37059105D01*
X63310767Y-37066006D01*
X63310764Y-37066007D01*
X63294728Y-37082044D01*
X63294723Y-37082050D01*
X63223538Y-37188585D01*
X63223533Y-37188593D01*
X63174498Y-37306975D01*
X63174497Y-37306977D01*
X63172358Y-37317735D01*
X63170166Y-37328750D01*
X63167919Y-37334427D01*
X63165973Y-37349828D01*
X63165114Y-37354148D01*
X63149500Y-37432644D01*
X63149500Y-37472429D01*
X63148522Y-37487970D01*
X63147417Y-37496718D01*
X55700500Y-37496718D01*
X55700500Y-37432649D01*
X55697523Y-37417684D01*
X55697437Y-37414928D01*
X55696226Y-37410214D01*
X55694728Y-37403632D01*
X55675501Y-37306974D01*
X55660289Y-37270250D01*
X55656756Y-37256486D01*
X55647964Y-37240495D01*
X55626465Y-37188591D01*
X55589751Y-37133644D01*
X55589751Y-37133643D01*
X55586772Y-37129185D01*
X55577951Y-37113139D01*
X55571361Y-37106122D01*
X55565666Y-37097598D01*
X55565665Y-37097597D01*
X55555279Y-37082053D01*
X55555278Y-37082052D01*
X55555276Y-37082049D01*
X55464669Y-36991442D01*
X55464668Y-36991441D01*
X55464667Y-36991440D01*
X55358133Y-36920256D01*
X55358124Y-36920251D01*
X55344447Y-36914586D01*
X55344447Y-36914585D01*
X55334525Y-36910475D01*
X55327856Y-36906243D01*
X55311390Y-36900892D01*
X55306878Y-36899024D01*
X55239746Y-36871217D01*
X55239738Y-36871215D01*
X55196147Y-36862544D01*
X55196145Y-36862544D01*
X55188972Y-36861117D01*
X55172282Y-36855694D01*
X55156823Y-36854721D01*
X55148683Y-36853102D01*
X55148681Y-36853101D01*
X55114072Y-36846218D01*
X55114069Y-36846218D01*
X55021661Y-36846218D01*
X55009024Y-36845423D01*
X55004856Y-36846218D01*
X54985929Y-36846218D01*
X54860256Y-36871216D01*
X54853645Y-36873953D01*
X54853646Y-36873954D01*
X54848682Y-36876009D01*
X54848341Y-36876075D01*
X54846985Y-36876712D01*
X54844298Y-36877826D01*
X54844292Y-36877829D01*
X54741870Y-36920254D01*
X54719609Y-36935128D01*
X54719608Y-36935127D01*
X54711890Y-36940283D01*
X54700329Y-36945724D01*
X54685967Y-36957604D01*
X54680687Y-36961133D01*
X54680679Y-36961140D01*
X54635332Y-36991441D01*
X54635325Y-36991447D01*
X54592852Y-37033918D01*
X54592853Y-37033919D01*
X54588708Y-37038063D01*
X54574287Y-37049994D01*
X54567666Y-37059105D01*
X54560767Y-37066006D01*
X54560764Y-37066007D01*
X54544728Y-37082044D01*
X54544723Y-37082050D01*
X54473538Y-37188585D01*
X54473533Y-37188593D01*
X54424498Y-37306975D01*
X54424497Y-37306977D01*
X54422358Y-37317735D01*
X54420166Y-37328750D01*
X54417919Y-37334427D01*
X54415973Y-37349828D01*
X54415114Y-37354148D01*
X54399500Y-37432644D01*
X54399500Y-37472429D01*
X54398522Y-37487971D01*
X54398522Y-37487972D01*
X54397522Y-37495887D01*
X54397287Y-37496424D01*
X54151788Y-37496424D01*
X54150500Y-37480344D01*
X54150500Y-35115051D01*
X54170185Y-35048012D01*
X54205610Y-35011949D01*
X54315644Y-34938426D01*
X54333099Y-34926763D01*
X54455045Y-34804817D01*
X54550858Y-34661423D01*
X54616855Y-34502092D01*
X54650500Y-34332947D01*
X54650500Y-34160489D01*
X54650500Y-34160486D01*
X54650499Y-34160484D01*
X54631716Y-34066056D01*
X54616855Y-33991344D01*
X54614868Y-33986546D01*
X54550861Y-33832019D01*
X54550854Y-33832006D01*
X54455045Y-33688619D01*
X54455042Y-33688615D01*
X54333102Y-33566675D01*
X54333098Y-33566672D01*
X54189711Y-33470863D01*
X54189698Y-33470856D01*
X54030378Y-33404864D01*
X54030366Y-33404861D01*
X53861232Y-33371218D01*
X53861229Y-33371218D01*
X53688771Y-33371218D01*
X53688768Y-33371218D01*
X53519633Y-33404861D01*
X53519621Y-33404864D01*
X53360301Y-33470856D01*
X53360288Y-33470863D01*
X53295765Y-33513977D01*
X53229087Y-33534855D01*
X53161707Y-33516370D01*
X53139193Y-33498556D01*
X52913619Y-33272982D01*
X52898915Y-33246054D01*
X52882323Y-33220236D01*
X52881431Y-33214035D01*
X52880134Y-33211659D01*
X52877300Y-33185301D01*
X52877300Y-33093248D01*
X58374500Y-33093248D01*
X58374500Y-33300187D01*
X58414868Y-33503130D01*
X58414870Y-33503138D01*
X58491697Y-33688615D01*
X58494059Y-33694316D01*
X58510849Y-33719444D01*
X58609024Y-33866375D01*
X58755342Y-34012693D01*
X58755345Y-34012695D01*
X58927402Y-34127659D01*
X59118580Y-34206848D01*
X59249860Y-34232961D01*
X59321530Y-34247217D01*
X59321534Y-34247218D01*
X59321535Y-34247218D01*
X59528466Y-34247218D01*
X59528467Y-34247217D01*
X59731420Y-34206848D01*
X59922598Y-34127659D01*
X60094655Y-34012695D01*
X60240977Y-33866373D01*
X60355941Y-33694316D01*
X60435130Y-33503138D01*
X60475500Y-33300183D01*
X60475500Y-33093253D01*
X60435130Y-32890298D01*
X60355941Y-32699120D01*
X60240977Y-32527063D01*
X60240975Y-32527060D01*
X60094657Y-32380742D01*
X59967124Y-32295528D01*
X59922598Y-32265777D01*
X59906408Y-32259071D01*
X59731420Y-32186588D01*
X59731412Y-32186586D01*
X59528469Y-32146218D01*
X59528465Y-32146218D01*
X59321535Y-32146218D01*
X59321530Y-32146218D01*
X59118587Y-32186586D01*
X59118579Y-32186588D01*
X58927403Y-32265776D01*
X58755342Y-32380742D01*
X58609024Y-32527060D01*
X58494058Y-32699121D01*
X58414870Y-32890297D01*
X58414868Y-32890305D01*
X58374500Y-33093248D01*
X52877300Y-33093248D01*
X52877300Y-31900752D01*
X52896985Y-31833713D01*
X52949789Y-31787958D01*
X53018947Y-31778014D01*
X53082503Y-31807039D01*
X53111783Y-31844455D01*
X53163039Y-31945049D01*
X53299551Y-32132942D01*
X53463776Y-32297167D01*
X53651669Y-32433679D01*
X53702371Y-32459513D01*
X53858599Y-32539116D01*
X53858601Y-32539116D01*
X53858604Y-32539118D01*
X54079486Y-32610887D01*
X54197668Y-32629604D01*
X54308871Y-32647218D01*
X54308876Y-32647218D01*
X54541129Y-32647218D01*
X54642502Y-32631161D01*
X54770514Y-32610887D01*
X54991396Y-32539118D01*
X55198331Y-32433679D01*
X55386224Y-32297167D01*
X55550449Y-32132942D01*
X55686961Y-31945049D01*
X55792400Y-31738114D01*
X55864169Y-31517232D01*
X55892315Y-31339521D01*
X55900500Y-31287847D01*
X55900500Y-31055588D01*
X62949500Y-31055588D01*
X62949500Y-31287847D01*
X62985831Y-31517232D01*
X63057601Y-31738118D01*
X63146681Y-31912945D01*
X63163039Y-31945049D01*
X63299551Y-32132942D01*
X63463776Y-32297167D01*
X63651669Y-32433679D01*
X63702371Y-32459513D01*
X63858599Y-32539116D01*
X63858601Y-32539116D01*
X63858604Y-32539118D01*
X64079486Y-32610887D01*
X64197668Y-32629604D01*
X64308871Y-32647218D01*
X64308876Y-32647218D01*
X64541129Y-32647218D01*
X64642502Y-32631161D01*
X64770514Y-32610887D01*
X64991396Y-32539118D01*
X65198331Y-32433679D01*
X65386224Y-32297167D01*
X65550449Y-32132942D01*
X65686961Y-31945049D01*
X65792400Y-31738114D01*
X65864169Y-31517232D01*
X65892315Y-31339521D01*
X65900500Y-31287847D01*
X65900500Y-31055588D01*
X65875258Y-30896218D01*
X65864169Y-30826204D01*
X65792400Y-30605322D01*
X65792398Y-30605319D01*
X65792398Y-30605317D01*
X65722203Y-30467553D01*
X65686961Y-30398387D01*
X65550449Y-30210494D01*
X65386224Y-30046269D01*
X65198331Y-29909757D01*
X65187482Y-29904229D01*
X64991400Y-29804319D01*
X64770514Y-29732549D01*
X64541129Y-29696218D01*
X64541124Y-29696218D01*
X64308876Y-29696218D01*
X64308871Y-29696218D01*
X64079485Y-29732549D01*
X63858599Y-29804319D01*
X63651668Y-29909757D01*
X63463773Y-30046271D01*
X63299553Y-30210491D01*
X63163039Y-30398386D01*
X63057601Y-30605317D01*
X62985831Y-30826203D01*
X62949500Y-31055588D01*
X55900500Y-31055588D01*
X55875258Y-30896218D01*
X55864169Y-30826204D01*
X55792400Y-30605322D01*
X55792398Y-30605319D01*
X55792398Y-30605317D01*
X55722203Y-30467553D01*
X55686961Y-30398387D01*
X55550449Y-30210494D01*
X55386224Y-30046269D01*
X55198331Y-29909757D01*
X55187482Y-29904229D01*
X54991400Y-29804319D01*
X54770514Y-29732549D01*
X54541129Y-29696218D01*
X54541124Y-29696218D01*
X54308876Y-29696218D01*
X54308871Y-29696218D01*
X54079485Y-29732549D01*
X53858599Y-29804319D01*
X53651668Y-29909757D01*
X53463773Y-30046271D01*
X53299553Y-30210491D01*
X53163039Y-30398386D01*
X53111785Y-30498978D01*
X53063810Y-30549774D01*
X52995989Y-30566569D01*
X52929854Y-30544031D01*
X52886403Y-30489316D01*
X52877300Y-30442683D01*
X52877300Y-30305899D01*
X52896985Y-30238860D01*
X52913619Y-30218218D01*
X54186818Y-28945019D01*
X54248141Y-28911534D01*
X54274499Y-28908700D01*
X55217235Y-28908700D01*
X55217236Y-28908700D01*
X55264986Y-28895905D01*
X55312738Y-28883110D01*
X55398362Y-28833675D01*
X55468275Y-28763762D01*
X55468274Y-28763762D01*
X55526843Y-28705193D01*
X57487019Y-26745019D01*
X57548342Y-26711534D01*
X57574700Y-26708700D01*
X58328923Y-26708700D01*
X58395962Y-26728385D01*
X58441717Y-26781189D01*
X58451661Y-26850347D01*
X58432024Y-26901592D01*
X58416339Y-26925064D01*
X58416333Y-26925075D01*
X58367299Y-27043455D01*
X58367297Y-27043461D01*
X58342300Y-27169128D01*
X58342300Y-27169131D01*
X58342300Y-27297269D01*
X58342300Y-27297271D01*
X58342299Y-27297271D01*
X58367297Y-27422938D01*
X58367299Y-27422944D01*
X58416333Y-27541324D01*
X58416338Y-27541333D01*
X58487523Y-27647868D01*
X58487526Y-27647872D01*
X58578127Y-27738473D01*
X58578131Y-27738476D01*
X58684666Y-27809661D01*
X58684672Y-27809664D01*
X58684673Y-27809665D01*
X58803056Y-27858701D01*
X58803060Y-27858701D01*
X58803061Y-27858702D01*
X58928728Y-27883700D01*
X58928731Y-27883700D01*
X59056871Y-27883700D01*
X59141415Y-27866882D01*
X59182544Y-27858701D01*
X59300927Y-27809665D01*
X59407469Y-27738476D01*
X59444990Y-27700955D01*
X59500927Y-27645019D01*
X59562250Y-27611534D01*
X59588608Y-27608700D01*
X64667234Y-27608700D01*
X64667236Y-27608700D01*
X64713484Y-27596307D01*
X64723258Y-27593689D01*
X64736417Y-27590162D01*
X64762738Y-27583110D01*
X64848362Y-27533675D01*
X64918275Y-27463762D01*
X66088679Y-26293357D01*
X66150000Y-26259874D01*
X66219692Y-26264858D01*
G37*
%TD.AperFunction*%
%TA.AperFunction,Conductor*%
G36*
X71933834Y-34175717D02*
G01*
X71989767Y-34217589D01*
X72014184Y-34283053D01*
X72014500Y-34291899D01*
X72014500Y-38479100D01*
X71994815Y-38546139D01*
X71978181Y-38566781D01*
X69987238Y-40557725D01*
X69917326Y-40627636D01*
X69867891Y-40713259D01*
X69867891Y-40713260D01*
X69867890Y-40713262D01*
X69842300Y-40808765D01*
X69842300Y-40808767D01*
X69842300Y-41927765D01*
X69822615Y-41994804D01*
X69769811Y-42040559D01*
X69700653Y-42050503D01*
X69683338Y-42046656D01*
X69556871Y-42021500D01*
X69556869Y-42021500D01*
X69428731Y-42021500D01*
X69428729Y-42021500D01*
X69303061Y-42046497D01*
X69303055Y-42046499D01*
X69184675Y-42095533D01*
X69184666Y-42095538D01*
X69078131Y-42166723D01*
X69078127Y-42166726D01*
X68987523Y-42257330D01*
X68981470Y-42266391D01*
X68927858Y-42311196D01*
X68878368Y-42321500D01*
X68406856Y-42321500D01*
X68317712Y-42345386D01*
X68317709Y-42345387D01*
X68237791Y-42391527D01*
X68237786Y-42391531D01*
X67979532Y-42649785D01*
X67979530Y-42649787D01*
X67979530Y-42649788D01*
X67944497Y-42710467D01*
X67944496Y-42710467D01*
X67933387Y-42729709D01*
X67933386Y-42729712D01*
X67909500Y-42818856D01*
X67909500Y-42852718D01*
X67889815Y-42919757D01*
X67837011Y-42965512D01*
X67785500Y-42976718D01*
X67775000Y-42976718D01*
X67775000Y-43537718D01*
X67772449Y-43546403D01*
X67773738Y-43555365D01*
X67762759Y-43579405D01*
X67755315Y-43604757D01*
X67748474Y-43610684D01*
X67744713Y-43618921D01*
X67722478Y-43633210D01*
X67702511Y-43650512D01*
X67691996Y-43652799D01*
X67685935Y-43656695D01*
X67651000Y-43661718D01*
X67529000Y-43661718D01*
X67461961Y-43642033D01*
X67416206Y-43589229D01*
X67405000Y-43537718D01*
X67405000Y-42976718D01*
X67357155Y-42976718D01*
X67297627Y-42983119D01*
X67297620Y-42983121D01*
X67162913Y-43033363D01*
X67162906Y-43033367D01*
X67047812Y-43119527D01*
X66969366Y-43224317D01*
X66913432Y-43266187D01*
X66843740Y-43271171D01*
X66782418Y-43237685D01*
X66748933Y-43176362D01*
X66746100Y-43150005D01*
X66746100Y-40987669D01*
X66765785Y-40920630D01*
X66818589Y-40874875D01*
X66879829Y-40864051D01*
X66902341Y-40865822D01*
X67642037Y-40126126D01*
X67659075Y-40189711D01*
X67724901Y-40303725D01*
X67817993Y-40396817D01*
X67932007Y-40462643D01*
X67995590Y-40479680D01*
X67255893Y-41219376D01*
X67338828Y-41279632D01*
X67549197Y-41386820D01*
X67773752Y-41459783D01*
X67773751Y-41459783D01*
X68006948Y-41496718D01*
X68243052Y-41496718D01*
X68476247Y-41459783D01*
X68700802Y-41386820D01*
X68911163Y-41279636D01*
X68911169Y-41279632D01*
X68994104Y-41219376D01*
X68994105Y-41219376D01*
X68254408Y-40479680D01*
X68317993Y-40462643D01*
X68432007Y-40396817D01*
X68525099Y-40303725D01*
X68590925Y-40189711D01*
X68607962Y-40126127D01*
X69347658Y-40865823D01*
X69347658Y-40865822D01*
X69407914Y-40782887D01*
X69407918Y-40782881D01*
X69515102Y-40572520D01*
X69588065Y-40347965D01*
X69625000Y-40114770D01*
X69625000Y-39878665D01*
X69588065Y-39645470D01*
X69515102Y-39420915D01*
X69407914Y-39210546D01*
X69347658Y-39127612D01*
X69347658Y-39127611D01*
X68607962Y-39867308D01*
X68590925Y-39803725D01*
X68525099Y-39689711D01*
X68432007Y-39596619D01*
X68317993Y-39530793D01*
X68254409Y-39513755D01*
X68994105Y-38774058D01*
X68994104Y-38774056D01*
X68911172Y-38713803D01*
X68895222Y-38705676D01*
X68844427Y-38657701D01*
X68827632Y-38589880D01*
X68850170Y-38523746D01*
X68878626Y-38494879D01*
X68939646Y-38450546D01*
X69078828Y-38311364D01*
X69194524Y-38152123D01*
X69283884Y-37976743D01*
X69296443Y-37938089D01*
X69335879Y-37880415D01*
X69382279Y-37856633D01*
X69419620Y-37846628D01*
X69505244Y-37797193D01*
X69575157Y-37727280D01*
X69575156Y-37727280D01*
X69633716Y-37668720D01*
X70067420Y-37235016D01*
X70128742Y-37201534D01*
X70155100Y-37198700D01*
X70186461Y-37198700D01*
X70209171Y-37195391D01*
X70254593Y-37188773D01*
X70359683Y-37137398D01*
X70442398Y-37054683D01*
X70493773Y-36949593D01*
X70503700Y-36881460D01*
X70503700Y-36554940D01*
X70493773Y-36486807D01*
X70477079Y-36452660D01*
X70465319Y-36383790D01*
X70477078Y-36343740D01*
X70493773Y-36309593D01*
X70503700Y-36241460D01*
X70503700Y-36129699D01*
X70510744Y-36105709D01*
X70513715Y-36080878D01*
X70521345Y-36069604D01*
X70523385Y-36062660D01*
X70532087Y-36050742D01*
X70535841Y-36046195D01*
X70618274Y-35963763D01*
X70646462Y-35914940D01*
X70667710Y-35878138D01*
X70693300Y-35782635D01*
X70693300Y-35254983D01*
X70712985Y-35187944D01*
X70765789Y-35142189D01*
X70773942Y-35138810D01*
X70798026Y-35129828D01*
X70907487Y-35047887D01*
X70965134Y-34970878D01*
X71021067Y-34929007D01*
X71032296Y-34925417D01*
X71050238Y-34920610D01*
X71135862Y-34871175D01*
X71205775Y-34801262D01*
X71802819Y-34204218D01*
X71864142Y-34170733D01*
X71933834Y-34175717D01*
G37*
%TD.AperFunction*%
%TA.AperFunction,Conductor*%
G36*
X66951303Y-37967722D02*
G01*
X66980584Y-38005139D01*
X67055476Y-38152123D01*
X67171172Y-38311364D01*
X67310354Y-38450546D01*
X67371368Y-38494875D01*
X67414032Y-38550204D01*
X67420011Y-38619817D01*
X67387405Y-38681612D01*
X67354779Y-38705675D01*
X67338836Y-38713798D01*
X67338835Y-38713799D01*
X67255894Y-38774058D01*
X67995591Y-39513755D01*
X67932007Y-39530793D01*
X67817993Y-39596619D01*
X67724901Y-39689711D01*
X67659075Y-39803725D01*
X67642037Y-39867309D01*
X66902340Y-39127612D01*
X66879829Y-39129384D01*
X66811452Y-39115020D01*
X66761695Y-39065969D01*
X66746100Y-39005766D01*
X66746100Y-38061435D01*
X66765785Y-37994396D01*
X66818589Y-37948641D01*
X66887747Y-37938697D01*
X66951303Y-37967722D01*
G37*
%TD.AperFunction*%
%TA.AperFunction,Conductor*%
G36*
X71872340Y-22913385D02*
G01*
X71918095Y-22966189D01*
X71928039Y-23035347D01*
X71899014Y-23098903D01*
X71892982Y-23105381D01*
X70108326Y-24890036D01*
X70058891Y-24975659D01*
X70058891Y-24975660D01*
X70058890Y-24975662D01*
X70033300Y-25071165D01*
X70033300Y-25071167D01*
X70033300Y-30048641D01*
X70035006Y-30055004D01*
X70035037Y-30055119D01*
X70035278Y-30056017D01*
X70058890Y-30144139D01*
X70062851Y-30150999D01*
X70108325Y-30229762D01*
X70108326Y-30229763D01*
X70108327Y-30229764D01*
X71580981Y-31702418D01*
X71614466Y-31763741D01*
X71617300Y-31790099D01*
X71617300Y-33276300D01*
X71597615Y-33343339D01*
X71580981Y-33363981D01*
X71475936Y-33469026D01*
X71414613Y-33502511D01*
X71344921Y-33497527D01*
X71288988Y-33455655D01*
X71264571Y-33390191D01*
X71270550Y-33342339D01*
X71282655Y-33305807D01*
X71292799Y-33206522D01*
X71292800Y-33206509D01*
X71292800Y-33183200D01*
X69342801Y-33183200D01*
X69342801Y-33206522D01*
X69352944Y-33305807D01*
X69406252Y-33466681D01*
X69406257Y-33466692D01*
X69495224Y-33610928D01*
X69495227Y-33610932D01*
X69615066Y-33730771D01*
X69673068Y-33766547D01*
X69719792Y-33818495D01*
X69731015Y-33887458D01*
X69707239Y-33946395D01*
X69646174Y-34027969D01*
X69646172Y-34027973D01*
X69646172Y-34027974D01*
X69631968Y-34066056D01*
X69598387Y-34156089D01*
X69592300Y-34212698D01*
X69592300Y-34691557D01*
X69572615Y-34758596D01*
X69543186Y-34784095D01*
X69560559Y-34797100D01*
X69580703Y-34806300D01*
X69589204Y-34818544D01*
X69598766Y-34825702D01*
X69615681Y-34856678D01*
X69621088Y-34871175D01*
X69646172Y-34938426D01*
X69728113Y-35047887D01*
X69837574Y-35129828D01*
X69861636Y-35138802D01*
X69879360Y-35152071D01*
X69899503Y-35161270D01*
X69906785Y-35172601D01*
X69917567Y-35180673D01*
X69925304Y-35201418D01*
X69937277Y-35220048D01*
X69940428Y-35241966D01*
X69941984Y-35246137D01*
X69942300Y-35254983D01*
X69942300Y-35488195D01*
X69922615Y-35555234D01*
X69869811Y-35600989D01*
X69854914Y-35606666D01*
X69851812Y-35607624D01*
X69746714Y-35659003D01*
X69664003Y-35741714D01*
X69612626Y-35846808D01*
X69602700Y-35914939D01*
X69602700Y-36241460D01*
X69612626Y-36309592D01*
X69612626Y-36309593D01*
X69629320Y-36343741D01*
X69641078Y-36412614D01*
X69639309Y-36423510D01*
X69636139Y-36438710D01*
X69612627Y-36486807D01*
X69602700Y-36554940D01*
X69602700Y-36599092D01*
X69600090Y-36611610D01*
X69589399Y-36631597D01*
X69583015Y-36653339D01*
X69567415Y-36672696D01*
X69567136Y-36673220D01*
X69566878Y-36673363D01*
X69566381Y-36673981D01*
X69383251Y-36857110D01*
X69321928Y-36890595D01*
X69252236Y-36885611D01*
X69196303Y-36843739D01*
X69195252Y-36842315D01*
X69194523Y-36841312D01*
X69078828Y-36682072D01*
X68939646Y-36542890D01*
X68780405Y-36427194D01*
X68643038Y-36357202D01*
X68592243Y-36309229D01*
X68575448Y-36241408D01*
X68597985Y-36175273D01*
X68643039Y-36136233D01*
X68655863Y-36129699D01*
X68780405Y-36066242D01*
X68939646Y-35950546D01*
X69078828Y-35811364D01*
X69194524Y-35652123D01*
X69283884Y-35476743D01*
X69344709Y-35289544D01*
X69360801Y-35187944D01*
X69375500Y-35095140D01*
X69375500Y-34900013D01*
X69379294Y-34887089D01*
X69378334Y-34873656D01*
X69388946Y-34854219D01*
X69395185Y-34832974D01*
X69405362Y-34824155D01*
X69411818Y-34812332D01*
X69427547Y-34803743D01*
X69387097Y-34785270D01*
X69349323Y-34726492D01*
X69345829Y-34710967D01*
X69344709Y-34703892D01*
X69283884Y-34516693D01*
X69283882Y-34516690D01*
X69283882Y-34516688D01*
X69224491Y-34400127D01*
X69194524Y-34341313D01*
X69078828Y-34182072D01*
X68939646Y-34042890D01*
X68780405Y-33927194D01*
X68684206Y-33878178D01*
X68633410Y-33830203D01*
X68616615Y-33762382D01*
X68639153Y-33696247D01*
X68671608Y-33664592D01*
X68766069Y-33601476D01*
X68856676Y-33510869D01*
X68927865Y-33404327D01*
X68976901Y-33285944D01*
X68989845Y-33220871D01*
X69001900Y-33160271D01*
X69001900Y-33032128D01*
X68976902Y-32906461D01*
X68976901Y-32906460D01*
X68976901Y-32906456D01*
X68927865Y-32788073D01*
X68927864Y-32788072D01*
X68927861Y-32788066D01*
X68886135Y-32725619D01*
X68856676Y-32681531D01*
X68856673Y-32681527D01*
X68835023Y-32659877D01*
X69342800Y-32659877D01*
X69342800Y-32683200D01*
X70067800Y-32683200D01*
X70567800Y-32683200D01*
X71292799Y-32683200D01*
X71292799Y-32659892D01*
X71292798Y-32659877D01*
X71282655Y-32560592D01*
X71229347Y-32399718D01*
X71229342Y-32399707D01*
X71140375Y-32255471D01*
X71140372Y-32255467D01*
X71020532Y-32135627D01*
X71020528Y-32135624D01*
X70876292Y-32046657D01*
X70876281Y-32046652D01*
X70715406Y-31993344D01*
X70616122Y-31983200D01*
X70567800Y-31983200D01*
X70567800Y-32683200D01*
X70067800Y-32683200D01*
X70067800Y-31983200D01*
X70067799Y-31983199D01*
X70019493Y-31983200D01*
X70019475Y-31983201D01*
X69920192Y-31993344D01*
X69759318Y-32046652D01*
X69759307Y-32046657D01*
X69615071Y-32135624D01*
X69615067Y-32135627D01*
X69495227Y-32255467D01*
X69495224Y-32255471D01*
X69406257Y-32399707D01*
X69406252Y-32399718D01*
X69352944Y-32560593D01*
X69342800Y-32659877D01*
X68835023Y-32659877D01*
X68766072Y-32590926D01*
X68766068Y-32590923D01*
X68659533Y-32519738D01*
X68659524Y-32519733D01*
X68541144Y-32470699D01*
X68541138Y-32470697D01*
X68443911Y-32451357D01*
X68382000Y-32418972D01*
X68347426Y-32358256D01*
X68351167Y-32288486D01*
X68380418Y-32242063D01*
X68540470Y-32082012D01*
X68586614Y-32002088D01*
X68589978Y-31989534D01*
X68591676Y-31983200D01*
X68597940Y-31959816D01*
X68610500Y-31912944D01*
X68610500Y-31757534D01*
X68630185Y-31690495D01*
X68631397Y-31688644D01*
X68635691Y-31682218D01*
X68680966Y-31614458D01*
X68695500Y-31541392D01*
X68695500Y-31122044D01*
X68695500Y-31122041D01*
X68695499Y-31122039D01*
X68680968Y-31048985D01*
X68680966Y-31048982D01*
X68680966Y-31048978D01*
X68680963Y-31048974D01*
X68678977Y-31044179D01*
X68671504Y-30974710D01*
X68678977Y-30949257D01*
X68680962Y-30944463D01*
X68680966Y-30944458D01*
X68695500Y-30871392D01*
X68695500Y-30452044D01*
X68695500Y-30452041D01*
X68695499Y-30452039D01*
X68680967Y-30378982D01*
X68680966Y-30378978D01*
X68631396Y-30304791D01*
X68625746Y-30286745D01*
X68615523Y-30270837D01*
X68611071Y-30239874D01*
X68610520Y-30238114D01*
X68610500Y-30235902D01*
X68610500Y-29988608D01*
X68630185Y-29921569D01*
X68682989Y-29875814D01*
X68752147Y-29865870D01*
X68781948Y-29874045D01*
X68872856Y-29911701D01*
X68872860Y-29911701D01*
X68872861Y-29911702D01*
X68998528Y-29936700D01*
X68998531Y-29936700D01*
X69126671Y-29936700D01*
X69213886Y-29919351D01*
X69252344Y-29911701D01*
X69370727Y-29862665D01*
X69477269Y-29791476D01*
X69567876Y-29700869D01*
X69639065Y-29594327D01*
X69688101Y-29475944D01*
X69706285Y-29384529D01*
X69713100Y-29350271D01*
X69713100Y-29222128D01*
X69688102Y-29096461D01*
X69688101Y-29096460D01*
X69688101Y-29096456D01*
X69639065Y-28978073D01*
X69639064Y-28978072D01*
X69639061Y-28978066D01*
X69567876Y-28871531D01*
X69567873Y-28871527D01*
X69477272Y-28780926D01*
X69477268Y-28780923D01*
X69370733Y-28709738D01*
X69370724Y-28709733D01*
X69252344Y-28660699D01*
X69252338Y-28660697D01*
X69126671Y-28635700D01*
X69126669Y-28635700D01*
X68998531Y-28635700D01*
X68998529Y-28635700D01*
X68872861Y-28660697D01*
X68872855Y-28660699D01*
X68754475Y-28709733D01*
X68754466Y-28709738D01*
X68647931Y-28780923D01*
X68647927Y-28780926D01*
X68557326Y-28871527D01*
X68557321Y-28871533D01*
X68536142Y-28903230D01*
X68482529Y-28948035D01*
X68465139Y-28954112D01*
X68444713Y-28959585D01*
X68444712Y-28959586D01*
X68364791Y-29005728D01*
X68364785Y-29005733D01*
X67979531Y-29390986D01*
X67979527Y-29390991D01*
X67933387Y-29470909D01*
X67933386Y-29470912D01*
X67909500Y-29560056D01*
X67909500Y-29852718D01*
X67889815Y-29919757D01*
X67837011Y-29965512D01*
X67785500Y-29976718D01*
X67775000Y-29976718D01*
X67775000Y-30537718D01*
X67772449Y-30546403D01*
X67773738Y-30555365D01*
X67762759Y-30579405D01*
X67755315Y-30604757D01*
X67748474Y-30610684D01*
X67744713Y-30618921D01*
X67722478Y-30633210D01*
X67702511Y-30650512D01*
X67691996Y-30652799D01*
X67685935Y-30656695D01*
X67651000Y-30661718D01*
X67529000Y-30661718D01*
X67461961Y-30642033D01*
X67416206Y-30589229D01*
X67405000Y-30537718D01*
X67405000Y-29976718D01*
X67357155Y-29976718D01*
X67297627Y-29983119D01*
X67297620Y-29983121D01*
X67162912Y-30033364D01*
X67158123Y-30035979D01*
X67089849Y-30050828D01*
X67024386Y-30026408D01*
X66982517Y-29970473D01*
X66974700Y-29927144D01*
X66974700Y-26739544D01*
X66994385Y-26672505D01*
X67011019Y-26651863D01*
X70732863Y-22930019D01*
X70794186Y-22896534D01*
X70820544Y-22893700D01*
X71805301Y-22893700D01*
X71872340Y-22913385D01*
G37*
%TD.AperFunction*%
%TA.AperFunction,Conductor*%
G36*
X93017237Y-20985075D02*
G01*
X93246380Y-21000094D01*
X93255852Y-21001084D01*
X93303666Y-21007959D01*
X93310163Y-21009072D01*
X93510328Y-21048889D01*
X93521031Y-21051519D01*
X93559220Y-21062732D01*
X93564089Y-21064274D01*
X93766320Y-21132923D01*
X93777953Y-21137540D01*
X93785224Y-21140860D01*
X93796421Y-21145975D01*
X93799746Y-21147554D01*
X93894443Y-21194253D01*
X94005673Y-21249107D01*
X94019699Y-21257205D01*
X94223666Y-21393492D01*
X94236526Y-21403360D01*
X94344979Y-21498471D01*
X94420948Y-21565095D01*
X94432418Y-21576565D01*
X94594148Y-21760985D01*
X94604021Y-21773853D01*
X94740297Y-21977806D01*
X94748408Y-21991853D01*
X94849960Y-22197786D01*
X94851542Y-22201118D01*
X94859965Y-22219562D01*
X94864589Y-22231215D01*
X94933218Y-22433391D01*
X94934776Y-22438315D01*
X94945978Y-22476466D01*
X94948619Y-22487210D01*
X94988424Y-22687331D01*
X94989544Y-22693873D01*
X94996413Y-22741645D01*
X94997410Y-22751183D01*
X95002160Y-22823652D01*
X95012445Y-22980595D01*
X95012710Y-22988690D01*
X95012710Y-27602372D01*
X95012444Y-27610484D01*
X94997528Y-27837996D01*
X94996532Y-27847532D01*
X94989122Y-27899066D01*
X94988001Y-27905611D01*
X94948896Y-28102191D01*
X94946256Y-28112932D01*
X94933859Y-28155153D01*
X94932301Y-28160078D01*
X94864983Y-28358387D01*
X94860357Y-28370042D01*
X94849753Y-28393260D01*
X94848172Y-28396591D01*
X94748412Y-28598881D01*
X94740302Y-28612928D01*
X94604026Y-28816876D01*
X94594152Y-28829744D01*
X94432416Y-29014166D01*
X94420947Y-29025634D01*
X94236534Y-29187359D01*
X94223666Y-29197233D01*
X94019713Y-29333510D01*
X94005665Y-29341620D01*
X93803355Y-29441387D01*
X93800024Y-29442969D01*
X93776829Y-29453562D01*
X93765175Y-29458187D01*
X93566849Y-29525509D01*
X93561928Y-29527066D01*
X93519731Y-29539457D01*
X93508986Y-29542098D01*
X93312378Y-29581207D01*
X93305834Y-29582328D01*
X93254326Y-29589734D01*
X93244789Y-29590730D01*
X93017008Y-29605661D01*
X93008897Y-29605927D01*
X81557273Y-29605927D01*
X81557270Y-29605924D01*
X81557036Y-29605927D01*
X81540773Y-29605927D01*
X81539307Y-29606153D01*
X81299163Y-29609228D01*
X81299162Y-29609227D01*
X81294670Y-29609286D01*
X81277255Y-29609509D01*
X81277247Y-29609502D01*
X81277026Y-29609512D01*
X81276851Y-29609515D01*
X81276844Y-29609520D01*
X81275188Y-29609542D01*
X81260498Y-29609795D01*
X81257221Y-29610479D01*
X80678395Y-29638751D01*
X80678396Y-29638752D01*
X80677911Y-29638775D01*
X80656700Y-29639812D01*
X80656689Y-29639803D01*
X80656484Y-29639822D01*
X80656300Y-29639832D01*
X80656290Y-29639841D01*
X80656238Y-29639846D01*
X80653768Y-29639968D01*
X80641995Y-29640608D01*
X80637871Y-29641642D01*
X80036188Y-29700495D01*
X80030662Y-29701035D01*
X80014713Y-29702596D01*
X80014701Y-29702587D01*
X80014509Y-29702616D01*
X80014316Y-29702635D01*
X80014314Y-29702636D01*
X80011243Y-29702937D01*
X79999593Y-29704084D01*
X79994822Y-29705602D01*
X79425008Y-29792067D01*
X79425007Y-29792066D01*
X79418959Y-29792985D01*
X79404418Y-29795192D01*
X79404404Y-29795183D01*
X79404214Y-29795223D01*
X79404025Y-29795252D01*
X79404021Y-29795256D01*
X79400664Y-29795767D01*
X79400663Y-29795766D01*
X79389143Y-29797534D01*
X79384138Y-29799484D01*
X78865560Y-29909563D01*
X78865561Y-29909564D01*
X78864655Y-29909757D01*
X78845223Y-29913882D01*
X78845207Y-29913873D01*
X78845026Y-29913923D01*
X78844837Y-29913964D01*
X78844826Y-29913979D01*
X78841354Y-29914719D01*
X78830824Y-29917003D01*
X78825741Y-29919351D01*
X78364368Y-30049203D01*
X78364367Y-30049202D01*
X78358598Y-30050828D01*
X78343736Y-30055011D01*
X78343722Y-30055004D01*
X78343537Y-30055067D01*
X78343354Y-30055119D01*
X78343350Y-30055125D01*
X78340296Y-30055986D01*
X78329074Y-30059176D01*
X78324561Y-30061579D01*
X78106766Y-30136332D01*
X78106232Y-30136515D01*
X78087389Y-30142983D01*
X78087374Y-30142977D01*
X78087200Y-30143048D01*
X78087016Y-30143112D01*
X78087009Y-30143124D01*
X78083911Y-30144190D01*
X78072555Y-30148140D01*
X78067959Y-30150999D01*
X77668896Y-30315910D01*
X77668237Y-30316182D01*
X77650940Y-30323331D01*
X77650918Y-30323324D01*
X77650755Y-30323407D01*
X77650581Y-30323480D01*
X77650571Y-30323502D01*
X77650550Y-30323512D01*
X77646334Y-30325260D01*
X77639572Y-30328097D01*
X77634232Y-30331940D01*
X77270118Y-30519991D01*
X77270117Y-30519990D01*
X77269211Y-30520459D01*
X77253689Y-30528476D01*
X77253664Y-30528471D01*
X77253506Y-30528570D01*
X77253344Y-30528655D01*
X77253336Y-30528679D01*
X77253275Y-30528717D01*
X77249110Y-30530876D01*
X77242640Y-30534271D01*
X77237500Y-30538745D01*
X76904606Y-30750356D01*
X76904605Y-30750355D01*
X76902217Y-30751875D01*
X76888977Y-30760292D01*
X76888951Y-30760289D01*
X76888804Y-30760402D01*
X76888651Y-30760500D01*
X76888646Y-30760517D01*
X76884332Y-30763265D01*
X76879005Y-30766677D01*
X76874109Y-30771775D01*
X76565837Y-31010376D01*
X76565838Y-31010377D01*
X76551447Y-31021516D01*
X76551424Y-31021516D01*
X76551290Y-31021638D01*
X76551140Y-31021755D01*
X76551136Y-31021774D01*
X76547272Y-31024771D01*
X76547270Y-31024771D01*
X76541870Y-31028983D01*
X76537709Y-31034104D01*
X76307981Y-31244990D01*
X76293526Y-31258261D01*
X76293508Y-31258262D01*
X76293372Y-31258403D01*
X76293234Y-31258530D01*
X76293233Y-31258534D01*
X76290654Y-31260904D01*
X76282388Y-31268511D01*
X76279196Y-31273132D01*
X76147817Y-31409655D01*
X76147818Y-31409656D01*
X76132839Y-31425222D01*
X76132825Y-31425223D01*
X76132694Y-31425372D01*
X76132562Y-31425510D01*
X76132562Y-31425519D01*
X76130662Y-31427495D01*
X76121039Y-31437556D01*
X76118681Y-31441402D01*
X75998556Y-31578829D01*
X75998036Y-31579425D01*
X75985036Y-31594297D01*
X75985023Y-31594299D01*
X75984903Y-31594449D01*
X75984773Y-31594599D01*
X75984773Y-31594611D01*
X75983210Y-31596401D01*
X75974734Y-31606180D01*
X75972595Y-31609973D01*
X75844767Y-31771210D01*
X75842441Y-31774145D01*
X75832230Y-31787026D01*
X75832216Y-31787029D01*
X75832096Y-31787195D01*
X75831981Y-31787341D01*
X75831981Y-31787349D01*
X75830525Y-31789188D01*
X75821838Y-31800216D01*
X75819882Y-31804189D01*
X75705876Y-31962830D01*
X75704639Y-31964551D01*
X75693500Y-31980053D01*
X75693487Y-31980056D01*
X75693381Y-31980218D01*
X75693267Y-31980378D01*
X75693268Y-31980389D01*
X75691953Y-31982222D01*
X75683348Y-31994299D01*
X75681603Y-31998378D01*
X75548186Y-32204089D01*
X75536956Y-32221406D01*
X75536943Y-32221410D01*
X75536841Y-32221582D01*
X75536738Y-32221743D01*
X75536740Y-32221755D01*
X75536697Y-32221827D01*
X75535508Y-32223664D01*
X75527844Y-32235645D01*
X75526389Y-32239444D01*
X75401830Y-32452326D01*
X75393516Y-32464751D01*
X75320410Y-32560910D01*
X75304026Y-32578589D01*
X75282016Y-32598131D01*
X75262521Y-32612306D01*
X75162390Y-32671157D01*
X75140515Y-32681294D01*
X75112723Y-32691019D01*
X75089310Y-32696731D01*
X74974470Y-32713142D01*
X74950154Y-32714204D01*
X74910015Y-32712008D01*
X74903246Y-32711451D01*
X74818919Y-32702185D01*
X74642585Y-32716659D01*
X74642578Y-32716661D01*
X74472265Y-32764559D01*
X74472255Y-32764563D01*
X74452690Y-32774411D01*
X74452691Y-32774412D01*
X74445921Y-32777820D01*
X74443790Y-32778484D01*
X74436005Y-32782814D01*
X74433706Y-32783972D01*
X74433703Y-32783972D01*
X74433699Y-32783975D01*
X74314234Y-32844122D01*
X74292139Y-32861223D01*
X74292138Y-32861222D01*
X74284712Y-32866969D01*
X74278542Y-32870402D01*
X74263901Y-32883078D01*
X74261181Y-32885184D01*
X74261176Y-32885189D01*
X74174313Y-32952422D01*
X74149989Y-32980160D01*
X74149990Y-32980161D01*
X74144363Y-32986577D01*
X74135589Y-32994175D01*
X74121558Y-33012586D01*
X74118728Y-33015814D01*
X74118725Y-33015819D01*
X74057669Y-33085455D01*
X74034389Y-33125409D01*
X74034388Y-33125410D01*
X74030522Y-33132044D01*
X74020975Y-33144572D01*
X74010819Y-33165855D01*
X74008238Y-33170286D01*
X73968595Y-33238325D01*
X73950131Y-33291312D01*
X73950130Y-33291315D01*
X73947887Y-33297750D01*
X73939546Y-33315232D01*
X73934306Y-33336717D01*
X73932341Y-33342357D01*
X73910373Y-33405397D01*
X73910372Y-33405402D01*
X73900856Y-33471465D01*
X73900004Y-33477377D01*
X73894746Y-33498940D01*
X73894100Y-33518359D01*
X73893127Y-33525120D01*
X73885148Y-33580512D01*
X73885148Y-33580523D01*
X73889008Y-33658947D01*
X73889260Y-33664073D01*
X73888468Y-33687927D01*
X73891207Y-33703624D01*
X73891585Y-33711288D01*
X73891586Y-33711291D01*
X73893849Y-33757237D01*
X73893850Y-33757241D01*
X73915886Y-33846722D01*
X73916904Y-33850858D01*
X73920979Y-33874203D01*
X73925371Y-33885238D01*
X73927410Y-33893518D01*
X73936156Y-33929032D01*
X73965016Y-33991344D01*
X73981981Y-34027974D01*
X73983394Y-34031026D01*
X73990903Y-34049891D01*
X73994992Y-34056068D01*
X73998934Y-34064579D01*
X73998934Y-34064580D01*
X74010511Y-34089577D01*
X74010512Y-34089579D01*
X74010513Y-34089580D01*
X74061955Y-34160733D01*
X74088069Y-34196852D01*
X74089556Y-34198909D01*
X74095284Y-34207561D01*
X74097135Y-34209392D01*
X74114175Y-34232961D01*
X74243325Y-34353892D01*
X74393203Y-34447916D01*
X74464430Y-34475457D01*
X74485859Y-34486231D01*
X74536685Y-34518290D01*
X74571550Y-34551258D01*
X74600669Y-34592164D01*
X74619181Y-34631085D01*
X74628665Y-34665448D01*
X74633034Y-34703407D01*
X74631112Y-34751328D01*
X74628868Y-34770354D01*
X73905121Y-38439842D01*
X73905122Y-38439843D01*
X73905023Y-38440347D01*
X73903983Y-38445650D01*
X73903982Y-38445658D01*
X73799178Y-38980112D01*
X73799173Y-38980144D01*
X73719322Y-39387719D01*
X73719103Y-39388810D01*
X73484984Y-40529426D01*
X73484157Y-40533160D01*
X73288507Y-41356546D01*
X73287105Y-41361909D01*
X73088564Y-42057601D01*
X73086599Y-42063857D01*
X72865673Y-42706993D01*
X72863214Y-42713542D01*
X72603921Y-43349206D01*
X72601849Y-43353996D01*
X72452731Y-43679661D01*
X72451281Y-43682716D01*
X72286731Y-44017638D01*
X72285254Y-44020547D01*
X72099415Y-44374930D01*
X72097946Y-44377649D01*
X71893219Y-44745458D01*
X71891853Y-44747849D01*
X71740469Y-45006156D01*
X71738956Y-45008669D01*
X71540557Y-45329544D01*
X71538802Y-45332301D01*
X71332308Y-45647390D01*
X71330481Y-45650099D01*
X71115632Y-45959821D01*
X71113735Y-45962480D01*
X70890938Y-46266248D01*
X70888973Y-46268855D01*
X70658204Y-46566720D01*
X70656171Y-46569274D01*
X70418221Y-46860253D01*
X70415050Y-46863977D01*
X70363751Y-46921887D01*
X69914982Y-47428472D01*
X69910529Y-47433239D01*
X69382204Y-47969902D01*
X69377508Y-47974427D01*
X68821890Y-48482399D01*
X68816965Y-48486670D01*
X68234820Y-48965235D01*
X68231233Y-48968075D01*
X67990382Y-49151611D01*
X67988016Y-49153370D01*
X67682457Y-49374931D01*
X67679788Y-49376813D01*
X67368910Y-49589972D01*
X67366193Y-49591783D01*
X67049643Y-49796790D01*
X67046880Y-49798528D01*
X66725226Y-49995019D01*
X66722419Y-49996683D01*
X66395718Y-50184636D01*
X66392868Y-50186226D01*
X66062123Y-50365090D01*
X66057774Y-50367332D01*
X65380676Y-50699671D01*
X65374748Y-50702390D01*
X64682141Y-50998230D01*
X64676080Y-51000633D01*
X63969121Y-51259570D01*
X63962944Y-51261650D01*
X63242664Y-51483294D01*
X63238305Y-51484548D01*
X62954608Y-51560608D01*
X62951787Y-51561329D01*
X62584993Y-51650493D01*
X62581810Y-51651223D01*
X62213374Y-51730572D01*
X62210173Y-51731217D01*
X61839597Y-51800872D01*
X61836381Y-51801433D01*
X61464290Y-51861278D01*
X61461061Y-51861754D01*
X61087474Y-51911791D01*
X61084234Y-51912181D01*
X60710456Y-51952262D01*
X60705582Y-51952688D01*
X59953087Y-52003455D01*
X59946569Y-52003723D01*
X59193530Y-52014831D01*
X59187010Y-52014755D01*
X58434736Y-51986275D01*
X58428231Y-51985858D01*
X57677674Y-51917811D01*
X57673148Y-51917316D01*
X57377808Y-51879566D01*
X57374908Y-51879161D01*
X57001739Y-51822476D01*
X56998517Y-51821943D01*
X56627472Y-51755541D01*
X56624267Y-51754924D01*
X56254935Y-51678745D01*
X56251746Y-51678043D01*
X55884791Y-51592224D01*
X55881624Y-51591439D01*
X55517033Y-51495987D01*
X55513886Y-51495119D01*
X55152799Y-51390354D01*
X55148128Y-51388898D01*
X54432706Y-51150351D01*
X54426574Y-51148126D01*
X53725685Y-50872680D01*
X53719681Y-50870136D01*
X53034522Y-50558352D01*
X53028662Y-50555497D01*
X52360189Y-50207801D01*
X52356197Y-50205631D01*
X52099220Y-50059767D01*
X52096699Y-50058296D01*
X51772963Y-49864324D01*
X51770184Y-49862609D01*
X51452075Y-49660438D01*
X51449342Y-49658650D01*
X51136547Y-49448092D01*
X51133863Y-49446234D01*
X50906631Y-49284421D01*
X50826853Y-49227610D01*
X50824308Y-49225746D01*
X50523062Y-48999044D01*
X50520502Y-48997064D01*
X50299589Y-48821524D01*
X50226159Y-48763175D01*
X50222399Y-48760065D01*
X50211103Y-48750338D01*
X49728076Y-48334393D01*
X49650903Y-48267938D01*
X49646074Y-48263553D01*
X49370460Y-47999740D01*
X49102057Y-47742830D01*
X49097470Y-47738203D01*
X49091125Y-47731456D01*
X48912458Y-47541459D01*
X48581778Y-47189810D01*
X48577439Y-47184945D01*
X48090801Y-46609645D01*
X48087939Y-46606134D01*
X47957150Y-46439468D01*
X47904028Y-46371773D01*
X47902247Y-46369448D01*
X47676361Y-46067162D01*
X47674441Y-46064520D01*
X47456905Y-45756827D01*
X47455055Y-45754136D01*
X47434739Y-45723732D01*
X47245583Y-45440650D01*
X47243843Y-45437969D01*
X47236606Y-45426495D01*
X47042822Y-45119272D01*
X47041163Y-45116563D01*
X46848598Y-44792680D01*
X46847017Y-44789942D01*
X46663439Y-44461808D01*
X46661170Y-44457557D01*
X46319315Y-43785566D01*
X46316511Y-43779674D01*
X46181593Y-43475901D01*
X46160706Y-43428873D01*
X49905000Y-43428873D01*
X49905000Y-43476718D01*
X50405000Y-43476718D01*
X50405000Y-42976718D01*
X50357155Y-42976718D01*
X50297627Y-42983119D01*
X50297620Y-42983121D01*
X50162913Y-43033363D01*
X50162906Y-43033367D01*
X50047812Y-43119527D01*
X50047809Y-43119530D01*
X49961649Y-43234624D01*
X49961645Y-43234631D01*
X49911403Y-43369338D01*
X49911401Y-43369345D01*
X49905000Y-43428873D01*
X46160706Y-43428873D01*
X46138547Y-43378982D01*
X46010969Y-43091736D01*
X46008499Y-43085755D01*
X45739646Y-42382930D01*
X45737481Y-42376789D01*
X45727595Y-42346218D01*
X45505752Y-41660174D01*
X45504437Y-41655837D01*
X45424744Y-41374676D01*
X45423984Y-41371870D01*
X45420788Y-41359495D01*
X45329659Y-41006665D01*
X45328908Y-41003595D01*
X45244322Y-40636388D01*
X45243654Y-40633301D01*
X45168754Y-40263903D01*
X45168170Y-40260815D01*
X45103063Y-39889780D01*
X45102560Y-39886676D01*
X45047250Y-39514072D01*
X45046817Y-39510861D01*
X45035877Y-39420915D01*
X45001457Y-39137906D01*
X45000963Y-39133044D01*
X44995482Y-39065969D01*
X44939585Y-38381932D01*
X44939228Y-38375453D01*
X44917492Y-37623222D01*
X44917476Y-37616712D01*
X44917989Y-37595135D01*
X44935336Y-36864686D01*
X44935662Y-36858186D01*
X44935745Y-36857110D01*
X44993109Y-36107334D01*
X44993536Y-36102843D01*
X44996315Y-36078337D01*
X45026429Y-35812776D01*
X45026786Y-35809932D01*
X45030532Y-35782635D01*
X45078065Y-35436173D01*
X45078550Y-35432961D01*
X45109903Y-35241966D01*
X45139559Y-35061298D01*
X45140129Y-35058090D01*
X45142081Y-35047887D01*
X45210964Y-34687874D01*
X45211605Y-34684751D01*
X45292132Y-34316696D01*
X45292839Y-34313660D01*
X45330605Y-34160484D01*
X48399500Y-34160484D01*
X48399500Y-34332951D01*
X48433143Y-34502084D01*
X48433146Y-34502096D01*
X48499138Y-34661416D01*
X48499145Y-34661429D01*
X48594954Y-34804816D01*
X48594957Y-34804820D01*
X48716897Y-34926760D01*
X48716905Y-34926766D01*
X48844390Y-35011949D01*
X48889196Y-35065561D01*
X48899500Y-35115051D01*
X48899500Y-39878384D01*
X48879815Y-39945423D01*
X48844391Y-39981486D01*
X48716901Y-40066672D01*
X48716897Y-40066675D01*
X48594957Y-40188615D01*
X48594954Y-40188619D01*
X48499145Y-40332006D01*
X48499138Y-40332019D01*
X48433146Y-40491339D01*
X48433143Y-40491351D01*
X48399500Y-40660484D01*
X48399500Y-40832951D01*
X48433143Y-41002084D01*
X48433146Y-41002096D01*
X48499138Y-41161416D01*
X48499145Y-41161429D01*
X48594954Y-41304816D01*
X48594957Y-41304820D01*
X48716897Y-41426760D01*
X48716901Y-41426763D01*
X48860288Y-41522572D01*
X48860301Y-41522579D01*
X49019621Y-41588571D01*
X49019626Y-41588573D01*
X49188766Y-41622217D01*
X49188769Y-41622218D01*
X49188771Y-41622218D01*
X49361231Y-41622218D01*
X49361232Y-41622217D01*
X49530374Y-41588573D01*
X49689705Y-41522576D01*
X49833099Y-41426763D01*
X49955045Y-41304817D01*
X50050858Y-41161423D01*
X50116855Y-41002092D01*
X50150500Y-40832947D01*
X50150500Y-40660489D01*
X50150500Y-40660486D01*
X50150499Y-40660484D01*
X50145081Y-40633247D01*
X50116855Y-40491344D01*
X50077701Y-40396817D01*
X50050861Y-40332019D01*
X50050854Y-40332006D01*
X49955045Y-40188619D01*
X49955042Y-40188615D01*
X49833102Y-40066675D01*
X49833098Y-40066672D01*
X49705609Y-39981486D01*
X49660804Y-39927874D01*
X49650500Y-39878384D01*
X49650500Y-35115051D01*
X49670185Y-35048012D01*
X49705610Y-35011949D01*
X49815644Y-34938426D01*
X49833099Y-34926763D01*
X49955045Y-34804817D01*
X50050858Y-34661423D01*
X50116855Y-34502092D01*
X50150500Y-34332947D01*
X50150500Y-34160489D01*
X50150500Y-34160486D01*
X50150499Y-34160484D01*
X50131716Y-34066056D01*
X50116855Y-33991344D01*
X50114868Y-33986546D01*
X50050861Y-33832019D01*
X50050854Y-33832006D01*
X49955045Y-33688619D01*
X49955042Y-33688615D01*
X49833102Y-33566675D01*
X49833098Y-33566672D01*
X49705609Y-33481486D01*
X49660804Y-33427874D01*
X49650500Y-33378384D01*
X49650500Y-30846718D01*
X49905000Y-30846718D01*
X49905000Y-30894562D01*
X49911401Y-30954090D01*
X49911403Y-30954097D01*
X49961645Y-31088804D01*
X49961647Y-31088806D01*
X50047809Y-31203904D01*
X50047810Y-31203905D01*
X50104811Y-31246576D01*
X50146682Y-31302510D01*
X50154500Y-31345843D01*
X50154500Y-31541396D01*
X50169032Y-31614453D01*
X50169033Y-31614457D01*
X50218603Y-31688644D01*
X50239480Y-31755322D01*
X50239500Y-31757534D01*
X50239500Y-33110145D01*
X50258947Y-33182724D01*
X50263385Y-33199286D01*
X50263387Y-33199291D01*
X50309527Y-33279208D01*
X50309531Y-33279213D01*
X50873181Y-33842863D01*
X50906666Y-33904186D01*
X50909500Y-33930544D01*
X50909500Y-42852718D01*
X50889815Y-42919757D01*
X50837011Y-42965512D01*
X50785500Y-42976718D01*
X50775000Y-42976718D01*
X50775000Y-43537718D01*
X50755315Y-43604757D01*
X50702511Y-43650512D01*
X50651000Y-43661718D01*
X50590000Y-43661718D01*
X50590000Y-43722718D01*
X50570315Y-43789757D01*
X50517511Y-43835512D01*
X50466000Y-43846718D01*
X49905000Y-43846718D01*
X49905000Y-43894562D01*
X49911401Y-43954090D01*
X49911403Y-43954097D01*
X49961645Y-44088804D01*
X49961647Y-44088806D01*
X50047809Y-44203904D01*
X50047810Y-44203905D01*
X50104811Y-44246576D01*
X50146682Y-44302510D01*
X50154500Y-44345843D01*
X50154500Y-44541396D01*
X50169032Y-44614453D01*
X50169033Y-44614457D01*
X50169034Y-44614458D01*
X50214308Y-44682217D01*
X50218603Y-44688644D01*
X50239480Y-44755322D01*
X50239500Y-44757534D01*
X50239500Y-45860944D01*
X50247155Y-45889512D01*
X50263386Y-45950089D01*
X50263387Y-45950090D01*
X50309527Y-46030008D01*
X50309529Y-46030011D01*
X50309530Y-46030012D01*
X52667588Y-48388070D01*
X52667589Y-48388071D01*
X52667591Y-48388072D01*
X52670683Y-48389857D01*
X52746232Y-48433475D01*
X52747512Y-48434214D01*
X52836656Y-48458100D01*
X56623256Y-48458100D01*
X56690295Y-48477785D01*
X56710937Y-48494419D01*
X57356689Y-49140171D01*
X57390174Y-49201494D01*
X57390626Y-49252040D01*
X57388500Y-49262729D01*
X57388500Y-49262731D01*
X57388500Y-49390869D01*
X57388500Y-49390871D01*
X57388499Y-49390871D01*
X57413497Y-49516538D01*
X57413499Y-49516544D01*
X57462533Y-49634924D01*
X57462538Y-49634933D01*
X57533723Y-49741468D01*
X57533726Y-49741472D01*
X57624327Y-49832073D01*
X57624331Y-49832076D01*
X57730866Y-49903261D01*
X57730875Y-49903266D01*
X57757692Y-49914374D01*
X57849256Y-49952301D01*
X57849260Y-49952301D01*
X57849261Y-49952302D01*
X57974928Y-49977300D01*
X57974931Y-49977300D01*
X58103071Y-49977300D01*
X58187615Y-49960482D01*
X58228744Y-49952301D01*
X58347127Y-49903265D01*
X58453669Y-49832076D01*
X58519401Y-49766343D01*
X58580722Y-49732860D01*
X58650414Y-49737844D01*
X58706348Y-49779715D01*
X58724787Y-49815021D01*
X58739653Y-49859883D01*
X58739657Y-49859892D01*
X58828624Y-50004128D01*
X58828627Y-50004132D01*
X58948467Y-50123972D01*
X58948471Y-50123975D01*
X59092707Y-50212942D01*
X59092718Y-50212947D01*
X59253593Y-50266255D01*
X59352883Y-50276399D01*
X59376200Y-50276398D01*
X59376200Y-48326399D01*
X59352893Y-48326400D01*
X59352874Y-48326401D01*
X59253592Y-48336544D01*
X59092718Y-48389852D01*
X59092707Y-48389857D01*
X58948471Y-48478824D01*
X58948467Y-48478827D01*
X58828627Y-48598667D01*
X58828624Y-48598671D01*
X58739657Y-48742907D01*
X58739651Y-48742921D01*
X58712142Y-48825935D01*
X58672369Y-48883379D01*
X58607853Y-48910201D01*
X58539077Y-48897885D01*
X58506756Y-48874610D01*
X58453672Y-48821526D01*
X58453668Y-48821523D01*
X58347133Y-48750338D01*
X58347124Y-48750333D01*
X58228744Y-48701299D01*
X58228738Y-48701297D01*
X58103071Y-48676300D01*
X58103069Y-48676300D01*
X57974931Y-48676300D01*
X57974930Y-48676300D01*
X57964240Y-48678426D01*
X57894648Y-48672197D01*
X57852371Y-48644489D01*
X57095614Y-47887732D01*
X57062129Y-47826409D01*
X57067113Y-47756717D01*
X57108985Y-47700784D01*
X57163897Y-47677578D01*
X57276248Y-47659783D01*
X57500802Y-47586820D01*
X57711163Y-47479636D01*
X57711169Y-47479632D01*
X57794104Y-47419376D01*
X57794105Y-47419376D01*
X57054408Y-46679680D01*
X57117993Y-46662643D01*
X57232007Y-46596817D01*
X57325099Y-46503725D01*
X57390925Y-46389711D01*
X57407962Y-46326127D01*
X58147658Y-47065823D01*
X58147658Y-47065822D01*
X58207912Y-46982892D01*
X58207916Y-46982885D01*
X58216040Y-46966942D01*
X58264013Y-46916146D01*
X58331834Y-46899350D01*
X58397969Y-46921887D01*
X58426841Y-46950348D01*
X58471172Y-47011364D01*
X58610354Y-47150546D01*
X58769595Y-47266242D01*
X58841716Y-47302989D01*
X58944970Y-47355600D01*
X58944972Y-47355600D01*
X58944975Y-47355602D01*
X59033209Y-47384271D01*
X59132173Y-47416427D01*
X59326578Y-47447218D01*
X59326583Y-47447218D01*
X59523422Y-47447218D01*
X59717826Y-47416427D01*
X59905025Y-47355602D01*
X59922677Y-47346607D01*
X59946969Y-47342044D01*
X59970128Y-47333407D01*
X59980705Y-47335708D01*
X59991344Y-47333710D01*
X60014245Y-47343004D01*
X60038401Y-47348259D01*
X60051670Y-47358192D01*
X60056085Y-47359984D01*
X60066655Y-47369410D01*
X60177381Y-47480136D01*
X60210866Y-47541459D01*
X60213700Y-47567817D01*
X60213700Y-47731456D01*
X60194015Y-47798495D01*
X60177381Y-47819137D01*
X60170003Y-47826514D01*
X60118626Y-47931608D01*
X60108700Y-47999739D01*
X60108700Y-48210457D01*
X60089015Y-48277496D01*
X60036211Y-48323251D01*
X59972098Y-48333815D01*
X59899524Y-48326400D01*
X59876200Y-48326400D01*
X59876200Y-50276399D01*
X59899508Y-50276399D01*
X59899522Y-50276398D01*
X59998807Y-50266255D01*
X60159681Y-50212947D01*
X60159692Y-50212942D01*
X60303928Y-50123975D01*
X60303932Y-50123972D01*
X60423773Y-50004131D01*
X60459548Y-49946131D01*
X60511496Y-49899406D01*
X60580458Y-49888183D01*
X60639394Y-49911958D01*
X60720974Y-49973028D01*
X60849086Y-50020812D01*
X60905715Y-50026900D01*
X61446684Y-50026899D01*
X61503314Y-50020812D01*
X61631426Y-49973028D01*
X61740887Y-49891087D01*
X61822828Y-49781626D01*
X61831802Y-49757563D01*
X61873673Y-49701633D01*
X61939137Y-49677216D01*
X61947983Y-49676900D01*
X65048035Y-49676900D01*
X65048036Y-49676900D01*
X65096510Y-49663911D01*
X65109499Y-49660431D01*
X65124505Y-49656409D01*
X65143538Y-49651310D01*
X65229162Y-49601875D01*
X65299075Y-49531962D01*
X70518274Y-44312763D01*
X70534758Y-44284212D01*
X70567710Y-44227138D01*
X70593300Y-44131635D01*
X70593300Y-41065099D01*
X70612985Y-40998060D01*
X70629619Y-40977418D01*
X71636177Y-39970860D01*
X72690475Y-38916563D01*
X72739911Y-38830937D01*
X72765500Y-38735436D01*
X72765500Y-38636564D01*
X72765500Y-33897035D01*
X72782112Y-33835036D01*
X72793711Y-33814947D01*
X72819300Y-33719446D01*
X72819300Y-33620574D01*
X72819300Y-31346955D01*
X72819299Y-31346949D01*
X72817308Y-31339521D01*
X72814814Y-31330212D01*
X72793711Y-31251453D01*
X72744275Y-31165827D01*
X72740276Y-31161828D01*
X72739910Y-31160462D01*
X72690475Y-31074838D01*
X72620562Y-31004925D01*
X71303219Y-29687582D01*
X71269734Y-29626259D01*
X71266900Y-29599901D01*
X71266900Y-27427930D01*
X71723025Y-27427930D01*
X71723025Y-27427935D01*
X71724771Y-27455129D01*
X71725026Y-27463074D01*
X71725026Y-27564433D01*
X71740408Y-27700955D01*
X71740744Y-27703944D01*
X71742995Y-27738994D01*
X71747025Y-27759689D01*
X71747583Y-27764638D01*
X71747584Y-27764644D01*
X71755589Y-27835693D01*
X71797653Y-28019990D01*
X71798105Y-28021972D01*
X71802580Y-28044948D01*
X71805040Y-28052359D01*
X71806369Y-28058179D01*
X71806371Y-28058184D01*
X71816336Y-28101844D01*
X71816339Y-28101853D01*
X71906499Y-28359514D01*
X72024941Y-28605461D01*
X72170183Y-28836612D01*
X72170184Y-28836614D01*
X72198094Y-28871612D01*
X72198095Y-28871612D01*
X72201815Y-28876277D01*
X72206086Y-28882838D01*
X72221293Y-28900702D01*
X72222518Y-28902237D01*
X72340386Y-29050039D01*
X72394461Y-29104114D01*
X72408140Y-29120182D01*
X72434155Y-29143808D01*
X72533419Y-29243072D01*
X72615763Y-29308739D01*
X72638886Y-29329739D01*
X72664502Y-29347607D01*
X72667607Y-29350083D01*
X72667607Y-29350084D01*
X72697413Y-29373853D01*
X72746849Y-29413277D01*
X72863187Y-29486377D01*
X72865716Y-29487966D01*
X72894535Y-29508069D01*
X72913234Y-29517824D01*
X72917440Y-29520467D01*
X72917445Y-29520470D01*
X72971266Y-29554288D01*
X72977997Y-29558517D01*
X73085965Y-29610512D01*
X73150136Y-29641415D01*
X73170890Y-29652243D01*
X73178227Y-29654943D01*
X73223948Y-29676961D01*
X73292273Y-29700869D01*
X73481605Y-29767119D01*
X73481617Y-29767123D01*
X73747761Y-29827868D01*
X74019028Y-29858432D01*
X74019029Y-29858433D01*
X74069765Y-29858433D01*
X74077560Y-29859185D01*
X74101009Y-29858433D01*
X74292022Y-29858433D01*
X74303071Y-29857187D01*
X74368023Y-29849869D01*
X74389102Y-29849194D01*
X74423787Y-29843586D01*
X74508896Y-29833996D01*
X74563277Y-29827870D01*
X74563280Y-29827869D01*
X74563291Y-29827868D01*
X74665977Y-29804430D01*
X74696809Y-29799447D01*
X74726755Y-29790558D01*
X74829435Y-29767123D01*
X74961950Y-29720754D01*
X74995627Y-29710759D01*
X75014902Y-29702225D01*
X75087104Y-29676961D01*
X75259235Y-29594066D01*
X75280651Y-29584587D01*
X75287332Y-29580535D01*
X75333057Y-29558516D01*
X75564203Y-29413277D01*
X75777633Y-29243072D01*
X75970665Y-29050040D01*
X76002301Y-29010369D01*
X76007744Y-29004750D01*
X76021766Y-28985961D01*
X76140870Y-28836610D01*
X76181560Y-28771851D01*
X76194177Y-28754947D01*
X76211410Y-28724345D01*
X76286109Y-28605464D01*
X76331815Y-28510552D01*
X76347134Y-28483356D01*
X76358851Y-28454412D01*
X76404554Y-28359511D01*
X76450923Y-28226993D01*
X76464106Y-28194434D01*
X76469454Y-28174036D01*
X76494716Y-28101842D01*
X76537222Y-27915608D01*
X76543170Y-27892927D01*
X76544169Y-27885168D01*
X76555461Y-27835698D01*
X76586026Y-27564427D01*
X76586026Y-27291439D01*
X76555461Y-27020168D01*
X76544170Y-26970700D01*
X76543170Y-26962939D01*
X76537220Y-26940252D01*
X76494716Y-26754024D01*
X76469454Y-26681831D01*
X76464106Y-26661432D01*
X76450927Y-26628883D01*
X76405201Y-26498204D01*
X76404555Y-26496357D01*
X76404554Y-26496355D01*
X76393123Y-26472619D01*
X76358850Y-26401451D01*
X76347134Y-26372510D01*
X76331811Y-26345303D01*
X76304244Y-26288059D01*
X76286112Y-26250407D01*
X76252031Y-26196168D01*
X76211410Y-26131520D01*
X76194177Y-26100919D01*
X76181563Y-26084018D01*
X76178922Y-26079814D01*
X76178915Y-26079804D01*
X76168811Y-26063724D01*
X76140870Y-26019256D01*
X76023001Y-25871453D01*
X76023001Y-25871452D01*
X76021757Y-25869893D01*
X76007744Y-25851116D01*
X76002295Y-25845489D01*
X75970665Y-25805826D01*
X75777633Y-25612794D01*
X75564203Y-25442589D01*
X75543493Y-25429576D01*
X80429511Y-25429576D01*
X80431008Y-25445254D01*
X80431569Y-25457040D01*
X80431569Y-25518162D01*
X80447083Y-25616113D01*
X80447084Y-25616115D01*
X80447685Y-25619912D01*
X80449887Y-25642970D01*
X80453033Y-25653685D01*
X80454281Y-25661564D01*
X80454282Y-25661566D01*
X80459282Y-25693130D01*
X80459284Y-25693136D01*
X80514024Y-25861614D01*
X80514026Y-25861620D01*
X80574128Y-25979574D01*
X80594455Y-26019468D01*
X80604085Y-26032722D01*
X80604339Y-26033072D01*
X80604342Y-26033076D01*
X80607841Y-26037893D01*
X80608506Y-26039182D01*
X80612068Y-26043712D01*
X80613464Y-26045633D01*
X80613464Y-26045635D01*
X80698581Y-26162785D01*
X80698588Y-26162794D01*
X80731962Y-26196168D01*
X80741017Y-26207682D01*
X80759437Y-26223643D01*
X80823855Y-26288061D01*
X80880997Y-26329577D01*
X80880996Y-26329577D01*
X80885295Y-26332700D01*
X80903021Y-26348060D01*
X80919652Y-26357662D01*
X80967179Y-26392192D01*
X80967182Y-26392194D01*
X81068836Y-26443990D01*
X81068837Y-26443990D01*
X81071728Y-26445463D01*
X81088664Y-26455241D01*
X81095689Y-26457671D01*
X81125027Y-26472620D01*
X81125029Y-26472621D01*
X81209270Y-26499992D01*
X81293514Y-26527364D01*
X81468490Y-26555078D01*
X81468491Y-26555078D01*
X81497986Y-26555078D01*
X81503418Y-26555859D01*
X81519814Y-26555078D01*
X81645643Y-26555078D01*
X81645648Y-26555078D01*
X81699767Y-26546506D01*
X81717537Y-26545660D01*
X81740898Y-26539991D01*
X81820624Y-26527364D01*
X81902174Y-26500867D01*
X81925857Y-26495122D01*
X81940650Y-26488365D01*
X81989111Y-26472620D01*
X82109957Y-26411045D01*
X82120848Y-26406072D01*
X82123688Y-26404048D01*
X82146959Y-26392192D01*
X82290283Y-26288061D01*
X82415552Y-26162792D01*
X82436946Y-26133345D01*
X82443390Y-26126588D01*
X82455138Y-26108305D01*
X82519683Y-26019468D01*
X82548201Y-25963496D01*
X82559283Y-25946255D01*
X82567695Y-25925238D01*
X82600111Y-25861620D01*
X82630036Y-25769518D01*
X82638953Y-25747248D01*
X82641403Y-25734534D01*
X82654855Y-25693133D01*
X82682569Y-25518157D01*
X82682569Y-25340999D01*
X82667053Y-25243037D01*
X82654856Y-25166027D01*
X82654855Y-25166023D01*
X82641402Y-25124619D01*
X82638953Y-25111908D01*
X82630030Y-25089621D01*
X82600111Y-24997536D01*
X82567698Y-24933923D01*
X82559283Y-24912901D01*
X82548202Y-24895659D01*
X82519683Y-24839688D01*
X82509787Y-24826067D01*
X82457222Y-24753717D01*
X82455140Y-24750852D01*
X82443390Y-24732568D01*
X82436944Y-24725807D01*
X82432080Y-24719113D01*
X82432079Y-24719111D01*
X82432078Y-24719110D01*
X82415554Y-24696367D01*
X82415552Y-24696364D01*
X82290285Y-24571097D01*
X82290284Y-24571096D01*
X82290283Y-24571095D01*
X82146959Y-24466964D01*
X82146958Y-24466963D01*
X82146956Y-24466962D01*
X82146952Y-24466960D01*
X82131853Y-24459265D01*
X82131853Y-24459266D01*
X82123686Y-24455105D01*
X82120848Y-24453084D01*
X82109952Y-24448108D01*
X82107587Y-24446903D01*
X82107586Y-24446902D01*
X82107583Y-24446901D01*
X81989115Y-24386537D01*
X81963631Y-24378257D01*
X81945729Y-24372440D01*
X81940654Y-24370791D01*
X81925857Y-24364034D01*
X81902174Y-24358288D01*
X81897673Y-24356826D01*
X81897671Y-24356824D01*
X81820626Y-24331792D01*
X81820628Y-24331792D01*
X81745869Y-24319951D01*
X81745869Y-24319950D01*
X81740890Y-24319161D01*
X81717537Y-24313496D01*
X81699776Y-24312650D01*
X81693058Y-24311586D01*
X81693053Y-24311586D01*
X81645651Y-24304078D01*
X81645648Y-24304078D01*
X81519814Y-24304078D01*
X81503418Y-24303297D01*
X81497986Y-24304078D01*
X81468490Y-24304078D01*
X81421087Y-24311586D01*
X81293512Y-24331792D01*
X81125030Y-24386534D01*
X81125024Y-24386536D01*
X81103325Y-24397593D01*
X81103324Y-24397593D01*
X81095684Y-24401485D01*
X81088664Y-24403915D01*
X81071761Y-24413673D01*
X81068850Y-24415157D01*
X81068834Y-24415166D01*
X80967180Y-24466963D01*
X80924912Y-24497672D01*
X80919646Y-24501497D01*
X80903021Y-24511096D01*
X80885312Y-24526440D01*
X80881005Y-24529570D01*
X80880996Y-24529578D01*
X80823853Y-24571096D01*
X80762560Y-24632387D01*
X80759415Y-24635531D01*
X80741017Y-24651474D01*
X80731974Y-24662972D01*
X80726747Y-24668200D01*
X80698591Y-24696358D01*
X80698585Y-24696365D01*
X80613448Y-24813544D01*
X80612054Y-24815461D01*
X80608506Y-24819974D01*
X80607847Y-24821252D01*
X80604355Y-24826058D01*
X80604350Y-24826067D01*
X80594453Y-24839689D01*
X80594453Y-24839690D01*
X80514031Y-24997525D01*
X80514024Y-24997541D01*
X80459284Y-25166019D01*
X80459282Y-25166028D01*
X80454283Y-25197585D01*
X80454282Y-25197584D01*
X80453032Y-25205473D01*
X80449887Y-25216186D01*
X80447687Y-25239219D01*
X80447083Y-25243037D01*
X80447083Y-25243043D01*
X80431569Y-25340994D01*
X80431569Y-25402114D01*
X80431008Y-25413898D01*
X80429511Y-25429576D01*
X75543493Y-25429576D01*
X75333057Y-25297350D01*
X75333051Y-25297347D01*
X75292712Y-25277920D01*
X75287332Y-25275329D01*
X75280651Y-25271279D01*
X75259253Y-25261806D01*
X75257445Y-25260936D01*
X75257443Y-25260934D01*
X75087116Y-25178910D01*
X75087110Y-25178907D01*
X75087104Y-25178905D01*
X75043976Y-25163814D01*
X75019603Y-25155285D01*
X75019603Y-25155284D01*
X75014898Y-25153637D01*
X74995627Y-25145107D01*
X74961956Y-25135113D01*
X74959145Y-25134130D01*
X74959136Y-25134127D01*
X74928717Y-25123483D01*
X74829434Y-25088742D01*
X74730631Y-25066191D01*
X74730631Y-25066190D01*
X74726733Y-25065300D01*
X74696809Y-25056419D01*
X74665977Y-25051434D01*
X74662089Y-25050547D01*
X74662088Y-25050546D01*
X74563288Y-25027997D01*
X74563285Y-25027996D01*
X74426753Y-25012613D01*
X74426753Y-25012612D01*
X74423753Y-25012274D01*
X74389102Y-25006672D01*
X74368026Y-25005996D01*
X74363072Y-25005438D01*
X74292026Y-24997433D01*
X74292020Y-24997433D01*
X74101009Y-24997433D01*
X74077560Y-24996681D01*
X74069765Y-24997433D01*
X74019027Y-24997433D01*
X73747773Y-25027996D01*
X73747757Y-25027998D01*
X73481619Y-25088742D01*
X73223943Y-25178906D01*
X73183596Y-25198335D01*
X73183597Y-25198336D01*
X73178218Y-25200925D01*
X73170890Y-25203623D01*
X73150157Y-25214438D01*
X73148322Y-25215323D01*
X73148320Y-25215323D01*
X72978000Y-25297347D01*
X72977988Y-25297354D01*
X72917436Y-25335398D01*
X72917437Y-25335399D01*
X72913217Y-25338050D01*
X72894535Y-25347797D01*
X72865735Y-25367886D01*
X72863204Y-25369477D01*
X72863202Y-25369477D01*
X72746852Y-25442586D01*
X72667611Y-25505778D01*
X72664491Y-25508265D01*
X72638886Y-25526127D01*
X72615778Y-25547112D01*
X72612653Y-25549605D01*
X72533415Y-25612796D01*
X72436256Y-25709954D01*
X72434123Y-25712086D01*
X72408140Y-25735684D01*
X72394473Y-25751737D01*
X72390940Y-25755271D01*
X72340390Y-25805821D01*
X72222535Y-25953606D01*
X72222534Y-25953607D01*
X72221269Y-25955193D01*
X72206086Y-25973028D01*
X72201824Y-25979574D01*
X72198100Y-25984245D01*
X72170184Y-26019252D01*
X72170183Y-26019253D01*
X72024941Y-26250404D01*
X71906503Y-26496343D01*
X71906500Y-26496348D01*
X71906498Y-26496355D01*
X71816336Y-26754024D01*
X71816334Y-26754028D01*
X71816332Y-26754037D01*
X71816331Y-26754042D01*
X71806368Y-26797688D01*
X71805038Y-26803513D01*
X71802580Y-26810918D01*
X71798110Y-26833870D01*
X71797652Y-26835877D01*
X71755592Y-27020163D01*
X71755588Y-27020181D01*
X71747584Y-27091222D01*
X71747026Y-27096173D01*
X71742995Y-27116872D01*
X71740745Y-27151917D01*
X71740408Y-27154909D01*
X71725026Y-27291432D01*
X71725026Y-27392791D01*
X71724771Y-27400736D01*
X71723025Y-27427930D01*
X71266900Y-27427930D01*
X71266900Y-25683099D01*
X71286585Y-25616060D01*
X71303219Y-25595418D01*
X72966419Y-23932219D01*
X73027742Y-23898734D01*
X73054100Y-23895900D01*
X83079701Y-23895900D01*
X83146740Y-23915585D01*
X83167382Y-23932219D01*
X84961032Y-25725871D01*
X84961036Y-25725874D01*
X84961037Y-25725875D01*
X84998058Y-25747248D01*
X85003847Y-25750590D01*
X85003849Y-25750592D01*
X85003850Y-25750592D01*
X85046662Y-25775310D01*
X85092900Y-25787700D01*
X85092901Y-25787700D01*
X85106101Y-25791236D01*
X85142164Y-25800900D01*
X85142165Y-25800900D01*
X85781803Y-25800900D01*
X85848842Y-25820585D01*
X85894597Y-25873389D01*
X85903420Y-25900709D01*
X85912297Y-25945336D01*
X85912299Y-25945344D01*
X85961333Y-26063724D01*
X85961338Y-26063733D01*
X86032523Y-26170268D01*
X86032526Y-26170272D01*
X86123127Y-26260873D01*
X86123131Y-26260876D01*
X86229666Y-26332061D01*
X86229672Y-26332064D01*
X86229673Y-26332065D01*
X86348056Y-26381101D01*
X86348060Y-26381101D01*
X86348061Y-26381102D01*
X86473728Y-26406100D01*
X86473731Y-26406100D01*
X86601870Y-26406100D01*
X86633138Y-26399880D01*
X86701416Y-26386298D01*
X86771006Y-26392525D01*
X86826184Y-26435387D01*
X86840168Y-26460462D01*
X86875733Y-26546323D01*
X86875738Y-26546333D01*
X86946923Y-26652868D01*
X86946926Y-26652872D01*
X87037527Y-26743473D01*
X87037531Y-26743476D01*
X87144066Y-26814661D01*
X87144075Y-26814666D01*
X87153406Y-26818531D01*
X87262456Y-26863701D01*
X87262460Y-26863701D01*
X87262461Y-26863702D01*
X87388128Y-26888700D01*
X87388131Y-26888700D01*
X87516271Y-26888700D01*
X87612223Y-26869613D01*
X87641944Y-26863701D01*
X87760327Y-26814665D01*
X87866869Y-26743476D01*
X87957476Y-26652869D01*
X88028665Y-26546327D01*
X88077701Y-26427944D01*
X88090921Y-26361484D01*
X88102700Y-26302271D01*
X88102700Y-26174128D01*
X88077702Y-26048461D01*
X88077701Y-26048460D01*
X88077701Y-26048456D01*
X88035368Y-25946255D01*
X88028666Y-25930075D01*
X88028661Y-25930066D01*
X87957476Y-25823531D01*
X87957473Y-25823527D01*
X87864019Y-25730073D01*
X87830534Y-25668750D01*
X87827700Y-25642392D01*
X87827700Y-25502968D01*
X87827700Y-25502965D01*
X87819004Y-25470510D01*
X87802111Y-25407463D01*
X87767663Y-25347797D01*
X87752677Y-25321840D01*
X87752673Y-25321835D01*
X87385459Y-24954621D01*
X86971563Y-24540726D01*
X86971562Y-24540725D01*
X86885938Y-24491290D01*
X86809409Y-24470784D01*
X86798818Y-24467946D01*
X86798816Y-24467945D01*
X86794759Y-24466858D01*
X86790436Y-24465700D01*
X86790435Y-24465700D01*
X86790434Y-24465700D01*
X85863811Y-24465700D01*
X85796772Y-24446015D01*
X85751017Y-24393211D01*
X85741073Y-24324053D01*
X85770098Y-24260497D01*
X85794919Y-24238599D01*
X85809466Y-24228878D01*
X85809465Y-24228878D01*
X85809469Y-24228876D01*
X85900076Y-24138269D01*
X85971265Y-24031727D01*
X86020301Y-23913344D01*
X86045300Y-23787669D01*
X86045300Y-23659531D01*
X86045300Y-23659528D01*
X86020302Y-23533861D01*
X86020301Y-23533860D01*
X86020301Y-23533856D01*
X85971265Y-23415473D01*
X85971264Y-23415472D01*
X85971261Y-23415466D01*
X85900076Y-23308931D01*
X85900073Y-23308927D01*
X85809476Y-23218330D01*
X85809471Y-23218326D01*
X85809469Y-23218324D01*
X85800403Y-23212266D01*
X85755602Y-23158653D01*
X85745300Y-23109168D01*
X85745300Y-22751058D01*
X85745300Y-22751056D01*
X85721414Y-22661912D01*
X85721413Y-22661910D01*
X85719310Y-22654061D01*
X85721201Y-22653554D01*
X85714873Y-22594682D01*
X85746149Y-22532203D01*
X85806238Y-22496551D01*
X85836903Y-22492700D01*
X87686497Y-22492700D01*
X87753536Y-22512385D01*
X87799291Y-22565189D01*
X87805158Y-22580705D01*
X87805229Y-22580940D01*
X87805230Y-22580944D01*
X87814287Y-22602810D01*
X87854264Y-22699324D01*
X87854269Y-22699333D01*
X87925454Y-22805868D01*
X87925457Y-22805872D01*
X88016058Y-22896473D01*
X88016062Y-22896476D01*
X88122597Y-22967661D01*
X88122603Y-22967664D01*
X88122604Y-22967665D01*
X88240987Y-23016701D01*
X88240991Y-23016701D01*
X88240992Y-23016702D01*
X88366659Y-23041700D01*
X88366662Y-23041700D01*
X88494802Y-23041700D01*
X88579346Y-23024882D01*
X88620475Y-23016701D01*
X88738858Y-22967665D01*
X88845400Y-22896476D01*
X88936007Y-22805869D01*
X89007196Y-22699327D01*
X89039242Y-22621959D01*
X89083081Y-22567559D01*
X89149375Y-22545493D01*
X89177992Y-22547796D01*
X89216025Y-22555362D01*
X89293129Y-22570700D01*
X89293131Y-22570700D01*
X89421271Y-22570700D01*
X89523311Y-22550402D01*
X89546944Y-22545701D01*
X89665327Y-22496665D01*
X89771869Y-22425476D01*
X89862476Y-22334869D01*
X89933665Y-22228327D01*
X89982701Y-22109944D01*
X89993112Y-22057606D01*
X90007700Y-21984271D01*
X90007700Y-21856128D01*
X89982702Y-21730461D01*
X89982701Y-21730460D01*
X89982701Y-21730456D01*
X89933665Y-21612073D01*
X89933664Y-21612072D01*
X89933661Y-21612066D01*
X89862476Y-21505531D01*
X89862473Y-21505527D01*
X89771872Y-21414926D01*
X89771868Y-21414923D01*
X89665333Y-21343738D01*
X89665324Y-21343733D01*
X89546944Y-21294699D01*
X89546938Y-21294697D01*
X89421271Y-21269700D01*
X89421269Y-21269700D01*
X89293131Y-21269700D01*
X89293129Y-21269700D01*
X89193730Y-21289472D01*
X89160764Y-21290551D01*
X89160764Y-21290700D01*
X89156225Y-21290700D01*
X89153354Y-21290794D01*
X89152640Y-21290700D01*
X89152636Y-21290700D01*
X89152635Y-21290700D01*
X69509236Y-21290700D01*
X69410364Y-21290700D01*
X69314863Y-21316289D01*
X69314860Y-21316290D01*
X69229240Y-21365722D01*
X69229235Y-21365726D01*
X64673582Y-25921381D01*
X64612259Y-25954866D01*
X64585901Y-25957700D01*
X57318364Y-25957700D01*
X57270612Y-25970495D01*
X57270611Y-25970494D01*
X57222866Y-25983288D01*
X57222859Y-25983291D01*
X57198926Y-25997108D01*
X57180050Y-26008007D01*
X57169346Y-26014186D01*
X57137240Y-26032722D01*
X57137235Y-26032726D01*
X55048582Y-28121381D01*
X54987259Y-28154866D01*
X54960901Y-28157700D01*
X54018164Y-28157700D01*
X53922661Y-28183289D01*
X53837038Y-28232725D01*
X53837035Y-28232727D01*
X52201326Y-29868436D01*
X52151891Y-29954059D01*
X52151888Y-29954066D01*
X52146138Y-29975524D01*
X52146139Y-29975525D01*
X52129571Y-30037358D01*
X52129570Y-30037363D01*
X52126300Y-30049564D01*
X52126300Y-32042581D01*
X52106615Y-32109620D01*
X52053811Y-32155375D01*
X51984653Y-32165319D01*
X51954848Y-32157142D01*
X51853348Y-32115100D01*
X51853338Y-32115097D01*
X51727664Y-32090098D01*
X51722340Y-32089574D01*
X51719686Y-32088502D01*
X51716853Y-32088910D01*
X51687477Y-32075494D01*
X51657554Y-32063410D01*
X51655901Y-32061074D01*
X51653297Y-32059885D01*
X51635839Y-32032721D01*
X51617198Y-32006374D01*
X51616599Y-32002782D01*
X51615523Y-32001107D01*
X51610500Y-31966172D01*
X51610500Y-31757534D01*
X51630185Y-31690495D01*
X51631397Y-31688644D01*
X51635691Y-31682218D01*
X51680966Y-31614458D01*
X51695500Y-31541392D01*
X51695500Y-31122044D01*
X51695500Y-31122041D01*
X51695499Y-31122039D01*
X51680968Y-31048985D01*
X51680966Y-31048982D01*
X51680966Y-31048978D01*
X51680963Y-31048974D01*
X51678977Y-31044179D01*
X51671504Y-30974710D01*
X51678977Y-30949257D01*
X51680962Y-30944463D01*
X51680966Y-30944458D01*
X51695500Y-30871392D01*
X51695500Y-30452044D01*
X51695500Y-30452041D01*
X51695499Y-30452039D01*
X51680967Y-30378982D01*
X51680966Y-30378978D01*
X51625601Y-30296117D01*
X51542740Y-30240752D01*
X51542739Y-30240751D01*
X51542735Y-30240750D01*
X51469677Y-30226218D01*
X51469674Y-30226218D01*
X51274126Y-30226218D01*
X51207087Y-30206533D01*
X51174859Y-30176529D01*
X51132190Y-30119531D01*
X51132185Y-30119526D01*
X51017093Y-30033367D01*
X51017086Y-30033363D01*
X50882379Y-29983121D01*
X50882372Y-29983119D01*
X50822844Y-29976718D01*
X50775000Y-29976718D01*
X50775000Y-30537718D01*
X50755315Y-30604757D01*
X50702511Y-30650512D01*
X50651000Y-30661718D01*
X50590000Y-30661718D01*
X50590000Y-30722718D01*
X50570315Y-30789757D01*
X50517511Y-30835512D01*
X50466000Y-30846718D01*
X49905000Y-30846718D01*
X49650500Y-30846718D01*
X49650500Y-30482899D01*
X49670185Y-30415860D01*
X49686819Y-30395218D01*
X49693319Y-30388718D01*
X49754642Y-30355233D01*
X49824334Y-30360217D01*
X49880267Y-30402089D01*
X49904684Y-30467553D01*
X49905000Y-30476399D01*
X49905000Y-30476718D01*
X50405000Y-30476718D01*
X50405000Y-29976718D01*
X50404681Y-29976718D01*
X50337642Y-29957033D01*
X50291887Y-29904229D01*
X50281943Y-29835071D01*
X50310968Y-29771515D01*
X50317000Y-29765037D01*
X52437018Y-27645019D01*
X52498341Y-27611534D01*
X52524699Y-27608700D01*
X53221992Y-27608700D01*
X53289031Y-27628385D01*
X53309673Y-27645019D01*
X53403127Y-27738473D01*
X53403131Y-27738476D01*
X53509666Y-27809661D01*
X53509672Y-27809664D01*
X53509673Y-27809665D01*
X53628056Y-27858701D01*
X53628060Y-27858701D01*
X53628061Y-27858702D01*
X53753728Y-27883700D01*
X53753731Y-27883700D01*
X53881871Y-27883700D01*
X53966415Y-27866882D01*
X54007544Y-27858701D01*
X54125927Y-27809665D01*
X54232469Y-27738476D01*
X54323076Y-27647869D01*
X54394265Y-27541327D01*
X54443301Y-27422944D01*
X54468300Y-27297269D01*
X54468300Y-27169131D01*
X54468300Y-27169128D01*
X54443302Y-27043461D01*
X54443301Y-27043460D01*
X54443301Y-27043456D01*
X54399748Y-26938311D01*
X54394266Y-26925075D01*
X54394261Y-26925066D01*
X54323076Y-26818531D01*
X54323073Y-26818527D01*
X54232472Y-26727926D01*
X54232468Y-26727923D01*
X54125933Y-26656738D01*
X54125924Y-26656733D01*
X54007544Y-26607699D01*
X54007538Y-26607697D01*
X53881871Y-26582700D01*
X53881869Y-26582700D01*
X53753731Y-26582700D01*
X53753729Y-26582700D01*
X53628061Y-26607697D01*
X53628055Y-26607699D01*
X53509675Y-26656733D01*
X53509666Y-26656738D01*
X53403131Y-26727923D01*
X53403127Y-26727926D01*
X53309673Y-26821381D01*
X53248350Y-26854866D01*
X53221992Y-26857700D01*
X52268363Y-26857700D01*
X52223900Y-26869614D01*
X52223899Y-26869613D01*
X52172863Y-26883289D01*
X52172862Y-26883289D01*
X52087235Y-26932727D01*
X48974526Y-30045436D01*
X48925091Y-30131059D01*
X48925091Y-30131060D01*
X48925090Y-30131062D01*
X48899500Y-30226565D01*
X48899500Y-30226567D01*
X48899500Y-33378384D01*
X48879815Y-33445423D01*
X48844391Y-33481486D01*
X48716901Y-33566672D01*
X48716897Y-33566675D01*
X48594957Y-33688615D01*
X48594954Y-33688619D01*
X48499145Y-33832006D01*
X48499138Y-33832019D01*
X48433146Y-33991339D01*
X48433143Y-33991351D01*
X48399500Y-34160484D01*
X45330605Y-34160484D01*
X45383056Y-33947742D01*
X45383851Y-33944693D01*
X45483382Y-33582334D01*
X45484768Y-33577652D01*
X45712990Y-32859126D01*
X45715113Y-32853008D01*
X45980441Y-32148498D01*
X45982881Y-32142502D01*
X46284782Y-31453169D01*
X46287549Y-31447279D01*
X46625821Y-30773681D01*
X46627490Y-30770478D01*
X46676836Y-30679153D01*
X46677718Y-30677551D01*
X46862820Y-30348372D01*
X46864387Y-30345670D01*
X47057662Y-30022198D01*
X47059297Y-30019540D01*
X47260988Y-29701318D01*
X47262753Y-29698615D01*
X47472251Y-29386557D01*
X47475045Y-29382565D01*
X47919608Y-28773741D01*
X47923552Y-28768629D01*
X48399762Y-28183736D01*
X48402067Y-28180990D01*
X48468903Y-28103746D01*
X48470266Y-28102198D01*
X48722025Y-27820920D01*
X48724123Y-27818637D01*
X48982759Y-27544551D01*
X48984937Y-27542303D01*
X49250675Y-27275146D01*
X49252869Y-27272997D01*
X49524944Y-27013504D01*
X49528473Y-27010270D01*
X50094053Y-26511952D01*
X50098999Y-26507820D01*
X50689118Y-26040648D01*
X50694348Y-26036729D01*
X51090990Y-25755639D01*
X51094989Y-25752924D01*
X51202556Y-25683012D01*
X51203688Y-25682287D01*
X51560728Y-25456981D01*
X51566397Y-25453613D01*
X52018732Y-25200990D01*
X52024542Y-25197945D01*
X52403857Y-25012022D01*
X52404644Y-25011643D01*
X52520766Y-24956641D01*
X52525240Y-24954632D01*
X52954769Y-24771943D01*
X52958414Y-24771116D01*
X52972004Y-24764764D01*
X52979319Y-24761627D01*
X53005821Y-24751254D01*
X53014225Y-24746223D01*
X53029102Y-24738519D01*
X53034355Y-24735954D01*
X53049230Y-24729119D01*
X53052872Y-24726271D01*
X53305205Y-24596337D01*
X53327299Y-24585019D01*
X53327407Y-24584998D01*
X53327830Y-24584749D01*
X53329792Y-24583755D01*
X53336073Y-24578060D01*
X53583620Y-24412254D01*
X53586045Y-24410672D01*
X53604100Y-24399198D01*
X53604168Y-24399178D01*
X53611242Y-24391092D01*
X53621285Y-24382425D01*
X53624170Y-24378381D01*
X53719392Y-24287723D01*
X53730769Y-24276898D01*
X53730782Y-24276898D01*
X53730874Y-24276797D01*
X53733824Y-24273991D01*
X53733836Y-24273984D01*
X53733918Y-24273902D01*
X53742227Y-24266011D01*
X53745511Y-24260950D01*
X53934740Y-24056088D01*
X53945165Y-24044823D01*
X53945183Y-24044820D01*
X53945225Y-24044757D01*
X53950514Y-24039043D01*
X53954482Y-24031374D01*
X54029916Y-23922319D01*
X54044144Y-23901784D01*
X54044192Y-23901745D01*
X54044461Y-23901329D01*
X54050713Y-23892389D01*
X54052971Y-23886601D01*
X54171451Y-23689926D01*
X54184377Y-23668552D01*
X54184447Y-23668487D01*
X54184664Y-23668081D01*
X54186422Y-23665201D01*
X54188738Y-23657369D01*
X54262287Y-23499327D01*
X54270411Y-23484582D01*
X54310808Y-23421767D01*
X54321100Y-23405763D01*
X54354366Y-23371196D01*
X54425680Y-23321369D01*
X54469580Y-23302019D01*
X54554464Y-23282999D01*
X54602445Y-23281769D01*
X54668341Y-23293021D01*
X54683653Y-23295636D01*
X54724169Y-23310129D01*
X54799209Y-23352886D01*
X54817400Y-23365529D01*
X54882173Y-23419734D01*
X54882177Y-23419735D01*
X54882180Y-23419738D01*
X55042904Y-23507370D01*
X55189135Y-23552650D01*
X55217771Y-23561517D01*
X55217772Y-23561517D01*
X55217774Y-23561518D01*
X55245528Y-23564342D01*
X55246316Y-23564565D01*
X55250099Y-23564807D01*
X55399895Y-23580049D01*
X55434617Y-23576653D01*
X55439901Y-23576993D01*
X55456844Y-23574479D01*
X55582088Y-23562232D01*
X55622342Y-23549939D01*
X55631787Y-23548540D01*
X55653176Y-23540523D01*
X55757168Y-23508768D01*
X55800758Y-23485221D01*
X55813436Y-23480472D01*
X55834283Y-23467113D01*
X55918234Y-23421766D01*
X55962301Y-23385087D01*
X55976768Y-23375819D01*
X55994171Y-23358561D01*
X56058935Y-23304657D01*
X56100065Y-23253561D01*
X56114516Y-23239234D01*
X56127021Y-23220074D01*
X56173725Y-23162056D01*
X56208040Y-23095959D01*
X56220551Y-23076796D01*
X56227852Y-23057800D01*
X56258076Y-22999587D01*
X56281361Y-22918606D01*
X56290157Y-22895730D01*
X56292821Y-22878752D01*
X56308665Y-22823654D01*
X56316394Y-22728564D01*
X56320236Y-22704092D01*
X56319482Y-22690569D01*
X56323496Y-22641194D01*
X56310719Y-22533221D01*
X56309450Y-22510408D01*
X56306930Y-22501194D01*
X56301985Y-22459401D01*
X56262798Y-22339821D01*
X56258280Y-22323295D01*
X56255843Y-22318595D01*
X56244979Y-22285442D01*
X56170747Y-22154447D01*
X56169001Y-22151077D01*
X56168480Y-22150445D01*
X56165759Y-22145643D01*
X56165758Y-22145641D01*
X56154728Y-22126176D01*
X56034789Y-21987882D01*
X56034780Y-21987874D01*
X55889886Y-21876008D01*
X55889884Y-21876006D01*
X55865240Y-21863801D01*
X55865200Y-21863781D01*
X55815491Y-21839139D01*
X55815407Y-21839061D01*
X55800564Y-21830392D01*
X55742779Y-21790871D01*
X55724868Y-21775970D01*
X55720896Y-21771977D01*
X55713057Y-21763317D01*
X55711138Y-21760985D01*
X55675347Y-21717488D01*
X55657189Y-21687692D01*
X55632249Y-21629695D01*
X55623113Y-21596015D01*
X55615324Y-21533368D01*
X55615935Y-21498475D01*
X55625913Y-21436139D01*
X55636221Y-21402806D01*
X55661565Y-21349128D01*
X55667034Y-21338833D01*
X55669906Y-21333990D01*
X55683629Y-21315145D01*
X55727173Y-21265852D01*
X55746505Y-21248153D01*
X55852328Y-21170117D01*
X55863269Y-21162909D01*
X55885925Y-21149650D01*
X55889574Y-21147600D01*
X55997886Y-21089242D01*
X56013796Y-21082069D01*
X56147577Y-21032779D01*
X56164353Y-21027911D01*
X56284641Y-21002045D01*
X56288704Y-21001245D01*
X56314596Y-20996627D01*
X56327558Y-20995018D01*
X56467499Y-20985120D01*
X56476247Y-20984811D01*
X93009158Y-20984811D01*
X93017237Y-20985075D01*
G37*
%TD.AperFunction*%
%TD*%
%TA.AperFunction,NonConductor*%
G36*
X84987339Y-22913385D02*
G01*
X85033094Y-22966189D01*
X85044300Y-23017700D01*
X85044300Y-23109168D01*
X85024615Y-23176207D01*
X84989196Y-23212267D01*
X84980128Y-23218326D01*
X84980124Y-23218330D01*
X84889526Y-23308927D01*
X84889523Y-23308931D01*
X84818338Y-23415466D01*
X84818330Y-23415481D01*
X84803585Y-23451079D01*
X84759743Y-23505482D01*
X84693449Y-23527546D01*
X84625750Y-23510266D01*
X84601344Y-23491306D01*
X84409013Y-23298975D01*
X84215417Y-23105380D01*
X84181933Y-23044058D01*
X84186917Y-22974367D01*
X84228788Y-22918433D01*
X84294253Y-22894016D01*
X84303099Y-22893700D01*
X84920300Y-22893700D01*
X84987339Y-22913385D01*
G37*
%TD.AperFunction*%
%TA.AperFunction,NonConductor*%
G36*
X67768669Y-33456008D02*
G01*
X67800659Y-33464307D01*
X67802769Y-33466021D01*
X67804007Y-33466385D01*
X67807783Y-33470094D01*
X67828054Y-33486561D01*
X67834661Y-33493713D01*
X67846124Y-33510869D01*
X67903615Y-33568360D01*
X67905287Y-33570170D01*
X67919758Y-33599366D01*
X67935367Y-33627951D01*
X67935185Y-33630490D01*
X67936316Y-33632771D01*
X67932707Y-33665143D01*
X67930383Y-33697643D01*
X67928856Y-33699681D01*
X67928575Y-33702211D01*
X67908031Y-33727499D01*
X67888511Y-33753576D01*
X67886126Y-33754465D01*
X67884521Y-33756442D01*
X67836813Y-33775503D01*
X67836902Y-33775874D01*
X67834357Y-33776484D01*
X67833621Y-33776779D01*
X67832177Y-33777007D01*
X67832173Y-33777008D01*
X67644970Y-33837835D01*
X67469594Y-33927194D01*
X67313883Y-34040325D01*
X67313879Y-34040328D01*
X67310354Y-34042890D01*
X67171172Y-34182072D01*
X67168316Y-34186003D01*
X67055476Y-34341312D01*
X66980585Y-34488295D01*
X66932610Y-34539091D01*
X66864789Y-34555886D01*
X66798655Y-34533349D01*
X66755203Y-34478634D01*
X66746100Y-34432000D01*
X66746100Y-34308744D01*
X66765785Y-34241705D01*
X66782419Y-34221063D01*
X66878769Y-34124713D01*
X67285670Y-33717812D01*
X67285670Y-33717811D01*
X67520462Y-33483019D01*
X67581785Y-33449534D01*
X67608143Y-33446700D01*
X67736968Y-33446700D01*
X67768669Y-33456008D01*
G37*
%TD.AperFunction*%
%TA.AperFunction,NonConductor*%
G36*
X66951303Y-35467722D02*
G01*
X66980584Y-35505139D01*
X67055476Y-35652123D01*
X67171172Y-35811364D01*
X67310354Y-35950546D01*
X67469595Y-36066242D01*
X67538613Y-36101408D01*
X67606960Y-36136233D01*
X67657756Y-36184208D01*
X67674551Y-36252029D01*
X67652014Y-36318164D01*
X67606960Y-36357203D01*
X67469594Y-36427194D01*
X67434540Y-36452663D01*
X67310354Y-36542890D01*
X67310352Y-36542892D01*
X67310351Y-36542892D01*
X67171174Y-36682069D01*
X67171174Y-36682070D01*
X67171172Y-36682072D01*
X67121485Y-36750459D01*
X67055476Y-36841312D01*
X66980585Y-36988295D01*
X66932610Y-37039091D01*
X66864789Y-37055886D01*
X66798655Y-37033349D01*
X66755203Y-36978634D01*
X66746100Y-36932000D01*
X66746100Y-35561435D01*
X66765785Y-35494396D01*
X66818589Y-35448641D01*
X66887747Y-35438697D01*
X66951303Y-35467722D01*
G37*
%TD.AperFunction*%
%TA.AperFunction,NonConductor*%
G36*
X68945407Y-43042185D02*
G01*
X68981470Y-43077609D01*
X68987523Y-43086669D01*
X69078127Y-43177273D01*
X69078131Y-43177276D01*
X69184666Y-43248461D01*
X69184672Y-43248464D01*
X69184673Y-43248465D01*
X69303056Y-43297501D01*
X69303060Y-43297501D01*
X69303061Y-43297502D01*
X69428728Y-43322500D01*
X69428731Y-43322500D01*
X69556871Y-43322500D01*
X69688518Y-43296313D01*
X69688757Y-43297517D01*
X69752166Y-43296948D01*
X69811281Y-43334194D01*
X69840875Y-43397486D01*
X69842300Y-43416234D01*
X69842300Y-43875301D01*
X69822615Y-43942340D01*
X69805981Y-43962982D01*
X68822181Y-44946782D01*
X68802744Y-44957394D01*
X68786011Y-44971895D01*
X68772679Y-44973811D01*
X68760858Y-44980267D01*
X68738771Y-44978687D01*
X68716853Y-44981839D01*
X68704601Y-44976243D01*
X68691166Y-44975283D01*
X68673439Y-44962012D01*
X68653297Y-44952814D01*
X68646014Y-44941482D01*
X68635233Y-44933411D01*
X68627495Y-44912665D01*
X68615523Y-44894036D01*
X68612371Y-44872117D01*
X68610816Y-44867947D01*
X68610500Y-44859101D01*
X68610500Y-44757534D01*
X68630185Y-44690495D01*
X68631397Y-44688644D01*
X68635691Y-44682218D01*
X68680966Y-44614458D01*
X68695500Y-44541392D01*
X68695500Y-44122044D01*
X68695500Y-44122041D01*
X68695499Y-44122039D01*
X68680968Y-44048985D01*
X68680966Y-44048982D01*
X68680966Y-44048978D01*
X68680963Y-44048974D01*
X68678977Y-44044179D01*
X68671504Y-43974710D01*
X68678977Y-43949257D01*
X68680962Y-43944463D01*
X68680966Y-43944458D01*
X68681388Y-43942340D01*
X68695499Y-43871396D01*
X68695500Y-43871394D01*
X68695500Y-43452041D01*
X68695499Y-43452039D01*
X68680967Y-43378982D01*
X68680966Y-43378978D01*
X68631396Y-43304791D01*
X68625746Y-43286745D01*
X68615523Y-43270837D01*
X68611071Y-43239874D01*
X68610520Y-43238114D01*
X68610500Y-43235902D01*
X68610500Y-43146500D01*
X68630185Y-43079461D01*
X68682989Y-43033706D01*
X68734500Y-43022500D01*
X68878368Y-43022500D01*
X68945407Y-43042185D01*
G37*
%TD.AperFunction*%
M02*
