M48
; DRILL file {KiCad 9.0.3} date 2025-07-21T12:26:24-0700
; FORMAT={-:-/ absolute / metric / decimal}
; #@! TF.CreationDate,2025-07-21T12:26:24-07:00
; #@! TF.GenerationSoftware,Kicad,Pcbnew,9.0.3
; #@! TF.FileFunction,Plated,1,2,PTH
FMAT,2
METRIC
; #@! TA.AperFunction,Plated,PTH,ViaDrill
T1C0.400
; #@! TA.AperFunction,Plated,PTH,ComponentDrill
T2C0.900
; #@! TA.AperFunction,Plated,PTH,ComponentDrill
T3C1.000
; #@! TA.AperFunction,Plated,PTH,ComponentDrill
T4C1.200
%
G90
G05
T1
X51.664Y-32.741
X53.238Y-47.32
X53.818Y-27.233
X57.912Y-37.211
X58.039Y-49.327
X58.09Y-35.738
X58.993Y-27.233
X59.284Y-36.601
X65.659Y-46.025
X66.624Y-32.36
X68.351Y-33.096
X69.063Y-29.286
X69.493Y-42.672
X69.926Y-30.607
X71.425Y-38.252
X85.395Y-23.724
X86.538Y-25.756
X87.452Y-26.238
X88.431Y-22.391
X89.357Y-21.92
X90.627Y-23.19
T2
X49.275Y-34.247
X49.275Y-40.747
X53.775Y-34.247
X53.775Y-40.747
T3
X56.925Y-46.197
X59.425Y-46.197
X61.925Y-46.197
X68.125Y-34.997
X68.125Y-37.497
X68.125Y-39.997
T4
X54.425Y-31.172
X54.425Y-43.822
X64.425Y-31.172
X64.425Y-43.822
M30
