%TF.GenerationSoftware,KiCad,Pcbnew,7.0.6*%
%TF.CreationDate,2023-12-14T14:39:05-08:00*%
%TF.ProjectId,UGC_Trigger,5547435f-5472-4696-9767-65722e6b6963,rev?*%
%TF.SameCoordinates,Original*%
%TF.FileFunction,Legend,Top*%
%TF.FilePolarity,Positive*%
%FSLAX46Y46*%
G04 Gerber Fmt 4.6, Leading zero omitted, Abs format (unit mm)*
G04 Created by KiCad (PCBNEW 7.0.6) date 2023-12-14 14:39:05*
%MOMM*%
%LPD*%
G01*
G04 APERTURE LIST*
%ADD10C,0.100000*%
%ADD11C,0.120000*%
G04 APERTURE END LIST*
D10*
X277584067Y-155959400D02*
X277726924Y-156007019D01*
X277726924Y-156007019D02*
X277965019Y-156007019D01*
X277965019Y-156007019D02*
X278060257Y-155959400D01*
X278060257Y-155959400D02*
X278107876Y-155911780D01*
X278107876Y-155911780D02*
X278155495Y-155816542D01*
X278155495Y-155816542D02*
X278155495Y-155721304D01*
X278155495Y-155721304D02*
X278107876Y-155626066D01*
X278107876Y-155626066D02*
X278060257Y-155578447D01*
X278060257Y-155578447D02*
X277965019Y-155530828D01*
X277965019Y-155530828D02*
X277774543Y-155483209D01*
X277774543Y-155483209D02*
X277679305Y-155435590D01*
X277679305Y-155435590D02*
X277631686Y-155387971D01*
X277631686Y-155387971D02*
X277584067Y-155292733D01*
X277584067Y-155292733D02*
X277584067Y-155197495D01*
X277584067Y-155197495D02*
X277631686Y-155102257D01*
X277631686Y-155102257D02*
X277679305Y-155054638D01*
X277679305Y-155054638D02*
X277774543Y-155007019D01*
X277774543Y-155007019D02*
X278012638Y-155007019D01*
X278012638Y-155007019D02*
X278155495Y-155054638D01*
X278488829Y-155007019D02*
X278726924Y-156007019D01*
X278726924Y-156007019D02*
X278917400Y-155292733D01*
X278917400Y-155292733D02*
X279107876Y-156007019D01*
X279107876Y-156007019D02*
X279345972Y-155007019D01*
X280250733Y-156007019D02*
X279679305Y-156007019D01*
X279965019Y-156007019D02*
X279965019Y-155007019D01*
X279965019Y-155007019D02*
X279869781Y-155149876D01*
X279869781Y-155149876D02*
X279774543Y-155245114D01*
X279774543Y-155245114D02*
X279679305Y-155292733D01*
D11*
%TO.C,J1*%
X275475963Y-146355545D02*
X276535963Y-146355545D01*
X275475963Y-147415545D02*
X275475963Y-146355545D01*
X275475963Y-148415545D02*
X275475963Y-148475545D01*
X275475963Y-148415545D02*
X277595963Y-148415545D01*
X275475963Y-148475545D02*
X277595963Y-148475545D01*
X277595963Y-148415545D02*
X277595963Y-148475545D01*
%TO.C,J2*%
X278075963Y-146355545D02*
X279135963Y-146355545D01*
X278075963Y-147415545D02*
X278075963Y-146355545D01*
X278075963Y-148415545D02*
X278075963Y-148475545D01*
X278075963Y-148415545D02*
X280195963Y-148415545D01*
X278075963Y-148475545D02*
X280195963Y-148475545D01*
X280195963Y-148415545D02*
X280195963Y-148475545D01*
%TD*%
M02*
