%TF.GenerationSoftware,KiCad,Pcbnew,7.0.6*%
%TF.CreationDate,2023-12-14T14:39:08-08:00*%
%TF.ProjectId,UGC_Trigger,5547435f-5472-4696-9767-65722e6b6963,rev?*%
%TF.SameCoordinates,Original*%
%TF.FileFunction,Drillmap*%
%TF.FilePolarity,Positive*%
%FSLAX45Y45*%
G04 Gerber Fmt 4.5, Leading zero omitted, Abs format (unit mm)*
G04 Created by KiCad (PCBNEW 7.0.6) date 2023-12-14 14:39:08*
%MOMM*%
%LPD*%
G01*
G04 APERTURE LIST*
%ADD10C,0.100000*%
%ADD11C,0.200000*%
%ADD12C,0.080000*%
G04 APERTURE END LIST*
D10*
X27427112Y-14655400D02*
X27427112Y-14955400D01*
X28357112Y-14955400D02*
X28357112Y-14655400D01*
X28197944Y-14630394D02*
G75*
G03*
X28148619Y-14672214I6J-50006D01*
G01*
X28257112Y-14980400D02*
X28332112Y-14980400D01*
X27527112Y-14980400D02*
X27527112Y-16410652D01*
X27452112Y-14980400D02*
X27527112Y-14980400D01*
X28332112Y-14630400D02*
X28197944Y-14630400D01*
X28257112Y-16408575D02*
X28256046Y-16418844D01*
X28253369Y-16427557D01*
X28257112Y-16408575D02*
X28257112Y-14980400D01*
X28019805Y-14672214D02*
G75*
G03*
X27970480Y-14630400I-49325J-8186D01*
G01*
X27427110Y-14955400D02*
G75*
G03*
X27452112Y-14980400I25000J0D01*
G01*
X28244020Y-16442306D02*
X28236243Y-16449212D01*
X28230170Y-16452940D01*
X28019805Y-14672214D02*
G75*
G03*
X28148619Y-14672214I64407J10688D01*
G01*
X27539211Y-16443264D02*
X27533224Y-16434607D01*
X27530234Y-16428044D01*
X27530234Y-16428044D02*
X27527632Y-16417846D01*
X27527112Y-16410652D01*
X27554429Y-16455211D02*
X27545761Y-16449602D01*
X27539211Y-16443264D01*
X28357110Y-14655400D02*
G75*
G03*
X28332112Y-14630400I-25000J0D01*
G01*
X27952303Y-16533604D02*
X27939525Y-16534560D01*
X27926730Y-16535288D01*
X27913922Y-16535788D01*
X27901105Y-16536061D01*
X27888283Y-16536108D01*
X27875459Y-16535930D01*
X27862639Y-16535528D01*
X27849825Y-16534902D01*
X27837021Y-16534054D01*
X27824232Y-16532985D01*
X27811461Y-16531695D01*
X27798712Y-16530186D01*
X27785990Y-16528457D01*
X27773298Y-16526511D01*
X27760639Y-16524347D01*
X27748018Y-16521967D01*
X27735440Y-16519372D01*
X27722907Y-16516563D01*
X27710423Y-16513540D01*
X27697993Y-16510304D01*
X27685620Y-16506857D01*
X27673309Y-16503198D01*
X27661063Y-16499330D01*
X27648886Y-16495253D01*
X27636782Y-16490967D01*
X27624755Y-16486474D01*
X27612809Y-16481775D01*
X27600948Y-16476869D01*
X27589176Y-16471760D01*
X27577496Y-16466446D01*
X27565912Y-16460930D01*
X27554429Y-16455211D01*
X27452112Y-14630402D02*
G75*
G03*
X27427112Y-14655400I-2J-24998D01*
G01*
X28253369Y-16427557D02*
X28248441Y-16436716D01*
X28244020Y-16442306D01*
X28230170Y-16452940D02*
X28213912Y-16461137D01*
X28197453Y-16468931D01*
X28180807Y-16476319D01*
X28163982Y-16483297D01*
X28146992Y-16489861D01*
X28129846Y-16496007D01*
X28112556Y-16501731D01*
X28095133Y-16507028D01*
X28077589Y-16511897D01*
X28059934Y-16516331D01*
X28042179Y-16520327D01*
X28024336Y-16523882D01*
X28006416Y-16526991D01*
X27988429Y-16529650D01*
X27970388Y-16531856D01*
X27952303Y-16533604D01*
X27970480Y-14630400D02*
X27452112Y-14630400D01*
X28332112Y-14980402D02*
G75*
G03*
X28357112Y-14955400I-2J25002D01*
G01*
D11*
D12*
X27613596Y-14701554D02*
X27693596Y-14781554D01*
X27693596Y-14701554D02*
X27613596Y-14781554D01*
X27873596Y-14701554D02*
X27953596Y-14781554D01*
X27953596Y-14701554D02*
X27873596Y-14781554D01*
D11*
X27682889Y-16861509D02*
X27682889Y-16661509D01*
X27682889Y-16661509D02*
X27730508Y-16661509D01*
X27730508Y-16661509D02*
X27759080Y-16671032D01*
X27759080Y-16671032D02*
X27778127Y-16690080D01*
X27778127Y-16690080D02*
X27787651Y-16709128D01*
X27787651Y-16709128D02*
X27797175Y-16747223D01*
X27797175Y-16747223D02*
X27797175Y-16775794D01*
X27797175Y-16775794D02*
X27787651Y-16813890D01*
X27787651Y-16813890D02*
X27778127Y-16832937D01*
X27778127Y-16832937D02*
X27759080Y-16851985D01*
X27759080Y-16851985D02*
X27730508Y-16861509D01*
X27730508Y-16861509D02*
X27682889Y-16861509D01*
X27882889Y-16861509D02*
X27882889Y-16728175D01*
X27882889Y-16766271D02*
X27892413Y-16747223D01*
X27892413Y-16747223D02*
X27901937Y-16737699D01*
X27901937Y-16737699D02*
X27920984Y-16728175D01*
X27920984Y-16728175D02*
X27940032Y-16728175D01*
X28006699Y-16861509D02*
X28006699Y-16728175D01*
X28006699Y-16661509D02*
X27997175Y-16671032D01*
X27997175Y-16671032D02*
X28006699Y-16680556D01*
X28006699Y-16680556D02*
X28016222Y-16671032D01*
X28016222Y-16671032D02*
X28006699Y-16661509D01*
X28006699Y-16661509D02*
X28006699Y-16680556D01*
X28130508Y-16861509D02*
X28111460Y-16851985D01*
X28111460Y-16851985D02*
X28101937Y-16832937D01*
X28101937Y-16832937D02*
X28101937Y-16661509D01*
X28235270Y-16861509D02*
X28216222Y-16851985D01*
X28216222Y-16851985D02*
X28206699Y-16832937D01*
X28206699Y-16832937D02*
X28206699Y-16661509D01*
X28463841Y-16861509D02*
X28463841Y-16661509D01*
X28463841Y-16661509D02*
X28530508Y-16804366D01*
X28530508Y-16804366D02*
X28597175Y-16661509D01*
X28597175Y-16661509D02*
X28597175Y-16861509D01*
X28778127Y-16861509D02*
X28778127Y-16756747D01*
X28778127Y-16756747D02*
X28768603Y-16737699D01*
X28768603Y-16737699D02*
X28749556Y-16728175D01*
X28749556Y-16728175D02*
X28711460Y-16728175D01*
X28711460Y-16728175D02*
X28692413Y-16737699D01*
X28778127Y-16851985D02*
X28759080Y-16861509D01*
X28759080Y-16861509D02*
X28711460Y-16861509D01*
X28711460Y-16861509D02*
X28692413Y-16851985D01*
X28692413Y-16851985D02*
X28682889Y-16832937D01*
X28682889Y-16832937D02*
X28682889Y-16813890D01*
X28682889Y-16813890D02*
X28692413Y-16794842D01*
X28692413Y-16794842D02*
X28711460Y-16785318D01*
X28711460Y-16785318D02*
X28759080Y-16785318D01*
X28759080Y-16785318D02*
X28778127Y-16775794D01*
X28873365Y-16728175D02*
X28873365Y-16928175D01*
X28873365Y-16737699D02*
X28892413Y-16728175D01*
X28892413Y-16728175D02*
X28930508Y-16728175D01*
X28930508Y-16728175D02*
X28949556Y-16737699D01*
X28949556Y-16737699D02*
X28959080Y-16747223D01*
X28959080Y-16747223D02*
X28968603Y-16766271D01*
X28968603Y-16766271D02*
X28968603Y-16823413D01*
X28968603Y-16823413D02*
X28959080Y-16842461D01*
X28959080Y-16842461D02*
X28949556Y-16851985D01*
X28949556Y-16851985D02*
X28930508Y-16861509D01*
X28930508Y-16861509D02*
X28892413Y-16861509D01*
X28892413Y-16861509D02*
X28873365Y-16851985D01*
X29054318Y-16842461D02*
X29063841Y-16851985D01*
X29063841Y-16851985D02*
X29054318Y-16861509D01*
X29054318Y-16861509D02*
X29044794Y-16851985D01*
X29044794Y-16851985D02*
X29054318Y-16842461D01*
X29054318Y-16842461D02*
X29054318Y-16861509D01*
X29054318Y-16737699D02*
X29063841Y-16747223D01*
X29063841Y-16747223D02*
X29054318Y-16756747D01*
X29054318Y-16756747D02*
X29044794Y-16747223D01*
X29044794Y-16747223D02*
X29054318Y-16737699D01*
X29054318Y-16737699D02*
X29054318Y-16756747D01*
D12*
X27342112Y-17150025D02*
X27422112Y-17230025D01*
X27422112Y-17150025D02*
X27342112Y-17230025D01*
D11*
X27720984Y-17081509D02*
X27740032Y-17081509D01*
X27740032Y-17081509D02*
X27759080Y-17091033D01*
X27759080Y-17091033D02*
X27768603Y-17100556D01*
X27768603Y-17100556D02*
X27778127Y-17119604D01*
X27778127Y-17119604D02*
X27787651Y-17157699D01*
X27787651Y-17157699D02*
X27787651Y-17205318D01*
X27787651Y-17205318D02*
X27778127Y-17243413D01*
X27778127Y-17243413D02*
X27768603Y-17262461D01*
X27768603Y-17262461D02*
X27759080Y-17271985D01*
X27759080Y-17271985D02*
X27740032Y-17281509D01*
X27740032Y-17281509D02*
X27720984Y-17281509D01*
X27720984Y-17281509D02*
X27701937Y-17271985D01*
X27701937Y-17271985D02*
X27692413Y-17262461D01*
X27692413Y-17262461D02*
X27682889Y-17243413D01*
X27682889Y-17243413D02*
X27673365Y-17205318D01*
X27673365Y-17205318D02*
X27673365Y-17157699D01*
X27673365Y-17157699D02*
X27682889Y-17119604D01*
X27682889Y-17119604D02*
X27692413Y-17100556D01*
X27692413Y-17100556D02*
X27701937Y-17091033D01*
X27701937Y-17091033D02*
X27720984Y-17081509D01*
X27873365Y-17262461D02*
X27882889Y-17271985D01*
X27882889Y-17271985D02*
X27873365Y-17281509D01*
X27873365Y-17281509D02*
X27863841Y-17271985D01*
X27863841Y-17271985D02*
X27873365Y-17262461D01*
X27873365Y-17262461D02*
X27873365Y-17281509D01*
X27997175Y-17167223D02*
X27978127Y-17157699D01*
X27978127Y-17157699D02*
X27968603Y-17148175D01*
X27968603Y-17148175D02*
X27959080Y-17129128D01*
X27959080Y-17129128D02*
X27959080Y-17119604D01*
X27959080Y-17119604D02*
X27968603Y-17100556D01*
X27968603Y-17100556D02*
X27978127Y-17091033D01*
X27978127Y-17091033D02*
X27997175Y-17081509D01*
X27997175Y-17081509D02*
X28035270Y-17081509D01*
X28035270Y-17081509D02*
X28054318Y-17091033D01*
X28054318Y-17091033D02*
X28063841Y-17100556D01*
X28063841Y-17100556D02*
X28073365Y-17119604D01*
X28073365Y-17119604D02*
X28073365Y-17129128D01*
X28073365Y-17129128D02*
X28063841Y-17148175D01*
X28063841Y-17148175D02*
X28054318Y-17157699D01*
X28054318Y-17157699D02*
X28035270Y-17167223D01*
X28035270Y-17167223D02*
X27997175Y-17167223D01*
X27997175Y-17167223D02*
X27978127Y-17176747D01*
X27978127Y-17176747D02*
X27968603Y-17186271D01*
X27968603Y-17186271D02*
X27959080Y-17205318D01*
X27959080Y-17205318D02*
X27959080Y-17243413D01*
X27959080Y-17243413D02*
X27968603Y-17262461D01*
X27968603Y-17262461D02*
X27978127Y-17271985D01*
X27978127Y-17271985D02*
X27997175Y-17281509D01*
X27997175Y-17281509D02*
X28035270Y-17281509D01*
X28035270Y-17281509D02*
X28054318Y-17271985D01*
X28054318Y-17271985D02*
X28063841Y-17262461D01*
X28063841Y-17262461D02*
X28073365Y-17243413D01*
X28073365Y-17243413D02*
X28073365Y-17205318D01*
X28073365Y-17205318D02*
X28063841Y-17186271D01*
X28063841Y-17186271D02*
X28054318Y-17176747D01*
X28054318Y-17176747D02*
X28035270Y-17167223D01*
X28197175Y-17081509D02*
X28216222Y-17081509D01*
X28216222Y-17081509D02*
X28235270Y-17091033D01*
X28235270Y-17091033D02*
X28244794Y-17100556D01*
X28244794Y-17100556D02*
X28254318Y-17119604D01*
X28254318Y-17119604D02*
X28263841Y-17157699D01*
X28263841Y-17157699D02*
X28263841Y-17205318D01*
X28263841Y-17205318D02*
X28254318Y-17243413D01*
X28254318Y-17243413D02*
X28244794Y-17262461D01*
X28244794Y-17262461D02*
X28235270Y-17271985D01*
X28235270Y-17271985D02*
X28216222Y-17281509D01*
X28216222Y-17281509D02*
X28197175Y-17281509D01*
X28197175Y-17281509D02*
X28178127Y-17271985D01*
X28178127Y-17271985D02*
X28168603Y-17262461D01*
X28168603Y-17262461D02*
X28159080Y-17243413D01*
X28159080Y-17243413D02*
X28149556Y-17205318D01*
X28149556Y-17205318D02*
X28149556Y-17157699D01*
X28149556Y-17157699D02*
X28159080Y-17119604D01*
X28159080Y-17119604D02*
X28168603Y-17100556D01*
X28168603Y-17100556D02*
X28178127Y-17091033D01*
X28178127Y-17091033D02*
X28197175Y-17081509D01*
X28387651Y-17081509D02*
X28406699Y-17081509D01*
X28406699Y-17081509D02*
X28425746Y-17091033D01*
X28425746Y-17091033D02*
X28435270Y-17100556D01*
X28435270Y-17100556D02*
X28444794Y-17119604D01*
X28444794Y-17119604D02*
X28454318Y-17157699D01*
X28454318Y-17157699D02*
X28454318Y-17205318D01*
X28454318Y-17205318D02*
X28444794Y-17243413D01*
X28444794Y-17243413D02*
X28435270Y-17262461D01*
X28435270Y-17262461D02*
X28425746Y-17271985D01*
X28425746Y-17271985D02*
X28406699Y-17281509D01*
X28406699Y-17281509D02*
X28387651Y-17281509D01*
X28387651Y-17281509D02*
X28368603Y-17271985D01*
X28368603Y-17271985D02*
X28359080Y-17262461D01*
X28359080Y-17262461D02*
X28349556Y-17243413D01*
X28349556Y-17243413D02*
X28340032Y-17205318D01*
X28340032Y-17205318D02*
X28340032Y-17157699D01*
X28340032Y-17157699D02*
X28349556Y-17119604D01*
X28349556Y-17119604D02*
X28359080Y-17100556D01*
X28359080Y-17100556D02*
X28368603Y-17091033D01*
X28368603Y-17091033D02*
X28387651Y-17081509D01*
X28540032Y-17281509D02*
X28540032Y-17148175D01*
X28540032Y-17167223D02*
X28549556Y-17157699D01*
X28549556Y-17157699D02*
X28568603Y-17148175D01*
X28568603Y-17148175D02*
X28597175Y-17148175D01*
X28597175Y-17148175D02*
X28616222Y-17157699D01*
X28616222Y-17157699D02*
X28625746Y-17176747D01*
X28625746Y-17176747D02*
X28625746Y-17281509D01*
X28625746Y-17176747D02*
X28635270Y-17157699D01*
X28635270Y-17157699D02*
X28654318Y-17148175D01*
X28654318Y-17148175D02*
X28682889Y-17148175D01*
X28682889Y-17148175D02*
X28701937Y-17157699D01*
X28701937Y-17157699D02*
X28711461Y-17176747D01*
X28711461Y-17176747D02*
X28711461Y-17281509D01*
X28806699Y-17281509D02*
X28806699Y-17148175D01*
X28806699Y-17167223D02*
X28816222Y-17157699D01*
X28816222Y-17157699D02*
X28835270Y-17148175D01*
X28835270Y-17148175D02*
X28863842Y-17148175D01*
X28863842Y-17148175D02*
X28882889Y-17157699D01*
X28882889Y-17157699D02*
X28892413Y-17176747D01*
X28892413Y-17176747D02*
X28892413Y-17281509D01*
X28892413Y-17176747D02*
X28901937Y-17157699D01*
X28901937Y-17157699D02*
X28920984Y-17148175D01*
X28920984Y-17148175D02*
X28949556Y-17148175D01*
X28949556Y-17148175D02*
X28968603Y-17157699D01*
X28968603Y-17157699D02*
X28978127Y-17176747D01*
X28978127Y-17176747D02*
X28978127Y-17281509D01*
X29368603Y-17071985D02*
X29197175Y-17329128D01*
X29625746Y-17081509D02*
X29644794Y-17081509D01*
X29644794Y-17081509D02*
X29663842Y-17091033D01*
X29663842Y-17091033D02*
X29673365Y-17100556D01*
X29673365Y-17100556D02*
X29682889Y-17119604D01*
X29682889Y-17119604D02*
X29692413Y-17157699D01*
X29692413Y-17157699D02*
X29692413Y-17205318D01*
X29692413Y-17205318D02*
X29682889Y-17243413D01*
X29682889Y-17243413D02*
X29673365Y-17262461D01*
X29673365Y-17262461D02*
X29663842Y-17271985D01*
X29663842Y-17271985D02*
X29644794Y-17281509D01*
X29644794Y-17281509D02*
X29625746Y-17281509D01*
X29625746Y-17281509D02*
X29606699Y-17271985D01*
X29606699Y-17271985D02*
X29597175Y-17262461D01*
X29597175Y-17262461D02*
X29587651Y-17243413D01*
X29587651Y-17243413D02*
X29578127Y-17205318D01*
X29578127Y-17205318D02*
X29578127Y-17157699D01*
X29578127Y-17157699D02*
X29587651Y-17119604D01*
X29587651Y-17119604D02*
X29597175Y-17100556D01*
X29597175Y-17100556D02*
X29606699Y-17091033D01*
X29606699Y-17091033D02*
X29625746Y-17081509D01*
X29778127Y-17262461D02*
X29787651Y-17271985D01*
X29787651Y-17271985D02*
X29778127Y-17281509D01*
X29778127Y-17281509D02*
X29768604Y-17271985D01*
X29768604Y-17271985D02*
X29778127Y-17262461D01*
X29778127Y-17262461D02*
X29778127Y-17281509D01*
X29911461Y-17081509D02*
X29930508Y-17081509D01*
X29930508Y-17081509D02*
X29949556Y-17091033D01*
X29949556Y-17091033D02*
X29959080Y-17100556D01*
X29959080Y-17100556D02*
X29968604Y-17119604D01*
X29968604Y-17119604D02*
X29978127Y-17157699D01*
X29978127Y-17157699D02*
X29978127Y-17205318D01*
X29978127Y-17205318D02*
X29968604Y-17243413D01*
X29968604Y-17243413D02*
X29959080Y-17262461D01*
X29959080Y-17262461D02*
X29949556Y-17271985D01*
X29949556Y-17271985D02*
X29930508Y-17281509D01*
X29930508Y-17281509D02*
X29911461Y-17281509D01*
X29911461Y-17281509D02*
X29892413Y-17271985D01*
X29892413Y-17271985D02*
X29882889Y-17262461D01*
X29882889Y-17262461D02*
X29873365Y-17243413D01*
X29873365Y-17243413D02*
X29863842Y-17205318D01*
X29863842Y-17205318D02*
X29863842Y-17157699D01*
X29863842Y-17157699D02*
X29873365Y-17119604D01*
X29873365Y-17119604D02*
X29882889Y-17100556D01*
X29882889Y-17100556D02*
X29892413Y-17091033D01*
X29892413Y-17091033D02*
X29911461Y-17081509D01*
X30044794Y-17081509D02*
X30168604Y-17081509D01*
X30168604Y-17081509D02*
X30101937Y-17157699D01*
X30101937Y-17157699D02*
X30130508Y-17157699D01*
X30130508Y-17157699D02*
X30149556Y-17167223D01*
X30149556Y-17167223D02*
X30159080Y-17176747D01*
X30159080Y-17176747D02*
X30168604Y-17195794D01*
X30168604Y-17195794D02*
X30168604Y-17243413D01*
X30168604Y-17243413D02*
X30159080Y-17262461D01*
X30159080Y-17262461D02*
X30149556Y-17271985D01*
X30149556Y-17271985D02*
X30130508Y-17281509D01*
X30130508Y-17281509D02*
X30073365Y-17281509D01*
X30073365Y-17281509D02*
X30054318Y-17271985D01*
X30054318Y-17271985D02*
X30044794Y-17262461D01*
X30359080Y-17281509D02*
X30244794Y-17281509D01*
X30301937Y-17281509D02*
X30301937Y-17081509D01*
X30301937Y-17081509D02*
X30282889Y-17110080D01*
X30282889Y-17110080D02*
X30263842Y-17129128D01*
X30263842Y-17129128D02*
X30244794Y-17138652D01*
X30540032Y-17081509D02*
X30444794Y-17081509D01*
X30444794Y-17081509D02*
X30435270Y-17176747D01*
X30435270Y-17176747D02*
X30444794Y-17167223D01*
X30444794Y-17167223D02*
X30463842Y-17157699D01*
X30463842Y-17157699D02*
X30511461Y-17157699D01*
X30511461Y-17157699D02*
X30530508Y-17167223D01*
X30530508Y-17167223D02*
X30540032Y-17176747D01*
X30540032Y-17176747D02*
X30549556Y-17195794D01*
X30549556Y-17195794D02*
X30549556Y-17243413D01*
X30549556Y-17243413D02*
X30540032Y-17262461D01*
X30540032Y-17262461D02*
X30530508Y-17271985D01*
X30530508Y-17271985D02*
X30511461Y-17281509D01*
X30511461Y-17281509D02*
X30463842Y-17281509D01*
X30463842Y-17281509D02*
X30444794Y-17271985D01*
X30444794Y-17271985D02*
X30435270Y-17262461D01*
X30625746Y-17081509D02*
X30625746Y-17119604D01*
X30701937Y-17081509D02*
X30701937Y-17119604D01*
X30997175Y-17357699D02*
X30987651Y-17348175D01*
X30987651Y-17348175D02*
X30968604Y-17319604D01*
X30968604Y-17319604D02*
X30959080Y-17300556D01*
X30959080Y-17300556D02*
X30949556Y-17271985D01*
X30949556Y-17271985D02*
X30940032Y-17224366D01*
X30940032Y-17224366D02*
X30940032Y-17186271D01*
X30940032Y-17186271D02*
X30949556Y-17138652D01*
X30949556Y-17138652D02*
X30959080Y-17110080D01*
X30959080Y-17110080D02*
X30968604Y-17091033D01*
X30968604Y-17091033D02*
X30987651Y-17062461D01*
X30987651Y-17062461D02*
X30997175Y-17052937D01*
X31063842Y-17100556D02*
X31073366Y-17091033D01*
X31073366Y-17091033D02*
X31092413Y-17081509D01*
X31092413Y-17081509D02*
X31140032Y-17081509D01*
X31140032Y-17081509D02*
X31159080Y-17091033D01*
X31159080Y-17091033D02*
X31168604Y-17100556D01*
X31168604Y-17100556D02*
X31178127Y-17119604D01*
X31178127Y-17119604D02*
X31178127Y-17138652D01*
X31178127Y-17138652D02*
X31168604Y-17167223D01*
X31168604Y-17167223D02*
X31054318Y-17281509D01*
X31054318Y-17281509D02*
X31178127Y-17281509D01*
X31416223Y-17281509D02*
X31416223Y-17081509D01*
X31501937Y-17281509D02*
X31501937Y-17176747D01*
X31501937Y-17176747D02*
X31492413Y-17157699D01*
X31492413Y-17157699D02*
X31473366Y-17148175D01*
X31473366Y-17148175D02*
X31444794Y-17148175D01*
X31444794Y-17148175D02*
X31425747Y-17157699D01*
X31425747Y-17157699D02*
X31416223Y-17167223D01*
X31625747Y-17281509D02*
X31606699Y-17271985D01*
X31606699Y-17271985D02*
X31597175Y-17262461D01*
X31597175Y-17262461D02*
X31587651Y-17243413D01*
X31587651Y-17243413D02*
X31587651Y-17186271D01*
X31587651Y-17186271D02*
X31597175Y-17167223D01*
X31597175Y-17167223D02*
X31606699Y-17157699D01*
X31606699Y-17157699D02*
X31625747Y-17148175D01*
X31625747Y-17148175D02*
X31654318Y-17148175D01*
X31654318Y-17148175D02*
X31673366Y-17157699D01*
X31673366Y-17157699D02*
X31682889Y-17167223D01*
X31682889Y-17167223D02*
X31692413Y-17186271D01*
X31692413Y-17186271D02*
X31692413Y-17243413D01*
X31692413Y-17243413D02*
X31682889Y-17262461D01*
X31682889Y-17262461D02*
X31673366Y-17271985D01*
X31673366Y-17271985D02*
X31654318Y-17281509D01*
X31654318Y-17281509D02*
X31625747Y-17281509D01*
X31806699Y-17281509D02*
X31787651Y-17271985D01*
X31787651Y-17271985D02*
X31778128Y-17252937D01*
X31778128Y-17252937D02*
X31778128Y-17081509D01*
X31959080Y-17271985D02*
X31940032Y-17281509D01*
X31940032Y-17281509D02*
X31901937Y-17281509D01*
X31901937Y-17281509D02*
X31882889Y-17271985D01*
X31882889Y-17271985D02*
X31873366Y-17252937D01*
X31873366Y-17252937D02*
X31873366Y-17176747D01*
X31873366Y-17176747D02*
X31882889Y-17157699D01*
X31882889Y-17157699D02*
X31901937Y-17148175D01*
X31901937Y-17148175D02*
X31940032Y-17148175D01*
X31940032Y-17148175D02*
X31959080Y-17157699D01*
X31959080Y-17157699D02*
X31968604Y-17176747D01*
X31968604Y-17176747D02*
X31968604Y-17195794D01*
X31968604Y-17195794D02*
X31873366Y-17214842D01*
X32044794Y-17271985D02*
X32063842Y-17281509D01*
X32063842Y-17281509D02*
X32101937Y-17281509D01*
X32101937Y-17281509D02*
X32120985Y-17271985D01*
X32120985Y-17271985D02*
X32130509Y-17252937D01*
X32130509Y-17252937D02*
X32130509Y-17243413D01*
X32130509Y-17243413D02*
X32120985Y-17224366D01*
X32120985Y-17224366D02*
X32101937Y-17214842D01*
X32101937Y-17214842D02*
X32073366Y-17214842D01*
X32073366Y-17214842D02*
X32054318Y-17205318D01*
X32054318Y-17205318D02*
X32044794Y-17186271D01*
X32044794Y-17186271D02*
X32044794Y-17176747D01*
X32044794Y-17176747D02*
X32054318Y-17157699D01*
X32054318Y-17157699D02*
X32073366Y-17148175D01*
X32073366Y-17148175D02*
X32101937Y-17148175D01*
X32101937Y-17148175D02*
X32120985Y-17157699D01*
X32197175Y-17357699D02*
X32206699Y-17348175D01*
X32206699Y-17348175D02*
X32225747Y-17319604D01*
X32225747Y-17319604D02*
X32235270Y-17300556D01*
X32235270Y-17300556D02*
X32244794Y-17271985D01*
X32244794Y-17271985D02*
X32254318Y-17224366D01*
X32254318Y-17224366D02*
X32254318Y-17186271D01*
X32254318Y-17186271D02*
X32244794Y-17138652D01*
X32244794Y-17138652D02*
X32235270Y-17110080D01*
X32235270Y-17110080D02*
X32225747Y-17091033D01*
X32225747Y-17091033D02*
X32206699Y-17062461D01*
X32206699Y-17062461D02*
X32197175Y-17052937D01*
M02*
