%TF.GenerationSoftware,KiCad,Pcbnew,7.0.6*%
%TF.CreationDate,2023-12-14T14:39:05-08:00*%
%TF.ProjectId,UGC_Trigger,5547435f-5472-4696-9767-65722e6b6963,rev?*%
%TF.SameCoordinates,Original*%
%TF.FileFunction,Profile,NP*%
%FSLAX46Y46*%
G04 Gerber Fmt 4.6, Leading zero omitted, Abs format (unit mm)*
G04 Created by KiCad (PCBNEW 7.0.6) date 2023-12-14 14:39:05*
%MOMM*%
%LPD*%
G01*
G04 APERTURE LIST*
%TA.AperFunction,Profile*%
%ADD10C,0.100000*%
%TD*%
%ADD11C,0.100000*%
G04 APERTURE END LIST*
D10*
X274271123Y-146554000D02*
X274271123Y-149554000D01*
X283571123Y-149554000D02*
X283571123Y-146554000D01*
X281979444Y-146303945D02*
G75*
G03*
X281486190Y-146722144I56J-500055D01*
G01*
X282571123Y-149804000D02*
X283321123Y-149804000D01*
X275271123Y-149804000D02*
X275271123Y-164106525D01*
X274521123Y-149804000D02*
X275271123Y-149804000D01*
X283321123Y-146304000D02*
X281979444Y-146304000D01*
D11*
X282571123Y-164085746D02*
X282560463Y-164188439D01*
X282533688Y-164275571D01*
D10*
X282571123Y-164085746D02*
X282571123Y-149804000D01*
X280198054Y-146722144D02*
G75*
G03*
X279704800Y-146304000I-493254J-81856D01*
G01*
X274271100Y-149554000D02*
G75*
G03*
X274521123Y-149804000I250000J0D01*
G01*
D11*
X282440204Y-164423058D02*
X282362434Y-164492116D01*
X282301704Y-164529404D01*
D10*
X280198054Y-146722144D02*
G75*
G03*
X281486190Y-146722144I644068J106883D01*
G01*
D11*
X275392110Y-164432636D02*
X275332240Y-164346071D01*
X275302344Y-164280440D01*
X275302344Y-164280440D02*
X275276324Y-164178456D01*
X275271123Y-164106525D01*
X275544295Y-164552113D02*
X275457612Y-164496025D01*
X275392110Y-164432636D01*
D10*
X283571100Y-146554000D02*
G75*
G03*
X283321123Y-146304000I-250000J0D01*
G01*
D11*
X279523032Y-165336042D02*
X279395250Y-165345603D01*
X279267300Y-165352878D01*
X279139220Y-165357876D01*
X279011050Y-165360606D01*
X278882829Y-165361077D01*
X278754595Y-165359297D01*
X278626389Y-165355276D01*
X278498248Y-165349022D01*
X278370212Y-165340544D01*
X278242320Y-165329851D01*
X278114611Y-165316952D01*
X277987125Y-165301856D01*
X277859900Y-165284571D01*
X277732976Y-165265107D01*
X277606391Y-165243471D01*
X277480185Y-165219674D01*
X277354397Y-165193723D01*
X277229066Y-165165629D01*
X277104230Y-165135399D01*
X276979930Y-165103042D01*
X276856204Y-165068568D01*
X276733091Y-165031985D01*
X276610631Y-164993302D01*
X276488862Y-164952527D01*
X276367824Y-164909671D01*
X276247555Y-164864740D01*
X276128095Y-164817746D01*
X276009483Y-164768695D01*
X275891757Y-164717598D01*
X275774958Y-164664462D01*
X275659124Y-164609298D01*
X275544295Y-164552113D01*
D10*
X274521123Y-146304023D02*
G75*
G03*
X274271123Y-146554000I-23J-249977D01*
G01*
D11*
X282533688Y-164275571D02*
X282484408Y-164367161D01*
X282440204Y-164423058D01*
X282301704Y-164529404D02*
X282139118Y-164611367D01*
X281974535Y-164689309D01*
X281808067Y-164763190D01*
X281639823Y-164832969D01*
X281469917Y-164898608D01*
X281298459Y-164960067D01*
X281125561Y-165017306D01*
X280951333Y-165070285D01*
X280775888Y-165118966D01*
X280599337Y-165163308D01*
X280421790Y-165203273D01*
X280243360Y-165238820D01*
X280064158Y-165269910D01*
X279884295Y-165296503D01*
X279703882Y-165318560D01*
X279523032Y-165336042D01*
D10*
X279704800Y-146304000D02*
X274521123Y-146304000D01*
X283321123Y-149804023D02*
G75*
G03*
X283571123Y-149554000I-23J250023D01*
G01*
M02*
