%TF.GenerationSoftware,KiCad,Pcbnew,7.0.6*%
%TF.CreationDate,2023-12-14T14:39:05-08:00*%
%TF.ProjectId,UGC_Trigger,5547435f-5472-4696-9767-65722e6b6963,rev?*%
%TF.SameCoordinates,Original*%
%TF.FileFunction,Copper,L2,Bot*%
%TF.FilePolarity,Positive*%
%FSLAX46Y46*%
G04 Gerber Fmt 4.6, Leading zero omitted, Abs format (unit mm)*
G04 Created by KiCad (PCBNEW 7.0.6) date 2023-12-14 14:39:05*
%MOMM*%
%LPD*%
G01*
G04 APERTURE LIST*
%TA.AperFunction,ComponentPad*%
%ADD10R,1.350000X1.350000*%
%TD*%
G04 APERTURE END LIST*
D10*
%TO.P,J1,1,Pin_1*%
%TO.N,Net-(J1-Pin_1)*%
X276535963Y-147415545D03*
%TD*%
%TO.P,J2,1,Pin_1*%
%TO.N,Net-(J2-Pin_1)*%
X279135963Y-147415545D03*
%TD*%
%TA.AperFunction,NonConductor*%
G36*
X275720928Y-146324185D02*
G01*
X275766683Y-146376989D01*
X275776627Y-146446147D01*
X275747602Y-146509703D01*
X275722782Y-146531600D01*
X275703497Y-146544486D01*
X275680362Y-146559944D01*
X275624996Y-146642805D01*
X275624995Y-146642809D01*
X275610463Y-146715866D01*
X275610463Y-148115223D01*
X275624995Y-148188280D01*
X275624996Y-148188284D01*
X275624997Y-148188285D01*
X275680362Y-148271146D01*
X275763222Y-148326510D01*
X275763223Y-148326511D01*
X275763227Y-148326512D01*
X275836284Y-148341044D01*
X275836287Y-148341045D01*
X275836289Y-148341045D01*
X277235639Y-148341045D01*
X277235640Y-148341044D01*
X277308703Y-148326511D01*
X277391564Y-148271146D01*
X277446929Y-148188285D01*
X277461463Y-148115219D01*
X277461463Y-146715871D01*
X277461463Y-146715868D01*
X277461462Y-146715866D01*
X277446930Y-146642809D01*
X277446929Y-146642805D01*
X277426997Y-146612974D01*
X277391564Y-146559944D01*
X277349145Y-146531601D01*
X277304341Y-146477991D01*
X277295634Y-146408666D01*
X277325788Y-146345638D01*
X277385231Y-146308918D01*
X277418037Y-146304500D01*
X278253889Y-146304500D01*
X278320928Y-146324185D01*
X278366683Y-146376989D01*
X278376627Y-146446147D01*
X278347602Y-146509703D01*
X278322782Y-146531600D01*
X278303497Y-146544486D01*
X278280362Y-146559944D01*
X278224996Y-146642805D01*
X278224995Y-146642809D01*
X278210463Y-146715866D01*
X278210463Y-148115223D01*
X278224995Y-148188280D01*
X278224996Y-148188284D01*
X278224997Y-148188285D01*
X278280362Y-148271146D01*
X278363222Y-148326510D01*
X278363223Y-148326511D01*
X278363227Y-148326512D01*
X278436284Y-148341044D01*
X278436287Y-148341045D01*
X278436289Y-148341045D01*
X279835639Y-148341045D01*
X279835640Y-148341044D01*
X279908703Y-148326511D01*
X279991564Y-148271146D01*
X280046929Y-148188285D01*
X280061463Y-148115219D01*
X280061463Y-147034297D01*
X280081148Y-146967258D01*
X280133952Y-146921503D01*
X280203110Y-146911559D01*
X280266666Y-146940584D01*
X280285422Y-146960920D01*
X280303985Y-146986208D01*
X280309398Y-147001148D01*
X280320775Y-147012116D01*
X280334672Y-147028011D01*
X280360991Y-147063864D01*
X280412620Y-147107632D01*
X280422158Y-147122127D01*
X280434125Y-147128843D01*
X280453623Y-147142392D01*
X280466127Y-147152992D01*
X280478336Y-147163342D01*
X280545307Y-147197258D01*
X280547045Y-147198138D01*
X280560743Y-147211011D01*
X280572140Y-147213991D01*
X280596801Y-147223336D01*
X280615576Y-147232844D01*
X280615577Y-147232845D01*
X280699212Y-147252815D01*
X280716667Y-147262809D01*
X280726465Y-147262809D01*
X280755265Y-147266200D01*
X280765198Y-147268572D01*
X280765201Y-147268572D01*
X280765204Y-147268573D01*
X280765206Y-147268573D01*
X280772427Y-147269423D01*
X280772414Y-147269527D01*
X280794293Y-147272340D01*
X280794560Y-147272185D01*
X280824272Y-147268573D01*
X280859971Y-147268573D01*
X280880385Y-147274567D01*
X280887892Y-147272605D01*
X280911829Y-147269527D01*
X280911817Y-147269423D01*
X280919037Y-147268573D01*
X280919040Y-147268573D01*
X280919043Y-147268572D01*
X280919045Y-147268572D01*
X280928979Y-147266200D01*
X280957779Y-147262809D01*
X280958536Y-147262809D01*
X280985028Y-147252815D01*
X281068668Y-147232844D01*
X281087442Y-147223335D01*
X281112103Y-147213990D01*
X281115250Y-147213167D01*
X281137199Y-147198138D01*
X281138937Y-147197258D01*
X281205908Y-147163342D01*
X281230620Y-147142392D01*
X281250119Y-147128843D01*
X281255140Y-147126024D01*
X281271620Y-147107635D01*
X281323252Y-147063865D01*
X281349576Y-147028005D01*
X281363471Y-147012114D01*
X281369532Y-147006270D01*
X281380255Y-146986212D01*
X281414285Y-146939856D01*
X281436666Y-146886747D01*
X281445086Y-146870312D01*
X281451302Y-146860127D01*
X281456627Y-146839380D01*
X281474027Y-146798095D01*
X281486090Y-146725779D01*
X281487686Y-146718759D01*
X281492458Y-146702263D01*
X281520612Y-146612974D01*
X281531008Y-146589103D01*
X281548038Y-146559081D01*
X281550288Y-146555421D01*
X281587609Y-146499233D01*
X281600181Y-146483310D01*
X281627789Y-146453697D01*
X281633016Y-146448712D01*
X281685683Y-146404058D01*
X281691446Y-146399725D01*
X281725166Y-146377340D01*
X281742947Y-146367533D01*
X281804486Y-146339905D01*
X281808463Y-146338284D01*
X281840822Y-146326411D01*
X281866116Y-146320055D01*
X281960774Y-146306644D01*
X281975365Y-146304925D01*
X281982614Y-146304500D01*
X283311357Y-146304500D01*
X283330746Y-146306025D01*
X283333528Y-146306465D01*
X283344842Y-146308714D01*
X283389766Y-146317642D01*
X283421892Y-146328782D01*
X283433513Y-146334704D01*
X283439817Y-146338399D01*
X283472433Y-146360197D01*
X283491214Y-146375612D01*
X283499494Y-146383892D01*
X283514919Y-146402687D01*
X283536717Y-146435314D01*
X283540409Y-146441614D01*
X283546332Y-146453239D01*
X283557466Y-146485343D01*
X283557469Y-146485356D01*
X283568557Y-146541102D01*
X283569094Y-146544495D01*
X283570623Y-146563901D01*
X283570623Y-149544237D01*
X283569106Y-149563576D01*
X283568683Y-149566247D01*
X283557418Y-149622814D01*
X283546291Y-149654890D01*
X283540596Y-149666067D01*
X283536903Y-149672367D01*
X283514779Y-149705483D01*
X283499354Y-149724278D01*
X283491389Y-149732243D01*
X283472605Y-149747660D01*
X283439482Y-149769795D01*
X283433177Y-149773491D01*
X283422022Y-149779175D01*
X283389927Y-149790307D01*
X283335620Y-149801115D01*
X283311417Y-149803500D01*
X282595883Y-149803500D01*
X282595677Y-149803459D01*
X282571123Y-149803459D01*
X282571024Y-149803500D01*
X282570740Y-149803616D01*
X282570738Y-149803618D01*
X282570582Y-149803999D01*
X282570599Y-149828616D01*
X282570594Y-149828616D01*
X282570623Y-149828759D01*
X282570623Y-164082511D01*
X282570291Y-164088917D01*
X282561220Y-164176294D01*
X282556413Y-164199913D01*
X282536795Y-164263755D01*
X282527462Y-164286086D01*
X282489159Y-164357274D01*
X282477223Y-164375437D01*
X282446602Y-164414157D01*
X282431676Y-164429960D01*
X282370293Y-164484468D01*
X282352838Y-164497420D01*
X282303684Y-164527599D01*
X282299152Y-164530127D01*
X282170756Y-164594856D01*
X282138886Y-164610923D01*
X281974321Y-164688856D01*
X281807889Y-164762721D01*
X281639633Y-164832506D01*
X281469729Y-164898143D01*
X281298322Y-164959584D01*
X281125390Y-165016835D01*
X281073903Y-165032491D01*
X280951166Y-165069812D01*
X280775773Y-165118479D01*
X280599198Y-165162826D01*
X280421706Y-165202779D01*
X280243284Y-165238325D01*
X280064061Y-165269418D01*
X279884224Y-165296008D01*
X279703831Y-165318062D01*
X279576633Y-165330358D01*
X279522996Y-165335543D01*
X279395238Y-165345102D01*
X279267226Y-165352380D01*
X279139193Y-165357376D01*
X279011010Y-165360106D01*
X278882834Y-165360576D01*
X278754645Y-165358797D01*
X278626426Y-165354776D01*
X278498267Y-165348522D01*
X278370273Y-165340047D01*
X278242309Y-165329347D01*
X278114693Y-165316458D01*
X277987198Y-165301361D01*
X277859951Y-165284073D01*
X277733060Y-165264614D01*
X277606450Y-165242973D01*
X277480285Y-165219183D01*
X277354472Y-165193227D01*
X277229171Y-165165139D01*
X277104364Y-165134917D01*
X277104364Y-165134916D01*
X276980055Y-165102557D01*
X276856342Y-165068087D01*
X276733257Y-165031513D01*
X276610790Y-164992827D01*
X276488981Y-164952039D01*
X276368024Y-164909211D01*
X276247734Y-164864273D01*
X276128235Y-164817263D01*
X276009654Y-164768224D01*
X275891959Y-164717141D01*
X275775193Y-164664020D01*
X275659347Y-164608850D01*
X275547654Y-164553226D01*
X275541605Y-164549777D01*
X275468088Y-164502206D01*
X275449219Y-164487206D01*
X275401284Y-164440817D01*
X275385533Y-164422246D01*
X275338958Y-164354905D01*
X275328098Y-164335772D01*
X275307394Y-164290320D01*
X275300087Y-164269574D01*
X275298602Y-164263755D01*
X275279546Y-164189064D01*
X275276023Y-164167364D01*
X275271783Y-164108720D01*
X275271623Y-164104263D01*
X275271623Y-149828759D01*
X275271651Y-149828616D01*
X275271647Y-149828616D01*
X275271662Y-149804002D01*
X275271664Y-149804000D01*
X275271585Y-149803808D01*
X275271507Y-149803618D01*
X275271505Y-149803616D01*
X275271222Y-149803500D01*
X275271123Y-149803459D01*
X275246569Y-149803459D01*
X275246363Y-149803500D01*
X274530882Y-149803500D01*
X274511513Y-149801978D01*
X274508869Y-149801560D01*
X274452305Y-149790300D01*
X274420227Y-149779174D01*
X274409057Y-149773483D01*
X274402761Y-149769793D01*
X274369625Y-149747655D01*
X274350838Y-149732239D01*
X274342873Y-149724275D01*
X274327455Y-149705489D01*
X274305322Y-149672367D01*
X274305315Y-149672355D01*
X274301627Y-149666064D01*
X274295938Y-149654899D01*
X274284811Y-149622809D01*
X274274005Y-149568488D01*
X274271623Y-149544303D01*
X274271623Y-146563760D01*
X274273159Y-146544306D01*
X274273595Y-146541559D01*
X274284761Y-146485356D01*
X274295894Y-146453236D01*
X274301834Y-146441579D01*
X274305503Y-146435320D01*
X274327315Y-146402678D01*
X274342716Y-146383913D01*
X274351031Y-146375599D01*
X274369794Y-146360203D01*
X274402440Y-146338392D01*
X274408700Y-146334723D01*
X274420373Y-146328777D01*
X274452464Y-146317651D01*
X274508204Y-146306568D01*
X274511646Y-146306023D01*
X274531019Y-146304500D01*
X275653889Y-146304500D01*
X275720928Y-146324185D01*
G37*
%TD.AperFunction*%
M02*
