0
SECTION
2
HEADER
9
$INSUNITS
70
4
9
$ACADVER
1
AC1014
9
$HANDSEED
5
FFFF
0
ENDSEC
0
SECTION
2
TABLES
0
TABLE
2
VPORT
5
8
100
AcDbSymbolTable
0
ENDTAB
0
TABLE
2
LTYPE
5
5
100
AcDbSymbolTable
0
LTYPE
5
14
100
AcDbSymbolTableRecord
100
AcDbLinetypeTableRecord
2
BYBLOCK
70
0
0
LTYPE
5
15
100
AcDbSymbolTableRecord
100
AcDbLinetypeTableRecord
2
BYLAYER
70
0
0
ENDTAB
0
TABLE
2
LAYER
5
2
100
AcDbSymbolTable
70
2
0
LAYER
5
50
100
AcDbSymbolTableRecord
100
AcDbLayerTableRecord
2
0
70
0
6
CONTINUOUS
0
ENDTAB
0
TABLE
2
STYLE
5
3
100
AcDbSymbolTable
70
1
0
STYLE
5
11
100
AcDbSymbolTableRecord
100
AcDbTextStyleTableRecord
2
STANDARD
70
0
0
ENDTAB
0
TABLE
2
VIEW
5
6
100
AcDbSymbolTable
70
0
0
ENDTAB
0
TABLE
2
UCS
5
7
100
AcDbSymbolTable
70
0
0
ENDTAB
0
TABLE
2
APPID
5
9
100
AcDbSymbolTable
70
2
0
APPID
5
12
100
AcDbSymbolTableRecord
100
AcDbRegAppTableRecord
2
ACAD
70
0
0
ENDTAB
0
TABLE
2
DIMSTYLE
5
A
100
AcDbSymbolTable
70
1
0
ENDTAB
0
TABLE
2
BLOCK_RECORD
5
1
100
AcDbSymbolTable
70
1
0
BLOCK_RECORD
5
1F
100
AcDbSymbolTableRecord
100
AcDbBlockTableRecord
2
*MODEL_SPACE
0
BLOCK_RECORD
5
1B
100
AcDbSymbolTableRecord
100
AcDbBlockTableRecord
2
*PAPER_SPACE
0
ENDTAB
0
ENDSEC
0
SECTION
2
BLOCKS
0
BLOCK
5
20
100
AcDbEntity
100
AcDbBlockBegin
2
*MODEL_SPACE
0
ENDBLK
5
21
100
AcDbEntity
100
AcDbBlockEnd
0
BLOCK
5
1C
100
AcDbEntity
100
AcDbBlockBegin
2
*PAPER_SPACE
0
ENDBLK
5
1D
100
AcDbEntity
100
AcDbBlockEnd
0
ENDSEC
0
SECTION
2
ENTITIES
0
LWPOLYLINE
5
100
100
AcDbEntity
8
0
100
AcDbPolyline
90
22
70
1
43
0.0
10
34.470002039814389
20
-15.932003460507085
42
0.41421356237309503
10
35.470002039814389
20
-16.932003460507087
10
38.120002039814395
20
-16.932003460507087
10
38.120002039814395
20
-19.569999519361495
42
0.41421356237309503
10
39.120002039814388
20
-20.569999519361492
10
42.470002591350777
20
-20.569999519361495
42
-0.41421356237309503
10
42.970002591350777
20
-21.069999519361495
10
42.970002591350777
20
-21.569999519361495
42
0.41421356237309503
10
43.470002591350777
20
-22.069999519361492
10
46.470002591350777
20
-22.069999519361495
42
0.41421356237309503
10
46.970002591350777
20
-21.569999519361495
10
46.970002591350777
20
-21.069999519361495
42
-0.41421356237309503
10
47.470002591350777
20
-20.569999519361495
10
50.820003142887174
20
-20.569999519361495
42
0.41421356237309503
10
51.820003142887174
20
-19.569999519361495
10
51.82000314288716
20
-16.932003460507087
10
54.470003142887165
20
-16.932003460507087
42
0.41421356237309503
10
55.470003142887165
20
-15.932003460507085
10
55.470003142887165
20
-8.3320034605070852
42
0.41421356237309503
10
54.470003142887165
20
-7.3320034605070852
10
35.470002039814389
20
-7.3320034605070861
42
0.41421356237309503
10
34.470002039814382
20
-8.3320034605070852
0
LWPOLYLINE
5
101
100
AcDbEntity
8
0
100
AcDbPolyline
90
4
70
1
43
0.0
10
39.244999999999585
20
-13.094999999999326
10
39.244999999999472
20
-14.244999999999324
10
38.89499999999947
20
-14.244999999999289
10
38.894999999999584
20
-13.09499999999929
0
LWPOLYLINE
5
102
100
AcDbEntity
8
0
100
AcDbPolyline
90
4
70
1
43
0.0
10
40.919999999999987
20
-9.0949999999994962
10
40.920000000000066
20
-8.2449999999994983
10
41.420000000000066
20
-8.244999999999548
10
41.419999999999973
20
-9.0949999999995477
0
LWPOLYLINE
5
103
100
AcDbEntity
8
0
100
AcDbPolyline
90
4
70
1
43
0.0
10
50.419999999999057
20
-18.570000000000423
10
50.419999999999035
20
-18.770000000000422
10
49.819999999999041
20
-18.770000000000366
10
49.819999999999062
20
-18.570000000000366
0
CIRCLE
5
104
100
AcDbEntity
8
0
100
AcDbCircle
10
-44.969999999999537
20
-13.669999999999892
30
3.0353497493242195e-15
40
2.4000000000000021
210
-2.0954117794933109e-29
220
-2.220446049250319e-16
230
-1
0
ENDSEC
0
SECTION
2
OBJECTS
0
DICTIONARY
5
C
100
AcDbDictionary
3
ACAD_GROUP
350
D
3
ACAD_MLINESTYLE
350
17
0
DICTIONARY
5
D
100
AcDbDictionary
0
DICTIONARY
5
1A
330
C
100
AcDbDictionary
0
DICTIONARY
5
17
100
AcDbDictionary
0
ENDSEC
0
EOF
