%TF.GenerationSoftware,KiCad,Pcbnew,8.0.2*%
%TF.CreationDate,2024-10-25T03:27:36-07:00*%
%TF.ProjectId,UGC_SubStick_R4K,5547435f-5375-4625-9374-69636b5f5234,rev?*%
%TF.SameCoordinates,Original*%
%TF.FileFunction,Copper,L2,Bot*%
%TF.FilePolarity,Positive*%
%FSLAX46Y46*%
G04 Gerber Fmt 4.6, Leading zero omitted, Abs format (unit mm)*
G04 Created by KiCad (PCBNEW 8.0.2) date 2024-10-25 03:27:36*
%MOMM*%
%LPD*%
G01*
G04 APERTURE LIST*
%TA.AperFunction,ComponentPad*%
%ADD10C,2.450000*%
%TD*%
%TA.AperFunction,ComponentPad*%
%ADD11C,1.250000*%
%TD*%
%TA.AperFunction,ComponentPad*%
%ADD12C,2.000000*%
%TD*%
%TA.AperFunction,ComponentPad*%
%ADD13R,1.350000X1.350000*%
%TD*%
%TA.AperFunction,ComponentPad*%
%ADD14O,1.350000X1.350000*%
%TD*%
%TA.AperFunction,SMDPad,CuDef*%
%ADD15R,0.300000X0.700000*%
%TD*%
%TA.AperFunction,SMDPad,CuDef*%
%ADD16R,0.300000X1.000000*%
%TD*%
%TA.AperFunction,ViaPad*%
%ADD17C,0.800000*%
%TD*%
%TA.AperFunction,Conductor*%
%ADD18C,0.250000*%
%TD*%
G04 APERTURE END LIST*
D10*
%TO.P,SW1,*%
%TO.N,*%
X242207200Y-143363518D03*
X242207200Y-156013518D03*
X252207200Y-143363518D03*
X252207200Y-156013518D03*
D11*
%TO.P,SW1,S1,1*%
%TO.N,RS_B_OUT*%
X241557200Y-146438518D03*
%TO.P,SW1,S2,2*%
X241557200Y-152938518D03*
%TO.P,SW1,S3,3*%
%TO.N,RS_B_IN*%
X237057200Y-146438518D03*
%TO.P,SW1,S4,4*%
X237057200Y-152938518D03*
D12*
%TO.P,SW1,X1,GND*%
%TO.N,GND*%
X244707200Y-158388518D03*
%TO.P,SW1,X2,X_OUT*%
%TO.N,Net-(SW1-X_OUT)*%
X247207200Y-158388518D03*
%TO.P,SW1,X3,VCC*%
%TO.N,+3V3*%
X249707200Y-158388518D03*
%TO.P,SW1,Y1,GND*%
%TO.N,GND*%
X255907200Y-152188518D03*
%TO.P,SW1,Y2,Y_OUT*%
%TO.N,Net-(SW1-Y_OUT)*%
X255907200Y-149688518D03*
%TO.P,SW1,Y3,VCC*%
%TO.N,+3V3*%
X255907200Y-147188518D03*
%TD*%
D13*
%TO.P,J1,1,Pin_1*%
%TO.N,GND*%
X280761001Y-140867407D03*
D14*
%TO.P,J1,2,Pin_2*%
%TO.N,RS_B_OUT*%
X278761001Y-140867407D03*
%TO.P,J1,3,Pin_3*%
%TO.N,RS_B_IN*%
X276761001Y-140867407D03*
%TO.P,J1,4,Pin_4*%
%TO.N,RY*%
X274761001Y-140867407D03*
%TO.P,J1,5,Pin_5*%
%TO.N,RX*%
X272761001Y-140867407D03*
%TO.P,J1,6,Pin_6*%
%TO.N,+3V3*%
X270761001Y-140867407D03*
%TD*%
D15*
%TO.P,J2,1,1*%
%TO.N,GND*%
X276713716Y-135850698D03*
%TO.P,J2,2,2*%
%TO.N,RS_B_OUT*%
X276213716Y-135850698D03*
%TO.P,J2,3,3*%
%TO.N,RS_B_IN*%
X275713716Y-135850698D03*
%TO.P,J2,4,4*%
%TO.N,RY*%
X275213716Y-135850698D03*
%TO.P,J2,5,5*%
%TO.N,RX*%
X274713716Y-135850698D03*
%TO.P,J2,6,6*%
%TO.N,+3V3*%
X274213716Y-135850698D03*
D16*
%TO.P,J2,MP1,MP1*%
%TO.N,GND*%
X277503716Y-138500698D03*
%TO.P,J2,MP2,MP2*%
X273423716Y-138500698D03*
%TD*%
D17*
%TO.N,GND*%
X276402800Y-138480800D03*
X280000000Y-138900000D03*
X245872000Y-147929600D03*
X245694200Y-149402800D03*
X274193000Y-139065000D03*
X247065800Y-148793200D03*
%TO.N,RS_B_IN*%
X241600000Y-139425000D03*
X277698200Y-135788400D03*
X246775000Y-139425000D03*
%TO.N,RS_B_OUT*%
X278841200Y-134035800D03*
%TO.N,RY*%
X274777200Y-137566400D03*
%TO.N,RX*%
X273888200Y-136875000D03*
%TD*%
D18*
%TO.N,GND*%
X276713716Y-135299684D02*
X277063200Y-134950200D01*
X277190200Y-134823200D02*
X278130000Y-134823200D01*
X280003716Y-138896284D02*
X280000000Y-138900000D01*
X278130000Y-134823200D02*
X278434800Y-134823200D01*
X277063200Y-134950200D02*
X277190200Y-134823200D01*
X276713716Y-135850698D02*
X276713716Y-135299684D01*
X278434800Y-134823200D02*
X279374600Y-135763000D01*
X244961482Y-158388518D02*
X244700000Y-158650000D01*
%TO.N,RS_B_IN*%
X246775000Y-139425000D02*
X241600000Y-139425000D01*
X275713716Y-136801116D02*
X275713716Y-135850698D01*
X277698200Y-136448800D02*
X277012400Y-137134600D01*
X277012400Y-137134600D02*
X276047200Y-137134600D01*
X277698200Y-135788400D02*
X277698200Y-136448800D01*
X276047200Y-137134600D02*
X275713716Y-136801116D01*
%TO.N,RS_B_OUT*%
X276213716Y-135850698D02*
X276213716Y-134834484D01*
X276213716Y-134834484D02*
X277012400Y-134035800D01*
X277012400Y-134035800D02*
X278841200Y-134035800D01*
X278841200Y-134035800D02*
X278713716Y-134163284D01*
%TO.N,RY*%
X275213716Y-136774284D02*
X274777200Y-137210800D01*
X274777200Y-137210800D02*
X274777200Y-137566400D01*
X275132800Y-140495608D02*
X274761001Y-140867407D01*
X275213716Y-135850698D02*
X275213716Y-136774284D01*
X274777200Y-137566400D02*
X275132800Y-137922000D01*
X275132800Y-137922000D02*
X275132800Y-140495608D01*
%TO.N,RX*%
X274713716Y-135850698D02*
X274713716Y-136608284D01*
X272761001Y-137601399D02*
X272761001Y-140867407D01*
X273487400Y-136875000D02*
X272761001Y-137601399D01*
X274713716Y-136608284D02*
X274447000Y-136875000D01*
X273888200Y-136875000D02*
X273487400Y-136875000D01*
X273888200Y-136875000D02*
X274447000Y-136875000D01*
%TO.N,+3V3*%
X274143807Y-135483600D02*
X271678400Y-135483600D01*
X255907200Y-147188518D02*
X255290918Y-147188518D01*
X274213716Y-135850698D02*
X274213716Y-135553509D01*
X271669800Y-135475000D02*
X259325000Y-135475000D01*
X254127000Y-140673000D02*
X254127000Y-146024600D01*
X270761001Y-140867407D02*
X270761001Y-139588999D01*
X259325000Y-135475000D02*
X254127000Y-140673000D01*
X271297400Y-135894100D02*
X271669800Y-135521700D01*
X254127000Y-152603200D02*
X254685800Y-153162000D01*
X254127000Y-146024600D02*
X254127000Y-152603200D01*
X254685800Y-156614200D02*
X252911482Y-158388518D01*
X255290918Y-147188518D02*
X254127000Y-146024600D01*
X274213716Y-135553509D02*
X274143807Y-135483600D01*
X254685800Y-153162000D02*
X254685800Y-156614200D01*
X252911482Y-158388518D02*
X249707200Y-158388518D01*
X271678400Y-135483600D02*
X271669800Y-135475000D01*
X270761001Y-139588999D02*
X271297400Y-139052600D01*
X271669800Y-135521700D02*
X271669800Y-135475000D01*
X271297400Y-139052600D02*
X271297400Y-135894100D01*
%TD*%
%TA.AperFunction,Conductor*%
%TO.N,GND*%
G36*
X278656731Y-133195796D02*
G01*
X278702486Y-133248600D01*
X278712430Y-133317758D01*
X278683405Y-133381314D01*
X278624627Y-133419088D01*
X278619367Y-133420508D01*
X278608833Y-133423104D01*
X278468962Y-133496515D01*
X278350716Y-133601270D01*
X278348289Y-133604787D01*
X278346942Y-133606738D01*
X278292663Y-133650729D01*
X278244892Y-133660300D01*
X276962964Y-133660300D01*
X276867463Y-133685889D01*
X276867460Y-133685890D01*
X276781840Y-133735322D01*
X276781835Y-133735326D01*
X275983154Y-134534009D01*
X275913242Y-134603920D01*
X275863807Y-134689543D01*
X275863807Y-134689544D01*
X275863806Y-134689546D01*
X275838216Y-134785049D01*
X275838216Y-134785051D01*
X275838216Y-135126198D01*
X275818531Y-135193237D01*
X275765727Y-135238992D01*
X275714216Y-135250198D01*
X275539042Y-135250198D01*
X275487906Y-135260369D01*
X275439526Y-135260369D01*
X275388390Y-135250198D01*
X275039042Y-135250198D01*
X274987906Y-135260369D01*
X274939526Y-135260369D01*
X274888390Y-135250198D01*
X274539042Y-135250198D01*
X274539034Y-135250198D01*
X274522634Y-135253460D01*
X274453042Y-135247230D01*
X274410767Y-135219523D01*
X274374370Y-135183126D01*
X274374369Y-135183125D01*
X274288745Y-135133690D01*
X274240993Y-135120895D01*
X274240991Y-135120894D01*
X274240989Y-135120893D01*
X274193243Y-135108100D01*
X274193242Y-135108100D01*
X271767657Y-135108100D01*
X271735564Y-135103875D01*
X271719236Y-135099500D01*
X271719235Y-135099500D01*
X259374436Y-135099500D01*
X259275564Y-135099500D01*
X259275563Y-135099500D01*
X259243468Y-135108100D01*
X259243467Y-135108099D01*
X259180062Y-135125089D01*
X259112530Y-135164079D01*
X259094794Y-135174320D01*
X259094435Y-135174527D01*
X253826526Y-140442436D01*
X253777091Y-140528059D01*
X253777091Y-140528060D01*
X253777090Y-140528062D01*
X253751500Y-140623565D01*
X253751500Y-140623567D01*
X253751500Y-142619602D01*
X253731815Y-142686641D01*
X253679011Y-142732396D01*
X253609853Y-142742340D01*
X253546297Y-142713315D01*
X253513945Y-142669414D01*
X253509311Y-142658852D01*
X253509311Y-142658851D01*
X253375568Y-142454141D01*
X253375567Y-142454139D01*
X253209957Y-142274240D01*
X253209947Y-142274231D01*
X253016991Y-142124047D01*
X253016987Y-142124044D01*
X252801934Y-142007663D01*
X252801929Y-142007661D01*
X252570658Y-141928266D01*
X252342221Y-141890147D01*
X252329463Y-141888018D01*
X252084937Y-141888018D01*
X252072179Y-141890147D01*
X251843741Y-141928266D01*
X251612470Y-142007661D01*
X251612465Y-142007663D01*
X251397412Y-142124044D01*
X251397408Y-142124047D01*
X251204452Y-142274231D01*
X251204442Y-142274240D01*
X251038832Y-142454139D01*
X250905088Y-142658851D01*
X250806863Y-142882783D01*
X250746836Y-143119822D01*
X250746834Y-143119834D01*
X250726643Y-143363512D01*
X250726643Y-143363523D01*
X250746834Y-143607201D01*
X250746836Y-143607213D01*
X250806863Y-143844252D01*
X250905088Y-144068184D01*
X251038832Y-144272896D01*
X251204442Y-144452795D01*
X251204452Y-144452804D01*
X251397408Y-144602988D01*
X251397412Y-144602991D01*
X251611524Y-144718863D01*
X251612467Y-144719373D01*
X251612470Y-144719374D01*
X251843741Y-144798769D01*
X251843743Y-144798769D01*
X251843745Y-144798770D01*
X252084937Y-144839018D01*
X252084938Y-144839018D01*
X252329462Y-144839018D01*
X252329463Y-144839018D01*
X252570655Y-144798770D01*
X252801933Y-144719373D01*
X253016988Y-144602991D01*
X253209954Y-144452799D01*
X253375568Y-144272895D01*
X253509311Y-144068185D01*
X253509312Y-144068183D01*
X253513944Y-144057624D01*
X253558899Y-144004138D01*
X253625635Y-143983447D01*
X253692963Y-144002121D01*
X253739507Y-144054231D01*
X253751500Y-144107433D01*
X253751500Y-145975164D01*
X253751500Y-145975165D01*
X253751500Y-152652635D01*
X253777090Y-152748138D01*
X253814013Y-152812090D01*
X253826526Y-152833763D01*
X253826528Y-152833765D01*
X254273981Y-153281218D01*
X254307466Y-153342541D01*
X254310300Y-153368899D01*
X254310300Y-156407301D01*
X254290615Y-156474340D01*
X254273981Y-156494982D01*
X252792264Y-157976699D01*
X252730941Y-158010184D01*
X252704583Y-158013018D01*
X250990873Y-158013018D01*
X250923834Y-157993333D01*
X250878491Y-157941423D01*
X250869271Y-157921650D01*
X250794302Y-157760880D01*
X250794300Y-157760877D01*
X250794299Y-157760875D01*
X250668799Y-157581642D01*
X250600525Y-157513368D01*
X250514077Y-157426920D01*
X250334839Y-157301416D01*
X250334840Y-157301416D01*
X250334838Y-157301415D01*
X250205967Y-157241322D01*
X250136530Y-157208943D01*
X250136526Y-157208942D01*
X250136522Y-157208940D01*
X249925177Y-157152311D01*
X249707202Y-157133241D01*
X249707198Y-157133241D01*
X249561882Y-157145954D01*
X249489223Y-157152311D01*
X249489220Y-157152311D01*
X249277877Y-157208940D01*
X249277870Y-157208942D01*
X249277870Y-157208943D01*
X249262367Y-157216172D01*
X249079561Y-157301416D01*
X249079557Y-157301418D01*
X248900321Y-157426920D01*
X248745602Y-157581639D01*
X248620100Y-157760875D01*
X248620098Y-157760880D01*
X248569582Y-157869211D01*
X248523409Y-157921650D01*
X248456216Y-157940802D01*
X248389335Y-157920586D01*
X248344818Y-157869211D01*
X248329190Y-157835698D01*
X248294302Y-157760880D01*
X248294299Y-157760876D01*
X248294299Y-157760875D01*
X248168799Y-157581642D01*
X248100525Y-157513368D01*
X248014077Y-157426920D01*
X247834839Y-157301416D01*
X247834840Y-157301416D01*
X247834838Y-157301415D01*
X247705967Y-157241322D01*
X247636530Y-157208943D01*
X247636526Y-157208942D01*
X247636522Y-157208940D01*
X247425177Y-157152311D01*
X247207202Y-157133241D01*
X247207198Y-157133241D01*
X247061882Y-157145954D01*
X246989223Y-157152311D01*
X246989220Y-157152311D01*
X246777877Y-157208940D01*
X246777870Y-157208942D01*
X246777870Y-157208943D01*
X246762367Y-157216172D01*
X246579561Y-157301416D01*
X246579557Y-157301418D01*
X246400321Y-157426920D01*
X246245603Y-157581638D01*
X246209090Y-157633784D01*
X246154513Y-157677408D01*
X246085014Y-157684600D01*
X246022660Y-157653077D01*
X246003708Y-157630481D01*
X245930634Y-157518634D01*
X245190162Y-158259107D01*
X245173125Y-158195525D01*
X245107299Y-158081511D01*
X245014207Y-157988419D01*
X244900193Y-157922593D01*
X244836610Y-157905555D01*
X245577257Y-157164908D01*
X245577256Y-157164907D01*
X245530429Y-157128461D01*
X245311814Y-157010153D01*
X245311803Y-157010148D01*
X245076693Y-156929434D01*
X244831493Y-156888518D01*
X244582907Y-156888518D01*
X244337706Y-156929434D01*
X244102596Y-157010148D01*
X244102590Y-157010150D01*
X243883961Y-157128467D01*
X243837142Y-157164906D01*
X243837142Y-157164908D01*
X244577790Y-157905555D01*
X244514207Y-157922593D01*
X244400193Y-157988419D01*
X244307101Y-158081511D01*
X244241275Y-158195525D01*
X244224237Y-158259107D01*
X243483764Y-157518634D01*
X243383467Y-157672150D01*
X243283612Y-157899800D01*
X243222587Y-158140779D01*
X243222585Y-158140788D01*
X243202059Y-158388512D01*
X243202059Y-158388523D01*
X243222585Y-158636247D01*
X243222587Y-158636256D01*
X243283612Y-158877235D01*
X243383466Y-159104882D01*
X243483764Y-159258400D01*
X244224237Y-158517927D01*
X244241275Y-158581511D01*
X244307101Y-158695525D01*
X244400193Y-158788617D01*
X244514207Y-158854443D01*
X244577790Y-158871480D01*
X243837142Y-159612127D01*
X243883968Y-159648573D01*
X243883970Y-159648574D01*
X244102585Y-159766882D01*
X244102596Y-159766887D01*
X244337706Y-159847601D01*
X244582907Y-159888518D01*
X244831493Y-159888518D01*
X245076693Y-159847601D01*
X245311803Y-159766887D01*
X245311814Y-159766882D01*
X245530428Y-159648575D01*
X245530431Y-159648573D01*
X245577256Y-159612127D01*
X244836609Y-158871480D01*
X244900193Y-158854443D01*
X245014207Y-158788617D01*
X245107299Y-158695525D01*
X245173125Y-158581511D01*
X245190162Y-158517928D01*
X245930634Y-159258400D01*
X246003709Y-159146553D01*
X246056855Y-159101196D01*
X246126087Y-159091773D01*
X246189422Y-159121275D01*
X246209087Y-159143246D01*
X246245602Y-159195395D01*
X246400323Y-159350116D01*
X246579561Y-159475620D01*
X246777870Y-159568093D01*
X246989223Y-159624725D01*
X247172126Y-159640726D01*
X247207198Y-159643795D01*
X247207200Y-159643795D01*
X247207202Y-159643795D01*
X247235454Y-159641323D01*
X247425177Y-159624725D01*
X247636530Y-159568093D01*
X247834839Y-159475620D01*
X248014077Y-159350116D01*
X248168798Y-159195395D01*
X248294302Y-159016157D01*
X248344818Y-158907824D01*
X248390990Y-158855385D01*
X248458184Y-158836233D01*
X248525065Y-158856449D01*
X248569581Y-158907824D01*
X248620098Y-159016157D01*
X248745602Y-159195395D01*
X248900323Y-159350116D01*
X249079561Y-159475620D01*
X249277870Y-159568093D01*
X249489223Y-159624725D01*
X249672126Y-159640726D01*
X249707198Y-159643795D01*
X249707200Y-159643795D01*
X249707202Y-159643795D01*
X249735454Y-159641323D01*
X249925177Y-159624725D01*
X250136530Y-159568093D01*
X250334839Y-159475620D01*
X250514077Y-159350116D01*
X250668798Y-159195395D01*
X250794302Y-159016157D01*
X250878491Y-158835612D01*
X250924663Y-158783174D01*
X250990873Y-158764018D01*
X252960917Y-158764018D01*
X252960918Y-158764018D01*
X253008668Y-158751223D01*
X253056420Y-158738428D01*
X253142044Y-158688993D01*
X253211957Y-158619080D01*
X254986275Y-156844762D01*
X255035711Y-156759137D01*
X255061300Y-156663636D01*
X255061300Y-156564764D01*
X255061300Y-153644404D01*
X255080985Y-153577365D01*
X255133789Y-153531610D01*
X255202947Y-153521666D01*
X255244318Y-153535350D01*
X255302581Y-153566880D01*
X255302596Y-153566887D01*
X255537706Y-153647601D01*
X255782907Y-153688518D01*
X256031493Y-153688518D01*
X256276693Y-153647601D01*
X256511803Y-153566887D01*
X256511814Y-153566882D01*
X256730428Y-153448575D01*
X256730431Y-153448573D01*
X256777256Y-153412127D01*
X256036609Y-152671480D01*
X256100193Y-152654443D01*
X256214207Y-152588617D01*
X256307299Y-152495525D01*
X256373125Y-152381511D01*
X256390162Y-152317928D01*
X257130634Y-153058400D01*
X257230931Y-152904887D01*
X257330787Y-152677235D01*
X257391812Y-152436256D01*
X257391814Y-152436247D01*
X257412341Y-152188523D01*
X257412341Y-152188512D01*
X257391814Y-151940788D01*
X257391812Y-151940779D01*
X257330787Y-151699800D01*
X257230931Y-151472148D01*
X257130634Y-151318634D01*
X256390162Y-152059107D01*
X256373125Y-151995525D01*
X256307299Y-151881511D01*
X256214207Y-151788419D01*
X256100193Y-151722593D01*
X256036610Y-151705555D01*
X256777257Y-150964908D01*
X256777256Y-150964907D01*
X256730429Y-150928461D01*
X256730425Y-150928458D01*
X256673484Y-150897643D01*
X256623894Y-150848424D01*
X256608786Y-150780207D01*
X256632957Y-150714651D01*
X256661373Y-150687019D01*
X256714077Y-150650116D01*
X256868798Y-150495395D01*
X256994302Y-150316157D01*
X257086775Y-150117848D01*
X257143407Y-149906495D01*
X257162477Y-149688518D01*
X257143407Y-149470541D01*
X257099034Y-149304939D01*
X257086777Y-149259195D01*
X257086776Y-149259194D01*
X257086775Y-149259188D01*
X256994302Y-149060880D01*
X256994300Y-149060877D01*
X256994299Y-149060875D01*
X256868799Y-148881642D01*
X256808874Y-148821717D01*
X256714077Y-148726920D01*
X256534839Y-148601416D01*
X256426506Y-148550899D01*
X256374067Y-148504728D01*
X256354915Y-148437534D01*
X256375131Y-148370653D01*
X256426507Y-148326136D01*
X256534839Y-148275620D01*
X256714077Y-148150116D01*
X256868798Y-147995395D01*
X256994302Y-147816157D01*
X257086775Y-147617848D01*
X257143407Y-147406495D01*
X257162477Y-147188518D01*
X257143407Y-146970541D01*
X257086775Y-146759188D01*
X256994302Y-146560880D01*
X256994300Y-146560877D01*
X256994299Y-146560875D01*
X256868799Y-146381642D01*
X256806616Y-146319459D01*
X256714077Y-146226920D01*
X256534839Y-146101416D01*
X256534840Y-146101416D01*
X256534838Y-146101415D01*
X256435518Y-146055102D01*
X256336530Y-146008943D01*
X256336526Y-146008942D01*
X256336522Y-146008940D01*
X256125177Y-145952311D01*
X255907202Y-145933241D01*
X255907198Y-145933241D01*
X255761882Y-145945954D01*
X255689223Y-145952311D01*
X255689220Y-145952311D01*
X255477877Y-146008940D01*
X255477868Y-146008944D01*
X255279561Y-146101416D01*
X255279557Y-146101418D01*
X255100323Y-146226919D01*
X255068018Y-146259223D01*
X255006694Y-146292706D01*
X254937002Y-146287720D01*
X254892658Y-146259220D01*
X254538819Y-145905381D01*
X254505334Y-145844058D01*
X254502500Y-145817700D01*
X254502500Y-140879899D01*
X254522185Y-140812860D01*
X254538819Y-140792218D01*
X255711304Y-139619733D01*
X259505225Y-139619733D01*
X259513527Y-139749056D01*
X259525195Y-139930792D01*
X259525195Y-139930797D01*
X259584779Y-140236745D01*
X259584781Y-140236752D01*
X259682999Y-140532570D01*
X259818238Y-140813397D01*
X259818243Y-140813406D01*
X259988281Y-141074631D01*
X259988288Y-141074641D01*
X260190334Y-141311976D01*
X260190344Y-141311986D01*
X260421078Y-141521533D01*
X260421084Y-141521537D01*
X260421086Y-141521539D01*
X260676735Y-141699869D01*
X260953090Y-141844043D01*
X261245612Y-141951694D01*
X261549499Y-142021054D01*
X261859760Y-142050985D01*
X262171302Y-142040994D01*
X262479009Y-141991247D01*
X262777827Y-141902559D01*
X263062851Y-141776387D01*
X263329401Y-141614803D01*
X263573099Y-141420460D01*
X263789944Y-141196550D01*
X263976377Y-140946747D01*
X264129334Y-140675156D01*
X264246306Y-140386234D01*
X264325370Y-140084727D01*
X264365230Y-139775584D01*
X264367726Y-139619733D01*
X264365230Y-139463882D01*
X264325370Y-139154739D01*
X264246306Y-138853232D01*
X264129334Y-138564310D01*
X263976377Y-138292719D01*
X263930304Y-138230986D01*
X263789945Y-138042917D01*
X263789946Y-138042917D01*
X263573097Y-137819004D01*
X263353034Y-137643510D01*
X263329401Y-137624663D01*
X263323982Y-137621378D01*
X268211711Y-137621378D01*
X268232087Y-137834769D01*
X268232088Y-137834773D01*
X268290417Y-138033425D01*
X268292480Y-138040449D01*
X268356605Y-138164834D01*
X268390708Y-138230986D01*
X268523214Y-138399479D01*
X268523215Y-138399480D01*
X268523217Y-138399482D01*
X268647064Y-138506797D01*
X268685223Y-138539862D01*
X268785709Y-138597877D01*
X268870864Y-138647041D01*
X269073437Y-138717152D01*
X269285618Y-138747659D01*
X269499737Y-138737460D01*
X269708057Y-138686922D01*
X269795386Y-138647040D01*
X269903038Y-138597877D01*
X269903041Y-138597875D01*
X269903048Y-138597872D01*
X270077663Y-138473530D01*
X270225590Y-138318388D01*
X270341483Y-138138055D01*
X270421153Y-137939048D01*
X270461722Y-137728559D01*
X270464269Y-137621378D01*
X270461722Y-137514197D01*
X270421153Y-137303708D01*
X270341483Y-137104701D01*
X270225590Y-136924368D01*
X270077663Y-136769226D01*
X270077662Y-136769225D01*
X269903050Y-136644885D01*
X269903038Y-136644878D01*
X269708063Y-136555836D01*
X269708059Y-136555834D01*
X269600616Y-136529769D01*
X269499737Y-136505296D01*
X269499734Y-136505295D01*
X269499736Y-136505295D01*
X269285621Y-136495097D01*
X269285620Y-136495097D01*
X269285618Y-136495097D01*
X269073437Y-136525604D01*
X269073436Y-136525604D01*
X269073431Y-136525605D01*
X268870862Y-136595715D01*
X268685223Y-136702893D01*
X268523218Y-136843273D01*
X268523214Y-136843276D01*
X268390708Y-137011769D01*
X268292479Y-137202309D01*
X268232088Y-137407982D01*
X268232087Y-137407986D01*
X268211711Y-137621378D01*
X263323982Y-137621378D01*
X263062851Y-137463079D01*
X263062845Y-137463076D01*
X263062843Y-137463075D01*
X262777834Y-137336909D01*
X262479006Y-137248218D01*
X262282966Y-137216524D01*
X262171302Y-137198472D01*
X262171299Y-137198471D01*
X262171294Y-137198471D01*
X261859762Y-137188480D01*
X261549497Y-137218412D01*
X261245612Y-137287772D01*
X261245607Y-137287773D01*
X260953096Y-137395420D01*
X260953083Y-137395426D01*
X260676737Y-137539595D01*
X260421078Y-137717932D01*
X260190344Y-137927479D01*
X260190334Y-137927489D01*
X259988288Y-138164824D01*
X259988281Y-138164834D01*
X259818243Y-138426059D01*
X259818238Y-138426068D01*
X259682999Y-138706895D01*
X259584781Y-139002713D01*
X259584779Y-139002720D01*
X259525195Y-139308668D01*
X259525195Y-139308673D01*
X259512148Y-139511904D01*
X259505225Y-139619733D01*
X255711304Y-139619733D01*
X259444218Y-135886819D01*
X259505541Y-135853334D01*
X259531899Y-135850500D01*
X270797900Y-135850500D01*
X270864939Y-135870185D01*
X270910694Y-135922989D01*
X270921900Y-135974500D01*
X270921900Y-138845700D01*
X270902215Y-138912739D01*
X270885581Y-138933381D01*
X270530439Y-139288524D01*
X270460527Y-139358435D01*
X270411092Y-139444058D01*
X270411092Y-139444059D01*
X270411091Y-139444061D01*
X270385501Y-139539564D01*
X270385501Y-139539566D01*
X270385501Y-139940977D01*
X270365816Y-140008016D01*
X270313012Y-140053771D01*
X270311940Y-140054255D01*
X270295701Y-140061485D01*
X270138306Y-140175840D01*
X270138303Y-140175842D01*
X270008130Y-140320416D01*
X269910858Y-140488895D01*
X269910857Y-140488896D01*
X269850739Y-140673923D01*
X269830403Y-140867407D01*
X269850739Y-141060890D01*
X269910857Y-141245917D01*
X269910858Y-141245918D01*
X269948997Y-141311976D01*
X270008131Y-141414399D01*
X270047752Y-141458402D01*
X270138303Y-141558971D01*
X270138306Y-141558973D01*
X270138309Y-141558976D01*
X270158863Y-141573909D01*
X270201528Y-141629239D01*
X270207507Y-141698853D01*
X270174901Y-141760648D01*
X270114062Y-141795005D01*
X270085977Y-141798227D01*
X269339269Y-141798227D01*
X269327122Y-141798312D01*
X269189641Y-141799285D01*
X269062825Y-141801723D01*
X268916356Y-141806163D01*
X268751825Y-141813143D01*
X268571128Y-141823186D01*
X268375955Y-141836825D01*
X268273423Y-141845161D01*
X268167947Y-141854592D01*
X268059632Y-141865195D01*
X267948884Y-141877017D01*
X267835688Y-141890147D01*
X267720346Y-141904644D01*
X267603184Y-141920561D01*
X267484344Y-141937970D01*
X267363849Y-141956969D01*
X267242271Y-141977569D01*
X267119570Y-141999875D01*
X266996083Y-142023935D01*
X266871822Y-142049853D01*
X266747331Y-142077629D01*
X266622552Y-142107388D01*
X266497818Y-142139169D01*
X266373299Y-142173050D01*
X266249305Y-142209070D01*
X266125862Y-142247352D01*
X265870583Y-142334946D01*
X265746398Y-142382050D01*
X265624634Y-142431357D01*
X265505051Y-142482995D01*
X265387831Y-142536917D01*
X265272781Y-142593242D01*
X265159945Y-142651979D01*
X265049321Y-142713159D01*
X264940837Y-142776847D01*
X264834508Y-142843063D01*
X264730234Y-142911895D01*
X264628102Y-142983311D01*
X264527994Y-143057417D01*
X264429885Y-143134257D01*
X264333810Y-143213823D01*
X264140717Y-143387680D01*
X264050326Y-143476075D01*
X263963771Y-143565358D01*
X263881045Y-143655258D01*
X263801909Y-143745750D01*
X263726298Y-143836622D01*
X263654026Y-143927799D01*
X263585004Y-144019085D01*
X263519032Y-144110432D01*
X263456070Y-144201572D01*
X263395873Y-144292528D01*
X263338372Y-144383068D01*
X263283451Y-144473023D01*
X263230922Y-144562343D01*
X263186417Y-144640736D01*
X263173118Y-144659760D01*
X263071279Y-144779736D01*
X263033737Y-144809618D01*
X262905444Y-144876012D01*
X262859134Y-144889424D01*
X262699578Y-144903219D01*
X262678418Y-144903236D01*
X262594776Y-144896141D01*
X262594768Y-144896142D01*
X262406562Y-144914195D01*
X262226026Y-144970364D01*
X262226021Y-144970366D01*
X262060789Y-145062275D01*
X261917851Y-145186037D01*
X261803249Y-145336418D01*
X261803248Y-145336419D01*
X261721831Y-145507054D01*
X261721828Y-145507064D01*
X261677034Y-145690745D01*
X261677033Y-145690748D01*
X261677033Y-145690752D01*
X261670756Y-145879721D01*
X261677974Y-145921079D01*
X261703263Y-146065981D01*
X261703263Y-146065982D01*
X261773178Y-146241645D01*
X261773181Y-146241651D01*
X261874885Y-146395278D01*
X261877552Y-146399306D01*
X261877557Y-146399311D01*
X261877558Y-146399312D01*
X262011958Y-146532275D01*
X262011964Y-146532280D01*
X262170732Y-146634951D01*
X262248343Y-146667113D01*
X262267018Y-146676783D01*
X262319235Y-146709719D01*
X262354099Y-146742686D01*
X262383328Y-146783745D01*
X262401842Y-146822671D01*
X262411368Y-146857191D01*
X262415737Y-146895143D01*
X262413811Y-146943194D01*
X262411566Y-146962223D01*
X262385827Y-147092724D01*
X262368074Y-147182735D01*
X262345397Y-147297707D01*
X262322721Y-147412680D01*
X262300044Y-147527652D01*
X262277368Y-147642624D01*
X262254691Y-147757596D01*
X262232015Y-147872569D01*
X262217013Y-147948633D01*
X262209339Y-147987541D01*
X262186662Y-148102513D01*
X262163986Y-148217485D01*
X262163986Y-148217486D01*
X262141309Y-148332458D01*
X262118633Y-148447429D01*
X262118633Y-148447430D01*
X262095956Y-148562402D01*
X262073280Y-148677375D01*
X262073280Y-148677376D01*
X262050604Y-148792347D01*
X262027927Y-148907319D01*
X262005251Y-149022291D01*
X262005251Y-149022292D01*
X261982574Y-149137264D01*
X261959898Y-149252235D01*
X261959898Y-149252236D01*
X261937221Y-149367208D01*
X261914545Y-149482180D01*
X261914545Y-149482181D01*
X261891868Y-149597153D01*
X261846516Y-149827097D01*
X261846516Y-149827098D01*
X261823839Y-149942070D01*
X261801163Y-150057041D01*
X261801163Y-150057042D01*
X261778486Y-150172014D01*
X261755810Y-150286986D01*
X261755810Y-150286987D01*
X261733133Y-150401959D01*
X261710457Y-150516931D01*
X261710457Y-150516932D01*
X261687768Y-150631968D01*
X261592756Y-151116335D01*
X261592750Y-151116371D01*
X261564118Y-151262779D01*
X261547330Y-151348626D01*
X261547316Y-151348698D01*
X261502938Y-151574916D01*
X261502904Y-151575086D01*
X261459418Y-151795124D01*
X261459364Y-151795398D01*
X261416375Y-152010373D01*
X261416297Y-152010759D01*
X261373672Y-152220454D01*
X261373569Y-152220954D01*
X261331066Y-152425724D01*
X261330936Y-152426345D01*
X261288197Y-152627086D01*
X261288036Y-152627829D01*
X261244940Y-152824318D01*
X261244746Y-152825188D01*
X261200959Y-153018187D01*
X261200729Y-153019180D01*
X261156078Y-153208755D01*
X261155810Y-153209872D01*
X261109974Y-153396704D01*
X261109664Y-153397941D01*
X261062433Y-153582247D01*
X261062079Y-153583597D01*
X261013202Y-153765776D01*
X261012802Y-153767231D01*
X260962038Y-153947641D01*
X260961590Y-153949194D01*
X260908677Y-154128257D01*
X260908181Y-154129892D01*
X260852887Y-154307945D01*
X260852343Y-154309654D01*
X260794408Y-154487112D01*
X260793817Y-154488878D01*
X260732960Y-154666210D01*
X260732333Y-154667989D01*
X260725715Y-154686345D01*
X260668386Y-154845348D01*
X260667707Y-154847185D01*
X260600285Y-155025310D01*
X260599569Y-155027157D01*
X260528569Y-155206049D01*
X260527819Y-155207896D01*
X260452873Y-155388219D01*
X260452095Y-155390049D01*
X260373007Y-155572049D01*
X260372208Y-155573849D01*
X260288685Y-155757996D01*
X260287870Y-155759756D01*
X260199673Y-155946390D01*
X260198849Y-155948099D01*
X260105756Y-156137537D01*
X260104930Y-156139188D01*
X260006602Y-156331971D01*
X260005779Y-156333556D01*
X259902033Y-156529922D01*
X259901219Y-156531437D01*
X259791796Y-156731773D01*
X259790997Y-156733214D01*
X259675766Y-156937677D01*
X259674613Y-156939679D01*
X259497129Y-157241322D01*
X259495959Y-157243268D01*
X259404998Y-157391580D01*
X259404200Y-157392865D01*
X259311180Y-157540463D01*
X259310366Y-157541737D01*
X259215631Y-157688070D01*
X259214802Y-157689333D01*
X259118328Y-157834446D01*
X259117484Y-157835698D01*
X259019349Y-157979480D01*
X259018490Y-157980722D01*
X258918539Y-158123401D01*
X258917666Y-158124632D01*
X258816103Y-158265922D01*
X258815216Y-158267141D01*
X258711908Y-158407233D01*
X258711005Y-158408442D01*
X258606051Y-158547199D01*
X258605134Y-158548395D01*
X258498461Y-158685918D01*
X258497531Y-158687103D01*
X258389371Y-158823098D01*
X258388425Y-158824272D01*
X258278437Y-158959167D01*
X258277478Y-158960329D01*
X258165990Y-159093721D01*
X258165017Y-159094871D01*
X258051879Y-159226943D01*
X258050892Y-159228081D01*
X257936198Y-159358722D01*
X257935198Y-159359848D01*
X257818843Y-159489179D01*
X257817829Y-159490292D01*
X257699940Y-159618170D01*
X257698911Y-159619272D01*
X257579513Y-159745669D01*
X257578476Y-159746754D01*
X257457437Y-159871809D01*
X257456432Y-159872835D01*
X257333914Y-159996378D01*
X257332847Y-159997441D01*
X257208773Y-160119550D01*
X257207691Y-160120601D01*
X257082231Y-160241106D01*
X257081139Y-160242143D01*
X256954114Y-160361219D01*
X256953007Y-160362245D01*
X256824410Y-160479887D01*
X256823291Y-160480898D01*
X256693296Y-160596945D01*
X256692297Y-160597826D01*
X256602192Y-160676314D01*
X256560836Y-160712338D01*
X256559693Y-160713321D01*
X256426819Y-160826250D01*
X256425661Y-160827222D01*
X256291280Y-160938640D01*
X256290111Y-160939597D01*
X256154475Y-161049294D01*
X256153295Y-161050237D01*
X256016445Y-161158185D01*
X256014649Y-161159575D01*
X255735694Y-161371446D01*
X255733875Y-161372802D01*
X255593144Y-161475684D01*
X255591918Y-161476569D01*
X255449752Y-161577862D01*
X255448563Y-161578699D01*
X255305221Y-161678219D01*
X255303976Y-161679072D01*
X255159494Y-161776798D01*
X255158238Y-161777636D01*
X255012627Y-161873562D01*
X255011361Y-161874385D01*
X254864679Y-161968477D01*
X254863404Y-161969284D01*
X254715573Y-162061593D01*
X254714335Y-162062355D01*
X254638643Y-162108348D01*
X254565515Y-162152784D01*
X254564223Y-162153558D01*
X254414234Y-162242219D01*
X254412931Y-162242979D01*
X254261930Y-162329778D01*
X254260618Y-162330521D01*
X254108664Y-162415425D01*
X254107344Y-162416152D01*
X253954352Y-162499214D01*
X253953023Y-162499925D01*
X253799044Y-162581115D01*
X253797706Y-162581810D01*
X253642792Y-162661101D01*
X253641448Y-162661779D01*
X253485549Y-162739199D01*
X253484194Y-162739862D01*
X253327324Y-162815401D01*
X253325963Y-162816046D01*
X253168215Y-162889660D01*
X253166845Y-162890289D01*
X253008260Y-162961959D01*
X253006883Y-162962571D01*
X252847247Y-163032393D01*
X252845861Y-163032990D01*
X252685529Y-163100804D01*
X252684138Y-163101382D01*
X252522905Y-163167279D01*
X252521504Y-163167842D01*
X252359413Y-163231799D01*
X252358007Y-163232344D01*
X252195089Y-163294348D01*
X252193675Y-163294876D01*
X252029994Y-163354900D01*
X252028573Y-163355411D01*
X251864140Y-163413448D01*
X251862713Y-163413942D01*
X251697495Y-163470003D01*
X251696061Y-163470480D01*
X251530103Y-163524546D01*
X251528662Y-163525006D01*
X251361975Y-163577070D01*
X251360529Y-163577512D01*
X251193043Y-163627592D01*
X251191592Y-163628016D01*
X251023957Y-163675921D01*
X251021769Y-163676525D01*
X250683752Y-163766463D01*
X250681558Y-163767025D01*
X250512683Y-163808671D01*
X250511214Y-163809024D01*
X250341476Y-163848696D01*
X250340005Y-163849030D01*
X250169991Y-163886591D01*
X250168516Y-163886908D01*
X249997999Y-163922410D01*
X249996521Y-163922708D01*
X249825694Y-163956113D01*
X249824214Y-163956393D01*
X249653064Y-163987707D01*
X249651580Y-163987969D01*
X249480114Y-164017192D01*
X249478713Y-164017422D01*
X249306884Y-164044564D01*
X249305396Y-164044789D01*
X249133348Y-164069828D01*
X249131857Y-164070036D01*
X248959550Y-164092980D01*
X248958056Y-164093170D01*
X248785448Y-164114024D01*
X248783954Y-164114195D01*
X248611193Y-164132944D01*
X248609695Y-164133097D01*
X248436821Y-164149738D01*
X248435323Y-164149874D01*
X248262008Y-164164437D01*
X248260508Y-164164553D01*
X248087294Y-164176993D01*
X248085792Y-164177092D01*
X247912341Y-164187435D01*
X247910839Y-164187516D01*
X247737189Y-164195758D01*
X247735685Y-164195820D01*
X247562005Y-164201951D01*
X247560499Y-164201995D01*
X247386656Y-164206019D01*
X247385153Y-164206044D01*
X247211407Y-164207958D01*
X247209900Y-164207966D01*
X247035943Y-164207768D01*
X247034438Y-164207757D01*
X246860533Y-164205448D01*
X246859026Y-164205419D01*
X246685035Y-164200994D01*
X246683528Y-164200946D01*
X246509703Y-164194409D01*
X246508199Y-164194344D01*
X246334168Y-164185682D01*
X246332661Y-164185597D01*
X246158918Y-164174828D01*
X246157413Y-164174726D01*
X245983581Y-164161827D01*
X245982076Y-164161706D01*
X245808402Y-164146691D01*
X245806899Y-164146552D01*
X245633265Y-164129408D01*
X245631763Y-164129250D01*
X245458693Y-164110030D01*
X245456441Y-164109759D01*
X245109392Y-164064778D01*
X245107180Y-164064471D01*
X244934860Y-164038925D01*
X244933486Y-164038713D01*
X244761259Y-164011034D01*
X244759769Y-164010785D01*
X244588084Y-163981043D01*
X244586599Y-163980777D01*
X244415211Y-163948934D01*
X244413730Y-163948649D01*
X244242976Y-163914770D01*
X244241498Y-163914468D01*
X244071035Y-163878486D01*
X244069563Y-163878165D01*
X243899752Y-163840160D01*
X243898283Y-163839822D01*
X243728950Y-163799756D01*
X243727485Y-163799400D01*
X243558707Y-163757293D01*
X243557248Y-163756920D01*
X243388963Y-163712758D01*
X243387509Y-163712367D01*
X243219819Y-163666177D01*
X243218369Y-163665768D01*
X243051305Y-163617560D01*
X243049861Y-163617134D01*
X242883351Y-163566887D01*
X242881912Y-163566443D01*
X242716082Y-163514196D01*
X242714648Y-163513735D01*
X242549416Y-163459462D01*
X242547989Y-163458983D01*
X242383470Y-163402723D01*
X242382048Y-163402227D01*
X242218214Y-163343969D01*
X242216826Y-163343466D01*
X242161853Y-163323163D01*
X242053666Y-163283205D01*
X242052257Y-163282675D01*
X241889745Y-163220400D01*
X241888342Y-163219852D01*
X241726670Y-163155636D01*
X241725273Y-163155071D01*
X241564362Y-163088882D01*
X241562971Y-163088300D01*
X241402846Y-163020146D01*
X241401463Y-163019548D01*
X241242017Y-162949383D01*
X241240639Y-162948766D01*
X241082158Y-162876710D01*
X241080789Y-162876078D01*
X240923031Y-162802023D01*
X240921668Y-162801373D01*
X240764798Y-162725390D01*
X240763443Y-162724723D01*
X240607376Y-162646768D01*
X240606069Y-162646106D01*
X240450909Y-162566228D01*
X240449676Y-162565584D01*
X240325199Y-162499570D01*
X240295410Y-162483772D01*
X240294103Y-162483068D01*
X240141099Y-162399519D01*
X240139118Y-162398414D01*
X239835249Y-162225195D01*
X239833290Y-162224055D01*
X239683647Y-162135088D01*
X239682354Y-162134308D01*
X239533639Y-162043425D01*
X239532356Y-162042630D01*
X239384822Y-161949983D01*
X239383549Y-161949173D01*
X239237154Y-161854738D01*
X239235954Y-161853954D01*
X239090676Y-161757716D01*
X239089553Y-161756962D01*
X238945595Y-161659061D01*
X238944354Y-161658206D01*
X238801656Y-161558605D01*
X238800523Y-161557804D01*
X238658998Y-161456441D01*
X238657804Y-161455575D01*
X238517649Y-161352595D01*
X238516441Y-161351696D01*
X238377609Y-161247068D01*
X238376412Y-161246155D01*
X238238788Y-161139793D01*
X238237603Y-161138865D01*
X238101387Y-161030925D01*
X238100275Y-161030033D01*
X237965236Y-160920330D01*
X237964180Y-160919462D01*
X237830423Y-160808078D01*
X237829587Y-160807373D01*
X237697136Y-160694328D01*
X237696069Y-160693405D01*
X237565233Y-160578962D01*
X237564106Y-160577964D01*
X237434656Y-160461930D01*
X237433542Y-160460920D01*
X237305445Y-160343264D01*
X237304431Y-160342321D01*
X237196885Y-160241106D01*
X237177702Y-160223052D01*
X237176808Y-160222201D01*
X237051471Y-160101338D01*
X237050445Y-160100336D01*
X236926746Y-159978119D01*
X236925680Y-159977054D01*
X236803323Y-159853189D01*
X236802271Y-159852110D01*
X236797924Y-159847601D01*
X236681466Y-159726806D01*
X236680527Y-159725820D01*
X236561179Y-159598977D01*
X236560188Y-159597911D01*
X236442317Y-159469545D01*
X236441362Y-159468492D01*
X236325041Y-159338677D01*
X236324178Y-159337703D01*
X236209346Y-159206369D01*
X236208359Y-159205226D01*
X236095181Y-159072557D01*
X236094208Y-159071402D01*
X235982638Y-158937344D01*
X235981678Y-158936177D01*
X235871827Y-158800864D01*
X235870414Y-158799089D01*
X235654953Y-158523535D01*
X235653573Y-158521737D01*
X235548896Y-158382700D01*
X235547994Y-158381487D01*
X235464070Y-158267141D01*
X235444812Y-158240902D01*
X235443939Y-158239697D01*
X235373182Y-158140788D01*
X235342528Y-158097937D01*
X235341741Y-158096823D01*
X235283318Y-158013018D01*
X235242066Y-157953843D01*
X235241211Y-157952601D01*
X235220189Y-157921650D01*
X235143284Y-157808421D01*
X235142624Y-157807435D01*
X235046518Y-157662165D01*
X235045694Y-157660903D01*
X234994630Y-157581639D01*
X234951428Y-157514578D01*
X234950659Y-157513368D01*
X234858206Y-157365950D01*
X234857413Y-157364669D01*
X234766778Y-157216172D01*
X234766041Y-157214947D01*
X234677181Y-157065297D01*
X234676558Y-157064234D01*
X234589557Y-156913576D01*
X234588816Y-156912272D01*
X234503655Y-156760576D01*
X234503025Y-156759440D01*
X234419634Y-156606572D01*
X234418999Y-156605389D01*
X234337644Y-156451848D01*
X234336946Y-156450513D01*
X234276374Y-156332759D01*
X234257358Y-156295791D01*
X234256755Y-156294602D01*
X234179038Y-156138895D01*
X234178402Y-156137599D01*
X234178372Y-156137537D01*
X234118339Y-156013512D01*
X240726643Y-156013512D01*
X240726643Y-156013523D01*
X240746834Y-156257201D01*
X240746836Y-156257213D01*
X240806863Y-156494252D01*
X240905088Y-156718184D01*
X241038832Y-156922896D01*
X241204442Y-157102795D01*
X241204452Y-157102804D01*
X241397408Y-157252988D01*
X241397412Y-157252991D01*
X241486893Y-157301416D01*
X241612467Y-157369373D01*
X241612470Y-157369374D01*
X241843741Y-157448769D01*
X241843743Y-157448769D01*
X241843745Y-157448770D01*
X242084937Y-157489018D01*
X242084938Y-157489018D01*
X242329462Y-157489018D01*
X242329463Y-157489018D01*
X242570655Y-157448770D01*
X242801933Y-157369373D01*
X243016988Y-157252991D01*
X243209954Y-157102799D01*
X243375568Y-156922895D01*
X243509311Y-156718185D01*
X243607536Y-156494254D01*
X243667564Y-156257210D01*
X243677368Y-156138895D01*
X243687757Y-156013523D01*
X243687757Y-156013512D01*
X250726643Y-156013512D01*
X250726643Y-156013523D01*
X250746834Y-156257201D01*
X250746836Y-156257213D01*
X250806863Y-156494252D01*
X250905088Y-156718184D01*
X251038832Y-156922896D01*
X251204442Y-157102795D01*
X251204452Y-157102804D01*
X251397408Y-157252988D01*
X251397412Y-157252991D01*
X251486893Y-157301416D01*
X251612467Y-157369373D01*
X251612470Y-157369374D01*
X251843741Y-157448769D01*
X251843743Y-157448769D01*
X251843745Y-157448770D01*
X252084937Y-157489018D01*
X252084938Y-157489018D01*
X252329462Y-157489018D01*
X252329463Y-157489018D01*
X252570655Y-157448770D01*
X252801933Y-157369373D01*
X253016988Y-157252991D01*
X253209954Y-157102799D01*
X253375568Y-156922895D01*
X253509311Y-156718185D01*
X253607536Y-156494254D01*
X253667564Y-156257210D01*
X253677368Y-156138895D01*
X253687757Y-156013523D01*
X253687757Y-156013512D01*
X253667565Y-155769834D01*
X253667563Y-155769822D01*
X253664568Y-155757996D01*
X253607536Y-155532782D01*
X253509311Y-155308851D01*
X253443354Y-155207896D01*
X253375567Y-155104139D01*
X253209957Y-154924240D01*
X253209947Y-154924231D01*
X253016991Y-154774047D01*
X253016987Y-154774044D01*
X252801934Y-154657663D01*
X252801929Y-154657661D01*
X252570658Y-154578266D01*
X252389761Y-154548080D01*
X252329463Y-154538018D01*
X252084937Y-154538018D01*
X252036698Y-154546067D01*
X251843741Y-154578266D01*
X251612470Y-154657661D01*
X251612465Y-154657663D01*
X251397412Y-154774044D01*
X251397408Y-154774047D01*
X251204452Y-154924231D01*
X251204442Y-154924240D01*
X251038832Y-155104139D01*
X250905088Y-155308851D01*
X250806863Y-155532783D01*
X250746836Y-155769822D01*
X250746834Y-155769834D01*
X250726643Y-156013512D01*
X243687757Y-156013512D01*
X243667565Y-155769834D01*
X243667563Y-155769822D01*
X243664568Y-155757996D01*
X243607536Y-155532782D01*
X243509311Y-155308851D01*
X243443354Y-155207896D01*
X243375567Y-155104139D01*
X243209957Y-154924240D01*
X243209947Y-154924231D01*
X243016991Y-154774047D01*
X243016987Y-154774044D01*
X242801934Y-154657663D01*
X242801929Y-154657661D01*
X242570658Y-154578266D01*
X242389761Y-154548080D01*
X242329463Y-154538018D01*
X242084937Y-154538018D01*
X242036698Y-154546067D01*
X241843741Y-154578266D01*
X241612470Y-154657661D01*
X241612465Y-154657663D01*
X241397412Y-154774044D01*
X241397408Y-154774047D01*
X241204452Y-154924231D01*
X241204442Y-154924240D01*
X241038832Y-155104139D01*
X240905088Y-155308851D01*
X240806863Y-155532783D01*
X240746836Y-155769822D01*
X240746834Y-155769834D01*
X240726643Y-156013512D01*
X234118339Y-156013512D01*
X234102622Y-155981041D01*
X234102079Y-155979902D01*
X234028179Y-155822378D01*
X234027565Y-155821048D01*
X234004288Y-155769822D01*
X233955598Y-155662667D01*
X233954999Y-155661326D01*
X233884960Y-155502074D01*
X233884430Y-155500850D01*
X233816304Y-155340691D01*
X233815723Y-155339301D01*
X233749552Y-155178336D01*
X233749018Y-155177016D01*
X233684783Y-155015185D01*
X233684236Y-155013782D01*
X233649949Y-154924240D01*
X233621929Y-154851064D01*
X233621451Y-154849794D01*
X233561131Y-154686330D01*
X233560623Y-154684926D01*
X233554279Y-154667067D01*
X233502260Y-154520635D01*
X233501837Y-154519420D01*
X233445444Y-154354325D01*
X233444984Y-154352949D01*
X233390596Y-154187142D01*
X233390196Y-154185899D01*
X233337750Y-154019173D01*
X233337349Y-154017867D01*
X233297344Y-153885048D01*
X246156700Y-153885048D01*
X246156700Y-154091987D01*
X246175628Y-154187142D01*
X246197070Y-154294938D01*
X246276259Y-154486116D01*
X246298512Y-154519420D01*
X246391224Y-154658175D01*
X246537542Y-154804493D01*
X246537545Y-154804495D01*
X246709602Y-154919459D01*
X246900780Y-154998648D01*
X247103730Y-155039017D01*
X247103734Y-155039018D01*
X247103735Y-155039018D01*
X247310666Y-155039018D01*
X247310667Y-155039017D01*
X247513620Y-154998648D01*
X247704798Y-154919459D01*
X247876855Y-154804495D01*
X248023177Y-154658173D01*
X248138141Y-154486116D01*
X248217330Y-154294938D01*
X248257700Y-154091983D01*
X248257700Y-153885053D01*
X248217330Y-153682098D01*
X248138141Y-153490920D01*
X248023177Y-153318863D01*
X248023175Y-153318860D01*
X247876857Y-153172542D01*
X247787092Y-153112564D01*
X247704798Y-153057577D01*
X247513620Y-152978388D01*
X247513612Y-152978386D01*
X247310669Y-152938018D01*
X247310665Y-152938018D01*
X247103735Y-152938018D01*
X247103730Y-152938018D01*
X246900787Y-152978386D01*
X246900779Y-152978388D01*
X246709603Y-153057576D01*
X246537542Y-153172542D01*
X246391224Y-153318860D01*
X246276258Y-153490921D01*
X246197070Y-153682097D01*
X246197068Y-153682105D01*
X246156700Y-153885048D01*
X233297344Y-153885048D01*
X233287110Y-153851069D01*
X233286476Y-153848893D01*
X233265897Y-153775752D01*
X233191832Y-153512514D01*
X233191269Y-153510441D01*
X233147262Y-153342300D01*
X233146888Y-153340838D01*
X233141421Y-153318860D01*
X233104827Y-153171759D01*
X233104486Y-153170347D01*
X233064540Y-153000992D01*
X233064203Y-152999522D01*
X233050595Y-152938518D01*
X236176878Y-152938518D01*
X236196115Y-153121547D01*
X236196116Y-153121550D01*
X236252983Y-153296571D01*
X236252986Y-153296577D01*
X236345005Y-153455958D01*
X236454320Y-153577365D01*
X236468149Y-153592724D01*
X236468151Y-153592726D01*
X236617034Y-153700896D01*
X236617035Y-153700896D01*
X236617039Y-153700899D01*
X236754153Y-153761946D01*
X236785161Y-153775752D01*
X236785166Y-153775754D01*
X236965181Y-153814018D01*
X237149219Y-153814018D01*
X237329234Y-153775754D01*
X237497361Y-153700899D01*
X237646250Y-153592725D01*
X237769395Y-153455958D01*
X237861414Y-153296577D01*
X237918285Y-153121547D01*
X237937522Y-152938518D01*
X240676878Y-152938518D01*
X240696115Y-153121547D01*
X240696116Y-153121550D01*
X240752983Y-153296571D01*
X240752986Y-153296577D01*
X240845005Y-153455958D01*
X240954320Y-153577365D01*
X240968149Y-153592724D01*
X240968151Y-153592726D01*
X241117034Y-153700896D01*
X241117035Y-153700896D01*
X241117039Y-153700899D01*
X241254153Y-153761946D01*
X241285161Y-153775752D01*
X241285166Y-153775754D01*
X241465181Y-153814018D01*
X241649219Y-153814018D01*
X241829234Y-153775754D01*
X241997361Y-153700899D01*
X242146250Y-153592725D01*
X242269395Y-153455958D01*
X242361414Y-153296577D01*
X242418285Y-153121547D01*
X242437522Y-152938518D01*
X242418285Y-152755489D01*
X242361414Y-152580459D01*
X242269395Y-152421078D01*
X242146250Y-152284311D01*
X242146248Y-152284309D01*
X241997365Y-152176139D01*
X241997362Y-152176137D01*
X241997361Y-152176137D01*
X241936312Y-152148956D01*
X241829238Y-152101283D01*
X241829233Y-152101281D01*
X241649219Y-152063018D01*
X241465181Y-152063018D01*
X241285166Y-152101281D01*
X241285161Y-152101283D01*
X241117039Y-152176137D01*
X241117034Y-152176139D01*
X240968151Y-152284309D01*
X240968149Y-152284311D01*
X240845004Y-152421079D01*
X240752986Y-152580458D01*
X240752983Y-152580464D01*
X240721541Y-152677235D01*
X240696115Y-152755489D01*
X240676878Y-152938518D01*
X237937522Y-152938518D01*
X237918285Y-152755489D01*
X237861414Y-152580459D01*
X237769395Y-152421078D01*
X237646250Y-152284311D01*
X237646248Y-152284309D01*
X237497365Y-152176139D01*
X237497362Y-152176137D01*
X237497361Y-152176137D01*
X237436312Y-152148956D01*
X237329238Y-152101283D01*
X237329233Y-152101281D01*
X237149219Y-152063018D01*
X236965181Y-152063018D01*
X236785166Y-152101281D01*
X236785161Y-152101283D01*
X236617039Y-152176137D01*
X236617034Y-152176139D01*
X236468151Y-152284309D01*
X236468149Y-152284311D01*
X236345004Y-152421079D01*
X236252986Y-152580458D01*
X236252983Y-152580464D01*
X236221541Y-152677235D01*
X236196115Y-152755489D01*
X236176878Y-152938518D01*
X233050595Y-152938518D01*
X233026313Y-152829663D01*
X233026052Y-152828463D01*
X232990217Y-152658086D01*
X232989927Y-152656662D01*
X232956220Y-152486137D01*
X232955948Y-152484714D01*
X232924314Y-152313786D01*
X232924072Y-152312438D01*
X232894491Y-152140981D01*
X232894287Y-152139753D01*
X232866804Y-151968027D01*
X232866604Y-151966728D01*
X232841216Y-151794730D01*
X232841039Y-151793479D01*
X232817735Y-151621142D01*
X232817567Y-151619836D01*
X232796376Y-151447371D01*
X232796232Y-151446145D01*
X232777117Y-151273263D01*
X232776989Y-151272038D01*
X232759992Y-151099115D01*
X232759858Y-151097656D01*
X232744977Y-150924720D01*
X232744857Y-150923220D01*
X232732066Y-150749994D01*
X232731978Y-150748699D01*
X232721284Y-150575186D01*
X232721216Y-150573964D01*
X232712629Y-150400341D01*
X232712565Y-150398846D01*
X232706096Y-150225333D01*
X232706049Y-150223828D01*
X232701684Y-150050124D01*
X232701658Y-150048791D01*
X232699402Y-149874882D01*
X232699393Y-149873431D01*
X232699375Y-149850808D01*
X232699251Y-149699584D01*
X232699258Y-149698279D01*
X232699369Y-149688518D01*
X242179617Y-149688518D01*
X242197123Y-149827097D01*
X242200119Y-149850808D01*
X242200119Y-149850811D01*
X242260336Y-150002900D01*
X242260341Y-150002909D01*
X242356483Y-150135238D01*
X242356484Y-150135239D01*
X242356486Y-150135240D01*
X242356487Y-150135242D01*
X242482529Y-150239512D01*
X242630541Y-150309161D01*
X242791224Y-150339813D01*
X242954482Y-150329542D01*
X243110056Y-150278993D01*
X243248172Y-150191342D01*
X243360151Y-150072097D01*
X243438956Y-149928750D01*
X243479637Y-149770308D01*
X243482200Y-149688518D01*
X250929617Y-149688518D01*
X250947123Y-149827097D01*
X250950119Y-149850808D01*
X250950119Y-149850811D01*
X251010336Y-150002900D01*
X251010341Y-150002909D01*
X251106483Y-150135238D01*
X251106484Y-150135239D01*
X251106486Y-150135240D01*
X251106487Y-150135242D01*
X251232529Y-150239512D01*
X251380541Y-150309161D01*
X251541224Y-150339813D01*
X251704482Y-150329542D01*
X251860056Y-150278993D01*
X251998172Y-150191342D01*
X252110151Y-150072097D01*
X252188956Y-149928750D01*
X252229637Y-149770308D01*
X252232200Y-149688518D01*
X252229637Y-149606728D01*
X252188956Y-149448286D01*
X252188955Y-149448285D01*
X252188955Y-149448283D01*
X252110154Y-149304944D01*
X252110151Y-149304939D01*
X251998173Y-149185695D01*
X251998172Y-149185694D01*
X251922268Y-149137524D01*
X251860055Y-149098042D01*
X251704482Y-149047494D01*
X251541227Y-149037223D01*
X251541226Y-149037223D01*
X251541224Y-149037223D01*
X251464001Y-149051953D01*
X251380543Y-149067874D01*
X251380541Y-149067875D01*
X251232529Y-149137524D01*
X251232527Y-149137525D01*
X251232526Y-149137526D01*
X251106484Y-149241796D01*
X251106483Y-149241797D01*
X251010341Y-149374126D01*
X251010336Y-149374135D01*
X250950119Y-149526224D01*
X250950119Y-149526227D01*
X250929617Y-149688518D01*
X243482200Y-149688518D01*
X243479637Y-149606728D01*
X243438956Y-149448286D01*
X243438955Y-149448285D01*
X243438955Y-149448283D01*
X243360154Y-149304944D01*
X243360151Y-149304939D01*
X243248173Y-149185695D01*
X243248172Y-149185694D01*
X243172268Y-149137524D01*
X243110055Y-149098042D01*
X242954482Y-149047494D01*
X242791227Y-149037223D01*
X242791226Y-149037223D01*
X242791224Y-149037223D01*
X242714001Y-149051953D01*
X242630543Y-149067874D01*
X242630541Y-149067875D01*
X242482529Y-149137524D01*
X242482527Y-149137525D01*
X242482526Y-149137526D01*
X242356484Y-149241796D01*
X242356483Y-149241797D01*
X242260341Y-149374126D01*
X242260336Y-149374135D01*
X242200119Y-149526224D01*
X242200119Y-149526227D01*
X242179617Y-149688518D01*
X232699369Y-149688518D01*
X232701230Y-149524349D01*
X232701256Y-149522882D01*
X232702213Y-149482181D01*
X232705342Y-149348991D01*
X232705387Y-149347489D01*
X232711588Y-149173663D01*
X232711651Y-149172177D01*
X232716979Y-149060875D01*
X232719975Y-148998283D01*
X232720045Y-148996978D01*
X232730504Y-148822897D01*
X232730582Y-148821717D01*
X232743159Y-148647790D01*
X232743272Y-148646350D01*
X232757975Y-148472506D01*
X232758084Y-148471307D01*
X232774874Y-148297983D01*
X232775110Y-148295759D01*
X232777433Y-148275621D01*
X232815161Y-147948583D01*
X232815435Y-147946383D01*
X232825322Y-147872570D01*
X232838522Y-147774005D01*
X232838729Y-147772537D01*
X232850166Y-147694393D01*
X232863943Y-147600247D01*
X232864168Y-147598781D01*
X232875464Y-147527652D01*
X232891477Y-147426817D01*
X232891673Y-147425623D01*
X232921111Y-147253786D01*
X232921328Y-147252566D01*
X232952816Y-147081306D01*
X232953085Y-147079895D01*
X232974568Y-146970542D01*
X232986619Y-146909200D01*
X232986843Y-146908088D01*
X233022489Y-146737626D01*
X233022797Y-146736204D01*
X233038124Y-146667110D01*
X233060442Y-146566494D01*
X233060717Y-146565291D01*
X233090458Y-146438518D01*
X236176878Y-146438518D01*
X236196115Y-146621547D01*
X236196116Y-146621550D01*
X236252983Y-146796571D01*
X236252986Y-146796577D01*
X236345005Y-146955958D01*
X236454527Y-147077595D01*
X236468149Y-147092724D01*
X236468151Y-147092726D01*
X236617034Y-147200896D01*
X236617035Y-147200896D01*
X236617039Y-147200899D01*
X236733085Y-147252566D01*
X236785161Y-147275752D01*
X236785166Y-147275754D01*
X236965181Y-147314018D01*
X237149219Y-147314018D01*
X237329234Y-147275754D01*
X237497361Y-147200899D01*
X237646250Y-147092725D01*
X237769395Y-146955958D01*
X237861414Y-146796577D01*
X237918285Y-146621547D01*
X237937522Y-146438518D01*
X240676878Y-146438518D01*
X240696115Y-146621547D01*
X240696116Y-146621550D01*
X240752983Y-146796571D01*
X240752986Y-146796577D01*
X240845005Y-146955958D01*
X240954527Y-147077595D01*
X240968149Y-147092724D01*
X240968151Y-147092726D01*
X241117034Y-147200896D01*
X241117035Y-147200896D01*
X241117039Y-147200899D01*
X241233085Y-147252566D01*
X241285161Y-147275752D01*
X241285166Y-147275754D01*
X241465181Y-147314018D01*
X241649219Y-147314018D01*
X241829234Y-147275754D01*
X241997361Y-147200899D01*
X242146250Y-147092725D01*
X242269395Y-146955958D01*
X242361414Y-146796577D01*
X242418285Y-146621547D01*
X242437522Y-146438518D01*
X242418285Y-146255489D01*
X242368224Y-146101418D01*
X242361416Y-146080464D01*
X242361413Y-146080458D01*
X242269395Y-145921078D01*
X242146250Y-145784311D01*
X242146248Y-145784309D01*
X241997365Y-145676139D01*
X241997362Y-145676137D01*
X241997361Y-145676137D01*
X241936312Y-145648956D01*
X241829238Y-145601283D01*
X241829233Y-145601281D01*
X241649219Y-145563018D01*
X241465181Y-145563018D01*
X241285166Y-145601281D01*
X241285161Y-145601283D01*
X241117039Y-145676137D01*
X241117034Y-145676139D01*
X240968151Y-145784309D01*
X240968149Y-145784311D01*
X240845004Y-145921079D01*
X240752986Y-146080458D01*
X240752983Y-146080464D01*
X240705397Y-146226921D01*
X240696115Y-146255489D01*
X240676878Y-146438518D01*
X237937522Y-146438518D01*
X237918285Y-146255489D01*
X237868224Y-146101418D01*
X237861416Y-146080464D01*
X237861413Y-146080458D01*
X237769395Y-145921078D01*
X237646250Y-145784311D01*
X237646248Y-145784309D01*
X237497365Y-145676139D01*
X237497362Y-145676137D01*
X237497361Y-145676137D01*
X237436312Y-145648956D01*
X237329238Y-145601283D01*
X237329233Y-145601281D01*
X237149219Y-145563018D01*
X236965181Y-145563018D01*
X236785166Y-145601281D01*
X236785161Y-145601283D01*
X236617039Y-145676137D01*
X236617034Y-145676139D01*
X236468151Y-145784309D01*
X236468149Y-145784311D01*
X236345004Y-145921079D01*
X236252986Y-146080458D01*
X236252983Y-146080464D01*
X236205397Y-146226921D01*
X236196115Y-146255489D01*
X236176878Y-146438518D01*
X233090458Y-146438518D01*
X233100464Y-146395868D01*
X233100753Y-146394670D01*
X233142524Y-146225866D01*
X233142835Y-146224641D01*
X233186675Y-146056271D01*
X233186987Y-146055102D01*
X233232869Y-145887276D01*
X233233195Y-145886114D01*
X233281062Y-145719022D01*
X233281465Y-145717647D01*
X233288270Y-145694938D01*
X233331355Y-145551153D01*
X233331699Y-145550031D01*
X233383636Y-145384061D01*
X233384017Y-145382868D01*
X233415937Y-145285048D01*
X246156700Y-145285048D01*
X246156700Y-145491987D01*
X246196237Y-145690752D01*
X246197070Y-145694938D01*
X246276259Y-145886116D01*
X246307747Y-145933241D01*
X246391224Y-146058175D01*
X246537542Y-146204493D01*
X246537545Y-146204495D01*
X246709602Y-146319459D01*
X246900780Y-146398648D01*
X247101221Y-146438518D01*
X247103730Y-146439017D01*
X247103734Y-146439018D01*
X247103735Y-146439018D01*
X247310666Y-146439018D01*
X247310667Y-146439017D01*
X247513620Y-146398648D01*
X247704798Y-146319459D01*
X247876855Y-146204495D01*
X248023177Y-146058173D01*
X248138141Y-145886116D01*
X248217330Y-145694938D01*
X248257700Y-145491983D01*
X248257700Y-145285053D01*
X248217330Y-145082098D01*
X248138141Y-144890920D01*
X248023177Y-144718863D01*
X248023175Y-144718860D01*
X247876857Y-144572542D01*
X247790826Y-144515059D01*
X247704798Y-144457577D01*
X247693253Y-144452795D01*
X247513620Y-144378388D01*
X247513612Y-144378386D01*
X247310669Y-144338018D01*
X247310665Y-144338018D01*
X247103735Y-144338018D01*
X247103730Y-144338018D01*
X246900787Y-144378386D01*
X246900779Y-144378388D01*
X246709603Y-144457576D01*
X246537542Y-144572542D01*
X246391224Y-144718860D01*
X246276258Y-144890921D01*
X246197070Y-145082097D01*
X246197068Y-145082105D01*
X246156700Y-145285048D01*
X233415937Y-145285048D01*
X233437960Y-145217559D01*
X233438423Y-145216172D01*
X233448663Y-145186036D01*
X233494300Y-145051725D01*
X233494769Y-145050374D01*
X233523044Y-144970365D01*
X233552645Y-144886598D01*
X233553138Y-144885231D01*
X233613000Y-144722164D01*
X233613506Y-144720811D01*
X233675438Y-144558236D01*
X233675861Y-144557147D01*
X233739782Y-144395288D01*
X233740234Y-144394162D01*
X233806188Y-144232913D01*
X233806645Y-144231819D01*
X233874502Y-144071508D01*
X233874983Y-144070390D01*
X233920055Y-143967411D01*
X233944789Y-143910903D01*
X233945401Y-143909527D01*
X234017152Y-143750871D01*
X234017611Y-143749871D01*
X234091442Y-143591772D01*
X234091902Y-143590801D01*
X234167703Y-143433501D01*
X234168129Y-143432630D01*
X234202480Y-143363512D01*
X240726643Y-143363512D01*
X240726643Y-143363523D01*
X240746834Y-143607201D01*
X240746836Y-143607213D01*
X240806863Y-143844252D01*
X240905088Y-144068184D01*
X241038832Y-144272896D01*
X241204442Y-144452795D01*
X241204452Y-144452804D01*
X241397408Y-144602988D01*
X241397412Y-144602991D01*
X241611524Y-144718863D01*
X241612467Y-144719373D01*
X241612470Y-144719374D01*
X241843741Y-144798769D01*
X241843743Y-144798769D01*
X241843745Y-144798770D01*
X242084937Y-144839018D01*
X242084938Y-144839018D01*
X242329462Y-144839018D01*
X242329463Y-144839018D01*
X242570655Y-144798770D01*
X242801933Y-144719373D01*
X243016988Y-144602991D01*
X243209954Y-144452799D01*
X243375568Y-144272895D01*
X243509311Y-144068185D01*
X243607536Y-143844254D01*
X243667564Y-143607210D01*
X243667565Y-143607201D01*
X243687757Y-143363523D01*
X243687757Y-143363512D01*
X243667565Y-143119834D01*
X243667563Y-143119822D01*
X243651760Y-143057417D01*
X243607536Y-142882782D01*
X243509311Y-142658851D01*
X243484246Y-142620486D01*
X243375567Y-142454139D01*
X243209957Y-142274240D01*
X243209947Y-142274231D01*
X243016991Y-142124047D01*
X243016987Y-142124044D01*
X242801934Y-142007663D01*
X242801929Y-142007661D01*
X242570658Y-141928266D01*
X242342221Y-141890147D01*
X242329463Y-141888018D01*
X242084937Y-141888018D01*
X242072179Y-141890147D01*
X241843741Y-141928266D01*
X241612470Y-142007661D01*
X241612465Y-142007663D01*
X241397412Y-142124044D01*
X241397408Y-142124047D01*
X241204452Y-142274231D01*
X241204442Y-142274240D01*
X241038832Y-142454139D01*
X240905088Y-142658851D01*
X240806863Y-142882783D01*
X240746836Y-143119822D01*
X240746834Y-143119834D01*
X240726643Y-143363512D01*
X234202480Y-143363512D01*
X234245851Y-143276243D01*
X234246472Y-143275015D01*
X234277819Y-143213824D01*
X234325973Y-143119822D01*
X234326632Y-143118555D01*
X234358891Y-143057429D01*
X234407821Y-142964712D01*
X234408941Y-142962640D01*
X234598231Y-142620486D01*
X234599432Y-142618366D01*
X234697169Y-142449925D01*
X234697869Y-142448738D01*
X234798093Y-142281306D01*
X234798888Y-142279998D01*
X234901359Y-142113985D01*
X234902125Y-142112763D01*
X235006825Y-141948199D01*
X235007654Y-141946916D01*
X235114574Y-141783807D01*
X235115392Y-141782579D01*
X235224500Y-141620977D01*
X235225323Y-141619776D01*
X235336624Y-141459669D01*
X235337517Y-141458402D01*
X235451092Y-141299678D01*
X235451822Y-141298673D01*
X235567518Y-141141552D01*
X235568436Y-141140323D01*
X235686235Y-140984825D01*
X235687055Y-140983758D01*
X235807007Y-140829820D01*
X235808020Y-140828539D01*
X235820147Y-140813406D01*
X235929969Y-140676359D01*
X235930947Y-140675157D01*
X236055070Y-140524516D01*
X236056038Y-140523358D01*
X236181983Y-140374685D01*
X236183471Y-140372965D01*
X236442167Y-140079939D01*
X236443736Y-140078198D01*
X236575489Y-139934970D01*
X236576511Y-139933874D01*
X236710434Y-139792205D01*
X236711477Y-139791117D01*
X236847297Y-139651304D01*
X236848334Y-139650250D01*
X236986068Y-139512276D01*
X236987196Y-139511163D01*
X237075584Y-139424999D01*
X240944722Y-139424999D01*
X240944722Y-139425000D01*
X240963762Y-139581818D01*
X241005704Y-139692407D01*
X241019780Y-139729523D01*
X241109517Y-139859530D01*
X241227760Y-139964283D01*
X241227762Y-139964284D01*
X241367634Y-140037696D01*
X241521014Y-140075500D01*
X241521015Y-140075500D01*
X241678985Y-140075500D01*
X241832365Y-140037696D01*
X241887034Y-140009003D01*
X241972240Y-139964283D01*
X242090483Y-139859530D01*
X242094257Y-139854061D01*
X242148537Y-139810071D01*
X242196308Y-139800500D01*
X246178692Y-139800500D01*
X246245731Y-139820185D01*
X246280742Y-139854061D01*
X246283163Y-139857569D01*
X246284515Y-139859528D01*
X246284517Y-139859530D01*
X246402760Y-139964283D01*
X246402762Y-139964284D01*
X246542634Y-140037696D01*
X246696014Y-140075500D01*
X246696015Y-140075500D01*
X246853985Y-140075500D01*
X247007365Y-140037696D01*
X247062034Y-140009003D01*
X247147240Y-139964283D01*
X247265483Y-139859530D01*
X247355220Y-139729523D01*
X247411237Y-139581818D01*
X247430278Y-139425000D01*
X247416154Y-139308673D01*
X247411237Y-139268181D01*
X247384445Y-139197537D01*
X247355220Y-139120477D01*
X247265483Y-138990470D01*
X247147240Y-138885717D01*
X247147238Y-138885716D01*
X247147237Y-138885715D01*
X247007365Y-138812303D01*
X246853986Y-138774500D01*
X246853985Y-138774500D01*
X246696015Y-138774500D01*
X246696014Y-138774500D01*
X246542634Y-138812303D01*
X246402762Y-138885715D01*
X246284516Y-138990470D01*
X246282089Y-138993987D01*
X246280742Y-138995938D01*
X246226463Y-139039929D01*
X246178692Y-139049500D01*
X242196308Y-139049500D01*
X242129269Y-139029815D01*
X242094257Y-138995938D01*
X242090483Y-138990470D01*
X241972240Y-138885717D01*
X241972238Y-138885716D01*
X241972237Y-138885715D01*
X241832365Y-138812303D01*
X241678986Y-138774500D01*
X241678985Y-138774500D01*
X241521015Y-138774500D01*
X241521014Y-138774500D01*
X241367634Y-138812303D01*
X241227762Y-138885715D01*
X241109516Y-138990471D01*
X241019781Y-139120475D01*
X241019780Y-139120476D01*
X240963762Y-139268181D01*
X240944722Y-139424999D01*
X237075584Y-139424999D01*
X237126674Y-139375194D01*
X237127811Y-139374099D01*
X237269256Y-139239916D01*
X237270205Y-139239029D01*
X237413436Y-139106807D01*
X237414542Y-139105800D01*
X237559582Y-138975520D01*
X237560650Y-138974574D01*
X237707451Y-138846278D01*
X237708531Y-138845346D01*
X237857119Y-138719016D01*
X237858241Y-138718075D01*
X238008597Y-138593727D01*
X238009537Y-138592960D01*
X238161679Y-138470585D01*
X238162775Y-138469716D01*
X238316478Y-138349497D01*
X238317624Y-138348613D01*
X238472896Y-138230542D01*
X238474307Y-138229486D01*
X238734730Y-138037572D01*
X238740718Y-138033425D01*
X238801764Y-137993749D01*
X239284254Y-137680160D01*
X239291339Y-137675886D01*
X239856901Y-137360027D01*
X239864251Y-137356240D01*
X240450129Y-137078741D01*
X240456768Y-137075832D01*
X240757606Y-136954424D01*
X240901134Y-136887028D01*
X240998578Y-136837926D01*
X241101231Y-136780568D01*
X241201746Y-136717378D01*
X241294140Y-136654507D01*
X241379633Y-136594202D01*
X241516463Y-136464399D01*
X241585578Y-136391605D01*
X241657701Y-136313112D01*
X241727090Y-136236165D01*
X241797381Y-136136732D01*
X241852520Y-136050774D01*
X241911718Y-135952899D01*
X241962596Y-135865913D01*
X242043362Y-135692360D01*
X242053271Y-135674919D01*
X242110077Y-135591490D01*
X242144234Y-135557813D01*
X242216453Y-135510124D01*
X242260844Y-135491934D01*
X242347037Y-135474983D01*
X242392533Y-135474545D01*
X242467836Y-135487852D01*
X242508265Y-135502579D01*
X242586474Y-135547743D01*
X242601793Y-135558190D01*
X242670370Y-135612897D01*
X242670372Y-135612898D01*
X242841832Y-135703637D01*
X243028511Y-135756394D01*
X243222102Y-135768822D01*
X243222102Y-135768821D01*
X243222103Y-135768822D01*
X243270075Y-135761708D01*
X243413994Y-135740368D01*
X243595649Y-135672298D01*
X243758986Y-135567641D01*
X243896738Y-135431052D01*
X244002777Y-135268609D01*
X244014163Y-135238992D01*
X244072385Y-135087537D01*
X244072386Y-135087532D01*
X244102464Y-134895898D01*
X244102465Y-134895894D01*
X244100413Y-134859051D01*
X244091679Y-134702209D01*
X244091679Y-134702204D01*
X244040507Y-134515085D01*
X243951225Y-134342861D01*
X243920370Y-134305444D01*
X243827809Y-134193198D01*
X243827799Y-134193189D01*
X243675741Y-134072745D01*
X243675742Y-134072745D01*
X243590674Y-134028070D01*
X243588994Y-134027171D01*
X243554899Y-134008591D01*
X243526312Y-133987149D01*
X243472063Y-133932601D01*
X243448503Y-133899453D01*
X243415941Y-133832591D01*
X243404370Y-133793601D01*
X243395194Y-133719792D01*
X243396863Y-133679159D01*
X243400800Y-133660300D01*
X243412061Y-133606350D01*
X243426786Y-133568447D01*
X243466043Y-133502248D01*
X243488467Y-133474500D01*
X243514878Y-133450058D01*
X243520668Y-133445025D01*
X243587908Y-133390132D01*
X243603686Y-133379172D01*
X243758948Y-133288306D01*
X243778698Y-133278978D01*
X243946258Y-133217243D01*
X243967344Y-133211526D01*
X244144447Y-133179936D01*
X244163559Y-133178040D01*
X244249807Y-133176204D01*
X244252866Y-133176139D01*
X244255504Y-133176111D01*
X278589692Y-133176111D01*
X278656731Y-133195796D01*
G37*
%TD.AperFunction*%
%TA.AperFunction,Conductor*%
G36*
X254707703Y-150100680D02*
G01*
X254738882Y-150141988D01*
X254820097Y-150316156D01*
X254820098Y-150316157D01*
X254945602Y-150495395D01*
X254945606Y-150495399D01*
X255100322Y-150650115D01*
X255153021Y-150687016D01*
X255196646Y-150741593D01*
X255203838Y-150811092D01*
X255172315Y-150873446D01*
X255140915Y-150897644D01*
X255083965Y-150928463D01*
X255037142Y-150964906D01*
X255037142Y-150964908D01*
X255777790Y-151705555D01*
X255714207Y-151722593D01*
X255600193Y-151788419D01*
X255507101Y-151881511D01*
X255441275Y-151995525D01*
X255424237Y-152059108D01*
X254683764Y-151318634D01*
X254639291Y-151323247D01*
X254570578Y-151310582D01*
X254519621Y-151262779D01*
X254502500Y-151199908D01*
X254502500Y-150194393D01*
X254522185Y-150127354D01*
X254574989Y-150081599D01*
X254644147Y-150071655D01*
X254707703Y-150100680D01*
G37*
%TD.AperFunction*%
%TA.AperFunction,Conductor*%
G36*
X280796478Y-133176129D02*
G01*
X280930458Y-133178386D01*
X280946012Y-133179629D01*
X281212336Y-133217923D01*
X281229620Y-133221683D01*
X281486768Y-133297189D01*
X281503341Y-133303371D01*
X281747130Y-133414707D01*
X281762650Y-133423182D01*
X281885687Y-133502254D01*
X281988110Y-133568078D01*
X282002273Y-133578680D01*
X282204816Y-133754186D01*
X282217326Y-133766697D01*
X282392830Y-133969242D01*
X282403431Y-133983403D01*
X282419619Y-134008591D01*
X282548324Y-134208863D01*
X282556802Y-134224391D01*
X282668136Y-134468180D01*
X282674319Y-134484757D01*
X282749820Y-134741897D01*
X282753581Y-134759185D01*
X282791871Y-135025511D01*
X282793115Y-135041050D01*
X282795392Y-135175050D01*
X282795410Y-135177157D01*
X282795410Y-139797100D01*
X282795391Y-139799299D01*
X282793014Y-139933326D01*
X282791771Y-139948775D01*
X282753474Y-140215122D01*
X282749713Y-140232410D01*
X282674210Y-140489537D01*
X282668027Y-140506114D01*
X282556698Y-140749884D01*
X282548219Y-140765411D01*
X282403337Y-140990849D01*
X282392735Y-141005012D01*
X282217238Y-141207545D01*
X282204729Y-141220053D01*
X282141202Y-141275099D01*
X282077648Y-141304124D01*
X282008490Y-141294180D01*
X281955686Y-141248426D01*
X281936001Y-141181386D01*
X281936001Y-141117407D01*
X281076687Y-141117407D01*
X281081081Y-141113013D01*
X281133742Y-141021801D01*
X281161001Y-140920068D01*
X281161001Y-140814746D01*
X281133742Y-140713013D01*
X281081081Y-140621801D01*
X281076687Y-140617407D01*
X281936001Y-140617407D01*
X281936001Y-140144579D01*
X281936000Y-140144562D01*
X281929599Y-140085034D01*
X281929597Y-140085027D01*
X281879355Y-139950320D01*
X281879351Y-139950313D01*
X281793191Y-139835219D01*
X281793188Y-139835216D01*
X281678094Y-139749056D01*
X281678087Y-139749052D01*
X281543380Y-139698810D01*
X281543373Y-139698808D01*
X281483845Y-139692407D01*
X281011001Y-139692407D01*
X281011001Y-140551721D01*
X281006607Y-140547327D01*
X280915395Y-140494666D01*
X280813662Y-140467407D01*
X280708340Y-140467407D01*
X280606607Y-140494666D01*
X280515395Y-140547327D01*
X280511001Y-140551721D01*
X280511001Y-139692407D01*
X280038156Y-139692407D01*
X279978628Y-139698808D01*
X279978621Y-139698810D01*
X279843914Y-139749052D01*
X279843907Y-139749056D01*
X279728813Y-139835216D01*
X279728810Y-139835219D01*
X279642650Y-139950313D01*
X279642646Y-139950320D01*
X279592404Y-140085027D01*
X279592403Y-140085032D01*
X279591018Y-140097908D01*
X279564276Y-140162458D01*
X279506881Y-140202303D01*
X279437056Y-140204792D01*
X279389272Y-140179213D01*
X279388950Y-140179658D01*
X279385723Y-140177313D01*
X279384758Y-140176797D01*
X279383695Y-140175840D01*
X279383694Y-140175839D01*
X279383693Y-140175838D01*
X279276432Y-140097908D01*
X279226298Y-140061483D01*
X279089849Y-140000733D01*
X279048572Y-139982356D01*
X279048570Y-139982355D01*
X278858275Y-139941907D01*
X278663727Y-139941907D01*
X278473432Y-139982355D01*
X278295703Y-140061483D01*
X278138306Y-140175840D01*
X278138303Y-140175842D01*
X278008130Y-140320416D01*
X277910858Y-140488895D01*
X277910857Y-140488896D01*
X277878932Y-140587155D01*
X277839495Y-140644830D01*
X277775136Y-140672029D01*
X277706290Y-140660115D01*
X277654814Y-140612871D01*
X277643070Y-140587155D01*
X277611144Y-140488896D01*
X277611143Y-140488895D01*
X277577203Y-140430110D01*
X277513871Y-140320415D01*
X277462883Y-140263788D01*
X277383698Y-140175842D01*
X277383695Y-140175840D01*
X277383694Y-140175839D01*
X277383693Y-140175838D01*
X277276432Y-140097908D01*
X277226298Y-140061483D01*
X277089849Y-140000733D01*
X277048572Y-139982356D01*
X277048570Y-139982355D01*
X276858275Y-139941907D01*
X276663727Y-139941907D01*
X276473432Y-139982355D01*
X276295703Y-140061483D01*
X276138306Y-140175840D01*
X276138303Y-140175842D01*
X276008130Y-140320416D01*
X275910858Y-140488895D01*
X275910857Y-140488896D01*
X275878932Y-140587155D01*
X275839495Y-140644830D01*
X275775136Y-140672029D01*
X275706290Y-140660115D01*
X275654814Y-140612871D01*
X275643070Y-140587155D01*
X275611144Y-140488896D01*
X275611143Y-140488895D01*
X275524913Y-140339539D01*
X275508300Y-140277539D01*
X275508300Y-139048542D01*
X276853716Y-139048542D01*
X276860117Y-139108070D01*
X276860119Y-139108077D01*
X276910361Y-139242784D01*
X276910365Y-139242791D01*
X276996525Y-139357885D01*
X276996528Y-139357888D01*
X277111622Y-139444048D01*
X277111629Y-139444052D01*
X277246336Y-139494294D01*
X277246343Y-139494296D01*
X277305871Y-139500697D01*
X277305888Y-139500698D01*
X277353716Y-139500698D01*
X277653716Y-139500698D01*
X277701544Y-139500698D01*
X277701560Y-139500697D01*
X277761088Y-139494296D01*
X277761095Y-139494294D01*
X277895802Y-139444052D01*
X277895809Y-139444048D01*
X278010903Y-139357888D01*
X278010906Y-139357885D01*
X278097066Y-139242791D01*
X278097070Y-139242784D01*
X278147312Y-139108077D01*
X278147314Y-139108070D01*
X278153715Y-139048542D01*
X278153716Y-139048525D01*
X278153716Y-138650698D01*
X277653716Y-138650698D01*
X277653716Y-139500698D01*
X277353716Y-139500698D01*
X277353716Y-138650698D01*
X276853716Y-138650698D01*
X276853716Y-139048542D01*
X275508300Y-139048542D01*
X275508300Y-137872565D01*
X275506774Y-137866871D01*
X275506773Y-137866867D01*
X275486935Y-137792830D01*
X275486935Y-137792829D01*
X275482711Y-137777064D01*
X275472057Y-137758611D01*
X275440769Y-137704418D01*
X275424297Y-137636522D01*
X275425058Y-137627499D01*
X275432478Y-137566400D01*
X275413437Y-137409582D01*
X275387511Y-137341222D01*
X275382145Y-137271562D01*
X275415292Y-137210055D01*
X275476430Y-137176234D01*
X275546148Y-137180835D01*
X275591135Y-137209572D01*
X275816638Y-137435075D01*
X275902263Y-137484511D01*
X275997764Y-137510100D01*
X275997765Y-137510100D01*
X275997766Y-137510100D01*
X276848675Y-137510100D01*
X276915714Y-137529785D01*
X276961469Y-137582589D01*
X276971413Y-137651747D01*
X276947941Y-137708412D01*
X276910363Y-137758608D01*
X276910361Y-137758611D01*
X276860119Y-137893318D01*
X276860117Y-137893325D01*
X276853716Y-137952853D01*
X276853716Y-138350698D01*
X277353716Y-138350698D01*
X277653716Y-138350698D01*
X278153716Y-138350698D01*
X278153716Y-137952870D01*
X278153715Y-137952853D01*
X278147314Y-137893325D01*
X278147312Y-137893318D01*
X278097070Y-137758611D01*
X278097066Y-137758604D01*
X278010906Y-137643510D01*
X278010903Y-137643507D01*
X277895809Y-137557347D01*
X277895802Y-137557343D01*
X277761095Y-137507101D01*
X277761088Y-137507099D01*
X277701560Y-137500698D01*
X277653716Y-137500698D01*
X277653716Y-138350698D01*
X277353716Y-138350698D01*
X277353716Y-137500698D01*
X277353208Y-137500190D01*
X277319723Y-137438867D01*
X277324707Y-137369175D01*
X277353213Y-137324823D01*
X277371434Y-137306603D01*
X277371445Y-137306590D01*
X277998675Y-136679363D01*
X278048111Y-136593737D01*
X278073700Y-136498236D01*
X278073700Y-136399364D01*
X278073700Y-136380602D01*
X278093385Y-136313563D01*
X278115474Y-136287786D01*
X278188682Y-136222931D01*
X278209063Y-136193404D01*
X278278420Y-136092923D01*
X278334437Y-135945218D01*
X278353478Y-135788400D01*
X278334437Y-135631582D01*
X278278420Y-135483877D01*
X278188683Y-135353870D01*
X278070440Y-135249117D01*
X278070438Y-135249116D01*
X278070437Y-135249115D01*
X277930565Y-135175703D01*
X277777186Y-135137900D01*
X277777185Y-135137900D01*
X277619215Y-135137900D01*
X277619214Y-135137900D01*
X277465837Y-135175703D01*
X277400862Y-135209805D01*
X277332353Y-135223530D01*
X277267300Y-135198037D01*
X277243970Y-135174320D01*
X277220903Y-135143507D01*
X277105809Y-135057347D01*
X277105802Y-135057343D01*
X276971095Y-135007101D01*
X276971088Y-135007099D01*
X276911560Y-135000698D01*
X276877901Y-135000698D01*
X276810862Y-134981013D01*
X276765107Y-134928209D01*
X276755163Y-134859051D01*
X276784188Y-134795495D01*
X276790220Y-134789017D01*
X276889692Y-134689546D01*
X277131619Y-134447619D01*
X277192942Y-134414134D01*
X277219300Y-134411300D01*
X278244892Y-134411300D01*
X278311931Y-134430985D01*
X278346942Y-134464861D01*
X278349233Y-134468180D01*
X278350715Y-134470328D01*
X278350717Y-134470330D01*
X278468960Y-134575083D01*
X278468962Y-134575084D01*
X278608834Y-134648496D01*
X278762214Y-134686300D01*
X278762215Y-134686300D01*
X278920185Y-134686300D01*
X279073565Y-134648496D01*
X279213440Y-134575083D01*
X279331683Y-134470330D01*
X279421420Y-134340323D01*
X279477437Y-134192618D01*
X279496478Y-134035800D01*
X279495540Y-134028070D01*
X279477437Y-133878981D01*
X279430108Y-133754186D01*
X279421420Y-133731277D01*
X279331683Y-133601270D01*
X279213440Y-133496517D01*
X279213438Y-133496516D01*
X279213437Y-133496515D01*
X279073566Y-133423104D01*
X279063033Y-133420508D01*
X279002652Y-133385352D01*
X278970864Y-133323132D01*
X278977760Y-133253604D01*
X279021151Y-133198841D01*
X279087261Y-133176231D01*
X279092708Y-133176111D01*
X280794389Y-133176111D01*
X280796478Y-133176129D01*
G37*
%TD.AperFunction*%
%TA.AperFunction,Conductor*%
G36*
X274278919Y-137993749D02*
G01*
X274281550Y-137996352D01*
X274286716Y-138000928D01*
X274286717Y-138000930D01*
X274404960Y-138105683D01*
X274404962Y-138105684D01*
X274544834Y-138179096D01*
X274544833Y-138179096D01*
X274662974Y-138208214D01*
X274723355Y-138243370D01*
X274755144Y-138305589D01*
X274757300Y-138328611D01*
X274757300Y-139821604D01*
X274737615Y-139888643D01*
X274684811Y-139934398D01*
X274659081Y-139942894D01*
X274473432Y-139982355D01*
X274295703Y-140061483D01*
X274138306Y-140175840D01*
X274138303Y-140175842D01*
X274008130Y-140320416D01*
X273910858Y-140488895D01*
X273910857Y-140488896D01*
X273878932Y-140587155D01*
X273839495Y-140644830D01*
X273775136Y-140672029D01*
X273706290Y-140660115D01*
X273654814Y-140612871D01*
X273643070Y-140587155D01*
X273611144Y-140488896D01*
X273611143Y-140488895D01*
X273577203Y-140430110D01*
X273513871Y-140320415D01*
X273462883Y-140263788D01*
X273383698Y-140175842D01*
X273383695Y-140175840D01*
X273383694Y-140175839D01*
X273383693Y-140175838D01*
X273226300Y-140061485D01*
X273226296Y-140061483D01*
X273210062Y-140054255D01*
X273156826Y-140009003D01*
X273136507Y-139942154D01*
X273136501Y-139940977D01*
X273136501Y-139624698D01*
X273156186Y-139557659D01*
X273208990Y-139511904D01*
X273260501Y-139500698D01*
X273273716Y-139500698D01*
X273573716Y-139500698D01*
X273621544Y-139500698D01*
X273621560Y-139500697D01*
X273681088Y-139494296D01*
X273681095Y-139494294D01*
X273815802Y-139444052D01*
X273815809Y-139444048D01*
X273930903Y-139357888D01*
X273930906Y-139357885D01*
X274017066Y-139242791D01*
X274017070Y-139242784D01*
X274067312Y-139108077D01*
X274067314Y-139108070D01*
X274073715Y-139048542D01*
X274073716Y-139048525D01*
X274073716Y-138650698D01*
X273573716Y-138650698D01*
X273573716Y-139500698D01*
X273273716Y-139500698D01*
X273273716Y-138474698D01*
X273293401Y-138407659D01*
X273346205Y-138361904D01*
X273397716Y-138350698D01*
X274073716Y-138350698D01*
X274073716Y-138087462D01*
X274093401Y-138020423D01*
X274146205Y-137974668D01*
X274215363Y-137964724D01*
X274278919Y-137993749D01*
G37*
%TD.AperFunction*%
%TD*%
%TA.AperFunction,NonConductor*%
G36*
X273756255Y-135878785D02*
G01*
X273802010Y-135931589D01*
X273813216Y-135983100D01*
X273813216Y-136126365D01*
X273793531Y-136193404D01*
X273740727Y-136239159D01*
X273718891Y-136246762D01*
X273655833Y-136262304D01*
X273515962Y-136335715D01*
X273397714Y-136440472D01*
X273353079Y-136505135D01*
X273313034Y-136542079D01*
X273256838Y-136574525D01*
X273256835Y-136574527D01*
X272460527Y-137370835D01*
X272411092Y-137456458D01*
X272411092Y-137456459D01*
X272411091Y-137456461D01*
X272385501Y-137551964D01*
X272385501Y-137551966D01*
X272385501Y-139940977D01*
X272365816Y-140008016D01*
X272313012Y-140053771D01*
X272311940Y-140054255D01*
X272295701Y-140061485D01*
X272138306Y-140175840D01*
X272138303Y-140175842D01*
X272008130Y-140320416D01*
X271910858Y-140488895D01*
X271910857Y-140488896D01*
X271878932Y-140587155D01*
X271839495Y-140644830D01*
X271775136Y-140672029D01*
X271706290Y-140660115D01*
X271654814Y-140612871D01*
X271643070Y-140587155D01*
X271611144Y-140488896D01*
X271611143Y-140488895D01*
X271577203Y-140430110D01*
X271513871Y-140320415D01*
X271462883Y-140263788D01*
X271383698Y-140175842D01*
X271383695Y-140175840D01*
X271383694Y-140175839D01*
X271383693Y-140175838D01*
X271226300Y-140061485D01*
X271226296Y-140061483D01*
X271210062Y-140054255D01*
X271156826Y-140009003D01*
X271136507Y-139942154D01*
X271136501Y-139940977D01*
X271136501Y-139795898D01*
X271156186Y-139728859D01*
X271172820Y-139708217D01*
X271341473Y-139539564D01*
X271597875Y-139283163D01*
X271647311Y-139197537D01*
X271672900Y-139102036D01*
X271672900Y-139003164D01*
X271672900Y-136100999D01*
X271692585Y-136033960D01*
X271709219Y-136013318D01*
X271827118Y-135895419D01*
X271888441Y-135861934D01*
X271914799Y-135859100D01*
X273689216Y-135859100D01*
X273756255Y-135878785D01*
G37*
%TD.AperFunction*%
%TA.AperFunction,NonConductor*%
G36*
X277815712Y-141074698D02*
G01*
X277867188Y-141121942D01*
X277878932Y-141147659D01*
X277910856Y-141245914D01*
X277910858Y-141245918D01*
X277948997Y-141311976D01*
X278008131Y-141414399D01*
X278047752Y-141458402D01*
X278138303Y-141558971D01*
X278138306Y-141558973D01*
X278138309Y-141558976D01*
X278158863Y-141573909D01*
X278201528Y-141629239D01*
X278207507Y-141698853D01*
X278174901Y-141760648D01*
X278114062Y-141795005D01*
X278085977Y-141798227D01*
X277436025Y-141798227D01*
X277368986Y-141778542D01*
X277323231Y-141725738D01*
X277313287Y-141656580D01*
X277342312Y-141593024D01*
X277363136Y-141573910D01*
X277383693Y-141558976D01*
X277513871Y-141414399D01*
X277611145Y-141245915D01*
X277643070Y-141147659D01*
X277682507Y-141089983D01*
X277746865Y-141062784D01*
X277815712Y-141074698D01*
G37*
%TD.AperFunction*%
%TA.AperFunction,NonConductor*%
G36*
X275815712Y-141074698D02*
G01*
X275867188Y-141121942D01*
X275878932Y-141147659D01*
X275910856Y-141245914D01*
X275910858Y-141245918D01*
X275948997Y-141311976D01*
X276008131Y-141414399D01*
X276047752Y-141458402D01*
X276138303Y-141558971D01*
X276138306Y-141558973D01*
X276138309Y-141558976D01*
X276158863Y-141573909D01*
X276201528Y-141629239D01*
X276207507Y-141698853D01*
X276174901Y-141760648D01*
X276114062Y-141795005D01*
X276085977Y-141798227D01*
X275436025Y-141798227D01*
X275368986Y-141778542D01*
X275323231Y-141725738D01*
X275313287Y-141656580D01*
X275342312Y-141593024D01*
X275363136Y-141573910D01*
X275383693Y-141558976D01*
X275513871Y-141414399D01*
X275611145Y-141245915D01*
X275643070Y-141147659D01*
X275682507Y-141089983D01*
X275746865Y-141062784D01*
X275815712Y-141074698D01*
G37*
%TD.AperFunction*%
%TA.AperFunction,NonConductor*%
G36*
X273815712Y-141074698D02*
G01*
X273867188Y-141121942D01*
X273878932Y-141147659D01*
X273910856Y-141245914D01*
X273910858Y-141245918D01*
X273948997Y-141311976D01*
X274008131Y-141414399D01*
X274047752Y-141458402D01*
X274138303Y-141558971D01*
X274138306Y-141558973D01*
X274138309Y-141558976D01*
X274158863Y-141573909D01*
X274201528Y-141629239D01*
X274207507Y-141698853D01*
X274174901Y-141760648D01*
X274114062Y-141795005D01*
X274085977Y-141798227D01*
X273436025Y-141798227D01*
X273368986Y-141778542D01*
X273323231Y-141725738D01*
X273313287Y-141656580D01*
X273342312Y-141593024D01*
X273363136Y-141573910D01*
X273383693Y-141558976D01*
X273513871Y-141414399D01*
X273611145Y-141245915D01*
X273643070Y-141147659D01*
X273682507Y-141089983D01*
X273746865Y-141062784D01*
X273815712Y-141074698D01*
G37*
%TD.AperFunction*%
%TA.AperFunction,NonConductor*%
G36*
X271815712Y-141074698D02*
G01*
X271867188Y-141121942D01*
X271878932Y-141147659D01*
X271910856Y-141245914D01*
X271910858Y-141245918D01*
X271948997Y-141311976D01*
X272008131Y-141414399D01*
X272047752Y-141458402D01*
X272138303Y-141558971D01*
X272138306Y-141558973D01*
X272138309Y-141558976D01*
X272158863Y-141573909D01*
X272201528Y-141629239D01*
X272207507Y-141698853D01*
X272174901Y-141760648D01*
X272114062Y-141795005D01*
X272085977Y-141798227D01*
X271436025Y-141798227D01*
X271368986Y-141778542D01*
X271323231Y-141725738D01*
X271313287Y-141656580D01*
X271342312Y-141593024D01*
X271363136Y-141573910D01*
X271383693Y-141558976D01*
X271513871Y-141414399D01*
X271611145Y-141245915D01*
X271643070Y-141147659D01*
X271682507Y-141089983D01*
X271746865Y-141062784D01*
X271815712Y-141074698D01*
G37*
%TD.AperFunction*%
%TA.AperFunction,NonConductor*%
G36*
X254707703Y-147600680D02*
G01*
X254738881Y-147641986D01*
X254763319Y-147694393D01*
X254820097Y-147816156D01*
X254820098Y-147816157D01*
X254945602Y-147995395D01*
X255100323Y-148150116D01*
X255279561Y-148275620D01*
X255387893Y-148326136D01*
X255440332Y-148372308D01*
X255459484Y-148439502D01*
X255439268Y-148506383D01*
X255387893Y-148550900D01*
X255279562Y-148601416D01*
X255279557Y-148601418D01*
X255100321Y-148726920D01*
X254945602Y-148881639D01*
X254820100Y-149060875D01*
X254820098Y-149060879D01*
X254738882Y-149235047D01*
X254692709Y-149287486D01*
X254625516Y-149306638D01*
X254558635Y-149286422D01*
X254513300Y-149233257D01*
X254502500Y-149182642D01*
X254502500Y-147694393D01*
X254522185Y-147627354D01*
X254574989Y-147581599D01*
X254644147Y-147571655D01*
X254707703Y-147600680D01*
G37*
%TD.AperFunction*%
M02*
