%TF.GenerationSoftware,KiCad,Pcbnew,7.0.6*%
%TF.CreationDate,2023-12-14T14:37:07-08:00*%
%TF.ProjectId,UGC_SubStick,5547435f-5375-4625-9374-69636b2e6b69,rev?*%
%TF.SameCoordinates,Original*%
%TF.FileFunction,Copper,L1,Top*%
%TF.FilePolarity,Positive*%
%FSLAX46Y46*%
G04 Gerber Fmt 4.6, Leading zero omitted, Abs format (unit mm)*
G04 Created by KiCad (PCBNEW 7.0.6) date 2023-12-14 14:37:07*
%MOMM*%
%LPD*%
G01*
G04 APERTURE LIST*
G04 Aperture macros list*
%AMRoundRect*
0 Rectangle with rounded corners*
0 $1 Rounding radius*
0 $2 $3 $4 $5 $6 $7 $8 $9 X,Y pos of 4 corners*
0 Add a 4 corners polygon primitive as box body*
4,1,4,$2,$3,$4,$5,$6,$7,$8,$9,$2,$3,0*
0 Add four circle primitives for the rounded corners*
1,1,$1+$1,$2,$3*
1,1,$1+$1,$4,$5*
1,1,$1+$1,$6,$7*
1,1,$1+$1,$8,$9*
0 Add four rect primitives between the rounded corners*
20,1,$1+$1,$2,$3,$4,$5,0*
20,1,$1+$1,$4,$5,$6,$7,0*
20,1,$1+$1,$6,$7,$8,$9,0*
20,1,$1+$1,$8,$9,$2,$3,0*%
G04 Aperture macros list end*
%TA.AperFunction,SMDPad,CuDef*%
%ADD10R,1.000000X1.000000*%
%TD*%
%TA.AperFunction,SMDPad,CuDef*%
%ADD11RoundRect,0.237500X-0.300000X-0.237500X0.300000X-0.237500X0.300000X0.237500X-0.300000X0.237500X0*%
%TD*%
%TA.AperFunction,SMDPad,CuDef*%
%ADD12RoundRect,0.100000X-0.130000X-0.100000X0.130000X-0.100000X0.130000X0.100000X-0.130000X0.100000X0*%
%TD*%
%TA.AperFunction,ComponentPad*%
%ADD13C,1.750000*%
%TD*%
%TA.AperFunction,ComponentPad*%
%ADD14C,1.250000*%
%TD*%
%TA.AperFunction,ComponentPad*%
%ADD15R,1.350000X1.350000*%
%TD*%
%TA.AperFunction,ComponentPad*%
%ADD16O,1.350000X1.350000*%
%TD*%
%TA.AperFunction,SMDPad,CuDef*%
%ADD17RoundRect,0.237500X-0.237500X0.300000X-0.237500X-0.300000X0.237500X-0.300000X0.237500X0.300000X0*%
%TD*%
%TA.AperFunction,SMDPad,CuDef*%
%ADD18RoundRect,0.100000X0.100000X-0.130000X0.100000X0.130000X-0.100000X0.130000X-0.100000X-0.130000X0*%
%TD*%
%TA.AperFunction,ViaPad*%
%ADD19C,0.800000*%
%TD*%
%TA.AperFunction,Conductor*%
%ADD20C,0.250000*%
%TD*%
G04 APERTURE END LIST*
D10*
%TO.P,U2,1,VDD*%
%TO.N,+3V3*%
X256307200Y-150638518D03*
%TO.P,U2,2,VOUT*%
%TO.N,Net-(U2-VOUT)*%
X256307200Y-148738518D03*
%TO.P,U2,3,GND*%
%TO.N,GND*%
X253807200Y-149688518D03*
%TD*%
%TO.P,U1,1,VDD*%
%TO.N,+3V3*%
X246257200Y-158788518D03*
%TO.P,U1,2,VOUT*%
%TO.N,Net-(U1-VOUT)*%
X248157200Y-158788518D03*
%TO.P,U1,3,GND*%
%TO.N,GND*%
X247207200Y-156288518D03*
%TD*%
D11*
%TO.P,C1,1*%
%TO.N,GND*%
X247437500Y-161100000D03*
%TO.P,C1,2*%
%TO.N,RX*%
X249162500Y-161100000D03*
%TD*%
D12*
%TO.P,R1,1*%
%TO.N,Net-(U1-VOUT)*%
X248580000Y-160000000D03*
%TO.P,R1,2*%
%TO.N,RX*%
X249220000Y-160000000D03*
%TD*%
D13*
%TO.P,SW1,*%
%TO.N,*%
X242207200Y-143363518D03*
X242207200Y-156013518D03*
X252207200Y-143363518D03*
X252207200Y-156013518D03*
D14*
%TO.P,SW1,S1,1*%
%TO.N,RS_B_OUT*%
X241557200Y-146438518D03*
%TO.P,SW1,S2,2*%
X241557200Y-152938518D03*
%TO.P,SW1,S3,3*%
%TO.N,RS_B_IN*%
X237057200Y-146438518D03*
%TO.P,SW1,S4,4*%
X237057200Y-152938518D03*
%TD*%
D15*
%TO.P,J1,1,Pin_1*%
%TO.N,GND*%
X280761001Y-140867407D03*
D16*
%TO.P,J1,2,Pin_2*%
%TO.N,RS_B_OUT*%
X278761001Y-140867407D03*
%TO.P,J1,3,Pin_3*%
%TO.N,RS_B_IN*%
X276761001Y-140867407D03*
%TO.P,J1,4,Pin_4*%
%TO.N,RY*%
X274761001Y-140867407D03*
%TO.P,J1,5,Pin_5*%
%TO.N,RX*%
X272761001Y-140867407D03*
%TO.P,J1,6,Pin_6*%
%TO.N,+3V3*%
X270761001Y-140867407D03*
%TD*%
D17*
%TO.P,C2,1*%
%TO.N,GND*%
X258100000Y-145037500D03*
%TO.P,C2,2*%
%TO.N,RY*%
X258100000Y-146762500D03*
%TD*%
D18*
%TO.P,R2,1*%
%TO.N,Net-(U2-VOUT)*%
X257650000Y-148720000D03*
%TO.P,R2,2*%
%TO.N,RY*%
X257650000Y-148080000D03*
%TD*%
D19*
%TO.N,GND*%
X280000000Y-138900000D03*
X275950000Y-138850000D03*
%TO.N,RS_B_IN*%
X241600000Y-139425000D03*
X277750000Y-134750000D03*
X246775000Y-139425000D03*
%TO.N,RS_B_OUT*%
X278850000Y-134600000D03*
%TO.N,RY*%
X277250000Y-137800000D03*
%TO.N,RX*%
X274775000Y-136875000D03*
%TO.N,+3V3*%
X256400000Y-152500000D03*
X244700000Y-158650000D03*
X275925000Y-135375000D03*
%TD*%
D20*
%TO.N,RS_B_IN*%
X237057200Y-142467800D02*
X237057200Y-146438518D01*
X277750000Y-134750000D02*
X278200000Y-135200000D01*
X257275000Y-134550000D02*
X252400000Y-139425000D01*
X241600000Y-139425000D02*
X240100000Y-139425000D01*
X278200000Y-138550000D02*
X276761001Y-139988999D01*
X277550000Y-134550000D02*
X257275000Y-134550000D01*
X278200000Y-135200000D02*
X278200000Y-138550000D01*
X276761001Y-139988999D02*
X276761001Y-140867407D01*
X277750000Y-134750000D02*
X277550000Y-134550000D01*
X237057200Y-146438518D02*
X237057200Y-152938518D01*
X252400000Y-139425000D02*
X246775000Y-139425000D01*
X240100000Y-139425000D02*
X237057200Y-142467800D01*
%TO.N,RS_B_OUT*%
X242950000Y-140725000D02*
X240750000Y-140725000D01*
X278700000Y-140806406D02*
X278761001Y-140867407D01*
X278850000Y-134600000D02*
X278650000Y-134600000D01*
X241557200Y-152938518D02*
X241557200Y-146438518D01*
X257075000Y-134025000D02*
X252575000Y-138525000D01*
X278850000Y-134600000D02*
X278700000Y-134750000D01*
X252575000Y-138525000D02*
X245150000Y-138525000D01*
X239300000Y-144600000D02*
X241138518Y-146438518D01*
X240750000Y-140725000D02*
X239300000Y-142175000D01*
X278650000Y-134600000D02*
X278075000Y-134025000D01*
X241138518Y-146438518D02*
X241557200Y-146438518D01*
X278075000Y-134025000D02*
X257075000Y-134025000D01*
X239300000Y-142175000D02*
X239300000Y-144600000D01*
X278700000Y-134750000D02*
X278700000Y-140806406D01*
X245150000Y-138525000D02*
X242950000Y-140725000D01*
%TO.N,RY*%
X257945000Y-148080000D02*
X258100000Y-147925000D01*
X258100000Y-146762500D02*
X258687500Y-146762500D01*
X259775000Y-145675000D02*
X259775000Y-143775000D01*
X258100000Y-147925000D02*
X258100000Y-146762500D01*
X257850000Y-136675000D02*
X259500000Y-135025000D01*
X258687500Y-146762500D02*
X259775000Y-145675000D01*
X257850000Y-141850000D02*
X257850000Y-136675000D01*
X274475000Y-135025000D02*
X277250000Y-137800000D01*
X259500000Y-135025000D02*
X274475000Y-135025000D01*
X257650000Y-148080000D02*
X257945000Y-148080000D01*
X259775000Y-143775000D02*
X257850000Y-141850000D01*
%TO.N,RX*%
X273375000Y-135475000D02*
X259825000Y-135475000D01*
X258350000Y-136950000D02*
X258350000Y-141675000D01*
X249162500Y-160057500D02*
X249220000Y-160000000D01*
X258000000Y-153050000D02*
X258000000Y-154250000D01*
X251150000Y-161100000D02*
X249162500Y-161100000D01*
X258350000Y-141675000D02*
X260300000Y-143625000D01*
X274775000Y-136875000D02*
X273375000Y-135475000D01*
X260300000Y-143625000D02*
X260300000Y-150750000D01*
X258000000Y-154250000D02*
X251150000Y-161100000D01*
X249162500Y-161100000D02*
X249162500Y-160057500D01*
X260300000Y-150750000D02*
X258000000Y-153050000D01*
X259825000Y-135475000D02*
X258350000Y-136950000D01*
%TO.N,+3V3*%
X246257200Y-158788518D02*
X244838518Y-158788518D01*
X256400000Y-152500000D02*
X256400000Y-150731318D01*
X244838518Y-158788518D02*
X244700000Y-158650000D01*
X256400000Y-150731318D02*
X256307200Y-150638518D01*
%TO.N,Net-(U1-VOUT)*%
X248157200Y-158788518D02*
X248580000Y-159211318D01*
X248580000Y-159211318D02*
X248580000Y-160000000D01*
%TO.N,Net-(U2-VOUT)*%
X257650000Y-148720000D02*
X256325718Y-148720000D01*
X256325718Y-148720000D02*
X256307200Y-148738518D01*
%TD*%
%TA.AperFunction,Conductor*%
%TO.N,GND*%
G36*
X280797429Y-133176744D02*
G01*
X280821744Y-133178337D01*
X280879174Y-133182101D01*
X281060864Y-133195097D01*
X281068514Y-133196128D01*
X281184857Y-133219271D01*
X281329058Y-133250641D01*
X281335785Y-133252508D01*
X281454854Y-133292927D01*
X281587137Y-133342267D01*
X281592891Y-133344751D01*
X281708361Y-133401695D01*
X281830313Y-133468287D01*
X281835043Y-133471151D01*
X281942055Y-133542656D01*
X281944759Y-133544569D01*
X282054041Y-133626377D01*
X282057761Y-133629393D01*
X282154893Y-133714576D01*
X282157855Y-133717350D01*
X282254160Y-133813656D01*
X282256934Y-133816618D01*
X282342123Y-133913759D01*
X282345133Y-133917471D01*
X282357675Y-133934224D01*
X282426934Y-134026746D01*
X282428852Y-134029456D01*
X282500361Y-134136476D01*
X282503227Y-134141211D01*
X282524231Y-134179677D01*
X282569823Y-134263174D01*
X282626754Y-134378624D01*
X282629240Y-134384382D01*
X282678587Y-134516689D01*
X282718989Y-134635710D01*
X282720864Y-134642466D01*
X282752240Y-134786700D01*
X282775374Y-134903005D01*
X282776408Y-134910681D01*
X282789247Y-135090025D01*
X282794777Y-135174405D01*
X282794910Y-135178461D01*
X282794910Y-139796200D01*
X282794777Y-139800257D01*
X282789428Y-139881836D01*
X282776420Y-140063667D01*
X282775386Y-140071347D01*
X282752256Y-140187626D01*
X282720875Y-140331869D01*
X282719000Y-140338623D01*
X282678598Y-140457645D01*
X282629247Y-140589954D01*
X282626761Y-140595712D01*
X282569824Y-140711169D01*
X282503223Y-140833135D01*
X282500357Y-140837869D01*
X282428870Y-140944854D01*
X282426952Y-140947564D01*
X282345142Y-141056848D01*
X282342122Y-141060573D01*
X282256926Y-141157720D01*
X282254152Y-141160682D01*
X282157874Y-141256960D01*
X282154912Y-141259733D01*
X282141761Y-141271267D01*
X282078380Y-141300670D01*
X282009163Y-141291140D01*
X281956087Y-141245700D01*
X281936003Y-141178779D01*
X281936001Y-141178040D01*
X281936001Y-141117407D01*
X281076687Y-141117407D01*
X281088642Y-141105452D01*
X281146166Y-140992555D01*
X281165987Y-140867407D01*
X281146166Y-140742259D01*
X281088642Y-140629362D01*
X281076687Y-140617407D01*
X281936001Y-140617407D01*
X281936001Y-140144579D01*
X281936000Y-140144562D01*
X281929599Y-140085034D01*
X281929597Y-140085027D01*
X281879355Y-139950320D01*
X281879351Y-139950313D01*
X281793191Y-139835219D01*
X281793188Y-139835216D01*
X281678094Y-139749056D01*
X281678087Y-139749052D01*
X281543380Y-139698810D01*
X281543373Y-139698808D01*
X281483845Y-139692407D01*
X281011001Y-139692407D01*
X281011001Y-140551721D01*
X280999046Y-140539766D01*
X280886149Y-140482242D01*
X280792482Y-140467407D01*
X280729520Y-140467407D01*
X280635853Y-140482242D01*
X280522956Y-140539766D01*
X280511001Y-140551721D01*
X280511001Y-139692407D01*
X280038156Y-139692407D01*
X279978628Y-139698808D01*
X279978621Y-139698810D01*
X279843914Y-139749052D01*
X279843907Y-139749056D01*
X279728813Y-139835216D01*
X279728810Y-139835219D01*
X279642650Y-139950313D01*
X279642646Y-139950320D01*
X279592404Y-140085027D01*
X279592403Y-140085032D01*
X279591018Y-140097908D01*
X279564276Y-140162458D01*
X279506881Y-140202303D01*
X279437056Y-140204792D01*
X279389272Y-140179213D01*
X279388950Y-140179658D01*
X279385723Y-140177313D01*
X279384758Y-140176797D01*
X279383695Y-140175840D01*
X279383694Y-140175839D01*
X279383693Y-140175838D01*
X279226300Y-140061485D01*
X279226296Y-140061482D01*
X279149064Y-140027096D01*
X279095827Y-139981846D01*
X279075506Y-139914997D01*
X279075500Y-139913817D01*
X279075500Y-135291259D01*
X279095185Y-135224220D01*
X279141874Y-135181463D01*
X279159147Y-135172397D01*
X279222240Y-135139283D01*
X279340483Y-135034530D01*
X279430220Y-134904523D01*
X279486237Y-134756818D01*
X279505278Y-134600000D01*
X279486237Y-134443182D01*
X279480756Y-134428731D01*
X279461753Y-134378624D01*
X279430220Y-134295477D01*
X279340483Y-134165470D01*
X279222240Y-134060717D01*
X279222238Y-134060716D01*
X279222237Y-134060715D01*
X279082365Y-133987303D01*
X278928986Y-133949500D01*
X278928985Y-133949500D01*
X278771015Y-133949500D01*
X278771014Y-133949500D01*
X278645991Y-133980314D01*
X278576189Y-133977244D01*
X278528636Y-133947598D01*
X278377149Y-133796111D01*
X278361022Y-133776252D01*
X278355086Y-133767167D01*
X278355083Y-133767163D01*
X278327074Y-133745363D01*
X278321310Y-133740272D01*
X278318515Y-133737477D01*
X278299505Y-133723906D01*
X278297733Y-133722527D01*
X278287518Y-133714576D01*
X278256189Y-133690190D01*
X278249274Y-133686448D01*
X278242200Y-133682990D01*
X278189596Y-133667329D01*
X278137658Y-133649499D01*
X278129923Y-133648208D01*
X278122085Y-133647231D01*
X278067244Y-133649500D01*
X257126804Y-133649500D01*
X257101359Y-133646861D01*
X257090733Y-133644633D01*
X257090730Y-133644633D01*
X257055508Y-133649023D01*
X257047832Y-133649500D01*
X257043886Y-133649500D01*
X257026615Y-133652381D01*
X257020858Y-133653342D01*
X256966370Y-133660134D01*
X256958857Y-133662371D01*
X256951387Y-133664936D01*
X256903122Y-133691055D01*
X256853792Y-133715171D01*
X256847375Y-133719753D01*
X256841175Y-133724579D01*
X256803991Y-133764971D01*
X252455781Y-138113181D01*
X252394458Y-138146666D01*
X252368100Y-138149500D01*
X245201803Y-138149500D01*
X245176358Y-138146861D01*
X245165732Y-138144633D01*
X245165729Y-138144633D01*
X245130507Y-138149023D01*
X245122831Y-138149500D01*
X245118886Y-138149500D01*
X245101615Y-138152381D01*
X245095858Y-138153342D01*
X245041370Y-138160134D01*
X245033857Y-138162371D01*
X245026387Y-138164936D01*
X244978122Y-138191055D01*
X244928792Y-138215171D01*
X244922375Y-138219753D01*
X244916175Y-138224579D01*
X244878992Y-138264970D01*
X242830781Y-140313181D01*
X242769458Y-140346666D01*
X242743100Y-140349500D01*
X240801803Y-140349500D01*
X240776358Y-140346861D01*
X240765732Y-140344633D01*
X240765729Y-140344633D01*
X240730507Y-140349023D01*
X240722831Y-140349500D01*
X240718886Y-140349500D01*
X240705185Y-140351786D01*
X240695858Y-140353342D01*
X240641370Y-140360134D01*
X240633857Y-140362371D01*
X240626387Y-140364936D01*
X240578122Y-140391055D01*
X240528792Y-140415171D01*
X240522375Y-140419753D01*
X240516175Y-140424579D01*
X240478992Y-140464970D01*
X239071108Y-141872852D01*
X239051254Y-141888976D01*
X239042165Y-141894914D01*
X239042164Y-141894915D01*
X239020363Y-141922923D01*
X239015286Y-141928674D01*
X239012484Y-141931477D01*
X239012474Y-141931488D01*
X238998905Y-141950495D01*
X238965192Y-141993808D01*
X238961447Y-142000729D01*
X238957988Y-142007804D01*
X238942328Y-142060404D01*
X238924500Y-142112338D01*
X238923208Y-142120078D01*
X238922232Y-142127912D01*
X238924500Y-142182756D01*
X238924500Y-144548196D01*
X238921862Y-144573634D01*
X238919633Y-144584268D01*
X238919633Y-144584269D01*
X238919633Y-144584271D01*
X238924023Y-144619491D01*
X238924500Y-144627167D01*
X238924500Y-144631116D01*
X238928342Y-144654141D01*
X238935134Y-144708627D01*
X238937373Y-144716147D01*
X238939934Y-144723608D01*
X238939935Y-144723610D01*
X238946500Y-144735741D01*
X238966055Y-144771877D01*
X238990174Y-144821211D01*
X238994742Y-144827609D01*
X238999582Y-144833827D01*
X239039971Y-144871009D01*
X240653978Y-146485015D01*
X240687463Y-146546338D01*
X240689617Y-146559730D01*
X240690262Y-146565859D01*
X240696115Y-146621549D01*
X240696116Y-146621551D01*
X240752983Y-146796571D01*
X240752986Y-146796577D01*
X240845005Y-146955958D01*
X240850595Y-146962166D01*
X240968149Y-147092724D01*
X240968151Y-147092726D01*
X241117030Y-147200893D01*
X241117033Y-147200895D01*
X241117039Y-147200899D01*
X241117045Y-147200901D01*
X241119694Y-147202431D01*
X241120928Y-147203725D01*
X241122296Y-147204719D01*
X241122114Y-147204969D01*
X241167912Y-147252995D01*
X241181700Y-147309822D01*
X241181699Y-152067213D01*
X241162014Y-152134252D01*
X241122214Y-152172204D01*
X241122296Y-152172317D01*
X241121459Y-152172924D01*
X241119708Y-152174595D01*
X241117040Y-152176135D01*
X240968151Y-152284309D01*
X240968149Y-152284311D01*
X240845004Y-152421079D01*
X240752986Y-152580458D01*
X240752983Y-152580464D01*
X240698596Y-152747852D01*
X240696115Y-152755489D01*
X240683477Y-152875729D01*
X240676931Y-152938018D01*
X240676878Y-152938518D01*
X240696115Y-153121547D01*
X240696116Y-153121550D01*
X240752983Y-153296571D01*
X240752986Y-153296577D01*
X240845005Y-153455958D01*
X240954526Y-153577595D01*
X240968149Y-153592724D01*
X240968151Y-153592726D01*
X241117034Y-153700896D01*
X241117035Y-153700896D01*
X241117039Y-153700899D01*
X241254153Y-153761946D01*
X241285161Y-153775752D01*
X241285166Y-153775754D01*
X241465181Y-153814018D01*
X241649219Y-153814018D01*
X241829234Y-153775754D01*
X241997361Y-153700899D01*
X242146250Y-153592725D01*
X242269395Y-153455958D01*
X242361414Y-153296577D01*
X242418285Y-153121547D01*
X242437522Y-152938518D01*
X242418285Y-152755489D01*
X242376667Y-152627402D01*
X242361416Y-152580464D01*
X242361413Y-152580458D01*
X242269395Y-152421078D01*
X242146250Y-152284311D01*
X242146248Y-152284309D01*
X241997362Y-152176137D01*
X241994701Y-152174601D01*
X241993468Y-152173308D01*
X241992104Y-152172317D01*
X241992285Y-152172067D01*
X241946485Y-152124035D01*
X241932700Y-152067217D01*
X241932700Y-151163194D01*
X255556699Y-151163194D01*
X255556700Y-151163196D01*
X255571232Y-151236253D01*
X255571233Y-151236257D01*
X255571234Y-151236258D01*
X255626599Y-151319119D01*
X255709459Y-151374483D01*
X255709460Y-151374484D01*
X255709464Y-151374485D01*
X255782521Y-151389017D01*
X255782524Y-151389018D01*
X255782526Y-151389018D01*
X255900500Y-151389018D01*
X255967539Y-151408703D01*
X256013294Y-151461507D01*
X256024500Y-151513018D01*
X256024500Y-151907796D01*
X256004815Y-151974835D01*
X255982727Y-152000611D01*
X255909518Y-152065468D01*
X255819781Y-152195475D01*
X255819780Y-152195476D01*
X255763762Y-152343181D01*
X255744722Y-152499999D01*
X255744722Y-152500000D01*
X255763762Y-152656818D01*
X255806655Y-152769915D01*
X255819780Y-152804523D01*
X255909517Y-152934530D01*
X256027760Y-153039283D01*
X256027762Y-153039284D01*
X256167634Y-153112696D01*
X256321014Y-153150500D01*
X256321015Y-153150500D01*
X256478985Y-153150500D01*
X256632365Y-153112696D01*
X256635915Y-153110833D01*
X256772240Y-153039283D01*
X256890483Y-152934530D01*
X256980220Y-152804523D01*
X257036237Y-152656818D01*
X257055278Y-152500000D01*
X257036237Y-152343182D01*
X257024856Y-152313174D01*
X257013909Y-152284309D01*
X256980220Y-152195477D01*
X256890483Y-152065470D01*
X256890481Y-152065468D01*
X256817273Y-152000611D01*
X256780146Y-151941422D01*
X256775500Y-151907796D01*
X256775500Y-151501995D01*
X256795185Y-151434956D01*
X256847989Y-151389201D01*
X256875305Y-151380378D01*
X256904940Y-151374484D01*
X256987801Y-151319119D01*
X257043166Y-151236258D01*
X257057700Y-151163192D01*
X257057700Y-150113844D01*
X257057700Y-150113841D01*
X257057699Y-150113839D01*
X257043167Y-150040782D01*
X257043166Y-150040778D01*
X257011270Y-149993042D01*
X256987801Y-149957917D01*
X256904940Y-149902552D01*
X256904939Y-149902551D01*
X256904935Y-149902550D01*
X256831877Y-149888018D01*
X256831874Y-149888018D01*
X255782526Y-149888018D01*
X255782523Y-149888018D01*
X255709464Y-149902550D01*
X255709460Y-149902551D01*
X255626599Y-149957917D01*
X255571233Y-150040778D01*
X255571232Y-150040782D01*
X255556700Y-150113839D01*
X255556699Y-150113841D01*
X255556699Y-151163194D01*
X241932700Y-151163194D01*
X241932700Y-149727132D01*
X241943727Y-149689575D01*
X241941547Y-149685066D01*
X242171093Y-149685066D01*
X242175677Y-149692198D01*
X242179795Y-149712185D01*
X242195963Y-149845336D01*
X242251980Y-149993041D01*
X242341717Y-150123048D01*
X242459960Y-150227801D01*
X242599835Y-150301214D01*
X242623549Y-150307058D01*
X242627840Y-150308283D01*
X242630536Y-150309158D01*
X242630541Y-150309161D01*
X242630545Y-150309161D01*
X242630546Y-150309162D01*
X242635727Y-150310151D01*
X242638945Y-150310854D01*
X242753214Y-150339018D01*
X242775052Y-150339018D01*
X242780143Y-150340513D01*
X242801955Y-150339140D01*
X242805850Y-150339018D01*
X242911183Y-150339018D01*
X242911185Y-150339018D01*
X242930496Y-150334258D01*
X242938834Y-150334624D01*
X242947047Y-150331956D01*
X242947067Y-150331951D01*
X242954481Y-150329542D01*
X242954482Y-150329542D01*
X242967581Y-150325285D01*
X242971885Y-150324056D01*
X243064565Y-150301214D01*
X243081632Y-150292256D01*
X243092620Y-150290053D01*
X243103448Y-150283183D01*
X243103489Y-150283160D01*
X243110052Y-150278994D01*
X243110056Y-150278993D01*
X243123012Y-150270770D01*
X243127359Y-150268256D01*
X243204440Y-150227801D01*
X243219098Y-150214814D01*
X243231678Y-150208901D01*
X243242820Y-150197037D01*
X243242850Y-150197009D01*
X243248169Y-150191343D01*
X243248172Y-150191342D01*
X243258996Y-150179814D01*
X243263049Y-150175877D01*
X243322683Y-150123048D01*
X243334347Y-150106148D01*
X243347120Y-150095796D01*
X243356384Y-150078945D01*
X243356398Y-150078924D01*
X243360151Y-150072097D01*
X243367633Y-150058486D01*
X243370925Y-150053156D01*
X243412420Y-149993041D01*
X243420211Y-149972496D01*
X243431578Y-149957483D01*
X243435061Y-149943918D01*
X243446504Y-149915014D01*
X243452400Y-149904289D01*
X243458447Y-149871676D01*
X243468437Y-149845336D01*
X243475185Y-149789755D01*
X243476675Y-149781843D01*
X243479637Y-149770308D01*
X243479637Y-149770304D01*
X243481331Y-149763710D01*
X243481335Y-149763688D01*
X243486214Y-149744684D01*
X243484361Y-149714185D01*
X243484611Y-149712126D01*
X243487478Y-149688518D01*
X250926922Y-149688518D01*
X250945962Y-149845336D01*
X250988659Y-149957917D01*
X251001980Y-149993041D01*
X251091717Y-150123048D01*
X251209960Y-150227801D01*
X251349835Y-150301214D01*
X251373549Y-150307058D01*
X251377840Y-150308283D01*
X251380536Y-150309158D01*
X251380541Y-150309161D01*
X251380545Y-150309161D01*
X251380546Y-150309162D01*
X251385727Y-150310151D01*
X251388945Y-150310854D01*
X251503214Y-150339018D01*
X251525052Y-150339018D01*
X251530143Y-150340513D01*
X251551955Y-150339140D01*
X251555850Y-150339018D01*
X251661183Y-150339018D01*
X251661185Y-150339018D01*
X251680496Y-150334258D01*
X251688834Y-150334624D01*
X251697047Y-150331956D01*
X251697067Y-150331951D01*
X251704481Y-150329542D01*
X251704482Y-150329542D01*
X251717581Y-150325285D01*
X251721885Y-150324056D01*
X251814565Y-150301214D01*
X251831632Y-150292256D01*
X251842620Y-150290053D01*
X251853448Y-150283183D01*
X251853489Y-150283160D01*
X251860052Y-150278994D01*
X251860056Y-150278993D01*
X251873012Y-150270770D01*
X251877359Y-150268256D01*
X251954440Y-150227801D01*
X251969098Y-150214814D01*
X251981678Y-150208901D01*
X251992820Y-150197037D01*
X251992850Y-150197009D01*
X251998169Y-150191343D01*
X251998172Y-150191342D01*
X252008996Y-150179814D01*
X252013049Y-150175877D01*
X252072683Y-150123048D01*
X252084347Y-150106148D01*
X252097120Y-150095796D01*
X252106384Y-150078945D01*
X252106398Y-150078924D01*
X252110151Y-150072097D01*
X252117633Y-150058486D01*
X252120925Y-150053156D01*
X252162420Y-149993041D01*
X252170211Y-149972496D01*
X252181578Y-149957483D01*
X252185061Y-149943918D01*
X252187199Y-149938518D01*
X252807200Y-149938518D01*
X252807200Y-150236362D01*
X252813601Y-150295890D01*
X252813603Y-150295897D01*
X252863845Y-150430604D01*
X252863849Y-150430611D01*
X252950009Y-150545705D01*
X252950012Y-150545708D01*
X253065106Y-150631868D01*
X253065113Y-150631872D01*
X253199820Y-150682114D01*
X253199827Y-150682116D01*
X253259355Y-150688517D01*
X253259372Y-150688518D01*
X253557200Y-150688518D01*
X253557200Y-149938518D01*
X254057200Y-149938518D01*
X254057200Y-150688518D01*
X254355028Y-150688518D01*
X254355044Y-150688517D01*
X254414572Y-150682116D01*
X254414579Y-150682114D01*
X254549286Y-150631872D01*
X254549293Y-150631868D01*
X254664387Y-150545708D01*
X254664390Y-150545705D01*
X254750550Y-150430611D01*
X254750554Y-150430604D01*
X254800796Y-150295897D01*
X254800798Y-150295890D01*
X254807199Y-150236362D01*
X254807200Y-150236345D01*
X254807200Y-149938518D01*
X254057200Y-149938518D01*
X253557200Y-149938518D01*
X252807200Y-149938518D01*
X252187199Y-149938518D01*
X252196504Y-149915014D01*
X252202400Y-149904289D01*
X252208447Y-149871676D01*
X252218437Y-149845336D01*
X252225185Y-149789755D01*
X252226675Y-149781843D01*
X252229637Y-149770308D01*
X252229637Y-149770304D01*
X252231331Y-149763710D01*
X252231335Y-149763688D01*
X252236214Y-149744684D01*
X252234361Y-149714185D01*
X252234611Y-149712126D01*
X252237478Y-149688518D01*
X252234360Y-149662844D01*
X252238166Y-149639952D01*
X252231334Y-149613342D01*
X252231332Y-149613332D01*
X252229637Y-149606730D01*
X252229637Y-149606728D01*
X252226678Y-149595206D01*
X252225183Y-149587265D01*
X252218437Y-149531700D01*
X252208446Y-149505358D01*
X252206509Y-149480217D01*
X252196505Y-149462020D01*
X252187200Y-149438518D01*
X252807200Y-149438518D01*
X253557200Y-149438518D01*
X253557200Y-148688518D01*
X254057200Y-148688518D01*
X254057200Y-149438518D01*
X254807200Y-149438518D01*
X254807200Y-149140690D01*
X254807199Y-149140673D01*
X254800798Y-149081145D01*
X254800796Y-149081138D01*
X254750554Y-148946431D01*
X254750550Y-148946424D01*
X254664390Y-148831330D01*
X254664387Y-148831327D01*
X254549293Y-148745167D01*
X254549286Y-148745163D01*
X254414579Y-148694921D01*
X254414572Y-148694919D01*
X254355044Y-148688518D01*
X254057200Y-148688518D01*
X253557200Y-148688518D01*
X253259355Y-148688518D01*
X253199827Y-148694919D01*
X253199820Y-148694921D01*
X253065113Y-148745163D01*
X253065106Y-148745167D01*
X252950012Y-148831327D01*
X252950009Y-148831330D01*
X252863849Y-148946424D01*
X252863845Y-148946431D01*
X252813603Y-149081138D01*
X252813601Y-149081145D01*
X252807200Y-149140673D01*
X252807200Y-149438518D01*
X252187200Y-149438518D01*
X252185062Y-149433118D01*
X252183161Y-149425715D01*
X252170212Y-149404540D01*
X252162420Y-149383995D01*
X252150834Y-149367210D01*
X252120934Y-149323891D01*
X252117631Y-149318546D01*
X252106393Y-149298103D01*
X252099799Y-149286109D01*
X252084348Y-149270888D01*
X252072684Y-149253989D01*
X252070706Y-149252237D01*
X252013061Y-149201168D01*
X252008986Y-149197209D01*
X252002754Y-149190573D01*
X251995283Y-149182616D01*
X251995253Y-149182588D01*
X251984894Y-149171557D01*
X251969101Y-149162224D01*
X251954440Y-149149235D01*
X251954436Y-149149233D01*
X251954435Y-149149232D01*
X251877381Y-149108789D01*
X251872975Y-149106241D01*
X251856136Y-149095555D01*
X251856128Y-149095551D01*
X251845825Y-149089013D01*
X251831639Y-149084783D01*
X251814565Y-149075822D01*
X251814564Y-149075821D01*
X251814563Y-149075821D01*
X251721900Y-149052981D01*
X251717574Y-149051747D01*
X251706980Y-149048304D01*
X251691521Y-149043281D01*
X251680503Y-149042779D01*
X251669012Y-149039947D01*
X251661185Y-149038018D01*
X251555805Y-149038018D01*
X251551931Y-149037896D01*
X251541224Y-149037223D01*
X251541223Y-149037223D01*
X251537124Y-149036965D01*
X251537084Y-149036965D01*
X251531901Y-149036639D01*
X251525050Y-149038018D01*
X251503212Y-149038018D01*
X251388963Y-149066177D01*
X251385744Y-149066880D01*
X251380553Y-149067870D01*
X251377849Y-149068749D01*
X251373529Y-149069981D01*
X251349832Y-149075822D01*
X251349831Y-149075823D01*
X251209962Y-149149233D01*
X251155808Y-149197209D01*
X251093694Y-149252237D01*
X251091716Y-149253989D01*
X251001981Y-149383993D01*
X251001980Y-149383994D01*
X250945962Y-149531699D01*
X250926922Y-149688517D01*
X250926922Y-149688518D01*
X243487478Y-149688518D01*
X243484360Y-149662844D01*
X243488166Y-149639952D01*
X243481334Y-149613342D01*
X243481332Y-149613332D01*
X243479637Y-149606730D01*
X243479637Y-149606728D01*
X243476678Y-149595206D01*
X243475183Y-149587265D01*
X243468437Y-149531700D01*
X243458446Y-149505358D01*
X243456509Y-149480217D01*
X243446505Y-149462020D01*
X243435062Y-149433118D01*
X243433161Y-149425715D01*
X243420212Y-149404540D01*
X243412420Y-149383995D01*
X243400834Y-149367210D01*
X243370934Y-149323891D01*
X243367631Y-149318546D01*
X243356393Y-149298103D01*
X243349799Y-149286109D01*
X243334348Y-149270888D01*
X243322684Y-149253989D01*
X243320706Y-149252237D01*
X243263061Y-149201168D01*
X243258986Y-149197209D01*
X243252754Y-149190573D01*
X243245283Y-149182616D01*
X243245253Y-149182588D01*
X243234894Y-149171557D01*
X243219101Y-149162224D01*
X243204440Y-149149235D01*
X243204436Y-149149233D01*
X243204435Y-149149232D01*
X243127381Y-149108789D01*
X243122975Y-149106241D01*
X243106136Y-149095555D01*
X243106128Y-149095551D01*
X243095825Y-149089013D01*
X243081639Y-149084783D01*
X243064565Y-149075822D01*
X243064564Y-149075821D01*
X243064563Y-149075821D01*
X242971900Y-149052981D01*
X242967574Y-149051747D01*
X242956980Y-149048304D01*
X242941521Y-149043281D01*
X242930503Y-149042779D01*
X242919012Y-149039947D01*
X242911185Y-149038018D01*
X242805805Y-149038018D01*
X242801931Y-149037896D01*
X242791224Y-149037223D01*
X242791223Y-149037223D01*
X242787124Y-149036965D01*
X242787084Y-149036965D01*
X242781901Y-149036639D01*
X242775050Y-149038018D01*
X242753212Y-149038018D01*
X242638963Y-149066177D01*
X242635744Y-149066880D01*
X242630553Y-149067870D01*
X242627849Y-149068749D01*
X242623529Y-149069981D01*
X242599832Y-149075822D01*
X242599831Y-149075823D01*
X242459962Y-149149233D01*
X242405808Y-149197209D01*
X242343694Y-149252237D01*
X242341716Y-149253989D01*
X242251981Y-149383993D01*
X242251980Y-149383994D01*
X242195962Y-149531699D01*
X242179796Y-149664848D01*
X242171093Y-149685066D01*
X241941547Y-149685066D01*
X241934379Y-149670241D01*
X241932700Y-149649902D01*
X241932700Y-147309822D01*
X241952385Y-147242783D01*
X241992186Y-147204832D01*
X241992104Y-147204719D01*
X241992954Y-147204101D01*
X241994706Y-147202431D01*
X241997350Y-147200903D01*
X241997361Y-147200899D01*
X242146250Y-147092725D01*
X242269395Y-146955958D01*
X242361414Y-146796577D01*
X242418285Y-146621547D01*
X242437522Y-146438518D01*
X242418285Y-146255489D01*
X242374538Y-146120849D01*
X242361416Y-146080464D01*
X242361413Y-146080458D01*
X242269395Y-145921078D01*
X242146250Y-145784311D01*
X242146249Y-145784310D01*
X241997365Y-145676139D01*
X241997362Y-145676137D01*
X241997361Y-145676137D01*
X241903286Y-145634252D01*
X241829238Y-145601283D01*
X241829233Y-145601281D01*
X241649219Y-145563018D01*
X241465181Y-145563018D01*
X241285166Y-145601281D01*
X241117042Y-145676135D01*
X241081162Y-145702202D01*
X241015355Y-145725679D01*
X240947301Y-145709851D01*
X240920599Y-145689562D01*
X240619555Y-145388518D01*
X246151617Y-145388518D01*
X246171899Y-145594450D01*
X246196211Y-145674595D01*
X246231968Y-145792472D01*
X246329515Y-145974968D01*
X246357569Y-146009152D01*
X246460789Y-146134928D01*
X246540979Y-146200737D01*
X246620750Y-146266203D01*
X246803246Y-146363750D01*
X247001266Y-146423818D01*
X247001265Y-146423818D01*
X247010911Y-146424768D01*
X247155592Y-146439018D01*
X247155595Y-146439018D01*
X247258805Y-146439018D01*
X247258808Y-146439018D01*
X247413134Y-146423818D01*
X247611154Y-146363750D01*
X247793650Y-146266203D01*
X247953610Y-146134928D01*
X248084885Y-145974968D01*
X248182432Y-145792472D01*
X248242500Y-145594452D01*
X248262783Y-145388518D01*
X248242500Y-145182584D01*
X248182432Y-144984564D01*
X248084885Y-144802068D01*
X248072929Y-144787500D01*
X257125000Y-144787500D01*
X257850000Y-144787500D01*
X257849999Y-144000000D01*
X258350000Y-144000000D01*
X258350000Y-144787500D01*
X259074999Y-144787500D01*
X259074999Y-144688360D01*
X259074998Y-144688345D01*
X259064680Y-144587347D01*
X259010453Y-144423699D01*
X259010448Y-144423688D01*
X258919947Y-144276965D01*
X258919944Y-144276961D01*
X258798038Y-144155055D01*
X258798034Y-144155052D01*
X258651311Y-144064551D01*
X258651300Y-144064546D01*
X258487652Y-144010319D01*
X258386654Y-144000000D01*
X258350000Y-144000000D01*
X257849999Y-144000000D01*
X257813361Y-144000000D01*
X257813343Y-144000001D01*
X257712347Y-144010319D01*
X257548699Y-144064546D01*
X257548688Y-144064551D01*
X257401965Y-144155052D01*
X257401961Y-144155055D01*
X257280055Y-144276961D01*
X257280052Y-144276965D01*
X257189551Y-144423688D01*
X257189546Y-144423699D01*
X257135319Y-144587347D01*
X257125000Y-144688345D01*
X257125000Y-144787500D01*
X248072929Y-144787500D01*
X248018916Y-144721684D01*
X247953610Y-144642107D01*
X247793652Y-144510835D01*
X247793653Y-144510835D01*
X247793650Y-144510833D01*
X247611154Y-144413286D01*
X247413134Y-144353218D01*
X247413132Y-144353217D01*
X247413134Y-144353217D01*
X247294005Y-144341484D01*
X247258808Y-144338018D01*
X247155592Y-144338018D01*
X247117498Y-144341769D01*
X247001267Y-144353217D01*
X246803243Y-144413287D01*
X246697627Y-144469741D01*
X246620750Y-144510833D01*
X246620748Y-144510834D01*
X246620747Y-144510835D01*
X246460789Y-144642107D01*
X246329517Y-144802065D01*
X246329515Y-144802068D01*
X246309798Y-144838956D01*
X246231969Y-144984561D01*
X246171899Y-145182585D01*
X246151617Y-145388518D01*
X240619555Y-145388518D01*
X240329973Y-145098936D01*
X239711819Y-144480781D01*
X239678334Y-144419458D01*
X239675500Y-144393100D01*
X239675500Y-143388042D01*
X239675500Y-143363518D01*
X241076878Y-143363518D01*
X241096123Y-143571209D01*
X241096123Y-143571211D01*
X241096124Y-143571214D01*
X241147056Y-143750223D01*
X241153207Y-143771840D01*
X241229147Y-143924347D01*
X241246181Y-143958556D01*
X241371882Y-144125011D01*
X241526029Y-144265534D01*
X241703372Y-144375341D01*
X241897873Y-144450691D01*
X242102907Y-144489018D01*
X242102910Y-144489018D01*
X242311490Y-144489018D01*
X242311493Y-144489018D01*
X242516527Y-144450691D01*
X242711028Y-144375341D01*
X242888371Y-144265534D01*
X243042518Y-144125011D01*
X243168219Y-143958556D01*
X243261194Y-143771837D01*
X243318276Y-143571214D01*
X243337522Y-143363518D01*
X251076878Y-143363518D01*
X251096123Y-143571209D01*
X251096123Y-143571211D01*
X251096124Y-143571214D01*
X251147056Y-143750223D01*
X251153207Y-143771840D01*
X251229147Y-143924347D01*
X251246181Y-143958556D01*
X251371882Y-144125011D01*
X251526029Y-144265534D01*
X251703372Y-144375341D01*
X251897873Y-144450691D01*
X252102907Y-144489018D01*
X252102910Y-144489018D01*
X252311490Y-144489018D01*
X252311493Y-144489018D01*
X252516527Y-144450691D01*
X252711028Y-144375341D01*
X252888371Y-144265534D01*
X253042518Y-144125011D01*
X253168219Y-143958556D01*
X253261194Y-143771837D01*
X253318276Y-143571214D01*
X253337522Y-143363518D01*
X253318276Y-143155822D01*
X253261194Y-142955199D01*
X253168219Y-142768480D01*
X253042518Y-142602025D01*
X253034026Y-142594284D01*
X252888372Y-142461503D01*
X252888371Y-142461502D01*
X252711028Y-142351695D01*
X252711027Y-142351694D01*
X252553189Y-142290548D01*
X252516527Y-142276345D01*
X252311493Y-142238018D01*
X252102907Y-142238018D01*
X251897873Y-142276345D01*
X251897870Y-142276345D01*
X251897870Y-142276346D01*
X251703372Y-142351694D01*
X251703371Y-142351695D01*
X251526027Y-142461503D01*
X251371883Y-142602023D01*
X251246181Y-142768479D01*
X251153207Y-142955195D01*
X251150852Y-142963471D01*
X251102390Y-143133801D01*
X251096123Y-143155826D01*
X251076878Y-143363517D01*
X251076878Y-143363518D01*
X243337522Y-143363518D01*
X243318276Y-143155822D01*
X243261194Y-142955199D01*
X243168219Y-142768480D01*
X243042518Y-142602025D01*
X243034026Y-142594284D01*
X242888372Y-142461503D01*
X242888371Y-142461502D01*
X242711028Y-142351695D01*
X242711027Y-142351694D01*
X242553189Y-142290548D01*
X242516527Y-142276345D01*
X242311493Y-142238018D01*
X242102907Y-142238018D01*
X241897873Y-142276345D01*
X241897870Y-142276345D01*
X241897870Y-142276346D01*
X241703372Y-142351694D01*
X241703371Y-142351695D01*
X241526027Y-142461503D01*
X241371883Y-142602023D01*
X241246181Y-142768479D01*
X241153207Y-142955195D01*
X241150852Y-142963471D01*
X241102390Y-143133801D01*
X241096123Y-143155826D01*
X241076878Y-143363517D01*
X241076878Y-143363518D01*
X239675500Y-143363518D01*
X239675500Y-142381895D01*
X239695184Y-142314860D01*
X239711813Y-142294223D01*
X240869217Y-141136819D01*
X240930541Y-141103334D01*
X240956899Y-141100500D01*
X242898196Y-141100500D01*
X242923641Y-141103139D01*
X242927440Y-141103935D01*
X242934268Y-141105367D01*
X242955225Y-141102754D01*
X242969492Y-141100977D01*
X242977168Y-141100500D01*
X242981112Y-141100500D01*
X242981114Y-141100500D01*
X242981116Y-141100499D01*
X242981122Y-141100499D01*
X242997759Y-141097722D01*
X243004140Y-141096657D01*
X243058626Y-141089866D01*
X243058627Y-141089865D01*
X243058629Y-141089865D01*
X243066141Y-141087628D01*
X243073606Y-141085066D01*
X243073606Y-141085065D01*
X243073610Y-141085065D01*
X243121877Y-141058944D01*
X243171211Y-141034826D01*
X243171213Y-141034823D01*
X243177594Y-141030268D01*
X243183819Y-141025422D01*
X243183826Y-141025419D01*
X243221007Y-140985029D01*
X243723794Y-140482242D01*
X245269219Y-138936819D01*
X245330542Y-138903334D01*
X245356900Y-138900500D01*
X246110357Y-138900500D01*
X246177396Y-138920185D01*
X246223151Y-138972989D01*
X246233095Y-139042147D01*
X246212407Y-139094940D01*
X246194780Y-139120475D01*
X246194780Y-139120476D01*
X246138762Y-139268181D01*
X246119722Y-139424999D01*
X246119722Y-139425000D01*
X246138762Y-139581818D01*
X246180704Y-139692407D01*
X246194780Y-139729523D01*
X246284517Y-139859530D01*
X246402760Y-139964283D01*
X246402762Y-139964284D01*
X246542634Y-140037696D01*
X246696014Y-140075500D01*
X246696015Y-140075500D01*
X246853985Y-140075500D01*
X247007365Y-140037696D01*
X247089962Y-139994345D01*
X247147240Y-139964283D01*
X247265483Y-139859530D01*
X247269257Y-139854061D01*
X247323537Y-139810071D01*
X247371308Y-139800500D01*
X252348196Y-139800500D01*
X252373641Y-139803139D01*
X252377440Y-139803935D01*
X252384268Y-139805367D01*
X252405225Y-139802754D01*
X252419492Y-139800977D01*
X252427168Y-139800500D01*
X252431112Y-139800500D01*
X252431114Y-139800500D01*
X252431116Y-139800499D01*
X252431122Y-139800499D01*
X252447729Y-139797727D01*
X252454140Y-139796657D01*
X252508626Y-139789866D01*
X252508627Y-139789865D01*
X252508629Y-139789865D01*
X252516141Y-139787628D01*
X252523606Y-139785066D01*
X252523606Y-139785065D01*
X252523610Y-139785065D01*
X252571877Y-139758944D01*
X252621211Y-139734826D01*
X252621213Y-139734823D01*
X252627594Y-139730268D01*
X252633819Y-139725422D01*
X252633826Y-139725419D01*
X252671008Y-139685028D01*
X255027940Y-137328096D01*
X257394218Y-134961819D01*
X257455541Y-134928334D01*
X257481899Y-134925500D01*
X258769100Y-134925500D01*
X258836139Y-134945185D01*
X258881894Y-134997989D01*
X258891838Y-135067147D01*
X258862813Y-135130703D01*
X258856781Y-135137181D01*
X257621108Y-136372852D01*
X257601254Y-136388976D01*
X257592165Y-136394914D01*
X257592164Y-136394915D01*
X257570363Y-136422923D01*
X257565286Y-136428674D01*
X257562484Y-136431477D01*
X257562474Y-136431488D01*
X257548905Y-136450495D01*
X257515192Y-136493808D01*
X257511447Y-136500729D01*
X257507988Y-136507804D01*
X257492329Y-136560403D01*
X257474500Y-136612338D01*
X257473206Y-136620092D01*
X257472231Y-136627911D01*
X257474500Y-136682755D01*
X257474500Y-141798196D01*
X257471862Y-141823634D01*
X257469633Y-141834268D01*
X257469633Y-141834269D01*
X257469633Y-141834271D01*
X257474023Y-141869491D01*
X257474500Y-141877167D01*
X257474500Y-141881117D01*
X257478341Y-141904131D01*
X257485134Y-141958627D01*
X257487373Y-141966147D01*
X257489934Y-141973608D01*
X257489935Y-141973610D01*
X257507571Y-142006200D01*
X257516055Y-142021877D01*
X257540174Y-142071211D01*
X257544742Y-142077609D01*
X257549582Y-142083827D01*
X257589971Y-142121009D01*
X259363181Y-143894218D01*
X259396666Y-143955541D01*
X259399500Y-143981899D01*
X259399500Y-145468099D01*
X259379815Y-145535138D01*
X259363181Y-145555780D01*
X259252942Y-145666019D01*
X259191619Y-145699504D01*
X259121927Y-145694520D01*
X259065994Y-145652648D01*
X259041577Y-145587184D01*
X259047555Y-145539334D01*
X259064680Y-145487651D01*
X259074999Y-145386654D01*
X259075000Y-145386641D01*
X259075000Y-145287500D01*
X257125001Y-145287500D01*
X257125001Y-145386654D01*
X257135319Y-145487652D01*
X257189546Y-145651300D01*
X257189551Y-145651311D01*
X257280052Y-145798034D01*
X257280055Y-145798038D01*
X257401960Y-145919943D01*
X257462369Y-145957204D01*
X257509093Y-146009152D01*
X257520315Y-146078115D01*
X257496539Y-146137054D01*
X257429789Y-146226219D01*
X257380748Y-146357700D01*
X257374500Y-146415809D01*
X257374500Y-147109190D01*
X257380748Y-147167299D01*
X257394799Y-147204969D01*
X257429788Y-147298778D01*
X257429789Y-147298779D01*
X257429790Y-147298782D01*
X257516752Y-147414947D01*
X257541170Y-147480411D01*
X257526319Y-147548684D01*
X257476914Y-147598090D01*
X257454097Y-147607730D01*
X257448610Y-147609425D01*
X257343514Y-147660803D01*
X257260803Y-147743514D01*
X257209426Y-147848608D01*
X257199500Y-147916739D01*
X257199500Y-147970254D01*
X257179815Y-148037293D01*
X257127011Y-148083048D01*
X257057853Y-148092992D01*
X256994297Y-148063967D01*
X256987819Y-148057935D01*
X256987803Y-148057919D01*
X256987801Y-148057918D01*
X256987801Y-148057917D01*
X256904940Y-148002552D01*
X256904939Y-148002551D01*
X256904935Y-148002550D01*
X256831877Y-147988018D01*
X256831874Y-147988018D01*
X255782526Y-147988018D01*
X255782523Y-147988018D01*
X255709464Y-148002550D01*
X255709460Y-148002551D01*
X255626599Y-148057917D01*
X255571233Y-148140778D01*
X255571232Y-148140782D01*
X255556700Y-148213839D01*
X255556699Y-148213841D01*
X255556699Y-149263194D01*
X255556700Y-149263196D01*
X255571232Y-149336253D01*
X255571233Y-149336257D01*
X255579190Y-149348165D01*
X255626599Y-149419119D01*
X255690806Y-149462020D01*
X255709460Y-149474484D01*
X255709464Y-149474485D01*
X255782521Y-149489017D01*
X255782524Y-149489018D01*
X255782526Y-149489018D01*
X256831876Y-149489018D01*
X256831877Y-149489017D01*
X256904940Y-149474484D01*
X256987801Y-149419119D01*
X257043166Y-149336258D01*
X257057700Y-149263192D01*
X257057700Y-149219499D01*
X257077385Y-149152461D01*
X257130189Y-149106706D01*
X257181700Y-149095500D01*
X257248456Y-149095500D01*
X257315495Y-149115185D01*
X257336137Y-149131819D01*
X257343514Y-149139196D01*
X257343515Y-149139196D01*
X257343517Y-149139198D01*
X257448607Y-149190573D01*
X257482673Y-149195536D01*
X257516739Y-149200500D01*
X257516740Y-149200500D01*
X257783261Y-149200500D01*
X257805971Y-149197191D01*
X257851393Y-149190573D01*
X257956483Y-149139198D01*
X258039198Y-149056483D01*
X258090573Y-148951393D01*
X258100500Y-148883260D01*
X258100500Y-148556740D01*
X258095212Y-148520449D01*
X258105024Y-148451275D01*
X258150679Y-148398384D01*
X258163451Y-148391174D01*
X258166211Y-148389826D01*
X258166213Y-148389823D01*
X258172594Y-148385268D01*
X258178819Y-148380422D01*
X258178826Y-148380419D01*
X258216008Y-148340028D01*
X258328893Y-148227142D01*
X258348746Y-148211022D01*
X258357836Y-148205084D01*
X258379638Y-148177071D01*
X258384733Y-148171303D01*
X258387519Y-148168518D01*
X258387528Y-148168506D01*
X258401086Y-148149516D01*
X258434807Y-148106192D01*
X258438547Y-148099280D01*
X258442003Y-148092207D01*
X258442010Y-148092199D01*
X258457670Y-148039596D01*
X258475500Y-147987660D01*
X258475500Y-147987655D01*
X258476791Y-147979922D01*
X258477768Y-147972086D01*
X258475499Y-147917244D01*
X258475499Y-147743514D01*
X258475499Y-147617959D01*
X258495184Y-147550923D01*
X258547988Y-147505168D01*
X258556148Y-147501787D01*
X258573778Y-147495212D01*
X258686116Y-147411116D01*
X258770212Y-147298778D01*
X258819251Y-147167299D01*
X258819251Y-147167291D01*
X258819442Y-147166489D01*
X258819763Y-147165924D01*
X258821962Y-147160030D01*
X258822916Y-147160386D01*
X258854010Y-147105770D01*
X258885660Y-147083594D01*
X258908711Y-147072326D01*
X258908714Y-147072322D01*
X258915094Y-147067768D01*
X258921319Y-147062922D01*
X258921326Y-147062919D01*
X258958508Y-147022528D01*
X259712820Y-146268216D01*
X259774142Y-146234732D01*
X259843834Y-146239716D01*
X259899767Y-146281588D01*
X259924184Y-146347052D01*
X259924500Y-146355898D01*
X259924500Y-150543099D01*
X259904815Y-150610138D01*
X259888181Y-150630780D01*
X257771108Y-152747852D01*
X257751254Y-152763976D01*
X257742165Y-152769914D01*
X257742164Y-152769915D01*
X257720363Y-152797923D01*
X257715286Y-152803674D01*
X257712484Y-152806477D01*
X257712474Y-152806488D01*
X257698905Y-152825495D01*
X257665192Y-152868808D01*
X257661447Y-152875729D01*
X257657988Y-152882804D01*
X257642329Y-152935403D01*
X257624500Y-152987338D01*
X257623206Y-152995092D01*
X257622231Y-153002911D01*
X257624500Y-153057755D01*
X257624500Y-154043100D01*
X257604815Y-154110139D01*
X257588181Y-154130781D01*
X251030781Y-160688181D01*
X250969458Y-160721666D01*
X250943100Y-160724500D01*
X250017962Y-160724500D01*
X249950923Y-160704815D01*
X249905168Y-160652011D01*
X249901786Y-160643847D01*
X249895212Y-160626222D01*
X249811116Y-160513884D01*
X249766808Y-160480715D01*
X249693201Y-160425612D01*
X249651330Y-160369679D01*
X249646346Y-160299987D01*
X249656111Y-160271886D01*
X249690573Y-160201393D01*
X249700500Y-160133260D01*
X249700500Y-159866740D01*
X249690573Y-159798607D01*
X249639198Y-159693517D01*
X249639196Y-159693515D01*
X249639196Y-159693514D01*
X249556485Y-159610803D01*
X249451391Y-159559426D01*
X249383261Y-159549500D01*
X249383260Y-159549500D01*
X249079500Y-159549500D01*
X249012461Y-159529815D01*
X248966706Y-159477011D01*
X248955500Y-159425500D01*
X248955500Y-159263121D01*
X248958139Y-159237676D01*
X248958785Y-159234592D01*
X248960367Y-159227049D01*
X248957751Y-159206059D01*
X248955977Y-159191826D01*
X248955500Y-159184150D01*
X248955500Y-159180207D01*
X248955499Y-159180201D01*
X248951655Y-159157164D01*
X248944865Y-159102691D01*
X248942617Y-159095145D01*
X248940066Y-159087711D01*
X248940065Y-159087709D01*
X248940065Y-159087708D01*
X248922644Y-159055517D01*
X248907700Y-158996502D01*
X248907700Y-158263841D01*
X248907699Y-158263839D01*
X248893167Y-158190782D01*
X248893166Y-158190778D01*
X248893165Y-158190777D01*
X248837801Y-158107917D01*
X248754940Y-158052552D01*
X248754939Y-158052551D01*
X248754935Y-158052550D01*
X248681877Y-158038018D01*
X248681874Y-158038018D01*
X247632526Y-158038018D01*
X247632523Y-158038018D01*
X247559464Y-158052550D01*
X247559460Y-158052551D01*
X247476599Y-158107917D01*
X247421233Y-158190778D01*
X247421232Y-158190782D01*
X247406700Y-158263839D01*
X247406699Y-158263841D01*
X247406699Y-159313194D01*
X247406700Y-159313196D01*
X247421232Y-159386253D01*
X247421233Y-159386257D01*
X247421234Y-159386258D01*
X247476599Y-159469119D01*
X247559459Y-159524484D01*
X247559460Y-159524484D01*
X247559464Y-159524485D01*
X247632521Y-159539017D01*
X247632524Y-159539018D01*
X247632526Y-159539018D01*
X248037688Y-159539018D01*
X248104727Y-159558703D01*
X248150482Y-159611507D01*
X248160426Y-159680665D01*
X248149088Y-159717479D01*
X248109426Y-159798607D01*
X248099500Y-159866739D01*
X248099500Y-160033798D01*
X248079815Y-160100837D01*
X248027011Y-160146592D01*
X247957853Y-160156536D01*
X247936497Y-160151504D01*
X247887653Y-160135319D01*
X247786654Y-160125000D01*
X247687500Y-160125000D01*
X247687500Y-162074999D01*
X247786640Y-162074999D01*
X247786654Y-162074998D01*
X247887652Y-162064680D01*
X248051300Y-162010453D01*
X248051311Y-162010448D01*
X248198034Y-161919947D01*
X248198038Y-161919944D01*
X248319945Y-161798037D01*
X248357204Y-161737631D01*
X248409152Y-161690906D01*
X248478114Y-161679683D01*
X248537052Y-161703460D01*
X248626222Y-161770212D01*
X248700816Y-161798034D01*
X248757700Y-161819251D01*
X248815809Y-161825499D01*
X248815826Y-161825500D01*
X249509174Y-161825500D01*
X249509190Y-161825499D01*
X249567299Y-161819251D01*
X249567298Y-161819250D01*
X249698778Y-161770212D01*
X249811116Y-161686116D01*
X249895212Y-161573778D01*
X249901781Y-161556165D01*
X249943651Y-161500233D01*
X250009116Y-161475816D01*
X250017962Y-161475500D01*
X251098196Y-161475500D01*
X251123641Y-161478139D01*
X251127440Y-161478935D01*
X251134268Y-161480367D01*
X251155225Y-161477754D01*
X251169492Y-161475977D01*
X251177168Y-161475500D01*
X251181112Y-161475500D01*
X251181114Y-161475500D01*
X251181116Y-161475499D01*
X251181122Y-161475499D01*
X251196487Y-161472934D01*
X251204140Y-161471657D01*
X251258626Y-161464866D01*
X251258627Y-161464865D01*
X251258629Y-161464865D01*
X251266141Y-161462628D01*
X251273606Y-161460066D01*
X251273606Y-161460065D01*
X251273610Y-161460065D01*
X251321877Y-161433944D01*
X251371211Y-161409826D01*
X251371213Y-161409823D01*
X251377594Y-161405268D01*
X251383819Y-161400422D01*
X251383826Y-161400419D01*
X251421008Y-161360028D01*
X258228892Y-154552144D01*
X258248741Y-154536025D01*
X258257836Y-154530084D01*
X258279644Y-154502062D01*
X258284721Y-154496316D01*
X258287520Y-154493518D01*
X258301094Y-154474504D01*
X258334809Y-154431189D01*
X258334809Y-154431187D01*
X258338547Y-154424280D01*
X258342003Y-154417207D01*
X258342010Y-154417199D01*
X258357670Y-154364596D01*
X258375500Y-154312660D01*
X258375500Y-154312655D01*
X258376790Y-154304924D01*
X258377768Y-154297085D01*
X258375500Y-154242244D01*
X258375500Y-153256898D01*
X258395185Y-153189859D01*
X258411814Y-153169222D01*
X260528889Y-151052146D01*
X260548746Y-151036022D01*
X260557836Y-151030084D01*
X260579638Y-151002071D01*
X260584733Y-150996303D01*
X260587519Y-150993518D01*
X260587528Y-150993506D01*
X260601086Y-150974516D01*
X260634807Y-150931192D01*
X260638547Y-150924280D01*
X260642003Y-150917207D01*
X260642010Y-150917199D01*
X260657670Y-150864596D01*
X260675500Y-150812660D01*
X260675500Y-150812655D01*
X260676791Y-150804922D01*
X260677768Y-150797086D01*
X260675499Y-150742244D01*
X260675499Y-143676806D01*
X260678139Y-143651354D01*
X260680367Y-143640731D01*
X260677921Y-143621111D01*
X260675977Y-143605508D01*
X260675500Y-143597832D01*
X260675500Y-143593889D01*
X260675499Y-143593883D01*
X260675043Y-143591152D01*
X260671716Y-143571214D01*
X260671655Y-143570846D01*
X260664865Y-143516373D01*
X260662617Y-143508827D01*
X260660065Y-143501390D01*
X260633942Y-143453119D01*
X260624261Y-143433316D01*
X260609826Y-143403788D01*
X260609823Y-143403785D01*
X260609823Y-143403784D01*
X260605267Y-143397402D01*
X260600423Y-143391178D01*
X260600419Y-143391174D01*
X260560041Y-143354003D01*
X258761819Y-141555781D01*
X258728334Y-141494458D01*
X258725500Y-141468100D01*
X258725500Y-139619738D01*
X259502420Y-139619738D01*
X259521621Y-139924950D01*
X259529125Y-139964284D01*
X259578930Y-140225369D01*
X259673436Y-140516229D01*
X259803651Y-140792951D01*
X259803653Y-140792954D01*
X259803654Y-140792956D01*
X259967518Y-141051165D01*
X259967520Y-141051167D01*
X259967522Y-141051170D01*
X260162464Y-141286815D01*
X260385404Y-141496169D01*
X260385409Y-141496172D01*
X260385412Y-141496175D01*
X260632812Y-141675922D01*
X260632830Y-141675934D01*
X260802958Y-141769462D01*
X260900823Y-141823264D01*
X260951292Y-141843246D01*
X260953075Y-141844035D01*
X260953090Y-141844043D01*
X260956131Y-141845162D01*
X261185175Y-141935847D01*
X261239616Y-141949825D01*
X261245596Y-141951688D01*
X261246199Y-141951910D01*
X261246222Y-141951917D01*
X261279976Y-141964339D01*
X261301335Y-141965671D01*
X261481395Y-142011903D01*
X261541120Y-142019447D01*
X261547101Y-142020506D01*
X261549499Y-142021054D01*
X261549507Y-142021054D01*
X261550870Y-142021366D01*
X261550900Y-142021372D01*
X261582421Y-142028566D01*
X261602912Y-142027254D01*
X261658332Y-142034255D01*
X261784802Y-142050232D01*
X261784808Y-142050232D01*
X261784812Y-142050233D01*
X261784814Y-142050233D01*
X261848966Y-142050233D01*
X261854924Y-142050520D01*
X261890485Y-142053950D01*
X261909801Y-142050233D01*
X262090640Y-142050233D01*
X262158345Y-142041679D01*
X262164100Y-142041224D01*
X262171302Y-142040994D01*
X262171310Y-142040992D01*
X262172826Y-142040944D01*
X262172863Y-142040942D01*
X262199284Y-142040094D01*
X262217108Y-142034256D01*
X262394057Y-142011903D01*
X262464157Y-141993904D01*
X262469610Y-141992766D01*
X262479009Y-141991247D01*
X262479021Y-141991243D01*
X262480520Y-141991001D01*
X262480590Y-141990988D01*
X262503755Y-141987243D01*
X262519877Y-141979597D01*
X262690277Y-141935847D01*
X262761423Y-141907678D01*
X262766552Y-141905905D01*
X262777827Y-141902559D01*
X262777830Y-141902557D01*
X262778914Y-141902236D01*
X262799019Y-141896268D01*
X262813275Y-141887148D01*
X262974629Y-141823264D01*
X263045390Y-141784362D01*
X263050096Y-141782033D01*
X263062851Y-141776387D01*
X263062861Y-141776380D01*
X263064223Y-141775778D01*
X263064287Y-141775748D01*
X263078486Y-141769462D01*
X263088148Y-141761051D01*
X263091043Y-141759296D01*
X263091619Y-141758947D01*
X263242628Y-141675930D01*
X263311392Y-141625969D01*
X263315655Y-141623135D01*
X263329401Y-141614803D01*
X263329410Y-141614795D01*
X263330505Y-141614132D01*
X263330543Y-141614108D01*
X263341855Y-141607250D01*
X263349120Y-141599077D01*
X263355369Y-141594093D01*
X263357503Y-141592467D01*
X263490048Y-141496169D01*
X263555183Y-141435002D01*
X263558933Y-141431756D01*
X263573099Y-141420460D01*
X263573102Y-141420456D01*
X263582495Y-141412966D01*
X263587610Y-141405475D01*
X263596500Y-141396296D01*
X263598521Y-141394306D01*
X263712988Y-141286815D01*
X263772741Y-141214585D01*
X263775967Y-141210982D01*
X263789944Y-141196550D01*
X263789946Y-141196547D01*
X263796518Y-141189761D01*
X263799768Y-141183386D01*
X263810090Y-141169555D01*
X263811930Y-141167213D01*
X263907930Y-141051170D01*
X263960586Y-140968196D01*
X263963213Y-140964385D01*
X263976377Y-140946747D01*
X263976379Y-140946742D01*
X263976653Y-140946376D01*
X263976666Y-140946357D01*
X263980475Y-140941253D01*
X263982229Y-140936356D01*
X263992785Y-140917612D01*
X263994384Y-140914940D01*
X264049046Y-140828807D01*
X264071792Y-140792967D01*
X264071797Y-140792956D01*
X264071801Y-140792951D01*
X264115586Y-140699901D01*
X264117647Y-140695906D01*
X264129334Y-140675156D01*
X264129335Y-140675152D01*
X264131397Y-140671492D01*
X264132087Y-140668353D01*
X264141672Y-140644680D01*
X264143008Y-140641626D01*
X264202016Y-140516229D01*
X264235250Y-140413944D01*
X264236714Y-140409925D01*
X264246306Y-140386234D01*
X264246306Y-140386232D01*
X264246309Y-140386226D01*
X264246323Y-140386184D01*
X264246877Y-140384813D01*
X264246980Y-140383661D01*
X264254440Y-140355213D01*
X264255429Y-140351839D01*
X264296522Y-140225369D01*
X264317577Y-140114995D01*
X264318486Y-140110977D01*
X264325370Y-140084727D01*
X264329346Y-140053887D01*
X264329919Y-140050295D01*
X264353829Y-139924958D01*
X264361194Y-139807889D01*
X264361571Y-139803959D01*
X264365230Y-139775584D01*
X264365891Y-139734278D01*
X264366003Y-139731441D01*
X264373032Y-139619733D01*
X264366004Y-139508028D01*
X264365891Y-139505183D01*
X264365230Y-139463882D01*
X264361572Y-139435517D01*
X264361192Y-139431547D01*
X264353875Y-139315236D01*
X264353830Y-139314515D01*
X264344991Y-139268182D01*
X264329928Y-139189215D01*
X264329340Y-139185531D01*
X264325540Y-139156060D01*
X264325370Y-139154739D01*
X264318489Y-139128501D01*
X264317572Y-139124448D01*
X264296522Y-139014097D01*
X264255437Y-138887650D01*
X264254437Y-138884240D01*
X264248003Y-138859702D01*
X264247705Y-138858569D01*
X264246984Y-138855817D01*
X264247008Y-138854971D01*
X264246721Y-138854261D01*
X264246707Y-138854223D01*
X264243441Y-138846155D01*
X264236726Y-138829569D01*
X264235243Y-138825500D01*
X264202016Y-138723237D01*
X264159648Y-138633201D01*
X264143019Y-138597861D01*
X264141650Y-138594729D01*
X264133917Y-138575630D01*
X264132092Y-138571122D01*
X264131860Y-138568793D01*
X264117656Y-138543573D01*
X264115577Y-138539545D01*
X264087361Y-138479583D01*
X264071801Y-138446515D01*
X263994411Y-138324569D01*
X263992744Y-138321781D01*
X263986000Y-138309807D01*
X263982229Y-138303111D01*
X263981374Y-138299414D01*
X263963232Y-138275105D01*
X263960570Y-138271242D01*
X263907934Y-138188301D01*
X263907929Y-138188294D01*
X263811970Y-138072299D01*
X263810058Y-138069867D01*
X263799770Y-138056082D01*
X263797950Y-138051182D01*
X263775971Y-138028487D01*
X263772736Y-138024874D01*
X263712989Y-137952652D01*
X263648338Y-137891941D01*
X263598544Y-137845181D01*
X263596478Y-137843146D01*
X263587608Y-137833988D01*
X263584522Y-137828114D01*
X263558938Y-137807712D01*
X263555151Y-137804433D01*
X263550430Y-137800000D01*
X263490048Y-137743297D01*
X263357525Y-137647013D01*
X263355352Y-137645358D01*
X263349107Y-137640378D01*
X263344504Y-137633819D01*
X263330526Y-137625345D01*
X263330518Y-137625340D01*
X263323983Y-137621378D01*
X268208947Y-137621378D01*
X268228192Y-137829069D01*
X268228192Y-137829071D01*
X268228193Y-137829074D01*
X268263353Y-137952649D01*
X268285276Y-138029700D01*
X268352616Y-138164936D01*
X268378250Y-138216416D01*
X268503951Y-138382871D01*
X268658098Y-138523394D01*
X268758308Y-138585442D01*
X268835437Y-138633199D01*
X268835439Y-138633199D01*
X268835441Y-138633201D01*
X268867509Y-138645624D01*
X268870832Y-138647025D01*
X268870850Y-138647033D01*
X268870864Y-138647041D01*
X268871446Y-138647242D01*
X268873702Y-138648024D01*
X268954534Y-138679338D01*
X269029942Y-138708551D01*
X269029944Y-138708551D01*
X269029946Y-138708552D01*
X269035270Y-138709547D01*
X269063399Y-138714805D01*
X269066585Y-138715489D01*
X269073429Y-138717149D01*
X269073437Y-138717152D01*
X269084325Y-138718716D01*
X269234976Y-138746878D01*
X269234978Y-138746878D01*
X269271320Y-138746878D01*
X269279723Y-138747478D01*
X269279728Y-138747378D01*
X269285616Y-138747658D01*
X269285618Y-138747659D01*
X269285620Y-138747658D01*
X269285622Y-138747659D01*
X269294904Y-138747216D01*
X269296870Y-138747123D01*
X269296884Y-138747126D01*
X269300613Y-138746948D01*
X269303566Y-138746878D01*
X269443561Y-138746878D01*
X269443562Y-138746878D01*
X269487778Y-138738612D01*
X269496213Y-138737627D01*
X269499737Y-138737460D01*
X269499744Y-138737458D01*
X269501979Y-138737352D01*
X269502021Y-138737348D01*
X269534051Y-138735821D01*
X269564108Y-138724344D01*
X269648596Y-138708551D01*
X269694543Y-138690750D01*
X269702319Y-138688314D01*
X269708057Y-138686922D01*
X269708058Y-138686921D01*
X269709700Y-138686523D01*
X269709752Y-138686507D01*
X269739300Y-138679338D01*
X269765412Y-138663296D01*
X269843097Y-138633201D01*
X269888720Y-138604951D01*
X269895567Y-138601288D01*
X269903048Y-138597872D01*
X269903052Y-138597868D01*
X269903396Y-138597712D01*
X269908426Y-138595415D01*
X269908430Y-138595413D01*
X269911560Y-138593984D01*
X269912184Y-138593894D01*
X269913814Y-138592953D01*
X269930260Y-138585442D01*
X269951781Y-138565905D01*
X270020440Y-138523394D01*
X270063387Y-138484242D01*
X270069161Y-138479583D01*
X270077663Y-138473530D01*
X270077663Y-138473529D01*
X270079583Y-138472163D01*
X270081876Y-138471369D01*
X270087320Y-138466652D01*
X270100191Y-138457487D01*
X270116737Y-138435607D01*
X270174587Y-138382871D01*
X270212348Y-138332866D01*
X270216948Y-138327451D01*
X270222729Y-138321387D01*
X270226269Y-138319343D01*
X270233769Y-138309807D01*
X270243101Y-138300019D01*
X270254553Y-138276978D01*
X270300288Y-138216416D01*
X270330320Y-138156103D01*
X270333644Y-138150251D01*
X270335971Y-138146630D01*
X270340223Y-138142946D01*
X270347876Y-138128103D01*
X270353929Y-138118683D01*
X270360443Y-138095607D01*
X270393263Y-138029697D01*
X270411367Y-137966065D01*
X270417958Y-137955616D01*
X270418909Y-137950686D01*
X270425554Y-137928056D01*
X270428809Y-137919926D01*
X270430777Y-137897847D01*
X270450345Y-137829074D01*
X270457470Y-137752173D01*
X270458319Y-137746212D01*
X270461722Y-137728559D01*
X270461722Y-137728550D01*
X270461922Y-137727514D01*
X270461928Y-137727474D01*
X270465145Y-137710781D01*
X270463176Y-137690603D01*
X270469591Y-137621378D01*
X270463175Y-137552149D01*
X270466127Y-137537061D01*
X270462116Y-137516247D01*
X270462115Y-137516240D01*
X270461722Y-137514200D01*
X270461722Y-137514197D01*
X270458325Y-137496570D01*
X270457468Y-137490554D01*
X270457203Y-137487696D01*
X270450345Y-137413682D01*
X270430778Y-137344910D01*
X270430919Y-137328096D01*
X270425553Y-137314694D01*
X270418909Y-137292068D01*
X270418748Y-137291235D01*
X270411367Y-137276689D01*
X270410545Y-137273801D01*
X270393263Y-137213059D01*
X270360443Y-137147148D01*
X270357250Y-137129238D01*
X270347878Y-137114654D01*
X270341841Y-137102945D01*
X270335962Y-137096110D01*
X270333651Y-137092514D01*
X270330308Y-137086629D01*
X270300288Y-137026340D01*
X270254556Y-136965781D01*
X270247653Y-136947510D01*
X270233770Y-136932949D01*
X270227887Y-136925469D01*
X270222743Y-136921382D01*
X270216955Y-136915312D01*
X270212357Y-136909901D01*
X270174587Y-136859885D01*
X270174586Y-136859884D01*
X270174586Y-136859883D01*
X270116740Y-136807150D01*
X270105923Y-136789349D01*
X270087316Y-136776099D01*
X270083064Y-136772414D01*
X270079574Y-136770587D01*
X270069170Y-136763177D01*
X270063358Y-136758487D01*
X270052783Y-136748847D01*
X270020440Y-136719362D01*
X269951783Y-136676851D01*
X269937045Y-136660409D01*
X269913815Y-136649800D01*
X269912546Y-136649067D01*
X269911552Y-136648767D01*
X269895585Y-136641475D01*
X269888694Y-136637787D01*
X269843098Y-136609555D01*
X269843096Y-136609554D01*
X269765408Y-136579458D01*
X269746943Y-136565269D01*
X269711382Y-136556641D01*
X269711370Y-136556638D01*
X269702310Y-136554439D01*
X269694529Y-136551999D01*
X269648599Y-136534206D01*
X269648598Y-136534205D01*
X269648596Y-136534205D01*
X269564098Y-136518409D01*
X269542294Y-136507322D01*
X269496226Y-136505128D01*
X269487775Y-136504142D01*
X269443564Y-136495878D01*
X269443562Y-136495878D01*
X269303499Y-136495878D01*
X269300549Y-136495808D01*
X269285618Y-136495096D01*
X269279728Y-136495378D01*
X269279723Y-136495277D01*
X269271320Y-136495878D01*
X269234976Y-136495878D01*
X269194267Y-136503487D01*
X269084342Y-136524035D01*
X269073438Y-136525603D01*
X269066593Y-136527264D01*
X269063371Y-136527956D01*
X269029940Y-136534205D01*
X268873701Y-136594732D01*
X268870852Y-136595719D01*
X268870796Y-136595745D01*
X268867479Y-136597142D01*
X268835445Y-136609552D01*
X268658096Y-136719363D01*
X268503952Y-136859883D01*
X268378250Y-137026339D01*
X268285276Y-137213055D01*
X268275703Y-137246702D01*
X268241911Y-137365470D01*
X268228192Y-137413686D01*
X268208947Y-137621377D01*
X268208947Y-137621378D01*
X263323983Y-137621378D01*
X263315673Y-137616340D01*
X263311371Y-137613480D01*
X263242639Y-137563543D01*
X263242632Y-137563538D01*
X263242628Y-137563536D01*
X263104676Y-137487696D01*
X263091623Y-137480520D01*
X263088107Y-137478389D01*
X263081770Y-137471455D01*
X263065168Y-137464106D01*
X263065126Y-137464086D01*
X263050116Y-137457441D01*
X263045362Y-137455088D01*
X262974629Y-137416202D01*
X262974627Y-137416201D01*
X262974623Y-137416199D01*
X262813276Y-137352317D01*
X262803161Y-137344424D01*
X262766585Y-137333569D01*
X262761400Y-137331778D01*
X262690276Y-137303618D01*
X262519880Y-137259868D01*
X262508256Y-137252949D01*
X262482073Y-137248715D01*
X262482050Y-137248711D01*
X262469634Y-137246702D01*
X262464117Y-137245550D01*
X262394056Y-137227562D01*
X262217104Y-137205208D01*
X262204062Y-137199520D01*
X262164105Y-137198239D01*
X262158319Y-137197782D01*
X262090653Y-137189234D01*
X262090642Y-137189233D01*
X262090640Y-137189233D01*
X261909804Y-137189233D01*
X261895503Y-137185033D01*
X261861649Y-137188299D01*
X261861636Y-137188300D01*
X261854938Y-137188946D01*
X261848980Y-137189233D01*
X261784812Y-137189233D01*
X261784810Y-137189233D01*
X261784798Y-137189234D01*
X261602898Y-137212212D01*
X261587527Y-137209732D01*
X261551752Y-137217898D01*
X261551728Y-137217902D01*
X261547084Y-137218961D01*
X261541075Y-137220023D01*
X261481404Y-137227561D01*
X261481397Y-137227562D01*
X261481395Y-137227563D01*
X261301309Y-137273801D01*
X261285086Y-137273244D01*
X261245609Y-137287772D01*
X261239614Y-137289640D01*
X261185173Y-137303618D01*
X261185170Y-137303619D01*
X260956136Y-137394301D01*
X260953084Y-137395424D01*
X260951255Y-137396233D01*
X260900820Y-137416203D01*
X260632830Y-137563531D01*
X260632812Y-137563543D01*
X260385412Y-137743290D01*
X260385402Y-137743298D01*
X260162466Y-137952649D01*
X260162464Y-137952651D01*
X260160011Y-137955616D01*
X259967518Y-138188300D01*
X259803654Y-138446509D01*
X259803651Y-138446513D01*
X259803651Y-138446515D01*
X259718256Y-138627989D01*
X259673435Y-138723239D01*
X259630876Y-138854223D01*
X259578930Y-139014097D01*
X259554967Y-139139716D01*
X259521621Y-139314515D01*
X259502420Y-139619727D01*
X259502420Y-139619738D01*
X258725500Y-139619738D01*
X258725500Y-137156899D01*
X258745185Y-137089860D01*
X258761819Y-137069218D01*
X259944219Y-135886819D01*
X260005542Y-135853334D01*
X260031900Y-135850500D01*
X273168101Y-135850500D01*
X273235140Y-135870185D01*
X273255782Y-135886819D01*
X274090481Y-136721518D01*
X274123966Y-136782841D01*
X274125896Y-136824143D01*
X274119722Y-136874997D01*
X274119722Y-136875000D01*
X274138762Y-137031818D01*
X274170178Y-137114654D01*
X274194780Y-137179523D01*
X274284517Y-137309530D01*
X274402760Y-137414283D01*
X274402762Y-137414284D01*
X274542634Y-137487696D01*
X274696014Y-137525500D01*
X274696015Y-137525500D01*
X274853985Y-137525500D01*
X275007365Y-137487696D01*
X275008329Y-137487190D01*
X275147240Y-137414283D01*
X275265483Y-137309530D01*
X275355220Y-137179523D01*
X275411237Y-137031818D01*
X275430278Y-136875000D01*
X275423329Y-136817770D01*
X275434789Y-136748847D01*
X275481693Y-136697061D01*
X275549149Y-136678854D01*
X275615740Y-136700006D01*
X275634106Y-136715143D01*
X276565481Y-137646518D01*
X276598966Y-137707841D01*
X276600896Y-137749143D01*
X276594722Y-137799997D01*
X276594722Y-137800000D01*
X276613762Y-137956818D01*
X276657559Y-138072299D01*
X276669780Y-138104523D01*
X276759517Y-138234530D01*
X276877760Y-138339283D01*
X276877762Y-138339284D01*
X277017634Y-138412696D01*
X277171014Y-138450500D01*
X277171015Y-138450500D01*
X277328985Y-138450500D01*
X277480331Y-138413197D01*
X277550132Y-138416266D01*
X277607194Y-138456586D01*
X277633400Y-138521355D01*
X277620428Y-138590010D01*
X277597686Y-138621275D01*
X276532109Y-139686851D01*
X276512255Y-139702975D01*
X276503166Y-139708913D01*
X276503165Y-139708914D01*
X276481364Y-139736922D01*
X276476287Y-139742673D01*
X276473485Y-139745476D01*
X276473475Y-139745487D01*
X276459906Y-139764494D01*
X276426193Y-139807807D01*
X276422448Y-139814728D01*
X276418989Y-139821803D01*
X276403330Y-139874402D01*
X276385501Y-139926337D01*
X276384207Y-139934091D01*
X276381961Y-139952110D01*
X276379320Y-139951780D01*
X276366120Y-140004716D01*
X276315246Y-140052608D01*
X276309571Y-140055309D01*
X276295705Y-140061482D01*
X276295702Y-140061484D01*
X276138306Y-140175840D01*
X276138303Y-140175842D01*
X276008130Y-140320416D01*
X275910858Y-140488895D01*
X275910857Y-140488896D01*
X275878932Y-140587155D01*
X275839495Y-140644830D01*
X275775136Y-140672029D01*
X275706290Y-140660115D01*
X275654814Y-140612871D01*
X275643070Y-140587155D01*
X275611144Y-140488896D01*
X275611143Y-140488895D01*
X275554655Y-140391055D01*
X275513871Y-140320415D01*
X275462883Y-140263788D01*
X275383698Y-140175842D01*
X275383695Y-140175840D01*
X275383694Y-140175839D01*
X275383693Y-140175838D01*
X275263691Y-140088651D01*
X275226298Y-140061483D01*
X275075500Y-139994345D01*
X275048572Y-139982356D01*
X275048570Y-139982355D01*
X274858275Y-139941907D01*
X274663727Y-139941907D01*
X274473432Y-139982355D01*
X274295703Y-140061483D01*
X274138306Y-140175840D01*
X274138303Y-140175842D01*
X274008130Y-140320416D01*
X273910858Y-140488895D01*
X273910857Y-140488896D01*
X273878932Y-140587155D01*
X273839495Y-140644830D01*
X273775136Y-140672029D01*
X273706290Y-140660115D01*
X273654814Y-140612871D01*
X273643070Y-140587155D01*
X273611144Y-140488896D01*
X273611143Y-140488895D01*
X273554655Y-140391055D01*
X273513871Y-140320415D01*
X273462883Y-140263788D01*
X273383698Y-140175842D01*
X273383695Y-140175840D01*
X273383694Y-140175839D01*
X273383693Y-140175838D01*
X273263691Y-140088651D01*
X273226298Y-140061483D01*
X273075500Y-139994345D01*
X273048572Y-139982356D01*
X273048570Y-139982355D01*
X272858275Y-139941907D01*
X272663727Y-139941907D01*
X272473432Y-139982355D01*
X272295703Y-140061483D01*
X272138306Y-140175840D01*
X272138303Y-140175842D01*
X272008130Y-140320416D01*
X271910858Y-140488895D01*
X271910857Y-140488896D01*
X271878932Y-140587155D01*
X271839495Y-140644830D01*
X271775136Y-140672029D01*
X271706290Y-140660115D01*
X271654814Y-140612871D01*
X271643070Y-140587155D01*
X271611144Y-140488896D01*
X271611143Y-140488895D01*
X271554655Y-140391055D01*
X271513871Y-140320415D01*
X271462883Y-140263788D01*
X271383698Y-140175842D01*
X271383695Y-140175840D01*
X271383694Y-140175839D01*
X271383693Y-140175838D01*
X271263691Y-140088651D01*
X271226298Y-140061483D01*
X271075500Y-139994345D01*
X271048572Y-139982356D01*
X271048570Y-139982355D01*
X270858275Y-139941907D01*
X270663727Y-139941907D01*
X270473432Y-139982355D01*
X270295703Y-140061483D01*
X270138306Y-140175840D01*
X270138303Y-140175842D01*
X270008130Y-140320416D01*
X269910858Y-140488895D01*
X269910857Y-140488896D01*
X269850739Y-140673923D01*
X269830403Y-140867407D01*
X269850739Y-141060890D01*
X269910857Y-141245917D01*
X269910858Y-141245918D01*
X269945255Y-141305495D01*
X270008131Y-141414399D01*
X270053477Y-141464761D01*
X270138303Y-141558971D01*
X270138306Y-141558973D01*
X270138309Y-141558976D01*
X270158175Y-141573410D01*
X270200840Y-141628739D01*
X270206819Y-141698352D01*
X270174213Y-141760147D01*
X270113374Y-141794505D01*
X270085289Y-141797727D01*
X269339168Y-141797727D01*
X269295199Y-141797821D01*
X269295114Y-141797821D01*
X269295004Y-141797822D01*
X269295002Y-141797822D01*
X269199807Y-141798692D01*
X269198992Y-141798634D01*
X269189536Y-141798787D01*
X269189552Y-141798787D01*
X269073306Y-141801022D01*
X269072553Y-141800973D01*
X269062750Y-141801225D01*
X269062132Y-141801060D01*
X269061082Y-141801226D01*
X269062710Y-141801226D01*
X268931449Y-141805205D01*
X268930244Y-141805095D01*
X268916292Y-141805665D01*
X268912547Y-141805784D01*
X268911975Y-141805847D01*
X268756214Y-141812455D01*
X268755535Y-141812437D01*
X268753433Y-141812553D01*
X268753449Y-141812552D01*
X268751759Y-141812645D01*
X268751734Y-141812647D01*
X268751732Y-141812647D01*
X268687546Y-141816214D01*
X268582745Y-141822039D01*
X268582000Y-141822011D01*
X268571222Y-141822679D01*
X268571125Y-141822685D01*
X268571031Y-141822691D01*
X268571030Y-141822691D01*
X268568713Y-141822838D01*
X268568365Y-141822878D01*
X268376032Y-141836318D01*
X268376010Y-141836319D01*
X268375937Y-141836325D01*
X268373891Y-141836471D01*
X268373391Y-141836531D01*
X268285823Y-141843651D01*
X268285213Y-141843640D01*
X268273550Y-141844647D01*
X268273557Y-141844647D01*
X268273327Y-141844667D01*
X268273071Y-141844690D01*
X268273090Y-141844688D01*
X268168402Y-141854049D01*
X268168370Y-141854051D01*
X268167966Y-141854087D01*
X268095864Y-141861145D01*
X268061153Y-141864542D01*
X268060716Y-141864575D01*
X268060328Y-141864617D01*
X268060283Y-141864622D01*
X268044312Y-141866326D01*
X267948883Y-141876514D01*
X267948882Y-141876514D01*
X267948857Y-141876516D01*
X267948837Y-141876518D01*
X267946676Y-141876764D01*
X267946557Y-141876782D01*
X267837583Y-141889423D01*
X267837479Y-141889432D01*
X267835862Y-141889623D01*
X267835714Y-141889641D01*
X267835713Y-141889641D01*
X267835637Y-141889650D01*
X267835521Y-141889664D01*
X267835518Y-141889664D01*
X267832773Y-141889995D01*
X267832490Y-141890045D01*
X267722284Y-141903896D01*
X267721942Y-141903928D01*
X267720451Y-141904126D01*
X267720419Y-141904131D01*
X267720417Y-141904131D01*
X267720319Y-141904144D01*
X267720226Y-141904156D01*
X267720223Y-141904156D01*
X267717771Y-141904472D01*
X267717387Y-141904542D01*
X267694223Y-141907689D01*
X267605249Y-141919775D01*
X267604891Y-141919812D01*
X267603246Y-141920047D01*
X267603214Y-141920052D01*
X267603211Y-141920052D01*
X267603099Y-141920068D01*
X267603021Y-141920079D01*
X267603019Y-141920079D01*
X267594027Y-141921347D01*
X267593410Y-141921487D01*
X267515439Y-141932909D01*
X267486500Y-141937149D01*
X267486186Y-141937183D01*
X267484310Y-141937470D01*
X267484308Y-141937470D01*
X267484203Y-141937486D01*
X267484118Y-141937499D01*
X267484116Y-141937499D01*
X267481888Y-141937840D01*
X267481622Y-141937893D01*
X267374525Y-141954780D01*
X267373514Y-141954850D01*
X267366293Y-141956054D01*
X267366151Y-141956071D01*
X267363888Y-141956455D01*
X267363605Y-141956502D01*
X267363549Y-141956513D01*
X267253126Y-141975223D01*
X267251845Y-141975325D01*
X267245627Y-141976451D01*
X267245603Y-141976454D01*
X267165590Y-141991001D01*
X267122218Y-141998885D01*
X267121752Y-141998950D01*
X267119445Y-141999390D01*
X267115423Y-142000155D01*
X267115168Y-142000223D01*
X267027985Y-142017209D01*
X266998933Y-142022870D01*
X266998642Y-142022913D01*
X266996027Y-142023436D01*
X266996026Y-142023436D01*
X266995926Y-142023456D01*
X266995838Y-142023474D01*
X266995836Y-142023474D01*
X266994305Y-142023787D01*
X266994080Y-142023841D01*
X266874897Y-142048701D01*
X266874426Y-142048775D01*
X266871700Y-142049368D01*
X266870883Y-142049551D01*
X266750488Y-142076412D01*
X266749921Y-142076508D01*
X266747186Y-142077150D01*
X266737853Y-142079270D01*
X266736719Y-142079646D01*
X266625874Y-142106082D01*
X266625146Y-142106213D01*
X266622396Y-142106912D01*
X266619912Y-142107510D01*
X266619274Y-142107707D01*
X266501453Y-142137727D01*
X266501043Y-142137805D01*
X266497781Y-142138662D01*
X266497780Y-142138662D01*
X266497700Y-142138683D01*
X266497597Y-142138710D01*
X266497596Y-142138710D01*
X266495207Y-142139336D01*
X266494732Y-142139490D01*
X266377055Y-142171508D01*
X266376286Y-142171666D01*
X266373274Y-142172537D01*
X266373272Y-142172537D01*
X266373137Y-142172576D01*
X266373090Y-142172589D01*
X266373088Y-142172590D01*
X266373067Y-142172596D01*
X266371153Y-142173124D01*
X266370566Y-142173322D01*
X266253463Y-142207340D01*
X266253312Y-142207373D01*
X266249158Y-142208591D01*
X266246131Y-142209494D01*
X266245583Y-142209699D01*
X266134289Y-142244214D01*
X266132696Y-142244586D01*
X266125712Y-142246875D01*
X266122470Y-142247904D01*
X266121841Y-142248158D01*
X266005933Y-142286594D01*
X266004285Y-142287005D01*
X265996970Y-142289566D01*
X265996968Y-142289566D01*
X265996868Y-142289601D01*
X265996791Y-142289627D01*
X265996789Y-142289628D01*
X265989837Y-142291974D01*
X265988381Y-142292612D01*
X265880049Y-142331056D01*
X265878535Y-142331458D01*
X265870480Y-142334451D01*
X265870479Y-142334451D01*
X265870374Y-142334490D01*
X265870303Y-142334516D01*
X265870301Y-142334516D01*
X265866921Y-142335754D01*
X265866355Y-142336014D01*
X265756397Y-142377722D01*
X265754718Y-142378198D01*
X265746209Y-142381587D01*
X265743836Y-142382518D01*
X265743340Y-142382748D01*
X265627514Y-142429651D01*
X265626879Y-142429871D01*
X265624412Y-142430908D01*
X265621274Y-142432215D01*
X265620659Y-142432529D01*
X265507238Y-142481505D01*
X265506929Y-142481624D01*
X265504901Y-142482514D01*
X265501905Y-142483839D01*
X265501246Y-142484194D01*
X265391119Y-142534853D01*
X265390116Y-142535243D01*
X265387587Y-142536480D01*
X265380914Y-142539552D01*
X265378954Y-142540706D01*
X265275266Y-142591468D01*
X265274383Y-142591849D01*
X265272574Y-142592787D01*
X265269522Y-142594284D01*
X265268554Y-142594879D01*
X265162975Y-142649838D01*
X265162606Y-142650003D01*
X265159804Y-142651487D01*
X265159803Y-142651488D01*
X265159752Y-142651515D01*
X265159639Y-142651575D01*
X265159637Y-142651576D01*
X265156755Y-142653106D01*
X265156024Y-142653576D01*
X265052567Y-142710790D01*
X265051992Y-142711063D01*
X265049096Y-142712711D01*
X265046534Y-142714153D01*
X265045794Y-142714649D01*
X264943791Y-142774532D01*
X264942918Y-142774978D01*
X264940663Y-142776366D01*
X264940662Y-142776367D01*
X264940571Y-142776423D01*
X264940504Y-142776463D01*
X264940503Y-142776463D01*
X264938428Y-142777702D01*
X264937715Y-142778200D01*
X264841921Y-142837857D01*
X264839944Y-142838898D01*
X264834208Y-142842661D01*
X264832540Y-142843710D01*
X264831790Y-142844255D01*
X264733286Y-142909281D01*
X264732626Y-142909660D01*
X264729977Y-142911465D01*
X264727364Y-142913227D01*
X264726702Y-142913755D01*
X264631253Y-142980497D01*
X264630282Y-142981085D01*
X264627800Y-142982914D01*
X264625630Y-142984438D01*
X264624782Y-142985147D01*
X264531013Y-143054559D01*
X264530192Y-143055088D01*
X264527652Y-143057049D01*
X264525123Y-143058968D01*
X264524546Y-143059481D01*
X264437481Y-143127670D01*
X264435617Y-143128903D01*
X264429583Y-143133857D01*
X264427077Y-143135834D01*
X264426272Y-143136598D01*
X264341085Y-143207149D01*
X264339510Y-143208257D01*
X264333557Y-143213381D01*
X264333555Y-143213382D01*
X264333469Y-143213456D01*
X264333415Y-143213502D01*
X264333412Y-143213505D01*
X264331609Y-143215040D01*
X264331117Y-143215516D01*
X264236865Y-143298062D01*
X264236327Y-143298494D01*
X264234850Y-143299827D01*
X264229403Y-143304700D01*
X264228216Y-143305970D01*
X264147691Y-143380539D01*
X264145836Y-143382001D01*
X264140446Y-143387246D01*
X264140445Y-143387247D01*
X264140371Y-143387319D01*
X264140312Y-143387374D01*
X264140310Y-143387375D01*
X264138433Y-143389125D01*
X264137712Y-143389918D01*
X264052683Y-143473072D01*
X264052008Y-143473658D01*
X264049940Y-143475755D01*
X264048042Y-143477652D01*
X264047532Y-143478238D01*
X263966371Y-143561957D01*
X263965703Y-143562560D01*
X263963416Y-143565005D01*
X263961796Y-143566714D01*
X263961350Y-143567248D01*
X263883609Y-143651731D01*
X263883037Y-143652273D01*
X263880668Y-143654929D01*
X263878660Y-143657149D01*
X263878151Y-143657807D01*
X263803619Y-143743033D01*
X263803170Y-143743498D01*
X263801553Y-143745397D01*
X263799280Y-143748032D01*
X263798759Y-143748754D01*
X263732308Y-143828617D01*
X263731046Y-143829909D01*
X263725906Y-143836312D01*
X263723706Y-143838988D01*
X263723199Y-143839726D01*
X263656124Y-143924347D01*
X263655808Y-143924698D01*
X263653640Y-143927480D01*
X263648276Y-143934427D01*
X263647660Y-143935392D01*
X263587151Y-144015415D01*
X263586634Y-144016011D01*
X263584595Y-144018797D01*
X263582867Y-144021110D01*
X263582437Y-144021784D01*
X263520019Y-144108211D01*
X263519554Y-144108808D01*
X263518636Y-144110128D01*
X263517173Y-144112169D01*
X263516744Y-144112866D01*
X263457219Y-144199028D01*
X263456898Y-144199452D01*
X263455661Y-144201284D01*
X263451467Y-144207393D01*
X263450616Y-144208907D01*
X263395511Y-144292168D01*
X263395471Y-144292229D01*
X263393715Y-144294929D01*
X263393433Y-144295437D01*
X263339733Y-144379992D01*
X263339320Y-144380573D01*
X263337957Y-144382789D01*
X263336497Y-144385111D01*
X263336178Y-144385701D01*
X263330749Y-144394596D01*
X263284870Y-144469741D01*
X263284424Y-144470387D01*
X263282998Y-144472808D01*
X263282930Y-144472920D01*
X263282919Y-144472939D01*
X263232485Y-144558697D01*
X263232198Y-144559123D01*
X263230473Y-144562120D01*
X263229104Y-144564498D01*
X263228948Y-144564805D01*
X263181709Y-144648015D01*
X263178517Y-144653056D01*
X263130663Y-144721154D01*
X263105246Y-144747810D01*
X262987834Y-144838956D01*
X262944835Y-144860523D01*
X262800042Y-144900549D01*
X262764748Y-144905011D01*
X262690900Y-144903668D01*
X262685253Y-144903307D01*
X262601115Y-144894062D01*
X262528340Y-144900036D01*
X262521205Y-144898562D01*
X262507480Y-144901325D01*
X262500313Y-144902337D01*
X262424784Y-144908537D01*
X262424781Y-144908537D01*
X262346862Y-144930451D01*
X262337998Y-144930349D01*
X262324068Y-144936315D01*
X262316438Y-144939009D01*
X262254473Y-144956436D01*
X262175477Y-144996209D01*
X262165243Y-144998079D01*
X262155869Y-145004640D01*
X262140537Y-145013799D01*
X262096450Y-145035996D01*
X262020700Y-145094627D01*
X262009689Y-145098936D01*
X262001902Y-145107226D01*
X261987425Y-145120382D01*
X261956542Y-145144285D01*
X261956539Y-145144287D01*
X261888593Y-145221781D01*
X261877504Y-145228815D01*
X261871774Y-145238200D01*
X261859182Y-145255324D01*
X261839904Y-145277310D01*
X261835023Y-145284094D01*
X261829881Y-145290337D01*
X261826531Y-145293902D01*
X261817300Y-145316104D01*
X261784362Y-145372632D01*
X261773952Y-145382478D01*
X261770472Y-145392249D01*
X261760804Y-145413061D01*
X261750832Y-145430174D01*
X261750832Y-145430176D01*
X261750248Y-145431852D01*
X261738989Y-145455657D01*
X261738184Y-145456974D01*
X261733676Y-145479405D01*
X261712145Y-145541187D01*
X261703178Y-145553722D01*
X261701879Y-145563200D01*
X261696122Y-145587164D01*
X261692610Y-145597241D01*
X261692608Y-145597250D01*
X261691087Y-145607807D01*
X261685166Y-145631729D01*
X261684203Y-145634430D01*
X261684146Y-145655996D01*
X261674816Y-145720762D01*
X261668000Y-145735674D01*
X261668602Y-145744275D01*
X261667637Y-145770601D01*
X261667385Y-145772345D01*
X261667385Y-145772359D01*
X261668358Y-145792133D01*
X261667360Y-145815062D01*
X261666801Y-145819138D01*
X261670660Y-145838878D01*
X261673876Y-145904221D01*
X261669826Y-145921029D01*
X261673184Y-145932894D01*
X261674874Y-145940800D01*
X261676082Y-145949053D01*
X261683078Y-145977462D01*
X261686372Y-145998459D01*
X261686735Y-146003662D01*
X261693743Y-146020770D01*
X261718387Y-146120849D01*
X261734801Y-146156290D01*
X261741596Y-146174633D01*
X261743269Y-146180544D01*
X261752485Y-146194475D01*
X261792737Y-146281387D01*
X261792738Y-146281389D01*
X261792740Y-146281392D01*
X261821663Y-146321399D01*
X261831056Y-146336587D01*
X261834206Y-146342613D01*
X261844575Y-146353090D01*
X261875060Y-146395256D01*
X261896396Y-146424768D01*
X261943377Y-146468760D01*
X261948911Y-146474665D01*
X261955995Y-146483287D01*
X261966436Y-146490353D01*
X262025538Y-146545695D01*
X262047914Y-146559733D01*
X262089746Y-146585978D01*
X262095642Y-146590175D01*
X262103960Y-146596860D01*
X262113530Y-146600898D01*
X262175407Y-146639717D01*
X262246629Y-146667256D01*
X262268054Y-146678027D01*
X262309629Y-146704251D01*
X262318886Y-146710090D01*
X262353749Y-146743057D01*
X262382869Y-146783963D01*
X262401383Y-146822889D01*
X262410864Y-146857246D01*
X262415233Y-146895197D01*
X262413312Y-146943137D01*
X262411067Y-146962166D01*
X262390240Y-147067763D01*
X262367564Y-147182735D01*
X262363679Y-147202431D01*
X262344887Y-147297707D01*
X262344887Y-147297708D01*
X262322211Y-147412680D01*
X262322211Y-147412681D01*
X262304638Y-147501778D01*
X262299534Y-147527653D01*
X262276858Y-147642624D01*
X262269298Y-147680948D01*
X262254181Y-147757596D01*
X262254181Y-147757597D01*
X262251099Y-147773225D01*
X262231505Y-147872569D01*
X262208829Y-147987541D01*
X262205868Y-148002552D01*
X262186152Y-148102513D01*
X262186152Y-148102514D01*
X262176882Y-148149516D01*
X262163476Y-148217486D01*
X262152137Y-148274972D01*
X262140799Y-148332458D01*
X262140799Y-148332459D01*
X262118123Y-148447430D01*
X262118123Y-148447431D01*
X262095446Y-148562402D01*
X262095446Y-148562403D01*
X262078732Y-148647146D01*
X262072770Y-148677375D01*
X262050094Y-148792347D01*
X262044208Y-148822190D01*
X262027417Y-148907319D01*
X262027417Y-148907320D01*
X262004741Y-149022292D01*
X262004741Y-149022293D01*
X261982064Y-149137264D01*
X261982064Y-149137265D01*
X261971550Y-149190573D01*
X261959388Y-149252236D01*
X261959042Y-149253989D01*
X261936711Y-149367208D01*
X261936711Y-149367209D01*
X261933400Y-149383995D01*
X261914035Y-149482181D01*
X261905884Y-149523508D01*
X261891358Y-149597153D01*
X261891358Y-149597154D01*
X261871265Y-149699032D01*
X261846006Y-149827098D01*
X261837214Y-149871673D01*
X261823329Y-149942070D01*
X261823329Y-149942071D01*
X261800653Y-150057042D01*
X261800653Y-150057043D01*
X261777976Y-150172014D01*
X261777976Y-150172015D01*
X261756055Y-150283160D01*
X261755300Y-150286987D01*
X261745013Y-150339140D01*
X261732623Y-150401959D01*
X261732623Y-150401960D01*
X261709947Y-150516931D01*
X261709947Y-150516932D01*
X261700817Y-150563218D01*
X261686669Y-150634952D01*
X261686663Y-150634999D01*
X261638405Y-150880471D01*
X261638395Y-150880543D01*
X261581049Y-151173546D01*
X261581046Y-151173609D01*
X261546851Y-151348468D01*
X261502428Y-151574917D01*
X261458815Y-151795588D01*
X261415837Y-152010513D01*
X261373127Y-152220621D01*
X261353903Y-152313239D01*
X261330470Y-152426134D01*
X261287628Y-152627352D01*
X261244352Y-152824664D01*
X261200358Y-153018575D01*
X261155455Y-153209218D01*
X261109341Y-153397186D01*
X261061768Y-153582830D01*
X261012509Y-153766427D01*
X260961337Y-153948288D01*
X260907950Y-154128954D01*
X260853370Y-154304706D01*
X260852147Y-154308643D01*
X260793645Y-154487838D01*
X260732192Y-154666906D01*
X260667580Y-154846111D01*
X260599477Y-155026034D01*
X260527744Y-155206772D01*
X260452036Y-155388930D01*
X260372162Y-155572738D01*
X260287846Y-155758635D01*
X260198830Y-155947004D01*
X260104901Y-156138145D01*
X260005771Y-156332502D01*
X259901185Y-156530458D01*
X259790957Y-156732266D01*
X259674773Y-156938421D01*
X259586377Y-157090773D01*
X259496142Y-157242014D01*
X259420405Y-157365503D01*
X259404128Y-157392043D01*
X259310358Y-157540829D01*
X259214761Y-157688492D01*
X259117512Y-157834770D01*
X259018487Y-157979856D01*
X258917708Y-158123717D01*
X258815243Y-158266262D01*
X258711051Y-158407553D01*
X258605200Y-158547496D01*
X258497674Y-158686118D01*
X258388457Y-158823443D01*
X258277590Y-158959416D01*
X258165122Y-159093980D01*
X258050997Y-159227204D01*
X257935338Y-159358945D01*
X257817965Y-159489406D01*
X257699090Y-159618354D01*
X257578644Y-159745862D01*
X257456559Y-159871997D01*
X257333010Y-159996580D01*
X257207931Y-160119678D01*
X257081293Y-160241314D01*
X256953186Y-160361403D01*
X256823553Y-160479993D01*
X256692452Y-160597029D01*
X256559892Y-160712496D01*
X256425895Y-160826379D01*
X256290458Y-160938673D01*
X256153552Y-161049397D01*
X256015272Y-161158474D01*
X255901244Y-161246182D01*
X255875474Y-161266004D01*
X255734453Y-161371761D01*
X255592281Y-161475695D01*
X255448851Y-161577889D01*
X255304361Y-161678208D01*
X255158607Y-161776795D01*
X255011697Y-161873576D01*
X254863841Y-161968421D01*
X254714693Y-162061552D01*
X254564558Y-162152780D01*
X254413356Y-162242157D01*
X254261073Y-162329693D01*
X254107795Y-162415338D01*
X253953470Y-162499123D01*
X253798153Y-162581019D01*
X253641856Y-162661018D01*
X253484599Y-162739113D01*
X253326431Y-162815276D01*
X253167339Y-162889517D01*
X253007340Y-162961826D01*
X252846421Y-163032210D01*
X252684619Y-163100646D01*
X252522046Y-163167091D01*
X252358479Y-163231629D01*
X252194278Y-163294122D01*
X252029204Y-163354657D01*
X251863174Y-163413258D01*
X251696574Y-163469787D01*
X251529198Y-163524315D01*
X251361016Y-163576845D01*
X251192218Y-163627317D01*
X251022624Y-163675781D01*
X250852899Y-163722050D01*
X250682565Y-163766262D01*
X250511755Y-163808384D01*
X250340721Y-163848359D01*
X250169114Y-163886272D01*
X249997225Y-163922060D01*
X249824882Y-163955762D01*
X249652292Y-163987340D01*
X249479288Y-164016826D01*
X249306077Y-164044185D01*
X249132503Y-164069446D01*
X248958655Y-164092594D01*
X248784665Y-164113615D01*
X248610441Y-164132523D01*
X248436005Y-164149314D01*
X248261306Y-164163994D01*
X248086448Y-164176552D01*
X247911526Y-164186983D01*
X247736395Y-164195294D01*
X247561240Y-164201478D01*
X247385913Y-164205536D01*
X247210603Y-164207465D01*
X247035243Y-164207268D01*
X246859772Y-164204938D01*
X246684374Y-164200477D01*
X246508903Y-164193879D01*
X246333544Y-164185150D01*
X246158152Y-164174279D01*
X246158152Y-164174278D01*
X245982910Y-164161275D01*
X245807665Y-164146125D01*
X245632618Y-164128842D01*
X245457606Y-164109406D01*
X245282823Y-164087835D01*
X245108314Y-164064134D01*
X244934286Y-164038335D01*
X244760659Y-164010431D01*
X244587391Y-163980415D01*
X244414558Y-163948304D01*
X244242284Y-163914123D01*
X244070419Y-163877845D01*
X243899101Y-163839501D01*
X243728340Y-163799098D01*
X243558100Y-163756626D01*
X243388361Y-163712083D01*
X243219279Y-163665510D01*
X243050674Y-163616857D01*
X243050674Y-163616856D01*
X242882781Y-163566193D01*
X242715469Y-163513478D01*
X242548858Y-163458753D01*
X242418595Y-163414206D01*
X242382950Y-163402016D01*
X242217701Y-163343256D01*
X242053116Y-163282469D01*
X241889302Y-163219696D01*
X241889301Y-163219696D01*
X241726205Y-163154913D01*
X241678879Y-163135446D01*
X241563829Y-163088121D01*
X241402306Y-163019373D01*
X241241514Y-162948615D01*
X241081679Y-162875943D01*
X240922547Y-162801243D01*
X240764339Y-162724612D01*
X240606941Y-162645992D01*
X240450502Y-162565456D01*
X240294977Y-162482976D01*
X240140348Y-162398540D01*
X239986852Y-162312275D01*
X239986852Y-162312274D01*
X239834505Y-162224196D01*
X239683321Y-162134313D01*
X239533278Y-162042619D01*
X239384465Y-161949168D01*
X239236764Y-161853891D01*
X239090383Y-161756921D01*
X238945295Y-161658252D01*
X238801349Y-161557780D01*
X238721000Y-161500233D01*
X238658687Y-161455603D01*
X238517346Y-161351752D01*
X238515021Y-161350000D01*
X246400001Y-161350000D01*
X246400001Y-161386654D01*
X246410319Y-161487652D01*
X246464546Y-161651300D01*
X246464551Y-161651311D01*
X246555052Y-161798034D01*
X246555055Y-161798038D01*
X246676961Y-161919944D01*
X246676965Y-161919947D01*
X246823688Y-162010448D01*
X246823699Y-162010453D01*
X246987347Y-162064680D01*
X247088351Y-162074999D01*
X247187500Y-162074998D01*
X247187500Y-161350000D01*
X246400001Y-161350000D01*
X238515021Y-161350000D01*
X238377264Y-161246182D01*
X238238584Y-161139004D01*
X238238583Y-161139004D01*
X238101091Y-161030053D01*
X237965032Y-160919520D01*
X237881549Y-160850000D01*
X246400000Y-160850000D01*
X247187500Y-160850000D01*
X247187500Y-160124999D01*
X247088360Y-160125000D01*
X247088344Y-160125001D01*
X246987347Y-160135319D01*
X246823699Y-160189546D01*
X246823688Y-160189551D01*
X246676965Y-160280052D01*
X246676961Y-160280055D01*
X246555055Y-160401961D01*
X246555052Y-160401965D01*
X246464551Y-160548688D01*
X246464546Y-160548699D01*
X246410319Y-160712347D01*
X246400000Y-160813345D01*
X246400000Y-160850000D01*
X237881549Y-160850000D01*
X237830290Y-160807315D01*
X237696918Y-160693484D01*
X237564977Y-160578074D01*
X237434441Y-160461067D01*
X237305317Y-160342469D01*
X237177577Y-160222247D01*
X237051300Y-160100478D01*
X236926492Y-159977165D01*
X236803214Y-159852366D01*
X236681398Y-159726016D01*
X236561012Y-159598070D01*
X236442224Y-159468705D01*
X236325013Y-159337897D01*
X236209239Y-159205488D01*
X236095104Y-159071697D01*
X235982517Y-158936416D01*
X235871525Y-158799699D01*
X235762177Y-158661595D01*
X235753224Y-158650000D01*
X244044722Y-158650000D01*
X244063762Y-158806818D01*
X244112913Y-158936416D01*
X244119780Y-158954523D01*
X244209517Y-159084530D01*
X244327760Y-159189283D01*
X244327762Y-159189284D01*
X244467634Y-159262696D01*
X244621014Y-159300500D01*
X244621015Y-159300500D01*
X244778985Y-159300500D01*
X244932365Y-159262696D01*
X244932365Y-159262695D01*
X245072240Y-159189283D01*
X245072243Y-159189279D01*
X245077044Y-159185967D01*
X245143399Y-159164085D01*
X245147483Y-159164018D01*
X245382700Y-159164018D01*
X245449739Y-159183703D01*
X245495494Y-159236507D01*
X245506700Y-159288018D01*
X245506700Y-159313196D01*
X245521232Y-159386253D01*
X245521233Y-159386257D01*
X245521234Y-159386258D01*
X245576599Y-159469119D01*
X245659460Y-159524484D01*
X245659464Y-159524485D01*
X245732521Y-159539017D01*
X245732524Y-159539018D01*
X245732526Y-159539018D01*
X246781876Y-159539018D01*
X246781877Y-159539017D01*
X246854940Y-159524484D01*
X246937801Y-159469119D01*
X246993166Y-159386258D01*
X247007700Y-159313192D01*
X247007700Y-158263844D01*
X247007700Y-158263841D01*
X247007699Y-158263839D01*
X246993167Y-158190782D01*
X246993166Y-158190778D01*
X246937801Y-158107917D01*
X246854940Y-158052552D01*
X246854939Y-158052551D01*
X246854935Y-158052550D01*
X246781877Y-158038018D01*
X246781874Y-158038018D01*
X245732526Y-158038018D01*
X245732523Y-158038018D01*
X245659464Y-158052550D01*
X245659460Y-158052551D01*
X245576599Y-158107917D01*
X245521233Y-158190778D01*
X245521232Y-158190782D01*
X245506700Y-158263839D01*
X245506700Y-158275659D01*
X245487015Y-158342698D01*
X245434211Y-158388453D01*
X245365053Y-158398397D01*
X245301497Y-158369372D01*
X245280650Y-158346099D01*
X245225900Y-158266781D01*
X245190483Y-158215470D01*
X245072240Y-158110717D01*
X245072238Y-158110716D01*
X245072237Y-158110715D01*
X244932365Y-158037303D01*
X244778986Y-157999500D01*
X244778985Y-157999500D01*
X244621015Y-157999500D01*
X244621014Y-157999500D01*
X244467634Y-158037303D01*
X244327762Y-158110715D01*
X244209516Y-158215471D01*
X244119781Y-158345475D01*
X244119780Y-158345476D01*
X244063762Y-158493181D01*
X244044722Y-158649999D01*
X244044722Y-158650000D01*
X235753224Y-158650000D01*
X235654660Y-158522350D01*
X235548834Y-158381787D01*
X235444732Y-158239947D01*
X235342561Y-158097124D01*
X235242036Y-157952926D01*
X235143374Y-157807662D01*
X235046531Y-157661279D01*
X234951454Y-157513694D01*
X234858251Y-157365082D01*
X234766867Y-157215359D01*
X234677291Y-157064504D01*
X234589602Y-156912654D01*
X234503708Y-156759649D01*
X234419782Y-156605798D01*
X234337700Y-156450886D01*
X234257493Y-156294960D01*
X234179193Y-156138085D01*
X234118898Y-156013518D01*
X241076878Y-156013518D01*
X241096123Y-156221209D01*
X241096123Y-156221211D01*
X241096124Y-156221214D01*
X241127788Y-156332502D01*
X241153207Y-156421840D01*
X241207513Y-156530900D01*
X241246181Y-156608556D01*
X241371882Y-156775011D01*
X241526029Y-156915534D01*
X241703372Y-157025341D01*
X241897873Y-157100691D01*
X242102907Y-157139018D01*
X242102910Y-157139018D01*
X242311490Y-157139018D01*
X242311493Y-157139018D01*
X242516527Y-157100691D01*
X242711028Y-157025341D01*
X242888371Y-156915534D01*
X243042518Y-156775011D01*
X243168219Y-156608556D01*
X243203094Y-156538518D01*
X246207200Y-156538518D01*
X246207200Y-156836362D01*
X246213601Y-156895890D01*
X246213603Y-156895897D01*
X246263845Y-157030604D01*
X246263849Y-157030611D01*
X246350009Y-157145705D01*
X246350012Y-157145708D01*
X246465106Y-157231868D01*
X246465113Y-157231872D01*
X246599820Y-157282114D01*
X246599827Y-157282116D01*
X246659355Y-157288517D01*
X246659372Y-157288518D01*
X246957200Y-157288518D01*
X246957200Y-156538518D01*
X247457200Y-156538518D01*
X247457200Y-157288518D01*
X247755028Y-157288518D01*
X247755044Y-157288517D01*
X247814572Y-157282116D01*
X247814579Y-157282114D01*
X247949286Y-157231872D01*
X247949293Y-157231868D01*
X248064387Y-157145708D01*
X248064390Y-157145705D01*
X248150550Y-157030611D01*
X248150554Y-157030604D01*
X248200796Y-156895897D01*
X248200798Y-156895890D01*
X248207199Y-156836362D01*
X248207200Y-156836345D01*
X248207200Y-156538518D01*
X247457200Y-156538518D01*
X246957200Y-156538518D01*
X246207200Y-156538518D01*
X243203094Y-156538518D01*
X243261194Y-156421837D01*
X243318276Y-156221214D01*
X243335205Y-156038517D01*
X246207199Y-156038517D01*
X246207200Y-156038518D01*
X246957200Y-156038518D01*
X246957200Y-155288518D01*
X247457200Y-155288518D01*
X247457200Y-156038518D01*
X248207200Y-156038518D01*
X248207200Y-156013518D01*
X251076878Y-156013518D01*
X251096123Y-156221209D01*
X251096123Y-156221211D01*
X251096124Y-156221214D01*
X251127788Y-156332502D01*
X251153207Y-156421840D01*
X251207513Y-156530900D01*
X251246181Y-156608556D01*
X251371882Y-156775011D01*
X251526029Y-156915534D01*
X251703372Y-157025341D01*
X251897873Y-157100691D01*
X252102907Y-157139018D01*
X252102910Y-157139018D01*
X252311490Y-157139018D01*
X252311493Y-157139018D01*
X252516527Y-157100691D01*
X252711028Y-157025341D01*
X252888371Y-156915534D01*
X253042518Y-156775011D01*
X253168219Y-156608556D01*
X253261194Y-156421837D01*
X253318276Y-156221214D01*
X253337522Y-156013518D01*
X253318276Y-155805822D01*
X253261194Y-155605199D01*
X253168219Y-155418480D01*
X253042518Y-155252025D01*
X252888371Y-155111502D01*
X252711028Y-155001695D01*
X252711027Y-155001694D01*
X252568809Y-154946599D01*
X252516527Y-154926345D01*
X252311493Y-154888018D01*
X252102907Y-154888018D01*
X251897873Y-154926345D01*
X251897870Y-154926345D01*
X251897870Y-154926346D01*
X251703372Y-155001694D01*
X251703371Y-155001695D01*
X251526027Y-155111503D01*
X251371883Y-155252023D01*
X251246181Y-155418479D01*
X251153207Y-155605195D01*
X251096123Y-155805826D01*
X251076878Y-156013517D01*
X251076878Y-156013518D01*
X248207200Y-156013518D01*
X248207200Y-155740690D01*
X248207199Y-155740673D01*
X248200798Y-155681145D01*
X248200796Y-155681138D01*
X248150554Y-155546431D01*
X248150550Y-155546424D01*
X248064390Y-155431330D01*
X248064387Y-155431327D01*
X247949293Y-155345167D01*
X247949286Y-155345163D01*
X247814579Y-155294921D01*
X247814572Y-155294919D01*
X247755044Y-155288518D01*
X247457200Y-155288518D01*
X246957200Y-155288518D01*
X246659355Y-155288518D01*
X246599827Y-155294919D01*
X246599820Y-155294921D01*
X246465113Y-155345163D01*
X246465106Y-155345167D01*
X246350012Y-155431327D01*
X246350009Y-155431330D01*
X246263849Y-155546424D01*
X246263845Y-155546431D01*
X246213603Y-155681138D01*
X246213601Y-155681145D01*
X246207200Y-155740673D01*
X246207200Y-155740690D01*
X246207199Y-156038517D01*
X243335205Y-156038517D01*
X243337522Y-156013518D01*
X243318276Y-155805822D01*
X243261194Y-155605199D01*
X243168219Y-155418480D01*
X243042518Y-155252025D01*
X242888371Y-155111502D01*
X242711028Y-155001695D01*
X242711027Y-155001694D01*
X242568809Y-154946599D01*
X242516527Y-154926345D01*
X242311493Y-154888018D01*
X242102907Y-154888018D01*
X241897873Y-154926345D01*
X241897870Y-154926345D01*
X241897870Y-154926346D01*
X241703372Y-155001694D01*
X241703371Y-155001695D01*
X241526027Y-155111503D01*
X241371883Y-155252023D01*
X241246181Y-155418479D01*
X241153207Y-155605195D01*
X241096123Y-155805826D01*
X241076878Y-156013517D01*
X241076878Y-156013518D01*
X234118898Y-156013518D01*
X234102812Y-155980286D01*
X234028307Y-155821473D01*
X233955759Y-155661812D01*
X233885132Y-155501223D01*
X233816458Y-155339776D01*
X233749723Y-155177437D01*
X233684975Y-155014314D01*
X233622147Y-154850235D01*
X233561337Y-154685442D01*
X233502514Y-154519856D01*
X233445697Y-154353518D01*
X233390869Y-154186372D01*
X233338048Y-154018456D01*
X233329031Y-153988518D01*
X246151617Y-153988518D01*
X246171899Y-154194450D01*
X246171900Y-154194452D01*
X246231968Y-154392472D01*
X246329515Y-154574968D01*
X246329517Y-154574970D01*
X246460789Y-154734928D01*
X246557409Y-154814220D01*
X246620750Y-154866203D01*
X246803246Y-154963750D01*
X247001266Y-155023818D01*
X247001265Y-155023818D01*
X247028029Y-155026454D01*
X247155592Y-155039018D01*
X247155595Y-155039018D01*
X247258805Y-155039018D01*
X247258808Y-155039018D01*
X247413134Y-155023818D01*
X247611154Y-154963750D01*
X247793650Y-154866203D01*
X247953610Y-154734928D01*
X248084885Y-154574968D01*
X248182432Y-154392472D01*
X248242500Y-154194452D01*
X248262783Y-153988518D01*
X248242500Y-153782584D01*
X248182432Y-153584564D01*
X248084885Y-153402068D01*
X248032902Y-153338727D01*
X247953610Y-153242107D01*
X247835877Y-153145487D01*
X247793650Y-153110833D01*
X247611154Y-153013286D01*
X247413134Y-152953218D01*
X247413132Y-152953217D01*
X247413134Y-152953217D01*
X247294005Y-152941484D01*
X247258808Y-152938018D01*
X247155592Y-152938018D01*
X247117498Y-152941769D01*
X247001267Y-152953217D01*
X246803243Y-153013287D01*
X246720051Y-153057755D01*
X246620750Y-153110833D01*
X246620748Y-153110834D01*
X246620747Y-153110835D01*
X246460789Y-153242107D01*
X246329517Y-153402065D01*
X246231969Y-153584561D01*
X246171899Y-153782585D01*
X246151617Y-153988518D01*
X233329031Y-153988518D01*
X233287269Y-153849866D01*
X233238595Y-153680832D01*
X233211753Y-153583149D01*
X233192029Y-153511367D01*
X233147533Y-153341360D01*
X233105149Y-153170983D01*
X233064866Y-153000197D01*
X233051107Y-152938518D01*
X236176878Y-152938518D01*
X236196115Y-153121547D01*
X236196116Y-153121550D01*
X236252983Y-153296571D01*
X236252986Y-153296577D01*
X236345005Y-153455958D01*
X236454526Y-153577595D01*
X236468149Y-153592724D01*
X236468151Y-153592726D01*
X236617034Y-153700896D01*
X236617035Y-153700896D01*
X236617039Y-153700899D01*
X236754153Y-153761946D01*
X236785161Y-153775752D01*
X236785166Y-153775754D01*
X236965181Y-153814018D01*
X237149219Y-153814018D01*
X237329234Y-153775754D01*
X237497361Y-153700899D01*
X237646250Y-153592725D01*
X237769395Y-153455958D01*
X237861414Y-153296577D01*
X237918285Y-153121547D01*
X237937522Y-152938518D01*
X237918285Y-152755489D01*
X237876667Y-152627402D01*
X237861416Y-152580464D01*
X237861413Y-152580458D01*
X237769395Y-152421078D01*
X237646250Y-152284311D01*
X237646248Y-152284309D01*
X237497359Y-152176135D01*
X237494697Y-152174598D01*
X237493464Y-152173305D01*
X237492104Y-152172317D01*
X237492284Y-152172068D01*
X237446483Y-152124030D01*
X237432700Y-152067213D01*
X237432700Y-147309822D01*
X237452385Y-147242783D01*
X237492186Y-147204832D01*
X237492104Y-147204719D01*
X237492954Y-147204101D01*
X237494706Y-147202431D01*
X237497350Y-147200903D01*
X237497361Y-147200899D01*
X237646250Y-147092725D01*
X237769395Y-146955958D01*
X237861414Y-146796577D01*
X237918285Y-146621547D01*
X237937522Y-146438518D01*
X237918285Y-146255489D01*
X237874538Y-146120849D01*
X237861416Y-146080464D01*
X237861413Y-146080458D01*
X237769395Y-145921078D01*
X237646250Y-145784311D01*
X237646249Y-145784310D01*
X237497359Y-145676135D01*
X237494697Y-145674598D01*
X237493464Y-145673305D01*
X237492104Y-145672317D01*
X237492284Y-145672068D01*
X237446483Y-145624030D01*
X237432700Y-145567213D01*
X237432700Y-142674699D01*
X237452385Y-142607660D01*
X237469019Y-142587018D01*
X240219218Y-139836819D01*
X240280541Y-139803334D01*
X240306899Y-139800500D01*
X241003692Y-139800500D01*
X241070731Y-139820185D01*
X241105742Y-139854061D01*
X241108163Y-139857569D01*
X241109515Y-139859528D01*
X241109517Y-139859530D01*
X241227760Y-139964283D01*
X241227762Y-139964284D01*
X241367634Y-140037696D01*
X241521014Y-140075500D01*
X241521015Y-140075500D01*
X241678985Y-140075500D01*
X241832365Y-140037696D01*
X241914962Y-139994345D01*
X241972240Y-139964283D01*
X242090483Y-139859530D01*
X242180220Y-139729523D01*
X242236237Y-139581818D01*
X242255278Y-139425000D01*
X242236237Y-139268182D01*
X242231578Y-139255898D01*
X242206291Y-139189222D01*
X242180220Y-139120477D01*
X242090483Y-138990470D01*
X241972240Y-138885717D01*
X241972238Y-138885716D01*
X241972237Y-138885715D01*
X241832365Y-138812303D01*
X241678986Y-138774500D01*
X241678985Y-138774500D01*
X241521015Y-138774500D01*
X241521014Y-138774500D01*
X241367634Y-138812303D01*
X241227762Y-138885715D01*
X241109516Y-138990470D01*
X241107089Y-138993987D01*
X241105742Y-138995938D01*
X241051463Y-139039929D01*
X241003692Y-139049500D01*
X240151804Y-139049500D01*
X240126359Y-139046861D01*
X240115733Y-139044633D01*
X240115730Y-139044633D01*
X240080508Y-139049023D01*
X240072832Y-139049500D01*
X240068886Y-139049500D01*
X240051615Y-139052381D01*
X240045858Y-139053342D01*
X239991370Y-139060134D01*
X239983857Y-139062371D01*
X239976387Y-139064936D01*
X239928122Y-139091055D01*
X239878792Y-139115171D01*
X239872375Y-139119753D01*
X239866175Y-139124579D01*
X239828991Y-139164971D01*
X236828308Y-142165652D01*
X236808454Y-142181776D01*
X236799365Y-142187714D01*
X236799364Y-142187715D01*
X236777563Y-142215723D01*
X236772486Y-142221474D01*
X236769684Y-142224277D01*
X236769674Y-142224288D01*
X236756105Y-142243295D01*
X236722392Y-142286608D01*
X236718647Y-142293529D01*
X236715188Y-142300604D01*
X236699529Y-142353203D01*
X236681700Y-142405138D01*
X236680406Y-142412892D01*
X236679431Y-142420711D01*
X236681700Y-142475555D01*
X236681699Y-145567213D01*
X236662014Y-145634252D01*
X236622214Y-145672204D01*
X236622296Y-145672317D01*
X236621459Y-145672924D01*
X236619708Y-145674595D01*
X236617040Y-145676135D01*
X236468150Y-145784310D01*
X236345004Y-145921079D01*
X236252986Y-146080458D01*
X236252983Y-146080464D01*
X236205964Y-146225177D01*
X236196115Y-146255489D01*
X236176878Y-146438518D01*
X236196115Y-146621547D01*
X236196116Y-146621549D01*
X236196116Y-146621550D01*
X236252983Y-146796571D01*
X236252986Y-146796577D01*
X236345005Y-146955958D01*
X236350595Y-146962166D01*
X236468149Y-147092724D01*
X236468151Y-147092726D01*
X236617030Y-147200893D01*
X236617033Y-147200895D01*
X236617039Y-147200899D01*
X236617045Y-147200901D01*
X236619694Y-147202431D01*
X236620928Y-147203725D01*
X236622296Y-147204719D01*
X236622114Y-147204969D01*
X236667912Y-147252995D01*
X236681700Y-147309822D01*
X236681700Y-152067213D01*
X236662015Y-152134252D01*
X236622213Y-152172203D01*
X236622296Y-152172317D01*
X236621452Y-152172930D01*
X236619703Y-152174598D01*
X236617040Y-152176135D01*
X236468151Y-152284309D01*
X236468149Y-152284311D01*
X236345004Y-152421079D01*
X236252986Y-152580458D01*
X236252983Y-152580464D01*
X236198596Y-152747852D01*
X236196115Y-152755489D01*
X236183477Y-152875729D01*
X236176931Y-152938018D01*
X236176878Y-152938518D01*
X233051107Y-152938518D01*
X233026677Y-152829003D01*
X232990568Y-152657324D01*
X232956575Y-152485356D01*
X232924722Y-152313239D01*
X232924675Y-152312986D01*
X232894874Y-152140257D01*
X232867194Y-151967299D01*
X232841621Y-151794049D01*
X232818148Y-151620467D01*
X232796796Y-151446689D01*
X232790439Y-151389201D01*
X232777548Y-151272612D01*
X232760422Y-151098370D01*
X232745408Y-150923898D01*
X232732517Y-150749313D01*
X232721742Y-150574477D01*
X232713093Y-150399608D01*
X232706566Y-150224531D01*
X232702166Y-150049435D01*
X232699893Y-149874180D01*
X232699751Y-149698946D01*
X232701738Y-149523670D01*
X232705858Y-149348292D01*
X232712112Y-149172998D01*
X232720507Y-148997634D01*
X232731036Y-148822382D01*
X232743708Y-148647126D01*
X232758526Y-148471929D01*
X232775479Y-148296915D01*
X232794577Y-148122016D01*
X232815788Y-147947516D01*
X232839116Y-147773337D01*
X232864550Y-147599562D01*
X232892070Y-147426268D01*
X232921720Y-147253202D01*
X232953422Y-147080776D01*
X232987236Y-146908653D01*
X233023110Y-146737100D01*
X233061059Y-146566020D01*
X233101075Y-146395451D01*
X233143167Y-146225351D01*
X233187320Y-146055779D01*
X233233497Y-145886873D01*
X233281723Y-145718529D01*
X233331986Y-145550790D01*
X233384306Y-145383596D01*
X233438621Y-145217144D01*
X233494997Y-145051227D01*
X233553386Y-144886005D01*
X233613709Y-144721685D01*
X233676103Y-144557898D01*
X233740499Y-144394835D01*
X233806844Y-144232632D01*
X233875218Y-144071099D01*
X233945545Y-143910421D01*
X234017857Y-143750527D01*
X234092147Y-143591444D01*
X234168347Y-143433316D01*
X234246569Y-143275921D01*
X234326711Y-143119476D01*
X234408811Y-142963909D01*
X234502910Y-142791047D01*
X234510653Y-142777274D01*
X234599244Y-142619688D01*
X234697939Y-142449594D01*
X234798939Y-142280867D01*
X234902155Y-142113648D01*
X235007646Y-141947840D01*
X235115374Y-141783500D01*
X235225338Y-141620630D01*
X235337497Y-141459287D01*
X235451848Y-141299481D01*
X235568350Y-141141265D01*
X235687037Y-140984594D01*
X235807877Y-140829516D01*
X235930839Y-140676072D01*
X235943987Y-140660115D01*
X236055885Y-140524312D01*
X236183090Y-140374152D01*
X236312187Y-140225900D01*
X236443350Y-140079356D01*
X236576392Y-139934727D01*
X236711325Y-139791990D01*
X236848198Y-139651094D01*
X236986958Y-139512092D01*
X237127584Y-139375003D01*
X237270058Y-139239845D01*
X237414356Y-139106639D01*
X237560464Y-138975401D01*
X237708352Y-138846155D01*
X237858017Y-138718909D01*
X238009377Y-138593730D01*
X238162507Y-138470561D01*
X238317354Y-138349447D01*
X238473886Y-138230417D01*
X238534830Y-138187226D01*
X238955200Y-137893531D01*
X238957559Y-137891964D01*
X239144898Y-137773746D01*
X239470096Y-137577557D01*
X239679396Y-137460666D01*
X239685655Y-137457441D01*
X240017018Y-137286677D01*
X240215940Y-137189174D01*
X240218469Y-137188008D01*
X240689233Y-136984045D01*
X240747361Y-136959322D01*
X240750691Y-136958250D01*
X240755856Y-136955804D01*
X240759793Y-136954103D01*
X240785414Y-136944069D01*
X240799708Y-136935769D01*
X240809685Y-136930935D01*
X240826026Y-136923602D01*
X240827947Y-136922278D01*
X240889600Y-136893048D01*
X240892233Y-136892119D01*
X240901381Y-136887463D01*
X240915687Y-136880821D01*
X240918410Y-136878880D01*
X240989336Y-136843141D01*
X240992793Y-136841752D01*
X240997488Y-136839111D01*
X241000163Y-136837691D01*
X241007217Y-136834163D01*
X241010516Y-136831827D01*
X241035672Y-136817771D01*
X241093369Y-136785532D01*
X241097179Y-136783760D01*
X241099682Y-136782154D01*
X241103348Y-136779975D01*
X241107525Y-136777682D01*
X241111117Y-136774942D01*
X241193525Y-136723135D01*
X241196695Y-136721480D01*
X241200658Y-136718736D01*
X241203430Y-136716924D01*
X241208671Y-136713694D01*
X241211604Y-136711273D01*
X241279543Y-136665042D01*
X241281877Y-136663904D01*
X241294422Y-136654920D01*
X241304615Y-136648082D01*
X241306443Y-136646439D01*
X241377662Y-136596202D01*
X241379977Y-136594712D01*
X241381928Y-136592802D01*
X241438017Y-136542161D01*
X241441445Y-136539540D01*
X241444067Y-136536875D01*
X241447302Y-136533814D01*
X241450309Y-136531165D01*
X241453132Y-136527853D01*
X241507552Y-136473931D01*
X241510528Y-136471540D01*
X241515724Y-136465928D01*
X241517961Y-136463634D01*
X241523278Y-136458453D01*
X241525430Y-136455678D01*
X241574194Y-136404319D01*
X241576086Y-136402804D01*
X241585939Y-136391951D01*
X241595726Y-136381748D01*
X241597067Y-136379837D01*
X241647672Y-136324764D01*
X241649003Y-136323631D01*
X241658080Y-136313437D01*
X241672089Y-136298444D01*
X241673161Y-136296712D01*
X241724930Y-136239304D01*
X241727303Y-136236967D01*
X241729697Y-136234042D01*
X241730427Y-136233239D01*
X241738822Y-136221181D01*
X241738823Y-136221181D01*
X241738878Y-136221102D01*
X241738931Y-136221031D01*
X241738931Y-136221030D01*
X241745350Y-136212431D01*
X241746777Y-136209826D01*
X241791427Y-136146100D01*
X241793918Y-136143140D01*
X241796911Y-136138407D01*
X241798735Y-136135685D01*
X241802099Y-136130938D01*
X241803876Y-136127529D01*
X241846529Y-136061038D01*
X241848444Y-136058597D01*
X241852947Y-136051033D01*
X241857542Y-136043994D01*
X241858914Y-136041167D01*
X241868696Y-136024995D01*
X241904528Y-135965750D01*
X241905678Y-135964274D01*
X241912164Y-135953128D01*
X241919396Y-135941292D01*
X241920222Y-135939349D01*
X241960792Y-135869987D01*
X241962495Y-135867490D01*
X241963776Y-135865092D01*
X241964913Y-135862283D01*
X242001201Y-135787573D01*
X242003201Y-135784326D01*
X242006053Y-135777739D01*
X242007384Y-135774866D01*
X242010392Y-135768786D01*
X242011525Y-135765419D01*
X242046416Y-135687138D01*
X242050156Y-135680029D01*
X242062034Y-135660614D01*
X242090782Y-135613624D01*
X242118473Y-135582012D01*
X242186975Y-135526495D01*
X242229380Y-135504075D01*
X242312199Y-135479211D01*
X242360088Y-135474582D01*
X242448124Y-135483316D01*
X242491936Y-135496104D01*
X242546502Y-135523761D01*
X242563210Y-135532230D01*
X242569755Y-135535775D01*
X242587778Y-135547676D01*
X242593327Y-135552079D01*
X242594184Y-135552797D01*
X242594185Y-135552797D01*
X242664380Y-135611538D01*
X242715340Y-135639323D01*
X242729607Y-135647102D01*
X242734818Y-135652306D01*
X242747763Y-135657493D01*
X242754384Y-135660611D01*
X242825104Y-135699170D01*
X242904627Y-135723794D01*
X242911536Y-135728379D01*
X242925235Y-135730727D01*
X242933088Y-135732607D01*
X242999974Y-135753318D01*
X243090301Y-135762508D01*
X243099068Y-135766082D01*
X243108906Y-135765673D01*
X243126603Y-135766202D01*
X243182095Y-135771849D01*
X243279486Y-135762325D01*
X243289945Y-135764316D01*
X243299365Y-135761882D01*
X243318320Y-135758527D01*
X243329598Y-135757424D01*
X243364281Y-135754033D01*
X243364284Y-135754032D01*
X243364288Y-135754032D01*
X243464439Y-135723448D01*
X243476209Y-135723321D01*
X243484640Y-135719101D01*
X243503942Y-135711386D01*
X243539361Y-135700570D01*
X243539359Y-135700570D01*
X243539368Y-135700568D01*
X243637441Y-135647592D01*
X243649987Y-135644922D01*
X243656976Y-135639323D01*
X243675575Y-135626993D01*
X243700434Y-135613566D01*
X243700440Y-135613560D01*
X243705550Y-135610106D01*
X243705894Y-135610614D01*
X243719280Y-135601857D01*
X243735046Y-135584758D01*
X243791240Y-135537986D01*
X243803903Y-135532503D01*
X243809161Y-135526055D01*
X243825939Y-135509104D01*
X243841135Y-135496457D01*
X243843281Y-135493790D01*
X243862315Y-135474798D01*
X243873515Y-135456231D01*
X243919387Y-135399245D01*
X243931453Y-135390858D01*
X243934899Y-135384120D01*
X243948707Y-135362822D01*
X243955925Y-135353856D01*
X243961224Y-135343648D01*
X243975165Y-135322438D01*
X243975890Y-135321548D01*
X243982771Y-135302146D01*
X244016479Y-135237221D01*
X244027222Y-135226019D01*
X244028959Y-135219527D01*
X244038700Y-135194423D01*
X244040273Y-135191393D01*
X244040274Y-135191390D01*
X244040276Y-135191387D01*
X244045740Y-135172382D01*
X244054505Y-135150204D01*
X244055532Y-135148194D01*
X244058216Y-135128996D01*
X244078420Y-135058733D01*
X244087143Y-135044991D01*
X244087433Y-135039200D01*
X244090360Y-135021636D01*
X244089756Y-135021526D01*
X244090861Y-135015467D01*
X244090865Y-135015454D01*
X244093154Y-134987282D01*
X244096956Y-134965301D01*
X244097805Y-134962124D01*
X244096665Y-134944093D01*
X244105696Y-134832994D01*
X244101342Y-134796205D01*
X244100639Y-134775435D01*
X244100848Y-134771247D01*
X244096490Y-134755194D01*
X244084185Y-134651203D01*
X244084185Y-134651201D01*
X244069805Y-134607319D01*
X244065249Y-134588619D01*
X244064451Y-134583715D01*
X244057652Y-134570235D01*
X244027179Y-134477242D01*
X244027178Y-134477241D01*
X244027178Y-134477239D01*
X243999689Y-134428731D01*
X243992079Y-134412735D01*
X243990044Y-134407529D01*
X243981685Y-134396959D01*
X243971295Y-134378624D01*
X243936927Y-134317975D01*
X243891071Y-134265101D01*
X243886178Y-134258654D01*
X243880591Y-134250199D01*
X243871537Y-134242578D01*
X243816986Y-134179679D01*
X243816985Y-134179678D01*
X243816984Y-134179677D01*
X243753226Y-134130452D01*
X243747704Y-134125643D01*
X243740169Y-134118255D01*
X243730914Y-134113227D01*
X243672085Y-134067807D01*
X243672083Y-134067806D01*
X243672082Y-134067805D01*
X243647440Y-134055601D01*
X243647037Y-134055229D01*
X243598003Y-134031093D01*
X243582770Y-134022195D01*
X243572748Y-134015342D01*
X243524032Y-133980314D01*
X243517443Y-133975576D01*
X243494083Y-133953690D01*
X243478058Y-133934215D01*
X243475417Y-133930764D01*
X243447657Y-133891707D01*
X243434820Y-133868868D01*
X243422861Y-133841057D01*
X243420381Y-133834203D01*
X243415163Y-133816618D01*
X243407282Y-133790059D01*
X243403110Y-133770096D01*
X243402746Y-133767167D01*
X243399726Y-133742881D01*
X243398884Y-133722527D01*
X243400775Y-133676480D01*
X243401498Y-133669265D01*
X243406287Y-133639350D01*
X243413133Y-133614083D01*
X243430503Y-133569370D01*
X243432194Y-133565435D01*
X243442985Y-133542582D01*
X243460247Y-133515678D01*
X243503659Y-133464120D01*
X243509370Y-133457655D01*
X243528704Y-133439954D01*
X243540771Y-133431055D01*
X243660376Y-133346075D01*
X243666847Y-133342054D01*
X243724151Y-133311180D01*
X243727014Y-133309733D01*
X243825129Y-133263392D01*
X243830154Y-133261284D01*
X243895635Y-133237158D01*
X243900807Y-133235509D01*
X244005555Y-133207109D01*
X244008615Y-133206365D01*
X244072306Y-133192669D01*
X244079844Y-133191531D01*
X244226383Y-133178568D01*
X244243917Y-133177328D01*
X244251879Y-133176766D01*
X244256254Y-133176611D01*
X280793374Y-133176611D01*
X280797429Y-133176744D01*
G37*
%TD.AperFunction*%
%TD*%
%TA.AperFunction,NonConductor*%
G36*
X274335140Y-135420185D02*
G01*
X274355782Y-135436819D01*
X274931782Y-136012819D01*
X274965267Y-136074142D01*
X274960283Y-136143834D01*
X274918411Y-136199767D01*
X274852947Y-136224184D01*
X274844101Y-136224500D01*
X274706900Y-136224500D01*
X274639861Y-136204815D01*
X274619219Y-136188181D01*
X274043219Y-135612181D01*
X274009734Y-135550858D01*
X274014718Y-135481166D01*
X274056590Y-135425233D01*
X274122054Y-135400816D01*
X274130900Y-135400500D01*
X274268101Y-135400500D01*
X274335140Y-135420185D01*
G37*
%TD.AperFunction*%
%TA.AperFunction,NonConductor*%
G36*
X277102296Y-134945185D02*
G01*
X277148051Y-134997989D01*
X277151195Y-135005518D01*
X277169780Y-135054523D01*
X277169781Y-135054525D01*
X277180792Y-135070477D01*
X277259517Y-135184530D01*
X277377760Y-135289283D01*
X277377762Y-135289284D01*
X277517634Y-135362696D01*
X277671014Y-135400500D01*
X277671015Y-135400500D01*
X277700500Y-135400500D01*
X277767539Y-135420185D01*
X277813294Y-135472989D01*
X277824500Y-135524500D01*
X277824500Y-137164387D01*
X277804815Y-137231426D01*
X277752011Y-137277181D01*
X277682853Y-137287125D01*
X277629836Y-137262913D01*
X277628412Y-137264977D01*
X277622238Y-137260715D01*
X277482365Y-137187303D01*
X277328986Y-137149500D01*
X277328985Y-137149500D01*
X277181900Y-137149500D01*
X277114861Y-137129815D01*
X277094219Y-137113181D01*
X276627469Y-136646431D01*
X276152819Y-136171782D01*
X276119335Y-136110460D01*
X276124319Y-136040769D01*
X276166191Y-135984835D01*
X276182860Y-135974314D01*
X276297240Y-135914283D01*
X276415483Y-135809530D01*
X276505220Y-135679523D01*
X276561237Y-135531818D01*
X276580278Y-135375000D01*
X276561237Y-135218182D01*
X276513939Y-135093469D01*
X276508573Y-135023808D01*
X276541720Y-134962302D01*
X276602858Y-134928481D01*
X276629882Y-134925500D01*
X277035257Y-134925500D01*
X277102296Y-134945185D01*
G37*
%TD.AperFunction*%
%TA.AperFunction,NonConductor*%
G36*
X278243834Y-139139716D02*
G01*
X278299767Y-139181588D01*
X278324184Y-139247052D01*
X278324500Y-139255898D01*
X278324500Y-139977380D01*
X278304815Y-140044419D01*
X278273386Y-140077698D01*
X278138306Y-140175840D01*
X278138303Y-140175842D01*
X278008130Y-140320416D01*
X277910858Y-140488895D01*
X277910857Y-140488896D01*
X277878932Y-140587155D01*
X277839495Y-140644830D01*
X277775136Y-140672029D01*
X277706290Y-140660115D01*
X277654814Y-140612871D01*
X277643070Y-140587155D01*
X277611144Y-140488896D01*
X277611143Y-140488895D01*
X277554655Y-140391055D01*
X277513871Y-140320415D01*
X277462883Y-140263788D01*
X277383698Y-140175842D01*
X277383695Y-140175840D01*
X277383694Y-140175839D01*
X277383693Y-140175838D01*
X277339846Y-140143981D01*
X277297182Y-140088651D01*
X277291203Y-140019038D01*
X277323809Y-139957243D01*
X277324972Y-139956064D01*
X278112820Y-139168216D01*
X278174142Y-139134732D01*
X278243834Y-139139716D01*
G37*
%TD.AperFunction*%
%TA.AperFunction,NonConductor*%
G36*
X277815712Y-141074698D02*
G01*
X277867188Y-141121942D01*
X277878932Y-141147659D01*
X277910856Y-141245914D01*
X277910858Y-141245918D01*
X277945255Y-141305495D01*
X278008131Y-141414399D01*
X278053477Y-141464761D01*
X278138303Y-141558971D01*
X278138306Y-141558973D01*
X278138309Y-141558976D01*
X278158175Y-141573410D01*
X278200840Y-141628739D01*
X278206819Y-141698352D01*
X278174213Y-141760147D01*
X278113374Y-141794505D01*
X278085289Y-141797727D01*
X277436713Y-141797727D01*
X277369674Y-141778042D01*
X277323919Y-141725238D01*
X277313975Y-141656080D01*
X277343000Y-141592524D01*
X277363824Y-141573411D01*
X277383693Y-141558976D01*
X277513871Y-141414399D01*
X277611145Y-141245915D01*
X277643069Y-141147659D01*
X277682507Y-141089983D01*
X277746865Y-141062784D01*
X277815712Y-141074698D01*
G37*
%TD.AperFunction*%
%TA.AperFunction,NonConductor*%
G36*
X275815712Y-141074698D02*
G01*
X275867188Y-141121942D01*
X275878932Y-141147659D01*
X275910856Y-141245914D01*
X275910858Y-141245918D01*
X275945255Y-141305495D01*
X276008131Y-141414399D01*
X276053477Y-141464761D01*
X276138303Y-141558971D01*
X276138306Y-141558973D01*
X276138309Y-141558976D01*
X276158175Y-141573410D01*
X276200840Y-141628739D01*
X276206819Y-141698352D01*
X276174213Y-141760147D01*
X276113374Y-141794505D01*
X276085289Y-141797727D01*
X275436713Y-141797727D01*
X275369674Y-141778042D01*
X275323919Y-141725238D01*
X275313975Y-141656080D01*
X275343000Y-141592524D01*
X275363824Y-141573411D01*
X275383693Y-141558976D01*
X275513871Y-141414399D01*
X275611145Y-141245915D01*
X275643069Y-141147659D01*
X275682507Y-141089983D01*
X275746865Y-141062784D01*
X275815712Y-141074698D01*
G37*
%TD.AperFunction*%
%TA.AperFunction,NonConductor*%
G36*
X273815712Y-141074698D02*
G01*
X273867188Y-141121942D01*
X273878932Y-141147659D01*
X273910856Y-141245914D01*
X273910858Y-141245918D01*
X273945255Y-141305495D01*
X274008131Y-141414399D01*
X274053477Y-141464761D01*
X274138303Y-141558971D01*
X274138306Y-141558973D01*
X274138309Y-141558976D01*
X274158175Y-141573410D01*
X274200840Y-141628739D01*
X274206819Y-141698352D01*
X274174213Y-141760147D01*
X274113374Y-141794505D01*
X274085289Y-141797727D01*
X273436713Y-141797727D01*
X273369674Y-141778042D01*
X273323919Y-141725238D01*
X273313975Y-141656080D01*
X273343000Y-141592524D01*
X273363824Y-141573411D01*
X273383693Y-141558976D01*
X273513871Y-141414399D01*
X273611145Y-141245915D01*
X273643069Y-141147659D01*
X273682507Y-141089983D01*
X273746865Y-141062784D01*
X273815712Y-141074698D01*
G37*
%TD.AperFunction*%
%TA.AperFunction,NonConductor*%
G36*
X271815712Y-141074698D02*
G01*
X271867188Y-141121942D01*
X271878932Y-141147659D01*
X271910856Y-141245914D01*
X271910858Y-141245918D01*
X271945255Y-141305495D01*
X272008131Y-141414399D01*
X272053477Y-141464761D01*
X272138303Y-141558971D01*
X272138306Y-141558973D01*
X272138309Y-141558976D01*
X272158175Y-141573410D01*
X272200840Y-141628739D01*
X272206819Y-141698352D01*
X272174213Y-141760147D01*
X272113374Y-141794505D01*
X272085289Y-141797727D01*
X271436713Y-141797727D01*
X271369674Y-141778042D01*
X271323919Y-141725238D01*
X271313975Y-141656080D01*
X271343000Y-141592524D01*
X271363824Y-141573411D01*
X271383693Y-141558976D01*
X271513871Y-141414399D01*
X271611145Y-141245915D01*
X271643069Y-141147659D01*
X271682507Y-141089983D01*
X271746865Y-141062784D01*
X271815712Y-141074698D01*
G37*
%TD.AperFunction*%
M02*
