M48
; DRILL file {KiCad 8.0.2} date 2024-07-05T17:25:30-0700
; FORMAT={-:-/ absolute / inch / decimal}
; #@! TF.CreationDate,2024-07-05T17:25:30-07:00
; #@! TF.GenerationSoftware,Kicad,Pcbnew,8.0.2
; #@! TF.FileFunction,Plated,1,2,PTH
FMAT,2
INCH
; #@! TA.AperFunction,Plated,PTH,ViaDrill
T1C0.0157
; #@! TA.AperFunction,Plated,PTH,ComponentDrill
T2C0.0315
; #@! TA.AperFunction,Plated,PTH,ComponentDrill
T3C0.0354
; #@! TA.AperFunction,Plated,PTH,ComponentDrill
T4C0.0394
; #@! TA.AperFunction,Plated,PTH,ComponentDrill
T5C0.0472
%
G90
G05
T1
X9.5118Y-5.4892
X9.673Y-5.882
X9.68Y-5.824
X9.7156Y-5.4892
X9.727Y-5.858
X10.8179Y-5.3888
X10.8642Y-5.4665
X10.8926Y-5.4244
X10.935Y-5.3051
X10.9783Y-5.2992
X11.0236Y-5.4685
T2
X10.6599Y-5.546
X10.7386Y-5.546
X10.8174Y-5.546
X10.8961Y-5.546
X10.9748Y-5.546
X11.0536Y-5.546
T3
X9.333Y-5.7653
X9.333Y-6.0212
X9.5101Y-5.7653
X9.5101Y-6.0212
T4
X9.6341Y-6.2358
X9.7326Y-6.2358
X9.831Y-6.2358
X10.0751Y-5.7948
X10.0751Y-5.8932
X10.0751Y-5.9917
T5
X9.5357Y-5.6442
X9.5357Y-6.1423
X9.9294Y-5.6442
X9.9294Y-6.1423
M30
