%TF.GenerationSoftware,KiCad,Pcbnew,7.0.6*%
%TF.CreationDate,2023-12-14T14:37:07-08:00*%
%TF.ProjectId,UGC_SubStick,5547435f-5375-4625-9374-69636b2e6b69,rev?*%
%TF.SameCoordinates,Original*%
%TF.FileFunction,Legend,Top*%
%TF.FilePolarity,Positive*%
%FSLAX46Y46*%
G04 Gerber Fmt 4.6, Leading zero omitted, Abs format (unit mm)*
G04 Created by KiCad (PCBNEW 7.0.6) date 2023-12-14 14:37:07*
%MOMM*%
%LPD*%
G01*
G04 APERTURE LIST*
%ADD10C,0.150000*%
%ADD11C,0.120000*%
G04 APERTURE END LIST*
D10*
X254554819Y-153211904D02*
X255364342Y-153211904D01*
X255364342Y-153211904D02*
X255459580Y-153164285D01*
X255459580Y-153164285D02*
X255507200Y-153116666D01*
X255507200Y-153116666D02*
X255554819Y-153021428D01*
X255554819Y-153021428D02*
X255554819Y-152830952D01*
X255554819Y-152830952D02*
X255507200Y-152735714D01*
X255507200Y-152735714D02*
X255459580Y-152688095D01*
X255459580Y-152688095D02*
X255364342Y-152640476D01*
X255364342Y-152640476D02*
X254554819Y-152640476D01*
X254650057Y-152211904D02*
X254602438Y-152164285D01*
X254602438Y-152164285D02*
X254554819Y-152069047D01*
X254554819Y-152069047D02*
X254554819Y-151830952D01*
X254554819Y-151830952D02*
X254602438Y-151735714D01*
X254602438Y-151735714D02*
X254650057Y-151688095D01*
X254650057Y-151688095D02*
X254745295Y-151640476D01*
X254745295Y-151640476D02*
X254840533Y-151640476D01*
X254840533Y-151640476D02*
X254983390Y-151688095D01*
X254983390Y-151688095D02*
X255554819Y-152259523D01*
X255554819Y-152259523D02*
X255554819Y-151640476D01*
X244338095Y-156354819D02*
X244338095Y-157164342D01*
X244338095Y-157164342D02*
X244385714Y-157259580D01*
X244385714Y-157259580D02*
X244433333Y-157307200D01*
X244433333Y-157307200D02*
X244528571Y-157354819D01*
X244528571Y-157354819D02*
X244719047Y-157354819D01*
X244719047Y-157354819D02*
X244814285Y-157307200D01*
X244814285Y-157307200D02*
X244861904Y-157259580D01*
X244861904Y-157259580D02*
X244909523Y-157164342D01*
X244909523Y-157164342D02*
X244909523Y-156354819D01*
X245909523Y-157354819D02*
X245338095Y-157354819D01*
X245623809Y-157354819D02*
X245623809Y-156354819D01*
X245623809Y-156354819D02*
X245528571Y-156497676D01*
X245528571Y-156497676D02*
X245433333Y-156592914D01*
X245433333Y-156592914D02*
X245338095Y-156640533D01*
X245533333Y-161359580D02*
X245485714Y-161407200D01*
X245485714Y-161407200D02*
X245342857Y-161454819D01*
X245342857Y-161454819D02*
X245247619Y-161454819D01*
X245247619Y-161454819D02*
X245104762Y-161407200D01*
X245104762Y-161407200D02*
X245009524Y-161311961D01*
X245009524Y-161311961D02*
X244961905Y-161216723D01*
X244961905Y-161216723D02*
X244914286Y-161026247D01*
X244914286Y-161026247D02*
X244914286Y-160883390D01*
X244914286Y-160883390D02*
X244961905Y-160692914D01*
X244961905Y-160692914D02*
X245009524Y-160597676D01*
X245009524Y-160597676D02*
X245104762Y-160502438D01*
X245104762Y-160502438D02*
X245247619Y-160454819D01*
X245247619Y-160454819D02*
X245342857Y-160454819D01*
X245342857Y-160454819D02*
X245485714Y-160502438D01*
X245485714Y-160502438D02*
X245533333Y-160550057D01*
X246485714Y-161454819D02*
X245914286Y-161454819D01*
X246200000Y-161454819D02*
X246200000Y-160454819D01*
X246200000Y-160454819D02*
X246104762Y-160597676D01*
X246104762Y-160597676D02*
X246009524Y-160692914D01*
X246009524Y-160692914D02*
X245914286Y-160740533D01*
X250433333Y-160154819D02*
X250100000Y-159678628D01*
X249861905Y-160154819D02*
X249861905Y-159154819D01*
X249861905Y-159154819D02*
X250242857Y-159154819D01*
X250242857Y-159154819D02*
X250338095Y-159202438D01*
X250338095Y-159202438D02*
X250385714Y-159250057D01*
X250385714Y-159250057D02*
X250433333Y-159345295D01*
X250433333Y-159345295D02*
X250433333Y-159488152D01*
X250433333Y-159488152D02*
X250385714Y-159583390D01*
X250385714Y-159583390D02*
X250338095Y-159631009D01*
X250338095Y-159631009D02*
X250242857Y-159678628D01*
X250242857Y-159678628D02*
X249861905Y-159678628D01*
X251385714Y-160154819D02*
X250814286Y-160154819D01*
X251100000Y-160154819D02*
X251100000Y-159154819D01*
X251100000Y-159154819D02*
X251004762Y-159297676D01*
X251004762Y-159297676D02*
X250909524Y-159392914D01*
X250909524Y-159392914D02*
X250814286Y-159440533D01*
X246766667Y-149357200D02*
X246909524Y-149404819D01*
X246909524Y-149404819D02*
X247147619Y-149404819D01*
X247147619Y-149404819D02*
X247242857Y-149357200D01*
X247242857Y-149357200D02*
X247290476Y-149309580D01*
X247290476Y-149309580D02*
X247338095Y-149214342D01*
X247338095Y-149214342D02*
X247338095Y-149119104D01*
X247338095Y-149119104D02*
X247290476Y-149023866D01*
X247290476Y-149023866D02*
X247242857Y-148976247D01*
X247242857Y-148976247D02*
X247147619Y-148928628D01*
X247147619Y-148928628D02*
X246957143Y-148881009D01*
X246957143Y-148881009D02*
X246861905Y-148833390D01*
X246861905Y-148833390D02*
X246814286Y-148785771D01*
X246814286Y-148785771D02*
X246766667Y-148690533D01*
X246766667Y-148690533D02*
X246766667Y-148595295D01*
X246766667Y-148595295D02*
X246814286Y-148500057D01*
X246814286Y-148500057D02*
X246861905Y-148452438D01*
X246861905Y-148452438D02*
X246957143Y-148404819D01*
X246957143Y-148404819D02*
X247195238Y-148404819D01*
X247195238Y-148404819D02*
X247338095Y-148452438D01*
X247671429Y-148404819D02*
X247909524Y-149404819D01*
X247909524Y-149404819D02*
X248100000Y-148690533D01*
X248100000Y-148690533D02*
X248290476Y-149404819D01*
X248290476Y-149404819D02*
X248528572Y-148404819D01*
X249433333Y-149404819D02*
X248861905Y-149404819D01*
X249147619Y-149404819D02*
X249147619Y-148404819D01*
X249147619Y-148404819D02*
X249052381Y-148547676D01*
X249052381Y-148547676D02*
X248957143Y-148642914D01*
X248957143Y-148642914D02*
X248861905Y-148690533D01*
X281504819Y-139083333D02*
X282219104Y-139083333D01*
X282219104Y-139083333D02*
X282361961Y-139130952D01*
X282361961Y-139130952D02*
X282457200Y-139226190D01*
X282457200Y-139226190D02*
X282504819Y-139369047D01*
X282504819Y-139369047D02*
X282504819Y-139464285D01*
X282504819Y-138083333D02*
X282504819Y-138654761D01*
X282504819Y-138369047D02*
X281504819Y-138369047D01*
X281504819Y-138369047D02*
X281647676Y-138464285D01*
X281647676Y-138464285D02*
X281742914Y-138559523D01*
X281742914Y-138559523D02*
X281790533Y-138654761D01*
X258584580Y-143466666D02*
X258632200Y-143514285D01*
X258632200Y-143514285D02*
X258679819Y-143657142D01*
X258679819Y-143657142D02*
X258679819Y-143752380D01*
X258679819Y-143752380D02*
X258632200Y-143895237D01*
X258632200Y-143895237D02*
X258536961Y-143990475D01*
X258536961Y-143990475D02*
X258441723Y-144038094D01*
X258441723Y-144038094D02*
X258251247Y-144085713D01*
X258251247Y-144085713D02*
X258108390Y-144085713D01*
X258108390Y-144085713D02*
X257917914Y-144038094D01*
X257917914Y-144038094D02*
X257822676Y-143990475D01*
X257822676Y-143990475D02*
X257727438Y-143895237D01*
X257727438Y-143895237D02*
X257679819Y-143752380D01*
X257679819Y-143752380D02*
X257679819Y-143657142D01*
X257679819Y-143657142D02*
X257727438Y-143514285D01*
X257727438Y-143514285D02*
X257775057Y-143466666D01*
X257775057Y-143085713D02*
X257727438Y-143038094D01*
X257727438Y-143038094D02*
X257679819Y-142942856D01*
X257679819Y-142942856D02*
X257679819Y-142704761D01*
X257679819Y-142704761D02*
X257727438Y-142609523D01*
X257727438Y-142609523D02*
X257775057Y-142561904D01*
X257775057Y-142561904D02*
X257870295Y-142514285D01*
X257870295Y-142514285D02*
X257965533Y-142514285D01*
X257965533Y-142514285D02*
X258108390Y-142561904D01*
X258108390Y-142561904D02*
X258679819Y-143133332D01*
X258679819Y-143133332D02*
X258679819Y-142514285D01*
X258354819Y-150266666D02*
X257878628Y-150599999D01*
X258354819Y-150838094D02*
X257354819Y-150838094D01*
X257354819Y-150838094D02*
X257354819Y-150457142D01*
X257354819Y-150457142D02*
X257402438Y-150361904D01*
X257402438Y-150361904D02*
X257450057Y-150314285D01*
X257450057Y-150314285D02*
X257545295Y-150266666D01*
X257545295Y-150266666D02*
X257688152Y-150266666D01*
X257688152Y-150266666D02*
X257783390Y-150314285D01*
X257783390Y-150314285D02*
X257831009Y-150361904D01*
X257831009Y-150361904D02*
X257878628Y-150457142D01*
X257878628Y-150457142D02*
X257878628Y-150838094D01*
X257450057Y-149885713D02*
X257402438Y-149838094D01*
X257402438Y-149838094D02*
X257354819Y-149742856D01*
X257354819Y-149742856D02*
X257354819Y-149504761D01*
X257354819Y-149504761D02*
X257402438Y-149409523D01*
X257402438Y-149409523D02*
X257450057Y-149361904D01*
X257450057Y-149361904D02*
X257545295Y-149314285D01*
X257545295Y-149314285D02*
X257640533Y-149314285D01*
X257640533Y-149314285D02*
X257783390Y-149361904D01*
X257783390Y-149361904D02*
X258354819Y-149933332D01*
X258354819Y-149933332D02*
X258354819Y-149314285D01*
D11*
%TO.C,C1*%
X248153733Y-160590000D02*
X248446267Y-160590000D01*
X248153733Y-161610000D02*
X248446267Y-161610000D01*
%TO.C,J1*%
X281821001Y-139807407D02*
X281821001Y-140867407D01*
X280761001Y-139807407D02*
X281821001Y-139807407D01*
X279761001Y-139807407D02*
X269701001Y-139807407D01*
X279761001Y-139807407D02*
X279761001Y-141927407D01*
X269701001Y-139807407D02*
X269701001Y-141927407D01*
X279761001Y-141927407D02*
X269701001Y-141927407D01*
%TO.C,C2*%
X258610000Y-145753733D02*
X258610000Y-146046267D01*
X257590000Y-145753733D02*
X257590000Y-146046267D01*
%TD*%
M02*
