%TF.GenerationSoftware,KiCad,Pcbnew,7.0.6*%
%TF.CreationDate,2023-12-14T14:37:07-08:00*%
%TF.ProjectId,UGC_SubStick,5547435f-5375-4625-9374-69636b2e6b69,rev?*%
%TF.SameCoordinates,Original*%
%TF.FileFunction,Legend,Bot*%
%TF.FilePolarity,Positive*%
%FSLAX46Y46*%
G04 Gerber Fmt 4.6, Leading zero omitted, Abs format (unit mm)*
G04 Created by KiCad (PCBNEW 7.0.6) date 2023-12-14 14:37:07*
%MOMM*%
%LPD*%
G01*
G04 APERTURE LIST*
%ADD10C,0.254000*%
%ADD11C,0.200000*%
%ADD12C,0.100000*%
G04 APERTURE END LIST*
D10*
X278387048Y-136655016D02*
X278387048Y-137562159D01*
X278387048Y-137562159D02*
X278447525Y-137743587D01*
X278447525Y-137743587D02*
X278568477Y-137864540D01*
X278568477Y-137864540D02*
X278749906Y-137925016D01*
X278749906Y-137925016D02*
X278870858Y-137925016D01*
X277842763Y-136775968D02*
X277782287Y-136715492D01*
X277782287Y-136715492D02*
X277661334Y-136655016D01*
X277661334Y-136655016D02*
X277358953Y-136655016D01*
X277358953Y-136655016D02*
X277238001Y-136715492D01*
X277238001Y-136715492D02*
X277177525Y-136775968D01*
X277177525Y-136775968D02*
X277117048Y-136896920D01*
X277117048Y-136896920D02*
X277117048Y-137017873D01*
X277117048Y-137017873D02*
X277177525Y-137199301D01*
X277177525Y-137199301D02*
X277903239Y-137925016D01*
X277903239Y-137925016D02*
X277117048Y-137925016D01*
D11*
%TO.C,J2*%
X280313716Y-135550698D02*
X280313716Y-137750698D01*
X279763716Y-135550698D02*
X280313716Y-135550698D01*
X279563716Y-139150698D02*
X276363716Y-139150698D01*
D12*
X279163716Y-135050698D02*
X279163716Y-135050698D01*
X279163716Y-134950698D02*
X279163716Y-134950698D01*
D11*
X276363716Y-135550698D02*
X275613716Y-135550698D01*
X275613716Y-135550698D02*
X275613716Y-137750698D01*
D12*
X279163716Y-134950698D02*
G75*
G03*
X279163716Y-135050698I0J-50000D01*
G01*
X279163716Y-135050698D02*
G75*
G03*
X279163716Y-134950698I0J50000D01*
G01*
%TD*%
M02*
