%TF.GenerationSoftware,KiCad,Pcbnew,7.0.6*%
%TF.CreationDate,2023-12-14T14:37:10-08:00*%
%TF.ProjectId,UGC_SubStick,5547435f-5375-4625-9374-69636b2e6b69,rev?*%
%TF.SameCoordinates,Original*%
%TF.FileFunction,Drillmap*%
%TF.FilePolarity,Positive*%
%FSLAX45Y45*%
G04 Gerber Fmt 4.5, Leading zero omitted, Abs format (unit mm)*
G04 Created by KiCad (PCBNEW 7.0.6) date 2023-12-14 14:37:10*
%MOMM*%
%LPD*%
G01*
G04 APERTURE LIST*
%ADD10C,0.100000*%
%ADD11C,0.200000*%
%ADD12C,0.160000*%
G04 APERTURE END LIST*
D10*
X23618272Y-14037382D02*
X23605554Y-14052395D01*
X23593046Y-14067575D01*
X23580749Y-14082920D01*
X23568666Y-14098427D01*
X23556797Y-14114094D01*
X23545144Y-14129920D01*
X23533708Y-14145901D01*
X23522492Y-14162036D01*
X23511496Y-14178322D01*
X23500723Y-14194756D01*
X23490173Y-14211338D01*
X23479849Y-14228064D01*
X23469752Y-14244932D01*
X23459883Y-14261940D01*
X23450244Y-14279086D01*
X23440837Y-14296367D01*
X26241651Y-14687583D02*
X26241343Y-14695279D01*
X26433381Y-14321382D02*
X26442989Y-14313425D01*
X26452798Y-14305743D01*
X26462809Y-14298332D01*
X26473025Y-14291188D01*
X26483450Y-14284307D01*
X26494084Y-14277684D01*
X26504932Y-14271316D01*
X26515996Y-14265197D01*
X26527278Y-14259324D01*
X26538781Y-14253693D01*
X26550508Y-14248298D01*
X26562461Y-14243137D01*
X26574643Y-14238204D01*
X26587056Y-14233495D01*
X26599704Y-14229007D01*
X26612589Y-14224734D01*
X24425418Y-13317610D02*
G75*
G03*
X24351769Y-13344745I2J-113520D01*
G01*
X26168778Y-15063190D02*
X26171046Y-15051693D01*
X26173313Y-15040196D01*
X26175581Y-15028699D01*
X26177849Y-15017201D01*
X26180116Y-15005704D01*
X26182384Y-14994207D01*
X26184652Y-14982710D01*
X26186919Y-14971212D01*
X26189187Y-14959715D01*
X26191454Y-14948218D01*
X26193722Y-14936721D01*
X26195990Y-14925224D01*
X26198257Y-14913726D01*
X26200525Y-14902229D01*
X26202793Y-14890732D01*
X26205060Y-14879235D01*
X26207328Y-14867737D01*
X26209596Y-14856240D01*
X26211863Y-14844743D01*
X26214131Y-14833246D01*
X26216399Y-14821749D01*
X26218666Y-14810251D01*
X26220934Y-14798754D01*
X26223201Y-14787257D01*
X26225469Y-14775760D01*
X26227737Y-14764262D01*
X26230004Y-14752765D01*
X26232272Y-14741268D01*
X26234540Y-14729771D01*
X26236807Y-14718273D01*
X26239075Y-14706776D01*
X26241343Y-14695279D01*
X26239602Y-14680158D02*
X26241651Y-14687583D01*
X23328678Y-15384999D02*
X23333757Y-15401861D01*
X23339038Y-15418650D01*
X23344521Y-15435365D01*
X23350205Y-15452004D01*
X23356088Y-15468565D01*
X23362170Y-15485047D01*
X23368450Y-15501447D01*
X23374927Y-15517765D01*
X23381600Y-15533998D01*
X23388468Y-15550144D01*
X23395531Y-15566203D01*
X23402787Y-15582171D01*
X23410235Y-15598048D01*
X23417875Y-15613832D01*
X23425705Y-15629520D01*
X23433726Y-15645112D01*
X23441935Y-15660605D01*
X23450332Y-15675998D01*
X23458916Y-15691289D01*
X23467686Y-15706476D01*
X23476642Y-15721558D01*
X23485781Y-15736532D01*
X23495104Y-15751398D01*
X23504610Y-15766153D01*
X23514297Y-15780796D01*
X23524165Y-15795324D01*
X23534212Y-15809737D01*
X23544439Y-15824032D01*
X23554843Y-15838208D01*
X23565424Y-15852263D01*
X23576182Y-15866195D01*
X23587115Y-15880003D01*
X26268899Y-14490422D02*
G75*
G03*
X26225809Y-14667115I-10099J-91138D01*
G01*
X24545757Y-16410991D02*
X24563254Y-16412934D01*
X24580764Y-16414662D01*
X24598284Y-16416177D01*
X24615813Y-16417478D01*
X24633348Y-16418565D01*
X24650889Y-16419438D01*
X24668432Y-16420098D01*
X24685977Y-16420544D01*
X24703520Y-16420777D01*
X24721061Y-16420797D01*
X24738596Y-16420604D01*
X24756125Y-16420198D01*
X24773645Y-16419579D01*
X24791155Y-16418748D01*
X24808651Y-16417705D01*
X24826134Y-16416449D01*
X24843599Y-16414982D01*
X24861047Y-16413302D01*
X24878474Y-16411411D01*
X24895878Y-16409308D01*
X24913258Y-16406994D01*
X24930612Y-16404468D01*
X24947938Y-16401732D01*
X24965234Y-16398784D01*
X24982498Y-16395625D01*
X24999727Y-16392256D01*
X25016921Y-16388676D01*
X25034077Y-16384886D01*
X25051193Y-16380886D01*
X25068268Y-16376675D01*
X25085298Y-16372254D01*
X25102283Y-16367624D01*
X24014013Y-16239899D02*
X24029475Y-16248342D01*
X24045030Y-16256591D01*
X24060676Y-16264646D01*
X24076412Y-16272506D01*
X24092235Y-16280170D01*
X24108144Y-16287638D01*
X24124136Y-16294910D01*
X24140211Y-16301983D01*
X24156366Y-16308859D01*
X24172599Y-16315537D01*
X24188908Y-16322015D01*
X24205292Y-16328293D01*
X24221749Y-16334371D01*
X24238276Y-16340248D01*
X24254873Y-16345924D01*
X24271536Y-16351397D01*
X24288265Y-16356667D01*
X24305057Y-16361735D01*
X24321910Y-16366598D01*
X24338823Y-16371257D01*
X24355794Y-16375710D01*
X24372821Y-16379958D01*
X24389902Y-16384000D01*
X24407035Y-16387834D01*
X24424219Y-16391461D01*
X24441451Y-16394880D01*
X24458730Y-16398091D01*
X24476053Y-16401092D01*
X24493419Y-16403883D01*
X24510827Y-16406463D01*
X24528273Y-16408833D01*
X24545757Y-16410991D01*
X24259451Y-13555241D02*
G75*
G03*
X24358984Y-13402763I58939J70251D01*
G01*
X26612589Y-14224734D02*
X26624927Y-14220908D01*
X26637332Y-14217304D01*
X26649782Y-14213917D01*
X26662255Y-14210739D01*
X26674731Y-14207763D01*
X26687187Y-14204984D01*
X26699603Y-14202395D01*
X26711957Y-14199988D01*
X26724226Y-14197757D01*
X26736391Y-14195696D01*
X26748429Y-14193798D01*
X26760319Y-14192056D01*
X26772039Y-14190464D01*
X26783568Y-14189015D01*
X26794884Y-14187702D01*
X26805966Y-14186519D01*
X26816793Y-14185459D01*
X26827343Y-14184516D01*
X26837594Y-14183683D01*
X26857116Y-14182318D01*
X26875185Y-14181314D01*
X26891631Y-14180616D01*
X26906282Y-14180172D01*
X26918966Y-14179929D01*
X26929510Y-14179832D01*
X26933927Y-14179823D01*
X24212383Y-13557128D02*
X24220597Y-13551110D01*
X24223685Y-13549665D01*
X24204761Y-13568323D02*
X24210075Y-13559638D01*
X24212383Y-13557128D01*
X23277498Y-14829687D02*
X23275802Y-14847193D01*
X23274321Y-14864709D01*
X23273054Y-14882232D01*
X23272001Y-14899761D01*
X23271161Y-14917293D01*
X23270536Y-14934827D01*
X23270124Y-14952362D01*
X23269925Y-14969894D01*
X23269939Y-14987422D01*
X23270167Y-15004944D01*
X23270607Y-15022458D01*
X23271259Y-15039962D01*
X23272124Y-15057454D01*
X23273202Y-15074933D01*
X23274491Y-15092396D01*
X23275992Y-15109842D01*
X23277705Y-15127268D01*
X23279630Y-15144672D01*
X23281765Y-15162054D01*
X23284112Y-15179409D01*
X23286670Y-15196738D01*
X23289439Y-15214037D01*
X23292418Y-15231306D01*
X23295608Y-15248541D01*
X23299007Y-15265741D01*
X23302617Y-15282904D01*
X23306437Y-15300028D01*
X23310467Y-15317112D01*
X23314706Y-15334152D01*
X23319154Y-15351148D01*
X23323812Y-15368098D01*
X23328678Y-15384999D01*
X25223220Y-14968852D02*
G75*
G03*
X25223220Y-14968852I-65000J0D01*
G01*
X23440837Y-14296367D02*
X23432627Y-14311924D01*
X23424612Y-14327571D01*
X23416792Y-14343306D01*
X23409167Y-14359128D01*
X23401739Y-14375034D01*
X23394508Y-14391023D01*
X23387474Y-14407094D01*
X23380639Y-14423243D01*
X23374002Y-14439469D01*
X23367564Y-14455771D01*
X23361326Y-14472146D01*
X23355288Y-14488593D01*
X23349451Y-14505110D01*
X23343816Y-14521694D01*
X23338383Y-14538344D01*
X23333152Y-14555059D01*
X23328125Y-14571836D01*
X23323302Y-14588673D01*
X23318683Y-14605568D01*
X23314269Y-14622521D01*
X23310060Y-14639528D01*
X23306058Y-14656588D01*
X23302262Y-14673699D01*
X23298674Y-14690859D01*
X23295293Y-14708066D01*
X23292121Y-14725319D01*
X23289158Y-14742616D01*
X23286405Y-14759954D01*
X23283861Y-14777332D01*
X23281529Y-14794748D01*
X23279407Y-14812201D01*
X23277498Y-14829687D01*
X24075760Y-13695442D02*
G75*
G03*
X23847358Y-13823002I358960J-910998D01*
G01*
X26233992Y-14672276D02*
X26239602Y-14680158D01*
X24348220Y-14968852D02*
G75*
G03*
X24348220Y-14968852I-65000J0D01*
G01*
X23847358Y-13823002D02*
X23831705Y-13834905D01*
X23816221Y-13847016D01*
X23800908Y-13859333D01*
X23785767Y-13871855D01*
X23770801Y-13884579D01*
X23756011Y-13897504D01*
X23741400Y-13910628D01*
X23726970Y-13923949D01*
X23712723Y-13937465D01*
X23698660Y-13951175D01*
X23684783Y-13965075D01*
X23671096Y-13979165D01*
X23657599Y-13993443D01*
X23644294Y-14007906D01*
X23631185Y-14022553D01*
X23618272Y-14037382D01*
X26933927Y-14179823D02*
X28079541Y-14179823D01*
X26436773Y-13961973D02*
G75*
G03*
X26436773Y-13961973I-243000J0D01*
G01*
X25967520Y-15693868D02*
X25979138Y-15673253D01*
X25990163Y-15653068D01*
X26000620Y-15633276D01*
X26010533Y-15613840D01*
X26019928Y-15594723D01*
X26028829Y-15575888D01*
X26037261Y-15557297D01*
X26045249Y-15538913D01*
X26052819Y-15520699D01*
X26059996Y-15502618D01*
X26066803Y-15484633D01*
X26073267Y-15466707D01*
X26079411Y-15448801D01*
X26085262Y-15430880D01*
X26090844Y-15412906D01*
X26096182Y-15394841D01*
X26101301Y-15376649D01*
X26106226Y-15358293D01*
X26110982Y-15339734D01*
X26115593Y-15320937D01*
X26120086Y-15301864D01*
X26124484Y-15282477D01*
X26128813Y-15262739D01*
X26133098Y-15242614D01*
X26137363Y-15222064D01*
X26141635Y-15201051D01*
X26145936Y-15179540D01*
X26150294Y-15157492D01*
X26154732Y-15134870D01*
X26159275Y-15111637D01*
X26163949Y-15087756D01*
X26168778Y-15063190D01*
X24351771Y-13344747D02*
G75*
G03*
X24358984Y-13402763I22709J-26633D01*
G01*
X28079541Y-13317611D02*
X24425418Y-13317611D01*
X25102283Y-16367624D02*
X25119238Y-16362779D01*
X25136123Y-16357730D01*
X25152937Y-16352479D01*
X25169677Y-16347025D01*
X25186342Y-16341370D01*
X25202931Y-16335515D01*
X25219441Y-16329461D01*
X25235871Y-16323208D01*
X25252218Y-16316757D01*
X25268482Y-16310110D01*
X25284661Y-16303267D01*
X25300752Y-16296229D01*
X25316755Y-16288997D01*
X25332666Y-16281572D01*
X25348485Y-16273955D01*
X25364210Y-16266146D01*
X25379839Y-16258146D01*
X25395370Y-16249957D01*
X25410801Y-16241579D01*
X25426131Y-16233013D01*
X25441358Y-16224260D01*
X25456481Y-16215321D01*
X25471497Y-16206197D01*
X25486404Y-16196889D01*
X25501202Y-16187396D01*
X25515887Y-16177722D01*
X25530460Y-16167865D01*
X25544916Y-16157828D01*
X25559256Y-16147611D01*
X25573477Y-16137215D01*
X25587578Y-16126640D01*
X25601556Y-16115888D01*
X26318066Y-14465087D02*
X26323091Y-14456236D01*
X26328344Y-14447304D01*
X26333839Y-14438305D01*
X26339588Y-14429252D01*
X26345605Y-14420160D01*
X26351905Y-14411041D01*
X26358499Y-14401910D01*
X26365403Y-14392779D01*
X26372629Y-14383663D01*
X26380192Y-14374574D01*
X26388104Y-14365527D01*
X26396379Y-14356534D01*
X26405030Y-14347610D01*
X26414072Y-14338767D01*
X26423518Y-14330020D01*
X26433381Y-14321382D01*
X23587115Y-15880003D02*
X23598212Y-15893673D01*
X23609470Y-15907199D01*
X23620886Y-15920581D01*
X23632458Y-15933816D01*
X23644185Y-15946904D01*
X23656066Y-15959843D01*
X23668100Y-15972632D01*
X23680283Y-15985269D01*
X23692616Y-15997754D01*
X23705097Y-16010086D01*
X23717724Y-16022262D01*
X23730496Y-16034282D01*
X23743410Y-16046144D01*
X23756467Y-16057847D01*
X23769664Y-16069390D01*
X23782999Y-16080772D01*
X23796472Y-16091991D01*
X23810080Y-16103046D01*
X23823823Y-16113936D01*
X23837698Y-16124659D01*
X23851705Y-16135215D01*
X23865841Y-16145602D01*
X23880106Y-16155819D01*
X23894497Y-16165864D01*
X23909014Y-16175736D01*
X23923654Y-16185434D01*
X23938417Y-16194957D01*
X23953300Y-16204304D01*
X23968303Y-16213472D01*
X23983424Y-16222462D01*
X23998661Y-16231271D01*
X24014013Y-16239899D01*
X24204761Y-13568323D02*
X24200623Y-13577607D01*
X24196260Y-13586591D01*
X26305545Y-14479838D02*
X26296847Y-14485399D01*
X26288362Y-14488731D01*
X25601556Y-16115888D02*
X25615386Y-16104979D01*
X25629075Y-16093908D01*
X25642621Y-16082676D01*
X25656024Y-16071286D01*
X25669280Y-16059738D01*
X25682390Y-16048035D01*
X25695353Y-16036177D01*
X25708165Y-16024166D01*
X25720828Y-16012004D01*
X25733338Y-15999692D01*
X25745695Y-15987231D01*
X25757898Y-15974623D01*
X25769945Y-15961870D01*
X25781835Y-15948972D01*
X25793567Y-15935932D01*
X25805139Y-15922751D01*
X25816550Y-15909430D01*
X25827799Y-15895971D01*
X25838884Y-15882376D01*
X25849805Y-15868645D01*
X25860559Y-15854781D01*
X25871146Y-15840784D01*
X25881564Y-15826656D01*
X25891812Y-15812400D01*
X25901889Y-15798015D01*
X25911793Y-15783504D01*
X25921523Y-15768868D01*
X25931078Y-15754109D01*
X25940457Y-15739228D01*
X25949657Y-15724227D01*
X25958679Y-15709106D01*
X25967520Y-15693868D01*
X24223685Y-13549665D02*
X24233568Y-13547216D01*
X24236975Y-13547052D01*
X28279539Y-13517611D02*
G75*
G03*
X28079541Y-13317611I-199999J1D01*
G01*
X28079541Y-14179821D02*
G75*
G03*
X28279541Y-13979823I-1J200001D01*
G01*
X27046427Y-13762138D02*
G75*
G03*
X27046427Y-13762138I-112500J0D01*
G01*
X28279541Y-13979823D02*
X28279541Y-13517611D01*
X26318066Y-14465087D02*
X26312130Y-14473535D01*
X26305545Y-14479838D01*
X24137963Y-13659420D02*
X24129414Y-13665451D01*
X24120175Y-13671738D01*
X24110123Y-13678057D01*
X24099858Y-13683793D01*
X24090113Y-13688703D01*
X24080946Y-13693049D01*
X24075761Y-13695442D01*
X24236975Y-13547052D02*
X24247123Y-13548561D01*
X24248935Y-13549165D01*
X24196260Y-13586591D02*
X24191172Y-13595290D01*
X24185252Y-13605077D01*
X24179738Y-13613673D01*
X24173847Y-13622081D01*
X24172709Y-13623616D01*
X26225809Y-14667115D02*
X26233992Y-14672276D01*
X24248935Y-13549165D02*
X24257956Y-13554052D01*
X24259452Y-13555239D01*
X24172709Y-13623616D02*
X24165770Y-13631311D01*
X24158558Y-13639160D01*
X24151646Y-13646440D01*
X24144528Y-13653493D01*
X24137963Y-13659420D01*
X26288362Y-14488731D02*
X26278102Y-14490581D01*
X26268900Y-14490413D01*
D11*
D12*
X24640720Y-14458852D02*
X24800720Y-14618852D01*
X24800720Y-14458852D02*
X24640720Y-14618852D01*
X24640720Y-15318852D02*
X24800720Y-15478852D01*
X24800720Y-15318852D02*
X24640720Y-15478852D01*
D11*
X23514043Y-16749344D02*
X23514043Y-16549344D01*
X23514043Y-16549344D02*
X23561662Y-16549344D01*
X23561662Y-16549344D02*
X23590233Y-16558868D01*
X23590233Y-16558868D02*
X23609281Y-16577916D01*
X23609281Y-16577916D02*
X23618805Y-16596963D01*
X23618805Y-16596963D02*
X23628329Y-16635059D01*
X23628329Y-16635059D02*
X23628329Y-16663630D01*
X23628329Y-16663630D02*
X23618805Y-16701725D01*
X23618805Y-16701725D02*
X23609281Y-16720773D01*
X23609281Y-16720773D02*
X23590233Y-16739821D01*
X23590233Y-16739821D02*
X23561662Y-16749344D01*
X23561662Y-16749344D02*
X23514043Y-16749344D01*
X23714043Y-16749344D02*
X23714043Y-16616011D01*
X23714043Y-16654106D02*
X23723567Y-16635059D01*
X23723567Y-16635059D02*
X23733090Y-16625535D01*
X23733090Y-16625535D02*
X23752138Y-16616011D01*
X23752138Y-16616011D02*
X23771186Y-16616011D01*
X23837852Y-16749344D02*
X23837852Y-16616011D01*
X23837852Y-16549344D02*
X23828329Y-16558868D01*
X23828329Y-16558868D02*
X23837852Y-16568392D01*
X23837852Y-16568392D02*
X23847376Y-16558868D01*
X23847376Y-16558868D02*
X23837852Y-16549344D01*
X23837852Y-16549344D02*
X23837852Y-16568392D01*
X23961662Y-16749344D02*
X23942614Y-16739821D01*
X23942614Y-16739821D02*
X23933090Y-16720773D01*
X23933090Y-16720773D02*
X23933090Y-16549344D01*
X24066424Y-16749344D02*
X24047376Y-16739821D01*
X24047376Y-16739821D02*
X24037852Y-16720773D01*
X24037852Y-16720773D02*
X24037852Y-16549344D01*
X24294995Y-16749344D02*
X24294995Y-16549344D01*
X24294995Y-16549344D02*
X24361662Y-16692202D01*
X24361662Y-16692202D02*
X24428329Y-16549344D01*
X24428329Y-16549344D02*
X24428329Y-16749344D01*
X24609281Y-16749344D02*
X24609281Y-16644583D01*
X24609281Y-16644583D02*
X24599757Y-16625535D01*
X24599757Y-16625535D02*
X24580710Y-16616011D01*
X24580710Y-16616011D02*
X24542614Y-16616011D01*
X24542614Y-16616011D02*
X24523567Y-16625535D01*
X24609281Y-16739821D02*
X24590233Y-16749344D01*
X24590233Y-16749344D02*
X24542614Y-16749344D01*
X24542614Y-16749344D02*
X24523567Y-16739821D01*
X24523567Y-16739821D02*
X24514043Y-16720773D01*
X24514043Y-16720773D02*
X24514043Y-16701725D01*
X24514043Y-16701725D02*
X24523567Y-16682678D01*
X24523567Y-16682678D02*
X24542614Y-16673154D01*
X24542614Y-16673154D02*
X24590233Y-16673154D01*
X24590233Y-16673154D02*
X24609281Y-16663630D01*
X24704519Y-16616011D02*
X24704519Y-16816011D01*
X24704519Y-16625535D02*
X24723567Y-16616011D01*
X24723567Y-16616011D02*
X24761662Y-16616011D01*
X24761662Y-16616011D02*
X24780710Y-16625535D01*
X24780710Y-16625535D02*
X24790233Y-16635059D01*
X24790233Y-16635059D02*
X24799757Y-16654106D01*
X24799757Y-16654106D02*
X24799757Y-16711249D01*
X24799757Y-16711249D02*
X24790233Y-16730297D01*
X24790233Y-16730297D02*
X24780710Y-16739821D01*
X24780710Y-16739821D02*
X24761662Y-16749344D01*
X24761662Y-16749344D02*
X24723567Y-16749344D01*
X24723567Y-16749344D02*
X24704519Y-16739821D01*
X24885471Y-16730297D02*
X24894995Y-16739821D01*
X24894995Y-16739821D02*
X24885471Y-16749344D01*
X24885471Y-16749344D02*
X24875948Y-16739821D01*
X24875948Y-16739821D02*
X24885471Y-16730297D01*
X24885471Y-16730297D02*
X24885471Y-16749344D01*
X24885471Y-16625535D02*
X24894995Y-16635059D01*
X24894995Y-16635059D02*
X24885471Y-16644583D01*
X24885471Y-16644583D02*
X24875948Y-16635059D01*
X24875948Y-16635059D02*
X24885471Y-16625535D01*
X24885471Y-16625535D02*
X24885471Y-16644583D01*
D12*
X23093266Y-16997861D02*
X23253266Y-17157861D01*
X23253266Y-16997861D02*
X23093266Y-17157861D01*
D11*
X23618805Y-17169345D02*
X23504519Y-17169345D01*
X23561662Y-17169345D02*
X23561662Y-16969345D01*
X23561662Y-16969345D02*
X23542614Y-16997916D01*
X23542614Y-16997916D02*
X23523567Y-17016964D01*
X23523567Y-17016964D02*
X23504519Y-17026487D01*
X23704519Y-17150297D02*
X23714043Y-17159821D01*
X23714043Y-17159821D02*
X23704519Y-17169345D01*
X23704519Y-17169345D02*
X23694995Y-17159821D01*
X23694995Y-17159821D02*
X23704519Y-17150297D01*
X23704519Y-17150297D02*
X23704519Y-17169345D01*
X23885471Y-16969345D02*
X23847376Y-16969345D01*
X23847376Y-16969345D02*
X23828329Y-16978868D01*
X23828329Y-16978868D02*
X23818805Y-16988392D01*
X23818805Y-16988392D02*
X23799757Y-17016964D01*
X23799757Y-17016964D02*
X23790233Y-17055059D01*
X23790233Y-17055059D02*
X23790233Y-17131249D01*
X23790233Y-17131249D02*
X23799757Y-17150297D01*
X23799757Y-17150297D02*
X23809281Y-17159821D01*
X23809281Y-17159821D02*
X23828329Y-17169345D01*
X23828329Y-17169345D02*
X23866424Y-17169345D01*
X23866424Y-17169345D02*
X23885471Y-17159821D01*
X23885471Y-17159821D02*
X23894995Y-17150297D01*
X23894995Y-17150297D02*
X23904519Y-17131249D01*
X23904519Y-17131249D02*
X23904519Y-17083630D01*
X23904519Y-17083630D02*
X23894995Y-17064583D01*
X23894995Y-17064583D02*
X23885471Y-17055059D01*
X23885471Y-17055059D02*
X23866424Y-17045535D01*
X23866424Y-17045535D02*
X23828329Y-17045535D01*
X23828329Y-17045535D02*
X23809281Y-17055059D01*
X23809281Y-17055059D02*
X23799757Y-17064583D01*
X23799757Y-17064583D02*
X23790233Y-17083630D01*
X24028329Y-16969345D02*
X24047376Y-16969345D01*
X24047376Y-16969345D02*
X24066424Y-16978868D01*
X24066424Y-16978868D02*
X24075948Y-16988392D01*
X24075948Y-16988392D02*
X24085471Y-17007440D01*
X24085471Y-17007440D02*
X24094995Y-17045535D01*
X24094995Y-17045535D02*
X24094995Y-17093154D01*
X24094995Y-17093154D02*
X24085471Y-17131249D01*
X24085471Y-17131249D02*
X24075948Y-17150297D01*
X24075948Y-17150297D02*
X24066424Y-17159821D01*
X24066424Y-17159821D02*
X24047376Y-17169345D01*
X24047376Y-17169345D02*
X24028329Y-17169345D01*
X24028329Y-17169345D02*
X24009281Y-17159821D01*
X24009281Y-17159821D02*
X23999757Y-17150297D01*
X23999757Y-17150297D02*
X23990233Y-17131249D01*
X23990233Y-17131249D02*
X23980710Y-17093154D01*
X23980710Y-17093154D02*
X23980710Y-17045535D01*
X23980710Y-17045535D02*
X23990233Y-17007440D01*
X23990233Y-17007440D02*
X23999757Y-16988392D01*
X23999757Y-16988392D02*
X24009281Y-16978868D01*
X24009281Y-16978868D02*
X24028329Y-16969345D01*
X24218805Y-16969345D02*
X24237852Y-16969345D01*
X24237852Y-16969345D02*
X24256900Y-16978868D01*
X24256900Y-16978868D02*
X24266424Y-16988392D01*
X24266424Y-16988392D02*
X24275948Y-17007440D01*
X24275948Y-17007440D02*
X24285471Y-17045535D01*
X24285471Y-17045535D02*
X24285471Y-17093154D01*
X24285471Y-17093154D02*
X24275948Y-17131249D01*
X24275948Y-17131249D02*
X24266424Y-17150297D01*
X24266424Y-17150297D02*
X24256900Y-17159821D01*
X24256900Y-17159821D02*
X24237852Y-17169345D01*
X24237852Y-17169345D02*
X24218805Y-17169345D01*
X24218805Y-17169345D02*
X24199757Y-17159821D01*
X24199757Y-17159821D02*
X24190233Y-17150297D01*
X24190233Y-17150297D02*
X24180710Y-17131249D01*
X24180710Y-17131249D02*
X24171186Y-17093154D01*
X24171186Y-17093154D02*
X24171186Y-17045535D01*
X24171186Y-17045535D02*
X24180710Y-17007440D01*
X24180710Y-17007440D02*
X24190233Y-16988392D01*
X24190233Y-16988392D02*
X24199757Y-16978868D01*
X24199757Y-16978868D02*
X24218805Y-16969345D01*
X24371186Y-17169345D02*
X24371186Y-17036011D01*
X24371186Y-17055059D02*
X24380710Y-17045535D01*
X24380710Y-17045535D02*
X24399757Y-17036011D01*
X24399757Y-17036011D02*
X24428329Y-17036011D01*
X24428329Y-17036011D02*
X24447376Y-17045535D01*
X24447376Y-17045535D02*
X24456900Y-17064583D01*
X24456900Y-17064583D02*
X24456900Y-17169345D01*
X24456900Y-17064583D02*
X24466424Y-17045535D01*
X24466424Y-17045535D02*
X24485471Y-17036011D01*
X24485471Y-17036011D02*
X24514043Y-17036011D01*
X24514043Y-17036011D02*
X24533091Y-17045535D01*
X24533091Y-17045535D02*
X24542614Y-17064583D01*
X24542614Y-17064583D02*
X24542614Y-17169345D01*
X24637852Y-17169345D02*
X24637852Y-17036011D01*
X24637852Y-17055059D02*
X24647376Y-17045535D01*
X24647376Y-17045535D02*
X24666424Y-17036011D01*
X24666424Y-17036011D02*
X24694995Y-17036011D01*
X24694995Y-17036011D02*
X24714043Y-17045535D01*
X24714043Y-17045535D02*
X24723567Y-17064583D01*
X24723567Y-17064583D02*
X24723567Y-17169345D01*
X24723567Y-17064583D02*
X24733091Y-17045535D01*
X24733091Y-17045535D02*
X24752138Y-17036011D01*
X24752138Y-17036011D02*
X24780710Y-17036011D01*
X24780710Y-17036011D02*
X24799757Y-17045535D01*
X24799757Y-17045535D02*
X24809281Y-17064583D01*
X24809281Y-17064583D02*
X24809281Y-17169345D01*
X25199757Y-16959821D02*
X25028329Y-17216964D01*
X25456900Y-16969345D02*
X25475948Y-16969345D01*
X25475948Y-16969345D02*
X25494995Y-16978868D01*
X25494995Y-16978868D02*
X25504519Y-16988392D01*
X25504519Y-16988392D02*
X25514043Y-17007440D01*
X25514043Y-17007440D02*
X25523567Y-17045535D01*
X25523567Y-17045535D02*
X25523567Y-17093154D01*
X25523567Y-17093154D02*
X25514043Y-17131249D01*
X25514043Y-17131249D02*
X25504519Y-17150297D01*
X25504519Y-17150297D02*
X25494995Y-17159821D01*
X25494995Y-17159821D02*
X25475948Y-17169345D01*
X25475948Y-17169345D02*
X25456900Y-17169345D01*
X25456900Y-17169345D02*
X25437853Y-17159821D01*
X25437853Y-17159821D02*
X25428329Y-17150297D01*
X25428329Y-17150297D02*
X25418805Y-17131249D01*
X25418805Y-17131249D02*
X25409281Y-17093154D01*
X25409281Y-17093154D02*
X25409281Y-17045535D01*
X25409281Y-17045535D02*
X25418805Y-17007440D01*
X25418805Y-17007440D02*
X25428329Y-16988392D01*
X25428329Y-16988392D02*
X25437853Y-16978868D01*
X25437853Y-16978868D02*
X25456900Y-16969345D01*
X25609281Y-17150297D02*
X25618805Y-17159821D01*
X25618805Y-17159821D02*
X25609281Y-17169345D01*
X25609281Y-17169345D02*
X25599757Y-17159821D01*
X25599757Y-17159821D02*
X25609281Y-17150297D01*
X25609281Y-17150297D02*
X25609281Y-17169345D01*
X25742614Y-16969345D02*
X25761662Y-16969345D01*
X25761662Y-16969345D02*
X25780710Y-16978868D01*
X25780710Y-16978868D02*
X25790234Y-16988392D01*
X25790234Y-16988392D02*
X25799757Y-17007440D01*
X25799757Y-17007440D02*
X25809281Y-17045535D01*
X25809281Y-17045535D02*
X25809281Y-17093154D01*
X25809281Y-17093154D02*
X25799757Y-17131249D01*
X25799757Y-17131249D02*
X25790234Y-17150297D01*
X25790234Y-17150297D02*
X25780710Y-17159821D01*
X25780710Y-17159821D02*
X25761662Y-17169345D01*
X25761662Y-17169345D02*
X25742614Y-17169345D01*
X25742614Y-17169345D02*
X25723567Y-17159821D01*
X25723567Y-17159821D02*
X25714043Y-17150297D01*
X25714043Y-17150297D02*
X25704519Y-17131249D01*
X25704519Y-17131249D02*
X25694995Y-17093154D01*
X25694995Y-17093154D02*
X25694995Y-17045535D01*
X25694995Y-17045535D02*
X25704519Y-17007440D01*
X25704519Y-17007440D02*
X25714043Y-16988392D01*
X25714043Y-16988392D02*
X25723567Y-16978868D01*
X25723567Y-16978868D02*
X25742614Y-16969345D01*
X25980710Y-16969345D02*
X25942614Y-16969345D01*
X25942614Y-16969345D02*
X25923567Y-16978868D01*
X25923567Y-16978868D02*
X25914043Y-16988392D01*
X25914043Y-16988392D02*
X25894995Y-17016964D01*
X25894995Y-17016964D02*
X25885472Y-17055059D01*
X25885472Y-17055059D02*
X25885472Y-17131249D01*
X25885472Y-17131249D02*
X25894995Y-17150297D01*
X25894995Y-17150297D02*
X25904519Y-17159821D01*
X25904519Y-17159821D02*
X25923567Y-17169345D01*
X25923567Y-17169345D02*
X25961662Y-17169345D01*
X25961662Y-17169345D02*
X25980710Y-17159821D01*
X25980710Y-17159821D02*
X25990234Y-17150297D01*
X25990234Y-17150297D02*
X25999757Y-17131249D01*
X25999757Y-17131249D02*
X25999757Y-17083630D01*
X25999757Y-17083630D02*
X25990234Y-17064583D01*
X25990234Y-17064583D02*
X25980710Y-17055059D01*
X25980710Y-17055059D02*
X25961662Y-17045535D01*
X25961662Y-17045535D02*
X25923567Y-17045535D01*
X25923567Y-17045535D02*
X25904519Y-17055059D01*
X25904519Y-17055059D02*
X25894995Y-17064583D01*
X25894995Y-17064583D02*
X25885472Y-17083630D01*
X26066424Y-16969345D02*
X26190234Y-16969345D01*
X26190234Y-16969345D02*
X26123567Y-17045535D01*
X26123567Y-17045535D02*
X26152138Y-17045535D01*
X26152138Y-17045535D02*
X26171186Y-17055059D01*
X26171186Y-17055059D02*
X26180710Y-17064583D01*
X26180710Y-17064583D02*
X26190234Y-17083630D01*
X26190234Y-17083630D02*
X26190234Y-17131249D01*
X26190234Y-17131249D02*
X26180710Y-17150297D01*
X26180710Y-17150297D02*
X26171186Y-17159821D01*
X26171186Y-17159821D02*
X26152138Y-17169345D01*
X26152138Y-17169345D02*
X26094995Y-17169345D01*
X26094995Y-17169345D02*
X26075948Y-17159821D01*
X26075948Y-17159821D02*
X26066424Y-17150297D01*
X26314043Y-16969345D02*
X26333091Y-16969345D01*
X26333091Y-16969345D02*
X26352138Y-16978868D01*
X26352138Y-16978868D02*
X26361662Y-16988392D01*
X26361662Y-16988392D02*
X26371186Y-17007440D01*
X26371186Y-17007440D02*
X26380710Y-17045535D01*
X26380710Y-17045535D02*
X26380710Y-17093154D01*
X26380710Y-17093154D02*
X26371186Y-17131249D01*
X26371186Y-17131249D02*
X26361662Y-17150297D01*
X26361662Y-17150297D02*
X26352138Y-17159821D01*
X26352138Y-17159821D02*
X26333091Y-17169345D01*
X26333091Y-17169345D02*
X26314043Y-17169345D01*
X26314043Y-17169345D02*
X26294995Y-17159821D01*
X26294995Y-17159821D02*
X26285472Y-17150297D01*
X26285472Y-17150297D02*
X26275948Y-17131249D01*
X26275948Y-17131249D02*
X26266424Y-17093154D01*
X26266424Y-17093154D02*
X26266424Y-17045535D01*
X26266424Y-17045535D02*
X26275948Y-17007440D01*
X26275948Y-17007440D02*
X26285472Y-16988392D01*
X26285472Y-16988392D02*
X26294995Y-16978868D01*
X26294995Y-16978868D02*
X26314043Y-16969345D01*
X26456900Y-16969345D02*
X26456900Y-17007440D01*
X26533091Y-16969345D02*
X26533091Y-17007440D01*
X26828329Y-17245535D02*
X26818805Y-17236011D01*
X26818805Y-17236011D02*
X26799757Y-17207440D01*
X26799757Y-17207440D02*
X26790234Y-17188392D01*
X26790234Y-17188392D02*
X26780710Y-17159821D01*
X26780710Y-17159821D02*
X26771186Y-17112202D01*
X26771186Y-17112202D02*
X26771186Y-17074106D01*
X26771186Y-17074106D02*
X26780710Y-17026487D01*
X26780710Y-17026487D02*
X26790234Y-16997916D01*
X26790234Y-16997916D02*
X26799757Y-16978868D01*
X26799757Y-16978868D02*
X26818805Y-16950297D01*
X26818805Y-16950297D02*
X26828329Y-16940773D01*
X26894996Y-16988392D02*
X26904519Y-16978868D01*
X26904519Y-16978868D02*
X26923567Y-16969345D01*
X26923567Y-16969345D02*
X26971186Y-16969345D01*
X26971186Y-16969345D02*
X26990234Y-16978868D01*
X26990234Y-16978868D02*
X26999757Y-16988392D01*
X26999757Y-16988392D02*
X27009281Y-17007440D01*
X27009281Y-17007440D02*
X27009281Y-17026487D01*
X27009281Y-17026487D02*
X26999757Y-17055059D01*
X26999757Y-17055059D02*
X26885472Y-17169345D01*
X26885472Y-17169345D02*
X27009281Y-17169345D01*
X27247377Y-17169345D02*
X27247377Y-16969345D01*
X27333091Y-17169345D02*
X27333091Y-17064583D01*
X27333091Y-17064583D02*
X27323567Y-17045535D01*
X27323567Y-17045535D02*
X27304519Y-17036011D01*
X27304519Y-17036011D02*
X27275948Y-17036011D01*
X27275948Y-17036011D02*
X27256900Y-17045535D01*
X27256900Y-17045535D02*
X27247377Y-17055059D01*
X27456900Y-17169345D02*
X27437853Y-17159821D01*
X27437853Y-17159821D02*
X27428329Y-17150297D01*
X27428329Y-17150297D02*
X27418805Y-17131249D01*
X27418805Y-17131249D02*
X27418805Y-17074106D01*
X27418805Y-17074106D02*
X27428329Y-17055059D01*
X27428329Y-17055059D02*
X27437853Y-17045535D01*
X27437853Y-17045535D02*
X27456900Y-17036011D01*
X27456900Y-17036011D02*
X27485472Y-17036011D01*
X27485472Y-17036011D02*
X27504519Y-17045535D01*
X27504519Y-17045535D02*
X27514043Y-17055059D01*
X27514043Y-17055059D02*
X27523567Y-17074106D01*
X27523567Y-17074106D02*
X27523567Y-17131249D01*
X27523567Y-17131249D02*
X27514043Y-17150297D01*
X27514043Y-17150297D02*
X27504519Y-17159821D01*
X27504519Y-17159821D02*
X27485472Y-17169345D01*
X27485472Y-17169345D02*
X27456900Y-17169345D01*
X27637853Y-17169345D02*
X27618805Y-17159821D01*
X27618805Y-17159821D02*
X27609281Y-17140773D01*
X27609281Y-17140773D02*
X27609281Y-16969345D01*
X27790234Y-17159821D02*
X27771186Y-17169345D01*
X27771186Y-17169345D02*
X27733091Y-17169345D01*
X27733091Y-17169345D02*
X27714043Y-17159821D01*
X27714043Y-17159821D02*
X27704519Y-17140773D01*
X27704519Y-17140773D02*
X27704519Y-17064583D01*
X27704519Y-17064583D02*
X27714043Y-17045535D01*
X27714043Y-17045535D02*
X27733091Y-17036011D01*
X27733091Y-17036011D02*
X27771186Y-17036011D01*
X27771186Y-17036011D02*
X27790234Y-17045535D01*
X27790234Y-17045535D02*
X27799758Y-17064583D01*
X27799758Y-17064583D02*
X27799758Y-17083630D01*
X27799758Y-17083630D02*
X27704519Y-17102678D01*
X27875948Y-17159821D02*
X27894996Y-17169345D01*
X27894996Y-17169345D02*
X27933091Y-17169345D01*
X27933091Y-17169345D02*
X27952139Y-17159821D01*
X27952139Y-17159821D02*
X27961662Y-17140773D01*
X27961662Y-17140773D02*
X27961662Y-17131249D01*
X27961662Y-17131249D02*
X27952139Y-17112202D01*
X27952139Y-17112202D02*
X27933091Y-17102678D01*
X27933091Y-17102678D02*
X27904519Y-17102678D01*
X27904519Y-17102678D02*
X27885472Y-17093154D01*
X27885472Y-17093154D02*
X27875948Y-17074106D01*
X27875948Y-17074106D02*
X27875948Y-17064583D01*
X27875948Y-17064583D02*
X27885472Y-17045535D01*
X27885472Y-17045535D02*
X27904519Y-17036011D01*
X27904519Y-17036011D02*
X27933091Y-17036011D01*
X27933091Y-17036011D02*
X27952139Y-17045535D01*
X28028329Y-17245535D02*
X28037853Y-17236011D01*
X28037853Y-17236011D02*
X28056900Y-17207440D01*
X28056900Y-17207440D02*
X28066424Y-17188392D01*
X28066424Y-17188392D02*
X28075948Y-17159821D01*
X28075948Y-17159821D02*
X28085472Y-17112202D01*
X28085472Y-17112202D02*
X28085472Y-17074106D01*
X28085472Y-17074106D02*
X28075948Y-17026487D01*
X28075948Y-17026487D02*
X28066424Y-16997916D01*
X28066424Y-16997916D02*
X28056900Y-16978868D01*
X28056900Y-16978868D02*
X28037853Y-16950297D01*
X28037853Y-16950297D02*
X28028329Y-16940773D01*
X28390234Y-17245535D02*
X28380710Y-17236011D01*
X28380710Y-17236011D02*
X28361662Y-17207440D01*
X28361662Y-17207440D02*
X28352139Y-17188392D01*
X28352139Y-17188392D02*
X28342615Y-17159821D01*
X28342615Y-17159821D02*
X28333091Y-17112202D01*
X28333091Y-17112202D02*
X28333091Y-17074106D01*
X28333091Y-17074106D02*
X28342615Y-17026487D01*
X28342615Y-17026487D02*
X28352139Y-16997916D01*
X28352139Y-16997916D02*
X28361662Y-16978868D01*
X28361662Y-16978868D02*
X28380710Y-16950297D01*
X28380710Y-16950297D02*
X28390234Y-16940773D01*
X28466424Y-17036011D02*
X28466424Y-17169345D01*
X28466424Y-17055059D02*
X28475948Y-17045535D01*
X28475948Y-17045535D02*
X28494996Y-17036011D01*
X28494996Y-17036011D02*
X28523567Y-17036011D01*
X28523567Y-17036011D02*
X28542615Y-17045535D01*
X28542615Y-17045535D02*
X28552139Y-17064583D01*
X28552139Y-17064583D02*
X28552139Y-17169345D01*
X28675948Y-17169345D02*
X28656900Y-17159821D01*
X28656900Y-17159821D02*
X28647377Y-17150297D01*
X28647377Y-17150297D02*
X28637853Y-17131249D01*
X28637853Y-17131249D02*
X28637853Y-17074106D01*
X28637853Y-17074106D02*
X28647377Y-17055059D01*
X28647377Y-17055059D02*
X28656900Y-17045535D01*
X28656900Y-17045535D02*
X28675948Y-17036011D01*
X28675948Y-17036011D02*
X28704520Y-17036011D01*
X28704520Y-17036011D02*
X28723567Y-17045535D01*
X28723567Y-17045535D02*
X28733091Y-17055059D01*
X28733091Y-17055059D02*
X28742615Y-17074106D01*
X28742615Y-17074106D02*
X28742615Y-17131249D01*
X28742615Y-17131249D02*
X28733091Y-17150297D01*
X28733091Y-17150297D02*
X28723567Y-17159821D01*
X28723567Y-17159821D02*
X28704520Y-17169345D01*
X28704520Y-17169345D02*
X28675948Y-17169345D01*
X28799758Y-17036011D02*
X28875948Y-17036011D01*
X28828329Y-16969345D02*
X28828329Y-17140773D01*
X28828329Y-17140773D02*
X28837853Y-17159821D01*
X28837853Y-17159821D02*
X28856900Y-17169345D01*
X28856900Y-17169345D02*
X28875948Y-17169345D01*
X29094996Y-17036011D02*
X29094996Y-17236011D01*
X29094996Y-17045535D02*
X29114043Y-17036011D01*
X29114043Y-17036011D02*
X29152139Y-17036011D01*
X29152139Y-17036011D02*
X29171186Y-17045535D01*
X29171186Y-17045535D02*
X29180710Y-17055059D01*
X29180710Y-17055059D02*
X29190234Y-17074106D01*
X29190234Y-17074106D02*
X29190234Y-17131249D01*
X29190234Y-17131249D02*
X29180710Y-17150297D01*
X29180710Y-17150297D02*
X29171186Y-17159821D01*
X29171186Y-17159821D02*
X29152139Y-17169345D01*
X29152139Y-17169345D02*
X29114043Y-17169345D01*
X29114043Y-17169345D02*
X29094996Y-17159821D01*
X29304520Y-17169345D02*
X29285472Y-17159821D01*
X29285472Y-17159821D02*
X29275948Y-17140773D01*
X29275948Y-17140773D02*
X29275948Y-16969345D01*
X29466424Y-17169345D02*
X29466424Y-17064583D01*
X29466424Y-17064583D02*
X29456901Y-17045535D01*
X29456901Y-17045535D02*
X29437853Y-17036011D01*
X29437853Y-17036011D02*
X29399758Y-17036011D01*
X29399758Y-17036011D02*
X29380710Y-17045535D01*
X29466424Y-17159821D02*
X29447377Y-17169345D01*
X29447377Y-17169345D02*
X29399758Y-17169345D01*
X29399758Y-17169345D02*
X29380710Y-17159821D01*
X29380710Y-17159821D02*
X29371186Y-17140773D01*
X29371186Y-17140773D02*
X29371186Y-17121725D01*
X29371186Y-17121725D02*
X29380710Y-17102678D01*
X29380710Y-17102678D02*
X29399758Y-17093154D01*
X29399758Y-17093154D02*
X29447377Y-17093154D01*
X29447377Y-17093154D02*
X29466424Y-17083630D01*
X29533091Y-17036011D02*
X29609281Y-17036011D01*
X29561662Y-16969345D02*
X29561662Y-17140773D01*
X29561662Y-17140773D02*
X29571186Y-17159821D01*
X29571186Y-17159821D02*
X29590234Y-17169345D01*
X29590234Y-17169345D02*
X29609281Y-17169345D01*
X29752139Y-17159821D02*
X29733091Y-17169345D01*
X29733091Y-17169345D02*
X29694996Y-17169345D01*
X29694996Y-17169345D02*
X29675948Y-17159821D01*
X29675948Y-17159821D02*
X29666424Y-17140773D01*
X29666424Y-17140773D02*
X29666424Y-17064583D01*
X29666424Y-17064583D02*
X29675948Y-17045535D01*
X29675948Y-17045535D02*
X29694996Y-17036011D01*
X29694996Y-17036011D02*
X29733091Y-17036011D01*
X29733091Y-17036011D02*
X29752139Y-17045535D01*
X29752139Y-17045535D02*
X29761662Y-17064583D01*
X29761662Y-17064583D02*
X29761662Y-17083630D01*
X29761662Y-17083630D02*
X29666424Y-17102678D01*
X29933091Y-17169345D02*
X29933091Y-16969345D01*
X29933091Y-17159821D02*
X29914043Y-17169345D01*
X29914043Y-17169345D02*
X29875948Y-17169345D01*
X29875948Y-17169345D02*
X29856901Y-17159821D01*
X29856901Y-17159821D02*
X29847377Y-17150297D01*
X29847377Y-17150297D02*
X29837853Y-17131249D01*
X29837853Y-17131249D02*
X29837853Y-17074106D01*
X29837853Y-17074106D02*
X29847377Y-17055059D01*
X29847377Y-17055059D02*
X29856901Y-17045535D01*
X29856901Y-17045535D02*
X29875948Y-17036011D01*
X29875948Y-17036011D02*
X29914043Y-17036011D01*
X29914043Y-17036011D02*
X29933091Y-17045535D01*
X30009282Y-17245535D02*
X30018805Y-17236011D01*
X30018805Y-17236011D02*
X30037853Y-17207440D01*
X30037853Y-17207440D02*
X30047377Y-17188392D01*
X30047377Y-17188392D02*
X30056901Y-17159821D01*
X30056901Y-17159821D02*
X30066424Y-17112202D01*
X30066424Y-17112202D02*
X30066424Y-17074106D01*
X30066424Y-17074106D02*
X30056901Y-17026487D01*
X30056901Y-17026487D02*
X30047377Y-16997916D01*
X30047377Y-16997916D02*
X30037853Y-16978868D01*
X30037853Y-16978868D02*
X30018805Y-16950297D01*
X30018805Y-16950297D02*
X30009282Y-16940773D01*
M02*
