M48
; DRILL file {KiCad 7.0.6} date Tue Feb  6 15:40:44 2024
; FORMAT={-:-/ absolute / inch / decimal}
; #@! TF.CreationDate,2024-02-06T15:40:44-08:00
; #@! TF.GenerationSoftware,Kicad,Pcbnew,7.0.6
; #@! TF.FileFunction,Plated,1,4,PTH
FMAT,2
INCH
; #@! TA.AperFunction,Plated,PTH,ViaDrill
T1C0.0118
; #@! TA.AperFunction,Plated,PTH,ComponentDrill
T2C0.0157
; #@! TA.AperFunction,Plated,PTH,ComponentDrill
T3C0.0197
; #@! TA.AperFunction,Plated,PTH,ComponentDrill
T4C0.0236
; #@! TA.AperFunction,Plated,PTH,ComponentDrill
T5C0.0295
; #@! TA.AperFunction,Plated,PTH,ComponentDrill
T6C0.0315
; #@! TA.AperFunction,Plated,PTH,ComponentDrill
T7C0.0354
; #@! TA.AperFunction,Plated,PTH,ViaDrill
T8C0.0394
; #@! TA.AperFunction,Plated,PTH,ComponentDrill
T9C0.0433
; #@! TA.AperFunction,Plated,PTH,ComponentDrill
T10C0.0472
; #@! TA.AperFunction,Plated,PTH,ComponentDrill
T11C0.0591
%
G90
G05
T1
X6.4565Y-4.1195
X6.549Y-4.87
X6.622Y-4.932
X6.687Y-4.3537
X6.693Y-4.308
X6.708Y-4.944
X6.872Y-4.937
X6.947Y-4.277
X6.959Y-4.06
X6.98Y-4.269
X6.988Y-4.033
X7.003Y-4.289
X7.017Y-4.06
X7.031Y-4.895
X7.077Y-5.057
X7.271Y-5.768
X7.315Y-4.407
X7.352Y-3.849
X7.364Y-4.7
X7.369Y-4.404
X7.406Y-4.879
X7.417Y-5.609
X7.417Y-5.926
X7.4556Y-6.0766
X7.488Y-4.234
X7.507Y-4.547
X7.573Y-5.458
X7.576Y-4.702
X7.6Y-4.266
X7.631Y-4.3
X7.702Y-4.664
X7.717Y-4.732
X7.725Y-6.236
X7.726Y-5.313
X7.733Y-4.231
X7.786Y-4.351
X7.79Y-4.202
X7.803Y-4.125
X7.8385Y-4.5545
X7.861Y-4.813
X7.878Y-5.458
X7.89Y-4.876
X7.89Y-5.07
X7.9278Y-4.6892
X7.932Y-4.736
X7.932Y-4.808
X7.937Y-4.572
X7.939Y-4.85
X7.95Y-4.271
X7.955Y-4.422
X7.986Y-4.662
X7.9894Y-6.0766
X7.994Y-4.974
X8.0348Y-5.915
X8.035Y-5.62
X8.052Y-4.522
X8.091Y-4.64
X8.093Y-5.049
X8.1008Y-4.7997
X8.102Y-5.217
X8.102Y-5.58
X8.1213Y-4.582
X8.169Y-4.662
X8.192Y-5.767
X8.225Y-4.303
X8.233Y-4.514
X8.236Y-4.561
X8.24Y-4.415
X8.243Y-4.654
X8.248Y-4.154
X8.263Y-4.8116
X8.266Y-4.84
X8.275Y-4.138
X8.296Y-4.878
X8.297Y-4.846
X8.302Y-5.294
X8.322Y-4.669
X8.334Y-4.643
X8.335Y-4.744
X8.352Y-5.555
X8.368Y-4.788
X8.373Y-5.334
X8.38Y-4.737
X8.3937Y-4.3553
X8.417Y-5.563
X8.419Y-4.163
X8.42Y-3.688
X8.4233Y-4.1114
X8.436Y-4.3612
X8.4567Y-4.3465
X8.457Y-4.416
X8.458Y-5.548
X8.464Y-4.8094
X8.4701Y-3.7028
X8.4954Y-4.036
X8.496Y-3.87
X8.4966Y-4.0975
X8.4979Y-4.3256
X8.501Y-4.583
X8.506Y-3.73
X8.5104Y-3.7027
X8.5571Y-3.6429
X8.562Y-3.876
X8.576Y-3.934
X8.5835Y-3.6598
X8.59Y-3.874
X8.591Y-3.734
X8.6Y-4.408
X8.601Y-3.958
X8.6147Y-3.6598
X8.615Y-4.229
X8.6205Y-3.7114
X8.648Y-3.6606
X8.6559Y-3.7098
X8.665Y-4.042
X8.684Y-4.992
X8.688Y-4.406
X8.7Y-4.438
X8.704Y-4.135
X8.706Y-4.195
X8.711Y-4.467
X8.712Y-3.698
X8.7139Y-3.6536
X8.715Y-4.635
X8.737Y-5.072
X8.738Y-4.143
X8.741Y-3.847
X8.7453Y-4.4615
X8.746Y-4.014
X8.751Y-4.743
X8.7557Y-3.6699
X8.77Y-4.0
X8.778Y-3.698
X8.78Y-4.133
X8.78Y-4.744
X8.7875Y-4.4946
X8.7913Y-4.6189
X8.7953Y-3.9868
X8.801Y-4.229
X8.812Y-4.417
X8.814Y-4.032
X8.828Y-4.005
X8.83Y-4.459
X8.833Y-4.053
X8.853Y-4.136
X8.863Y-4.733
X8.878Y-3.6854
X8.89Y-4.232
X8.893Y-4.186
X8.906Y-3.76
X8.906Y-3.948
X8.912Y-4.443
X8.9259Y-4.7947
X8.929Y-4.572
X8.948Y-4.591
X8.9567Y-4.563
X8.9665Y-4.6847
X8.973Y-4.041
X8.9941Y-4.5953
X9.0045Y-4.4183
X9.0058Y-4.3826
X9.0356Y-4.6838
X9.0502Y-4.3273
X9.0534Y-4.3621
X9.0538Y-4.3961
X9.0553Y-4.5071
X9.0706Y-4.299
X9.08Y-4.701
X9.081Y-4.111
X9.083Y-3.961
X9.11Y-4.016
X9.1221Y-4.5662
X9.134Y-4.038
X9.137Y-4.306
X9.1451Y-4.5497
X9.184Y-4.23
X9.196Y-4.746
X9.2587Y-4.1818
X9.29Y-4.038
X9.293Y-4.11
X9.304Y-5.065
X9.315Y-4.012
X9.32Y-4.156
X9.324Y-4.188
X9.328Y-4.645
X9.331Y-4.707
X9.339Y-4.265
X9.351Y-4.162
X9.368Y-4.264
X9.391Y-4.213
X9.462Y-4.35
X9.481Y-3.801
X9.486Y-4.07
X9.518Y-4.385
X9.537Y-4.326
X9.543Y-4.277
X9.573Y-4.643
X9.589Y-4.558
X9.624Y-5.064
X9.625Y-4.711
X9.655Y-4.56
X9.691Y-4.676
X9.707Y-4.331
X9.719Y-4.223
X9.766Y-4.22
X9.784Y-4.277
X9.784Y-4.358
X9.853Y-4.104
X9.934Y-4.711
X9.966Y-4.366
X9.993Y-4.557
X10.013Y-5.083
X10.022Y-4.843
X10.22Y-4.842
X10.222Y-4.373
X10.257Y-4.135
X10.281Y-4.161
X10.395Y-5.076
X10.398Y-4.699
X10.421Y-4.678
X10.455Y-4.677
X10.49Y-4.675
X10.511Y-5.331
X10.526Y-5.357
X10.56Y-5.306
X10.603Y-5.426
X10.611Y-4.88
X10.637Y-4.104
X10.649Y-4.682
X10.657Y-5.232
X10.704Y-5.437
X10.736Y-5.441
X10.777Y-5.224
X10.793Y-4.265
X10.793Y-4.82
X10.841Y-5.606
X10.892Y-4.897
T2
X8.4816Y-3.5238
X8.5072Y-3.4962
X8.5387Y-3.4962
X8.5545Y-3.5238
X8.5702Y-3.4962
X8.586Y-3.5238
X8.6175Y-3.5238
X8.6332Y-3.4962
X8.649Y-3.5238
X8.6647Y-3.4962
X8.6962Y-3.4962
X8.7218Y-3.5238
T3
X8.4423Y-3.5395
X8.7612Y-3.5395
T4
X8.4246Y-3.5612
X8.7789Y-3.5612
T5
X9.1554Y-4.3813
X9.2342Y-4.3813
T6
X7.519Y-3.9935
X7.6175Y-3.9935
X7.7159Y-3.9935
X9.4875Y-3.9935
X9.586Y-3.9935
X9.6844Y-3.9935
X10.5661Y-5.677
X10.6449Y-5.677
X10.7236Y-5.677
X10.8024Y-5.677
X10.8811Y-5.677
X10.9599Y-5.677
T7
X6.5759Y-4.6968
X6.5893Y-4.4412
X6.7528Y-4.7061
X6.7662Y-4.4505
T8
X6.187Y-4.921
X6.19Y-5.076
X7.3702Y-5.2127
X7.5236Y-5.2126
X10.9945Y-5.0772
X10.995Y-4.924
T9
X6.5505Y-4.0132
X6.704Y-3.9246
X10.4995Y-3.9246
X10.6529Y-4.0132
T10
X6.772Y-4.8283
X6.7981Y-4.331
X7.1652Y-4.8489
X7.1913Y-4.3516
T4
G00X8.4246Y-3.3171
M15
G01X8.4246Y-3.3525
M16
G05
G00X8.7789Y-3.3171
M15
G01X8.7789Y-3.3525
M16
G05
T6
G00X7.4462Y-4.4325
M15
G01X7.4462Y-4.46
M16
G05
G00X7.7887Y-4.4325
M15
G01X7.7887Y-4.46
M16
G05
G00X9.4147Y-4.4325
M15
G01X9.4147Y-4.46
M16
G05
G00X9.7572Y-4.4325
M15
G01X9.7572Y-4.46
M16
G05
T11
G00X6.4318Y-3.9453
M15
G01X6.4515Y-3.9794
M16
G05
G00X6.7046Y-3.7878
M15
G01X6.7243Y-3.8219
M16
G05
G00X10.4989Y-3.7878
M15
G01X10.4792Y-3.8219
M16
G05
G00X10.7716Y-3.9453
M15
G01X10.7519Y-3.9794
M16
G05
T0
M30
