%TF.GenerationSoftware,KiCad,Pcbnew,7.0.6*%
%TF.CreationDate,2023-12-14T14:15:50-08:00*%
%TF.ProjectId,UGC_Main,5547435f-4d61-4696-9e2e-6b696361645f,rev?*%
%TF.SameCoordinates,Original*%
%TF.FileFunction,Soldermask,Top*%
%TF.FilePolarity,Negative*%
%FSLAX46Y46*%
G04 Gerber Fmt 4.6, Leading zero omitted, Abs format (unit mm)*
G04 Created by KiCad (PCBNEW 7.0.6) date 2023-12-14 14:15:50*
%MOMM*%
%LPD*%
G01*
G04 APERTURE LIST*
G04 Aperture macros list*
%AMRoundRect*
0 Rectangle with rounded corners*
0 $1 Rounding radius*
0 $2 $3 $4 $5 $6 $7 $8 $9 X,Y pos of 4 corners*
0 Add a 4 corners polygon primitive as box body*
4,1,4,$2,$3,$4,$5,$6,$7,$8,$9,$2,$3,0*
0 Add four circle primitives for the rounded corners*
1,1,$1+$1,$2,$3*
1,1,$1+$1,$4,$5*
1,1,$1+$1,$6,$7*
1,1,$1+$1,$8,$9*
0 Add four rect primitives between the rounded corners*
20,1,$1+$1,$2,$3,$4,$5,0*
20,1,$1+$1,$4,$5,$6,$7,0*
20,1,$1+$1,$6,$7,$8,$9,0*
20,1,$1+$1,$8,$9,$2,$3,0*%
%AMHorizOval*
0 Thick line with rounded ends*
0 $1 width*
0 $2 $3 position (X,Y) of the first rounded end (center of the circle)*
0 $4 $5 position (X,Y) of the second rounded end (center of the circle)*
0 Add line between two ends*
20,1,$1,$2,$3,$4,$5,0*
0 Add two circle primitives to create the rounded ends*
1,1,$1,$2,$3*
1,1,$1,$4,$5*%
%AMRotRect*
0 Rectangle, with rotation*
0 The origin of the aperture is its center*
0 $1 length*
0 $2 width*
0 $3 Rotation angle, in degrees counterclockwise*
0 Add horizontal line*
21,1,$1,$2,0,0,$3*%
%AMFreePoly0*
4,1,13,0.900000,0.500000,2.600000,0.500000,2.600000,-0.500000,0.900000,-0.500000,0.400000,-1.000000,-0.400000,-1.000000,-0.900000,-0.500000,-2.600000,-0.500000,-2.600000,0.500000,-0.900000,0.500000,-0.400000,1.000000,0.400000,1.000000,0.900000,0.500000,0.900000,0.500000,$1*%
G04 Aperture macros list end*
%ADD10C,0.250000*%
%ADD11C,0.000000*%
%ADD12C,0.025000*%
%ADD13C,3.800000*%
%ADD14C,3.050000*%
%ADD15C,2.050000*%
%ADD16C,0.010000*%
%ADD17RoundRect,0.100000X0.100000X-0.130000X0.100000X0.130000X-0.100000X0.130000X-0.100000X-0.130000X0*%
%ADD18RoundRect,0.140000X-0.170000X0.140000X-0.170000X-0.140000X0.170000X-0.140000X0.170000X0.140000X0*%
%ADD19RoundRect,0.225000X-0.225000X-0.250000X0.225000X-0.250000X0.225000X0.250000X-0.225000X0.250000X0*%
%ADD20RoundRect,0.100000X-0.130000X-0.100000X0.130000X-0.100000X0.130000X0.100000X-0.130000X0.100000X0*%
%ADD21RoundRect,0.100000X0.130000X0.100000X-0.130000X0.100000X-0.130000X-0.100000X0.130000X-0.100000X0*%
%ADD22RoundRect,0.200000X0.275000X-0.200000X0.275000X0.200000X-0.275000X0.200000X-0.275000X-0.200000X0*%
%ADD23RotRect,1.000000X1.000000X357.000000*%
%ADD24RoundRect,0.100000X-0.100000X0.130000X-0.100000X-0.130000X0.100000X-0.130000X0.100000X0.130000X0*%
%ADD25R,0.745000X0.280000*%
%ADD26R,0.280000X0.745000*%
%ADD27RoundRect,0.050000X0.075000X-0.225000X0.075000X0.225000X-0.075000X0.225000X-0.075000X-0.225000X0*%
%ADD28RoundRect,0.050000X0.050000X-0.225000X0.050000X0.225000X-0.050000X0.225000X-0.050000X-0.225000X0*%
%ADD29RoundRect,0.050000X0.250000X-0.100000X0.250000X0.100000X-0.250000X0.100000X-0.250000X-0.100000X0*%
%ADD30RoundRect,0.150000X-0.587500X-0.150000X0.587500X-0.150000X0.587500X0.150000X-0.587500X0.150000X0*%
%ADD31RoundRect,0.250001X-0.624999X0.462499X-0.624999X-0.462499X0.624999X-0.462499X0.624999X0.462499X0*%
%ADD32C,1.500000*%
%ADD33RoundRect,0.250000X0.425000X-0.450000X0.425000X0.450000X-0.425000X0.450000X-0.425000X-0.450000X0*%
%ADD34RotRect,0.550000X0.550000X357.000000*%
%ADD35R,0.650000X0.400000*%
%ADD36RoundRect,0.200000X-0.275000X0.200000X-0.275000X-0.200000X0.275000X-0.200000X0.275000X0.200000X0*%
%ADD37C,1.750000*%
%ADD38C,1.600000*%
%ADD39C,1.250000*%
%ADD40R,1.300000X0.600000*%
%ADD41R,2.300000X3.200000*%
%ADD42RoundRect,0.140000X0.140000X0.170000X-0.140000X0.170000X-0.140000X-0.170000X0.140000X-0.170000X0*%
%ADD43RoundRect,0.225000X0.225000X0.375000X-0.225000X0.375000X-0.225000X-0.375000X0.225000X-0.375000X0*%
%ADD44C,0.230000*%
%ADD45RoundRect,0.225000X0.225000X0.250000X-0.225000X0.250000X-0.225000X-0.250000X0.225000X-0.250000X0*%
%ADD46RoundRect,0.135000X-0.135000X-0.185000X0.135000X-0.185000X0.135000X0.185000X-0.135000X0.185000X0*%
%ADD47HorizOval,2.250000X-0.250000X0.433013X0.250000X-0.433013X0*%
%ADD48HorizOval,1.700000X0.259808X0.150000X-0.259808X-0.150000X0*%
%ADD49RoundRect,0.140000X-0.140000X-0.170000X0.140000X-0.170000X0.140000X0.170000X-0.140000X0.170000X0*%
%ADD50HorizOval,2.250000X-0.250000X-0.433013X0.250000X0.433013X0*%
%ADD51HorizOval,1.700000X0.259808X-0.150000X-0.259808X0.150000X0*%
%ADD52RoundRect,0.150000X0.587500X0.150000X-0.587500X0.150000X-0.587500X-0.150000X0.587500X-0.150000X0*%
%ADD53RoundRect,0.050000X0.050000X-0.387500X0.050000X0.387500X-0.050000X0.387500X-0.050000X-0.387500X0*%
%ADD54RoundRect,0.050000X0.387500X-0.050000X0.387500X0.050000X-0.387500X0.050000X-0.387500X-0.050000X0*%
%ADD55R,3.200000X3.200000*%
%ADD56RoundRect,0.250001X0.624999X-0.462499X0.624999X0.462499X-0.624999X0.462499X-0.624999X-0.462499X0*%
%ADD57R,1.350000X1.350000*%
%ADD58O,1.350000X1.350000*%
%ADD59R,0.400000X0.650000*%
%ADD60RoundRect,0.250000X0.250000X-0.250000X0.250000X0.250000X-0.250000X0.250000X-0.250000X-0.250000X0*%
%ADD61R,1.500000X1.000000*%
%ADD62C,0.500000*%
%ADD63RoundRect,0.100000X-0.712500X-0.100000X0.712500X-0.100000X0.712500X0.100000X-0.712500X0.100000X0*%
%ADD64R,1.900000X0.400000*%
%ADD65O,3.250000X2.250000*%
%ADD66RoundRect,0.237500X-0.300000X-0.237500X0.300000X-0.237500X0.300000X0.237500X-0.300000X0.237500X0*%
%ADD67RotRect,1.000000X1.000000X267.000000*%
%ADD68RoundRect,0.225000X0.250000X-0.225000X0.250000X0.225000X-0.250000X0.225000X-0.250000X-0.225000X0*%
%ADD69RoundRect,0.250000X-0.250000X0.250000X-0.250000X-0.250000X0.250000X-0.250000X0.250000X0.250000X0*%
%ADD70RoundRect,0.237500X0.237500X-0.300000X0.237500X0.300000X-0.237500X0.300000X-0.237500X-0.300000X0*%
%ADD71R,0.800000X0.400000*%
%ADD72R,0.400000X0.800000*%
%ADD73R,1.450000X1.450000*%
%ADD74R,0.700000X0.700000*%
%ADD75R,1.500000X0.700000*%
%ADD76FreePoly0,180.000000*%
%ADD77RotRect,1.350000X1.350000X215.000000*%
%ADD78RoundRect,0.250000X0.250000X0.250000X-0.250000X0.250000X-0.250000X-0.250000X0.250000X-0.250000X0*%
%ADD79R,0.300000X0.400000*%
%ADD80R,1.600000X0.200000*%
%ADD81C,2.050000*%
%ADD82C,0.650000*%
%ADD83O,1.000000X2.000000*%
%ADD84O,1.250000X2.500000*%
%ADD85O,1.600000X2.500000*%
%ADD86RoundRect,0.250000X-0.350000X-0.625000X0.350000X-0.625000X0.350000X0.625000X-0.350000X0.625000X0*%
%ADD87O,1.200000X1.750000*%
G04 APERTURE END LIST*
D10*
G36*
X158721720Y-121777706D02*
G01*
X158104763Y-121777706D01*
X158104763Y-122261893D01*
X158309927Y-122261893D01*
X158309927Y-122014817D01*
X158333191Y-122016130D01*
X158355959Y-122019995D01*
X158378092Y-122026295D01*
X158399452Y-122034917D01*
X158419901Y-122045745D01*
X158439299Y-122058666D01*
X158448560Y-122065875D01*
X158457507Y-122073564D01*
X158466122Y-122081718D01*
X158474388Y-122090325D01*
X158482287Y-122099368D01*
X158489802Y-122108834D01*
X158496915Y-122118708D01*
X158503610Y-122128977D01*
X158509869Y-122139625D01*
X158515675Y-122150638D01*
X158521010Y-122162003D01*
X158525857Y-122173705D01*
X158530199Y-122185728D01*
X158534018Y-122198060D01*
X158537297Y-122210686D01*
X158540019Y-122223591D01*
X158542166Y-122236762D01*
X158543721Y-122250183D01*
X158544667Y-122263840D01*
X158544986Y-122277720D01*
X158544408Y-122297095D01*
X158542700Y-122315767D01*
X158539903Y-122333741D01*
X158536057Y-122351023D01*
X158531200Y-122367619D01*
X158525374Y-122383534D01*
X158518619Y-122398775D01*
X158510974Y-122413348D01*
X158502479Y-122427258D01*
X158493175Y-122440510D01*
X158483100Y-122453111D01*
X158472297Y-122465067D01*
X158460803Y-122476383D01*
X158448660Y-122487065D01*
X158435907Y-122497119D01*
X158422584Y-122506551D01*
X158408731Y-122515366D01*
X158394389Y-122523571D01*
X158379596Y-122531170D01*
X158364394Y-122538171D01*
X158348822Y-122544578D01*
X158332920Y-122550397D01*
X158316729Y-122555635D01*
X158300287Y-122560297D01*
X158283635Y-122564388D01*
X158266814Y-122567916D01*
X158249862Y-122570884D01*
X158232820Y-122573300D01*
X158215729Y-122575169D01*
X158198627Y-122576497D01*
X158181555Y-122577290D01*
X158164553Y-122577552D01*
X158140786Y-122577205D01*
X158117735Y-122576168D01*
X158095404Y-122574454D01*
X158073795Y-122572071D01*
X158052910Y-122569030D01*
X158032751Y-122565342D01*
X158013322Y-122561017D01*
X157994625Y-122556065D01*
X157976661Y-122550497D01*
X157959435Y-122544322D01*
X157942947Y-122537551D01*
X157927201Y-122530195D01*
X157912199Y-122522264D01*
X157897943Y-122513767D01*
X157884437Y-122504716D01*
X157871682Y-122495121D01*
X157859681Y-122484991D01*
X157848436Y-122474337D01*
X157837950Y-122463170D01*
X157828225Y-122451500D01*
X157819264Y-122439337D01*
X157811070Y-122426692D01*
X157803644Y-122413574D01*
X157796989Y-122399994D01*
X157791108Y-122385963D01*
X157786003Y-122371490D01*
X157781677Y-122356586D01*
X157778132Y-122341261D01*
X157775370Y-122325526D01*
X157773394Y-122309391D01*
X157772207Y-122292866D01*
X157771811Y-122275961D01*
X157772712Y-122252782D01*
X157775368Y-122230141D01*
X157779705Y-122208150D01*
X157785650Y-122186921D01*
X157793131Y-122166566D01*
X157802074Y-122147198D01*
X157812406Y-122128927D01*
X157824054Y-122111867D01*
X157836946Y-122096129D01*
X157851009Y-122081826D01*
X157866168Y-122069069D01*
X157882352Y-122057970D01*
X157899488Y-122048642D01*
X157917501Y-122041197D01*
X157936321Y-122035746D01*
X157955872Y-122032402D01*
X157955872Y-121778585D01*
X157934158Y-121780822D01*
X157912879Y-121784165D01*
X157892052Y-121788588D01*
X157871694Y-121794066D01*
X157851822Y-121800577D01*
X157832452Y-121808093D01*
X157813601Y-121816592D01*
X157795286Y-121826048D01*
X157777522Y-121836436D01*
X157760328Y-121847732D01*
X157743718Y-121859912D01*
X157727711Y-121872949D01*
X157712322Y-121886821D01*
X157697569Y-121901501D01*
X157683468Y-121916966D01*
X157670035Y-121933191D01*
X157657287Y-121950151D01*
X157645242Y-121967821D01*
X157633914Y-121986176D01*
X157623322Y-122005193D01*
X157613482Y-122024846D01*
X157604410Y-122045110D01*
X157596123Y-122065962D01*
X157588638Y-122087375D01*
X157581971Y-122109327D01*
X157576139Y-122131790D01*
X157571159Y-122154743D01*
X157567047Y-122178158D01*
X157563819Y-122202013D01*
X157561493Y-122226281D01*
X157560086Y-122250939D01*
X157559613Y-122275961D01*
X157560394Y-122309747D01*
X157562711Y-122342517D01*
X157566525Y-122374268D01*
X157571798Y-122404996D01*
X157578492Y-122434698D01*
X157586566Y-122463369D01*
X157595983Y-122491007D01*
X157606704Y-122517606D01*
X157618691Y-122543164D01*
X157631904Y-122567677D01*
X157646304Y-122591140D01*
X157661854Y-122613551D01*
X157678515Y-122634905D01*
X157696247Y-122655199D01*
X157715012Y-122674429D01*
X157734772Y-122692591D01*
X157755487Y-122709681D01*
X157777119Y-122725696D01*
X157799630Y-122740632D01*
X157822980Y-122754485D01*
X157847131Y-122767251D01*
X157872045Y-122778927D01*
X157897681Y-122789508D01*
X157924003Y-122798992D01*
X157950971Y-122807374D01*
X157978547Y-122814651D01*
X158006691Y-122820818D01*
X158035365Y-122825873D01*
X158064530Y-122829811D01*
X158094149Y-122832628D01*
X158124181Y-122834321D01*
X158154588Y-122834887D01*
X158183814Y-122834300D01*
X158212876Y-122832552D01*
X158241725Y-122829658D01*
X158270310Y-122825634D01*
X158298581Y-122820496D01*
X158326489Y-122814261D01*
X158353982Y-122806944D01*
X158381011Y-122798562D01*
X158407525Y-122789130D01*
X158433475Y-122778666D01*
X158458811Y-122767184D01*
X158483482Y-122754701D01*
X158507438Y-122741233D01*
X158530628Y-122726797D01*
X158553004Y-122711408D01*
X158574515Y-122695082D01*
X158595110Y-122677836D01*
X158614740Y-122659685D01*
X158633355Y-122640646D01*
X158650903Y-122620735D01*
X158667336Y-122599968D01*
X158682603Y-122578361D01*
X158696653Y-122555930D01*
X158709438Y-122532691D01*
X158720906Y-122508661D01*
X158731008Y-122483855D01*
X158739693Y-122458289D01*
X158746911Y-122431980D01*
X158752613Y-122404944D01*
X158756747Y-122377196D01*
X158759265Y-122348754D01*
X158760115Y-122319632D01*
X158759948Y-122305166D01*
X158759453Y-122290849D01*
X158758639Y-122276693D01*
X158757513Y-122262710D01*
X158756084Y-122248914D01*
X158754362Y-122235317D01*
X158752353Y-122221931D01*
X158750068Y-122208770D01*
X158747513Y-122195846D01*
X158744699Y-122183171D01*
X158741632Y-122170759D01*
X158738322Y-122158622D01*
X158734778Y-122146772D01*
X158731007Y-122135223D01*
X158727018Y-122123987D01*
X158718420Y-122102503D01*
X158709053Y-122082424D01*
X158698983Y-122063850D01*
X158688280Y-122046883D01*
X158677010Y-122031624D01*
X158665242Y-122018174D01*
X158653043Y-122006634D01*
X158640482Y-121997106D01*
X158634086Y-121993128D01*
X158722600Y-121989318D01*
X158721720Y-121777706D01*
G37*
G36*
X158322530Y-120964377D02*
G01*
X158335655Y-120967618D01*
X158348378Y-120971132D01*
X158360697Y-120974920D01*
X158372611Y-120978984D01*
X158384120Y-120983325D01*
X158395222Y-120987945D01*
X158405918Y-120992846D01*
X158426082Y-121003494D01*
X158444607Y-121015281D01*
X158461483Y-121028220D01*
X158476705Y-121042322D01*
X158490265Y-121057600D01*
X158502155Y-121074066D01*
X158512369Y-121091731D01*
X158520898Y-121110607D01*
X158527736Y-121130707D01*
X158532876Y-121152043D01*
X158536309Y-121174626D01*
X158537384Y-121186390D01*
X158538030Y-121198470D01*
X158538245Y-121210867D01*
X158537842Y-121227118D01*
X158536639Y-121242845D01*
X158534641Y-121258047D01*
X158531855Y-121272725D01*
X158528286Y-121286880D01*
X158523942Y-121300513D01*
X158518829Y-121313623D01*
X158512952Y-121326212D01*
X158506318Y-121338281D01*
X158498934Y-121349829D01*
X158490806Y-121360858D01*
X158481939Y-121371367D01*
X158472340Y-121381359D01*
X158462016Y-121390832D01*
X158450973Y-121399788D01*
X158439217Y-121408228D01*
X158426754Y-121416151D01*
X158413590Y-121423559D01*
X158399733Y-121430452D01*
X158385188Y-121436831D01*
X158369961Y-121442696D01*
X158354059Y-121448048D01*
X158337488Y-121452888D01*
X158320254Y-121457215D01*
X158302363Y-121461031D01*
X158283823Y-121464337D01*
X158264638Y-121467132D01*
X158244816Y-121469418D01*
X158224363Y-121471195D01*
X158203285Y-121472463D01*
X158181587Y-121473224D01*
X158159278Y-121473477D01*
X158137251Y-121473223D01*
X158115799Y-121472460D01*
X158094930Y-121471185D01*
X158074652Y-121469394D01*
X158054974Y-121467086D01*
X158035903Y-121464258D01*
X158017448Y-121460906D01*
X157999616Y-121457027D01*
X157982417Y-121452620D01*
X157965857Y-121447681D01*
X157949946Y-121442208D01*
X157934692Y-121436197D01*
X157920102Y-121429646D01*
X157906185Y-121422553D01*
X157892949Y-121414913D01*
X157880401Y-121406726D01*
X157868551Y-121397986D01*
X157857407Y-121388693D01*
X157846976Y-121378843D01*
X157837267Y-121368434D01*
X157828287Y-121357462D01*
X157820046Y-121345924D01*
X157812550Y-121333819D01*
X157805810Y-121321143D01*
X157799831Y-121307893D01*
X157794623Y-121294067D01*
X157790194Y-121279662D01*
X157786553Y-121264675D01*
X157783706Y-121249103D01*
X157781662Y-121232943D01*
X157780430Y-121216193D01*
X157780018Y-121198850D01*
X157780845Y-121178852D01*
X157783316Y-121159239D01*
X157787409Y-121140082D01*
X157793106Y-121121451D01*
X157800386Y-121103416D01*
X157809229Y-121086047D01*
X157819617Y-121069414D01*
X157831528Y-121053587D01*
X157844944Y-121038636D01*
X157859845Y-121024630D01*
X157876210Y-121011640D01*
X157894021Y-120999736D01*
X157913257Y-120988988D01*
X157933899Y-120979465D01*
X157955926Y-120971238D01*
X157967453Y-120967633D01*
X157979320Y-120964377D01*
X157979320Y-120713198D01*
X157957331Y-120715831D01*
X157935676Y-120719383D01*
X157914378Y-120723843D01*
X157893461Y-120729201D01*
X157872949Y-120735445D01*
X157852865Y-120742565D01*
X157833234Y-120750551D01*
X157814080Y-120759392D01*
X157795427Y-120769077D01*
X157777298Y-120779597D01*
X157759717Y-120790940D01*
X157742709Y-120803095D01*
X157726297Y-120816053D01*
X157710506Y-120829802D01*
X157695358Y-120844333D01*
X157680879Y-120859634D01*
X157667092Y-120875695D01*
X157654021Y-120892505D01*
X157641690Y-120910054D01*
X157630123Y-120928331D01*
X157619344Y-120947326D01*
X157609376Y-120967028D01*
X157600244Y-120987426D01*
X157591972Y-121008510D01*
X157584583Y-121030270D01*
X157578102Y-121052694D01*
X157572552Y-121075773D01*
X157567958Y-121099495D01*
X157564343Y-121123851D01*
X157561731Y-121148828D01*
X157560146Y-121174418D01*
X157559613Y-121200609D01*
X157560301Y-121230594D01*
X157562354Y-121259870D01*
X157565756Y-121288420D01*
X157570487Y-121316229D01*
X157576531Y-121343280D01*
X157583871Y-121369558D01*
X157592489Y-121395047D01*
X157602367Y-121419731D01*
X157613489Y-121443595D01*
X157625837Y-121466621D01*
X157639394Y-121488795D01*
X157654142Y-121510100D01*
X157670063Y-121530521D01*
X157687141Y-121550041D01*
X157705358Y-121568645D01*
X157724696Y-121586317D01*
X157745139Y-121603041D01*
X157766669Y-121618802D01*
X157789268Y-121633582D01*
X157812919Y-121647367D01*
X157837605Y-121660141D01*
X157863308Y-121671887D01*
X157890012Y-121682590D01*
X157917697Y-121692233D01*
X157946348Y-121700802D01*
X157975947Y-121708279D01*
X158006475Y-121714650D01*
X158037917Y-121719898D01*
X158070255Y-121724008D01*
X158103471Y-121726963D01*
X158137547Y-121728747D01*
X158172467Y-121729346D01*
X158207804Y-121728679D01*
X158242098Y-121726696D01*
X158275342Y-121723429D01*
X158307532Y-121718907D01*
X158338663Y-121713160D01*
X158368729Y-121706218D01*
X158397726Y-121698110D01*
X158425648Y-121688867D01*
X158452490Y-121678519D01*
X158478247Y-121667094D01*
X158502914Y-121654624D01*
X158526486Y-121641139D01*
X158548958Y-121626667D01*
X158570325Y-121611239D01*
X158590582Y-121594885D01*
X158609723Y-121577634D01*
X158627743Y-121559518D01*
X158644638Y-121540564D01*
X158660402Y-121520805D01*
X158675030Y-121500268D01*
X158688517Y-121478985D01*
X158700858Y-121456984D01*
X158712048Y-121434297D01*
X158722082Y-121410952D01*
X158730954Y-121386981D01*
X158738660Y-121362412D01*
X158745195Y-121337275D01*
X158750553Y-121311601D01*
X158754729Y-121285419D01*
X158757718Y-121258759D01*
X158759515Y-121231652D01*
X158760115Y-121204126D01*
X158759612Y-121179751D01*
X158758112Y-121155870D01*
X158755630Y-121132493D01*
X158752180Y-121109627D01*
X158747778Y-121087282D01*
X158742437Y-121065465D01*
X158736174Y-121044186D01*
X158729002Y-121023454D01*
X158720936Y-121003275D01*
X158711991Y-120983661D01*
X158702181Y-120964618D01*
X158691522Y-120946155D01*
X158680027Y-120928282D01*
X158667712Y-120911006D01*
X158654592Y-120894336D01*
X158640680Y-120878282D01*
X158625993Y-120862850D01*
X158610544Y-120848051D01*
X158594348Y-120833892D01*
X158577420Y-120820382D01*
X158559774Y-120807530D01*
X158541426Y-120795345D01*
X158522390Y-120783834D01*
X158502680Y-120773007D01*
X158482312Y-120762872D01*
X158461300Y-120753437D01*
X158439659Y-120744712D01*
X158417403Y-120736705D01*
X158394548Y-120729424D01*
X158371107Y-120722878D01*
X158347096Y-120717076D01*
X158322530Y-120712026D01*
X158322530Y-120964377D01*
G37*
G36*
X158343046Y-120026192D02*
G01*
X158356012Y-120026392D01*
X158368534Y-120026994D01*
X158380614Y-120028000D01*
X158392253Y-120029411D01*
X158414221Y-120033454D01*
X158434454Y-120039138D01*
X158452970Y-120046476D01*
X158469785Y-120055481D01*
X158484918Y-120066166D01*
X158498385Y-120078545D01*
X158510203Y-120092631D01*
X158520389Y-120108438D01*
X158528962Y-120125978D01*
X158535937Y-120145265D01*
X158541332Y-120166312D01*
X158545165Y-120189133D01*
X158546500Y-120201212D01*
X158547452Y-120213740D01*
X158548021Y-120226719D01*
X158548210Y-120240148D01*
X158547273Y-120262332D01*
X158544488Y-120283256D01*
X158539897Y-120302897D01*
X158533542Y-120321229D01*
X158525464Y-120338231D01*
X158515706Y-120353879D01*
X158504309Y-120368148D01*
X158491314Y-120381015D01*
X158476763Y-120392458D01*
X158460698Y-120402451D01*
X158443160Y-120410971D01*
X158424191Y-120417995D01*
X158403833Y-120423500D01*
X158382127Y-120427461D01*
X158359116Y-120429855D01*
X158347133Y-120430457D01*
X158334840Y-120430658D01*
X157597128Y-120430658D01*
X157597128Y-120686527D01*
X158356528Y-120686527D01*
X158381565Y-120686014D01*
X158405787Y-120684485D01*
X158429195Y-120681954D01*
X158451792Y-120678436D01*
X158473578Y-120673944D01*
X158494555Y-120668493D01*
X158514724Y-120662098D01*
X158534087Y-120654772D01*
X158552644Y-120646530D01*
X158570396Y-120637386D01*
X158587346Y-120627354D01*
X158603494Y-120616449D01*
X158618842Y-120604685D01*
X158633392Y-120592076D01*
X158647143Y-120578637D01*
X158660098Y-120564381D01*
X158672258Y-120549323D01*
X158683623Y-120533478D01*
X158694197Y-120516859D01*
X158703979Y-120499481D01*
X158712971Y-120481358D01*
X158721175Y-120462504D01*
X158728591Y-120442934D01*
X158735221Y-120422662D01*
X158741066Y-120401702D01*
X158746128Y-120380069D01*
X158750407Y-120357776D01*
X158753905Y-120334839D01*
X158756624Y-120311270D01*
X158758564Y-120287086D01*
X158759728Y-120262299D01*
X158760115Y-120236924D01*
X158759693Y-120209537D01*
X158758429Y-120182885D01*
X158756326Y-120156977D01*
X158753386Y-120131821D01*
X158749613Y-120107428D01*
X158745009Y-120083804D01*
X158739577Y-120060960D01*
X158733320Y-120038905D01*
X158726241Y-120017645D01*
X158718343Y-119997192D01*
X158709628Y-119977553D01*
X158700100Y-119958737D01*
X158689760Y-119940753D01*
X158678613Y-119923611D01*
X158666661Y-119907317D01*
X158653906Y-119891883D01*
X158640352Y-119877315D01*
X158626002Y-119863624D01*
X158610857Y-119850817D01*
X158594922Y-119838904D01*
X158578199Y-119827893D01*
X158560690Y-119817794D01*
X158542400Y-119808615D01*
X158523329Y-119800365D01*
X158503482Y-119793052D01*
X158482862Y-119786686D01*
X158461470Y-119781275D01*
X158439310Y-119776828D01*
X158416385Y-119773354D01*
X158392697Y-119770862D01*
X158368250Y-119769360D01*
X158343046Y-119768857D01*
X157597128Y-119768857D01*
X157597128Y-120026192D01*
X158343046Y-120026192D01*
G37*
G36*
X158722600Y-118791984D02*
G01*
X157878496Y-118487462D01*
X157878496Y-118737762D01*
X158402544Y-118905996D01*
X157878496Y-119072179D01*
X157878496Y-119335668D01*
X158722600Y-119033491D01*
X158722600Y-118791984D01*
G37*
G36*
X158722600Y-118022912D02*
G01*
X157597128Y-118022912D01*
X157597128Y-118218697D01*
X157609167Y-118220149D01*
X157620777Y-118221880D01*
X157642719Y-118226245D01*
X157662980Y-118231929D01*
X157681585Y-118239071D01*
X157698558Y-118247809D01*
X157713924Y-118258280D01*
X157727709Y-118270622D01*
X157739937Y-118284972D01*
X157750634Y-118301470D01*
X157759823Y-118320251D01*
X157767530Y-118341455D01*
X157770836Y-118353009D01*
X157773780Y-118365220D01*
X157776367Y-118378105D01*
X157778598Y-118391682D01*
X157780478Y-118405968D01*
X157782008Y-118420980D01*
X157783194Y-118436735D01*
X157784036Y-118453251D01*
X157784540Y-118470545D01*
X157784707Y-118488634D01*
X157954700Y-118488634D01*
X157954700Y-118260023D01*
X158722600Y-118260023D01*
X158722600Y-118022912D01*
G37*
G36*
X160195890Y-121853901D02*
G01*
X160226716Y-121855620D01*
X160256888Y-121858463D01*
X160286381Y-121862410D01*
X160315171Y-121867443D01*
X160343235Y-121873542D01*
X160370547Y-121880689D01*
X160397084Y-121888865D01*
X160422821Y-121898052D01*
X160447735Y-121908230D01*
X160471802Y-121919380D01*
X160494996Y-121931485D01*
X160517294Y-121944524D01*
X160538672Y-121958479D01*
X160559106Y-121973331D01*
X160578572Y-121989062D01*
X160597044Y-122005652D01*
X160614500Y-122023083D01*
X160630915Y-122041335D01*
X160646265Y-122060391D01*
X160660526Y-122080231D01*
X160673674Y-122100836D01*
X160685683Y-122122188D01*
X160696532Y-122144267D01*
X160706194Y-122167055D01*
X160714647Y-122190534D01*
X160721865Y-122214683D01*
X160727825Y-122239485D01*
X160732503Y-122264920D01*
X160735874Y-122290970D01*
X160737914Y-122317615D01*
X160738600Y-122344838D01*
X160738600Y-122821405D01*
X159613128Y-122821405D01*
X159613128Y-122575794D01*
X159825327Y-122575794D01*
X160530212Y-122575794D01*
X160530212Y-122392026D01*
X160529860Y-122373761D01*
X160528805Y-122356167D01*
X160527046Y-122339237D01*
X160524580Y-122322967D01*
X160521408Y-122307349D01*
X160517528Y-122292378D01*
X160512939Y-122278047D01*
X160507639Y-122264352D01*
X160501628Y-122251286D01*
X160494904Y-122238843D01*
X160487467Y-122227017D01*
X160479315Y-122215802D01*
X160470447Y-122205192D01*
X160460862Y-122195181D01*
X160450559Y-122185763D01*
X160439536Y-122176933D01*
X160427793Y-122168684D01*
X160415329Y-122161011D01*
X160402142Y-122153907D01*
X160388231Y-122147366D01*
X160373595Y-122141383D01*
X160358233Y-122135951D01*
X160342144Y-122131065D01*
X160325327Y-122126718D01*
X160307780Y-122122906D01*
X160289503Y-122119620D01*
X160270494Y-122116857D01*
X160250752Y-122114609D01*
X160230276Y-122112872D01*
X160209065Y-122111638D01*
X160187118Y-122110902D01*
X160164433Y-122110658D01*
X160141851Y-122110900D01*
X160120150Y-122111633D01*
X160099318Y-122112867D01*
X160079345Y-122114612D01*
X160060221Y-122116879D01*
X160041934Y-122119676D01*
X160024475Y-122123016D01*
X160007831Y-122126906D01*
X159991993Y-122131358D01*
X159976949Y-122136382D01*
X159962690Y-122141988D01*
X159949204Y-122148185D01*
X159936480Y-122154984D01*
X159924508Y-122162396D01*
X159913277Y-122170429D01*
X159902776Y-122179095D01*
X159892995Y-122188403D01*
X159883923Y-122198363D01*
X159875548Y-122208986D01*
X159867862Y-122220281D01*
X159860851Y-122232259D01*
X159854507Y-122244929D01*
X159848818Y-122258303D01*
X159843773Y-122272389D01*
X159839362Y-122287199D01*
X159835574Y-122302741D01*
X159832398Y-122319027D01*
X159829824Y-122336066D01*
X159827840Y-122353868D01*
X159826437Y-122372444D01*
X159825602Y-122391803D01*
X159825327Y-122411956D01*
X159825327Y-122575794D01*
X159613128Y-122575794D01*
X159613128Y-122380009D01*
X159613747Y-122351577D01*
X159615591Y-122323669D01*
X159618646Y-122296310D01*
X159622897Y-122269526D01*
X159628327Y-122243341D01*
X159634921Y-122217779D01*
X159642665Y-122192866D01*
X159651542Y-122168626D01*
X159661537Y-122145084D01*
X159672634Y-122122265D01*
X159684819Y-122100194D01*
X159698075Y-122078895D01*
X159712387Y-122058394D01*
X159727740Y-122038714D01*
X159744118Y-122019882D01*
X159761506Y-122001921D01*
X159779888Y-121984856D01*
X159799250Y-121968713D01*
X159819574Y-121953516D01*
X159840847Y-121939290D01*
X159863052Y-121926059D01*
X159886174Y-121913849D01*
X159910198Y-121902684D01*
X159935108Y-121892589D01*
X159960888Y-121883588D01*
X159987524Y-121875708D01*
X160015000Y-121868971D01*
X160043300Y-121863404D01*
X160072408Y-121859031D01*
X160102311Y-121855877D01*
X160132991Y-121853966D01*
X160164433Y-121853324D01*
X160195890Y-121853901D01*
G37*
G36*
X160382200Y-121578111D02*
G01*
X160402325Y-121576320D01*
X160421556Y-121573165D01*
X160439837Y-121568679D01*
X160457113Y-121562893D01*
X160473327Y-121555837D01*
X160488424Y-121547544D01*
X160502348Y-121538044D01*
X160515044Y-121527369D01*
X160526455Y-121515551D01*
X160536526Y-121502620D01*
X160545200Y-121488608D01*
X160552422Y-121473546D01*
X160558137Y-121457466D01*
X160562288Y-121440398D01*
X160564819Y-121422376D01*
X160565676Y-121403428D01*
X160565305Y-121390768D01*
X160564197Y-121378426D01*
X160562354Y-121366443D01*
X160559782Y-121354862D01*
X160554562Y-121338338D01*
X160547720Y-121322959D01*
X160539270Y-121308867D01*
X160529225Y-121296207D01*
X160517598Y-121285121D01*
X160504401Y-121275753D01*
X160489648Y-121268246D01*
X160473352Y-121262744D01*
X160473352Y-121017720D01*
X160490438Y-121023110D01*
X160507019Y-121028998D01*
X160523091Y-121035375D01*
X160538653Y-121042231D01*
X160553703Y-121049559D01*
X160568237Y-121057350D01*
X160582253Y-121065594D01*
X160595749Y-121074282D01*
X160608723Y-121083406D01*
X160621172Y-121092957D01*
X160633094Y-121102927D01*
X160644486Y-121113305D01*
X160655345Y-121124084D01*
X160665670Y-121135254D01*
X160675459Y-121146807D01*
X160684707Y-121158734D01*
X160693414Y-121171025D01*
X160701577Y-121183673D01*
X160709193Y-121196668D01*
X160716260Y-121210001D01*
X160722775Y-121223664D01*
X160728737Y-121237647D01*
X160734142Y-121251943D01*
X160738989Y-121266541D01*
X160743274Y-121281433D01*
X160746996Y-121296611D01*
X160750152Y-121312065D01*
X160752739Y-121327786D01*
X160754756Y-121343766D01*
X160756200Y-121359996D01*
X160757068Y-121376467D01*
X160757357Y-121393170D01*
X160756898Y-121418984D01*
X160755523Y-121443998D01*
X160753234Y-121468211D01*
X160750034Y-121491621D01*
X160745925Y-121514228D01*
X160740910Y-121536030D01*
X160734992Y-121557025D01*
X160728172Y-121577213D01*
X160720454Y-121596592D01*
X160711839Y-121615161D01*
X160702331Y-121632918D01*
X160691932Y-121649863D01*
X160680645Y-121665994D01*
X160668471Y-121681309D01*
X160655414Y-121695808D01*
X160641476Y-121709489D01*
X160626660Y-121722351D01*
X160610968Y-121734392D01*
X160594402Y-121745612D01*
X160576966Y-121756008D01*
X160558661Y-121765580D01*
X160539491Y-121774327D01*
X160519457Y-121782247D01*
X160498562Y-121789338D01*
X160476809Y-121795600D01*
X160454201Y-121801031D01*
X160430739Y-121805631D01*
X160406427Y-121809396D01*
X160381266Y-121812328D01*
X160355260Y-121814423D01*
X160328411Y-121815681D01*
X160300721Y-121816101D01*
X160277119Y-121815658D01*
X160254024Y-121814336D01*
X160231452Y-121812143D01*
X160209418Y-121809086D01*
X160187940Y-121805175D01*
X160167032Y-121800417D01*
X160146710Y-121794821D01*
X160126991Y-121788395D01*
X160107890Y-121781147D01*
X160089423Y-121773085D01*
X160071606Y-121764219D01*
X160054455Y-121754555D01*
X160037986Y-121744103D01*
X160022215Y-121732870D01*
X160007157Y-121720865D01*
X159992828Y-121708097D01*
X159979245Y-121694572D01*
X159966423Y-121680301D01*
X159954378Y-121665290D01*
X159943126Y-121649548D01*
X159932683Y-121633084D01*
X159923065Y-121615906D01*
X159914288Y-121598021D01*
X159906366Y-121579439D01*
X159899318Y-121560167D01*
X159893157Y-121540214D01*
X159887901Y-121519588D01*
X159883565Y-121498297D01*
X159880165Y-121476350D01*
X159877716Y-121453755D01*
X159876235Y-121430519D01*
X159875878Y-121413393D01*
X160067713Y-121413393D01*
X160068415Y-121428901D01*
X160070498Y-121443948D01*
X160073928Y-121458471D01*
X160078672Y-121472410D01*
X160084695Y-121485701D01*
X160091964Y-121498283D01*
X160100444Y-121510092D01*
X160110102Y-121521068D01*
X160120903Y-121531147D01*
X160132814Y-121540267D01*
X160145802Y-121548366D01*
X160159831Y-121555382D01*
X160174868Y-121561253D01*
X160190880Y-121565916D01*
X160207831Y-121569309D01*
X160225690Y-121571370D01*
X160225690Y-121253365D01*
X160206624Y-121254786D01*
X160188776Y-121257777D01*
X160172147Y-121262248D01*
X160156740Y-121268107D01*
X160142555Y-121275263D01*
X160129594Y-121283623D01*
X160117860Y-121293097D01*
X160107354Y-121303594D01*
X160098077Y-121315021D01*
X160090032Y-121327288D01*
X160083219Y-121340303D01*
X160077642Y-121353974D01*
X160073301Y-121368210D01*
X160070198Y-121382919D01*
X160068335Y-121398011D01*
X160067713Y-121413393D01*
X159875878Y-121413393D01*
X159875738Y-121406652D01*
X159876239Y-121382820D01*
X159877739Y-121359685D01*
X159880239Y-121337252D01*
X159883736Y-121315524D01*
X159888230Y-121294505D01*
X159893719Y-121274200D01*
X159900203Y-121254611D01*
X159907681Y-121235743D01*
X159916150Y-121217600D01*
X159925611Y-121200186D01*
X159936061Y-121183504D01*
X159947501Y-121167558D01*
X159959928Y-121152353D01*
X159973341Y-121137891D01*
X159987740Y-121124178D01*
X160003123Y-121111216D01*
X160019490Y-121099010D01*
X160036838Y-121087563D01*
X160055167Y-121076880D01*
X160074477Y-121066964D01*
X160094765Y-121057819D01*
X160116030Y-121049449D01*
X160138272Y-121041858D01*
X160161489Y-121035049D01*
X160185680Y-121029027D01*
X160210844Y-121023795D01*
X160236980Y-121019358D01*
X160264087Y-121015719D01*
X160292164Y-121012881D01*
X160321209Y-121010850D01*
X160351222Y-121009628D01*
X160382200Y-121009220D01*
X160382200Y-121578111D01*
G37*
G36*
X160165313Y-120226666D02*
G01*
X160147746Y-120228143D01*
X160130714Y-120230214D01*
X160114217Y-120232885D01*
X160098257Y-120236160D01*
X160082836Y-120240045D01*
X160067955Y-120244546D01*
X160053615Y-120249666D01*
X160039819Y-120255412D01*
X160026568Y-120261789D01*
X160013863Y-120268801D01*
X160001706Y-120276455D01*
X159990098Y-120284755D01*
X159979042Y-120293706D01*
X159968538Y-120303315D01*
X159958588Y-120313585D01*
X159949194Y-120324522D01*
X159940358Y-120336132D01*
X159932080Y-120348419D01*
X159924362Y-120361389D01*
X159917207Y-120375047D01*
X159910615Y-120389398D01*
X159904588Y-120404447D01*
X159899127Y-120420200D01*
X159894235Y-120436662D01*
X159889913Y-120453837D01*
X159886162Y-120471732D01*
X159882983Y-120490351D01*
X159880379Y-120509700D01*
X159878351Y-120529784D01*
X159876901Y-120550608D01*
X159876029Y-120572177D01*
X159875738Y-120594496D01*
X159876064Y-120618059D01*
X159877030Y-120640723D01*
X159878623Y-120662498D01*
X159880826Y-120683394D01*
X159883626Y-120703422D01*
X159887006Y-120722590D01*
X159890952Y-120740909D01*
X159895449Y-120758389D01*
X159900481Y-120775039D01*
X159906035Y-120790870D01*
X159912094Y-120805891D01*
X159918644Y-120820112D01*
X159925670Y-120833543D01*
X159933156Y-120846194D01*
X159941088Y-120858075D01*
X159949451Y-120869196D01*
X159958229Y-120879566D01*
X159967408Y-120889195D01*
X159976972Y-120898094D01*
X159986907Y-120906272D01*
X159997197Y-120913739D01*
X160007828Y-120920505D01*
X160018784Y-120926579D01*
X160030051Y-120931972D01*
X160041613Y-120936694D01*
X160053455Y-120940754D01*
X160065563Y-120944163D01*
X160077921Y-120946929D01*
X160090514Y-120949064D01*
X160103328Y-120950576D01*
X160116347Y-120951476D01*
X160129556Y-120951774D01*
X160143481Y-120951429D01*
X160157218Y-120950372D01*
X160170753Y-120948571D01*
X160184071Y-120945995D01*
X160197154Y-120942612D01*
X160209989Y-120938389D01*
X160222559Y-120933297D01*
X160234849Y-120927301D01*
X160246843Y-120920372D01*
X160258527Y-120912476D01*
X160269885Y-120903583D01*
X160280901Y-120893660D01*
X160291559Y-120882676D01*
X160301845Y-120870598D01*
X160311743Y-120857396D01*
X160321237Y-120843037D01*
X160328064Y-120831593D01*
X160334608Y-120819641D01*
X160340904Y-120807120D01*
X160346984Y-120793968D01*
X160352881Y-120780123D01*
X160358631Y-120765526D01*
X160364265Y-120750113D01*
X160369817Y-120733824D01*
X160375322Y-120716598D01*
X160380812Y-120698372D01*
X160386320Y-120679086D01*
X160391882Y-120658678D01*
X160397529Y-120637087D01*
X160403295Y-120614252D01*
X160406233Y-120602348D01*
X160409214Y-120590110D01*
X160412242Y-120577530D01*
X160415320Y-120564601D01*
X160418405Y-120551600D01*
X160421542Y-120539015D01*
X160424778Y-120526903D01*
X160428165Y-120515325D01*
X160433639Y-120499082D01*
X160439733Y-120484366D01*
X160446620Y-120471374D01*
X160454466Y-120460301D01*
X160463443Y-120451346D01*
X160473720Y-120444706D01*
X160485466Y-120440578D01*
X160498851Y-120439157D01*
X160513373Y-120440727D01*
X160526154Y-120445284D01*
X160537264Y-120452601D01*
X160546769Y-120462450D01*
X160554739Y-120474604D01*
X160561241Y-120488835D01*
X160566343Y-120504916D01*
X160569000Y-120516552D01*
X160571086Y-120528842D01*
X160572620Y-120541718D01*
X160573623Y-120555113D01*
X160574115Y-120568960D01*
X160574175Y-120576031D01*
X160573694Y-120594805D01*
X160572252Y-120612532D01*
X160569849Y-120629190D01*
X160566486Y-120644757D01*
X160562163Y-120659208D01*
X160556880Y-120672523D01*
X160550638Y-120684677D01*
X160543437Y-120695649D01*
X160535278Y-120705415D01*
X160526161Y-120713953D01*
X160516087Y-120721240D01*
X160505056Y-120727253D01*
X160493068Y-120731969D01*
X160480124Y-120735366D01*
X160466225Y-120737421D01*
X160451370Y-120738111D01*
X160451370Y-120982256D01*
X160468236Y-120981481D01*
X160484752Y-120979873D01*
X160500908Y-120977440D01*
X160516690Y-120974186D01*
X160532087Y-120970118D01*
X160547086Y-120965242D01*
X160561675Y-120959564D01*
X160575842Y-120953089D01*
X160589575Y-120945823D01*
X160602860Y-120937774D01*
X160615687Y-120928946D01*
X160628042Y-120919345D01*
X160639914Y-120908978D01*
X160651291Y-120897850D01*
X160662159Y-120885967D01*
X160672507Y-120873336D01*
X160682323Y-120859962D01*
X160691595Y-120845851D01*
X160700309Y-120831009D01*
X160708455Y-120815443D01*
X160716019Y-120799157D01*
X160722989Y-120782159D01*
X160729354Y-120764454D01*
X160735101Y-120746047D01*
X160740217Y-120726946D01*
X160744691Y-120707155D01*
X160748510Y-120686681D01*
X160751663Y-120665530D01*
X160754136Y-120643708D01*
X160755917Y-120621220D01*
X160756995Y-120598073D01*
X160757357Y-120574273D01*
X160757044Y-120552245D01*
X160756110Y-120530844D01*
X160754561Y-120510074D01*
X160752405Y-120489941D01*
X160749648Y-120470448D01*
X160746299Y-120451600D01*
X160742363Y-120433403D01*
X160737848Y-120415861D01*
X160732762Y-120398979D01*
X160727111Y-120382762D01*
X160720902Y-120367214D01*
X160714142Y-120352340D01*
X160706839Y-120338145D01*
X160699000Y-120324634D01*
X160690631Y-120311812D01*
X160681740Y-120299683D01*
X160672333Y-120288252D01*
X160662419Y-120277523D01*
X160652003Y-120267503D01*
X160641094Y-120258195D01*
X160629698Y-120249604D01*
X160617822Y-120241735D01*
X160605473Y-120234593D01*
X160592658Y-120228182D01*
X160579385Y-120222508D01*
X160565661Y-120217574D01*
X160551492Y-120213387D01*
X160536886Y-120209950D01*
X160521850Y-120207269D01*
X160506391Y-120205348D01*
X160490515Y-120204192D01*
X160474231Y-120203805D01*
X160454297Y-120204416D01*
X160435470Y-120206234D01*
X160417714Y-120209236D01*
X160400995Y-120213399D01*
X160385279Y-120218701D01*
X160370532Y-120225119D01*
X160356719Y-120232630D01*
X160343805Y-120241211D01*
X160331758Y-120250840D01*
X160320541Y-120261493D01*
X160310122Y-120273149D01*
X160300464Y-120285784D01*
X160291535Y-120299375D01*
X160283300Y-120313900D01*
X160275725Y-120329337D01*
X160268774Y-120345661D01*
X160264178Y-120358090D01*
X160259718Y-120371066D01*
X160255373Y-120384560D01*
X160251120Y-120398541D01*
X160246937Y-120412982D01*
X160242803Y-120427851D01*
X160238695Y-120443120D01*
X160234592Y-120458758D01*
X160230472Y-120474736D01*
X160226313Y-120491025D01*
X160222093Y-120507594D01*
X160217790Y-120524415D01*
X160213382Y-120541457D01*
X160208848Y-120558691D01*
X160204165Y-120576088D01*
X160199311Y-120593617D01*
X160194776Y-120609635D01*
X160190373Y-120624508D01*
X160186052Y-120638251D01*
X160181767Y-120650879D01*
X160177470Y-120662409D01*
X160170898Y-120677676D01*
X160164030Y-120690557D01*
X160156707Y-120701104D01*
X160145955Y-120711626D01*
X160133726Y-120718216D01*
X160119638Y-120720997D01*
X160115780Y-120721111D01*
X160101337Y-120719266D01*
X160089155Y-120713715D01*
X160079129Y-120704434D01*
X160071157Y-120691399D01*
X160066464Y-120679145D01*
X160062825Y-120664755D01*
X160060196Y-120648220D01*
X160058984Y-120635999D01*
X160058188Y-120622818D01*
X160057796Y-120608672D01*
X160057748Y-120601237D01*
X160058045Y-120583839D01*
X160058971Y-120567773D01*
X160060577Y-120552988D01*
X160062914Y-120539436D01*
X160066034Y-120527067D01*
X160069989Y-120515832D01*
X160077599Y-120500998D01*
X160087377Y-120488437D01*
X160099497Y-120477983D01*
X160114132Y-120469470D01*
X160125372Y-120464789D01*
X160137858Y-120460848D01*
X160151643Y-120457596D01*
X160166778Y-120454984D01*
X160165313Y-120226666D01*
G37*
G36*
X160738600Y-119918627D02*
G01*
X159894496Y-119918627D01*
X159894496Y-120155738D01*
X160738600Y-120155738D01*
X160738600Y-119918627D01*
G37*
G36*
X159816534Y-119918627D02*
G01*
X159594371Y-119918627D01*
X159594371Y-120155738D01*
X159816534Y-120155738D01*
X159816534Y-119918627D01*
G37*
G36*
X160755236Y-119025537D02*
G01*
X160778765Y-119027155D01*
X160801564Y-119029820D01*
X160823630Y-119033507D01*
X160844960Y-119038189D01*
X160865552Y-119043840D01*
X160885402Y-119050434D01*
X160904508Y-119057946D01*
X160922866Y-119066349D01*
X160940475Y-119075617D01*
X160957331Y-119085724D01*
X160973432Y-119096645D01*
X160988775Y-119108354D01*
X161003356Y-119120823D01*
X161017174Y-119134029D01*
X161030225Y-119147943D01*
X161042507Y-119162541D01*
X161054017Y-119177797D01*
X161064752Y-119193684D01*
X161074709Y-119210177D01*
X161083885Y-119227249D01*
X161092279Y-119244876D01*
X161099886Y-119263029D01*
X161106704Y-119281685D01*
X161112731Y-119300816D01*
X161117963Y-119320396D01*
X161122397Y-119340401D01*
X161126032Y-119360803D01*
X161128864Y-119381577D01*
X161130890Y-119402697D01*
X161132108Y-119424137D01*
X161132514Y-119445871D01*
X161132114Y-119467597D01*
X161130917Y-119488964D01*
X161128930Y-119509949D01*
X161126161Y-119530531D01*
X161122618Y-119550688D01*
X161118306Y-119570399D01*
X161113235Y-119589642D01*
X161107409Y-119608394D01*
X161100838Y-119626636D01*
X161093527Y-119644345D01*
X161085485Y-119661499D01*
X161076718Y-119678076D01*
X161067234Y-119694056D01*
X161057039Y-119709417D01*
X161046142Y-119724136D01*
X161034549Y-119738193D01*
X161022267Y-119751565D01*
X161009303Y-119764231D01*
X160995665Y-119776170D01*
X160981360Y-119787359D01*
X160966396Y-119797778D01*
X160950778Y-119807404D01*
X160934515Y-119816216D01*
X160917614Y-119824192D01*
X160900082Y-119831311D01*
X160881926Y-119837551D01*
X160863153Y-119842890D01*
X160843770Y-119847307D01*
X160823785Y-119850780D01*
X160803205Y-119853287D01*
X160782037Y-119854808D01*
X160760288Y-119855319D01*
X160760288Y-119633156D01*
X160780064Y-119632386D01*
X160798611Y-119630103D01*
X160815921Y-119626346D01*
X160831990Y-119621153D01*
X160846811Y-119614564D01*
X160860376Y-119606618D01*
X160872680Y-119597354D01*
X160883716Y-119586811D01*
X160893478Y-119575028D01*
X160901960Y-119562044D01*
X160909154Y-119547899D01*
X160915054Y-119532630D01*
X160919655Y-119516278D01*
X160922949Y-119498882D01*
X160924930Y-119480480D01*
X160925592Y-119461111D01*
X160924808Y-119440329D01*
X160922481Y-119420247D01*
X160918648Y-119400953D01*
X160913346Y-119382535D01*
X160906612Y-119365083D01*
X160898482Y-119348685D01*
X160888994Y-119333428D01*
X160878184Y-119319402D01*
X160866090Y-119306694D01*
X160852748Y-119295395D01*
X160838196Y-119285590D01*
X160822469Y-119277371D01*
X160805606Y-119270823D01*
X160787643Y-119266037D01*
X160768617Y-119263101D01*
X160748565Y-119262102D01*
X160659465Y-119262102D01*
X160665763Y-119265562D01*
X160675611Y-119274096D01*
X160685678Y-119286356D01*
X160692365Y-119296438D01*
X160698929Y-119307935D01*
X160705284Y-119320750D01*
X160711342Y-119334789D01*
X160717015Y-119349954D01*
X160722216Y-119366150D01*
X160726857Y-119383280D01*
X160730851Y-119401248D01*
X160734110Y-119419957D01*
X160736546Y-119439313D01*
X160738071Y-119459218D01*
X160738600Y-119479576D01*
X160737978Y-119505152D01*
X160736138Y-119529681D01*
X160733120Y-119553180D01*
X160728963Y-119575663D01*
X160723707Y-119597147D01*
X160717390Y-119617646D01*
X160710053Y-119637176D01*
X160701734Y-119655752D01*
X160692474Y-119673389D01*
X160682310Y-119690103D01*
X160671284Y-119705910D01*
X160659434Y-119720824D01*
X160646799Y-119734860D01*
X160633420Y-119748035D01*
X160619335Y-119760364D01*
X160604583Y-119771862D01*
X160589205Y-119782543D01*
X160573240Y-119792425D01*
X160556726Y-119801521D01*
X160539704Y-119809848D01*
X160522212Y-119817420D01*
X160504291Y-119824254D01*
X160485979Y-119830363D01*
X160467316Y-119835765D01*
X160448341Y-119840473D01*
X160429094Y-119844504D01*
X160409614Y-119847873D01*
X160389941Y-119850594D01*
X160370113Y-119852685D01*
X160350171Y-119854159D01*
X160330153Y-119855032D01*
X160310100Y-119855319D01*
X160286368Y-119854835D01*
X160263104Y-119853397D01*
X160240328Y-119851029D01*
X160218058Y-119847755D01*
X160196312Y-119843599D01*
X160175110Y-119838584D01*
X160154469Y-119832735D01*
X160134410Y-119826074D01*
X160114950Y-119818626D01*
X160096107Y-119810415D01*
X160077902Y-119801463D01*
X160060352Y-119791795D01*
X160043475Y-119781435D01*
X160027292Y-119770406D01*
X160011820Y-119758732D01*
X159997078Y-119746436D01*
X159983085Y-119733543D01*
X159969859Y-119720076D01*
X159957420Y-119706058D01*
X159945785Y-119691514D01*
X159934974Y-119676468D01*
X159925004Y-119660942D01*
X159915896Y-119644962D01*
X159907667Y-119628549D01*
X159900336Y-119611729D01*
X159893922Y-119594524D01*
X159888444Y-119576959D01*
X159883920Y-119559058D01*
X159880368Y-119540843D01*
X159877809Y-119522339D01*
X159876259Y-119503570D01*
X159875738Y-119484559D01*
X159876233Y-119464927D01*
X159877686Y-119445945D01*
X159879403Y-119432682D01*
X160081489Y-119432682D01*
X160082368Y-119454086D01*
X160085020Y-119474116D01*
X160089466Y-119492771D01*
X160095726Y-119510049D01*
X160103823Y-119525949D01*
X160113776Y-119540472D01*
X160125607Y-119553615D01*
X160139337Y-119565379D01*
X160154988Y-119575762D01*
X160172579Y-119584763D01*
X160192132Y-119592382D01*
X160213668Y-119598617D01*
X160225187Y-119601216D01*
X160237209Y-119603468D01*
X160249737Y-119605375D01*
X160262774Y-119606935D01*
X160276323Y-119608148D01*
X160290386Y-119609015D01*
X160304966Y-119609535D01*
X160320065Y-119609709D01*
X160333202Y-119609493D01*
X160346010Y-119608851D01*
X160358483Y-119607791D01*
X160370616Y-119606322D01*
X160393839Y-119602188D01*
X160415631Y-119596515D01*
X160435946Y-119589371D01*
X160454738Y-119580822D01*
X160471960Y-119570933D01*
X160487567Y-119559773D01*
X160501511Y-119547408D01*
X160513746Y-119533903D01*
X160524226Y-119519326D01*
X160532904Y-119503742D01*
X160539735Y-119487220D01*
X160544671Y-119469825D01*
X160547667Y-119451623D01*
X160548676Y-119432682D01*
X160548438Y-119423199D01*
X160546545Y-119404739D01*
X160542801Y-119387010D01*
X160537250Y-119370085D01*
X160529936Y-119354034D01*
X160520903Y-119338929D01*
X160510194Y-119324842D01*
X160497853Y-119311842D01*
X160483923Y-119300003D01*
X160468450Y-119289394D01*
X160451476Y-119280087D01*
X160433045Y-119272154D01*
X160413202Y-119265665D01*
X160391989Y-119260693D01*
X160369451Y-119257307D01*
X160357698Y-119256232D01*
X160345631Y-119255580D01*
X160333254Y-119255361D01*
X160317240Y-119255530D01*
X160301785Y-119256036D01*
X160286884Y-119256880D01*
X160272535Y-119258064D01*
X160258735Y-119259588D01*
X160245480Y-119261453D01*
X160232767Y-119263660D01*
X160220592Y-119266210D01*
X160197846Y-119272343D01*
X160177216Y-119279859D01*
X160158674Y-119288765D01*
X160142195Y-119299069D01*
X160127753Y-119310777D01*
X160115322Y-119323897D01*
X160104875Y-119338437D01*
X160096386Y-119354403D01*
X160089829Y-119371804D01*
X160085178Y-119390645D01*
X160082407Y-119410935D01*
X160081489Y-119432682D01*
X159879403Y-119432682D01*
X159880056Y-119427636D01*
X159883299Y-119410027D01*
X159887372Y-119393140D01*
X159892230Y-119377000D01*
X159897831Y-119361633D01*
X159904132Y-119347062D01*
X159911088Y-119333312D01*
X159918657Y-119320408D01*
X159926796Y-119308373D01*
X159935460Y-119297232D01*
X159944607Y-119287010D01*
X159954194Y-119277732D01*
X159964176Y-119269421D01*
X159974510Y-119262102D01*
X159894496Y-119262102D01*
X159894496Y-119024991D01*
X160730979Y-119024991D01*
X160755236Y-119025537D01*
G37*
G36*
X160738600Y-118180595D02*
G01*
X160160330Y-118180595D01*
X160143345Y-118180949D01*
X160126850Y-118182000D01*
X160110847Y-118183735D01*
X160095340Y-118186137D01*
X160080332Y-118189192D01*
X160065826Y-118192884D01*
X160051826Y-118197200D01*
X160038335Y-118202124D01*
X160025357Y-118207640D01*
X160012893Y-118213734D01*
X160000949Y-118220391D01*
X159989526Y-118227597D01*
X159978629Y-118235335D01*
X159968260Y-118243591D01*
X159958423Y-118252351D01*
X159949121Y-118261598D01*
X159940358Y-118271319D01*
X159932136Y-118281498D01*
X159924459Y-118292119D01*
X159917330Y-118303170D01*
X159910753Y-118314633D01*
X159904731Y-118326495D01*
X159899266Y-118338740D01*
X159894363Y-118351353D01*
X159890025Y-118364319D01*
X159886254Y-118377624D01*
X159883055Y-118391253D01*
X159880430Y-118405189D01*
X159878382Y-118419420D01*
X159876916Y-118433928D01*
X159876033Y-118448701D01*
X159875738Y-118463721D01*
X159875892Y-118476278D01*
X159876349Y-118488559D01*
X159877101Y-118500562D01*
X159878140Y-118512286D01*
X159881046Y-118534892D01*
X159885003Y-118556366D01*
X159889948Y-118576695D01*
X159895816Y-118595870D01*
X159902543Y-118613879D01*
X159910067Y-118630710D01*
X159918322Y-118646353D01*
X159927244Y-118660797D01*
X159936770Y-118674029D01*
X159946836Y-118686040D01*
X159957377Y-118696818D01*
X159968331Y-118706352D01*
X159979632Y-118714630D01*
X159991216Y-118721642D01*
X159894496Y-118721642D01*
X159894496Y-118948495D01*
X160738600Y-118948495D01*
X160738600Y-118711384D01*
X160256464Y-118711384D01*
X160234302Y-118710791D01*
X160213641Y-118709003D01*
X160194472Y-118706007D01*
X160176784Y-118701789D01*
X160160569Y-118696337D01*
X160145815Y-118689637D01*
X160132513Y-118681675D01*
X160120653Y-118672439D01*
X160110225Y-118661915D01*
X160101220Y-118650089D01*
X160093627Y-118636949D01*
X160087437Y-118622481D01*
X160082640Y-118606671D01*
X160079226Y-118589507D01*
X160077184Y-118570976D01*
X160076506Y-118551063D01*
X160076872Y-118533066D01*
X160078031Y-118516629D01*
X160080076Y-118501696D01*
X160083101Y-118488213D01*
X160087196Y-118476124D01*
X160092457Y-118465375D01*
X160102733Y-118451642D01*
X160116151Y-118440614D01*
X160126996Y-118434673D01*
X160139469Y-118429797D01*
X160153662Y-118425931D01*
X160169670Y-118423019D01*
X160187583Y-118421008D01*
X160207496Y-118419841D01*
X160229500Y-118419465D01*
X160738600Y-118419465D01*
X160738600Y-118180595D01*
G37*
G36*
X160382200Y-117885159D02*
G01*
X160402325Y-117883368D01*
X160421556Y-117880214D01*
X160439837Y-117875728D01*
X160457113Y-117869941D01*
X160473327Y-117862885D01*
X160488424Y-117854592D01*
X160502348Y-117845092D01*
X160515044Y-117834417D01*
X160526455Y-117822599D01*
X160536526Y-117809668D01*
X160545200Y-117795656D01*
X160552422Y-117780594D01*
X160558137Y-117764514D01*
X160562288Y-117747447D01*
X160564819Y-117729424D01*
X160565676Y-117710476D01*
X160565305Y-117697816D01*
X160564197Y-117685474D01*
X160562354Y-117673491D01*
X160559782Y-117661910D01*
X160554562Y-117645387D01*
X160547720Y-117630007D01*
X160539270Y-117615915D01*
X160529225Y-117603255D01*
X160517598Y-117592169D01*
X160504401Y-117582801D01*
X160489648Y-117575294D01*
X160473352Y-117569793D01*
X160473352Y-117324768D01*
X160490438Y-117330158D01*
X160507019Y-117336046D01*
X160523091Y-117342423D01*
X160538653Y-117349280D01*
X160553703Y-117356608D01*
X160568237Y-117364398D01*
X160582253Y-117372642D01*
X160595749Y-117381330D01*
X160608723Y-117390454D01*
X160621172Y-117400006D01*
X160633094Y-117409975D01*
X160644486Y-117420353D01*
X160655345Y-117431132D01*
X160665670Y-117442302D01*
X160675459Y-117453855D01*
X160684707Y-117465782D01*
X160693414Y-117478073D01*
X160701577Y-117490721D01*
X160709193Y-117503716D01*
X160716260Y-117517049D01*
X160722775Y-117530712D01*
X160728737Y-117544695D01*
X160734142Y-117558991D01*
X160738989Y-117573589D01*
X160743274Y-117588481D01*
X160746996Y-117603659D01*
X160750152Y-117619113D01*
X160752739Y-117634834D01*
X160754756Y-117650814D01*
X160756200Y-117667044D01*
X160757068Y-117683515D01*
X160757357Y-117700218D01*
X160756898Y-117726032D01*
X160755523Y-117751046D01*
X160753234Y-117775259D01*
X160750034Y-117798669D01*
X160745925Y-117821276D01*
X160740910Y-117843078D01*
X160734992Y-117864073D01*
X160728172Y-117884261D01*
X160720454Y-117903640D01*
X160711839Y-117922209D01*
X160702331Y-117939967D01*
X160691932Y-117956911D01*
X160680645Y-117973042D01*
X160668471Y-117988357D01*
X160655414Y-118002856D01*
X160641476Y-118016537D01*
X160626660Y-118029399D01*
X160610968Y-118041440D01*
X160594402Y-118052660D01*
X160576966Y-118063056D01*
X160558661Y-118072628D01*
X160539491Y-118081375D01*
X160519457Y-118089295D01*
X160498562Y-118096386D01*
X160476809Y-118102648D01*
X160454201Y-118108080D01*
X160430739Y-118112679D01*
X160406427Y-118116445D01*
X160381266Y-118119376D01*
X160355260Y-118121471D01*
X160328411Y-118122729D01*
X160300721Y-118123149D01*
X160277119Y-118122707D01*
X160254024Y-118121384D01*
X160231452Y-118119191D01*
X160209418Y-118116134D01*
X160187940Y-118112223D01*
X160167032Y-118107465D01*
X160146710Y-118101869D01*
X160126991Y-118095443D01*
X160107890Y-118088195D01*
X160089423Y-118080134D01*
X160071606Y-118071267D01*
X160054455Y-118061603D01*
X160037986Y-118051151D01*
X160022215Y-118039918D01*
X160007157Y-118027914D01*
X159992828Y-118015145D01*
X159979245Y-118001621D01*
X159966423Y-117987349D01*
X159954378Y-117972338D01*
X159943126Y-117956596D01*
X159932683Y-117940132D01*
X159923065Y-117922954D01*
X159914288Y-117905069D01*
X159906366Y-117886487D01*
X159899318Y-117867215D01*
X159893157Y-117847262D01*
X159887901Y-117826636D01*
X159883565Y-117805345D01*
X159880165Y-117783398D01*
X159877716Y-117760803D01*
X159876235Y-117737567D01*
X159875878Y-117720442D01*
X160067713Y-117720442D01*
X160068415Y-117735949D01*
X160070498Y-117750996D01*
X160073928Y-117765520D01*
X160078672Y-117779458D01*
X160084695Y-117792749D01*
X160091964Y-117805331D01*
X160100444Y-117817141D01*
X160110102Y-117828116D01*
X160120903Y-117838195D01*
X160132814Y-117847315D01*
X160145802Y-117855414D01*
X160159831Y-117862431D01*
X160174868Y-117868301D01*
X160190880Y-117872964D01*
X160207831Y-117876357D01*
X160225690Y-117878418D01*
X160225690Y-117560414D01*
X160206624Y-117561834D01*
X160188776Y-117564825D01*
X160172147Y-117569296D01*
X160156740Y-117575155D01*
X160142555Y-117582311D01*
X160129594Y-117590671D01*
X160117860Y-117600146D01*
X160107354Y-117610642D01*
X160098077Y-117622069D01*
X160090032Y-117634336D01*
X160083219Y-117647351D01*
X160077642Y-117661022D01*
X160073301Y-117675258D01*
X160070198Y-117689967D01*
X160068335Y-117705059D01*
X160067713Y-117720442D01*
X159875878Y-117720442D01*
X159875738Y-117713700D01*
X159876239Y-117689868D01*
X159877739Y-117666733D01*
X159880239Y-117644300D01*
X159883736Y-117622572D01*
X159888230Y-117601553D01*
X159893719Y-117581248D01*
X159900203Y-117561659D01*
X159907681Y-117542791D01*
X159916150Y-117524649D01*
X159925611Y-117507234D01*
X159936061Y-117490552D01*
X159947501Y-117474607D01*
X159959928Y-117459401D01*
X159973341Y-117444940D01*
X159987740Y-117431226D01*
X160003123Y-117418264D01*
X160019490Y-117406058D01*
X160036838Y-117394611D01*
X160055167Y-117383928D01*
X160074477Y-117374012D01*
X160094765Y-117364867D01*
X160116030Y-117356497D01*
X160138272Y-117348906D01*
X160161489Y-117342097D01*
X160185680Y-117336075D01*
X160210844Y-117330843D01*
X160236980Y-117326406D01*
X160264087Y-117322767D01*
X160292164Y-117319930D01*
X160321209Y-117317898D01*
X160351222Y-117316677D01*
X160382200Y-117316268D01*
X160382200Y-117885159D01*
G37*
G36*
X160738600Y-116687587D02*
G01*
X160657706Y-116688467D01*
X160668582Y-116695907D01*
X160678986Y-116704359D01*
X160688887Y-116713787D01*
X160698254Y-116724160D01*
X160707053Y-116735442D01*
X160715254Y-116747601D01*
X160722825Y-116760604D01*
X160729733Y-116774416D01*
X160735948Y-116789004D01*
X160741438Y-116804335D01*
X160746170Y-116820375D01*
X160750112Y-116837091D01*
X160753234Y-116854450D01*
X160755504Y-116872417D01*
X160756889Y-116890959D01*
X160757357Y-116910044D01*
X160756860Y-116929793D01*
X160755377Y-116949186D01*
X160752920Y-116968205D01*
X160749499Y-116986832D01*
X160745128Y-117005050D01*
X160739817Y-117022841D01*
X160733578Y-117040187D01*
X160726422Y-117057070D01*
X160718363Y-117073473D01*
X160709410Y-117089378D01*
X160699576Y-117104767D01*
X160688872Y-117119622D01*
X160677310Y-117133925D01*
X160664902Y-117147660D01*
X160651659Y-117160807D01*
X160637593Y-117173350D01*
X160622715Y-117185270D01*
X160607038Y-117196550D01*
X160590573Y-117207171D01*
X160573331Y-117217117D01*
X160555324Y-117226369D01*
X160536564Y-117234910D01*
X160517063Y-117242722D01*
X160496831Y-117249787D01*
X160475881Y-117256087D01*
X160454225Y-117261605D01*
X160431874Y-117266323D01*
X160408839Y-117270223D01*
X160385133Y-117273287D01*
X160360766Y-117275497D01*
X160335751Y-117276837D01*
X160310100Y-117277287D01*
X160286729Y-117276906D01*
X160263780Y-117275766D01*
X160241276Y-117273876D01*
X160219236Y-117271245D01*
X160197681Y-117267879D01*
X160176633Y-117263786D01*
X160156113Y-117258976D01*
X160136141Y-117253455D01*
X160116738Y-117247232D01*
X160097926Y-117240315D01*
X160079724Y-117232710D01*
X160062155Y-117224428D01*
X160045238Y-117215475D01*
X160028996Y-117205859D01*
X160013449Y-117195588D01*
X159998617Y-117184670D01*
X159984522Y-117173114D01*
X159971185Y-117160927D01*
X159958626Y-117148117D01*
X159946867Y-117134691D01*
X159935928Y-117120659D01*
X159925831Y-117106028D01*
X159916596Y-117090805D01*
X159908244Y-117074999D01*
X159900796Y-117058618D01*
X159894274Y-117041670D01*
X159888698Y-117024162D01*
X159884088Y-117006102D01*
X159880466Y-116987499D01*
X159877854Y-116968361D01*
X159876271Y-116948694D01*
X159875738Y-116928509D01*
X159876251Y-116909076D01*
X159877768Y-116890144D01*
X159880253Y-116871740D01*
X159882911Y-116857873D01*
X160081195Y-116857873D01*
X160082111Y-116880167D01*
X160084866Y-116900898D01*
X160089472Y-116920084D01*
X160095942Y-116937741D01*
X160104286Y-116953887D01*
X160114519Y-116968538D01*
X160126650Y-116981713D01*
X160140693Y-116993428D01*
X160156659Y-117003701D01*
X160174561Y-117012548D01*
X160194410Y-117019987D01*
X160216219Y-117026035D01*
X160227862Y-117028542D01*
X160239999Y-117030709D01*
X160252632Y-117032536D01*
X160265763Y-117034026D01*
X160279392Y-117035181D01*
X160293522Y-117036004D01*
X160308154Y-117036496D01*
X160323289Y-117036659D01*
X160336502Y-117036448D01*
X160349429Y-117035817D01*
X160362060Y-117034777D01*
X160374386Y-117033332D01*
X160386400Y-117031492D01*
X160398092Y-117029264D01*
X160420476Y-117023672D01*
X160441469Y-117016617D01*
X160461002Y-117008158D01*
X160479004Y-116998357D01*
X160495407Y-116987273D01*
X160510140Y-116974967D01*
X160523135Y-116961497D01*
X160534321Y-116946925D01*
X160543630Y-116931311D01*
X160550991Y-116914715D01*
X160556334Y-116897196D01*
X160559592Y-116878815D01*
X160560693Y-116859632D01*
X160560430Y-116850335D01*
X160558351Y-116832206D01*
X160554259Y-116814761D01*
X160548222Y-116798073D01*
X160540308Y-116782218D01*
X160530585Y-116767272D01*
X160519122Y-116753308D01*
X160505987Y-116740404D01*
X160491249Y-116728633D01*
X160474974Y-116718071D01*
X160457233Y-116708793D01*
X160438092Y-116700874D01*
X160417621Y-116694389D01*
X160395887Y-116689413D01*
X160372960Y-116686022D01*
X160361069Y-116684944D01*
X160348906Y-116684290D01*
X160336478Y-116684070D01*
X160320428Y-116684239D01*
X160304921Y-116684747D01*
X160289954Y-116685593D01*
X160275524Y-116686778D01*
X160261631Y-116688301D01*
X160248271Y-116690164D01*
X160235442Y-116692365D01*
X160223143Y-116694905D01*
X160200125Y-116701004D01*
X160179198Y-116708460D01*
X160160346Y-116717274D01*
X160143551Y-116727448D01*
X160128796Y-116738982D01*
X160116064Y-116751876D01*
X160105338Y-116766133D01*
X160096601Y-116781752D01*
X160089835Y-116798735D01*
X160085024Y-116817082D01*
X160082150Y-116836795D01*
X160081195Y-116857873D01*
X159882911Y-116857873D01*
X159883675Y-116853889D01*
X159887998Y-116836619D01*
X159893188Y-116819956D01*
X159899213Y-116803926D01*
X159906037Y-116788557D01*
X159913627Y-116773875D01*
X159921949Y-116759907D01*
X159930969Y-116746678D01*
X159940654Y-116734216D01*
X159950968Y-116722548D01*
X159961879Y-116711700D01*
X159973353Y-116701698D01*
X159985355Y-116692570D01*
X159594371Y-116692570D01*
X159594371Y-116458683D01*
X160738600Y-116458683D01*
X160738600Y-116687587D01*
G37*
G36*
X160334153Y-115159859D02*
G01*
X160359317Y-115161199D01*
X160383824Y-115163409D01*
X160407661Y-115166473D01*
X160430817Y-115170373D01*
X160453282Y-115175091D01*
X160475043Y-115180609D01*
X160496089Y-115186909D01*
X160516410Y-115193974D01*
X160535993Y-115201786D01*
X160554827Y-115210327D01*
X160572902Y-115219579D01*
X160590205Y-115229525D01*
X160606725Y-115240146D01*
X160622452Y-115251426D01*
X160637373Y-115263346D01*
X160651478Y-115275889D01*
X160664755Y-115289036D01*
X160677192Y-115302771D01*
X160688779Y-115317074D01*
X160699504Y-115331929D01*
X160709356Y-115347318D01*
X160718323Y-115363223D01*
X160726395Y-115379626D01*
X160733559Y-115396509D01*
X160739805Y-115413855D01*
X160745121Y-115431646D01*
X160749496Y-115449864D01*
X160752918Y-115468491D01*
X160755377Y-115487510D01*
X160756860Y-115506903D01*
X160757357Y-115526652D01*
X160756889Y-115545733D01*
X160755508Y-115564266D01*
X160753250Y-115582219D01*
X160750149Y-115599559D01*
X160746241Y-115616253D01*
X160741561Y-115632268D01*
X160736145Y-115647573D01*
X160730027Y-115662134D01*
X160723242Y-115675919D01*
X160715827Y-115688894D01*
X160707815Y-115701029D01*
X160699243Y-115712289D01*
X160690145Y-115722643D01*
X160680557Y-115732057D01*
X160670514Y-115740499D01*
X160660051Y-115747936D01*
X160738600Y-115749402D01*
X160738600Y-115977720D01*
X159594371Y-115977720D01*
X159594371Y-115744126D01*
X159985355Y-115744126D01*
X159973353Y-115734995D01*
X159961879Y-115724984D01*
X159950968Y-115714123D01*
X159940654Y-115702438D01*
X159930969Y-115689959D01*
X159921949Y-115676712D01*
X159913627Y-115662726D01*
X159906037Y-115648029D01*
X159899213Y-115632648D01*
X159893188Y-115616611D01*
X159887998Y-115599947D01*
X159883675Y-115582683D01*
X159882934Y-115578823D01*
X160081195Y-115578823D01*
X160081434Y-115589506D01*
X160083346Y-115609853D01*
X160087186Y-115628841D01*
X160092973Y-115646470D01*
X160100722Y-115662740D01*
X160110452Y-115677651D01*
X160122178Y-115691206D01*
X160135919Y-115703402D01*
X160151692Y-115714242D01*
X160169513Y-115723725D01*
X160189401Y-115731853D01*
X160211371Y-115738624D01*
X160223143Y-115741502D01*
X160235442Y-115744041D01*
X160248271Y-115746241D01*
X160261631Y-115748103D01*
X160275524Y-115749626D01*
X160289954Y-115750810D01*
X160304921Y-115751656D01*
X160320428Y-115752163D01*
X160336478Y-115752333D01*
X160348906Y-115752113D01*
X160361069Y-115751459D01*
X160384569Y-115748889D01*
X160406908Y-115744697D01*
X160428019Y-115738960D01*
X160447833Y-115731753D01*
X160466283Y-115723152D01*
X160483299Y-115713231D01*
X160498814Y-115702067D01*
X160512759Y-115689736D01*
X160525067Y-115676312D01*
X160535668Y-115661872D01*
X160544495Y-115646490D01*
X160551479Y-115630243D01*
X160556553Y-115613206D01*
X160559647Y-115595454D01*
X160560693Y-115577064D01*
X160559592Y-115557833D01*
X160556334Y-115539416D01*
X160550991Y-115521873D01*
X160543630Y-115505261D01*
X160534321Y-115489641D01*
X160523135Y-115475070D01*
X160510140Y-115461608D01*
X160495407Y-115449313D01*
X160479004Y-115438244D01*
X160461002Y-115428460D01*
X160441469Y-115420020D01*
X160420476Y-115412983D01*
X160398092Y-115407407D01*
X160386400Y-115405186D01*
X160374386Y-115403352D01*
X160362060Y-115401912D01*
X160349429Y-115400875D01*
X160336502Y-115400248D01*
X160323289Y-115400037D01*
X160308154Y-115400200D01*
X160293522Y-115400692D01*
X160279392Y-115401515D01*
X160265763Y-115402670D01*
X160252632Y-115404160D01*
X160239999Y-115405987D01*
X160227862Y-115408154D01*
X160216219Y-115410661D01*
X160194410Y-115416709D01*
X160174561Y-115424148D01*
X160156659Y-115432995D01*
X160140693Y-115443268D01*
X160126650Y-115454983D01*
X160114519Y-115468158D01*
X160104286Y-115482809D01*
X160095942Y-115498955D01*
X160089472Y-115516612D01*
X160084866Y-115535798D01*
X160082111Y-115556529D01*
X160081195Y-115578823D01*
X159882934Y-115578823D01*
X159880253Y-115564847D01*
X159877768Y-115546467D01*
X159876251Y-115527572D01*
X159875738Y-115508187D01*
X159876271Y-115488002D01*
X159877853Y-115468335D01*
X159880465Y-115449197D01*
X159884085Y-115430594D01*
X159888691Y-115412534D01*
X159894262Y-115395026D01*
X159900778Y-115378078D01*
X159908217Y-115361697D01*
X159916557Y-115345891D01*
X159925777Y-115330668D01*
X159935857Y-115316037D01*
X159946774Y-115302005D01*
X159958508Y-115288579D01*
X159971037Y-115275769D01*
X159984341Y-115263582D01*
X159998397Y-115252026D01*
X160013185Y-115241108D01*
X160028683Y-115230837D01*
X160044870Y-115221221D01*
X160061725Y-115212268D01*
X160079227Y-115203986D01*
X160097354Y-115196381D01*
X160116085Y-115189464D01*
X160135399Y-115183241D01*
X160155274Y-115177720D01*
X160175690Y-115172910D01*
X160196625Y-115168817D01*
X160218058Y-115165451D01*
X160239967Y-115162820D01*
X160262331Y-115160930D01*
X160285130Y-115159790D01*
X160308341Y-115159409D01*
X160334153Y-115159859D01*
G37*
G36*
X160747099Y-114571467D02*
G01*
X160767458Y-114572236D01*
X160786745Y-114574485D01*
X160804929Y-114578129D01*
X160821975Y-114583081D01*
X160837849Y-114589256D01*
X160852519Y-114596568D01*
X160865951Y-114604931D01*
X160878111Y-114614259D01*
X160888966Y-114624466D01*
X160898482Y-114635467D01*
X160906626Y-114647175D01*
X160913364Y-114659505D01*
X160918664Y-114672370D01*
X160922490Y-114685686D01*
X160924811Y-114699366D01*
X160925592Y-114713324D01*
X160924917Y-114733305D01*
X160922898Y-114751928D01*
X160919547Y-114769203D01*
X160914871Y-114785140D01*
X160908882Y-114799748D01*
X160901589Y-114813035D01*
X160893002Y-114825013D01*
X160883130Y-114835689D01*
X160871985Y-114845074D01*
X160859575Y-114853177D01*
X160845910Y-114860008D01*
X160831001Y-114865575D01*
X160814857Y-114869889D01*
X160797489Y-114872959D01*
X160778905Y-114874794D01*
X160759116Y-114875403D01*
X160759116Y-115097273D01*
X160780894Y-115096899D01*
X160802094Y-115095778D01*
X160822710Y-115093912D01*
X160842732Y-115091302D01*
X160862155Y-115087951D01*
X160880970Y-115083859D01*
X160899171Y-115079030D01*
X160916749Y-115073464D01*
X160933697Y-115067164D01*
X160950008Y-115060131D01*
X160965674Y-115052366D01*
X160980688Y-115043873D01*
X160995042Y-115034652D01*
X161008729Y-115024705D01*
X161021742Y-115014034D01*
X161034072Y-115002641D01*
X161045713Y-114990528D01*
X161056657Y-114977696D01*
X161066897Y-114964147D01*
X161076425Y-114949883D01*
X161085233Y-114934906D01*
X161093314Y-114919217D01*
X161100662Y-114902818D01*
X161107267Y-114885712D01*
X161113124Y-114867899D01*
X161118223Y-114849381D01*
X161122559Y-114830161D01*
X161126123Y-114810240D01*
X161128908Y-114789620D01*
X161130907Y-114768302D01*
X161132111Y-114746289D01*
X161132514Y-114723582D01*
X161132102Y-114703538D01*
X161130871Y-114683758D01*
X161128825Y-114664268D01*
X161125972Y-114645092D01*
X161122319Y-114626253D01*
X161117870Y-114607776D01*
X161112632Y-114589687D01*
X161106612Y-114572008D01*
X161099816Y-114554764D01*
X161092250Y-114537980D01*
X161083920Y-114521681D01*
X161074833Y-114505889D01*
X161064994Y-114490631D01*
X161054410Y-114475929D01*
X161043087Y-114461810D01*
X161031031Y-114448296D01*
X161018250Y-114435412D01*
X161004747Y-114423183D01*
X160990531Y-114411633D01*
X160975607Y-114400786D01*
X160959982Y-114390667D01*
X160943661Y-114381300D01*
X160926652Y-114372710D01*
X160908959Y-114364920D01*
X160890590Y-114357956D01*
X160871550Y-114351841D01*
X160851846Y-114346600D01*
X160831484Y-114342257D01*
X160810471Y-114338837D01*
X160788812Y-114336364D01*
X160766513Y-114334862D01*
X160743582Y-114334356D01*
X159894496Y-114334356D01*
X159894496Y-114571467D01*
X160400665Y-114571467D01*
X160416037Y-114572202D01*
X160430793Y-114574374D01*
X160444883Y-114577938D01*
X160458253Y-114582848D01*
X160470852Y-114589057D01*
X160482628Y-114596521D01*
X160493529Y-114605194D01*
X160503504Y-114615028D01*
X160512499Y-114625979D01*
X160520463Y-114638000D01*
X160527345Y-114651045D01*
X160533092Y-114665069D01*
X160537652Y-114680025D01*
X160540974Y-114695868D01*
X160543005Y-114712552D01*
X160543694Y-114730030D01*
X160543156Y-114746078D01*
X160541539Y-114761035D01*
X160538833Y-114774908D01*
X160535029Y-114787705D01*
X160530120Y-114799434D01*
X160524096Y-114810102D01*
X160516948Y-114819718D01*
X160508669Y-114828289D01*
X160499250Y-114835822D01*
X160488682Y-114842326D01*
X160476956Y-114847808D01*
X160464064Y-114852276D01*
X160449998Y-114855738D01*
X160434748Y-114858201D01*
X160418307Y-114859673D01*
X160400665Y-114860162D01*
X159894496Y-114860162D01*
X159894496Y-115097273D01*
X160432026Y-115097273D01*
X160449074Y-115096880D01*
X160465753Y-115095713D01*
X160482052Y-115093788D01*
X160497961Y-115091123D01*
X160513466Y-115087735D01*
X160528558Y-115083641D01*
X160543225Y-115078859D01*
X160557455Y-115073405D01*
X160571238Y-115067296D01*
X160584561Y-115060551D01*
X160597414Y-115053186D01*
X160609785Y-115045218D01*
X160621663Y-115036664D01*
X160633037Y-115027542D01*
X160643895Y-115017868D01*
X160654226Y-115007661D01*
X160664018Y-114996936D01*
X160673261Y-114985712D01*
X160681943Y-114974005D01*
X160690052Y-114961833D01*
X160697578Y-114949213D01*
X160704509Y-114936161D01*
X160710833Y-114922696D01*
X160716540Y-114908834D01*
X160721618Y-114894592D01*
X160726055Y-114879988D01*
X160729841Y-114865039D01*
X160732964Y-114849762D01*
X160735412Y-114834174D01*
X160737175Y-114818293D01*
X160738242Y-114802135D01*
X160738600Y-114785717D01*
X160738075Y-114766216D01*
X160736558Y-114747023D01*
X160734135Y-114728246D01*
X160730892Y-114709994D01*
X160726916Y-114692376D01*
X160722293Y-114675500D01*
X160717110Y-114659476D01*
X160711452Y-114644410D01*
X160705406Y-114630413D01*
X160699058Y-114617593D01*
X160692494Y-114606058D01*
X160685802Y-114595918D01*
X160675709Y-114583558D01*
X160665811Y-114574946D01*
X160659465Y-114571467D01*
X160747099Y-114571467D01*
G37*
G36*
X160738600Y-112754301D02*
G01*
X159613128Y-112754301D01*
X159613128Y-113106890D01*
X160395389Y-113301209D01*
X159613128Y-113495529D01*
X159613128Y-113855152D01*
X160738600Y-113855152D01*
X160738600Y-113619506D01*
X159974510Y-113628885D01*
X160738600Y-113429290D01*
X160738600Y-113183386D01*
X159970993Y-112982033D01*
X160738600Y-112991412D01*
X160738600Y-112754301D01*
G37*
G36*
X160738600Y-112440107D02*
G01*
X159894496Y-112440107D01*
X159894496Y-112677218D01*
X160738600Y-112677218D01*
X160738600Y-112440107D01*
G37*
G36*
X159816534Y-112440107D02*
G01*
X159594371Y-112440107D01*
X159594371Y-112677218D01*
X159816534Y-112677218D01*
X159816534Y-112440107D01*
G37*
G36*
X160398320Y-111891146D02*
G01*
X160416289Y-111891571D01*
X160433152Y-111892856D01*
X160448901Y-111895016D01*
X160463529Y-111898066D01*
X160477028Y-111902021D01*
X160489392Y-111906896D01*
X160500613Y-111912706D01*
X160510684Y-111919466D01*
X160519598Y-111927192D01*
X160530782Y-111940622D01*
X160536770Y-111950826D01*
X160541574Y-111962048D01*
X160545189Y-111974302D01*
X160547606Y-111987604D01*
X160548818Y-112001969D01*
X160548969Y-112009555D01*
X160548346Y-112024679D01*
X160546481Y-112038634D01*
X160543384Y-112051447D01*
X160539064Y-112063145D01*
X160533529Y-112073754D01*
X160522971Y-112087684D01*
X160509732Y-112099315D01*
X160499431Y-112105834D01*
X160487961Y-112111399D01*
X160475331Y-112116034D01*
X160461550Y-112119767D01*
X160446627Y-112122624D01*
X160430571Y-112124631D01*
X160413391Y-112125817D01*
X160395096Y-112126206D01*
X160068006Y-112126206D01*
X160068006Y-111668983D01*
X159894496Y-111668983D01*
X159894496Y-112126206D01*
X159669402Y-112126206D01*
X159669402Y-112359800D01*
X160416785Y-112359800D01*
X160433544Y-112359506D01*
X160450169Y-112358620D01*
X160466636Y-112357132D01*
X160482918Y-112355034D01*
X160498989Y-112352317D01*
X160514822Y-112348973D01*
X160530392Y-112344991D01*
X160545672Y-112340364D01*
X160560636Y-112335082D01*
X160575258Y-112329138D01*
X160589511Y-112322522D01*
X160603370Y-112315224D01*
X160616808Y-112307238D01*
X160629799Y-112298553D01*
X160642317Y-112289161D01*
X160654336Y-112279053D01*
X160665829Y-112268220D01*
X160676770Y-112256654D01*
X160687134Y-112244345D01*
X160696894Y-112231286D01*
X160706023Y-112217466D01*
X160714496Y-112202878D01*
X160722286Y-112187512D01*
X160729367Y-112171360D01*
X160735713Y-112154413D01*
X160741299Y-112136662D01*
X160746096Y-112118098D01*
X160750080Y-112098712D01*
X160753225Y-112078497D01*
X160755503Y-112057442D01*
X160756889Y-112035539D01*
X160757357Y-112012779D01*
X160756885Y-111990803D01*
X160755484Y-111969602D01*
X160753184Y-111949173D01*
X160750011Y-111929509D01*
X160745993Y-111910607D01*
X160741158Y-111892460D01*
X160735532Y-111875063D01*
X160729143Y-111858412D01*
X160722018Y-111842501D01*
X160714186Y-111827325D01*
X160705673Y-111812878D01*
X160696507Y-111799157D01*
X160686715Y-111786155D01*
X160676325Y-111773867D01*
X160665364Y-111762289D01*
X160653859Y-111751415D01*
X160641839Y-111741240D01*
X160629330Y-111731758D01*
X160616359Y-111722966D01*
X160602955Y-111714856D01*
X160589144Y-111707426D01*
X160574955Y-111700668D01*
X160560414Y-111694578D01*
X160545548Y-111689151D01*
X160530387Y-111684382D01*
X160514956Y-111680266D01*
X160499283Y-111676797D01*
X160483395Y-111673970D01*
X160467321Y-111671781D01*
X160451087Y-111670223D01*
X160434721Y-111669292D01*
X160418251Y-111668983D01*
X160175864Y-111668983D01*
X160175864Y-111891146D01*
X160398320Y-111891146D01*
G37*
G36*
X160417957Y-111074007D02*
G01*
X160434961Y-111076263D01*
X160450804Y-111079703D01*
X160465498Y-111084282D01*
X160479049Y-111089953D01*
X160491466Y-111096673D01*
X160502759Y-111104394D01*
X160512936Y-111113072D01*
X160522005Y-111122661D01*
X160529975Y-111133115D01*
X160536854Y-111144389D01*
X160542652Y-111156438D01*
X160547376Y-111169216D01*
X160551035Y-111182678D01*
X160553638Y-111196777D01*
X160555194Y-111211469D01*
X160555710Y-111226708D01*
X160554766Y-111241892D01*
X160551921Y-111256722D01*
X160547156Y-111271111D01*
X160540451Y-111284974D01*
X160531789Y-111298223D01*
X160521151Y-111310773D01*
X160508517Y-111322538D01*
X160493868Y-111333430D01*
X160477186Y-111343364D01*
X160458452Y-111352254D01*
X160437647Y-111360012D01*
X160414752Y-111366554D01*
X160402515Y-111369341D01*
X160389748Y-111371792D01*
X160376449Y-111373895D01*
X160362616Y-111375640D01*
X160348246Y-111377016D01*
X160333337Y-111378013D01*
X160317887Y-111378618D01*
X160301893Y-111378823D01*
X160286057Y-111378621D01*
X160270910Y-111378021D01*
X160256439Y-111377032D01*
X160242632Y-111375663D01*
X160229477Y-111373924D01*
X160216962Y-111371823D01*
X160205074Y-111369369D01*
X160183133Y-111363441D01*
X160163556Y-111356211D01*
X160146245Y-111347751D01*
X160131104Y-111338136D01*
X160118035Y-111327436D01*
X160106939Y-111315726D01*
X160097721Y-111303076D01*
X160090282Y-111289561D01*
X160084525Y-111275252D01*
X160080352Y-111260221D01*
X160077666Y-111244542D01*
X160076370Y-111228288D01*
X160076213Y-111219967D01*
X160076752Y-111205399D01*
X160078366Y-111191392D01*
X160081053Y-111177977D01*
X160084809Y-111165186D01*
X160089631Y-111153052D01*
X160095517Y-111141605D01*
X160102464Y-111130878D01*
X160110468Y-111120902D01*
X160119526Y-111111709D01*
X160129636Y-111103331D01*
X160140795Y-111095800D01*
X160152998Y-111089147D01*
X160166244Y-111083405D01*
X160180530Y-111078604D01*
X160195852Y-111074777D01*
X160212207Y-111071956D01*
X160212207Y-110833672D01*
X160192856Y-110835419D01*
X160173991Y-110837959D01*
X160155620Y-110841278D01*
X160137751Y-110845364D01*
X160120394Y-110850203D01*
X160103556Y-110855783D01*
X160087246Y-110862091D01*
X160071473Y-110869114D01*
X160056245Y-110876838D01*
X160041569Y-110885252D01*
X160027456Y-110894342D01*
X160013912Y-110904095D01*
X160000947Y-110914498D01*
X159988569Y-110925539D01*
X159976786Y-110937204D01*
X159965608Y-110949480D01*
X159955041Y-110962355D01*
X159945095Y-110975815D01*
X159935778Y-110989848D01*
X159927099Y-111004441D01*
X159919065Y-111019581D01*
X159911686Y-111035254D01*
X159904970Y-111051448D01*
X159898925Y-111068150D01*
X159893559Y-111085347D01*
X159888882Y-111103027D01*
X159884901Y-111121175D01*
X159881625Y-111139780D01*
X159879062Y-111158827D01*
X159877221Y-111178306D01*
X159876110Y-111198201D01*
X159875738Y-111218502D01*
X159876133Y-111240343D01*
X159877322Y-111261730D01*
X159879308Y-111282646D01*
X159882098Y-111303075D01*
X159885697Y-111323002D01*
X159890109Y-111342412D01*
X159895339Y-111361288D01*
X159901393Y-111379615D01*
X159908276Y-111397377D01*
X159915992Y-111414560D01*
X159924547Y-111431146D01*
X159933946Y-111447121D01*
X159944193Y-111462470D01*
X159955295Y-111477175D01*
X159967255Y-111491222D01*
X159980079Y-111504595D01*
X159993772Y-111517279D01*
X160008339Y-111529258D01*
X160023785Y-111540516D01*
X160040116Y-111551037D01*
X160057335Y-111560807D01*
X160075449Y-111569809D01*
X160094462Y-111578027D01*
X160114379Y-111585447D01*
X160135205Y-111592053D01*
X160156946Y-111597828D01*
X160179607Y-111602758D01*
X160203191Y-111606826D01*
X160227706Y-111610018D01*
X160253154Y-111612317D01*
X160279543Y-111613708D01*
X160306876Y-111614175D01*
X160334187Y-111613709D01*
X160360670Y-111612322D01*
X160386321Y-111610031D01*
X160411139Y-111606852D01*
X160435121Y-111602802D01*
X160458264Y-111597898D01*
X160480566Y-111592156D01*
X160502024Y-111585594D01*
X160522636Y-111578227D01*
X160542400Y-111570073D01*
X160561312Y-111561149D01*
X160579370Y-111551470D01*
X160596572Y-111541054D01*
X160612915Y-111529917D01*
X160628397Y-111518076D01*
X160643015Y-111505548D01*
X160656767Y-111492349D01*
X160669649Y-111478496D01*
X160681660Y-111464006D01*
X160692798Y-111448896D01*
X160703058Y-111433182D01*
X160712440Y-111416880D01*
X160720940Y-111400008D01*
X160728557Y-111382582D01*
X160735286Y-111364619D01*
X160741127Y-111346136D01*
X160746076Y-111327149D01*
X160750130Y-111307675D01*
X160753288Y-111287731D01*
X160755547Y-111267333D01*
X160756904Y-111246498D01*
X160757357Y-111225243D01*
X160756968Y-111206272D01*
X160755806Y-111187567D01*
X160753884Y-111169143D01*
X160751213Y-111151018D01*
X160747803Y-111133209D01*
X160743667Y-111115734D01*
X160738816Y-111098609D01*
X160733260Y-111081852D01*
X160727011Y-111065481D01*
X160720081Y-111049511D01*
X160712480Y-111033961D01*
X160704220Y-111018848D01*
X160695312Y-111004189D01*
X160685767Y-110990002D01*
X160675598Y-110976303D01*
X160664814Y-110963109D01*
X160653427Y-110950438D01*
X160641449Y-110938308D01*
X160628891Y-110926735D01*
X160615763Y-110915736D01*
X160602078Y-110905330D01*
X160587847Y-110895532D01*
X160573080Y-110886361D01*
X160557790Y-110877833D01*
X160541986Y-110869966D01*
X160525682Y-110862777D01*
X160508887Y-110856283D01*
X160491614Y-110850502D01*
X160473873Y-110845450D01*
X160455676Y-110841145D01*
X160437033Y-110837604D01*
X160417957Y-110834845D01*
X160417957Y-111074007D01*
G37*
G36*
X160738600Y-110023275D02*
G01*
X160148606Y-110023275D01*
X160132996Y-110023634D01*
X160117770Y-110024703D01*
X160102934Y-110026468D01*
X160088496Y-110028915D01*
X160074464Y-110032032D01*
X160060844Y-110035804D01*
X160047645Y-110040218D01*
X160034873Y-110045261D01*
X160022537Y-110050919D01*
X160010642Y-110057180D01*
X159999197Y-110064028D01*
X159988209Y-110071451D01*
X159977686Y-110079436D01*
X159967634Y-110087968D01*
X159958061Y-110097035D01*
X159948975Y-110106623D01*
X159940382Y-110116718D01*
X159932290Y-110127307D01*
X159924707Y-110138377D01*
X159917640Y-110149914D01*
X159911095Y-110161904D01*
X159905082Y-110174335D01*
X159899606Y-110187192D01*
X159894675Y-110200462D01*
X159890297Y-110214132D01*
X159886478Y-110228189D01*
X159883227Y-110242618D01*
X159880551Y-110257406D01*
X159878456Y-110272540D01*
X159876951Y-110288007D01*
X159876043Y-110303792D01*
X159875738Y-110319883D01*
X159876402Y-110340990D01*
X159878313Y-110361802D01*
X159881353Y-110382199D01*
X159885401Y-110402059D01*
X159890339Y-110421259D01*
X159896048Y-110439677D01*
X159902407Y-110457193D01*
X159909297Y-110473683D01*
X159916600Y-110489026D01*
X159924196Y-110503100D01*
X159931965Y-110515783D01*
X159939788Y-110526952D01*
X159947546Y-110536487D01*
X159958799Y-110547457D01*
X159969235Y-110554063D01*
X159594371Y-110554063D01*
X159594371Y-110791174D01*
X160738600Y-110791174D01*
X160738600Y-110554063D01*
X160258516Y-110554063D01*
X160238743Y-110553409D01*
X160219603Y-110551454D01*
X160201182Y-110548209D01*
X160183571Y-110543686D01*
X160166859Y-110537895D01*
X160151133Y-110530848D01*
X160136483Y-110522556D01*
X160122998Y-110513030D01*
X160110766Y-110502282D01*
X160099877Y-110490322D01*
X160090420Y-110477161D01*
X160082482Y-110462811D01*
X160076154Y-110447283D01*
X160071524Y-110430588D01*
X160068681Y-110412738D01*
X160067713Y-110393742D01*
X160068114Y-110376519D01*
X160069369Y-110360655D01*
X160071556Y-110346117D01*
X160074752Y-110332871D01*
X160079035Y-110320882D01*
X160084483Y-110310115D01*
X160095009Y-110296183D01*
X160103709Y-110288323D01*
X160113845Y-110281565D01*
X160125496Y-110275876D01*
X160138739Y-110271221D01*
X160153653Y-110267565D01*
X160170313Y-110264874D01*
X160188799Y-110263114D01*
X160209188Y-110262251D01*
X160220121Y-110262144D01*
X160738600Y-110262144D01*
X160738600Y-110023275D01*
G37*
D11*
G36*
X196138800Y-143103600D02*
G01*
X196262106Y-143187192D01*
X196376141Y-143272142D01*
X196481154Y-143358278D01*
X196577394Y-143445426D01*
X196665108Y-143533414D01*
X196744545Y-143622068D01*
X196815953Y-143711215D01*
X196879580Y-143800682D01*
X196935676Y-143890295D01*
X196984487Y-143979881D01*
X197026263Y-144069268D01*
X197061251Y-144158282D01*
X197089701Y-144246749D01*
X197111859Y-144334497D01*
X197127975Y-144421352D01*
X197138297Y-144507142D01*
X197143073Y-144591692D01*
X197142551Y-144674831D01*
X197136980Y-144756384D01*
X197126607Y-144836178D01*
X197111682Y-144914040D01*
X197092453Y-144989798D01*
X197069167Y-145063277D01*
X197042074Y-145134305D01*
X197011420Y-145202708D01*
X196977456Y-145268313D01*
X196940428Y-145330948D01*
X196900586Y-145390438D01*
X196858177Y-145446611D01*
X196813450Y-145499293D01*
X196766653Y-145548312D01*
X196745009Y-145570862D01*
X196724729Y-145593834D01*
X196705823Y-145617187D01*
X196688299Y-145640877D01*
X196672165Y-145664863D01*
X196657430Y-145689103D01*
X196644103Y-145713553D01*
X196632191Y-145738171D01*
X196621704Y-145762915D01*
X196612650Y-145787743D01*
X196605036Y-145812612D01*
X196598873Y-145837480D01*
X196594168Y-145862305D01*
X196590929Y-145887043D01*
X196589166Y-145911653D01*
X196588886Y-145936092D01*
X196590099Y-145960318D01*
X196592812Y-145984288D01*
X196597035Y-146007961D01*
X196602775Y-146031293D01*
X196610041Y-146054242D01*
X196618841Y-146076766D01*
X196629185Y-146098823D01*
X196641080Y-146120370D01*
X196654535Y-146141365D01*
X196669558Y-146161764D01*
X196686159Y-146181527D01*
X196704345Y-146200611D01*
X196724124Y-146218972D01*
X196745506Y-146236569D01*
X196768499Y-146253360D01*
X196793112Y-146269302D01*
X196825068Y-146286463D01*
X196857609Y-146300782D01*
X196890622Y-146312326D01*
X196923995Y-146321159D01*
X196957615Y-146327347D01*
X196991370Y-146330955D01*
X197025146Y-146332049D01*
X197058832Y-146330693D01*
X197092314Y-146326954D01*
X197125480Y-146320897D01*
X197158217Y-146312588D01*
X197190413Y-146302090D01*
X197221955Y-146289471D01*
X197252730Y-146274795D01*
X197282626Y-146258129D01*
X197311530Y-146239536D01*
X197339329Y-146219083D01*
X197365911Y-146196835D01*
X197391163Y-146172858D01*
X197414973Y-146147216D01*
X197437228Y-146119976D01*
X197457814Y-146091202D01*
X197476621Y-146060960D01*
X197493534Y-146029316D01*
X197508442Y-145996335D01*
X197521231Y-145962082D01*
X197531789Y-145926623D01*
X197540004Y-145890022D01*
X197545763Y-145852347D01*
X197548952Y-145813661D01*
X197549460Y-145774030D01*
X197547174Y-145733520D01*
X197539223Y-145612543D01*
X197537821Y-145497747D01*
X197539637Y-145442709D01*
X197543163Y-145389268D01*
X197548423Y-145337440D01*
X197555443Y-145287243D01*
X197564244Y-145238692D01*
X197574853Y-145191806D01*
X197587294Y-145146601D01*
X197601590Y-145103094D01*
X197617765Y-145061302D01*
X197635845Y-145021241D01*
X197655852Y-144982930D01*
X197677812Y-144946385D01*
X197701749Y-144911622D01*
X197727687Y-144878660D01*
X197755649Y-144847514D01*
X197785661Y-144818202D01*
X197817746Y-144790740D01*
X197851930Y-144765146D01*
X197888235Y-144741437D01*
X197926686Y-144719629D01*
X197967308Y-144699739D01*
X198010124Y-144681785D01*
X198055159Y-144665784D01*
X198102438Y-144651752D01*
X198151983Y-144639706D01*
X198203820Y-144629663D01*
X198257973Y-144621641D01*
X198314466Y-144615656D01*
X198270534Y-144703884D01*
X198235162Y-144787712D01*
X198207881Y-144867472D01*
X198188220Y-144943491D01*
X198175711Y-145016100D01*
X198169882Y-145085627D01*
X198170264Y-145152403D01*
X198176387Y-145216756D01*
X198187780Y-145279016D01*
X198203975Y-145339513D01*
X198224501Y-145398576D01*
X198248889Y-145456535D01*
X198276667Y-145513718D01*
X198307367Y-145570455D01*
X198375651Y-145683911D01*
X198526598Y-145919969D01*
X198601742Y-146047842D01*
X198637586Y-146115393D01*
X198671653Y-146185792D01*
X198703472Y-146259370D01*
X198732573Y-146336455D01*
X198758487Y-146417377D01*
X198780742Y-146502465D01*
X198798870Y-146592050D01*
X198812401Y-146686459D01*
X198820863Y-146786024D01*
X198823789Y-146891072D01*
X198817211Y-147057675D01*
X198797214Y-147228920D01*
X198763400Y-147403090D01*
X198715372Y-147578472D01*
X198652732Y-147753350D01*
X198575083Y-147926009D01*
X198530506Y-148010971D01*
X198482028Y-148094734D01*
X198429600Y-148177086D01*
X198373170Y-148257810D01*
X198312691Y-148336694D01*
X198248112Y-148413523D01*
X198179383Y-148488082D01*
X198106455Y-148560156D01*
X198029279Y-148629533D01*
X197947804Y-148695996D01*
X197861981Y-148759332D01*
X197771760Y-148819327D01*
X197677092Y-148875765D01*
X197577927Y-148928433D01*
X197474215Y-148977117D01*
X197365906Y-149021601D01*
X197252952Y-149061672D01*
X197135302Y-149097115D01*
X197012907Y-149127716D01*
X196885716Y-149153260D01*
X196944182Y-149123357D01*
X196998112Y-149090770D01*
X197047625Y-149055606D01*
X197092835Y-149017971D01*
X197133860Y-148977972D01*
X197170815Y-148935715D01*
X197203817Y-148891307D01*
X197232981Y-148844855D01*
X197258426Y-148796465D01*
X197280265Y-148746243D01*
X197298617Y-148694297D01*
X197313597Y-148640733D01*
X197325321Y-148585657D01*
X197333906Y-148529176D01*
X197339467Y-148471397D01*
X197342122Y-148412426D01*
X197342244Y-148369209D01*
X197340154Y-148326438D01*
X197335885Y-148284213D01*
X197329474Y-148242631D01*
X197320956Y-148201789D01*
X197310365Y-148161788D01*
X197297738Y-148122723D01*
X197283108Y-148084695D01*
X197266511Y-148047799D01*
X197247982Y-148012136D01*
X197227557Y-147977802D01*
X197205270Y-147944897D01*
X197181157Y-147913517D01*
X197155252Y-147883762D01*
X197127591Y-147855729D01*
X197098210Y-147829516D01*
X197067142Y-147805222D01*
X197034423Y-147782945D01*
X197000089Y-147762782D01*
X196964174Y-147744832D01*
X196926713Y-147729192D01*
X196887743Y-147715962D01*
X196847297Y-147705239D01*
X196805411Y-147697121D01*
X196762120Y-147691707D01*
X196717459Y-147689094D01*
X196671464Y-147689380D01*
X196624169Y-147692664D01*
X196575609Y-147699044D01*
X196525820Y-147708618D01*
X196474837Y-147721483D01*
X196422695Y-147737739D01*
X196369093Y-147753623D01*
X196316259Y-147765360D01*
X196264305Y-147773027D01*
X196213341Y-147776703D01*
X196163476Y-147776464D01*
X196114821Y-147772388D01*
X196067487Y-147764552D01*
X196021583Y-147753035D01*
X195977219Y-147737913D01*
X195934506Y-147719264D01*
X195893555Y-147697166D01*
X195854474Y-147671696D01*
X195817375Y-147642932D01*
X195782368Y-147610951D01*
X195749562Y-147575830D01*
X195719069Y-147537648D01*
X195690998Y-147496481D01*
X195665459Y-147452407D01*
X195642564Y-147405505D01*
X195622421Y-147355850D01*
X195605142Y-147303521D01*
X195590835Y-147248596D01*
X195579613Y-147191151D01*
X195571584Y-147131264D01*
X195566860Y-147069014D01*
X195565550Y-147004476D01*
X195567764Y-146937730D01*
X195573613Y-146868851D01*
X195583207Y-146797919D01*
X195596655Y-146725010D01*
X195614070Y-146650202D01*
X195635560Y-146573572D01*
X195548400Y-146655017D01*
X195467939Y-146739189D01*
X195394094Y-146825832D01*
X195326780Y-146914688D01*
X195265915Y-147005502D01*
X195211414Y-147098017D01*
X195163195Y-147191975D01*
X195121173Y-147287120D01*
X195085265Y-147383196D01*
X195055387Y-147479945D01*
X195031456Y-147577110D01*
X195013389Y-147674435D01*
X195001101Y-147771664D01*
X194994509Y-147868538D01*
X194993530Y-147964803D01*
X194998079Y-148060200D01*
X195008075Y-148154473D01*
X195023432Y-148247365D01*
X195044067Y-148338620D01*
X195069897Y-148427981D01*
X195100838Y-148515191D01*
X195136806Y-148599993D01*
X195177719Y-148682130D01*
X195223492Y-148761346D01*
X195274042Y-148837384D01*
X195329285Y-148909987D01*
X195389138Y-148978898D01*
X195453517Y-149043861D01*
X195522338Y-149104619D01*
X195595519Y-149160914D01*
X195672975Y-149212491D01*
X195754622Y-149259093D01*
X195562023Y-149210582D01*
X195382129Y-149154631D01*
X195214623Y-149091667D01*
X195059187Y-149022118D01*
X194915504Y-148946411D01*
X194783257Y-148864975D01*
X194662129Y-148778236D01*
X194551802Y-148686622D01*
X194451958Y-148590560D01*
X194362282Y-148490479D01*
X194282454Y-148386805D01*
X194212158Y-148279967D01*
X194151077Y-148170391D01*
X194098893Y-148058506D01*
X194055289Y-147944738D01*
X194019948Y-147829516D01*
X193992552Y-147713267D01*
X193972783Y-147596418D01*
X193960326Y-147479398D01*
X193954861Y-147362633D01*
X193956073Y-147246551D01*
X193963643Y-147131579D01*
X193977255Y-147018146D01*
X193996590Y-146906679D01*
X194021332Y-146797604D01*
X194051164Y-146691351D01*
X194085767Y-146588346D01*
X194124825Y-146489017D01*
X194168021Y-146393791D01*
X194215036Y-146303096D01*
X194265554Y-146217360D01*
X194319258Y-146137010D01*
X194404424Y-146023893D01*
X194493330Y-145917307D01*
X194585375Y-145816651D01*
X194679959Y-145721325D01*
X194776481Y-145630726D01*
X194874340Y-145544255D01*
X194972936Y-145461311D01*
X195071667Y-145381294D01*
X195455932Y-145078470D01*
X195546331Y-145004072D01*
X195633260Y-144928996D01*
X195716120Y-144852641D01*
X195794310Y-144774406D01*
X195861363Y-144701235D01*
X195923320Y-144625293D01*
X195979734Y-144546135D01*
X196030161Y-144463314D01*
X196074154Y-144376384D01*
X196111267Y-144284901D01*
X196141055Y-144188418D01*
X196163073Y-144086489D01*
X196176874Y-143978669D01*
X196182012Y-143864513D01*
X196178043Y-143743574D01*
X196164520Y-143615407D01*
X196140997Y-143479566D01*
X196107030Y-143335605D01*
X196062171Y-143183079D01*
X196005976Y-143021541D01*
X196138800Y-143103600D01*
G37*
%TO.C,REF\u002A\u002A*%
D12*
X175063870Y-134753238D02*
X176017825Y-134753238D01*
X176017825Y-135422607D01*
X174431211Y-135422607D01*
X174431211Y-132869435D01*
X175063870Y-132869435D01*
X175063870Y-134753238D01*
G36*
X175063870Y-134753238D02*
G01*
X176017825Y-134753238D01*
X176017825Y-135422607D01*
X174431211Y-135422607D01*
X174431211Y-132869435D01*
X175063870Y-132869435D01*
X175063870Y-134753238D01*
G37*
X172297736Y-135422607D02*
X171616875Y-135422607D01*
X171616875Y-134454485D01*
X171377219Y-134454485D01*
X171377219Y-135422607D01*
X170691919Y-135422607D01*
X170691919Y-132869955D01*
X171374933Y-132869435D01*
X171374933Y-133792237D01*
X171616875Y-133792237D01*
X171616875Y-132869435D01*
X172297736Y-132869435D01*
X172297736Y-135422607D01*
G36*
X172297736Y-135422607D02*
G01*
X171616875Y-135422607D01*
X171616875Y-134454485D01*
X171377219Y-134454485D01*
X171377219Y-135422607D01*
X170691919Y-135422607D01*
X170691919Y-132869955D01*
X171374933Y-132869435D01*
X171374933Y-133792237D01*
X171616875Y-133792237D01*
X171616875Y-132869435D01*
X172297736Y-132869435D01*
X172297736Y-135422607D01*
G37*
X174147736Y-135422607D02*
X173466875Y-135422607D01*
X173466875Y-134454485D01*
X173227219Y-134454485D01*
X173227219Y-135422607D01*
X172541919Y-135422607D01*
X172541919Y-132869955D01*
X173224933Y-132869435D01*
X173224933Y-133792237D01*
X173466875Y-133792237D01*
X173466875Y-132869435D01*
X174147736Y-132869435D01*
X174147736Y-135422607D01*
G36*
X174147736Y-135422607D02*
G01*
X173466875Y-135422607D01*
X173466875Y-134454485D01*
X173227219Y-134454485D01*
X173227219Y-135422607D01*
X172541919Y-135422607D01*
X172541919Y-132869955D01*
X173224933Y-132869435D01*
X173224933Y-133792237D01*
X173466875Y-133792237D01*
X173466875Y-132869435D01*
X174147736Y-132869435D01*
X174147736Y-135422607D01*
G37*
%TO.C,SW2*%
D13*
X246357313Y-124142540D02*
G75*
G03*
X246357313Y-124142540I-1900000J0D01*
G01*
%TO.C,SW1*%
X261533657Y-116584400D02*
G75*
G03*
X261533657Y-116584400I-1900000J0D01*
G01*
%TO.C,SW11*%
D14*
X197758657Y-154344400D02*
G75*
G03*
X197758657Y-154344400I-1525000J0D01*
G01*
%TO.C,SW3*%
D13*
X276046617Y-113094002D02*
G75*
G03*
X276046617Y-113094002I-1900000J0D01*
G01*
%TO.C,SW13*%
D14*
X205608657Y-146494400D02*
G75*
G03*
X205608657Y-146494400I-1525000J0D01*
G01*
%TO.C,SW5*%
D15*
X219508657Y-116484400D02*
G75*
G03*
X219508657Y-116484400I-1025000J0D01*
G01*
%TO.C,SW12*%
D14*
X189908657Y-146494400D02*
G75*
G03*
X189908657Y-146494400I-1525000J0D01*
G01*
%TO.C,SW4*%
D13*
X257791532Y-102212626D02*
G75*
G03*
X257791532Y-102212626I-1900000J0D01*
G01*
%TO.C,SW10*%
D14*
X197758657Y-138644400D02*
G75*
G03*
X197758657Y-138644400I-1525000J0D01*
G01*
%TO.C,U1*%
D16*
X204811000Y-104729800D02*
X203161000Y-104729800D01*
X203161000Y-103679800D01*
X203761000Y-103079800D01*
X204811000Y-103079800D01*
X204811000Y-104729800D01*
G36*
X204811000Y-104729800D02*
G01*
X203161000Y-104729800D01*
X203161000Y-103679800D01*
X203761000Y-103079800D01*
X204811000Y-103079800D01*
X204811000Y-104729800D01*
G37*
%TD*%
D17*
%TO.C,R30*%
X219049600Y-95570000D03*
X219049600Y-94930000D03*
%TD*%
D18*
%TO.C,C17*%
X230936800Y-112397600D03*
X230936800Y-113357600D03*
%TD*%
D19*
%TO.C,C4*%
X227164600Y-123901200D03*
X228714600Y-123901200D03*
%TD*%
D20*
%TO.C,R1*%
X177784800Y-127203200D03*
X178424800Y-127203200D03*
%TD*%
D17*
%TO.C,R8*%
X213309200Y-109692400D03*
X213309200Y-109052400D03*
%TD*%
D21*
%TO.C,R5*%
X229885200Y-104495600D03*
X229245200Y-104495600D03*
%TD*%
%TO.C,R22*%
X160797200Y-138938000D03*
X160157200Y-138938000D03*
%TD*%
D22*
%TO.C,R38*%
X240817400Y-99529400D03*
X240817400Y-97879400D03*
%TD*%
D23*
%TO.C,U3*%
X186371472Y-118009355D03*
X186470910Y-116111959D03*
X183924617Y-116929817D03*
%TD*%
D20*
%TO.C,R6*%
X217813900Y-106566900D03*
X218453900Y-106566900D03*
%TD*%
D17*
%TO.C,C15*%
X233705400Y-106034800D03*
X233705400Y-105394800D03*
%TD*%
%TO.C,R34*%
X213410800Y-125999200D03*
X213410800Y-125359200D03*
%TD*%
D24*
%TO.C,R12*%
X228498400Y-106817200D03*
X228498400Y-107457200D03*
%TD*%
D25*
%TO.C,U10*%
X203487600Y-116777200D03*
X203487600Y-116277200D03*
X203487600Y-115777200D03*
X203487600Y-115277200D03*
D26*
X202589600Y-114879200D03*
X202089600Y-114879200D03*
X201589600Y-114879200D03*
D25*
X200691600Y-115277200D03*
X200691600Y-115777200D03*
X200691600Y-116277200D03*
X200691600Y-116777200D03*
D26*
X201589600Y-117175200D03*
X202089600Y-117175200D03*
X202589600Y-117175200D03*
%TD*%
D24*
%TO.C,C22*%
X215278400Y-96417800D03*
X215278400Y-97057800D03*
%TD*%
D19*
%TO.C,C12*%
X200494600Y-113233200D03*
X202044600Y-113233200D03*
%TD*%
D27*
%TO.C,U13*%
X216408000Y-96955600D03*
D28*
X216908000Y-96955600D03*
X217408000Y-96955600D03*
D27*
X217908000Y-96955600D03*
D29*
X218058000Y-96280600D03*
D27*
X217908000Y-95605600D03*
D28*
X217408000Y-95605600D03*
X216908000Y-95605600D03*
D27*
X216408000Y-95605600D03*
D29*
X216258000Y-96280600D03*
%TD*%
D17*
%TO.C,C11*%
X216165993Y-109020008D03*
X216165993Y-108380008D03*
%TD*%
D30*
%TO.C,Q1*%
X207675000Y-127116800D03*
X207675000Y-129016800D03*
X209550000Y-128066800D03*
%TD*%
D31*
%TO.C,F1*%
X214985600Y-122159700D03*
X214985600Y-125134700D03*
%TD*%
D32*
%TO.C,TP4*%
X187452000Y-132130800D03*
%TD*%
D33*
%TO.C,C3*%
X232664000Y-99241600D03*
X232664000Y-96541600D03*
%TD*%
D21*
%TO.C,R21*%
X166537600Y-138938000D03*
X165897600Y-138938000D03*
%TD*%
D24*
%TO.C,R9*%
X213258400Y-103515200D03*
X213258400Y-104155200D03*
%TD*%
D17*
%TO.C,R33*%
X225348800Y-124678400D03*
X225348800Y-124038400D03*
%TD*%
D34*
%TO.C,L2*%
X167834453Y-110533889D03*
X168783151Y-110583609D03*
X168832871Y-109634911D03*
X167884173Y-109585191D03*
%TD*%
D21*
%TO.C,R17*%
X206212400Y-130606800D03*
X205572400Y-130606800D03*
%TD*%
D35*
%TO.C,D7*%
X241218800Y-107014800D03*
X241218800Y-106364800D03*
X241218800Y-105714800D03*
X239318800Y-105714800D03*
X239318800Y-106364800D03*
X239318800Y-107014800D03*
%TD*%
D36*
%TO.C,R37*%
X239293400Y-98743000D03*
X239293400Y-100393000D03*
%TD*%
D20*
%TO.C,R16*%
X205572400Y-127152400D03*
X206212400Y-127152400D03*
%TD*%
D37*
%TO.C,SW6*%
X172671539Y-110006388D03*
X172009489Y-122639052D03*
D38*
X177558707Y-112290293D03*
X177108617Y-120878507D03*
D37*
X182657835Y-110529748D03*
X181995785Y-123162412D03*
D39*
X171861497Y-113043156D03*
X171521313Y-119534248D03*
X167367664Y-112807644D03*
X167027480Y-119298736D03*
%TD*%
D40*
%TO.C,U12*%
X208565298Y-125214498D03*
X208565298Y-124214498D03*
X208565298Y-123214498D03*
X208565298Y-122214498D03*
X208565298Y-121214498D03*
X203065298Y-121214498D03*
X203065298Y-122214498D03*
X203065298Y-123214498D03*
X203065298Y-124214498D03*
X203065298Y-125214498D03*
D41*
X205815298Y-123214498D03*
%TD*%
D30*
%TO.C,Q7*%
X217146900Y-124373600D03*
X217146900Y-126273600D03*
X219021900Y-125323600D03*
%TD*%
D20*
%TO.C,R20*%
X197241200Y-107442000D03*
X197881200Y-107442000D03*
%TD*%
D42*
%TO.C,C8*%
X218818400Y-102666800D03*
X217858400Y-102666800D03*
%TD*%
D24*
%TO.C,C21*%
X219049600Y-96403200D03*
X219049600Y-97043200D03*
%TD*%
D34*
%TO.C,L1*%
X185834453Y-110533889D03*
X186783151Y-110583609D03*
X186832871Y-109634911D03*
X185884173Y-109585191D03*
%TD*%
D30*
%TO.C,Q5*%
X222023700Y-125440400D03*
X222023700Y-127340400D03*
X223898700Y-126390400D03*
%TD*%
D21*
%TO.C,R25*%
X222163600Y-99720400D03*
X221523600Y-99720400D03*
%TD*%
D43*
%TO.C,D3*%
X220191600Y-122377200D03*
X216891600Y-122377200D03*
%TD*%
D44*
%TO.C,U11*%
X230743200Y-114601600D03*
X230743200Y-114201600D03*
X231143200Y-114601600D03*
X231143200Y-114201600D03*
X231543200Y-114601600D03*
X231543200Y-114201600D03*
X231943200Y-114601600D03*
X231943200Y-114201600D03*
%TD*%
D18*
%TO.C,C5*%
X226923600Y-101704200D03*
X226923600Y-102664200D03*
%TD*%
D22*
%TO.C,R36*%
X189255400Y-99377000D03*
X189255400Y-97727000D03*
%TD*%
D45*
%TO.C,C23*%
X228740000Y-117170200D03*
X227190000Y-117170200D03*
%TD*%
D46*
%TO.C,R11*%
X191107600Y-108356400D03*
X192127600Y-108356400D03*
%TD*%
D36*
%TO.C,R4*%
X190804800Y-97727000D03*
X190804800Y-99377000D03*
%TD*%
D24*
%TO.C,R18*%
X208381600Y-112252800D03*
X208381600Y-112892800D03*
%TD*%
%TO.C,R29*%
X215278400Y-94944600D03*
X215278400Y-95584600D03*
%TD*%
D47*
%TO.C,SW7*%
X163618112Y-100644336D03*
X170546316Y-96644336D03*
D48*
X166643465Y-101784400D03*
X170020963Y-99834400D03*
%TD*%
D49*
%TO.C,C9*%
X216156600Y-107416600D03*
X217116600Y-107416600D03*
%TD*%
D50*
%TO.C,SW8*%
X266420998Y-96644336D03*
X273349202Y-100644336D03*
D51*
X266946351Y-99834400D03*
X270323849Y-101784400D03*
%TD*%
D21*
%TO.C,C6*%
X218810800Y-103581200D03*
X218170800Y-103581200D03*
%TD*%
D17*
%TO.C,R19*%
X207518000Y-112908000D03*
X207518000Y-112268000D03*
%TD*%
D52*
%TO.C,Q6*%
X223898700Y-123886000D03*
X223898700Y-121986000D03*
X222023700Y-122936000D03*
%TD*%
D19*
%TO.C,C13*%
X196938600Y-116840000D03*
X198488600Y-116840000D03*
%TD*%
D20*
%TO.C,R23*%
X223809600Y-99720400D03*
X224449600Y-99720400D03*
%TD*%
D17*
%TO.C,R35*%
X213410800Y-124475200D03*
X213410800Y-123835200D03*
%TD*%
D24*
%TO.C,R28*%
X221538800Y-94980800D03*
X221538800Y-95620800D03*
%TD*%
D17*
%TO.C,R10*%
X215595200Y-112054600D03*
X215595200Y-111414600D03*
%TD*%
D53*
%TO.C,U8*%
X220884800Y-110845600D03*
X221284800Y-110845600D03*
X221684800Y-110845600D03*
X222084800Y-110845600D03*
X222484800Y-110845600D03*
X222884800Y-110845600D03*
X223284800Y-110845600D03*
X223684800Y-110845600D03*
X224084800Y-110845600D03*
X224484800Y-110845600D03*
X224884800Y-110845600D03*
X225284800Y-110845600D03*
X225684800Y-110845600D03*
X226084800Y-110845600D03*
D54*
X226922300Y-110008100D03*
X226922300Y-109608100D03*
X226922300Y-109208100D03*
X226922300Y-108808100D03*
X226922300Y-108408100D03*
X226922300Y-108008100D03*
X226922300Y-107608100D03*
X226922300Y-107208100D03*
X226922300Y-106808100D03*
X226922300Y-106408100D03*
X226922300Y-106008100D03*
X226922300Y-105608100D03*
X226922300Y-105208100D03*
X226922300Y-104808100D03*
D53*
X226084800Y-103970600D03*
X225684800Y-103970600D03*
X225284800Y-103970600D03*
X224884800Y-103970600D03*
X224484800Y-103970600D03*
X224084800Y-103970600D03*
X223684800Y-103970600D03*
X223284800Y-103970600D03*
X222884800Y-103970600D03*
X222484800Y-103970600D03*
X222084800Y-103970600D03*
X221684800Y-103970600D03*
X221284800Y-103970600D03*
X220884800Y-103970600D03*
D54*
X220047300Y-104808100D03*
X220047300Y-105208100D03*
X220047300Y-105608100D03*
X220047300Y-106008100D03*
X220047300Y-106408100D03*
X220047300Y-106808100D03*
X220047300Y-107208100D03*
X220047300Y-107608100D03*
X220047300Y-108008100D03*
X220047300Y-108408100D03*
X220047300Y-108808100D03*
X220047300Y-109208100D03*
X220047300Y-109608100D03*
X220047300Y-110008100D03*
D55*
X223484800Y-107408100D03*
%TD*%
D56*
%TO.C,F2*%
X228396800Y-99531500D03*
X228396800Y-96556500D03*
%TD*%
D20*
%TO.C,R7*%
X217813900Y-105855700D03*
X218453900Y-105855700D03*
%TD*%
%TO.C,R26*%
X222996800Y-95656400D03*
X223636800Y-95656400D03*
%TD*%
D34*
%TO.C,L4*%
X185834453Y-123533889D03*
X186783151Y-123583609D03*
X186832871Y-122634911D03*
X185884173Y-122585191D03*
%TD*%
D57*
%TO.C,J4*%
X278380200Y-144195800D03*
D58*
X276380200Y-144195800D03*
X274380200Y-144195800D03*
X272380200Y-144195800D03*
X270380200Y-144195800D03*
X268380200Y-144195800D03*
%TD*%
D36*
%TO.C,R14*%
X232486200Y-107429800D03*
X232486200Y-109079800D03*
%TD*%
D59*
%TO.C,D8*%
X244007400Y-111368800D03*
X243357400Y-111368800D03*
X242707400Y-111368800D03*
X242707400Y-113268800D03*
X243357400Y-113268800D03*
X244007400Y-113268800D03*
%TD*%
D60*
%TO.C,D2*%
X213868000Y-97820800D03*
X213868000Y-95320800D03*
%TD*%
D61*
%TO.C,JP1*%
X233578400Y-118171200D03*
X233578400Y-119471200D03*
%TD*%
D62*
%TO.C,SW5*%
X217983657Y-116484400D03*
X218983657Y-116484400D03*
%TD*%
D49*
%TO.C,C10*%
X217779600Y-104495600D03*
X218739600Y-104495600D03*
%TD*%
D63*
%TO.C,U6*%
X193924700Y-118455800D03*
X193924700Y-119105800D03*
X193924700Y-119755800D03*
X193924700Y-120405800D03*
X198149700Y-120405800D03*
X198149700Y-119755800D03*
X198149700Y-119105800D03*
X198149700Y-118455800D03*
%TD*%
D21*
%TO.C,C16*%
X229275600Y-114198400D03*
X228635600Y-114198400D03*
%TD*%
%TO.C,C18*%
X201488000Y-125222000D03*
X200848000Y-125222000D03*
%TD*%
%TO.C,R24*%
X220690400Y-99720400D03*
X220050400Y-99720400D03*
%TD*%
D35*
%TO.C,D5*%
X243271000Y-108595400D03*
X243271000Y-109245400D03*
X243271000Y-109895400D03*
X245171000Y-109895400D03*
X245171000Y-109245400D03*
X245171000Y-108595400D03*
%TD*%
D17*
%TO.C,R2*%
X188112400Y-116093200D03*
X188112400Y-115453200D03*
%TD*%
D64*
%TO.C,Y1*%
X230073200Y-107905400D03*
X230073200Y-106705400D03*
X230073200Y-105505400D03*
%TD*%
D21*
%TO.C,R3*%
X231206000Y-123698000D03*
X230566000Y-123698000D03*
%TD*%
D20*
%TO.C,R31*%
X219898000Y-127508000D03*
X220538000Y-127508000D03*
%TD*%
D65*
%TO.C,J1*%
X191283700Y-131490000D03*
X191283700Y-127590000D03*
%TD*%
D17*
%TO.C,R32*%
X220573600Y-126100800D03*
X220573600Y-125460800D03*
%TD*%
D66*
%TO.C,C1*%
X176734300Y-128473200D03*
X178459300Y-128473200D03*
%TD*%
D67*
%TO.C,U2*%
X175908707Y-125622210D03*
X177806103Y-125721648D03*
X176988245Y-123175355D03*
%TD*%
D42*
%TO.C,C7*%
X219021600Y-101650800D03*
X218061600Y-101650800D03*
%TD*%
D68*
%TO.C,C19*%
X197866000Y-102324200D03*
X197866000Y-100774200D03*
%TD*%
D24*
%TO.C,R27*%
X219862400Y-94930000D03*
X219862400Y-95570000D03*
%TD*%
D20*
%TO.C,C20*%
X197546000Y-103479600D03*
X198186000Y-103479600D03*
%TD*%
D69*
%TO.C,D10*%
X226212400Y-96844800D03*
X226212400Y-99344800D03*
%TD*%
D32*
%TO.C,TP5*%
X184658000Y-97891600D03*
%TD*%
D70*
%TO.C,C2*%
X189382400Y-117296100D03*
X189382400Y-115571100D03*
%TD*%
D30*
%TO.C,Q2*%
X207698100Y-130622000D03*
X207698100Y-132522000D03*
X209573100Y-131572000D03*
%TD*%
D71*
%TO.C,U1*%
X200036000Y-101854800D03*
X200036000Y-102654800D03*
X200036000Y-103454800D03*
X200036000Y-104254800D03*
X200036000Y-105054800D03*
X200036000Y-105854800D03*
X200036000Y-106654800D03*
X200036000Y-107454800D03*
X200036000Y-108254800D03*
X200036000Y-109054800D03*
X200036000Y-109854800D03*
D72*
X201136000Y-110754800D03*
X201936000Y-110754800D03*
X202736000Y-110754800D03*
X203536000Y-110754800D03*
X204336000Y-110754800D03*
X205136000Y-110754800D03*
X205936000Y-110754800D03*
X206736000Y-110754800D03*
X207536000Y-110754800D03*
X208336000Y-110754800D03*
X209136000Y-110754800D03*
X209936000Y-110754800D03*
X210736000Y-110754800D03*
D71*
X211836000Y-109854800D03*
X211836000Y-109054800D03*
X211836000Y-108254800D03*
X211836000Y-107454800D03*
X211836000Y-106654800D03*
X211836000Y-105854800D03*
X211836000Y-105054800D03*
X211836000Y-104254800D03*
X211836000Y-103454800D03*
X211836000Y-102654800D03*
X211836000Y-101854800D03*
D72*
X210736000Y-100954800D03*
X209936000Y-100954800D03*
X209136000Y-100954800D03*
X208336000Y-100954800D03*
X207536000Y-100954800D03*
X206736000Y-100954800D03*
X205936000Y-100954800D03*
X205136000Y-100954800D03*
X204336000Y-100954800D03*
X203536000Y-100954800D03*
X202736000Y-100954800D03*
X201936000Y-100954800D03*
X201136000Y-100954800D03*
D73*
X205936000Y-105854800D03*
D74*
X211886000Y-100904800D03*
X211886000Y-110804800D03*
X199986000Y-110804800D03*
X199986000Y-100904800D03*
D73*
X203986000Y-105854800D03*
X203986000Y-107804800D03*
X205936000Y-107804800D03*
X207886000Y-107804800D03*
X207886000Y-105854800D03*
X207886000Y-103904800D03*
X205936000Y-103904800D03*
%TD*%
D36*
%TO.C,R13*%
X232486200Y-104381800D03*
X232486200Y-106031800D03*
%TD*%
D24*
%TO.C,C14*%
X233654600Y-108442800D03*
X233654600Y-109082800D03*
%TD*%
D17*
%TO.C,R15*%
X232613200Y-114569200D03*
X232613200Y-113929200D03*
%TD*%
D25*
%TO.C,U5*%
X208178400Y-116763800D03*
X208178400Y-116263800D03*
X208178400Y-115763800D03*
X208178400Y-115263800D03*
D26*
X207280400Y-114865800D03*
X206780400Y-114865800D03*
X206280400Y-114865800D03*
D25*
X205382400Y-115263800D03*
X205382400Y-115763800D03*
X205382400Y-116263800D03*
X205382400Y-116763800D03*
D26*
X206280400Y-117161800D03*
X206780400Y-117161800D03*
X207280400Y-117161800D03*
%TD*%
D75*
%TO.C,U4*%
X231182400Y-121997600D03*
D76*
X229332400Y-120497600D03*
D75*
X231182400Y-118997600D03*
X227482400Y-118997600D03*
X227482400Y-121997600D03*
%TD*%
D35*
%TO.C,D6*%
X241234000Y-109870000D03*
X241234000Y-109220000D03*
X241234000Y-108570000D03*
X239334000Y-108570000D03*
X239334000Y-109220000D03*
X239334000Y-109870000D03*
%TD*%
D65*
%TO.C,J3*%
X278888300Y-128960400D03*
X278888300Y-125060400D03*
%TD*%
D59*
%TO.C,Q4*%
X220228400Y-98638400D03*
X220878400Y-98638400D03*
X221528400Y-98638400D03*
X221528400Y-96738400D03*
X220878400Y-96738400D03*
X220228400Y-96738400D03*
%TD*%
D65*
%TO.C,J2*%
X157534500Y-124999200D03*
X157534500Y-128899200D03*
%TD*%
D77*
%TO.C,SW9*%
X221596435Y-133304810D03*
X215370879Y-137663990D03*
%TD*%
D34*
%TO.C,L3*%
X167834453Y-123533889D03*
X168783151Y-123583609D03*
X168832871Y-122634911D03*
X167884173Y-122585191D03*
%TD*%
D60*
%TO.C,D9*%
X230581200Y-98836800D03*
X230581200Y-96336800D03*
%TD*%
D59*
%TO.C,Q3*%
X223124000Y-98638400D03*
X223774000Y-98638400D03*
X224424000Y-98638400D03*
X224424000Y-96738400D03*
X223774000Y-96738400D03*
X223124000Y-96738400D03*
%TD*%
D35*
%TO.C,D4*%
X243271000Y-105735600D03*
X243271000Y-106385600D03*
X243271000Y-107035600D03*
X245171000Y-107035600D03*
X245171000Y-106385600D03*
X245171000Y-105735600D03*
%TD*%
D78*
%TO.C,D1*%
X236352400Y-114706400D03*
X233852400Y-114706400D03*
%TD*%
D79*
%TO.C,U9*%
X216939993Y-111424008D03*
X217439993Y-111424008D03*
X217939993Y-111424008D03*
X218439993Y-111424008D03*
X218439993Y-109024008D03*
X217939993Y-109024008D03*
X217439993Y-109024008D03*
X216939993Y-109024008D03*
D80*
X217689993Y-110224008D03*
%TD*%
D81*
%TO.C,J7*%
X211258657Y-88054400D03*
%TD*%
%TO.C,J8*%
X225708657Y-88054400D03*
%TD*%
D82*
%TO.C,J14*%
X166212000Y-141608000D03*
X160432000Y-141608000D03*
D83*
X167642000Y-145288000D03*
X159002000Y-145288000D03*
%TD*%
D81*
%TO.C,J12*%
X225708657Y-93054400D03*
%TD*%
%TO.C,J6*%
X225708657Y-85554400D03*
%TD*%
%TO.C,J10*%
X225708657Y-90554400D03*
%TD*%
%TO.C,J11*%
X211258657Y-93054400D03*
%TD*%
%TO.C,J9*%
X211258657Y-90554400D03*
%TD*%
D84*
%TO.C,RV2*%
X243483657Y-101434400D03*
X240983657Y-101434400D03*
X245983657Y-101434400D03*
D85*
X247833657Y-112934400D03*
X239133657Y-112934400D03*
%TD*%
D86*
%TO.C,B1*%
X232547596Y-111285471D03*
D87*
X234547596Y-111285471D03*
%TD*%
D81*
%TO.C,J5*%
X211258657Y-85554400D03*
%TD*%
D84*
%TO.C,RV1*%
X193483657Y-101434400D03*
X190983657Y-101434400D03*
X195983657Y-101434400D03*
D85*
X197833657Y-112934400D03*
X189133657Y-112934400D03*
%TD*%
M02*
