%TF.GenerationSoftware,KiCad,Pcbnew,7.0.6*%
%TF.CreationDate,2024-02-06T15:40:46-08:00*%
%TF.ProjectId,UGC_Main,5547435f-4d61-4696-9e2e-6b696361645f,rev?*%
%TF.SameCoordinates,Original*%
%TF.FileFunction,Legend,Top*%
%TF.FilePolarity,Positive*%
%FSLAX46Y46*%
G04 Gerber Fmt 4.6, Leading zero omitted, Abs format (unit mm)*
G04 Created by KiCad (PCBNEW 7.0.6) date 2024-02-06 15:40:46*
%MOMM*%
%LPD*%
G01*
G04 APERTURE LIST*
%ADD10C,0.120000*%
%ADD11C,0.150000*%
G04 APERTURE END LIST*
D10*
X229029771Y-112884980D02*
X229055962Y-112858790D01*
X229055962Y-112858790D02*
X229134533Y-112832599D01*
X229134533Y-112832599D02*
X229186914Y-112832599D01*
X229186914Y-112832599D02*
X229265486Y-112858790D01*
X229265486Y-112858790D02*
X229317867Y-112911170D01*
X229317867Y-112911170D02*
X229344057Y-112963551D01*
X229344057Y-112963551D02*
X229370248Y-113068313D01*
X229370248Y-113068313D02*
X229370248Y-113146885D01*
X229370248Y-113146885D02*
X229344057Y-113251647D01*
X229344057Y-113251647D02*
X229317867Y-113304028D01*
X229317867Y-113304028D02*
X229265486Y-113356409D01*
X229265486Y-113356409D02*
X229186914Y-113382599D01*
X229186914Y-113382599D02*
X229134533Y-113382599D01*
X229134533Y-113382599D02*
X229055962Y-113356409D01*
X229055962Y-113356409D02*
X229029771Y-113330218D01*
X228505962Y-112832599D02*
X228820248Y-112832599D01*
X228663105Y-112832599D02*
X228663105Y-113382599D01*
X228663105Y-113382599D02*
X228715486Y-113304028D01*
X228715486Y-113304028D02*
X228767867Y-113251647D01*
X228767867Y-113251647D02*
X228820248Y-113225456D01*
X228322628Y-113382599D02*
X227955961Y-113382599D01*
X227955961Y-113382599D02*
X228191676Y-112832599D01*
X233088419Y-124627866D02*
X233114610Y-124654057D01*
X233114610Y-124654057D02*
X233140800Y-124732628D01*
X233140800Y-124732628D02*
X233140800Y-124785009D01*
X233140800Y-124785009D02*
X233114610Y-124863581D01*
X233114610Y-124863581D02*
X233062229Y-124915962D01*
X233062229Y-124915962D02*
X233009848Y-124942152D01*
X233009848Y-124942152D02*
X232905086Y-124968343D01*
X232905086Y-124968343D02*
X232826514Y-124968343D01*
X232826514Y-124968343D02*
X232721752Y-124942152D01*
X232721752Y-124942152D02*
X232669371Y-124915962D01*
X232669371Y-124915962D02*
X232616990Y-124863581D01*
X232616990Y-124863581D02*
X232590800Y-124785009D01*
X232590800Y-124785009D02*
X232590800Y-124732628D01*
X232590800Y-124732628D02*
X232616990Y-124654057D01*
X232616990Y-124654057D02*
X232643181Y-124627866D01*
X232774133Y-124156438D02*
X233140800Y-124156438D01*
X232564610Y-124287390D02*
X232957467Y-124418343D01*
X232957467Y-124418343D02*
X232957467Y-124077866D01*
X179384733Y-127349800D02*
X179201399Y-127087895D01*
X179070447Y-127349800D02*
X179070447Y-126799800D01*
X179070447Y-126799800D02*
X179279971Y-126799800D01*
X179279971Y-126799800D02*
X179332352Y-126825990D01*
X179332352Y-126825990D02*
X179358542Y-126852181D01*
X179358542Y-126852181D02*
X179384733Y-126904562D01*
X179384733Y-126904562D02*
X179384733Y-126983133D01*
X179384733Y-126983133D02*
X179358542Y-127035514D01*
X179358542Y-127035514D02*
X179332352Y-127061705D01*
X179332352Y-127061705D02*
X179279971Y-127087895D01*
X179279971Y-127087895D02*
X179070447Y-127087895D01*
X179908542Y-127349800D02*
X179594256Y-127349800D01*
X179751399Y-127349800D02*
X179751399Y-126799800D01*
X179751399Y-126799800D02*
X179699018Y-126878371D01*
X179699018Y-126878371D02*
X179646637Y-126930752D01*
X179646637Y-126930752D02*
X179594256Y-126956943D01*
X213760600Y-111140466D02*
X213498695Y-111323800D01*
X213760600Y-111454752D02*
X213210600Y-111454752D01*
X213210600Y-111454752D02*
X213210600Y-111245228D01*
X213210600Y-111245228D02*
X213236790Y-111192847D01*
X213236790Y-111192847D02*
X213262981Y-111166657D01*
X213262981Y-111166657D02*
X213315362Y-111140466D01*
X213315362Y-111140466D02*
X213393933Y-111140466D01*
X213393933Y-111140466D02*
X213446314Y-111166657D01*
X213446314Y-111166657D02*
X213472505Y-111192847D01*
X213472505Y-111192847D02*
X213498695Y-111245228D01*
X213498695Y-111245228D02*
X213498695Y-111454752D01*
X213446314Y-110826181D02*
X213420124Y-110878562D01*
X213420124Y-110878562D02*
X213393933Y-110904752D01*
X213393933Y-110904752D02*
X213341552Y-110930943D01*
X213341552Y-110930943D02*
X213315362Y-110930943D01*
X213315362Y-110930943D02*
X213262981Y-110904752D01*
X213262981Y-110904752D02*
X213236790Y-110878562D01*
X213236790Y-110878562D02*
X213210600Y-110826181D01*
X213210600Y-110826181D02*
X213210600Y-110721419D01*
X213210600Y-110721419D02*
X213236790Y-110669038D01*
X213236790Y-110669038D02*
X213262981Y-110642847D01*
X213262981Y-110642847D02*
X213315362Y-110616657D01*
X213315362Y-110616657D02*
X213341552Y-110616657D01*
X213341552Y-110616657D02*
X213393933Y-110642847D01*
X213393933Y-110642847D02*
X213420124Y-110669038D01*
X213420124Y-110669038D02*
X213446314Y-110721419D01*
X213446314Y-110721419D02*
X213446314Y-110826181D01*
X213446314Y-110826181D02*
X213472505Y-110878562D01*
X213472505Y-110878562D02*
X213498695Y-110904752D01*
X213498695Y-110904752D02*
X213551076Y-110930943D01*
X213551076Y-110930943D02*
X213655838Y-110930943D01*
X213655838Y-110930943D02*
X213708219Y-110904752D01*
X213708219Y-110904752D02*
X213734410Y-110878562D01*
X213734410Y-110878562D02*
X213760600Y-110826181D01*
X213760600Y-110826181D02*
X213760600Y-110721419D01*
X213760600Y-110721419D02*
X213734410Y-110669038D01*
X213734410Y-110669038D02*
X213708219Y-110642847D01*
X213708219Y-110642847D02*
X213655838Y-110616657D01*
X213655838Y-110616657D02*
X213551076Y-110616657D01*
X213551076Y-110616657D02*
X213498695Y-110642847D01*
X213498695Y-110642847D02*
X213472505Y-110669038D01*
X213472505Y-110669038D02*
X213446314Y-110721419D01*
X230133933Y-103956400D02*
X229950599Y-103694495D01*
X229819647Y-103956400D02*
X229819647Y-103406400D01*
X229819647Y-103406400D02*
X230029171Y-103406400D01*
X230029171Y-103406400D02*
X230081552Y-103432590D01*
X230081552Y-103432590D02*
X230107742Y-103458781D01*
X230107742Y-103458781D02*
X230133933Y-103511162D01*
X230133933Y-103511162D02*
X230133933Y-103589733D01*
X230133933Y-103589733D02*
X230107742Y-103642114D01*
X230107742Y-103642114D02*
X230081552Y-103668305D01*
X230081552Y-103668305D02*
X230029171Y-103694495D01*
X230029171Y-103694495D02*
X229819647Y-103694495D01*
X230631552Y-103406400D02*
X230369647Y-103406400D01*
X230369647Y-103406400D02*
X230343456Y-103668305D01*
X230343456Y-103668305D02*
X230369647Y-103642114D01*
X230369647Y-103642114D02*
X230422028Y-103615924D01*
X230422028Y-103615924D02*
X230552980Y-103615924D01*
X230552980Y-103615924D02*
X230605361Y-103642114D01*
X230605361Y-103642114D02*
X230631552Y-103668305D01*
X230631552Y-103668305D02*
X230657742Y-103720686D01*
X230657742Y-103720686D02*
X230657742Y-103851638D01*
X230657742Y-103851638D02*
X230631552Y-103904019D01*
X230631552Y-103904019D02*
X230605361Y-103930210D01*
X230605361Y-103930210D02*
X230552980Y-103956400D01*
X230552980Y-103956400D02*
X230422028Y-103956400D01*
X230422028Y-103956400D02*
X230369647Y-103930210D01*
X230369647Y-103930210D02*
X230343456Y-103904019D01*
D11*
X227314819Y-88452857D02*
X226838628Y-88786190D01*
X227314819Y-89024285D02*
X226314819Y-89024285D01*
X226314819Y-89024285D02*
X226314819Y-88643333D01*
X226314819Y-88643333D02*
X226362438Y-88548095D01*
X226362438Y-88548095D02*
X226410057Y-88500476D01*
X226410057Y-88500476D02*
X226505295Y-88452857D01*
X226505295Y-88452857D02*
X226648152Y-88452857D01*
X226648152Y-88452857D02*
X226743390Y-88500476D01*
X226743390Y-88500476D02*
X226791009Y-88548095D01*
X226791009Y-88548095D02*
X226838628Y-88643333D01*
X226838628Y-88643333D02*
X226838628Y-89024285D01*
X226410057Y-88071904D02*
X226362438Y-88024285D01*
X226362438Y-88024285D02*
X226314819Y-87929047D01*
X226314819Y-87929047D02*
X226314819Y-87690952D01*
X226314819Y-87690952D02*
X226362438Y-87595714D01*
X226362438Y-87595714D02*
X226410057Y-87548095D01*
X226410057Y-87548095D02*
X226505295Y-87500476D01*
X226505295Y-87500476D02*
X226600533Y-87500476D01*
X226600533Y-87500476D02*
X226743390Y-87548095D01*
X226743390Y-87548095D02*
X227314819Y-88119523D01*
X227314819Y-88119523D02*
X227314819Y-87500476D01*
X226410057Y-87119523D02*
X226362438Y-87071904D01*
X226362438Y-87071904D02*
X226314819Y-86976666D01*
X226314819Y-86976666D02*
X226314819Y-86738571D01*
X226314819Y-86738571D02*
X226362438Y-86643333D01*
X226362438Y-86643333D02*
X226410057Y-86595714D01*
X226410057Y-86595714D02*
X226505295Y-86548095D01*
X226505295Y-86548095D02*
X226600533Y-86548095D01*
X226600533Y-86548095D02*
X226743390Y-86595714D01*
X226743390Y-86595714D02*
X227314819Y-87167142D01*
X227314819Y-87167142D02*
X227314819Y-86548095D01*
D10*
X239795600Y-97254571D02*
X239533695Y-97437905D01*
X239795600Y-97568857D02*
X239245600Y-97568857D01*
X239245600Y-97568857D02*
X239245600Y-97359333D01*
X239245600Y-97359333D02*
X239271790Y-97306952D01*
X239271790Y-97306952D02*
X239297981Y-97280762D01*
X239297981Y-97280762D02*
X239350362Y-97254571D01*
X239350362Y-97254571D02*
X239428933Y-97254571D01*
X239428933Y-97254571D02*
X239481314Y-97280762D01*
X239481314Y-97280762D02*
X239507505Y-97306952D01*
X239507505Y-97306952D02*
X239533695Y-97359333D01*
X239533695Y-97359333D02*
X239533695Y-97568857D01*
X239245600Y-97071238D02*
X239245600Y-96730762D01*
X239245600Y-96730762D02*
X239455124Y-96914095D01*
X239455124Y-96914095D02*
X239455124Y-96835524D01*
X239455124Y-96835524D02*
X239481314Y-96783143D01*
X239481314Y-96783143D02*
X239507505Y-96756952D01*
X239507505Y-96756952D02*
X239559886Y-96730762D01*
X239559886Y-96730762D02*
X239690838Y-96730762D01*
X239690838Y-96730762D02*
X239743219Y-96756952D01*
X239743219Y-96756952D02*
X239769410Y-96783143D01*
X239769410Y-96783143D02*
X239795600Y-96835524D01*
X239795600Y-96835524D02*
X239795600Y-96992667D01*
X239795600Y-96992667D02*
X239769410Y-97045048D01*
X239769410Y-97045048D02*
X239743219Y-97071238D01*
X239481314Y-96416476D02*
X239455124Y-96468857D01*
X239455124Y-96468857D02*
X239428933Y-96495047D01*
X239428933Y-96495047D02*
X239376552Y-96521238D01*
X239376552Y-96521238D02*
X239350362Y-96521238D01*
X239350362Y-96521238D02*
X239297981Y-96495047D01*
X239297981Y-96495047D02*
X239271790Y-96468857D01*
X239271790Y-96468857D02*
X239245600Y-96416476D01*
X239245600Y-96416476D02*
X239245600Y-96311714D01*
X239245600Y-96311714D02*
X239271790Y-96259333D01*
X239271790Y-96259333D02*
X239297981Y-96233142D01*
X239297981Y-96233142D02*
X239350362Y-96206952D01*
X239350362Y-96206952D02*
X239376552Y-96206952D01*
X239376552Y-96206952D02*
X239428933Y-96233142D01*
X239428933Y-96233142D02*
X239455124Y-96259333D01*
X239455124Y-96259333D02*
X239481314Y-96311714D01*
X239481314Y-96311714D02*
X239481314Y-96416476D01*
X239481314Y-96416476D02*
X239507505Y-96468857D01*
X239507505Y-96468857D02*
X239533695Y-96495047D01*
X239533695Y-96495047D02*
X239586076Y-96521238D01*
X239586076Y-96521238D02*
X239690838Y-96521238D01*
X239690838Y-96521238D02*
X239743219Y-96495047D01*
X239743219Y-96495047D02*
X239769410Y-96468857D01*
X239769410Y-96468857D02*
X239795600Y-96416476D01*
X239795600Y-96416476D02*
X239795600Y-96311714D01*
X239795600Y-96311714D02*
X239769410Y-96259333D01*
X239769410Y-96259333D02*
X239743219Y-96233142D01*
X239743219Y-96233142D02*
X239690838Y-96206952D01*
X239690838Y-96206952D02*
X239586076Y-96206952D01*
X239586076Y-96206952D02*
X239533695Y-96233142D01*
X239533695Y-96233142D02*
X239507505Y-96259333D01*
X239507505Y-96259333D02*
X239481314Y-96311714D01*
X229600533Y-124911400D02*
X229338628Y-124911400D01*
X229338628Y-124911400D02*
X229338628Y-124361400D01*
X230045771Y-124361400D02*
X229783866Y-124361400D01*
X229783866Y-124361400D02*
X229757675Y-124623305D01*
X229757675Y-124623305D02*
X229783866Y-124597114D01*
X229783866Y-124597114D02*
X229836247Y-124570924D01*
X229836247Y-124570924D02*
X229967199Y-124570924D01*
X229967199Y-124570924D02*
X230019580Y-124597114D01*
X230019580Y-124597114D02*
X230045771Y-124623305D01*
X230045771Y-124623305D02*
X230071961Y-124675686D01*
X230071961Y-124675686D02*
X230071961Y-124806638D01*
X230071961Y-124806638D02*
X230045771Y-124859019D01*
X230045771Y-124859019D02*
X230019580Y-124885210D01*
X230019580Y-124885210D02*
X229967199Y-124911400D01*
X229967199Y-124911400D02*
X229836247Y-124911400D01*
X229836247Y-124911400D02*
X229783866Y-124885210D01*
X229783866Y-124885210D02*
X229757675Y-124859019D01*
X187636682Y-118207878D02*
X188081310Y-118231180D01*
X188081310Y-118231180D02*
X188134990Y-118207767D01*
X188134990Y-118207767D02*
X188162515Y-118182983D01*
X188162515Y-118182983D02*
X188191411Y-118132044D01*
X188191411Y-118132044D02*
X188196894Y-118027426D01*
X188196894Y-118027426D02*
X188173481Y-117973746D01*
X188173481Y-117973746D02*
X188148697Y-117946221D01*
X188148697Y-117946221D02*
X188097759Y-117917325D01*
X188097759Y-117917325D02*
X187653131Y-117894023D01*
X187664096Y-117684787D02*
X187681916Y-117344777D01*
X187681916Y-117344777D02*
X187881557Y-117538825D01*
X187881557Y-117538825D02*
X187885669Y-117460361D01*
X187885669Y-117460361D02*
X187914565Y-117409423D01*
X187914565Y-117409423D02*
X187942091Y-117384639D01*
X187942091Y-117384639D02*
X187995771Y-117361226D01*
X187995771Y-117361226D02*
X188126543Y-117368079D01*
X188126543Y-117368079D02*
X188177482Y-117396975D01*
X188177482Y-117396975D02*
X188202266Y-117424500D01*
X188202266Y-117424500D02*
X188225679Y-117478180D01*
X188225679Y-117478180D02*
X188217455Y-117635108D01*
X188217455Y-117635108D02*
X188188559Y-117686046D01*
X188188559Y-117686046D02*
X188161033Y-117710830D01*
X216773533Y-106775800D02*
X216590199Y-106513895D01*
X216459247Y-106775800D02*
X216459247Y-106225800D01*
X216459247Y-106225800D02*
X216668771Y-106225800D01*
X216668771Y-106225800D02*
X216721152Y-106251990D01*
X216721152Y-106251990D02*
X216747342Y-106278181D01*
X216747342Y-106278181D02*
X216773533Y-106330562D01*
X216773533Y-106330562D02*
X216773533Y-106409133D01*
X216773533Y-106409133D02*
X216747342Y-106461514D01*
X216747342Y-106461514D02*
X216721152Y-106487705D01*
X216721152Y-106487705D02*
X216668771Y-106513895D01*
X216668771Y-106513895D02*
X216459247Y-106513895D01*
X217244961Y-106225800D02*
X217140199Y-106225800D01*
X217140199Y-106225800D02*
X217087818Y-106251990D01*
X217087818Y-106251990D02*
X217061628Y-106278181D01*
X217061628Y-106278181D02*
X217009247Y-106356752D01*
X217009247Y-106356752D02*
X216983056Y-106461514D01*
X216983056Y-106461514D02*
X216983056Y-106671038D01*
X216983056Y-106671038D02*
X217009247Y-106723419D01*
X217009247Y-106723419D02*
X217035437Y-106749610D01*
X217035437Y-106749610D02*
X217087818Y-106775800D01*
X217087818Y-106775800D02*
X217192580Y-106775800D01*
X217192580Y-106775800D02*
X217244961Y-106749610D01*
X217244961Y-106749610D02*
X217271152Y-106723419D01*
X217271152Y-106723419D02*
X217297342Y-106671038D01*
X217297342Y-106671038D02*
X217297342Y-106540086D01*
X217297342Y-106540086D02*
X217271152Y-106487705D01*
X217271152Y-106487705D02*
X217244961Y-106461514D01*
X217244961Y-106461514D02*
X217192580Y-106435324D01*
X217192580Y-106435324D02*
X217087818Y-106435324D01*
X217087818Y-106435324D02*
X217035437Y-106461514D01*
X217035437Y-106461514D02*
X217009247Y-106487705D01*
X217009247Y-106487705D02*
X216983056Y-106540086D01*
X243723979Y-129647750D02*
X243802551Y-129673940D01*
X243802551Y-129673940D02*
X243933503Y-129673940D01*
X243933503Y-129673940D02*
X243985884Y-129647750D01*
X243985884Y-129647750D02*
X244012075Y-129621559D01*
X244012075Y-129621559D02*
X244038265Y-129569178D01*
X244038265Y-129569178D02*
X244038265Y-129516797D01*
X244038265Y-129516797D02*
X244012075Y-129464416D01*
X244012075Y-129464416D02*
X243985884Y-129438226D01*
X243985884Y-129438226D02*
X243933503Y-129412035D01*
X243933503Y-129412035D02*
X243828741Y-129385845D01*
X243828741Y-129385845D02*
X243776360Y-129359654D01*
X243776360Y-129359654D02*
X243750170Y-129333464D01*
X243750170Y-129333464D02*
X243723979Y-129281083D01*
X243723979Y-129281083D02*
X243723979Y-129228702D01*
X243723979Y-129228702D02*
X243750170Y-129176321D01*
X243750170Y-129176321D02*
X243776360Y-129150130D01*
X243776360Y-129150130D02*
X243828741Y-129123940D01*
X243828741Y-129123940D02*
X243959694Y-129123940D01*
X243959694Y-129123940D02*
X244038265Y-129150130D01*
X244221599Y-129123940D02*
X244352551Y-129673940D01*
X244352551Y-129673940D02*
X244457313Y-129281083D01*
X244457313Y-129281083D02*
X244562075Y-129673940D01*
X244562075Y-129673940D02*
X244693028Y-129123940D01*
X244876360Y-129176321D02*
X244902551Y-129150130D01*
X244902551Y-129150130D02*
X244954932Y-129123940D01*
X244954932Y-129123940D02*
X245085884Y-129123940D01*
X245085884Y-129123940D02*
X245138265Y-129150130D01*
X245138265Y-129150130D02*
X245164456Y-129176321D01*
X245164456Y-129176321D02*
X245190646Y-129228702D01*
X245190646Y-129228702D02*
X245190646Y-129281083D01*
X245190646Y-129281083D02*
X245164456Y-129359654D01*
X245164456Y-129359654D02*
X244850170Y-129673940D01*
X244850170Y-129673940D02*
X245190646Y-129673940D01*
X235679219Y-105128571D02*
X235705410Y-105154762D01*
X235705410Y-105154762D02*
X235731600Y-105233333D01*
X235731600Y-105233333D02*
X235731600Y-105285714D01*
X235731600Y-105285714D02*
X235705410Y-105364286D01*
X235705410Y-105364286D02*
X235653029Y-105416667D01*
X235653029Y-105416667D02*
X235600648Y-105442857D01*
X235600648Y-105442857D02*
X235495886Y-105469048D01*
X235495886Y-105469048D02*
X235417314Y-105469048D01*
X235417314Y-105469048D02*
X235312552Y-105442857D01*
X235312552Y-105442857D02*
X235260171Y-105416667D01*
X235260171Y-105416667D02*
X235207790Y-105364286D01*
X235207790Y-105364286D02*
X235181600Y-105285714D01*
X235181600Y-105285714D02*
X235181600Y-105233333D01*
X235181600Y-105233333D02*
X235207790Y-105154762D01*
X235207790Y-105154762D02*
X235233981Y-105128571D01*
X235731600Y-104604762D02*
X235731600Y-104919048D01*
X235731600Y-104761905D02*
X235181600Y-104761905D01*
X235181600Y-104761905D02*
X235260171Y-104814286D01*
X235260171Y-104814286D02*
X235312552Y-104866667D01*
X235312552Y-104866667D02*
X235338743Y-104919048D01*
X235181600Y-104107142D02*
X235181600Y-104369047D01*
X235181600Y-104369047D02*
X235443505Y-104395238D01*
X235443505Y-104395238D02*
X235417314Y-104369047D01*
X235417314Y-104369047D02*
X235391124Y-104316666D01*
X235391124Y-104316666D02*
X235391124Y-104185714D01*
X235391124Y-104185714D02*
X235417314Y-104133333D01*
X235417314Y-104133333D02*
X235443505Y-104107142D01*
X235443505Y-104107142D02*
X235495886Y-104080952D01*
X235495886Y-104080952D02*
X235626838Y-104080952D01*
X235626838Y-104080952D02*
X235679219Y-104107142D01*
X235679219Y-104107142D02*
X235705410Y-104133333D01*
X235705410Y-104133333D02*
X235731600Y-104185714D01*
X235731600Y-104185714D02*
X235731600Y-104316666D01*
X235731600Y-104316666D02*
X235705410Y-104369047D01*
X235705410Y-104369047D02*
X235679219Y-104395238D01*
X212871600Y-126185171D02*
X212609695Y-126368505D01*
X212871600Y-126499457D02*
X212321600Y-126499457D01*
X212321600Y-126499457D02*
X212321600Y-126289933D01*
X212321600Y-126289933D02*
X212347790Y-126237552D01*
X212347790Y-126237552D02*
X212373981Y-126211362D01*
X212373981Y-126211362D02*
X212426362Y-126185171D01*
X212426362Y-126185171D02*
X212504933Y-126185171D01*
X212504933Y-126185171D02*
X212557314Y-126211362D01*
X212557314Y-126211362D02*
X212583505Y-126237552D01*
X212583505Y-126237552D02*
X212609695Y-126289933D01*
X212609695Y-126289933D02*
X212609695Y-126499457D01*
X212321600Y-126001838D02*
X212321600Y-125661362D01*
X212321600Y-125661362D02*
X212531124Y-125844695D01*
X212531124Y-125844695D02*
X212531124Y-125766124D01*
X212531124Y-125766124D02*
X212557314Y-125713743D01*
X212557314Y-125713743D02*
X212583505Y-125687552D01*
X212583505Y-125687552D02*
X212635886Y-125661362D01*
X212635886Y-125661362D02*
X212766838Y-125661362D01*
X212766838Y-125661362D02*
X212819219Y-125687552D01*
X212819219Y-125687552D02*
X212845410Y-125713743D01*
X212845410Y-125713743D02*
X212871600Y-125766124D01*
X212871600Y-125766124D02*
X212871600Y-125923267D01*
X212871600Y-125923267D02*
X212845410Y-125975648D01*
X212845410Y-125975648D02*
X212819219Y-126001838D01*
X212504933Y-125189933D02*
X212871600Y-125189933D01*
X212295410Y-125320885D02*
X212688267Y-125451838D01*
X212688267Y-125451838D02*
X212688267Y-125111361D01*
X228645000Y-105712771D02*
X228383095Y-105896105D01*
X228645000Y-106027057D02*
X228095000Y-106027057D01*
X228095000Y-106027057D02*
X228095000Y-105817533D01*
X228095000Y-105817533D02*
X228121190Y-105765152D01*
X228121190Y-105765152D02*
X228147381Y-105738962D01*
X228147381Y-105738962D02*
X228199762Y-105712771D01*
X228199762Y-105712771D02*
X228278333Y-105712771D01*
X228278333Y-105712771D02*
X228330714Y-105738962D01*
X228330714Y-105738962D02*
X228356905Y-105765152D01*
X228356905Y-105765152D02*
X228383095Y-105817533D01*
X228383095Y-105817533D02*
X228383095Y-106027057D01*
X228645000Y-105188962D02*
X228645000Y-105503248D01*
X228645000Y-105346105D02*
X228095000Y-105346105D01*
X228095000Y-105346105D02*
X228173571Y-105398486D01*
X228173571Y-105398486D02*
X228225952Y-105450867D01*
X228225952Y-105450867D02*
X228252143Y-105503248D01*
X228147381Y-104979438D02*
X228121190Y-104953247D01*
X228121190Y-104953247D02*
X228095000Y-104900866D01*
X228095000Y-104900866D02*
X228095000Y-104769914D01*
X228095000Y-104769914D02*
X228121190Y-104717533D01*
X228121190Y-104717533D02*
X228147381Y-104691342D01*
X228147381Y-104691342D02*
X228199762Y-104665152D01*
X228199762Y-104665152D02*
X228252143Y-104665152D01*
X228252143Y-104665152D02*
X228330714Y-104691342D01*
X228330714Y-104691342D02*
X228645000Y-105005628D01*
X228645000Y-105005628D02*
X228645000Y-104665152D01*
X199826647Y-117757400D02*
X199826647Y-118202638D01*
X199826647Y-118202638D02*
X199852837Y-118255019D01*
X199852837Y-118255019D02*
X199879028Y-118281210D01*
X199879028Y-118281210D02*
X199931409Y-118307400D01*
X199931409Y-118307400D02*
X200036171Y-118307400D01*
X200036171Y-118307400D02*
X200088552Y-118281210D01*
X200088552Y-118281210D02*
X200114742Y-118255019D01*
X200114742Y-118255019D02*
X200140933Y-118202638D01*
X200140933Y-118202638D02*
X200140933Y-117757400D01*
X200690932Y-118307400D02*
X200376646Y-118307400D01*
X200533789Y-118307400D02*
X200533789Y-117757400D01*
X200533789Y-117757400D02*
X200481408Y-117835971D01*
X200481408Y-117835971D02*
X200429027Y-117888352D01*
X200429027Y-117888352D02*
X200376646Y-117914543D01*
X201031409Y-117757400D02*
X201083790Y-117757400D01*
X201083790Y-117757400D02*
X201136171Y-117783590D01*
X201136171Y-117783590D02*
X201162361Y-117809781D01*
X201162361Y-117809781D02*
X201188552Y-117862162D01*
X201188552Y-117862162D02*
X201214742Y-117966924D01*
X201214742Y-117966924D02*
X201214742Y-118097876D01*
X201214742Y-118097876D02*
X201188552Y-118202638D01*
X201188552Y-118202638D02*
X201162361Y-118255019D01*
X201162361Y-118255019D02*
X201136171Y-118281210D01*
X201136171Y-118281210D02*
X201083790Y-118307400D01*
X201083790Y-118307400D02*
X201031409Y-118307400D01*
X201031409Y-118307400D02*
X200979028Y-118281210D01*
X200979028Y-118281210D02*
X200952837Y-118255019D01*
X200952837Y-118255019D02*
X200926647Y-118202638D01*
X200926647Y-118202638D02*
X200900456Y-118097876D01*
X200900456Y-118097876D02*
X200900456Y-117966924D01*
X200900456Y-117966924D02*
X200926647Y-117862162D01*
X200926647Y-117862162D02*
X200952837Y-117809781D01*
X200952837Y-117809781D02*
X200979028Y-117783590D01*
X200979028Y-117783590D02*
X201031409Y-117757400D01*
X215486219Y-98651571D02*
X215512410Y-98677762D01*
X215512410Y-98677762D02*
X215538600Y-98756333D01*
X215538600Y-98756333D02*
X215538600Y-98808714D01*
X215538600Y-98808714D02*
X215512410Y-98887286D01*
X215512410Y-98887286D02*
X215460029Y-98939667D01*
X215460029Y-98939667D02*
X215407648Y-98965857D01*
X215407648Y-98965857D02*
X215302886Y-98992048D01*
X215302886Y-98992048D02*
X215224314Y-98992048D01*
X215224314Y-98992048D02*
X215119552Y-98965857D01*
X215119552Y-98965857D02*
X215067171Y-98939667D01*
X215067171Y-98939667D02*
X215014790Y-98887286D01*
X215014790Y-98887286D02*
X214988600Y-98808714D01*
X214988600Y-98808714D02*
X214988600Y-98756333D01*
X214988600Y-98756333D02*
X215014790Y-98677762D01*
X215014790Y-98677762D02*
X215040981Y-98651571D01*
X215040981Y-98442048D02*
X215014790Y-98415857D01*
X215014790Y-98415857D02*
X214988600Y-98363476D01*
X214988600Y-98363476D02*
X214988600Y-98232524D01*
X214988600Y-98232524D02*
X215014790Y-98180143D01*
X215014790Y-98180143D02*
X215040981Y-98153952D01*
X215040981Y-98153952D02*
X215093362Y-98127762D01*
X215093362Y-98127762D02*
X215145743Y-98127762D01*
X215145743Y-98127762D02*
X215224314Y-98153952D01*
X215224314Y-98153952D02*
X215538600Y-98468238D01*
X215538600Y-98468238D02*
X215538600Y-98127762D01*
X215040981Y-97918238D02*
X215014790Y-97892047D01*
X215014790Y-97892047D02*
X214988600Y-97839666D01*
X214988600Y-97839666D02*
X214988600Y-97708714D01*
X214988600Y-97708714D02*
X215014790Y-97656333D01*
X215014790Y-97656333D02*
X215040981Y-97630142D01*
X215040981Y-97630142D02*
X215093362Y-97603952D01*
X215093362Y-97603952D02*
X215145743Y-97603952D01*
X215145743Y-97603952D02*
X215224314Y-97630142D01*
X215224314Y-97630142D02*
X215538600Y-97944428D01*
X215538600Y-97944428D02*
X215538600Y-97603952D01*
X258905466Y-121405410D02*
X258984038Y-121431600D01*
X258984038Y-121431600D02*
X259114990Y-121431600D01*
X259114990Y-121431600D02*
X259167371Y-121405410D01*
X259167371Y-121405410D02*
X259193562Y-121379219D01*
X259193562Y-121379219D02*
X259219752Y-121326838D01*
X259219752Y-121326838D02*
X259219752Y-121274457D01*
X259219752Y-121274457D02*
X259193562Y-121222076D01*
X259193562Y-121222076D02*
X259167371Y-121195886D01*
X259167371Y-121195886D02*
X259114990Y-121169695D01*
X259114990Y-121169695D02*
X259010228Y-121143505D01*
X259010228Y-121143505D02*
X258957847Y-121117314D01*
X258957847Y-121117314D02*
X258931657Y-121091124D01*
X258931657Y-121091124D02*
X258905466Y-121038743D01*
X258905466Y-121038743D02*
X258905466Y-120986362D01*
X258905466Y-120986362D02*
X258931657Y-120933981D01*
X258931657Y-120933981D02*
X258957847Y-120907790D01*
X258957847Y-120907790D02*
X259010228Y-120881600D01*
X259010228Y-120881600D02*
X259141181Y-120881600D01*
X259141181Y-120881600D02*
X259219752Y-120907790D01*
X259403086Y-120881600D02*
X259534038Y-121431600D01*
X259534038Y-121431600D02*
X259638800Y-121038743D01*
X259638800Y-121038743D02*
X259743562Y-121431600D01*
X259743562Y-121431600D02*
X259874515Y-120881600D01*
X260372133Y-121431600D02*
X260057847Y-121431600D01*
X260214990Y-121431600D02*
X260214990Y-120881600D01*
X260214990Y-120881600D02*
X260162609Y-120960171D01*
X260162609Y-120960171D02*
X260110228Y-121012552D01*
X260110228Y-121012552D02*
X260057847Y-121038743D01*
X200281028Y-112311419D02*
X200254837Y-112337610D01*
X200254837Y-112337610D02*
X200176266Y-112363800D01*
X200176266Y-112363800D02*
X200123885Y-112363800D01*
X200123885Y-112363800D02*
X200045313Y-112337610D01*
X200045313Y-112337610D02*
X199992932Y-112285229D01*
X199992932Y-112285229D02*
X199966742Y-112232848D01*
X199966742Y-112232848D02*
X199940551Y-112128086D01*
X199940551Y-112128086D02*
X199940551Y-112049514D01*
X199940551Y-112049514D02*
X199966742Y-111944752D01*
X199966742Y-111944752D02*
X199992932Y-111892371D01*
X199992932Y-111892371D02*
X200045313Y-111839990D01*
X200045313Y-111839990D02*
X200123885Y-111813800D01*
X200123885Y-111813800D02*
X200176266Y-111813800D01*
X200176266Y-111813800D02*
X200254837Y-111839990D01*
X200254837Y-111839990D02*
X200281028Y-111866181D01*
X200804837Y-112363800D02*
X200490551Y-112363800D01*
X200647694Y-112363800D02*
X200647694Y-111813800D01*
X200647694Y-111813800D02*
X200595313Y-111892371D01*
X200595313Y-111892371D02*
X200542932Y-111944752D01*
X200542932Y-111944752D02*
X200490551Y-111970943D01*
X201014361Y-111866181D02*
X201040552Y-111839990D01*
X201040552Y-111839990D02*
X201092933Y-111813800D01*
X201092933Y-111813800D02*
X201223885Y-111813800D01*
X201223885Y-111813800D02*
X201276266Y-111839990D01*
X201276266Y-111839990D02*
X201302457Y-111866181D01*
X201302457Y-111866181D02*
X201328647Y-111918562D01*
X201328647Y-111918562D02*
X201328647Y-111970943D01*
X201328647Y-111970943D02*
X201302457Y-112049514D01*
X201302457Y-112049514D02*
X200988171Y-112363800D01*
X200988171Y-112363800D02*
X201328647Y-112363800D01*
X216463647Y-94008400D02*
X216463647Y-94453638D01*
X216463647Y-94453638D02*
X216489837Y-94506019D01*
X216489837Y-94506019D02*
X216516028Y-94532210D01*
X216516028Y-94532210D02*
X216568409Y-94558400D01*
X216568409Y-94558400D02*
X216673171Y-94558400D01*
X216673171Y-94558400D02*
X216725552Y-94532210D01*
X216725552Y-94532210D02*
X216751742Y-94506019D01*
X216751742Y-94506019D02*
X216777933Y-94453638D01*
X216777933Y-94453638D02*
X216777933Y-94008400D01*
X217327932Y-94558400D02*
X217013646Y-94558400D01*
X217170789Y-94558400D02*
X217170789Y-94008400D01*
X217170789Y-94008400D02*
X217118408Y-94086971D01*
X217118408Y-94086971D02*
X217066027Y-94139352D01*
X217066027Y-94139352D02*
X217013646Y-94165543D01*
X217511266Y-94008400D02*
X217851742Y-94008400D01*
X217851742Y-94008400D02*
X217668409Y-94217924D01*
X217668409Y-94217924D02*
X217746980Y-94217924D01*
X217746980Y-94217924D02*
X217799361Y-94244114D01*
X217799361Y-94244114D02*
X217825552Y-94270305D01*
X217825552Y-94270305D02*
X217851742Y-94322686D01*
X217851742Y-94322686D02*
X217851742Y-94453638D01*
X217851742Y-94453638D02*
X217825552Y-94506019D01*
X217825552Y-94506019D02*
X217799361Y-94532210D01*
X217799361Y-94532210D02*
X217746980Y-94558400D01*
X217746980Y-94558400D02*
X217589837Y-94558400D01*
X217589837Y-94558400D02*
X217537456Y-94532210D01*
X217537456Y-94532210D02*
X217511266Y-94506019D01*
X209497619Y-127402181D02*
X209445238Y-127375990D01*
X209445238Y-127375990D02*
X209392857Y-127323610D01*
X209392857Y-127323610D02*
X209314285Y-127245038D01*
X209314285Y-127245038D02*
X209261904Y-127218848D01*
X209261904Y-127218848D02*
X209209523Y-127218848D01*
X209235714Y-127349800D02*
X209183333Y-127323610D01*
X209183333Y-127323610D02*
X209130952Y-127271229D01*
X209130952Y-127271229D02*
X209104761Y-127166467D01*
X209104761Y-127166467D02*
X209104761Y-126983133D01*
X209104761Y-126983133D02*
X209130952Y-126878371D01*
X209130952Y-126878371D02*
X209183333Y-126825990D01*
X209183333Y-126825990D02*
X209235714Y-126799800D01*
X209235714Y-126799800D02*
X209340476Y-126799800D01*
X209340476Y-126799800D02*
X209392857Y-126825990D01*
X209392857Y-126825990D02*
X209445238Y-126878371D01*
X209445238Y-126878371D02*
X209471428Y-126983133D01*
X209471428Y-126983133D02*
X209471428Y-127166467D01*
X209471428Y-127166467D02*
X209445238Y-127271229D01*
X209445238Y-127271229D02*
X209392857Y-127323610D01*
X209392857Y-127323610D02*
X209340476Y-127349800D01*
X209340476Y-127349800D02*
X209235714Y-127349800D01*
X209995237Y-127349800D02*
X209680951Y-127349800D01*
X209838094Y-127349800D02*
X209838094Y-126799800D01*
X209838094Y-126799800D02*
X209785713Y-126878371D01*
X209785713Y-126878371D02*
X209733332Y-126930752D01*
X209733332Y-126930752D02*
X209680951Y-126956943D01*
X273408866Y-117874810D02*
X273487438Y-117901000D01*
X273487438Y-117901000D02*
X273618390Y-117901000D01*
X273618390Y-117901000D02*
X273670771Y-117874810D01*
X273670771Y-117874810D02*
X273696962Y-117848619D01*
X273696962Y-117848619D02*
X273723152Y-117796238D01*
X273723152Y-117796238D02*
X273723152Y-117743857D01*
X273723152Y-117743857D02*
X273696962Y-117691476D01*
X273696962Y-117691476D02*
X273670771Y-117665286D01*
X273670771Y-117665286D02*
X273618390Y-117639095D01*
X273618390Y-117639095D02*
X273513628Y-117612905D01*
X273513628Y-117612905D02*
X273461247Y-117586714D01*
X273461247Y-117586714D02*
X273435057Y-117560524D01*
X273435057Y-117560524D02*
X273408866Y-117508143D01*
X273408866Y-117508143D02*
X273408866Y-117455762D01*
X273408866Y-117455762D02*
X273435057Y-117403381D01*
X273435057Y-117403381D02*
X273461247Y-117377190D01*
X273461247Y-117377190D02*
X273513628Y-117351000D01*
X273513628Y-117351000D02*
X273644581Y-117351000D01*
X273644581Y-117351000D02*
X273723152Y-117377190D01*
X273906486Y-117351000D02*
X274037438Y-117901000D01*
X274037438Y-117901000D02*
X274142200Y-117508143D01*
X274142200Y-117508143D02*
X274246962Y-117901000D01*
X274246962Y-117901000D02*
X274377915Y-117351000D01*
X274535057Y-117351000D02*
X274875533Y-117351000D01*
X274875533Y-117351000D02*
X274692200Y-117560524D01*
X274692200Y-117560524D02*
X274770771Y-117560524D01*
X274770771Y-117560524D02*
X274823152Y-117586714D01*
X274823152Y-117586714D02*
X274849343Y-117612905D01*
X274849343Y-117612905D02*
X274875533Y-117665286D01*
X274875533Y-117665286D02*
X274875533Y-117796238D01*
X274875533Y-117796238D02*
X274849343Y-117848619D01*
X274849343Y-117848619D02*
X274823152Y-117874810D01*
X274823152Y-117874810D02*
X274770771Y-117901000D01*
X274770771Y-117901000D02*
X274613628Y-117901000D01*
X274613628Y-117901000D02*
X274561247Y-117874810D01*
X274561247Y-117874810D02*
X274535057Y-117848619D01*
X213996428Y-108545819D02*
X213970237Y-108572010D01*
X213970237Y-108572010D02*
X213891666Y-108598200D01*
X213891666Y-108598200D02*
X213839285Y-108598200D01*
X213839285Y-108598200D02*
X213760713Y-108572010D01*
X213760713Y-108572010D02*
X213708332Y-108519629D01*
X213708332Y-108519629D02*
X213682142Y-108467248D01*
X213682142Y-108467248D02*
X213655951Y-108362486D01*
X213655951Y-108362486D02*
X213655951Y-108283914D01*
X213655951Y-108283914D02*
X213682142Y-108179152D01*
X213682142Y-108179152D02*
X213708332Y-108126771D01*
X213708332Y-108126771D02*
X213760713Y-108074390D01*
X213760713Y-108074390D02*
X213839285Y-108048200D01*
X213839285Y-108048200D02*
X213891666Y-108048200D01*
X213891666Y-108048200D02*
X213970237Y-108074390D01*
X213970237Y-108074390D02*
X213996428Y-108100581D01*
X214520237Y-108598200D02*
X214205951Y-108598200D01*
X214363094Y-108598200D02*
X214363094Y-108048200D01*
X214363094Y-108048200D02*
X214310713Y-108126771D01*
X214310713Y-108126771D02*
X214258332Y-108179152D01*
X214258332Y-108179152D02*
X214205951Y-108205343D01*
X215044047Y-108598200D02*
X214729761Y-108598200D01*
X214886904Y-108598200D02*
X214886904Y-108048200D01*
X214886904Y-108048200D02*
X214834523Y-108126771D01*
X214834523Y-108126771D02*
X214782142Y-108179152D01*
X214782142Y-108179152D02*
X214729761Y-108205343D01*
X215177894Y-120441266D02*
X215177894Y-120257933D01*
X214889799Y-120257933D02*
X215439799Y-120257933D01*
X215439799Y-120257933D02*
X215439799Y-120519838D01*
X214889799Y-121017457D02*
X214889799Y-120703171D01*
X214889799Y-120860314D02*
X215439799Y-120860314D01*
X215439799Y-120860314D02*
X215361228Y-120807933D01*
X215361228Y-120807933D02*
X215308847Y-120755552D01*
X215308847Y-120755552D02*
X215282656Y-120703171D01*
X190345951Y-126600200D02*
X190660237Y-126600200D01*
X190503094Y-127150200D02*
X190503094Y-126600200D01*
X190843571Y-127150200D02*
X190843571Y-126600200D01*
X190843571Y-126600200D02*
X191053095Y-126600200D01*
X191053095Y-126600200D02*
X191105476Y-126626390D01*
X191105476Y-126626390D02*
X191131666Y-126652581D01*
X191131666Y-126652581D02*
X191157857Y-126704962D01*
X191157857Y-126704962D02*
X191157857Y-126783533D01*
X191157857Y-126783533D02*
X191131666Y-126835914D01*
X191131666Y-126835914D02*
X191105476Y-126862105D01*
X191105476Y-126862105D02*
X191053095Y-126888295D01*
X191053095Y-126888295D02*
X190843571Y-126888295D01*
X191629285Y-126783533D02*
X191629285Y-127150200D01*
X191498333Y-126574010D02*
X191367380Y-126966867D01*
X191367380Y-126966867D02*
X191707857Y-126966867D01*
X234017580Y-97545933D02*
X233991390Y-97519742D01*
X233991390Y-97519742D02*
X233965199Y-97441171D01*
X233965199Y-97441171D02*
X233965199Y-97388790D01*
X233965199Y-97388790D02*
X233991390Y-97310218D01*
X233991390Y-97310218D02*
X234043770Y-97257837D01*
X234043770Y-97257837D02*
X234096151Y-97231647D01*
X234096151Y-97231647D02*
X234200913Y-97205456D01*
X234200913Y-97205456D02*
X234279485Y-97205456D01*
X234279485Y-97205456D02*
X234384247Y-97231647D01*
X234384247Y-97231647D02*
X234436628Y-97257837D01*
X234436628Y-97257837D02*
X234489009Y-97310218D01*
X234489009Y-97310218D02*
X234515199Y-97388790D01*
X234515199Y-97388790D02*
X234515199Y-97441171D01*
X234515199Y-97441171D02*
X234489009Y-97519742D01*
X234489009Y-97519742D02*
X234462818Y-97545933D01*
X234515199Y-97729266D02*
X234515199Y-98069742D01*
X234515199Y-98069742D02*
X234305675Y-97886409D01*
X234305675Y-97886409D02*
X234305675Y-97964980D01*
X234305675Y-97964980D02*
X234279485Y-98017361D01*
X234279485Y-98017361D02*
X234253294Y-98043552D01*
X234253294Y-98043552D02*
X234200913Y-98069742D01*
X234200913Y-98069742D02*
X234069961Y-98069742D01*
X234069961Y-98069742D02*
X234017580Y-98043552D01*
X234017580Y-98043552D02*
X233991390Y-98017361D01*
X233991390Y-98017361D02*
X233965199Y-97964980D01*
X233965199Y-97964980D02*
X233965199Y-97807837D01*
X233965199Y-97807837D02*
X233991390Y-97755456D01*
X233991390Y-97755456D02*
X234017580Y-97729266D01*
D11*
X213024819Y-88432857D02*
X212548628Y-88766190D01*
X213024819Y-89004285D02*
X212024819Y-89004285D01*
X212024819Y-89004285D02*
X212024819Y-88623333D01*
X212024819Y-88623333D02*
X212072438Y-88528095D01*
X212072438Y-88528095D02*
X212120057Y-88480476D01*
X212120057Y-88480476D02*
X212215295Y-88432857D01*
X212215295Y-88432857D02*
X212358152Y-88432857D01*
X212358152Y-88432857D02*
X212453390Y-88480476D01*
X212453390Y-88480476D02*
X212501009Y-88528095D01*
X212501009Y-88528095D02*
X212548628Y-88623333D01*
X212548628Y-88623333D02*
X212548628Y-89004285D01*
X212120057Y-88051904D02*
X212072438Y-88004285D01*
X212072438Y-88004285D02*
X212024819Y-87909047D01*
X212024819Y-87909047D02*
X212024819Y-87670952D01*
X212024819Y-87670952D02*
X212072438Y-87575714D01*
X212072438Y-87575714D02*
X212120057Y-87528095D01*
X212120057Y-87528095D02*
X212215295Y-87480476D01*
X212215295Y-87480476D02*
X212310533Y-87480476D01*
X212310533Y-87480476D02*
X212453390Y-87528095D01*
X212453390Y-87528095D02*
X213024819Y-88099523D01*
X213024819Y-88099523D02*
X213024819Y-87480476D01*
X213024819Y-86528095D02*
X213024819Y-87099523D01*
X213024819Y-86813809D02*
X212024819Y-86813809D01*
X212024819Y-86813809D02*
X212167676Y-86909047D01*
X212167676Y-86909047D02*
X212262914Y-87004285D01*
X212262914Y-87004285D02*
X212310533Y-87099523D01*
D10*
X212959399Y-105002933D02*
X213221304Y-104819599D01*
X212959399Y-104688647D02*
X213509399Y-104688647D01*
X213509399Y-104688647D02*
X213509399Y-104898171D01*
X213509399Y-104898171D02*
X213483209Y-104950552D01*
X213483209Y-104950552D02*
X213457018Y-104976742D01*
X213457018Y-104976742D02*
X213404637Y-105002933D01*
X213404637Y-105002933D02*
X213326066Y-105002933D01*
X213326066Y-105002933D02*
X213273685Y-104976742D01*
X213273685Y-104976742D02*
X213247494Y-104950552D01*
X213247494Y-104950552D02*
X213221304Y-104898171D01*
X213221304Y-104898171D02*
X213221304Y-104688647D01*
X212959399Y-105264837D02*
X212959399Y-105369599D01*
X212959399Y-105369599D02*
X212985590Y-105421980D01*
X212985590Y-105421980D02*
X213011780Y-105448171D01*
X213011780Y-105448171D02*
X213090351Y-105500552D01*
X213090351Y-105500552D02*
X213195113Y-105526742D01*
X213195113Y-105526742D02*
X213404637Y-105526742D01*
X213404637Y-105526742D02*
X213457018Y-105500552D01*
X213457018Y-105500552D02*
X213483209Y-105474361D01*
X213483209Y-105474361D02*
X213509399Y-105421980D01*
X213509399Y-105421980D02*
X213509399Y-105317218D01*
X213509399Y-105317218D02*
X213483209Y-105264837D01*
X213483209Y-105264837D02*
X213457018Y-105238647D01*
X213457018Y-105238647D02*
X213404637Y-105212456D01*
X213404637Y-105212456D02*
X213273685Y-105212456D01*
X213273685Y-105212456D02*
X213221304Y-105238647D01*
X213221304Y-105238647D02*
X213195113Y-105264837D01*
X213195113Y-105264837D02*
X213168923Y-105317218D01*
X213168923Y-105317218D02*
X213168923Y-105421980D01*
X213168923Y-105421980D02*
X213195113Y-105474361D01*
X213195113Y-105474361D02*
X213221304Y-105500552D01*
X213221304Y-105500552D02*
X213273685Y-105526742D01*
X231100178Y-116985104D02*
X230916844Y-116723199D01*
X230785892Y-116985104D02*
X230785892Y-116435104D01*
X230785892Y-116435104D02*
X230995416Y-116435104D01*
X230995416Y-116435104D02*
X231047797Y-116461294D01*
X231047797Y-116461294D02*
X231073987Y-116487485D01*
X231073987Y-116487485D02*
X231100178Y-116539866D01*
X231100178Y-116539866D02*
X231100178Y-116618437D01*
X231100178Y-116618437D02*
X231073987Y-116670818D01*
X231073987Y-116670818D02*
X231047797Y-116697009D01*
X231047797Y-116697009D02*
X230995416Y-116723199D01*
X230995416Y-116723199D02*
X230785892Y-116723199D01*
X231283511Y-116435104D02*
X231623987Y-116435104D01*
X231623987Y-116435104D02*
X231440654Y-116644628D01*
X231440654Y-116644628D02*
X231519225Y-116644628D01*
X231519225Y-116644628D02*
X231571606Y-116670818D01*
X231571606Y-116670818D02*
X231597797Y-116697009D01*
X231597797Y-116697009D02*
X231623987Y-116749390D01*
X231623987Y-116749390D02*
X231623987Y-116880342D01*
X231623987Y-116880342D02*
X231597797Y-116932723D01*
X231597797Y-116932723D02*
X231571606Y-116958914D01*
X231571606Y-116958914D02*
X231519225Y-116985104D01*
X231519225Y-116985104D02*
X231362082Y-116985104D01*
X231362082Y-116985104D02*
X231309701Y-116958914D01*
X231309701Y-116958914D02*
X231283511Y-116932723D01*
X225774800Y-126388371D02*
X225512895Y-126571705D01*
X225774800Y-126702657D02*
X225224800Y-126702657D01*
X225224800Y-126702657D02*
X225224800Y-126493133D01*
X225224800Y-126493133D02*
X225250990Y-126440752D01*
X225250990Y-126440752D02*
X225277181Y-126414562D01*
X225277181Y-126414562D02*
X225329562Y-126388371D01*
X225329562Y-126388371D02*
X225408133Y-126388371D01*
X225408133Y-126388371D02*
X225460514Y-126414562D01*
X225460514Y-126414562D02*
X225486705Y-126440752D01*
X225486705Y-126440752D02*
X225512895Y-126493133D01*
X225512895Y-126493133D02*
X225512895Y-126702657D01*
X225224800Y-126205038D02*
X225224800Y-125864562D01*
X225224800Y-125864562D02*
X225434324Y-126047895D01*
X225434324Y-126047895D02*
X225434324Y-125969324D01*
X225434324Y-125969324D02*
X225460514Y-125916943D01*
X225460514Y-125916943D02*
X225486705Y-125890752D01*
X225486705Y-125890752D02*
X225539086Y-125864562D01*
X225539086Y-125864562D02*
X225670038Y-125864562D01*
X225670038Y-125864562D02*
X225722419Y-125890752D01*
X225722419Y-125890752D02*
X225748610Y-125916943D01*
X225748610Y-125916943D02*
X225774800Y-125969324D01*
X225774800Y-125969324D02*
X225774800Y-126126467D01*
X225774800Y-126126467D02*
X225748610Y-126178848D01*
X225748610Y-126178848D02*
X225722419Y-126205038D01*
X225224800Y-125681228D02*
X225224800Y-125340752D01*
X225224800Y-125340752D02*
X225434324Y-125524085D01*
X225434324Y-125524085D02*
X225434324Y-125445514D01*
X225434324Y-125445514D02*
X225460514Y-125393133D01*
X225460514Y-125393133D02*
X225486705Y-125366942D01*
X225486705Y-125366942D02*
X225539086Y-125340752D01*
X225539086Y-125340752D02*
X225670038Y-125340752D01*
X225670038Y-125340752D02*
X225722419Y-125366942D01*
X225722419Y-125366942D02*
X225748610Y-125393133D01*
X225748610Y-125393133D02*
X225774800Y-125445514D01*
X225774800Y-125445514D02*
X225774800Y-125602657D01*
X225774800Y-125602657D02*
X225748610Y-125655038D01*
X225748610Y-125655038D02*
X225722419Y-125681228D01*
X168830868Y-112155462D02*
X168569323Y-112141755D01*
X168569323Y-112141755D02*
X168598107Y-111592509D01*
X169013839Y-111666749D02*
X169041365Y-111641966D01*
X169041365Y-111641966D02*
X169095044Y-111618552D01*
X169095044Y-111618552D02*
X169225817Y-111625406D01*
X169225817Y-111625406D02*
X169276756Y-111654302D01*
X169276756Y-111654302D02*
X169301540Y-111681827D01*
X169301540Y-111681827D02*
X169324953Y-111735507D01*
X169324953Y-111735507D02*
X169322211Y-111787816D01*
X169322211Y-111787816D02*
X169291945Y-111864909D01*
X169291945Y-111864909D02*
X168961641Y-112162316D01*
X168961641Y-112162316D02*
X169301651Y-112180135D01*
X205361028Y-131718600D02*
X205177694Y-131456695D01*
X205046742Y-131718600D02*
X205046742Y-131168600D01*
X205046742Y-131168600D02*
X205256266Y-131168600D01*
X205256266Y-131168600D02*
X205308647Y-131194790D01*
X205308647Y-131194790D02*
X205334837Y-131220981D01*
X205334837Y-131220981D02*
X205361028Y-131273362D01*
X205361028Y-131273362D02*
X205361028Y-131351933D01*
X205361028Y-131351933D02*
X205334837Y-131404314D01*
X205334837Y-131404314D02*
X205308647Y-131430505D01*
X205308647Y-131430505D02*
X205256266Y-131456695D01*
X205256266Y-131456695D02*
X205046742Y-131456695D01*
X205884837Y-131718600D02*
X205570551Y-131718600D01*
X205727694Y-131718600D02*
X205727694Y-131168600D01*
X205727694Y-131168600D02*
X205675313Y-131247171D01*
X205675313Y-131247171D02*
X205622932Y-131299552D01*
X205622932Y-131299552D02*
X205570551Y-131325743D01*
X206068171Y-131168600D02*
X206434838Y-131168600D01*
X206434838Y-131168600D02*
X206199123Y-131718600D01*
X240766152Y-104272799D02*
X240766152Y-104822799D01*
X240766152Y-104822799D02*
X240635200Y-104822799D01*
X240635200Y-104822799D02*
X240556628Y-104796609D01*
X240556628Y-104796609D02*
X240504247Y-104744228D01*
X240504247Y-104744228D02*
X240478057Y-104691847D01*
X240478057Y-104691847D02*
X240451866Y-104587085D01*
X240451866Y-104587085D02*
X240451866Y-104508513D01*
X240451866Y-104508513D02*
X240478057Y-104403751D01*
X240478057Y-104403751D02*
X240504247Y-104351370D01*
X240504247Y-104351370D02*
X240556628Y-104298990D01*
X240556628Y-104298990D02*
X240635200Y-104272799D01*
X240635200Y-104272799D02*
X240766152Y-104272799D01*
X240268533Y-104822799D02*
X239901866Y-104822799D01*
X239901866Y-104822799D02*
X240137581Y-104272799D01*
X238246200Y-100073971D02*
X237984295Y-100257305D01*
X238246200Y-100388257D02*
X237696200Y-100388257D01*
X237696200Y-100388257D02*
X237696200Y-100178733D01*
X237696200Y-100178733D02*
X237722390Y-100126352D01*
X237722390Y-100126352D02*
X237748581Y-100100162D01*
X237748581Y-100100162D02*
X237800962Y-100073971D01*
X237800962Y-100073971D02*
X237879533Y-100073971D01*
X237879533Y-100073971D02*
X237931914Y-100100162D01*
X237931914Y-100100162D02*
X237958105Y-100126352D01*
X237958105Y-100126352D02*
X237984295Y-100178733D01*
X237984295Y-100178733D02*
X237984295Y-100388257D01*
X237696200Y-99890638D02*
X237696200Y-99550162D01*
X237696200Y-99550162D02*
X237905724Y-99733495D01*
X237905724Y-99733495D02*
X237905724Y-99654924D01*
X237905724Y-99654924D02*
X237931914Y-99602543D01*
X237931914Y-99602543D02*
X237958105Y-99576352D01*
X237958105Y-99576352D02*
X238010486Y-99550162D01*
X238010486Y-99550162D02*
X238141438Y-99550162D01*
X238141438Y-99550162D02*
X238193819Y-99576352D01*
X238193819Y-99576352D02*
X238220010Y-99602543D01*
X238220010Y-99602543D02*
X238246200Y-99654924D01*
X238246200Y-99654924D02*
X238246200Y-99812067D01*
X238246200Y-99812067D02*
X238220010Y-99864448D01*
X238220010Y-99864448D02*
X238193819Y-99890638D01*
X237696200Y-99366828D02*
X237696200Y-99000161D01*
X237696200Y-99000161D02*
X238246200Y-99235876D01*
X205208628Y-126613200D02*
X205025294Y-126351295D01*
X204894342Y-126613200D02*
X204894342Y-126063200D01*
X204894342Y-126063200D02*
X205103866Y-126063200D01*
X205103866Y-126063200D02*
X205156247Y-126089390D01*
X205156247Y-126089390D02*
X205182437Y-126115581D01*
X205182437Y-126115581D02*
X205208628Y-126167962D01*
X205208628Y-126167962D02*
X205208628Y-126246533D01*
X205208628Y-126246533D02*
X205182437Y-126298914D01*
X205182437Y-126298914D02*
X205156247Y-126325105D01*
X205156247Y-126325105D02*
X205103866Y-126351295D01*
X205103866Y-126351295D02*
X204894342Y-126351295D01*
X205732437Y-126613200D02*
X205418151Y-126613200D01*
X205575294Y-126613200D02*
X205575294Y-126063200D01*
X205575294Y-126063200D02*
X205522913Y-126141771D01*
X205522913Y-126141771D02*
X205470532Y-126194152D01*
X205470532Y-126194152D02*
X205418151Y-126220343D01*
X206203866Y-126063200D02*
X206099104Y-126063200D01*
X206099104Y-126063200D02*
X206046723Y-126089390D01*
X206046723Y-126089390D02*
X206020533Y-126115581D01*
X206020533Y-126115581D02*
X205968152Y-126194152D01*
X205968152Y-126194152D02*
X205941961Y-126298914D01*
X205941961Y-126298914D02*
X205941961Y-126508438D01*
X205941961Y-126508438D02*
X205968152Y-126560819D01*
X205968152Y-126560819D02*
X205994342Y-126587010D01*
X205994342Y-126587010D02*
X206046723Y-126613200D01*
X206046723Y-126613200D02*
X206151485Y-126613200D01*
X206151485Y-126613200D02*
X206203866Y-126587010D01*
X206203866Y-126587010D02*
X206230057Y-126560819D01*
X206230057Y-126560819D02*
X206256247Y-126508438D01*
X206256247Y-126508438D02*
X206256247Y-126377486D01*
X206256247Y-126377486D02*
X206230057Y-126325105D01*
X206230057Y-126325105D02*
X206203866Y-126298914D01*
X206203866Y-126298914D02*
X206151485Y-126272724D01*
X206151485Y-126272724D02*
X206046723Y-126272724D01*
X206046723Y-126272724D02*
X205994342Y-126298914D01*
X205994342Y-126298914D02*
X205968152Y-126325105D01*
X205968152Y-126325105D02*
X205941961Y-126377486D01*
X176522652Y-115905726D02*
X176599745Y-115935992D01*
X176599745Y-115935992D02*
X176730518Y-115942846D01*
X176730518Y-115942846D02*
X176784198Y-115919433D01*
X176784198Y-115919433D02*
X176811723Y-115894649D01*
X176811723Y-115894649D02*
X176840619Y-115843710D01*
X176840619Y-115843710D02*
X176843361Y-115791401D01*
X176843361Y-115791401D02*
X176819948Y-115737721D01*
X176819948Y-115737721D02*
X176795164Y-115710196D01*
X176795164Y-115710196D02*
X176744225Y-115681300D01*
X176744225Y-115681300D02*
X176640978Y-115649663D01*
X176640978Y-115649663D02*
X176590039Y-115620767D01*
X176590039Y-115620767D02*
X176565255Y-115593241D01*
X176565255Y-115593241D02*
X176541842Y-115539561D01*
X176541842Y-115539561D02*
X176544584Y-115487252D01*
X176544584Y-115487252D02*
X176573480Y-115436314D01*
X176573480Y-115436314D02*
X176601005Y-115411530D01*
X176601005Y-115411530D02*
X176654685Y-115388117D01*
X176654685Y-115388117D02*
X176785458Y-115394970D01*
X176785458Y-115394970D02*
X176862551Y-115425237D01*
X177047004Y-115408677D02*
X177148992Y-115964777D01*
X177148992Y-115964777D02*
X177274171Y-115577941D01*
X177274171Y-115577941D02*
X177358229Y-115975743D01*
X177358229Y-115975743D02*
X177517786Y-115433350D01*
X177962414Y-115456652D02*
X177857796Y-115451169D01*
X177857796Y-115451169D02*
X177804116Y-115474582D01*
X177804116Y-115474582D02*
X177776590Y-115499366D01*
X177776590Y-115499366D02*
X177720169Y-115575088D01*
X177720169Y-115575088D02*
X177688532Y-115678336D01*
X177688532Y-115678336D02*
X177677566Y-115887573D01*
X177677566Y-115887573D02*
X177700979Y-115941253D01*
X177700979Y-115941253D02*
X177725763Y-115968778D01*
X177725763Y-115968778D02*
X177776702Y-115997674D01*
X177776702Y-115997674D02*
X177881320Y-116003157D01*
X177881320Y-116003157D02*
X177935000Y-115979744D01*
X177935000Y-115979744D02*
X177962525Y-115954960D01*
X177962525Y-115954960D02*
X177991421Y-115904021D01*
X177991421Y-115904021D02*
X177998275Y-115773248D01*
X177998275Y-115773248D02*
X177974861Y-115719568D01*
X177974861Y-115719568D02*
X177950078Y-115692043D01*
X177950078Y-115692043D02*
X177899139Y-115663147D01*
X177899139Y-115663147D02*
X177794521Y-115657664D01*
X177794521Y-115657664D02*
X177740841Y-115681078D01*
X177740841Y-115681078D02*
X177713316Y-115705861D01*
X177713316Y-115705861D02*
X177684420Y-115756800D01*
X216863619Y-128062581D02*
X216811238Y-128036390D01*
X216811238Y-128036390D02*
X216758857Y-127984010D01*
X216758857Y-127984010D02*
X216680285Y-127905438D01*
X216680285Y-127905438D02*
X216627904Y-127879248D01*
X216627904Y-127879248D02*
X216575523Y-127879248D01*
X216601714Y-128010200D02*
X216549333Y-127984010D01*
X216549333Y-127984010D02*
X216496952Y-127931629D01*
X216496952Y-127931629D02*
X216470761Y-127826867D01*
X216470761Y-127826867D02*
X216470761Y-127643533D01*
X216470761Y-127643533D02*
X216496952Y-127538771D01*
X216496952Y-127538771D02*
X216549333Y-127486390D01*
X216549333Y-127486390D02*
X216601714Y-127460200D01*
X216601714Y-127460200D02*
X216706476Y-127460200D01*
X216706476Y-127460200D02*
X216758857Y-127486390D01*
X216758857Y-127486390D02*
X216811238Y-127538771D01*
X216811238Y-127538771D02*
X216837428Y-127643533D01*
X216837428Y-127643533D02*
X216837428Y-127826867D01*
X216837428Y-127826867D02*
X216811238Y-127931629D01*
X216811238Y-127931629D02*
X216758857Y-127984010D01*
X216758857Y-127984010D02*
X216706476Y-128010200D01*
X216706476Y-128010200D02*
X216601714Y-128010200D01*
X217020761Y-127460200D02*
X217387428Y-127460200D01*
X217387428Y-127460200D02*
X217151713Y-128010200D01*
X197207628Y-106640200D02*
X197024294Y-106378295D01*
X196893342Y-106640200D02*
X196893342Y-106090200D01*
X196893342Y-106090200D02*
X197102866Y-106090200D01*
X197102866Y-106090200D02*
X197155247Y-106116390D01*
X197155247Y-106116390D02*
X197181437Y-106142581D01*
X197181437Y-106142581D02*
X197207628Y-106194962D01*
X197207628Y-106194962D02*
X197207628Y-106273533D01*
X197207628Y-106273533D02*
X197181437Y-106325914D01*
X197181437Y-106325914D02*
X197155247Y-106352105D01*
X197155247Y-106352105D02*
X197102866Y-106378295D01*
X197102866Y-106378295D02*
X196893342Y-106378295D01*
X197417151Y-106142581D02*
X197443342Y-106116390D01*
X197443342Y-106116390D02*
X197495723Y-106090200D01*
X197495723Y-106090200D02*
X197626675Y-106090200D01*
X197626675Y-106090200D02*
X197679056Y-106116390D01*
X197679056Y-106116390D02*
X197705247Y-106142581D01*
X197705247Y-106142581D02*
X197731437Y-106194962D01*
X197731437Y-106194962D02*
X197731437Y-106247343D01*
X197731437Y-106247343D02*
X197705247Y-106325914D01*
X197705247Y-106325914D02*
X197390961Y-106640200D01*
X197390961Y-106640200D02*
X197731437Y-106640200D01*
X198071914Y-106090200D02*
X198124295Y-106090200D01*
X198124295Y-106090200D02*
X198176676Y-106116390D01*
X198176676Y-106116390D02*
X198202866Y-106142581D01*
X198202866Y-106142581D02*
X198229057Y-106194962D01*
X198229057Y-106194962D02*
X198255247Y-106299724D01*
X198255247Y-106299724D02*
X198255247Y-106430676D01*
X198255247Y-106430676D02*
X198229057Y-106535438D01*
X198229057Y-106535438D02*
X198202866Y-106587819D01*
X198202866Y-106587819D02*
X198176676Y-106614010D01*
X198176676Y-106614010D02*
X198124295Y-106640200D01*
X198124295Y-106640200D02*
X198071914Y-106640200D01*
X198071914Y-106640200D02*
X198019533Y-106614010D01*
X198019533Y-106614010D02*
X197993342Y-106587819D01*
X197993342Y-106587819D02*
X197967152Y-106535438D01*
X197967152Y-106535438D02*
X197940961Y-106430676D01*
X197940961Y-106430676D02*
X197940961Y-106299724D01*
X197940961Y-106299724D02*
X197967152Y-106194962D01*
X197967152Y-106194962D02*
X197993342Y-106142581D01*
X197993342Y-106142581D02*
X198019533Y-106116390D01*
X198019533Y-106116390D02*
X198071914Y-106090200D01*
X216748133Y-102913419D02*
X216721942Y-102939610D01*
X216721942Y-102939610D02*
X216643371Y-102965800D01*
X216643371Y-102965800D02*
X216590990Y-102965800D01*
X216590990Y-102965800D02*
X216512418Y-102939610D01*
X216512418Y-102939610D02*
X216460037Y-102887229D01*
X216460037Y-102887229D02*
X216433847Y-102834848D01*
X216433847Y-102834848D02*
X216407656Y-102730086D01*
X216407656Y-102730086D02*
X216407656Y-102651514D01*
X216407656Y-102651514D02*
X216433847Y-102546752D01*
X216433847Y-102546752D02*
X216460037Y-102494371D01*
X216460037Y-102494371D02*
X216512418Y-102441990D01*
X216512418Y-102441990D02*
X216590990Y-102415800D01*
X216590990Y-102415800D02*
X216643371Y-102415800D01*
X216643371Y-102415800D02*
X216721942Y-102441990D01*
X216721942Y-102441990D02*
X216748133Y-102468181D01*
X217062418Y-102651514D02*
X217010037Y-102625324D01*
X217010037Y-102625324D02*
X216983847Y-102599133D01*
X216983847Y-102599133D02*
X216957656Y-102546752D01*
X216957656Y-102546752D02*
X216957656Y-102520562D01*
X216957656Y-102520562D02*
X216983847Y-102468181D01*
X216983847Y-102468181D02*
X217010037Y-102441990D01*
X217010037Y-102441990D02*
X217062418Y-102415800D01*
X217062418Y-102415800D02*
X217167180Y-102415800D01*
X217167180Y-102415800D02*
X217219561Y-102441990D01*
X217219561Y-102441990D02*
X217245752Y-102468181D01*
X217245752Y-102468181D02*
X217271942Y-102520562D01*
X217271942Y-102520562D02*
X217271942Y-102546752D01*
X217271942Y-102546752D02*
X217245752Y-102599133D01*
X217245752Y-102599133D02*
X217219561Y-102625324D01*
X217219561Y-102625324D02*
X217167180Y-102651514D01*
X217167180Y-102651514D02*
X217062418Y-102651514D01*
X217062418Y-102651514D02*
X217010037Y-102677705D01*
X217010037Y-102677705D02*
X216983847Y-102703895D01*
X216983847Y-102703895D02*
X216957656Y-102756276D01*
X216957656Y-102756276D02*
X216957656Y-102861038D01*
X216957656Y-102861038D02*
X216983847Y-102913419D01*
X216983847Y-102913419D02*
X217010037Y-102939610D01*
X217010037Y-102939610D02*
X217062418Y-102965800D01*
X217062418Y-102965800D02*
X217167180Y-102965800D01*
X217167180Y-102965800D02*
X217219561Y-102939610D01*
X217219561Y-102939610D02*
X217245752Y-102913419D01*
X217245752Y-102913419D02*
X217271942Y-102861038D01*
X217271942Y-102861038D02*
X217271942Y-102756276D01*
X217271942Y-102756276D02*
X217245752Y-102703895D01*
X217245752Y-102703895D02*
X217219561Y-102677705D01*
X217219561Y-102677705D02*
X217167180Y-102651514D01*
X219245419Y-98575371D02*
X219271610Y-98601562D01*
X219271610Y-98601562D02*
X219297800Y-98680133D01*
X219297800Y-98680133D02*
X219297800Y-98732514D01*
X219297800Y-98732514D02*
X219271610Y-98811086D01*
X219271610Y-98811086D02*
X219219229Y-98863467D01*
X219219229Y-98863467D02*
X219166848Y-98889657D01*
X219166848Y-98889657D02*
X219062086Y-98915848D01*
X219062086Y-98915848D02*
X218983514Y-98915848D01*
X218983514Y-98915848D02*
X218878752Y-98889657D01*
X218878752Y-98889657D02*
X218826371Y-98863467D01*
X218826371Y-98863467D02*
X218773990Y-98811086D01*
X218773990Y-98811086D02*
X218747800Y-98732514D01*
X218747800Y-98732514D02*
X218747800Y-98680133D01*
X218747800Y-98680133D02*
X218773990Y-98601562D01*
X218773990Y-98601562D02*
X218800181Y-98575371D01*
X218800181Y-98365848D02*
X218773990Y-98339657D01*
X218773990Y-98339657D02*
X218747800Y-98287276D01*
X218747800Y-98287276D02*
X218747800Y-98156324D01*
X218747800Y-98156324D02*
X218773990Y-98103943D01*
X218773990Y-98103943D02*
X218800181Y-98077752D01*
X218800181Y-98077752D02*
X218852562Y-98051562D01*
X218852562Y-98051562D02*
X218904943Y-98051562D01*
X218904943Y-98051562D02*
X218983514Y-98077752D01*
X218983514Y-98077752D02*
X219297800Y-98392038D01*
X219297800Y-98392038D02*
X219297800Y-98051562D01*
X219297800Y-97527752D02*
X219297800Y-97842038D01*
X219297800Y-97684895D02*
X218747800Y-97684895D01*
X218747800Y-97684895D02*
X218826371Y-97737276D01*
X218826371Y-97737276D02*
X218878752Y-97789657D01*
X218878752Y-97789657D02*
X218904943Y-97842038D01*
X187906268Y-111241062D02*
X187644723Y-111227355D01*
X187644723Y-111227355D02*
X187673507Y-110678109D01*
X188377051Y-111265735D02*
X188063196Y-111249287D01*
X188220123Y-111257511D02*
X188248908Y-110708265D01*
X188248908Y-110708265D02*
X188192487Y-110783987D01*
X188192487Y-110783987D02*
X188137436Y-110833555D01*
X188137436Y-110833555D02*
X188083756Y-110856968D01*
X224359780Y-127105818D02*
X224412161Y-127132009D01*
X224412161Y-127132009D02*
X224464542Y-127184390D01*
X224464542Y-127184390D02*
X224543114Y-127262961D01*
X224543114Y-127262961D02*
X224595495Y-127289151D01*
X224595495Y-127289151D02*
X224647876Y-127289151D01*
X224621685Y-127158199D02*
X224674066Y-127184390D01*
X224674066Y-127184390D02*
X224726447Y-127236770D01*
X224726447Y-127236770D02*
X224752638Y-127341532D01*
X224752638Y-127341532D02*
X224752638Y-127524866D01*
X224752638Y-127524866D02*
X224726447Y-127629628D01*
X224726447Y-127629628D02*
X224674066Y-127682009D01*
X224674066Y-127682009D02*
X224621685Y-127708199D01*
X224621685Y-127708199D02*
X224516923Y-127708199D01*
X224516923Y-127708199D02*
X224464542Y-127682009D01*
X224464542Y-127682009D02*
X224412161Y-127629628D01*
X224412161Y-127629628D02*
X224385971Y-127524866D01*
X224385971Y-127524866D02*
X224385971Y-127341532D01*
X224385971Y-127341532D02*
X224412161Y-127236770D01*
X224412161Y-127236770D02*
X224464542Y-127184390D01*
X224464542Y-127184390D02*
X224516923Y-127158199D01*
X224516923Y-127158199D02*
X224621685Y-127158199D01*
X223888352Y-127708199D02*
X224150257Y-127708199D01*
X224150257Y-127708199D02*
X224176448Y-127446294D01*
X224176448Y-127446294D02*
X224150257Y-127472485D01*
X224150257Y-127472485D02*
X224097876Y-127498675D01*
X224097876Y-127498675D02*
X223966924Y-127498675D01*
X223966924Y-127498675D02*
X223914543Y-127472485D01*
X223914543Y-127472485D02*
X223888352Y-127446294D01*
X223888352Y-127446294D02*
X223862162Y-127393913D01*
X223862162Y-127393913D02*
X223862162Y-127262961D01*
X223862162Y-127262961D02*
X223888352Y-127210580D01*
X223888352Y-127210580D02*
X223914543Y-127184390D01*
X223914543Y-127184390D02*
X223966924Y-127158199D01*
X223966924Y-127158199D02*
X224097876Y-127158199D01*
X224097876Y-127158199D02*
X224150257Y-127184390D01*
X224150257Y-127184390D02*
X224176448Y-127210580D01*
X221642428Y-100781400D02*
X221459094Y-100519495D01*
X221328142Y-100781400D02*
X221328142Y-100231400D01*
X221328142Y-100231400D02*
X221537666Y-100231400D01*
X221537666Y-100231400D02*
X221590047Y-100257590D01*
X221590047Y-100257590D02*
X221616237Y-100283781D01*
X221616237Y-100283781D02*
X221642428Y-100336162D01*
X221642428Y-100336162D02*
X221642428Y-100414733D01*
X221642428Y-100414733D02*
X221616237Y-100467114D01*
X221616237Y-100467114D02*
X221590047Y-100493305D01*
X221590047Y-100493305D02*
X221537666Y-100519495D01*
X221537666Y-100519495D02*
X221328142Y-100519495D01*
X221851951Y-100283781D02*
X221878142Y-100257590D01*
X221878142Y-100257590D02*
X221930523Y-100231400D01*
X221930523Y-100231400D02*
X222061475Y-100231400D01*
X222061475Y-100231400D02*
X222113856Y-100257590D01*
X222113856Y-100257590D02*
X222140047Y-100283781D01*
X222140047Y-100283781D02*
X222166237Y-100336162D01*
X222166237Y-100336162D02*
X222166237Y-100388543D01*
X222166237Y-100388543D02*
X222140047Y-100467114D01*
X222140047Y-100467114D02*
X221825761Y-100781400D01*
X221825761Y-100781400D02*
X222166237Y-100781400D01*
X222663857Y-100231400D02*
X222401952Y-100231400D01*
X222401952Y-100231400D02*
X222375761Y-100493305D01*
X222375761Y-100493305D02*
X222401952Y-100467114D01*
X222401952Y-100467114D02*
X222454333Y-100440924D01*
X222454333Y-100440924D02*
X222585285Y-100440924D01*
X222585285Y-100440924D02*
X222637666Y-100467114D01*
X222637666Y-100467114D02*
X222663857Y-100493305D01*
X222663857Y-100493305D02*
X222690047Y-100545686D01*
X222690047Y-100545686D02*
X222690047Y-100676638D01*
X222690047Y-100676638D02*
X222663857Y-100729019D01*
X222663857Y-100729019D02*
X222637666Y-100755210D01*
X222637666Y-100755210D02*
X222585285Y-100781400D01*
X222585285Y-100781400D02*
X222454333Y-100781400D01*
X222454333Y-100781400D02*
X222401952Y-100755210D01*
X222401952Y-100755210D02*
X222375761Y-100729019D01*
X218110247Y-121203000D02*
X218110247Y-120653000D01*
X218110247Y-120653000D02*
X218241199Y-120653000D01*
X218241199Y-120653000D02*
X218319771Y-120679190D01*
X218319771Y-120679190D02*
X218372152Y-120731571D01*
X218372152Y-120731571D02*
X218398342Y-120783952D01*
X218398342Y-120783952D02*
X218424533Y-120888714D01*
X218424533Y-120888714D02*
X218424533Y-120967286D01*
X218424533Y-120967286D02*
X218398342Y-121072048D01*
X218398342Y-121072048D02*
X218372152Y-121124429D01*
X218372152Y-121124429D02*
X218319771Y-121176810D01*
X218319771Y-121176810D02*
X218241199Y-121203000D01*
X218241199Y-121203000D02*
X218110247Y-121203000D01*
X218607866Y-120653000D02*
X218948342Y-120653000D01*
X218948342Y-120653000D02*
X218765009Y-120862524D01*
X218765009Y-120862524D02*
X218843580Y-120862524D01*
X218843580Y-120862524D02*
X218895961Y-120888714D01*
X218895961Y-120888714D02*
X218922152Y-120914905D01*
X218922152Y-120914905D02*
X218948342Y-120967286D01*
X218948342Y-120967286D02*
X218948342Y-121098238D01*
X218948342Y-121098238D02*
X218922152Y-121150619D01*
X218922152Y-121150619D02*
X218895961Y-121176810D01*
X218895961Y-121176810D02*
X218843580Y-121203000D01*
X218843580Y-121203000D02*
X218686437Y-121203000D01*
X218686437Y-121203000D02*
X218634056Y-121176810D01*
X218634056Y-121176810D02*
X218607866Y-121150619D01*
X229620847Y-115471400D02*
X229620847Y-115916638D01*
X229620847Y-115916638D02*
X229647037Y-115969019D01*
X229647037Y-115969019D02*
X229673228Y-115995210D01*
X229673228Y-115995210D02*
X229725609Y-116021400D01*
X229725609Y-116021400D02*
X229830371Y-116021400D01*
X229830371Y-116021400D02*
X229882752Y-115995210D01*
X229882752Y-115995210D02*
X229908942Y-115969019D01*
X229908942Y-115969019D02*
X229935133Y-115916638D01*
X229935133Y-115916638D02*
X229935133Y-115471400D01*
X230485132Y-116021400D02*
X230170846Y-116021400D01*
X230327989Y-116021400D02*
X230327989Y-115471400D01*
X230327989Y-115471400D02*
X230275608Y-115549971D01*
X230275608Y-115549971D02*
X230223227Y-115602352D01*
X230223227Y-115602352D02*
X230170846Y-115628543D01*
X231008942Y-116021400D02*
X230694656Y-116021400D01*
X230851799Y-116021400D02*
X230851799Y-115471400D01*
X230851799Y-115471400D02*
X230799418Y-115549971D01*
X230799418Y-115549971D02*
X230747037Y-115602352D01*
X230747037Y-115602352D02*
X230694656Y-115628543D01*
X226255819Y-102275866D02*
X226282010Y-102302057D01*
X226282010Y-102302057D02*
X226308200Y-102380628D01*
X226308200Y-102380628D02*
X226308200Y-102433009D01*
X226308200Y-102433009D02*
X226282010Y-102511581D01*
X226282010Y-102511581D02*
X226229629Y-102563962D01*
X226229629Y-102563962D02*
X226177248Y-102590152D01*
X226177248Y-102590152D02*
X226072486Y-102616343D01*
X226072486Y-102616343D02*
X225993914Y-102616343D01*
X225993914Y-102616343D02*
X225889152Y-102590152D01*
X225889152Y-102590152D02*
X225836771Y-102563962D01*
X225836771Y-102563962D02*
X225784390Y-102511581D01*
X225784390Y-102511581D02*
X225758200Y-102433009D01*
X225758200Y-102433009D02*
X225758200Y-102380628D01*
X225758200Y-102380628D02*
X225784390Y-102302057D01*
X225784390Y-102302057D02*
X225810581Y-102275866D01*
X225758200Y-101778247D02*
X225758200Y-102040152D01*
X225758200Y-102040152D02*
X226020105Y-102066343D01*
X226020105Y-102066343D02*
X225993914Y-102040152D01*
X225993914Y-102040152D02*
X225967724Y-101987771D01*
X225967724Y-101987771D02*
X225967724Y-101856819D01*
X225967724Y-101856819D02*
X225993914Y-101804438D01*
X225993914Y-101804438D02*
X226020105Y-101778247D01*
X226020105Y-101778247D02*
X226072486Y-101752057D01*
X226072486Y-101752057D02*
X226203438Y-101752057D01*
X226203438Y-101752057D02*
X226255819Y-101778247D01*
X226255819Y-101778247D02*
X226282010Y-101804438D01*
X226282010Y-101804438D02*
X226308200Y-101856819D01*
X226308200Y-101856819D02*
X226308200Y-101987771D01*
X226308200Y-101987771D02*
X226282010Y-102040152D01*
X226282010Y-102040152D02*
X226255819Y-102066343D01*
X188073600Y-98905571D02*
X187811695Y-99088905D01*
X188073600Y-99219857D02*
X187523600Y-99219857D01*
X187523600Y-99219857D02*
X187523600Y-99010333D01*
X187523600Y-99010333D02*
X187549790Y-98957952D01*
X187549790Y-98957952D02*
X187575981Y-98931762D01*
X187575981Y-98931762D02*
X187628362Y-98905571D01*
X187628362Y-98905571D02*
X187706933Y-98905571D01*
X187706933Y-98905571D02*
X187759314Y-98931762D01*
X187759314Y-98931762D02*
X187785505Y-98957952D01*
X187785505Y-98957952D02*
X187811695Y-99010333D01*
X187811695Y-99010333D02*
X187811695Y-99219857D01*
X187523600Y-98722238D02*
X187523600Y-98381762D01*
X187523600Y-98381762D02*
X187733124Y-98565095D01*
X187733124Y-98565095D02*
X187733124Y-98486524D01*
X187733124Y-98486524D02*
X187759314Y-98434143D01*
X187759314Y-98434143D02*
X187785505Y-98407952D01*
X187785505Y-98407952D02*
X187837886Y-98381762D01*
X187837886Y-98381762D02*
X187968838Y-98381762D01*
X187968838Y-98381762D02*
X188021219Y-98407952D01*
X188021219Y-98407952D02*
X188047410Y-98434143D01*
X188047410Y-98434143D02*
X188073600Y-98486524D01*
X188073600Y-98486524D02*
X188073600Y-98643667D01*
X188073600Y-98643667D02*
X188047410Y-98696048D01*
X188047410Y-98696048D02*
X188021219Y-98722238D01*
X187523600Y-97910333D02*
X187523600Y-98015095D01*
X187523600Y-98015095D02*
X187549790Y-98067476D01*
X187549790Y-98067476D02*
X187575981Y-98093666D01*
X187575981Y-98093666D02*
X187654552Y-98146047D01*
X187654552Y-98146047D02*
X187759314Y-98172238D01*
X187759314Y-98172238D02*
X187968838Y-98172238D01*
X187968838Y-98172238D02*
X188021219Y-98146047D01*
X188021219Y-98146047D02*
X188047410Y-98119857D01*
X188047410Y-98119857D02*
X188073600Y-98067476D01*
X188073600Y-98067476D02*
X188073600Y-97962714D01*
X188073600Y-97962714D02*
X188047410Y-97910333D01*
X188047410Y-97910333D02*
X188021219Y-97884142D01*
X188021219Y-97884142D02*
X187968838Y-97857952D01*
X187968838Y-97857952D02*
X187837886Y-97857952D01*
X187837886Y-97857952D02*
X187785505Y-97884142D01*
X187785505Y-97884142D02*
X187759314Y-97910333D01*
X187759314Y-97910333D02*
X187733124Y-97962714D01*
X187733124Y-97962714D02*
X187733124Y-98067476D01*
X187733124Y-98067476D02*
X187759314Y-98119857D01*
X187759314Y-98119857D02*
X187785505Y-98146047D01*
X187785505Y-98146047D02*
X187837886Y-98172238D01*
X227627419Y-125931171D02*
X227653610Y-125957362D01*
X227653610Y-125957362D02*
X227679800Y-126035933D01*
X227679800Y-126035933D02*
X227679800Y-126088314D01*
X227679800Y-126088314D02*
X227653610Y-126166886D01*
X227653610Y-126166886D02*
X227601229Y-126219267D01*
X227601229Y-126219267D02*
X227548848Y-126245457D01*
X227548848Y-126245457D02*
X227444086Y-126271648D01*
X227444086Y-126271648D02*
X227365514Y-126271648D01*
X227365514Y-126271648D02*
X227260752Y-126245457D01*
X227260752Y-126245457D02*
X227208371Y-126219267D01*
X227208371Y-126219267D02*
X227155990Y-126166886D01*
X227155990Y-126166886D02*
X227129800Y-126088314D01*
X227129800Y-126088314D02*
X227129800Y-126035933D01*
X227129800Y-126035933D02*
X227155990Y-125957362D01*
X227155990Y-125957362D02*
X227182181Y-125931171D01*
X227182181Y-125721648D02*
X227155990Y-125695457D01*
X227155990Y-125695457D02*
X227129800Y-125643076D01*
X227129800Y-125643076D02*
X227129800Y-125512124D01*
X227129800Y-125512124D02*
X227155990Y-125459743D01*
X227155990Y-125459743D02*
X227182181Y-125433552D01*
X227182181Y-125433552D02*
X227234562Y-125407362D01*
X227234562Y-125407362D02*
X227286943Y-125407362D01*
X227286943Y-125407362D02*
X227365514Y-125433552D01*
X227365514Y-125433552D02*
X227679800Y-125747838D01*
X227679800Y-125747838D02*
X227679800Y-125407362D01*
X227129800Y-125224028D02*
X227129800Y-124883552D01*
X227129800Y-124883552D02*
X227339324Y-125066885D01*
X227339324Y-125066885D02*
X227339324Y-124988314D01*
X227339324Y-124988314D02*
X227365514Y-124935933D01*
X227365514Y-124935933D02*
X227391705Y-124909742D01*
X227391705Y-124909742D02*
X227444086Y-124883552D01*
X227444086Y-124883552D02*
X227575038Y-124883552D01*
X227575038Y-124883552D02*
X227627419Y-124909742D01*
X227627419Y-124909742D02*
X227653610Y-124935933D01*
X227653610Y-124935933D02*
X227679800Y-124988314D01*
X227679800Y-124988314D02*
X227679800Y-125145457D01*
X227679800Y-125145457D02*
X227653610Y-125197838D01*
X227653610Y-125197838D02*
X227627419Y-125224028D01*
X191264028Y-107434600D02*
X191080694Y-107172695D01*
X190949742Y-107434600D02*
X190949742Y-106884600D01*
X190949742Y-106884600D02*
X191159266Y-106884600D01*
X191159266Y-106884600D02*
X191211647Y-106910790D01*
X191211647Y-106910790D02*
X191237837Y-106936981D01*
X191237837Y-106936981D02*
X191264028Y-106989362D01*
X191264028Y-106989362D02*
X191264028Y-107067933D01*
X191264028Y-107067933D02*
X191237837Y-107120314D01*
X191237837Y-107120314D02*
X191211647Y-107146505D01*
X191211647Y-107146505D02*
X191159266Y-107172695D01*
X191159266Y-107172695D02*
X190949742Y-107172695D01*
X191787837Y-107434600D02*
X191473551Y-107434600D01*
X191630694Y-107434600D02*
X191630694Y-106884600D01*
X191630694Y-106884600D02*
X191578313Y-106963171D01*
X191578313Y-106963171D02*
X191525932Y-107015552D01*
X191525932Y-107015552D02*
X191473551Y-107041743D01*
X192311647Y-107434600D02*
X191997361Y-107434600D01*
X192154504Y-107434600D02*
X192154504Y-106884600D01*
X192154504Y-106884600D02*
X192102123Y-106963171D01*
X192102123Y-106963171D02*
X192049742Y-107015552D01*
X192049742Y-107015552D02*
X191997361Y-107041743D01*
X191078400Y-96510066D02*
X190816495Y-96693400D01*
X191078400Y-96824352D02*
X190528400Y-96824352D01*
X190528400Y-96824352D02*
X190528400Y-96614828D01*
X190528400Y-96614828D02*
X190554590Y-96562447D01*
X190554590Y-96562447D02*
X190580781Y-96536257D01*
X190580781Y-96536257D02*
X190633162Y-96510066D01*
X190633162Y-96510066D02*
X190711733Y-96510066D01*
X190711733Y-96510066D02*
X190764114Y-96536257D01*
X190764114Y-96536257D02*
X190790305Y-96562447D01*
X190790305Y-96562447D02*
X190816495Y-96614828D01*
X190816495Y-96614828D02*
X190816495Y-96824352D01*
X190711733Y-96038638D02*
X191078400Y-96038638D01*
X190502210Y-96169590D02*
X190895067Y-96300543D01*
X190895067Y-96300543D02*
X190895067Y-95960066D01*
X209417200Y-113688371D02*
X209155295Y-113871705D01*
X209417200Y-114002657D02*
X208867200Y-114002657D01*
X208867200Y-114002657D02*
X208867200Y-113793133D01*
X208867200Y-113793133D02*
X208893390Y-113740752D01*
X208893390Y-113740752D02*
X208919581Y-113714562D01*
X208919581Y-113714562D02*
X208971962Y-113688371D01*
X208971962Y-113688371D02*
X209050533Y-113688371D01*
X209050533Y-113688371D02*
X209102914Y-113714562D01*
X209102914Y-113714562D02*
X209129105Y-113740752D01*
X209129105Y-113740752D02*
X209155295Y-113793133D01*
X209155295Y-113793133D02*
X209155295Y-114002657D01*
X209417200Y-113164562D02*
X209417200Y-113478848D01*
X209417200Y-113321705D02*
X208867200Y-113321705D01*
X208867200Y-113321705D02*
X208945771Y-113374086D01*
X208945771Y-113374086D02*
X208998152Y-113426467D01*
X208998152Y-113426467D02*
X209024343Y-113478848D01*
X209102914Y-112850276D02*
X209076724Y-112902657D01*
X209076724Y-112902657D02*
X209050533Y-112928847D01*
X209050533Y-112928847D02*
X208998152Y-112955038D01*
X208998152Y-112955038D02*
X208971962Y-112955038D01*
X208971962Y-112955038D02*
X208919581Y-112928847D01*
X208919581Y-112928847D02*
X208893390Y-112902657D01*
X208893390Y-112902657D02*
X208867200Y-112850276D01*
X208867200Y-112850276D02*
X208867200Y-112745514D01*
X208867200Y-112745514D02*
X208893390Y-112693133D01*
X208893390Y-112693133D02*
X208919581Y-112666942D01*
X208919581Y-112666942D02*
X208971962Y-112640752D01*
X208971962Y-112640752D02*
X208998152Y-112640752D01*
X208998152Y-112640752D02*
X209050533Y-112666942D01*
X209050533Y-112666942D02*
X209076724Y-112693133D01*
X209076724Y-112693133D02*
X209102914Y-112745514D01*
X209102914Y-112745514D02*
X209102914Y-112850276D01*
X209102914Y-112850276D02*
X209129105Y-112902657D01*
X209129105Y-112902657D02*
X209155295Y-112928847D01*
X209155295Y-112928847D02*
X209207676Y-112955038D01*
X209207676Y-112955038D02*
X209312438Y-112955038D01*
X209312438Y-112955038D02*
X209364819Y-112928847D01*
X209364819Y-112928847D02*
X209391010Y-112902657D01*
X209391010Y-112902657D02*
X209417200Y-112850276D01*
X209417200Y-112850276D02*
X209417200Y-112745514D01*
X209417200Y-112745514D02*
X209391010Y-112693133D01*
X209391010Y-112693133D02*
X209364819Y-112666942D01*
X209364819Y-112666942D02*
X209312438Y-112640752D01*
X209312438Y-112640752D02*
X209207676Y-112640752D01*
X209207676Y-112640752D02*
X209155295Y-112666942D01*
X209155295Y-112666942D02*
X209129105Y-112693133D01*
X209129105Y-112693133D02*
X209102914Y-112745514D01*
X215589400Y-94079571D02*
X215327495Y-94262905D01*
X215589400Y-94393857D02*
X215039400Y-94393857D01*
X215039400Y-94393857D02*
X215039400Y-94184333D01*
X215039400Y-94184333D02*
X215065590Y-94131952D01*
X215065590Y-94131952D02*
X215091781Y-94105762D01*
X215091781Y-94105762D02*
X215144162Y-94079571D01*
X215144162Y-94079571D02*
X215222733Y-94079571D01*
X215222733Y-94079571D02*
X215275114Y-94105762D01*
X215275114Y-94105762D02*
X215301305Y-94131952D01*
X215301305Y-94131952D02*
X215327495Y-94184333D01*
X215327495Y-94184333D02*
X215327495Y-94393857D01*
X215091781Y-93870048D02*
X215065590Y-93843857D01*
X215065590Y-93843857D02*
X215039400Y-93791476D01*
X215039400Y-93791476D02*
X215039400Y-93660524D01*
X215039400Y-93660524D02*
X215065590Y-93608143D01*
X215065590Y-93608143D02*
X215091781Y-93581952D01*
X215091781Y-93581952D02*
X215144162Y-93555762D01*
X215144162Y-93555762D02*
X215196543Y-93555762D01*
X215196543Y-93555762D02*
X215275114Y-93581952D01*
X215275114Y-93581952D02*
X215589400Y-93896238D01*
X215589400Y-93896238D02*
X215589400Y-93555762D01*
X215589400Y-93293857D02*
X215589400Y-93189095D01*
X215589400Y-93189095D02*
X215563210Y-93136714D01*
X215563210Y-93136714D02*
X215537019Y-93110523D01*
X215537019Y-93110523D02*
X215458448Y-93058142D01*
X215458448Y-93058142D02*
X215353686Y-93031952D01*
X215353686Y-93031952D02*
X215144162Y-93031952D01*
X215144162Y-93031952D02*
X215091781Y-93058142D01*
X215091781Y-93058142D02*
X215065590Y-93084333D01*
X215065590Y-93084333D02*
X215039400Y-93136714D01*
X215039400Y-93136714D02*
X215039400Y-93241476D01*
X215039400Y-93241476D02*
X215065590Y-93293857D01*
X215065590Y-93293857D02*
X215091781Y-93320047D01*
X215091781Y-93320047D02*
X215144162Y-93346238D01*
X215144162Y-93346238D02*
X215275114Y-93346238D01*
X215275114Y-93346238D02*
X215327495Y-93320047D01*
X215327495Y-93320047D02*
X215353686Y-93293857D01*
X215353686Y-93293857D02*
X215379876Y-93241476D01*
X215379876Y-93241476D02*
X215379876Y-93136714D01*
X215379876Y-93136714D02*
X215353686Y-93084333D01*
X215353686Y-93084333D02*
X215327495Y-93058142D01*
X215327495Y-93058142D02*
X215275114Y-93031952D01*
X168128180Y-103646361D02*
X168209320Y-103629757D01*
X168209320Y-103629757D02*
X168322728Y-103564281D01*
X168322728Y-103564281D02*
X168354996Y-103515408D01*
X168354996Y-103515408D02*
X168364583Y-103479632D01*
X168364583Y-103479632D02*
X168361074Y-103421173D01*
X168361074Y-103421173D02*
X168334884Y-103375810D01*
X168334884Y-103375810D02*
X168286011Y-103343542D01*
X168286011Y-103343542D02*
X168250235Y-103333956D01*
X168250235Y-103333956D02*
X168191776Y-103337464D01*
X168191776Y-103337464D02*
X168087954Y-103367164D01*
X168087954Y-103367164D02*
X168029496Y-103370673D01*
X168029496Y-103370673D02*
X167993719Y-103361086D01*
X167993719Y-103361086D02*
X167944847Y-103328818D01*
X167944847Y-103328818D02*
X167918656Y-103283455D01*
X167918656Y-103283455D02*
X167915148Y-103224996D01*
X167915148Y-103224996D02*
X167924734Y-103189220D01*
X167924734Y-103189220D02*
X167957002Y-103140348D01*
X167957002Y-103140348D02*
X168070410Y-103074871D01*
X168070410Y-103074871D02*
X168151550Y-103058267D01*
X168297227Y-102943919D02*
X168685635Y-103354757D01*
X168685635Y-103354757D02*
X168579933Y-102962151D01*
X168579933Y-102962151D02*
X168867088Y-103249995D01*
X168867088Y-103249995D02*
X168705496Y-102708204D01*
X169074731Y-103190596D02*
X169437637Y-102981072D01*
X169524855Y-102870233D02*
X169249855Y-102393919D01*
X169249855Y-102393919D02*
X169431308Y-102289157D01*
X169431308Y-102289157D02*
X169489766Y-102285648D01*
X169489766Y-102285648D02*
X169525543Y-102295234D01*
X169525543Y-102295234D02*
X169574415Y-102327502D01*
X169574415Y-102327502D02*
X169613701Y-102395547D01*
X169613701Y-102395547D02*
X169617210Y-102454006D01*
X169617210Y-102454006D02*
X169607623Y-102489783D01*
X169607623Y-102489783D02*
X169575355Y-102538655D01*
X169575355Y-102538655D02*
X169393902Y-102643417D01*
X170021970Y-102159833D02*
X170205303Y-102477376D01*
X169817835Y-102277690D02*
X169961883Y-102527188D01*
X169961883Y-102527188D02*
X170010755Y-102559456D01*
X170010755Y-102559456D02*
X170069213Y-102555947D01*
X170069213Y-102555947D02*
X170137258Y-102516661D01*
X170137258Y-102516661D02*
X170169526Y-102467789D01*
X170169526Y-102467789D02*
X170179113Y-102432012D01*
X170396342Y-102336837D02*
X170454801Y-102333328D01*
X170454801Y-102333328D02*
X170545527Y-102280947D01*
X170545527Y-102280947D02*
X170577795Y-102232075D01*
X170577795Y-102232075D02*
X170574286Y-102173616D01*
X170574286Y-102173616D02*
X170561191Y-102150935D01*
X170561191Y-102150935D02*
X170512319Y-102118667D01*
X170512319Y-102118667D02*
X170453861Y-102122176D01*
X170453861Y-102122176D02*
X170385816Y-102161461D01*
X170385816Y-102161461D02*
X170327357Y-102164970D01*
X170327357Y-102164970D02*
X170278485Y-102132702D01*
X170278485Y-102132702D02*
X170265390Y-102110021D01*
X170265390Y-102110021D02*
X170261881Y-102051562D01*
X170261881Y-102051562D02*
X170294149Y-102002690D01*
X170294149Y-102002690D02*
X170362194Y-101963404D01*
X170362194Y-101963404D02*
X170420652Y-101959896D01*
X170817707Y-102123804D02*
X170542707Y-101647490D01*
X171021841Y-102005947D02*
X170877794Y-101756449D01*
X170877794Y-101756449D02*
X170828922Y-101724181D01*
X170828922Y-101724181D02*
X170770463Y-101727690D01*
X170770463Y-101727690D02*
X170702418Y-101766976D01*
X170702418Y-101766976D02*
X170670150Y-101815848D01*
X170670150Y-101815848D02*
X170660564Y-101851625D01*
X269024628Y-103465028D02*
X268969678Y-103403061D01*
X268969678Y-103403061D02*
X268856270Y-103337585D01*
X268856270Y-103337585D02*
X268797812Y-103334076D01*
X268797812Y-103334076D02*
X268762035Y-103343662D01*
X268762035Y-103343662D02*
X268713163Y-103375930D01*
X268713163Y-103375930D02*
X268686972Y-103421293D01*
X268686972Y-103421293D02*
X268683463Y-103479752D01*
X268683463Y-103479752D02*
X268693050Y-103515529D01*
X268693050Y-103515529D02*
X268725318Y-103564401D01*
X268725318Y-103564401D02*
X268802949Y-103639463D01*
X268802949Y-103639463D02*
X268835217Y-103688336D01*
X268835217Y-103688336D02*
X268844803Y-103724112D01*
X268844803Y-103724112D02*
X268841294Y-103782571D01*
X268841294Y-103782571D02*
X268815104Y-103827934D01*
X268815104Y-103827934D02*
X268766232Y-103860202D01*
X268766232Y-103860202D02*
X268730455Y-103869789D01*
X268730455Y-103869789D02*
X268671996Y-103866280D01*
X268671996Y-103866280D02*
X268558588Y-103800803D01*
X268558588Y-103800803D02*
X268503639Y-103738836D01*
X268331772Y-103669851D02*
X268493364Y-103128061D01*
X268493364Y-103128061D02*
X268206209Y-103415904D01*
X268206209Y-103415904D02*
X268311911Y-103023299D01*
X268311911Y-103023299D02*
X267923503Y-103434137D01*
X268156649Y-102873174D02*
X267793743Y-102663650D01*
X267654144Y-102643537D02*
X267379144Y-103119851D01*
X267379144Y-103119851D02*
X267197691Y-103015089D01*
X267197691Y-103015089D02*
X267165423Y-102966217D01*
X267165423Y-102966217D02*
X267155837Y-102930440D01*
X267155837Y-102930440D02*
X267159345Y-102871982D01*
X267159345Y-102871982D02*
X267198631Y-102803937D01*
X267198631Y-102803937D02*
X267247503Y-102771669D01*
X267247503Y-102771669D02*
X267283280Y-102762082D01*
X267283280Y-102762082D02*
X267341739Y-102765591D01*
X267341739Y-102765591D02*
X267523192Y-102870353D01*
X266790362Y-102568222D02*
X266973695Y-102250680D01*
X266994497Y-102686080D02*
X267138544Y-102436582D01*
X267138544Y-102436582D02*
X267142053Y-102378123D01*
X267142053Y-102378123D02*
X267109785Y-102329251D01*
X267109785Y-102329251D02*
X267041740Y-102289965D01*
X267041740Y-102289965D02*
X266983282Y-102286457D01*
X266983282Y-102286457D02*
X266947505Y-102296043D01*
X266756466Y-102155504D02*
X266724198Y-102106632D01*
X266724198Y-102106632D02*
X266633471Y-102054251D01*
X266633471Y-102054251D02*
X266575013Y-102050742D01*
X266575013Y-102050742D02*
X266526141Y-102083010D01*
X266526141Y-102083010D02*
X266513045Y-102105692D01*
X266513045Y-102105692D02*
X266509536Y-102164150D01*
X266509536Y-102164150D02*
X266541804Y-102213023D01*
X266541804Y-102213023D02*
X266609849Y-102252308D01*
X266609849Y-102252308D02*
X266642117Y-102301180D01*
X266642117Y-102301180D02*
X266638608Y-102359639D01*
X266638608Y-102359639D02*
X266625513Y-102382320D01*
X266625513Y-102382320D02*
X266576641Y-102414588D01*
X266576641Y-102414588D02*
X266518183Y-102411080D01*
X266518183Y-102411080D02*
X266450138Y-102371794D01*
X266450138Y-102371794D02*
X266417870Y-102322922D01*
X266361292Y-101897108D02*
X266086292Y-102373422D01*
X266157157Y-101779251D02*
X266013110Y-102028749D01*
X266013110Y-102028749D02*
X266009601Y-102087208D01*
X266009601Y-102087208D02*
X266041869Y-102136080D01*
X266041869Y-102136080D02*
X266109914Y-102175365D01*
X266109914Y-102175365D02*
X266168372Y-102178874D01*
X266168372Y-102178874D02*
X266204149Y-102169288D01*
X217129133Y-103827819D02*
X217102942Y-103854010D01*
X217102942Y-103854010D02*
X217024371Y-103880200D01*
X217024371Y-103880200D02*
X216971990Y-103880200D01*
X216971990Y-103880200D02*
X216893418Y-103854010D01*
X216893418Y-103854010D02*
X216841037Y-103801629D01*
X216841037Y-103801629D02*
X216814847Y-103749248D01*
X216814847Y-103749248D02*
X216788656Y-103644486D01*
X216788656Y-103644486D02*
X216788656Y-103565914D01*
X216788656Y-103565914D02*
X216814847Y-103461152D01*
X216814847Y-103461152D02*
X216841037Y-103408771D01*
X216841037Y-103408771D02*
X216893418Y-103356390D01*
X216893418Y-103356390D02*
X216971990Y-103330200D01*
X216971990Y-103330200D02*
X217024371Y-103330200D01*
X217024371Y-103330200D02*
X217102942Y-103356390D01*
X217102942Y-103356390D02*
X217129133Y-103382581D01*
X217600561Y-103330200D02*
X217495799Y-103330200D01*
X217495799Y-103330200D02*
X217443418Y-103356390D01*
X217443418Y-103356390D02*
X217417228Y-103382581D01*
X217417228Y-103382581D02*
X217364847Y-103461152D01*
X217364847Y-103461152D02*
X217338656Y-103565914D01*
X217338656Y-103565914D02*
X217338656Y-103775438D01*
X217338656Y-103775438D02*
X217364847Y-103827819D01*
X217364847Y-103827819D02*
X217391037Y-103854010D01*
X217391037Y-103854010D02*
X217443418Y-103880200D01*
X217443418Y-103880200D02*
X217548180Y-103880200D01*
X217548180Y-103880200D02*
X217600561Y-103854010D01*
X217600561Y-103854010D02*
X217626752Y-103827819D01*
X217626752Y-103827819D02*
X217652942Y-103775438D01*
X217652942Y-103775438D02*
X217652942Y-103644486D01*
X217652942Y-103644486D02*
X217626752Y-103592105D01*
X217626752Y-103592105D02*
X217600561Y-103565914D01*
X217600561Y-103565914D02*
X217548180Y-103539724D01*
X217548180Y-103539724D02*
X217443418Y-103539724D01*
X217443418Y-103539724D02*
X217391037Y-103565914D01*
X217391037Y-103565914D02*
X217364847Y-103592105D01*
X217364847Y-103592105D02*
X217338656Y-103644486D01*
X206978800Y-113053371D02*
X206716895Y-113236705D01*
X206978800Y-113367657D02*
X206428800Y-113367657D01*
X206428800Y-113367657D02*
X206428800Y-113158133D01*
X206428800Y-113158133D02*
X206454990Y-113105752D01*
X206454990Y-113105752D02*
X206481181Y-113079562D01*
X206481181Y-113079562D02*
X206533562Y-113053371D01*
X206533562Y-113053371D02*
X206612133Y-113053371D01*
X206612133Y-113053371D02*
X206664514Y-113079562D01*
X206664514Y-113079562D02*
X206690705Y-113105752D01*
X206690705Y-113105752D02*
X206716895Y-113158133D01*
X206716895Y-113158133D02*
X206716895Y-113367657D01*
X206978800Y-112529562D02*
X206978800Y-112843848D01*
X206978800Y-112686705D02*
X206428800Y-112686705D01*
X206428800Y-112686705D02*
X206507371Y-112739086D01*
X206507371Y-112739086D02*
X206559752Y-112791467D01*
X206559752Y-112791467D02*
X206585943Y-112843848D01*
X206978800Y-112267657D02*
X206978800Y-112162895D01*
X206978800Y-112162895D02*
X206952610Y-112110514D01*
X206952610Y-112110514D02*
X206926419Y-112084323D01*
X206926419Y-112084323D02*
X206847848Y-112031942D01*
X206847848Y-112031942D02*
X206743086Y-112005752D01*
X206743086Y-112005752D02*
X206533562Y-112005752D01*
X206533562Y-112005752D02*
X206481181Y-112031942D01*
X206481181Y-112031942D02*
X206454990Y-112058133D01*
X206454990Y-112058133D02*
X206428800Y-112110514D01*
X206428800Y-112110514D02*
X206428800Y-112215276D01*
X206428800Y-112215276D02*
X206454990Y-112267657D01*
X206454990Y-112267657D02*
X206481181Y-112293847D01*
X206481181Y-112293847D02*
X206533562Y-112320038D01*
X206533562Y-112320038D02*
X206664514Y-112320038D01*
X206664514Y-112320038D02*
X206716895Y-112293847D01*
X206716895Y-112293847D02*
X206743086Y-112267657D01*
X206743086Y-112267657D02*
X206769276Y-112215276D01*
X206769276Y-112215276D02*
X206769276Y-112110514D01*
X206769276Y-112110514D02*
X206743086Y-112058133D01*
X206743086Y-112058133D02*
X206716895Y-112031942D01*
X206716895Y-112031942D02*
X206664514Y-112005752D01*
X221613419Y-121610981D02*
X221561038Y-121584790D01*
X221561038Y-121584790D02*
X221508657Y-121532410D01*
X221508657Y-121532410D02*
X221430085Y-121453838D01*
X221430085Y-121453838D02*
X221377704Y-121427648D01*
X221377704Y-121427648D02*
X221325323Y-121427648D01*
X221351514Y-121558600D02*
X221299133Y-121532410D01*
X221299133Y-121532410D02*
X221246752Y-121480029D01*
X221246752Y-121480029D02*
X221220561Y-121375267D01*
X221220561Y-121375267D02*
X221220561Y-121191933D01*
X221220561Y-121191933D02*
X221246752Y-121087171D01*
X221246752Y-121087171D02*
X221299133Y-121034790D01*
X221299133Y-121034790D02*
X221351514Y-121008600D01*
X221351514Y-121008600D02*
X221456276Y-121008600D01*
X221456276Y-121008600D02*
X221508657Y-121034790D01*
X221508657Y-121034790D02*
X221561038Y-121087171D01*
X221561038Y-121087171D02*
X221587228Y-121191933D01*
X221587228Y-121191933D02*
X221587228Y-121375267D01*
X221587228Y-121375267D02*
X221561038Y-121480029D01*
X221561038Y-121480029D02*
X221508657Y-121532410D01*
X221508657Y-121532410D02*
X221456276Y-121558600D01*
X221456276Y-121558600D02*
X221351514Y-121558600D01*
X222058656Y-121008600D02*
X221953894Y-121008600D01*
X221953894Y-121008600D02*
X221901513Y-121034790D01*
X221901513Y-121034790D02*
X221875323Y-121060981D01*
X221875323Y-121060981D02*
X221822942Y-121139552D01*
X221822942Y-121139552D02*
X221796751Y-121244314D01*
X221796751Y-121244314D02*
X221796751Y-121453838D01*
X221796751Y-121453838D02*
X221822942Y-121506219D01*
X221822942Y-121506219D02*
X221849132Y-121532410D01*
X221849132Y-121532410D02*
X221901513Y-121558600D01*
X221901513Y-121558600D02*
X222006275Y-121558600D01*
X222006275Y-121558600D02*
X222058656Y-121532410D01*
X222058656Y-121532410D02*
X222084847Y-121506219D01*
X222084847Y-121506219D02*
X222111037Y-121453838D01*
X222111037Y-121453838D02*
X222111037Y-121322886D01*
X222111037Y-121322886D02*
X222084847Y-121270505D01*
X222084847Y-121270505D02*
X222058656Y-121244314D01*
X222058656Y-121244314D02*
X222006275Y-121218124D01*
X222006275Y-121218124D02*
X221901513Y-121218124D01*
X221901513Y-121218124D02*
X221849132Y-121244314D01*
X221849132Y-121244314D02*
X221822942Y-121270505D01*
X221822942Y-121270505D02*
X221796751Y-121322886D01*
X197283828Y-115867419D02*
X197257637Y-115893610D01*
X197257637Y-115893610D02*
X197179066Y-115919800D01*
X197179066Y-115919800D02*
X197126685Y-115919800D01*
X197126685Y-115919800D02*
X197048113Y-115893610D01*
X197048113Y-115893610D02*
X196995732Y-115841229D01*
X196995732Y-115841229D02*
X196969542Y-115788848D01*
X196969542Y-115788848D02*
X196943351Y-115684086D01*
X196943351Y-115684086D02*
X196943351Y-115605514D01*
X196943351Y-115605514D02*
X196969542Y-115500752D01*
X196969542Y-115500752D02*
X196995732Y-115448371D01*
X196995732Y-115448371D02*
X197048113Y-115395990D01*
X197048113Y-115395990D02*
X197126685Y-115369800D01*
X197126685Y-115369800D02*
X197179066Y-115369800D01*
X197179066Y-115369800D02*
X197257637Y-115395990D01*
X197257637Y-115395990D02*
X197283828Y-115422181D01*
X197807637Y-115919800D02*
X197493351Y-115919800D01*
X197650494Y-115919800D02*
X197650494Y-115369800D01*
X197650494Y-115369800D02*
X197598113Y-115448371D01*
X197598113Y-115448371D02*
X197545732Y-115500752D01*
X197545732Y-115500752D02*
X197493351Y-115526943D01*
X197990971Y-115369800D02*
X198331447Y-115369800D01*
X198331447Y-115369800D02*
X198148114Y-115579324D01*
X198148114Y-115579324D02*
X198226685Y-115579324D01*
X198226685Y-115579324D02*
X198279066Y-115605514D01*
X198279066Y-115605514D02*
X198305257Y-115631705D01*
X198305257Y-115631705D02*
X198331447Y-115684086D01*
X198331447Y-115684086D02*
X198331447Y-115815038D01*
X198331447Y-115815038D02*
X198305257Y-115867419D01*
X198305257Y-115867419D02*
X198279066Y-115893610D01*
X198279066Y-115893610D02*
X198226685Y-115919800D01*
X198226685Y-115919800D02*
X198069542Y-115919800D01*
X198069542Y-115919800D02*
X198017161Y-115893610D01*
X198017161Y-115893610D02*
X197990971Y-115867419D01*
X223852228Y-100806800D02*
X223668894Y-100544895D01*
X223537942Y-100806800D02*
X223537942Y-100256800D01*
X223537942Y-100256800D02*
X223747466Y-100256800D01*
X223747466Y-100256800D02*
X223799847Y-100282990D01*
X223799847Y-100282990D02*
X223826037Y-100309181D01*
X223826037Y-100309181D02*
X223852228Y-100361562D01*
X223852228Y-100361562D02*
X223852228Y-100440133D01*
X223852228Y-100440133D02*
X223826037Y-100492514D01*
X223826037Y-100492514D02*
X223799847Y-100518705D01*
X223799847Y-100518705D02*
X223747466Y-100544895D01*
X223747466Y-100544895D02*
X223537942Y-100544895D01*
X224061751Y-100309181D02*
X224087942Y-100282990D01*
X224087942Y-100282990D02*
X224140323Y-100256800D01*
X224140323Y-100256800D02*
X224271275Y-100256800D01*
X224271275Y-100256800D02*
X224323656Y-100282990D01*
X224323656Y-100282990D02*
X224349847Y-100309181D01*
X224349847Y-100309181D02*
X224376037Y-100361562D01*
X224376037Y-100361562D02*
X224376037Y-100413943D01*
X224376037Y-100413943D02*
X224349847Y-100492514D01*
X224349847Y-100492514D02*
X224035561Y-100806800D01*
X224035561Y-100806800D02*
X224376037Y-100806800D01*
X224559371Y-100256800D02*
X224899847Y-100256800D01*
X224899847Y-100256800D02*
X224716514Y-100466324D01*
X224716514Y-100466324D02*
X224795085Y-100466324D01*
X224795085Y-100466324D02*
X224847466Y-100492514D01*
X224847466Y-100492514D02*
X224873657Y-100518705D01*
X224873657Y-100518705D02*
X224899847Y-100571086D01*
X224899847Y-100571086D02*
X224899847Y-100702038D01*
X224899847Y-100702038D02*
X224873657Y-100754419D01*
X224873657Y-100754419D02*
X224847466Y-100780610D01*
X224847466Y-100780610D02*
X224795085Y-100806800D01*
X224795085Y-100806800D02*
X224637942Y-100806800D01*
X224637942Y-100806800D02*
X224585561Y-100780610D01*
X224585561Y-100780610D02*
X224559371Y-100754419D01*
X213086399Y-122201428D02*
X213348304Y-122018094D01*
X213086399Y-121887142D02*
X213636399Y-121887142D01*
X213636399Y-121887142D02*
X213636399Y-122096666D01*
X213636399Y-122096666D02*
X213610209Y-122149047D01*
X213610209Y-122149047D02*
X213584018Y-122175237D01*
X213584018Y-122175237D02*
X213531637Y-122201428D01*
X213531637Y-122201428D02*
X213453066Y-122201428D01*
X213453066Y-122201428D02*
X213400685Y-122175237D01*
X213400685Y-122175237D02*
X213374494Y-122149047D01*
X213374494Y-122149047D02*
X213348304Y-122096666D01*
X213348304Y-122096666D02*
X213348304Y-121887142D01*
X213636399Y-122384761D02*
X213636399Y-122725237D01*
X213636399Y-122725237D02*
X213426875Y-122541904D01*
X213426875Y-122541904D02*
X213426875Y-122620475D01*
X213426875Y-122620475D02*
X213400685Y-122672856D01*
X213400685Y-122672856D02*
X213374494Y-122699047D01*
X213374494Y-122699047D02*
X213322113Y-122725237D01*
X213322113Y-122725237D02*
X213191161Y-122725237D01*
X213191161Y-122725237D02*
X213138780Y-122699047D01*
X213138780Y-122699047D02*
X213112590Y-122672856D01*
X213112590Y-122672856D02*
X213086399Y-122620475D01*
X213086399Y-122620475D02*
X213086399Y-122463332D01*
X213086399Y-122463332D02*
X213112590Y-122410951D01*
X213112590Y-122410951D02*
X213138780Y-122384761D01*
X213636399Y-123222857D02*
X213636399Y-122960952D01*
X213636399Y-122960952D02*
X213374494Y-122934761D01*
X213374494Y-122934761D02*
X213400685Y-122960952D01*
X213400685Y-122960952D02*
X213426875Y-123013333D01*
X213426875Y-123013333D02*
X213426875Y-123144285D01*
X213426875Y-123144285D02*
X213400685Y-123196666D01*
X213400685Y-123196666D02*
X213374494Y-123222857D01*
X213374494Y-123222857D02*
X213322113Y-123249047D01*
X213322113Y-123249047D02*
X213191161Y-123249047D01*
X213191161Y-123249047D02*
X213138780Y-123222857D01*
X213138780Y-123222857D02*
X213112590Y-123196666D01*
X213112590Y-123196666D02*
X213086399Y-123144285D01*
X213086399Y-123144285D02*
X213086399Y-123013333D01*
X213086399Y-123013333D02*
X213112590Y-122960952D01*
X213112590Y-122960952D02*
X213138780Y-122934761D01*
X215868800Y-113637571D02*
X215606895Y-113820905D01*
X215868800Y-113951857D02*
X215318800Y-113951857D01*
X215318800Y-113951857D02*
X215318800Y-113742333D01*
X215318800Y-113742333D02*
X215344990Y-113689952D01*
X215344990Y-113689952D02*
X215371181Y-113663762D01*
X215371181Y-113663762D02*
X215423562Y-113637571D01*
X215423562Y-113637571D02*
X215502133Y-113637571D01*
X215502133Y-113637571D02*
X215554514Y-113663762D01*
X215554514Y-113663762D02*
X215580705Y-113689952D01*
X215580705Y-113689952D02*
X215606895Y-113742333D01*
X215606895Y-113742333D02*
X215606895Y-113951857D01*
X215868800Y-113113762D02*
X215868800Y-113428048D01*
X215868800Y-113270905D02*
X215318800Y-113270905D01*
X215318800Y-113270905D02*
X215397371Y-113323286D01*
X215397371Y-113323286D02*
X215449752Y-113375667D01*
X215449752Y-113375667D02*
X215475943Y-113428048D01*
X215318800Y-112773285D02*
X215318800Y-112720904D01*
X215318800Y-112720904D02*
X215344990Y-112668523D01*
X215344990Y-112668523D02*
X215371181Y-112642333D01*
X215371181Y-112642333D02*
X215423562Y-112616142D01*
X215423562Y-112616142D02*
X215528324Y-112589952D01*
X215528324Y-112589952D02*
X215659276Y-112589952D01*
X215659276Y-112589952D02*
X215764038Y-112616142D01*
X215764038Y-112616142D02*
X215816419Y-112642333D01*
X215816419Y-112642333D02*
X215842610Y-112668523D01*
X215842610Y-112668523D02*
X215868800Y-112720904D01*
X215868800Y-112720904D02*
X215868800Y-112773285D01*
X215868800Y-112773285D02*
X215842610Y-112825666D01*
X215842610Y-112825666D02*
X215816419Y-112851857D01*
X215816419Y-112851857D02*
X215764038Y-112878047D01*
X215764038Y-112878047D02*
X215659276Y-112904238D01*
X215659276Y-112904238D02*
X215528324Y-112904238D01*
X215528324Y-112904238D02*
X215423562Y-112878047D01*
X215423562Y-112878047D02*
X215371181Y-112851857D01*
X215371181Y-112851857D02*
X215344990Y-112825666D01*
X215344990Y-112825666D02*
X215318800Y-112773285D01*
X227815600Y-104228847D02*
X228260838Y-104228847D01*
X228260838Y-104228847D02*
X228313219Y-104202657D01*
X228313219Y-104202657D02*
X228339410Y-104176466D01*
X228339410Y-104176466D02*
X228365600Y-104124085D01*
X228365600Y-104124085D02*
X228365600Y-104019323D01*
X228365600Y-104019323D02*
X228339410Y-103966942D01*
X228339410Y-103966942D02*
X228313219Y-103940752D01*
X228313219Y-103940752D02*
X228260838Y-103914561D01*
X228260838Y-103914561D02*
X227815600Y-103914561D01*
X228051314Y-103574086D02*
X228025124Y-103626467D01*
X228025124Y-103626467D02*
X227998933Y-103652657D01*
X227998933Y-103652657D02*
X227946552Y-103678848D01*
X227946552Y-103678848D02*
X227920362Y-103678848D01*
X227920362Y-103678848D02*
X227867981Y-103652657D01*
X227867981Y-103652657D02*
X227841790Y-103626467D01*
X227841790Y-103626467D02*
X227815600Y-103574086D01*
X227815600Y-103574086D02*
X227815600Y-103469324D01*
X227815600Y-103469324D02*
X227841790Y-103416943D01*
X227841790Y-103416943D02*
X227867981Y-103390752D01*
X227867981Y-103390752D02*
X227920362Y-103364562D01*
X227920362Y-103364562D02*
X227946552Y-103364562D01*
X227946552Y-103364562D02*
X227998933Y-103390752D01*
X227998933Y-103390752D02*
X228025124Y-103416943D01*
X228025124Y-103416943D02*
X228051314Y-103469324D01*
X228051314Y-103469324D02*
X228051314Y-103574086D01*
X228051314Y-103574086D02*
X228077505Y-103626467D01*
X228077505Y-103626467D02*
X228103695Y-103652657D01*
X228103695Y-103652657D02*
X228156076Y-103678848D01*
X228156076Y-103678848D02*
X228260838Y-103678848D01*
X228260838Y-103678848D02*
X228313219Y-103652657D01*
X228313219Y-103652657D02*
X228339410Y-103626467D01*
X228339410Y-103626467D02*
X228365600Y-103574086D01*
X228365600Y-103574086D02*
X228365600Y-103469324D01*
X228365600Y-103469324D02*
X228339410Y-103416943D01*
X228339410Y-103416943D02*
X228313219Y-103390752D01*
X228313219Y-103390752D02*
X228260838Y-103364562D01*
X228260838Y-103364562D02*
X228156076Y-103364562D01*
X228156076Y-103364562D02*
X228103695Y-103390752D01*
X228103695Y-103390752D02*
X228077505Y-103416943D01*
X228077505Y-103416943D02*
X228051314Y-103469324D01*
X229147894Y-95092066D02*
X229147894Y-94908733D01*
X228859799Y-94908733D02*
X229409799Y-94908733D01*
X229409799Y-94908733D02*
X229409799Y-95170638D01*
X229357418Y-95353971D02*
X229383609Y-95380162D01*
X229383609Y-95380162D02*
X229409799Y-95432543D01*
X229409799Y-95432543D02*
X229409799Y-95563495D01*
X229409799Y-95563495D02*
X229383609Y-95615876D01*
X229383609Y-95615876D02*
X229357418Y-95642067D01*
X229357418Y-95642067D02*
X229305037Y-95668257D01*
X229305037Y-95668257D02*
X229252656Y-95668257D01*
X229252656Y-95668257D02*
X229174085Y-95642067D01*
X229174085Y-95642067D02*
X228859799Y-95327781D01*
X228859799Y-95327781D02*
X228859799Y-95668257D01*
X216773533Y-105963000D02*
X216590199Y-105701095D01*
X216459247Y-105963000D02*
X216459247Y-105413000D01*
X216459247Y-105413000D02*
X216668771Y-105413000D01*
X216668771Y-105413000D02*
X216721152Y-105439190D01*
X216721152Y-105439190D02*
X216747342Y-105465381D01*
X216747342Y-105465381D02*
X216773533Y-105517762D01*
X216773533Y-105517762D02*
X216773533Y-105596333D01*
X216773533Y-105596333D02*
X216747342Y-105648714D01*
X216747342Y-105648714D02*
X216721152Y-105674905D01*
X216721152Y-105674905D02*
X216668771Y-105701095D01*
X216668771Y-105701095D02*
X216459247Y-105701095D01*
X216956866Y-105413000D02*
X217323533Y-105413000D01*
X217323533Y-105413000D02*
X217087818Y-105963000D01*
X223191828Y-95091800D02*
X223008494Y-94829895D01*
X222877542Y-95091800D02*
X222877542Y-94541800D01*
X222877542Y-94541800D02*
X223087066Y-94541800D01*
X223087066Y-94541800D02*
X223139447Y-94567990D01*
X223139447Y-94567990D02*
X223165637Y-94594181D01*
X223165637Y-94594181D02*
X223191828Y-94646562D01*
X223191828Y-94646562D02*
X223191828Y-94725133D01*
X223191828Y-94725133D02*
X223165637Y-94777514D01*
X223165637Y-94777514D02*
X223139447Y-94803705D01*
X223139447Y-94803705D02*
X223087066Y-94829895D01*
X223087066Y-94829895D02*
X222877542Y-94829895D01*
X223401351Y-94594181D02*
X223427542Y-94567990D01*
X223427542Y-94567990D02*
X223479923Y-94541800D01*
X223479923Y-94541800D02*
X223610875Y-94541800D01*
X223610875Y-94541800D02*
X223663256Y-94567990D01*
X223663256Y-94567990D02*
X223689447Y-94594181D01*
X223689447Y-94594181D02*
X223715637Y-94646562D01*
X223715637Y-94646562D02*
X223715637Y-94698943D01*
X223715637Y-94698943D02*
X223689447Y-94777514D01*
X223689447Y-94777514D02*
X223375161Y-95091800D01*
X223375161Y-95091800D02*
X223715637Y-95091800D01*
X224187066Y-94541800D02*
X224082304Y-94541800D01*
X224082304Y-94541800D02*
X224029923Y-94567990D01*
X224029923Y-94567990D02*
X224003733Y-94594181D01*
X224003733Y-94594181D02*
X223951352Y-94672752D01*
X223951352Y-94672752D02*
X223925161Y-94777514D01*
X223925161Y-94777514D02*
X223925161Y-94987038D01*
X223925161Y-94987038D02*
X223951352Y-95039419D01*
X223951352Y-95039419D02*
X223977542Y-95065610D01*
X223977542Y-95065610D02*
X224029923Y-95091800D01*
X224029923Y-95091800D02*
X224134685Y-95091800D01*
X224134685Y-95091800D02*
X224187066Y-95065610D01*
X224187066Y-95065610D02*
X224213257Y-95039419D01*
X224213257Y-95039419D02*
X224239447Y-94987038D01*
X224239447Y-94987038D02*
X224239447Y-94856086D01*
X224239447Y-94856086D02*
X224213257Y-94803705D01*
X224213257Y-94803705D02*
X224187066Y-94777514D01*
X224187066Y-94777514D02*
X224134685Y-94751324D01*
X224134685Y-94751324D02*
X224029923Y-94751324D01*
X224029923Y-94751324D02*
X223977542Y-94777514D01*
X223977542Y-94777514D02*
X223951352Y-94803705D01*
X223951352Y-94803705D02*
X223925161Y-94856086D01*
X186864868Y-125058662D02*
X186603323Y-125044955D01*
X186603323Y-125044955D02*
X186632107Y-124495709D01*
X187302532Y-124714429D02*
X187283342Y-125080594D01*
X187182724Y-124498339D02*
X187031391Y-124883804D01*
X187031391Y-124883804D02*
X187371400Y-124901624D01*
X280088800Y-143439333D02*
X280481657Y-143439333D01*
X280481657Y-143439333D02*
X280560229Y-143465524D01*
X280560229Y-143465524D02*
X280612610Y-143517905D01*
X280612610Y-143517905D02*
X280638800Y-143596476D01*
X280638800Y-143596476D02*
X280638800Y-143648857D01*
X280272133Y-142941714D02*
X280638800Y-142941714D01*
X280062610Y-143072666D02*
X280455467Y-143203619D01*
X280455467Y-143203619D02*
X280455467Y-142863142D01*
X232796799Y-109018828D02*
X233058704Y-108835494D01*
X232796799Y-108704542D02*
X233346799Y-108704542D01*
X233346799Y-108704542D02*
X233346799Y-108914066D01*
X233346799Y-108914066D02*
X233320609Y-108966447D01*
X233320609Y-108966447D02*
X233294418Y-108992637D01*
X233294418Y-108992637D02*
X233242037Y-109018828D01*
X233242037Y-109018828D02*
X233163466Y-109018828D01*
X233163466Y-109018828D02*
X233111085Y-108992637D01*
X233111085Y-108992637D02*
X233084894Y-108966447D01*
X233084894Y-108966447D02*
X233058704Y-108914066D01*
X233058704Y-108914066D02*
X233058704Y-108704542D01*
X232796799Y-109542637D02*
X232796799Y-109228351D01*
X232796799Y-109385494D02*
X233346799Y-109385494D01*
X233346799Y-109385494D02*
X233268228Y-109333113D01*
X233268228Y-109333113D02*
X233215847Y-109280732D01*
X233215847Y-109280732D02*
X233189656Y-109228351D01*
X233163466Y-110014066D02*
X232796799Y-110014066D01*
X233372990Y-109883114D02*
X232980132Y-109752161D01*
X232980132Y-109752161D02*
X232980132Y-110092638D01*
X245536000Y-112673952D02*
X244986000Y-112673952D01*
X244986000Y-112673952D02*
X244986000Y-112543000D01*
X244986000Y-112543000D02*
X245012190Y-112464428D01*
X245012190Y-112464428D02*
X245064571Y-112412047D01*
X245064571Y-112412047D02*
X245116952Y-112385857D01*
X245116952Y-112385857D02*
X245221714Y-112359666D01*
X245221714Y-112359666D02*
X245300286Y-112359666D01*
X245300286Y-112359666D02*
X245405048Y-112385857D01*
X245405048Y-112385857D02*
X245457429Y-112412047D01*
X245457429Y-112412047D02*
X245509810Y-112464428D01*
X245509810Y-112464428D02*
X245536000Y-112543000D01*
X245536000Y-112543000D02*
X245536000Y-112673952D01*
X245221714Y-112045381D02*
X245195524Y-112097762D01*
X245195524Y-112097762D02*
X245169333Y-112123952D01*
X245169333Y-112123952D02*
X245116952Y-112150143D01*
X245116952Y-112150143D02*
X245090762Y-112150143D01*
X245090762Y-112150143D02*
X245038381Y-112123952D01*
X245038381Y-112123952D02*
X245012190Y-112097762D01*
X245012190Y-112097762D02*
X244986000Y-112045381D01*
X244986000Y-112045381D02*
X244986000Y-111940619D01*
X244986000Y-111940619D02*
X245012190Y-111888238D01*
X245012190Y-111888238D02*
X245038381Y-111862047D01*
X245038381Y-111862047D02*
X245090762Y-111835857D01*
X245090762Y-111835857D02*
X245116952Y-111835857D01*
X245116952Y-111835857D02*
X245169333Y-111862047D01*
X245169333Y-111862047D02*
X245195524Y-111888238D01*
X245195524Y-111888238D02*
X245221714Y-111940619D01*
X245221714Y-111940619D02*
X245221714Y-112045381D01*
X245221714Y-112045381D02*
X245247905Y-112097762D01*
X245247905Y-112097762D02*
X245274095Y-112123952D01*
X245274095Y-112123952D02*
X245326476Y-112150143D01*
X245326476Y-112150143D02*
X245431238Y-112150143D01*
X245431238Y-112150143D02*
X245483619Y-112123952D01*
X245483619Y-112123952D02*
X245509810Y-112097762D01*
X245509810Y-112097762D02*
X245536000Y-112045381D01*
X245536000Y-112045381D02*
X245536000Y-111940619D01*
X245536000Y-111940619D02*
X245509810Y-111888238D01*
X245509810Y-111888238D02*
X245483619Y-111862047D01*
X245483619Y-111862047D02*
X245431238Y-111835857D01*
X245431238Y-111835857D02*
X245326476Y-111835857D01*
X245326476Y-111835857D02*
X245274095Y-111862047D01*
X245274095Y-111862047D02*
X245247905Y-111888238D01*
X245247905Y-111888238D02*
X245221714Y-111940619D01*
X213557400Y-99669152D02*
X213007400Y-99669152D01*
X213007400Y-99669152D02*
X213007400Y-99538200D01*
X213007400Y-99538200D02*
X213033590Y-99459628D01*
X213033590Y-99459628D02*
X213085971Y-99407247D01*
X213085971Y-99407247D02*
X213138352Y-99381057D01*
X213138352Y-99381057D02*
X213243114Y-99354866D01*
X213243114Y-99354866D02*
X213321686Y-99354866D01*
X213321686Y-99354866D02*
X213426448Y-99381057D01*
X213426448Y-99381057D02*
X213478829Y-99407247D01*
X213478829Y-99407247D02*
X213531210Y-99459628D01*
X213531210Y-99459628D02*
X213557400Y-99538200D01*
X213557400Y-99538200D02*
X213557400Y-99669152D01*
X213059781Y-99145343D02*
X213033590Y-99119152D01*
X213033590Y-99119152D02*
X213007400Y-99066771D01*
X213007400Y-99066771D02*
X213007400Y-98935819D01*
X213007400Y-98935819D02*
X213033590Y-98883438D01*
X213033590Y-98883438D02*
X213059781Y-98857247D01*
X213059781Y-98857247D02*
X213112162Y-98831057D01*
X213112162Y-98831057D02*
X213164543Y-98831057D01*
X213164543Y-98831057D02*
X213243114Y-98857247D01*
X213243114Y-98857247D02*
X213557400Y-99171533D01*
X213557400Y-99171533D02*
X213557400Y-98831057D01*
X235556599Y-118362866D02*
X235163742Y-118362866D01*
X235163742Y-118362866D02*
X235085170Y-118336675D01*
X235085170Y-118336675D02*
X235032790Y-118284294D01*
X235032790Y-118284294D02*
X235006599Y-118205723D01*
X235006599Y-118205723D02*
X235006599Y-118153342D01*
X235006599Y-118624771D02*
X235556599Y-118624771D01*
X235556599Y-118624771D02*
X235556599Y-118834295D01*
X235556599Y-118834295D02*
X235530409Y-118886676D01*
X235530409Y-118886676D02*
X235504218Y-118912866D01*
X235504218Y-118912866D02*
X235451837Y-118939057D01*
X235451837Y-118939057D02*
X235373266Y-118939057D01*
X235373266Y-118939057D02*
X235320885Y-118912866D01*
X235320885Y-118912866D02*
X235294694Y-118886676D01*
X235294694Y-118886676D02*
X235268504Y-118834295D01*
X235268504Y-118834295D02*
X235268504Y-118624771D01*
X235006599Y-119462866D02*
X235006599Y-119148580D01*
X235006599Y-119305723D02*
X235556599Y-119305723D01*
X235556599Y-119305723D02*
X235478028Y-119253342D01*
X235478028Y-119253342D02*
X235425647Y-119200961D01*
X235425647Y-119200961D02*
X235399456Y-119148580D01*
X216105228Y-104716819D02*
X216079037Y-104743010D01*
X216079037Y-104743010D02*
X216000466Y-104769200D01*
X216000466Y-104769200D02*
X215948085Y-104769200D01*
X215948085Y-104769200D02*
X215869513Y-104743010D01*
X215869513Y-104743010D02*
X215817132Y-104690629D01*
X215817132Y-104690629D02*
X215790942Y-104638248D01*
X215790942Y-104638248D02*
X215764751Y-104533486D01*
X215764751Y-104533486D02*
X215764751Y-104454914D01*
X215764751Y-104454914D02*
X215790942Y-104350152D01*
X215790942Y-104350152D02*
X215817132Y-104297771D01*
X215817132Y-104297771D02*
X215869513Y-104245390D01*
X215869513Y-104245390D02*
X215948085Y-104219200D01*
X215948085Y-104219200D02*
X216000466Y-104219200D01*
X216000466Y-104219200D02*
X216079037Y-104245390D01*
X216079037Y-104245390D02*
X216105228Y-104271581D01*
X216629037Y-104769200D02*
X216314751Y-104769200D01*
X216471894Y-104769200D02*
X216471894Y-104219200D01*
X216471894Y-104219200D02*
X216419513Y-104297771D01*
X216419513Y-104297771D02*
X216367132Y-104350152D01*
X216367132Y-104350152D02*
X216314751Y-104376343D01*
X216969514Y-104219200D02*
X217021895Y-104219200D01*
X217021895Y-104219200D02*
X217074276Y-104245390D01*
X217074276Y-104245390D02*
X217100466Y-104271581D01*
X217100466Y-104271581D02*
X217126657Y-104323962D01*
X217126657Y-104323962D02*
X217152847Y-104428724D01*
X217152847Y-104428724D02*
X217152847Y-104559676D01*
X217152847Y-104559676D02*
X217126657Y-104664438D01*
X217126657Y-104664438D02*
X217100466Y-104716819D01*
X217100466Y-104716819D02*
X217074276Y-104743010D01*
X217074276Y-104743010D02*
X217021895Y-104769200D01*
X217021895Y-104769200D02*
X216969514Y-104769200D01*
X216969514Y-104769200D02*
X216917133Y-104743010D01*
X216917133Y-104743010D02*
X216890942Y-104716819D01*
X216890942Y-104716819D02*
X216864752Y-104664438D01*
X216864752Y-104664438D02*
X216838561Y-104559676D01*
X216838561Y-104559676D02*
X216838561Y-104428724D01*
X216838561Y-104428724D02*
X216864752Y-104323962D01*
X216864752Y-104323962D02*
X216890942Y-104271581D01*
X216890942Y-104271581D02*
X216917133Y-104245390D01*
X216917133Y-104245390D02*
X216969514Y-104219200D01*
X193713152Y-121389600D02*
X193713152Y-121834838D01*
X193713152Y-121834838D02*
X193739342Y-121887219D01*
X193739342Y-121887219D02*
X193765533Y-121913410D01*
X193765533Y-121913410D02*
X193817914Y-121939600D01*
X193817914Y-121939600D02*
X193922676Y-121939600D01*
X193922676Y-121939600D02*
X193975057Y-121913410D01*
X193975057Y-121913410D02*
X194001247Y-121887219D01*
X194001247Y-121887219D02*
X194027438Y-121834838D01*
X194027438Y-121834838D02*
X194027438Y-121389600D01*
X194525056Y-121389600D02*
X194420294Y-121389600D01*
X194420294Y-121389600D02*
X194367913Y-121415790D01*
X194367913Y-121415790D02*
X194341723Y-121441981D01*
X194341723Y-121441981D02*
X194289342Y-121520552D01*
X194289342Y-121520552D02*
X194263151Y-121625314D01*
X194263151Y-121625314D02*
X194263151Y-121834838D01*
X194263151Y-121834838D02*
X194289342Y-121887219D01*
X194289342Y-121887219D02*
X194315532Y-121913410D01*
X194315532Y-121913410D02*
X194367913Y-121939600D01*
X194367913Y-121939600D02*
X194472675Y-121939600D01*
X194472675Y-121939600D02*
X194525056Y-121913410D01*
X194525056Y-121913410D02*
X194551247Y-121887219D01*
X194551247Y-121887219D02*
X194577437Y-121834838D01*
X194577437Y-121834838D02*
X194577437Y-121703886D01*
X194577437Y-121703886D02*
X194551247Y-121651505D01*
X194551247Y-121651505D02*
X194525056Y-121625314D01*
X194525056Y-121625314D02*
X194472675Y-121599124D01*
X194472675Y-121599124D02*
X194367913Y-121599124D01*
X194367913Y-121599124D02*
X194315532Y-121625314D01*
X194315532Y-121625314D02*
X194289342Y-121651505D01*
X194289342Y-121651505D02*
X194263151Y-121703886D01*
X227775671Y-113786932D02*
X227801862Y-113760742D01*
X227801862Y-113760742D02*
X227880433Y-113734551D01*
X227880433Y-113734551D02*
X227932814Y-113734551D01*
X227932814Y-113734551D02*
X228011386Y-113760742D01*
X228011386Y-113760742D02*
X228063767Y-113813122D01*
X228063767Y-113813122D02*
X228089957Y-113865503D01*
X228089957Y-113865503D02*
X228116148Y-113970265D01*
X228116148Y-113970265D02*
X228116148Y-114048837D01*
X228116148Y-114048837D02*
X228089957Y-114153599D01*
X228089957Y-114153599D02*
X228063767Y-114205980D01*
X228063767Y-114205980D02*
X228011386Y-114258361D01*
X228011386Y-114258361D02*
X227932814Y-114284551D01*
X227932814Y-114284551D02*
X227880433Y-114284551D01*
X227880433Y-114284551D02*
X227801862Y-114258361D01*
X227801862Y-114258361D02*
X227775671Y-114232170D01*
X227251862Y-113734551D02*
X227566148Y-113734551D01*
X227409005Y-113734551D02*
X227409005Y-114284551D01*
X227409005Y-114284551D02*
X227461386Y-114205980D01*
X227461386Y-114205980D02*
X227513767Y-114153599D01*
X227513767Y-114153599D02*
X227566148Y-114127408D01*
X226780433Y-114284551D02*
X226885195Y-114284551D01*
X226885195Y-114284551D02*
X226937576Y-114258361D01*
X226937576Y-114258361D02*
X226963766Y-114232170D01*
X226963766Y-114232170D02*
X227016147Y-114153599D01*
X227016147Y-114153599D02*
X227042338Y-114048837D01*
X227042338Y-114048837D02*
X227042338Y-113839313D01*
X227042338Y-113839313D02*
X227016147Y-113786932D01*
X227016147Y-113786932D02*
X226989957Y-113760742D01*
X226989957Y-113760742D02*
X226937576Y-113734551D01*
X226937576Y-113734551D02*
X226832814Y-113734551D01*
X226832814Y-113734551D02*
X226780433Y-113760742D01*
X226780433Y-113760742D02*
X226754242Y-113786932D01*
X226754242Y-113786932D02*
X226728052Y-113839313D01*
X226728052Y-113839313D02*
X226728052Y-113970265D01*
X226728052Y-113970265D02*
X226754242Y-114022646D01*
X226754242Y-114022646D02*
X226780433Y-114048837D01*
X226780433Y-114048837D02*
X226832814Y-114075027D01*
X226832814Y-114075027D02*
X226937576Y-114075027D01*
X226937576Y-114075027D02*
X226989957Y-114048837D01*
X226989957Y-114048837D02*
X227016147Y-114022646D01*
X227016147Y-114022646D02*
X227042338Y-113970265D01*
X200509628Y-126281419D02*
X200483437Y-126307610D01*
X200483437Y-126307610D02*
X200404866Y-126333800D01*
X200404866Y-126333800D02*
X200352485Y-126333800D01*
X200352485Y-126333800D02*
X200273913Y-126307610D01*
X200273913Y-126307610D02*
X200221532Y-126255229D01*
X200221532Y-126255229D02*
X200195342Y-126202848D01*
X200195342Y-126202848D02*
X200169151Y-126098086D01*
X200169151Y-126098086D02*
X200169151Y-126019514D01*
X200169151Y-126019514D02*
X200195342Y-125914752D01*
X200195342Y-125914752D02*
X200221532Y-125862371D01*
X200221532Y-125862371D02*
X200273913Y-125809990D01*
X200273913Y-125809990D02*
X200352485Y-125783800D01*
X200352485Y-125783800D02*
X200404866Y-125783800D01*
X200404866Y-125783800D02*
X200483437Y-125809990D01*
X200483437Y-125809990D02*
X200509628Y-125836181D01*
X201033437Y-126333800D02*
X200719151Y-126333800D01*
X200876294Y-126333800D02*
X200876294Y-125783800D01*
X200876294Y-125783800D02*
X200823913Y-125862371D01*
X200823913Y-125862371D02*
X200771532Y-125914752D01*
X200771532Y-125914752D02*
X200719151Y-125940943D01*
X201347723Y-126019514D02*
X201295342Y-125993324D01*
X201295342Y-125993324D02*
X201269152Y-125967133D01*
X201269152Y-125967133D02*
X201242961Y-125914752D01*
X201242961Y-125914752D02*
X201242961Y-125888562D01*
X201242961Y-125888562D02*
X201269152Y-125836181D01*
X201269152Y-125836181D02*
X201295342Y-125809990D01*
X201295342Y-125809990D02*
X201347723Y-125783800D01*
X201347723Y-125783800D02*
X201452485Y-125783800D01*
X201452485Y-125783800D02*
X201504866Y-125809990D01*
X201504866Y-125809990D02*
X201531057Y-125836181D01*
X201531057Y-125836181D02*
X201557247Y-125888562D01*
X201557247Y-125888562D02*
X201557247Y-125914752D01*
X201557247Y-125914752D02*
X201531057Y-125967133D01*
X201531057Y-125967133D02*
X201504866Y-125993324D01*
X201504866Y-125993324D02*
X201452485Y-126019514D01*
X201452485Y-126019514D02*
X201347723Y-126019514D01*
X201347723Y-126019514D02*
X201295342Y-126045705D01*
X201295342Y-126045705D02*
X201269152Y-126071895D01*
X201269152Y-126071895D02*
X201242961Y-126124276D01*
X201242961Y-126124276D02*
X201242961Y-126229038D01*
X201242961Y-126229038D02*
X201269152Y-126281419D01*
X201269152Y-126281419D02*
X201295342Y-126307610D01*
X201295342Y-126307610D02*
X201347723Y-126333800D01*
X201347723Y-126333800D02*
X201452485Y-126333800D01*
X201452485Y-126333800D02*
X201504866Y-126307610D01*
X201504866Y-126307610D02*
X201531057Y-126281419D01*
X201531057Y-126281419D02*
X201557247Y-126229038D01*
X201557247Y-126229038D02*
X201557247Y-126124276D01*
X201557247Y-126124276D02*
X201531057Y-126071895D01*
X201531057Y-126071895D02*
X201504866Y-126045705D01*
X201504866Y-126045705D02*
X201452485Y-126019514D01*
X219661228Y-100756000D02*
X219477894Y-100494095D01*
X219346942Y-100756000D02*
X219346942Y-100206000D01*
X219346942Y-100206000D02*
X219556466Y-100206000D01*
X219556466Y-100206000D02*
X219608847Y-100232190D01*
X219608847Y-100232190D02*
X219635037Y-100258381D01*
X219635037Y-100258381D02*
X219661228Y-100310762D01*
X219661228Y-100310762D02*
X219661228Y-100389333D01*
X219661228Y-100389333D02*
X219635037Y-100441714D01*
X219635037Y-100441714D02*
X219608847Y-100467905D01*
X219608847Y-100467905D02*
X219556466Y-100494095D01*
X219556466Y-100494095D02*
X219346942Y-100494095D01*
X219870751Y-100258381D02*
X219896942Y-100232190D01*
X219896942Y-100232190D02*
X219949323Y-100206000D01*
X219949323Y-100206000D02*
X220080275Y-100206000D01*
X220080275Y-100206000D02*
X220132656Y-100232190D01*
X220132656Y-100232190D02*
X220158847Y-100258381D01*
X220158847Y-100258381D02*
X220185037Y-100310762D01*
X220185037Y-100310762D02*
X220185037Y-100363143D01*
X220185037Y-100363143D02*
X220158847Y-100441714D01*
X220158847Y-100441714D02*
X219844561Y-100756000D01*
X219844561Y-100756000D02*
X220185037Y-100756000D01*
X220656466Y-100389333D02*
X220656466Y-100756000D01*
X220525514Y-100179810D02*
X220394561Y-100572667D01*
X220394561Y-100572667D02*
X220735038Y-100572667D01*
X245085047Y-111373200D02*
X245085047Y-110823200D01*
X245085047Y-110823200D02*
X245215999Y-110823200D01*
X245215999Y-110823200D02*
X245294571Y-110849390D01*
X245294571Y-110849390D02*
X245346952Y-110901771D01*
X245346952Y-110901771D02*
X245373142Y-110954152D01*
X245373142Y-110954152D02*
X245399333Y-111058914D01*
X245399333Y-111058914D02*
X245399333Y-111137486D01*
X245399333Y-111137486D02*
X245373142Y-111242248D01*
X245373142Y-111242248D02*
X245346952Y-111294629D01*
X245346952Y-111294629D02*
X245294571Y-111347010D01*
X245294571Y-111347010D02*
X245215999Y-111373200D01*
X245215999Y-111373200D02*
X245085047Y-111373200D01*
X245896952Y-110823200D02*
X245635047Y-110823200D01*
X245635047Y-110823200D02*
X245608856Y-111085105D01*
X245608856Y-111085105D02*
X245635047Y-111058914D01*
X245635047Y-111058914D02*
X245687428Y-111032724D01*
X245687428Y-111032724D02*
X245818380Y-111032724D01*
X245818380Y-111032724D02*
X245870761Y-111058914D01*
X245870761Y-111058914D02*
X245896952Y-111085105D01*
X245896952Y-111085105D02*
X245923142Y-111137486D01*
X245923142Y-111137486D02*
X245923142Y-111268438D01*
X245923142Y-111268438D02*
X245896952Y-111320819D01*
X245896952Y-111320819D02*
X245870761Y-111347010D01*
X245870761Y-111347010D02*
X245818380Y-111373200D01*
X245818380Y-111373200D02*
X245687428Y-111373200D01*
X245687428Y-111373200D02*
X245635047Y-111347010D01*
X245635047Y-111347010D02*
X245608856Y-111320819D01*
X191154600Y-115610866D02*
X190892695Y-115794200D01*
X191154600Y-115925152D02*
X190604600Y-115925152D01*
X190604600Y-115925152D02*
X190604600Y-115715628D01*
X190604600Y-115715628D02*
X190630790Y-115663247D01*
X190630790Y-115663247D02*
X190656981Y-115637057D01*
X190656981Y-115637057D02*
X190709362Y-115610866D01*
X190709362Y-115610866D02*
X190787933Y-115610866D01*
X190787933Y-115610866D02*
X190840314Y-115637057D01*
X190840314Y-115637057D02*
X190866505Y-115663247D01*
X190866505Y-115663247D02*
X190892695Y-115715628D01*
X190892695Y-115715628D02*
X190892695Y-115925152D01*
X190656981Y-115401343D02*
X190630790Y-115375152D01*
X190630790Y-115375152D02*
X190604600Y-115322771D01*
X190604600Y-115322771D02*
X190604600Y-115191819D01*
X190604600Y-115191819D02*
X190630790Y-115139438D01*
X190630790Y-115139438D02*
X190656981Y-115113247D01*
X190656981Y-115113247D02*
X190709362Y-115087057D01*
X190709362Y-115087057D02*
X190761743Y-115087057D01*
X190761743Y-115087057D02*
X190840314Y-115113247D01*
X190840314Y-115113247D02*
X191154600Y-115427533D01*
X191154600Y-115427533D02*
X191154600Y-115087057D01*
X228332295Y-108669104D02*
X228594200Y-108669104D01*
X228044200Y-108852438D02*
X228332295Y-108669104D01*
X228332295Y-108669104D02*
X228044200Y-108485771D01*
X228594200Y-108014342D02*
X228594200Y-108328628D01*
X228594200Y-108171485D02*
X228044200Y-108171485D01*
X228044200Y-108171485D02*
X228122771Y-108223866D01*
X228122771Y-108223866D02*
X228175152Y-108276247D01*
X228175152Y-108276247D02*
X228201343Y-108328628D01*
X220016828Y-128594400D02*
X219833494Y-128332495D01*
X219702542Y-128594400D02*
X219702542Y-128044400D01*
X219702542Y-128044400D02*
X219912066Y-128044400D01*
X219912066Y-128044400D02*
X219964447Y-128070590D01*
X219964447Y-128070590D02*
X219990637Y-128096781D01*
X219990637Y-128096781D02*
X220016828Y-128149162D01*
X220016828Y-128149162D02*
X220016828Y-128227733D01*
X220016828Y-128227733D02*
X219990637Y-128280114D01*
X219990637Y-128280114D02*
X219964447Y-128306305D01*
X219964447Y-128306305D02*
X219912066Y-128332495D01*
X219912066Y-128332495D02*
X219702542Y-128332495D01*
X220200161Y-128044400D02*
X220540637Y-128044400D01*
X220540637Y-128044400D02*
X220357304Y-128253924D01*
X220357304Y-128253924D02*
X220435875Y-128253924D01*
X220435875Y-128253924D02*
X220488256Y-128280114D01*
X220488256Y-128280114D02*
X220514447Y-128306305D01*
X220514447Y-128306305D02*
X220540637Y-128358686D01*
X220540637Y-128358686D02*
X220540637Y-128489638D01*
X220540637Y-128489638D02*
X220514447Y-128542019D01*
X220514447Y-128542019D02*
X220488256Y-128568210D01*
X220488256Y-128568210D02*
X220435875Y-128594400D01*
X220435875Y-128594400D02*
X220278732Y-128594400D01*
X220278732Y-128594400D02*
X220226351Y-128568210D01*
X220226351Y-128568210D02*
X220200161Y-128542019D01*
X221064447Y-128594400D02*
X220750161Y-128594400D01*
X220907304Y-128594400D02*
X220907304Y-128044400D01*
X220907304Y-128044400D02*
X220854923Y-128122971D01*
X220854923Y-128122971D02*
X220802542Y-128175352D01*
X220802542Y-128175352D02*
X220750161Y-128201543D01*
X219221600Y-128344171D02*
X218959695Y-128527505D01*
X219221600Y-128658457D02*
X218671600Y-128658457D01*
X218671600Y-128658457D02*
X218671600Y-128448933D01*
X218671600Y-128448933D02*
X218697790Y-128396552D01*
X218697790Y-128396552D02*
X218723981Y-128370362D01*
X218723981Y-128370362D02*
X218776362Y-128344171D01*
X218776362Y-128344171D02*
X218854933Y-128344171D01*
X218854933Y-128344171D02*
X218907314Y-128370362D01*
X218907314Y-128370362D02*
X218933505Y-128396552D01*
X218933505Y-128396552D02*
X218959695Y-128448933D01*
X218959695Y-128448933D02*
X218959695Y-128658457D01*
X218671600Y-128160838D02*
X218671600Y-127820362D01*
X218671600Y-127820362D02*
X218881124Y-128003695D01*
X218881124Y-128003695D02*
X218881124Y-127925124D01*
X218881124Y-127925124D02*
X218907314Y-127872743D01*
X218907314Y-127872743D02*
X218933505Y-127846552D01*
X218933505Y-127846552D02*
X218985886Y-127820362D01*
X218985886Y-127820362D02*
X219116838Y-127820362D01*
X219116838Y-127820362D02*
X219169219Y-127846552D01*
X219169219Y-127846552D02*
X219195410Y-127872743D01*
X219195410Y-127872743D02*
X219221600Y-127925124D01*
X219221600Y-127925124D02*
X219221600Y-128082267D01*
X219221600Y-128082267D02*
X219195410Y-128134648D01*
X219195410Y-128134648D02*
X219169219Y-128160838D01*
X218723981Y-127610838D02*
X218697790Y-127584647D01*
X218697790Y-127584647D02*
X218671600Y-127532266D01*
X218671600Y-127532266D02*
X218671600Y-127401314D01*
X218671600Y-127401314D02*
X218697790Y-127348933D01*
X218697790Y-127348933D02*
X218723981Y-127322742D01*
X218723981Y-127322742D02*
X218776362Y-127296552D01*
X218776362Y-127296552D02*
X218828743Y-127296552D01*
X218828743Y-127296552D02*
X218907314Y-127322742D01*
X218907314Y-127322742D02*
X219221600Y-127637028D01*
X219221600Y-127637028D02*
X219221600Y-127296552D01*
X177505133Y-130091419D02*
X177478942Y-130117610D01*
X177478942Y-130117610D02*
X177400371Y-130143800D01*
X177400371Y-130143800D02*
X177347990Y-130143800D01*
X177347990Y-130143800D02*
X177269418Y-130117610D01*
X177269418Y-130117610D02*
X177217037Y-130065229D01*
X177217037Y-130065229D02*
X177190847Y-130012848D01*
X177190847Y-130012848D02*
X177164656Y-129908086D01*
X177164656Y-129908086D02*
X177164656Y-129829514D01*
X177164656Y-129829514D02*
X177190847Y-129724752D01*
X177190847Y-129724752D02*
X177217037Y-129672371D01*
X177217037Y-129672371D02*
X177269418Y-129619990D01*
X177269418Y-129619990D02*
X177347990Y-129593800D01*
X177347990Y-129593800D02*
X177400371Y-129593800D01*
X177400371Y-129593800D02*
X177478942Y-129619990D01*
X177478942Y-129619990D02*
X177505133Y-129646181D01*
X178028942Y-130143800D02*
X177714656Y-130143800D01*
X177871799Y-130143800D02*
X177871799Y-129593800D01*
X177871799Y-129593800D02*
X177819418Y-129672371D01*
X177819418Y-129672371D02*
X177767037Y-129724752D01*
X177767037Y-129724752D02*
X177714656Y-129750943D01*
X174400121Y-126981482D02*
X174376819Y-127426110D01*
X174376819Y-127426110D02*
X174400232Y-127479790D01*
X174400232Y-127479790D02*
X174425016Y-127507315D01*
X174425016Y-127507315D02*
X174475955Y-127536211D01*
X174475955Y-127536211D02*
X174580573Y-127541694D01*
X174580573Y-127541694D02*
X174634253Y-127518281D01*
X174634253Y-127518281D02*
X174661778Y-127493497D01*
X174661778Y-127493497D02*
X174690674Y-127442559D01*
X174690674Y-127442559D02*
X174713976Y-126997931D01*
X174946625Y-127062576D02*
X174974151Y-127037792D01*
X174974151Y-127037792D02*
X175027831Y-127014379D01*
X175027831Y-127014379D02*
X175158604Y-127021233D01*
X175158604Y-127021233D02*
X175209542Y-127050129D01*
X175209542Y-127050129D02*
X175234326Y-127077654D01*
X175234326Y-127077654D02*
X175257739Y-127131334D01*
X175257739Y-127131334D02*
X175254998Y-127183643D01*
X175254998Y-127183643D02*
X175224731Y-127260736D01*
X175224731Y-127260736D02*
X174894428Y-127558143D01*
X174894428Y-127558143D02*
X175234437Y-127575962D01*
X216925933Y-101922819D02*
X216899742Y-101949010D01*
X216899742Y-101949010D02*
X216821171Y-101975200D01*
X216821171Y-101975200D02*
X216768790Y-101975200D01*
X216768790Y-101975200D02*
X216690218Y-101949010D01*
X216690218Y-101949010D02*
X216637837Y-101896629D01*
X216637837Y-101896629D02*
X216611647Y-101844248D01*
X216611647Y-101844248D02*
X216585456Y-101739486D01*
X216585456Y-101739486D02*
X216585456Y-101660914D01*
X216585456Y-101660914D02*
X216611647Y-101556152D01*
X216611647Y-101556152D02*
X216637837Y-101503771D01*
X216637837Y-101503771D02*
X216690218Y-101451390D01*
X216690218Y-101451390D02*
X216768790Y-101425200D01*
X216768790Y-101425200D02*
X216821171Y-101425200D01*
X216821171Y-101425200D02*
X216899742Y-101451390D01*
X216899742Y-101451390D02*
X216925933Y-101477581D01*
X217109266Y-101425200D02*
X217475933Y-101425200D01*
X217475933Y-101425200D02*
X217240218Y-101975200D01*
X255146266Y-106952810D02*
X255224838Y-106979000D01*
X255224838Y-106979000D02*
X255355790Y-106979000D01*
X255355790Y-106979000D02*
X255408171Y-106952810D01*
X255408171Y-106952810D02*
X255434362Y-106926619D01*
X255434362Y-106926619D02*
X255460552Y-106874238D01*
X255460552Y-106874238D02*
X255460552Y-106821857D01*
X255460552Y-106821857D02*
X255434362Y-106769476D01*
X255434362Y-106769476D02*
X255408171Y-106743286D01*
X255408171Y-106743286D02*
X255355790Y-106717095D01*
X255355790Y-106717095D02*
X255251028Y-106690905D01*
X255251028Y-106690905D02*
X255198647Y-106664714D01*
X255198647Y-106664714D02*
X255172457Y-106638524D01*
X255172457Y-106638524D02*
X255146266Y-106586143D01*
X255146266Y-106586143D02*
X255146266Y-106533762D01*
X255146266Y-106533762D02*
X255172457Y-106481381D01*
X255172457Y-106481381D02*
X255198647Y-106455190D01*
X255198647Y-106455190D02*
X255251028Y-106429000D01*
X255251028Y-106429000D02*
X255381981Y-106429000D01*
X255381981Y-106429000D02*
X255460552Y-106455190D01*
X255643886Y-106429000D02*
X255774838Y-106979000D01*
X255774838Y-106979000D02*
X255879600Y-106586143D01*
X255879600Y-106586143D02*
X255984362Y-106979000D01*
X255984362Y-106979000D02*
X256115315Y-106429000D01*
X256560552Y-106612333D02*
X256560552Y-106979000D01*
X256429600Y-106402810D02*
X256298647Y-106795667D01*
X256298647Y-106795667D02*
X256639124Y-106795667D01*
X197909419Y-98854771D02*
X197935610Y-98880962D01*
X197935610Y-98880962D02*
X197961800Y-98959533D01*
X197961800Y-98959533D02*
X197961800Y-99011914D01*
X197961800Y-99011914D02*
X197935610Y-99090486D01*
X197935610Y-99090486D02*
X197883229Y-99142867D01*
X197883229Y-99142867D02*
X197830848Y-99169057D01*
X197830848Y-99169057D02*
X197726086Y-99195248D01*
X197726086Y-99195248D02*
X197647514Y-99195248D01*
X197647514Y-99195248D02*
X197542752Y-99169057D01*
X197542752Y-99169057D02*
X197490371Y-99142867D01*
X197490371Y-99142867D02*
X197437990Y-99090486D01*
X197437990Y-99090486D02*
X197411800Y-99011914D01*
X197411800Y-99011914D02*
X197411800Y-98959533D01*
X197411800Y-98959533D02*
X197437990Y-98880962D01*
X197437990Y-98880962D02*
X197464181Y-98854771D01*
X197961800Y-98330962D02*
X197961800Y-98645248D01*
X197961800Y-98488105D02*
X197411800Y-98488105D01*
X197411800Y-98488105D02*
X197490371Y-98540486D01*
X197490371Y-98540486D02*
X197542752Y-98592867D01*
X197542752Y-98592867D02*
X197568943Y-98645248D01*
X197961800Y-98069057D02*
X197961800Y-97964295D01*
X197961800Y-97964295D02*
X197935610Y-97911914D01*
X197935610Y-97911914D02*
X197909419Y-97885723D01*
X197909419Y-97885723D02*
X197830848Y-97833342D01*
X197830848Y-97833342D02*
X197726086Y-97807152D01*
X197726086Y-97807152D02*
X197516562Y-97807152D01*
X197516562Y-97807152D02*
X197464181Y-97833342D01*
X197464181Y-97833342D02*
X197437990Y-97859533D01*
X197437990Y-97859533D02*
X197411800Y-97911914D01*
X197411800Y-97911914D02*
X197411800Y-98016676D01*
X197411800Y-98016676D02*
X197437990Y-98069057D01*
X197437990Y-98069057D02*
X197464181Y-98095247D01*
X197464181Y-98095247D02*
X197516562Y-98121438D01*
X197516562Y-98121438D02*
X197647514Y-98121438D01*
X197647514Y-98121438D02*
X197699895Y-98095247D01*
X197699895Y-98095247D02*
X197726086Y-98069057D01*
X197726086Y-98069057D02*
X197752276Y-98016676D01*
X197752276Y-98016676D02*
X197752276Y-97911914D01*
X197752276Y-97911914D02*
X197726086Y-97859533D01*
X197726086Y-97859533D02*
X197699895Y-97833342D01*
X197699895Y-97833342D02*
X197647514Y-97807152D01*
X195328028Y-104386619D02*
X195301837Y-104412810D01*
X195301837Y-104412810D02*
X195223266Y-104439000D01*
X195223266Y-104439000D02*
X195170885Y-104439000D01*
X195170885Y-104439000D02*
X195092313Y-104412810D01*
X195092313Y-104412810D02*
X195039932Y-104360429D01*
X195039932Y-104360429D02*
X195013742Y-104308048D01*
X195013742Y-104308048D02*
X194987551Y-104203286D01*
X194987551Y-104203286D02*
X194987551Y-104124714D01*
X194987551Y-104124714D02*
X195013742Y-104019952D01*
X195013742Y-104019952D02*
X195039932Y-103967571D01*
X195039932Y-103967571D02*
X195092313Y-103915190D01*
X195092313Y-103915190D02*
X195170885Y-103889000D01*
X195170885Y-103889000D02*
X195223266Y-103889000D01*
X195223266Y-103889000D02*
X195301837Y-103915190D01*
X195301837Y-103915190D02*
X195328028Y-103941381D01*
X195537551Y-103941381D02*
X195563742Y-103915190D01*
X195563742Y-103915190D02*
X195616123Y-103889000D01*
X195616123Y-103889000D02*
X195747075Y-103889000D01*
X195747075Y-103889000D02*
X195799456Y-103915190D01*
X195799456Y-103915190D02*
X195825647Y-103941381D01*
X195825647Y-103941381D02*
X195851837Y-103993762D01*
X195851837Y-103993762D02*
X195851837Y-104046143D01*
X195851837Y-104046143D02*
X195825647Y-104124714D01*
X195825647Y-104124714D02*
X195511361Y-104439000D01*
X195511361Y-104439000D02*
X195851837Y-104439000D01*
X196192314Y-103889000D02*
X196244695Y-103889000D01*
X196244695Y-103889000D02*
X196297076Y-103915190D01*
X196297076Y-103915190D02*
X196323266Y-103941381D01*
X196323266Y-103941381D02*
X196349457Y-103993762D01*
X196349457Y-103993762D02*
X196375647Y-104098524D01*
X196375647Y-104098524D02*
X196375647Y-104229476D01*
X196375647Y-104229476D02*
X196349457Y-104334238D01*
X196349457Y-104334238D02*
X196323266Y-104386619D01*
X196323266Y-104386619D02*
X196297076Y-104412810D01*
X196297076Y-104412810D02*
X196244695Y-104439000D01*
X196244695Y-104439000D02*
X196192314Y-104439000D01*
X196192314Y-104439000D02*
X196139933Y-104412810D01*
X196139933Y-104412810D02*
X196113742Y-104386619D01*
X196113742Y-104386619D02*
X196087552Y-104334238D01*
X196087552Y-104334238D02*
X196061361Y-104229476D01*
X196061361Y-104229476D02*
X196061361Y-104098524D01*
X196061361Y-104098524D02*
X196087552Y-103993762D01*
X196087552Y-103993762D02*
X196113742Y-103941381D01*
X196113742Y-103941381D02*
X196139933Y-103915190D01*
X196139933Y-103915190D02*
X196192314Y-103889000D01*
X226751599Y-94404342D02*
X227301599Y-94404342D01*
X227301599Y-94404342D02*
X227301599Y-94535294D01*
X227301599Y-94535294D02*
X227275409Y-94613866D01*
X227275409Y-94613866D02*
X227223028Y-94666247D01*
X227223028Y-94666247D02*
X227170647Y-94692437D01*
X227170647Y-94692437D02*
X227065885Y-94718628D01*
X227065885Y-94718628D02*
X226987313Y-94718628D01*
X226987313Y-94718628D02*
X226882551Y-94692437D01*
X226882551Y-94692437D02*
X226830170Y-94666247D01*
X226830170Y-94666247D02*
X226777790Y-94613866D01*
X226777790Y-94613866D02*
X226751599Y-94535294D01*
X226751599Y-94535294D02*
X226751599Y-94404342D01*
X226751599Y-95242437D02*
X226751599Y-94928151D01*
X226751599Y-95085294D02*
X227301599Y-95085294D01*
X227301599Y-95085294D02*
X227223028Y-95032913D01*
X227223028Y-95032913D02*
X227170647Y-94980532D01*
X227170647Y-94980532D02*
X227144456Y-94928151D01*
X227301599Y-95582914D02*
X227301599Y-95635295D01*
X227301599Y-95635295D02*
X227275409Y-95687676D01*
X227275409Y-95687676D02*
X227249218Y-95713866D01*
X227249218Y-95713866D02*
X227196837Y-95740057D01*
X227196837Y-95740057D02*
X227092075Y-95766247D01*
X227092075Y-95766247D02*
X226961123Y-95766247D01*
X226961123Y-95766247D02*
X226856361Y-95740057D01*
X226856361Y-95740057D02*
X226803980Y-95713866D01*
X226803980Y-95713866D02*
X226777790Y-95687676D01*
X226777790Y-95687676D02*
X226751599Y-95635295D01*
X226751599Y-95635295D02*
X226751599Y-95582914D01*
X226751599Y-95582914D02*
X226777790Y-95530533D01*
X226777790Y-95530533D02*
X226803980Y-95504342D01*
X226803980Y-95504342D02*
X226856361Y-95478152D01*
X226856361Y-95478152D02*
X226961123Y-95451961D01*
X226961123Y-95451961D02*
X227092075Y-95451961D01*
X227092075Y-95451961D02*
X227196837Y-95478152D01*
X227196837Y-95478152D02*
X227249218Y-95504342D01*
X227249218Y-95504342D02*
X227275409Y-95530533D01*
X227275409Y-95530533D02*
X227301599Y-95582914D01*
X183963951Y-95941800D02*
X184278237Y-95941800D01*
X184121094Y-96491800D02*
X184121094Y-95941800D01*
X184461571Y-96491800D02*
X184461571Y-95941800D01*
X184461571Y-95941800D02*
X184671095Y-95941800D01*
X184671095Y-95941800D02*
X184723476Y-95967990D01*
X184723476Y-95967990D02*
X184749666Y-95994181D01*
X184749666Y-95994181D02*
X184775857Y-96046562D01*
X184775857Y-96046562D02*
X184775857Y-96125133D01*
X184775857Y-96125133D02*
X184749666Y-96177514D01*
X184749666Y-96177514D02*
X184723476Y-96203705D01*
X184723476Y-96203705D02*
X184671095Y-96229895D01*
X184671095Y-96229895D02*
X184461571Y-96229895D01*
X185273476Y-95941800D02*
X185011571Y-95941800D01*
X185011571Y-95941800D02*
X184985380Y-96203705D01*
X184985380Y-96203705D02*
X185011571Y-96177514D01*
X185011571Y-96177514D02*
X185063952Y-96151324D01*
X185063952Y-96151324D02*
X185194904Y-96151324D01*
X185194904Y-96151324D02*
X185247285Y-96177514D01*
X185247285Y-96177514D02*
X185273476Y-96203705D01*
X185273476Y-96203705D02*
X185299666Y-96256086D01*
X185299666Y-96256086D02*
X185299666Y-96387038D01*
X185299666Y-96387038D02*
X185273476Y-96439419D01*
X185273476Y-96439419D02*
X185247285Y-96465610D01*
X185247285Y-96465610D02*
X185194904Y-96491800D01*
X185194904Y-96491800D02*
X185063952Y-96491800D01*
X185063952Y-96491800D02*
X185011571Y-96465610D01*
X185011571Y-96465610D02*
X184985380Y-96439419D01*
X189629019Y-119166866D02*
X189655210Y-119193057D01*
X189655210Y-119193057D02*
X189681400Y-119271628D01*
X189681400Y-119271628D02*
X189681400Y-119324009D01*
X189681400Y-119324009D02*
X189655210Y-119402581D01*
X189655210Y-119402581D02*
X189602829Y-119454962D01*
X189602829Y-119454962D02*
X189550448Y-119481152D01*
X189550448Y-119481152D02*
X189445686Y-119507343D01*
X189445686Y-119507343D02*
X189367114Y-119507343D01*
X189367114Y-119507343D02*
X189262352Y-119481152D01*
X189262352Y-119481152D02*
X189209971Y-119454962D01*
X189209971Y-119454962D02*
X189157590Y-119402581D01*
X189157590Y-119402581D02*
X189131400Y-119324009D01*
X189131400Y-119324009D02*
X189131400Y-119271628D01*
X189131400Y-119271628D02*
X189157590Y-119193057D01*
X189157590Y-119193057D02*
X189183781Y-119166866D01*
X189183781Y-118957343D02*
X189157590Y-118931152D01*
X189157590Y-118931152D02*
X189131400Y-118878771D01*
X189131400Y-118878771D02*
X189131400Y-118747819D01*
X189131400Y-118747819D02*
X189157590Y-118695438D01*
X189157590Y-118695438D02*
X189183781Y-118669247D01*
X189183781Y-118669247D02*
X189236162Y-118643057D01*
X189236162Y-118643057D02*
X189288543Y-118643057D01*
X189288543Y-118643057D02*
X189367114Y-118669247D01*
X189367114Y-118669247D02*
X189681400Y-118983533D01*
X189681400Y-118983533D02*
X189681400Y-118643057D01*
X209878619Y-130856581D02*
X209826238Y-130830390D01*
X209826238Y-130830390D02*
X209773857Y-130778010D01*
X209773857Y-130778010D02*
X209695285Y-130699438D01*
X209695285Y-130699438D02*
X209642904Y-130673248D01*
X209642904Y-130673248D02*
X209590523Y-130673248D01*
X209616714Y-130804200D02*
X209564333Y-130778010D01*
X209564333Y-130778010D02*
X209511952Y-130725629D01*
X209511952Y-130725629D02*
X209485761Y-130620867D01*
X209485761Y-130620867D02*
X209485761Y-130437533D01*
X209485761Y-130437533D02*
X209511952Y-130332771D01*
X209511952Y-130332771D02*
X209564333Y-130280390D01*
X209564333Y-130280390D02*
X209616714Y-130254200D01*
X209616714Y-130254200D02*
X209721476Y-130254200D01*
X209721476Y-130254200D02*
X209773857Y-130280390D01*
X209773857Y-130280390D02*
X209826238Y-130332771D01*
X209826238Y-130332771D02*
X209852428Y-130437533D01*
X209852428Y-130437533D02*
X209852428Y-130620867D01*
X209852428Y-130620867D02*
X209826238Y-130725629D01*
X209826238Y-130725629D02*
X209773857Y-130778010D01*
X209773857Y-130778010D02*
X209721476Y-130804200D01*
X209721476Y-130804200D02*
X209616714Y-130804200D01*
X210061951Y-130306581D02*
X210088142Y-130280390D01*
X210088142Y-130280390D02*
X210140523Y-130254200D01*
X210140523Y-130254200D02*
X210271475Y-130254200D01*
X210271475Y-130254200D02*
X210323856Y-130280390D01*
X210323856Y-130280390D02*
X210350047Y-130306581D01*
X210350047Y-130306581D02*
X210376237Y-130358962D01*
X210376237Y-130358962D02*
X210376237Y-130411343D01*
X210376237Y-130411343D02*
X210350047Y-130489914D01*
X210350047Y-130489914D02*
X210035761Y-130804200D01*
X210035761Y-130804200D02*
X210376237Y-130804200D01*
X197650152Y-95202200D02*
X197650152Y-95647438D01*
X197650152Y-95647438D02*
X197676342Y-95699819D01*
X197676342Y-95699819D02*
X197702533Y-95726010D01*
X197702533Y-95726010D02*
X197754914Y-95752200D01*
X197754914Y-95752200D02*
X197859676Y-95752200D01*
X197859676Y-95752200D02*
X197912057Y-95726010D01*
X197912057Y-95726010D02*
X197938247Y-95699819D01*
X197938247Y-95699819D02*
X197964438Y-95647438D01*
X197964438Y-95647438D02*
X197964438Y-95202200D01*
X198514437Y-95752200D02*
X198200151Y-95752200D01*
X198357294Y-95752200D02*
X198357294Y-95202200D01*
X198357294Y-95202200D02*
X198304913Y-95280771D01*
X198304913Y-95280771D02*
X198252532Y-95333152D01*
X198252532Y-95333152D02*
X198200151Y-95359343D01*
X227688212Y-115257281D02*
X227662021Y-115283472D01*
X227662021Y-115283472D02*
X227583450Y-115309662D01*
X227583450Y-115309662D02*
X227531069Y-115309662D01*
X227531069Y-115309662D02*
X227452497Y-115283472D01*
X227452497Y-115283472D02*
X227400116Y-115231091D01*
X227400116Y-115231091D02*
X227373926Y-115178710D01*
X227373926Y-115178710D02*
X227347735Y-115073948D01*
X227347735Y-115073948D02*
X227347735Y-114995376D01*
X227347735Y-114995376D02*
X227373926Y-114890614D01*
X227373926Y-114890614D02*
X227400116Y-114838233D01*
X227400116Y-114838233D02*
X227452497Y-114785852D01*
X227452497Y-114785852D02*
X227531069Y-114759662D01*
X227531069Y-114759662D02*
X227583450Y-114759662D01*
X227583450Y-114759662D02*
X227662021Y-114785852D01*
X227662021Y-114785852D02*
X227688212Y-114812043D01*
X227897735Y-114812043D02*
X227923926Y-114785852D01*
X227923926Y-114785852D02*
X227976307Y-114759662D01*
X227976307Y-114759662D02*
X228107259Y-114759662D01*
X228107259Y-114759662D02*
X228159640Y-114785852D01*
X228159640Y-114785852D02*
X228185831Y-114812043D01*
X228185831Y-114812043D02*
X228212021Y-114864424D01*
X228212021Y-114864424D02*
X228212021Y-114916805D01*
X228212021Y-114916805D02*
X228185831Y-114995376D01*
X228185831Y-114995376D02*
X227871545Y-115309662D01*
X227871545Y-115309662D02*
X228212021Y-115309662D01*
X228683450Y-114942995D02*
X228683450Y-115309662D01*
X228552498Y-114733472D02*
X228421545Y-115126329D01*
X228421545Y-115126329D02*
X228762022Y-115126329D01*
X233852000Y-102334571D02*
X233590095Y-102517905D01*
X233852000Y-102648857D02*
X233302000Y-102648857D01*
X233302000Y-102648857D02*
X233302000Y-102439333D01*
X233302000Y-102439333D02*
X233328190Y-102386952D01*
X233328190Y-102386952D02*
X233354381Y-102360762D01*
X233354381Y-102360762D02*
X233406762Y-102334571D01*
X233406762Y-102334571D02*
X233485333Y-102334571D01*
X233485333Y-102334571D02*
X233537714Y-102360762D01*
X233537714Y-102360762D02*
X233563905Y-102386952D01*
X233563905Y-102386952D02*
X233590095Y-102439333D01*
X233590095Y-102439333D02*
X233590095Y-102648857D01*
X233852000Y-101810762D02*
X233852000Y-102125048D01*
X233852000Y-101967905D02*
X233302000Y-101967905D01*
X233302000Y-101967905D02*
X233380571Y-102020286D01*
X233380571Y-102020286D02*
X233432952Y-102072667D01*
X233432952Y-102072667D02*
X233459143Y-102125048D01*
X233302000Y-101627428D02*
X233302000Y-101286952D01*
X233302000Y-101286952D02*
X233511524Y-101470285D01*
X233511524Y-101470285D02*
X233511524Y-101391714D01*
X233511524Y-101391714D02*
X233537714Y-101339333D01*
X233537714Y-101339333D02*
X233563905Y-101313142D01*
X233563905Y-101313142D02*
X233616286Y-101286952D01*
X233616286Y-101286952D02*
X233747238Y-101286952D01*
X233747238Y-101286952D02*
X233799619Y-101313142D01*
X233799619Y-101313142D02*
X233825810Y-101339333D01*
X233825810Y-101339333D02*
X233852000Y-101391714D01*
X233852000Y-101391714D02*
X233852000Y-101548857D01*
X233852000Y-101548857D02*
X233825810Y-101601238D01*
X233825810Y-101601238D02*
X233799619Y-101627428D01*
X236390419Y-108328971D02*
X236416610Y-108355162D01*
X236416610Y-108355162D02*
X236442800Y-108433733D01*
X236442800Y-108433733D02*
X236442800Y-108486114D01*
X236442800Y-108486114D02*
X236416610Y-108564686D01*
X236416610Y-108564686D02*
X236364229Y-108617067D01*
X236364229Y-108617067D02*
X236311848Y-108643257D01*
X236311848Y-108643257D02*
X236207086Y-108669448D01*
X236207086Y-108669448D02*
X236128514Y-108669448D01*
X236128514Y-108669448D02*
X236023752Y-108643257D01*
X236023752Y-108643257D02*
X235971371Y-108617067D01*
X235971371Y-108617067D02*
X235918990Y-108564686D01*
X235918990Y-108564686D02*
X235892800Y-108486114D01*
X235892800Y-108486114D02*
X235892800Y-108433733D01*
X235892800Y-108433733D02*
X235918990Y-108355162D01*
X235918990Y-108355162D02*
X235945181Y-108328971D01*
X236442800Y-107805162D02*
X236442800Y-108119448D01*
X236442800Y-107962305D02*
X235892800Y-107962305D01*
X235892800Y-107962305D02*
X235971371Y-108014686D01*
X235971371Y-108014686D02*
X236023752Y-108067067D01*
X236023752Y-108067067D02*
X236049943Y-108119448D01*
X236076133Y-107333733D02*
X236442800Y-107333733D01*
X235866610Y-107464685D02*
X236259467Y-107595638D01*
X236259467Y-107595638D02*
X236259467Y-107255161D01*
X215283333Y-107470819D02*
X215257142Y-107497010D01*
X215257142Y-107497010D02*
X215178571Y-107523200D01*
X215178571Y-107523200D02*
X215126190Y-107523200D01*
X215126190Y-107523200D02*
X215047618Y-107497010D01*
X215047618Y-107497010D02*
X214995237Y-107444629D01*
X214995237Y-107444629D02*
X214969047Y-107392248D01*
X214969047Y-107392248D02*
X214942856Y-107287486D01*
X214942856Y-107287486D02*
X214942856Y-107208914D01*
X214942856Y-107208914D02*
X214969047Y-107104152D01*
X214969047Y-107104152D02*
X214995237Y-107051771D01*
X214995237Y-107051771D02*
X215047618Y-106999390D01*
X215047618Y-106999390D02*
X215126190Y-106973200D01*
X215126190Y-106973200D02*
X215178571Y-106973200D01*
X215178571Y-106973200D02*
X215257142Y-106999390D01*
X215257142Y-106999390D02*
X215283333Y-107025581D01*
X215545237Y-107523200D02*
X215649999Y-107523200D01*
X215649999Y-107523200D02*
X215702380Y-107497010D01*
X215702380Y-107497010D02*
X215728571Y-107470819D01*
X215728571Y-107470819D02*
X215780952Y-107392248D01*
X215780952Y-107392248D02*
X215807142Y-107287486D01*
X215807142Y-107287486D02*
X215807142Y-107077962D01*
X215807142Y-107077962D02*
X215780952Y-107025581D01*
X215780952Y-107025581D02*
X215754761Y-106999390D01*
X215754761Y-106999390D02*
X215702380Y-106973200D01*
X215702380Y-106973200D02*
X215597618Y-106973200D01*
X215597618Y-106973200D02*
X215545237Y-106999390D01*
X215545237Y-106999390D02*
X215519047Y-107025581D01*
X215519047Y-107025581D02*
X215492856Y-107077962D01*
X215492856Y-107077962D02*
X215492856Y-107208914D01*
X215492856Y-107208914D02*
X215519047Y-107261295D01*
X215519047Y-107261295D02*
X215545237Y-107287486D01*
X215545237Y-107287486D02*
X215597618Y-107313676D01*
X215597618Y-107313676D02*
X215702380Y-107313676D01*
X215702380Y-107313676D02*
X215754761Y-107287486D01*
X215754761Y-107287486D02*
X215780952Y-107261295D01*
X215780952Y-107261295D02*
X215807142Y-107208914D01*
X232644399Y-115495828D02*
X232906304Y-115312494D01*
X232644399Y-115181542D02*
X233194399Y-115181542D01*
X233194399Y-115181542D02*
X233194399Y-115391066D01*
X233194399Y-115391066D02*
X233168209Y-115443447D01*
X233168209Y-115443447D02*
X233142018Y-115469637D01*
X233142018Y-115469637D02*
X233089637Y-115495828D01*
X233089637Y-115495828D02*
X233011066Y-115495828D01*
X233011066Y-115495828D02*
X232958685Y-115469637D01*
X232958685Y-115469637D02*
X232932494Y-115443447D01*
X232932494Y-115443447D02*
X232906304Y-115391066D01*
X232906304Y-115391066D02*
X232906304Y-115181542D01*
X232644399Y-116019637D02*
X232644399Y-115705351D01*
X232644399Y-115862494D02*
X233194399Y-115862494D01*
X233194399Y-115862494D02*
X233115828Y-115810113D01*
X233115828Y-115810113D02*
X233063447Y-115757732D01*
X233063447Y-115757732D02*
X233037256Y-115705351D01*
X233194399Y-116517257D02*
X233194399Y-116255352D01*
X233194399Y-116255352D02*
X232932494Y-116229161D01*
X232932494Y-116229161D02*
X232958685Y-116255352D01*
X232958685Y-116255352D02*
X232984875Y-116307733D01*
X232984875Y-116307733D02*
X232984875Y-116438685D01*
X232984875Y-116438685D02*
X232958685Y-116491066D01*
X232958685Y-116491066D02*
X232932494Y-116517257D01*
X232932494Y-116517257D02*
X232880113Y-116543447D01*
X232880113Y-116543447D02*
X232749161Y-116543447D01*
X232749161Y-116543447D02*
X232696780Y-116517257D01*
X232696780Y-116517257D02*
X232670590Y-116491066D01*
X232670590Y-116491066D02*
X232644399Y-116438685D01*
X232644399Y-116438685D02*
X232644399Y-116307733D01*
X232644399Y-116307733D02*
X232670590Y-116255352D01*
X232670590Y-116255352D02*
X232696780Y-116229161D01*
X207200552Y-113744200D02*
X207200552Y-114189438D01*
X207200552Y-114189438D02*
X207226742Y-114241819D01*
X207226742Y-114241819D02*
X207252933Y-114268010D01*
X207252933Y-114268010D02*
X207305314Y-114294200D01*
X207305314Y-114294200D02*
X207410076Y-114294200D01*
X207410076Y-114294200D02*
X207462457Y-114268010D01*
X207462457Y-114268010D02*
X207488647Y-114241819D01*
X207488647Y-114241819D02*
X207514838Y-114189438D01*
X207514838Y-114189438D02*
X207514838Y-113744200D01*
X208038647Y-113744200D02*
X207776742Y-113744200D01*
X207776742Y-113744200D02*
X207750551Y-114006105D01*
X207750551Y-114006105D02*
X207776742Y-113979914D01*
X207776742Y-113979914D02*
X207829123Y-113953724D01*
X207829123Y-113953724D02*
X207960075Y-113953724D01*
X207960075Y-113953724D02*
X208012456Y-113979914D01*
X208012456Y-113979914D02*
X208038647Y-114006105D01*
X208038647Y-114006105D02*
X208064837Y-114058486D01*
X208064837Y-114058486D02*
X208064837Y-114189438D01*
X208064837Y-114189438D02*
X208038647Y-114241819D01*
X208038647Y-114241819D02*
X208012456Y-114268010D01*
X208012456Y-114268010D02*
X207960075Y-114294200D01*
X207960075Y-114294200D02*
X207829123Y-114294200D01*
X207829123Y-114294200D02*
X207776742Y-114268010D01*
X207776742Y-114268010D02*
X207750551Y-114241819D01*
X225890200Y-119470647D02*
X226335438Y-119470647D01*
X226335438Y-119470647D02*
X226387819Y-119444457D01*
X226387819Y-119444457D02*
X226414010Y-119418266D01*
X226414010Y-119418266D02*
X226440200Y-119365885D01*
X226440200Y-119365885D02*
X226440200Y-119261123D01*
X226440200Y-119261123D02*
X226414010Y-119208742D01*
X226414010Y-119208742D02*
X226387819Y-119182552D01*
X226387819Y-119182552D02*
X226335438Y-119156361D01*
X226335438Y-119156361D02*
X225890200Y-119156361D01*
X226073533Y-118658743D02*
X226440200Y-118658743D01*
X225864010Y-118789695D02*
X226256867Y-118920648D01*
X226256867Y-118920648D02*
X226256867Y-118580171D01*
X239648552Y-110825999D02*
X239648552Y-111375999D01*
X239648552Y-111375999D02*
X239517600Y-111375999D01*
X239517600Y-111375999D02*
X239439028Y-111349809D01*
X239439028Y-111349809D02*
X239386647Y-111297428D01*
X239386647Y-111297428D02*
X239360457Y-111245047D01*
X239360457Y-111245047D02*
X239334266Y-111140285D01*
X239334266Y-111140285D02*
X239334266Y-111061713D01*
X239334266Y-111061713D02*
X239360457Y-110956951D01*
X239360457Y-110956951D02*
X239386647Y-110904570D01*
X239386647Y-110904570D02*
X239439028Y-110852190D01*
X239439028Y-110852190D02*
X239517600Y-110825999D01*
X239517600Y-110825999D02*
X239648552Y-110825999D01*
X238862838Y-111375999D02*
X238967600Y-111375999D01*
X238967600Y-111375999D02*
X239019981Y-111349809D01*
X239019981Y-111349809D02*
X239046171Y-111323618D01*
X239046171Y-111323618D02*
X239098552Y-111245047D01*
X239098552Y-111245047D02*
X239124743Y-111140285D01*
X239124743Y-111140285D02*
X239124743Y-110930761D01*
X239124743Y-110930761D02*
X239098552Y-110878380D01*
X239098552Y-110878380D02*
X239072362Y-110852190D01*
X239072362Y-110852190D02*
X239019981Y-110825999D01*
X239019981Y-110825999D02*
X238915219Y-110825999D01*
X238915219Y-110825999D02*
X238862838Y-110852190D01*
X238862838Y-110852190D02*
X238836647Y-110878380D01*
X238836647Y-110878380D02*
X238810457Y-110930761D01*
X238810457Y-110930761D02*
X238810457Y-111061713D01*
X238810457Y-111061713D02*
X238836647Y-111114094D01*
X238836647Y-111114094D02*
X238862838Y-111140285D01*
X238862838Y-111140285D02*
X238915219Y-111166475D01*
X238915219Y-111166475D02*
X239019981Y-111166475D01*
X239019981Y-111166475D02*
X239072362Y-111140285D01*
X239072362Y-111140285D02*
X239098552Y-111114094D01*
X239098552Y-111114094D02*
X239124743Y-111061713D01*
X218946419Y-99868581D02*
X218894038Y-99842390D01*
X218894038Y-99842390D02*
X218841657Y-99790010D01*
X218841657Y-99790010D02*
X218763085Y-99711438D01*
X218763085Y-99711438D02*
X218710704Y-99685248D01*
X218710704Y-99685248D02*
X218658323Y-99685248D01*
X218684514Y-99816200D02*
X218632133Y-99790010D01*
X218632133Y-99790010D02*
X218579752Y-99737629D01*
X218579752Y-99737629D02*
X218553561Y-99632867D01*
X218553561Y-99632867D02*
X218553561Y-99449533D01*
X218553561Y-99449533D02*
X218579752Y-99344771D01*
X218579752Y-99344771D02*
X218632133Y-99292390D01*
X218632133Y-99292390D02*
X218684514Y-99266200D01*
X218684514Y-99266200D02*
X218789276Y-99266200D01*
X218789276Y-99266200D02*
X218841657Y-99292390D01*
X218841657Y-99292390D02*
X218894038Y-99344771D01*
X218894038Y-99344771D02*
X218920228Y-99449533D01*
X218920228Y-99449533D02*
X218920228Y-99632867D01*
X218920228Y-99632867D02*
X218894038Y-99737629D01*
X218894038Y-99737629D02*
X218841657Y-99790010D01*
X218841657Y-99790010D02*
X218789276Y-99816200D01*
X218789276Y-99816200D02*
X218684514Y-99816200D01*
X219391656Y-99449533D02*
X219391656Y-99816200D01*
X219260704Y-99240010D02*
X219129751Y-99632867D01*
X219129751Y-99632867D02*
X219470228Y-99632867D01*
X216544228Y-133952482D02*
X216623612Y-133928869D01*
X216623612Y-133928869D02*
X216730882Y-133853758D01*
X216730882Y-133853758D02*
X216758768Y-133802260D01*
X216758768Y-133802260D02*
X216765199Y-133765783D01*
X216765199Y-133765783D02*
X216756609Y-133707853D01*
X216756609Y-133707853D02*
X216726564Y-133664945D01*
X216726564Y-133664945D02*
X216675066Y-133637060D01*
X216675066Y-133637060D02*
X216638590Y-133630628D01*
X216638590Y-133630628D02*
X216580660Y-133639218D01*
X216580660Y-133639218D02*
X216479821Y-133677853D01*
X216479821Y-133677853D02*
X216421891Y-133686444D01*
X216421891Y-133686444D02*
X216385415Y-133680012D01*
X216385415Y-133680012D02*
X216333917Y-133652126D01*
X216333917Y-133652126D02*
X216303872Y-133609218D01*
X216303872Y-133609218D02*
X216295282Y-133551288D01*
X216295282Y-133551288D02*
X216301713Y-133514812D01*
X216301713Y-133514812D02*
X216329599Y-133463313D01*
X216329599Y-133463313D02*
X216436869Y-133388202D01*
X216436869Y-133388202D02*
X216516253Y-133364589D01*
X216651409Y-133237980D02*
X217074146Y-133613402D01*
X217074146Y-133613402D02*
X216934628Y-133231503D01*
X216934628Y-133231503D02*
X217245778Y-133493224D01*
X217245778Y-133493224D02*
X217037581Y-132967579D01*
X217546133Y-133282913D02*
X217631949Y-133222824D01*
X217631949Y-133222824D02*
X217659835Y-133171326D01*
X217659835Y-133171326D02*
X217666267Y-133134849D01*
X217666267Y-133134849D02*
X217664108Y-133040443D01*
X217664108Y-133040443D02*
X217625473Y-132939605D01*
X217625473Y-132939605D02*
X217505295Y-132767973D01*
X217505295Y-132767973D02*
X217453797Y-132740087D01*
X217453797Y-132740087D02*
X217417320Y-132733655D01*
X217417320Y-132733655D02*
X217359390Y-132742246D01*
X217359390Y-132742246D02*
X217273574Y-132802335D01*
X217273574Y-132802335D02*
X217245689Y-132853833D01*
X217245689Y-132853833D02*
X217239257Y-132890310D01*
X217239257Y-132890310D02*
X217247847Y-132948240D01*
X217247847Y-132948240D02*
X217322959Y-133055510D01*
X217322959Y-133055510D02*
X217374457Y-133083395D01*
X217374457Y-133083395D02*
X217410933Y-133089827D01*
X217410933Y-133089827D02*
X217468863Y-133081237D01*
X217468863Y-133081237D02*
X217554679Y-133021148D01*
X217554679Y-133021148D02*
X217582565Y-132969649D01*
X217582565Y-132969649D02*
X217588997Y-132933173D01*
X217588997Y-132933173D02*
X217580406Y-132875243D01*
X169137391Y-125409851D02*
X168875846Y-125396144D01*
X168875846Y-125396144D02*
X168904630Y-124846898D01*
X169296949Y-124867459D02*
X169636959Y-124885278D01*
X169636959Y-124885278D02*
X169442911Y-125084920D01*
X169442911Y-125084920D02*
X169521375Y-125089032D01*
X169521375Y-125089032D02*
X169572313Y-125117928D01*
X169572313Y-125117928D02*
X169597097Y-125145453D01*
X169597097Y-125145453D02*
X169620510Y-125199133D01*
X169620510Y-125199133D02*
X169613657Y-125329906D01*
X169613657Y-125329906D02*
X169584761Y-125380844D01*
X169584761Y-125380844D02*
X169557235Y-125405628D01*
X169557235Y-125405628D02*
X169503556Y-125429041D01*
X169503556Y-125429041D02*
X169346628Y-125420817D01*
X169346628Y-125420817D02*
X169295690Y-125391921D01*
X169295690Y-125391921D02*
X169270906Y-125364396D01*
X230143600Y-101345552D02*
X229593600Y-101345552D01*
X229593600Y-101345552D02*
X229593600Y-101214600D01*
X229593600Y-101214600D02*
X229619790Y-101136028D01*
X229619790Y-101136028D02*
X229672171Y-101083647D01*
X229672171Y-101083647D02*
X229724552Y-101057457D01*
X229724552Y-101057457D02*
X229829314Y-101031266D01*
X229829314Y-101031266D02*
X229907886Y-101031266D01*
X229907886Y-101031266D02*
X230012648Y-101057457D01*
X230012648Y-101057457D02*
X230065029Y-101083647D01*
X230065029Y-101083647D02*
X230117410Y-101136028D01*
X230117410Y-101136028D02*
X230143600Y-101214600D01*
X230143600Y-101214600D02*
X230143600Y-101345552D01*
X230143600Y-100769362D02*
X230143600Y-100664600D01*
X230143600Y-100664600D02*
X230117410Y-100612219D01*
X230117410Y-100612219D02*
X230091219Y-100586028D01*
X230091219Y-100586028D02*
X230012648Y-100533647D01*
X230012648Y-100533647D02*
X229907886Y-100507457D01*
X229907886Y-100507457D02*
X229698362Y-100507457D01*
X229698362Y-100507457D02*
X229645981Y-100533647D01*
X229645981Y-100533647D02*
X229619790Y-100559838D01*
X229619790Y-100559838D02*
X229593600Y-100612219D01*
X229593600Y-100612219D02*
X229593600Y-100716981D01*
X229593600Y-100716981D02*
X229619790Y-100769362D01*
X229619790Y-100769362D02*
X229645981Y-100795552D01*
X229645981Y-100795552D02*
X229698362Y-100821743D01*
X229698362Y-100821743D02*
X229829314Y-100821743D01*
X229829314Y-100821743D02*
X229881695Y-100795552D01*
X229881695Y-100795552D02*
X229907886Y-100769362D01*
X229907886Y-100769362D02*
X229934076Y-100716981D01*
X229934076Y-100716981D02*
X229934076Y-100612219D01*
X229934076Y-100612219D02*
X229907886Y-100559838D01*
X229907886Y-100559838D02*
X229881695Y-100533647D01*
X229881695Y-100533647D02*
X229829314Y-100507457D01*
X225293781Y-95353180D02*
X225267590Y-95405561D01*
X225267590Y-95405561D02*
X225215210Y-95457942D01*
X225215210Y-95457942D02*
X225136638Y-95536514D01*
X225136638Y-95536514D02*
X225110448Y-95588895D01*
X225110448Y-95588895D02*
X225110448Y-95641276D01*
X225241400Y-95615085D02*
X225215210Y-95667466D01*
X225215210Y-95667466D02*
X225162829Y-95719847D01*
X225162829Y-95719847D02*
X225058067Y-95746038D01*
X225058067Y-95746038D02*
X224874733Y-95746038D01*
X224874733Y-95746038D02*
X224769971Y-95719847D01*
X224769971Y-95719847D02*
X224717590Y-95667466D01*
X224717590Y-95667466D02*
X224691400Y-95615085D01*
X224691400Y-95615085D02*
X224691400Y-95510323D01*
X224691400Y-95510323D02*
X224717590Y-95457942D01*
X224717590Y-95457942D02*
X224769971Y-95405561D01*
X224769971Y-95405561D02*
X224874733Y-95379371D01*
X224874733Y-95379371D02*
X225058067Y-95379371D01*
X225058067Y-95379371D02*
X225162829Y-95405561D01*
X225162829Y-95405561D02*
X225215210Y-95457942D01*
X225215210Y-95457942D02*
X225241400Y-95510323D01*
X225241400Y-95510323D02*
X225241400Y-95615085D01*
X224691400Y-95196038D02*
X224691400Y-94855562D01*
X224691400Y-94855562D02*
X224900924Y-95038895D01*
X224900924Y-95038895D02*
X224900924Y-94960324D01*
X224900924Y-94960324D02*
X224927114Y-94907943D01*
X224927114Y-94907943D02*
X224953305Y-94881752D01*
X224953305Y-94881752D02*
X225005686Y-94855562D01*
X225005686Y-94855562D02*
X225136638Y-94855562D01*
X225136638Y-94855562D02*
X225189019Y-94881752D01*
X225189019Y-94881752D02*
X225215210Y-94907943D01*
X225215210Y-94907943D02*
X225241400Y-94960324D01*
X225241400Y-94960324D02*
X225241400Y-95117467D01*
X225241400Y-95117467D02*
X225215210Y-95169848D01*
X225215210Y-95169848D02*
X225189019Y-95196038D01*
X243662647Y-104997800D02*
X243662647Y-104447800D01*
X243662647Y-104447800D02*
X243793599Y-104447800D01*
X243793599Y-104447800D02*
X243872171Y-104473990D01*
X243872171Y-104473990D02*
X243924552Y-104526371D01*
X243924552Y-104526371D02*
X243950742Y-104578752D01*
X243950742Y-104578752D02*
X243976933Y-104683514D01*
X243976933Y-104683514D02*
X243976933Y-104762086D01*
X243976933Y-104762086D02*
X243950742Y-104866848D01*
X243950742Y-104866848D02*
X243924552Y-104919229D01*
X243924552Y-104919229D02*
X243872171Y-104971610D01*
X243872171Y-104971610D02*
X243793599Y-104997800D01*
X243793599Y-104997800D02*
X243662647Y-104997800D01*
X244448361Y-104631133D02*
X244448361Y-104997800D01*
X244317409Y-104421610D02*
X244186456Y-104814467D01*
X244186456Y-104814467D02*
X244526933Y-104814467D01*
X234696447Y-116377000D02*
X234696447Y-115827000D01*
X234696447Y-115827000D02*
X234827399Y-115827000D01*
X234827399Y-115827000D02*
X234905971Y-115853190D01*
X234905971Y-115853190D02*
X234958352Y-115905571D01*
X234958352Y-115905571D02*
X234984542Y-115957952D01*
X234984542Y-115957952D02*
X235010733Y-116062714D01*
X235010733Y-116062714D02*
X235010733Y-116141286D01*
X235010733Y-116141286D02*
X234984542Y-116246048D01*
X234984542Y-116246048D02*
X234958352Y-116298429D01*
X234958352Y-116298429D02*
X234905971Y-116350810D01*
X234905971Y-116350810D02*
X234827399Y-116377000D01*
X234827399Y-116377000D02*
X234696447Y-116377000D01*
X235534542Y-116377000D02*
X235220256Y-116377000D01*
X235377399Y-116377000D02*
X235377399Y-115827000D01*
X235377399Y-115827000D02*
X235325018Y-115905571D01*
X235325018Y-115905571D02*
X235272637Y-115957952D01*
X235272637Y-115957952D02*
X235220256Y-115984143D01*
X217833400Y-108419847D02*
X218278638Y-108419847D01*
X218278638Y-108419847D02*
X218331019Y-108393657D01*
X218331019Y-108393657D02*
X218357210Y-108367466D01*
X218357210Y-108367466D02*
X218383400Y-108315085D01*
X218383400Y-108315085D02*
X218383400Y-108210323D01*
X218383400Y-108210323D02*
X218357210Y-108157942D01*
X218357210Y-108157942D02*
X218331019Y-108131752D01*
X218331019Y-108131752D02*
X218278638Y-108105561D01*
X218278638Y-108105561D02*
X217833400Y-108105561D01*
X218383400Y-107817467D02*
X218383400Y-107712705D01*
X218383400Y-107712705D02*
X218357210Y-107660324D01*
X218357210Y-107660324D02*
X218331019Y-107634133D01*
X218331019Y-107634133D02*
X218252448Y-107581752D01*
X218252448Y-107581752D02*
X218147686Y-107555562D01*
X218147686Y-107555562D02*
X217938162Y-107555562D01*
X217938162Y-107555562D02*
X217885781Y-107581752D01*
X217885781Y-107581752D02*
X217859590Y-107607943D01*
X217859590Y-107607943D02*
X217833400Y-107660324D01*
X217833400Y-107660324D02*
X217833400Y-107765086D01*
X217833400Y-107765086D02*
X217859590Y-107817467D01*
X217859590Y-107817467D02*
X217885781Y-107843657D01*
X217885781Y-107843657D02*
X217938162Y-107869848D01*
X217938162Y-107869848D02*
X218069114Y-107869848D01*
X218069114Y-107869848D02*
X218121495Y-107843657D01*
X218121495Y-107843657D02*
X218147686Y-107817467D01*
X218147686Y-107817467D02*
X218173876Y-107765086D01*
X218173876Y-107765086D02*
X218173876Y-107660324D01*
X218173876Y-107660324D02*
X218147686Y-107607943D01*
X218147686Y-107607943D02*
X218121495Y-107581752D01*
X218121495Y-107581752D02*
X218069114Y-107555562D01*
%TO.C,C17*%
X230346364Y-112847800D02*
X230562036Y-112847800D01*
X230346364Y-113567800D02*
X230562036Y-113567800D01*
%TO.C,C4*%
X231979800Y-122562252D02*
X231979800Y-122039748D01*
X233449800Y-122562252D02*
X233449800Y-122039748D01*
%TO.C,R22*%
X225952500Y-87572742D02*
X225952500Y-88047258D01*
X224907500Y-87572742D02*
X224907500Y-88047258D01*
%TO.C,R38*%
X240294900Y-98941658D02*
X240294900Y-98467142D01*
X241339900Y-98941658D02*
X241339900Y-98467142D01*
%TO.C,L5*%
X229953452Y-123893600D02*
X229430948Y-123893600D01*
X229953452Y-121673600D02*
X229430948Y-121673600D01*
%TO.C,U10*%
X200389600Y-114577200D02*
X200389600Y-114877200D01*
X200389600Y-114577200D02*
X201189600Y-114577200D01*
X200389600Y-117177200D02*
X200389600Y-117477200D01*
X200389600Y-117477200D02*
X201189600Y-117477200D01*
X203789600Y-114577200D02*
X202989600Y-114577200D01*
X203789600Y-114877200D02*
X203789600Y-114577200D01*
X203789600Y-117477200D02*
X202989600Y-117477200D01*
X203789600Y-117477200D02*
X203789600Y-117177200D01*
X204689600Y-116777200D02*
G75*
G03*
X204689600Y-116777200I-200000J0D01*
G01*
%TO.C,C12*%
X201129020Y-112723200D02*
X201410180Y-112723200D01*
X201129020Y-113743200D02*
X201410180Y-113743200D01*
%TO.C,U13*%
X218293000Y-96690600D02*
X218293000Y-97140600D01*
X216023000Y-95870600D02*
X216023000Y-95420600D01*
X218293000Y-95870600D02*
X218293000Y-95420600D01*
%TO.C,Q1*%
X208612500Y-126506800D02*
X206937500Y-126506800D01*
X208612500Y-126506800D02*
X209262500Y-126506800D01*
X208612500Y-129626800D02*
X207962500Y-129626800D01*
X208612500Y-129626800D02*
X209262500Y-129626800D01*
%TO.C,REF\u002A\u002A*%
X166833860Y-140143670D02*
X166833860Y-142846121D01*
X161434485Y-142846121D01*
X159583600Y-141020848D01*
X159583600Y-137833600D01*
X164551422Y-137833600D01*
X166833860Y-140143670D01*
%TO.C,F1*%
X215895600Y-123045136D02*
X215895600Y-124249264D01*
X214075600Y-123045136D02*
X214075600Y-124249264D01*
%TO.C,TP4*%
X191990000Y-128550000D02*
G75*
G03*
X191990000Y-128550000I-950000J0D01*
G01*
%TO.C,C3*%
X233599000Y-95581600D02*
X231729000Y-95581600D01*
X231729000Y-95581600D02*
X231729000Y-99491600D01*
X233599000Y-99491600D02*
X233599000Y-95581600D01*
%TO.C,R21*%
X211662500Y-87552742D02*
X211662500Y-88027258D01*
X210617500Y-87552742D02*
X210617500Y-88027258D01*
%TO.C,L2*%
X167372228Y-109016619D02*
X169401443Y-109122966D01*
X167265881Y-111045834D02*
X167372228Y-109016619D01*
X169401443Y-109122966D02*
X169295096Y-111152181D01*
X169295096Y-111152181D02*
X167265881Y-111045834D01*
X166883725Y-111526551D02*
G75*
G03*
X166883725Y-111526551I-151734J0D01*
G01*
%TO.C,D7*%
X240968800Y-105204800D02*
X239568800Y-105204800D01*
X239568800Y-107524800D02*
X241468800Y-107524800D01*
%TO.C,R37*%
X239815900Y-99330742D02*
X239815900Y-99805258D01*
X238770900Y-99330742D02*
X238770900Y-99805258D01*
%TO.C,U12*%
X209625298Y-125754498D02*
X202005298Y-125754498D01*
X202005298Y-125754498D02*
X202005298Y-120674498D01*
X202005298Y-120674498D02*
X209625298Y-120674498D01*
X209625298Y-120674498D02*
X209625298Y-125754498D01*
X210185903Y-126135498D02*
G75*
G03*
X210185903Y-126135498I-179605J0D01*
G01*
%TO.C,Q7*%
X218084400Y-123763600D02*
X216409400Y-123763600D01*
X218084400Y-123763600D02*
X218734400Y-123763600D01*
X218084400Y-126883600D02*
X217434400Y-126883600D01*
X218084400Y-126883600D02*
X218734400Y-126883600D01*
%TO.C,C8*%
X218446236Y-103026800D02*
X218230564Y-103026800D01*
X218446236Y-102306800D02*
X218230564Y-102306800D01*
%TO.C,L1*%
X185372228Y-109016619D02*
X187401443Y-109122966D01*
X185265881Y-111045834D02*
X185372228Y-109016619D01*
X187401443Y-109122966D02*
X187295096Y-111152181D01*
X187295096Y-111152181D02*
X185265881Y-111045834D01*
X184883725Y-111526551D02*
G75*
G03*
X184883725Y-111526551I-151734J0D01*
G01*
%TO.C,Q5*%
X222961200Y-124830400D02*
X221286200Y-124830400D01*
X222961200Y-124830400D02*
X223611200Y-124830400D01*
X222961200Y-127950400D02*
X222311200Y-127950400D01*
X222961200Y-127950400D02*
X223611200Y-127950400D01*
%TO.C,D3*%
X220901600Y-123377200D02*
X220901600Y-121377200D01*
X220901600Y-123377200D02*
X216891600Y-123377200D01*
X220901600Y-121377200D02*
X216891600Y-121377200D01*
%TO.C,U11*%
X230530400Y-114909600D02*
X230530400Y-113893600D01*
X232156000Y-114909600D02*
X230530400Y-114909600D01*
X230530400Y-113893600D02*
X232156000Y-113893600D01*
X232156000Y-113893600D02*
X232156000Y-114909600D01*
X230440792Y-115112800D02*
G75*
G03*
X230440792Y-115112800I-113592J0D01*
G01*
%TO.C,C5*%
X227283600Y-102076364D02*
X227283600Y-102292036D01*
X226563600Y-102076364D02*
X226563600Y-102292036D01*
%TO.C,R36*%
X188732900Y-98789258D02*
X188732900Y-98314742D01*
X189777900Y-98789258D02*
X189777900Y-98314742D01*
%TO.C,C23*%
X227455400Y-122776348D02*
X227455400Y-123298852D01*
X225985400Y-122776348D02*
X225985400Y-123298852D01*
%TO.C,R11*%
X191463959Y-107976400D02*
X191771241Y-107976400D01*
X191463959Y-108736400D02*
X191771241Y-108736400D01*
%TO.C,R4*%
X191327300Y-98314742D02*
X191327300Y-98789258D01*
X190282300Y-98314742D02*
X190282300Y-98789258D01*
%TO.C,SW7*%
X164618494Y-101487048D02*
X165819994Y-103568107D01*
X165823360Y-103571937D02*
X171980800Y-100016937D01*
X171980800Y-100016937D02*
X170775934Y-97932048D01*
%TO.C,SW8*%
X266191380Y-97932048D02*
X264989880Y-100013107D01*
X264988246Y-100017937D02*
X271145686Y-103572937D01*
X271145686Y-103572937D02*
X272348820Y-101487048D01*
%TO.C,Q6*%
X222961200Y-124496000D02*
X224636200Y-124496000D01*
X222961200Y-124496000D02*
X222311200Y-124496000D01*
X222961200Y-121376000D02*
X223611200Y-121376000D01*
X222961200Y-121376000D02*
X222311200Y-121376000D01*
%TO.C,C13*%
X197573020Y-116330000D02*
X197854180Y-116330000D01*
X197573020Y-117350000D02*
X197854180Y-117350000D01*
%TO.C,U8*%
X227094800Y-111018100D02*
X226444800Y-111018100D01*
X219874800Y-110368100D02*
X219874800Y-111018100D01*
X227094800Y-110368100D02*
X227094800Y-111018100D01*
X219874800Y-104448100D02*
X219874800Y-103798100D01*
X227094800Y-104448100D02*
X227094800Y-103798100D01*
X219874800Y-103798100D02*
X220524800Y-103798100D01*
X227094800Y-103798100D02*
X226444800Y-103798100D01*
%TO.C,F2*%
X227486800Y-98646064D02*
X227486800Y-97441936D01*
X229306800Y-98646064D02*
X229306800Y-97441936D01*
%TO.C,L4*%
X185372228Y-122016619D02*
X187401443Y-122122966D01*
X185265881Y-124045834D02*
X185372228Y-122016619D01*
X187401443Y-122122966D02*
X187295096Y-124152181D01*
X187295096Y-124152181D02*
X185265881Y-124045834D01*
X184883725Y-124526551D02*
G75*
G03*
X184883725Y-124526551I-151734J0D01*
G01*
%TO.C,J4*%
X279440200Y-143135800D02*
X279440200Y-144195800D01*
X278380200Y-143135800D02*
X279440200Y-143135800D01*
X277380200Y-143135800D02*
X267320200Y-143135800D01*
X277380200Y-143135800D02*
X277380200Y-145255800D01*
X267320200Y-143135800D02*
X267320200Y-145255800D01*
X277380200Y-145255800D02*
X267320200Y-145255800D01*
%TO.C,R14*%
X234710500Y-107814342D02*
X234710500Y-108288858D01*
X233665500Y-107814342D02*
X233665500Y-108288858D01*
%TO.C,D8*%
X242197400Y-111618800D02*
X242197400Y-113018800D01*
X244517400Y-113018800D02*
X244517400Y-111118800D01*
%TO.C,D2*%
X213018000Y-98580800D02*
X214718000Y-98580800D01*
X213018000Y-98580800D02*
X213018000Y-95320800D01*
X214718000Y-98580800D02*
X214718000Y-95320800D01*
%TO.C,JP1*%
X234578400Y-117421200D02*
X234578400Y-120221200D01*
X232578400Y-117421200D02*
X234578400Y-117421200D01*
X234578400Y-120221200D02*
X232578400Y-120221200D01*
X232578400Y-120221200D02*
X232578400Y-117421200D01*
%TO.C,C10*%
X218151764Y-104135600D02*
X218367436Y-104135600D01*
X218151764Y-104855600D02*
X218367436Y-104855600D01*
%TO.C,U6*%
X196037200Y-117820800D02*
X193112200Y-117820800D01*
X196037200Y-117820800D02*
X197537200Y-117820800D01*
X196037200Y-121040800D02*
X194537200Y-121040800D01*
X196037200Y-121040800D02*
X197537200Y-121040800D01*
%TO.C,D5*%
X243521000Y-110405400D02*
X244921000Y-110405400D01*
X244921000Y-108085400D02*
X243021000Y-108085400D01*
%TO.C,Y1*%
X228873200Y-108705400D02*
X230873200Y-108705400D01*
X230873200Y-108705400D02*
X231273200Y-108705400D01*
X228873200Y-108505400D02*
X228873200Y-107505400D01*
X230873200Y-108505400D02*
X228873200Y-108505400D01*
X230873200Y-108505400D02*
X231273200Y-108505400D01*
X231273200Y-107505400D02*
X231273200Y-108505400D01*
X231273200Y-107505400D02*
X231673200Y-107505400D01*
X228873200Y-105705400D02*
X228873200Y-104905400D01*
X228873200Y-104905400D02*
X230873200Y-104905400D01*
X230873200Y-104905400D02*
X231273200Y-104905400D01*
X231273200Y-104905400D02*
X231273200Y-105705400D01*
%TO.C,J1*%
X191100000Y-128988000D02*
X191100000Y-129888000D01*
X190658000Y-129438000D02*
X191558000Y-129438000D01*
X186750000Y-129438000D02*
X187650000Y-129438000D01*
%TO.C,C1*%
X177450533Y-127963200D02*
X177743067Y-127963200D01*
X177450533Y-128983200D02*
X177743067Y-128983200D01*
%TO.C,C7*%
X218649436Y-102010800D02*
X218433764Y-102010800D01*
X218649436Y-101290800D02*
X218433764Y-101290800D01*
%TO.C,C19*%
X197356000Y-101689780D02*
X197356000Y-101408620D01*
X198376000Y-101689780D02*
X198376000Y-101408620D01*
%TO.C,D10*%
X227062400Y-96084800D02*
X225362400Y-96084800D01*
X227062400Y-96084800D02*
X227062400Y-99344800D01*
X225362400Y-96084800D02*
X225362400Y-99344800D01*
%TO.C,TP5*%
X185608000Y-97891600D02*
G75*
G03*
X185608000Y-97891600I-950000J0D01*
G01*
%TO.C,C2*%
X188872400Y-116579867D02*
X188872400Y-116287333D01*
X189892400Y-116579867D02*
X189892400Y-116287333D01*
%TO.C,Q2*%
X208635600Y-130012000D02*
X206960600Y-130012000D01*
X208635600Y-130012000D02*
X209285600Y-130012000D01*
X208635600Y-133132000D02*
X207985600Y-133132000D01*
X208635600Y-133132000D02*
X209285600Y-133132000D01*
%TO.C,U1*%
X199336000Y-94854800D02*
X212536000Y-94854800D01*
X199336000Y-100254800D02*
X199336000Y-94854800D01*
X212536000Y-94854800D02*
X212536000Y-100254800D01*
X198686000Y-101854800D02*
G75*
G03*
X198686000Y-101854800I-100000J0D01*
G01*
%TO.C,R13*%
X234024700Y-104055142D02*
X234024700Y-104529658D01*
X232979700Y-104055142D02*
X232979700Y-104529658D01*
%TO.C,C9*%
X216762164Y-107090000D02*
X216977836Y-107090000D01*
X216762164Y-107810000D02*
X216977836Y-107810000D01*
%TO.C,U5*%
X205080400Y-114563800D02*
X205080400Y-114863800D01*
X205080400Y-114563800D02*
X205880400Y-114563800D01*
X205080400Y-117163800D02*
X205080400Y-117463800D01*
X205080400Y-117463800D02*
X205880400Y-117463800D01*
X208480400Y-114563800D02*
X207680400Y-114563800D01*
X208480400Y-114863800D02*
X208480400Y-114563800D01*
X208480400Y-117463800D02*
X207680400Y-117463800D01*
X208480400Y-117463800D02*
X208480400Y-117163800D01*
X209380400Y-116763800D02*
G75*
G03*
X209380400Y-116763800I-200000J0D01*
G01*
%TO.C,U4*%
X227125400Y-120473600D02*
X227125400Y-119668600D01*
X230125400Y-120473600D02*
X230125400Y-119668600D01*
X227125400Y-118278600D02*
X227125400Y-117473600D01*
X230125400Y-118278600D02*
X230125400Y-117473600D01*
X227525400Y-121368600D02*
G75*
G03*
X227525400Y-121368600I-100000J0D01*
G01*
%TO.C,D6*%
X240984000Y-108060000D02*
X239584000Y-108060000D01*
X239584000Y-110380000D02*
X241484000Y-110380000D01*
%TO.C,J3*%
X282300300Y-128960400D02*
X281400300Y-128960400D01*
X281850300Y-128518400D02*
X281850300Y-129418400D01*
X281850300Y-124610400D02*
X281850300Y-125510400D01*
%TO.C,Q4*%
X222038400Y-98388400D02*
X222038400Y-96988400D01*
X219718400Y-96988400D02*
X219718400Y-98888400D01*
%TO.C,J2*%
X154122500Y-124999200D02*
X155022500Y-124999200D01*
X154572500Y-125441200D02*
X154572500Y-124541200D01*
X154572500Y-129349200D02*
X154572500Y-128449200D01*
%TO.C,SW9*%
X223316994Y-134541610D02*
X221022688Y-131265002D01*
X223316994Y-134541610D02*
X215944626Y-139703798D01*
X221022688Y-131265002D02*
X213650320Y-136427190D01*
X215944626Y-139703798D02*
X213650320Y-136427190D01*
%TO.C,L3*%
X167372228Y-122016619D02*
X169401443Y-122122966D01*
X167265881Y-124045834D02*
X167372228Y-122016619D01*
X169401443Y-122122966D02*
X169295096Y-124152181D01*
X169295096Y-124152181D02*
X167265881Y-124045834D01*
X166883725Y-124526551D02*
G75*
G03*
X166883725Y-124526551I-151734J0D01*
G01*
%TO.C,D9*%
X229731200Y-99596800D02*
X231431200Y-99596800D01*
X229731200Y-99596800D02*
X229731200Y-96336800D01*
X231431200Y-99596800D02*
X231431200Y-96336800D01*
%TO.C,Q3*%
X224934000Y-98388400D02*
X224934000Y-96988400D01*
X222614000Y-96988400D02*
X222614000Y-98888400D01*
%TO.C,D4*%
X243521000Y-107545600D02*
X244921000Y-107545600D01*
X244921000Y-105225600D02*
X243021000Y-105225600D01*
%TO.C,D1*%
X237112400Y-115556400D02*
X237112400Y-113856400D01*
X237112400Y-115556400D02*
X233852400Y-115556400D01*
X237112400Y-113856400D02*
X233852400Y-113856400D01*
%TO.C,U9*%
X216673993Y-111748008D02*
X218705993Y-111748008D01*
X218705993Y-111748008D02*
X218705993Y-108700008D01*
X218705993Y-108700008D02*
X216673993Y-108700008D01*
X216673993Y-108700008D02*
X216673993Y-111748008D01*
X216596378Y-112052808D02*
G75*
G03*
X216596378Y-112052808I-227185J0D01*
G01*
%TD*%
M02*
