%TF.GenerationSoftware,KiCad,Pcbnew,7.0.6*%
%TF.CreationDate,2023-12-22T12:37:17-08:00*%
%TF.ProjectId,UGC_Main,5547435f-4d61-4696-9e2e-6b696361645f,rev?*%
%TF.SameCoordinates,Original*%
%TF.FileFunction,Soldermask,Bot*%
%TF.FilePolarity,Negative*%
%FSLAX46Y46*%
G04 Gerber Fmt 4.6, Leading zero omitted, Abs format (unit mm)*
G04 Created by KiCad (PCBNEW 7.0.6) date 2023-12-22 12:37:17*
%MOMM*%
%LPD*%
G01*
G04 APERTURE LIST*
G04 Aperture macros list*
%AMRoundRect*
0 Rectangle with rounded corners*
0 $1 Rounding radius*
0 $2 $3 $4 $5 $6 $7 $8 $9 X,Y pos of 4 corners*
0 Add a 4 corners polygon primitive as box body*
4,1,4,$2,$3,$4,$5,$6,$7,$8,$9,$2,$3,0*
0 Add four circle primitives for the rounded corners*
1,1,$1+$1,$2,$3*
1,1,$1+$1,$4,$5*
1,1,$1+$1,$6,$7*
1,1,$1+$1,$8,$9*
0 Add four rect primitives between the rounded corners*
20,1,$1+$1,$2,$3,$4,$5,0*
20,1,$1+$1,$4,$5,$6,$7,0*
20,1,$1+$1,$6,$7,$8,$9,0*
20,1,$1+$1,$8,$9,$2,$3,0*%
%AMHorizOval*
0 Thick line with rounded ends*
0 $1 width*
0 $2 $3 position (X,Y) of the first rounded end (center of the circle)*
0 $4 $5 position (X,Y) of the second rounded end (center of the circle)*
0 Add line between two ends*
20,1,$1,$2,$3,$4,$5,0*
0 Add two circle primitives to create the rounded ends*
1,1,$1,$2,$3*
1,1,$1,$4,$5*%
G04 Aperture macros list end*
%ADD10C,1.750000*%
%ADD11C,1.600000*%
%ADD12C,1.250000*%
%ADD13HorizOval,2.250000X-0.250000X0.433013X0.250000X-0.433013X0*%
%ADD14HorizOval,1.700000X0.259808X0.150000X-0.259808X-0.150000X0*%
%ADD15HorizOval,2.250000X-0.250000X-0.433013X0.250000X0.433013X0*%
%ADD16HorizOval,1.700000X0.259808X-0.150000X-0.259808X0.150000X0*%
%ADD17R,1.350000X1.350000*%
%ADD18O,1.350000X1.350000*%
%ADD19C,2.050000*%
%ADD20C,0.650000*%
%ADD21R,0.600000X1.150000*%
%ADD22R,0.300000X1.150000*%
%ADD23O,1.050000X2.100000*%
%ADD24O,1.000000X2.000000*%
%ADD25R,0.300000X0.700000*%
%ADD26R,0.300000X1.000000*%
%ADD27O,1.250000X2.500000*%
%ADD28O,1.600000X2.500000*%
%ADD29RoundRect,0.250000X-0.350000X-0.625000X0.350000X-0.625000X0.350000X0.625000X-0.350000X0.625000X0*%
%ADD30O,1.200000X1.750000*%
%ADD31RoundRect,0.100000X0.712500X0.100000X-0.712500X0.100000X-0.712500X-0.100000X0.712500X-0.100000X0*%
G04 APERTURE END LIST*
D10*
%TO.C,SW6*%
X172671539Y-110006388D03*
X172009489Y-122639052D03*
D11*
X177558707Y-112290293D03*
X177108617Y-120878507D03*
D10*
X182657835Y-110529748D03*
X181995785Y-123162412D03*
D12*
X171861497Y-113043156D03*
X171521313Y-119534248D03*
X167367664Y-112807644D03*
X167027480Y-119298736D03*
%TD*%
D13*
%TO.C,SW7*%
X163618112Y-100644336D03*
X170546316Y-96644336D03*
D14*
X166643465Y-101784400D03*
X170020963Y-99834400D03*
%TD*%
D15*
%TO.C,SW8*%
X266420998Y-96644336D03*
X273349202Y-100644336D03*
D16*
X266946351Y-99834400D03*
X270323849Y-101784400D03*
%TD*%
D17*
%TO.C,J4*%
X278380200Y-144195800D03*
D18*
X276380200Y-144195800D03*
X274380200Y-144195800D03*
X272380200Y-144195800D03*
X270380200Y-144195800D03*
X268380200Y-144195800D03*
%TD*%
D19*
%TO.C,J7*%
X211258657Y-88054400D03*
%TD*%
D17*
%TO.C,SW14*%
X222283657Y-135484400D03*
X214683657Y-135484400D03*
%TD*%
D19*
%TO.C,J8*%
X225708657Y-88054400D03*
%TD*%
D20*
%TO.C,J14*%
X166212000Y-141608000D03*
X160432000Y-141608000D03*
D21*
X166522000Y-140533000D03*
X165722000Y-140533000D03*
D22*
X164572000Y-140533000D03*
X163572000Y-140533000D03*
X163072000Y-140533000D03*
X162072000Y-140533000D03*
D21*
X160122000Y-140533000D03*
X160922000Y-140533000D03*
D22*
X161572000Y-140533000D03*
X162572000Y-140533000D03*
X164072000Y-140533000D03*
X165072000Y-140533000D03*
D23*
X167642000Y-141108000D03*
D24*
X167642000Y-145288000D03*
X159002000Y-145288000D03*
D23*
X159002000Y-141108000D03*
%TD*%
D19*
%TO.C,J12*%
X225708657Y-93054400D03*
%TD*%
%TO.C,J6*%
X225708657Y-85554400D03*
%TD*%
%TO.C,J10*%
X225708657Y-90554400D03*
%TD*%
D25*
%TO.C,J13*%
X272740173Y-139656580D03*
X272240173Y-139656580D03*
X271740173Y-139656580D03*
X271240173Y-139656580D03*
X270740173Y-139656580D03*
X270240173Y-139656580D03*
D26*
X273530173Y-142306580D03*
X269450173Y-142306580D03*
%TD*%
D19*
%TO.C,J11*%
X211258657Y-93054400D03*
%TD*%
%TO.C,J9*%
X211258657Y-90554400D03*
%TD*%
D27*
%TO.C,RV2*%
X243483657Y-101434400D03*
X240983657Y-101434400D03*
X245983657Y-101434400D03*
D28*
X247833657Y-112934400D03*
X239133657Y-112934400D03*
%TD*%
D29*
%TO.C,B1*%
X232547596Y-111285471D03*
D30*
X234547596Y-111285471D03*
%TD*%
D19*
%TO.C,J5*%
X211258657Y-85554400D03*
%TD*%
D31*
%TO.C,U7*%
X273740100Y-134102200D03*
X273740100Y-134752200D03*
X273740100Y-135402200D03*
X273740100Y-136052200D03*
X269515100Y-136052200D03*
X269515100Y-135402200D03*
X269515100Y-134752200D03*
X269515100Y-134102200D03*
%TD*%
D27*
%TO.C,RV1*%
X193483657Y-101434400D03*
X190983657Y-101434400D03*
X195983657Y-101434400D03*
D28*
X197833657Y-112934400D03*
X189133657Y-112934400D03*
%TD*%
M02*
