%TF.GenerationSoftware,KiCad,Pcbnew,7.0.6*%
%TF.CreationDate,2023-12-14T14:15:50-08:00*%
%TF.ProjectId,UGC_Main,5547435f-4d61-4696-9e2e-6b696361645f,rev?*%
%TF.SameCoordinates,Original*%
%TF.FileFunction,Legend,Top*%
%TF.FilePolarity,Positive*%
%FSLAX46Y46*%
G04 Gerber Fmt 4.6, Leading zero omitted, Abs format (unit mm)*
G04 Created by KiCad (PCBNEW 7.0.6) date 2023-12-14 14:15:50*
%MOMM*%
%LPD*%
G01*
G04 APERTURE LIST*
%ADD10C,0.120000*%
%ADD11C,0.350000*%
%ADD12C,0.160000*%
%ADD13C,0.100000*%
%ADD14C,0.127000*%
%ADD15C,0.200000*%
G04 APERTURE END LIST*
D10*
X219297800Y-93952571D02*
X219035895Y-94135905D01*
X219297800Y-94266857D02*
X218747800Y-94266857D01*
X218747800Y-94266857D02*
X218747800Y-94057333D01*
X218747800Y-94057333D02*
X218773990Y-94004952D01*
X218773990Y-94004952D02*
X218800181Y-93978762D01*
X218800181Y-93978762D02*
X218852562Y-93952571D01*
X218852562Y-93952571D02*
X218931133Y-93952571D01*
X218931133Y-93952571D02*
X218983514Y-93978762D01*
X218983514Y-93978762D02*
X219009705Y-94004952D01*
X219009705Y-94004952D02*
X219035895Y-94057333D01*
X219035895Y-94057333D02*
X219035895Y-94266857D01*
X218747800Y-93769238D02*
X218747800Y-93428762D01*
X218747800Y-93428762D02*
X218957324Y-93612095D01*
X218957324Y-93612095D02*
X218957324Y-93533524D01*
X218957324Y-93533524D02*
X218983514Y-93481143D01*
X218983514Y-93481143D02*
X219009705Y-93454952D01*
X219009705Y-93454952D02*
X219062086Y-93428762D01*
X219062086Y-93428762D02*
X219193038Y-93428762D01*
X219193038Y-93428762D02*
X219245419Y-93454952D01*
X219245419Y-93454952D02*
X219271610Y-93481143D01*
X219271610Y-93481143D02*
X219297800Y-93533524D01*
X219297800Y-93533524D02*
X219297800Y-93690667D01*
X219297800Y-93690667D02*
X219271610Y-93743048D01*
X219271610Y-93743048D02*
X219245419Y-93769238D01*
X218747800Y-93088285D02*
X218747800Y-93035904D01*
X218747800Y-93035904D02*
X218773990Y-92983523D01*
X218773990Y-92983523D02*
X218800181Y-92957333D01*
X218800181Y-92957333D02*
X218852562Y-92931142D01*
X218852562Y-92931142D02*
X218957324Y-92904952D01*
X218957324Y-92904952D02*
X219088276Y-92904952D01*
X219088276Y-92904952D02*
X219193038Y-92931142D01*
X219193038Y-92931142D02*
X219245419Y-92957333D01*
X219245419Y-92957333D02*
X219271610Y-92983523D01*
X219271610Y-92983523D02*
X219297800Y-93035904D01*
X219297800Y-93035904D02*
X219297800Y-93088285D01*
X219297800Y-93088285D02*
X219271610Y-93140666D01*
X219271610Y-93140666D02*
X219245419Y-93166857D01*
X219245419Y-93166857D02*
X219193038Y-93193047D01*
X219193038Y-93193047D02*
X219088276Y-93219238D01*
X219088276Y-93219238D02*
X218957324Y-93219238D01*
X218957324Y-93219238D02*
X218852562Y-93193047D01*
X218852562Y-93193047D02*
X218800181Y-93166857D01*
X218800181Y-93166857D02*
X218773990Y-93140666D01*
X218773990Y-93140666D02*
X218747800Y-93088285D01*
X230167419Y-113180371D02*
X230193610Y-113206562D01*
X230193610Y-113206562D02*
X230219800Y-113285133D01*
X230219800Y-113285133D02*
X230219800Y-113337514D01*
X230219800Y-113337514D02*
X230193610Y-113416086D01*
X230193610Y-113416086D02*
X230141229Y-113468467D01*
X230141229Y-113468467D02*
X230088848Y-113494657D01*
X230088848Y-113494657D02*
X229984086Y-113520848D01*
X229984086Y-113520848D02*
X229905514Y-113520848D01*
X229905514Y-113520848D02*
X229800752Y-113494657D01*
X229800752Y-113494657D02*
X229748371Y-113468467D01*
X229748371Y-113468467D02*
X229695990Y-113416086D01*
X229695990Y-113416086D02*
X229669800Y-113337514D01*
X229669800Y-113337514D02*
X229669800Y-113285133D01*
X229669800Y-113285133D02*
X229695990Y-113206562D01*
X229695990Y-113206562D02*
X229722181Y-113180371D01*
X230219800Y-112656562D02*
X230219800Y-112970848D01*
X230219800Y-112813705D02*
X229669800Y-112813705D01*
X229669800Y-112813705D02*
X229748371Y-112866086D01*
X229748371Y-112866086D02*
X229800752Y-112918467D01*
X229800752Y-112918467D02*
X229826943Y-112970848D01*
X229669800Y-112473228D02*
X229669800Y-112106561D01*
X229669800Y-112106561D02*
X230219800Y-112342276D01*
X228051133Y-125392419D02*
X228024942Y-125418610D01*
X228024942Y-125418610D02*
X227946371Y-125444800D01*
X227946371Y-125444800D02*
X227893990Y-125444800D01*
X227893990Y-125444800D02*
X227815418Y-125418610D01*
X227815418Y-125418610D02*
X227763037Y-125366229D01*
X227763037Y-125366229D02*
X227736847Y-125313848D01*
X227736847Y-125313848D02*
X227710656Y-125209086D01*
X227710656Y-125209086D02*
X227710656Y-125130514D01*
X227710656Y-125130514D02*
X227736847Y-125025752D01*
X227736847Y-125025752D02*
X227763037Y-124973371D01*
X227763037Y-124973371D02*
X227815418Y-124920990D01*
X227815418Y-124920990D02*
X227893990Y-124894800D01*
X227893990Y-124894800D02*
X227946371Y-124894800D01*
X227946371Y-124894800D02*
X228024942Y-124920990D01*
X228024942Y-124920990D02*
X228051133Y-124947181D01*
X228522561Y-125078133D02*
X228522561Y-125444800D01*
X228391609Y-124868610D02*
X228260656Y-125261467D01*
X228260656Y-125261467D02*
X228601133Y-125261467D01*
X179384733Y-127349800D02*
X179201399Y-127087895D01*
X179070447Y-127349800D02*
X179070447Y-126799800D01*
X179070447Y-126799800D02*
X179279971Y-126799800D01*
X179279971Y-126799800D02*
X179332352Y-126825990D01*
X179332352Y-126825990D02*
X179358542Y-126852181D01*
X179358542Y-126852181D02*
X179384733Y-126904562D01*
X179384733Y-126904562D02*
X179384733Y-126983133D01*
X179384733Y-126983133D02*
X179358542Y-127035514D01*
X179358542Y-127035514D02*
X179332352Y-127061705D01*
X179332352Y-127061705D02*
X179279971Y-127087895D01*
X179279971Y-127087895D02*
X179070447Y-127087895D01*
X179908542Y-127349800D02*
X179594256Y-127349800D01*
X179751399Y-127349800D02*
X179751399Y-126799800D01*
X179751399Y-126799800D02*
X179699018Y-126878371D01*
X179699018Y-126878371D02*
X179646637Y-126930752D01*
X179646637Y-126930752D02*
X179594256Y-126956943D01*
X213760600Y-111140466D02*
X213498695Y-111323800D01*
X213760600Y-111454752D02*
X213210600Y-111454752D01*
X213210600Y-111454752D02*
X213210600Y-111245228D01*
X213210600Y-111245228D02*
X213236790Y-111192847D01*
X213236790Y-111192847D02*
X213262981Y-111166657D01*
X213262981Y-111166657D02*
X213315362Y-111140466D01*
X213315362Y-111140466D02*
X213393933Y-111140466D01*
X213393933Y-111140466D02*
X213446314Y-111166657D01*
X213446314Y-111166657D02*
X213472505Y-111192847D01*
X213472505Y-111192847D02*
X213498695Y-111245228D01*
X213498695Y-111245228D02*
X213498695Y-111454752D01*
X213446314Y-110826181D02*
X213420124Y-110878562D01*
X213420124Y-110878562D02*
X213393933Y-110904752D01*
X213393933Y-110904752D02*
X213341552Y-110930943D01*
X213341552Y-110930943D02*
X213315362Y-110930943D01*
X213315362Y-110930943D02*
X213262981Y-110904752D01*
X213262981Y-110904752D02*
X213236790Y-110878562D01*
X213236790Y-110878562D02*
X213210600Y-110826181D01*
X213210600Y-110826181D02*
X213210600Y-110721419D01*
X213210600Y-110721419D02*
X213236790Y-110669038D01*
X213236790Y-110669038D02*
X213262981Y-110642847D01*
X213262981Y-110642847D02*
X213315362Y-110616657D01*
X213315362Y-110616657D02*
X213341552Y-110616657D01*
X213341552Y-110616657D02*
X213393933Y-110642847D01*
X213393933Y-110642847D02*
X213420124Y-110669038D01*
X213420124Y-110669038D02*
X213446314Y-110721419D01*
X213446314Y-110721419D02*
X213446314Y-110826181D01*
X213446314Y-110826181D02*
X213472505Y-110878562D01*
X213472505Y-110878562D02*
X213498695Y-110904752D01*
X213498695Y-110904752D02*
X213551076Y-110930943D01*
X213551076Y-110930943D02*
X213655838Y-110930943D01*
X213655838Y-110930943D02*
X213708219Y-110904752D01*
X213708219Y-110904752D02*
X213734410Y-110878562D01*
X213734410Y-110878562D02*
X213760600Y-110826181D01*
X213760600Y-110826181D02*
X213760600Y-110721419D01*
X213760600Y-110721419D02*
X213734410Y-110669038D01*
X213734410Y-110669038D02*
X213708219Y-110642847D01*
X213708219Y-110642847D02*
X213655838Y-110616657D01*
X213655838Y-110616657D02*
X213551076Y-110616657D01*
X213551076Y-110616657D02*
X213498695Y-110642847D01*
X213498695Y-110642847D02*
X213472505Y-110669038D01*
X213472505Y-110669038D02*
X213446314Y-110721419D01*
X230133933Y-103956400D02*
X229950599Y-103694495D01*
X229819647Y-103956400D02*
X229819647Y-103406400D01*
X229819647Y-103406400D02*
X230029171Y-103406400D01*
X230029171Y-103406400D02*
X230081552Y-103432590D01*
X230081552Y-103432590D02*
X230107742Y-103458781D01*
X230107742Y-103458781D02*
X230133933Y-103511162D01*
X230133933Y-103511162D02*
X230133933Y-103589733D01*
X230133933Y-103589733D02*
X230107742Y-103642114D01*
X230107742Y-103642114D02*
X230081552Y-103668305D01*
X230081552Y-103668305D02*
X230029171Y-103694495D01*
X230029171Y-103694495D02*
X229819647Y-103694495D01*
X230631552Y-103406400D02*
X230369647Y-103406400D01*
X230369647Y-103406400D02*
X230343456Y-103668305D01*
X230343456Y-103668305D02*
X230369647Y-103642114D01*
X230369647Y-103642114D02*
X230422028Y-103615924D01*
X230422028Y-103615924D02*
X230552980Y-103615924D01*
X230552980Y-103615924D02*
X230605361Y-103642114D01*
X230605361Y-103642114D02*
X230631552Y-103668305D01*
X230631552Y-103668305D02*
X230657742Y-103720686D01*
X230657742Y-103720686D02*
X230657742Y-103851638D01*
X230657742Y-103851638D02*
X230631552Y-103904019D01*
X230631552Y-103904019D02*
X230605361Y-103930210D01*
X230605361Y-103930210D02*
X230552980Y-103956400D01*
X230552980Y-103956400D02*
X230422028Y-103956400D01*
X230422028Y-103956400D02*
X230369647Y-103930210D01*
X230369647Y-103930210D02*
X230343456Y-103904019D01*
X160123628Y-140236200D02*
X159940294Y-139974295D01*
X159809342Y-140236200D02*
X159809342Y-139686200D01*
X159809342Y-139686200D02*
X160018866Y-139686200D01*
X160018866Y-139686200D02*
X160071247Y-139712390D01*
X160071247Y-139712390D02*
X160097437Y-139738581D01*
X160097437Y-139738581D02*
X160123628Y-139790962D01*
X160123628Y-139790962D02*
X160123628Y-139869533D01*
X160123628Y-139869533D02*
X160097437Y-139921914D01*
X160097437Y-139921914D02*
X160071247Y-139948105D01*
X160071247Y-139948105D02*
X160018866Y-139974295D01*
X160018866Y-139974295D02*
X159809342Y-139974295D01*
X160333151Y-139738581D02*
X160359342Y-139712390D01*
X160359342Y-139712390D02*
X160411723Y-139686200D01*
X160411723Y-139686200D02*
X160542675Y-139686200D01*
X160542675Y-139686200D02*
X160595056Y-139712390D01*
X160595056Y-139712390D02*
X160621247Y-139738581D01*
X160621247Y-139738581D02*
X160647437Y-139790962D01*
X160647437Y-139790962D02*
X160647437Y-139843343D01*
X160647437Y-139843343D02*
X160621247Y-139921914D01*
X160621247Y-139921914D02*
X160306961Y-140236200D01*
X160306961Y-140236200D02*
X160647437Y-140236200D01*
X160856961Y-139738581D02*
X160883152Y-139712390D01*
X160883152Y-139712390D02*
X160935533Y-139686200D01*
X160935533Y-139686200D02*
X161066485Y-139686200D01*
X161066485Y-139686200D02*
X161118866Y-139712390D01*
X161118866Y-139712390D02*
X161145057Y-139738581D01*
X161145057Y-139738581D02*
X161171247Y-139790962D01*
X161171247Y-139790962D02*
X161171247Y-139843343D01*
X161171247Y-139843343D02*
X161145057Y-139921914D01*
X161145057Y-139921914D02*
X160830771Y-140236200D01*
X160830771Y-140236200D02*
X161171247Y-140236200D01*
X239795600Y-97254571D02*
X239533695Y-97437905D01*
X239795600Y-97568857D02*
X239245600Y-97568857D01*
X239245600Y-97568857D02*
X239245600Y-97359333D01*
X239245600Y-97359333D02*
X239271790Y-97306952D01*
X239271790Y-97306952D02*
X239297981Y-97280762D01*
X239297981Y-97280762D02*
X239350362Y-97254571D01*
X239350362Y-97254571D02*
X239428933Y-97254571D01*
X239428933Y-97254571D02*
X239481314Y-97280762D01*
X239481314Y-97280762D02*
X239507505Y-97306952D01*
X239507505Y-97306952D02*
X239533695Y-97359333D01*
X239533695Y-97359333D02*
X239533695Y-97568857D01*
X239245600Y-97071238D02*
X239245600Y-96730762D01*
X239245600Y-96730762D02*
X239455124Y-96914095D01*
X239455124Y-96914095D02*
X239455124Y-96835524D01*
X239455124Y-96835524D02*
X239481314Y-96783143D01*
X239481314Y-96783143D02*
X239507505Y-96756952D01*
X239507505Y-96756952D02*
X239559886Y-96730762D01*
X239559886Y-96730762D02*
X239690838Y-96730762D01*
X239690838Y-96730762D02*
X239743219Y-96756952D01*
X239743219Y-96756952D02*
X239769410Y-96783143D01*
X239769410Y-96783143D02*
X239795600Y-96835524D01*
X239795600Y-96835524D02*
X239795600Y-96992667D01*
X239795600Y-96992667D02*
X239769410Y-97045048D01*
X239769410Y-97045048D02*
X239743219Y-97071238D01*
X239481314Y-96416476D02*
X239455124Y-96468857D01*
X239455124Y-96468857D02*
X239428933Y-96495047D01*
X239428933Y-96495047D02*
X239376552Y-96521238D01*
X239376552Y-96521238D02*
X239350362Y-96521238D01*
X239350362Y-96521238D02*
X239297981Y-96495047D01*
X239297981Y-96495047D02*
X239271790Y-96468857D01*
X239271790Y-96468857D02*
X239245600Y-96416476D01*
X239245600Y-96416476D02*
X239245600Y-96311714D01*
X239245600Y-96311714D02*
X239271790Y-96259333D01*
X239271790Y-96259333D02*
X239297981Y-96233142D01*
X239297981Y-96233142D02*
X239350362Y-96206952D01*
X239350362Y-96206952D02*
X239376552Y-96206952D01*
X239376552Y-96206952D02*
X239428933Y-96233142D01*
X239428933Y-96233142D02*
X239455124Y-96259333D01*
X239455124Y-96259333D02*
X239481314Y-96311714D01*
X239481314Y-96311714D02*
X239481314Y-96416476D01*
X239481314Y-96416476D02*
X239507505Y-96468857D01*
X239507505Y-96468857D02*
X239533695Y-96495047D01*
X239533695Y-96495047D02*
X239586076Y-96521238D01*
X239586076Y-96521238D02*
X239690838Y-96521238D01*
X239690838Y-96521238D02*
X239743219Y-96495047D01*
X239743219Y-96495047D02*
X239769410Y-96468857D01*
X239769410Y-96468857D02*
X239795600Y-96416476D01*
X239795600Y-96416476D02*
X239795600Y-96311714D01*
X239795600Y-96311714D02*
X239769410Y-96259333D01*
X239769410Y-96259333D02*
X239743219Y-96233142D01*
X239743219Y-96233142D02*
X239690838Y-96206952D01*
X239690838Y-96206952D02*
X239586076Y-96206952D01*
X239586076Y-96206952D02*
X239533695Y-96233142D01*
X239533695Y-96233142D02*
X239507505Y-96259333D01*
X239507505Y-96259333D02*
X239481314Y-96311714D01*
X187636682Y-118207878D02*
X188081310Y-118231180D01*
X188081310Y-118231180D02*
X188134990Y-118207767D01*
X188134990Y-118207767D02*
X188162515Y-118182983D01*
X188162515Y-118182983D02*
X188191411Y-118132044D01*
X188191411Y-118132044D02*
X188196894Y-118027426D01*
X188196894Y-118027426D02*
X188173481Y-117973746D01*
X188173481Y-117973746D02*
X188148697Y-117946221D01*
X188148697Y-117946221D02*
X188097759Y-117917325D01*
X188097759Y-117917325D02*
X187653131Y-117894023D01*
X187664096Y-117684787D02*
X187681916Y-117344777D01*
X187681916Y-117344777D02*
X187881557Y-117538825D01*
X187881557Y-117538825D02*
X187885669Y-117460361D01*
X187885669Y-117460361D02*
X187914565Y-117409423D01*
X187914565Y-117409423D02*
X187942091Y-117384639D01*
X187942091Y-117384639D02*
X187995771Y-117361226D01*
X187995771Y-117361226D02*
X188126543Y-117368079D01*
X188126543Y-117368079D02*
X188177482Y-117396975D01*
X188177482Y-117396975D02*
X188202266Y-117424500D01*
X188202266Y-117424500D02*
X188225679Y-117478180D01*
X188225679Y-117478180D02*
X188217455Y-117635108D01*
X188217455Y-117635108D02*
X188188559Y-117686046D01*
X188188559Y-117686046D02*
X188161033Y-117710830D01*
X216773533Y-106775800D02*
X216590199Y-106513895D01*
X216459247Y-106775800D02*
X216459247Y-106225800D01*
X216459247Y-106225800D02*
X216668771Y-106225800D01*
X216668771Y-106225800D02*
X216721152Y-106251990D01*
X216721152Y-106251990D02*
X216747342Y-106278181D01*
X216747342Y-106278181D02*
X216773533Y-106330562D01*
X216773533Y-106330562D02*
X216773533Y-106409133D01*
X216773533Y-106409133D02*
X216747342Y-106461514D01*
X216747342Y-106461514D02*
X216721152Y-106487705D01*
X216721152Y-106487705D02*
X216668771Y-106513895D01*
X216668771Y-106513895D02*
X216459247Y-106513895D01*
X217244961Y-106225800D02*
X217140199Y-106225800D01*
X217140199Y-106225800D02*
X217087818Y-106251990D01*
X217087818Y-106251990D02*
X217061628Y-106278181D01*
X217061628Y-106278181D02*
X217009247Y-106356752D01*
X217009247Y-106356752D02*
X216983056Y-106461514D01*
X216983056Y-106461514D02*
X216983056Y-106671038D01*
X216983056Y-106671038D02*
X217009247Y-106723419D01*
X217009247Y-106723419D02*
X217035437Y-106749610D01*
X217035437Y-106749610D02*
X217087818Y-106775800D01*
X217087818Y-106775800D02*
X217192580Y-106775800D01*
X217192580Y-106775800D02*
X217244961Y-106749610D01*
X217244961Y-106749610D02*
X217271152Y-106723419D01*
X217271152Y-106723419D02*
X217297342Y-106671038D01*
X217297342Y-106671038D02*
X217297342Y-106540086D01*
X217297342Y-106540086D02*
X217271152Y-106487705D01*
X217271152Y-106487705D02*
X217244961Y-106461514D01*
X217244961Y-106461514D02*
X217192580Y-106435324D01*
X217192580Y-106435324D02*
X217087818Y-106435324D01*
X217087818Y-106435324D02*
X217035437Y-106461514D01*
X217035437Y-106461514D02*
X217009247Y-106487705D01*
X217009247Y-106487705D02*
X216983056Y-106540086D01*
X243723979Y-129647750D02*
X243802551Y-129673940D01*
X243802551Y-129673940D02*
X243933503Y-129673940D01*
X243933503Y-129673940D02*
X243985884Y-129647750D01*
X243985884Y-129647750D02*
X244012075Y-129621559D01*
X244012075Y-129621559D02*
X244038265Y-129569178D01*
X244038265Y-129569178D02*
X244038265Y-129516797D01*
X244038265Y-129516797D02*
X244012075Y-129464416D01*
X244012075Y-129464416D02*
X243985884Y-129438226D01*
X243985884Y-129438226D02*
X243933503Y-129412035D01*
X243933503Y-129412035D02*
X243828741Y-129385845D01*
X243828741Y-129385845D02*
X243776360Y-129359654D01*
X243776360Y-129359654D02*
X243750170Y-129333464D01*
X243750170Y-129333464D02*
X243723979Y-129281083D01*
X243723979Y-129281083D02*
X243723979Y-129228702D01*
X243723979Y-129228702D02*
X243750170Y-129176321D01*
X243750170Y-129176321D02*
X243776360Y-129150130D01*
X243776360Y-129150130D02*
X243828741Y-129123940D01*
X243828741Y-129123940D02*
X243959694Y-129123940D01*
X243959694Y-129123940D02*
X244038265Y-129150130D01*
X244221599Y-129123940D02*
X244352551Y-129673940D01*
X244352551Y-129673940D02*
X244457313Y-129281083D01*
X244457313Y-129281083D02*
X244562075Y-129673940D01*
X244562075Y-129673940D02*
X244693028Y-129123940D01*
X244876360Y-129176321D02*
X244902551Y-129150130D01*
X244902551Y-129150130D02*
X244954932Y-129123940D01*
X244954932Y-129123940D02*
X245085884Y-129123940D01*
X245085884Y-129123940D02*
X245138265Y-129150130D01*
X245138265Y-129150130D02*
X245164456Y-129176321D01*
X245164456Y-129176321D02*
X245190646Y-129228702D01*
X245190646Y-129228702D02*
X245190646Y-129281083D01*
X245190646Y-129281083D02*
X245164456Y-129359654D01*
X245164456Y-129359654D02*
X244850170Y-129673940D01*
X244850170Y-129673940D02*
X245190646Y-129673940D01*
X234739419Y-105763571D02*
X234765610Y-105789762D01*
X234765610Y-105789762D02*
X234791800Y-105868333D01*
X234791800Y-105868333D02*
X234791800Y-105920714D01*
X234791800Y-105920714D02*
X234765610Y-105999286D01*
X234765610Y-105999286D02*
X234713229Y-106051667D01*
X234713229Y-106051667D02*
X234660848Y-106077857D01*
X234660848Y-106077857D02*
X234556086Y-106104048D01*
X234556086Y-106104048D02*
X234477514Y-106104048D01*
X234477514Y-106104048D02*
X234372752Y-106077857D01*
X234372752Y-106077857D02*
X234320371Y-106051667D01*
X234320371Y-106051667D02*
X234267990Y-105999286D01*
X234267990Y-105999286D02*
X234241800Y-105920714D01*
X234241800Y-105920714D02*
X234241800Y-105868333D01*
X234241800Y-105868333D02*
X234267990Y-105789762D01*
X234267990Y-105789762D02*
X234294181Y-105763571D01*
X234791800Y-105239762D02*
X234791800Y-105554048D01*
X234791800Y-105396905D02*
X234241800Y-105396905D01*
X234241800Y-105396905D02*
X234320371Y-105449286D01*
X234320371Y-105449286D02*
X234372752Y-105501667D01*
X234372752Y-105501667D02*
X234398943Y-105554048D01*
X234241800Y-104742142D02*
X234241800Y-105004047D01*
X234241800Y-105004047D02*
X234503705Y-105030238D01*
X234503705Y-105030238D02*
X234477514Y-105004047D01*
X234477514Y-105004047D02*
X234451324Y-104951666D01*
X234451324Y-104951666D02*
X234451324Y-104820714D01*
X234451324Y-104820714D02*
X234477514Y-104768333D01*
X234477514Y-104768333D02*
X234503705Y-104742142D01*
X234503705Y-104742142D02*
X234556086Y-104715952D01*
X234556086Y-104715952D02*
X234687038Y-104715952D01*
X234687038Y-104715952D02*
X234739419Y-104742142D01*
X234739419Y-104742142D02*
X234765610Y-104768333D01*
X234765610Y-104768333D02*
X234791800Y-104820714D01*
X234791800Y-104820714D02*
X234791800Y-104951666D01*
X234791800Y-104951666D02*
X234765610Y-105004047D01*
X234765610Y-105004047D02*
X234739419Y-105030238D01*
X212871600Y-126185171D02*
X212609695Y-126368505D01*
X212871600Y-126499457D02*
X212321600Y-126499457D01*
X212321600Y-126499457D02*
X212321600Y-126289933D01*
X212321600Y-126289933D02*
X212347790Y-126237552D01*
X212347790Y-126237552D02*
X212373981Y-126211362D01*
X212373981Y-126211362D02*
X212426362Y-126185171D01*
X212426362Y-126185171D02*
X212504933Y-126185171D01*
X212504933Y-126185171D02*
X212557314Y-126211362D01*
X212557314Y-126211362D02*
X212583505Y-126237552D01*
X212583505Y-126237552D02*
X212609695Y-126289933D01*
X212609695Y-126289933D02*
X212609695Y-126499457D01*
X212321600Y-126001838D02*
X212321600Y-125661362D01*
X212321600Y-125661362D02*
X212531124Y-125844695D01*
X212531124Y-125844695D02*
X212531124Y-125766124D01*
X212531124Y-125766124D02*
X212557314Y-125713743D01*
X212557314Y-125713743D02*
X212583505Y-125687552D01*
X212583505Y-125687552D02*
X212635886Y-125661362D01*
X212635886Y-125661362D02*
X212766838Y-125661362D01*
X212766838Y-125661362D02*
X212819219Y-125687552D01*
X212819219Y-125687552D02*
X212845410Y-125713743D01*
X212845410Y-125713743D02*
X212871600Y-125766124D01*
X212871600Y-125766124D02*
X212871600Y-125923267D01*
X212871600Y-125923267D02*
X212845410Y-125975648D01*
X212845410Y-125975648D02*
X212819219Y-126001838D01*
X212504933Y-125189933D02*
X212871600Y-125189933D01*
X212295410Y-125320885D02*
X212688267Y-125451838D01*
X212688267Y-125451838D02*
X212688267Y-125111361D01*
X229559400Y-107236771D02*
X229297495Y-107420105D01*
X229559400Y-107551057D02*
X229009400Y-107551057D01*
X229009400Y-107551057D02*
X229009400Y-107341533D01*
X229009400Y-107341533D02*
X229035590Y-107289152D01*
X229035590Y-107289152D02*
X229061781Y-107262962D01*
X229061781Y-107262962D02*
X229114162Y-107236771D01*
X229114162Y-107236771D02*
X229192733Y-107236771D01*
X229192733Y-107236771D02*
X229245114Y-107262962D01*
X229245114Y-107262962D02*
X229271305Y-107289152D01*
X229271305Y-107289152D02*
X229297495Y-107341533D01*
X229297495Y-107341533D02*
X229297495Y-107551057D01*
X229559400Y-106712962D02*
X229559400Y-107027248D01*
X229559400Y-106870105D02*
X229009400Y-106870105D01*
X229009400Y-106870105D02*
X229087971Y-106922486D01*
X229087971Y-106922486D02*
X229140352Y-106974867D01*
X229140352Y-106974867D02*
X229166543Y-107027248D01*
X229061781Y-106503438D02*
X229035590Y-106477247D01*
X229035590Y-106477247D02*
X229009400Y-106424866D01*
X229009400Y-106424866D02*
X229009400Y-106293914D01*
X229009400Y-106293914D02*
X229035590Y-106241533D01*
X229035590Y-106241533D02*
X229061781Y-106215342D01*
X229061781Y-106215342D02*
X229114162Y-106189152D01*
X229114162Y-106189152D02*
X229166543Y-106189152D01*
X229166543Y-106189152D02*
X229245114Y-106215342D01*
X229245114Y-106215342D02*
X229559400Y-106529628D01*
X229559400Y-106529628D02*
X229559400Y-106189152D01*
X199826647Y-117757400D02*
X199826647Y-118202638D01*
X199826647Y-118202638D02*
X199852837Y-118255019D01*
X199852837Y-118255019D02*
X199879028Y-118281210D01*
X199879028Y-118281210D02*
X199931409Y-118307400D01*
X199931409Y-118307400D02*
X200036171Y-118307400D01*
X200036171Y-118307400D02*
X200088552Y-118281210D01*
X200088552Y-118281210D02*
X200114742Y-118255019D01*
X200114742Y-118255019D02*
X200140933Y-118202638D01*
X200140933Y-118202638D02*
X200140933Y-117757400D01*
X200690932Y-118307400D02*
X200376646Y-118307400D01*
X200533789Y-118307400D02*
X200533789Y-117757400D01*
X200533789Y-117757400D02*
X200481408Y-117835971D01*
X200481408Y-117835971D02*
X200429027Y-117888352D01*
X200429027Y-117888352D02*
X200376646Y-117914543D01*
X201031409Y-117757400D02*
X201083790Y-117757400D01*
X201083790Y-117757400D02*
X201136171Y-117783590D01*
X201136171Y-117783590D02*
X201162361Y-117809781D01*
X201162361Y-117809781D02*
X201188552Y-117862162D01*
X201188552Y-117862162D02*
X201214742Y-117966924D01*
X201214742Y-117966924D02*
X201214742Y-118097876D01*
X201214742Y-118097876D02*
X201188552Y-118202638D01*
X201188552Y-118202638D02*
X201162361Y-118255019D01*
X201162361Y-118255019D02*
X201136171Y-118281210D01*
X201136171Y-118281210D02*
X201083790Y-118307400D01*
X201083790Y-118307400D02*
X201031409Y-118307400D01*
X201031409Y-118307400D02*
X200979028Y-118281210D01*
X200979028Y-118281210D02*
X200952837Y-118255019D01*
X200952837Y-118255019D02*
X200926647Y-118202638D01*
X200926647Y-118202638D02*
X200900456Y-118097876D01*
X200900456Y-118097876D02*
X200900456Y-117966924D01*
X200900456Y-117966924D02*
X200926647Y-117862162D01*
X200926647Y-117862162D02*
X200952837Y-117809781D01*
X200952837Y-117809781D02*
X200979028Y-117783590D01*
X200979028Y-117783590D02*
X201031409Y-117757400D01*
X215486219Y-98651571D02*
X215512410Y-98677762D01*
X215512410Y-98677762D02*
X215538600Y-98756333D01*
X215538600Y-98756333D02*
X215538600Y-98808714D01*
X215538600Y-98808714D02*
X215512410Y-98887286D01*
X215512410Y-98887286D02*
X215460029Y-98939667D01*
X215460029Y-98939667D02*
X215407648Y-98965857D01*
X215407648Y-98965857D02*
X215302886Y-98992048D01*
X215302886Y-98992048D02*
X215224314Y-98992048D01*
X215224314Y-98992048D02*
X215119552Y-98965857D01*
X215119552Y-98965857D02*
X215067171Y-98939667D01*
X215067171Y-98939667D02*
X215014790Y-98887286D01*
X215014790Y-98887286D02*
X214988600Y-98808714D01*
X214988600Y-98808714D02*
X214988600Y-98756333D01*
X214988600Y-98756333D02*
X215014790Y-98677762D01*
X215014790Y-98677762D02*
X215040981Y-98651571D01*
X215040981Y-98442048D02*
X215014790Y-98415857D01*
X215014790Y-98415857D02*
X214988600Y-98363476D01*
X214988600Y-98363476D02*
X214988600Y-98232524D01*
X214988600Y-98232524D02*
X215014790Y-98180143D01*
X215014790Y-98180143D02*
X215040981Y-98153952D01*
X215040981Y-98153952D02*
X215093362Y-98127762D01*
X215093362Y-98127762D02*
X215145743Y-98127762D01*
X215145743Y-98127762D02*
X215224314Y-98153952D01*
X215224314Y-98153952D02*
X215538600Y-98468238D01*
X215538600Y-98468238D02*
X215538600Y-98127762D01*
X215040981Y-97918238D02*
X215014790Y-97892047D01*
X215014790Y-97892047D02*
X214988600Y-97839666D01*
X214988600Y-97839666D02*
X214988600Y-97708714D01*
X214988600Y-97708714D02*
X215014790Y-97656333D01*
X215014790Y-97656333D02*
X215040981Y-97630142D01*
X215040981Y-97630142D02*
X215093362Y-97603952D01*
X215093362Y-97603952D02*
X215145743Y-97603952D01*
X215145743Y-97603952D02*
X215224314Y-97630142D01*
X215224314Y-97630142D02*
X215538600Y-97944428D01*
X215538600Y-97944428D02*
X215538600Y-97603952D01*
X258905466Y-121405410D02*
X258984038Y-121431600D01*
X258984038Y-121431600D02*
X259114990Y-121431600D01*
X259114990Y-121431600D02*
X259167371Y-121405410D01*
X259167371Y-121405410D02*
X259193562Y-121379219D01*
X259193562Y-121379219D02*
X259219752Y-121326838D01*
X259219752Y-121326838D02*
X259219752Y-121274457D01*
X259219752Y-121274457D02*
X259193562Y-121222076D01*
X259193562Y-121222076D02*
X259167371Y-121195886D01*
X259167371Y-121195886D02*
X259114990Y-121169695D01*
X259114990Y-121169695D02*
X259010228Y-121143505D01*
X259010228Y-121143505D02*
X258957847Y-121117314D01*
X258957847Y-121117314D02*
X258931657Y-121091124D01*
X258931657Y-121091124D02*
X258905466Y-121038743D01*
X258905466Y-121038743D02*
X258905466Y-120986362D01*
X258905466Y-120986362D02*
X258931657Y-120933981D01*
X258931657Y-120933981D02*
X258957847Y-120907790D01*
X258957847Y-120907790D02*
X259010228Y-120881600D01*
X259010228Y-120881600D02*
X259141181Y-120881600D01*
X259141181Y-120881600D02*
X259219752Y-120907790D01*
X259403086Y-120881600D02*
X259534038Y-121431600D01*
X259534038Y-121431600D02*
X259638800Y-121038743D01*
X259638800Y-121038743D02*
X259743562Y-121431600D01*
X259743562Y-121431600D02*
X259874515Y-120881600D01*
X260372133Y-121431600D02*
X260057847Y-121431600D01*
X260214990Y-121431600D02*
X260214990Y-120881600D01*
X260214990Y-120881600D02*
X260162609Y-120960171D01*
X260162609Y-120960171D02*
X260110228Y-121012552D01*
X260110228Y-121012552D02*
X260057847Y-121038743D01*
X200281028Y-112311419D02*
X200254837Y-112337610D01*
X200254837Y-112337610D02*
X200176266Y-112363800D01*
X200176266Y-112363800D02*
X200123885Y-112363800D01*
X200123885Y-112363800D02*
X200045313Y-112337610D01*
X200045313Y-112337610D02*
X199992932Y-112285229D01*
X199992932Y-112285229D02*
X199966742Y-112232848D01*
X199966742Y-112232848D02*
X199940551Y-112128086D01*
X199940551Y-112128086D02*
X199940551Y-112049514D01*
X199940551Y-112049514D02*
X199966742Y-111944752D01*
X199966742Y-111944752D02*
X199992932Y-111892371D01*
X199992932Y-111892371D02*
X200045313Y-111839990D01*
X200045313Y-111839990D02*
X200123885Y-111813800D01*
X200123885Y-111813800D02*
X200176266Y-111813800D01*
X200176266Y-111813800D02*
X200254837Y-111839990D01*
X200254837Y-111839990D02*
X200281028Y-111866181D01*
X200804837Y-112363800D02*
X200490551Y-112363800D01*
X200647694Y-112363800D02*
X200647694Y-111813800D01*
X200647694Y-111813800D02*
X200595313Y-111892371D01*
X200595313Y-111892371D02*
X200542932Y-111944752D01*
X200542932Y-111944752D02*
X200490551Y-111970943D01*
X201014361Y-111866181D02*
X201040552Y-111839990D01*
X201040552Y-111839990D02*
X201092933Y-111813800D01*
X201092933Y-111813800D02*
X201223885Y-111813800D01*
X201223885Y-111813800D02*
X201276266Y-111839990D01*
X201276266Y-111839990D02*
X201302457Y-111866181D01*
X201302457Y-111866181D02*
X201328647Y-111918562D01*
X201328647Y-111918562D02*
X201328647Y-111970943D01*
X201328647Y-111970943D02*
X201302457Y-112049514D01*
X201302457Y-112049514D02*
X200988171Y-112363800D01*
X200988171Y-112363800D02*
X201328647Y-112363800D01*
X216463647Y-94008400D02*
X216463647Y-94453638D01*
X216463647Y-94453638D02*
X216489837Y-94506019D01*
X216489837Y-94506019D02*
X216516028Y-94532210D01*
X216516028Y-94532210D02*
X216568409Y-94558400D01*
X216568409Y-94558400D02*
X216673171Y-94558400D01*
X216673171Y-94558400D02*
X216725552Y-94532210D01*
X216725552Y-94532210D02*
X216751742Y-94506019D01*
X216751742Y-94506019D02*
X216777933Y-94453638D01*
X216777933Y-94453638D02*
X216777933Y-94008400D01*
X217327932Y-94558400D02*
X217013646Y-94558400D01*
X217170789Y-94558400D02*
X217170789Y-94008400D01*
X217170789Y-94008400D02*
X217118408Y-94086971D01*
X217118408Y-94086971D02*
X217066027Y-94139352D01*
X217066027Y-94139352D02*
X217013646Y-94165543D01*
X217511266Y-94008400D02*
X217851742Y-94008400D01*
X217851742Y-94008400D02*
X217668409Y-94217924D01*
X217668409Y-94217924D02*
X217746980Y-94217924D01*
X217746980Y-94217924D02*
X217799361Y-94244114D01*
X217799361Y-94244114D02*
X217825552Y-94270305D01*
X217825552Y-94270305D02*
X217851742Y-94322686D01*
X217851742Y-94322686D02*
X217851742Y-94453638D01*
X217851742Y-94453638D02*
X217825552Y-94506019D01*
X217825552Y-94506019D02*
X217799361Y-94532210D01*
X217799361Y-94532210D02*
X217746980Y-94558400D01*
X217746980Y-94558400D02*
X217589837Y-94558400D01*
X217589837Y-94558400D02*
X217537456Y-94532210D01*
X217537456Y-94532210D02*
X217511266Y-94506019D01*
X215587819Y-109065571D02*
X215614010Y-109091762D01*
X215614010Y-109091762D02*
X215640200Y-109170333D01*
X215640200Y-109170333D02*
X215640200Y-109222714D01*
X215640200Y-109222714D02*
X215614010Y-109301286D01*
X215614010Y-109301286D02*
X215561629Y-109353667D01*
X215561629Y-109353667D02*
X215509248Y-109379857D01*
X215509248Y-109379857D02*
X215404486Y-109406048D01*
X215404486Y-109406048D02*
X215325914Y-109406048D01*
X215325914Y-109406048D02*
X215221152Y-109379857D01*
X215221152Y-109379857D02*
X215168771Y-109353667D01*
X215168771Y-109353667D02*
X215116390Y-109301286D01*
X215116390Y-109301286D02*
X215090200Y-109222714D01*
X215090200Y-109222714D02*
X215090200Y-109170333D01*
X215090200Y-109170333D02*
X215116390Y-109091762D01*
X215116390Y-109091762D02*
X215142581Y-109065571D01*
X215640200Y-108541762D02*
X215640200Y-108856048D01*
X215640200Y-108698905D02*
X215090200Y-108698905D01*
X215090200Y-108698905D02*
X215168771Y-108751286D01*
X215168771Y-108751286D02*
X215221152Y-108803667D01*
X215221152Y-108803667D02*
X215247343Y-108856048D01*
X215640200Y-108017952D02*
X215640200Y-108332238D01*
X215640200Y-108175095D02*
X215090200Y-108175095D01*
X215090200Y-108175095D02*
X215168771Y-108227476D01*
X215168771Y-108227476D02*
X215221152Y-108279857D01*
X215221152Y-108279857D02*
X215247343Y-108332238D01*
X209497619Y-127402181D02*
X209445238Y-127375990D01*
X209445238Y-127375990D02*
X209392857Y-127323610D01*
X209392857Y-127323610D02*
X209314285Y-127245038D01*
X209314285Y-127245038D02*
X209261904Y-127218848D01*
X209261904Y-127218848D02*
X209209523Y-127218848D01*
X209235714Y-127349800D02*
X209183333Y-127323610D01*
X209183333Y-127323610D02*
X209130952Y-127271229D01*
X209130952Y-127271229D02*
X209104761Y-127166467D01*
X209104761Y-127166467D02*
X209104761Y-126983133D01*
X209104761Y-126983133D02*
X209130952Y-126878371D01*
X209130952Y-126878371D02*
X209183333Y-126825990D01*
X209183333Y-126825990D02*
X209235714Y-126799800D01*
X209235714Y-126799800D02*
X209340476Y-126799800D01*
X209340476Y-126799800D02*
X209392857Y-126825990D01*
X209392857Y-126825990D02*
X209445238Y-126878371D01*
X209445238Y-126878371D02*
X209471428Y-126983133D01*
X209471428Y-126983133D02*
X209471428Y-127166467D01*
X209471428Y-127166467D02*
X209445238Y-127271229D01*
X209445238Y-127271229D02*
X209392857Y-127323610D01*
X209392857Y-127323610D02*
X209340476Y-127349800D01*
X209340476Y-127349800D02*
X209235714Y-127349800D01*
X209995237Y-127349800D02*
X209680951Y-127349800D01*
X209838094Y-127349800D02*
X209838094Y-126799800D01*
X209838094Y-126799800D02*
X209785713Y-126878371D01*
X209785713Y-126878371D02*
X209733332Y-126930752D01*
X209733332Y-126930752D02*
X209680951Y-126956943D01*
X273408866Y-117874810D02*
X273487438Y-117901000D01*
X273487438Y-117901000D02*
X273618390Y-117901000D01*
X273618390Y-117901000D02*
X273670771Y-117874810D01*
X273670771Y-117874810D02*
X273696962Y-117848619D01*
X273696962Y-117848619D02*
X273723152Y-117796238D01*
X273723152Y-117796238D02*
X273723152Y-117743857D01*
X273723152Y-117743857D02*
X273696962Y-117691476D01*
X273696962Y-117691476D02*
X273670771Y-117665286D01*
X273670771Y-117665286D02*
X273618390Y-117639095D01*
X273618390Y-117639095D02*
X273513628Y-117612905D01*
X273513628Y-117612905D02*
X273461247Y-117586714D01*
X273461247Y-117586714D02*
X273435057Y-117560524D01*
X273435057Y-117560524D02*
X273408866Y-117508143D01*
X273408866Y-117508143D02*
X273408866Y-117455762D01*
X273408866Y-117455762D02*
X273435057Y-117403381D01*
X273435057Y-117403381D02*
X273461247Y-117377190D01*
X273461247Y-117377190D02*
X273513628Y-117351000D01*
X273513628Y-117351000D02*
X273644581Y-117351000D01*
X273644581Y-117351000D02*
X273723152Y-117377190D01*
X273906486Y-117351000D02*
X274037438Y-117901000D01*
X274037438Y-117901000D02*
X274142200Y-117508143D01*
X274142200Y-117508143D02*
X274246962Y-117901000D01*
X274246962Y-117901000D02*
X274377915Y-117351000D01*
X274535057Y-117351000D02*
X274875533Y-117351000D01*
X274875533Y-117351000D02*
X274692200Y-117560524D01*
X274692200Y-117560524D02*
X274770771Y-117560524D01*
X274770771Y-117560524D02*
X274823152Y-117586714D01*
X274823152Y-117586714D02*
X274849343Y-117612905D01*
X274849343Y-117612905D02*
X274875533Y-117665286D01*
X274875533Y-117665286D02*
X274875533Y-117796238D01*
X274875533Y-117796238D02*
X274849343Y-117848619D01*
X274849343Y-117848619D02*
X274823152Y-117874810D01*
X274823152Y-117874810D02*
X274770771Y-117901000D01*
X274770771Y-117901000D02*
X274613628Y-117901000D01*
X274613628Y-117901000D02*
X274561247Y-117874810D01*
X274561247Y-117874810D02*
X274535057Y-117848619D01*
X215177894Y-120441266D02*
X215177894Y-120257933D01*
X214889799Y-120257933D02*
X215439799Y-120257933D01*
X215439799Y-120257933D02*
X215439799Y-120519838D01*
X214889799Y-121017457D02*
X214889799Y-120703171D01*
X214889799Y-120860314D02*
X215439799Y-120860314D01*
X215439799Y-120860314D02*
X215361228Y-120807933D01*
X215361228Y-120807933D02*
X215308847Y-120755552D01*
X215308847Y-120755552D02*
X215282656Y-120703171D01*
X186757951Y-130181000D02*
X187072237Y-130181000D01*
X186915094Y-130731000D02*
X186915094Y-130181000D01*
X187255571Y-130731000D02*
X187255571Y-130181000D01*
X187255571Y-130181000D02*
X187465095Y-130181000D01*
X187465095Y-130181000D02*
X187517476Y-130207190D01*
X187517476Y-130207190D02*
X187543666Y-130233381D01*
X187543666Y-130233381D02*
X187569857Y-130285762D01*
X187569857Y-130285762D02*
X187569857Y-130364333D01*
X187569857Y-130364333D02*
X187543666Y-130416714D01*
X187543666Y-130416714D02*
X187517476Y-130442905D01*
X187517476Y-130442905D02*
X187465095Y-130469095D01*
X187465095Y-130469095D02*
X187255571Y-130469095D01*
X188041285Y-130364333D02*
X188041285Y-130731000D01*
X187910333Y-130154810D02*
X187779380Y-130547667D01*
X187779380Y-130547667D02*
X188119857Y-130547667D01*
X234485419Y-98034066D02*
X234511610Y-98060257D01*
X234511610Y-98060257D02*
X234537800Y-98138828D01*
X234537800Y-98138828D02*
X234537800Y-98191209D01*
X234537800Y-98191209D02*
X234511610Y-98269781D01*
X234511610Y-98269781D02*
X234459229Y-98322162D01*
X234459229Y-98322162D02*
X234406848Y-98348352D01*
X234406848Y-98348352D02*
X234302086Y-98374543D01*
X234302086Y-98374543D02*
X234223514Y-98374543D01*
X234223514Y-98374543D02*
X234118752Y-98348352D01*
X234118752Y-98348352D02*
X234066371Y-98322162D01*
X234066371Y-98322162D02*
X234013990Y-98269781D01*
X234013990Y-98269781D02*
X233987800Y-98191209D01*
X233987800Y-98191209D02*
X233987800Y-98138828D01*
X233987800Y-98138828D02*
X234013990Y-98060257D01*
X234013990Y-98060257D02*
X234040181Y-98034066D01*
X233987800Y-97850733D02*
X233987800Y-97510257D01*
X233987800Y-97510257D02*
X234197324Y-97693590D01*
X234197324Y-97693590D02*
X234197324Y-97615019D01*
X234197324Y-97615019D02*
X234223514Y-97562638D01*
X234223514Y-97562638D02*
X234249705Y-97536447D01*
X234249705Y-97536447D02*
X234302086Y-97510257D01*
X234302086Y-97510257D02*
X234433038Y-97510257D01*
X234433038Y-97510257D02*
X234485419Y-97536447D01*
X234485419Y-97536447D02*
X234511610Y-97562638D01*
X234511610Y-97562638D02*
X234537800Y-97615019D01*
X234537800Y-97615019D02*
X234537800Y-97772162D01*
X234537800Y-97772162D02*
X234511610Y-97824543D01*
X234511610Y-97824543D02*
X234485419Y-97850733D01*
X165864028Y-140236200D02*
X165680694Y-139974295D01*
X165549742Y-140236200D02*
X165549742Y-139686200D01*
X165549742Y-139686200D02*
X165759266Y-139686200D01*
X165759266Y-139686200D02*
X165811647Y-139712390D01*
X165811647Y-139712390D02*
X165837837Y-139738581D01*
X165837837Y-139738581D02*
X165864028Y-139790962D01*
X165864028Y-139790962D02*
X165864028Y-139869533D01*
X165864028Y-139869533D02*
X165837837Y-139921914D01*
X165837837Y-139921914D02*
X165811647Y-139948105D01*
X165811647Y-139948105D02*
X165759266Y-139974295D01*
X165759266Y-139974295D02*
X165549742Y-139974295D01*
X166073551Y-139738581D02*
X166099742Y-139712390D01*
X166099742Y-139712390D02*
X166152123Y-139686200D01*
X166152123Y-139686200D02*
X166283075Y-139686200D01*
X166283075Y-139686200D02*
X166335456Y-139712390D01*
X166335456Y-139712390D02*
X166361647Y-139738581D01*
X166361647Y-139738581D02*
X166387837Y-139790962D01*
X166387837Y-139790962D02*
X166387837Y-139843343D01*
X166387837Y-139843343D02*
X166361647Y-139921914D01*
X166361647Y-139921914D02*
X166047361Y-140236200D01*
X166047361Y-140236200D02*
X166387837Y-140236200D01*
X166911647Y-140236200D02*
X166597361Y-140236200D01*
X166754504Y-140236200D02*
X166754504Y-139686200D01*
X166754504Y-139686200D02*
X166702123Y-139764771D01*
X166702123Y-139764771D02*
X166649742Y-139817152D01*
X166649742Y-139817152D02*
X166597361Y-139843343D01*
X212959399Y-105002933D02*
X213221304Y-104819599D01*
X212959399Y-104688647D02*
X213509399Y-104688647D01*
X213509399Y-104688647D02*
X213509399Y-104898171D01*
X213509399Y-104898171D02*
X213483209Y-104950552D01*
X213483209Y-104950552D02*
X213457018Y-104976742D01*
X213457018Y-104976742D02*
X213404637Y-105002933D01*
X213404637Y-105002933D02*
X213326066Y-105002933D01*
X213326066Y-105002933D02*
X213273685Y-104976742D01*
X213273685Y-104976742D02*
X213247494Y-104950552D01*
X213247494Y-104950552D02*
X213221304Y-104898171D01*
X213221304Y-104898171D02*
X213221304Y-104688647D01*
X212959399Y-105264837D02*
X212959399Y-105369599D01*
X212959399Y-105369599D02*
X212985590Y-105421980D01*
X212985590Y-105421980D02*
X213011780Y-105448171D01*
X213011780Y-105448171D02*
X213090351Y-105500552D01*
X213090351Y-105500552D02*
X213195113Y-105526742D01*
X213195113Y-105526742D02*
X213404637Y-105526742D01*
X213404637Y-105526742D02*
X213457018Y-105500552D01*
X213457018Y-105500552D02*
X213483209Y-105474361D01*
X213483209Y-105474361D02*
X213509399Y-105421980D01*
X213509399Y-105421980D02*
X213509399Y-105317218D01*
X213509399Y-105317218D02*
X213483209Y-105264837D01*
X213483209Y-105264837D02*
X213457018Y-105238647D01*
X213457018Y-105238647D02*
X213404637Y-105212456D01*
X213404637Y-105212456D02*
X213273685Y-105212456D01*
X213273685Y-105212456D02*
X213221304Y-105238647D01*
X213221304Y-105238647D02*
X213195113Y-105264837D01*
X213195113Y-105264837D02*
X213168923Y-105317218D01*
X213168923Y-105317218D02*
X213168923Y-105421980D01*
X213168923Y-105421980D02*
X213195113Y-105474361D01*
X213195113Y-105474361D02*
X213221304Y-105500552D01*
X213221304Y-105500552D02*
X213273685Y-105526742D01*
X226333600Y-126312171D02*
X226071695Y-126495505D01*
X226333600Y-126626457D02*
X225783600Y-126626457D01*
X225783600Y-126626457D02*
X225783600Y-126416933D01*
X225783600Y-126416933D02*
X225809790Y-126364552D01*
X225809790Y-126364552D02*
X225835981Y-126338362D01*
X225835981Y-126338362D02*
X225888362Y-126312171D01*
X225888362Y-126312171D02*
X225966933Y-126312171D01*
X225966933Y-126312171D02*
X226019314Y-126338362D01*
X226019314Y-126338362D02*
X226045505Y-126364552D01*
X226045505Y-126364552D02*
X226071695Y-126416933D01*
X226071695Y-126416933D02*
X226071695Y-126626457D01*
X225783600Y-126128838D02*
X225783600Y-125788362D01*
X225783600Y-125788362D02*
X225993124Y-125971695D01*
X225993124Y-125971695D02*
X225993124Y-125893124D01*
X225993124Y-125893124D02*
X226019314Y-125840743D01*
X226019314Y-125840743D02*
X226045505Y-125814552D01*
X226045505Y-125814552D02*
X226097886Y-125788362D01*
X226097886Y-125788362D02*
X226228838Y-125788362D01*
X226228838Y-125788362D02*
X226281219Y-125814552D01*
X226281219Y-125814552D02*
X226307410Y-125840743D01*
X226307410Y-125840743D02*
X226333600Y-125893124D01*
X226333600Y-125893124D02*
X226333600Y-126050267D01*
X226333600Y-126050267D02*
X226307410Y-126102648D01*
X226307410Y-126102648D02*
X226281219Y-126128838D01*
X225783600Y-125605028D02*
X225783600Y-125264552D01*
X225783600Y-125264552D02*
X225993124Y-125447885D01*
X225993124Y-125447885D02*
X225993124Y-125369314D01*
X225993124Y-125369314D02*
X226019314Y-125316933D01*
X226019314Y-125316933D02*
X226045505Y-125290742D01*
X226045505Y-125290742D02*
X226097886Y-125264552D01*
X226097886Y-125264552D02*
X226228838Y-125264552D01*
X226228838Y-125264552D02*
X226281219Y-125290742D01*
X226281219Y-125290742D02*
X226307410Y-125316933D01*
X226307410Y-125316933D02*
X226333600Y-125369314D01*
X226333600Y-125369314D02*
X226333600Y-125526457D01*
X226333600Y-125526457D02*
X226307410Y-125578838D01*
X226307410Y-125578838D02*
X226281219Y-125605028D01*
X168830868Y-112155462D02*
X168569323Y-112141755D01*
X168569323Y-112141755D02*
X168598107Y-111592509D01*
X169013839Y-111666749D02*
X169041365Y-111641966D01*
X169041365Y-111641966D02*
X169095044Y-111618552D01*
X169095044Y-111618552D02*
X169225817Y-111625406D01*
X169225817Y-111625406D02*
X169276756Y-111654302D01*
X169276756Y-111654302D02*
X169301540Y-111681827D01*
X169301540Y-111681827D02*
X169324953Y-111735507D01*
X169324953Y-111735507D02*
X169322211Y-111787816D01*
X169322211Y-111787816D02*
X169291945Y-111864909D01*
X169291945Y-111864909D02*
X168961641Y-112162316D01*
X168961641Y-112162316D02*
X169301651Y-112180135D01*
X205361028Y-131718600D02*
X205177694Y-131456695D01*
X205046742Y-131718600D02*
X205046742Y-131168600D01*
X205046742Y-131168600D02*
X205256266Y-131168600D01*
X205256266Y-131168600D02*
X205308647Y-131194790D01*
X205308647Y-131194790D02*
X205334837Y-131220981D01*
X205334837Y-131220981D02*
X205361028Y-131273362D01*
X205361028Y-131273362D02*
X205361028Y-131351933D01*
X205361028Y-131351933D02*
X205334837Y-131404314D01*
X205334837Y-131404314D02*
X205308647Y-131430505D01*
X205308647Y-131430505D02*
X205256266Y-131456695D01*
X205256266Y-131456695D02*
X205046742Y-131456695D01*
X205884837Y-131718600D02*
X205570551Y-131718600D01*
X205727694Y-131718600D02*
X205727694Y-131168600D01*
X205727694Y-131168600D02*
X205675313Y-131247171D01*
X205675313Y-131247171D02*
X205622932Y-131299552D01*
X205622932Y-131299552D02*
X205570551Y-131325743D01*
X206068171Y-131168600D02*
X206434838Y-131168600D01*
X206434838Y-131168600D02*
X206199123Y-131718600D01*
X240766152Y-104272799D02*
X240766152Y-104822799D01*
X240766152Y-104822799D02*
X240635200Y-104822799D01*
X240635200Y-104822799D02*
X240556628Y-104796609D01*
X240556628Y-104796609D02*
X240504247Y-104744228D01*
X240504247Y-104744228D02*
X240478057Y-104691847D01*
X240478057Y-104691847D02*
X240451866Y-104587085D01*
X240451866Y-104587085D02*
X240451866Y-104508513D01*
X240451866Y-104508513D02*
X240478057Y-104403751D01*
X240478057Y-104403751D02*
X240504247Y-104351370D01*
X240504247Y-104351370D02*
X240556628Y-104298990D01*
X240556628Y-104298990D02*
X240635200Y-104272799D01*
X240635200Y-104272799D02*
X240766152Y-104272799D01*
X240268533Y-104822799D02*
X239901866Y-104822799D01*
X239901866Y-104822799D02*
X240137581Y-104272799D01*
X238246200Y-100073971D02*
X237984295Y-100257305D01*
X238246200Y-100388257D02*
X237696200Y-100388257D01*
X237696200Y-100388257D02*
X237696200Y-100178733D01*
X237696200Y-100178733D02*
X237722390Y-100126352D01*
X237722390Y-100126352D02*
X237748581Y-100100162D01*
X237748581Y-100100162D02*
X237800962Y-100073971D01*
X237800962Y-100073971D02*
X237879533Y-100073971D01*
X237879533Y-100073971D02*
X237931914Y-100100162D01*
X237931914Y-100100162D02*
X237958105Y-100126352D01*
X237958105Y-100126352D02*
X237984295Y-100178733D01*
X237984295Y-100178733D02*
X237984295Y-100388257D01*
X237696200Y-99890638D02*
X237696200Y-99550162D01*
X237696200Y-99550162D02*
X237905724Y-99733495D01*
X237905724Y-99733495D02*
X237905724Y-99654924D01*
X237905724Y-99654924D02*
X237931914Y-99602543D01*
X237931914Y-99602543D02*
X237958105Y-99576352D01*
X237958105Y-99576352D02*
X238010486Y-99550162D01*
X238010486Y-99550162D02*
X238141438Y-99550162D01*
X238141438Y-99550162D02*
X238193819Y-99576352D01*
X238193819Y-99576352D02*
X238220010Y-99602543D01*
X238220010Y-99602543D02*
X238246200Y-99654924D01*
X238246200Y-99654924D02*
X238246200Y-99812067D01*
X238246200Y-99812067D02*
X238220010Y-99864448D01*
X238220010Y-99864448D02*
X238193819Y-99890638D01*
X237696200Y-99366828D02*
X237696200Y-99000161D01*
X237696200Y-99000161D02*
X238246200Y-99235876D01*
X205208628Y-126613200D02*
X205025294Y-126351295D01*
X204894342Y-126613200D02*
X204894342Y-126063200D01*
X204894342Y-126063200D02*
X205103866Y-126063200D01*
X205103866Y-126063200D02*
X205156247Y-126089390D01*
X205156247Y-126089390D02*
X205182437Y-126115581D01*
X205182437Y-126115581D02*
X205208628Y-126167962D01*
X205208628Y-126167962D02*
X205208628Y-126246533D01*
X205208628Y-126246533D02*
X205182437Y-126298914D01*
X205182437Y-126298914D02*
X205156247Y-126325105D01*
X205156247Y-126325105D02*
X205103866Y-126351295D01*
X205103866Y-126351295D02*
X204894342Y-126351295D01*
X205732437Y-126613200D02*
X205418151Y-126613200D01*
X205575294Y-126613200D02*
X205575294Y-126063200D01*
X205575294Y-126063200D02*
X205522913Y-126141771D01*
X205522913Y-126141771D02*
X205470532Y-126194152D01*
X205470532Y-126194152D02*
X205418151Y-126220343D01*
X206203866Y-126063200D02*
X206099104Y-126063200D01*
X206099104Y-126063200D02*
X206046723Y-126089390D01*
X206046723Y-126089390D02*
X206020533Y-126115581D01*
X206020533Y-126115581D02*
X205968152Y-126194152D01*
X205968152Y-126194152D02*
X205941961Y-126298914D01*
X205941961Y-126298914D02*
X205941961Y-126508438D01*
X205941961Y-126508438D02*
X205968152Y-126560819D01*
X205968152Y-126560819D02*
X205994342Y-126587010D01*
X205994342Y-126587010D02*
X206046723Y-126613200D01*
X206046723Y-126613200D02*
X206151485Y-126613200D01*
X206151485Y-126613200D02*
X206203866Y-126587010D01*
X206203866Y-126587010D02*
X206230057Y-126560819D01*
X206230057Y-126560819D02*
X206256247Y-126508438D01*
X206256247Y-126508438D02*
X206256247Y-126377486D01*
X206256247Y-126377486D02*
X206230057Y-126325105D01*
X206230057Y-126325105D02*
X206203866Y-126298914D01*
X206203866Y-126298914D02*
X206151485Y-126272724D01*
X206151485Y-126272724D02*
X206046723Y-126272724D01*
X206046723Y-126272724D02*
X205994342Y-126298914D01*
X205994342Y-126298914D02*
X205968152Y-126325105D01*
X205968152Y-126325105D02*
X205941961Y-126377486D01*
X176522652Y-115905726D02*
X176599745Y-115935992D01*
X176599745Y-115935992D02*
X176730518Y-115942846D01*
X176730518Y-115942846D02*
X176784198Y-115919433D01*
X176784198Y-115919433D02*
X176811723Y-115894649D01*
X176811723Y-115894649D02*
X176840619Y-115843710D01*
X176840619Y-115843710D02*
X176843361Y-115791401D01*
X176843361Y-115791401D02*
X176819948Y-115737721D01*
X176819948Y-115737721D02*
X176795164Y-115710196D01*
X176795164Y-115710196D02*
X176744225Y-115681300D01*
X176744225Y-115681300D02*
X176640978Y-115649663D01*
X176640978Y-115649663D02*
X176590039Y-115620767D01*
X176590039Y-115620767D02*
X176565255Y-115593241D01*
X176565255Y-115593241D02*
X176541842Y-115539561D01*
X176541842Y-115539561D02*
X176544584Y-115487252D01*
X176544584Y-115487252D02*
X176573480Y-115436314D01*
X176573480Y-115436314D02*
X176601005Y-115411530D01*
X176601005Y-115411530D02*
X176654685Y-115388117D01*
X176654685Y-115388117D02*
X176785458Y-115394970D01*
X176785458Y-115394970D02*
X176862551Y-115425237D01*
X177047004Y-115408677D02*
X177148992Y-115964777D01*
X177148992Y-115964777D02*
X177274171Y-115577941D01*
X177274171Y-115577941D02*
X177358229Y-115975743D01*
X177358229Y-115975743D02*
X177517786Y-115433350D01*
X177962414Y-115456652D02*
X177857796Y-115451169D01*
X177857796Y-115451169D02*
X177804116Y-115474582D01*
X177804116Y-115474582D02*
X177776590Y-115499366D01*
X177776590Y-115499366D02*
X177720169Y-115575088D01*
X177720169Y-115575088D02*
X177688532Y-115678336D01*
X177688532Y-115678336D02*
X177677566Y-115887573D01*
X177677566Y-115887573D02*
X177700979Y-115941253D01*
X177700979Y-115941253D02*
X177725763Y-115968778D01*
X177725763Y-115968778D02*
X177776702Y-115997674D01*
X177776702Y-115997674D02*
X177881320Y-116003157D01*
X177881320Y-116003157D02*
X177935000Y-115979744D01*
X177935000Y-115979744D02*
X177962525Y-115954960D01*
X177962525Y-115954960D02*
X177991421Y-115904021D01*
X177991421Y-115904021D02*
X177998275Y-115773248D01*
X177998275Y-115773248D02*
X177974861Y-115719568D01*
X177974861Y-115719568D02*
X177950078Y-115692043D01*
X177950078Y-115692043D02*
X177899139Y-115663147D01*
X177899139Y-115663147D02*
X177794521Y-115657664D01*
X177794521Y-115657664D02*
X177740841Y-115681078D01*
X177740841Y-115681078D02*
X177713316Y-115705861D01*
X177713316Y-115705861D02*
X177684420Y-115756800D01*
X216863619Y-128062581D02*
X216811238Y-128036390D01*
X216811238Y-128036390D02*
X216758857Y-127984010D01*
X216758857Y-127984010D02*
X216680285Y-127905438D01*
X216680285Y-127905438D02*
X216627904Y-127879248D01*
X216627904Y-127879248D02*
X216575523Y-127879248D01*
X216601714Y-128010200D02*
X216549333Y-127984010D01*
X216549333Y-127984010D02*
X216496952Y-127931629D01*
X216496952Y-127931629D02*
X216470761Y-127826867D01*
X216470761Y-127826867D02*
X216470761Y-127643533D01*
X216470761Y-127643533D02*
X216496952Y-127538771D01*
X216496952Y-127538771D02*
X216549333Y-127486390D01*
X216549333Y-127486390D02*
X216601714Y-127460200D01*
X216601714Y-127460200D02*
X216706476Y-127460200D01*
X216706476Y-127460200D02*
X216758857Y-127486390D01*
X216758857Y-127486390D02*
X216811238Y-127538771D01*
X216811238Y-127538771D02*
X216837428Y-127643533D01*
X216837428Y-127643533D02*
X216837428Y-127826867D01*
X216837428Y-127826867D02*
X216811238Y-127931629D01*
X216811238Y-127931629D02*
X216758857Y-127984010D01*
X216758857Y-127984010D02*
X216706476Y-128010200D01*
X216706476Y-128010200D02*
X216601714Y-128010200D01*
X217020761Y-127460200D02*
X217387428Y-127460200D01*
X217387428Y-127460200D02*
X217151713Y-128010200D01*
X197207628Y-106640200D02*
X197024294Y-106378295D01*
X196893342Y-106640200D02*
X196893342Y-106090200D01*
X196893342Y-106090200D02*
X197102866Y-106090200D01*
X197102866Y-106090200D02*
X197155247Y-106116390D01*
X197155247Y-106116390D02*
X197181437Y-106142581D01*
X197181437Y-106142581D02*
X197207628Y-106194962D01*
X197207628Y-106194962D02*
X197207628Y-106273533D01*
X197207628Y-106273533D02*
X197181437Y-106325914D01*
X197181437Y-106325914D02*
X197155247Y-106352105D01*
X197155247Y-106352105D02*
X197102866Y-106378295D01*
X197102866Y-106378295D02*
X196893342Y-106378295D01*
X197417151Y-106142581D02*
X197443342Y-106116390D01*
X197443342Y-106116390D02*
X197495723Y-106090200D01*
X197495723Y-106090200D02*
X197626675Y-106090200D01*
X197626675Y-106090200D02*
X197679056Y-106116390D01*
X197679056Y-106116390D02*
X197705247Y-106142581D01*
X197705247Y-106142581D02*
X197731437Y-106194962D01*
X197731437Y-106194962D02*
X197731437Y-106247343D01*
X197731437Y-106247343D02*
X197705247Y-106325914D01*
X197705247Y-106325914D02*
X197390961Y-106640200D01*
X197390961Y-106640200D02*
X197731437Y-106640200D01*
X198071914Y-106090200D02*
X198124295Y-106090200D01*
X198124295Y-106090200D02*
X198176676Y-106116390D01*
X198176676Y-106116390D02*
X198202866Y-106142581D01*
X198202866Y-106142581D02*
X198229057Y-106194962D01*
X198229057Y-106194962D02*
X198255247Y-106299724D01*
X198255247Y-106299724D02*
X198255247Y-106430676D01*
X198255247Y-106430676D02*
X198229057Y-106535438D01*
X198229057Y-106535438D02*
X198202866Y-106587819D01*
X198202866Y-106587819D02*
X198176676Y-106614010D01*
X198176676Y-106614010D02*
X198124295Y-106640200D01*
X198124295Y-106640200D02*
X198071914Y-106640200D01*
X198071914Y-106640200D02*
X198019533Y-106614010D01*
X198019533Y-106614010D02*
X197993342Y-106587819D01*
X197993342Y-106587819D02*
X197967152Y-106535438D01*
X197967152Y-106535438D02*
X197940961Y-106430676D01*
X197940961Y-106430676D02*
X197940961Y-106299724D01*
X197940961Y-106299724D02*
X197967152Y-106194962D01*
X197967152Y-106194962D02*
X197993342Y-106142581D01*
X197993342Y-106142581D02*
X198019533Y-106116390D01*
X198019533Y-106116390D02*
X198071914Y-106090200D01*
X216748133Y-102913419D02*
X216721942Y-102939610D01*
X216721942Y-102939610D02*
X216643371Y-102965800D01*
X216643371Y-102965800D02*
X216590990Y-102965800D01*
X216590990Y-102965800D02*
X216512418Y-102939610D01*
X216512418Y-102939610D02*
X216460037Y-102887229D01*
X216460037Y-102887229D02*
X216433847Y-102834848D01*
X216433847Y-102834848D02*
X216407656Y-102730086D01*
X216407656Y-102730086D02*
X216407656Y-102651514D01*
X216407656Y-102651514D02*
X216433847Y-102546752D01*
X216433847Y-102546752D02*
X216460037Y-102494371D01*
X216460037Y-102494371D02*
X216512418Y-102441990D01*
X216512418Y-102441990D02*
X216590990Y-102415800D01*
X216590990Y-102415800D02*
X216643371Y-102415800D01*
X216643371Y-102415800D02*
X216721942Y-102441990D01*
X216721942Y-102441990D02*
X216748133Y-102468181D01*
X217062418Y-102651514D02*
X217010037Y-102625324D01*
X217010037Y-102625324D02*
X216983847Y-102599133D01*
X216983847Y-102599133D02*
X216957656Y-102546752D01*
X216957656Y-102546752D02*
X216957656Y-102520562D01*
X216957656Y-102520562D02*
X216983847Y-102468181D01*
X216983847Y-102468181D02*
X217010037Y-102441990D01*
X217010037Y-102441990D02*
X217062418Y-102415800D01*
X217062418Y-102415800D02*
X217167180Y-102415800D01*
X217167180Y-102415800D02*
X217219561Y-102441990D01*
X217219561Y-102441990D02*
X217245752Y-102468181D01*
X217245752Y-102468181D02*
X217271942Y-102520562D01*
X217271942Y-102520562D02*
X217271942Y-102546752D01*
X217271942Y-102546752D02*
X217245752Y-102599133D01*
X217245752Y-102599133D02*
X217219561Y-102625324D01*
X217219561Y-102625324D02*
X217167180Y-102651514D01*
X217167180Y-102651514D02*
X217062418Y-102651514D01*
X217062418Y-102651514D02*
X217010037Y-102677705D01*
X217010037Y-102677705D02*
X216983847Y-102703895D01*
X216983847Y-102703895D02*
X216957656Y-102756276D01*
X216957656Y-102756276D02*
X216957656Y-102861038D01*
X216957656Y-102861038D02*
X216983847Y-102913419D01*
X216983847Y-102913419D02*
X217010037Y-102939610D01*
X217010037Y-102939610D02*
X217062418Y-102965800D01*
X217062418Y-102965800D02*
X217167180Y-102965800D01*
X217167180Y-102965800D02*
X217219561Y-102939610D01*
X217219561Y-102939610D02*
X217245752Y-102913419D01*
X217245752Y-102913419D02*
X217271942Y-102861038D01*
X217271942Y-102861038D02*
X217271942Y-102756276D01*
X217271942Y-102756276D02*
X217245752Y-102703895D01*
X217245752Y-102703895D02*
X217219561Y-102677705D01*
X217219561Y-102677705D02*
X217167180Y-102651514D01*
X219245419Y-98575371D02*
X219271610Y-98601562D01*
X219271610Y-98601562D02*
X219297800Y-98680133D01*
X219297800Y-98680133D02*
X219297800Y-98732514D01*
X219297800Y-98732514D02*
X219271610Y-98811086D01*
X219271610Y-98811086D02*
X219219229Y-98863467D01*
X219219229Y-98863467D02*
X219166848Y-98889657D01*
X219166848Y-98889657D02*
X219062086Y-98915848D01*
X219062086Y-98915848D02*
X218983514Y-98915848D01*
X218983514Y-98915848D02*
X218878752Y-98889657D01*
X218878752Y-98889657D02*
X218826371Y-98863467D01*
X218826371Y-98863467D02*
X218773990Y-98811086D01*
X218773990Y-98811086D02*
X218747800Y-98732514D01*
X218747800Y-98732514D02*
X218747800Y-98680133D01*
X218747800Y-98680133D02*
X218773990Y-98601562D01*
X218773990Y-98601562D02*
X218800181Y-98575371D01*
X218800181Y-98365848D02*
X218773990Y-98339657D01*
X218773990Y-98339657D02*
X218747800Y-98287276D01*
X218747800Y-98287276D02*
X218747800Y-98156324D01*
X218747800Y-98156324D02*
X218773990Y-98103943D01*
X218773990Y-98103943D02*
X218800181Y-98077752D01*
X218800181Y-98077752D02*
X218852562Y-98051562D01*
X218852562Y-98051562D02*
X218904943Y-98051562D01*
X218904943Y-98051562D02*
X218983514Y-98077752D01*
X218983514Y-98077752D02*
X219297800Y-98392038D01*
X219297800Y-98392038D02*
X219297800Y-98051562D01*
X219297800Y-97527752D02*
X219297800Y-97842038D01*
X219297800Y-97684895D02*
X218747800Y-97684895D01*
X218747800Y-97684895D02*
X218826371Y-97737276D01*
X218826371Y-97737276D02*
X218878752Y-97789657D01*
X218878752Y-97789657D02*
X218904943Y-97842038D01*
X187906268Y-111241062D02*
X187644723Y-111227355D01*
X187644723Y-111227355D02*
X187673507Y-110678109D01*
X188377051Y-111265735D02*
X188063196Y-111249287D01*
X188220123Y-111257511D02*
X188248908Y-110708265D01*
X188248908Y-110708265D02*
X188192487Y-110783987D01*
X188192487Y-110783987D02*
X188137436Y-110833555D01*
X188137436Y-110833555D02*
X188083756Y-110856968D01*
X224359780Y-127105818D02*
X224412161Y-127132009D01*
X224412161Y-127132009D02*
X224464542Y-127184390D01*
X224464542Y-127184390D02*
X224543114Y-127262961D01*
X224543114Y-127262961D02*
X224595495Y-127289151D01*
X224595495Y-127289151D02*
X224647876Y-127289151D01*
X224621685Y-127158199D02*
X224674066Y-127184390D01*
X224674066Y-127184390D02*
X224726447Y-127236770D01*
X224726447Y-127236770D02*
X224752638Y-127341532D01*
X224752638Y-127341532D02*
X224752638Y-127524866D01*
X224752638Y-127524866D02*
X224726447Y-127629628D01*
X224726447Y-127629628D02*
X224674066Y-127682009D01*
X224674066Y-127682009D02*
X224621685Y-127708199D01*
X224621685Y-127708199D02*
X224516923Y-127708199D01*
X224516923Y-127708199D02*
X224464542Y-127682009D01*
X224464542Y-127682009D02*
X224412161Y-127629628D01*
X224412161Y-127629628D02*
X224385971Y-127524866D01*
X224385971Y-127524866D02*
X224385971Y-127341532D01*
X224385971Y-127341532D02*
X224412161Y-127236770D01*
X224412161Y-127236770D02*
X224464542Y-127184390D01*
X224464542Y-127184390D02*
X224516923Y-127158199D01*
X224516923Y-127158199D02*
X224621685Y-127158199D01*
X223888352Y-127708199D02*
X224150257Y-127708199D01*
X224150257Y-127708199D02*
X224176448Y-127446294D01*
X224176448Y-127446294D02*
X224150257Y-127472485D01*
X224150257Y-127472485D02*
X224097876Y-127498675D01*
X224097876Y-127498675D02*
X223966924Y-127498675D01*
X223966924Y-127498675D02*
X223914543Y-127472485D01*
X223914543Y-127472485D02*
X223888352Y-127446294D01*
X223888352Y-127446294D02*
X223862162Y-127393913D01*
X223862162Y-127393913D02*
X223862162Y-127262961D01*
X223862162Y-127262961D02*
X223888352Y-127210580D01*
X223888352Y-127210580D02*
X223914543Y-127184390D01*
X223914543Y-127184390D02*
X223966924Y-127158199D01*
X223966924Y-127158199D02*
X224097876Y-127158199D01*
X224097876Y-127158199D02*
X224150257Y-127184390D01*
X224150257Y-127184390D02*
X224176448Y-127210580D01*
X221642428Y-100781400D02*
X221459094Y-100519495D01*
X221328142Y-100781400D02*
X221328142Y-100231400D01*
X221328142Y-100231400D02*
X221537666Y-100231400D01*
X221537666Y-100231400D02*
X221590047Y-100257590D01*
X221590047Y-100257590D02*
X221616237Y-100283781D01*
X221616237Y-100283781D02*
X221642428Y-100336162D01*
X221642428Y-100336162D02*
X221642428Y-100414733D01*
X221642428Y-100414733D02*
X221616237Y-100467114D01*
X221616237Y-100467114D02*
X221590047Y-100493305D01*
X221590047Y-100493305D02*
X221537666Y-100519495D01*
X221537666Y-100519495D02*
X221328142Y-100519495D01*
X221851951Y-100283781D02*
X221878142Y-100257590D01*
X221878142Y-100257590D02*
X221930523Y-100231400D01*
X221930523Y-100231400D02*
X222061475Y-100231400D01*
X222061475Y-100231400D02*
X222113856Y-100257590D01*
X222113856Y-100257590D02*
X222140047Y-100283781D01*
X222140047Y-100283781D02*
X222166237Y-100336162D01*
X222166237Y-100336162D02*
X222166237Y-100388543D01*
X222166237Y-100388543D02*
X222140047Y-100467114D01*
X222140047Y-100467114D02*
X221825761Y-100781400D01*
X221825761Y-100781400D02*
X222166237Y-100781400D01*
X222663857Y-100231400D02*
X222401952Y-100231400D01*
X222401952Y-100231400D02*
X222375761Y-100493305D01*
X222375761Y-100493305D02*
X222401952Y-100467114D01*
X222401952Y-100467114D02*
X222454333Y-100440924D01*
X222454333Y-100440924D02*
X222585285Y-100440924D01*
X222585285Y-100440924D02*
X222637666Y-100467114D01*
X222637666Y-100467114D02*
X222663857Y-100493305D01*
X222663857Y-100493305D02*
X222690047Y-100545686D01*
X222690047Y-100545686D02*
X222690047Y-100676638D01*
X222690047Y-100676638D02*
X222663857Y-100729019D01*
X222663857Y-100729019D02*
X222637666Y-100755210D01*
X222637666Y-100755210D02*
X222585285Y-100781400D01*
X222585285Y-100781400D02*
X222454333Y-100781400D01*
X222454333Y-100781400D02*
X222401952Y-100755210D01*
X222401952Y-100755210D02*
X222375761Y-100729019D01*
X218110247Y-121203000D02*
X218110247Y-120653000D01*
X218110247Y-120653000D02*
X218241199Y-120653000D01*
X218241199Y-120653000D02*
X218319771Y-120679190D01*
X218319771Y-120679190D02*
X218372152Y-120731571D01*
X218372152Y-120731571D02*
X218398342Y-120783952D01*
X218398342Y-120783952D02*
X218424533Y-120888714D01*
X218424533Y-120888714D02*
X218424533Y-120967286D01*
X218424533Y-120967286D02*
X218398342Y-121072048D01*
X218398342Y-121072048D02*
X218372152Y-121124429D01*
X218372152Y-121124429D02*
X218319771Y-121176810D01*
X218319771Y-121176810D02*
X218241199Y-121203000D01*
X218241199Y-121203000D02*
X218110247Y-121203000D01*
X218607866Y-120653000D02*
X218948342Y-120653000D01*
X218948342Y-120653000D02*
X218765009Y-120862524D01*
X218765009Y-120862524D02*
X218843580Y-120862524D01*
X218843580Y-120862524D02*
X218895961Y-120888714D01*
X218895961Y-120888714D02*
X218922152Y-120914905D01*
X218922152Y-120914905D02*
X218948342Y-120967286D01*
X218948342Y-120967286D02*
X218948342Y-121098238D01*
X218948342Y-121098238D02*
X218922152Y-121150619D01*
X218922152Y-121150619D02*
X218895961Y-121176810D01*
X218895961Y-121176810D02*
X218843580Y-121203000D01*
X218843580Y-121203000D02*
X218686437Y-121203000D01*
X218686437Y-121203000D02*
X218634056Y-121176810D01*
X218634056Y-121176810D02*
X218607866Y-121150619D01*
X229620847Y-115471400D02*
X229620847Y-115916638D01*
X229620847Y-115916638D02*
X229647037Y-115969019D01*
X229647037Y-115969019D02*
X229673228Y-115995210D01*
X229673228Y-115995210D02*
X229725609Y-116021400D01*
X229725609Y-116021400D02*
X229830371Y-116021400D01*
X229830371Y-116021400D02*
X229882752Y-115995210D01*
X229882752Y-115995210D02*
X229908942Y-115969019D01*
X229908942Y-115969019D02*
X229935133Y-115916638D01*
X229935133Y-115916638D02*
X229935133Y-115471400D01*
X230485132Y-116021400D02*
X230170846Y-116021400D01*
X230327989Y-116021400D02*
X230327989Y-115471400D01*
X230327989Y-115471400D02*
X230275608Y-115549971D01*
X230275608Y-115549971D02*
X230223227Y-115602352D01*
X230223227Y-115602352D02*
X230170846Y-115628543D01*
X231008942Y-116021400D02*
X230694656Y-116021400D01*
X230851799Y-116021400D02*
X230851799Y-115471400D01*
X230851799Y-115471400D02*
X230799418Y-115549971D01*
X230799418Y-115549971D02*
X230747037Y-115602352D01*
X230747037Y-115602352D02*
X230694656Y-115628543D01*
X226255819Y-102275866D02*
X226282010Y-102302057D01*
X226282010Y-102302057D02*
X226308200Y-102380628D01*
X226308200Y-102380628D02*
X226308200Y-102433009D01*
X226308200Y-102433009D02*
X226282010Y-102511581D01*
X226282010Y-102511581D02*
X226229629Y-102563962D01*
X226229629Y-102563962D02*
X226177248Y-102590152D01*
X226177248Y-102590152D02*
X226072486Y-102616343D01*
X226072486Y-102616343D02*
X225993914Y-102616343D01*
X225993914Y-102616343D02*
X225889152Y-102590152D01*
X225889152Y-102590152D02*
X225836771Y-102563962D01*
X225836771Y-102563962D02*
X225784390Y-102511581D01*
X225784390Y-102511581D02*
X225758200Y-102433009D01*
X225758200Y-102433009D02*
X225758200Y-102380628D01*
X225758200Y-102380628D02*
X225784390Y-102302057D01*
X225784390Y-102302057D02*
X225810581Y-102275866D01*
X225758200Y-101778247D02*
X225758200Y-102040152D01*
X225758200Y-102040152D02*
X226020105Y-102066343D01*
X226020105Y-102066343D02*
X225993914Y-102040152D01*
X225993914Y-102040152D02*
X225967724Y-101987771D01*
X225967724Y-101987771D02*
X225967724Y-101856819D01*
X225967724Y-101856819D02*
X225993914Y-101804438D01*
X225993914Y-101804438D02*
X226020105Y-101778247D01*
X226020105Y-101778247D02*
X226072486Y-101752057D01*
X226072486Y-101752057D02*
X226203438Y-101752057D01*
X226203438Y-101752057D02*
X226255819Y-101778247D01*
X226255819Y-101778247D02*
X226282010Y-101804438D01*
X226282010Y-101804438D02*
X226308200Y-101856819D01*
X226308200Y-101856819D02*
X226308200Y-101987771D01*
X226308200Y-101987771D02*
X226282010Y-102040152D01*
X226282010Y-102040152D02*
X226255819Y-102066343D01*
X188073600Y-98905571D02*
X187811695Y-99088905D01*
X188073600Y-99219857D02*
X187523600Y-99219857D01*
X187523600Y-99219857D02*
X187523600Y-99010333D01*
X187523600Y-99010333D02*
X187549790Y-98957952D01*
X187549790Y-98957952D02*
X187575981Y-98931762D01*
X187575981Y-98931762D02*
X187628362Y-98905571D01*
X187628362Y-98905571D02*
X187706933Y-98905571D01*
X187706933Y-98905571D02*
X187759314Y-98931762D01*
X187759314Y-98931762D02*
X187785505Y-98957952D01*
X187785505Y-98957952D02*
X187811695Y-99010333D01*
X187811695Y-99010333D02*
X187811695Y-99219857D01*
X187523600Y-98722238D02*
X187523600Y-98381762D01*
X187523600Y-98381762D02*
X187733124Y-98565095D01*
X187733124Y-98565095D02*
X187733124Y-98486524D01*
X187733124Y-98486524D02*
X187759314Y-98434143D01*
X187759314Y-98434143D02*
X187785505Y-98407952D01*
X187785505Y-98407952D02*
X187837886Y-98381762D01*
X187837886Y-98381762D02*
X187968838Y-98381762D01*
X187968838Y-98381762D02*
X188021219Y-98407952D01*
X188021219Y-98407952D02*
X188047410Y-98434143D01*
X188047410Y-98434143D02*
X188073600Y-98486524D01*
X188073600Y-98486524D02*
X188073600Y-98643667D01*
X188073600Y-98643667D02*
X188047410Y-98696048D01*
X188047410Y-98696048D02*
X188021219Y-98722238D01*
X187523600Y-97910333D02*
X187523600Y-98015095D01*
X187523600Y-98015095D02*
X187549790Y-98067476D01*
X187549790Y-98067476D02*
X187575981Y-98093666D01*
X187575981Y-98093666D02*
X187654552Y-98146047D01*
X187654552Y-98146047D02*
X187759314Y-98172238D01*
X187759314Y-98172238D02*
X187968838Y-98172238D01*
X187968838Y-98172238D02*
X188021219Y-98146047D01*
X188021219Y-98146047D02*
X188047410Y-98119857D01*
X188047410Y-98119857D02*
X188073600Y-98067476D01*
X188073600Y-98067476D02*
X188073600Y-97962714D01*
X188073600Y-97962714D02*
X188047410Y-97910333D01*
X188047410Y-97910333D02*
X188021219Y-97884142D01*
X188021219Y-97884142D02*
X187968838Y-97857952D01*
X187968838Y-97857952D02*
X187837886Y-97857952D01*
X187837886Y-97857952D02*
X187785505Y-97884142D01*
X187785505Y-97884142D02*
X187759314Y-97910333D01*
X187759314Y-97910333D02*
X187733124Y-97962714D01*
X187733124Y-97962714D02*
X187733124Y-98067476D01*
X187733124Y-98067476D02*
X187759314Y-98119857D01*
X187759314Y-98119857D02*
X187785505Y-98146047D01*
X187785505Y-98146047D02*
X187837886Y-98172238D01*
X228119428Y-116223019D02*
X228093237Y-116249210D01*
X228093237Y-116249210D02*
X228014666Y-116275400D01*
X228014666Y-116275400D02*
X227962285Y-116275400D01*
X227962285Y-116275400D02*
X227883713Y-116249210D01*
X227883713Y-116249210D02*
X227831332Y-116196829D01*
X227831332Y-116196829D02*
X227805142Y-116144448D01*
X227805142Y-116144448D02*
X227778951Y-116039686D01*
X227778951Y-116039686D02*
X227778951Y-115961114D01*
X227778951Y-115961114D02*
X227805142Y-115856352D01*
X227805142Y-115856352D02*
X227831332Y-115803971D01*
X227831332Y-115803971D02*
X227883713Y-115751590D01*
X227883713Y-115751590D02*
X227962285Y-115725400D01*
X227962285Y-115725400D02*
X228014666Y-115725400D01*
X228014666Y-115725400D02*
X228093237Y-115751590D01*
X228093237Y-115751590D02*
X228119428Y-115777781D01*
X228328951Y-115777781D02*
X228355142Y-115751590D01*
X228355142Y-115751590D02*
X228407523Y-115725400D01*
X228407523Y-115725400D02*
X228538475Y-115725400D01*
X228538475Y-115725400D02*
X228590856Y-115751590D01*
X228590856Y-115751590D02*
X228617047Y-115777781D01*
X228617047Y-115777781D02*
X228643237Y-115830162D01*
X228643237Y-115830162D02*
X228643237Y-115882543D01*
X228643237Y-115882543D02*
X228617047Y-115961114D01*
X228617047Y-115961114D02*
X228302761Y-116275400D01*
X228302761Y-116275400D02*
X228643237Y-116275400D01*
X228826571Y-115725400D02*
X229167047Y-115725400D01*
X229167047Y-115725400D02*
X228983714Y-115934924D01*
X228983714Y-115934924D02*
X229062285Y-115934924D01*
X229062285Y-115934924D02*
X229114666Y-115961114D01*
X229114666Y-115961114D02*
X229140857Y-115987305D01*
X229140857Y-115987305D02*
X229167047Y-116039686D01*
X229167047Y-116039686D02*
X229167047Y-116170638D01*
X229167047Y-116170638D02*
X229140857Y-116223019D01*
X229140857Y-116223019D02*
X229114666Y-116249210D01*
X229114666Y-116249210D02*
X229062285Y-116275400D01*
X229062285Y-116275400D02*
X228905142Y-116275400D01*
X228905142Y-116275400D02*
X228852761Y-116249210D01*
X228852761Y-116249210D02*
X228826571Y-116223019D01*
X191264028Y-107434600D02*
X191080694Y-107172695D01*
X190949742Y-107434600D02*
X190949742Y-106884600D01*
X190949742Y-106884600D02*
X191159266Y-106884600D01*
X191159266Y-106884600D02*
X191211647Y-106910790D01*
X191211647Y-106910790D02*
X191237837Y-106936981D01*
X191237837Y-106936981D02*
X191264028Y-106989362D01*
X191264028Y-106989362D02*
X191264028Y-107067933D01*
X191264028Y-107067933D02*
X191237837Y-107120314D01*
X191237837Y-107120314D02*
X191211647Y-107146505D01*
X191211647Y-107146505D02*
X191159266Y-107172695D01*
X191159266Y-107172695D02*
X190949742Y-107172695D01*
X191787837Y-107434600D02*
X191473551Y-107434600D01*
X191630694Y-107434600D02*
X191630694Y-106884600D01*
X191630694Y-106884600D02*
X191578313Y-106963171D01*
X191578313Y-106963171D02*
X191525932Y-107015552D01*
X191525932Y-107015552D02*
X191473551Y-107041743D01*
X192311647Y-107434600D02*
X191997361Y-107434600D01*
X192154504Y-107434600D02*
X192154504Y-106884600D01*
X192154504Y-106884600D02*
X192102123Y-106963171D01*
X192102123Y-106963171D02*
X192049742Y-107015552D01*
X192049742Y-107015552D02*
X191997361Y-107041743D01*
X192483000Y-98643666D02*
X192221095Y-98827000D01*
X192483000Y-98957952D02*
X191933000Y-98957952D01*
X191933000Y-98957952D02*
X191933000Y-98748428D01*
X191933000Y-98748428D02*
X191959190Y-98696047D01*
X191959190Y-98696047D02*
X191985381Y-98669857D01*
X191985381Y-98669857D02*
X192037762Y-98643666D01*
X192037762Y-98643666D02*
X192116333Y-98643666D01*
X192116333Y-98643666D02*
X192168714Y-98669857D01*
X192168714Y-98669857D02*
X192194905Y-98696047D01*
X192194905Y-98696047D02*
X192221095Y-98748428D01*
X192221095Y-98748428D02*
X192221095Y-98957952D01*
X192116333Y-98172238D02*
X192483000Y-98172238D01*
X191906810Y-98303190D02*
X192299667Y-98434143D01*
X192299667Y-98434143D02*
X192299667Y-98093666D01*
X209417200Y-113688371D02*
X209155295Y-113871705D01*
X209417200Y-114002657D02*
X208867200Y-114002657D01*
X208867200Y-114002657D02*
X208867200Y-113793133D01*
X208867200Y-113793133D02*
X208893390Y-113740752D01*
X208893390Y-113740752D02*
X208919581Y-113714562D01*
X208919581Y-113714562D02*
X208971962Y-113688371D01*
X208971962Y-113688371D02*
X209050533Y-113688371D01*
X209050533Y-113688371D02*
X209102914Y-113714562D01*
X209102914Y-113714562D02*
X209129105Y-113740752D01*
X209129105Y-113740752D02*
X209155295Y-113793133D01*
X209155295Y-113793133D02*
X209155295Y-114002657D01*
X209417200Y-113164562D02*
X209417200Y-113478848D01*
X209417200Y-113321705D02*
X208867200Y-113321705D01*
X208867200Y-113321705D02*
X208945771Y-113374086D01*
X208945771Y-113374086D02*
X208998152Y-113426467D01*
X208998152Y-113426467D02*
X209024343Y-113478848D01*
X209102914Y-112850276D02*
X209076724Y-112902657D01*
X209076724Y-112902657D02*
X209050533Y-112928847D01*
X209050533Y-112928847D02*
X208998152Y-112955038D01*
X208998152Y-112955038D02*
X208971962Y-112955038D01*
X208971962Y-112955038D02*
X208919581Y-112928847D01*
X208919581Y-112928847D02*
X208893390Y-112902657D01*
X208893390Y-112902657D02*
X208867200Y-112850276D01*
X208867200Y-112850276D02*
X208867200Y-112745514D01*
X208867200Y-112745514D02*
X208893390Y-112693133D01*
X208893390Y-112693133D02*
X208919581Y-112666942D01*
X208919581Y-112666942D02*
X208971962Y-112640752D01*
X208971962Y-112640752D02*
X208998152Y-112640752D01*
X208998152Y-112640752D02*
X209050533Y-112666942D01*
X209050533Y-112666942D02*
X209076724Y-112693133D01*
X209076724Y-112693133D02*
X209102914Y-112745514D01*
X209102914Y-112745514D02*
X209102914Y-112850276D01*
X209102914Y-112850276D02*
X209129105Y-112902657D01*
X209129105Y-112902657D02*
X209155295Y-112928847D01*
X209155295Y-112928847D02*
X209207676Y-112955038D01*
X209207676Y-112955038D02*
X209312438Y-112955038D01*
X209312438Y-112955038D02*
X209364819Y-112928847D01*
X209364819Y-112928847D02*
X209391010Y-112902657D01*
X209391010Y-112902657D02*
X209417200Y-112850276D01*
X209417200Y-112850276D02*
X209417200Y-112745514D01*
X209417200Y-112745514D02*
X209391010Y-112693133D01*
X209391010Y-112693133D02*
X209364819Y-112666942D01*
X209364819Y-112666942D02*
X209312438Y-112640752D01*
X209312438Y-112640752D02*
X209207676Y-112640752D01*
X209207676Y-112640752D02*
X209155295Y-112666942D01*
X209155295Y-112666942D02*
X209129105Y-112693133D01*
X209129105Y-112693133D02*
X209102914Y-112745514D01*
X215589400Y-94079571D02*
X215327495Y-94262905D01*
X215589400Y-94393857D02*
X215039400Y-94393857D01*
X215039400Y-94393857D02*
X215039400Y-94184333D01*
X215039400Y-94184333D02*
X215065590Y-94131952D01*
X215065590Y-94131952D02*
X215091781Y-94105762D01*
X215091781Y-94105762D02*
X215144162Y-94079571D01*
X215144162Y-94079571D02*
X215222733Y-94079571D01*
X215222733Y-94079571D02*
X215275114Y-94105762D01*
X215275114Y-94105762D02*
X215301305Y-94131952D01*
X215301305Y-94131952D02*
X215327495Y-94184333D01*
X215327495Y-94184333D02*
X215327495Y-94393857D01*
X215091781Y-93870048D02*
X215065590Y-93843857D01*
X215065590Y-93843857D02*
X215039400Y-93791476D01*
X215039400Y-93791476D02*
X215039400Y-93660524D01*
X215039400Y-93660524D02*
X215065590Y-93608143D01*
X215065590Y-93608143D02*
X215091781Y-93581952D01*
X215091781Y-93581952D02*
X215144162Y-93555762D01*
X215144162Y-93555762D02*
X215196543Y-93555762D01*
X215196543Y-93555762D02*
X215275114Y-93581952D01*
X215275114Y-93581952D02*
X215589400Y-93896238D01*
X215589400Y-93896238D02*
X215589400Y-93555762D01*
X215589400Y-93293857D02*
X215589400Y-93189095D01*
X215589400Y-93189095D02*
X215563210Y-93136714D01*
X215563210Y-93136714D02*
X215537019Y-93110523D01*
X215537019Y-93110523D02*
X215458448Y-93058142D01*
X215458448Y-93058142D02*
X215353686Y-93031952D01*
X215353686Y-93031952D02*
X215144162Y-93031952D01*
X215144162Y-93031952D02*
X215091781Y-93058142D01*
X215091781Y-93058142D02*
X215065590Y-93084333D01*
X215065590Y-93084333D02*
X215039400Y-93136714D01*
X215039400Y-93136714D02*
X215039400Y-93241476D01*
X215039400Y-93241476D02*
X215065590Y-93293857D01*
X215065590Y-93293857D02*
X215091781Y-93320047D01*
X215091781Y-93320047D02*
X215144162Y-93346238D01*
X215144162Y-93346238D02*
X215275114Y-93346238D01*
X215275114Y-93346238D02*
X215327495Y-93320047D01*
X215327495Y-93320047D02*
X215353686Y-93293857D01*
X215353686Y-93293857D02*
X215379876Y-93241476D01*
X215379876Y-93241476D02*
X215379876Y-93136714D01*
X215379876Y-93136714D02*
X215353686Y-93084333D01*
X215353686Y-93084333D02*
X215327495Y-93058142D01*
X215327495Y-93058142D02*
X215275114Y-93031952D01*
X168128180Y-103646361D02*
X168209320Y-103629757D01*
X168209320Y-103629757D02*
X168322728Y-103564281D01*
X168322728Y-103564281D02*
X168354996Y-103515408D01*
X168354996Y-103515408D02*
X168364583Y-103479632D01*
X168364583Y-103479632D02*
X168361074Y-103421173D01*
X168361074Y-103421173D02*
X168334884Y-103375810D01*
X168334884Y-103375810D02*
X168286011Y-103343542D01*
X168286011Y-103343542D02*
X168250235Y-103333956D01*
X168250235Y-103333956D02*
X168191776Y-103337464D01*
X168191776Y-103337464D02*
X168087954Y-103367164D01*
X168087954Y-103367164D02*
X168029496Y-103370673D01*
X168029496Y-103370673D02*
X167993719Y-103361086D01*
X167993719Y-103361086D02*
X167944847Y-103328818D01*
X167944847Y-103328818D02*
X167918656Y-103283455D01*
X167918656Y-103283455D02*
X167915148Y-103224996D01*
X167915148Y-103224996D02*
X167924734Y-103189220D01*
X167924734Y-103189220D02*
X167957002Y-103140348D01*
X167957002Y-103140348D02*
X168070410Y-103074871D01*
X168070410Y-103074871D02*
X168151550Y-103058267D01*
X168297227Y-102943919D02*
X168685635Y-103354757D01*
X168685635Y-103354757D02*
X168579933Y-102962151D01*
X168579933Y-102962151D02*
X168867088Y-103249995D01*
X168867088Y-103249995D02*
X168705496Y-102708204D01*
X169074731Y-103190596D02*
X169437637Y-102981072D01*
X169524855Y-102870233D02*
X169249855Y-102393919D01*
X169249855Y-102393919D02*
X169431308Y-102289157D01*
X169431308Y-102289157D02*
X169489766Y-102285648D01*
X169489766Y-102285648D02*
X169525543Y-102295234D01*
X169525543Y-102295234D02*
X169574415Y-102327502D01*
X169574415Y-102327502D02*
X169613701Y-102395547D01*
X169613701Y-102395547D02*
X169617210Y-102454006D01*
X169617210Y-102454006D02*
X169607623Y-102489783D01*
X169607623Y-102489783D02*
X169575355Y-102538655D01*
X169575355Y-102538655D02*
X169393902Y-102643417D01*
X170021970Y-102159833D02*
X170205303Y-102477376D01*
X169817835Y-102277690D02*
X169961883Y-102527188D01*
X169961883Y-102527188D02*
X170010755Y-102559456D01*
X170010755Y-102559456D02*
X170069213Y-102555947D01*
X170069213Y-102555947D02*
X170137258Y-102516661D01*
X170137258Y-102516661D02*
X170169526Y-102467789D01*
X170169526Y-102467789D02*
X170179113Y-102432012D01*
X170396342Y-102336837D02*
X170454801Y-102333328D01*
X170454801Y-102333328D02*
X170545527Y-102280947D01*
X170545527Y-102280947D02*
X170577795Y-102232075D01*
X170577795Y-102232075D02*
X170574286Y-102173616D01*
X170574286Y-102173616D02*
X170561191Y-102150935D01*
X170561191Y-102150935D02*
X170512319Y-102118667D01*
X170512319Y-102118667D02*
X170453861Y-102122176D01*
X170453861Y-102122176D02*
X170385816Y-102161461D01*
X170385816Y-102161461D02*
X170327357Y-102164970D01*
X170327357Y-102164970D02*
X170278485Y-102132702D01*
X170278485Y-102132702D02*
X170265390Y-102110021D01*
X170265390Y-102110021D02*
X170261881Y-102051562D01*
X170261881Y-102051562D02*
X170294149Y-102002690D01*
X170294149Y-102002690D02*
X170362194Y-101963404D01*
X170362194Y-101963404D02*
X170420652Y-101959896D01*
X170817707Y-102123804D02*
X170542707Y-101647490D01*
X171021841Y-102005947D02*
X170877794Y-101756449D01*
X170877794Y-101756449D02*
X170828922Y-101724181D01*
X170828922Y-101724181D02*
X170770463Y-101727690D01*
X170770463Y-101727690D02*
X170702418Y-101766976D01*
X170702418Y-101766976D02*
X170670150Y-101815848D01*
X170670150Y-101815848D02*
X170660564Y-101851625D01*
X214970133Y-107637819D02*
X214943942Y-107664010D01*
X214943942Y-107664010D02*
X214865371Y-107690200D01*
X214865371Y-107690200D02*
X214812990Y-107690200D01*
X214812990Y-107690200D02*
X214734418Y-107664010D01*
X214734418Y-107664010D02*
X214682037Y-107611629D01*
X214682037Y-107611629D02*
X214655847Y-107559248D01*
X214655847Y-107559248D02*
X214629656Y-107454486D01*
X214629656Y-107454486D02*
X214629656Y-107375914D01*
X214629656Y-107375914D02*
X214655847Y-107271152D01*
X214655847Y-107271152D02*
X214682037Y-107218771D01*
X214682037Y-107218771D02*
X214734418Y-107166390D01*
X214734418Y-107166390D02*
X214812990Y-107140200D01*
X214812990Y-107140200D02*
X214865371Y-107140200D01*
X214865371Y-107140200D02*
X214943942Y-107166390D01*
X214943942Y-107166390D02*
X214970133Y-107192581D01*
X215232037Y-107690200D02*
X215336799Y-107690200D01*
X215336799Y-107690200D02*
X215389180Y-107664010D01*
X215389180Y-107664010D02*
X215415371Y-107637819D01*
X215415371Y-107637819D02*
X215467752Y-107559248D01*
X215467752Y-107559248D02*
X215493942Y-107454486D01*
X215493942Y-107454486D02*
X215493942Y-107244962D01*
X215493942Y-107244962D02*
X215467752Y-107192581D01*
X215467752Y-107192581D02*
X215441561Y-107166390D01*
X215441561Y-107166390D02*
X215389180Y-107140200D01*
X215389180Y-107140200D02*
X215284418Y-107140200D01*
X215284418Y-107140200D02*
X215232037Y-107166390D01*
X215232037Y-107166390D02*
X215205847Y-107192581D01*
X215205847Y-107192581D02*
X215179656Y-107244962D01*
X215179656Y-107244962D02*
X215179656Y-107375914D01*
X215179656Y-107375914D02*
X215205847Y-107428295D01*
X215205847Y-107428295D02*
X215232037Y-107454486D01*
X215232037Y-107454486D02*
X215284418Y-107480676D01*
X215284418Y-107480676D02*
X215389180Y-107480676D01*
X215389180Y-107480676D02*
X215441561Y-107454486D01*
X215441561Y-107454486D02*
X215467752Y-107428295D01*
X215467752Y-107428295D02*
X215493942Y-107375914D01*
X269024628Y-103465028D02*
X268969678Y-103403061D01*
X268969678Y-103403061D02*
X268856270Y-103337585D01*
X268856270Y-103337585D02*
X268797812Y-103334076D01*
X268797812Y-103334076D02*
X268762035Y-103343662D01*
X268762035Y-103343662D02*
X268713163Y-103375930D01*
X268713163Y-103375930D02*
X268686972Y-103421293D01*
X268686972Y-103421293D02*
X268683463Y-103479752D01*
X268683463Y-103479752D02*
X268693050Y-103515529D01*
X268693050Y-103515529D02*
X268725318Y-103564401D01*
X268725318Y-103564401D02*
X268802949Y-103639463D01*
X268802949Y-103639463D02*
X268835217Y-103688336D01*
X268835217Y-103688336D02*
X268844803Y-103724112D01*
X268844803Y-103724112D02*
X268841294Y-103782571D01*
X268841294Y-103782571D02*
X268815104Y-103827934D01*
X268815104Y-103827934D02*
X268766232Y-103860202D01*
X268766232Y-103860202D02*
X268730455Y-103869789D01*
X268730455Y-103869789D02*
X268671996Y-103866280D01*
X268671996Y-103866280D02*
X268558588Y-103800803D01*
X268558588Y-103800803D02*
X268503639Y-103738836D01*
X268331772Y-103669851D02*
X268493364Y-103128061D01*
X268493364Y-103128061D02*
X268206209Y-103415904D01*
X268206209Y-103415904D02*
X268311911Y-103023299D01*
X268311911Y-103023299D02*
X267923503Y-103434137D01*
X268156649Y-102873174D02*
X267793743Y-102663650D01*
X267654144Y-102643537D02*
X267379144Y-103119851D01*
X267379144Y-103119851D02*
X267197691Y-103015089D01*
X267197691Y-103015089D02*
X267165423Y-102966217D01*
X267165423Y-102966217D02*
X267155837Y-102930440D01*
X267155837Y-102930440D02*
X267159345Y-102871982D01*
X267159345Y-102871982D02*
X267198631Y-102803937D01*
X267198631Y-102803937D02*
X267247503Y-102771669D01*
X267247503Y-102771669D02*
X267283280Y-102762082D01*
X267283280Y-102762082D02*
X267341739Y-102765591D01*
X267341739Y-102765591D02*
X267523192Y-102870353D01*
X266790362Y-102568222D02*
X266973695Y-102250680D01*
X266994497Y-102686080D02*
X267138544Y-102436582D01*
X267138544Y-102436582D02*
X267142053Y-102378123D01*
X267142053Y-102378123D02*
X267109785Y-102329251D01*
X267109785Y-102329251D02*
X267041740Y-102289965D01*
X267041740Y-102289965D02*
X266983282Y-102286457D01*
X266983282Y-102286457D02*
X266947505Y-102296043D01*
X266756466Y-102155504D02*
X266724198Y-102106632D01*
X266724198Y-102106632D02*
X266633471Y-102054251D01*
X266633471Y-102054251D02*
X266575013Y-102050742D01*
X266575013Y-102050742D02*
X266526141Y-102083010D01*
X266526141Y-102083010D02*
X266513045Y-102105692D01*
X266513045Y-102105692D02*
X266509536Y-102164150D01*
X266509536Y-102164150D02*
X266541804Y-102213023D01*
X266541804Y-102213023D02*
X266609849Y-102252308D01*
X266609849Y-102252308D02*
X266642117Y-102301180D01*
X266642117Y-102301180D02*
X266638608Y-102359639D01*
X266638608Y-102359639D02*
X266625513Y-102382320D01*
X266625513Y-102382320D02*
X266576641Y-102414588D01*
X266576641Y-102414588D02*
X266518183Y-102411080D01*
X266518183Y-102411080D02*
X266450138Y-102371794D01*
X266450138Y-102371794D02*
X266417870Y-102322922D01*
X266361292Y-101897108D02*
X266086292Y-102373422D01*
X266157157Y-101779251D02*
X266013110Y-102028749D01*
X266013110Y-102028749D02*
X266009601Y-102087208D01*
X266009601Y-102087208D02*
X266041869Y-102136080D01*
X266041869Y-102136080D02*
X266109914Y-102175365D01*
X266109914Y-102175365D02*
X266168372Y-102178874D01*
X266168372Y-102178874D02*
X266204149Y-102169288D01*
X217129133Y-103827819D02*
X217102942Y-103854010D01*
X217102942Y-103854010D02*
X217024371Y-103880200D01*
X217024371Y-103880200D02*
X216971990Y-103880200D01*
X216971990Y-103880200D02*
X216893418Y-103854010D01*
X216893418Y-103854010D02*
X216841037Y-103801629D01*
X216841037Y-103801629D02*
X216814847Y-103749248D01*
X216814847Y-103749248D02*
X216788656Y-103644486D01*
X216788656Y-103644486D02*
X216788656Y-103565914D01*
X216788656Y-103565914D02*
X216814847Y-103461152D01*
X216814847Y-103461152D02*
X216841037Y-103408771D01*
X216841037Y-103408771D02*
X216893418Y-103356390D01*
X216893418Y-103356390D02*
X216971990Y-103330200D01*
X216971990Y-103330200D02*
X217024371Y-103330200D01*
X217024371Y-103330200D02*
X217102942Y-103356390D01*
X217102942Y-103356390D02*
X217129133Y-103382581D01*
X217600561Y-103330200D02*
X217495799Y-103330200D01*
X217495799Y-103330200D02*
X217443418Y-103356390D01*
X217443418Y-103356390D02*
X217417228Y-103382581D01*
X217417228Y-103382581D02*
X217364847Y-103461152D01*
X217364847Y-103461152D02*
X217338656Y-103565914D01*
X217338656Y-103565914D02*
X217338656Y-103775438D01*
X217338656Y-103775438D02*
X217364847Y-103827819D01*
X217364847Y-103827819D02*
X217391037Y-103854010D01*
X217391037Y-103854010D02*
X217443418Y-103880200D01*
X217443418Y-103880200D02*
X217548180Y-103880200D01*
X217548180Y-103880200D02*
X217600561Y-103854010D01*
X217600561Y-103854010D02*
X217626752Y-103827819D01*
X217626752Y-103827819D02*
X217652942Y-103775438D01*
X217652942Y-103775438D02*
X217652942Y-103644486D01*
X217652942Y-103644486D02*
X217626752Y-103592105D01*
X217626752Y-103592105D02*
X217600561Y-103565914D01*
X217600561Y-103565914D02*
X217548180Y-103539724D01*
X217548180Y-103539724D02*
X217443418Y-103539724D01*
X217443418Y-103539724D02*
X217391037Y-103565914D01*
X217391037Y-103565914D02*
X217364847Y-103592105D01*
X217364847Y-103592105D02*
X217338656Y-103644486D01*
X206978800Y-113053371D02*
X206716895Y-113236705D01*
X206978800Y-113367657D02*
X206428800Y-113367657D01*
X206428800Y-113367657D02*
X206428800Y-113158133D01*
X206428800Y-113158133D02*
X206454990Y-113105752D01*
X206454990Y-113105752D02*
X206481181Y-113079562D01*
X206481181Y-113079562D02*
X206533562Y-113053371D01*
X206533562Y-113053371D02*
X206612133Y-113053371D01*
X206612133Y-113053371D02*
X206664514Y-113079562D01*
X206664514Y-113079562D02*
X206690705Y-113105752D01*
X206690705Y-113105752D02*
X206716895Y-113158133D01*
X206716895Y-113158133D02*
X206716895Y-113367657D01*
X206978800Y-112529562D02*
X206978800Y-112843848D01*
X206978800Y-112686705D02*
X206428800Y-112686705D01*
X206428800Y-112686705D02*
X206507371Y-112739086D01*
X206507371Y-112739086D02*
X206559752Y-112791467D01*
X206559752Y-112791467D02*
X206585943Y-112843848D01*
X206978800Y-112267657D02*
X206978800Y-112162895D01*
X206978800Y-112162895D02*
X206952610Y-112110514D01*
X206952610Y-112110514D02*
X206926419Y-112084323D01*
X206926419Y-112084323D02*
X206847848Y-112031942D01*
X206847848Y-112031942D02*
X206743086Y-112005752D01*
X206743086Y-112005752D02*
X206533562Y-112005752D01*
X206533562Y-112005752D02*
X206481181Y-112031942D01*
X206481181Y-112031942D02*
X206454990Y-112058133D01*
X206454990Y-112058133D02*
X206428800Y-112110514D01*
X206428800Y-112110514D02*
X206428800Y-112215276D01*
X206428800Y-112215276D02*
X206454990Y-112267657D01*
X206454990Y-112267657D02*
X206481181Y-112293847D01*
X206481181Y-112293847D02*
X206533562Y-112320038D01*
X206533562Y-112320038D02*
X206664514Y-112320038D01*
X206664514Y-112320038D02*
X206716895Y-112293847D01*
X206716895Y-112293847D02*
X206743086Y-112267657D01*
X206743086Y-112267657D02*
X206769276Y-112215276D01*
X206769276Y-112215276D02*
X206769276Y-112110514D01*
X206769276Y-112110514D02*
X206743086Y-112058133D01*
X206743086Y-112058133D02*
X206716895Y-112031942D01*
X206716895Y-112031942D02*
X206664514Y-112005752D01*
X221613419Y-121610981D02*
X221561038Y-121584790D01*
X221561038Y-121584790D02*
X221508657Y-121532410D01*
X221508657Y-121532410D02*
X221430085Y-121453838D01*
X221430085Y-121453838D02*
X221377704Y-121427648D01*
X221377704Y-121427648D02*
X221325323Y-121427648D01*
X221351514Y-121558600D02*
X221299133Y-121532410D01*
X221299133Y-121532410D02*
X221246752Y-121480029D01*
X221246752Y-121480029D02*
X221220561Y-121375267D01*
X221220561Y-121375267D02*
X221220561Y-121191933D01*
X221220561Y-121191933D02*
X221246752Y-121087171D01*
X221246752Y-121087171D02*
X221299133Y-121034790D01*
X221299133Y-121034790D02*
X221351514Y-121008600D01*
X221351514Y-121008600D02*
X221456276Y-121008600D01*
X221456276Y-121008600D02*
X221508657Y-121034790D01*
X221508657Y-121034790D02*
X221561038Y-121087171D01*
X221561038Y-121087171D02*
X221587228Y-121191933D01*
X221587228Y-121191933D02*
X221587228Y-121375267D01*
X221587228Y-121375267D02*
X221561038Y-121480029D01*
X221561038Y-121480029D02*
X221508657Y-121532410D01*
X221508657Y-121532410D02*
X221456276Y-121558600D01*
X221456276Y-121558600D02*
X221351514Y-121558600D01*
X222058656Y-121008600D02*
X221953894Y-121008600D01*
X221953894Y-121008600D02*
X221901513Y-121034790D01*
X221901513Y-121034790D02*
X221875323Y-121060981D01*
X221875323Y-121060981D02*
X221822942Y-121139552D01*
X221822942Y-121139552D02*
X221796751Y-121244314D01*
X221796751Y-121244314D02*
X221796751Y-121453838D01*
X221796751Y-121453838D02*
X221822942Y-121506219D01*
X221822942Y-121506219D02*
X221849132Y-121532410D01*
X221849132Y-121532410D02*
X221901513Y-121558600D01*
X221901513Y-121558600D02*
X222006275Y-121558600D01*
X222006275Y-121558600D02*
X222058656Y-121532410D01*
X222058656Y-121532410D02*
X222084847Y-121506219D01*
X222084847Y-121506219D02*
X222111037Y-121453838D01*
X222111037Y-121453838D02*
X222111037Y-121322886D01*
X222111037Y-121322886D02*
X222084847Y-121270505D01*
X222084847Y-121270505D02*
X222058656Y-121244314D01*
X222058656Y-121244314D02*
X222006275Y-121218124D01*
X222006275Y-121218124D02*
X221901513Y-121218124D01*
X221901513Y-121218124D02*
X221849132Y-121244314D01*
X221849132Y-121244314D02*
X221822942Y-121270505D01*
X221822942Y-121270505D02*
X221796751Y-121322886D01*
X197283828Y-115867419D02*
X197257637Y-115893610D01*
X197257637Y-115893610D02*
X197179066Y-115919800D01*
X197179066Y-115919800D02*
X197126685Y-115919800D01*
X197126685Y-115919800D02*
X197048113Y-115893610D01*
X197048113Y-115893610D02*
X196995732Y-115841229D01*
X196995732Y-115841229D02*
X196969542Y-115788848D01*
X196969542Y-115788848D02*
X196943351Y-115684086D01*
X196943351Y-115684086D02*
X196943351Y-115605514D01*
X196943351Y-115605514D02*
X196969542Y-115500752D01*
X196969542Y-115500752D02*
X196995732Y-115448371D01*
X196995732Y-115448371D02*
X197048113Y-115395990D01*
X197048113Y-115395990D02*
X197126685Y-115369800D01*
X197126685Y-115369800D02*
X197179066Y-115369800D01*
X197179066Y-115369800D02*
X197257637Y-115395990D01*
X197257637Y-115395990D02*
X197283828Y-115422181D01*
X197807637Y-115919800D02*
X197493351Y-115919800D01*
X197650494Y-115919800D02*
X197650494Y-115369800D01*
X197650494Y-115369800D02*
X197598113Y-115448371D01*
X197598113Y-115448371D02*
X197545732Y-115500752D01*
X197545732Y-115500752D02*
X197493351Y-115526943D01*
X197990971Y-115369800D02*
X198331447Y-115369800D01*
X198331447Y-115369800D02*
X198148114Y-115579324D01*
X198148114Y-115579324D02*
X198226685Y-115579324D01*
X198226685Y-115579324D02*
X198279066Y-115605514D01*
X198279066Y-115605514D02*
X198305257Y-115631705D01*
X198305257Y-115631705D02*
X198331447Y-115684086D01*
X198331447Y-115684086D02*
X198331447Y-115815038D01*
X198331447Y-115815038D02*
X198305257Y-115867419D01*
X198305257Y-115867419D02*
X198279066Y-115893610D01*
X198279066Y-115893610D02*
X198226685Y-115919800D01*
X198226685Y-115919800D02*
X198069542Y-115919800D01*
X198069542Y-115919800D02*
X198017161Y-115893610D01*
X198017161Y-115893610D02*
X197990971Y-115867419D01*
X223852228Y-100806800D02*
X223668894Y-100544895D01*
X223537942Y-100806800D02*
X223537942Y-100256800D01*
X223537942Y-100256800D02*
X223747466Y-100256800D01*
X223747466Y-100256800D02*
X223799847Y-100282990D01*
X223799847Y-100282990D02*
X223826037Y-100309181D01*
X223826037Y-100309181D02*
X223852228Y-100361562D01*
X223852228Y-100361562D02*
X223852228Y-100440133D01*
X223852228Y-100440133D02*
X223826037Y-100492514D01*
X223826037Y-100492514D02*
X223799847Y-100518705D01*
X223799847Y-100518705D02*
X223747466Y-100544895D01*
X223747466Y-100544895D02*
X223537942Y-100544895D01*
X224061751Y-100309181D02*
X224087942Y-100282990D01*
X224087942Y-100282990D02*
X224140323Y-100256800D01*
X224140323Y-100256800D02*
X224271275Y-100256800D01*
X224271275Y-100256800D02*
X224323656Y-100282990D01*
X224323656Y-100282990D02*
X224349847Y-100309181D01*
X224349847Y-100309181D02*
X224376037Y-100361562D01*
X224376037Y-100361562D02*
X224376037Y-100413943D01*
X224376037Y-100413943D02*
X224349847Y-100492514D01*
X224349847Y-100492514D02*
X224035561Y-100806800D01*
X224035561Y-100806800D02*
X224376037Y-100806800D01*
X224559371Y-100256800D02*
X224899847Y-100256800D01*
X224899847Y-100256800D02*
X224716514Y-100466324D01*
X224716514Y-100466324D02*
X224795085Y-100466324D01*
X224795085Y-100466324D02*
X224847466Y-100492514D01*
X224847466Y-100492514D02*
X224873657Y-100518705D01*
X224873657Y-100518705D02*
X224899847Y-100571086D01*
X224899847Y-100571086D02*
X224899847Y-100702038D01*
X224899847Y-100702038D02*
X224873657Y-100754419D01*
X224873657Y-100754419D02*
X224847466Y-100780610D01*
X224847466Y-100780610D02*
X224795085Y-100806800D01*
X224795085Y-100806800D02*
X224637942Y-100806800D01*
X224637942Y-100806800D02*
X224585561Y-100780610D01*
X224585561Y-100780610D02*
X224559371Y-100754419D01*
X213086399Y-122201428D02*
X213348304Y-122018094D01*
X213086399Y-121887142D02*
X213636399Y-121887142D01*
X213636399Y-121887142D02*
X213636399Y-122096666D01*
X213636399Y-122096666D02*
X213610209Y-122149047D01*
X213610209Y-122149047D02*
X213584018Y-122175237D01*
X213584018Y-122175237D02*
X213531637Y-122201428D01*
X213531637Y-122201428D02*
X213453066Y-122201428D01*
X213453066Y-122201428D02*
X213400685Y-122175237D01*
X213400685Y-122175237D02*
X213374494Y-122149047D01*
X213374494Y-122149047D02*
X213348304Y-122096666D01*
X213348304Y-122096666D02*
X213348304Y-121887142D01*
X213636399Y-122384761D02*
X213636399Y-122725237D01*
X213636399Y-122725237D02*
X213426875Y-122541904D01*
X213426875Y-122541904D02*
X213426875Y-122620475D01*
X213426875Y-122620475D02*
X213400685Y-122672856D01*
X213400685Y-122672856D02*
X213374494Y-122699047D01*
X213374494Y-122699047D02*
X213322113Y-122725237D01*
X213322113Y-122725237D02*
X213191161Y-122725237D01*
X213191161Y-122725237D02*
X213138780Y-122699047D01*
X213138780Y-122699047D02*
X213112590Y-122672856D01*
X213112590Y-122672856D02*
X213086399Y-122620475D01*
X213086399Y-122620475D02*
X213086399Y-122463332D01*
X213086399Y-122463332D02*
X213112590Y-122410951D01*
X213112590Y-122410951D02*
X213138780Y-122384761D01*
X213636399Y-123222857D02*
X213636399Y-122960952D01*
X213636399Y-122960952D02*
X213374494Y-122934761D01*
X213374494Y-122934761D02*
X213400685Y-122960952D01*
X213400685Y-122960952D02*
X213426875Y-123013333D01*
X213426875Y-123013333D02*
X213426875Y-123144285D01*
X213426875Y-123144285D02*
X213400685Y-123196666D01*
X213400685Y-123196666D02*
X213374494Y-123222857D01*
X213374494Y-123222857D02*
X213322113Y-123249047D01*
X213322113Y-123249047D02*
X213191161Y-123249047D01*
X213191161Y-123249047D02*
X213138780Y-123222857D01*
X213138780Y-123222857D02*
X213112590Y-123196666D01*
X213112590Y-123196666D02*
X213086399Y-123144285D01*
X213086399Y-123144285D02*
X213086399Y-123013333D01*
X213086399Y-123013333D02*
X213112590Y-122960952D01*
X213112590Y-122960952D02*
X213138780Y-122934761D01*
X221787000Y-93165171D02*
X221525095Y-93348505D01*
X221787000Y-93479457D02*
X221237000Y-93479457D01*
X221237000Y-93479457D02*
X221237000Y-93269933D01*
X221237000Y-93269933D02*
X221263190Y-93217552D01*
X221263190Y-93217552D02*
X221289381Y-93191362D01*
X221289381Y-93191362D02*
X221341762Y-93165171D01*
X221341762Y-93165171D02*
X221420333Y-93165171D01*
X221420333Y-93165171D02*
X221472714Y-93191362D01*
X221472714Y-93191362D02*
X221498905Y-93217552D01*
X221498905Y-93217552D02*
X221525095Y-93269933D01*
X221525095Y-93269933D02*
X221525095Y-93479457D01*
X221289381Y-92955648D02*
X221263190Y-92929457D01*
X221263190Y-92929457D02*
X221237000Y-92877076D01*
X221237000Y-92877076D02*
X221237000Y-92746124D01*
X221237000Y-92746124D02*
X221263190Y-92693743D01*
X221263190Y-92693743D02*
X221289381Y-92667552D01*
X221289381Y-92667552D02*
X221341762Y-92641362D01*
X221341762Y-92641362D02*
X221394143Y-92641362D01*
X221394143Y-92641362D02*
X221472714Y-92667552D01*
X221472714Y-92667552D02*
X221787000Y-92981838D01*
X221787000Y-92981838D02*
X221787000Y-92641362D01*
X221472714Y-92327076D02*
X221446524Y-92379457D01*
X221446524Y-92379457D02*
X221420333Y-92405647D01*
X221420333Y-92405647D02*
X221367952Y-92431838D01*
X221367952Y-92431838D02*
X221341762Y-92431838D01*
X221341762Y-92431838D02*
X221289381Y-92405647D01*
X221289381Y-92405647D02*
X221263190Y-92379457D01*
X221263190Y-92379457D02*
X221237000Y-92327076D01*
X221237000Y-92327076D02*
X221237000Y-92222314D01*
X221237000Y-92222314D02*
X221263190Y-92169933D01*
X221263190Y-92169933D02*
X221289381Y-92143742D01*
X221289381Y-92143742D02*
X221341762Y-92117552D01*
X221341762Y-92117552D02*
X221367952Y-92117552D01*
X221367952Y-92117552D02*
X221420333Y-92143742D01*
X221420333Y-92143742D02*
X221446524Y-92169933D01*
X221446524Y-92169933D02*
X221472714Y-92222314D01*
X221472714Y-92222314D02*
X221472714Y-92327076D01*
X221472714Y-92327076D02*
X221498905Y-92379457D01*
X221498905Y-92379457D02*
X221525095Y-92405647D01*
X221525095Y-92405647D02*
X221577476Y-92431838D01*
X221577476Y-92431838D02*
X221682238Y-92431838D01*
X221682238Y-92431838D02*
X221734619Y-92405647D01*
X221734619Y-92405647D02*
X221760810Y-92379457D01*
X221760810Y-92379457D02*
X221787000Y-92327076D01*
X221787000Y-92327076D02*
X221787000Y-92222314D01*
X221787000Y-92222314D02*
X221760810Y-92169933D01*
X221760810Y-92169933D02*
X221734619Y-92143742D01*
X221734619Y-92143742D02*
X221682238Y-92117552D01*
X221682238Y-92117552D02*
X221577476Y-92117552D01*
X221577476Y-92117552D02*
X221525095Y-92143742D01*
X221525095Y-92143742D02*
X221498905Y-92169933D01*
X221498905Y-92169933D02*
X221472714Y-92222314D01*
X215868800Y-113637571D02*
X215606895Y-113820905D01*
X215868800Y-113951857D02*
X215318800Y-113951857D01*
X215318800Y-113951857D02*
X215318800Y-113742333D01*
X215318800Y-113742333D02*
X215344990Y-113689952D01*
X215344990Y-113689952D02*
X215371181Y-113663762D01*
X215371181Y-113663762D02*
X215423562Y-113637571D01*
X215423562Y-113637571D02*
X215502133Y-113637571D01*
X215502133Y-113637571D02*
X215554514Y-113663762D01*
X215554514Y-113663762D02*
X215580705Y-113689952D01*
X215580705Y-113689952D02*
X215606895Y-113742333D01*
X215606895Y-113742333D02*
X215606895Y-113951857D01*
X215868800Y-113113762D02*
X215868800Y-113428048D01*
X215868800Y-113270905D02*
X215318800Y-113270905D01*
X215318800Y-113270905D02*
X215397371Y-113323286D01*
X215397371Y-113323286D02*
X215449752Y-113375667D01*
X215449752Y-113375667D02*
X215475943Y-113428048D01*
X215318800Y-112773285D02*
X215318800Y-112720904D01*
X215318800Y-112720904D02*
X215344990Y-112668523D01*
X215344990Y-112668523D02*
X215371181Y-112642333D01*
X215371181Y-112642333D02*
X215423562Y-112616142D01*
X215423562Y-112616142D02*
X215528324Y-112589952D01*
X215528324Y-112589952D02*
X215659276Y-112589952D01*
X215659276Y-112589952D02*
X215764038Y-112616142D01*
X215764038Y-112616142D02*
X215816419Y-112642333D01*
X215816419Y-112642333D02*
X215842610Y-112668523D01*
X215842610Y-112668523D02*
X215868800Y-112720904D01*
X215868800Y-112720904D02*
X215868800Y-112773285D01*
X215868800Y-112773285D02*
X215842610Y-112825666D01*
X215842610Y-112825666D02*
X215816419Y-112851857D01*
X215816419Y-112851857D02*
X215764038Y-112878047D01*
X215764038Y-112878047D02*
X215659276Y-112904238D01*
X215659276Y-112904238D02*
X215528324Y-112904238D01*
X215528324Y-112904238D02*
X215423562Y-112878047D01*
X215423562Y-112878047D02*
X215371181Y-112851857D01*
X215371181Y-112851857D02*
X215344990Y-112825666D01*
X215344990Y-112825666D02*
X215318800Y-112773285D01*
X227815600Y-104228847D02*
X228260838Y-104228847D01*
X228260838Y-104228847D02*
X228313219Y-104202657D01*
X228313219Y-104202657D02*
X228339410Y-104176466D01*
X228339410Y-104176466D02*
X228365600Y-104124085D01*
X228365600Y-104124085D02*
X228365600Y-104019323D01*
X228365600Y-104019323D02*
X228339410Y-103966942D01*
X228339410Y-103966942D02*
X228313219Y-103940752D01*
X228313219Y-103940752D02*
X228260838Y-103914561D01*
X228260838Y-103914561D02*
X227815600Y-103914561D01*
X228051314Y-103574086D02*
X228025124Y-103626467D01*
X228025124Y-103626467D02*
X227998933Y-103652657D01*
X227998933Y-103652657D02*
X227946552Y-103678848D01*
X227946552Y-103678848D02*
X227920362Y-103678848D01*
X227920362Y-103678848D02*
X227867981Y-103652657D01*
X227867981Y-103652657D02*
X227841790Y-103626467D01*
X227841790Y-103626467D02*
X227815600Y-103574086D01*
X227815600Y-103574086D02*
X227815600Y-103469324D01*
X227815600Y-103469324D02*
X227841790Y-103416943D01*
X227841790Y-103416943D02*
X227867981Y-103390752D01*
X227867981Y-103390752D02*
X227920362Y-103364562D01*
X227920362Y-103364562D02*
X227946552Y-103364562D01*
X227946552Y-103364562D02*
X227998933Y-103390752D01*
X227998933Y-103390752D02*
X228025124Y-103416943D01*
X228025124Y-103416943D02*
X228051314Y-103469324D01*
X228051314Y-103469324D02*
X228051314Y-103574086D01*
X228051314Y-103574086D02*
X228077505Y-103626467D01*
X228077505Y-103626467D02*
X228103695Y-103652657D01*
X228103695Y-103652657D02*
X228156076Y-103678848D01*
X228156076Y-103678848D02*
X228260838Y-103678848D01*
X228260838Y-103678848D02*
X228313219Y-103652657D01*
X228313219Y-103652657D02*
X228339410Y-103626467D01*
X228339410Y-103626467D02*
X228365600Y-103574086D01*
X228365600Y-103574086D02*
X228365600Y-103469324D01*
X228365600Y-103469324D02*
X228339410Y-103416943D01*
X228339410Y-103416943D02*
X228313219Y-103390752D01*
X228313219Y-103390752D02*
X228260838Y-103364562D01*
X228260838Y-103364562D02*
X228156076Y-103364562D01*
X228156076Y-103364562D02*
X228103695Y-103390752D01*
X228103695Y-103390752D02*
X228077505Y-103416943D01*
X228077505Y-103416943D02*
X228051314Y-103469324D01*
X229147894Y-95092066D02*
X229147894Y-94908733D01*
X228859799Y-94908733D02*
X229409799Y-94908733D01*
X229409799Y-94908733D02*
X229409799Y-95170638D01*
X229357418Y-95353971D02*
X229383609Y-95380162D01*
X229383609Y-95380162D02*
X229409799Y-95432543D01*
X229409799Y-95432543D02*
X229409799Y-95563495D01*
X229409799Y-95563495D02*
X229383609Y-95615876D01*
X229383609Y-95615876D02*
X229357418Y-95642067D01*
X229357418Y-95642067D02*
X229305037Y-95668257D01*
X229305037Y-95668257D02*
X229252656Y-95668257D01*
X229252656Y-95668257D02*
X229174085Y-95642067D01*
X229174085Y-95642067D02*
X228859799Y-95327781D01*
X228859799Y-95327781D02*
X228859799Y-95668257D01*
X216773533Y-105963000D02*
X216590199Y-105701095D01*
X216459247Y-105963000D02*
X216459247Y-105413000D01*
X216459247Y-105413000D02*
X216668771Y-105413000D01*
X216668771Y-105413000D02*
X216721152Y-105439190D01*
X216721152Y-105439190D02*
X216747342Y-105465381D01*
X216747342Y-105465381D02*
X216773533Y-105517762D01*
X216773533Y-105517762D02*
X216773533Y-105596333D01*
X216773533Y-105596333D02*
X216747342Y-105648714D01*
X216747342Y-105648714D02*
X216721152Y-105674905D01*
X216721152Y-105674905D02*
X216668771Y-105701095D01*
X216668771Y-105701095D02*
X216459247Y-105701095D01*
X216956866Y-105413000D02*
X217323533Y-105413000D01*
X217323533Y-105413000D02*
X217087818Y-105963000D01*
X223191828Y-95091800D02*
X223008494Y-94829895D01*
X222877542Y-95091800D02*
X222877542Y-94541800D01*
X222877542Y-94541800D02*
X223087066Y-94541800D01*
X223087066Y-94541800D02*
X223139447Y-94567990D01*
X223139447Y-94567990D02*
X223165637Y-94594181D01*
X223165637Y-94594181D02*
X223191828Y-94646562D01*
X223191828Y-94646562D02*
X223191828Y-94725133D01*
X223191828Y-94725133D02*
X223165637Y-94777514D01*
X223165637Y-94777514D02*
X223139447Y-94803705D01*
X223139447Y-94803705D02*
X223087066Y-94829895D01*
X223087066Y-94829895D02*
X222877542Y-94829895D01*
X223401351Y-94594181D02*
X223427542Y-94567990D01*
X223427542Y-94567990D02*
X223479923Y-94541800D01*
X223479923Y-94541800D02*
X223610875Y-94541800D01*
X223610875Y-94541800D02*
X223663256Y-94567990D01*
X223663256Y-94567990D02*
X223689447Y-94594181D01*
X223689447Y-94594181D02*
X223715637Y-94646562D01*
X223715637Y-94646562D02*
X223715637Y-94698943D01*
X223715637Y-94698943D02*
X223689447Y-94777514D01*
X223689447Y-94777514D02*
X223375161Y-95091800D01*
X223375161Y-95091800D02*
X223715637Y-95091800D01*
X224187066Y-94541800D02*
X224082304Y-94541800D01*
X224082304Y-94541800D02*
X224029923Y-94567990D01*
X224029923Y-94567990D02*
X224003733Y-94594181D01*
X224003733Y-94594181D02*
X223951352Y-94672752D01*
X223951352Y-94672752D02*
X223925161Y-94777514D01*
X223925161Y-94777514D02*
X223925161Y-94987038D01*
X223925161Y-94987038D02*
X223951352Y-95039419D01*
X223951352Y-95039419D02*
X223977542Y-95065610D01*
X223977542Y-95065610D02*
X224029923Y-95091800D01*
X224029923Y-95091800D02*
X224134685Y-95091800D01*
X224134685Y-95091800D02*
X224187066Y-95065610D01*
X224187066Y-95065610D02*
X224213257Y-95039419D01*
X224213257Y-95039419D02*
X224239447Y-94987038D01*
X224239447Y-94987038D02*
X224239447Y-94856086D01*
X224239447Y-94856086D02*
X224213257Y-94803705D01*
X224213257Y-94803705D02*
X224187066Y-94777514D01*
X224187066Y-94777514D02*
X224134685Y-94751324D01*
X224134685Y-94751324D02*
X224029923Y-94751324D01*
X224029923Y-94751324D02*
X223977542Y-94777514D01*
X223977542Y-94777514D02*
X223951352Y-94803705D01*
X223951352Y-94803705D02*
X223925161Y-94856086D01*
X186864868Y-125058662D02*
X186603323Y-125044955D01*
X186603323Y-125044955D02*
X186632107Y-124495709D01*
X187302532Y-124714429D02*
X187283342Y-125080594D01*
X187182724Y-124498339D02*
X187031391Y-124883804D01*
X187031391Y-124883804D02*
X187371400Y-124901624D01*
X280088800Y-143439333D02*
X280481657Y-143439333D01*
X280481657Y-143439333D02*
X280560229Y-143465524D01*
X280560229Y-143465524D02*
X280612610Y-143517905D01*
X280612610Y-143517905D02*
X280638800Y-143596476D01*
X280638800Y-143596476D02*
X280638800Y-143648857D01*
X280272133Y-142941714D02*
X280638800Y-142941714D01*
X280062610Y-143072666D02*
X280455467Y-143203619D01*
X280455467Y-143203619D02*
X280455467Y-142863142D01*
X231094999Y-109222028D02*
X231356904Y-109038694D01*
X231094999Y-108907742D02*
X231644999Y-108907742D01*
X231644999Y-108907742D02*
X231644999Y-109117266D01*
X231644999Y-109117266D02*
X231618809Y-109169647D01*
X231618809Y-109169647D02*
X231592618Y-109195837D01*
X231592618Y-109195837D02*
X231540237Y-109222028D01*
X231540237Y-109222028D02*
X231461666Y-109222028D01*
X231461666Y-109222028D02*
X231409285Y-109195837D01*
X231409285Y-109195837D02*
X231383094Y-109169647D01*
X231383094Y-109169647D02*
X231356904Y-109117266D01*
X231356904Y-109117266D02*
X231356904Y-108907742D01*
X231094999Y-109745837D02*
X231094999Y-109431551D01*
X231094999Y-109588694D02*
X231644999Y-109588694D01*
X231644999Y-109588694D02*
X231566428Y-109536313D01*
X231566428Y-109536313D02*
X231514047Y-109483932D01*
X231514047Y-109483932D02*
X231487856Y-109431551D01*
X231461666Y-110217266D02*
X231094999Y-110217266D01*
X231671190Y-110086314D02*
X231278332Y-109955361D01*
X231278332Y-109955361D02*
X231278332Y-110295838D01*
X245536000Y-112673952D02*
X244986000Y-112673952D01*
X244986000Y-112673952D02*
X244986000Y-112543000D01*
X244986000Y-112543000D02*
X245012190Y-112464428D01*
X245012190Y-112464428D02*
X245064571Y-112412047D01*
X245064571Y-112412047D02*
X245116952Y-112385857D01*
X245116952Y-112385857D02*
X245221714Y-112359666D01*
X245221714Y-112359666D02*
X245300286Y-112359666D01*
X245300286Y-112359666D02*
X245405048Y-112385857D01*
X245405048Y-112385857D02*
X245457429Y-112412047D01*
X245457429Y-112412047D02*
X245509810Y-112464428D01*
X245509810Y-112464428D02*
X245536000Y-112543000D01*
X245536000Y-112543000D02*
X245536000Y-112673952D01*
X245221714Y-112045381D02*
X245195524Y-112097762D01*
X245195524Y-112097762D02*
X245169333Y-112123952D01*
X245169333Y-112123952D02*
X245116952Y-112150143D01*
X245116952Y-112150143D02*
X245090762Y-112150143D01*
X245090762Y-112150143D02*
X245038381Y-112123952D01*
X245038381Y-112123952D02*
X245012190Y-112097762D01*
X245012190Y-112097762D02*
X244986000Y-112045381D01*
X244986000Y-112045381D02*
X244986000Y-111940619D01*
X244986000Y-111940619D02*
X245012190Y-111888238D01*
X245012190Y-111888238D02*
X245038381Y-111862047D01*
X245038381Y-111862047D02*
X245090762Y-111835857D01*
X245090762Y-111835857D02*
X245116952Y-111835857D01*
X245116952Y-111835857D02*
X245169333Y-111862047D01*
X245169333Y-111862047D02*
X245195524Y-111888238D01*
X245195524Y-111888238D02*
X245221714Y-111940619D01*
X245221714Y-111940619D02*
X245221714Y-112045381D01*
X245221714Y-112045381D02*
X245247905Y-112097762D01*
X245247905Y-112097762D02*
X245274095Y-112123952D01*
X245274095Y-112123952D02*
X245326476Y-112150143D01*
X245326476Y-112150143D02*
X245431238Y-112150143D01*
X245431238Y-112150143D02*
X245483619Y-112123952D01*
X245483619Y-112123952D02*
X245509810Y-112097762D01*
X245509810Y-112097762D02*
X245536000Y-112045381D01*
X245536000Y-112045381D02*
X245536000Y-111940619D01*
X245536000Y-111940619D02*
X245509810Y-111888238D01*
X245509810Y-111888238D02*
X245483619Y-111862047D01*
X245483619Y-111862047D02*
X245431238Y-111835857D01*
X245431238Y-111835857D02*
X245326476Y-111835857D01*
X245326476Y-111835857D02*
X245274095Y-111862047D01*
X245274095Y-111862047D02*
X245247905Y-111888238D01*
X245247905Y-111888238D02*
X245221714Y-111940619D01*
X213557400Y-99669152D02*
X213007400Y-99669152D01*
X213007400Y-99669152D02*
X213007400Y-99538200D01*
X213007400Y-99538200D02*
X213033590Y-99459628D01*
X213033590Y-99459628D02*
X213085971Y-99407247D01*
X213085971Y-99407247D02*
X213138352Y-99381057D01*
X213138352Y-99381057D02*
X213243114Y-99354866D01*
X213243114Y-99354866D02*
X213321686Y-99354866D01*
X213321686Y-99354866D02*
X213426448Y-99381057D01*
X213426448Y-99381057D02*
X213478829Y-99407247D01*
X213478829Y-99407247D02*
X213531210Y-99459628D01*
X213531210Y-99459628D02*
X213557400Y-99538200D01*
X213557400Y-99538200D02*
X213557400Y-99669152D01*
X213059781Y-99145343D02*
X213033590Y-99119152D01*
X213033590Y-99119152D02*
X213007400Y-99066771D01*
X213007400Y-99066771D02*
X213007400Y-98935819D01*
X213007400Y-98935819D02*
X213033590Y-98883438D01*
X213033590Y-98883438D02*
X213059781Y-98857247D01*
X213059781Y-98857247D02*
X213112162Y-98831057D01*
X213112162Y-98831057D02*
X213164543Y-98831057D01*
X213164543Y-98831057D02*
X213243114Y-98857247D01*
X213243114Y-98857247D02*
X213557400Y-99171533D01*
X213557400Y-99171533D02*
X213557400Y-98831057D01*
X235556599Y-118362866D02*
X235163742Y-118362866D01*
X235163742Y-118362866D02*
X235085170Y-118336675D01*
X235085170Y-118336675D02*
X235032790Y-118284294D01*
X235032790Y-118284294D02*
X235006599Y-118205723D01*
X235006599Y-118205723D02*
X235006599Y-118153342D01*
X235006599Y-118624771D02*
X235556599Y-118624771D01*
X235556599Y-118624771D02*
X235556599Y-118834295D01*
X235556599Y-118834295D02*
X235530409Y-118886676D01*
X235530409Y-118886676D02*
X235504218Y-118912866D01*
X235504218Y-118912866D02*
X235451837Y-118939057D01*
X235451837Y-118939057D02*
X235373266Y-118939057D01*
X235373266Y-118939057D02*
X235320885Y-118912866D01*
X235320885Y-118912866D02*
X235294694Y-118886676D01*
X235294694Y-118886676D02*
X235268504Y-118834295D01*
X235268504Y-118834295D02*
X235268504Y-118624771D01*
X235006599Y-119462866D02*
X235006599Y-119148580D01*
X235006599Y-119305723D02*
X235556599Y-119305723D01*
X235556599Y-119305723D02*
X235478028Y-119253342D01*
X235478028Y-119253342D02*
X235425647Y-119200961D01*
X235425647Y-119200961D02*
X235399456Y-119148580D01*
X216105228Y-104716819D02*
X216079037Y-104743010D01*
X216079037Y-104743010D02*
X216000466Y-104769200D01*
X216000466Y-104769200D02*
X215948085Y-104769200D01*
X215948085Y-104769200D02*
X215869513Y-104743010D01*
X215869513Y-104743010D02*
X215817132Y-104690629D01*
X215817132Y-104690629D02*
X215790942Y-104638248D01*
X215790942Y-104638248D02*
X215764751Y-104533486D01*
X215764751Y-104533486D02*
X215764751Y-104454914D01*
X215764751Y-104454914D02*
X215790942Y-104350152D01*
X215790942Y-104350152D02*
X215817132Y-104297771D01*
X215817132Y-104297771D02*
X215869513Y-104245390D01*
X215869513Y-104245390D02*
X215948085Y-104219200D01*
X215948085Y-104219200D02*
X216000466Y-104219200D01*
X216000466Y-104219200D02*
X216079037Y-104245390D01*
X216079037Y-104245390D02*
X216105228Y-104271581D01*
X216629037Y-104769200D02*
X216314751Y-104769200D01*
X216471894Y-104769200D02*
X216471894Y-104219200D01*
X216471894Y-104219200D02*
X216419513Y-104297771D01*
X216419513Y-104297771D02*
X216367132Y-104350152D01*
X216367132Y-104350152D02*
X216314751Y-104376343D01*
X216969514Y-104219200D02*
X217021895Y-104219200D01*
X217021895Y-104219200D02*
X217074276Y-104245390D01*
X217074276Y-104245390D02*
X217100466Y-104271581D01*
X217100466Y-104271581D02*
X217126657Y-104323962D01*
X217126657Y-104323962D02*
X217152847Y-104428724D01*
X217152847Y-104428724D02*
X217152847Y-104559676D01*
X217152847Y-104559676D02*
X217126657Y-104664438D01*
X217126657Y-104664438D02*
X217100466Y-104716819D01*
X217100466Y-104716819D02*
X217074276Y-104743010D01*
X217074276Y-104743010D02*
X217021895Y-104769200D01*
X217021895Y-104769200D02*
X216969514Y-104769200D01*
X216969514Y-104769200D02*
X216917133Y-104743010D01*
X216917133Y-104743010D02*
X216890942Y-104716819D01*
X216890942Y-104716819D02*
X216864752Y-104664438D01*
X216864752Y-104664438D02*
X216838561Y-104559676D01*
X216838561Y-104559676D02*
X216838561Y-104428724D01*
X216838561Y-104428724D02*
X216864752Y-104323962D01*
X216864752Y-104323962D02*
X216890942Y-104271581D01*
X216890942Y-104271581D02*
X216917133Y-104245390D01*
X216917133Y-104245390D02*
X216969514Y-104219200D01*
X193713152Y-121389600D02*
X193713152Y-121834838D01*
X193713152Y-121834838D02*
X193739342Y-121887219D01*
X193739342Y-121887219D02*
X193765533Y-121913410D01*
X193765533Y-121913410D02*
X193817914Y-121939600D01*
X193817914Y-121939600D02*
X193922676Y-121939600D01*
X193922676Y-121939600D02*
X193975057Y-121913410D01*
X193975057Y-121913410D02*
X194001247Y-121887219D01*
X194001247Y-121887219D02*
X194027438Y-121834838D01*
X194027438Y-121834838D02*
X194027438Y-121389600D01*
X194525056Y-121389600D02*
X194420294Y-121389600D01*
X194420294Y-121389600D02*
X194367913Y-121415790D01*
X194367913Y-121415790D02*
X194341723Y-121441981D01*
X194341723Y-121441981D02*
X194289342Y-121520552D01*
X194289342Y-121520552D02*
X194263151Y-121625314D01*
X194263151Y-121625314D02*
X194263151Y-121834838D01*
X194263151Y-121834838D02*
X194289342Y-121887219D01*
X194289342Y-121887219D02*
X194315532Y-121913410D01*
X194315532Y-121913410D02*
X194367913Y-121939600D01*
X194367913Y-121939600D02*
X194472675Y-121939600D01*
X194472675Y-121939600D02*
X194525056Y-121913410D01*
X194525056Y-121913410D02*
X194551247Y-121887219D01*
X194551247Y-121887219D02*
X194577437Y-121834838D01*
X194577437Y-121834838D02*
X194577437Y-121703886D01*
X194577437Y-121703886D02*
X194551247Y-121651505D01*
X194551247Y-121651505D02*
X194525056Y-121625314D01*
X194525056Y-121625314D02*
X194472675Y-121599124D01*
X194472675Y-121599124D02*
X194367913Y-121599124D01*
X194367913Y-121599124D02*
X194315532Y-121625314D01*
X194315532Y-121625314D02*
X194289342Y-121651505D01*
X194289342Y-121651505D02*
X194263151Y-121703886D01*
X228623371Y-114739180D02*
X228649562Y-114712990D01*
X228649562Y-114712990D02*
X228728133Y-114686799D01*
X228728133Y-114686799D02*
X228780514Y-114686799D01*
X228780514Y-114686799D02*
X228859086Y-114712990D01*
X228859086Y-114712990D02*
X228911467Y-114765370D01*
X228911467Y-114765370D02*
X228937657Y-114817751D01*
X228937657Y-114817751D02*
X228963848Y-114922513D01*
X228963848Y-114922513D02*
X228963848Y-115001085D01*
X228963848Y-115001085D02*
X228937657Y-115105847D01*
X228937657Y-115105847D02*
X228911467Y-115158228D01*
X228911467Y-115158228D02*
X228859086Y-115210609D01*
X228859086Y-115210609D02*
X228780514Y-115236799D01*
X228780514Y-115236799D02*
X228728133Y-115236799D01*
X228728133Y-115236799D02*
X228649562Y-115210609D01*
X228649562Y-115210609D02*
X228623371Y-115184418D01*
X228099562Y-114686799D02*
X228413848Y-114686799D01*
X228256705Y-114686799D02*
X228256705Y-115236799D01*
X228256705Y-115236799D02*
X228309086Y-115158228D01*
X228309086Y-115158228D02*
X228361467Y-115105847D01*
X228361467Y-115105847D02*
X228413848Y-115079656D01*
X227628133Y-115236799D02*
X227732895Y-115236799D01*
X227732895Y-115236799D02*
X227785276Y-115210609D01*
X227785276Y-115210609D02*
X227811466Y-115184418D01*
X227811466Y-115184418D02*
X227863847Y-115105847D01*
X227863847Y-115105847D02*
X227890038Y-115001085D01*
X227890038Y-115001085D02*
X227890038Y-114791561D01*
X227890038Y-114791561D02*
X227863847Y-114739180D01*
X227863847Y-114739180D02*
X227837657Y-114712990D01*
X227837657Y-114712990D02*
X227785276Y-114686799D01*
X227785276Y-114686799D02*
X227680514Y-114686799D01*
X227680514Y-114686799D02*
X227628133Y-114712990D01*
X227628133Y-114712990D02*
X227601942Y-114739180D01*
X227601942Y-114739180D02*
X227575752Y-114791561D01*
X227575752Y-114791561D02*
X227575752Y-114922513D01*
X227575752Y-114922513D02*
X227601942Y-114974894D01*
X227601942Y-114974894D02*
X227628133Y-115001085D01*
X227628133Y-115001085D02*
X227680514Y-115027275D01*
X227680514Y-115027275D02*
X227785276Y-115027275D01*
X227785276Y-115027275D02*
X227837657Y-115001085D01*
X227837657Y-115001085D02*
X227863847Y-114974894D01*
X227863847Y-114974894D02*
X227890038Y-114922513D01*
X200509628Y-126281419D02*
X200483437Y-126307610D01*
X200483437Y-126307610D02*
X200404866Y-126333800D01*
X200404866Y-126333800D02*
X200352485Y-126333800D01*
X200352485Y-126333800D02*
X200273913Y-126307610D01*
X200273913Y-126307610D02*
X200221532Y-126255229D01*
X200221532Y-126255229D02*
X200195342Y-126202848D01*
X200195342Y-126202848D02*
X200169151Y-126098086D01*
X200169151Y-126098086D02*
X200169151Y-126019514D01*
X200169151Y-126019514D02*
X200195342Y-125914752D01*
X200195342Y-125914752D02*
X200221532Y-125862371D01*
X200221532Y-125862371D02*
X200273913Y-125809990D01*
X200273913Y-125809990D02*
X200352485Y-125783800D01*
X200352485Y-125783800D02*
X200404866Y-125783800D01*
X200404866Y-125783800D02*
X200483437Y-125809990D01*
X200483437Y-125809990D02*
X200509628Y-125836181D01*
X201033437Y-126333800D02*
X200719151Y-126333800D01*
X200876294Y-126333800D02*
X200876294Y-125783800D01*
X200876294Y-125783800D02*
X200823913Y-125862371D01*
X200823913Y-125862371D02*
X200771532Y-125914752D01*
X200771532Y-125914752D02*
X200719151Y-125940943D01*
X201347723Y-126019514D02*
X201295342Y-125993324D01*
X201295342Y-125993324D02*
X201269152Y-125967133D01*
X201269152Y-125967133D02*
X201242961Y-125914752D01*
X201242961Y-125914752D02*
X201242961Y-125888562D01*
X201242961Y-125888562D02*
X201269152Y-125836181D01*
X201269152Y-125836181D02*
X201295342Y-125809990D01*
X201295342Y-125809990D02*
X201347723Y-125783800D01*
X201347723Y-125783800D02*
X201452485Y-125783800D01*
X201452485Y-125783800D02*
X201504866Y-125809990D01*
X201504866Y-125809990D02*
X201531057Y-125836181D01*
X201531057Y-125836181D02*
X201557247Y-125888562D01*
X201557247Y-125888562D02*
X201557247Y-125914752D01*
X201557247Y-125914752D02*
X201531057Y-125967133D01*
X201531057Y-125967133D02*
X201504866Y-125993324D01*
X201504866Y-125993324D02*
X201452485Y-126019514D01*
X201452485Y-126019514D02*
X201347723Y-126019514D01*
X201347723Y-126019514D02*
X201295342Y-126045705D01*
X201295342Y-126045705D02*
X201269152Y-126071895D01*
X201269152Y-126071895D02*
X201242961Y-126124276D01*
X201242961Y-126124276D02*
X201242961Y-126229038D01*
X201242961Y-126229038D02*
X201269152Y-126281419D01*
X201269152Y-126281419D02*
X201295342Y-126307610D01*
X201295342Y-126307610D02*
X201347723Y-126333800D01*
X201347723Y-126333800D02*
X201452485Y-126333800D01*
X201452485Y-126333800D02*
X201504866Y-126307610D01*
X201504866Y-126307610D02*
X201531057Y-126281419D01*
X201531057Y-126281419D02*
X201557247Y-126229038D01*
X201557247Y-126229038D02*
X201557247Y-126124276D01*
X201557247Y-126124276D02*
X201531057Y-126071895D01*
X201531057Y-126071895D02*
X201504866Y-126045705D01*
X201504866Y-126045705D02*
X201452485Y-126019514D01*
X219661228Y-100756000D02*
X219477894Y-100494095D01*
X219346942Y-100756000D02*
X219346942Y-100206000D01*
X219346942Y-100206000D02*
X219556466Y-100206000D01*
X219556466Y-100206000D02*
X219608847Y-100232190D01*
X219608847Y-100232190D02*
X219635037Y-100258381D01*
X219635037Y-100258381D02*
X219661228Y-100310762D01*
X219661228Y-100310762D02*
X219661228Y-100389333D01*
X219661228Y-100389333D02*
X219635037Y-100441714D01*
X219635037Y-100441714D02*
X219608847Y-100467905D01*
X219608847Y-100467905D02*
X219556466Y-100494095D01*
X219556466Y-100494095D02*
X219346942Y-100494095D01*
X219870751Y-100258381D02*
X219896942Y-100232190D01*
X219896942Y-100232190D02*
X219949323Y-100206000D01*
X219949323Y-100206000D02*
X220080275Y-100206000D01*
X220080275Y-100206000D02*
X220132656Y-100232190D01*
X220132656Y-100232190D02*
X220158847Y-100258381D01*
X220158847Y-100258381D02*
X220185037Y-100310762D01*
X220185037Y-100310762D02*
X220185037Y-100363143D01*
X220185037Y-100363143D02*
X220158847Y-100441714D01*
X220158847Y-100441714D02*
X219844561Y-100756000D01*
X219844561Y-100756000D02*
X220185037Y-100756000D01*
X220656466Y-100389333D02*
X220656466Y-100756000D01*
X220525514Y-100179810D02*
X220394561Y-100572667D01*
X220394561Y-100572667D02*
X220735038Y-100572667D01*
X245085047Y-111373200D02*
X245085047Y-110823200D01*
X245085047Y-110823200D02*
X245215999Y-110823200D01*
X245215999Y-110823200D02*
X245294571Y-110849390D01*
X245294571Y-110849390D02*
X245346952Y-110901771D01*
X245346952Y-110901771D02*
X245373142Y-110954152D01*
X245373142Y-110954152D02*
X245399333Y-111058914D01*
X245399333Y-111058914D02*
X245399333Y-111137486D01*
X245399333Y-111137486D02*
X245373142Y-111242248D01*
X245373142Y-111242248D02*
X245346952Y-111294629D01*
X245346952Y-111294629D02*
X245294571Y-111347010D01*
X245294571Y-111347010D02*
X245215999Y-111373200D01*
X245215999Y-111373200D02*
X245085047Y-111373200D01*
X245896952Y-110823200D02*
X245635047Y-110823200D01*
X245635047Y-110823200D02*
X245608856Y-111085105D01*
X245608856Y-111085105D02*
X245635047Y-111058914D01*
X245635047Y-111058914D02*
X245687428Y-111032724D01*
X245687428Y-111032724D02*
X245818380Y-111032724D01*
X245818380Y-111032724D02*
X245870761Y-111058914D01*
X245870761Y-111058914D02*
X245896952Y-111085105D01*
X245896952Y-111085105D02*
X245923142Y-111137486D01*
X245923142Y-111137486D02*
X245923142Y-111268438D01*
X245923142Y-111268438D02*
X245896952Y-111320819D01*
X245896952Y-111320819D02*
X245870761Y-111347010D01*
X245870761Y-111347010D02*
X245818380Y-111373200D01*
X245818380Y-111373200D02*
X245687428Y-111373200D01*
X245687428Y-111373200D02*
X245635047Y-111347010D01*
X245635047Y-111347010D02*
X245608856Y-111320819D01*
X191154600Y-115610866D02*
X190892695Y-115794200D01*
X191154600Y-115925152D02*
X190604600Y-115925152D01*
X190604600Y-115925152D02*
X190604600Y-115715628D01*
X190604600Y-115715628D02*
X190630790Y-115663247D01*
X190630790Y-115663247D02*
X190656981Y-115637057D01*
X190656981Y-115637057D02*
X190709362Y-115610866D01*
X190709362Y-115610866D02*
X190787933Y-115610866D01*
X190787933Y-115610866D02*
X190840314Y-115637057D01*
X190840314Y-115637057D02*
X190866505Y-115663247D01*
X190866505Y-115663247D02*
X190892695Y-115715628D01*
X190892695Y-115715628D02*
X190892695Y-115925152D01*
X190656981Y-115401343D02*
X190630790Y-115375152D01*
X190630790Y-115375152D02*
X190604600Y-115322771D01*
X190604600Y-115322771D02*
X190604600Y-115191819D01*
X190604600Y-115191819D02*
X190630790Y-115139438D01*
X190630790Y-115139438D02*
X190656981Y-115113247D01*
X190656981Y-115113247D02*
X190709362Y-115087057D01*
X190709362Y-115087057D02*
X190761743Y-115087057D01*
X190761743Y-115087057D02*
X190840314Y-115113247D01*
X190840314Y-115113247D02*
X191154600Y-115427533D01*
X191154600Y-115427533D02*
X191154600Y-115087057D01*
X228059495Y-106967304D02*
X228321400Y-106967304D01*
X227771400Y-107150638D02*
X228059495Y-106967304D01*
X228059495Y-106967304D02*
X227771400Y-106783971D01*
X228321400Y-106312542D02*
X228321400Y-106626828D01*
X228321400Y-106469685D02*
X227771400Y-106469685D01*
X227771400Y-106469685D02*
X227849971Y-106522066D01*
X227849971Y-106522066D02*
X227902352Y-106574447D01*
X227902352Y-106574447D02*
X227928543Y-106626828D01*
X232115133Y-123997000D02*
X231931799Y-123735095D01*
X231800847Y-123997000D02*
X231800847Y-123447000D01*
X231800847Y-123447000D02*
X232010371Y-123447000D01*
X232010371Y-123447000D02*
X232062752Y-123473190D01*
X232062752Y-123473190D02*
X232088942Y-123499381D01*
X232088942Y-123499381D02*
X232115133Y-123551762D01*
X232115133Y-123551762D02*
X232115133Y-123630333D01*
X232115133Y-123630333D02*
X232088942Y-123682714D01*
X232088942Y-123682714D02*
X232062752Y-123708905D01*
X232062752Y-123708905D02*
X232010371Y-123735095D01*
X232010371Y-123735095D02*
X231800847Y-123735095D01*
X232298466Y-123447000D02*
X232638942Y-123447000D01*
X232638942Y-123447000D02*
X232455609Y-123656524D01*
X232455609Y-123656524D02*
X232534180Y-123656524D01*
X232534180Y-123656524D02*
X232586561Y-123682714D01*
X232586561Y-123682714D02*
X232612752Y-123708905D01*
X232612752Y-123708905D02*
X232638942Y-123761286D01*
X232638942Y-123761286D02*
X232638942Y-123892238D01*
X232638942Y-123892238D02*
X232612752Y-123944619D01*
X232612752Y-123944619D02*
X232586561Y-123970810D01*
X232586561Y-123970810D02*
X232534180Y-123997000D01*
X232534180Y-123997000D02*
X232377037Y-123997000D01*
X232377037Y-123997000D02*
X232324656Y-123970810D01*
X232324656Y-123970810D02*
X232298466Y-123944619D01*
X219889828Y-128696000D02*
X219706494Y-128434095D01*
X219575542Y-128696000D02*
X219575542Y-128146000D01*
X219575542Y-128146000D02*
X219785066Y-128146000D01*
X219785066Y-128146000D02*
X219837447Y-128172190D01*
X219837447Y-128172190D02*
X219863637Y-128198381D01*
X219863637Y-128198381D02*
X219889828Y-128250762D01*
X219889828Y-128250762D02*
X219889828Y-128329333D01*
X219889828Y-128329333D02*
X219863637Y-128381714D01*
X219863637Y-128381714D02*
X219837447Y-128407905D01*
X219837447Y-128407905D02*
X219785066Y-128434095D01*
X219785066Y-128434095D02*
X219575542Y-128434095D01*
X220073161Y-128146000D02*
X220413637Y-128146000D01*
X220413637Y-128146000D02*
X220230304Y-128355524D01*
X220230304Y-128355524D02*
X220308875Y-128355524D01*
X220308875Y-128355524D02*
X220361256Y-128381714D01*
X220361256Y-128381714D02*
X220387447Y-128407905D01*
X220387447Y-128407905D02*
X220413637Y-128460286D01*
X220413637Y-128460286D02*
X220413637Y-128591238D01*
X220413637Y-128591238D02*
X220387447Y-128643619D01*
X220387447Y-128643619D02*
X220361256Y-128669810D01*
X220361256Y-128669810D02*
X220308875Y-128696000D01*
X220308875Y-128696000D02*
X220151732Y-128696000D01*
X220151732Y-128696000D02*
X220099351Y-128669810D01*
X220099351Y-128669810D02*
X220073161Y-128643619D01*
X220937447Y-128696000D02*
X220623161Y-128696000D01*
X220780304Y-128696000D02*
X220780304Y-128146000D01*
X220780304Y-128146000D02*
X220727923Y-128224571D01*
X220727923Y-128224571D02*
X220675542Y-128276952D01*
X220675542Y-128276952D02*
X220623161Y-128303143D01*
X219221600Y-126997971D02*
X218959695Y-127181305D01*
X219221600Y-127312257D02*
X218671600Y-127312257D01*
X218671600Y-127312257D02*
X218671600Y-127102733D01*
X218671600Y-127102733D02*
X218697790Y-127050352D01*
X218697790Y-127050352D02*
X218723981Y-127024162D01*
X218723981Y-127024162D02*
X218776362Y-126997971D01*
X218776362Y-126997971D02*
X218854933Y-126997971D01*
X218854933Y-126997971D02*
X218907314Y-127024162D01*
X218907314Y-127024162D02*
X218933505Y-127050352D01*
X218933505Y-127050352D02*
X218959695Y-127102733D01*
X218959695Y-127102733D02*
X218959695Y-127312257D01*
X218671600Y-126814638D02*
X218671600Y-126474162D01*
X218671600Y-126474162D02*
X218881124Y-126657495D01*
X218881124Y-126657495D02*
X218881124Y-126578924D01*
X218881124Y-126578924D02*
X218907314Y-126526543D01*
X218907314Y-126526543D02*
X218933505Y-126500352D01*
X218933505Y-126500352D02*
X218985886Y-126474162D01*
X218985886Y-126474162D02*
X219116838Y-126474162D01*
X219116838Y-126474162D02*
X219169219Y-126500352D01*
X219169219Y-126500352D02*
X219195410Y-126526543D01*
X219195410Y-126526543D02*
X219221600Y-126578924D01*
X219221600Y-126578924D02*
X219221600Y-126736067D01*
X219221600Y-126736067D02*
X219195410Y-126788448D01*
X219195410Y-126788448D02*
X219169219Y-126814638D01*
X218723981Y-126264638D02*
X218697790Y-126238447D01*
X218697790Y-126238447D02*
X218671600Y-126186066D01*
X218671600Y-126186066D02*
X218671600Y-126055114D01*
X218671600Y-126055114D02*
X218697790Y-126002733D01*
X218697790Y-126002733D02*
X218723981Y-125976542D01*
X218723981Y-125976542D02*
X218776362Y-125950352D01*
X218776362Y-125950352D02*
X218828743Y-125950352D01*
X218828743Y-125950352D02*
X218907314Y-125976542D01*
X218907314Y-125976542D02*
X219221600Y-126290828D01*
X219221600Y-126290828D02*
X219221600Y-125950352D01*
X177505133Y-130091419D02*
X177478942Y-130117610D01*
X177478942Y-130117610D02*
X177400371Y-130143800D01*
X177400371Y-130143800D02*
X177347990Y-130143800D01*
X177347990Y-130143800D02*
X177269418Y-130117610D01*
X177269418Y-130117610D02*
X177217037Y-130065229D01*
X177217037Y-130065229D02*
X177190847Y-130012848D01*
X177190847Y-130012848D02*
X177164656Y-129908086D01*
X177164656Y-129908086D02*
X177164656Y-129829514D01*
X177164656Y-129829514D02*
X177190847Y-129724752D01*
X177190847Y-129724752D02*
X177217037Y-129672371D01*
X177217037Y-129672371D02*
X177269418Y-129619990D01*
X177269418Y-129619990D02*
X177347990Y-129593800D01*
X177347990Y-129593800D02*
X177400371Y-129593800D01*
X177400371Y-129593800D02*
X177478942Y-129619990D01*
X177478942Y-129619990D02*
X177505133Y-129646181D01*
X178028942Y-130143800D02*
X177714656Y-130143800D01*
X177871799Y-130143800D02*
X177871799Y-129593800D01*
X177871799Y-129593800D02*
X177819418Y-129672371D01*
X177819418Y-129672371D02*
X177767037Y-129724752D01*
X177767037Y-129724752D02*
X177714656Y-129750943D01*
X174400121Y-126981482D02*
X174376819Y-127426110D01*
X174376819Y-127426110D02*
X174400232Y-127479790D01*
X174400232Y-127479790D02*
X174425016Y-127507315D01*
X174425016Y-127507315D02*
X174475955Y-127536211D01*
X174475955Y-127536211D02*
X174580573Y-127541694D01*
X174580573Y-127541694D02*
X174634253Y-127518281D01*
X174634253Y-127518281D02*
X174661778Y-127493497D01*
X174661778Y-127493497D02*
X174690674Y-127442559D01*
X174690674Y-127442559D02*
X174713976Y-126997931D01*
X174946625Y-127062576D02*
X174974151Y-127037792D01*
X174974151Y-127037792D02*
X175027831Y-127014379D01*
X175027831Y-127014379D02*
X175158604Y-127021233D01*
X175158604Y-127021233D02*
X175209542Y-127050129D01*
X175209542Y-127050129D02*
X175234326Y-127077654D01*
X175234326Y-127077654D02*
X175257739Y-127131334D01*
X175257739Y-127131334D02*
X175254998Y-127183643D01*
X175254998Y-127183643D02*
X175224731Y-127260736D01*
X175224731Y-127260736D02*
X174894428Y-127558143D01*
X174894428Y-127558143D02*
X175234437Y-127575962D01*
X216925933Y-101922819D02*
X216899742Y-101949010D01*
X216899742Y-101949010D02*
X216821171Y-101975200D01*
X216821171Y-101975200D02*
X216768790Y-101975200D01*
X216768790Y-101975200D02*
X216690218Y-101949010D01*
X216690218Y-101949010D02*
X216637837Y-101896629D01*
X216637837Y-101896629D02*
X216611647Y-101844248D01*
X216611647Y-101844248D02*
X216585456Y-101739486D01*
X216585456Y-101739486D02*
X216585456Y-101660914D01*
X216585456Y-101660914D02*
X216611647Y-101556152D01*
X216611647Y-101556152D02*
X216637837Y-101503771D01*
X216637837Y-101503771D02*
X216690218Y-101451390D01*
X216690218Y-101451390D02*
X216768790Y-101425200D01*
X216768790Y-101425200D02*
X216821171Y-101425200D01*
X216821171Y-101425200D02*
X216899742Y-101451390D01*
X216899742Y-101451390D02*
X216925933Y-101477581D01*
X217109266Y-101425200D02*
X217475933Y-101425200D01*
X217475933Y-101425200D02*
X217240218Y-101975200D01*
X255146266Y-106952810D02*
X255224838Y-106979000D01*
X255224838Y-106979000D02*
X255355790Y-106979000D01*
X255355790Y-106979000D02*
X255408171Y-106952810D01*
X255408171Y-106952810D02*
X255434362Y-106926619D01*
X255434362Y-106926619D02*
X255460552Y-106874238D01*
X255460552Y-106874238D02*
X255460552Y-106821857D01*
X255460552Y-106821857D02*
X255434362Y-106769476D01*
X255434362Y-106769476D02*
X255408171Y-106743286D01*
X255408171Y-106743286D02*
X255355790Y-106717095D01*
X255355790Y-106717095D02*
X255251028Y-106690905D01*
X255251028Y-106690905D02*
X255198647Y-106664714D01*
X255198647Y-106664714D02*
X255172457Y-106638524D01*
X255172457Y-106638524D02*
X255146266Y-106586143D01*
X255146266Y-106586143D02*
X255146266Y-106533762D01*
X255146266Y-106533762D02*
X255172457Y-106481381D01*
X255172457Y-106481381D02*
X255198647Y-106455190D01*
X255198647Y-106455190D02*
X255251028Y-106429000D01*
X255251028Y-106429000D02*
X255381981Y-106429000D01*
X255381981Y-106429000D02*
X255460552Y-106455190D01*
X255643886Y-106429000D02*
X255774838Y-106979000D01*
X255774838Y-106979000D02*
X255879600Y-106586143D01*
X255879600Y-106586143D02*
X255984362Y-106979000D01*
X255984362Y-106979000D02*
X256115315Y-106429000D01*
X256560552Y-106612333D02*
X256560552Y-106979000D01*
X256429600Y-106402810D02*
X256298647Y-106795667D01*
X256298647Y-106795667D02*
X256639124Y-106795667D01*
X197909419Y-98854771D02*
X197935610Y-98880962D01*
X197935610Y-98880962D02*
X197961800Y-98959533D01*
X197961800Y-98959533D02*
X197961800Y-99011914D01*
X197961800Y-99011914D02*
X197935610Y-99090486D01*
X197935610Y-99090486D02*
X197883229Y-99142867D01*
X197883229Y-99142867D02*
X197830848Y-99169057D01*
X197830848Y-99169057D02*
X197726086Y-99195248D01*
X197726086Y-99195248D02*
X197647514Y-99195248D01*
X197647514Y-99195248D02*
X197542752Y-99169057D01*
X197542752Y-99169057D02*
X197490371Y-99142867D01*
X197490371Y-99142867D02*
X197437990Y-99090486D01*
X197437990Y-99090486D02*
X197411800Y-99011914D01*
X197411800Y-99011914D02*
X197411800Y-98959533D01*
X197411800Y-98959533D02*
X197437990Y-98880962D01*
X197437990Y-98880962D02*
X197464181Y-98854771D01*
X197961800Y-98330962D02*
X197961800Y-98645248D01*
X197961800Y-98488105D02*
X197411800Y-98488105D01*
X197411800Y-98488105D02*
X197490371Y-98540486D01*
X197490371Y-98540486D02*
X197542752Y-98592867D01*
X197542752Y-98592867D02*
X197568943Y-98645248D01*
X197961800Y-98069057D02*
X197961800Y-97964295D01*
X197961800Y-97964295D02*
X197935610Y-97911914D01*
X197935610Y-97911914D02*
X197909419Y-97885723D01*
X197909419Y-97885723D02*
X197830848Y-97833342D01*
X197830848Y-97833342D02*
X197726086Y-97807152D01*
X197726086Y-97807152D02*
X197516562Y-97807152D01*
X197516562Y-97807152D02*
X197464181Y-97833342D01*
X197464181Y-97833342D02*
X197437990Y-97859533D01*
X197437990Y-97859533D02*
X197411800Y-97911914D01*
X197411800Y-97911914D02*
X197411800Y-98016676D01*
X197411800Y-98016676D02*
X197437990Y-98069057D01*
X197437990Y-98069057D02*
X197464181Y-98095247D01*
X197464181Y-98095247D02*
X197516562Y-98121438D01*
X197516562Y-98121438D02*
X197647514Y-98121438D01*
X197647514Y-98121438D02*
X197699895Y-98095247D01*
X197699895Y-98095247D02*
X197726086Y-98069057D01*
X197726086Y-98069057D02*
X197752276Y-98016676D01*
X197752276Y-98016676D02*
X197752276Y-97911914D01*
X197752276Y-97911914D02*
X197726086Y-97859533D01*
X197726086Y-97859533D02*
X197699895Y-97833342D01*
X197699895Y-97833342D02*
X197647514Y-97807152D01*
X220161400Y-94003371D02*
X219899495Y-94186705D01*
X220161400Y-94317657D02*
X219611400Y-94317657D01*
X219611400Y-94317657D02*
X219611400Y-94108133D01*
X219611400Y-94108133D02*
X219637590Y-94055752D01*
X219637590Y-94055752D02*
X219663781Y-94029562D01*
X219663781Y-94029562D02*
X219716162Y-94003371D01*
X219716162Y-94003371D02*
X219794733Y-94003371D01*
X219794733Y-94003371D02*
X219847114Y-94029562D01*
X219847114Y-94029562D02*
X219873305Y-94055752D01*
X219873305Y-94055752D02*
X219899495Y-94108133D01*
X219899495Y-94108133D02*
X219899495Y-94317657D01*
X219663781Y-93793848D02*
X219637590Y-93767657D01*
X219637590Y-93767657D02*
X219611400Y-93715276D01*
X219611400Y-93715276D02*
X219611400Y-93584324D01*
X219611400Y-93584324D02*
X219637590Y-93531943D01*
X219637590Y-93531943D02*
X219663781Y-93505752D01*
X219663781Y-93505752D02*
X219716162Y-93479562D01*
X219716162Y-93479562D02*
X219768543Y-93479562D01*
X219768543Y-93479562D02*
X219847114Y-93505752D01*
X219847114Y-93505752D02*
X220161400Y-93820038D01*
X220161400Y-93820038D02*
X220161400Y-93479562D01*
X219611400Y-93296228D02*
X219611400Y-92929561D01*
X219611400Y-92929561D02*
X220161400Y-93165276D01*
X195328028Y-104386619D02*
X195301837Y-104412810D01*
X195301837Y-104412810D02*
X195223266Y-104439000D01*
X195223266Y-104439000D02*
X195170885Y-104439000D01*
X195170885Y-104439000D02*
X195092313Y-104412810D01*
X195092313Y-104412810D02*
X195039932Y-104360429D01*
X195039932Y-104360429D02*
X195013742Y-104308048D01*
X195013742Y-104308048D02*
X194987551Y-104203286D01*
X194987551Y-104203286D02*
X194987551Y-104124714D01*
X194987551Y-104124714D02*
X195013742Y-104019952D01*
X195013742Y-104019952D02*
X195039932Y-103967571D01*
X195039932Y-103967571D02*
X195092313Y-103915190D01*
X195092313Y-103915190D02*
X195170885Y-103889000D01*
X195170885Y-103889000D02*
X195223266Y-103889000D01*
X195223266Y-103889000D02*
X195301837Y-103915190D01*
X195301837Y-103915190D02*
X195328028Y-103941381D01*
X195537551Y-103941381D02*
X195563742Y-103915190D01*
X195563742Y-103915190D02*
X195616123Y-103889000D01*
X195616123Y-103889000D02*
X195747075Y-103889000D01*
X195747075Y-103889000D02*
X195799456Y-103915190D01*
X195799456Y-103915190D02*
X195825647Y-103941381D01*
X195825647Y-103941381D02*
X195851837Y-103993762D01*
X195851837Y-103993762D02*
X195851837Y-104046143D01*
X195851837Y-104046143D02*
X195825647Y-104124714D01*
X195825647Y-104124714D02*
X195511361Y-104439000D01*
X195511361Y-104439000D02*
X195851837Y-104439000D01*
X196192314Y-103889000D02*
X196244695Y-103889000D01*
X196244695Y-103889000D02*
X196297076Y-103915190D01*
X196297076Y-103915190D02*
X196323266Y-103941381D01*
X196323266Y-103941381D02*
X196349457Y-103993762D01*
X196349457Y-103993762D02*
X196375647Y-104098524D01*
X196375647Y-104098524D02*
X196375647Y-104229476D01*
X196375647Y-104229476D02*
X196349457Y-104334238D01*
X196349457Y-104334238D02*
X196323266Y-104386619D01*
X196323266Y-104386619D02*
X196297076Y-104412810D01*
X196297076Y-104412810D02*
X196244695Y-104439000D01*
X196244695Y-104439000D02*
X196192314Y-104439000D01*
X196192314Y-104439000D02*
X196139933Y-104412810D01*
X196139933Y-104412810D02*
X196113742Y-104386619D01*
X196113742Y-104386619D02*
X196087552Y-104334238D01*
X196087552Y-104334238D02*
X196061361Y-104229476D01*
X196061361Y-104229476D02*
X196061361Y-104098524D01*
X196061361Y-104098524D02*
X196087552Y-103993762D01*
X196087552Y-103993762D02*
X196113742Y-103941381D01*
X196113742Y-103941381D02*
X196139933Y-103915190D01*
X196139933Y-103915190D02*
X196192314Y-103889000D01*
X226751599Y-94404342D02*
X227301599Y-94404342D01*
X227301599Y-94404342D02*
X227301599Y-94535294D01*
X227301599Y-94535294D02*
X227275409Y-94613866D01*
X227275409Y-94613866D02*
X227223028Y-94666247D01*
X227223028Y-94666247D02*
X227170647Y-94692437D01*
X227170647Y-94692437D02*
X227065885Y-94718628D01*
X227065885Y-94718628D02*
X226987313Y-94718628D01*
X226987313Y-94718628D02*
X226882551Y-94692437D01*
X226882551Y-94692437D02*
X226830170Y-94666247D01*
X226830170Y-94666247D02*
X226777790Y-94613866D01*
X226777790Y-94613866D02*
X226751599Y-94535294D01*
X226751599Y-94535294D02*
X226751599Y-94404342D01*
X226751599Y-95242437D02*
X226751599Y-94928151D01*
X226751599Y-95085294D02*
X227301599Y-95085294D01*
X227301599Y-95085294D02*
X227223028Y-95032913D01*
X227223028Y-95032913D02*
X227170647Y-94980532D01*
X227170647Y-94980532D02*
X227144456Y-94928151D01*
X227301599Y-95582914D02*
X227301599Y-95635295D01*
X227301599Y-95635295D02*
X227275409Y-95687676D01*
X227275409Y-95687676D02*
X227249218Y-95713866D01*
X227249218Y-95713866D02*
X227196837Y-95740057D01*
X227196837Y-95740057D02*
X227092075Y-95766247D01*
X227092075Y-95766247D02*
X226961123Y-95766247D01*
X226961123Y-95766247D02*
X226856361Y-95740057D01*
X226856361Y-95740057D02*
X226803980Y-95713866D01*
X226803980Y-95713866D02*
X226777790Y-95687676D01*
X226777790Y-95687676D02*
X226751599Y-95635295D01*
X226751599Y-95635295D02*
X226751599Y-95582914D01*
X226751599Y-95582914D02*
X226777790Y-95530533D01*
X226777790Y-95530533D02*
X226803980Y-95504342D01*
X226803980Y-95504342D02*
X226856361Y-95478152D01*
X226856361Y-95478152D02*
X226961123Y-95451961D01*
X226961123Y-95451961D02*
X227092075Y-95451961D01*
X227092075Y-95451961D02*
X227196837Y-95478152D01*
X227196837Y-95478152D02*
X227249218Y-95504342D01*
X227249218Y-95504342D02*
X227275409Y-95530533D01*
X227275409Y-95530533D02*
X227301599Y-95582914D01*
X183963951Y-95941800D02*
X184278237Y-95941800D01*
X184121094Y-96491800D02*
X184121094Y-95941800D01*
X184461571Y-96491800D02*
X184461571Y-95941800D01*
X184461571Y-95941800D02*
X184671095Y-95941800D01*
X184671095Y-95941800D02*
X184723476Y-95967990D01*
X184723476Y-95967990D02*
X184749666Y-95994181D01*
X184749666Y-95994181D02*
X184775857Y-96046562D01*
X184775857Y-96046562D02*
X184775857Y-96125133D01*
X184775857Y-96125133D02*
X184749666Y-96177514D01*
X184749666Y-96177514D02*
X184723476Y-96203705D01*
X184723476Y-96203705D02*
X184671095Y-96229895D01*
X184671095Y-96229895D02*
X184461571Y-96229895D01*
X185273476Y-95941800D02*
X185011571Y-95941800D01*
X185011571Y-95941800D02*
X184985380Y-96203705D01*
X184985380Y-96203705D02*
X185011571Y-96177514D01*
X185011571Y-96177514D02*
X185063952Y-96151324D01*
X185063952Y-96151324D02*
X185194904Y-96151324D01*
X185194904Y-96151324D02*
X185247285Y-96177514D01*
X185247285Y-96177514D02*
X185273476Y-96203705D01*
X185273476Y-96203705D02*
X185299666Y-96256086D01*
X185299666Y-96256086D02*
X185299666Y-96387038D01*
X185299666Y-96387038D02*
X185273476Y-96439419D01*
X185273476Y-96439419D02*
X185247285Y-96465610D01*
X185247285Y-96465610D02*
X185194904Y-96491800D01*
X185194904Y-96491800D02*
X185063952Y-96491800D01*
X185063952Y-96491800D02*
X185011571Y-96465610D01*
X185011571Y-96465610D02*
X184985380Y-96439419D01*
X189629019Y-119166866D02*
X189655210Y-119193057D01*
X189655210Y-119193057D02*
X189681400Y-119271628D01*
X189681400Y-119271628D02*
X189681400Y-119324009D01*
X189681400Y-119324009D02*
X189655210Y-119402581D01*
X189655210Y-119402581D02*
X189602829Y-119454962D01*
X189602829Y-119454962D02*
X189550448Y-119481152D01*
X189550448Y-119481152D02*
X189445686Y-119507343D01*
X189445686Y-119507343D02*
X189367114Y-119507343D01*
X189367114Y-119507343D02*
X189262352Y-119481152D01*
X189262352Y-119481152D02*
X189209971Y-119454962D01*
X189209971Y-119454962D02*
X189157590Y-119402581D01*
X189157590Y-119402581D02*
X189131400Y-119324009D01*
X189131400Y-119324009D02*
X189131400Y-119271628D01*
X189131400Y-119271628D02*
X189157590Y-119193057D01*
X189157590Y-119193057D02*
X189183781Y-119166866D01*
X189183781Y-118957343D02*
X189157590Y-118931152D01*
X189157590Y-118931152D02*
X189131400Y-118878771D01*
X189131400Y-118878771D02*
X189131400Y-118747819D01*
X189131400Y-118747819D02*
X189157590Y-118695438D01*
X189157590Y-118695438D02*
X189183781Y-118669247D01*
X189183781Y-118669247D02*
X189236162Y-118643057D01*
X189236162Y-118643057D02*
X189288543Y-118643057D01*
X189288543Y-118643057D02*
X189367114Y-118669247D01*
X189367114Y-118669247D02*
X189681400Y-118983533D01*
X189681400Y-118983533D02*
X189681400Y-118643057D01*
X209878619Y-130856581D02*
X209826238Y-130830390D01*
X209826238Y-130830390D02*
X209773857Y-130778010D01*
X209773857Y-130778010D02*
X209695285Y-130699438D01*
X209695285Y-130699438D02*
X209642904Y-130673248D01*
X209642904Y-130673248D02*
X209590523Y-130673248D01*
X209616714Y-130804200D02*
X209564333Y-130778010D01*
X209564333Y-130778010D02*
X209511952Y-130725629D01*
X209511952Y-130725629D02*
X209485761Y-130620867D01*
X209485761Y-130620867D02*
X209485761Y-130437533D01*
X209485761Y-130437533D02*
X209511952Y-130332771D01*
X209511952Y-130332771D02*
X209564333Y-130280390D01*
X209564333Y-130280390D02*
X209616714Y-130254200D01*
X209616714Y-130254200D02*
X209721476Y-130254200D01*
X209721476Y-130254200D02*
X209773857Y-130280390D01*
X209773857Y-130280390D02*
X209826238Y-130332771D01*
X209826238Y-130332771D02*
X209852428Y-130437533D01*
X209852428Y-130437533D02*
X209852428Y-130620867D01*
X209852428Y-130620867D02*
X209826238Y-130725629D01*
X209826238Y-130725629D02*
X209773857Y-130778010D01*
X209773857Y-130778010D02*
X209721476Y-130804200D01*
X209721476Y-130804200D02*
X209616714Y-130804200D01*
X210061951Y-130306581D02*
X210088142Y-130280390D01*
X210088142Y-130280390D02*
X210140523Y-130254200D01*
X210140523Y-130254200D02*
X210271475Y-130254200D01*
X210271475Y-130254200D02*
X210323856Y-130280390D01*
X210323856Y-130280390D02*
X210350047Y-130306581D01*
X210350047Y-130306581D02*
X210376237Y-130358962D01*
X210376237Y-130358962D02*
X210376237Y-130411343D01*
X210376237Y-130411343D02*
X210350047Y-130489914D01*
X210350047Y-130489914D02*
X210035761Y-130804200D01*
X210035761Y-130804200D02*
X210376237Y-130804200D01*
X197650152Y-95202200D02*
X197650152Y-95647438D01*
X197650152Y-95647438D02*
X197676342Y-95699819D01*
X197676342Y-95699819D02*
X197702533Y-95726010D01*
X197702533Y-95726010D02*
X197754914Y-95752200D01*
X197754914Y-95752200D02*
X197859676Y-95752200D01*
X197859676Y-95752200D02*
X197912057Y-95726010D01*
X197912057Y-95726010D02*
X197938247Y-95699819D01*
X197938247Y-95699819D02*
X197964438Y-95647438D01*
X197964438Y-95647438D02*
X197964438Y-95202200D01*
X198514437Y-95752200D02*
X198200151Y-95752200D01*
X198357294Y-95752200D02*
X198357294Y-95202200D01*
X198357294Y-95202200D02*
X198304913Y-95280771D01*
X198304913Y-95280771D02*
X198252532Y-95333152D01*
X198252532Y-95333152D02*
X198200151Y-95359343D01*
X232836000Y-103248971D02*
X232574095Y-103432305D01*
X232836000Y-103563257D02*
X232286000Y-103563257D01*
X232286000Y-103563257D02*
X232286000Y-103353733D01*
X232286000Y-103353733D02*
X232312190Y-103301352D01*
X232312190Y-103301352D02*
X232338381Y-103275162D01*
X232338381Y-103275162D02*
X232390762Y-103248971D01*
X232390762Y-103248971D02*
X232469333Y-103248971D01*
X232469333Y-103248971D02*
X232521714Y-103275162D01*
X232521714Y-103275162D02*
X232547905Y-103301352D01*
X232547905Y-103301352D02*
X232574095Y-103353733D01*
X232574095Y-103353733D02*
X232574095Y-103563257D01*
X232836000Y-102725162D02*
X232836000Y-103039448D01*
X232836000Y-102882305D02*
X232286000Y-102882305D01*
X232286000Y-102882305D02*
X232364571Y-102934686D01*
X232364571Y-102934686D02*
X232416952Y-102987067D01*
X232416952Y-102987067D02*
X232443143Y-103039448D01*
X232286000Y-102541828D02*
X232286000Y-102201352D01*
X232286000Y-102201352D02*
X232495524Y-102384685D01*
X232495524Y-102384685D02*
X232495524Y-102306114D01*
X232495524Y-102306114D02*
X232521714Y-102253733D01*
X232521714Y-102253733D02*
X232547905Y-102227542D01*
X232547905Y-102227542D02*
X232600286Y-102201352D01*
X232600286Y-102201352D02*
X232731238Y-102201352D01*
X232731238Y-102201352D02*
X232783619Y-102227542D01*
X232783619Y-102227542D02*
X232809810Y-102253733D01*
X232809810Y-102253733D02*
X232836000Y-102306114D01*
X232836000Y-102306114D02*
X232836000Y-102463257D01*
X232836000Y-102463257D02*
X232809810Y-102515638D01*
X232809810Y-102515638D02*
X232783619Y-102541828D01*
X234688619Y-108633771D02*
X234714810Y-108659962D01*
X234714810Y-108659962D02*
X234741000Y-108738533D01*
X234741000Y-108738533D02*
X234741000Y-108790914D01*
X234741000Y-108790914D02*
X234714810Y-108869486D01*
X234714810Y-108869486D02*
X234662429Y-108921867D01*
X234662429Y-108921867D02*
X234610048Y-108948057D01*
X234610048Y-108948057D02*
X234505286Y-108974248D01*
X234505286Y-108974248D02*
X234426714Y-108974248D01*
X234426714Y-108974248D02*
X234321952Y-108948057D01*
X234321952Y-108948057D02*
X234269571Y-108921867D01*
X234269571Y-108921867D02*
X234217190Y-108869486D01*
X234217190Y-108869486D02*
X234191000Y-108790914D01*
X234191000Y-108790914D02*
X234191000Y-108738533D01*
X234191000Y-108738533D02*
X234217190Y-108659962D01*
X234217190Y-108659962D02*
X234243381Y-108633771D01*
X234741000Y-108109962D02*
X234741000Y-108424248D01*
X234741000Y-108267105D02*
X234191000Y-108267105D01*
X234191000Y-108267105D02*
X234269571Y-108319486D01*
X234269571Y-108319486D02*
X234321952Y-108371867D01*
X234321952Y-108371867D02*
X234348143Y-108424248D01*
X234374333Y-107638533D02*
X234741000Y-107638533D01*
X234164810Y-107769485D02*
X234557667Y-107900438D01*
X234557667Y-107900438D02*
X234557667Y-107559961D01*
X232949199Y-115775228D02*
X233211104Y-115591894D01*
X232949199Y-115460942D02*
X233499199Y-115460942D01*
X233499199Y-115460942D02*
X233499199Y-115670466D01*
X233499199Y-115670466D02*
X233473009Y-115722847D01*
X233473009Y-115722847D02*
X233446818Y-115749037D01*
X233446818Y-115749037D02*
X233394437Y-115775228D01*
X233394437Y-115775228D02*
X233315866Y-115775228D01*
X233315866Y-115775228D02*
X233263485Y-115749037D01*
X233263485Y-115749037D02*
X233237294Y-115722847D01*
X233237294Y-115722847D02*
X233211104Y-115670466D01*
X233211104Y-115670466D02*
X233211104Y-115460942D01*
X232949199Y-116299037D02*
X232949199Y-115984751D01*
X232949199Y-116141894D02*
X233499199Y-116141894D01*
X233499199Y-116141894D02*
X233420628Y-116089513D01*
X233420628Y-116089513D02*
X233368247Y-116037132D01*
X233368247Y-116037132D02*
X233342056Y-115984751D01*
X233499199Y-116796657D02*
X233499199Y-116534752D01*
X233499199Y-116534752D02*
X233237294Y-116508561D01*
X233237294Y-116508561D02*
X233263485Y-116534752D01*
X233263485Y-116534752D02*
X233289675Y-116587133D01*
X233289675Y-116587133D02*
X233289675Y-116718085D01*
X233289675Y-116718085D02*
X233263485Y-116770466D01*
X233263485Y-116770466D02*
X233237294Y-116796657D01*
X233237294Y-116796657D02*
X233184913Y-116822847D01*
X233184913Y-116822847D02*
X233053961Y-116822847D01*
X233053961Y-116822847D02*
X233001580Y-116796657D01*
X233001580Y-116796657D02*
X232975390Y-116770466D01*
X232975390Y-116770466D02*
X232949199Y-116718085D01*
X232949199Y-116718085D02*
X232949199Y-116587133D01*
X232949199Y-116587133D02*
X232975390Y-116534752D01*
X232975390Y-116534752D02*
X233001580Y-116508561D01*
X207200552Y-113744200D02*
X207200552Y-114189438D01*
X207200552Y-114189438D02*
X207226742Y-114241819D01*
X207226742Y-114241819D02*
X207252933Y-114268010D01*
X207252933Y-114268010D02*
X207305314Y-114294200D01*
X207305314Y-114294200D02*
X207410076Y-114294200D01*
X207410076Y-114294200D02*
X207462457Y-114268010D01*
X207462457Y-114268010D02*
X207488647Y-114241819D01*
X207488647Y-114241819D02*
X207514838Y-114189438D01*
X207514838Y-114189438D02*
X207514838Y-113744200D01*
X208038647Y-113744200D02*
X207776742Y-113744200D01*
X207776742Y-113744200D02*
X207750551Y-114006105D01*
X207750551Y-114006105D02*
X207776742Y-113979914D01*
X207776742Y-113979914D02*
X207829123Y-113953724D01*
X207829123Y-113953724D02*
X207960075Y-113953724D01*
X207960075Y-113953724D02*
X208012456Y-113979914D01*
X208012456Y-113979914D02*
X208038647Y-114006105D01*
X208038647Y-114006105D02*
X208064837Y-114058486D01*
X208064837Y-114058486D02*
X208064837Y-114189438D01*
X208064837Y-114189438D02*
X208038647Y-114241819D01*
X208038647Y-114241819D02*
X208012456Y-114268010D01*
X208012456Y-114268010D02*
X207960075Y-114294200D01*
X207960075Y-114294200D02*
X207829123Y-114294200D01*
X207829123Y-114294200D02*
X207776742Y-114268010D01*
X207776742Y-114268010D02*
X207750551Y-114241819D01*
X231330552Y-117324200D02*
X231330552Y-117769438D01*
X231330552Y-117769438D02*
X231356742Y-117821819D01*
X231356742Y-117821819D02*
X231382933Y-117848010D01*
X231382933Y-117848010D02*
X231435314Y-117874200D01*
X231435314Y-117874200D02*
X231540076Y-117874200D01*
X231540076Y-117874200D02*
X231592457Y-117848010D01*
X231592457Y-117848010D02*
X231618647Y-117821819D01*
X231618647Y-117821819D02*
X231644838Y-117769438D01*
X231644838Y-117769438D02*
X231644838Y-117324200D01*
X232142456Y-117507533D02*
X232142456Y-117874200D01*
X232011504Y-117298010D02*
X231880551Y-117690867D01*
X231880551Y-117690867D02*
X232221028Y-117690867D01*
X239648552Y-110825999D02*
X239648552Y-111375999D01*
X239648552Y-111375999D02*
X239517600Y-111375999D01*
X239517600Y-111375999D02*
X239439028Y-111349809D01*
X239439028Y-111349809D02*
X239386647Y-111297428D01*
X239386647Y-111297428D02*
X239360457Y-111245047D01*
X239360457Y-111245047D02*
X239334266Y-111140285D01*
X239334266Y-111140285D02*
X239334266Y-111061713D01*
X239334266Y-111061713D02*
X239360457Y-110956951D01*
X239360457Y-110956951D02*
X239386647Y-110904570D01*
X239386647Y-110904570D02*
X239439028Y-110852190D01*
X239439028Y-110852190D02*
X239517600Y-110825999D01*
X239517600Y-110825999D02*
X239648552Y-110825999D01*
X238862838Y-111375999D02*
X238967600Y-111375999D01*
X238967600Y-111375999D02*
X239019981Y-111349809D01*
X239019981Y-111349809D02*
X239046171Y-111323618D01*
X239046171Y-111323618D02*
X239098552Y-111245047D01*
X239098552Y-111245047D02*
X239124743Y-111140285D01*
X239124743Y-111140285D02*
X239124743Y-110930761D01*
X239124743Y-110930761D02*
X239098552Y-110878380D01*
X239098552Y-110878380D02*
X239072362Y-110852190D01*
X239072362Y-110852190D02*
X239019981Y-110825999D01*
X239019981Y-110825999D02*
X238915219Y-110825999D01*
X238915219Y-110825999D02*
X238862838Y-110852190D01*
X238862838Y-110852190D02*
X238836647Y-110878380D01*
X238836647Y-110878380D02*
X238810457Y-110930761D01*
X238810457Y-110930761D02*
X238810457Y-111061713D01*
X238810457Y-111061713D02*
X238836647Y-111114094D01*
X238836647Y-111114094D02*
X238862838Y-111140285D01*
X238862838Y-111140285D02*
X238915219Y-111166475D01*
X238915219Y-111166475D02*
X239019981Y-111166475D01*
X239019981Y-111166475D02*
X239072362Y-111140285D01*
X239072362Y-111140285D02*
X239098552Y-111114094D01*
X239098552Y-111114094D02*
X239124743Y-111061713D01*
X218946419Y-99868581D02*
X218894038Y-99842390D01*
X218894038Y-99842390D02*
X218841657Y-99790010D01*
X218841657Y-99790010D02*
X218763085Y-99711438D01*
X218763085Y-99711438D02*
X218710704Y-99685248D01*
X218710704Y-99685248D02*
X218658323Y-99685248D01*
X218684514Y-99816200D02*
X218632133Y-99790010D01*
X218632133Y-99790010D02*
X218579752Y-99737629D01*
X218579752Y-99737629D02*
X218553561Y-99632867D01*
X218553561Y-99632867D02*
X218553561Y-99449533D01*
X218553561Y-99449533D02*
X218579752Y-99344771D01*
X218579752Y-99344771D02*
X218632133Y-99292390D01*
X218632133Y-99292390D02*
X218684514Y-99266200D01*
X218684514Y-99266200D02*
X218789276Y-99266200D01*
X218789276Y-99266200D02*
X218841657Y-99292390D01*
X218841657Y-99292390D02*
X218894038Y-99344771D01*
X218894038Y-99344771D02*
X218920228Y-99449533D01*
X218920228Y-99449533D02*
X218920228Y-99632867D01*
X218920228Y-99632867D02*
X218894038Y-99737629D01*
X218894038Y-99737629D02*
X218841657Y-99790010D01*
X218841657Y-99790010D02*
X218789276Y-99816200D01*
X218789276Y-99816200D02*
X218684514Y-99816200D01*
X219391656Y-99449533D02*
X219391656Y-99816200D01*
X219260704Y-99240010D02*
X219129751Y-99632867D01*
X219129751Y-99632867D02*
X219470228Y-99632867D01*
X217215628Y-132408924D02*
X217136244Y-132432537D01*
X217136244Y-132432537D02*
X217028974Y-132507648D01*
X217028974Y-132507648D02*
X217001088Y-132559146D01*
X217001088Y-132559146D02*
X216994657Y-132595623D01*
X216994657Y-132595623D02*
X217003247Y-132653553D01*
X217003247Y-132653553D02*
X217033292Y-132696461D01*
X217033292Y-132696461D02*
X217084790Y-132724346D01*
X217084790Y-132724346D02*
X217121266Y-132730778D01*
X217121266Y-132730778D02*
X217179196Y-132722188D01*
X217179196Y-132722188D02*
X217280035Y-132683553D01*
X217280035Y-132683553D02*
X217337965Y-132674962D01*
X217337965Y-132674962D02*
X217374441Y-132681394D01*
X217374441Y-132681394D02*
X217425939Y-132709280D01*
X217425939Y-132709280D02*
X217455984Y-132752188D01*
X217455984Y-132752188D02*
X217464574Y-132810118D01*
X217464574Y-132810118D02*
X217458143Y-132846594D01*
X217458143Y-132846594D02*
X217430257Y-132898093D01*
X217430257Y-132898093D02*
X217322987Y-132973204D01*
X217322987Y-132973204D02*
X217243603Y-132996817D01*
X217108447Y-133123426D02*
X216685710Y-132748004D01*
X216685710Y-132748004D02*
X216825228Y-133129903D01*
X216825228Y-133129903D02*
X216514078Y-132868182D01*
X216514078Y-132868182D02*
X216722275Y-133393827D01*
X216213723Y-133078493D02*
X216127907Y-133138582D01*
X216127907Y-133138582D02*
X216100021Y-133190080D01*
X216100021Y-133190080D02*
X216093589Y-133226557D01*
X216093589Y-133226557D02*
X216095748Y-133320963D01*
X216095748Y-133320963D02*
X216134383Y-133421801D01*
X216134383Y-133421801D02*
X216254561Y-133593433D01*
X216254561Y-133593433D02*
X216306059Y-133621319D01*
X216306059Y-133621319D02*
X216342536Y-133627751D01*
X216342536Y-133627751D02*
X216400466Y-133619160D01*
X216400466Y-133619160D02*
X216486282Y-133559071D01*
X216486282Y-133559071D02*
X216514167Y-133507573D01*
X216514167Y-133507573D02*
X216520599Y-133471096D01*
X216520599Y-133471096D02*
X216512009Y-133413166D01*
X216512009Y-133413166D02*
X216436897Y-133305896D01*
X216436897Y-133305896D02*
X216385399Y-133278011D01*
X216385399Y-133278011D02*
X216348923Y-133271579D01*
X216348923Y-133271579D02*
X216290993Y-133280169D01*
X216290993Y-133280169D02*
X216205177Y-133340258D01*
X216205177Y-133340258D02*
X216177291Y-133391757D01*
X216177291Y-133391757D02*
X216170859Y-133428233D01*
X216170859Y-133428233D02*
X216179450Y-133486163D01*
X169137391Y-125409851D02*
X168875846Y-125396144D01*
X168875846Y-125396144D02*
X168904630Y-124846898D01*
X169296949Y-124867459D02*
X169636959Y-124885278D01*
X169636959Y-124885278D02*
X169442911Y-125084920D01*
X169442911Y-125084920D02*
X169521375Y-125089032D01*
X169521375Y-125089032D02*
X169572313Y-125117928D01*
X169572313Y-125117928D02*
X169597097Y-125145453D01*
X169597097Y-125145453D02*
X169620510Y-125199133D01*
X169620510Y-125199133D02*
X169613657Y-125329906D01*
X169613657Y-125329906D02*
X169584761Y-125380844D01*
X169584761Y-125380844D02*
X169557235Y-125405628D01*
X169557235Y-125405628D02*
X169503556Y-125429041D01*
X169503556Y-125429041D02*
X169346628Y-125420817D01*
X169346628Y-125420817D02*
X169295690Y-125391921D01*
X169295690Y-125391921D02*
X169270906Y-125364396D01*
X230143600Y-101345552D02*
X229593600Y-101345552D01*
X229593600Y-101345552D02*
X229593600Y-101214600D01*
X229593600Y-101214600D02*
X229619790Y-101136028D01*
X229619790Y-101136028D02*
X229672171Y-101083647D01*
X229672171Y-101083647D02*
X229724552Y-101057457D01*
X229724552Y-101057457D02*
X229829314Y-101031266D01*
X229829314Y-101031266D02*
X229907886Y-101031266D01*
X229907886Y-101031266D02*
X230012648Y-101057457D01*
X230012648Y-101057457D02*
X230065029Y-101083647D01*
X230065029Y-101083647D02*
X230117410Y-101136028D01*
X230117410Y-101136028D02*
X230143600Y-101214600D01*
X230143600Y-101214600D02*
X230143600Y-101345552D01*
X230143600Y-100769362D02*
X230143600Y-100664600D01*
X230143600Y-100664600D02*
X230117410Y-100612219D01*
X230117410Y-100612219D02*
X230091219Y-100586028D01*
X230091219Y-100586028D02*
X230012648Y-100533647D01*
X230012648Y-100533647D02*
X229907886Y-100507457D01*
X229907886Y-100507457D02*
X229698362Y-100507457D01*
X229698362Y-100507457D02*
X229645981Y-100533647D01*
X229645981Y-100533647D02*
X229619790Y-100559838D01*
X229619790Y-100559838D02*
X229593600Y-100612219D01*
X229593600Y-100612219D02*
X229593600Y-100716981D01*
X229593600Y-100716981D02*
X229619790Y-100769362D01*
X229619790Y-100769362D02*
X229645981Y-100795552D01*
X229645981Y-100795552D02*
X229698362Y-100821743D01*
X229698362Y-100821743D02*
X229829314Y-100821743D01*
X229829314Y-100821743D02*
X229881695Y-100795552D01*
X229881695Y-100795552D02*
X229907886Y-100769362D01*
X229907886Y-100769362D02*
X229934076Y-100716981D01*
X229934076Y-100716981D02*
X229934076Y-100612219D01*
X229934076Y-100612219D02*
X229907886Y-100559838D01*
X229907886Y-100559838D02*
X229881695Y-100533647D01*
X229881695Y-100533647D02*
X229829314Y-100507457D01*
X225293781Y-95353180D02*
X225267590Y-95405561D01*
X225267590Y-95405561D02*
X225215210Y-95457942D01*
X225215210Y-95457942D02*
X225136638Y-95536514D01*
X225136638Y-95536514D02*
X225110448Y-95588895D01*
X225110448Y-95588895D02*
X225110448Y-95641276D01*
X225241400Y-95615085D02*
X225215210Y-95667466D01*
X225215210Y-95667466D02*
X225162829Y-95719847D01*
X225162829Y-95719847D02*
X225058067Y-95746038D01*
X225058067Y-95746038D02*
X224874733Y-95746038D01*
X224874733Y-95746038D02*
X224769971Y-95719847D01*
X224769971Y-95719847D02*
X224717590Y-95667466D01*
X224717590Y-95667466D02*
X224691400Y-95615085D01*
X224691400Y-95615085D02*
X224691400Y-95510323D01*
X224691400Y-95510323D02*
X224717590Y-95457942D01*
X224717590Y-95457942D02*
X224769971Y-95405561D01*
X224769971Y-95405561D02*
X224874733Y-95379371D01*
X224874733Y-95379371D02*
X225058067Y-95379371D01*
X225058067Y-95379371D02*
X225162829Y-95405561D01*
X225162829Y-95405561D02*
X225215210Y-95457942D01*
X225215210Y-95457942D02*
X225241400Y-95510323D01*
X225241400Y-95510323D02*
X225241400Y-95615085D01*
X224691400Y-95196038D02*
X224691400Y-94855562D01*
X224691400Y-94855562D02*
X224900924Y-95038895D01*
X224900924Y-95038895D02*
X224900924Y-94960324D01*
X224900924Y-94960324D02*
X224927114Y-94907943D01*
X224927114Y-94907943D02*
X224953305Y-94881752D01*
X224953305Y-94881752D02*
X225005686Y-94855562D01*
X225005686Y-94855562D02*
X225136638Y-94855562D01*
X225136638Y-94855562D02*
X225189019Y-94881752D01*
X225189019Y-94881752D02*
X225215210Y-94907943D01*
X225215210Y-94907943D02*
X225241400Y-94960324D01*
X225241400Y-94960324D02*
X225241400Y-95117467D01*
X225241400Y-95117467D02*
X225215210Y-95169848D01*
X225215210Y-95169848D02*
X225189019Y-95196038D01*
X243662647Y-104997800D02*
X243662647Y-104447800D01*
X243662647Y-104447800D02*
X243793599Y-104447800D01*
X243793599Y-104447800D02*
X243872171Y-104473990D01*
X243872171Y-104473990D02*
X243924552Y-104526371D01*
X243924552Y-104526371D02*
X243950742Y-104578752D01*
X243950742Y-104578752D02*
X243976933Y-104683514D01*
X243976933Y-104683514D02*
X243976933Y-104762086D01*
X243976933Y-104762086D02*
X243950742Y-104866848D01*
X243950742Y-104866848D02*
X243924552Y-104919229D01*
X243924552Y-104919229D02*
X243872171Y-104971610D01*
X243872171Y-104971610D02*
X243793599Y-104997800D01*
X243793599Y-104997800D02*
X243662647Y-104997800D01*
X244448361Y-104631133D02*
X244448361Y-104997800D01*
X244317409Y-104421610D02*
X244186456Y-104814467D01*
X244186456Y-104814467D02*
X244526933Y-104814467D01*
X234696447Y-116377000D02*
X234696447Y-115827000D01*
X234696447Y-115827000D02*
X234827399Y-115827000D01*
X234827399Y-115827000D02*
X234905971Y-115853190D01*
X234905971Y-115853190D02*
X234958352Y-115905571D01*
X234958352Y-115905571D02*
X234984542Y-115957952D01*
X234984542Y-115957952D02*
X235010733Y-116062714D01*
X235010733Y-116062714D02*
X235010733Y-116141286D01*
X235010733Y-116141286D02*
X234984542Y-116246048D01*
X234984542Y-116246048D02*
X234958352Y-116298429D01*
X234958352Y-116298429D02*
X234905971Y-116350810D01*
X234905971Y-116350810D02*
X234827399Y-116377000D01*
X234827399Y-116377000D02*
X234696447Y-116377000D01*
X235534542Y-116377000D02*
X235220256Y-116377000D01*
X235377399Y-116377000D02*
X235377399Y-115827000D01*
X235377399Y-115827000D02*
X235325018Y-115905571D01*
X235325018Y-115905571D02*
X235272637Y-115957952D01*
X235272637Y-115957952D02*
X235220256Y-115984143D01*
X217833400Y-108419847D02*
X218278638Y-108419847D01*
X218278638Y-108419847D02*
X218331019Y-108393657D01*
X218331019Y-108393657D02*
X218357210Y-108367466D01*
X218357210Y-108367466D02*
X218383400Y-108315085D01*
X218383400Y-108315085D02*
X218383400Y-108210323D01*
X218383400Y-108210323D02*
X218357210Y-108157942D01*
X218357210Y-108157942D02*
X218331019Y-108131752D01*
X218331019Y-108131752D02*
X218278638Y-108105561D01*
X218278638Y-108105561D02*
X217833400Y-108105561D01*
X218383400Y-107817467D02*
X218383400Y-107712705D01*
X218383400Y-107712705D02*
X218357210Y-107660324D01*
X218357210Y-107660324D02*
X218331019Y-107634133D01*
X218331019Y-107634133D02*
X218252448Y-107581752D01*
X218252448Y-107581752D02*
X218147686Y-107555562D01*
X218147686Y-107555562D02*
X217938162Y-107555562D01*
X217938162Y-107555562D02*
X217885781Y-107581752D01*
X217885781Y-107581752D02*
X217859590Y-107607943D01*
X217859590Y-107607943D02*
X217833400Y-107660324D01*
X217833400Y-107660324D02*
X217833400Y-107765086D01*
X217833400Y-107765086D02*
X217859590Y-107817467D01*
X217859590Y-107817467D02*
X217885781Y-107843657D01*
X217885781Y-107843657D02*
X217938162Y-107869848D01*
X217938162Y-107869848D02*
X218069114Y-107869848D01*
X218069114Y-107869848D02*
X218121495Y-107843657D01*
X218121495Y-107843657D02*
X218147686Y-107817467D01*
X218147686Y-107817467D02*
X218173876Y-107765086D01*
X218173876Y-107765086D02*
X218173876Y-107660324D01*
X218173876Y-107660324D02*
X218147686Y-107607943D01*
X218147686Y-107607943D02*
X218121495Y-107581752D01*
X218121495Y-107581752D02*
X218069114Y-107555562D01*
%TO.C,REF\u002A\u002A*%
D11*
X177640530Y-134855610D02*
X177640530Y-137558061D01*
X172241155Y-137558061D01*
X170390270Y-135732788D01*
X170390270Y-132545540D01*
X175358092Y-132545540D01*
X177640530Y-134855610D01*
D10*
%TO.C,C17*%
X230576800Y-112769764D02*
X230576800Y-112985436D01*
X231296800Y-112769764D02*
X231296800Y-112985436D01*
%TO.C,C4*%
X227799020Y-124411200D02*
X228080180Y-124411200D01*
X227799020Y-123391200D02*
X228080180Y-123391200D01*
%TO.C,R38*%
X241339900Y-98941658D02*
X241339900Y-98467142D01*
X240294900Y-98941658D02*
X240294900Y-98467142D01*
D12*
%TO.C,U10*%
X200389600Y-114577200D02*
X200389600Y-114877200D01*
X200389600Y-114577200D02*
X201189600Y-114577200D01*
X200389600Y-117177200D02*
X200389600Y-117477200D01*
X200389600Y-117477200D02*
X201189600Y-117477200D01*
X203789600Y-114577200D02*
X202989600Y-114577200D01*
X203789600Y-114877200D02*
X203789600Y-114577200D01*
X203789600Y-117477200D02*
X202989600Y-117477200D01*
X203789600Y-117477200D02*
X203789600Y-117177200D01*
X204689600Y-116777200D02*
G75*
G03*
X204689600Y-116777200I-200000J0D01*
G01*
D10*
%TO.C,C12*%
X201129020Y-113743200D02*
X201410180Y-113743200D01*
X201129020Y-112723200D02*
X201410180Y-112723200D01*
%TO.C,U13*%
X218293000Y-96690600D02*
X218293000Y-97140600D01*
X216023000Y-95870600D02*
X216023000Y-95420600D01*
X218293000Y-95870600D02*
X218293000Y-95420600D01*
%TO.C,Q1*%
X208612500Y-126506800D02*
X209262500Y-126506800D01*
X208612500Y-129626800D02*
X209262500Y-129626800D01*
X208612500Y-126506800D02*
X206937500Y-126506800D01*
X208612500Y-129626800D02*
X207962500Y-129626800D01*
%TO.C,F1*%
X214075600Y-123045136D02*
X214075600Y-124249264D01*
X215895600Y-123045136D02*
X215895600Y-124249264D01*
%TO.C,TP4*%
X188402000Y-132130800D02*
G75*
G03*
X188402000Y-132130800I-950000J0D01*
G01*
%TO.C,C3*%
X231729000Y-100201600D02*
X233599000Y-100201600D01*
X233599000Y-100201600D02*
X233599000Y-96291600D01*
X231729000Y-96291600D02*
X231729000Y-100201600D01*
%TO.C,L2*%
X167372228Y-109016619D02*
X169401443Y-109122966D01*
X167265881Y-111045834D02*
X167372228Y-109016619D01*
X169401443Y-109122966D02*
X169295096Y-111152181D01*
X169295096Y-111152181D02*
X167265881Y-111045834D01*
X166883725Y-111526551D02*
G75*
G03*
X166883725Y-111526551I-151734J0D01*
G01*
%TO.C,D7*%
X240968800Y-105204800D02*
X239568800Y-105204800D01*
X239568800Y-107524800D02*
X241468800Y-107524800D01*
%TO.C,R37*%
X238770900Y-99330742D02*
X238770900Y-99805258D01*
X239815900Y-99330742D02*
X239815900Y-99805258D01*
D13*
%TO.C,U12*%
X209625298Y-125754498D02*
X202005298Y-125754498D01*
X202005298Y-125754498D02*
X202005298Y-120674498D01*
X202005298Y-120674498D02*
X209625298Y-120674498D01*
X209625298Y-120674498D02*
X209625298Y-125754498D01*
X210185903Y-126135498D02*
G75*
G03*
X210185903Y-126135498I-179605J0D01*
G01*
D10*
%TO.C,Q7*%
X218084400Y-123763600D02*
X218734400Y-123763600D01*
X218084400Y-126883600D02*
X218734400Y-126883600D01*
X218084400Y-123763600D02*
X216409400Y-123763600D01*
X218084400Y-126883600D02*
X217434400Y-126883600D01*
%TO.C,C8*%
X218446236Y-102306800D02*
X218230564Y-102306800D01*
X218446236Y-103026800D02*
X218230564Y-103026800D01*
%TO.C,L1*%
X185372228Y-109016619D02*
X187401443Y-109122966D01*
X185265881Y-111045834D02*
X185372228Y-109016619D01*
X187401443Y-109122966D02*
X187295096Y-111152181D01*
X187295096Y-111152181D02*
X185265881Y-111045834D01*
X184883725Y-111526551D02*
G75*
G03*
X184883725Y-111526551I-151734J0D01*
G01*
%TO.C,Q5*%
X222961200Y-124830400D02*
X223611200Y-124830400D01*
X222961200Y-127950400D02*
X223611200Y-127950400D01*
X222961200Y-124830400D02*
X221286200Y-124830400D01*
X222961200Y-127950400D02*
X222311200Y-127950400D01*
%TO.C,D3*%
X220901600Y-121377200D02*
X216891600Y-121377200D01*
X220901600Y-123377200D02*
X216891600Y-123377200D01*
X220901600Y-123377200D02*
X220901600Y-121377200D01*
D13*
%TO.C,U11*%
X230530400Y-114909600D02*
X230530400Y-113893600D01*
X232156000Y-114909600D02*
X230530400Y-114909600D01*
X230530400Y-113893600D02*
X232156000Y-113893600D01*
X232156000Y-113893600D02*
X232156000Y-114909600D01*
X230440792Y-115112800D02*
G75*
G03*
X230440792Y-115112800I-113592J0D01*
G01*
D10*
%TO.C,C5*%
X226563600Y-102076364D02*
X226563600Y-102292036D01*
X227283600Y-102076364D02*
X227283600Y-102292036D01*
%TO.C,R36*%
X189777900Y-98789258D02*
X189777900Y-98314742D01*
X188732900Y-98789258D02*
X188732900Y-98314742D01*
%TO.C,C23*%
X228105580Y-116660200D02*
X227824420Y-116660200D01*
X228105580Y-117680200D02*
X227824420Y-117680200D01*
%TO.C,R11*%
X191463959Y-107976400D02*
X191771241Y-107976400D01*
X191463959Y-108736400D02*
X191771241Y-108736400D01*
%TO.C,R4*%
X190282300Y-98314742D02*
X190282300Y-98789258D01*
X191327300Y-98314742D02*
X191327300Y-98789258D01*
D14*
%TO.C,SW7*%
X164618494Y-101487048D02*
X165819994Y-103568107D01*
X165823360Y-103571937D02*
X171980800Y-100016937D01*
X171980800Y-100016937D02*
X170775934Y-97932048D01*
D10*
%TO.C,C9*%
X216528764Y-107776600D02*
X216744436Y-107776600D01*
X216528764Y-107056600D02*
X216744436Y-107056600D01*
D14*
%TO.C,SW8*%
X266191380Y-97932048D02*
X264989880Y-100013107D01*
X264988246Y-100017937D02*
X271145686Y-103572937D01*
X271145686Y-103572937D02*
X272348820Y-101487048D01*
D10*
%TO.C,Q6*%
X222961200Y-124496000D02*
X222311200Y-124496000D01*
X222961200Y-121376000D02*
X222311200Y-121376000D01*
X222961200Y-124496000D02*
X224636200Y-124496000D01*
X222961200Y-121376000D02*
X223611200Y-121376000D01*
%TO.C,C13*%
X197573020Y-117350000D02*
X197854180Y-117350000D01*
X197573020Y-116330000D02*
X197854180Y-116330000D01*
%TO.C,U8*%
X219874800Y-104448100D02*
X219874800Y-103798100D01*
X219874800Y-103798100D02*
X220524800Y-103798100D01*
X227094800Y-110368100D02*
X227094800Y-111018100D01*
X227094800Y-111018100D02*
X226444800Y-111018100D01*
X227094800Y-104448100D02*
X227094800Y-103798100D01*
X227094800Y-103798100D02*
X226444800Y-103798100D01*
X219874800Y-110368100D02*
X219874800Y-111018100D01*
%TO.C,F2*%
X229306800Y-98646064D02*
X229306800Y-97441936D01*
X227486800Y-98646064D02*
X227486800Y-97441936D01*
%TO.C,L4*%
X185372228Y-122016619D02*
X187401443Y-122122966D01*
X185265881Y-124045834D02*
X185372228Y-122016619D01*
X187401443Y-122122966D02*
X187295096Y-124152181D01*
X187295096Y-124152181D02*
X185265881Y-124045834D01*
X184883725Y-124526551D02*
G75*
G03*
X184883725Y-124526551I-151734J0D01*
G01*
%TO.C,J4*%
X277380200Y-143135800D02*
X277380200Y-145255800D01*
X267320200Y-143135800D02*
X267320200Y-145255800D01*
X279440200Y-143135800D02*
X279440200Y-144195800D01*
X277380200Y-145255800D02*
X267320200Y-145255800D01*
X278380200Y-143135800D02*
X279440200Y-143135800D01*
X277380200Y-143135800D02*
X267320200Y-143135800D01*
%TO.C,R14*%
X231963700Y-108017542D02*
X231963700Y-108492058D01*
X233008700Y-108017542D02*
X233008700Y-108492058D01*
%TO.C,D8*%
X242197400Y-111618800D02*
X242197400Y-113018800D01*
X244517400Y-113018800D02*
X244517400Y-111118800D01*
%TO.C,D2*%
X213018000Y-98580800D02*
X214718000Y-98580800D01*
X213018000Y-98580800D02*
X213018000Y-95320800D01*
X214718000Y-98580800D02*
X214718000Y-95320800D01*
%TO.C,JP1*%
X232578400Y-120221200D02*
X232578400Y-117421200D01*
X232578400Y-117421200D02*
X234578400Y-117421200D01*
X234578400Y-117421200D02*
X234578400Y-120221200D01*
X234578400Y-120221200D02*
X232578400Y-120221200D01*
%TO.C,C10*%
X218151764Y-104855600D02*
X218367436Y-104855600D01*
X218151764Y-104135600D02*
X218367436Y-104135600D01*
%TO.C,U6*%
X196037200Y-121040800D02*
X194537200Y-121040800D01*
X196037200Y-117820800D02*
X193112200Y-117820800D01*
X196037200Y-121040800D02*
X197537200Y-121040800D01*
X196037200Y-117820800D02*
X197537200Y-117820800D01*
%TO.C,D5*%
X243521000Y-110405400D02*
X244921000Y-110405400D01*
X244921000Y-108085400D02*
X243021000Y-108085400D01*
%TO.C,Y1*%
X228873200Y-108505400D02*
X228873200Y-107505400D01*
X230873200Y-104905400D02*
X231273200Y-104905400D01*
X231273200Y-104905400D02*
X231273200Y-105705400D01*
X228873200Y-105705400D02*
X228873200Y-104905400D01*
X231273200Y-107505400D02*
X231273200Y-108505400D01*
X230873200Y-108505400D02*
X228873200Y-108505400D01*
X230873200Y-108705400D02*
X231273200Y-108705400D01*
X230873200Y-108505400D02*
X231273200Y-108505400D01*
X231273200Y-107505400D02*
X231673200Y-107505400D01*
X228873200Y-108705400D02*
X230873200Y-108705400D01*
X228873200Y-104905400D02*
X230873200Y-104905400D01*
D15*
%TO.C,J1*%
X194695700Y-131490000D02*
X193795700Y-131490000D01*
X194245700Y-131048000D02*
X194245700Y-131948000D01*
X194245700Y-127140000D02*
X194245700Y-128040000D01*
D10*
%TO.C,C1*%
X177450533Y-127963200D02*
X177743067Y-127963200D01*
X177450533Y-128983200D02*
X177743067Y-128983200D01*
%TO.C,C7*%
X218649436Y-101290800D02*
X218433764Y-101290800D01*
X218649436Y-102010800D02*
X218433764Y-102010800D01*
%TO.C,C19*%
X198376000Y-101689780D02*
X198376000Y-101408620D01*
X197356000Y-101689780D02*
X197356000Y-101408620D01*
%TO.C,D10*%
X227062400Y-96084800D02*
X225362400Y-96084800D01*
X227062400Y-96084800D02*
X227062400Y-99344800D01*
X225362400Y-96084800D02*
X225362400Y-99344800D01*
%TO.C,TP5*%
X185608000Y-97891600D02*
G75*
G03*
X185608000Y-97891600I-950000J0D01*
G01*
%TO.C,C2*%
X188872400Y-116579867D02*
X188872400Y-116287333D01*
X189892400Y-116579867D02*
X189892400Y-116287333D01*
%TO.C,Q2*%
X208635600Y-130012000D02*
X209285600Y-130012000D01*
X208635600Y-133132000D02*
X209285600Y-133132000D01*
X208635600Y-130012000D02*
X206960600Y-130012000D01*
X208635600Y-133132000D02*
X207985600Y-133132000D01*
D14*
%TO.C,U1*%
X199336000Y-100254800D02*
X199336000Y-94854800D01*
X212536000Y-94854800D02*
X212536000Y-100254800D01*
X199336000Y-94854800D02*
X212536000Y-94854800D01*
D15*
X198686000Y-101854800D02*
G75*
G03*
X198686000Y-101854800I-100000J0D01*
G01*
D10*
%TO.C,R13*%
X231963700Y-104969542D02*
X231963700Y-105444058D01*
X233008700Y-104969542D02*
X233008700Y-105444058D01*
D12*
%TO.C,U5*%
X205080400Y-114563800D02*
X205080400Y-114863800D01*
X205080400Y-114563800D02*
X205880400Y-114563800D01*
X205080400Y-117163800D02*
X205080400Y-117463800D01*
X205080400Y-117463800D02*
X205880400Y-117463800D01*
X208480400Y-114563800D02*
X207680400Y-114563800D01*
X208480400Y-114863800D02*
X208480400Y-114563800D01*
X208480400Y-117463800D02*
X207680400Y-117463800D01*
X208480400Y-117463800D02*
X208480400Y-117163800D01*
X209380400Y-116763800D02*
G75*
G03*
X209380400Y-116763800I-200000J0D01*
G01*
D10*
%TO.C,U4*%
X231872400Y-122527600D02*
X230692400Y-122527600D01*
X230692400Y-122857600D02*
X230692400Y-122527600D01*
X230692400Y-122857600D02*
X227972400Y-122857600D01*
X230692400Y-118137600D02*
X230692400Y-118467600D01*
X227972400Y-122857600D02*
X227972400Y-122527600D01*
X227972400Y-118467600D02*
X227972400Y-118137600D01*
X227972400Y-118137600D02*
X230692400Y-118137600D01*
%TO.C,D6*%
X240984000Y-108060000D02*
X239584000Y-108060000D01*
X239584000Y-110380000D02*
X241484000Y-110380000D01*
D15*
%TO.C,J3*%
X282300300Y-128960400D02*
X281400300Y-128960400D01*
X281850300Y-128518400D02*
X281850300Y-129418400D01*
X281850300Y-124610400D02*
X281850300Y-125510400D01*
D10*
%TO.C,Q4*%
X222038400Y-98388400D02*
X222038400Y-96988400D01*
X219718400Y-96988400D02*
X219718400Y-98888400D01*
D15*
%TO.C,J2*%
X154122500Y-124999200D02*
X155022500Y-124999200D01*
X154572500Y-125441200D02*
X154572500Y-124541200D01*
X154572500Y-129349200D02*
X154572500Y-128449200D01*
D10*
%TO.C,SW9*%
X215944626Y-139703798D02*
X213650320Y-136427190D01*
X221022688Y-131265002D02*
X213650320Y-136427190D01*
X223316994Y-134541610D02*
X215944626Y-139703798D01*
X223316994Y-134541610D02*
X221022688Y-131265002D01*
%TO.C,L3*%
X167372228Y-122016619D02*
X169401443Y-122122966D01*
X167265881Y-124045834D02*
X167372228Y-122016619D01*
X169401443Y-122122966D02*
X169295096Y-124152181D01*
X169295096Y-124152181D02*
X167265881Y-124045834D01*
X166883725Y-124526551D02*
G75*
G03*
X166883725Y-124526551I-151734J0D01*
G01*
%TO.C,D9*%
X229731200Y-99596800D02*
X231431200Y-99596800D01*
X229731200Y-99596800D02*
X229731200Y-96336800D01*
X231431200Y-99596800D02*
X231431200Y-96336800D01*
%TO.C,Q3*%
X224934000Y-98388400D02*
X224934000Y-96988400D01*
X222614000Y-96988400D02*
X222614000Y-98888400D01*
%TO.C,D4*%
X243521000Y-107545600D02*
X244921000Y-107545600D01*
X244921000Y-105225600D02*
X243021000Y-105225600D01*
%TO.C,D1*%
X237112400Y-115556400D02*
X237112400Y-113856400D01*
X237112400Y-115556400D02*
X233852400Y-115556400D01*
X237112400Y-113856400D02*
X233852400Y-113856400D01*
D13*
%TO.C,U9*%
X216673993Y-111748008D02*
X218705993Y-111748008D01*
X218705993Y-111748008D02*
X218705993Y-108700008D01*
X218705993Y-108700008D02*
X216673993Y-108700008D01*
X216673993Y-108700008D02*
X216673993Y-111748008D01*
X216596378Y-112052808D02*
G75*
G03*
X216596378Y-112052808I-227185J0D01*
G01*
%TD*%
M02*
