%TF.GenerationSoftware,KiCad,Pcbnew,7.0.6*%
%TF.CreationDate,2023-12-15T21:48:44-08:00*%
%TF.ProjectId,UGC_Main,5547435f-4d61-4696-9e2e-6b696361645f,rev?*%
%TF.SameCoordinates,Original*%
%TF.FileFunction,Soldermask,Top*%
%TF.FilePolarity,Negative*%
%FSLAX46Y46*%
G04 Gerber Fmt 4.6, Leading zero omitted, Abs format (unit mm)*
G04 Created by KiCad (PCBNEW 7.0.6) date 2023-12-15 21:48:44*
%MOMM*%
%LPD*%
G01*
G04 APERTURE LIST*
G04 Aperture macros list*
%AMRoundRect*
0 Rectangle with rounded corners*
0 $1 Rounding radius*
0 $2 $3 $4 $5 $6 $7 $8 $9 X,Y pos of 4 corners*
0 Add a 4 corners polygon primitive as box body*
4,1,4,$2,$3,$4,$5,$6,$7,$8,$9,$2,$3,0*
0 Add four circle primitives for the rounded corners*
1,1,$1+$1,$2,$3*
1,1,$1+$1,$4,$5*
1,1,$1+$1,$6,$7*
1,1,$1+$1,$8,$9*
0 Add four rect primitives between the rounded corners*
20,1,$1+$1,$2,$3,$4,$5,0*
20,1,$1+$1,$4,$5,$6,$7,0*
20,1,$1+$1,$6,$7,$8,$9,0*
20,1,$1+$1,$8,$9,$2,$3,0*%
%AMHorizOval*
0 Thick line with rounded ends*
0 $1 width*
0 $2 $3 position (X,Y) of the first rounded end (center of the circle)*
0 $4 $5 position (X,Y) of the second rounded end (center of the circle)*
0 Add line between two ends*
20,1,$1,$2,$3,$4,$5,0*
0 Add two circle primitives to create the rounded ends*
1,1,$1,$2,$3*
1,1,$1,$4,$5*%
%AMRotRect*
0 Rectangle, with rotation*
0 The origin of the aperture is its center*
0 $1 length*
0 $2 width*
0 $3 Rotation angle, in degrees counterclockwise*
0 Add horizontal line*
21,1,$1,$2,0,0,$3*%
G04 Aperture macros list end*
%ADD10C,0.000000*%
%ADD11C,0.250000*%
%ADD12C,0.010000*%
%ADD13C,3.050000*%
%ADD14C,3.800000*%
%ADD15C,2.050000*%
%ADD16C,0.025000*%
%ADD17O,1.250000X2.500000*%
%ADD18O,1.600000X2.500000*%
%ADD19C,2.050000*%
%ADD20C,0.650000*%
%ADD21O,1.000000X2.000000*%
%ADD22R,0.300000X0.400000*%
%ADD23R,1.600000X0.200000*%
%ADD24RoundRect,0.250000X0.250000X0.250000X-0.250000X0.250000X-0.250000X-0.250000X0.250000X-0.250000X0*%
%ADD25R,0.650000X0.400000*%
%ADD26R,0.400000X0.650000*%
%ADD27RoundRect,0.250000X0.250000X-0.250000X0.250000X0.250000X-0.250000X0.250000X-0.250000X-0.250000X0*%
%ADD28RotRect,0.550000X0.550000X357.000000*%
%ADD29RotRect,1.350000X1.350000X215.000000*%
%ADD30O,3.250000X2.250000*%
%ADD31R,0.745000X0.280000*%
%ADD32R,0.280000X0.745000*%
%ADD33RoundRect,0.100000X0.100000X-0.130000X0.100000X0.130000X-0.100000X0.130000X-0.100000X-0.130000X0*%
%ADD34RoundRect,0.100000X-0.100000X0.130000X-0.100000X-0.130000X0.100000X-0.130000X0.100000X0.130000X0*%
%ADD35RoundRect,0.200000X-0.275000X0.200000X-0.275000X-0.200000X0.275000X-0.200000X0.275000X0.200000X0*%
%ADD36R,0.800000X0.400000*%
%ADD37R,0.400000X0.800000*%
%ADD38R,1.450000X1.450000*%
%ADD39R,0.700000X0.700000*%
%ADD40RoundRect,0.150000X-0.587500X-0.150000X0.587500X-0.150000X0.587500X0.150000X-0.587500X0.150000X0*%
%ADD41RoundRect,0.237500X0.237500X-0.300000X0.237500X0.300000X-0.237500X0.300000X-0.237500X-0.300000X0*%
%ADD42C,1.500000*%
%ADD43RoundRect,0.250000X-0.250000X0.250000X-0.250000X-0.250000X0.250000X-0.250000X0.250000X0.250000X0*%
%ADD44RoundRect,0.100000X-0.130000X-0.100000X0.130000X-0.100000X0.130000X0.100000X-0.130000X0.100000X0*%
%ADD45RoundRect,0.225000X0.250000X-0.225000X0.250000X0.225000X-0.250000X0.225000X-0.250000X-0.225000X0*%
%ADD46RoundRect,0.140000X0.140000X0.170000X-0.140000X0.170000X-0.140000X-0.170000X0.140000X-0.170000X0*%
%ADD47RotRect,1.000000X1.000000X267.000000*%
%ADD48RoundRect,0.237500X-0.300000X-0.237500X0.300000X-0.237500X0.300000X0.237500X-0.300000X0.237500X0*%
%ADD49R,1.900000X0.400000*%
%ADD50RoundRect,0.100000X0.130000X0.100000X-0.130000X0.100000X-0.130000X-0.100000X0.130000X-0.100000X0*%
%ADD51RoundRect,0.100000X-0.712500X-0.100000X0.712500X-0.100000X0.712500X0.100000X-0.712500X0.100000X0*%
%ADD52RoundRect,0.140000X-0.140000X-0.170000X0.140000X-0.170000X0.140000X0.170000X-0.140000X0.170000X0*%
%ADD53C,0.500000*%
%ADD54R,1.500000X1.000000*%
%ADD55R,1.350000X1.350000*%
%ADD56O,1.350000X1.350000*%
%ADD57RoundRect,0.250001X0.624999X-0.462499X0.624999X0.462499X-0.624999X0.462499X-0.624999X-0.462499X0*%
%ADD58RoundRect,0.050000X0.050000X-0.387500X0.050000X0.387500X-0.050000X0.387500X-0.050000X-0.387500X0*%
%ADD59RoundRect,0.050000X0.387500X-0.050000X0.387500X0.050000X-0.387500X0.050000X-0.387500X-0.050000X0*%
%ADD60R,3.200000X3.200000*%
%ADD61RoundRect,0.225000X-0.225000X-0.250000X0.225000X-0.250000X0.225000X0.250000X-0.225000X0.250000X0*%
%ADD62RoundRect,0.150000X0.587500X0.150000X-0.587500X0.150000X-0.587500X-0.150000X0.587500X-0.150000X0*%
%ADD63HorizOval,2.250000X-0.250000X-0.433013X0.250000X0.433013X0*%
%ADD64HorizOval,1.700000X0.259808X-0.150000X-0.259808X0.150000X0*%
%ADD65HorizOval,2.250000X-0.250000X0.433013X0.250000X-0.433013X0*%
%ADD66HorizOval,1.700000X0.259808X0.150000X-0.259808X-0.150000X0*%
%ADD67RoundRect,0.135000X-0.135000X-0.185000X0.135000X-0.185000X0.135000X0.185000X-0.135000X0.185000X0*%
%ADD68RoundRect,0.200000X0.275000X-0.200000X0.275000X0.200000X-0.275000X0.200000X-0.275000X-0.200000X0*%
%ADD69RoundRect,0.140000X-0.170000X0.140000X-0.170000X-0.140000X0.170000X-0.140000X0.170000X0.140000X0*%
%ADD70C,0.230000*%
%ADD71RoundRect,0.225000X0.225000X0.375000X-0.225000X0.375000X-0.225000X-0.375000X0.225000X-0.375000X0*%
%ADD72R,1.300000X0.600000*%
%ADD73R,2.300000X3.200000*%
%ADD74C,1.750000*%
%ADD75C,1.600000*%
%ADD76C,1.250000*%
%ADD77RoundRect,0.250000X-0.425000X0.450000X-0.425000X-0.450000X0.425000X-0.450000X0.425000X0.450000X0*%
%ADD78RoundRect,0.250001X-0.624999X0.462499X-0.624999X-0.462499X0.624999X-0.462499X0.624999X0.462499X0*%
%ADD79RoundRect,0.050000X0.075000X-0.225000X0.075000X0.225000X-0.075000X0.225000X-0.075000X-0.225000X0*%
%ADD80RoundRect,0.050000X0.050000X-0.225000X0.050000X0.225000X-0.050000X0.225000X-0.050000X-0.225000X0*%
%ADD81RoundRect,0.050000X0.250000X-0.100000X0.250000X0.100000X-0.250000X0.100000X-0.250000X-0.100000X0*%
%ADD82RotRect,1.000000X1.000000X357.000000*%
%ADD83RoundRect,0.250000X0.475000X-0.250000X0.475000X0.250000X-0.475000X0.250000X-0.475000X-0.250000X0*%
%ADD84RoundRect,0.250000X-0.475000X0.250000X-0.475000X-0.250000X0.475000X-0.250000X0.475000X0.250000X0*%
%ADD85RoundRect,0.250000X0.375000X0.850000X-0.375000X0.850000X-0.375000X-0.850000X0.375000X-0.850000X0*%
%ADD86RoundRect,0.250000X-0.350000X-0.625000X0.350000X-0.625000X0.350000X0.625000X-0.350000X0.625000X0*%
%ADD87O,1.200000X1.750000*%
G04 APERTURE END LIST*
D10*
G36*
X196138800Y-143103600D02*
G01*
X196262106Y-143187192D01*
X196376141Y-143272142D01*
X196481154Y-143358278D01*
X196577394Y-143445426D01*
X196665108Y-143533414D01*
X196744545Y-143622068D01*
X196815953Y-143711215D01*
X196879580Y-143800682D01*
X196935676Y-143890295D01*
X196984487Y-143979881D01*
X197026263Y-144069268D01*
X197061251Y-144158282D01*
X197089701Y-144246749D01*
X197111859Y-144334497D01*
X197127975Y-144421352D01*
X197138297Y-144507142D01*
X197143073Y-144591692D01*
X197142551Y-144674831D01*
X197136980Y-144756384D01*
X197126607Y-144836178D01*
X197111682Y-144914040D01*
X197092453Y-144989798D01*
X197069167Y-145063277D01*
X197042074Y-145134305D01*
X197011420Y-145202708D01*
X196977456Y-145268313D01*
X196940428Y-145330948D01*
X196900586Y-145390438D01*
X196858177Y-145446611D01*
X196813450Y-145499293D01*
X196766653Y-145548312D01*
X196745009Y-145570862D01*
X196724729Y-145593834D01*
X196705823Y-145617187D01*
X196688299Y-145640877D01*
X196672165Y-145664863D01*
X196657430Y-145689103D01*
X196644103Y-145713553D01*
X196632191Y-145738171D01*
X196621704Y-145762915D01*
X196612650Y-145787743D01*
X196605036Y-145812612D01*
X196598873Y-145837480D01*
X196594168Y-145862305D01*
X196590929Y-145887043D01*
X196589166Y-145911653D01*
X196588886Y-145936092D01*
X196590099Y-145960318D01*
X196592812Y-145984288D01*
X196597035Y-146007961D01*
X196602775Y-146031293D01*
X196610041Y-146054242D01*
X196618841Y-146076766D01*
X196629185Y-146098823D01*
X196641080Y-146120370D01*
X196654535Y-146141365D01*
X196669558Y-146161764D01*
X196686159Y-146181527D01*
X196704345Y-146200611D01*
X196724124Y-146218972D01*
X196745506Y-146236569D01*
X196768499Y-146253360D01*
X196793112Y-146269302D01*
X196825068Y-146286463D01*
X196857609Y-146300782D01*
X196890622Y-146312326D01*
X196923995Y-146321159D01*
X196957615Y-146327347D01*
X196991370Y-146330955D01*
X197025146Y-146332049D01*
X197058832Y-146330693D01*
X197092314Y-146326954D01*
X197125480Y-146320897D01*
X197158217Y-146312588D01*
X197190413Y-146302090D01*
X197221955Y-146289471D01*
X197252730Y-146274795D01*
X197282626Y-146258129D01*
X197311530Y-146239536D01*
X197339329Y-146219083D01*
X197365911Y-146196835D01*
X197391163Y-146172858D01*
X197414973Y-146147216D01*
X197437228Y-146119976D01*
X197457814Y-146091202D01*
X197476621Y-146060960D01*
X197493534Y-146029316D01*
X197508442Y-145996335D01*
X197521231Y-145962082D01*
X197531789Y-145926623D01*
X197540004Y-145890022D01*
X197545763Y-145852347D01*
X197548952Y-145813661D01*
X197549460Y-145774030D01*
X197547174Y-145733520D01*
X197539223Y-145612543D01*
X197537821Y-145497747D01*
X197539637Y-145442709D01*
X197543163Y-145389268D01*
X197548423Y-145337440D01*
X197555443Y-145287243D01*
X197564244Y-145238692D01*
X197574853Y-145191806D01*
X197587294Y-145146601D01*
X197601590Y-145103094D01*
X197617765Y-145061302D01*
X197635845Y-145021241D01*
X197655852Y-144982930D01*
X197677812Y-144946385D01*
X197701749Y-144911622D01*
X197727687Y-144878660D01*
X197755649Y-144847514D01*
X197785661Y-144818202D01*
X197817746Y-144790740D01*
X197851930Y-144765146D01*
X197888235Y-144741437D01*
X197926686Y-144719629D01*
X197967308Y-144699739D01*
X198010124Y-144681785D01*
X198055159Y-144665784D01*
X198102438Y-144651752D01*
X198151983Y-144639706D01*
X198203820Y-144629663D01*
X198257973Y-144621641D01*
X198314466Y-144615656D01*
X198270534Y-144703884D01*
X198235162Y-144787712D01*
X198207881Y-144867472D01*
X198188220Y-144943491D01*
X198175711Y-145016100D01*
X198169882Y-145085627D01*
X198170264Y-145152403D01*
X198176387Y-145216756D01*
X198187780Y-145279016D01*
X198203975Y-145339513D01*
X198224501Y-145398576D01*
X198248889Y-145456535D01*
X198276667Y-145513718D01*
X198307367Y-145570455D01*
X198375651Y-145683911D01*
X198526598Y-145919969D01*
X198601742Y-146047842D01*
X198637586Y-146115393D01*
X198671653Y-146185792D01*
X198703472Y-146259370D01*
X198732573Y-146336455D01*
X198758487Y-146417377D01*
X198780742Y-146502465D01*
X198798870Y-146592050D01*
X198812401Y-146686459D01*
X198820863Y-146786024D01*
X198823789Y-146891072D01*
X198817211Y-147057675D01*
X198797214Y-147228920D01*
X198763400Y-147403090D01*
X198715372Y-147578472D01*
X198652732Y-147753350D01*
X198575083Y-147926009D01*
X198530506Y-148010971D01*
X198482028Y-148094734D01*
X198429600Y-148177086D01*
X198373170Y-148257810D01*
X198312691Y-148336694D01*
X198248112Y-148413523D01*
X198179383Y-148488082D01*
X198106455Y-148560156D01*
X198029279Y-148629533D01*
X197947804Y-148695996D01*
X197861981Y-148759332D01*
X197771760Y-148819327D01*
X197677092Y-148875765D01*
X197577927Y-148928433D01*
X197474215Y-148977117D01*
X197365906Y-149021601D01*
X197252952Y-149061672D01*
X197135302Y-149097115D01*
X197012907Y-149127716D01*
X196885716Y-149153260D01*
X196944182Y-149123357D01*
X196998112Y-149090770D01*
X197047625Y-149055606D01*
X197092835Y-149017971D01*
X197133860Y-148977972D01*
X197170815Y-148935715D01*
X197203817Y-148891307D01*
X197232981Y-148844855D01*
X197258426Y-148796465D01*
X197280265Y-148746243D01*
X197298617Y-148694297D01*
X197313597Y-148640733D01*
X197325321Y-148585657D01*
X197333906Y-148529176D01*
X197339467Y-148471397D01*
X197342122Y-148412426D01*
X197342244Y-148369209D01*
X197340154Y-148326438D01*
X197335885Y-148284213D01*
X197329474Y-148242631D01*
X197320956Y-148201789D01*
X197310365Y-148161788D01*
X197297738Y-148122723D01*
X197283108Y-148084695D01*
X197266511Y-148047799D01*
X197247982Y-148012136D01*
X197227557Y-147977802D01*
X197205270Y-147944897D01*
X197181157Y-147913517D01*
X197155252Y-147883762D01*
X197127591Y-147855729D01*
X197098210Y-147829516D01*
X197067142Y-147805222D01*
X197034423Y-147782945D01*
X197000089Y-147762782D01*
X196964174Y-147744832D01*
X196926713Y-147729192D01*
X196887743Y-147715962D01*
X196847297Y-147705239D01*
X196805411Y-147697121D01*
X196762120Y-147691707D01*
X196717459Y-147689094D01*
X196671464Y-147689380D01*
X196624169Y-147692664D01*
X196575609Y-147699044D01*
X196525820Y-147708618D01*
X196474837Y-147721483D01*
X196422695Y-147737739D01*
X196369093Y-147753623D01*
X196316259Y-147765360D01*
X196264305Y-147773027D01*
X196213341Y-147776703D01*
X196163476Y-147776464D01*
X196114821Y-147772388D01*
X196067487Y-147764552D01*
X196021583Y-147753035D01*
X195977219Y-147737913D01*
X195934506Y-147719264D01*
X195893555Y-147697166D01*
X195854474Y-147671696D01*
X195817375Y-147642932D01*
X195782368Y-147610951D01*
X195749562Y-147575830D01*
X195719069Y-147537648D01*
X195690998Y-147496481D01*
X195665459Y-147452407D01*
X195642564Y-147405505D01*
X195622421Y-147355850D01*
X195605142Y-147303521D01*
X195590835Y-147248596D01*
X195579613Y-147191151D01*
X195571584Y-147131264D01*
X195566860Y-147069014D01*
X195565550Y-147004476D01*
X195567764Y-146937730D01*
X195573613Y-146868851D01*
X195583207Y-146797919D01*
X195596655Y-146725010D01*
X195614070Y-146650202D01*
X195635560Y-146573572D01*
X195548400Y-146655017D01*
X195467939Y-146739189D01*
X195394094Y-146825832D01*
X195326780Y-146914688D01*
X195265915Y-147005502D01*
X195211414Y-147098017D01*
X195163195Y-147191975D01*
X195121173Y-147287120D01*
X195085265Y-147383196D01*
X195055387Y-147479945D01*
X195031456Y-147577110D01*
X195013389Y-147674435D01*
X195001101Y-147771664D01*
X194994509Y-147868538D01*
X194993530Y-147964803D01*
X194998079Y-148060200D01*
X195008075Y-148154473D01*
X195023432Y-148247365D01*
X195044067Y-148338620D01*
X195069897Y-148427981D01*
X195100838Y-148515191D01*
X195136806Y-148599993D01*
X195177719Y-148682130D01*
X195223492Y-148761346D01*
X195274042Y-148837384D01*
X195329285Y-148909987D01*
X195389138Y-148978898D01*
X195453517Y-149043861D01*
X195522338Y-149104619D01*
X195595519Y-149160914D01*
X195672975Y-149212491D01*
X195754622Y-149259093D01*
X195562023Y-149210582D01*
X195382129Y-149154631D01*
X195214623Y-149091667D01*
X195059187Y-149022118D01*
X194915504Y-148946411D01*
X194783257Y-148864975D01*
X194662129Y-148778236D01*
X194551802Y-148686622D01*
X194451958Y-148590560D01*
X194362282Y-148490479D01*
X194282454Y-148386805D01*
X194212158Y-148279967D01*
X194151077Y-148170391D01*
X194098893Y-148058506D01*
X194055289Y-147944738D01*
X194019948Y-147829516D01*
X193992552Y-147713267D01*
X193972783Y-147596418D01*
X193960326Y-147479398D01*
X193954861Y-147362633D01*
X193956073Y-147246551D01*
X193963643Y-147131579D01*
X193977255Y-147018146D01*
X193996590Y-146906679D01*
X194021332Y-146797604D01*
X194051164Y-146691351D01*
X194085767Y-146588346D01*
X194124825Y-146489017D01*
X194168021Y-146393791D01*
X194215036Y-146303096D01*
X194265554Y-146217360D01*
X194319258Y-146137010D01*
X194404424Y-146023893D01*
X194493330Y-145917307D01*
X194585375Y-145816651D01*
X194679959Y-145721325D01*
X194776481Y-145630726D01*
X194874340Y-145544255D01*
X194972936Y-145461311D01*
X195071667Y-145381294D01*
X195455932Y-145078470D01*
X195546331Y-145004072D01*
X195633260Y-144928996D01*
X195716120Y-144852641D01*
X195794310Y-144774406D01*
X195861363Y-144701235D01*
X195923320Y-144625293D01*
X195979734Y-144546135D01*
X196030161Y-144463314D01*
X196074154Y-144376384D01*
X196111267Y-144284901D01*
X196141055Y-144188418D01*
X196163073Y-144086489D01*
X196176874Y-143978669D01*
X196182012Y-143864513D01*
X196178043Y-143743574D01*
X196164520Y-143615407D01*
X196140997Y-143479566D01*
X196107030Y-143335605D01*
X196062171Y-143183079D01*
X196005976Y-143021541D01*
X196138800Y-143103600D01*
G37*
D11*
G36*
X157553320Y-121701506D02*
G01*
X156936363Y-121701506D01*
X156936363Y-122185693D01*
X157141527Y-122185693D01*
X157141527Y-121938617D01*
X157164791Y-121939930D01*
X157187559Y-121943795D01*
X157209692Y-121950095D01*
X157231052Y-121958717D01*
X157251501Y-121969545D01*
X157270899Y-121982466D01*
X157280160Y-121989675D01*
X157289107Y-121997364D01*
X157297722Y-122005518D01*
X157305988Y-122014125D01*
X157313887Y-122023168D01*
X157321402Y-122032634D01*
X157328515Y-122042508D01*
X157335210Y-122052777D01*
X157341469Y-122063425D01*
X157347275Y-122074438D01*
X157352610Y-122085803D01*
X157357457Y-122097505D01*
X157361799Y-122109528D01*
X157365618Y-122121860D01*
X157368897Y-122134486D01*
X157371619Y-122147391D01*
X157373766Y-122160562D01*
X157375321Y-122173983D01*
X157376267Y-122187640D01*
X157376586Y-122201520D01*
X157376008Y-122220895D01*
X157374300Y-122239567D01*
X157371503Y-122257541D01*
X157367657Y-122274823D01*
X157362800Y-122291419D01*
X157356974Y-122307334D01*
X157350219Y-122322575D01*
X157342574Y-122337148D01*
X157334079Y-122351058D01*
X157324775Y-122364310D01*
X157314700Y-122376911D01*
X157303897Y-122388867D01*
X157292403Y-122400183D01*
X157280260Y-122410865D01*
X157267507Y-122420919D01*
X157254184Y-122430351D01*
X157240331Y-122439166D01*
X157225989Y-122447371D01*
X157211196Y-122454970D01*
X157195994Y-122461971D01*
X157180422Y-122468378D01*
X157164520Y-122474197D01*
X157148329Y-122479435D01*
X157131887Y-122484097D01*
X157115235Y-122488188D01*
X157098414Y-122491716D01*
X157081462Y-122494684D01*
X157064420Y-122497100D01*
X157047329Y-122498969D01*
X157030227Y-122500297D01*
X157013155Y-122501090D01*
X156996153Y-122501352D01*
X156972386Y-122501005D01*
X156949335Y-122499968D01*
X156927004Y-122498254D01*
X156905395Y-122495871D01*
X156884510Y-122492830D01*
X156864351Y-122489142D01*
X156844922Y-122484817D01*
X156826225Y-122479865D01*
X156808261Y-122474297D01*
X156791035Y-122468122D01*
X156774547Y-122461351D01*
X156758801Y-122453995D01*
X156743799Y-122446064D01*
X156729543Y-122437567D01*
X156716037Y-122428516D01*
X156703282Y-122418921D01*
X156691281Y-122408791D01*
X156680036Y-122398137D01*
X156669550Y-122386970D01*
X156659825Y-122375300D01*
X156650864Y-122363137D01*
X156642670Y-122350492D01*
X156635244Y-122337374D01*
X156628589Y-122323794D01*
X156622708Y-122309763D01*
X156617603Y-122295290D01*
X156613277Y-122280386D01*
X156609732Y-122265061D01*
X156606970Y-122249326D01*
X156604994Y-122233191D01*
X156603807Y-122216666D01*
X156603411Y-122199761D01*
X156604312Y-122176582D01*
X156606968Y-122153941D01*
X156611305Y-122131950D01*
X156617250Y-122110721D01*
X156624731Y-122090366D01*
X156633674Y-122070998D01*
X156644006Y-122052727D01*
X156655654Y-122035667D01*
X156668546Y-122019929D01*
X156682609Y-122005626D01*
X156697768Y-121992869D01*
X156713952Y-121981770D01*
X156731088Y-121972442D01*
X156749101Y-121964997D01*
X156767921Y-121959546D01*
X156787472Y-121956202D01*
X156787472Y-121702385D01*
X156765758Y-121704622D01*
X156744479Y-121707965D01*
X156723652Y-121712388D01*
X156703294Y-121717866D01*
X156683422Y-121724377D01*
X156664052Y-121731893D01*
X156645201Y-121740392D01*
X156626886Y-121749848D01*
X156609122Y-121760236D01*
X156591928Y-121771532D01*
X156575318Y-121783712D01*
X156559311Y-121796749D01*
X156543922Y-121810621D01*
X156529169Y-121825301D01*
X156515068Y-121840766D01*
X156501635Y-121856991D01*
X156488887Y-121873951D01*
X156476842Y-121891621D01*
X156465514Y-121909976D01*
X156454922Y-121928993D01*
X156445082Y-121948646D01*
X156436010Y-121968910D01*
X156427723Y-121989762D01*
X156420238Y-122011175D01*
X156413571Y-122033127D01*
X156407739Y-122055590D01*
X156402759Y-122078543D01*
X156398647Y-122101958D01*
X156395419Y-122125813D01*
X156393093Y-122150081D01*
X156391686Y-122174739D01*
X156391213Y-122199761D01*
X156391994Y-122233547D01*
X156394311Y-122266317D01*
X156398125Y-122298068D01*
X156403398Y-122328796D01*
X156410092Y-122358498D01*
X156418166Y-122387169D01*
X156427583Y-122414807D01*
X156438304Y-122441406D01*
X156450291Y-122466964D01*
X156463504Y-122491477D01*
X156477904Y-122514940D01*
X156493454Y-122537351D01*
X156510115Y-122558705D01*
X156527847Y-122578999D01*
X156546612Y-122598229D01*
X156566372Y-122616391D01*
X156587087Y-122633481D01*
X156608719Y-122649496D01*
X156631230Y-122664432D01*
X156654580Y-122678285D01*
X156678731Y-122691051D01*
X156703645Y-122702727D01*
X156729281Y-122713308D01*
X156755603Y-122722792D01*
X156782571Y-122731174D01*
X156810147Y-122738451D01*
X156838291Y-122744618D01*
X156866965Y-122749673D01*
X156896130Y-122753611D01*
X156925749Y-122756428D01*
X156955781Y-122758121D01*
X156986188Y-122758687D01*
X157015414Y-122758100D01*
X157044476Y-122756352D01*
X157073325Y-122753458D01*
X157101910Y-122749434D01*
X157130181Y-122744296D01*
X157158089Y-122738061D01*
X157185582Y-122730744D01*
X157212611Y-122722362D01*
X157239125Y-122712930D01*
X157265075Y-122702466D01*
X157290411Y-122690984D01*
X157315082Y-122678501D01*
X157339038Y-122665033D01*
X157362228Y-122650597D01*
X157384604Y-122635208D01*
X157406115Y-122618882D01*
X157426710Y-122601636D01*
X157446340Y-122583485D01*
X157464955Y-122564446D01*
X157482503Y-122544535D01*
X157498936Y-122523768D01*
X157514203Y-122502161D01*
X157528253Y-122479730D01*
X157541038Y-122456491D01*
X157552506Y-122432461D01*
X157562608Y-122407655D01*
X157571293Y-122382089D01*
X157578511Y-122355780D01*
X157584213Y-122328744D01*
X157588347Y-122300996D01*
X157590865Y-122272554D01*
X157591715Y-122243432D01*
X157591548Y-122228966D01*
X157591053Y-122214649D01*
X157590239Y-122200493D01*
X157589113Y-122186510D01*
X157587684Y-122172714D01*
X157585962Y-122159117D01*
X157583953Y-122145731D01*
X157581668Y-122132570D01*
X157579113Y-122119646D01*
X157576299Y-122106971D01*
X157573232Y-122094559D01*
X157569922Y-122082422D01*
X157566378Y-122070572D01*
X157562607Y-122059023D01*
X157558618Y-122047787D01*
X157550020Y-122026303D01*
X157540653Y-122006224D01*
X157530583Y-121987650D01*
X157519880Y-121970683D01*
X157508610Y-121955424D01*
X157496842Y-121941974D01*
X157484643Y-121930434D01*
X157472082Y-121920906D01*
X157465686Y-121916928D01*
X157554200Y-121913118D01*
X157553320Y-121701506D01*
G37*
G36*
X157154130Y-120888177D02*
G01*
X157167255Y-120891418D01*
X157179978Y-120894932D01*
X157192297Y-120898720D01*
X157204211Y-120902784D01*
X157215720Y-120907125D01*
X157226822Y-120911745D01*
X157237518Y-120916646D01*
X157257682Y-120927294D01*
X157276207Y-120939081D01*
X157293083Y-120952020D01*
X157308305Y-120966122D01*
X157321865Y-120981400D01*
X157333755Y-120997866D01*
X157343969Y-121015531D01*
X157352498Y-121034407D01*
X157359336Y-121054507D01*
X157364476Y-121075843D01*
X157367909Y-121098426D01*
X157368984Y-121110190D01*
X157369630Y-121122270D01*
X157369845Y-121134667D01*
X157369442Y-121150918D01*
X157368239Y-121166645D01*
X157366241Y-121181847D01*
X157363455Y-121196525D01*
X157359886Y-121210680D01*
X157355542Y-121224313D01*
X157350429Y-121237423D01*
X157344552Y-121250012D01*
X157337918Y-121262081D01*
X157330534Y-121273629D01*
X157322406Y-121284658D01*
X157313539Y-121295167D01*
X157303940Y-121305159D01*
X157293616Y-121314632D01*
X157282573Y-121323588D01*
X157270817Y-121332028D01*
X157258354Y-121339951D01*
X157245190Y-121347359D01*
X157231333Y-121354252D01*
X157216788Y-121360631D01*
X157201561Y-121366496D01*
X157185659Y-121371848D01*
X157169088Y-121376688D01*
X157151854Y-121381015D01*
X157133963Y-121384831D01*
X157115423Y-121388137D01*
X157096238Y-121390932D01*
X157076416Y-121393218D01*
X157055963Y-121394995D01*
X157034885Y-121396263D01*
X157013187Y-121397024D01*
X156990878Y-121397277D01*
X156968851Y-121397023D01*
X156947399Y-121396260D01*
X156926530Y-121394985D01*
X156906252Y-121393194D01*
X156886574Y-121390886D01*
X156867503Y-121388058D01*
X156849048Y-121384706D01*
X156831216Y-121380827D01*
X156814017Y-121376420D01*
X156797457Y-121371481D01*
X156781546Y-121366008D01*
X156766292Y-121359997D01*
X156751702Y-121353446D01*
X156737785Y-121346353D01*
X156724549Y-121338713D01*
X156712001Y-121330526D01*
X156700151Y-121321786D01*
X156689007Y-121312493D01*
X156678576Y-121302643D01*
X156668867Y-121292234D01*
X156659887Y-121281262D01*
X156651646Y-121269724D01*
X156644150Y-121257619D01*
X156637410Y-121244943D01*
X156631431Y-121231693D01*
X156626223Y-121217867D01*
X156621794Y-121203462D01*
X156618153Y-121188475D01*
X156615306Y-121172903D01*
X156613262Y-121156743D01*
X156612030Y-121139993D01*
X156611618Y-121122650D01*
X156612445Y-121102652D01*
X156614916Y-121083039D01*
X156619009Y-121063882D01*
X156624706Y-121045251D01*
X156631986Y-121027216D01*
X156640829Y-121009847D01*
X156651217Y-120993214D01*
X156663128Y-120977387D01*
X156676544Y-120962436D01*
X156691445Y-120948430D01*
X156707810Y-120935440D01*
X156725621Y-120923536D01*
X156744857Y-120912788D01*
X156765499Y-120903265D01*
X156787526Y-120895038D01*
X156799053Y-120891433D01*
X156810920Y-120888177D01*
X156810920Y-120636998D01*
X156788931Y-120639631D01*
X156767276Y-120643183D01*
X156745978Y-120647643D01*
X156725061Y-120653001D01*
X156704549Y-120659245D01*
X156684465Y-120666365D01*
X156664834Y-120674351D01*
X156645680Y-120683192D01*
X156627027Y-120692877D01*
X156608898Y-120703397D01*
X156591317Y-120714740D01*
X156574309Y-120726895D01*
X156557897Y-120739853D01*
X156542106Y-120753602D01*
X156526958Y-120768133D01*
X156512479Y-120783434D01*
X156498692Y-120799495D01*
X156485621Y-120816305D01*
X156473290Y-120833854D01*
X156461723Y-120852131D01*
X156450944Y-120871126D01*
X156440976Y-120890828D01*
X156431844Y-120911226D01*
X156423572Y-120932310D01*
X156416183Y-120954070D01*
X156409702Y-120976494D01*
X156404152Y-120999573D01*
X156399558Y-121023295D01*
X156395943Y-121047651D01*
X156393331Y-121072628D01*
X156391746Y-121098218D01*
X156391213Y-121124409D01*
X156391901Y-121154394D01*
X156393954Y-121183670D01*
X156397356Y-121212220D01*
X156402087Y-121240029D01*
X156408131Y-121267080D01*
X156415471Y-121293358D01*
X156424089Y-121318847D01*
X156433967Y-121343531D01*
X156445089Y-121367395D01*
X156457437Y-121390421D01*
X156470994Y-121412595D01*
X156485742Y-121433900D01*
X156501663Y-121454321D01*
X156518741Y-121473841D01*
X156536958Y-121492445D01*
X156556296Y-121510117D01*
X156576739Y-121526841D01*
X156598269Y-121542602D01*
X156620868Y-121557382D01*
X156644519Y-121571167D01*
X156669205Y-121583941D01*
X156694908Y-121595687D01*
X156721612Y-121606390D01*
X156749297Y-121616033D01*
X156777948Y-121624602D01*
X156807547Y-121632079D01*
X156838075Y-121638450D01*
X156869517Y-121643698D01*
X156901855Y-121647808D01*
X156935071Y-121650763D01*
X156969147Y-121652547D01*
X157004067Y-121653146D01*
X157039404Y-121652479D01*
X157073698Y-121650496D01*
X157106942Y-121647229D01*
X157139132Y-121642707D01*
X157170263Y-121636960D01*
X157200329Y-121630018D01*
X157229326Y-121621910D01*
X157257248Y-121612667D01*
X157284090Y-121602319D01*
X157309847Y-121590894D01*
X157334514Y-121578424D01*
X157358086Y-121564939D01*
X157380558Y-121550467D01*
X157401925Y-121535039D01*
X157422182Y-121518685D01*
X157441323Y-121501434D01*
X157459343Y-121483318D01*
X157476238Y-121464364D01*
X157492002Y-121444605D01*
X157506630Y-121424068D01*
X157520117Y-121402785D01*
X157532458Y-121380784D01*
X157543648Y-121358097D01*
X157553682Y-121334752D01*
X157562554Y-121310781D01*
X157570260Y-121286212D01*
X157576795Y-121261075D01*
X157582153Y-121235401D01*
X157586329Y-121209219D01*
X157589318Y-121182559D01*
X157591115Y-121155452D01*
X157591715Y-121127926D01*
X157591212Y-121103551D01*
X157589712Y-121079670D01*
X157587230Y-121056293D01*
X157583780Y-121033427D01*
X157579378Y-121011082D01*
X157574037Y-120989265D01*
X157567774Y-120967986D01*
X157560602Y-120947254D01*
X157552536Y-120927075D01*
X157543591Y-120907461D01*
X157533781Y-120888418D01*
X157523122Y-120869955D01*
X157511627Y-120852082D01*
X157499312Y-120834806D01*
X157486192Y-120818136D01*
X157472280Y-120802082D01*
X157457593Y-120786650D01*
X157442144Y-120771851D01*
X157425948Y-120757692D01*
X157409020Y-120744182D01*
X157391374Y-120731330D01*
X157373026Y-120719145D01*
X157353990Y-120707634D01*
X157334280Y-120696807D01*
X157313912Y-120686672D01*
X157292900Y-120677237D01*
X157271259Y-120668512D01*
X157249003Y-120660505D01*
X157226148Y-120653224D01*
X157202707Y-120646678D01*
X157178696Y-120640876D01*
X157154130Y-120635826D01*
X157154130Y-120888177D01*
G37*
G36*
X157174646Y-119949992D02*
G01*
X157187612Y-119950192D01*
X157200134Y-119950794D01*
X157212214Y-119951800D01*
X157223853Y-119953211D01*
X157245821Y-119957254D01*
X157266054Y-119962938D01*
X157284570Y-119970276D01*
X157301385Y-119979281D01*
X157316518Y-119989966D01*
X157329985Y-120002345D01*
X157341803Y-120016431D01*
X157351989Y-120032238D01*
X157360562Y-120049778D01*
X157367537Y-120069065D01*
X157372932Y-120090112D01*
X157376765Y-120112933D01*
X157378100Y-120125012D01*
X157379052Y-120137540D01*
X157379621Y-120150519D01*
X157379810Y-120163948D01*
X157378873Y-120186132D01*
X157376088Y-120207056D01*
X157371497Y-120226697D01*
X157365142Y-120245029D01*
X157357064Y-120262031D01*
X157347306Y-120277679D01*
X157335909Y-120291948D01*
X157322914Y-120304815D01*
X157308363Y-120316258D01*
X157292298Y-120326251D01*
X157274760Y-120334771D01*
X157255791Y-120341795D01*
X157235433Y-120347300D01*
X157213727Y-120351261D01*
X157190716Y-120353655D01*
X157178733Y-120354257D01*
X157166440Y-120354458D01*
X156428728Y-120354458D01*
X156428728Y-120610327D01*
X157188128Y-120610327D01*
X157213165Y-120609814D01*
X157237387Y-120608285D01*
X157260795Y-120605754D01*
X157283392Y-120602236D01*
X157305178Y-120597744D01*
X157326155Y-120592293D01*
X157346324Y-120585898D01*
X157365687Y-120578572D01*
X157384244Y-120570330D01*
X157401996Y-120561186D01*
X157418946Y-120551154D01*
X157435094Y-120540249D01*
X157450442Y-120528485D01*
X157464992Y-120515876D01*
X157478743Y-120502437D01*
X157491698Y-120488181D01*
X157503858Y-120473123D01*
X157515223Y-120457278D01*
X157525797Y-120440659D01*
X157535579Y-120423281D01*
X157544571Y-120405158D01*
X157552775Y-120386304D01*
X157560191Y-120366734D01*
X157566821Y-120346462D01*
X157572666Y-120325502D01*
X157577728Y-120303869D01*
X157582007Y-120281576D01*
X157585505Y-120258639D01*
X157588224Y-120235070D01*
X157590164Y-120210886D01*
X157591328Y-120186099D01*
X157591715Y-120160724D01*
X157591293Y-120133337D01*
X157590029Y-120106685D01*
X157587926Y-120080777D01*
X157584986Y-120055621D01*
X157581213Y-120031228D01*
X157576609Y-120007604D01*
X157571177Y-119984760D01*
X157564920Y-119962705D01*
X157557841Y-119941445D01*
X157549943Y-119920992D01*
X157541228Y-119901353D01*
X157531700Y-119882537D01*
X157521360Y-119864553D01*
X157510213Y-119847411D01*
X157498261Y-119831117D01*
X157485506Y-119815683D01*
X157471952Y-119801115D01*
X157457602Y-119787424D01*
X157442457Y-119774617D01*
X157426522Y-119762704D01*
X157409799Y-119751693D01*
X157392290Y-119741594D01*
X157374000Y-119732415D01*
X157354929Y-119724165D01*
X157335082Y-119716852D01*
X157314462Y-119710486D01*
X157293070Y-119705075D01*
X157270910Y-119700628D01*
X157247985Y-119697154D01*
X157224297Y-119694662D01*
X157199850Y-119693160D01*
X157174646Y-119692657D01*
X156428728Y-119692657D01*
X156428728Y-119949992D01*
X157174646Y-119949992D01*
G37*
G36*
X157554200Y-118715784D02*
G01*
X156710096Y-118411262D01*
X156710096Y-118661562D01*
X157234144Y-118829796D01*
X156710096Y-118995979D01*
X156710096Y-119259468D01*
X157554200Y-118957291D01*
X157554200Y-118715784D01*
G37*
G36*
X157554200Y-117946712D02*
G01*
X156428728Y-117946712D01*
X156428728Y-118142497D01*
X156440767Y-118143949D01*
X156452377Y-118145680D01*
X156474319Y-118150045D01*
X156494580Y-118155729D01*
X156513185Y-118162871D01*
X156530158Y-118171609D01*
X156545524Y-118182080D01*
X156559309Y-118194422D01*
X156571537Y-118208772D01*
X156582234Y-118225270D01*
X156591423Y-118244051D01*
X156599130Y-118265255D01*
X156602436Y-118276809D01*
X156605380Y-118289020D01*
X156607967Y-118301905D01*
X156610198Y-118315482D01*
X156612078Y-118329768D01*
X156613608Y-118344780D01*
X156614794Y-118360535D01*
X156615636Y-118377051D01*
X156616140Y-118394345D01*
X156616307Y-118412434D01*
X156786300Y-118412434D01*
X156786300Y-118183823D01*
X157554200Y-118183823D01*
X157554200Y-117946712D01*
G37*
G36*
X157554200Y-117631052D02*
G01*
X157308882Y-117631052D01*
X157308882Y-117883404D01*
X157554200Y-117883404D01*
X157554200Y-117631052D01*
G37*
G36*
X157554200Y-117342944D02*
G01*
X156428728Y-117342944D01*
X156428728Y-117538729D01*
X156440767Y-117540181D01*
X156452377Y-117541911D01*
X156474319Y-117546276D01*
X156494580Y-117551961D01*
X156513185Y-117559103D01*
X156530158Y-117567841D01*
X156545524Y-117578311D01*
X156559309Y-117590653D01*
X156571537Y-117605004D01*
X156582234Y-117621501D01*
X156591423Y-117640283D01*
X156599130Y-117661487D01*
X156602436Y-117673041D01*
X156605380Y-117685251D01*
X156607967Y-117698137D01*
X156610198Y-117711714D01*
X156612078Y-117725999D01*
X156613608Y-117741011D01*
X156614794Y-117756767D01*
X156615636Y-117773283D01*
X156616140Y-117790577D01*
X156616307Y-117808666D01*
X156786300Y-117808666D01*
X156786300Y-117580054D01*
X157554200Y-117580054D01*
X157554200Y-117342944D01*
G37*
G36*
X159027490Y-121777701D02*
G01*
X159058316Y-121779420D01*
X159088488Y-121782263D01*
X159117981Y-121786210D01*
X159146771Y-121791243D01*
X159174835Y-121797342D01*
X159202147Y-121804489D01*
X159228684Y-121812665D01*
X159254421Y-121821852D01*
X159279335Y-121832030D01*
X159303402Y-121843180D01*
X159326596Y-121855285D01*
X159348894Y-121868324D01*
X159370272Y-121882279D01*
X159390706Y-121897131D01*
X159410172Y-121912862D01*
X159428644Y-121929452D01*
X159446100Y-121946883D01*
X159462515Y-121965135D01*
X159477865Y-121984191D01*
X159492126Y-122004031D01*
X159505274Y-122024636D01*
X159517283Y-122045988D01*
X159528132Y-122068067D01*
X159537794Y-122090855D01*
X159546247Y-122114334D01*
X159553465Y-122138483D01*
X159559425Y-122163285D01*
X159564103Y-122188720D01*
X159567474Y-122214770D01*
X159569514Y-122241415D01*
X159570200Y-122268638D01*
X159570200Y-122745205D01*
X158444728Y-122745205D01*
X158444728Y-122499594D01*
X158656927Y-122499594D01*
X159361812Y-122499594D01*
X159361812Y-122315826D01*
X159361460Y-122297561D01*
X159360405Y-122279967D01*
X159358646Y-122263037D01*
X159356180Y-122246767D01*
X159353008Y-122231149D01*
X159349128Y-122216178D01*
X159344539Y-122201847D01*
X159339239Y-122188152D01*
X159333228Y-122175086D01*
X159326504Y-122162643D01*
X159319067Y-122150817D01*
X159310915Y-122139602D01*
X159302047Y-122128992D01*
X159292462Y-122118981D01*
X159282159Y-122109563D01*
X159271136Y-122100733D01*
X159259393Y-122092484D01*
X159246929Y-122084811D01*
X159233742Y-122077707D01*
X159219831Y-122071166D01*
X159205195Y-122065183D01*
X159189833Y-122059751D01*
X159173744Y-122054865D01*
X159156927Y-122050518D01*
X159139380Y-122046706D01*
X159121103Y-122043420D01*
X159102094Y-122040657D01*
X159082352Y-122038409D01*
X159061876Y-122036672D01*
X159040665Y-122035438D01*
X159018718Y-122034702D01*
X158996033Y-122034458D01*
X158973451Y-122034700D01*
X158951750Y-122035433D01*
X158930918Y-122036667D01*
X158910945Y-122038412D01*
X158891821Y-122040679D01*
X158873534Y-122043476D01*
X158856075Y-122046816D01*
X158839431Y-122050706D01*
X158823593Y-122055158D01*
X158808549Y-122060182D01*
X158794290Y-122065788D01*
X158780804Y-122071985D01*
X158768080Y-122078784D01*
X158756108Y-122086196D01*
X158744877Y-122094229D01*
X158734376Y-122102895D01*
X158724595Y-122112203D01*
X158715523Y-122122163D01*
X158707148Y-122132786D01*
X158699462Y-122144081D01*
X158692451Y-122156059D01*
X158686107Y-122168729D01*
X158680418Y-122182103D01*
X158675373Y-122196189D01*
X158670962Y-122210999D01*
X158667174Y-122226541D01*
X158663998Y-122242827D01*
X158661424Y-122259866D01*
X158659440Y-122277668D01*
X158658037Y-122296244D01*
X158657202Y-122315603D01*
X158656927Y-122335756D01*
X158656927Y-122499594D01*
X158444728Y-122499594D01*
X158444728Y-122303809D01*
X158445347Y-122275377D01*
X158447191Y-122247469D01*
X158450246Y-122220110D01*
X158454497Y-122193326D01*
X158459927Y-122167141D01*
X158466521Y-122141579D01*
X158474265Y-122116666D01*
X158483142Y-122092426D01*
X158493137Y-122068884D01*
X158504234Y-122046065D01*
X158516419Y-122023994D01*
X158529675Y-122002695D01*
X158543987Y-121982194D01*
X158559340Y-121962514D01*
X158575718Y-121943682D01*
X158593106Y-121925721D01*
X158611488Y-121908656D01*
X158630850Y-121892513D01*
X158651174Y-121877316D01*
X158672447Y-121863090D01*
X158694652Y-121849859D01*
X158717774Y-121837649D01*
X158741798Y-121826484D01*
X158766708Y-121816389D01*
X158792488Y-121807388D01*
X158819124Y-121799508D01*
X158846600Y-121792771D01*
X158874900Y-121787204D01*
X158904008Y-121782831D01*
X158933911Y-121779677D01*
X158964591Y-121777766D01*
X158996033Y-121777124D01*
X159027490Y-121777701D01*
G37*
G36*
X159213800Y-121501911D02*
G01*
X159233925Y-121500120D01*
X159253156Y-121496965D01*
X159271437Y-121492479D01*
X159288713Y-121486693D01*
X159304927Y-121479637D01*
X159320024Y-121471344D01*
X159333948Y-121461844D01*
X159346644Y-121451169D01*
X159358055Y-121439351D01*
X159368126Y-121426420D01*
X159376800Y-121412408D01*
X159384022Y-121397346D01*
X159389737Y-121381266D01*
X159393888Y-121364198D01*
X159396419Y-121346176D01*
X159397276Y-121327228D01*
X159396905Y-121314568D01*
X159395797Y-121302226D01*
X159393954Y-121290243D01*
X159391382Y-121278662D01*
X159386162Y-121262138D01*
X159379320Y-121246759D01*
X159370870Y-121232667D01*
X159360825Y-121220007D01*
X159349198Y-121208921D01*
X159336001Y-121199553D01*
X159321248Y-121192046D01*
X159304952Y-121186544D01*
X159304952Y-120941520D01*
X159322038Y-120946910D01*
X159338619Y-120952798D01*
X159354691Y-120959175D01*
X159370253Y-120966031D01*
X159385303Y-120973359D01*
X159399837Y-120981150D01*
X159413853Y-120989394D01*
X159427349Y-120998082D01*
X159440323Y-121007206D01*
X159452772Y-121016757D01*
X159464694Y-121026727D01*
X159476086Y-121037105D01*
X159486945Y-121047884D01*
X159497270Y-121059054D01*
X159507059Y-121070607D01*
X159516307Y-121082534D01*
X159525014Y-121094825D01*
X159533177Y-121107473D01*
X159540793Y-121120468D01*
X159547860Y-121133801D01*
X159554375Y-121147464D01*
X159560337Y-121161447D01*
X159565742Y-121175743D01*
X159570589Y-121190341D01*
X159574874Y-121205233D01*
X159578596Y-121220411D01*
X159581752Y-121235865D01*
X159584339Y-121251586D01*
X159586356Y-121267566D01*
X159587800Y-121283796D01*
X159588668Y-121300267D01*
X159588957Y-121316970D01*
X159588498Y-121342784D01*
X159587123Y-121367798D01*
X159584834Y-121392011D01*
X159581634Y-121415421D01*
X159577525Y-121438028D01*
X159572510Y-121459830D01*
X159566592Y-121480825D01*
X159559772Y-121501013D01*
X159552054Y-121520392D01*
X159543439Y-121538961D01*
X159533931Y-121556718D01*
X159523532Y-121573663D01*
X159512245Y-121589794D01*
X159500071Y-121605109D01*
X159487014Y-121619608D01*
X159473076Y-121633289D01*
X159458260Y-121646151D01*
X159442568Y-121658192D01*
X159426002Y-121669412D01*
X159408566Y-121679808D01*
X159390261Y-121689380D01*
X159371091Y-121698127D01*
X159351057Y-121706047D01*
X159330162Y-121713138D01*
X159308409Y-121719400D01*
X159285801Y-121724831D01*
X159262339Y-121729431D01*
X159238027Y-121733196D01*
X159212866Y-121736128D01*
X159186860Y-121738223D01*
X159160011Y-121739481D01*
X159132321Y-121739901D01*
X159108719Y-121739458D01*
X159085624Y-121738136D01*
X159063052Y-121735943D01*
X159041018Y-121732886D01*
X159019540Y-121728975D01*
X158998632Y-121724217D01*
X158978310Y-121718621D01*
X158958591Y-121712195D01*
X158939490Y-121704947D01*
X158921023Y-121696885D01*
X158903206Y-121688019D01*
X158886055Y-121678355D01*
X158869586Y-121667903D01*
X158853815Y-121656670D01*
X158838757Y-121644665D01*
X158824428Y-121631897D01*
X158810845Y-121618372D01*
X158798023Y-121604101D01*
X158785978Y-121589090D01*
X158774726Y-121573348D01*
X158764283Y-121556884D01*
X158754665Y-121539706D01*
X158745888Y-121521821D01*
X158737966Y-121503239D01*
X158730918Y-121483967D01*
X158724757Y-121464014D01*
X158719501Y-121443388D01*
X158715165Y-121422097D01*
X158711765Y-121400150D01*
X158709316Y-121377555D01*
X158707835Y-121354319D01*
X158707478Y-121337193D01*
X158899313Y-121337193D01*
X158900015Y-121352701D01*
X158902098Y-121367748D01*
X158905528Y-121382271D01*
X158910272Y-121396210D01*
X158916295Y-121409501D01*
X158923564Y-121422083D01*
X158932044Y-121433892D01*
X158941702Y-121444868D01*
X158952503Y-121454947D01*
X158964414Y-121464067D01*
X158977402Y-121472166D01*
X158991431Y-121479182D01*
X159006468Y-121485053D01*
X159022480Y-121489716D01*
X159039431Y-121493109D01*
X159057290Y-121495170D01*
X159057290Y-121177165D01*
X159038224Y-121178586D01*
X159020376Y-121181577D01*
X159003747Y-121186048D01*
X158988340Y-121191907D01*
X158974155Y-121199063D01*
X158961194Y-121207423D01*
X158949460Y-121216897D01*
X158938954Y-121227394D01*
X158929677Y-121238821D01*
X158921632Y-121251088D01*
X158914819Y-121264103D01*
X158909242Y-121277774D01*
X158904901Y-121292010D01*
X158901798Y-121306719D01*
X158899935Y-121321811D01*
X158899313Y-121337193D01*
X158707478Y-121337193D01*
X158707338Y-121330452D01*
X158707839Y-121306620D01*
X158709339Y-121283485D01*
X158711839Y-121261052D01*
X158715336Y-121239324D01*
X158719830Y-121218305D01*
X158725319Y-121198000D01*
X158731803Y-121178411D01*
X158739281Y-121159543D01*
X158747750Y-121141400D01*
X158757211Y-121123986D01*
X158767661Y-121107304D01*
X158779101Y-121091358D01*
X158791528Y-121076153D01*
X158804941Y-121061691D01*
X158819340Y-121047978D01*
X158834723Y-121035016D01*
X158851090Y-121022810D01*
X158868438Y-121011363D01*
X158886767Y-121000680D01*
X158906077Y-120990764D01*
X158926365Y-120981619D01*
X158947630Y-120973249D01*
X158969872Y-120965658D01*
X158993089Y-120958849D01*
X159017280Y-120952827D01*
X159042444Y-120947595D01*
X159068580Y-120943158D01*
X159095687Y-120939519D01*
X159123764Y-120936681D01*
X159152809Y-120934650D01*
X159182822Y-120933428D01*
X159213800Y-120933020D01*
X159213800Y-121501911D01*
G37*
G36*
X158996913Y-120150466D02*
G01*
X158979346Y-120151943D01*
X158962314Y-120154014D01*
X158945817Y-120156685D01*
X158929857Y-120159960D01*
X158914436Y-120163845D01*
X158899555Y-120168346D01*
X158885215Y-120173466D01*
X158871419Y-120179212D01*
X158858168Y-120185589D01*
X158845463Y-120192601D01*
X158833306Y-120200255D01*
X158821698Y-120208555D01*
X158810642Y-120217506D01*
X158800138Y-120227115D01*
X158790188Y-120237385D01*
X158780794Y-120248322D01*
X158771958Y-120259932D01*
X158763680Y-120272219D01*
X158755962Y-120285189D01*
X158748807Y-120298847D01*
X158742215Y-120313198D01*
X158736188Y-120328247D01*
X158730727Y-120344000D01*
X158725835Y-120360462D01*
X158721513Y-120377637D01*
X158717762Y-120395532D01*
X158714583Y-120414151D01*
X158711979Y-120433500D01*
X158709951Y-120453584D01*
X158708501Y-120474408D01*
X158707629Y-120495977D01*
X158707338Y-120518296D01*
X158707664Y-120541859D01*
X158708630Y-120564523D01*
X158710223Y-120586298D01*
X158712426Y-120607194D01*
X158715226Y-120627222D01*
X158718606Y-120646390D01*
X158722552Y-120664709D01*
X158727049Y-120682189D01*
X158732081Y-120698839D01*
X158737635Y-120714670D01*
X158743694Y-120729691D01*
X158750244Y-120743912D01*
X158757270Y-120757343D01*
X158764756Y-120769994D01*
X158772688Y-120781875D01*
X158781051Y-120792996D01*
X158789829Y-120803366D01*
X158799008Y-120812995D01*
X158808572Y-120821894D01*
X158818507Y-120830072D01*
X158828797Y-120837539D01*
X158839428Y-120844305D01*
X158850384Y-120850379D01*
X158861651Y-120855772D01*
X158873213Y-120860494D01*
X158885055Y-120864554D01*
X158897163Y-120867963D01*
X158909521Y-120870729D01*
X158922114Y-120872864D01*
X158934928Y-120874376D01*
X158947947Y-120875276D01*
X158961156Y-120875574D01*
X158975081Y-120875229D01*
X158988818Y-120874172D01*
X159002353Y-120872371D01*
X159015671Y-120869795D01*
X159028754Y-120866412D01*
X159041589Y-120862189D01*
X159054159Y-120857097D01*
X159066449Y-120851101D01*
X159078443Y-120844172D01*
X159090127Y-120836276D01*
X159101485Y-120827383D01*
X159112501Y-120817460D01*
X159123159Y-120806476D01*
X159133445Y-120794398D01*
X159143343Y-120781196D01*
X159152837Y-120766837D01*
X159159664Y-120755393D01*
X159166208Y-120743441D01*
X159172504Y-120730920D01*
X159178584Y-120717768D01*
X159184481Y-120703923D01*
X159190231Y-120689326D01*
X159195865Y-120673913D01*
X159201417Y-120657624D01*
X159206922Y-120640398D01*
X159212412Y-120622172D01*
X159217920Y-120602886D01*
X159223482Y-120582478D01*
X159229129Y-120560887D01*
X159234895Y-120538052D01*
X159237833Y-120526148D01*
X159240814Y-120513910D01*
X159243842Y-120501330D01*
X159246920Y-120488401D01*
X159250005Y-120475400D01*
X159253142Y-120462815D01*
X159256378Y-120450703D01*
X159259765Y-120439125D01*
X159265239Y-120422882D01*
X159271333Y-120408166D01*
X159278220Y-120395174D01*
X159286066Y-120384101D01*
X159295043Y-120375146D01*
X159305320Y-120368506D01*
X159317066Y-120364378D01*
X159330451Y-120362957D01*
X159344973Y-120364527D01*
X159357754Y-120369084D01*
X159368864Y-120376401D01*
X159378369Y-120386250D01*
X159386339Y-120398404D01*
X159392841Y-120412635D01*
X159397943Y-120428716D01*
X159400600Y-120440352D01*
X159402686Y-120452642D01*
X159404220Y-120465518D01*
X159405223Y-120478913D01*
X159405715Y-120492760D01*
X159405775Y-120499831D01*
X159405294Y-120518605D01*
X159403852Y-120536332D01*
X159401449Y-120552990D01*
X159398086Y-120568557D01*
X159393763Y-120583008D01*
X159388480Y-120596323D01*
X159382238Y-120608477D01*
X159375037Y-120619449D01*
X159366878Y-120629215D01*
X159357761Y-120637753D01*
X159347687Y-120645040D01*
X159336656Y-120651053D01*
X159324668Y-120655769D01*
X159311724Y-120659166D01*
X159297825Y-120661221D01*
X159282970Y-120661911D01*
X159282970Y-120906056D01*
X159299836Y-120905281D01*
X159316352Y-120903673D01*
X159332508Y-120901240D01*
X159348290Y-120897986D01*
X159363687Y-120893918D01*
X159378686Y-120889042D01*
X159393275Y-120883364D01*
X159407442Y-120876889D01*
X159421175Y-120869623D01*
X159434460Y-120861574D01*
X159447287Y-120852746D01*
X159459642Y-120843145D01*
X159471514Y-120832778D01*
X159482891Y-120821650D01*
X159493759Y-120809767D01*
X159504107Y-120797136D01*
X159513923Y-120783762D01*
X159523195Y-120769651D01*
X159531909Y-120754809D01*
X159540055Y-120739243D01*
X159547619Y-120722957D01*
X159554589Y-120705959D01*
X159560954Y-120688254D01*
X159566701Y-120669847D01*
X159571817Y-120650746D01*
X159576291Y-120630955D01*
X159580110Y-120610481D01*
X159583263Y-120589330D01*
X159585736Y-120567508D01*
X159587517Y-120545020D01*
X159588595Y-120521873D01*
X159588957Y-120498073D01*
X159588644Y-120476045D01*
X159587710Y-120454644D01*
X159586161Y-120433874D01*
X159584005Y-120413741D01*
X159581248Y-120394248D01*
X159577899Y-120375400D01*
X159573963Y-120357203D01*
X159569448Y-120339661D01*
X159564362Y-120322779D01*
X159558711Y-120306562D01*
X159552502Y-120291014D01*
X159545742Y-120276140D01*
X159538439Y-120261945D01*
X159530600Y-120248434D01*
X159522231Y-120235612D01*
X159513340Y-120223483D01*
X159503933Y-120212052D01*
X159494019Y-120201323D01*
X159483603Y-120191303D01*
X159472694Y-120181995D01*
X159461298Y-120173404D01*
X159449422Y-120165535D01*
X159437073Y-120158393D01*
X159424258Y-120151982D01*
X159410985Y-120146308D01*
X159397261Y-120141374D01*
X159383092Y-120137187D01*
X159368486Y-120133750D01*
X159353450Y-120131069D01*
X159337991Y-120129148D01*
X159322115Y-120127992D01*
X159305831Y-120127605D01*
X159285897Y-120128216D01*
X159267070Y-120130034D01*
X159249314Y-120133036D01*
X159232595Y-120137199D01*
X159216879Y-120142501D01*
X159202132Y-120148919D01*
X159188319Y-120156430D01*
X159175405Y-120165011D01*
X159163358Y-120174640D01*
X159152141Y-120185293D01*
X159141722Y-120196949D01*
X159132064Y-120209584D01*
X159123135Y-120223175D01*
X159114900Y-120237700D01*
X159107325Y-120253137D01*
X159100374Y-120269461D01*
X159095778Y-120281890D01*
X159091318Y-120294866D01*
X159086973Y-120308360D01*
X159082720Y-120322341D01*
X159078537Y-120336782D01*
X159074403Y-120351651D01*
X159070295Y-120366920D01*
X159066192Y-120382558D01*
X159062072Y-120398536D01*
X159057913Y-120414825D01*
X159053693Y-120431394D01*
X159049390Y-120448215D01*
X159044982Y-120465257D01*
X159040448Y-120482491D01*
X159035765Y-120499888D01*
X159030911Y-120517417D01*
X159026376Y-120533435D01*
X159021973Y-120548308D01*
X159017652Y-120562051D01*
X159013367Y-120574679D01*
X159009070Y-120586209D01*
X159002498Y-120601476D01*
X158995630Y-120614357D01*
X158988307Y-120624904D01*
X158977555Y-120635426D01*
X158965326Y-120642016D01*
X158951238Y-120644797D01*
X158947380Y-120644911D01*
X158932937Y-120643066D01*
X158920755Y-120637515D01*
X158910729Y-120628234D01*
X158902757Y-120615199D01*
X158898064Y-120602945D01*
X158894425Y-120588555D01*
X158891796Y-120572020D01*
X158890584Y-120559799D01*
X158889788Y-120546618D01*
X158889396Y-120532472D01*
X158889348Y-120525037D01*
X158889645Y-120507639D01*
X158890571Y-120491573D01*
X158892177Y-120476788D01*
X158894514Y-120463236D01*
X158897634Y-120450867D01*
X158901589Y-120439632D01*
X158909199Y-120424798D01*
X158918977Y-120412237D01*
X158931097Y-120401783D01*
X158945732Y-120393270D01*
X158956972Y-120388589D01*
X158969458Y-120384648D01*
X158983243Y-120381396D01*
X158998378Y-120378784D01*
X158996913Y-120150466D01*
G37*
G36*
X159570200Y-119842427D02*
G01*
X158726096Y-119842427D01*
X158726096Y-120079538D01*
X159570200Y-120079538D01*
X159570200Y-119842427D01*
G37*
G36*
X158648134Y-119842427D02*
G01*
X158425971Y-119842427D01*
X158425971Y-120079538D01*
X158648134Y-120079538D01*
X158648134Y-119842427D01*
G37*
G36*
X159586836Y-118949337D02*
G01*
X159610365Y-118950955D01*
X159633164Y-118953620D01*
X159655230Y-118957307D01*
X159676560Y-118961989D01*
X159697152Y-118967640D01*
X159717002Y-118974234D01*
X159736108Y-118981746D01*
X159754466Y-118990149D01*
X159772075Y-118999417D01*
X159788931Y-119009524D01*
X159805032Y-119020445D01*
X159820375Y-119032154D01*
X159834956Y-119044623D01*
X159848774Y-119057829D01*
X159861825Y-119071743D01*
X159874107Y-119086341D01*
X159885617Y-119101597D01*
X159896352Y-119117484D01*
X159906309Y-119133977D01*
X159915485Y-119151049D01*
X159923879Y-119168676D01*
X159931486Y-119186829D01*
X159938304Y-119205485D01*
X159944331Y-119224616D01*
X159949563Y-119244196D01*
X159953997Y-119264201D01*
X159957632Y-119284603D01*
X159960464Y-119305377D01*
X159962490Y-119326497D01*
X159963708Y-119347937D01*
X159964114Y-119369671D01*
X159963714Y-119391397D01*
X159962517Y-119412764D01*
X159960530Y-119433749D01*
X159957761Y-119454331D01*
X159954218Y-119474488D01*
X159949906Y-119494199D01*
X159944835Y-119513442D01*
X159939009Y-119532194D01*
X159932438Y-119550436D01*
X159925127Y-119568145D01*
X159917085Y-119585299D01*
X159908318Y-119601876D01*
X159898834Y-119617856D01*
X159888639Y-119633217D01*
X159877742Y-119647936D01*
X159866149Y-119661993D01*
X159853867Y-119675365D01*
X159840903Y-119688031D01*
X159827265Y-119699970D01*
X159812960Y-119711159D01*
X159797996Y-119721578D01*
X159782378Y-119731204D01*
X159766115Y-119740016D01*
X159749214Y-119747992D01*
X159731682Y-119755111D01*
X159713526Y-119761351D01*
X159694753Y-119766690D01*
X159675370Y-119771107D01*
X159655385Y-119774580D01*
X159634805Y-119777087D01*
X159613637Y-119778608D01*
X159591888Y-119779119D01*
X159591888Y-119556956D01*
X159611664Y-119556186D01*
X159630211Y-119553903D01*
X159647521Y-119550146D01*
X159663590Y-119544953D01*
X159678411Y-119538364D01*
X159691976Y-119530418D01*
X159704280Y-119521154D01*
X159715316Y-119510611D01*
X159725078Y-119498828D01*
X159733560Y-119485844D01*
X159740754Y-119471699D01*
X159746654Y-119456430D01*
X159751255Y-119440078D01*
X159754549Y-119422682D01*
X159756530Y-119404280D01*
X159757192Y-119384911D01*
X159756408Y-119364129D01*
X159754081Y-119344047D01*
X159750248Y-119324753D01*
X159744946Y-119306335D01*
X159738212Y-119288883D01*
X159730082Y-119272485D01*
X159720594Y-119257228D01*
X159709784Y-119243202D01*
X159697690Y-119230494D01*
X159684348Y-119219195D01*
X159669796Y-119209390D01*
X159654069Y-119201171D01*
X159637206Y-119194623D01*
X159619243Y-119189837D01*
X159600217Y-119186901D01*
X159580165Y-119185902D01*
X159491065Y-119185902D01*
X159497363Y-119189362D01*
X159507211Y-119197896D01*
X159517278Y-119210156D01*
X159523965Y-119220238D01*
X159530529Y-119231735D01*
X159536884Y-119244550D01*
X159542942Y-119258589D01*
X159548615Y-119273754D01*
X159553816Y-119289950D01*
X159558457Y-119307080D01*
X159562451Y-119325048D01*
X159565710Y-119343757D01*
X159568146Y-119363113D01*
X159569671Y-119383018D01*
X159570200Y-119403376D01*
X159569578Y-119428952D01*
X159567738Y-119453481D01*
X159564720Y-119476980D01*
X159560563Y-119499463D01*
X159555307Y-119520947D01*
X159548990Y-119541446D01*
X159541653Y-119560976D01*
X159533334Y-119579552D01*
X159524074Y-119597189D01*
X159513910Y-119613903D01*
X159502884Y-119629710D01*
X159491034Y-119644624D01*
X159478399Y-119658660D01*
X159465020Y-119671835D01*
X159450935Y-119684164D01*
X159436183Y-119695662D01*
X159420805Y-119706343D01*
X159404840Y-119716225D01*
X159388326Y-119725321D01*
X159371304Y-119733648D01*
X159353812Y-119741220D01*
X159335891Y-119748054D01*
X159317579Y-119754163D01*
X159298916Y-119759565D01*
X159279941Y-119764273D01*
X159260694Y-119768304D01*
X159241214Y-119771673D01*
X159221541Y-119774394D01*
X159201713Y-119776485D01*
X159181771Y-119777959D01*
X159161753Y-119778832D01*
X159141700Y-119779119D01*
X159117968Y-119778635D01*
X159094704Y-119777197D01*
X159071928Y-119774829D01*
X159049658Y-119771555D01*
X159027912Y-119767399D01*
X159006710Y-119762384D01*
X158986069Y-119756535D01*
X158966010Y-119749874D01*
X158946550Y-119742426D01*
X158927707Y-119734215D01*
X158909502Y-119725263D01*
X158891952Y-119715595D01*
X158875075Y-119705235D01*
X158858892Y-119694206D01*
X158843420Y-119682532D01*
X158828678Y-119670236D01*
X158814685Y-119657343D01*
X158801459Y-119643876D01*
X158789020Y-119629858D01*
X158777385Y-119615314D01*
X158766574Y-119600268D01*
X158756604Y-119584742D01*
X158747496Y-119568762D01*
X158739267Y-119552349D01*
X158731936Y-119535529D01*
X158725522Y-119518324D01*
X158720044Y-119500759D01*
X158715520Y-119482858D01*
X158711968Y-119464643D01*
X158709409Y-119446139D01*
X158707859Y-119427370D01*
X158707338Y-119408359D01*
X158707833Y-119388727D01*
X158709286Y-119369745D01*
X158711003Y-119356482D01*
X158913089Y-119356482D01*
X158913968Y-119377886D01*
X158916620Y-119397916D01*
X158921066Y-119416571D01*
X158927326Y-119433849D01*
X158935423Y-119449749D01*
X158945376Y-119464272D01*
X158957207Y-119477415D01*
X158970937Y-119489179D01*
X158986588Y-119499562D01*
X159004179Y-119508563D01*
X159023732Y-119516182D01*
X159045268Y-119522417D01*
X159056787Y-119525016D01*
X159068809Y-119527268D01*
X159081337Y-119529175D01*
X159094374Y-119530735D01*
X159107923Y-119531948D01*
X159121986Y-119532815D01*
X159136566Y-119533335D01*
X159151665Y-119533509D01*
X159164802Y-119533293D01*
X159177610Y-119532651D01*
X159190083Y-119531591D01*
X159202216Y-119530122D01*
X159225439Y-119525988D01*
X159247231Y-119520315D01*
X159267546Y-119513171D01*
X159286338Y-119504622D01*
X159303560Y-119494733D01*
X159319167Y-119483573D01*
X159333111Y-119471208D01*
X159345346Y-119457703D01*
X159355826Y-119443126D01*
X159364504Y-119427542D01*
X159371335Y-119411020D01*
X159376271Y-119393625D01*
X159379267Y-119375423D01*
X159380276Y-119356482D01*
X159380038Y-119346999D01*
X159378145Y-119328539D01*
X159374401Y-119310810D01*
X159368850Y-119293885D01*
X159361536Y-119277834D01*
X159352503Y-119262729D01*
X159341794Y-119248642D01*
X159329453Y-119235642D01*
X159315523Y-119223803D01*
X159300050Y-119213194D01*
X159283076Y-119203887D01*
X159264645Y-119195954D01*
X159244802Y-119189465D01*
X159223589Y-119184493D01*
X159201051Y-119181107D01*
X159189298Y-119180032D01*
X159177231Y-119179380D01*
X159164854Y-119179161D01*
X159148840Y-119179330D01*
X159133385Y-119179836D01*
X159118484Y-119180680D01*
X159104135Y-119181864D01*
X159090335Y-119183388D01*
X159077080Y-119185253D01*
X159064367Y-119187460D01*
X159052192Y-119190010D01*
X159029446Y-119196143D01*
X159008816Y-119203659D01*
X158990274Y-119212565D01*
X158973795Y-119222869D01*
X158959353Y-119234577D01*
X158946922Y-119247697D01*
X158936475Y-119262237D01*
X158927986Y-119278203D01*
X158921429Y-119295604D01*
X158916778Y-119314445D01*
X158914007Y-119334735D01*
X158913089Y-119356482D01*
X158711003Y-119356482D01*
X158711656Y-119351436D01*
X158714899Y-119333827D01*
X158718972Y-119316940D01*
X158723830Y-119300800D01*
X158729431Y-119285433D01*
X158735732Y-119270862D01*
X158742688Y-119257112D01*
X158750257Y-119244208D01*
X158758396Y-119232173D01*
X158767060Y-119221032D01*
X158776207Y-119210810D01*
X158785794Y-119201532D01*
X158795776Y-119193221D01*
X158806110Y-119185902D01*
X158726096Y-119185902D01*
X158726096Y-118948791D01*
X159562579Y-118948791D01*
X159586836Y-118949337D01*
G37*
G36*
X159570200Y-118104395D02*
G01*
X158991930Y-118104395D01*
X158974945Y-118104749D01*
X158958450Y-118105800D01*
X158942447Y-118107535D01*
X158926940Y-118109937D01*
X158911932Y-118112992D01*
X158897426Y-118116684D01*
X158883426Y-118121000D01*
X158869935Y-118125924D01*
X158856957Y-118131440D01*
X158844493Y-118137534D01*
X158832549Y-118144191D01*
X158821126Y-118151397D01*
X158810229Y-118159135D01*
X158799860Y-118167391D01*
X158790023Y-118176151D01*
X158780721Y-118185398D01*
X158771958Y-118195119D01*
X158763736Y-118205298D01*
X158756059Y-118215919D01*
X158748930Y-118226970D01*
X158742353Y-118238433D01*
X158736331Y-118250295D01*
X158730866Y-118262540D01*
X158725963Y-118275153D01*
X158721625Y-118288119D01*
X158717854Y-118301424D01*
X158714655Y-118315053D01*
X158712030Y-118328989D01*
X158709982Y-118343220D01*
X158708516Y-118357728D01*
X158707633Y-118372501D01*
X158707338Y-118387521D01*
X158707492Y-118400078D01*
X158707949Y-118412359D01*
X158708701Y-118424362D01*
X158709740Y-118436086D01*
X158712646Y-118458692D01*
X158716603Y-118480166D01*
X158721548Y-118500495D01*
X158727416Y-118519670D01*
X158734143Y-118537679D01*
X158741667Y-118554510D01*
X158749922Y-118570153D01*
X158758844Y-118584597D01*
X158768370Y-118597829D01*
X158778436Y-118609840D01*
X158788977Y-118620618D01*
X158799931Y-118630152D01*
X158811232Y-118638430D01*
X158822816Y-118645442D01*
X158726096Y-118645442D01*
X158726096Y-118872295D01*
X159570200Y-118872295D01*
X159570200Y-118635184D01*
X159088064Y-118635184D01*
X159065902Y-118634591D01*
X159045241Y-118632803D01*
X159026072Y-118629807D01*
X159008384Y-118625589D01*
X158992169Y-118620137D01*
X158977415Y-118613437D01*
X158964113Y-118605475D01*
X158952253Y-118596239D01*
X158941825Y-118585715D01*
X158932820Y-118573889D01*
X158925227Y-118560749D01*
X158919037Y-118546281D01*
X158914240Y-118530471D01*
X158910826Y-118513307D01*
X158908784Y-118494776D01*
X158908106Y-118474863D01*
X158908472Y-118456866D01*
X158909631Y-118440429D01*
X158911676Y-118425496D01*
X158914701Y-118412013D01*
X158918796Y-118399924D01*
X158924057Y-118389175D01*
X158934333Y-118375442D01*
X158947751Y-118364414D01*
X158958596Y-118358473D01*
X158971069Y-118353597D01*
X158985262Y-118349731D01*
X159001270Y-118346819D01*
X159019183Y-118344808D01*
X159039096Y-118343641D01*
X159061100Y-118343265D01*
X159570200Y-118343265D01*
X159570200Y-118104395D01*
G37*
G36*
X159213800Y-117808959D02*
G01*
X159233925Y-117807168D01*
X159253156Y-117804014D01*
X159271437Y-117799528D01*
X159288713Y-117793741D01*
X159304927Y-117786685D01*
X159320024Y-117778392D01*
X159333948Y-117768892D01*
X159346644Y-117758217D01*
X159358055Y-117746399D01*
X159368126Y-117733468D01*
X159376800Y-117719456D01*
X159384022Y-117704394D01*
X159389737Y-117688314D01*
X159393888Y-117671247D01*
X159396419Y-117653224D01*
X159397276Y-117634276D01*
X159396905Y-117621616D01*
X159395797Y-117609274D01*
X159393954Y-117597291D01*
X159391382Y-117585710D01*
X159386162Y-117569187D01*
X159379320Y-117553807D01*
X159370870Y-117539715D01*
X159360825Y-117527055D01*
X159349198Y-117515969D01*
X159336001Y-117506601D01*
X159321248Y-117499094D01*
X159304952Y-117493593D01*
X159304952Y-117248568D01*
X159322038Y-117253958D01*
X159338619Y-117259846D01*
X159354691Y-117266223D01*
X159370253Y-117273080D01*
X159385303Y-117280408D01*
X159399837Y-117288198D01*
X159413853Y-117296442D01*
X159427349Y-117305130D01*
X159440323Y-117314254D01*
X159452772Y-117323806D01*
X159464694Y-117333775D01*
X159476086Y-117344153D01*
X159486945Y-117354932D01*
X159497270Y-117366102D01*
X159507059Y-117377655D01*
X159516307Y-117389582D01*
X159525014Y-117401873D01*
X159533177Y-117414521D01*
X159540793Y-117427516D01*
X159547860Y-117440849D01*
X159554375Y-117454512D01*
X159560337Y-117468495D01*
X159565742Y-117482791D01*
X159570589Y-117497389D01*
X159574874Y-117512281D01*
X159578596Y-117527459D01*
X159581752Y-117542913D01*
X159584339Y-117558634D01*
X159586356Y-117574614D01*
X159587800Y-117590844D01*
X159588668Y-117607315D01*
X159588957Y-117624018D01*
X159588498Y-117649832D01*
X159587123Y-117674846D01*
X159584834Y-117699059D01*
X159581634Y-117722469D01*
X159577525Y-117745076D01*
X159572510Y-117766878D01*
X159566592Y-117787873D01*
X159559772Y-117808061D01*
X159552054Y-117827440D01*
X159543439Y-117846009D01*
X159533931Y-117863767D01*
X159523532Y-117880711D01*
X159512245Y-117896842D01*
X159500071Y-117912157D01*
X159487014Y-117926656D01*
X159473076Y-117940337D01*
X159458260Y-117953199D01*
X159442568Y-117965240D01*
X159426002Y-117976460D01*
X159408566Y-117986856D01*
X159390261Y-117996428D01*
X159371091Y-118005175D01*
X159351057Y-118013095D01*
X159330162Y-118020186D01*
X159308409Y-118026448D01*
X159285801Y-118031880D01*
X159262339Y-118036479D01*
X159238027Y-118040245D01*
X159212866Y-118043176D01*
X159186860Y-118045271D01*
X159160011Y-118046529D01*
X159132321Y-118046949D01*
X159108719Y-118046507D01*
X159085624Y-118045184D01*
X159063052Y-118042991D01*
X159041018Y-118039934D01*
X159019540Y-118036023D01*
X158998632Y-118031265D01*
X158978310Y-118025669D01*
X158958591Y-118019243D01*
X158939490Y-118011995D01*
X158921023Y-118003934D01*
X158903206Y-117995067D01*
X158886055Y-117985403D01*
X158869586Y-117974951D01*
X158853815Y-117963718D01*
X158838757Y-117951714D01*
X158824428Y-117938945D01*
X158810845Y-117925421D01*
X158798023Y-117911149D01*
X158785978Y-117896138D01*
X158774726Y-117880396D01*
X158764283Y-117863932D01*
X158754665Y-117846754D01*
X158745888Y-117828869D01*
X158737966Y-117810287D01*
X158730918Y-117791015D01*
X158724757Y-117771062D01*
X158719501Y-117750436D01*
X158715165Y-117729145D01*
X158711765Y-117707198D01*
X158709316Y-117684603D01*
X158707835Y-117661367D01*
X158707478Y-117644242D01*
X158899313Y-117644242D01*
X158900015Y-117659749D01*
X158902098Y-117674796D01*
X158905528Y-117689320D01*
X158910272Y-117703258D01*
X158916295Y-117716549D01*
X158923564Y-117729131D01*
X158932044Y-117740941D01*
X158941702Y-117751916D01*
X158952503Y-117761995D01*
X158964414Y-117771115D01*
X158977402Y-117779214D01*
X158991431Y-117786231D01*
X159006468Y-117792101D01*
X159022480Y-117796764D01*
X159039431Y-117800157D01*
X159057290Y-117802218D01*
X159057290Y-117484214D01*
X159038224Y-117485634D01*
X159020376Y-117488625D01*
X159003747Y-117493096D01*
X158988340Y-117498955D01*
X158974155Y-117506111D01*
X158961194Y-117514471D01*
X158949460Y-117523946D01*
X158938954Y-117534442D01*
X158929677Y-117545869D01*
X158921632Y-117558136D01*
X158914819Y-117571151D01*
X158909242Y-117584822D01*
X158904901Y-117599058D01*
X158901798Y-117613767D01*
X158899935Y-117628859D01*
X158899313Y-117644242D01*
X158707478Y-117644242D01*
X158707338Y-117637500D01*
X158707839Y-117613668D01*
X158709339Y-117590533D01*
X158711839Y-117568100D01*
X158715336Y-117546372D01*
X158719830Y-117525353D01*
X158725319Y-117505048D01*
X158731803Y-117485459D01*
X158739281Y-117466591D01*
X158747750Y-117448449D01*
X158757211Y-117431034D01*
X158767661Y-117414352D01*
X158779101Y-117398407D01*
X158791528Y-117383201D01*
X158804941Y-117368740D01*
X158819340Y-117355026D01*
X158834723Y-117342064D01*
X158851090Y-117329858D01*
X158868438Y-117318411D01*
X158886767Y-117307728D01*
X158906077Y-117297812D01*
X158926365Y-117288667D01*
X158947630Y-117280297D01*
X158969872Y-117272706D01*
X158993089Y-117265897D01*
X159017280Y-117259875D01*
X159042444Y-117254643D01*
X159068580Y-117250206D01*
X159095687Y-117246567D01*
X159123764Y-117243730D01*
X159152809Y-117241698D01*
X159182822Y-117240477D01*
X159213800Y-117240068D01*
X159213800Y-117808959D01*
G37*
G36*
X159570200Y-116611387D02*
G01*
X159489306Y-116612267D01*
X159500182Y-116619707D01*
X159510586Y-116628159D01*
X159520487Y-116637587D01*
X159529854Y-116647960D01*
X159538653Y-116659242D01*
X159546854Y-116671401D01*
X159554425Y-116684404D01*
X159561333Y-116698216D01*
X159567548Y-116712804D01*
X159573038Y-116728135D01*
X159577770Y-116744175D01*
X159581712Y-116760891D01*
X159584834Y-116778250D01*
X159587104Y-116796217D01*
X159588489Y-116814759D01*
X159588957Y-116833844D01*
X159588460Y-116853593D01*
X159586977Y-116872986D01*
X159584520Y-116892005D01*
X159581099Y-116910632D01*
X159576728Y-116928850D01*
X159571417Y-116946641D01*
X159565178Y-116963987D01*
X159558022Y-116980870D01*
X159549963Y-116997273D01*
X159541010Y-117013178D01*
X159531176Y-117028567D01*
X159520472Y-117043422D01*
X159508910Y-117057725D01*
X159496502Y-117071460D01*
X159483259Y-117084607D01*
X159469193Y-117097150D01*
X159454315Y-117109070D01*
X159438638Y-117120350D01*
X159422173Y-117130971D01*
X159404931Y-117140917D01*
X159386924Y-117150169D01*
X159368164Y-117158710D01*
X159348663Y-117166522D01*
X159328431Y-117173587D01*
X159307481Y-117179887D01*
X159285825Y-117185405D01*
X159263474Y-117190123D01*
X159240439Y-117194023D01*
X159216733Y-117197087D01*
X159192366Y-117199297D01*
X159167351Y-117200637D01*
X159141700Y-117201087D01*
X159118329Y-117200706D01*
X159095380Y-117199566D01*
X159072876Y-117197676D01*
X159050836Y-117195045D01*
X159029281Y-117191679D01*
X159008233Y-117187586D01*
X158987713Y-117182776D01*
X158967741Y-117177255D01*
X158948338Y-117171032D01*
X158929526Y-117164115D01*
X158911324Y-117156510D01*
X158893755Y-117148228D01*
X158876838Y-117139275D01*
X158860596Y-117129659D01*
X158845049Y-117119388D01*
X158830217Y-117108470D01*
X158816122Y-117096914D01*
X158802785Y-117084727D01*
X158790226Y-117071917D01*
X158778467Y-117058491D01*
X158767528Y-117044459D01*
X158757431Y-117029828D01*
X158748196Y-117014605D01*
X158739844Y-116998799D01*
X158732396Y-116982418D01*
X158725874Y-116965470D01*
X158720298Y-116947962D01*
X158715688Y-116929902D01*
X158712066Y-116911299D01*
X158709454Y-116892161D01*
X158707871Y-116872494D01*
X158707338Y-116852309D01*
X158707851Y-116832876D01*
X158709368Y-116813944D01*
X158711853Y-116795540D01*
X158714511Y-116781673D01*
X158912795Y-116781673D01*
X158913711Y-116803967D01*
X158916466Y-116824698D01*
X158921072Y-116843884D01*
X158927542Y-116861541D01*
X158935886Y-116877687D01*
X158946119Y-116892338D01*
X158958250Y-116905513D01*
X158972293Y-116917228D01*
X158988259Y-116927501D01*
X159006161Y-116936348D01*
X159026010Y-116943787D01*
X159047819Y-116949835D01*
X159059462Y-116952342D01*
X159071599Y-116954509D01*
X159084232Y-116956336D01*
X159097363Y-116957826D01*
X159110992Y-116958981D01*
X159125122Y-116959804D01*
X159139754Y-116960296D01*
X159154889Y-116960459D01*
X159168102Y-116960248D01*
X159181029Y-116959617D01*
X159193660Y-116958577D01*
X159205986Y-116957132D01*
X159218000Y-116955292D01*
X159229692Y-116953064D01*
X159252076Y-116947472D01*
X159273069Y-116940417D01*
X159292602Y-116931958D01*
X159310604Y-116922157D01*
X159327007Y-116911073D01*
X159341740Y-116898767D01*
X159354735Y-116885297D01*
X159365921Y-116870725D01*
X159375230Y-116855111D01*
X159382591Y-116838515D01*
X159387934Y-116820996D01*
X159391192Y-116802615D01*
X159392293Y-116783432D01*
X159392030Y-116774135D01*
X159389951Y-116756006D01*
X159385859Y-116738561D01*
X159379822Y-116721873D01*
X159371908Y-116706018D01*
X159362185Y-116691072D01*
X159350722Y-116677108D01*
X159337587Y-116664204D01*
X159322849Y-116652433D01*
X159306574Y-116641871D01*
X159288833Y-116632593D01*
X159269692Y-116624674D01*
X159249221Y-116618189D01*
X159227487Y-116613213D01*
X159204560Y-116609822D01*
X159192669Y-116608744D01*
X159180506Y-116608090D01*
X159168078Y-116607870D01*
X159152028Y-116608039D01*
X159136521Y-116608547D01*
X159121554Y-116609393D01*
X159107124Y-116610578D01*
X159093231Y-116612101D01*
X159079871Y-116613964D01*
X159067042Y-116616165D01*
X159054743Y-116618705D01*
X159031725Y-116624804D01*
X159010798Y-116632260D01*
X158991946Y-116641074D01*
X158975151Y-116651248D01*
X158960396Y-116662782D01*
X158947664Y-116675676D01*
X158936938Y-116689933D01*
X158928201Y-116705552D01*
X158921435Y-116722535D01*
X158916624Y-116740882D01*
X158913750Y-116760595D01*
X158912795Y-116781673D01*
X158714511Y-116781673D01*
X158715275Y-116777689D01*
X158719598Y-116760419D01*
X158724788Y-116743756D01*
X158730813Y-116727726D01*
X158737637Y-116712357D01*
X158745227Y-116697675D01*
X158753549Y-116683707D01*
X158762569Y-116670478D01*
X158772254Y-116658016D01*
X158782568Y-116646348D01*
X158793479Y-116635500D01*
X158804953Y-116625498D01*
X158816955Y-116616370D01*
X158425971Y-116616370D01*
X158425971Y-116382483D01*
X159570200Y-116382483D01*
X159570200Y-116611387D01*
G37*
G36*
X159165753Y-115083659D02*
G01*
X159190917Y-115084999D01*
X159215424Y-115087209D01*
X159239261Y-115090273D01*
X159262417Y-115094173D01*
X159284882Y-115098891D01*
X159306643Y-115104409D01*
X159327689Y-115110709D01*
X159348010Y-115117774D01*
X159367593Y-115125586D01*
X159386427Y-115134127D01*
X159404502Y-115143379D01*
X159421805Y-115153325D01*
X159438325Y-115163946D01*
X159454052Y-115175226D01*
X159468973Y-115187146D01*
X159483078Y-115199689D01*
X159496355Y-115212836D01*
X159508792Y-115226571D01*
X159520379Y-115240874D01*
X159531104Y-115255729D01*
X159540956Y-115271118D01*
X159549923Y-115287023D01*
X159557995Y-115303426D01*
X159565159Y-115320309D01*
X159571405Y-115337655D01*
X159576721Y-115355446D01*
X159581096Y-115373664D01*
X159584518Y-115392291D01*
X159586977Y-115411310D01*
X159588460Y-115430703D01*
X159588957Y-115450452D01*
X159588489Y-115469533D01*
X159587108Y-115488066D01*
X159584850Y-115506019D01*
X159581749Y-115523359D01*
X159577841Y-115540053D01*
X159573161Y-115556068D01*
X159567745Y-115571373D01*
X159561627Y-115585934D01*
X159554842Y-115599719D01*
X159547427Y-115612694D01*
X159539415Y-115624829D01*
X159530843Y-115636089D01*
X159521745Y-115646443D01*
X159512157Y-115655857D01*
X159502114Y-115664299D01*
X159491651Y-115671736D01*
X159570200Y-115673202D01*
X159570200Y-115901520D01*
X158425971Y-115901520D01*
X158425971Y-115667926D01*
X158816955Y-115667926D01*
X158804953Y-115658795D01*
X158793479Y-115648784D01*
X158782568Y-115637923D01*
X158772254Y-115626238D01*
X158762569Y-115613759D01*
X158753549Y-115600512D01*
X158745227Y-115586526D01*
X158737637Y-115571829D01*
X158730813Y-115556448D01*
X158724788Y-115540411D01*
X158719598Y-115523747D01*
X158715275Y-115506483D01*
X158714534Y-115502623D01*
X158912795Y-115502623D01*
X158913034Y-115513306D01*
X158914946Y-115533653D01*
X158918786Y-115552641D01*
X158924573Y-115570270D01*
X158932322Y-115586540D01*
X158942052Y-115601451D01*
X158953778Y-115615006D01*
X158967519Y-115627202D01*
X158983292Y-115638042D01*
X159001113Y-115647525D01*
X159021001Y-115655653D01*
X159042971Y-115662424D01*
X159054743Y-115665302D01*
X159067042Y-115667841D01*
X159079871Y-115670041D01*
X159093231Y-115671903D01*
X159107124Y-115673426D01*
X159121554Y-115674610D01*
X159136521Y-115675456D01*
X159152028Y-115675963D01*
X159168078Y-115676133D01*
X159180506Y-115675913D01*
X159192669Y-115675259D01*
X159216169Y-115672689D01*
X159238508Y-115668497D01*
X159259619Y-115662760D01*
X159279433Y-115655553D01*
X159297883Y-115646952D01*
X159314899Y-115637031D01*
X159330414Y-115625867D01*
X159344359Y-115613536D01*
X159356667Y-115600112D01*
X159367268Y-115585672D01*
X159376095Y-115570290D01*
X159383079Y-115554043D01*
X159388153Y-115537006D01*
X159391247Y-115519254D01*
X159392293Y-115500864D01*
X159391192Y-115481633D01*
X159387934Y-115463216D01*
X159382591Y-115445673D01*
X159375230Y-115429061D01*
X159365921Y-115413441D01*
X159354735Y-115398870D01*
X159341740Y-115385408D01*
X159327007Y-115373113D01*
X159310604Y-115362044D01*
X159292602Y-115352260D01*
X159273069Y-115343820D01*
X159252076Y-115336783D01*
X159229692Y-115331207D01*
X159218000Y-115328986D01*
X159205986Y-115327152D01*
X159193660Y-115325712D01*
X159181029Y-115324675D01*
X159168102Y-115324048D01*
X159154889Y-115323837D01*
X159139754Y-115324000D01*
X159125122Y-115324492D01*
X159110992Y-115325315D01*
X159097363Y-115326470D01*
X159084232Y-115327960D01*
X159071599Y-115329787D01*
X159059462Y-115331954D01*
X159047819Y-115334461D01*
X159026010Y-115340509D01*
X159006161Y-115347948D01*
X158988259Y-115356795D01*
X158972293Y-115367068D01*
X158958250Y-115378783D01*
X158946119Y-115391958D01*
X158935886Y-115406609D01*
X158927542Y-115422755D01*
X158921072Y-115440412D01*
X158916466Y-115459598D01*
X158913711Y-115480329D01*
X158912795Y-115502623D01*
X158714534Y-115502623D01*
X158711853Y-115488647D01*
X158709368Y-115470267D01*
X158707851Y-115451372D01*
X158707338Y-115431987D01*
X158707871Y-115411802D01*
X158709453Y-115392135D01*
X158712065Y-115372997D01*
X158715685Y-115354394D01*
X158720291Y-115336334D01*
X158725862Y-115318826D01*
X158732378Y-115301878D01*
X158739817Y-115285497D01*
X158748157Y-115269691D01*
X158757377Y-115254468D01*
X158767457Y-115239837D01*
X158778374Y-115225805D01*
X158790108Y-115212379D01*
X158802637Y-115199569D01*
X158815941Y-115187382D01*
X158829997Y-115175826D01*
X158844785Y-115164908D01*
X158860283Y-115154637D01*
X158876470Y-115145021D01*
X158893325Y-115136068D01*
X158910827Y-115127786D01*
X158928954Y-115120181D01*
X158947685Y-115113264D01*
X158966999Y-115107041D01*
X158986874Y-115101520D01*
X159007290Y-115096710D01*
X159028225Y-115092617D01*
X159049658Y-115089251D01*
X159071567Y-115086620D01*
X159093931Y-115084730D01*
X159116730Y-115083590D01*
X159139941Y-115083209D01*
X159165753Y-115083659D01*
G37*
G36*
X159578699Y-114495267D02*
G01*
X159599058Y-114496036D01*
X159618345Y-114498285D01*
X159636529Y-114501929D01*
X159653575Y-114506881D01*
X159669449Y-114513056D01*
X159684119Y-114520368D01*
X159697551Y-114528731D01*
X159709711Y-114538059D01*
X159720566Y-114548266D01*
X159730082Y-114559267D01*
X159738226Y-114570975D01*
X159744964Y-114583305D01*
X159750264Y-114596170D01*
X159754090Y-114609486D01*
X159756411Y-114623166D01*
X159757192Y-114637124D01*
X159756517Y-114657105D01*
X159754498Y-114675728D01*
X159751147Y-114693003D01*
X159746471Y-114708940D01*
X159740482Y-114723548D01*
X159733189Y-114736835D01*
X159724602Y-114748813D01*
X159714730Y-114759489D01*
X159703585Y-114768874D01*
X159691175Y-114776977D01*
X159677510Y-114783808D01*
X159662601Y-114789375D01*
X159646457Y-114793689D01*
X159629089Y-114796759D01*
X159610505Y-114798594D01*
X159590716Y-114799203D01*
X159590716Y-115021073D01*
X159612494Y-115020699D01*
X159633694Y-115019578D01*
X159654310Y-115017712D01*
X159674332Y-115015102D01*
X159693755Y-115011751D01*
X159712570Y-115007659D01*
X159730771Y-115002830D01*
X159748349Y-114997264D01*
X159765297Y-114990964D01*
X159781608Y-114983931D01*
X159797274Y-114976166D01*
X159812288Y-114967673D01*
X159826642Y-114958452D01*
X159840329Y-114948505D01*
X159853342Y-114937834D01*
X159865672Y-114926441D01*
X159877313Y-114914328D01*
X159888257Y-114901496D01*
X159898497Y-114887947D01*
X159908025Y-114873683D01*
X159916833Y-114858706D01*
X159924914Y-114843017D01*
X159932262Y-114826618D01*
X159938867Y-114809512D01*
X159944724Y-114791699D01*
X159949823Y-114773181D01*
X159954159Y-114753961D01*
X159957723Y-114734040D01*
X159960508Y-114713420D01*
X159962507Y-114692102D01*
X159963711Y-114670089D01*
X159964114Y-114647382D01*
X159963702Y-114627338D01*
X159962471Y-114607558D01*
X159960425Y-114588068D01*
X159957572Y-114568892D01*
X159953919Y-114550053D01*
X159949470Y-114531576D01*
X159944232Y-114513487D01*
X159938212Y-114495808D01*
X159931416Y-114478564D01*
X159923850Y-114461780D01*
X159915520Y-114445481D01*
X159906433Y-114429689D01*
X159896594Y-114414431D01*
X159886010Y-114399729D01*
X159874687Y-114385610D01*
X159862631Y-114372096D01*
X159849850Y-114359212D01*
X159836347Y-114346983D01*
X159822131Y-114335433D01*
X159807207Y-114324586D01*
X159791582Y-114314467D01*
X159775261Y-114305100D01*
X159758252Y-114296510D01*
X159740559Y-114288720D01*
X159722190Y-114281756D01*
X159703150Y-114275641D01*
X159683446Y-114270400D01*
X159663084Y-114266057D01*
X159642071Y-114262637D01*
X159620412Y-114260164D01*
X159598113Y-114258662D01*
X159575182Y-114258156D01*
X158726096Y-114258156D01*
X158726096Y-114495267D01*
X159232265Y-114495267D01*
X159247637Y-114496002D01*
X159262393Y-114498174D01*
X159276483Y-114501738D01*
X159289853Y-114506648D01*
X159302452Y-114512857D01*
X159314228Y-114520321D01*
X159325129Y-114528994D01*
X159335104Y-114538828D01*
X159344099Y-114549779D01*
X159352063Y-114561800D01*
X159358945Y-114574845D01*
X159364692Y-114588869D01*
X159369252Y-114603825D01*
X159372574Y-114619668D01*
X159374605Y-114636352D01*
X159375294Y-114653830D01*
X159374756Y-114669878D01*
X159373139Y-114684835D01*
X159370433Y-114698708D01*
X159366629Y-114711505D01*
X159361720Y-114723234D01*
X159355696Y-114733902D01*
X159348548Y-114743518D01*
X159340269Y-114752089D01*
X159330850Y-114759622D01*
X159320282Y-114766126D01*
X159308556Y-114771608D01*
X159295664Y-114776076D01*
X159281598Y-114779538D01*
X159266348Y-114782001D01*
X159249907Y-114783473D01*
X159232265Y-114783962D01*
X158726096Y-114783962D01*
X158726096Y-115021073D01*
X159263626Y-115021073D01*
X159280674Y-115020680D01*
X159297353Y-115019513D01*
X159313652Y-115017588D01*
X159329561Y-115014923D01*
X159345066Y-115011535D01*
X159360158Y-115007441D01*
X159374825Y-115002659D01*
X159389055Y-114997205D01*
X159402838Y-114991096D01*
X159416161Y-114984351D01*
X159429014Y-114976986D01*
X159441385Y-114969018D01*
X159453263Y-114960464D01*
X159464637Y-114951342D01*
X159475495Y-114941668D01*
X159485826Y-114931461D01*
X159495618Y-114920736D01*
X159504861Y-114909512D01*
X159513543Y-114897805D01*
X159521652Y-114885633D01*
X159529178Y-114873013D01*
X159536109Y-114859961D01*
X159542433Y-114846496D01*
X159548140Y-114832634D01*
X159553218Y-114818392D01*
X159557655Y-114803788D01*
X159561441Y-114788839D01*
X159564564Y-114773562D01*
X159567012Y-114757974D01*
X159568775Y-114742093D01*
X159569842Y-114725935D01*
X159570200Y-114709517D01*
X159569675Y-114690016D01*
X159568158Y-114670823D01*
X159565735Y-114652046D01*
X159562492Y-114633794D01*
X159558516Y-114616176D01*
X159553893Y-114599300D01*
X159548710Y-114583276D01*
X159543052Y-114568210D01*
X159537006Y-114554213D01*
X159530658Y-114541393D01*
X159524094Y-114529858D01*
X159517402Y-114519718D01*
X159507309Y-114507358D01*
X159497411Y-114498746D01*
X159491065Y-114495267D01*
X159578699Y-114495267D01*
G37*
G36*
X159570200Y-112678101D02*
G01*
X158444728Y-112678101D01*
X158444728Y-113030690D01*
X159226989Y-113225009D01*
X158444728Y-113419329D01*
X158444728Y-113778952D01*
X159570200Y-113778952D01*
X159570200Y-113543306D01*
X158806110Y-113552685D01*
X159570200Y-113353090D01*
X159570200Y-113107186D01*
X158802593Y-112905833D01*
X159570200Y-112915212D01*
X159570200Y-112678101D01*
G37*
G36*
X159570200Y-112363907D02*
G01*
X158726096Y-112363907D01*
X158726096Y-112601018D01*
X159570200Y-112601018D01*
X159570200Y-112363907D01*
G37*
G36*
X158648134Y-112363907D02*
G01*
X158425971Y-112363907D01*
X158425971Y-112601018D01*
X158648134Y-112601018D01*
X158648134Y-112363907D01*
G37*
G36*
X159229920Y-111814946D02*
G01*
X159247889Y-111815371D01*
X159264752Y-111816656D01*
X159280501Y-111818816D01*
X159295129Y-111821866D01*
X159308628Y-111825821D01*
X159320992Y-111830696D01*
X159332213Y-111836506D01*
X159342284Y-111843266D01*
X159351198Y-111850992D01*
X159362382Y-111864422D01*
X159368370Y-111874626D01*
X159373174Y-111885848D01*
X159376789Y-111898102D01*
X159379206Y-111911404D01*
X159380418Y-111925769D01*
X159380569Y-111933355D01*
X159379946Y-111948479D01*
X159378081Y-111962434D01*
X159374984Y-111975247D01*
X159370664Y-111986945D01*
X159365129Y-111997554D01*
X159354571Y-112011484D01*
X159341332Y-112023115D01*
X159331031Y-112029634D01*
X159319561Y-112035199D01*
X159306931Y-112039834D01*
X159293150Y-112043567D01*
X159278227Y-112046424D01*
X159262171Y-112048431D01*
X159244991Y-112049617D01*
X159226696Y-112050006D01*
X158899606Y-112050006D01*
X158899606Y-111592783D01*
X158726096Y-111592783D01*
X158726096Y-112050006D01*
X158501002Y-112050006D01*
X158501002Y-112283600D01*
X159248385Y-112283600D01*
X159265144Y-112283306D01*
X159281769Y-112282420D01*
X159298236Y-112280932D01*
X159314518Y-112278834D01*
X159330589Y-112276117D01*
X159346422Y-112272773D01*
X159361992Y-112268791D01*
X159377272Y-112264164D01*
X159392236Y-112258882D01*
X159406858Y-112252938D01*
X159421111Y-112246322D01*
X159434970Y-112239024D01*
X159448408Y-112231038D01*
X159461399Y-112222353D01*
X159473917Y-112212961D01*
X159485936Y-112202853D01*
X159497429Y-112192020D01*
X159508370Y-112180454D01*
X159518734Y-112168145D01*
X159528494Y-112155086D01*
X159537623Y-112141266D01*
X159546096Y-112126678D01*
X159553886Y-112111312D01*
X159560967Y-112095160D01*
X159567313Y-112078213D01*
X159572899Y-112060462D01*
X159577696Y-112041898D01*
X159581680Y-112022512D01*
X159584825Y-112002297D01*
X159587103Y-111981242D01*
X159588489Y-111959339D01*
X159588957Y-111936579D01*
X159588485Y-111914603D01*
X159587084Y-111893402D01*
X159584784Y-111872973D01*
X159581611Y-111853309D01*
X159577593Y-111834407D01*
X159572758Y-111816260D01*
X159567132Y-111798863D01*
X159560743Y-111782212D01*
X159553618Y-111766301D01*
X159545786Y-111751125D01*
X159537273Y-111736678D01*
X159528107Y-111722957D01*
X159518315Y-111709955D01*
X159507925Y-111697667D01*
X159496964Y-111686089D01*
X159485459Y-111675215D01*
X159473439Y-111665040D01*
X159460930Y-111655558D01*
X159447959Y-111646766D01*
X159434555Y-111638656D01*
X159420744Y-111631226D01*
X159406555Y-111624468D01*
X159392014Y-111618378D01*
X159377148Y-111612951D01*
X159361987Y-111608182D01*
X159346556Y-111604066D01*
X159330883Y-111600597D01*
X159314995Y-111597770D01*
X159298921Y-111595581D01*
X159282687Y-111594023D01*
X159266321Y-111593092D01*
X159249851Y-111592783D01*
X159007464Y-111592783D01*
X159007464Y-111814946D01*
X159229920Y-111814946D01*
G37*
G36*
X159249557Y-110997807D02*
G01*
X159266561Y-111000063D01*
X159282404Y-111003503D01*
X159297098Y-111008082D01*
X159310649Y-111013753D01*
X159323066Y-111020473D01*
X159334359Y-111028194D01*
X159344536Y-111036872D01*
X159353605Y-111046461D01*
X159361575Y-111056915D01*
X159368454Y-111068189D01*
X159374252Y-111080238D01*
X159378976Y-111093016D01*
X159382635Y-111106478D01*
X159385238Y-111120577D01*
X159386794Y-111135269D01*
X159387310Y-111150508D01*
X159386366Y-111165692D01*
X159383521Y-111180522D01*
X159378756Y-111194911D01*
X159372051Y-111208774D01*
X159363389Y-111222023D01*
X159352751Y-111234573D01*
X159340117Y-111246338D01*
X159325468Y-111257230D01*
X159308786Y-111267164D01*
X159290052Y-111276054D01*
X159269247Y-111283812D01*
X159246352Y-111290354D01*
X159234115Y-111293141D01*
X159221348Y-111295592D01*
X159208049Y-111297695D01*
X159194216Y-111299440D01*
X159179846Y-111300816D01*
X159164937Y-111301813D01*
X159149487Y-111302418D01*
X159133493Y-111302623D01*
X159117657Y-111302421D01*
X159102510Y-111301821D01*
X159088039Y-111300832D01*
X159074232Y-111299463D01*
X159061077Y-111297724D01*
X159048562Y-111295623D01*
X159036674Y-111293169D01*
X159014733Y-111287241D01*
X158995156Y-111280011D01*
X158977845Y-111271551D01*
X158962704Y-111261936D01*
X158949635Y-111251236D01*
X158938539Y-111239526D01*
X158929321Y-111226876D01*
X158921882Y-111213361D01*
X158916125Y-111199052D01*
X158911952Y-111184021D01*
X158909266Y-111168342D01*
X158907970Y-111152088D01*
X158907813Y-111143767D01*
X158908352Y-111129199D01*
X158909966Y-111115192D01*
X158912653Y-111101777D01*
X158916409Y-111088986D01*
X158921231Y-111076852D01*
X158927117Y-111065405D01*
X158934064Y-111054678D01*
X158942068Y-111044702D01*
X158951126Y-111035509D01*
X158961236Y-111027131D01*
X158972395Y-111019600D01*
X158984598Y-111012947D01*
X158997844Y-111007205D01*
X159012130Y-111002404D01*
X159027452Y-110998577D01*
X159043807Y-110995756D01*
X159043807Y-110757472D01*
X159024456Y-110759219D01*
X159005591Y-110761759D01*
X158987220Y-110765078D01*
X158969351Y-110769164D01*
X158951994Y-110774003D01*
X158935156Y-110779583D01*
X158918846Y-110785891D01*
X158903073Y-110792914D01*
X158887845Y-110800638D01*
X158873169Y-110809052D01*
X158859056Y-110818142D01*
X158845512Y-110827895D01*
X158832547Y-110838298D01*
X158820169Y-110849339D01*
X158808386Y-110861004D01*
X158797208Y-110873280D01*
X158786641Y-110886155D01*
X158776695Y-110899615D01*
X158767378Y-110913648D01*
X158758699Y-110928241D01*
X158750665Y-110943381D01*
X158743286Y-110959054D01*
X158736570Y-110975248D01*
X158730525Y-110991950D01*
X158725159Y-111009147D01*
X158720482Y-111026827D01*
X158716501Y-111044975D01*
X158713225Y-111063580D01*
X158710662Y-111082627D01*
X158708821Y-111102106D01*
X158707710Y-111122001D01*
X158707338Y-111142302D01*
X158707733Y-111164143D01*
X158708922Y-111185530D01*
X158710908Y-111206446D01*
X158713698Y-111226875D01*
X158717297Y-111246802D01*
X158721709Y-111266212D01*
X158726939Y-111285088D01*
X158732993Y-111303415D01*
X158739876Y-111321177D01*
X158747592Y-111338360D01*
X158756147Y-111354946D01*
X158765546Y-111370921D01*
X158775793Y-111386270D01*
X158786895Y-111400975D01*
X158798855Y-111415022D01*
X158811679Y-111428395D01*
X158825372Y-111441079D01*
X158839939Y-111453058D01*
X158855385Y-111464316D01*
X158871716Y-111474837D01*
X158888935Y-111484607D01*
X158907049Y-111493609D01*
X158926062Y-111501827D01*
X158945979Y-111509247D01*
X158966805Y-111515853D01*
X158988546Y-111521628D01*
X159011207Y-111526558D01*
X159034791Y-111530626D01*
X159059306Y-111533818D01*
X159084754Y-111536117D01*
X159111143Y-111537508D01*
X159138476Y-111537975D01*
X159165787Y-111537509D01*
X159192270Y-111536122D01*
X159217921Y-111533831D01*
X159242739Y-111530652D01*
X159266721Y-111526602D01*
X159289864Y-111521698D01*
X159312166Y-111515956D01*
X159333624Y-111509394D01*
X159354236Y-111502027D01*
X159374000Y-111493873D01*
X159392912Y-111484949D01*
X159410970Y-111475270D01*
X159428172Y-111464854D01*
X159444515Y-111453717D01*
X159459997Y-111441876D01*
X159474615Y-111429348D01*
X159488367Y-111416149D01*
X159501249Y-111402296D01*
X159513260Y-111387806D01*
X159524398Y-111372696D01*
X159534658Y-111356982D01*
X159544040Y-111340680D01*
X159552540Y-111323808D01*
X159560157Y-111306382D01*
X159566886Y-111288419D01*
X159572727Y-111269936D01*
X159577676Y-111250949D01*
X159581730Y-111231475D01*
X159584888Y-111211531D01*
X159587147Y-111191133D01*
X159588504Y-111170298D01*
X159588957Y-111149043D01*
X159588568Y-111130072D01*
X159587406Y-111111367D01*
X159585484Y-111092943D01*
X159582813Y-111074818D01*
X159579403Y-111057009D01*
X159575267Y-111039534D01*
X159570416Y-111022409D01*
X159564860Y-111005652D01*
X159558611Y-110989281D01*
X159551681Y-110973311D01*
X159544080Y-110957761D01*
X159535820Y-110942648D01*
X159526912Y-110927989D01*
X159517367Y-110913802D01*
X159507198Y-110900103D01*
X159496414Y-110886909D01*
X159485027Y-110874238D01*
X159473049Y-110862108D01*
X159460491Y-110850535D01*
X159447363Y-110839536D01*
X159433678Y-110829130D01*
X159419447Y-110819332D01*
X159404680Y-110810161D01*
X159389390Y-110801633D01*
X159373586Y-110793766D01*
X159357282Y-110786577D01*
X159340487Y-110780083D01*
X159323214Y-110774302D01*
X159305473Y-110769250D01*
X159287276Y-110764945D01*
X159268633Y-110761404D01*
X159249557Y-110758645D01*
X159249557Y-110997807D01*
G37*
G36*
X159570200Y-109947075D02*
G01*
X158980206Y-109947075D01*
X158964596Y-109947434D01*
X158949370Y-109948503D01*
X158934534Y-109950268D01*
X158920096Y-109952715D01*
X158906064Y-109955832D01*
X158892444Y-109959604D01*
X158879245Y-109964018D01*
X158866473Y-109969061D01*
X158854137Y-109974719D01*
X158842242Y-109980980D01*
X158830797Y-109987828D01*
X158819809Y-109995251D01*
X158809286Y-110003236D01*
X158799234Y-110011768D01*
X158789661Y-110020835D01*
X158780575Y-110030423D01*
X158771982Y-110040518D01*
X158763890Y-110051107D01*
X158756307Y-110062177D01*
X158749240Y-110073714D01*
X158742695Y-110085704D01*
X158736682Y-110098135D01*
X158731206Y-110110992D01*
X158726275Y-110124262D01*
X158721897Y-110137932D01*
X158718078Y-110151989D01*
X158714827Y-110166418D01*
X158712151Y-110181206D01*
X158710056Y-110196340D01*
X158708551Y-110211807D01*
X158707643Y-110227592D01*
X158707338Y-110243683D01*
X158708002Y-110264790D01*
X158709913Y-110285602D01*
X158712953Y-110305999D01*
X158717001Y-110325859D01*
X158721939Y-110345059D01*
X158727648Y-110363477D01*
X158734007Y-110380993D01*
X158740897Y-110397483D01*
X158748200Y-110412826D01*
X158755796Y-110426900D01*
X158763565Y-110439583D01*
X158771388Y-110450752D01*
X158779146Y-110460287D01*
X158790399Y-110471257D01*
X158800835Y-110477863D01*
X158425971Y-110477863D01*
X158425971Y-110714974D01*
X159570200Y-110714974D01*
X159570200Y-110477863D01*
X159090116Y-110477863D01*
X159070343Y-110477209D01*
X159051203Y-110475254D01*
X159032782Y-110472009D01*
X159015171Y-110467486D01*
X158998459Y-110461695D01*
X158982733Y-110454648D01*
X158968083Y-110446356D01*
X158954598Y-110436830D01*
X158942366Y-110426082D01*
X158931477Y-110414122D01*
X158922020Y-110400961D01*
X158914082Y-110386611D01*
X158907754Y-110371083D01*
X158903124Y-110354388D01*
X158900281Y-110336538D01*
X158899313Y-110317542D01*
X158899714Y-110300319D01*
X158900969Y-110284455D01*
X158903156Y-110269917D01*
X158906352Y-110256671D01*
X158910635Y-110244682D01*
X158916083Y-110233915D01*
X158926609Y-110219983D01*
X158935309Y-110212123D01*
X158945445Y-110205365D01*
X158957096Y-110199676D01*
X158970339Y-110195021D01*
X158985253Y-110191365D01*
X159001913Y-110188674D01*
X159020399Y-110186914D01*
X159040788Y-110186051D01*
X159051721Y-110185944D01*
X159570200Y-110185944D01*
X159570200Y-109947075D01*
G37*
%TO.C,U1*%
D12*
X204811000Y-104729800D02*
X203161000Y-104729800D01*
X203161000Y-103679800D01*
X203761000Y-103079800D01*
X204811000Y-103079800D01*
X204811000Y-104729800D01*
G36*
X204811000Y-104729800D02*
G01*
X203161000Y-104729800D01*
X203161000Y-103679800D01*
X203761000Y-103079800D01*
X204811000Y-103079800D01*
X204811000Y-104729800D01*
G37*
%TO.C,SW10*%
D13*
X197758657Y-138644400D02*
G75*
G03*
X197758657Y-138644400I-1525000J0D01*
G01*
%TO.C,SW4*%
D14*
X257791532Y-102212626D02*
G75*
G03*
X257791532Y-102212626I-1900000J0D01*
G01*
%TO.C,SW12*%
D13*
X189908657Y-146494400D02*
G75*
G03*
X189908657Y-146494400I-1525000J0D01*
G01*
%TO.C,SW5*%
D15*
X219508657Y-116484400D02*
G75*
G03*
X219508657Y-116484400I-1025000J0D01*
G01*
%TO.C,SW13*%
D13*
X205608657Y-146494400D02*
G75*
G03*
X205608657Y-146494400I-1525000J0D01*
G01*
%TO.C,REF\u002A\u002A*%
D16*
X175063870Y-134753238D02*
X176017825Y-134753238D01*
X176017825Y-135422607D01*
X174431211Y-135422607D01*
X174431211Y-132869435D01*
X175063870Y-132869435D01*
X175063870Y-134753238D01*
G36*
X175063870Y-134753238D02*
G01*
X176017825Y-134753238D01*
X176017825Y-135422607D01*
X174431211Y-135422607D01*
X174431211Y-132869435D01*
X175063870Y-132869435D01*
X175063870Y-134753238D01*
G37*
X172297736Y-135422607D02*
X171616875Y-135422607D01*
X171616875Y-134454485D01*
X171377219Y-134454485D01*
X171377219Y-135422607D01*
X170691919Y-135422607D01*
X170691919Y-132869955D01*
X171374933Y-132869435D01*
X171374933Y-133792237D01*
X171616875Y-133792237D01*
X171616875Y-132869435D01*
X172297736Y-132869435D01*
X172297736Y-135422607D01*
G36*
X172297736Y-135422607D02*
G01*
X171616875Y-135422607D01*
X171616875Y-134454485D01*
X171377219Y-134454485D01*
X171377219Y-135422607D01*
X170691919Y-135422607D01*
X170691919Y-132869955D01*
X171374933Y-132869435D01*
X171374933Y-133792237D01*
X171616875Y-133792237D01*
X171616875Y-132869435D01*
X172297736Y-132869435D01*
X172297736Y-135422607D01*
G37*
X174147736Y-135422607D02*
X173466875Y-135422607D01*
X173466875Y-134454485D01*
X173227219Y-134454485D01*
X173227219Y-135422607D01*
X172541919Y-135422607D01*
X172541919Y-132869955D01*
X173224933Y-132869435D01*
X173224933Y-133792237D01*
X173466875Y-133792237D01*
X173466875Y-132869435D01*
X174147736Y-132869435D01*
X174147736Y-135422607D01*
G36*
X174147736Y-135422607D02*
G01*
X173466875Y-135422607D01*
X173466875Y-134454485D01*
X173227219Y-134454485D01*
X173227219Y-135422607D01*
X172541919Y-135422607D01*
X172541919Y-132869955D01*
X173224933Y-132869435D01*
X173224933Y-133792237D01*
X173466875Y-133792237D01*
X173466875Y-132869435D01*
X174147736Y-132869435D01*
X174147736Y-135422607D01*
G37*
%TO.C,SW3*%
D14*
X276046617Y-113094002D02*
G75*
G03*
X276046617Y-113094002I-1900000J0D01*
G01*
%TO.C,SW11*%
D13*
X197758657Y-154344400D02*
G75*
G03*
X197758657Y-154344400I-1525000J0D01*
G01*
%TO.C,SW1*%
D14*
X261533657Y-116584400D02*
G75*
G03*
X261533657Y-116584400I-1900000J0D01*
G01*
%TO.C,SW2*%
X246357313Y-124142540D02*
G75*
G03*
X246357313Y-124142540I-1900000J0D01*
G01*
%TO.C,U4*%
D12*
X227815400Y-120743600D02*
X227435400Y-120743600D01*
X227435400Y-120003600D01*
X227815400Y-120003600D01*
X227815400Y-120743600D01*
G36*
X227815400Y-120743600D02*
G01*
X227435400Y-120743600D01*
X227435400Y-120003600D01*
X227815400Y-120003600D01*
X227815400Y-120743600D01*
G37*
X228315400Y-120743600D02*
X227935400Y-120743600D01*
X227935400Y-120003600D01*
X228315400Y-120003600D01*
X228315400Y-120743600D01*
G36*
X228315400Y-120743600D02*
G01*
X227935400Y-120743600D01*
X227935400Y-120003600D01*
X228315400Y-120003600D01*
X228315400Y-120743600D01*
G37*
X228815400Y-120743600D02*
X228435400Y-120743600D01*
X228435400Y-120003600D01*
X228815400Y-120003600D01*
X228815400Y-120743600D01*
G36*
X228815400Y-120743600D02*
G01*
X228435400Y-120743600D01*
X228435400Y-120003600D01*
X228815400Y-120003600D01*
X228815400Y-120743600D01*
G37*
X229315400Y-120743600D02*
X228935400Y-120743600D01*
X228935400Y-120003600D01*
X229315400Y-120003600D01*
X229315400Y-120743600D01*
G36*
X229315400Y-120743600D02*
G01*
X228935400Y-120743600D01*
X228935400Y-120003600D01*
X229315400Y-120003600D01*
X229315400Y-120743600D01*
G37*
X229815400Y-120743600D02*
X229435400Y-120743600D01*
X229435400Y-120003600D01*
X229815400Y-120003600D01*
X229815400Y-120743600D01*
G36*
X229815400Y-120743600D02*
G01*
X229435400Y-120743600D01*
X229435400Y-120003600D01*
X229815400Y-120003600D01*
X229815400Y-120743600D01*
G37*
X227815400Y-117943600D02*
X227435400Y-117943600D01*
X227435400Y-117203600D01*
X227815400Y-117203600D01*
X227815400Y-117943600D01*
G36*
X227815400Y-117943600D02*
G01*
X227435400Y-117943600D01*
X227435400Y-117203600D01*
X227815400Y-117203600D01*
X227815400Y-117943600D01*
G37*
X228315400Y-117943600D02*
X227935400Y-117943600D01*
X227935400Y-117203600D01*
X228315400Y-117203600D01*
X228315400Y-117943600D01*
G36*
X228315400Y-117943600D02*
G01*
X227935400Y-117943600D01*
X227935400Y-117203600D01*
X228315400Y-117203600D01*
X228315400Y-117943600D01*
G37*
X228815400Y-117943600D02*
X228435400Y-117943600D01*
X228435400Y-117203600D01*
X228815400Y-117203600D01*
X228815400Y-117943600D01*
G36*
X228815400Y-117943600D02*
G01*
X228435400Y-117943600D01*
X228435400Y-117203600D01*
X228815400Y-117203600D01*
X228815400Y-117943600D01*
G37*
X229315400Y-117943600D02*
X228935400Y-117943600D01*
X228935400Y-117203600D01*
X229315400Y-117203600D01*
X229315400Y-117943600D01*
G36*
X229315400Y-117943600D02*
G01*
X228935400Y-117943600D01*
X228935400Y-117203600D01*
X229315400Y-117203600D01*
X229315400Y-117943600D01*
G37*
X229815400Y-117943600D02*
X229435400Y-117943600D01*
X229435400Y-117203600D01*
X229815400Y-117203600D01*
X229815400Y-117943600D01*
G36*
X229815400Y-117943600D02*
G01*
X229435400Y-117943600D01*
X229435400Y-117203600D01*
X229815400Y-117203600D01*
X229815400Y-117943600D01*
G37*
X229895400Y-118528600D02*
X230395400Y-118528600D01*
X230395400Y-118918600D01*
X229895400Y-118918600D01*
X229895400Y-119028600D01*
X230395400Y-119028600D01*
X230395400Y-119418600D01*
X229895400Y-119418600D01*
X229895400Y-119868600D01*
X227355400Y-119868600D01*
X227355400Y-119418600D01*
X226855400Y-119418600D01*
X226855400Y-119028600D01*
X227355400Y-119028600D01*
X227355400Y-118918600D01*
X226855400Y-118918600D01*
X226855400Y-118528600D01*
X227355400Y-118528600D01*
X227355400Y-118078600D01*
X229895400Y-118078600D01*
X229895400Y-118528600D01*
G36*
X229895400Y-118528600D02*
G01*
X230395400Y-118528600D01*
X230395400Y-118918600D01*
X229895400Y-118918600D01*
X229895400Y-119028600D01*
X230395400Y-119028600D01*
X230395400Y-119418600D01*
X229895400Y-119418600D01*
X229895400Y-119868600D01*
X227355400Y-119868600D01*
X227355400Y-119418600D01*
X226855400Y-119418600D01*
X226855400Y-119028600D01*
X227355400Y-119028600D01*
X227355400Y-118918600D01*
X226855400Y-118918600D01*
X226855400Y-118528600D01*
X227355400Y-118528600D01*
X227355400Y-118078600D01*
X229895400Y-118078600D01*
X229895400Y-118528600D01*
G37*
%TD*%
D17*
%TO.C,RV1*%
X193483657Y-101434400D03*
X190983657Y-101434400D03*
X195983657Y-101434400D03*
D18*
X197833657Y-112934400D03*
X189133657Y-112934400D03*
%TD*%
D19*
%TO.C,J5*%
X211258657Y-85554400D03*
%TD*%
D17*
%TO.C,RV2*%
X243483657Y-101434400D03*
X240983657Y-101434400D03*
X245983657Y-101434400D03*
D18*
X247833657Y-112934400D03*
X239133657Y-112934400D03*
%TD*%
D19*
%TO.C,J9*%
X211258657Y-90554400D03*
%TD*%
%TO.C,J11*%
X211258657Y-93054400D03*
%TD*%
%TO.C,J10*%
X225708657Y-90554400D03*
%TD*%
%TO.C,J6*%
X225708657Y-85554400D03*
%TD*%
%TO.C,J12*%
X225708657Y-93054400D03*
%TD*%
D20*
%TO.C,J14*%
X166212000Y-141608000D03*
X160432000Y-141608000D03*
D21*
X167642000Y-145288000D03*
X159002000Y-145288000D03*
%TD*%
D19*
%TO.C,J8*%
X225708657Y-88054400D03*
%TD*%
%TO.C,J7*%
X211258657Y-88054400D03*
%TD*%
D22*
%TO.C,U9*%
X216939993Y-111424008D03*
X217439993Y-111424008D03*
X217939993Y-111424008D03*
X218439993Y-111424008D03*
X218439993Y-109024008D03*
X217939993Y-109024008D03*
X217439993Y-109024008D03*
X216939993Y-109024008D03*
D23*
X217689993Y-110224008D03*
%TD*%
D24*
%TO.C,D1*%
X236352400Y-114706400D03*
X233852400Y-114706400D03*
%TD*%
D25*
%TO.C,D4*%
X243271000Y-105735600D03*
X243271000Y-106385600D03*
X243271000Y-107035600D03*
X245171000Y-107035600D03*
X245171000Y-106385600D03*
X245171000Y-105735600D03*
%TD*%
D26*
%TO.C,Q3*%
X223124000Y-98638400D03*
X223774000Y-98638400D03*
X224424000Y-98638400D03*
X224424000Y-96738400D03*
X223774000Y-96738400D03*
X223124000Y-96738400D03*
%TD*%
D27*
%TO.C,D9*%
X230581200Y-98836800D03*
X230581200Y-96336800D03*
%TD*%
D28*
%TO.C,L3*%
X167834453Y-123533889D03*
X168783151Y-123583609D03*
X168832871Y-122634911D03*
X167884173Y-122585191D03*
%TD*%
D29*
%TO.C,SW9*%
X221596435Y-133304810D03*
X215370879Y-137663990D03*
%TD*%
D30*
%TO.C,J2*%
X157534500Y-124999200D03*
X157534500Y-128899200D03*
%TD*%
D26*
%TO.C,Q4*%
X220228400Y-98638400D03*
X220878400Y-98638400D03*
X221528400Y-98638400D03*
X221528400Y-96738400D03*
X220878400Y-96738400D03*
X220228400Y-96738400D03*
%TD*%
D30*
%TO.C,J3*%
X278888300Y-128960400D03*
X278888300Y-125060400D03*
%TD*%
D25*
%TO.C,D6*%
X241234000Y-109870000D03*
X241234000Y-109220000D03*
X241234000Y-108570000D03*
X239334000Y-108570000D03*
X239334000Y-109220000D03*
X239334000Y-109870000D03*
%TD*%
D31*
%TO.C,U5*%
X208178400Y-116763800D03*
X208178400Y-116263800D03*
X208178400Y-115763800D03*
X208178400Y-115263800D03*
D32*
X207280400Y-114865800D03*
X206780400Y-114865800D03*
X206280400Y-114865800D03*
D31*
X205382400Y-115263800D03*
X205382400Y-115763800D03*
X205382400Y-116263800D03*
X205382400Y-116763800D03*
D32*
X206280400Y-117161800D03*
X206780400Y-117161800D03*
X207280400Y-117161800D03*
%TD*%
D33*
%TO.C,R15*%
X232613200Y-114569200D03*
X232613200Y-113929200D03*
%TD*%
D34*
%TO.C,C14*%
X235356400Y-108138000D03*
X235356400Y-108778000D03*
%TD*%
D35*
%TO.C,R13*%
X233502200Y-103467400D03*
X233502200Y-105117400D03*
%TD*%
D36*
%TO.C,U1*%
X200036000Y-101854800D03*
X200036000Y-102654800D03*
X200036000Y-103454800D03*
X200036000Y-104254800D03*
X200036000Y-105054800D03*
X200036000Y-105854800D03*
X200036000Y-106654800D03*
X200036000Y-107454800D03*
X200036000Y-108254800D03*
X200036000Y-109054800D03*
X200036000Y-109854800D03*
D37*
X201136000Y-110754800D03*
X201936000Y-110754800D03*
X202736000Y-110754800D03*
X203536000Y-110754800D03*
X204336000Y-110754800D03*
X205136000Y-110754800D03*
X205936000Y-110754800D03*
X206736000Y-110754800D03*
X207536000Y-110754800D03*
X208336000Y-110754800D03*
X209136000Y-110754800D03*
X209936000Y-110754800D03*
X210736000Y-110754800D03*
D36*
X211836000Y-109854800D03*
X211836000Y-109054800D03*
X211836000Y-108254800D03*
X211836000Y-107454800D03*
X211836000Y-106654800D03*
X211836000Y-105854800D03*
X211836000Y-105054800D03*
X211836000Y-104254800D03*
X211836000Y-103454800D03*
X211836000Y-102654800D03*
X211836000Y-101854800D03*
D37*
X210736000Y-100954800D03*
X209936000Y-100954800D03*
X209136000Y-100954800D03*
X208336000Y-100954800D03*
X207536000Y-100954800D03*
X206736000Y-100954800D03*
X205936000Y-100954800D03*
X205136000Y-100954800D03*
X204336000Y-100954800D03*
X203536000Y-100954800D03*
X202736000Y-100954800D03*
X201936000Y-100954800D03*
X201136000Y-100954800D03*
D38*
X205936000Y-105854800D03*
D39*
X211886000Y-100904800D03*
X211886000Y-110804800D03*
X199986000Y-110804800D03*
X199986000Y-100904800D03*
D38*
X203986000Y-105854800D03*
X203986000Y-107804800D03*
X205936000Y-107804800D03*
X207886000Y-107804800D03*
X207886000Y-105854800D03*
X207886000Y-103904800D03*
X205936000Y-103904800D03*
%TD*%
D40*
%TO.C,Q2*%
X207698100Y-130622000D03*
X207698100Y-132522000D03*
X209573100Y-131572000D03*
%TD*%
D41*
%TO.C,C2*%
X189382400Y-117296100D03*
X189382400Y-115571100D03*
%TD*%
D42*
%TO.C,TP5*%
X184658000Y-97891600D03*
%TD*%
D43*
%TO.C,D10*%
X226212400Y-96844800D03*
X226212400Y-99344800D03*
%TD*%
D44*
%TO.C,C20*%
X197546000Y-103479600D03*
X198186000Y-103479600D03*
%TD*%
D34*
%TO.C,R27*%
X219862400Y-94930000D03*
X219862400Y-95570000D03*
%TD*%
D45*
%TO.C,C19*%
X197866000Y-102324200D03*
X197866000Y-100774200D03*
%TD*%
D46*
%TO.C,C7*%
X219021600Y-101650800D03*
X218061600Y-101650800D03*
%TD*%
D47*
%TO.C,U2*%
X175908707Y-125622210D03*
X177806103Y-125721648D03*
X176988245Y-123175355D03*
%TD*%
D48*
%TO.C,C1*%
X176734300Y-128473200D03*
X178459300Y-128473200D03*
%TD*%
D33*
%TO.C,R32*%
X220573600Y-126100800D03*
X220573600Y-125460800D03*
%TD*%
D30*
%TO.C,J1*%
X191283700Y-131490000D03*
X191283700Y-127590000D03*
%TD*%
D44*
%TO.C,R31*%
X219898000Y-127508000D03*
X220538000Y-127508000D03*
%TD*%
D49*
%TO.C,Y1*%
X230073200Y-107905400D03*
X230073200Y-106705400D03*
X230073200Y-105505400D03*
%TD*%
D33*
%TO.C,R2*%
X188112400Y-116093200D03*
X188112400Y-115453200D03*
%TD*%
D25*
%TO.C,D5*%
X243271000Y-108595400D03*
X243271000Y-109245400D03*
X243271000Y-109895400D03*
X245171000Y-109895400D03*
X245171000Y-109245400D03*
X245171000Y-108595400D03*
%TD*%
D50*
%TO.C,R24*%
X220690400Y-99720400D03*
X220050400Y-99720400D03*
%TD*%
%TO.C,C18*%
X201488000Y-125222000D03*
X200848000Y-125222000D03*
%TD*%
%TO.C,C16*%
X229275600Y-114198400D03*
X228635600Y-114198400D03*
%TD*%
D51*
%TO.C,U6*%
X193924700Y-118455800D03*
X193924700Y-119105800D03*
X193924700Y-119755800D03*
X193924700Y-120405800D03*
X198149700Y-120405800D03*
X198149700Y-119755800D03*
X198149700Y-119105800D03*
X198149700Y-118455800D03*
%TD*%
D52*
%TO.C,C10*%
X217779600Y-104495600D03*
X218739600Y-104495600D03*
%TD*%
D53*
%TO.C,SW5*%
X217983657Y-116484400D03*
X218983657Y-116484400D03*
%TD*%
D54*
%TO.C,JP1*%
X233578400Y-118171200D03*
X233578400Y-119471200D03*
%TD*%
D27*
%TO.C,D2*%
X213868000Y-97820800D03*
X213868000Y-95320800D03*
%TD*%
D26*
%TO.C,D8*%
X244007400Y-111368800D03*
X243357400Y-111368800D03*
X242707400Y-111368800D03*
X242707400Y-113268800D03*
X243357400Y-113268800D03*
X244007400Y-113268800D03*
%TD*%
D35*
%TO.C,R14*%
X234188000Y-107226600D03*
X234188000Y-108876600D03*
%TD*%
D55*
%TO.C,J4*%
X278380200Y-144195800D03*
D56*
X276380200Y-144195800D03*
X274380200Y-144195800D03*
X272380200Y-144195800D03*
X270380200Y-144195800D03*
X268380200Y-144195800D03*
%TD*%
D28*
%TO.C,L4*%
X185834453Y-123533889D03*
X186783151Y-123583609D03*
X186832871Y-122634911D03*
X185884173Y-122585191D03*
%TD*%
D44*
%TO.C,R26*%
X222996800Y-95656400D03*
X223636800Y-95656400D03*
%TD*%
%TO.C,R7*%
X217813900Y-105855700D03*
X218453900Y-105855700D03*
%TD*%
D57*
%TO.C,F2*%
X228396800Y-99531500D03*
X228396800Y-96556500D03*
%TD*%
D58*
%TO.C,U8*%
X220884800Y-110845600D03*
X221284800Y-110845600D03*
X221684800Y-110845600D03*
X222084800Y-110845600D03*
X222484800Y-110845600D03*
X222884800Y-110845600D03*
X223284800Y-110845600D03*
X223684800Y-110845600D03*
X224084800Y-110845600D03*
X224484800Y-110845600D03*
X224884800Y-110845600D03*
X225284800Y-110845600D03*
X225684800Y-110845600D03*
X226084800Y-110845600D03*
D59*
X226922300Y-110008100D03*
X226922300Y-109608100D03*
X226922300Y-109208100D03*
X226922300Y-108808100D03*
X226922300Y-108408100D03*
X226922300Y-108008100D03*
X226922300Y-107608100D03*
X226922300Y-107208100D03*
X226922300Y-106808100D03*
X226922300Y-106408100D03*
X226922300Y-106008100D03*
X226922300Y-105608100D03*
X226922300Y-105208100D03*
X226922300Y-104808100D03*
D58*
X226084800Y-103970600D03*
X225684800Y-103970600D03*
X225284800Y-103970600D03*
X224884800Y-103970600D03*
X224484800Y-103970600D03*
X224084800Y-103970600D03*
X223684800Y-103970600D03*
X223284800Y-103970600D03*
X222884800Y-103970600D03*
X222484800Y-103970600D03*
X222084800Y-103970600D03*
X221684800Y-103970600D03*
X221284800Y-103970600D03*
X220884800Y-103970600D03*
D59*
X220047300Y-104808100D03*
X220047300Y-105208100D03*
X220047300Y-105608100D03*
X220047300Y-106008100D03*
X220047300Y-106408100D03*
X220047300Y-106808100D03*
X220047300Y-107208100D03*
X220047300Y-107608100D03*
X220047300Y-108008100D03*
X220047300Y-108408100D03*
X220047300Y-108808100D03*
X220047300Y-109208100D03*
X220047300Y-109608100D03*
X220047300Y-110008100D03*
D60*
X223484800Y-107408100D03*
%TD*%
D33*
%TO.C,R10*%
X215595200Y-112054600D03*
X215595200Y-111414600D03*
%TD*%
D34*
%TO.C,R28*%
X221538800Y-94980800D03*
X221538800Y-95620800D03*
%TD*%
D33*
%TO.C,R35*%
X213410800Y-124475200D03*
X213410800Y-123835200D03*
%TD*%
D44*
%TO.C,R23*%
X223809600Y-99720400D03*
X224449600Y-99720400D03*
%TD*%
D61*
%TO.C,C13*%
X196938600Y-116840000D03*
X198488600Y-116840000D03*
%TD*%
D62*
%TO.C,Q6*%
X223898700Y-123886000D03*
X223898700Y-121986000D03*
X222023700Y-122936000D03*
%TD*%
D33*
%TO.C,R19*%
X207518000Y-112908000D03*
X207518000Y-112268000D03*
%TD*%
D50*
%TO.C,C6*%
X218810800Y-103581200D03*
X218170800Y-103581200D03*
%TD*%
D63*
%TO.C,SW8*%
X266420998Y-96644336D03*
X273349202Y-100644336D03*
D64*
X266946351Y-99834400D03*
X270323849Y-101784400D03*
%TD*%
D52*
%TO.C,C9*%
X216156600Y-107416600D03*
X217116600Y-107416600D03*
%TD*%
D65*
%TO.C,SW7*%
X163618112Y-100644336D03*
X170546316Y-96644336D03*
D66*
X166643465Y-101784400D03*
X170020963Y-99834400D03*
%TD*%
D34*
%TO.C,R29*%
X215278400Y-94944600D03*
X215278400Y-95584600D03*
%TD*%
%TO.C,R18*%
X208381600Y-112252800D03*
X208381600Y-112892800D03*
%TD*%
D35*
%TO.C,R4*%
X190804800Y-97727000D03*
X190804800Y-99377000D03*
%TD*%
D67*
%TO.C,R11*%
X191107600Y-108356400D03*
X192127600Y-108356400D03*
%TD*%
D68*
%TO.C,R36*%
X189255400Y-99377000D03*
X189255400Y-97727000D03*
%TD*%
D69*
%TO.C,C5*%
X226923600Y-101704200D03*
X226923600Y-102664200D03*
%TD*%
D70*
%TO.C,U11*%
X230743200Y-114601600D03*
X230743200Y-114201600D03*
X231143200Y-114601600D03*
X231143200Y-114201600D03*
X231543200Y-114601600D03*
X231543200Y-114201600D03*
X231943200Y-114601600D03*
X231943200Y-114201600D03*
%TD*%
D71*
%TO.C,D3*%
X220191600Y-122377200D03*
X216891600Y-122377200D03*
%TD*%
D50*
%TO.C,R25*%
X222163600Y-99720400D03*
X221523600Y-99720400D03*
%TD*%
D40*
%TO.C,Q5*%
X222023700Y-125440400D03*
X222023700Y-127340400D03*
X223898700Y-126390400D03*
%TD*%
D28*
%TO.C,L1*%
X185834453Y-110533889D03*
X186783151Y-110583609D03*
X186832871Y-109634911D03*
X185884173Y-109585191D03*
%TD*%
D34*
%TO.C,C21*%
X219049600Y-96403200D03*
X219049600Y-97043200D03*
%TD*%
D46*
%TO.C,C8*%
X218818400Y-102666800D03*
X217858400Y-102666800D03*
%TD*%
D44*
%TO.C,R20*%
X197241200Y-107442000D03*
X197881200Y-107442000D03*
%TD*%
D40*
%TO.C,Q7*%
X217146900Y-124373600D03*
X217146900Y-126273600D03*
X219021900Y-125323600D03*
%TD*%
D72*
%TO.C,U12*%
X208565298Y-125214498D03*
X208565298Y-124214498D03*
X208565298Y-123214498D03*
X208565298Y-122214498D03*
X208565298Y-121214498D03*
X203065298Y-121214498D03*
X203065298Y-122214498D03*
X203065298Y-123214498D03*
X203065298Y-124214498D03*
X203065298Y-125214498D03*
D73*
X205815298Y-123214498D03*
%TD*%
D74*
%TO.C,SW6*%
X172671539Y-110006388D03*
X172009489Y-122639052D03*
D75*
X177558707Y-112290293D03*
X177108617Y-120878507D03*
D74*
X182657835Y-110529748D03*
X181995785Y-123162412D03*
D76*
X171861497Y-113043156D03*
X171521313Y-119534248D03*
X167367664Y-112807644D03*
X167027480Y-119298736D03*
%TD*%
D44*
%TO.C,R16*%
X205572400Y-127152400D03*
X206212400Y-127152400D03*
%TD*%
D35*
%TO.C,R37*%
X239293400Y-98743000D03*
X239293400Y-100393000D03*
%TD*%
D25*
%TO.C,D7*%
X241218800Y-107014800D03*
X241218800Y-106364800D03*
X241218800Y-105714800D03*
X239318800Y-105714800D03*
X239318800Y-106364800D03*
X239318800Y-107014800D03*
%TD*%
D50*
%TO.C,R17*%
X206212400Y-130606800D03*
X205572400Y-130606800D03*
%TD*%
D28*
%TO.C,L2*%
X167834453Y-110533889D03*
X168783151Y-110583609D03*
X168832871Y-109634911D03*
X167884173Y-109585191D03*
%TD*%
D33*
%TO.C,R33*%
X225292400Y-124697822D03*
X225292400Y-124057822D03*
%TD*%
D34*
%TO.C,R9*%
X213258400Y-103515200D03*
X213258400Y-104155200D03*
%TD*%
D50*
%TO.C,R21*%
X166537600Y-138938000D03*
X165897600Y-138938000D03*
%TD*%
D77*
%TO.C,C3*%
X232664000Y-96541600D03*
X232664000Y-99241600D03*
%TD*%
D42*
%TO.C,TP4*%
X187452000Y-132130800D03*
%TD*%
D78*
%TO.C,F1*%
X214985600Y-122159700D03*
X214985600Y-125134700D03*
%TD*%
D40*
%TO.C,Q1*%
X207675000Y-127116800D03*
X207675000Y-129016800D03*
X209550000Y-128066800D03*
%TD*%
D33*
%TO.C,C11*%
X216165993Y-109020008D03*
X216165993Y-108380008D03*
%TD*%
D79*
%TO.C,U13*%
X216408000Y-96955600D03*
D80*
X216908000Y-96955600D03*
X217408000Y-96955600D03*
D79*
X217908000Y-96955600D03*
D81*
X218058000Y-96280600D03*
D79*
X217908000Y-95605600D03*
D80*
X217408000Y-95605600D03*
X216908000Y-95605600D03*
D79*
X216408000Y-95605600D03*
D81*
X216258000Y-96280600D03*
%TD*%
D61*
%TO.C,C12*%
X200494600Y-113233200D03*
X202044600Y-113233200D03*
%TD*%
D34*
%TO.C,C22*%
X215278400Y-96417800D03*
X215278400Y-97057800D03*
%TD*%
D31*
%TO.C,U10*%
X203487600Y-116777200D03*
X203487600Y-116277200D03*
X203487600Y-115777200D03*
X203487600Y-115277200D03*
D32*
X202589600Y-114879200D03*
X202089600Y-114879200D03*
X201589600Y-114879200D03*
D31*
X200691600Y-115277200D03*
X200691600Y-115777200D03*
X200691600Y-116277200D03*
X200691600Y-116777200D03*
D32*
X201589600Y-117175200D03*
X202089600Y-117175200D03*
X202589600Y-117175200D03*
%TD*%
D34*
%TO.C,R12*%
X228498400Y-106817200D03*
X228498400Y-107457200D03*
%TD*%
D33*
%TO.C,R34*%
X213410800Y-125999200D03*
X213410800Y-125359200D03*
%TD*%
%TO.C,C15*%
X234645200Y-105399800D03*
X234645200Y-104759800D03*
%TD*%
D44*
%TO.C,R6*%
X217813900Y-106566900D03*
X218453900Y-106566900D03*
%TD*%
D82*
%TO.C,U3*%
X186371472Y-118009355D03*
X186470910Y-116111959D03*
X183924617Y-116929817D03*
%TD*%
D68*
%TO.C,R38*%
X240817400Y-99529400D03*
X240817400Y-97879400D03*
%TD*%
D50*
%TO.C,R22*%
X160797200Y-138938000D03*
X160157200Y-138938000D03*
%TD*%
%TO.C,R5*%
X229885200Y-104495600D03*
X229245200Y-104495600D03*
%TD*%
D33*
%TO.C,R8*%
X213309200Y-109692400D03*
X213309200Y-109052400D03*
%TD*%
D44*
%TO.C,R1*%
X177784800Y-127203200D03*
X178424800Y-127203200D03*
%TD*%
D52*
%TO.C,C17*%
X229974200Y-113207800D03*
X230934200Y-113207800D03*
%TD*%
D33*
%TO.C,R30*%
X219049600Y-95570000D03*
X219049600Y-94930000D03*
%TD*%
D83*
%TO.C,C4*%
X232714800Y-123251000D03*
X232714800Y-121351000D03*
%TD*%
D84*
%TO.C,C23*%
X226720400Y-122087600D03*
X226720400Y-123987600D03*
%TD*%
D85*
%TO.C,L5*%
X230767200Y-122783600D03*
X228617200Y-122783600D03*
%TD*%
D86*
%TO.C,B1*%
X232547596Y-111285471D03*
D87*
X234547596Y-111285471D03*
%TD*%
M02*
