%TF.GenerationSoftware,KiCad,Pcbnew,8.0.2*%
%TF.CreationDate,2024-06-20T12:54:42-07:00*%
%TF.ProjectId,UGC_MechTrigger,5547435f-4d65-4636-9854-726967676572,rev?*%
%TF.SameCoordinates,Original*%
%TF.FileFunction,Legend,Top*%
%TF.FilePolarity,Positive*%
%FSLAX46Y46*%
G04 Gerber Fmt 4.6, Leading zero omitted, Abs format (unit mm)*
G04 Created by KiCad (PCBNEW 8.0.2) date 2024-06-20 12:54:42*
%MOMM*%
%LPD*%
G01*
G04 APERTURE LIST*
%ADD10C,0.150000*%
%ADD11C,0.120000*%
G04 APERTURE END LIST*
D10*
X228063466Y-151600819D02*
X228063466Y-152315104D01*
X228063466Y-152315104D02*
X228015847Y-152457961D01*
X228015847Y-152457961D02*
X227920609Y-152553200D01*
X227920609Y-152553200D02*
X227777752Y-152600819D01*
X227777752Y-152600819D02*
X227682514Y-152600819D01*
X229063466Y-152600819D02*
X228492038Y-152600819D01*
X228777752Y-152600819D02*
X228777752Y-151600819D01*
X228777752Y-151600819D02*
X228682514Y-151743676D01*
X228682514Y-151743676D02*
X228587276Y-151838914D01*
X228587276Y-151838914D02*
X228492038Y-151886533D01*
X209699266Y-151067419D02*
X209699266Y-151781704D01*
X209699266Y-151781704D02*
X209651647Y-151924561D01*
X209651647Y-151924561D02*
X209556409Y-152019800D01*
X209556409Y-152019800D02*
X209413552Y-152067419D01*
X209413552Y-152067419D02*
X209318314Y-152067419D01*
X210127838Y-151162657D02*
X210175457Y-151115038D01*
X210175457Y-151115038D02*
X210270695Y-151067419D01*
X210270695Y-151067419D02*
X210508790Y-151067419D01*
X210508790Y-151067419D02*
X210604028Y-151115038D01*
X210604028Y-151115038D02*
X210651647Y-151162657D01*
X210651647Y-151162657D02*
X210699266Y-151257895D01*
X210699266Y-151257895D02*
X210699266Y-151353133D01*
X210699266Y-151353133D02*
X210651647Y-151495990D01*
X210651647Y-151495990D02*
X210080219Y-152067419D01*
X210080219Y-152067419D02*
X210699266Y-152067419D01*
D11*
%TO.C,J1*%
X227092200Y-145532800D02*
X228422200Y-145532800D01*
X227092200Y-146862800D02*
X227092200Y-145532800D01*
X227092200Y-148132800D02*
X227092200Y-150732800D01*
X227092200Y-148132800D02*
X229752200Y-148132800D01*
X227092200Y-150732800D02*
X229752200Y-150732800D01*
X229752200Y-148132800D02*
X229752200Y-150732800D01*
%TO.C,J2*%
X209058200Y-145126400D02*
X210388200Y-145126400D01*
X209058200Y-146456400D02*
X209058200Y-145126400D01*
X209058200Y-147726400D02*
X209058200Y-150326400D01*
X209058200Y-147726400D02*
X211718200Y-147726400D01*
X209058200Y-150326400D02*
X211718200Y-150326400D01*
X211718200Y-147726400D02*
X211718200Y-150326400D01*
%TD*%
M02*
